<?xml version="1.0" encoding="UTF-8" standalone="no"?>
<svg xmlns:xlink="http://www.w3.org/1999/xlink" height="14.0px" width="14.0px" xmlns="http://www.w3.org/2000/svg">
  <g transform="matrix(1.0, 0.0, 0.0, 1.0, 0.0, 0.0)">
    <use height="14.0" transform="matrix(1.0, 0.0, 0.0, 1.0, 0.0, 0.0)" width="14.0" xlink:href="#shape0"/>
  </g>
  <defs>
    <g id="shape0" transform="matrix(1.0, 0.0, 0.0, 1.0, 0.0, 0.0)">
      <path d="M14.0 14.0 L0.0 14.0 0.0 0.0 14.0 0.0 14.0 14.0" fill="#ffffff" fill-opacity="0.0" fill-rule="evenodd" stroke="none"/>
      <path d="M10.3 10.25 Q8.95 11.6 7.0 11.6 5.1 11.6 3.75 10.25 2.35 8.9 2.35 6.95 2.35 5.05 3.75 3.7 L4.45 3.1 4.45 5.65 3.25 5.65 Q4.1 8.9 7.0 11.35 9.9 9.0 10.8 5.65 L9.45 5.65 9.45 3.0 10.3 3.7 Q11.65 5.05 11.65 6.95 11.65 8.9 10.3 10.25" fill="#ffffff" fill-rule="evenodd" stroke="none"/>
      <path d="M10.3 10.25 Q11.65 8.9 11.65 6.95 11.65 5.05 10.3 3.7 L9.45 3.0 9.45 5.65 10.8 5.65 Q9.9 9.0 7.0 11.35 4.1 8.9 3.25 5.65 L4.45 5.65 4.45 3.1 3.75 3.7 Q2.35 5.05 2.35 6.95 2.35 8.9 3.75 10.25 5.1 11.6 7.0 11.6 8.95 11.6 10.3 10.25 M11.0 11.0 Q9.35 12.65 7.0 12.65 4.65 12.65 2.95 11.0 1.3 9.35 1.3 6.95 1.3 4.6 2.95 2.9 4.65 1.25 7.0 1.25 9.35 1.25 11.0 2.9 12.7 4.6 12.7 6.95 12.7 9.35 11.0 11.0" fill="#02a3ca" fill-rule="evenodd" stroke="none"/>
      <path d="M10.3 10.25 Q8.95 11.6 7.0 11.6 5.1 11.6 3.75 10.25 2.35 8.9 2.35 6.95 2.35 5.05 3.75 3.7 L4.45 3.1 4.45 5.65 3.25 5.65 Q4.1 8.9 7.0 11.35 9.9 9.0 10.8 5.65 L9.45 5.65 9.45 3.0 10.3 3.7 Q11.65 5.05 11.65 6.95 11.65 8.9 10.3 10.25 M11.0 11.0 Q9.35 12.65 7.0 12.65 4.65 12.65 2.95 11.0 1.3 9.35 1.3 6.95 1.3 4.6 2.95 2.9 4.65 1.25 7.0 1.25 9.35 1.25 11.0 2.9 12.7 4.6 12.7 6.95 12.7 9.35 11.0 11.0" fill="none" stroke="#000000" stroke-linecap="round" stroke-linejoin="round" stroke-opacity="0.5019608" stroke-width="0.05"/>
      <path d="M7.1 4.25 L7.9 5.7 9.55 6.05 8.4 7.3 8.55 8.95 7.05 8.25 5.55 8.9 5.7 7.3 4.65 6.1 6.2 5.7 7.1 4.25" fill="#ffde4f" fill-rule="evenodd" stroke="none"/>
    </g>
  </defs>
</svg>
