<?xml version="1.0" encoding="UTF-8" standalone="no"?>
<svg xmlns:xlink="http://www.w3.org/1999/xlink" height="14.0px" width="14.0px" xmlns="http://www.w3.org/2000/svg">
  <g transform="matrix(1.0, 0.0, 0.0, 1.0, 0.0, 0.0)">
    <use height="14.0" transform="matrix(1.0, 0.0, 0.0, 1.0, 0.0, 0.0)" width="14.0" xlink:href="#shape0"/>
  </g>
  <defs>
    <g id="shape0" transform="matrix(1.0, 0.0, 0.0, 1.0, 0.0, 0.0)">
      <path d="M14.0 0.0 L14.0 14.0 0.0 14.0 0.0 0.0 14.0 0.0" fill="#ffffff" fill-opacity="0.0" fill-rule="evenodd" stroke="none"/>
      <path d="M5.95 4.35 Q4.65 5.7 2.9 6.35 3.15 9.5 5.95 11.55 L5.95 13.65 Q1.35 10.25 0.95 5.0 3.8 3.95 5.95 1.7 L5.95 4.35" fill="#dad9ad" fill-rule="evenodd" stroke="none"/>
      <path d="M5.95 11.55 Q3.15 9.5 2.9 6.35 4.65 5.7 5.95 4.35 L5.95 11.55" fill="#e4e3c5" fill-rule="evenodd" stroke="none"/>
      <path d="M5.95 4.35 L5.95 1.7 Q8.15 3.95 10.95 5.0 10.6 10.25 5.95 13.65 L5.95 11.55 Q8.75 9.5 9.0 6.35 7.25 5.7 5.95 4.35" fill="#ededd6" fill-rule="evenodd" stroke="none"/>
      <path d="M5.95 11.55 L5.95 4.35 Q7.25 5.7 9.0 6.35 8.75 9.5 5.95 11.55" fill="#f8f7ed" fill-rule="evenodd" stroke="none"/>
      <path d="M6.9 5.85 L6.9 5.05 7.4 3.6 7.8 5.0 9.6 3.95 8.85 6.0 10.35 6.45 Q9.15 7.3 8.1 7.3 L8.3 7.8 7.4 7.35 7.15 7.15 7.1 7.1 6.75 7.15 6.95 6.8 6.3 5.5 6.9 5.85" fill="#fefade" fill-rule="evenodd" stroke="none"/>
      <path d="M13.6 6.15 Q11.1 8.0 8.9 8.0 L9.55 9.0 7.5 8.1 7.0 7.7 6.9 7.6 6.2 7.75 6.45 6.9 5.2 4.25 6.15 4.7 6.15 4.5 Q6.3 2.45 7.5 0.3 L8.25 3.25 12.0 1.05 10.4 5.3 13.6 6.15 M6.65 5.3 L5.8 4.85 6.7 6.8 6.5 7.35 7.05 7.25 7.1 7.35 7.5 7.65 8.85 8.3 8.4 7.55 Q10.05 7.55 11.85 6.2 L9.6 5.6 10.7 2.55 8.0 4.15 7.5 2.0 Q6.7 3.45 6.7 4.25 L6.65 5.3" fill="#ffdd55" fill-rule="evenodd" stroke="none"/>
      <path d="M6.9 5.85 L6.3 5.5 6.95 6.8 6.75 7.15 7.1 7.1 7.15 7.15 7.4 7.35 8.3 7.8 8.1 7.3 Q9.15 7.3 10.35 6.45 L8.85 6.0 9.6 3.95 7.8 5.0 7.4 3.6 6.9 5.05 6.9 5.85 M6.65 5.3 L6.7 4.25 Q6.7 3.45 7.5 2.0 L8.0 4.15 10.7 2.55 9.6 5.6 11.85 6.2 Q10.05 7.55 8.4 7.55 L8.85 8.3 7.5 7.65 7.1 7.35 7.05 7.25 6.5 7.35 6.7 6.8 5.8 4.85 6.65 5.3" fill="#ffe680" fill-rule="evenodd" stroke="none"/>
    </g>
  </defs>
</svg>
