<?xml version="1.0" encoding="UTF-8" standalone="no"?>
<svg xmlns:xlink="http://www.w3.org/1999/xlink" height="14.0px" width="14.0px" xmlns="http://www.w3.org/2000/svg">
  <g transform="matrix(1.0, 0.0, 0.0, 1.0, 0.0, 0.0)">
    <use height="14.0" transform="matrix(1.0, 0.0, 0.0, 1.0, 0.0, 0.0)" width="14.0" xlink:href="#shape0"/>
  </g>
  <defs>
    <g id="shape0" transform="matrix(1.0, 0.0, 0.0, 1.0, 0.0, 0.0)">
      <path d="M14.0 0.0 L14.0 14.0 0.0 14.0 0.0 0.0 14.0 0.0" fill="#ffffff" fill-opacity="0.0" fill-rule="evenodd" stroke="none"/>
      <path d="M12.5 6.95 Q12.5 9.2 10.9 10.85 9.25 12.45 6.95 12.45 4.65 12.45 3.05 10.85 L1.85 9.15 Q1.4 8.15 1.4 6.95 1.4 5.75 1.85 4.75 2.25 3.8 3.05 3.05 4.65 1.45 6.95 1.45 9.25 1.45 10.9 3.05 12.5 4.65 12.5 6.95 M11.75 6.95 Q11.75 5.0 10.35 3.55 8.95 2.15 6.9 2.15 4.95 2.15 3.55 3.55 2.1 5.0 2.1 6.95 2.1 8.95 3.55 10.35 4.95 11.75 6.9 11.75 8.95 11.75 10.35 10.35 11.75 8.95 11.75 6.95" fill="#fe0000" fill-rule="evenodd" stroke="none"/>
      <path d="M11.75 6.95 Q11.75 8.95 10.35 10.35 8.95 11.75 6.9 11.75 4.95 11.75 3.55 10.35 2.1 8.95 2.1 6.95 2.1 5.0 3.55 3.55 4.95 2.15 6.9 2.15 8.95 2.15 10.35 3.55 11.75 5.0 11.75 6.95" fill="#e3e3e3" fill-rule="evenodd" stroke="none"/>
      <path d="M12.5 6.95 Q12.5 9.2 10.9 10.85 9.25 12.45 6.95 12.45 4.65 12.45 3.05 10.85 L1.85 9.15 Q1.4 8.15 1.4 6.95 1.4 5.75 1.85 4.75 2.25 3.8 3.05 3.05 4.65 1.45 6.95 1.45 9.25 1.45 10.9 3.05 12.5 4.65 12.5 6.95 Z" fill="none" stroke="#b20000" stroke-linecap="round" stroke-linejoin="round" stroke-width="0.5"/>
      <path d="M10.0 7.0 L10.3 7.8 10.3 9.15 Q10.55 9.35 10.3 9.65 L7.3 9.65 7.25 9.65 Q6.65 9.3 6.0 9.65 L4.1 9.7 Q3.95 9.45 4.1 9.15 4.05 7.95 4.3 6.85 L4.3 5.0 4.15 5.0 Q3.8 4.1 4.15 3.25 L7.1 3.2 Q7.5 4.15 7.1 4.95 L6.95 5.0 6.95 5.2 7.05 5.25 6.95 5.4 7.0 5.7 7.0 6.05 7.0 6.55 9.0 6.35 Q9.65 6.45 10.0 7.0" fill="#b3cb20" fill-rule="evenodd" stroke="none"/>
      <path d="M10.0 7.0 Q9.65 6.45 9.0 6.35 L7.0 6.55 7.0 6.05 7.0 5.7 6.95 5.4 7.05 5.25 6.95 5.2 6.95 5.0 7.1 4.95 Q7.5 4.15 7.1 3.2 L4.15 3.25 Q3.8 4.1 4.15 5.0 L4.3 5.0 4.3 6.85 Q4.05 7.95 4.1 9.15 3.95 9.45 4.1 9.7 L6.0 9.65 Q6.65 9.3 7.25 9.65 L7.3 9.65 10.3 9.65 Q10.55 9.35 10.3 9.15 L10.3 7.8 10.0 7.0 Z" fill="none" stroke="#000000" stroke-linecap="round" stroke-linejoin="round" stroke-opacity="0.5019608" stroke-width="0.05"/>
    </g>
  </defs>
</svg>
