<?xml version="1.0" encoding="UTF-8" standalone="no"?>
<svg xmlns:xlink="http://www.w3.org/1999/xlink" height="14.0px" width="14.0px" xmlns="http://www.w3.org/2000/svg">
  <g transform="matrix(1.0, 0.0, 0.0, 1.0, 0.0, 0.0)">
    <use height="14.0" transform="matrix(1.0, 0.0, 0.0, 1.0, 0.0, 0.0)" width="14.0" xlink:href="#shape0"/>
  </g>
  <defs>
    <g id="shape0" transform="matrix(1.0, 0.0, 0.0, 1.0, 0.0, 0.0)">
      <path d="M14.0 0.0 L14.0 14.0 0.0 14.0 0.0 0.0 14.0 0.0" fill="#ffffff" fill-opacity="0.0" fill-rule="evenodd" stroke="none"/>
      <path d="M10.95 10.9 Q9.3 12.5 7.0 12.5 4.7 12.5 3.1 10.9 1.45 9.25 1.45 7.0 1.45 4.7 3.1 3.1 4.7 1.5 7.0 1.5 9.3 1.5 10.95 3.1 12.55 4.7 12.55 7.0 12.55 9.25 10.95 10.9 M10.4 10.4 Q11.8 9.0 11.8 7.0 11.8 5.05 10.4 3.6 9.0 2.2 6.95 2.2 5.0 2.2 3.6 3.6 2.15 5.05 2.15 7.0 2.15 9.0 3.6 10.4 5.0 11.8 6.95 11.8 9.0 11.8 10.4 10.4" fill="#1b431b" fill-rule="evenodd" stroke="none"/>
      <path d="M10.4 10.4 Q9.0 11.8 6.95 11.8 5.0 11.8 3.6 10.4 2.15 9.0 2.15 7.0 2.15 5.05 3.6 3.6 5.0 2.2 6.95 2.2 9.0 2.2 10.4 3.6 11.8 5.05 11.8 7.0 11.8 9.0 10.4 10.4 M11.0 9.0 L10.75 8.6 10.25 8.4 10.05 8.45 10.05 8.2 Q10.05 7.65 9.65 7.3 L9.75 6.9 9.55 6.4 9.05 6.2 8.55 6.4 Q8.4 6.6 8.4 6.9 L8.4 7.0 8.2 7.05 7.95 6.65 Q7.65 6.35 7.25 6.35 L6.85 6.45 6.9 6.05 Q6.9 5.4 6.4 4.95 5.95 4.55 5.35 4.55 L4.8 4.6 4.25 4.95 Q3.8 5.4 3.8 6.05 3.8 6.65 4.25 7.1 L4.8 7.5 5.7 7.5 4.8 7.75 4.7 7.75 4.6 7.95 4.55 7.9 Q4.25 7.65 3.8 7.65 L3.1 7.9 2.85 8.3 2.8 8.6 3.1 9.05 3.5 9.1 Q4.15 9.0 4.0 8.5 L3.65 8.3 4.1 8.55 3.95 9.1 11.0 9.0" fill="#e3e3e3" fill-rule="evenodd" stroke="none"/>
      <path d="M11.0 9.0 L3.95 9.1 4.1 8.55 3.65 8.3 4.0 8.5 Q4.15 9.0 3.5 9.1 L3.1 9.05 2.8 8.6 2.85 8.3 3.1 7.9 3.8 7.65 Q4.25 7.65 4.55 7.9 L4.6 7.95 4.7 7.75 4.8 7.75 5.7 7.5 4.8 7.5 4.25 7.1 Q3.8 6.65 3.8 6.05 3.8 5.4 4.25 4.95 L4.8 4.6 5.35 4.55 Q5.95 4.55 6.4 4.95 6.9 5.4 6.9 6.05 L6.85 6.45 7.25 6.35 Q7.65 6.35 7.95 6.65 L8.2 7.05 8.4 7.0 8.4 6.9 Q8.4 6.6 8.55 6.4 L9.05 6.2 9.55 6.4 9.75 6.9 9.65 7.3 Q10.05 7.65 10.05 8.2 L10.05 8.45 10.25 8.4 10.75 8.6 11.0 9.0" fill="#2b6f2d" fill-rule="evenodd" stroke="none"/>
      <path d="M10.95 10.9 Q9.3 12.5 7.0 12.5 4.7 12.5 3.1 10.9 1.45 9.25 1.45 7.0 1.45 4.7 3.1 3.1 4.7 1.5 7.0 1.5 9.3 1.5 10.95 3.1 12.55 4.7 12.55 7.0 12.55 9.25 10.95 10.9 Z" fill="none" stroke="#2b6f2d" stroke-linecap="round" stroke-linejoin="round" stroke-width="0.5"/>
    </g>
  </defs>
</svg>
