<?xml version="1.0" encoding="UTF-8" standalone="no"?>
<svg xmlns:xlink="http://www.w3.org/1999/xlink" height="14.0px" width="14.0px" xmlns="http://www.w3.org/2000/svg">
  <g transform="matrix(1.0, 0.0, 0.0, 1.0, 0.0, 0.0)">
    <use height="14.0" transform="matrix(1.0, 0.0, 0.0, 1.0, 0.0, 0.0)" width="14.0" xlink:href="#shape0"/>
  </g>
  <defs>
    <g id="shape0" transform="matrix(1.0, 0.0, 0.0, 1.0, 0.0, 0.0)">
      <path d="M14.0 0.0 L14.0 14.0 0.0 14.0 0.0 0.0 14.0 0.0" fill="#ffffff" fill-opacity="0.0" fill-rule="evenodd" stroke="none"/>
      <path d="M8.45 5.7 L12.0 5.7 9.3 8.4 9.9 12.0 7.0 10.6 4.1 12.0 4.7 8.4 2.0 5.7 5.55 5.7 7.0 2.0 8.45 5.7" fill="#eca90e" fill-rule="evenodd" stroke="none"/>
      <path d="M8.45 5.7 L12.0 5.7 9.3 8.4 9.9 12.0 7.0 10.6 4.1 12.0 4.7 8.4 2.0 5.7 5.55 5.7 7.0 2.0 8.45 5.7 Z" fill="none" stroke="#000000" stroke-linecap="round" stroke-linejoin="round" stroke-opacity="0.5019608" stroke-width="0.05"/>
    </g>
  </defs>
</svg>
