<?xml version="1.0" encoding="UTF-8" standalone="no"?>
<svg xmlns:xlink="http://www.w3.org/1999/xlink" height="14.0px" width="14.0px" xmlns="http://www.w3.org/2000/svg">
  <g transform="matrix(1.0, 0.0, 0.0, 1.0, 0.0, 0.0)">
    <use height="14.0" transform="matrix(1.0, 0.0, 0.0, 1.0, 0.0, 0.0)" width="14.0" xlink:href="#shape0"/>
  </g>
  <defs>
    <g id="shape0" transform="matrix(1.0, 0.0, 0.0, 1.0, 0.0, 0.0)">
      <path d="M14.0 0.0 L14.0 14.0 0.0 14.0 0.0 0.0 14.0 0.0" fill="#ffffff" fill-opacity="0.0" fill-rule="evenodd" stroke="none"/>
      <path d="M4.85 7.1 L4.95 1.55 Q4.95 1.3 5.1 1.2 L5.15 1.15 5.3 1.0 5.5 0.95 5.6 0.95 6.6 1.0 7.4 1.0 9.1 0.95 9.45 1.05 9.65 1.25 9.75 1.6 9.55 3.3 Q8.55 6.9 4.85 7.1 M4.45 11.95 L4.5 10.6 Q4.5 10.35 4.8 10.25 4.9 10.1 5.2 10.1 L8.6 10.1 8.9 10.2 9.15 10.35 9.2 10.7 9.2 10.8 Q7.6 12.1 4.45 11.95" fill="#fe0000" fill-rule="evenodd" stroke="none"/>
      <path d="M4.85 7.1 Q8.55 6.9 9.55 3.3 L9.1 7.85 8.9 8.2 8.5 8.3 7.15 8.3 6.4 8.3 5.4 8.3 5.2 8.3 5.1 8.25 4.85 8.05 4.8 7.8 4.85 7.1 M4.45 11.95 Q7.6 12.1 9.2 10.8 L9.1 12.55 8.9 12.9 8.5 13.05 6.75 13.05 4.95 13.05 4.6 13.0 4.4 12.8 4.3 12.5 4.45 11.95" fill="#b20000" fill-rule="evenodd" stroke="none"/>
      <path d="M9.55 3.3 L9.75 1.6 9.65 1.25 9.45 1.05 9.1 0.95 7.4 1.0 6.6 1.0 5.6 0.95 5.5 0.95 5.3 1.0 5.15 1.15 5.1 1.2 Q4.95 1.3 4.95 1.55 L4.85 7.1 4.8 7.8 4.85 8.05 5.1 8.25 5.2 8.3 5.4 8.3 6.4 8.3 7.15 8.3 8.5 8.3 8.9 8.2 9.1 7.85 9.55 3.3 M9.2 10.8 L9.2 10.7 9.15 10.35 8.9 10.2 8.6 10.1 5.2 10.1 Q4.9 10.1 4.8 10.25 4.5 10.35 4.5 10.6 L4.45 11.95 4.3 12.5 4.4 12.8 4.6 13.0 4.95 13.05 6.75 13.05 8.5 13.05 8.9 12.9 9.1 12.55 9.2 10.8" fill="none" stroke="#000000" stroke-linecap="round" stroke-linejoin="round" stroke-opacity="0.3019608" stroke-width="0.2"/>
    </g>
  </defs>
</svg>
