<?xml version="1.0" encoding="UTF-8" standalone="no"?>
<svg xmlns:xlink="http://www.w3.org/1999/xlink" height="14.0px" width="14.0px" xmlns="http://www.w3.org/2000/svg">
  <g transform="matrix(1.0, 0.0, 0.0, 1.0, 0.0, 0.0)">
    <use height="14.0" transform="matrix(1.0, 0.0, 0.0, 1.0, 0.0, 0.0)" width="14.0" xlink:href="#shape0"/>
  </g>
  <defs>
    <g id="shape0" transform="matrix(1.0, 0.0, 0.0, 1.0, 0.0, 0.0)">
      <path d="M14.0 0.0 L14.0 14.0 0.0 14.0 0.0 0.0 14.0 0.0" fill="#ffffff" fill-opacity="0.0" fill-rule="evenodd" stroke="none"/>
      <path d="M12.9 6.95 Q12.9 9.4 11.15 11.2 9.4 12.95 6.9 12.95 4.4 12.95 2.7 11.2 0.95 9.4 0.95 6.95 0.95 4.5 2.7 2.75 4.4 0.95 6.9 0.95 9.4 0.95 11.15 2.75 12.9 4.5 12.9 6.95" fill="#b7b7b7" fill-rule="evenodd" stroke="none"/>
      <path d="M10.2 10.2 Q8.85 11.55 6.95 11.55 5.05 11.55 3.7 10.2 2.4 8.85 2.4 6.95 2.4 5.05 3.7 3.7 5.05 2.4 6.95 2.4 8.85 2.4 10.2 3.7 11.55 5.05 11.55 6.95 11.55 8.85 10.2 10.2" fill="#ffffff" fill-rule="evenodd" stroke="none"/>
      <path d="M5.15 5.9 Q4.8 6.35 4.8 7.0 L4.8 7.05 4.85 7.4 5.0 7.85 5.15 8.15 4.4 8.8 4.35 8.75 3.9 8.3 3.55 7.65 3.35 7.05 3.25 6.2 Q3.25 5.25 3.75 4.5 L4.1 4.15 4.95 3.5 Q5.8 3.0 6.95 3.0 8.6 3.0 9.8 4.15 L10.3 4.8 Q10.85 4.5 11.35 4.15 L10.9 7.55 9.05 6.4 9.8 5.9 Q9.4 5.15 8.6 4.65 5.95 3.55 5.15 5.9" fill="#0fafd7" fill-rule="evenodd" stroke="none"/>
      <path d="M10.9 7.55 L7.75 6.65 8.75 5.95 8.75 5.9 8.4 5.5 Q7.8 4.85 6.95 4.85 6.05 4.85 5.45 5.5 L5.15 5.9 Q5.95 3.55 8.6 4.65 9.4 5.15 9.8 5.9 L9.05 6.4 10.9 7.55 M3.7 9.4 L3.2 8.55 3.0 7.75 2.9 7.05 2.9 7.0 Q2.9 5.55 3.75 4.5 3.25 5.25 3.25 6.2 L3.35 7.05 3.55 7.65 3.9 8.3 4.35 8.75 4.4 8.8 3.7 9.4" fill="#0c88a7" fill-rule="evenodd" stroke="none"/>
      <path d="M5.15 8.15 L5.45 8.5 Q6.05 9.15 6.95 9.15 7.8 9.1 8.4 8.5 L8.5 8.45 9.75 9.1 9.45 9.35 Q8.4 10.25 6.9 10.05 5.4 9.9 4.4 8.8 L5.15 8.15" fill="#e05f27" fill-rule="evenodd" stroke="none"/>
      <path d="M9.75 9.1 L10.2 9.35 9.8 9.85 Q8.6 11.0 6.95 11.0 5.3 11.0 4.1 9.85 L3.7 9.4 4.4 8.8 Q5.4 9.9 6.9 10.05 8.4 10.25 9.45 9.35 L9.75 9.1" fill="#ba4a1b" fill-rule="evenodd" stroke="none"/>
    </g>
  </defs>
</svg>
