<?xml version="1.0" encoding="UTF-8" standalone="no"?>
<svg xmlns:xlink="http://www.w3.org/1999/xlink" height="14.0px" width="14.0px" xmlns="http://www.w3.org/2000/svg">
  <g transform="matrix(1.0, 0.0, 0.0, 1.0, 0.0, 0.0)">
    <use height="14.0" transform="matrix(1.0, 0.0, 0.0, 1.0, 0.0, 0.0)" width="14.0" xlink:href="#shape0"/>
  </g>
  <defs>
    <g id="shape0" transform="matrix(1.0, 0.0, 0.0, 1.0, 0.0, 0.0)">
      <path d="M14.0 0.0 L14.0 14.0 0.0 14.0 0.0 0.0 14.0 0.0" fill="#ffffff" fill-opacity="0.0" fill-rule="evenodd" stroke="none"/>
      <path d="M11.8 7.0 Q11.8 9.0 10.4 10.4 9.0 11.8 6.95 11.8 5.0 11.8 3.6 10.4 2.15 9.0 2.15 7.0 2.15 5.05 3.6 3.6 5.0 2.2 6.95 2.2 9.0 2.2 10.4 3.6 11.8 5.05 11.8 7.0" fill="#e3e3e3" fill-rule="evenodd" stroke="none"/>
      <path d="M11.8 7.0 Q11.8 5.05 10.4 3.6 9.0 2.2 6.95 2.2 5.0 2.2 3.6 3.6 2.15 5.05 2.15 7.0 2.15 9.0 3.6 10.4 5.0 11.8 6.95 11.8 9.0 11.8 10.4 10.4 11.8 9.0 11.8 7.0 M12.55 7.0 Q12.55 9.25 10.95 10.9 9.3 12.5 7.0 12.5 4.7 12.5 3.1 10.9 1.45 9.25 1.45 7.0 1.45 4.7 3.1 3.1 4.7 1.5 7.0 1.5 9.3 1.5 10.95 3.1 12.55 4.7 12.55 7.0" fill="#eca90e" fill-rule="evenodd" stroke="none"/>
      <path d="M12.55 7.0 Q12.55 9.25 10.95 10.9 9.3 12.5 7.0 12.5 4.7 12.5 3.1 10.9 1.45 9.25 1.45 7.0 1.45 4.7 3.1 3.1 4.7 1.5 7.0 1.5 9.3 1.5 10.95 3.1 12.55 4.7 12.55 7.0 Z" fill="none" stroke="#c48b0b" stroke-linecap="round" stroke-linejoin="round" stroke-width="0.5"/>
      <path d="M4.85 6.85 L4.95 1.3 Q4.95 1.05 5.1 0.95 L5.15 0.9 5.3 0.75 5.5 0.7 5.6 0.7 6.6 0.75 7.4 0.75 9.1 0.7 9.45 0.8 9.65 1.0 9.75 1.35 9.55 3.05 Q8.55 6.65 4.85 6.85 M4.45 11.7 L4.5 10.35 Q4.5 10.1 4.8 10.0 4.9 9.85 5.2 9.85 L8.6 9.85 8.9 9.95 9.15 10.1 9.2 10.45 9.2 10.55 Q7.6 11.85 4.45 11.7" fill="#fe0000" fill-rule="evenodd" stroke="none"/>
      <path d="M4.85 6.85 Q8.55 6.65 9.55 3.05 L9.1 7.6 8.9 7.95 8.5 8.05 7.15 8.05 6.4 8.05 5.4 8.05 5.2 8.05 5.1 8.0 4.85 7.8 4.8 7.55 4.85 6.85 M4.45 11.7 Q7.6 11.85 9.2 10.55 L9.1 12.3 8.9 12.65 8.5 12.8 6.75 12.8 4.95 12.8 4.6 12.75 4.4 12.55 4.3 12.25 4.45 11.7" fill="#b20000" fill-rule="evenodd" stroke="none"/>
      <path d="M9.55 3.05 L9.75 1.35 9.65 1.0 9.45 0.8 9.1 0.7 7.4 0.75 6.6 0.75 5.6 0.7 5.5 0.7 5.3 0.75 5.15 0.9 5.1 0.95 Q4.95 1.05 4.95 1.3 L4.85 6.85 4.8 7.55 4.85 7.8 5.1 8.0 5.2 8.05 5.4 8.05 6.4 8.05 7.15 8.05 8.5 8.05 8.9 7.95 9.1 7.6 9.55 3.05 M9.2 10.55 L9.2 10.45 9.15 10.1 8.9 9.95 8.6 9.85 5.2 9.85 Q4.9 9.85 4.8 10.0 4.5 10.1 4.5 10.35 L4.45 11.7 4.3 12.25 4.4 12.55 4.6 12.75 4.95 12.8 6.75 12.8 8.5 12.8 8.9 12.65 9.1 12.3 9.2 10.55" fill="none" stroke="#000000" stroke-linecap="round" stroke-linejoin="round" stroke-opacity="0.3019608" stroke-width="0.2"/>
    </g>
  </defs>
</svg>
