<?xml version="1.0" encoding="UTF-8" standalone="no"?>
<svg xmlns:xlink="http://www.w3.org/1999/xlink" height="14.0px" width="14.0px" xmlns="http://www.w3.org/2000/svg">
  <g transform="matrix(1.0, 0.0, 0.0, 1.0, 0.0, 0.0)">
    <use height="14.0" transform="matrix(1.0, 0.0, 0.0, 1.0, 0.0, 0.0)" width="14.0" xlink:href="#shape0"/>
  </g>
  <defs>
    <g id="shape0" transform="matrix(1.0, 0.0, 0.0, 1.0, 0.0, 0.0)">
      <path d="M14.0 0.0 L14.0 14.0 0.0 14.0 0.0 0.0 14.0 0.0" fill="#ffffff" fill-opacity="0.0" fill-rule="evenodd" stroke="none"/>
      <path d="M3.7 10.15 Q3.7 9.6 4.15 9.2 4.5 8.75 5.1 8.75 5.65 8.75 6.05 9.2 6.5 9.6 6.5 10.15 6.5 10.75 6.05 11.15 5.65 11.55 5.1 11.55 4.5 11.55 4.15 11.15 3.7 10.75 3.7 10.15" fill="#ffffff" fill-rule="evenodd" stroke="none"/>
      <path d="M3.05 8.1 Q3.9 7.2 5.1 7.2 6.35 7.2 7.2 8.1 8.1 9.0 8.1 10.2 8.1 11.4 7.2 12.25 6.35 13.15 5.1 13.15 3.9 13.15 3.05 12.25 2.15 11.4 2.15 10.2 2.15 9.0 3.05 8.1 M3.7 10.15 Q3.7 10.75 4.15 11.15 4.5 11.55 5.1 11.55 5.65 11.55 6.05 11.15 6.5 10.75 6.5 10.15 6.5 9.6 6.05 9.2 5.65 8.75 5.1 8.75 4.5 8.75 4.15 9.2 3.7 9.6 3.7 10.15" fill="#0e79fa" fill-rule="evenodd" stroke="none"/>
      <path d="M3.05 8.1 Q3.9 7.2 5.1 7.2 6.35 7.2 7.2 8.1 8.1 9.0 8.1 10.2 8.1 11.4 7.2 12.25 6.35 13.15 5.1 13.15 3.9 13.15 3.05 12.25 2.15 11.4 2.15 10.2 2.15 9.0 3.05 8.1 Z" fill="none" stroke="#000000" stroke-linecap="round" stroke-linejoin="round" stroke-opacity="0.3019608" stroke-width="0.2"/>
      <path d="M5.6 5.7 L5.65 1.65 Q5.65 1.45 5.8 1.4 L5.8 1.35 5.9 1.25 6.05 1.2 6.15 1.2 6.85 1.25 7.45 1.25 8.7 1.2 8.95 1.3 9.1 1.45 9.15 1.7 9.0 2.9 Q8.3 5.55 5.6 5.7 M5.3 9.25 L5.35 8.25 5.55 8.0 5.85 7.9 8.35 7.9 8.55 7.95 8.75 8.05 8.75 8.3 8.75 8.4 Q7.6 9.35 5.3 9.25" fill="#fe0000" fill-rule="evenodd" stroke="none"/>
      <path d="M5.6 5.7 Q8.3 5.55 9.0 2.9 L8.7 6.25 8.55 6.5 8.25 6.55 7.25 6.55 6.75 6.55 6.0 6.55 5.85 6.55 5.8 6.55 5.6 6.4 5.55 6.2 5.6 5.7 M5.3 9.25 Q7.6 9.35 8.75 8.4 L8.7 9.65 8.55 9.9 8.25 10.05 7.0 10.05 5.65 10.05 5.4 10.0 5.25 9.85 5.2 9.65 5.3 9.25" fill="#b20000" fill-rule="evenodd" stroke="none"/>
      <path d="M9.0 2.9 L9.15 1.7 9.1 1.45 8.95 1.3 8.7 1.2 7.45 1.25 6.85 1.25 6.15 1.2 6.05 1.2 5.9 1.25 5.8 1.35 5.8 1.4 Q5.65 1.45 5.65 1.65 L5.6 5.7 5.55 6.2 5.6 6.4 5.8 6.55 5.85 6.55 6.0 6.55 6.75 6.55 7.25 6.55 8.25 6.55 8.55 6.5 8.7 6.25 9.0 2.9 M8.75 8.4 L8.75 8.3 8.75 8.05 8.55 7.95 8.35 7.9 5.85 7.9 5.55 8.0 5.35 8.25 5.3 9.25 5.2 9.65 5.25 9.85 5.4 10.0 5.65 10.05 7.0 10.05 8.25 10.05 8.55 9.9 8.7 9.65 8.75 8.4" fill="none" stroke="#000000" stroke-linecap="round" stroke-linejoin="round" stroke-opacity="0.3019608" stroke-width="0.2"/>
    </g>
  </defs>
</svg>
