<?xml version="1.0" encoding="UTF-8" standalone="no"?>
<svg xmlns:xlink="http://www.w3.org/1999/xlink" height="14.0px" width="14.0px" xmlns="http://www.w3.org/2000/svg">
  <g transform="matrix(1.0, 0.0, 0.0, 1.0, 0.0, 0.0)">
    <use height="14.0" transform="matrix(1.0, 0.0, 0.0, 1.0, 0.0, 0.0)" width="14.0" xlink:href="#shape0"/>
  </g>
  <defs>
    <g id="shape0" transform="matrix(1.0, 0.0, 0.0, 1.0, 0.0, 0.0)">
      <path d="M14.0 0.0 L14.0 14.0 0.0 14.0 0.0 0.0 14.0 0.0" fill="#ffffff" fill-opacity="0.0" fill-rule="evenodd" stroke="none"/>
      <path d="M12.55 7.0 Q12.55 9.25 10.95 10.9 9.3 12.5 7.0 12.5 4.7 12.5 3.1 10.9 1.45 9.25 1.45 7.0 1.45 4.7 3.1 3.1 4.7 1.5 7.0 1.5 9.3 1.5 10.95 3.1 12.55 4.7 12.55 7.0 M11.8 7.0 Q11.8 5.05 10.4 3.6 9.0 2.2 6.95 2.2 5.0 2.2 3.6 3.6 2.15 5.05 2.15 7.0 2.15 9.0 3.6 10.4 5.0 11.8 6.95 11.8 9.0 11.8 10.4 10.4 11.8 9.0 11.8 7.0" fill="#265958" fill-rule="evenodd" stroke="none"/>
      <path d="M11.8 7.0 Q11.8 9.0 10.4 10.4 9.0 11.8 6.95 11.8 5.0 11.8 3.6 10.4 2.15 9.0 2.15 7.0 2.15 5.05 3.6 3.6 5.0 2.2 6.95 2.2 9.0 2.2 10.4 3.6 11.8 5.05 11.8 7.0 M6.95 10.25 Q8.15 10.25 8.6 9.05 8.9 7.8 7.95 6.8 7.05 5.9 6.9 2.7 6.75 5.9 5.85 6.8 4.85 7.8 5.2 9.05 5.6 10.25 6.95 10.25" fill="#e3e3e3" fill-rule="evenodd" stroke="none"/>
      <path d="M6.95 10.25 Q5.6 10.25 5.2 9.05 4.85 7.8 5.85 6.8 6.75 5.9 6.9 2.7 7.05 5.9 7.95 6.8 8.9 7.8 8.6 9.05 8.15 10.25 6.95 10.25" fill="#398a89" fill-rule="evenodd" stroke="none"/>
      <path d="M12.55 7.0 Q12.55 9.25 10.95 10.9 9.3 12.5 7.0 12.5 4.7 12.5 3.1 10.9 1.45 9.25 1.45 7.0 1.45 4.7 3.1 3.1 4.7 1.5 7.0 1.5 9.3 1.5 10.95 3.1 12.55 4.7 12.55 7.0 Z" fill="none" stroke="#398a89" stroke-linecap="round" stroke-linejoin="round" stroke-width="0.5"/>
    </g>
  </defs>
</svg>
