<?xml version="1.0" encoding="UTF-8" standalone="no"?>
<svg xmlns:xlink="http://www.w3.org/1999/xlink" height="14.0px" width="14.0px" xmlns="http://www.w3.org/2000/svg">
  <g transform="matrix(1.0, 0.0, 0.0, 1.0, 0.0, 0.0)">
    <use height="14.0" transform="matrix(1.0, 0.0, 0.0, 1.0, 0.0, 0.0)" width="14.0" xlink:href="#shape0"/>
  </g>
  <defs>
    <g id="shape0" transform="matrix(1.0, 0.0, 0.0, 1.0, 0.0, 0.0)">
      <path d="M14.0 0.0 L14.0 14.0 0.0 14.0 0.0 0.0 14.0 0.0" fill="#ffffff" fill-opacity="0.0" fill-rule="evenodd" stroke="none"/>
      <path d="M13.65 7.0 Q13.65 9.35 11.9 11.05 10.25 12.75 7.9 12.75 5.5 12.75 3.8 11.05 2.15 9.35 2.15 7.0 2.15 4.6 3.8 2.95 5.5 1.25 7.9 1.25 10.25 1.25 11.9 2.95 13.65 4.6 13.65 7.0" fill="#b7b7b7" fill-rule="evenodd" stroke="none"/>
      <path d="M11.0 10.05 Q9.7 11.35 7.9 11.35 6.05 11.35 4.75 10.05 3.5 8.8 3.5 6.95 3.5 5.15 4.75 3.85 6.05 2.55 7.9 2.55 9.7 2.55 11.0 3.85 12.3 5.15 12.3 6.95 12.3 8.8 11.0 10.05" fill="#ffffff" fill-rule="evenodd" stroke="none"/>
      <path d="M4.75 4.55 L5.1 4.2 5.9 3.6 Q6.75 3.05 7.85 3.05 9.45 3.05 10.6 4.2 L11.1 4.8 12.1 4.2 11.75 7.1 10.15 6.45 10.65 5.9 9.45 4.7 Q6.9 3.6 6.1 5.85 5.75 6.35 5.75 6.95 5.75 7.8 6.4 8.4 7.0 9.05 7.85 9.05 8.7 9.0 9.3 8.4 L9.35 8.35 10.55 9.0 10.25 9.25 Q9.25 10.15 7.8 9.95 6.35 9.8 5.3 8.7 4.3 7.6 4.3 6.2 4.3 5.25 4.75 4.55" fill="#821a0f" fill-rule="evenodd" stroke="none"/>
      <path d="M11.75 7.1 L11.7 7.5 8.65 6.6 9.65 5.9 9.6 5.9 9.3 5.5 Q8.65 4.9 7.85 4.9 7.0 4.9 6.4 5.5 L6.1 5.85 Q6.9 3.6 9.45 4.7 L10.65 5.9 10.15 6.45 11.75 7.1 M10.55 9.0 L11.0 9.25 10.6 9.7 Q9.45 10.85 7.85 10.85 6.2 10.85 5.1 9.7 3.95 8.6 3.95 6.95 3.95 5.6 4.75 4.55 4.3 5.25 4.3 6.2 4.3 7.6 5.3 8.7 6.35 9.8 7.8 9.95 9.25 10.15 10.25 9.25 L10.55 9.0" fill="#6a150d" fill-rule="evenodd" stroke="none"/>
      <path d="M6.55 6.1 L6.55 7.7 4.35 7.7 4.35 9.95 2.65 9.95 2.65 7.7 0.4 7.7 0.4 7.5 Q5.2 7.45 6.55 6.1" fill="#e65b00" fill-rule="evenodd" stroke="none"/>
      <path d="M0.4 7.5 L0.4 6.05 2.65 6.05 2.65 3.8 4.35 3.8 4.35 6.05 6.55 6.05 6.55 6.1 Q5.2 7.45 0.4 7.5" fill="#fd6b0b" fill-rule="evenodd" stroke="none"/>
    </g>
  </defs>
</svg>
