<?xml version="1.0" encoding="UTF-8" standalone="no"?>
<svg xmlns:xlink="http://www.w3.org/1999/xlink" height="14.0px" width="14.0px" xmlns="http://www.w3.org/2000/svg">
  <g transform="matrix(1.0, 0.0, 0.0, 1.0, 0.0, 0.0)">
    <use height="14.0" transform="matrix(1.0, 0.0, 0.0, 1.0, 0.0, 0.0)" width="14.0" xlink:href="#shape0"/>
  </g>
  <defs>
    <g id="shape0" transform="matrix(1.0, 0.0, 0.0, 1.0, 0.0, 0.0)">
      <path d="M14.0 0.0 L14.0 14.0 0.0 14.0 0.0 0.0 14.0 0.0" fill="#ffffff" fill-opacity="0.0" fill-rule="evenodd" stroke="none"/>
      <path d="M4.15 9.2 Q4.5 8.75 5.1 8.75 5.65 8.75 6.05 9.2 6.5 9.6 6.5 10.15 6.5 10.75 6.05 11.15 5.65 11.55 5.1 11.55 4.5 11.55 4.15 11.15 3.7 10.75 3.7 10.15 3.7 9.6 4.15 9.2" fill="#ffffff" fill-rule="evenodd" stroke="none"/>
      <path d="M2.15 10.2 Q2.15 9.0 3.05 8.1 3.9 7.2 5.1 7.2 6.35 7.2 7.2 8.1 8.1 9.0 8.1 10.2 8.1 11.4 7.2 12.25 6.35 13.15 5.1 13.15 3.9 13.15 3.05 12.25 2.15 11.4 2.15 10.2 M4.15 9.2 Q3.7 9.6 3.7 10.15 3.7 10.75 4.15 11.15 4.5 11.55 5.1 11.55 5.65 11.55 6.05 11.15 6.5 10.75 6.5 10.15 6.5 9.6 6.05 9.2 5.65 8.75 5.1 8.75 4.5 8.75 4.15 9.2" fill="#0e79fa" fill-rule="evenodd" stroke="none"/>
      <path d="M2.15 10.2 Q2.15 9.0 3.05 8.1 3.9 7.2 5.1 7.2 6.35 7.2 7.2 8.1 8.1 9.0 8.1 10.2 8.1 11.4 7.2 12.25 6.35 13.15 5.1 13.15 3.9 13.15 3.05 12.25 2.15 11.4 2.15 10.2 Z" fill="none" stroke="#000000" stroke-linecap="round" stroke-linejoin="round" stroke-opacity="0.3019608" stroke-width="0.2"/>
      <path d="M4.85 10.35 L8.4 5.8 5.0 5.8 8.1 1.15 11.6 1.15 8.7 4.4 13.05 4.4 4.85 10.35" fill="#ffd500" fill-rule="evenodd" stroke="none"/>
      <path d="M4.85 10.35 L8.4 5.8 5.0 5.8 8.1 1.15 11.6 1.15 8.7 4.4 13.05 4.4 4.85 10.35 Z" fill="none" stroke="#000000" stroke-linecap="round" stroke-linejoin="round" stroke-opacity="0.3019608" stroke-width="0.2"/>
    </g>
  </defs>
</svg>
