<?xml version="1.0" encoding="UTF-8" standalone="no"?>
<svg xmlns:xlink="http://www.w3.org/1999/xlink" height="14.0px" width="14.0px" xmlns="http://www.w3.org/2000/svg">
  <g transform="matrix(1.0, 0.0, 0.0, 1.0, 0.0, 0.0)">
    <use height="14.0" transform="matrix(1.0, 0.0, 0.0, 1.0, 0.0, 0.0)" width="14.0" xlink:href="#shape0"/>
  </g>
  <defs>
    <g id="shape0" transform="matrix(1.0, 0.0, 0.0, 1.0, 0.0, 0.0)">
      <path d="M14.0 0.0 L14.0 14.0 0.0 14.0 0.0 0.0 14.0 0.0" fill="#ffffff" fill-opacity="0.0" fill-rule="evenodd" stroke="none"/>
      <path d="M11.6 6.8 Q11.6 8.95 10.05 10.5 8.5 12.05 6.35 12.05 4.15 12.05 2.65 10.5 1.15 8.95 1.15 6.8 1.15 4.65 2.65 3.15 4.15 1.6 6.35 1.6 8.5 1.6 10.05 3.15 11.6 4.65 11.6 6.8" fill="#b7b7b7" fill-rule="evenodd" stroke="none"/>
      <path d="M9.15 9.65 Q8.0 10.85 6.35 10.85 4.65 10.85 3.5 9.65 2.35 8.5 2.35 6.85 2.35 5.2 3.5 4.0 4.65 2.85 6.35 2.85 8.0 2.85 9.15 4.0 10.35 5.2 10.35 6.85 10.35 8.5 9.15 9.65" fill="#ffffff" fill-rule="evenodd" stroke="none"/>
      <path d="M7.15 1.65 Q8.15 2.3 9.2 3.75 L9.3 3.85 9.45 4.05 9.6 4.4 Q9.9 5.2 9.5 5.65 7.2 9.0 5.05 8.85 2.75 9.0 0.55 5.6 L0.5 5.55 0.4 5.35 0.4 5.2 Q0.25 4.65 0.55 4.15 L1.1 3.3 Q1.8 2.45 2.65 1.75 L2.75 1.75 2.75 1.65 Q3.85 0.9 5.0 0.9 6.0 0.9 6.95 1.55 L6.95 1.5 7.05 1.65 7.15 1.65 M7.2 3.25 Q5.0 1.15 2.75 3.25 2.05 3.85 1.3 4.9 3.15 7.4 5.05 7.4 6.85 7.4 8.7 4.9 L7.2 3.25" fill="#26b58d" fill-rule="evenodd" stroke="none"/>
      <path d="M6.2 5.3 Q5.65 5.85 4.95 5.85 4.25 5.85 3.75 5.3 3.2 4.7 3.2 3.85 L3.2 3.5 Q4.9 2.15 6.65 3.35 L6.65 3.85 6.2 5.3" fill="#76c400" fill-rule="evenodd" stroke="none"/>
      <path d="M6.2 5.3 L6.65 3.85 6.65 3.35 Q4.9 2.15 3.2 3.5 L3.2 3.85 Q3.2 4.7 3.75 5.3 4.25 5.85 4.95 5.85 5.65 5.85 6.2 5.3 M7.2 3.25 L8.7 4.9 Q6.85 7.4 5.05 7.4 3.15 7.4 1.3 4.9 2.05 3.85 2.75 3.25 5.0 1.15 7.2 3.25" fill="#ffffff" fill-rule="evenodd" stroke="none"/>
      <path d="M7.15 1.65 Q8.15 2.3 9.2 3.75 L9.3 3.85 9.45 4.05 9.6 4.4 Q9.9 5.2 9.5 5.65 7.2 9.0 5.05 8.85 2.75 9.0 0.55 5.6 L0.5 5.55 0.4 5.35 0.4 5.2 Q0.25 4.65 0.55 4.15 L1.1 3.3 Q1.8 2.45 2.65 1.75 L2.75 1.75 2.75 1.65 Q3.85 0.9 5.0 0.9 6.0 0.9 6.95 1.55 L6.95 1.5 7.05 1.65 7.15 1.65 M6.2 5.3 Q5.65 5.85 4.95 5.85 4.25 5.85 3.75 5.3 3.2 4.7 3.2 3.85 L3.2 3.5 Q4.9 2.15 6.65 3.35 L6.65 3.85 6.2 5.3 M7.2 3.25 L8.7 4.9 Q6.85 7.4 5.05 7.4 3.15 7.4 1.3 4.9 2.05 3.85 2.75 3.25 5.0 1.15 7.2 3.25" fill="none" stroke="#000000" stroke-linecap="round" stroke-linejoin="round" stroke-opacity="0.101960786" stroke-width="0.05"/>
      <path d="M10.55 4.15 L13.65 8.8 10.55 13.05 10.55 10.95 9.95 10.95 9.95 6.55 10.55 6.55 10.55 4.15 M6.75 6.55 L6.75 10.95 5.25 10.95 5.25 6.55 6.75 6.55 M7.6 6.55 L9.1 6.55 9.1 10.95 7.6 10.95 7.6 6.55" fill="#76c400" fill-rule="evenodd" stroke="none"/>
      <path d="M7.6 6.55 L7.6 10.95 9.1 10.95 9.1 6.55 7.6 6.55 M6.75 6.55 L5.25 6.55 5.25 10.95 6.75 10.95 6.75 6.55 M10.55 4.15 L10.55 6.55 9.95 6.55 9.95 10.95 10.55 10.95 10.55 13.05 13.65 8.8 10.55 4.15" fill="none" stroke="#000000" stroke-linecap="round" stroke-linejoin="round" stroke-opacity="0.101960786" stroke-width="0.05"/>
    </g>
  </defs>
</svg>
