<?xml version="1.0" encoding="UTF-8" standalone="no"?>
<svg xmlns:xlink="http://www.w3.org/1999/xlink" height="14.0px" width="14.0px" xmlns="http://www.w3.org/2000/svg">
  <g transform="matrix(1.0, 0.0, 0.0, 1.0, 0.0, 0.0)">
    <use height="14.0" transform="matrix(1.0, 0.0, 0.0, 1.0, 0.0, 0.0)" width="14.0" xlink:href="#shape0"/>
  </g>
  <defs>
    <g id="shape0" transform="matrix(1.0, 0.0, 0.0, 1.0, 0.0, 0.0)">
      <path d="M14.0 0.0 L14.0 14.0 0.0 14.0 0.0 0.0 14.0 0.0" fill="#ffffff" fill-opacity="0.0" fill-rule="evenodd" stroke="none"/>
      <path d="M10.9 7.0 Q10.9 9.0 9.45 10.4 8.05 11.8 6.1 11.8 4.05 11.8 2.7 10.4 1.3 9.0 1.3 7.0 1.3 5.0 2.7 3.65 4.05 2.2 6.1 2.2 8.05 2.2 9.45 3.65 10.9 5.0 10.9 7.0" fill="#b7b7b7" fill-rule="evenodd" stroke="none"/>
      <path d="M8.65 9.55 Q7.6 10.65 6.05 10.65 4.55 10.65 3.45 9.55 2.4 8.5 2.4 7.0 2.4 5.45 3.45 4.4 4.55 3.3 6.05 3.3 7.6 3.3 8.65 4.4 9.75 5.45 9.75 7.0 9.75 8.5 8.65 9.55" fill="#ffffff" fill-rule="evenodd" stroke="none"/>
      <path d="M7.0 2.0 Q8.0 2.6 9.0 4.05 L9.05 4.1 9.25 4.35 9.4 4.7 Q9.7 5.5 9.3 5.95 7.1 9.25 4.95 9.15 2.75 9.25 0.55 5.85 L0.4 5.65 0.4 5.5 Q0.3 4.95 0.55 4.4 L1.15 3.6 2.6 2.1 2.75 2.1 2.75 2.0 Q3.8 1.2 4.9 1.2 5.9 1.2 6.85 1.85 L6.85 1.8 6.9 1.95 7.0 2.0 M8.5 5.15 L7.1 3.55 Q4.9 1.5 2.75 3.55 L1.35 5.15 Q3.1 7.7 4.95 7.7 6.7 7.7 8.5 5.15" fill="#26b58d" fill-rule="evenodd" stroke="none"/>
      <path d="M6.55 4.1 Q6.55 5.0 6.05 5.6 5.55 6.15 4.9 6.15 4.2 6.15 3.7 5.6 3.2 5.0 3.2 4.1 L3.2 3.8 Q4.85 2.45 6.5 3.65 L6.55 4.1" fill="#0da7b7" fill-rule="evenodd" stroke="none"/>
      <path d="M8.5 5.15 Q6.7 7.7 4.95 7.7 3.1 7.7 1.35 5.15 L2.75 3.55 Q4.9 1.5 7.1 3.55 L8.5 5.15 M6.55 4.1 L6.5 3.65 Q4.85 2.45 3.2 3.8 L3.2 4.1 Q3.2 5.0 3.7 5.6 4.2 6.15 4.9 6.15 5.55 6.15 6.05 5.6 6.55 5.0 6.55 4.1" fill="#ffffff" fill-rule="evenodd" stroke="none"/>
      <path d="M7.0 2.0 Q8.0 2.6 9.0 4.05 L9.05 4.1 9.25 4.35 9.4 4.7 Q9.7 5.5 9.3 5.95 7.1 9.25 4.95 9.15 2.75 9.25 0.55 5.85 L0.4 5.65 0.4 5.5 Q0.3 4.95 0.55 4.4 L1.15 3.6 2.6 2.1 2.75 2.1 2.75 2.0 Q3.8 1.2 4.9 1.2 5.9 1.2 6.85 1.85 L6.85 1.8 6.9 1.95 7.0 2.0 M8.5 5.15 Q6.7 7.7 4.95 7.7 3.1 7.7 1.35 5.15 L2.75 3.55 Q4.9 1.5 7.1 3.55 L8.5 5.15 M6.55 4.1 Q6.55 5.0 6.05 5.6 5.55 6.15 4.9 6.15 4.2 6.15 3.7 5.6 3.2 5.0 3.2 4.1 L3.2 3.8 Q4.85 2.45 6.5 3.65 L6.55 4.1" fill="none" stroke="#000000" stroke-linecap="round" stroke-linejoin="round" stroke-opacity="0.101960786" stroke-width="0.05"/>
      <path d="M10.2 4.65 L13.65 8.85 10.2 12.7 10.2 10.8 6.7 10.8 6.7 6.85 10.2 6.85 10.2 4.65" fill="#0da7b7" fill-rule="evenodd" stroke="none"/>
      <path d="M10.2 4.65 L13.65 8.85 10.2 12.7 10.2 10.8 6.7 10.8 6.7 6.85 10.2 6.85 10.2 4.65 Z" fill="none" stroke="#000000" stroke-linecap="round" stroke-linejoin="round" stroke-opacity="0.101960786" stroke-width="0.05"/>
    </g>
  </defs>
</svg>
