<?xml version="1.0" encoding="UTF-8" standalone="no"?>
<svg xmlns:xlink="http://www.w3.org/1999/xlink" height="14.0px" width="14.0px" xmlns="http://www.w3.org/2000/svg">
  <g transform="matrix(1.0, 0.0, 0.0, 1.0, 0.0, 0.0)">
    <use height="14.0" transform="matrix(1.0, 0.0, 0.0, 1.0, 0.0, 0.0)" width="14.0" xlink:href="#shape0"/>
  </g>
  <defs>
    <g id="shape0" transform="matrix(1.0, 0.0, 0.0, 1.0, 0.0, 0.0)">
      <path d="M14.0 0.0 L14.0 14.0 0.0 14.0 0.0 0.0 14.0 0.0" fill="#ffffff" fill-opacity="0.0" fill-rule="evenodd" stroke="none"/>
      <path d="M12.8 12.7 L4.75 12.7 4.75 4.8 Q4.8 3.15 5.9 2.05 6.85 1.1 8.2 0.9 L8.8 0.85 Q10.45 0.85 11.65 2.05 12.75 3.15 12.8 4.8 L12.8 12.7" fill="#b3cb20" fill-rule="evenodd" stroke="none"/>
      <path d="M12.8 12.7 L4.75 12.7 4.75 4.8 Q4.8 3.15 5.9 2.05 6.85 1.1 8.2 0.9 L8.8 0.85 Q10.45 0.85 11.65 2.05 12.75 3.15 12.8 4.8 L12.8 12.7 Z" fill="none" stroke="#000000" stroke-linecap="round" stroke-linejoin="round" stroke-opacity="0.5019608" stroke-width="0.05"/>
      <path d="M7.2 4.0 Q7.5 4.0 7.6 4.15 L10.6 7.2 10.8 7.65 10.6 8.05 7.6 11.0 Q7.5 11.2 7.2 11.2 6.95 11.2 6.75 11.0 L6.6 10.6 6.6 9.4 1.55 9.4 Q1.25 9.4 1.1 9.2 L0.9 8.8 0.9 6.6 1.1 6.2 Q1.25 6.0 1.55 6.0 L6.6 6.0 6.6 4.6 Q6.6 4.35 6.75 4.15 6.95 4.0 7.2 4.0" fill="#ff9900" fill-rule="evenodd" stroke="none"/>
      <path d="M7.2 4.0 Q6.95 4.0 6.75 4.15 6.6 4.35 6.6 4.6 L6.6 6.0 1.55 6.0 Q1.25 6.0 1.1 6.2 L0.9 6.6 0.9 8.8 1.1 9.2 Q1.25 9.4 1.55 9.4 L6.6 9.4 6.6 10.6 6.75 11.0 Q6.95 11.2 7.2 11.2 7.5 11.2 7.6 11.0 L10.6 8.05 10.8 7.65 10.6 7.2 7.6 4.15 Q7.5 4.0 7.2 4.0 Z" fill="none" stroke="#000000" stroke-linecap="round" stroke-linejoin="round" stroke-opacity="0.5019608" stroke-width="0.05"/>
    </g>
  </defs>
</svg>
