<?xml version="1.0" encoding="UTF-8" standalone="no"?>
<svg xmlns:xlink="http://www.w3.org/1999/xlink" height="14.0px" width="14.0px" xmlns="http://www.w3.org/2000/svg">
  <g transform="matrix(1.0, 0.0, 0.0, 1.0, 0.0, 0.0)">
    <use height="14.0" transform="matrix(1.0, 0.0, 0.0, 1.0, 0.0, 0.0)" width="14.0" xlink:href="#shape0"/>
  </g>
  <defs>
    <g id="shape0" transform="matrix(1.0, 0.0, 0.0, 1.0, 0.0, 0.0)">
      <path d="M14.0 0.0 L14.0 14.0 0.0 14.0 0.0 0.0 14.0 0.0" fill="#ffffff" fill-opacity="0.0" fill-rule="evenodd" stroke="none"/>
      <path d="M5.8 4.8 L4.8 4.95 Q4.3 5.2 4.15 5.75 L4.1 6.2 Q4.25 5.9 4.55 5.75 L5.6 5.6 6.4 6.2 6.55 6.8 6.7 6.45 Q6.85 5.9 6.6 5.45 6.3 4.95 5.8 4.8 M9.9 4.25 Q11.05 5.45 11.05 7.1 11.05 8.7 9.9 9.85 8.75 11.0 7.1 11.0 5.5 11.0 4.3 9.85 3.15 8.7 3.15 7.1 3.15 5.45 4.3 4.25 5.5 3.1 7.1 3.1 8.75 3.1 9.9 4.25 M8.45 4.75 Q7.95 4.9 7.6 5.4 7.35 5.9 7.5 6.4 L7.65 6.8 7.85 6.2 Q8.15 5.7 8.65 5.55 L9.65 5.7 10.15 6.15 10.1 5.7 Q9.95 5.15 9.45 4.9 L8.45 4.75 M9.6 7.2 L8.9 7.9 7.1 8.25 5.35 7.9 Q4.75 7.6 4.65 7.2 L4.6 7.45 Q4.6 8.15 5.35 9.25 6.1 10.3 7.15 10.3 8.2 10.3 8.9 9.25 9.65 8.15 9.65 7.45 L9.6 7.2" fill="#ffffff" fill-rule="evenodd" stroke="none"/>
      <path d="M5.8 4.8 Q6.3 4.95 6.6 5.45 6.85 5.9 6.7 6.45 L6.55 6.8 6.4 6.2 5.6 5.6 4.55 5.75 Q4.25 5.9 4.1 6.2 L4.15 5.75 Q4.3 5.2 4.8 4.95 L5.8 4.8 M9.9 4.25 Q8.75 3.1 7.1 3.1 5.5 3.1 4.3 4.25 3.15 5.45 3.15 7.1 3.15 8.7 4.3 9.85 5.5 11.0 7.1 11.0 8.75 11.0 9.9 9.85 11.05 8.7 11.05 7.1 11.05 5.45 9.9 4.25 M10.45 3.75 Q11.8 5.15 11.8 7.1 11.8 9.05 10.45 10.4 9.05 11.8 7.1 11.8 5.2 11.8 3.8 10.4 2.45 9.05 2.45 7.1 2.45 5.15 3.8 3.75 5.2 2.4 7.1 2.4 9.05 2.4 10.45 3.75 M8.45 4.75 L9.45 4.9 Q9.95 5.15 10.1 5.7 L10.15 6.15 9.65 5.7 8.65 5.55 Q8.15 5.7 7.85 6.2 L7.65 6.8 7.5 6.4 Q7.35 5.9 7.6 5.4 7.95 4.9 8.45 4.75 M9.6 7.2 L9.65 7.45 Q9.65 8.15 8.9 9.25 8.2 10.3 7.15 10.3 6.1 10.3 5.35 9.25 4.6 8.15 4.6 7.45 L4.65 7.2 Q4.75 7.6 5.35 7.9 L7.1 8.25 8.9 7.9 9.6 7.2" fill="#b49e6d" fill-rule="evenodd" stroke="none"/>
      <path d="M10.45 3.75 Q9.05 2.4 7.1 2.4 5.2 2.4 3.8 3.75 2.45 5.15 2.45 7.1 2.45 9.05 3.8 10.4 5.2 11.8 7.1 11.8 9.05 11.8 10.45 10.4 11.8 9.05 11.8 7.1 11.8 5.15 10.45 3.75 M11.15 11.15 Q9.5 12.8 7.1 12.8 4.7 12.8 3.05 11.15 1.35 9.45 1.35 7.1 1.35 4.65 3.05 3.0 4.7 1.3 7.1 1.3 9.5 1.3 11.15 3.0 12.9 4.65 12.9 7.1 12.9 9.45 11.15 11.15" fill="#76643d" fill-rule="evenodd" stroke="none"/>
      <path d="M9.9 4.25 Q11.05 5.45 11.05 7.1 11.05 8.7 9.9 9.85 8.75 11.0 7.1 11.0 5.5 11.0 4.3 9.85 3.15 8.7 3.15 7.1 3.15 5.45 4.3 4.25 5.5 3.1 7.1 3.1 8.75 3.1 9.9 4.25 M11.15 11.15 Q9.5 12.8 7.1 12.8 4.7 12.8 3.05 11.15 1.35 9.45 1.35 7.1 1.35 4.65 3.05 3.0 4.7 1.3 7.1 1.3 9.5 1.3 11.15 3.0 12.9 4.65 12.9 7.1 12.9 9.45 11.15 11.15" fill="none" stroke="#000000" stroke-linecap="round" stroke-linejoin="round" stroke-opacity="0.3019608" stroke-width="0.05"/>
    </g>
  </defs>
</svg>
