<?xml version="1.0" encoding="UTF-8" standalone="no"?>
<svg xmlns:xlink="http://www.w3.org/1999/xlink" height="14.0px" width="14.0px" xmlns="http://www.w3.org/2000/svg">
  <g transform="matrix(1.0, 0.0, 0.0, 1.0, 0.0, 0.0)">
    <use height="14.0" transform="matrix(1.0, 0.0, 0.0, 1.0, 0.0, 0.0)" width="14.0" xlink:href="#shape0"/>
  </g>
  <defs>
    <g id="shape0" transform="matrix(1.0, 0.0, 0.0, 1.0, 0.0, 0.0)">
      <path d="M14.0 0.0 L14.0 14.0 0.0 14.0 0.0 0.0 14.0 0.0" fill="#ffffff" fill-opacity="0.0" fill-rule="evenodd" stroke="none"/>
      <path d="M5.9 13.65 Q1.3 10.25 0.9 5.0 3.75 3.95 5.9 1.7 L5.9 4.35 Q4.6 5.7 2.9 6.35 3.15 9.5 5.9 11.55 L5.9 13.65" fill="#802222" fill-rule="evenodd" stroke="none"/>
      <path d="M5.9 11.55 Q3.15 9.5 2.9 6.35 4.6 5.7 5.9 4.35 L5.9 11.55" fill="#b63030" fill-rule="evenodd" stroke="none"/>
      <path d="M5.9 1.7 Q8.1 3.95 10.95 5.0 10.55 10.25 5.9 13.65 L5.9 11.55 Q8.7 9.5 8.95 6.35 7.2 5.7 5.9 4.35 L5.9 1.7" fill="#da7272" fill-rule="evenodd" stroke="none"/>
      <path d="M5.9 4.35 Q7.2 5.7 8.95 6.35 8.7 9.5 5.9 11.55 L5.9 4.35" fill="#e7a0a0" fill-rule="evenodd" stroke="none"/>
      <path d="M13.55 6.15 Q11.05 8.0 8.85 8.0 L9.5 9.0 7.45 8.1 6.95 7.7 6.85 7.6 6.15 7.75 6.4 6.9 5.15 4.25 6.1 4.7 6.1 4.5 Q6.25 2.45 7.45 0.3 L8.2 3.25 11.95 1.05 10.35 5.3 13.55 6.15 M11.8 6.2 L9.55 5.6 10.65 2.55 7.95 4.15 7.45 2.0 Q6.65 3.45 6.65 4.25 L6.6 5.3 5.75 4.85 6.65 6.8 6.45 7.35 7.0 7.25 7.05 7.35 7.45 7.65 8.8 8.3 8.35 7.55 Q10.0 7.55 11.8 6.2" fill="#f09917" fill-rule="evenodd" stroke="none"/>
      <path d="M11.8 6.2 Q10.0 7.55 8.35 7.55 L8.8 8.3 7.45 7.65 7.05 7.35 7.0 7.25 6.45 7.35 6.65 6.8 5.75 4.85 6.6 5.3 6.65 4.25 Q6.65 3.45 7.45 2.0 L7.95 4.15 10.65 2.55 9.55 5.6 11.8 6.2 M6.85 5.85 L6.25 5.5 6.9 6.8 6.7 7.15 7.05 7.1 7.1 7.15 7.35 7.35 8.25 7.8 8.05 7.3 Q9.1 7.3 10.3 6.45 L8.8 6.0 9.55 3.95 7.75 5.0 7.35 3.6 6.85 5.05 6.85 5.85" fill="#fdc43e" fill-rule="evenodd" stroke="none"/>
      <path d="M6.85 5.85 L6.85 5.05 7.35 3.6 7.75 5.0 9.55 3.95 8.8 6.0 10.3 6.45 Q9.1 7.3 8.05 7.3 L8.25 7.8 7.35 7.35 7.1 7.15 7.05 7.1 6.7 7.15 6.9 6.8 6.25 5.5 6.85 5.85" fill="#ffeb3c" fill-rule="evenodd" stroke="none"/>
    </g>
  </defs>
</svg>
