<?xml version="1.0" encoding="UTF-8" standalone="no"?>
<svg xmlns:xlink="http://www.w3.org/1999/xlink" height="14.0px" width="14.0px" xmlns="http://www.w3.org/2000/svg">
  <g transform="matrix(1.0, 0.0, 0.0, 1.0, 0.0, 0.0)">
    <use height="14.0" transform="matrix(1.0, 0.0, 0.0, 1.0, 0.0, 0.0)" width="14.0" xlink:href="#shape0"/>
  </g>
  <defs>
    <g id="shape0" transform="matrix(1.0, 0.0, 0.0, 1.0, 0.0, 0.0)">
      <path d="M14.0 0.0 L14.0 14.0 0.0 14.0 0.0 0.0 14.0 0.0" fill="#ffffff" fill-opacity="0.0" fill-rule="evenodd" stroke="none"/>
      <path d="M12.45 7.2 Q12.45 9.6 10.75 11.3 9.05 13.0 6.65 13.0 4.2 13.0 2.5 11.3 0.8 9.6 0.8 7.2 0.8 4.8 2.5 3.1 4.2 1.35 6.65 1.35 9.05 1.35 10.75 3.1 12.45 4.8 12.45 7.2" fill="#b7b7b7" fill-rule="evenodd" stroke="none"/>
      <path d="M9.75 10.4 Q8.45 11.7 6.6 11.7 4.75 11.7 3.45 10.4 2.15 9.1 2.15 7.25 2.15 5.4 3.45 4.1 4.75 2.8 6.6 2.8 8.45 2.8 9.75 4.1 11.05 5.4 11.05 7.25 11.05 9.1 9.75 10.4" fill="#ffffff" fill-rule="evenodd" stroke="none"/>
      <path d="M9.6 11.9 Q8.7 12.75 7.15 13.05 L4.75 13.1 4.1 10.05 Q5.0 9.35 6.3 9.1 L9.05 9.15 Q10.25 9.5 10.4 10.3 10.6 11.15 9.6 11.9 M3.25 10.65 L3.7 12.8 2.75 13.35 1.55 13.15 Q1.0 12.85 0.85 12.25 0.75 11.7 1.15 11.2 1.55 10.7 2.2 10.6 L3.25 10.65" fill="#444444" fill-rule="evenodd" stroke="none"/>
      <path d="M12.95 2.95 Q12.4 4.1 11.1 4.95 10.0 5.75 8.9 5.95 L7.15 3.45 Q7.65 2.45 8.75 1.65 10.05 0.8 11.3 0.65 12.55 0.45 13.05 1.15 13.5 1.85 12.95 2.95 M6.6 4.35 L7.85 6.15 7.2 7.0 6.05 7.3 Q5.4 7.2 5.1 6.75 4.75 6.25 4.9 5.7 5.0 5.05 5.55 4.7 6.05 4.35 6.6 4.35" fill="#444444" fill-rule="evenodd" stroke="none"/>
    </g>
  </defs>
</svg>
