<?xml version="1.0" encoding="UTF-8" standalone="no"?>
<svg xmlns:xlink="http://www.w3.org/1999/xlink" height="14.0px" width="14.0px" xmlns="http://www.w3.org/2000/svg">
  <g transform="matrix(1.0, 0.0, 0.0, 1.0, 0.0, 0.0)">
    <use height="14.0" transform="matrix(1.0, 0.0, 0.0, 1.0, 0.0, 0.0)" width="14.0" xlink:href="#shape0"/>
  </g>
  <defs>
    <g id="shape0" transform="matrix(1.0, 0.0, 0.0, 1.0, 0.0, 0.0)">
      <path d="M14.0 0.0 L14.0 14.0 0.0 14.0 0.0 0.0 14.0 0.0" fill="#ffffff" fill-opacity="0.0" fill-rule="evenodd" stroke="none"/>
      <path d="M11.45 4.45 L11.55 4.45 Q12.65 4.45 12.7 5.6 L12.7 8.2 Q12.75 9.4 11.55 9.45 L9.7 9.45 9.7 11.3 Q9.75 12.5 8.55 12.55 L5.95 12.55 Q4.75 12.6 4.7 11.4 L4.7 9.5 2.8 9.5 Q1.6 9.55 1.55 8.35 L1.55 5.75 Q1.5 4.55 2.7 4.5 L4.65 4.5 4.65 2.65 Q4.6 1.45 5.8 1.4 L8.4 1.4 Q9.6 1.35 9.65 2.55 L9.65 4.45 11.45 4.45" fill="#fe0000" fill-rule="evenodd" stroke="none"/>
      <path d="M11.45 4.45 L9.65 4.45 9.65 2.55 Q9.6 1.35 8.4 1.4 L5.8 1.4 Q4.6 1.45 4.65 2.65 L4.65 4.5 2.7 4.5 Q1.5 4.55 1.55 5.75 L1.55 8.35 Q1.6 9.55 2.8 9.5 L4.7 9.5 4.7 11.4 Q4.75 12.6 5.95 12.55 L8.55 12.55 Q9.75 12.5 9.7 11.3 L9.7 9.45 11.55 9.45 Q12.75 9.4 12.7 8.2 L12.7 5.6 Q12.65 4.45 11.55 4.45 L11.45 4.45 Z" fill="none" stroke="#000000" stroke-linecap="round" stroke-linejoin="round" stroke-opacity="0.3019608" stroke-width="0.2"/>
    </g>
  </defs>
</svg>
