<?xml version="1.0" encoding="UTF-8" standalone="no"?>
<svg xmlns:xlink="http://www.w3.org/1999/xlink" height="14.0px" width="14.0px" xmlns="http://www.w3.org/2000/svg">
  <g transform="matrix(1.0, 0.0, 0.0, 1.0, 0.0, 0.0)">
    <use height="14.0" transform="matrix(1.0, 0.0, 0.0, 1.0, 0.0, 0.0)" width="14.0" xlink:href="#shape0"/>
  </g>
  <defs>
    <g id="shape0" transform="matrix(1.0, 0.0, 0.0, 1.0, 0.0, 0.0)">
      <path d="M14.0 0.0 L14.0 14.0 0.0 14.0 0.0 0.0 14.0 0.0" fill="#ffffff" fill-opacity="0.0" fill-rule="evenodd" stroke="none"/>
      <path d="M4.0 8.75 Q3.95 9.4 4.35 9.65 L3.65 10.3 Q3.95 11.3 3.1 11.5 2.45 11.4 2.55 10.65 L2.2 10.7 1.65 10.3 1.45 9.95 1.4 9.8 1.4 9.7 1.55 9.2 2.15 9.0 Q2.6 9.0 2.9 9.3 L3.1 9.6 4.0 8.75" fill="#ebebc7" fill-rule="evenodd" stroke="none"/>
      <path d="M4.0 8.75 L5.7 7.15 6.7 8.35 4.05 10.85 4.25 11.5 Q4.25 11.9 3.85 12.25 3.55 12.6 3.1 12.6 2.65 12.55 2.3 12.2 1.95 11.9 2.0 11.45 L2.0 11.3 2.05 11.05 2.05 11.0 1.95 11.0 1.4 10.7 1.15 10.0 Q1.15 9.55 1.45 9.25 L1.55 9.2 1.4 9.7 1.4 9.8 1.45 9.95 1.65 10.3 2.2 10.7 2.55 10.65 Q2.45 11.4 3.1 11.5 3.95 11.3 3.65 10.3 L4.35 9.65 Q3.95 9.4 4.0 8.75" fill="#dccba3" fill-rule="evenodd" stroke="none"/>
      <path d="M1.55 9.2 L1.45 9.25 Q1.15 9.55 1.15 10.0 L1.4 10.7 1.95 11.0 2.05 11.0 2.05 11.05 2.0 11.3 2.0 11.45 Q1.95 11.9 2.3 12.2 2.65 12.55 3.1 12.6 3.55 12.6 3.85 12.25 4.25 11.9 4.25 11.5 L4.05 10.85 6.7 8.35 5.7 7.15 4.0 8.75 3.1 9.6 2.9 9.3 Q2.6 9.0 2.15 9.0 L1.55 9.2 Z" fill="none" stroke="#000000" stroke-linecap="round" stroke-linejoin="round" stroke-opacity="0.3019608" stroke-width="0.05"/>
      <path d="M6.4 1.6 Q5.85 2.15 6.35 3.4 6.85 4.65 8.1 5.85 L8.6 6.35 Q7.45 7.45 6.1 8.25 L6.0 8.3 4.9 8.9 4.95 8.95 Q4.35 9.05 3.95 8.5 L3.9 8.3 Q3.75 7.75 4.0 7.5 4.15 7.35 4.35 7.35 3.75 4.4 6.4 1.55 L6.4 1.6" fill="#f4a33c" fill-rule="evenodd" stroke="none"/>
      <path d="M3.95 8.5 Q4.35 9.05 4.95 8.95 L4.9 8.9 6.0 8.3 6.1 8.25 Q7.45 7.45 8.6 6.35 9.55 7.2 10.55 7.55 L12.05 7.75 Q9.25 9.95 6.6 9.5 L6.45 9.9 5.6 10.0 4.55 9.4 3.95 8.5" fill="#d06d0d" fill-rule="evenodd" stroke="none"/>
      <path d="M7.05 2.2 Q6.65 2.6 7.0 3.6 7.4 4.55 8.4 5.55 L8.9 6.0 10.35 6.9 11.75 6.85 Q12.2 6.45 11.8 5.45 11.4 4.45 10.45 3.5 9.45 2.5 8.45 2.15 L7.05 2.2 M8.6 6.35 L8.1 5.85 Q6.85 4.65 6.35 3.4 5.85 2.15 6.4 1.6 L8.15 1.55 Q9.4 2.05 10.65 3.25 11.9 4.5 12.35 5.75 12.9 7.0 12.35 7.55 L12.05 7.75 10.55 7.55 Q9.55 7.2 8.6 6.35" fill="#fed0b4" fill-rule="evenodd" stroke="none"/>
      <path d="M7.05 2.2 L8.45 2.15 Q9.45 2.5 10.45 3.5 11.4 4.45 11.8 5.45 12.2 6.45 11.75 6.85 L10.35 6.9 8.9 6.0 8.4 5.55 Q7.4 4.55 7.0 3.6 6.65 2.6 7.05 2.2 M10.1 5.25 L10.3 5.15 10.3 4.7 9.85 4.05 9.2 3.6 8.75 3.65 8.7 3.85 8.75 4.1 9.2 4.75 9.75 5.15 9.85 5.15 10.1 5.25" fill="#a34100" fill-rule="evenodd" stroke="none"/>
      <path d="M10.1 5.25 L9.85 5.15 9.75 5.15 9.2 4.75 8.75 4.1 8.7 3.85 8.75 3.65 9.2 3.6 9.85 4.05 10.3 4.7 10.3 5.15 10.1 5.25" fill="#ffffff" fill-rule="evenodd" stroke="none"/>
      <path d="M6.4 1.6 L6.4 1.55 Q3.75 4.4 4.35 7.35 4.15 7.35 4.0 7.5 3.75 7.75 3.9 8.3 L3.95 8.5 4.55 9.4 5.6 10.0 6.45 9.9 6.6 9.5 Q9.25 9.95 12.05 7.75 L12.35 7.55 Q12.9 7.0 12.35 5.75 11.9 4.5 10.65 3.25 9.4 2.05 8.15 1.55 L6.4 1.6 Z" fill="none" stroke="#000000" stroke-linecap="round" stroke-linejoin="round" stroke-opacity="0.3019608" stroke-width="0.05"/>
    </g>
  </defs>
</svg>
