<?xml version="1.0" encoding="UTF-8" standalone="no"?>
<svg xmlns:xlink="http://www.w3.org/1999/xlink" height="14.0px" width="14.0px" xmlns="http://www.w3.org/2000/svg">
  <g transform="matrix(1.0, 0.0, 0.0, 1.0, 0.0, 0.0)">
    <use height="14.0" transform="matrix(1.0, 0.0, 0.0, 1.0, 0.0, 0.0)" width="14.0" xlink:href="#shape0"/>
  </g>
  <defs>
    <g id="shape0" transform="matrix(1.0, 0.0, 0.0, 1.0, 0.0, 0.0)">
      <path d="M14.0 14.0 L0.0 14.0 0.0 0.0 14.0 0.0 14.0 14.0" fill="#ffffff" fill-opacity="0.0" fill-rule="evenodd" stroke="none"/>
      <path d="M12.55 7.15 Q12.55 9.45 10.9 11.05 9.3 12.65 7.0 12.65 4.7 12.65 3.1 11.05 1.45 9.45 1.45 7.15 1.45 4.85 3.1 3.2 4.7 1.6 7.0 1.6 9.3 1.6 10.9 3.2 12.55 4.85 12.55 7.15" fill="#808080" fill-rule="evenodd" stroke="none"/>
      <path d="M10.0 10.1 Q8.75 11.35 7.0 11.35 5.25 11.35 4.0 10.1 2.75 8.85 2.75 7.1 2.75 5.35 4.0 4.1 5.25 2.85 7.0 2.85 8.75 2.85 10.0 4.1 11.25 5.35 11.25 7.1 11.25 8.85 10.0 10.1" fill="#ffffff" fill-rule="evenodd" stroke="none"/>
      <path d="M5.9 3.75 L7.0 3.6 Q8.2 3.6 9.0 4.3 L10.1 4.15 11.05 4.0 11.7 3.3 12.55 1.15 Q12.9 4.4 11.75 5.0 L11.7 5.0 10.1 5.45 8.9 5.65 7.1 5.75 Q5.55 5.45 5.9 3.75 M1.5 1.15 Q2.0 3.15 3.05 4.0 L4.95 4.25 4.4 5.55 2.2 4.85 Q1.0 3.95 1.5 1.15" fill="#5b1c1c" fill-rule="evenodd" stroke="none"/>
      <path d="M12.55 1.15 Q13.85 4.2 12.45 6.1 L11.7 7.0 10.1 8.2 9.6 8.45 9.0 9.55 Q8.15 10.65 6.95 10.9 5.75 10.65 4.9 9.55 L4.3 8.35 Q2.7 7.65 1.6 6.1 0.25 3.7 1.5 1.15 1.0 3.95 2.2 4.85 L4.4 5.55 4.95 4.25 5.9 3.75 Q5.55 5.45 7.1 5.75 L8.9 5.65 10.1 5.45 11.7 5.0 11.75 5.0 Q12.9 4.4 12.55 1.15" fill="#3a1212" fill-rule="evenodd" stroke="none"/>
      <path d="M5.9 3.75 L7.0 3.6 Q8.2 3.6 9.0 4.3 L10.1 4.15 11.05 4.0 11.7 3.3 12.55 1.15 Q13.85 4.2 12.45 6.1 L11.7 7.0 10.1 8.2 9.6 8.45 9.0 9.55 Q8.15 10.65 6.95 10.9 5.75 10.65 4.9 9.55 L4.3 8.35 Q2.7 7.65 1.6 6.1 0.25 3.7 1.5 1.15 2.0 3.15 3.05 4.0 L4.95 4.25 5.9 3.75 Z" fill="none" stroke="#000000" stroke-linecap="round" stroke-linejoin="round" stroke-opacity="0.3019608" stroke-width="0.05"/>
      <path d="M5.05 8.05 Q4.8 7.6 4.8 6.95 L5.0 5.9 6.65 6.95 6.4 8.05 5.75 8.55 5.05 8.05 M8.9 8.05 L8.2 8.55 Q7.8 8.55 7.55 8.05 7.25 7.6 7.25 6.95 L8.9 5.9 9.15 6.95 8.9 8.05" fill="#ffffff" fill-rule="evenodd" stroke="none"/>
    </g>
  </defs>
</svg>
