<?xml version="1.0" encoding="UTF-8" standalone="no"?>
<svg xmlns:xlink="http://www.w3.org/1999/xlink" height="14.0px" width="14.0px" xmlns="http://www.w3.org/2000/svg">
  <g transform="matrix(1.0, 0.0, 0.0, 1.0, 0.0, 0.0)">
    <use height="14.0" transform="matrix(1.0, 0.0, 0.0, 1.0, 0.0, 0.0)" width="14.0" xlink:href="#shape0"/>
  </g>
  <defs>
    <g id="shape0" transform="matrix(1.0, 0.0, 0.0, 1.0, 0.0, 0.0)">
      <path d="M14.0 0.0 L14.0 14.0 0.0 14.0 0.0 0.0 14.0 0.0" fill="#ffffff" fill-opacity="0.0" fill-rule="evenodd" stroke="none"/>
      <path d="M10.9 10.85 Q9.3 12.45 7.0 12.45 4.75 12.45 3.1 10.85 1.5 9.25 1.5 7.0 1.5 4.75 3.1 3.1 4.75 1.55 7.0 1.55 9.3 1.55 10.9 3.1 12.5 4.75 12.5 7.0 12.5 9.25 10.9 10.85" fill="#660066" fill-rule="evenodd" stroke="none"/>
      <path d="M10.9 10.85 Q9.3 12.45 7.0 12.45 4.75 12.45 3.1 10.85 1.5 9.25 1.5 7.0 1.5 4.75 3.1 3.1 4.75 1.55 7.0 1.55 9.3 1.55 10.9 3.1 12.5 4.75 12.5 7.0 12.5 9.25 10.9 10.85 Z" fill="none" stroke="#880088" stroke-linecap="round" stroke-linejoin="round" stroke-width="0.5"/>
      <path d="M10.4 10.4 Q9.0 11.8 7.0 11.8 5.05 11.8 3.65 10.4 2.25 9.0 2.25 7.05 2.25 5.05 3.65 3.65 5.05 2.25 7.0 2.25 9.0 2.25 10.4 3.65 11.8 5.05 11.8 7.05 11.8 9.0 10.4 10.4" fill="#e3e3e3" fill-rule="evenodd" stroke="none"/>
      <path d="M9.25 9.1 L7.95 7.8 4.55 11.3 Q3.6 11.0 2.9 9.75 L6.4 6.25 4.95 4.85 9.25 4.85 9.25 9.1" fill="#660066" fill-rule="evenodd" stroke="none"/>
    </g>
  </defs>
</svg>
