<?xml version="1.0" encoding="UTF-8" standalone="no"?>
<svg xmlns:xlink="http://www.w3.org/1999/xlink" height="14.0px" width="14.0px" xmlns="http://www.w3.org/2000/svg">
  <g transform="matrix(1.0, 0.0, 0.0, 1.0, 0.0, 0.0)">
    <use height="14.0" transform="matrix(1.0, 0.0, 0.0, 1.0, 0.0, 0.0)" width="14.0" xlink:href="#shape0"/>
  </g>
  <defs>
    <g id="shape0" transform="matrix(1.0, 0.0, 0.0, 1.0, 0.0, 0.0)">
      <path d="M14.0 0.0 L14.0 14.0 0.0 14.0 0.0 0.0 14.0 0.0" fill="#ffffff" fill-opacity="0.0" fill-rule="evenodd" stroke="none"/>
      <path d="M11.75 7.05 Q11.75 9.0 10.35 10.4 9.0 11.8 7.0 11.8 5.0 11.8 3.65 10.4 2.2 9.0 2.2 7.05 2.2 5.05 3.65 3.65 5.0 2.25 7.0 2.25 9.0 2.25 10.35 3.65 11.75 5.05 11.75 7.05 M7.0 5.25 Q7.8 4.4 7.6 3.7 L7.55 3.55 6.7 2.85 7.05 3.25 Q7.25 4.5 6.1 4.8 5.05 5.3 5.15 6.35 5.25 7.0 4.8 7.2 4.55 7.4 4.65 6.65 3.85 7.15 4.0 8.65 4.45 11.2 6.8 11.25 8.45 11.45 9.55 9.9 10.2 8.5 9.75 6.7 9.45 7.55 8.55 7.85 9.3 6.8 9.25 6.25 L9.2 6.2 Q9.15 4.95 8.35 4.55 8.6 5.15 7.75 5.95 7.25 6.2 7.15 6.95 6.35 6.15 6.95 5.3 L7.0 5.25" fill="#e3e3e3" fill-rule="evenodd" stroke="none"/>
      <path d="M7.0 5.25 L6.95 5.3 Q6.35 6.15 7.15 6.95 7.25 6.2 7.75 5.95 8.6 5.15 8.35 4.55 9.15 4.95 9.2 6.2 L9.25 6.25 Q9.3 6.8 8.55 7.85 9.45 7.55 9.75 6.7 10.2 8.5 9.55 9.9 8.45 11.45 6.8 11.25 4.45 11.2 4.0 8.65 3.85 7.15 4.65 6.65 4.55 7.4 4.8 7.2 5.25 7.0 5.15 6.35 5.05 5.3 6.1 4.8 7.25 4.5 7.05 3.25 L6.7 2.85 7.55 3.55 7.6 3.7 Q7.8 4.4 7.0 5.25" fill="#d13800" fill-rule="evenodd" stroke="none"/>
      <path d="M12.5 7.0 Q12.5 9.25 10.9 10.9 9.3 12.5 7.0 12.5 4.7 12.5 3.15 10.9 1.5 9.25 1.5 7.0 1.5 4.7 3.15 3.1 4.7 1.5 7.0 1.5 9.3 1.5 10.9 3.1 12.5 4.7 12.5 7.0 M11.75 7.05 Q11.75 5.05 10.35 3.65 9.0 2.25 7.0 2.25 5.0 2.25 3.65 3.65 2.2 5.05 2.2 7.05 2.2 9.0 3.65 10.4 5.0 11.8 7.0 11.8 9.0 11.8 10.35 10.4 11.75 9.0 11.75 7.05" fill="#8f1d01" fill-rule="evenodd" stroke="none"/>
      <path d="M12.5 7.0 Q12.5 9.25 10.9 10.9 9.3 12.5 7.0 12.5 4.7 12.5 3.15 10.9 1.5 9.25 1.5 7.0 1.5 4.7 3.15 3.1 4.7 1.5 7.0 1.5 9.3 1.5 10.9 3.1 12.5 4.7 12.5 7.0 Z" fill="none" stroke="#d13800" stroke-linecap="round" stroke-linejoin="round" stroke-width="0.5"/>
    </g>
  </defs>
</svg>
