<?xml version="1.0" encoding="UTF-8" standalone="no"?>
<svg xmlns:xlink="http://www.w3.org/1999/xlink" height="14.0px" width="14.0px" xmlns="http://www.w3.org/2000/svg">
  <g transform="matrix(1.0, 0.0, 0.0, 1.0, 0.0, 0.0)">
    <use height="14.0" transform="matrix(1.0, 0.0, 0.0, 1.0, 0.0, 0.0)" width="14.0" xlink:href="#shape0"/>
  </g>
  <defs>
    <g id="shape0" transform="matrix(1.0, 0.0, 0.0, 1.0, 0.0, 0.0)">
      <path d="M14.0 0.0 L14.0 14.0 0.0 14.0 0.0 0.0 14.0 0.0" fill="#ffffff" fill-opacity="0.0" fill-rule="evenodd" stroke="none"/>
      <path d="M7.05 0.85 Q9.75 0.85 11.6 2.4 13.5 3.9 13.5 6.05 13.5 8.2 11.6 9.7 10.55 10.6 9.2 10.95 8.2 12.65 6.7 13.2 7.75 11.8 7.7 11.2 L7.05 11.25 Q5.15 11.25 3.6 10.45 L2.5 9.7 2.45 9.7 Q0.6 8.2 0.6 6.05 0.6 3.9 2.5 2.4 4.4 0.85 7.05 0.85 M9.4 8.1 L4.25 8.1 9.4 8.1 M10.55 6.1 L4.65 6.1 10.55 6.1 M10.05 4.35 L3.65 4.35 10.05 4.35" fill="#ffffff" fill-rule="evenodd" stroke="none"/>
      <path d="M7.05 0.85 Q9.75 0.85 11.6 2.4 13.5 3.9 13.5 6.05 13.5 8.2 11.6 9.7 10.55 10.6 9.2 10.95 8.2 12.65 6.7 13.2 7.75 11.8 7.7 11.2 L7.05 11.25 Q5.15 11.25 3.6 10.45 L2.5 9.7 2.45 9.7 Q0.6 8.2 0.6 6.05 0.6 3.9 2.5 2.4 4.4 0.85 7.05 0.85 M3.65 4.35 L10.05 4.35 M4.65 6.1 L10.55 6.1 M4.25 8.1 L9.4 8.1" fill="none" stroke="#000000" stroke-linecap="round" stroke-linejoin="round" stroke-opacity="0.3019608" stroke-width="0.05"/>
    </g>
  </defs>
</svg>
