<?xml version="1.0" encoding="UTF-8" standalone="no"?>
<svg xmlns:xlink="http://www.w3.org/1999/xlink" height="14.0px" width="14.0px" xmlns="http://www.w3.org/2000/svg">
  <g transform="matrix(1.0, 0.0, 0.0, 1.0, 0.0, 0.0)">
    <use height="14.0" transform="matrix(1.0, 0.0, 0.0, 1.0, 0.0, 0.0)" width="14.0" xlink:href="#shape0"/>
  </g>
  <defs>
    <g id="shape0" transform="matrix(1.0, 0.0, 0.0, 1.0, 0.0, 0.0)">
      <path d="M14.0 0.0 L14.0 14.0 0.0 14.0 0.0 0.0 14.0 0.0" fill="#ffffff" fill-opacity="0.0" fill-rule="evenodd" stroke="none"/>
      <path d="M12.5 7.0 Q12.5 9.25 10.9 10.9 9.3 12.5 7.0 12.5 4.75 12.5 3.1 10.9 1.5 9.25 1.5 7.0 1.5 4.7 3.1 3.1 4.75 1.5 7.0 1.5 9.3 1.5 10.9 3.1 12.5 4.7 12.5 7.0 M6.95 11.8 Q8.95 11.8 10.35 10.4 11.75 9.0 11.75 7.0 11.75 5.05 10.35 3.6 8.95 2.2 6.95 2.2 L6.85 2.2 Q5.0 2.25 3.65 3.6 2.2 5.05 2.2 7.0 2.2 9.0 3.65 10.4 5.05 11.8 6.95 11.8" fill="#110300" fill-rule="evenodd" stroke="none"/>
      <path d="M6.95 11.8 Q5.05 11.8 3.65 10.4 2.2 9.0 2.2 7.0 2.2 5.05 3.65 3.6 5.0 2.25 6.85 2.2 7.85 2.25 8.5 2.85 9.2 3.55 9.2 4.6 9.2 5.65 8.5 6.3 7.85 6.95 6.85 7.0 L6.75 7.0 Q5.75 7.0 5.05 7.65 4.4 8.35 4.4 9.4 4.4 10.45 5.05 11.1 5.6 11.65 6.35 11.75 L6.95 11.8 M6.3 4.6 Q6.3 4.95 6.45 5.1 L6.95 5.35 Q7.25 5.35 7.4 5.1 L7.6 4.65 7.4 4.15 6.95 4.0 6.45 4.15 Q6.3 4.35 6.3 4.6" fill="#e3e3e3" fill-rule="evenodd" stroke="none"/>
      <path d="M6.85 2.2 L6.95 2.2 Q8.95 2.2 10.35 3.6 11.75 5.05 11.75 7.0 11.75 9.0 10.35 10.4 8.95 11.8 6.95 11.8 L6.35 11.75 Q5.6 11.65 5.05 11.1 4.4 10.45 4.4 9.4 4.4 8.35 5.05 7.65 5.75 7.0 6.75 7.0 L6.85 7.0 Q7.85 6.95 8.5 6.3 9.2 5.65 9.2 4.6 9.2 3.55 8.5 2.85 7.85 2.25 6.85 2.2 M6.3 4.6 Q6.3 4.35 6.45 4.15 L6.95 4.0 7.4 4.15 7.6 4.65 7.4 5.1 Q7.25 5.35 6.95 5.35 L6.45 5.1 Q6.3 4.95 6.3 4.6 M6.95 8.85 L6.45 9.0 Q6.3 9.2 6.3 9.45 L6.45 9.95 6.95 10.15 7.4 9.95 7.6 9.5 7.4 9.0 6.95 8.85" fill="#000000" fill-rule="evenodd" stroke="none"/>
      <path d="M6.95 8.85 L7.4 9.0 7.6 9.5 7.4 9.95 6.95 10.15 6.45 9.95 6.3 9.45 Q6.3 9.2 6.45 9.0 L6.95 8.85" fill="#f0f0f0" fill-rule="evenodd" stroke="none"/>
      <path d="M12.5 7.0 Q12.5 9.25 10.9 10.9 9.3 12.5 7.0 12.5 4.75 12.5 3.1 10.9 1.5 9.25 1.5 7.0 1.5 4.7 3.1 3.1 4.75 1.5 7.0 1.5 9.3 1.5 10.9 3.1 12.5 4.7 12.5 7.0 Z" fill="none" stroke="#777777" stroke-linecap="round" stroke-linejoin="round" stroke-width="0.5"/>
    </g>
  </defs>
</svg>
