<?xml version="1.0" encoding="UTF-8" standalone="no"?>
<svg xmlns:xlink="http://www.w3.org/1999/xlink" height="14.0px" width="14.0px" xmlns="http://www.w3.org/2000/svg">
  <g transform="matrix(1.0, 0.0, 0.0, 1.0, -0.05, 0.0)">
    <use height="14.0" transform="matrix(1.0, 0.0, 0.0, 1.0, 0.05, 0.0)" width="14.0" xlink:href="#shape0"/>
  </g>
  <defs>
    <g id="shape0" transform="matrix(1.0, 0.0, 0.0, 1.0, -0.05, 0.0)">
      <path d="M14.05 0.0 L14.05 14.0 0.05 14.0 0.05 0.0 14.05 0.0" fill="#ffffff" fill-opacity="0.0" fill-rule="evenodd" stroke="none"/>
      <path d="M13.65 7.95 L10.7 11.65 10.35 11.9 Q10.0 11.9 9.85 11.65 L9.7 11.25 9.7 9.65 7.55 9.65 7.05 9.5 6.85 9.1 6.85 5.1 7.05 4.7 7.55 4.5 9.7 4.5 9.7 2.95 Q9.7 2.7 9.85 2.5 L10.35 2.3 Q10.6 2.3 10.7 2.5 L13.65 6.25 13.95 7.1 13.65 7.95" fill="#fb4e04" fill-rule="evenodd" stroke="none"/>
      <path d="M5.5 4.0 L5.15 4.5 Q5.0 4.7 5.0 5.1 L5.0 8.95 5.15 9.6 5.5 10.1 5.5 10.15 5.6 10.25 Q6.0 10.65 6.75 10.65 L3.45 12.95 4.35 10.0 0.15 10.3 3.45 7.1 3.4 7.0 3.45 6.95 0.15 3.7 4.35 4.05 3.45 1.05 6.75 3.4 Q6.0 3.4 5.6 3.8 L5.5 3.95 5.5 4.0" fill="#ff9900" fill-rule="evenodd" stroke="none"/>
      <path d="M13.65 7.95 L10.7 11.65 10.35 11.9 Q10.0 11.9 9.85 11.65 L9.7 11.25 9.7 9.65 7.55 9.65 7.05 9.5 6.85 9.1 6.85 5.1 7.05 4.7 7.55 4.5 9.7 4.5 9.7 2.95 Q9.7 2.7 9.85 2.5 L10.35 2.3 Q10.6 2.3 10.7 2.5 L13.65 6.25 13.95 7.1 13.65 7.95 M5.5 4.0 L5.15 4.5 Q5.0 4.7 5.0 5.1 L5.0 8.95 5.15 9.6 5.5 10.1 5.5 10.15 5.6 10.25 Q6.0 10.65 6.75 10.65 L3.45 12.95 4.35 10.0 0.15 10.3 3.45 7.1 3.4 7.0 3.45 6.95 0.15 3.7 4.35 4.05 3.45 1.05 6.75 3.4 Q6.0 3.4 5.6 3.8 L5.5 3.95 5.5 4.0" fill="none" stroke="#000000" stroke-linecap="round" stroke-linejoin="round" stroke-opacity="0.3019608" stroke-width="0.2"/>
    </g>
  </defs>
</svg>
