<?xml version="1.0" encoding="UTF-8" standalone="no"?>
<svg xmlns:xlink="http://www.w3.org/1999/xlink" height="14.0px" width="14.0px" xmlns="http://www.w3.org/2000/svg">
  <g transform="matrix(1.0, 0.0, 0.0, 1.0, 0.0, 0.0)">
    <use height="14.0" transform="matrix(1.0, 0.0, 0.0, 1.0, 0.0, 0.0)" width="14.0" xlink:href="#shape0"/>
  </g>
  <defs>
    <g id="shape0" transform="matrix(1.0, 0.0, 0.0, 1.0, 0.0, 0.0)">
      <path d="M14.0 0.0 L14.0 14.0 0.0 14.0 0.0 0.0 14.0 0.0" fill="#ffffff" fill-opacity="0.0" fill-rule="evenodd" stroke="none"/>
      <path d="M7.8 3.8 Q6.8 3.8 6.15 4.45 5.45 5.15 5.45 6.1 5.45 6.75 5.8 7.3 L6.0 7.55 6.15 7.7 6.15 7.75 Q6.85 8.4 7.8 8.4 8.75 8.4 9.4 7.7 10.1 7.05 10.1 6.1 10.1 5.3 9.65 4.7 L9.4 4.45 Q8.75 3.8 7.8 3.8 M12.0 6.1 Q12.0 7.8 10.75 9.0 9.55 10.25 7.8 10.3 6.55 10.2 5.55 9.65 L5.35 9.45 5.25 9.55 5.25 9.6 5.05 10.15 3.4 11.75 2.85 12.0 2.25 11.75 2.1 11.6 2.0 11.2 2.0 11.1 2.05 11.0 2.1 10.8 2.25 10.6 3.9 9.0 Q4.15 8.75 4.45 8.8 L4.55 8.7 4.25 8.3 3.7 7.0 3.55 6.1 Q3.55 4.4 4.85 3.2 6.1 1.95 7.8 2.0 9.15 1.95 10.2 2.7 L10.75 3.2 Q12.0 4.4 12.0 6.1" fill="#0098ff" fill-rule="evenodd" stroke="none"/>
      <path d="M12.0 6.1 Q12.0 4.4 10.75 3.2 L10.2 2.7 Q9.15 1.95 7.8 2.0 6.1 1.95 4.85 3.2 3.55 4.4 3.55 6.1 L3.7 7.0 4.25 8.3 4.55 8.7 4.45 8.8 Q4.15 8.75 3.9 9.0 L2.25 10.6 2.1 10.8 2.05 11.0 2.0 11.1 2.0 11.2 2.1 11.6 2.25 11.75 2.85 12.0 3.4 11.75 5.05 10.15 5.25 9.6 5.25 9.55 5.35 9.45 5.55 9.65 Q6.55 10.2 7.8 10.3 9.55 10.25 10.75 9.0 12.0 7.8 12.0 6.1 M7.8 3.8 Q8.75 3.8 9.4 4.45 L9.65 4.7 Q10.1 5.3 10.1 6.1 10.1 7.05 9.4 7.7 8.75 8.4 7.8 8.4 6.85 8.4 6.15 7.75 L6.15 7.7 6.0 7.55 5.8 7.3 Q5.45 6.75 5.45 6.1 5.45 5.15 6.15 4.45 6.8 3.8 7.8 3.8" fill="none" stroke="#000000" stroke-linecap="round" stroke-linejoin="round" stroke-opacity="0.5019608" stroke-width="0.05"/>
    </g>
  </defs>
</svg>
