<?xml version="1.0" encoding="UTF-8" standalone="no"?>
<svg xmlns:xlink="http://www.w3.org/1999/xlink" height="14.0px" width="14.0px" xmlns="http://www.w3.org/2000/svg">
  <g transform="matrix(1.0, 0.0, 0.0, 1.0, 0.0, 0.0)">
    <use height="14.0" transform="matrix(1.0, 0.0, 0.0, 1.0, 0.0, 0.0)" width="14.0" xlink:href="#shape0"/>
  </g>
  <defs>
    <g id="shape0" transform="matrix(1.0, 0.0, 0.0, 1.0, 0.0, 0.0)">
      <path d="M14.0 0.0 L14.0 14.0 0.0 14.0 0.0 0.0 14.0 0.0" fill="#ffffff" fill-opacity="0.0" fill-rule="evenodd" stroke="none"/>
      <path d="M12.15 7.05 L11.95 7.45 8.95 10.4 Q8.85 10.6 8.55 10.6 8.3 10.6 8.1 10.4 L7.95 10.0 7.95 8.8 2.9 8.8 Q2.6 8.8 2.45 8.6 L2.25 8.2 2.25 6.0 2.45 5.6 Q2.6 5.4 2.9 5.4 L7.95 5.4 7.95 4.0 Q7.95 3.75 8.1 3.55 8.3 3.4 8.55 3.4 8.85 3.4 8.95 3.55 L11.95 6.6 12.15 7.05" fill="#ff7426" fill-rule="evenodd" stroke="none"/>
      <path d="M12.15 7.05 L11.95 6.6 8.95 3.55 Q8.85 3.4 8.55 3.4 8.3 3.4 8.1 3.55 7.95 3.75 7.95 4.0 L7.95 5.4 2.9 5.4 Q2.6 5.4 2.45 5.6 L2.25 6.0 2.25 8.2 2.45 8.6 Q2.6 8.8 2.9 8.8 L7.95 8.8 7.95 10.0 8.1 10.4 Q8.3 10.6 8.55 10.6 8.85 10.6 8.95 10.4 L11.95 7.45 12.15 7.05 Z" fill="none" stroke="#000000" stroke-linecap="round" stroke-linejoin="round" stroke-opacity="0.5019608" stroke-width="0.05"/>
    </g>
  </defs>
</svg>
