<?xml version="1.0" encoding="UTF-8" standalone="no"?>
<svg xmlns:xlink="http://www.w3.org/1999/xlink" height="14.0px" width="14.0px" xmlns="http://www.w3.org/2000/svg">
  <g transform="matrix(1.0, 0.0, 0.0, 1.0, 0.0, 0.0)">
    <use height="14.0" transform="matrix(1.0, 0.0, 0.0, 1.0, 0.0, 0.0)" width="14.0" xlink:href="#shape0"/>
  </g>
  <defs>
    <g id="shape0" transform="matrix(1.0, 0.0, 0.0, 1.0, 0.0, 0.0)">
      <path d="M14.0 0.0 L14.0 14.0 0.0 14.0 0.0 0.0 14.0 0.0" fill="#ffffff" fill-opacity="0.0" fill-rule="evenodd" stroke="none"/>
      <path d="M7.55 4.65 L7.65 4.7 7.85 4.85 7.9 4.85 7.45 4.9 6.45 4.7 6.55 4.65 7.05 4.6 7.55 4.65" fill="#858e94" fill-rule="evenodd" stroke="none"/>
      <path d="M5.9 5.5 Q5.9 5.1 6.25 4.85 L6.3 4.8 6.45 4.7 7.45 4.9 7.9 4.85 8.2 5.5 5.9 5.5" fill="#737b84" fill-rule="evenodd" stroke="none"/>
      <path d="M5.65 5.5 L5.45 5.35 5.4 5.3 Q4.7 4.65 4.7 3.8 4.7 2.9 5.4 2.25 L5.55 2.15 5.35 3.0 Q5.35 3.8 5.95 4.35 L6.45 4.7 6.3 4.8 6.25 4.85 Q5.9 5.1 5.9 5.5 L5.65 5.5 M9.5 3.55 L9.5 3.8 Q9.5 4.65 8.8 5.3 L8.55 5.5 8.2 5.5 7.9 4.85 Q8.5 4.75 8.95 4.35 L9.5 3.55 M6.55 4.65 L6.15 4.45 Q5.8 4.05 5.8 3.55 5.8 3.05 6.15 2.7 6.55 2.35 7.15 2.35 7.7 2.35 8.1 2.7 8.5 3.05 8.5 3.55 8.5 4.05 8.1 4.45 L7.65 4.7 7.55 4.65 7.85 4.45 8.2 3.75 Q8.2 3.35 7.85 3.1 7.55 2.8 7.1 2.8 6.65 2.8 6.35 3.1 6.0 3.35 6.0 3.75 6.0 4.15 6.35 4.45 L6.55 4.65" fill="#575e64" fill-rule="evenodd" stroke="none"/>
      <path d="M10.15 5.8 L12.35 11.8 11.05 12.3 9.05 5.5 10.15 5.8" fill="#979fa4" fill-rule="evenodd" stroke="none"/>
      <path d="M12.35 11.8 L10.15 5.8 10.5 6.0 12.35 10.9 12.35 11.8 M2.8 12.3 L1.6 11.8 1.6 10.9 3.75 5.95 Q3.95 5.85 4.1 5.7 L5.05 5.5 2.8 12.3" fill="#778288" fill-rule="evenodd" stroke="none"/>
      <path d="M5.55 2.15 Q6.2 1.65 7.1 1.65 8.1 1.65 8.8 2.25 9.4 2.8 9.5 3.55 L8.95 4.35 Q8.5 4.75 7.9 4.85 L7.85 4.85 7.65 4.7 8.1 4.45 Q8.5 4.05 8.5 3.55 8.5 3.05 8.1 2.7 7.7 2.35 7.15 2.35 6.55 2.35 6.15 2.7 5.8 3.05 5.8 3.55 5.8 4.05 6.15 4.45 L6.55 4.65 6.45 4.7 5.95 4.35 Q5.35 3.8 5.35 3.0 L5.55 2.15" fill="#899498" fill-rule="evenodd" stroke="none"/>
      <path d="M9.05 5.5 L11.05 12.3 10.4 12.3 Q4.2 9.55 5.4 5.5 L5.65 5.5 5.9 5.5 8.2 5.5 8.55 5.5 9.05 5.5" fill="#abb0b1" fill-rule="evenodd" stroke="none"/>
      <path d="M10.4 12.3 L2.8 12.3 5.05 5.5 5.4 5.5 Q4.2 9.55 10.4 12.3" fill="#9ea5a5" fill-rule="evenodd" stroke="none"/>
      <path d="M12.35 11.8 L12.35 10.9 10.5 6.0 10.15 5.8 9.05 5.5 8.55 5.5 8.8 5.3 Q9.5 4.65 9.5 3.8 L9.5 3.55 Q9.4 2.8 8.8 2.25 8.1 1.65 7.1 1.65 6.2 1.65 5.55 2.15 L5.4 2.25 Q4.7 2.9 4.7 3.8 4.7 4.65 5.4 5.3 L5.45 5.35 5.65 5.5 M11.05 12.3 L12.35 11.8 M11.05 12.3 L10.4 12.3 2.8 12.3 1.6 11.8 1.6 10.9 3.75 5.95 Q3.95 5.85 4.1 5.7 L5.05 5.5 M6.55 4.65 L6.35 4.45 Q6.0 4.15 6.0 3.75 6.0 3.35 6.35 3.1 6.65 2.8 7.1 2.8 7.55 2.8 7.85 3.1 8.2 3.35 8.2 3.75 L7.85 4.45 7.55 4.65 7.05 4.6 6.55 4.65" fill="none" stroke="#000000" stroke-linecap="round" stroke-linejoin="round" stroke-opacity="0.5019608" stroke-width="0.05"/>
      <path d="M7.7 2.15 L7.65 1.9 7.95 1.8 8.3 1.95 8.65 2.2 8.65 2.45 8.4 2.55 8.0 2.45 7.7 2.15" fill="#bbc1c4" fill-rule="evenodd" stroke="none"/>
    </g>
  </defs>
</svg>
