<?xml version="1.0" encoding="UTF-8" standalone="no"?>
<svg xmlns:xlink="http://www.w3.org/1999/xlink" height="14.0px" width="14.0px" xmlns="http://www.w3.org/2000/svg">
  <g transform="matrix(1.0, 0.0, 0.0, 1.0, 0.0, 0.0)">
    <use height="14.0" transform="matrix(1.0, 0.0, 0.0, 1.0, 0.0, 0.0)" width="14.0" xlink:href="#shape0"/>
  </g>
  <defs>
    <g id="shape0" transform="matrix(1.0, 0.0, 0.0, 1.0, 0.0, 0.0)">
      <path d="M14.0 0.0 L14.0 14.0 0.0 14.0 0.0 0.0 14.0 0.0" fill="#ffffff" fill-opacity="0.0" fill-rule="evenodd" stroke="none"/>
      <path d="M2.15 7.45 L1.95 7.05 2.15 6.6 5.15 3.55 Q5.25 3.4 5.55 3.4 L6.0 3.55 6.15 4.0 6.15 5.4 11.2 5.4 11.65 5.6 11.85 6.0 11.85 8.2 11.65 8.6 11.2 8.8 6.15 8.8 6.15 10.0 6.0 10.4 5.55 10.6 Q5.25 10.6 5.15 10.4 L2.25 7.55 2.15 7.45" fill="#c726ff" fill-rule="evenodd" stroke="none"/>
      <path d="M2.15 7.45 L1.95 7.05 2.15 6.6 5.15 3.55 Q5.25 3.4 5.55 3.4 L6.0 3.55 6.15 4.0 6.15 5.4 11.2 5.4 11.65 5.6 11.85 6.0 11.85 8.2 11.65 8.6 11.2 8.8 6.15 8.8 6.15 10.0 6.0 10.4 5.55 10.6 Q5.25 10.6 5.15 10.4 L2.25 7.55" fill="none" stroke="#000000" stroke-linecap="round" stroke-linejoin="round" stroke-opacity="0.5019608" stroke-width="0.05"/>
    </g>
  </defs>
</svg>
