<?xml version="1.0" encoding="UTF-8" standalone="no"?>
<svg xmlns:xlink="http://www.w3.org/1999/xlink" height="14.0px" width="14.0px" xmlns="http://www.w3.org/2000/svg">
  <g transform="matrix(1.0, 0.0, 0.0, 1.0, 0.0, 0.0)">
    <use height="14.0" transform="matrix(1.0, 0.0, 0.0, 1.0, 0.0, 0.0)" width="14.0" xlink:href="#shape0"/>
  </g>
  <defs>
    <g id="shape0" transform="matrix(1.0, 0.0, 0.0, 1.0, 0.0, 0.0)">
      <path d="M14.0 0.0 L14.0 14.0 0.0 14.0 0.0 0.0 14.0 0.0" fill="#ffffff" fill-opacity="0.0" fill-rule="evenodd" stroke="none"/>
      <path d="M12.65 6.1 L12.85 6.45 Q13.25 7.35 12.7 7.85 9.8 11.6 7.0 11.5 4.1 11.6 1.25 7.8 L1.2 7.75 1.05 7.55 1.05 7.35 Q0.9 6.75 1.25 6.15 L2.0 5.25 Q2.85 4.25 3.95 3.5 L4.1 3.5 4.1 3.4 Q5.55 2.5 6.95 2.5 8.25 2.5 9.5 3.25 L9.5 3.2 9.55 3.35 9.7 3.4 Q11.0 4.1 12.3 5.7 L12.4 5.8 12.65 6.1 M9.1 5.8 Q9.1 6.8 8.45 7.45 7.8 8.1 6.9 8.1 6.0 8.1 5.35 7.45 4.7 6.8 4.7 5.8 L4.7 5.45 9.05 5.3 9.1 5.8 M4.1 5.2 Q3.2 5.85 2.25 7.0 4.6 9.85 7.0 9.85 9.3 9.85 11.7 7.0 L9.8 5.15 Q6.95 2.85 4.1 5.2" fill="#26b58d" fill-rule="evenodd" stroke="none"/>
      <path d="M12.65 6.1 L12.85 6.45 Q13.25 7.35 12.7 7.85 9.8 11.6 7.0 11.5 4.1 11.6 1.25 7.8 L1.2 7.75 1.05 7.55 1.05 7.35 Q0.9 6.75 1.25 6.15 L2.0 5.25 Q2.85 4.25 3.95 3.5 L4.1 3.5 4.1 3.4 Q5.55 2.5 6.95 2.5 8.25 2.5 9.5 3.25 L9.5 3.2 9.55 3.35 9.7 3.4 Q11.0 4.1 12.3 5.7 L12.4 5.8 12.65 6.1 M9.1 5.8 Q9.1 6.8 8.45 7.45 7.8 8.1 6.9 8.1 6.0 8.1 5.35 7.45 4.7 6.8 4.7 5.8 L4.7 5.45 9.05 5.3 9.1 5.8 M4.1 5.2 Q6.95 2.85 9.8 5.15 L11.7 7.0 Q9.3 9.85 7.0 9.85 4.6 9.85 2.25 7.0 3.2 5.85 4.1 5.2" fill="none" stroke="#000000" stroke-linecap="round" stroke-linejoin="round" stroke-opacity="0.5019608" stroke-width="0.05"/>
    </g>
  </defs>
</svg>
