<?xml version="1.0" encoding="UTF-8" standalone="no"?>
<svg xmlns:xlink="http://www.w3.org/1999/xlink" height="14.0px" width="14.0px" xmlns="http://www.w3.org/2000/svg">
  <g transform="matrix(1.0, 0.0, 0.0, 1.0, 0.0, 0.0)">
    <use height="14.0" transform="matrix(1.0, 0.0, 0.0, 1.0, 0.0, 0.0)" width="14.0" xlink:href="#shape0"/>
  </g>
  <defs>
    <g id="shape0" transform="matrix(1.0, 0.0, 0.0, 1.0, 0.0, 0.0)">
      <path d="M14.0 0.0 L14.0 14.0 0.0 14.0 0.0 0.0 14.0 0.0" fill="#ffffff" fill-opacity="0.0" fill-rule="evenodd" stroke="none"/>
      <path d="M12.55 7.0 Q12.55 9.25 10.95 10.9 9.3 12.5 7.0 12.5 4.7 12.5 3.1 10.9 1.45 9.25 1.45 7.0 1.45 4.7 3.1 3.1 4.7 1.5 7.0 1.5 9.3 1.5 10.95 3.1 12.55 4.7 12.55 7.0 M11.75 7.8 L11.8 7.0 Q11.8 5.05 10.4 3.6 9.0 2.2 6.95 2.2 5.0 2.2 3.6 3.6 2.15 5.05 2.15 7.0 2.15 7.6 2.3 8.15 L2.35 8.2 2.35 8.3 2.4 8.4 2.45 8.6 2.55 8.9 Q2.9 9.75 3.6 10.45 L3.95 10.75 4.3 11.0 4.7 11.3 Q5.7 11.9 7.0 11.9 9.0 11.9 10.4 10.45 11.6 9.35 11.8 7.8 L11.75 7.8" fill="#5b3924" fill-rule="evenodd" stroke="none"/>
      <path d="M2.3 8.15 Q2.15 7.6 2.15 7.0 2.15 5.05 3.6 3.6 5.0 2.2 6.95 2.2 9.0 2.2 10.4 3.6 11.8 5.05 11.8 7.0 L11.75 7.8 9.95 7.4 8.95 7.9 7.6 8.15 9.25 9.35 5.2 7.45 4.95 7.3 4.4 7.35 4.25 7.9 3.6 7.95 2.25 7.8 2.3 8.15" fill="#e3e3e3" fill-rule="evenodd" stroke="none"/>
      <path d="M11.75 7.8 L11.8 7.8 Q11.6 9.35 10.4 10.45 9.0 11.9 7.0 11.9 5.7 11.9 4.7 11.3 L4.3 11.0 3.95 10.75 3.6 10.45 Q2.9 9.75 2.55 8.9 L2.45 8.6 2.4 8.4 2.35 8.3 2.35 8.2 2.3 8.15 2.25 7.8 3.6 7.95 4.25 7.9 4.4 7.35 4.95 7.3 5.2 7.45 9.25 9.35 7.6 8.15 8.95 7.9 9.95 7.4 11.75 7.8" fill="#815633" fill-rule="evenodd" stroke="none"/>
      <path d="M12.55 7.0 Q12.55 9.25 10.95 10.9 9.3 12.5 7.0 12.5 4.7 12.5 3.1 10.9 1.45 9.25 1.45 7.0 1.45 4.7 3.1 3.1 4.7 1.5 7.0 1.5 9.3 1.5 10.95 3.1 12.55 4.7 12.55 7.0 Z" fill="none" stroke="#815633" stroke-linecap="round" stroke-linejoin="round" stroke-width="0.5"/>
    </g>
  </defs>
</svg>
