<?xml version="1.0" encoding="UTF-8" standalone="no"?>
<svg xmlns:xlink="http://www.w3.org/1999/xlink" height="14.0px" width="14.0px" xmlns="http://www.w3.org/2000/svg">
  <g transform="matrix(1.0, 0.0, 0.0, 1.0, 0.0, 0.0)">
    <use height="14.0" transform="matrix(1.0, 0.0, 0.0, 1.0, 0.0, 0.0)" width="14.0" xlink:href="#shape0"/>
  </g>
  <defs>
    <g id="shape0" transform="matrix(1.0, 0.0, 0.0, 1.0, 0.0, 0.0)">
      <path d="M14.0 0.0 L14.0 14.0 0.0 14.0 0.0 0.0 14.0 0.0" fill="#ffffff" fill-opacity="0.0" fill-rule="evenodd" stroke="none"/>
      <path d="M11.65 11.2 Q9.95 12.9 7.6 12.9 5.15 12.9 3.5 11.2 1.8 9.5 1.8 7.1 1.8 4.75 3.5 3.05 5.15 1.35 7.6 1.35 9.95 1.35 11.65 3.05 13.35 4.75 13.35 7.1 13.35 9.5 11.65 11.2" fill="#b7b7b7" fill-rule="evenodd" stroke="none"/>
      <path d="M10.75 10.15 Q9.45 11.45 7.6 11.45 5.8 11.45 4.5 10.15 3.2 8.9 3.2 7.05 3.2 5.2 4.5 3.95 5.8 2.65 7.6 2.65 9.45 2.65 10.75 3.95 12.05 5.2 12.05 7.05 12.05 8.9 10.75 10.15" fill="#ffffff" fill-rule="evenodd" stroke="none"/>
      <path d="M5.9 7.75 L6.1 6.85 Q6.25 6.15 7.15 5.1 L7.25 6.9 9.85 6.1 8.45 8.45 10.2 9.4 Q8.45 10.2 7.1 9.95 L7.25 10.7 6.2 9.8 5.95 9.5 5.85 9.45 5.45 9.45 5.75 9.05 5.25 7.25 5.9 7.75" fill="#fefade" fill-rule="evenodd" stroke="none"/>
      <path d="M6.05 5.75 Q6.25 4.8 7.6 3.1 L7.65 5.9 11.55 4.5 9.4 8.15 12.1 9.5 Q9.5 10.75 7.5 10.3 L7.75 11.4 6.25 10.15 5.9 9.75 5.75 9.65 5.1 9.6 5.45 9.0 4.8 6.3 5.75 7.1 6.05 5.75 M5.9 7.75 L5.25 7.25 5.75 9.05 5.45 9.45 5.85 9.45 5.95 9.5 6.2 9.8 7.25 10.7 7.1 9.95 Q8.45 10.2 10.2 9.4 L8.45 8.45 9.85 6.1 7.25 6.9 7.15 5.1 Q6.25 6.15 6.1 6.85 L5.9 7.75" fill="#ffde4f" fill-rule="evenodd" stroke="none"/>
      <path d="M13.6 2.95 L10.55 8.0 13.75 9.5 Q10.75 11.6 7.9 11.0 L8.55 12.4 6.2 10.8 5.65 10.2 5.5 10.1 4.6 10.05 5.05 9.1 4.2 5.35 5.25 6.2 5.35 5.9 Q6.05 3.35 8.05 0.9 L8.25 4.9 13.6 2.95 M6.05 5.75 L5.75 7.1 4.8 6.3 5.45 9.0 5.1 9.6 5.75 9.65 5.9 9.75 6.25 10.15 7.75 11.4 7.5 10.3 Q9.5 10.75 12.1 9.5 L9.4 8.15 11.55 4.5 7.65 5.9 7.6 3.1 Q6.25 4.8 6.05 5.75" fill="#fdcc0b" fill-rule="evenodd" stroke="none"/>
      <path d="M6.35 4.75 L6.35 6.35 4.15 6.35 4.15 8.6 2.45 8.6 2.45 6.35 0.2 6.35 0.2 6.15 Q5.05 6.1 6.35 4.75" fill="#e65b00" fill-rule="evenodd" stroke="none"/>
      <path d="M0.2 6.15 L0.2 4.7 2.45 4.7 2.45 2.45 4.15 2.45 4.15 4.7 6.35 4.7 6.35 4.75 Q5.05 6.1 0.2 6.15" fill="#fd6b0b" fill-rule="evenodd" stroke="none"/>
    </g>
  </defs>
</svg>
