<?xml version="1.0" encoding="UTF-8" standalone="no"?>
<svg xmlns:xlink="http://www.w3.org/1999/xlink" height="14.0px" width="14.0px" xmlns="http://www.w3.org/2000/svg">
  <g transform="matrix(1.0, 0.0, 0.0, 1.0, 0.0, 0.0)">
    <use height="14.0" transform="matrix(1.0, 0.0, 0.0, 1.0, 0.0, 0.0)" width="14.0" xlink:href="#shape0"/>
  </g>
  <defs>
    <g id="shape0" transform="matrix(1.0, 0.0, 0.0, 1.0, 0.0, 0.0)">
      <path d="M14.0 0.0 L14.0 14.0 0.0 14.0 0.0 0.0 14.0 0.0" fill="#ffffff" fill-opacity="0.0" fill-rule="evenodd" stroke="none"/>
      <path d="M9.05 6.25 L9.1 6.3 8.65 5.95 8.2 6.35 8.0 6.95 8.05 7.4 8.25 8.0 8.3 8.05 8.65 8.25 8.7 8.25 9.1 8.0 9.05 8.0 9.3 7.1 9.25 6.8 9.25 6.75 9.05 6.25 M4.9 6.25 L4.7 6.75 4.7 7.1 4.9 8.0 5.3 8.25 5.35 8.25 5.8 8.0 5.75 8.0 6.0 7.1 6.0 6.95 5.8 6.3 5.8 6.25 5.3 5.95 4.9 6.25 M10.9 4.1 L10.95 4.05 11.25 3.5 11.25 3.45 Q11.45 2.9 12.0 2.9 12.6 2.9 12.75 3.55 L12.75 3.6 12.95 5.0 Q13.1 5.8 12.6 6.3 L12.05 6.65 12.25 7.25 11.8 8.2 11.75 8.2 11.3 8.5 11.35 8.85 10.95 9.8 10.9 9.8 10.35 10.05 10.3 10.55 9.9 11.2 8.95 11.5 Q8.35 11.5 8.0 11.2 L7.55 10.55 7.55 10.3 6.45 10.3 6.4 10.55 6.05 11.2 6.0 11.2 5.05 11.5 4.1 11.2 3.7 10.55 3.65 10.3 3.65 10.05 3.05 9.8 Q2.6 9.35 2.6 8.85 L2.7 8.5 2.25 8.2 2.2 8.2 Q1.75 7.8 1.75 7.25 L1.95 6.65 1.4 6.3 Q0.9 5.8 1.05 5.0 L1.25 3.45 Q1.45 2.9 2.0 2.9 2.55 2.9 2.75 3.45 L3.15 4.25 3.45 4.3 3.45 4.25 Q3.45 3.75 3.9 3.35 4.3 3.0 4.9 3.0 L5.7 3.2 6.0 2.85 Q6.25 2.6 6.65 2.5 L7.05 2.5 Q7.6 2.5 8.05 2.85 L8.3 3.15 9.05 3.0 Q9.7 3.0 10.1 3.35 10.55 3.75 10.55 4.25 L10.55 4.3 10.8 4.25 10.9 4.1" fill="#fd890b" fill-rule="evenodd" stroke="none"/>
      <path d="M10.9 4.1 L10.8 4.25 10.55 4.3 10.55 4.25 Q10.55 3.75 10.1 3.35 9.7 3.0 9.05 3.0 L8.3 3.15 8.05 2.85 Q7.6 2.5 7.05 2.5 L6.65 2.5 Q6.25 2.6 6.0 2.85 L5.7 3.2 4.9 3.0 Q4.3 3.0 3.9 3.35 3.45 3.75 3.45 4.25 L3.45 4.3 3.15 4.25 2.75 3.45 Q2.55 2.9 2.0 2.9 1.45 2.9 1.25 3.45 L1.05 5.0 Q0.9 5.8 1.4 6.3 L1.95 6.65 1.75 7.25 Q1.75 7.8 2.2 8.2 L2.25 8.2 2.7 8.5 2.6 8.85 Q2.6 9.35 3.05 9.8 L3.65 10.05 3.65 10.3 3.7 10.55 4.1 11.2 5.05 11.5 6.0 11.2 6.05 11.2 6.4 10.55 6.45 10.3 7.55 10.3 7.55 10.55 8.0 11.2 Q8.35 11.5 8.95 11.5 L9.9 11.2 10.3 10.55 10.35 10.05 10.9 9.8 10.95 9.8 11.35 8.85 11.3 8.5 11.75 8.2 11.8 8.2 12.25 7.25 12.05 6.65 12.6 6.3 Q13.1 5.8 12.95 5.0 L12.75 3.6 12.75 3.55 Q12.6 2.9 12.0 2.9 11.45 2.9 11.25 3.45 L11.25 3.5 10.95 4.05 10.9 4.1 M4.9 6.25 L5.3 5.95 5.8 6.25 5.8 6.3 6.0 6.95 6.0 7.1 5.75 8.0 5.8 8.0 5.35 8.25 5.3 8.25 4.9 8.0 4.7 7.1 4.7 6.75 4.9 6.25 M9.05 6.25 L9.25 6.75 9.25 6.8 9.3 7.1 9.05 8.0 9.1 8.0 8.7 8.25 8.65 8.25 8.3 8.05 8.25 8.0 8.05 7.4 8.0 6.95 8.2 6.35 8.65 5.95 9.1 6.3 9.05 6.25" fill="none" stroke="#000000" stroke-linecap="round" stroke-linejoin="round" stroke-opacity="0.5019608" stroke-width="0.05"/>
    </g>
  </defs>
</svg>
