<?xml version="1.0" encoding="UTF-8" standalone="no"?>
<svg xmlns:xlink="http://www.w3.org/1999/xlink" height="14.0px" width="14.0px" xmlns="http://www.w3.org/2000/svg">
  <g transform="matrix(1.0, 0.0, 0.0, 1.0, 0.0, 0.0)">
    <use height="14.0" transform="matrix(1.0, 0.0, 0.0, 1.0, 0.0, 0.0)" width="14.0" xlink:href="#shape0"/>
  </g>
  <defs>
    <g id="shape0" transform="matrix(1.0, 0.0, 0.0, 1.0, 0.0, 0.0)">
      <path d="M14.0 0.0 L14.0 14.0 0.0 14.0 0.0 0.0 14.0 0.0" fill="#ffffff" fill-opacity="0.0" fill-rule="evenodd" stroke="none"/>
      <path d="M8.7 5.2 L3.85 7.95 8.25 11.05 Q10.7 8.1 8.7 5.2 M9.8 2.85 L10.35 4.3 9.25 4.85 Q12.2 8.0 9.3 11.7 L10.8 12.6 9.2 13.75 1.95 8.05 9.8 2.85" fill="#5b6468" fill-rule="evenodd" stroke="none"/>
      <path d="M8.6 7.35 L9.15 7.7 9.4 8.45 9.15 9.25 8.6 9.6 Q8.25 9.6 8.0 9.25 7.75 8.95 7.75 8.45 7.75 8.0 8.0 7.7 8.25 7.35 8.6 7.35" fill="#0da7b7" fill-rule="evenodd" stroke="none"/>
      <path d="M9.1 8.0 L9.25 8.45 9.1 8.95 8.75 9.15 8.4 8.95 Q8.25 8.75 8.25 8.45 8.25 8.2 8.4 8.0 L8.75 7.8 9.1 8.0" fill="#0da7b7" fill-rule="evenodd" stroke="none"/>
      <path d="M1.35 4.1 L6.35 5.35 8.95 0.15 8.85 1.95 7.9 5.7 12.3 7.65 11.05 8.25 7.4 7.3 4.45 12.45 5.25 9.9 4.3 11.1 5.7 6.75 1.8 5.2 4.85 6.05 1.65 4.85 1.35 4.1" fill="#c40000" fill-rule="evenodd" stroke="none"/>
    </g>
  </defs>
</svg>
