<?xml version="1.0" encoding="UTF-8" standalone="no"?>
<svg xmlns:xlink="http://www.w3.org/1999/xlink" height="14.0px" width="14.0px" xmlns="http://www.w3.org/2000/svg">
  <g transform="matrix(1.0, 0.0, 0.0, 1.0, 0.0, 0.0)">
    <use height="14.0" transform="matrix(1.0, 0.0, 0.0, 1.0, 0.0, 0.0)" width="14.0" xlink:href="#shape0"/>
  </g>
  <defs>
    <g id="shape0" transform="matrix(1.0, 0.0, 0.0, 1.0, 0.0, 0.0)">
      <path d="M14.0 14.0 L0.0 14.0 0.0 0.0 14.0 0.0 14.0 14.0" fill="#ffffff" fill-opacity="0.0" fill-rule="evenodd" stroke="none"/>
      <path d="M2.95 4.45 L3.0 3.0 Q4.15 1.85 5.55 1.5 L5.55 4.35 8.4 1.5 Q9.7 1.8 10.7 2.75 L8.05 5.4 11.2 5.4 11.2 6.5 6.85 6.5 6.45 6.9 6.95 7.45 11.25 7.45 11.25 8.6 8.1 8.6 9.35 9.75 9.0 9.75 Q6.5 9.75 4.7 7.95 3.2 6.45 2.95 4.45" fill="#fdd124" fill-rule="evenodd" stroke="none"/>
      <path d="M9.35 9.75 L10.85 11.15 Q9.75 12.15 8.4 12.5 L5.55 9.65 5.55 12.5 Q4.15 12.15 3.0 11.0 L3.0 8.5 2.1 8.5 2.1 7.45 3.0 7.45 2.95 6.45 2.05 6.45 2.1 5.4 2.95 5.4 2.95 4.45 Q3.2 6.45 4.7 7.95 6.5 9.75 9.0 9.75 L9.35 9.75" fill="#dc9c0a" fill-rule="evenodd" stroke="none"/>
      <path d="M2.95 4.45 L3.0 3.0 Q4.15 1.85 5.55 1.5 L5.55 4.35 8.4 1.5 Q9.7 1.8 10.7 2.75 L8.05 5.4 11.2 5.4 11.2 6.5 6.85 6.5 6.45 6.9 6.95 7.45 11.25 7.45 11.25 8.6 8.1 8.6 9.35 9.75 10.85 11.15 Q9.75 12.15 8.4 12.5 L5.55 9.65 5.55 12.5 Q4.15 12.15 3.0 11.0 L3.0 8.5 2.1 8.5 2.1 7.45 3.0 7.45 2.95 6.45 2.05 6.45 2.1 5.4 2.95 5.4 2.95 4.45 Z" fill="none" stroke="#000000" stroke-linecap="round" stroke-linejoin="round" stroke-opacity="0.3019608" stroke-width="0.05"/>
    </g>
  </defs>
</svg>
