<?xml version="1.0" encoding="UTF-8" standalone="no"?>
<svg xmlns:xlink="http://www.w3.org/1999/xlink" height="14.0px" width="14.0px" xmlns="http://www.w3.org/2000/svg">
  <g transform="matrix(1.0, 0.0, 0.0, 1.0, 0.0, 0.0)">
    <use height="14.0" transform="matrix(1.0, 0.0, 0.0, 1.0, 0.0, 0.0)" width="14.0" xlink:href="#shape0"/>
  </g>
  <defs>
    <g id="shape0" transform="matrix(1.0, 0.0, 0.0, 1.0, 0.0, 0.0)">
      <path d="M14.0 0.0 L14.0 14.0 0.0 14.0 0.0 0.0 14.0 0.0" fill="#ffffff" fill-opacity="0.0" fill-rule="evenodd" stroke="none"/>
      <path d="M11.0 5.15 L13.55 4.4 12.25 6.7 13.7 7.7 11.3 7.7 10.95 7.0 10.6 6.45 Q10.05 5.85 9.5 5.75 L9.35 5.7 Q8.75 5.4 7.75 5.7 7.35 5.8 6.95 6.05 L6.5 2.55 8.3 4.8 10.4 0.8 11.0 5.15" fill="#ff9900" fill-rule="evenodd" stroke="none"/>
      <path d="M10.85 9.4 Q11.3 9.55 11.1 10.0 L7.5 11.6 7.4 11.6 Q6.55 11.5 5.95 12.25 L3.65 13.3 Q3.3 13.15 3.35 12.65 2.65 11.25 2.45 9.8 L1.45 7.55 1.3 7.65 Q0.35 6.7 0.4 5.5 L3.9 3.9 Q4.85 4.85 4.8 6.05 L4.65 6.15 4.75 6.35 4.9 6.45 4.9 6.65 5.1 7.05 5.25 7.35 5.5 8.0 7.85 6.7 Q8.65 6.5 9.35 6.95 L10.15 7.8 Q10.6 8.4 10.85 9.4" fill="#b3cb20" fill-rule="evenodd" stroke="none"/>
      <path d="M11.0 5.15 L13.55 4.4 12.25 6.7 13.7 7.7 11.3 7.7 10.95 7.0 10.6 6.45 Q10.05 5.85 9.5 5.75 L9.35 5.7 Q8.75 5.4 7.75 5.7 7.35 5.8 6.95 6.05 L6.5 2.55 8.3 4.8 10.4 0.8 11.0 5.15 M10.85 9.4 Q10.6 8.4 10.15 7.8 L9.35 6.95 Q8.65 6.5 7.85 6.7 L5.5 8.0 5.25 7.35 5.1 7.05 4.9 6.65 4.9 6.45 4.75 6.35 4.65 6.15 4.8 6.05 Q4.85 4.85 3.9 3.9 L0.4 5.5 Q0.35 6.7 1.3 7.65 L1.45 7.55 2.45 9.8 Q2.65 11.25 3.35 12.65 3.3 13.15 3.65 13.3 L5.95 12.25 Q6.55 11.5 7.4 11.6 L7.5 11.6 11.1 10.0 Q11.3 9.55 10.85 9.4" fill="none" stroke="#000000" stroke-linecap="round" stroke-linejoin="round" stroke-opacity="0.5019608" stroke-width="0.05"/>
    </g>
  </defs>
</svg>
