<?xml version="1.0" encoding="UTF-8" standalone="no"?>
<svg xmlns:xlink="http://www.w3.org/1999/xlink" height="14.0px" width="14.0px" xmlns="http://www.w3.org/2000/svg">
  <g transform="matrix(1.0, 0.0, 0.0, 1.0, 0.0, 0.0)">
    <use height="14.0" transform="matrix(1.0, 0.0, 0.0, 1.0, 0.0, 0.0)" width="14.0" xlink:href="#shape0"/>
    <use height="15.8" transform="matrix(-0.0266, 0.0285, -0.019, -0.0208, 6.35, 2.4)" width="34.6" xlink:href="#sprite0"/>
    <use height="15.8" transform="matrix(0.0508, -0.0218, 0.0201, 0.055, 3.95, 9.9)" width="34.6" xlink:href="#sprite0"/>
    <use height="15.8" transform="matrix(0.0503, -0.0063, 0.0063, 0.0588, 3.25, 8.8)" width="34.6" xlink:href="#sprite0"/>
    <use height="15.8" transform="matrix(0.0454, 0.0073, -0.0068, 0.0499, 2.8, 7.75)" width="34.6" xlink:href="#sprite0"/>
    <use height="15.8" transform="matrix(0.0421, 0.0197, -0.0185, 0.0463, 2.7, 6.6)" width="34.6" xlink:href="#sprite0"/>
    <use height="15.8" transform="matrix(0.0359, 0.0309, -0.029, 0.0396, 2.8, 5.4)" width="34.6" xlink:href="#sprite0"/>
    <use height="15.8" transform="matrix(0.0253, 0.037, -0.0374, 0.0301, 3.15, 4.3)" width="34.6" xlink:href="#sprite0"/>
    <use height="15.8" transform="matrix(0.0092, 0.0401, -0.0387, 0.0105, 3.95, 3.55)" width="34.6" xlink:href="#sprite0"/>
    <use height="15.8" transform="matrix(-6.0E-4, 0.0413, -0.0399, -7.0E-4, 4.75, 2.85)" width="34.6" xlink:href="#sprite0"/>
    <use height="15.8" transform="matrix(-0.0099, 0.0375, -0.0245, -0.0076, 5.5, 2.45)" width="34.6" xlink:href="#sprite0"/>
    <use height="15.8" transform="matrix(0.0121, 0.0555, -0.0531, 0.0135, 5.9, 7.45)" width="34.6" xlink:href="#sprite0"/>
    <use height="15.8" transform="matrix(-0.0069, 0.0508, -0.0395, -0.0062, 4.85, 6.5)" width="34.6" xlink:href="#sprite0"/>
    <use height="15.8" transform="matrix(-0.0018, 0.0556, -0.0513, -0.002, 5.4, 6.95)" width="34.6" xlink:href="#sprite0"/>
    <use height="15.8" transform="matrix(-0.0303, 0.0325, -0.028, -0.0307, 5.2, 4.85)" width="34.6" xlink:href="#sprite0"/>
    <use height="15.8" transform="matrix(-0.0204, 0.0406, -0.035, -0.0207, 4.85, 5.7)" width="34.6" xlink:href="#sprite0"/>
    <use height="15.8" transform="matrix(-0.0318, 0.0196, -0.0169, -0.0322, 5.5, 4.1)" width="34.6" xlink:href="#sprite0"/>
    <use height="15.8" transform="matrix(-0.0318, 0.0196, -0.0169, -0.0322, 6.05, 3.4)" width="34.6" xlink:href="#sprite0"/>
    <use height="7.55" transform="matrix(1.0, 0.0, 0.0, 1.0, 3.7, 3.45)" width="3.1" xlink:href="#shape2"/>
    <use height="15.8" transform="matrix(0.0266, 0.0285, 0.019, -0.0208, 7.3, 2.4)" width="34.6" xlink:href="#sprite0"/>
    <use height="15.8" transform="matrix(-0.0508, -0.0218, -0.0201, 0.055, 9.65, 9.9)" width="34.6" xlink:href="#sprite0"/>
    <use height="15.8" transform="matrix(-0.0503, -0.0063, -0.0063, 0.0588, 10.4, 8.8)" width="34.6" xlink:href="#sprite0"/>
    <use height="15.8" transform="matrix(-0.0454, 0.0073, 0.0068, 0.0499, 10.8, 7.75)" width="34.6" xlink:href="#sprite0"/>
    <use height="15.8" transform="matrix(-0.0421, 0.0197, 0.0185, 0.0463, 10.95, 6.6)" width="34.6" xlink:href="#sprite0"/>
    <use height="15.8" transform="matrix(-0.0359, 0.0309, 0.029, 0.0396, 10.85, 5.4)" width="34.6" xlink:href="#sprite0"/>
    <use height="15.8" transform="matrix(-0.0253, 0.037, 0.0374, 0.0301, 10.5, 4.3)" width="34.6" xlink:href="#sprite0"/>
    <use height="15.8" transform="matrix(-0.0092, 0.0401, 0.0387, 0.0105, 9.7, 3.55)" width="34.6" xlink:href="#sprite0"/>
    <use height="15.8" transform="matrix(6.0E-4, 0.0413, 0.0399, -7.0E-4, 8.9, 2.85)" width="34.6" xlink:href="#sprite0"/>
    <use height="15.8" transform="matrix(0.0099, 0.0375, 0.0245, -0.0076, 8.15, 2.45)" width="34.6" xlink:href="#sprite0"/>
    <use height="15.8" transform="matrix(-0.0121, 0.0555, 0.0531, 0.0135, 7.75, 7.45)" width="34.6" xlink:href="#sprite0"/>
    <use height="15.8" transform="matrix(0.0069, 0.0508, 0.0395, -0.0062, 8.75, 6.5)" width="34.6" xlink:href="#sprite0"/>
    <use height="15.8" transform="matrix(0.0018, 0.0556, 0.0513, -0.002, 8.2, 6.95)" width="34.6" xlink:href="#sprite0"/>
    <use height="15.8" transform="matrix(0.0303, 0.0325, 0.028, -0.0307, 8.45, 4.85)" width="34.6" xlink:href="#sprite0"/>
    <use height="15.8" transform="matrix(0.0204, 0.0406, 0.035, -0.0207, 8.75, 5.7)" width="34.6" xlink:href="#sprite0"/>
    <use height="15.8" transform="matrix(0.0318, 0.0196, 0.0169, -0.0322, 8.1, 4.1)" width="34.6" xlink:href="#sprite0"/>
    <use height="15.8" transform="matrix(0.0318, 0.0196, 0.0169, -0.0322, 7.6, 3.4)" width="34.6" xlink:href="#sprite0"/>
    <use height="7.55" transform="matrix(1.0, 0.0, 0.0, 1.0, 6.8, 3.5)" width="3.15" xlink:href="#shape3"/>
  </g>
  <defs>
    <g id="shape0" transform="matrix(1.0, 0.0, 0.0, 1.0, 0.0, 0.0)">
      <path d="M14.0 0.0 L14.0 14.0 0.0 14.0 0.0 0.0 14.0 0.0" fill="#ffffff" fill-opacity="0.0" fill-rule="evenodd" stroke="none"/>
      <path d="M11.9 6.4 L11.85 7.6 4.7 7.4 Q2.45 6.4 2.55 4.8 L7.0 4.25 11.65 4.85 11.9 6.4" fill="#e7d1a0" fill-rule="evenodd" stroke="none"/>
      <path d="M11.85 7.6 L11.9 6.4 13.65 6.7 12.9 8.65 13.05 11.2 Q10.0 10.75 10.15 10.25 11.35 10.05 11.65 9.6 L11.85 7.6 M3.8 10.25 Q3.95 10.75 0.9 11.25 L1.15 8.7 0.3 6.75 2.05 6.4 Q2.05 7.6 2.35 9.65 2.6 10.05 3.8 10.25" fill="#d7b15b" fill-rule="evenodd" stroke="none"/>
      <path d="M2.55 4.8 Q2.45 6.4 4.7 7.4 L11.85 7.6 11.65 9.6 Q11.6 9.15 10.65 9.0 L10.4 9.0 7.0 8.8 3.6 9.0 3.3 9.05 Q2.35 9.15 2.35 9.65 2.05 7.6 2.05 6.4 2.05 5.25 2.35 4.85 L2.55 4.8" fill="#e0c585" fill-rule="evenodd" stroke="none"/>
      <path d="M11.65 9.6 Q11.35 10.05 10.15 10.25 L10.4 9.0 10.65 9.0 Q11.6 9.15 11.65 9.6 M2.35 9.65 Q2.35 9.15 3.3 9.05 L3.6 9.0 3.8 10.25 Q2.6 10.05 2.35 9.65" fill="#8e6d24" fill-rule="evenodd" stroke="none"/>
    </g>
    <g id="sprite0" transform="matrix(1.0, 0.0, 0.0, 1.0, 0.0, 0.0)">
      <use height="15.8" transform="matrix(1.0, 0.0, 0.0, 1.0, 0.0, 0.0)" width="34.6" xlink:href="#shape1"/>
    </g>
    <g id="shape1" transform="matrix(1.0, 0.0, 0.0, 1.0, 0.0, 0.0)">
      <path d="M0.2 7.55 L0.0 7.4 Q15.15 -5.6 32.6 4.25 34.25 5.7 34.55 7.1 17.25 9.2 0.2 7.55" fill="#2d8f01" fill-rule="evenodd" stroke="none"/>
      <path d="M0.2 7.55 Q17.25 9.2 34.55 7.1 34.9 8.95 33.15 10.85 14.15 22.15 0.2 7.55" fill="#006600" fill-rule="evenodd" stroke="none"/>
    </g>
    <g id="shape2" transform="matrix(1.0, 0.0, 0.0, 1.0, -3.7, -3.45)">
      <path d="M4.8 3.95 L5.15 3.45 4.65 3.8 Q3.7 4.8 3.7 6.25 3.7 7.7 4.65 8.75 5.45 9.65 6.6 9.75 6.45 10.55 5.9 10.8 L6.6 10.95 Q6.9 10.5 6.8 9.95 L6.75 9.65 6.6 9.55 Q5.55 9.45 4.8 8.6 3.9 7.65 3.9 6.3 3.9 4.9 4.8 3.95" fill="#006600" fill-rule="evenodd" stroke="none"/>
    </g>
    <g id="shape3" transform="matrix(1.0, 0.0, 0.0, 1.0, -6.8, -3.5)">
      <path d="M8.85 4.0 L8.5 3.5 9.0 3.85 Q9.95 4.85 9.95 6.3 9.95 7.75 9.0 8.8 8.2 9.7 7.05 9.8 7.2 10.6 7.75 10.85 L7.05 11.0 Q6.75 10.55 6.85 10.0 L6.9 9.7 7.05 9.6 Q8.1 9.5 8.85 8.65 9.75 7.7 9.75 6.35 9.75 4.95 8.85 4.0" fill="#006600" fill-rule="evenodd" stroke="none"/>
    </g>
  </defs>
</svg>
