<?xml version="1.0" encoding="UTF-8" standalone="no"?>
<svg xmlns:xlink="http://www.w3.org/1999/xlink" height="14.0px" width="14.0px" xmlns="http://www.w3.org/2000/svg">
  <g transform="matrix(1.0, 0.0, 0.0, 1.0, 0.0, 0.0)">
    <use height="14.0" transform="matrix(1.0, 0.0, 0.0, 1.0, 0.0, 0.0)" width="14.0" xlink:href="#shape0"/>
  </g>
  <defs>
    <g id="shape0" transform="matrix(1.0, 0.0, 0.0, 1.0, 0.0, 0.0)">
      <path d="M14.0 0.0 L14.0 14.0 0.0 14.0 0.0 0.0 14.0 0.0" fill="#ffffff" fill-opacity="0.0" fill-rule="evenodd" stroke="none"/>
      <path d="M3.0 8.5 L1.05 7.4 7.4 4.6 7.4 6.55 3.0 8.5" fill="#a67930" fill-rule="evenodd" stroke="none"/>
      <path d="M11.05 8.65 L6.6 10.6 3.0 8.5 7.4 6.55 11.05 8.65" fill="#000000" fill-rule="evenodd" stroke="none"/>
      <path d="M7.4 4.6 L12.95 7.8 11.05 8.65 7.4 6.55 7.4 4.6" fill="#7d5924" fill-rule="evenodd" stroke="none"/>
      <path d="M7.4 4.6 L12.95 7.8 11.05 8.65 6.6 10.6 3.0 8.5 1.05 7.4 7.4 4.6 7.4 6.55 11.05 8.65 M3.0 8.5 L7.4 6.55" fill="none" stroke="#000000" stroke-linecap="round" stroke-linejoin="round" stroke-opacity="0.3019608" stroke-width="0.2"/>
    </g>
  </defs>
</svg>
