<?xml version="1.0" encoding="UTF-8" standalone="no"?>
<svg xmlns:xlink="http://www.w3.org/1999/xlink" height="14.0px" width="14.0px" xmlns="http://www.w3.org/2000/svg">
  <g transform="matrix(1.0, 0.0, 0.0, 1.0, 0.0, 0.0)">
    <use height="14.0" transform="matrix(1.0, 0.0, 0.0, 1.0, 0.0, 0.0)" width="14.0" xlink:href="#shape0"/>
  </g>
  <defs>
    <g id="shape0" transform="matrix(1.0, 0.0, 0.0, 1.0, 0.0, 0.0)">
      <path d="M14.0 0.0 L14.0 14.0 0.0 14.0 0.0 0.0 14.0 0.0" fill="#ffffff" fill-opacity="0.0" fill-rule="evenodd" stroke="none"/>
      <path d="M3.0 10.4 L1.05 9.3 7.4 6.5 7.4 8.45 3.0 10.4" fill="#a67930" fill-rule="evenodd" stroke="none"/>
      <path d="M11.05 10.55 L6.6 12.5 3.0 10.4 7.4 8.45 11.05 10.55" fill="#000000" fill-rule="evenodd" stroke="none"/>
      <path d="M7.4 6.5 L12.95 9.7 11.05 10.55 7.4 8.45 7.4 6.5" fill="#7d5924" fill-rule="evenodd" stroke="none"/>
      <path d="M7.4 6.5 L12.95 9.7 11.05 10.55 6.6 12.5 3.0 10.4 1.05 9.3 7.4 6.5 7.4 8.45 11.05 10.55 M3.0 10.4 L7.4 8.45" fill="none" stroke="#000000" stroke-linecap="round" stroke-linejoin="round" stroke-opacity="0.3019608" stroke-width="0.2"/>
      <path d="M4.0 7.45 L7.4 2.35 12.0 2.35 9.4 6.0 12.05 6.0 4.0 10.65 6.45 7.45 4.0 7.45" fill="#ffd500" fill-rule="evenodd" stroke="none"/>
      <path d="M4.0 7.45 L7.4 2.35 12.0 2.35 9.4 6.0 12.05 6.0 4.0 10.65 6.45 7.45 4.0 7.45 Z" fill="none" stroke="#000000" stroke-linecap="round" stroke-linejoin="round" stroke-opacity="0.3019608" stroke-width="0.2"/>
    </g>
  </defs>
</svg>
