<?xml version="1.0" encoding="UTF-8" standalone="no"?>
<svg xmlns:xlink="http://www.w3.org/1999/xlink" height="14.0px" width="14.0px" xmlns="http://www.w3.org/2000/svg">
  <g transform="matrix(1.0, 0.0, 0.0, 1.0, 0.0, 0.0)">
    <use height="14.0" transform="matrix(1.0, 0.0, 0.0, 1.0, 0.0, 0.0)" width="14.0" xlink:href="#shape0"/>
  </g>
  <defs>
    <g id="shape0" transform="matrix(1.0, 0.0, 0.0, 1.0, 0.0, 0.0)">
      <path d="M14.0 0.0 L14.0 14.0 0.0 14.0 0.0 0.0 14.0 0.0" fill="#ffffff" fill-opacity="0.0" fill-rule="evenodd" stroke="none"/>
      <path d="M13.65 7.8 Q13.65 10.2 11.95 11.9 10.25 13.6 7.85 13.6 5.45 13.6 3.75 11.9 2.1 10.2 2.1 7.8 2.1 5.4 3.75 3.75 5.45 2.05 7.85 2.05 10.25 2.05 11.95 3.75 13.65 5.4 13.65 7.8" fill="#b7b7b7" fill-rule="evenodd" stroke="none"/>
      <path d="M11.0 10.95 Q9.7 12.25 7.85 12.25 6.0 12.25 4.75 10.95 3.45 9.65 3.45 7.8 3.45 6.0 4.75 4.7 6.0 3.4 7.85 3.4 9.7 3.4 11.0 4.7 12.3 6.0 12.3 7.8 12.3 9.65 11.0 10.95" fill="#ffffff" fill-rule="evenodd" stroke="none"/>
      <path d="M6.15 1.45 L6.95 2.55 Q7.2 1.45 8.1 0.35 L9.45 2.4 10.65 2.05 Q11.1 3.25 11.2 4.4 L12.75 4.85 Q11.55 7.5 10.5 8.55 L9.25 9.4 Q10.2 9.5 11.0 10.05 10.95 11.1 10.2 11.35 9.2 10.5 8.9 10.55 L8.85 11.2 9.7 13.0 8.5 13.15 7.85 11.75 7.2 13.15 6.05 13.0 Q6.35 11.85 6.95 11.15 L6.9 10.5 6.9 10.55 Q6.6 10.5 5.6 11.35 4.85 11.1 4.8 10.05 5.6 9.5 6.55 9.4 L5.4 8.55 Q4.3 7.5 4.3 6.0 L4.45 3.2 5.2 4.0 Q5.45 2.55 6.15 1.45 M5.55 6.7 Q5.3 7.1 5.45 7.5 5.55 7.95 5.95 8.15 L6.75 8.25 7.45 7.75 7.5 7.6 5.65 6.55 5.55 6.7 M8.35 7.6 L8.4 7.75 9.05 8.25 9.85 8.15 10.4 7.5 10.3 6.7 10.2 6.5 8.35 7.6" fill="#821a0f" fill-rule="evenodd" stroke="none"/>
      <path d="M6.55 6.95 L6.55 8.55 4.3 8.55 4.3 10.8 2.6 10.8 2.6 8.55 0.35 8.55 0.35 8.35 Q5.2 8.3 6.55 6.95" fill="#e65b00" fill-rule="evenodd" stroke="none"/>
      <path d="M0.35 8.35 L0.35 6.9 2.6 6.9 2.6 4.65 4.3 4.65 4.3 6.9 6.55 6.9 6.55 6.95 Q5.2 8.3 0.35 8.35" fill="#fd6b0b" fill-rule="evenodd" stroke="none"/>
    </g>
  </defs>
</svg>
