<?xml version="1.0" encoding="UTF-8" standalone="no"?>
<svg xmlns:xlink="http://www.w3.org/1999/xlink" height="14.0px" width="14.0px" xmlns="http://www.w3.org/2000/svg">
  <g transform="matrix(1.0, 0.0, 0.0, 1.0, 0.0, 0.0)">
    <use height="14.0" transform="matrix(1.0, 0.0, 0.0, 1.0, 0.0, 0.0)" width="14.0" xlink:href="#shape0"/>
  </g>
  <defs>
    <g id="shape0" transform="matrix(1.0, 0.0, 0.0, 1.0, 0.0, 0.0)">
      <path d="M14.0 0.0 L14.0 14.0 0.0 14.0 0.0 0.0 14.0 0.0" fill="#ffffff" fill-opacity="0.0" fill-rule="evenodd" stroke="none"/>
      <path d="M12.5 7.0 Q12.5 9.25 10.9 10.85 9.3 12.45 7.0 12.45 4.75 12.45 3.1 10.85 1.5 9.25 1.5 7.0 1.5 4.75 3.1 3.1 4.75 1.55 7.0 1.55 9.3 1.55 10.9 3.1 12.5 4.75 12.5 7.0 M11.75 7.0 Q11.75 5.05 10.35 3.65 8.95 2.25 6.95 2.25 5.05 2.25 3.65 3.65 2.2 5.05 2.2 7.0 2.2 9.0 3.65 10.35 5.05 11.75 6.95 11.75 8.95 11.75 10.35 10.35 11.75 9.0 11.75 7.0" fill="#c60000" fill-rule="evenodd" stroke="none"/>
      <path d="M11.75 7.0 Q11.75 9.0 10.35 10.35 8.95 11.75 6.95 11.75 5.05 11.75 3.65 10.35 2.2 9.0 2.2 7.0 2.2 5.05 3.65 3.65 5.05 2.25 6.95 2.25 8.95 2.25 10.35 3.65 11.75 5.05 11.75 7.0 M7.0 5.8 Q6.15 4.6 5.2 4.5 4.1 4.5 3.65 6.1 3.05 7.8 6.95 10.75 10.85 7.8 10.3 6.1 9.8 4.5 8.7 4.5 7.75 4.6 7.0 5.8" fill="#e3e3e3" fill-rule="evenodd" stroke="none"/>
      <path d="M7.0 5.8 Q7.75 4.6 8.7 4.5 9.8 4.5 10.3 6.1 10.85 7.8 6.95 10.75 3.05 7.8 3.65 6.1 4.1 4.5 5.2 4.5 6.15 4.6 7.0 5.8" fill="#ff1e1e" fill-rule="evenodd" stroke="none"/>
      <path d="M12.5 7.0 Q12.5 9.25 10.9 10.85 9.3 12.45 7.0 12.45 4.75 12.45 3.1 10.85 1.5 9.25 1.5 7.0 1.5 4.75 3.1 3.1 4.75 1.55 7.0 1.55 9.3 1.55 10.9 3.1 12.5 4.75 12.5 7.0 Z" fill="none" stroke="#ff1e1e" stroke-linecap="round" stroke-linejoin="round" stroke-width="0.5"/>
    </g>
  </defs>
</svg>
