<?xml version="1.0" encoding="UTF-8" standalone="no"?>
<svg xmlns:xlink="http://www.w3.org/1999/xlink" height="14.0px" width="14.0px" xmlns="http://www.w3.org/2000/svg">
  <g transform="matrix(1.0, 0.0, 0.0, 1.0, 0.0, 0.0)">
    <use height="14.0" transform="matrix(1.0, 0.0, 0.0, 1.0, 0.0, 0.0)" width="14.0" xlink:href="#shape0"/>
  </g>
  <defs>
    <g id="shape0" transform="matrix(1.0, 0.0, 0.0, 1.0, 0.0, 0.0)">
      <path d="M14.0 0.0 L14.0 14.0 0.0 14.0 0.0 0.0 14.0 0.0" fill="#ffffff" fill-opacity="0.0" fill-rule="evenodd" stroke="none"/>
      <path d="M5.8 13.7 Q1.2 10.3 0.8 5.05 3.65 4.0 5.8 1.75 L5.8 13.7" fill="#7ea2d6" fill-rule="evenodd" stroke="none"/>
      <path d="M5.8 1.75 Q8.0 4.0 10.85 5.05 10.45 10.3 5.8 13.7 L5.8 1.75" fill="#cbdaef" fill-rule="evenodd" stroke="none"/>
      <path d="M5.8 4.4 Q7.1 5.75 8.85 6.4 8.6 9.55 5.8 11.6 L5.8 4.4" fill="#e6edf7" fill-rule="evenodd" stroke="none"/>
      <path d="M5.8 11.6 Q3.05 9.55 2.8 6.4 4.5 5.75 5.8 4.4 L5.8 11.6" fill="#c5d1ed" fill-rule="evenodd" stroke="none"/>
      <path d="M7.75 5.0 L9.6 3.95 8.85 5.95 10.3 6.4 Q9.15 7.25 8.05 7.25 L8.3 7.75 7.35 7.3 7.1 7.1 7.05 7.05 6.75 7.1 6.9 6.75 6.25 5.45 6.9 5.8 6.9 5.0 Q6.9 4.5 7.35 3.55 L7.75 5.0" fill="#c4f3ff" fill-rule="evenodd" stroke="none"/>
      <path d="M7.75 5.0 L7.35 3.55 Q6.9 4.5 6.9 5.0 L6.9 5.8 6.25 5.45 6.9 6.75 6.75 7.1 7.05 7.05 7.1 7.1 7.35 7.3 8.3 7.75 8.05 7.25 Q9.15 7.25 10.3 6.4 L8.85 5.95 9.6 3.95 7.75 5.0 M6.65 5.3 L6.65 4.2 Q6.65 3.4 7.45 2.0 L7.95 4.1 10.65 2.5 9.55 5.55 11.8 6.2 Q10.0 7.55 8.4 7.5 L8.8 8.25 7.45 7.6 7.1 7.3 7.0 7.25 6.5 7.3 6.65 6.8 5.75 4.85 6.65 5.3" fill="#7ad5eb" fill-rule="evenodd" stroke="none"/>
      <path d="M6.65 5.3 L5.75 4.85 6.65 6.8 6.5 7.3 7.0 7.25 7.1 7.3 7.45 7.6 8.8 8.25 8.4 7.5 Q10.0 7.55 11.8 6.2 L9.55 5.55 10.65 2.5 7.95 4.1 7.45 2.0 Q6.65 3.4 6.65 4.2 L6.65 5.3 M6.1 4.65 L6.1 4.45 Q6.3 2.45 7.5 0.25 L8.25 3.2 11.95 1.0 10.4 5.3 13.55 6.1 Q11.1 8.0 8.85 8.0 L9.5 8.95 7.5 8.05 6.95 7.65 6.85 7.55 6.15 7.7 6.45 6.85 5.15 4.2 6.1 4.65" fill="#21b1d6" fill-rule="evenodd" stroke="none"/>
    </g>
  </defs>
</svg>
