<?xml version="1.0" encoding="UTF-8" standalone="no"?>
<svg xmlns:xlink="http://www.w3.org/1999/xlink" height="14.0px" width="14.0px" xmlns="http://www.w3.org/2000/svg">
  <g transform="matrix(1.0, 0.0, 0.0, 1.0, 0.0, 0.0)">
    <use height="14.0" transform="matrix(1.0, 0.0, 0.0, 1.0, 0.0, 0.0)" width="14.0" xlink:href="#shape0"/>
  </g>
  <defs>
    <g id="shape0" transform="matrix(1.0, 0.0, 0.0, 1.0, 0.0, 0.0)">
      <path d="M14.0 0.0 L14.0 14.0 0.0 14.0 0.0 0.0 14.0 0.0" fill="#ffffff" fill-opacity="0.0" fill-rule="evenodd" stroke="none"/>
      <path d="M11.8 7.0 Q11.8 5.05 10.4 3.6 9.0 2.2 6.95 2.2 5.0 2.2 3.6 3.6 2.15 5.05 2.15 7.0 2.15 9.0 3.6 10.4 5.0 11.8 6.95 11.8 9.0 11.8 10.4 10.4 11.8 9.0 11.8 7.0 M12.55 7.0 Q12.55 9.25 10.95 10.9 9.3 12.5 7.0 12.5 4.7 12.5 3.1 10.9 1.45 9.25 1.45 7.0 1.45 4.7 3.1 3.1 4.7 1.5 7.0 1.5 9.3 1.5 10.95 3.1 12.55 4.7 12.55 7.0" fill="#210143" fill-rule="evenodd" stroke="none"/>
      <path d="M11.8 7.0 Q11.8 9.0 10.4 10.4 9.0 11.8 6.95 11.8 5.0 11.8 3.6 10.4 2.15 9.0 2.15 7.0 2.15 5.05 3.6 3.6 5.0 2.2 6.95 2.2 9.0 2.2 10.4 3.6 11.8 5.05 11.8 7.0 M6.4 3.8 L6.25 4.45 5.7 4.55 6.25 4.6 6.4 5.25 6.5 4.6 7.05 4.55 6.5 4.45 6.4 3.8 M5.1 5.95 L5.55 6.05 5.6 6.5 5.7 6.05 6.1 5.95 5.7 5.95 5.6 5.5 5.55 5.95 5.1 5.95 M8.2 3.9 L8.35 4.05 Q9.25 4.9 9.35 6.1 9.4 7.25 8.6 8.2 L8.45 8.4 7.7 8.9 6.55 9.2 6.4 9.2 Q5.25 9.2 4.4 8.5 L3.65 7.5 3.6 7.4 3.55 6.85 3.55 6.75 3.4 6.45 3.35 7.5 Q3.4 8.9 4.55 9.9 5.4 10.6 6.45 10.85 L7.3 10.9 8.6 10.6 9.85 9.6 Q10.9 8.5 10.85 7.0 10.75 5.45 9.6 4.4 L9.0 3.95 8.2 3.65 7.55 3.55 8.2 3.9 M6.9 6.85 L7.15 7.95 7.35 6.85 8.35 6.75 7.35 6.6 7.15 5.4 6.9 6.6 5.95 6.75 6.9 6.85" fill="#e3e3e3" fill-rule="evenodd" stroke="none"/>
      <path d="M5.1 5.95 L5.55 5.95 5.6 5.5 5.7 5.95 6.1 5.95 5.7 6.05 5.6 6.5 5.55 6.05 5.1 5.95 M6.4 3.8 L6.5 4.45 7.05 4.55 6.5 4.6 6.4 5.25 6.25 4.6 5.7 4.55 6.25 4.45 6.4 3.8 M8.2 3.9 L7.55 3.55 8.2 3.65 9.0 3.95 9.6 4.4 Q10.75 5.45 10.85 7.0 10.9 8.5 9.85 9.6 L8.6 10.6 7.3 10.9 6.45 10.85 Q5.4 10.6 4.55 9.9 3.4 8.9 3.35 7.5 L3.4 6.45 3.55 6.75 3.55 6.85 3.6 7.4 3.65 7.5 4.4 8.5 Q5.25 9.2 6.4 9.2 L6.55 9.2 7.7 8.9 8.45 8.4 8.6 8.2 Q9.4 7.25 9.35 6.1 9.25 4.9 8.35 4.05 L8.2 3.9 M6.9 6.85 L5.95 6.75 6.9 6.6 7.15 5.4 7.35 6.6 8.35 6.75 7.35 6.85 7.15 7.95 6.9 6.85" fill="#330066" fill-rule="evenodd" stroke="none"/>
      <path d="M12.55 7.0 Q12.55 9.25 10.95 10.9 9.3 12.5 7.0 12.5 4.7 12.5 3.1 10.9 1.45 9.25 1.45 7.0 1.45 4.7 3.1 3.1 4.7 1.5 7.0 1.5 9.3 1.5 10.95 3.1 12.55 4.7 12.55 7.0 Z" fill="none" stroke="#330066" stroke-linecap="round" stroke-linejoin="round" stroke-width="0.5"/>
    </g>
  </defs>
</svg>
