<?xml version="1.0" encoding="UTF-8" standalone="no"?>
<svg xmlns:xlink="http://www.w3.org/1999/xlink" height="14.0px" width="14.0px" xmlns="http://www.w3.org/2000/svg">
  <g transform="matrix(1.0, 0.0, 0.0, 1.0, 0.0, 0.0)">
    <use height="14.0" transform="matrix(1.0, 0.0, 0.0, 1.0, 0.0, 0.0)" width="14.0" xlink:href="#shape0"/>
  </g>
  <defs>
    <g id="shape0" transform="matrix(1.0, 0.0, 0.0, 1.0, 0.0, 0.0)">
      <path d="M14.0 0.0 L14.0 14.0 0.0 14.0 0.0 0.0 14.0 0.0" fill="#ffffff" fill-opacity="0.0" fill-rule="evenodd" stroke="none"/>
      <path d="M3.1 11.45 L3.95 9.9 5.1 8.6 Q5.65 8.15 5.9 8.35 L6.8 9.0 Q7.1 9.2 6.9 9.85 L6.1 11.35 4.9 12.7 Q4.35 13.15 4.05 12.95 L3.15 12.3 Q2.9 12.1 3.1 11.45" fill="#e69900" fill-rule="evenodd" stroke="none"/>
      <path d="M3.1 11.45 Q2.9 12.1 3.15 12.3 L4.05 12.95 Q4.35 13.15 4.9 12.7 L6.1 11.35 6.9 9.85 Q7.1 9.2 6.8 9.0 L5.9 8.35 Q5.65 8.15 5.1 8.6 L3.95 9.9 3.1 11.45 Z" fill="none" stroke="#000000" stroke-linecap="round" stroke-linejoin="round" stroke-opacity="0.3019608" stroke-width="0.2"/>
      <path d="M6.4 8.9 L4.75 7.75 8.55 2.3 12.05 0.85 6.4 8.9" fill="#ffffff" fill-rule="evenodd" stroke="none"/>
      <path d="M12.05 0.85 L12.05 0.8 11.85 4.6 8.05 10.05 6.4 8.9 12.05 0.85" fill="#e8e8e8" fill-rule="evenodd" stroke="none"/>
      <path d="M12.05 0.85 L12.05 0.8 11.85 4.6 8.05 10.05 6.4 8.9 4.75 7.75 8.55 2.3 12.05 0.85 Z" fill="none" stroke="#000000" stroke-linecap="round" stroke-linejoin="round" stroke-opacity="0.3019608" stroke-width="0.2"/>
      <path d="M10.5 11.1 L10.3 11.9 10.25 11.9 9.6 12.4 8.8 12.25 2.6 7.9 Q2.2 7.65 2.2 7.25 2.1 6.8 2.35 6.4 L2.4 6.4 Q2.65 6.0 3.1 5.95 3.45 5.85 3.85 6.1 L10.05 10.45 10.5 11.1" fill="#ffd500" fill-rule="evenodd" stroke="none"/>
      <path d="M10.5 11.1 L10.05 10.45 3.85 6.1 Q3.45 5.85 3.1 5.95 2.65 6.0 2.4 6.4 L2.35 6.4 Q2.1 6.8 2.2 7.25 2.2 7.65 2.6 7.9 L8.8 12.25 9.6 12.4 10.25 11.9 10.3 11.9 10.5 11.1 Z" fill="none" stroke="#000000" stroke-linecap="round" stroke-linejoin="round" stroke-opacity="0.3019608" stroke-width="0.2"/>
    </g>
  </defs>
</svg>
