<?xml version="1.0" encoding="UTF-8" standalone="no"?>
<svg xmlns:xlink="http://www.w3.org/1999/xlink" height="66.0px" width="66.0px" xmlns="http://www.w3.org/2000/svg">
  <g transform="matrix(1.5, 0.0, 0.0, 1.5, 0.0, 0.0)">
    <use height="44.0" transform="matrix(1.0, 0.0, 0.0, 1.0, 0.0, 0.0)" width="44.0" xlink:href="#shape0"/>
    <use height="8.6" transform="matrix(1.2077, 0.0, 0.0, 1.2077, 0.8085, 0.9)" width="35.05" xlink:href="#sprite0"/>
    <use height="27.1" transform="matrix(1.0, 0.0, 0.0, 1.0, 8.0, 10.25)" width="28.1" xlink:href="#shape2"/>
  </g>
  <defs>
    <g id="shape0" transform="matrix(1.0, 0.0, 0.0, 1.0, 0.0, 0.0)">
      <path d="M41.8 41.7 Q39.55 44.0 36.45 44.0 L7.6 44.0 Q4.5 44.0 2.25 41.7 0.0 39.5 0.0 36.4 L0.0 7.5 Q0.0 4.45 2.25 2.2 4.5 0.0 7.6 0.0 L36.45 0.0 Q39.6 0.0 41.8 2.2 44.0 4.45 44.0 7.5 L44.0 36.4 Q44.0 39.5 41.8 41.7" fill="url(#gradient0)" fill-rule="evenodd" stroke="none"/>
    </g>
    <linearGradient gradientTransform="matrix(0.0, 0.0199, -0.0269, 0.0, 22.0, 25.55)" gradientUnits="userSpaceOnUse" id="gradient0" spreadMethod="pad" x1="-819.2" x2="819.2">
      <stop offset="0.011764705882352941" stop-color="#fc8222"/>
      <stop offset="1.0" stop-color="#fb6604"/>
    </linearGradient>
    <g id="sprite0" transform="matrix(1.0, 0.0, 0.0, 1.0, 0.2, 0.0)">
      <use height="8.6" transform="matrix(1.0, 0.0, 0.0, 1.0, -0.2, 0.0)" width="35.05" xlink:href="#shape1"/>
    </g>
    <g id="shape1" transform="matrix(1.0, 0.0, 0.0, 1.0, 0.2, 0.0)">
      <path d="M34.4 4.4 Q34.85 5.8 34.85 7.65 L34.85 8.6 Q34.8 6.95 34.4 5.7 33.0 1.3 27.2 1.3 L7.45 1.3 Q0.05 1.3 -0.2 8.5 L-0.2 7.65 Q-0.2 0.0 7.45 0.0 L27.2 0.0 Q33.0 0.0 34.4 4.4" fill="#e7deda" fill-rule="evenodd" stroke="none"/>
    </g>
    <g id="shape2" transform="matrix(1.0, 0.0, 0.0, 1.0, -8.0, -10.25)">
      <path d="M30.3 13.55 L30.45 14.7 30.25 14.8 27.3 18.65 26.3 16.9 Q25.4 15.15 25.05 13.55 L26.55 11.25 30.2 13.15 30.3 13.55 M35.1 24.0 L34.45 24.75 33.45 25.9 33.4 25.85 33.25 25.85 28.35 27.5 Q28.2 27.5 28.2 27.6 L28.15 27.75 27.85 27.75 27.3 26.65 27.5 25.75 27.55 25.75 27.6 25.75 27.6 25.7 33.6 20.75 33.65 20.7 34.6 21.35 35.1 24.0 M33.5 16.1 L30.8 15.1 30.75 15.15 27.7 19.1 27.65 19.15 28.5 20.3 28.65 20.8 Q28.85 21.75 28.25 22.45 27.25 23.45 25.45 23.3 L25.45 24.25 26.25 25.35 27.2 25.35 27.25 25.25 33.25 20.25 33.45 20.2 33.5 20.25 34.15 18.8 33.5 16.1 M24.9 24.3 L24.9 23.25 Q23.75 23.05 22.35 22.45 22.25 24.3 21.5 25.7 L21.4 25.9 Q20.6 27.2 19.15 28.1 L19.3 27.95 Q20.85 25.9 21.15 23.9 21.55 21.2 19.6 18.8 L20.1 17.35 Q19.95 18.45 21.15 19.85 23.85 22.7 27.15 21.8 27.9 21.15 26.9 20.15 24.3 16.95 23.85 12.5 L22.45 11.8 Q18.4 13.8 15.05 13.85 14.05 15.1 14.05 16.75 L14.0 16.95 Q15.1 22.8 12.9 27.75 L9.0 31.65 13.65 36.35 14.65 35.35 Q17.25 32.65 21.6 31.95 L24.8 31.8 25.05 31.7 Q26.3 31.2 27.55 29.6 L27.9 28.3 27.65 28.25 27.55 28.25 27.4 28.15 26.7 26.9 26.65 26.65 26.85 25.95 26.05 25.95 25.95 25.95 25.8 25.85 24.95 24.45 24.9 24.3 M33.5 26.25 L34.75 27.3 34.0 29.15 29.25 30.1 28.35 29.15 28.65 28.2 28.75 28.0 28.75 27.95 33.4 26.35 33.5 26.25" fill="none" stroke="#302725" stroke-linecap="round" stroke-linejoin="round" stroke-width="2.0"/>
      <path d="M26.3 16.9 Q25.4 15.15 25.05 13.55 L26.55 11.25 30.2 13.15 30.3 13.55 Q28.2 13.8 26.3 16.9 M27.6 25.75 L27.6 25.7 33.6 20.75 33.65 20.7 34.6 21.35 35.1 24.0 34.45 24.75 Q33.8 22.15 27.6 25.75 M34.15 18.7 Q32.35 16.8 28.65 20.8 L28.5 20.3 27.65 19.15 27.7 19.1 30.75 15.15 30.8 15.1 33.5 16.1 34.15 18.7 M21.4 25.9 L22.85 28.45 Q19.5 30.3 15.65 28.2 L17.2 29.65 Q14.05 31.5 11.6 34.3 L9.0 31.65 12.9 27.75 Q15.1 22.8 14.0 16.95 L14.05 16.75 Q14.05 15.1 15.05 13.85 18.4 13.8 22.45 11.8 L23.85 12.5 Q24.3 16.95 26.9 20.15 27.9 21.15 27.15 21.8 22.8 21.3 20.65 15.05 L20.15 16.0 20.0 16.15 19.2 15.55 19.5 16.5 Q18.4 17.35 18.15 18.45 L17.1 18.5 Q21.05 23.05 18.6 28.45 L19.3 27.95 19.15 28.1 Q20.6 27.2 21.4 25.9 M31.6 27.0 L33.4 26.35 33.5 26.25 34.75 27.3 34.4 28.2 Q34.3 26.65 31.6 27.0" fill="#e9ba9e" fill-rule="evenodd" stroke="none"/>
      <path d="M30.3 13.55 L30.45 14.7 30.25 14.8 27.3 18.65 26.3 16.9 Q28.2 13.8 30.3 13.55 M34.45 24.75 L33.45 25.9 33.4 25.85 33.25 25.85 28.35 27.5 Q28.2 27.5 28.2 27.6 L28.15 27.75 27.85 27.75 27.3 26.65 27.5 25.75 27.55 25.75 27.6 25.75 Q33.8 22.15 34.45 24.75 M34.15 18.7 L34.15 18.8 33.5 20.25 33.45 20.2 33.25 20.25 27.25 25.25 27.2 25.35 26.25 25.35 25.45 24.25 25.45 23.3 Q27.25 23.45 28.25 22.45 28.85 21.75 28.65 20.8 32.35 16.8 34.15 18.7 M21.4 25.9 L21.5 25.7 Q22.25 24.3 22.35 22.45 23.75 23.05 24.9 23.25 L24.9 24.3 24.95 24.45 25.8 25.85 25.95 25.95 26.05 25.95 26.85 25.95 26.65 26.65 26.7 26.9 27.4 28.15 27.55 28.25 27.65 28.25 27.9 28.3 27.55 29.6 Q26.3 31.2 25.05 31.7 L24.8 31.8 21.6 31.95 Q17.25 32.65 14.65 35.35 L13.65 36.35 11.6 34.3 Q14.05 31.5 17.2 29.65 L15.65 28.2 Q19.5 30.3 22.85 28.45 L21.4 25.9 M27.15 21.8 Q23.85 22.7 21.15 19.85 19.95 18.45 20.1 17.35 L19.6 18.8 Q21.55 21.2 21.15 23.9 20.85 25.9 19.3 27.95 L18.6 28.45 Q21.05 23.05 17.1 18.5 L18.15 18.45 Q18.4 17.35 19.5 16.5 L19.2 15.55 20.0 16.15 20.15 16.0 20.65 15.05 Q22.8 21.3 27.15 21.8 M34.4 28.2 L34.0 29.15 29.25 30.1 28.35 29.15 28.65 28.2 28.75 28.0 28.75 27.95 31.6 27.0 Q34.3 26.65 34.4 28.2" fill="#e0a785" fill-rule="evenodd" stroke="none"/>
    </g>
  </defs>
</svg>
