<?xml version="1.0" encoding="UTF-8" standalone="no"?>
<svg xmlns:xlink="http://www.w3.org/1999/xlink" height="44.05px" width="44.3px" xmlns="http://www.w3.org/2000/svg">
  <g transform="matrix(1.0, 0.0, 0.0, 1.0, 0.0, 0.0)">
    <use height="44.05" transform="matrix(1.0, 0.0, 0.0, 1.0, 0.3, 0.0)" width="44.0" xlink:href="#sprite0"/>
    <use height="38.1" transform="matrix(1.0, 0.0, 0.0, 1.0, 2.35, 3.05)" width="38.0" xlink:href="#shape1"/>
    <use height="0.0" transform="matrix(1.2125, 0.0, 0.0, 1.2137, 0.5, 1.0)" width="0.0" xlink:href="#sprite1"/>
    <use height="20.15" transform="matrix(1.1594, 0.0, 0.0, 1.1605, 5.1, 5.55)" width="28.2" xlink:href="#sprite2"/>
    <use height="13.9" transform="matrix(1.0, 0.0, 0.0, 1.0, 0.0, 29.95)" width="12.15" xlink:href="#sprite3"/>
    <use height="13.9" transform="matrix(-1.0, 0.0, 0.0, 1.0, 44.3, 30.0)" width="12.15" xlink:href="#sprite3"/>
  </g>
  <defs>
    <g id="sprite0" transform="matrix(1.0, 0.0, 0.0, 1.0, 22.0, 22.0)">
      <use height="44.05" transform="matrix(1.0, 0.0, 0.0, 1.0, -22.0, -22.0)" width="44.0" xlink:href="#shape0"/>
      <use height="0.0" transform="matrix(1.2077, 0.0, 0.0, 1.2065, -20.8, -21.2)" width="0.0" xlink:href="#sprite1"/>
    </g>
    <g id="shape0" transform="matrix(1.0, 0.0, 0.0, 1.0, 22.0, 22.0)">
      <path d="M19.8 -19.7 Q22.0 -17.5 22.0 -14.4 L22.0 14.45 Q22.0 17.65 19.8 19.85 17.6 22.05 14.4 22.05 L-14.4 22.05 Q-17.55 22.05 -19.75 19.85 -22.0 17.65 -22.0 14.45 L-22.0 -14.4 Q-22.0 -17.5 -19.75 -19.7 -17.55 -22.0 -14.4 -22.0 L14.4 -22.0 Q17.55 -22.0 19.8 -19.7" fill="url(#gradient0)" fill-rule="evenodd" stroke="none"/>
    </g>
    <linearGradient gradientTransform="matrix(0.0, -0.0259, 0.0269, 0.0, -0.05, 0.05)" gradientUnits="userSpaceOnUse" id="gradient0" spreadMethod="pad" x1="-819.2" x2="819.2">
      <stop offset="0.011764705882352941" stop-color="#718b30"/>
      <stop offset="1.0" stop-color="#4e5e09"/>
    </linearGradient>
    <g id="shape1" transform="matrix(1.0, 0.0, 0.0, 1.0, -2.35, -3.05)">
      <path d="M33.8 34.75 Q28.6 39.95 21.3 39.95 13.9 39.95 8.8 34.75 3.6 29.55 3.6 22.25 3.6 14.95 8.8 9.75 13.9 4.55 21.3 4.55 28.6 4.55 33.8 9.75 38.9 14.95 38.9 22.25 38.9 29.55 33.8 34.75" fill="url(#gradient1)" fill-rule="evenodd" stroke="none"/>
      <path d="M39.9 24.25 L40.1 24.25 Q39.3 30.35 34.6 34.65 29.1 40.4 21.2 40.4 16.1 40.4 12.15 38.0 L10.55 36.85 9.2 35.85 7.8 34.65 Q5.05 31.9 3.7 28.55 2.7 26.4 2.5 24.25 L7.8 24.85 10.4 24.65 10.95 22.45 13.15 22.25 14.1 22.85 30.05 30.35 23.55 25.6 28.9 24.65 32.8 22.65 39.9 24.25" fill="#5f3921" fill-rule="evenodd" stroke="none"/>
      <path d="M40.35 22.05 Q40.35 29.95 34.75 35.5 29.25 41.15 21.35 41.15 13.4 41.15 7.9 35.5 2.35 29.95 2.35 22.05 2.35 14.1 7.9 8.6 13.4 3.05 21.35 3.05 29.25 3.05 34.75 8.6 40.35 14.1 40.35 22.05 M33.2 10.35 Q28.25 5.5 21.35 5.4 14.45 5.5 9.6 10.35 4.7 15.15 4.65 22.05 4.7 29.05 9.6 33.9 14.45 38.8 21.35 38.8 28.25 38.8 33.2 33.9 38.0 29.05 38.0 22.05 38.0 15.15 33.2 10.35" fill="url(#gradient2)" fill-rule="evenodd" stroke="none"/>
    </g>
    <linearGradient gradientTransform="matrix(0.0, -0.0136, -0.0165, 0.0, 21.35, 24.9)" gradientUnits="userSpaceOnUse" id="gradient1" spreadMethod="pad" x1="-819.2" x2="819.2">
      <stop offset="0.011764705882352941" stop-color="#bb9a76"/>
      <stop offset="1.0" stop-color="#a87f53"/>
    </linearGradient>
    <linearGradient gradientTransform="matrix(1.0E-4, 0.0224, -0.0232, 1.0E-4, 21.4, 22.35)" gradientUnits="userSpaceOnUse" id="gradient2" spreadMethod="pad" x1="-819.2" x2="819.2">
      <stop offset="0.011764705882352941" stop-color="#516537"/>
      <stop offset="1.0" stop-color="#a8ce99"/>
    </linearGradient>
    <g id="sprite2" transform="matrix(1.0, 0.0, 0.0, 1.0, 0.0, 0.0)">
      <use height="20.15" transform="matrix(1.0, 0.0, 0.0, 1.0, 0.0, 0.0)" width="28.2" xlink:href="#shape2"/>
    </g>
    <g id="shape2" transform="matrix(1.0, 0.0, 0.0, 1.0, 0.0, 0.0)">
      <path d="M27.65 18.45 L27.4 18.95 Q26.2 20.8 23.4 19.8 19.6 18.5 17.35 14.05 14.8 9.1 9.75 7.4 4.1 5.65 0.0 10.3 1.0 6.85 3.7 4.15 7.2 0.65 11.9 0.05 L14.8 0.05 18.4 0.65 Q21.55 1.65 24.05 4.15 28.2 8.3 28.2 14.25 28.2 16.45 27.65 18.45" fill="#ffffff" fill-opacity="0.19607843" fill-rule="evenodd" stroke="none"/>
    </g>
    <g id="sprite3" transform="matrix(1.0, 0.0, 0.0, 1.0, 6.1, 6.95)">
      <use height="13.9" transform="matrix(1.0, 0.0, 0.0, 1.0, -6.1, -6.95)" width="12.15" xlink:href="#shape3"/>
    </g>
    <g id="shape3" transform="matrix(1.0, 0.0, 0.0, 1.0, 6.1, 6.95)">
      <path d="M6.0 -6.55 L0.6 -2.25 -6.1 -1.6 -5.5 -2.4 0.3 -3.1 5.25 -6.95 6.0 -6.55" fill="#c4cca2" fill-rule="evenodd" stroke="none"/>
      <path d="M6.05 -6.5 L6.0 -6.55 6.05 -6.55 6.05 -6.5" fill="#8c8175" fill-rule="evenodd" stroke="none"/>
      <path d="M6.0 -6.55 L6.05 -6.5 3.2 -0.25 4.2 6.65 4.2 6.7 0.1 1.05 -6.1 -1.6 0.6 -2.25 6.0 -6.55" fill="#769418" fill-rule="evenodd" stroke="none"/>
      <path d="M-6.1 -1.6 L0.1 1.05 4.2 6.7 3.6 6.95 -0.6 1.45 -5.95 -0.75 -6.1 -1.6" fill="#49570f" fill-rule="evenodd" stroke="none"/>
    </g>
  </defs>
</svg>
