<?xml version="1.0" encoding="UTF-8" standalone="no"?>
<svg xmlns:xlink="http://www.w3.org/1999/xlink" height="44.05px" width="44.3px" xmlns="http://www.w3.org/2000/svg">
  <g transform="matrix(1.0, 0.0, 0.0, 1.0, 0.0, 0.0)">
    <use height="44.05" transform="matrix(1.0, 0.0, 0.0, 1.0, 0.3, 0.0)" width="44.0" xlink:href="#sprite0"/>
    <use height="37.1" transform="matrix(1.0, 0.0, 0.0, 1.0, 2.35, 2.8)" width="37.2" xlink:href="#sprite2"/>
    <use height="38.1" transform="matrix(1.0, 0.0, 0.0, 1.0, 2.35, 3.05)" width="38.0" xlink:href="#shape2"/>
    <use height="0.0" transform="matrix(1.2125, 0.0, 0.0, 1.2137, 0.5, 1.0)" width="0.0" xlink:href="#sprite1"/>
    <use height="16.8" transform="matrix(1.0, 0.0, 0.0, 1.0, 6.85, 11.75)" width="28.95" xlink:href="#shape3"/>
    <use height="20.15" transform="matrix(1.1594, 0.0, 0.0, 1.1605, 5.1, 5.55)" width="28.2" xlink:href="#sprite3"/>
    <use height="13.9" transform="matrix(1.0, 0.0, 0.0, 1.0, 0.0, 29.95)" width="12.15" xlink:href="#sprite4"/>
    <use height="13.9" transform="matrix(-1.0, 0.0, 0.0, 1.0, 44.3, 30.0)" width="12.15" xlink:href="#sprite4"/>
  </g>
  <defs>
    <g id="sprite0" transform="matrix(1.0, 0.0, 0.0, 1.0, 22.0, 22.0)">
      <use height="44.05" transform="matrix(1.0, 0.0, 0.0, 1.0, -22.0, -22.0)" width="44.0" xlink:href="#shape0"/>
      <use height="0.0" transform="matrix(1.2077, 0.0, 0.0, 1.2065, -20.8, -21.2)" width="0.0" xlink:href="#sprite1"/>
    </g>
    <g id="shape0" transform="matrix(1.0, 0.0, 0.0, 1.0, 22.0, 22.0)">
      <path d="M19.8 -19.7 Q22.0 -17.5 22.0 -14.4 L22.0 14.45 Q22.0 17.65 19.8 19.85 17.6 22.05 14.4 22.05 L-14.4 22.05 Q-17.55 22.05 -19.75 19.85 -22.0 17.65 -22.0 14.45 L-22.0 -14.4 Q-22.0 -17.5 -19.75 -19.7 -17.55 -22.0 -14.4 -22.0 L14.4 -22.0 Q17.55 -22.0 19.8 -19.7" fill="url(#gradient0)" fill-rule="evenodd" stroke="none"/>
    </g>
    <linearGradient gradientTransform="matrix(0.0, -0.0259, 0.0269, 0.0, -0.05, 0.05)" gradientUnits="userSpaceOnUse" id="gradient0" spreadMethod="pad" x1="-819.2" x2="819.2">
      <stop offset="0.011764705882352941" stop-color="#718b30"/>
      <stop offset="1.0" stop-color="#4e5e09"/>
    </linearGradient>
    <g id="sprite2" transform="matrix(1.0, 0.0, 0.0, 1.0, 18.6, 18.55)">
      <use height="37.1" transform="matrix(1.0, 0.0, 0.0, 1.0, -18.6, -18.55)" width="37.2" xlink:href="#shape1"/>
    </g>
    <g id="shape1" transform="matrix(1.0, 0.0, 0.0, 1.0, 18.6, 18.55)">
      <path d="M13.2 -13.1 Q18.6 -7.65 18.6 0.0 18.6 7.7 13.2 13.15 7.75 18.55 0.05 18.55 -7.7 18.55 -13.15 13.15 -18.6 7.7 -18.6 0.0 -18.6 -7.7 -13.15 -13.1 -7.7 -18.55 0.05 -18.55 7.75 -18.55 13.2 -13.1" fill="url(#gradient1)" fill-rule="evenodd" stroke="none"/>
    </g>
    <linearGradient gradientTransform="matrix(0.0, -0.0173, -0.0173, 0.0, 0.05, -3.55)" gradientUnits="userSpaceOnUse" id="gradient1" spreadMethod="pad" x1="-819.2" x2="819.2">
      <stop offset="0.011764705882352941" stop-color="#c4bebb"/>
      <stop offset="1.0" stop-color="#9f8a82"/>
    </linearGradient>
    <g id="shape2" transform="matrix(1.0, 0.0, 0.0, 1.0, -2.35, -3.05)">
      <path d="M39.85 22.1 Q39.85 29.8 34.45 35.25 29.0 40.65 21.3 40.65 13.55 40.65 8.1 35.25 2.65 29.8 2.65 22.1 2.65 14.35 8.1 9.0 13.55 3.55 21.3 3.55 29.0 3.55 34.45 9.0 39.85 14.45 39.85 22.1" fill="url(#gradient2)" fill-rule="evenodd" stroke="none"/>
      <path d="M33.2 10.35 Q28.25 5.5 21.35 5.4 14.45 5.5 9.6 10.35 4.7 15.15 4.65 22.05 4.7 29.05 9.6 33.9 14.45 38.8 21.35 38.8 28.25 38.8 33.2 33.9 38.0 29.05 38.0 22.05 38.0 15.15 33.2 10.35 M40.35 22.05 Q40.35 29.95 34.75 35.5 29.25 41.15 21.35 41.15 13.4 41.15 7.9 35.5 2.35 29.95 2.35 22.05 2.35 14.1 7.9 8.6 13.4 3.05 21.35 3.05 29.25 3.05 34.75 8.6 40.35 14.1 40.35 22.05" fill="url(#gradient3)" fill-rule="evenodd" stroke="none"/>
    </g>
    <linearGradient gradientTransform="matrix(0.0, -0.0173, -0.0173, 0.0, 21.25, 18.5)" gradientUnits="userSpaceOnUse" id="gradient2" spreadMethod="pad" x1="-819.2" x2="819.2">
      <stop offset="0.011764705882352941" stop-color="#d3d4b5"/>
      <stop offset="1.0" stop-color="#71a26f"/>
    </linearGradient>
    <linearGradient gradientTransform="matrix(1.0E-4, 0.0224, -0.0232, 1.0E-4, 21.4, 22.35)" gradientUnits="userSpaceOnUse" id="gradient3" spreadMethod="pad" x1="-819.2" x2="819.2">
      <stop offset="0.011764705882352941" stop-color="#516537"/>
      <stop offset="1.0" stop-color="#a8ce99"/>
    </linearGradient>
    <g id="shape3" transform="matrix(1.0, 0.0, 0.0, 1.0, -6.85, -11.75)">
      <path d="M22.55 18.4 Q23.95 18.4 25.05 19.5 L25.9 20.95 26.6 20.8 26.6 20.4 Q26.6 19.3 27.15 18.6 28.05 17.85 28.9 17.85 L30.7 18.6 31.4 20.4 31.05 21.9 Q32.45 23.2 32.45 25.2 L32.45 26.15 33.15 25.95 34.9 26.7 35.8 28.15 10.9 28.55 Q11.95 27.6 11.45 26.5 10.9 25.4 9.85 25.6 10.9 25.75 11.1 26.3 11.6 28.15 9.3 28.55 L7.9 28.35 6.85 26.7 7.05 25.6 7.9 24.1 Q8.95 23.2 10.4 23.2 11.95 23.2 13.05 24.1 L13.2 24.3 13.55 23.55 13.9 23.55 17.1 22.65 13.9 22.65 11.95 21.15 Q10.4 19.5 10.4 17.3 10.4 14.9 11.95 13.25 L13.9 11.95 15.85 11.75 Q17.95 11.75 19.55 13.25 21.3 14.9 21.3 17.3 L21.15 18.75 22.55 18.4" fill="#496125" fill-rule="evenodd" stroke="none"/>
    </g>
    <g id="sprite3" transform="matrix(1.0, 0.0, 0.0, 1.0, 0.0, 0.0)">
      <use height="20.15" transform="matrix(1.0, 0.0, 0.0, 1.0, 0.0, 0.0)" width="28.2" xlink:href="#shape4"/>
    </g>
    <g id="shape4" transform="matrix(1.0, 0.0, 0.0, 1.0, 0.0, 0.0)">
      <path d="M27.65 18.45 L27.4 18.95 Q26.2 20.8 23.4 19.8 19.6 18.5 17.35 14.05 14.8 9.1 9.75 7.4 4.1 5.65 0.0 10.3 1.0 6.85 3.7 4.15 7.2 0.65 11.9 0.05 L14.8 0.05 18.4 0.65 Q21.55 1.65 24.05 4.15 28.2 8.3 28.2 14.25 28.2 16.45 27.65 18.45" fill="#ffffff" fill-opacity="0.19607843" fill-rule="evenodd" stroke="none"/>
    </g>
    <g id="sprite4" transform="matrix(1.0, 0.0, 0.0, 1.0, 6.1, 6.95)">
      <use height="13.9" transform="matrix(1.0, 0.0, 0.0, 1.0, -6.1, -6.95)" width="12.15" xlink:href="#shape5"/>
    </g>
    <g id="shape5" transform="matrix(1.0, 0.0, 0.0, 1.0, 6.1, 6.95)">
      <path d="M6.0 -6.55 L0.6 -2.25 -6.1 -1.6 -5.5 -2.4 0.3 -3.1 5.25 -6.95 6.0 -6.55" fill="#c4cca2" fill-rule="evenodd" stroke="none"/>
      <path d="M6.05 -6.5 L6.0 -6.55 6.05 -6.55 6.05 -6.5" fill="#8c8175" fill-rule="evenodd" stroke="none"/>
      <path d="M6.0 -6.55 L6.05 -6.5 3.2 -0.25 4.2 6.65 4.2 6.7 0.1 1.05 -6.1 -1.6 0.6 -2.25 6.0 -6.55" fill="#769418" fill-rule="evenodd" stroke="none"/>
      <path d="M-6.1 -1.6 L0.1 1.05 4.2 6.7 3.6 6.95 -0.6 1.45 -5.95 -0.75 -6.1 -1.6" fill="#49570f" fill-rule="evenodd" stroke="none"/>
    </g>
  </defs>
</svg>
