<?xml version="1.0" encoding="UTF-8" standalone="no"?>
<svg xmlns:xlink="http://www.w3.org/1999/xlink" height="66.825px" width="66.0px" xmlns="http://www.w3.org/2000/svg">
  <g transform="matrix(1.5, 0.0, 0.0, 1.5, -0.075, 0.0)">
    <use height="44.55" transform="matrix(1.0, 0.0, 0.0, 1.0, 0.05, 0.0)" width="44.0" xlink:href="#shape0"/>
    <use height="8.6" transform="matrix(1.2077, 0.0, 0.0, 1.2065, 0.8585, 1.1)" width="35.05" xlink:href="#sprite0"/>
    <use height="28.45" transform="matrix(1.0, 0.0, 0.0, 1.0, 7.75, 8.05)" width="28.5" xlink:href="#shape2"/>
    <use height="20.15" transform="matrix(1.1594, 0.0, 0.0, 1.1605, 6.3, 5.9)" width="28.2" xlink:href="#sprite1"/>
  </g>
  <defs>
    <g id="shape0" transform="matrix(1.0, 0.0, 0.0, 1.0, -0.05, 0.0)">
      <path d="M36.3 0.0 Q39.45 0.0 41.65 2.2 43.85 4.4 43.85 7.5 L43.85 36.1 Q43.85 39.2 41.65 41.4 39.45 43.6 36.3 43.6 L7.75 43.6 Q4.6 43.6 2.4 41.4 0.2 39.2 0.2 36.1 L0.2 7.5 Q0.2 4.4 2.4 2.2 4.6 0.0 7.75 0.0 L36.3 0.0" fill="url(#gradient0)" fill-rule="evenodd" stroke="none"/>
      <path d="M10.1 9.05 Q15.4 3.8 22.75 3.8 30.15 3.8 35.35 9.05 40.55 14.3 40.55 21.65 40.55 29.05 35.35 34.35 30.15 39.55 22.75 39.55 15.3 39.55 10.1 34.35 4.9 29.05 4.9 21.65 4.9 14.3 10.1 9.05" fill="url(#gradient1)" fill-rule="evenodd" stroke="none"/>
      <path d="M40.75 35.55 L41.25 36.1 42.05 32.6 42.05 32.5 42.2 32.35 41.5 36.2 41.4 36.25 40.8 36.2 40.75 35.75 40.75 35.55 M38.2 34.15 L39.0 34.05 Q41.0 31.95 42.75 25.85 L43.85 20.9 43.85 20.95 43.75 22.8 42.6 27.2 Q42.2 29.15 41.0 31.5 L39.85 33.55 Q39.3 34.4 38.05 34.45 L37.65 34.55 37.6 34.55 37.35 34.35 38.2 34.15 M37.2 35.8 L37.25 35.85 36.6 36.75 34.7 39.2 Q31.95 42.9 29.25 42.9 L28.45 42.85 28.65 42.8 28.9 42.7 29.9 42.35 30.95 42.0 Q32.6 41.45 35.05 38.55 L37.2 35.8 M37.7 38.4 L37.9 38.35 Q39.05 38.35 39.55 40.0 L39.9 41.85 39.8 43.3 39.8 43.45 39.4 43.65 38.95 43.85 39.0 43.7 39.45 42.8 39.55 42.5 39.65 42.15 39.65 42.1 39.65 42.05 39.7 41.85 39.7 41.0 39.5 40.5 39.2 39.9 38.95 39.45 38.05 38.65 37.7 38.4 M0.2 20.95 L0.2 20.9 1.3 25.85 Q3.05 31.95 5.05 34.05 L5.9 34.15 6.7 34.35 6.45 34.55 6.4 34.55 6.0 34.45 Q4.8 34.4 4.2 33.55 L3.05 31.5 Q1.9 29.15 1.5 27.2 L0.3 22.8 0.2 20.95 M2.0 32.5 L2.0 32.6 2.8 36.1 3.35 35.55 3.35 35.75 3.25 36.2 2.65 36.25 2.6 36.2 1.9 32.35 2.0 32.5 M15.6 42.85 L14.8 42.9 Q12.15 42.9 9.35 39.2 L7.45 36.75 6.8 35.85 6.85 35.8 9.0 38.55 Q11.45 41.45 13.1 42.0 L14.15 42.35 15.15 42.7 15.45 42.8 15.6 42.85 M4.25 43.3 L4.15 41.85 Q4.15 40.95 4.5 40.0 5.0 38.35 6.15 38.35 L6.35 38.4 Q6.15 38.45 6.0 38.65 L5.1 39.45 4.85 39.9 4.55 40.5 4.35 41.0 4.35 41.85 4.45 42.05 4.45 42.1 4.45 42.15 4.5 42.5 4.6 42.8 5.05 43.7 5.1 43.85 Q4.9 43.7 4.65 43.65 L4.25 43.45 4.25 43.3" fill="#c8a6c1" fill-rule="evenodd" stroke="none"/>
      <path d="M40.25 35.1 L40.75 35.55 40.75 35.75 40.8 36.2 41.4 36.25 41.5 36.2 42.2 32.35 42.05 32.5 42.6 30.5 42.75 38.95 38.0 34.85 37.65 34.55 38.05 34.45 Q39.3 34.4 39.85 33.55 L41.0 31.5 Q42.2 29.15 42.6 27.2 L43.75 22.8 43.85 20.95 44.05 20.15 43.95 20.9 43.85 24.35 Q43.85 25.75 42.05 30.25 L40.1 34.9 40.25 35.1 M37.7 34.25 L38.2 34.15 37.35 34.35 37.7 34.25 M28.45 42.85 L29.25 42.9 Q31.95 42.9 34.7 39.2 L36.6 36.75 37.25 35.85 37.2 35.8 42.5 40.2 42.6 40.2 42.25 40.95 Q41.55 42.25 39.8 43.3 L39.9 41.85 39.55 40.0 Q39.05 38.35 37.9 38.35 L37.7 38.4 36.95 37.95 34.0 42.25 34.4 42.25 35.05 42.25 38.3 41.6 38.1 41.8 37.5 42.45 36.75 43.2 28.8 43.6 27.25 43.45 26.95 43.35 26.9 43.35 27.2 43.25 27.3 43.25 28.45 42.85 M0.1 20.9 L0.05 20.15 0.2 20.95 0.3 22.8 1.5 27.2 Q1.9 29.15 3.05 31.5 L4.2 33.55 Q4.8 34.4 6.0 34.45 L6.4 34.55 6.05 34.85 1.3 38.95 1.5 30.5 2.0 32.5 1.9 32.35 2.6 36.2 2.65 36.25 3.25 36.2 3.35 35.75 3.35 35.55 3.8 35.1 3.95 34.9 2.0 30.25 Q0.2 25.75 0.2 24.35 L0.1 20.9 M5.9 34.15 L6.35 34.25 6.7 34.35 5.9 34.15 M6.85 35.8 L6.8 35.85 7.45 36.75 9.35 39.2 Q12.15 42.9 14.8 42.9 L15.6 42.85 16.75 43.25 16.9 43.25 17.15 43.35 17.1 43.35 16.8 43.45 15.25 43.6 7.3 43.2 6.55 42.45 5.95 41.8 5.75 41.6 9.0 42.25 9.65 42.25 10.05 42.25 7.1 37.95 Q6.7 38.1 6.35 38.4 L6.15 38.35 Q5.0 38.35 4.5 40.0 4.15 40.95 4.15 41.85 L4.25 43.3 Q2.5 42.25 1.8 40.95 L1.5 40.2 1.55 40.2 6.85 35.8" fill="#4a3355" fill-rule="evenodd" stroke="none"/>
      <path d="M43.95 20.9 L44.05 20.8 43.85 24.9 Q43.85 26.95 40.25 35.1 L40.1 34.9 42.05 30.25 Q43.85 25.75 43.85 24.35 L43.95 20.9 M42.75 38.95 L42.75 39.6 37.5 35.1 37.8 35.1 38.0 34.85 42.75 38.95 M28.8 43.6 L36.75 43.2 37.5 42.45 38.05 42.45 36.75 43.8 Q35.0 44.7 26.95 44.0 L27.1 43.85 27.9 43.6 28.1 43.7 28.8 43.6 M34.4 42.25 L34.0 42.25 36.95 37.95 37.7 38.4 38.05 38.65 38.95 39.45 39.2 39.9 39.5 40.5 39.7 41.0 39.7 41.85 Q39.65 40.95 38.95 40.05 38.05 39.05 36.95 38.5 L34.4 42.25 M39.8 43.3 Q41.55 42.25 42.25 40.95 L42.5 40.95 Q41.85 42.9 38.95 44.55 L39.4 43.65 39.8 43.45 39.8 43.3 M6.55 35.1 L1.3 39.6 1.3 38.95 6.05 34.85 6.3 35.1 6.55 35.1 M3.8 35.1 Q0.2 26.95 0.2 24.9 L0.05 20.8 0.1 20.9 0.2 24.35 Q0.2 25.75 2.0 30.25 L3.95 34.9 3.8 35.1 M1.8 40.95 Q2.5 42.25 4.25 43.3 L4.25 43.45 4.65 43.65 5.1 44.55 Q2.25 42.9 1.55 40.95 L1.8 40.95 M6.35 38.4 Q6.7 38.1 7.1 37.95 L10.05 42.25 9.65 42.25 7.1 38.5 5.1 40.05 Q4.45 40.95 4.35 41.85 L4.35 41.0 4.55 40.5 4.85 39.9 5.1 39.45 6.0 38.65 Q6.15 38.45 6.35 38.4 M6.55 42.45 L7.3 43.2 15.25 43.6 15.95 43.7 16.2 43.6 16.95 43.85 17.1 44.0 Q9.05 44.7 7.3 43.8 L6.0 42.45 6.55 42.45" fill="#0b000a" fill-rule="evenodd" stroke="none"/>
      <path d="M37.5 35.1 L37.45 35.0 37.35 34.9 37.3 34.35 37.7 34.25 37.35 34.35 37.6 34.55 37.65 34.55 38.0 34.85 37.8 35.1 37.5 35.1 M27.3 43.25 L27.2 43.25 27.25 43.2 27.3 43.25 M26.95 43.35 L27.25 43.45 28.8 43.6 28.1 43.7 27.9 43.6 27.1 43.85 26.95 44.0 26.95 43.35 M37.5 42.45 L38.1 41.8 38.3 41.95 38.3 42.4 38.05 42.45 37.5 42.45 M42.25 40.95 L42.6 40.2 42.7 40.7 42.6 40.95 42.5 40.95 42.25 40.95 M6.35 34.25 L6.75 34.35 6.7 34.9 6.65 35.0 6.55 35.1 6.3 35.1 6.05 34.85 6.4 34.55 6.45 34.55 6.7 34.35 6.35 34.25 M1.5 40.2 L1.8 40.95 1.55 40.95 1.5 40.95 1.35 40.7 Q1.35 40.3 1.5 40.2 M5.95 41.8 L6.55 42.45 6.0 42.45 5.75 42.4 5.75 41.95 5.95 41.8 M15.25 43.6 L16.8 43.45 17.1 43.35 17.1 44.0 16.95 43.85 16.2 43.6 15.95 43.7 15.25 43.6 M16.9 43.25 L16.75 43.25 16.8 43.2 16.9 43.25" fill="#000000" fill-rule="evenodd" stroke="none"/>
      <path d="M41.1 22.35 Q41.1 30.2 35.5 35.7 30.0 41.4 22.1 41.4 14.2 41.4 8.7 35.7 3.15 30.2 3.15 22.35 3.15 14.4 8.7 8.9 14.2 3.35 22.1 3.35 30.0 3.35 35.5 8.9 41.1 14.4 41.1 22.35 M33.95 10.65 Q29.0 5.8 22.1 5.75 15.25 5.8 10.35 10.65 5.5 15.45 5.45 22.35 5.5 29.3 10.35 34.15 15.25 39.0 22.1 39.0 29.0 39.0 33.95 34.15 38.75 29.3 38.75 22.35 38.75 15.45 33.95 10.65" fill="url(#gradient2)" fill-rule="evenodd" stroke="none"/>
    </g>
    <linearGradient gradientTransform="matrix(0.0, -0.0546, -0.0546, 0.0, 22.0, 18.15)" gradientUnits="userSpaceOnUse" id="gradient0" spreadMethod="pad" x1="-819.2" x2="819.2">
      <stop offset="0.011764705882352941" stop-color="#bf809f"/>
      <stop offset="1.0" stop-color="#543c7c"/>
    </linearGradient>
    <linearGradient gradientTransform="matrix(0.0, -0.0167, -0.0167, 0.0, 22.75, 18.3)" gradientUnits="userSpaceOnUse" id="gradient1" spreadMethod="pad" x1="-819.2" x2="819.2">
      <stop offset="0.011764705882352941" stop-color="#bcb9ae"/>
      <stop offset="1.0" stop-color="#9b5b79"/>
    </linearGradient>
    <linearGradient gradientTransform="matrix(0.0, 0.0226, -0.0232, 0.0, 22.1, 22.55)" gradientUnits="userSpaceOnUse" id="gradient2" spreadMethod="pad" x1="-819.2" x2="819.2">
      <stop offset="0.0" stop-color="#3d2945"/>
      <stop offset="1.0" stop-color="#cabad6"/>
    </linearGradient>
    <g id="sprite0" transform="matrix(1.0, 0.0, 0.0, 1.0, 0.2, 0.0)">
      <use height="8.6" transform="matrix(1.0, 0.0, 0.0, 1.0, -0.2, 0.0)" width="35.05" xlink:href="#shape1"/>
    </g>
    <g id="shape1" transform="matrix(1.0, 0.0, 0.0, 1.0, 0.2, 0.0)">
      <path d="M34.4 4.4 Q34.85 5.8 34.85 7.65 L34.85 8.6 Q34.8 6.95 34.4 5.7 33.0 1.3 27.2 1.3 L7.45 1.3 Q0.05 1.3 -0.2 8.5 L-0.2 7.65 Q-0.2 0.0 7.45 0.0 L27.2 0.0 Q33.0 0.0 34.4 4.4" fill="#e7deda" fill-rule="evenodd" stroke="none"/>
    </g>
    <g id="shape2" transform="matrix(1.0, 0.0, 0.0, 1.0, -7.75, -8.05)">
      <path d="M24.05 11.35 L24.6 8.05 Q27.55 8.5 29.9 10.1 L28.1 12.85 Q26.3 11.75 24.05 11.35 M28.35 15.0 Q29.0 15.15 29.05 15.95 L29.25 16.8 Q29.45 17.3 29.1 17.8 L23.55 20.95 Q23.05 19.95 24.1 19.0 L25.25 17.8 27.3 15.85 28.6 14.75 28.35 15.0 M22.7 17.7 Q23.05 18.4 22.95 19.25 22.8 21.2 23.05 23.2 23.3 25.1 24.65 26.15 25.45 26.4 26.55 25.85 L26.85 25.65 27.25 25.15 Q27.65 23.6 26.05 23.25 25.6 22.85 25.8 22.05 L25.85 21.9 26.2 21.45 Q26.45 21.15 27.25 21.25 28.0 21.3 28.2 22.75 L28.4 21.25 29.5 22.1 30.05 23.5 30.15 24.75 29.75 26.15 28.65 27.7 Q27.9 28.3 26.5 28.65 25.05 28.95 23.8 28.1 22.1 26.9 22.0 24.9 21.85 22.4 22.05 19.95 L22.15 19.2 22.55 18.0 22.7 17.7 M24.25 13.75 L24.35 14.5 Q24.3 15.8 22.75 16.9 L20.4 18.15 19.75 22.5 19.15 26.6 18.4 28.0 17.35 28.95 Q16.55 29.55 15.5 29.2 14.05 28.15 14.6 26.65 L16.35 26.55 Q17.25 26.25 17.75 25.15 18.55 23.35 18.8 21.55 L19.15 18.75 17.7 18.6 Q16.95 18.45 16.35 17.8 16.3 17.35 16.6 17.1 L18.3 16.55 Q19.0 16.7 21.25 15.9 23.15 15.3 24.25 13.75 M33.95 14.05 Q35.6 16.45 36.2 19.2 L32.95 19.95 Q32.5 17.85 31.15 15.95 L33.95 14.05 M34.3 30.1 L31.4 28.25 Q32.55 26.5 32.95 24.3 L36.25 24.85 Q35.8 27.85 34.3 30.1 M19.7 11.35 Q17.6 11.85 15.7 13.1 L13.85 10.4 Q16.3 8.6 19.05 8.1 L19.7 11.35 M9.85 14.4 L12.65 16.25 Q11.55 17.95 11.1 20.3 L7.75 19.7 Q8.3 16.75 9.85 14.4 M19.5 36.5 L19.4 36.5 Q16.5 35.95 14.15 34.45 L15.95 31.65 Q17.7 32.7 19.95 33.15 L20.1 33.15 19.5 36.5 M28.4 31.4 L28.45 31.4 30.35 34.2 30.3 34.2 Q27.8 35.85 25.15 36.45 L24.45 33.15 Q26.45 32.7 28.4 31.4 M11.15 24.6 Q11.6 26.7 12.85 28.6 L10.1 30.5 Q8.45 28.0 7.85 25.3 L11.15 24.6" fill="#4a3355" fill-rule="evenodd" stroke="none"/>
    </g>
    <g id="sprite1" transform="matrix(1.0, 0.0, 0.0, 1.0, 0.0, 0.0)">
      <use height="20.15" transform="matrix(1.0, 0.0, 0.0, 1.0, 0.0, 0.0)" width="28.2" xlink:href="#shape3"/>
    </g>
    <g id="shape3" transform="matrix(1.0, 0.0, 0.0, 1.0, 0.0, 0.0)">
      <path d="M27.65 18.45 L27.4 18.95 Q26.2 20.8 23.4 19.8 19.6 18.5 17.35 14.05 14.8 9.1 9.75 7.4 4.1 5.65 0.0 10.3 1.0 6.85 3.7 4.15 7.2 0.65 11.9 0.05 L14.8 0.05 18.4 0.65 Q21.55 1.65 24.05 4.15 28.2 8.3 28.2 14.25 28.2 16.45 27.65 18.45" fill="#ffffff" fill-opacity="0.19607843" fill-rule="evenodd" stroke="none"/>
    </g>
  </defs>
</svg>
