<?xml version="1.0" encoding="UTF-8" standalone="no"?>
<svg xmlns:xlink="http://www.w3.org/1999/xlink" height="66.0px" width="66.0px" xmlns="http://www.w3.org/2000/svg">
  <g transform="matrix(1.5, 0.0, 0.0, 1.5, -0.075, 0.0)">
    <use height="44.0" transform="matrix(1.0, 0.0, 0.0, 1.0, 0.05, 0.0)" width="44.0" xlink:href="#shape0"/>
    <use height="8.6" transform="matrix(1.2077, 0.0, 0.0, 1.2065, 1.0085, 0.9)" width="35.05" xlink:href="#sprite0"/>
    <use height="9.15" transform="matrix(1.0, 0.0, 0.0, 1.0, 0.95, 33.35)" width="41.5" xlink:href="#shape2"/>
    <use height="0.0" transform="matrix(1.2077, 0.0, 0.0, 1.2077, 1.2, 1.05)" width="0.0" xlink:href="#sprite1"/>
    <use height="20.15" transform="matrix(1.1548, 0.0, 0.0, 1.1548, 6.1, 5.6)" width="28.2" xlink:href="#sprite2"/>
  </g>
  <defs>
    <g id="shape0" transform="matrix(1.0, 0.0, 0.0, 1.0, -0.05, 0.0)">
      <path d="M7.65 0.0 L36.45 0.0 Q39.6 0.0 41.85 2.25 44.05 4.45 44.05 7.6 L44.05 36.4 Q44.05 39.6 41.85 41.8 39.65 44.0 36.45 44.0 L7.65 44.0 Q4.5 44.0 2.3 41.8 0.05 39.6 0.05 36.4 L0.05 7.6 Q0.05 4.45 2.3 2.25 4.5 0.0 7.65 0.0" fill="url(#gradient0)" fill-rule="evenodd" stroke="none"/>
      <path d="M22.1 40.65 Q14.35 40.65 8.9 35.25 3.45 29.8 3.45 22.1 3.45 14.4 8.9 9.0 14.35 3.55 22.1 3.55 29.8 3.55 35.25 9.0 40.65 14.45 40.65 22.1 40.65 29.8 35.25 35.25 29.8 40.65 22.1 40.65" fill="url(#gradient1)" fill-rule="evenodd" stroke="none"/>
      <path d="M39.95 22.45 Q39.95 30.0 34.6 35.3 29.3 40.6 21.75 40.6 14.25 40.6 9.0 35.3 3.65 30.0 3.65 22.45 3.65 14.95 9.0 9.65 14.25 4.3 21.75 4.3 29.3 4.3 34.6 9.65 39.95 14.95 39.95 22.45" fill="url(#gradient2)" fill-rule="evenodd" stroke="none"/>
      <path d="M27.95 20.35 L28.15 20.35 Q30.05 20.75 30.15 22.85 L30.15 22.9 30.15 23.0 30.15 23.2 Q30.05 25.55 27.9 25.9 L27.9 28.7 27.95 28.7 29.4 28.95 Q29.9 29.1 30.15 29.5 L30.25 30.05 Q31.3 30.55 31.8 31.55 L31.8 31.5 32.6 32.2 32.5 32.3 32.1 32.75 Q31.45 32.45 31.15 31.85 L31.1 31.85 30.05 30.8 29.7 31.1 28.85 31.2 27.8 31.05 Q27.25 32.9 24.9 32.9 L18.3 32.9 Q15.35 32.9 15.35 29.9 L15.35 25.9 Q13.15 25.55 13.0 23.2 L13.0 23.15 13.0 22.9 13.0 22.85 13.05 22.85 Q13.2 20.75 15.1 20.35 L27.95 20.35 M26.45 12.05 Q27.1 12.05 27.6 12.45 28.05 12.9 28.05 13.55 L27.6 14.7 Q27.1 15.2 26.45 15.2 L22.55 15.2 22.55 19.9 20.65 19.9 20.65 15.2 16.7 15.2 Q16.05 15.2 15.6 14.7 15.1 14.2 15.1 13.55 15.1 12.9 15.6 12.45 L16.7 12.05 26.45 12.05 M35.5 15.5 Q35.5 17.0 34.1 18.0 32.95 18.75 32.45 19.6 31.95 18.75 30.85 18.0 29.45 17.0 29.5 15.5 29.65 14.1 30.95 14.15 32.3 14.15 32.45 15.55 32.7 14.15 34.0 14.15 35.3 14.1 35.5 15.5 M15.1 16.15 Q15.1 18.1 13.3 19.35 11.8 20.4 11.15 21.45 10.5 20.4 9.05 19.35 7.25 18.1 7.35 16.15 7.55 14.35 9.2 14.4 10.95 14.4 11.15 16.2 11.5 14.4 13.15 14.4 14.85 14.35 15.1 16.15 M26.15 25.6 Q25.8 23.6 23.95 23.7 22.15 23.7 21.8 25.6 21.6 23.7 19.7 23.7 17.85 23.6 17.6 25.6 17.6 27.7 19.5 29.05 21.1 30.1 21.8 31.35 22.5 30.1 24.15 29.05 26.15 27.7 26.15 25.6 M13.95 28.05 Q13.95 29.55 12.55 30.55 11.4 31.3 10.9 32.15 10.4 31.3 9.3 30.55 7.9 29.55 7.95 28.05 8.1 26.65 9.4 26.7 10.75 26.7 10.9 28.1 11.15 26.7 12.45 26.7 13.75 26.65 13.95 28.05 M37.25 25.7 Q37.25 27.2 35.85 28.2 34.7 28.95 34.2 29.8 33.7 28.95 32.6 28.2 31.2 27.2 31.25 25.7 31.4 24.3 32.7 24.35 34.05 24.35 34.2 25.75 34.45 24.35 35.75 24.35 37.05 24.3 37.25 25.7" fill="#92300d" fill-rule="evenodd" stroke="none"/>
      <path d="M40.9 22.05 Q40.9 29.9 35.3 35.45 29.8 41.1 21.9 41.1 13.95 41.1 8.45 35.45 2.9 29.9 2.9 22.05 2.9 14.1 8.45 8.6 13.95 3.0 21.9 3.0 29.8 3.0 35.3 8.6 40.9 14.1 40.9 22.05 M21.9 5.4 Q15.0 5.45 10.15 10.35 5.25 15.15 5.2 22.05 5.25 29.0 10.15 33.85 15.0 38.75 21.9 38.75 28.8 38.75 33.75 33.85 38.55 29.0 38.55 22.05 38.55 15.15 33.75 10.35 28.8 5.45 21.9 5.4" fill="url(#gradient3)" fill-rule="evenodd" stroke="none"/>
    </g>
    <linearGradient gradientTransform="matrix(0.0, -0.0551, -0.0551, 0.0, 22.1, 18.45)" gradientUnits="userSpaceOnUse" id="gradient0" spreadMethod="pad" x1="-819.2" x2="819.2">
      <stop offset="0.011764705882352941" stop-color="#bcb0a0"/>
      <stop offset="1.0" stop-color="#453e3a"/>
    </linearGradient>
    <linearGradient gradientTransform="matrix(0.0, -0.0173, -0.0173, 0.0, 22.1, 18.55)" gradientUnits="userSpaceOnUse" id="gradient1" spreadMethod="pad" x1="-819.2" x2="819.2">
      <stop offset="0.011764705882352941" stop-color="#c4bebb"/>
      <stop offset="1.0" stop-color="#9f8a82"/>
    </linearGradient>
    <linearGradient gradientTransform="matrix(0.0, -0.0169, -0.0169, 0.0, 21.7, 18.9)" gradientUnits="userSpaceOnUse" id="gradient2" spreadMethod="pad" x1="-819.2" x2="819.2">
      <stop offset="0.011764705882352941" stop-color="#f9cfb3"/>
      <stop offset="1.0" stop-color="#ff5b79"/>
    </linearGradient>
    <linearGradient gradientTransform="matrix(1.0E-4, 0.0223, -0.0232, 1.0E-4, 21.95, 22.3)" gradientUnits="userSpaceOnUse" id="gradient3" spreadMethod="pad" x1="-819.2" x2="819.2">
      <stop offset="0.011764705882352941" stop-color="#494136"/>
      <stop offset="1.0" stop-color="#dbccbd"/>
    </linearGradient>
    <g id="sprite0" transform="matrix(1.0, 0.0, 0.0, 1.0, 0.2, 0.0)">
      <use height="10.4" transform="matrix(0.8276, 0.0, 0.0, 0.8269, -0.2, 0.0)" width="42.35" xlink:href="#shape1"/>
    </g>
    <g id="shape1" transform="matrix(1.0, 0.0, 0.0, 1.0, 0.0, 0.0)">
      <path d="M42.35 9.25 L42.35 10.4 Q42.3 8.4 41.8 6.9 40.1 1.55 33.1 1.55 L9.25 1.55 Q0.3 1.55 0.0 10.25 L0.0 9.25 Q0.0 0.0 9.25 0.0 L33.1 0.0 Q40.1 0.0 41.8 5.3 42.35 7.0 42.35 9.25" fill="#e7deda" fill-opacity="0.5882353" fill-rule="evenodd" stroke="none"/>
    </g>
    <g id="shape2" transform="matrix(1.0, 0.0, 0.0, 1.0, -0.95, -33.35)">
      <path d="M5.7 36.05 Q5.6 36.8 5.0 37.4 4.3 38.1 3.35 38.1 2.4 38.1 1.65 37.4 L1.0 36.15 Q3.2 33.2 5.7 36.05" fill="#625748" fill-rule="evenodd" stroke="none"/>
      <path d="M1.0 36.15 L0.95 35.75 Q0.95 34.75 1.65 34.05 2.4 33.35 3.35 33.35 4.3 33.35 5.0 34.05 5.7 34.75 5.7 35.75 L5.7 36.05 Q3.2 33.2 1.0 36.15" fill="#494136" fill-rule="evenodd" stroke="none"/>
      <path d="M6.05 38.0 L6.0 37.75 Q6.0 37.15 6.45 36.7 6.85 36.3 7.45 36.3 8.05 36.3 8.45 36.7 8.9 37.15 8.9 37.75 L8.9 37.95 6.05 38.0" fill="#494136" fill-rule="evenodd" stroke="none"/>
      <path d="M8.9 37.95 L8.45 38.75 Q8.05 39.15 7.45 39.15 6.85 39.15 6.45 38.75 6.1 38.4 6.05 38.0 L8.9 37.95" fill="#625748" fill-rule="evenodd" stroke="none"/>
      <path d="M3.05 40.9 L3.0 40.65 Q3.0 40.05 3.45 39.6 3.85 39.2 4.45 39.2 5.05 39.2 5.45 39.6 5.9 40.05 5.9 40.65 L5.9 40.85 3.05 40.9" fill="#494136" fill-rule="evenodd" stroke="none"/>
      <path d="M5.9 40.85 L5.45 41.65 Q5.05 42.05 4.45 42.05 3.85 42.05 3.45 41.65 L3.05 40.9 5.9 40.85" fill="#625748" fill-rule="evenodd" stroke="none"/>
      <path d="M7.75 41.55 L7.75 41.4 Q7.75 40.95 8.05 40.6 8.4 40.3 8.85 40.3 9.25 40.3 9.6 40.6 9.95 40.95 9.95 41.4 L9.95 41.55 Q8.75 40.2 7.75 41.55" fill="#494136" fill-rule="evenodd" stroke="none"/>
      <path d="M9.95 41.55 L9.6 42.15 8.85 42.5 Q8.4 42.5 8.05 42.15 L7.75 41.55 Q8.75 40.2 9.95 41.55" fill="#625748" fill-rule="evenodd" stroke="none"/>
      <path d="M37.7 36.05 Q40.2 33.2 42.4 36.15 L41.75 37.4 Q41.0 38.1 40.05 38.1 39.1 38.1 38.4 37.4 37.8 36.8 37.7 36.05" fill="#625748" fill-rule="evenodd" stroke="none"/>
      <path d="M37.7 36.05 L37.7 35.75 Q37.7 34.75 38.4 34.05 39.1 33.35 40.05 33.35 41.0 33.35 41.75 34.05 42.45 34.75 42.45 35.75 L42.4 36.15 Q40.2 33.2 37.7 36.05" fill="#494136" fill-rule="evenodd" stroke="none"/>
      <path d="M34.5 37.95 L34.5 37.75 Q34.5 37.15 34.95 36.7 35.35 36.3 35.95 36.3 36.55 36.3 36.95 36.7 37.4 37.15 37.4 37.75 L37.35 38.0 34.5 37.95" fill="#494136" fill-rule="evenodd" stroke="none"/>
      <path d="M34.5 37.95 L37.35 38.0 36.95 38.75 Q36.55 39.15 35.95 39.15 35.35 39.15 34.95 38.75 L34.5 37.95" fill="#625748" fill-rule="evenodd" stroke="none"/>
      <path d="M37.5 40.85 L37.5 40.65 Q37.5 40.05 37.95 39.6 38.35 39.2 38.95 39.2 39.55 39.2 39.95 39.6 40.4 40.05 40.4 40.65 L40.35 40.9 37.5 40.85" fill="#494136" fill-rule="evenodd" stroke="none"/>
      <path d="M37.5 40.85 L40.35 40.9 39.95 41.65 Q39.55 42.05 38.95 42.05 38.35 42.05 37.95 41.65 L37.5 40.85" fill="#625748" fill-rule="evenodd" stroke="none"/>
      <path d="M33.45 41.55 L33.45 41.4 Q33.45 40.95 33.8 40.6 L34.55 40.3 Q35.0 40.3 35.35 40.6 L35.65 41.4 35.65 41.55 Q34.65 40.2 33.45 41.55" fill="#494136" fill-rule="evenodd" stroke="none"/>
      <path d="M33.45 41.55 Q34.65 40.2 35.65 41.55 L35.35 42.15 Q35.0 42.5 34.55 42.5 34.15 42.5 33.8 42.15 L33.45 41.55" fill="#625748" fill-rule="evenodd" stroke="none"/>
    </g>
    <g id="sprite2" transform="matrix(1.0, 0.0, 0.0, 1.0, 0.0, 0.0)">
      <use height="20.15" transform="matrix(1.0, 0.0, 0.0, 1.0, 0.0, 0.0)" width="28.2" xlink:href="#shape3"/>
    </g>
    <g id="shape3" transform="matrix(1.0, 0.0, 0.0, 1.0, 0.0, 0.0)">
      <path d="M27.65 18.45 L27.4 18.95 Q26.2 20.8 23.4 19.8 19.6 18.5 17.35 14.05 14.8 9.1 9.75 7.4 4.1 5.65 0.0 10.3 1.0 6.85 3.7 4.15 7.2 0.65 11.9 0.05 L14.8 0.05 18.4 0.65 Q21.55 1.65 24.05 4.15 28.2 8.3 28.2 14.25 28.2 16.45 27.65 18.45" fill="#ffffff" fill-opacity="0.19607843" fill-rule="evenodd" stroke="none"/>
    </g>
  </defs>
</svg>
