<?xml version="1.0" encoding="UTF-8" standalone="no"?>
<svg xmlns:xlink="http://www.w3.org/1999/xlink" height="66.0px" width="66.0px" xmlns="http://www.w3.org/2000/svg">
  <g transform="matrix(1.5, 0.0, 0.0, 1.5, -0.075, 0.0)">
    <use height="37.1" transform="matrix(1.0, 0.0, 0.0, 1.0, 3.45, 3.5)" width="37.2" xlink:href="#shape0"/>
    <use height="20.15" transform="matrix(1.1594, 0.0, 0.0, 1.1594, 5.85, 5.25)" width="28.2" xlink:href="#sprite0"/>
    <use height="44.0" transform="matrix(1.0, 0.0, 0.0, 1.0, 0.05, 0.0)" width="44.0" xlink:href="#shape2"/>
    <use height="8.6" transform="matrix(1.2125, 0.0, 0.0, 1.2125, 0.9075, 0.95)" width="35.05" xlink:href="#sprite1"/>
    <use height="40.9" transform="matrix(1.0, 0.0, 0.0, 1.0, 0.05, 3.1)" width="43.95" xlink:href="#shape4"/>
    <use height="20.15" transform="matrix(1.1594, 0.0, 0.0, 1.1594, 5.85, 5.25)" width="28.2" xlink:href="#sprite0"/>
    <use height="44.0" transform="matrix(1.0, 0.0, 0.0, 1.0, 0.05, 0.0)" width="44.0" xlink:href="#shape5"/>
    <use height="8.6" transform="matrix(1.2125, 0.0, 0.0, 1.2125, 0.9075, 0.95)" width="35.05" xlink:href="#sprite1"/>
    <use height="17.95" transform="matrix(1.0, 0.0, 0.0, 1.0, 0.05, 26.05)" width="43.95" xlink:href="#shape6"/>
    <use height="8.6" transform="matrix(1.2077, 0.0, 0.0, 1.2065, 0.8585, 0.55)" width="35.05" xlink:href="#sprite2"/>
  </g>
  <defs>
    <g id="shape0" transform="matrix(1.0, 0.0, 0.0, 1.0, -3.45, -3.5)">
      <path d="M3.45 22.05 Q3.45 14.35 8.9 8.95 14.35 3.5 22.1 3.5 29.8 3.5 35.25 8.95 40.65 14.4 40.65 22.05 40.65 29.75 35.25 35.2 29.8 40.6 22.1 40.6 14.35 40.6 8.9 35.2 3.45 29.75 3.45 22.05" fill="url(#gradient0)" fill-rule="evenodd" stroke="none"/>
    </g>
    <linearGradient gradientTransform="matrix(0.0, -0.017, -0.0173, 0.0, 21.05, 26.95)" gradientUnits="userSpaceOnUse" id="gradient0" spreadMethod="pad" x1="-819.2" x2="819.2">
      <stop offset="0.011764705882352941" stop-color="#dad67d"/>
      <stop offset="1.0" stop-color="#cfa451"/>
    </linearGradient>
    <g id="sprite0" transform="matrix(1.0, 0.0, 0.0, 1.0, 0.0, 0.0)">
      <use height="20.15" transform="matrix(1.0, 0.0, 0.0, 1.0, 0.0, 0.0)" width="28.2" xlink:href="#shape1"/>
    </g>
    <g id="shape1" transform="matrix(1.0, 0.0, 0.0, 1.0, 0.0, 0.0)">
      <path d="M27.65 18.45 L27.4 18.95 Q26.2 20.8 23.4 19.8 19.6 18.5 17.35 14.05 14.8 9.1 9.75 7.4 4.1 5.65 0.0 10.3 1.0 6.85 3.7 4.15 7.2 0.65 11.9 0.05 L14.8 0.05 18.4 0.65 Q21.55 1.65 24.05 4.15 28.2 8.3 28.2 14.25 28.2 16.45 27.65 18.45" fill="#ffffff" fill-opacity="0.19607843" fill-rule="evenodd" stroke="none"/>
    </g>
    <g id="shape2" transform="matrix(1.0, 0.0, 0.0, 1.0, -0.05, 0.0)">
      <path d="M41.85 2.3 Q44.05 4.5 44.05 7.6 L44.05 36.4 Q44.05 39.6 41.85 41.8 39.65 44.0 36.45 44.0 L7.65 44.0 Q4.5 44.0 2.3 41.8 0.05 39.6 0.05 36.4 L0.05 7.6 Q0.05 4.5 2.3 2.3 4.5 0.0 7.65 0.0 L36.45 0.0 Q39.6 0.0 41.85 2.3 M40.9 22.05 Q40.9 14.1 35.3 8.6 29.8 3.05 21.9 3.05 13.95 3.05 8.45 8.6 2.9 14.1 2.9 22.05 2.9 29.95 8.45 35.45 13.95 41.1 21.9 41.1 29.8 41.1 35.3 35.45 40.9 29.95 40.9 22.05" fill="url(#gradient1)" fill-rule="evenodd" stroke="none"/>
      <path d="M40.9 22.05 Q40.9 29.95 35.3 35.45 29.8 41.1 21.9 41.1 13.95 41.1 8.45 35.45 2.9 29.95 2.9 22.05 2.9 14.1 8.45 8.6 13.95 3.05 21.9 3.05 29.8 3.05 35.3 8.6 40.9 14.1 40.9 22.05 M33.75 10.35 Q28.8 5.45 21.9 5.4 15.0 5.45 10.15 10.35 5.25 15.15 5.2 22.05 5.25 29.0 10.15 33.85 15.0 38.75 21.9 38.75 28.8 38.75 33.75 33.85 38.55 29.0 38.55 22.05 38.55 15.15 33.75 10.35" fill="url(#gradient2)" fill-rule="evenodd" stroke="none"/>
    </g>
    <linearGradient gradientTransform="matrix(0.0, -0.0258, -0.0551, 0.0, 21.9, 21.85)" gradientUnits="userSpaceOnUse" id="gradient1" spreadMethod="pad" x1="-819.2" x2="819.2">
      <stop offset="0.011764705882352941" stop-color="#c79829"/>
      <stop offset="1.0" stop-color="#be7d1e"/>
    </linearGradient>
    <linearGradient gradientTransform="matrix(1.0E-4, 0.0223, -0.0232, 1.0E-4, 21.95, 22.3)" gradientUnits="userSpaceOnUse" id="gradient2" spreadMethod="pad" x1="-819.2" x2="819.2">
      <stop offset="0.011764705882352941" stop-color="#8d5910"/>
      <stop offset="1.0" stop-color="#d9d597"/>
    </linearGradient>
    <g id="sprite1" transform="matrix(1.0, 0.0, 0.0, 1.0, 0.2, 0.0)">
      <use height="8.6" transform="matrix(1.0, 0.0, 0.0, 1.0, -0.2, 0.0)" width="35.05" xlink:href="#shape3"/>
    </g>
    <g id="shape3" transform="matrix(1.0, 0.0, 0.0, 1.0, 0.2, 0.0)">
      <path d="M34.85 8.6 Q34.8 6.95 34.4 5.7 33.0 1.3 27.2 1.3 L7.45 1.3 Q0.05 1.3 -0.2 8.5 L-0.2 7.65 Q-0.2 0.0 7.45 0.0 L27.2 0.0 Q33.0 0.0 34.4 4.4 34.85 5.8 34.85 7.65 L34.85 8.6" fill="#e7deda" fill-rule="evenodd" stroke="none"/>
    </g>
    <g id="shape4" transform="matrix(1.0, 0.0, 0.0, 1.0, -0.05, -3.1)">
      <path d="M38.9 27.95 L39.35 26.8 39.75 26.3 Q40.1 26.05 40.45 26.05 L41.1 26.3 41.55 26.85 41.95 27.95 43.1 27.95 Q43.55 27.95 43.8 28.2 L44.0 28.35 44.0 29.95 43.75 30.1 42.9 30.75 43.3 32.1 43.3 32.8 42.85 33.35 42.15 33.55 41.5 33.3 41.25 33.15 41.2 35.7 43.6 36.65 44.0 36.9 43.65 38.8 43.45 38.85 40.9 39.5 40.7 42.45 40.55 42.75 39.3 43.5 39.05 43.45 38.55 43.0 37.05 40.45 34.25 41.2 33.9 41.2 33.05 41.8 33.45 43.15 33.45 43.85 33.35 44.0 31.2 44.0 30.6 43.6 29.95 44.0 27.75 44.0 27.7 43.8 27.7 43.1 28.1 41.8 27.2 41.2 26.8 40.6 Q26.65 40.2 26.8 39.85 L27.2 39.25 27.9 39.05 29.05 39.05 29.5 37.9 29.9 37.35 30.6 37.15 31.25 37.35 31.7 37.95 32.1 39.05 33.25 39.05 34.9 37.05 33.6 34.85 33.45 34.15 33.75 33.45 Q33.95 33.2 34.3 33.15 L35.0 33.2 37.4 34.15 38.1 33.4 37.95 33.3 37.55 32.7 37.55 32.0 37.95 30.75 37.05 30.1 36.65 29.55 Q36.5 29.15 36.65 28.8 L37.05 28.2 Q37.35 27.95 37.75 27.95 L38.9 27.95 M30.7 38.7 L30.45 38.7 29.85 40.2 28.25 40.2 28.15 40.45 29.5 41.35 28.9 43.1 29.1 43.2 30.6 42.15 32.0 43.2 32.25 43.1 31.7 41.35 32.85 40.5 32.8 40.2 31.3 40.2 30.7 38.7 M37.75 35.5 L34.6 34.25 36.35 37.2 33.95 40.0 37.6 39.1 39.55 42.35 39.8 38.6 43.2 37.7 40.05 36.45 40.1 33.0 37.75 35.5 M39.7 29.15 L38.1 29.15 38.0 29.35 39.35 30.3 38.8 32.0 38.95 32.15 40.45 31.1 41.85 32.15 42.1 32.0 41.55 30.3 42.85 29.35 42.7 29.15 41.15 29.15 40.55 27.6 40.3 27.6 39.7 29.15" fill="url(#gradient3)" fill-rule="evenodd" stroke="none"/>
      <path d="M42.25 29.75 L41.55 30.3 41.55 30.9 41.9 32.2 40.45 31.1 38.95 32.2 39.35 30.9 39.35 30.3 38.6 29.75 39.7 29.75 40.45 27.85 41.15 29.75 42.25 29.75 M40.05 36.45 L40.05 37.05 42.2 38.0 39.8 38.6 39.55 42.35 37.6 39.1 34.6 39.85 36.35 37.8 36.35 37.2 35.05 35.1 37.75 36.15 40.1 33.65 40.05 36.45 M32.4 40.85 L31.7 41.35 31.7 42.0 32.05 43.25 30.6 42.15 29.1 43.25 29.5 42.0 29.5 41.35 28.75 40.85 29.85 40.85 30.6 38.9 31.3 40.85 32.4 40.85" fill="#815815" fill-rule="evenodd" stroke="none"/>
      <path d="M38.6 29.75 L37.75 29.15 39.7 29.15 40.45 27.2 41.15 29.15 43.1 29.15 42.25 29.75 41.15 29.75 40.45 27.85 39.7 29.75 38.6 29.75 M41.55 30.3 L42.2 32.35 41.9 32.2 41.55 30.9 41.55 30.3 M38.95 32.2 L38.65 32.35 39.35 30.3 39.35 30.9 38.95 32.2 M40.05 36.45 L43.2 37.7 42.2 38.0 40.05 37.05 40.05 36.45 M34.6 39.85 L33.95 40.0 36.35 37.2 36.35 37.8 34.6 39.85 M35.05 35.1 L34.6 34.25 37.75 35.5 40.1 33.0 40.1 33.65 37.75 36.15 35.05 35.1 M28.75 40.85 L27.9 40.2 29.85 40.2 30.6 38.3 31.3 40.2 33.25 40.2 32.4 40.85 31.3 40.85 30.6 38.9 29.85 40.85 28.75 40.85 M31.7 41.35 L32.35 43.45 32.05 43.25 31.7 42.0 31.7 41.35 M29.1 43.25 L28.8 43.45 29.5 41.35 29.5 42.0 29.1 43.25" fill="#674512" fill-rule="evenodd" stroke="none"/>
      <path d="M5.15 27.95 L6.3 27.95 Q6.7 27.95 7.0 28.2 L7.4 28.8 7.4 29.55 7.0 30.1 6.1 30.75 6.5 32.0 6.5 32.7 6.1 33.3 5.95 33.4 6.65 34.15 9.05 33.2 9.75 33.15 10.3 33.45 10.6 34.15 10.45 34.85 9.15 37.05 10.8 39.05 11.95 39.05 12.35 37.95 12.8 37.35 13.45 37.15 14.15 37.35 14.55 37.9 15.0 39.05 16.15 39.05 16.85 39.25 17.25 39.85 17.25 40.6 16.85 41.2 15.95 41.8 16.35 43.1 16.35 43.8 16.3 44.0 14.1 44.0 13.45 43.6 12.85 44.0 10.7 44.0 10.6 43.85 10.6 43.15 11.0 41.8 10.15 41.2 9.8 41.2 7.0 40.45 5.5 43.0 5.0 43.45 4.75 43.5 Q4.05 43.2 3.5 42.75 L3.35 42.45 3.15 39.5 0.6 38.85 0.4 38.8 0.05 36.9 Q0.25 36.7 0.45 36.65 L2.85 35.7 2.8 33.15 2.55 33.3 1.9 33.55 1.2 33.35 0.75 32.8 0.75 32.1 1.15 30.75 0.3 30.1 0.05 29.95 0.05 28.35 0.25 28.2 Q0.5 27.95 0.95 27.95 L2.1 27.95 2.5 26.85 2.95 26.3 Q3.25 26.05 3.6 26.05 L4.3 26.3 4.7 26.8 5.15 27.95 M4.35 29.15 L3.75 27.6 3.5 27.6 2.9 29.15 1.35 29.15 1.2 29.35 2.5 30.3 1.95 32.0 2.2 32.15 3.6 31.1 5.1 32.15 5.25 32.0 4.7 30.3 6.05 29.35 5.95 29.15 4.35 29.15 M6.3 35.5 L3.95 33.0 4.0 36.45 0.85 37.7 4.25 38.6 4.5 42.35 6.45 39.1 10.1 40.0 7.7 37.2 9.45 34.25 6.3 35.5 M13.35 38.7 L12.75 40.2 11.25 40.2 11.2 40.5 12.35 41.35 11.8 43.1 12.05 43.2 13.45 42.15 14.95 43.2 15.15 43.1 14.55 41.35 15.9 40.45 15.8 40.2 14.2 40.2 13.6 38.7 13.35 38.7" fill="url(#gradient4)" fill-rule="evenodd" stroke="none"/>
      <path d="M1.8 29.75 L0.95 29.15 2.9 29.15 3.6 27.2 4.35 29.15 6.3 29.15 5.45 29.75 4.35 29.75 3.6 27.85 2.9 29.75 1.8 29.75 M4.7 30.3 L5.4 32.35 5.1 32.2 4.7 30.9 4.7 30.3 M2.15 32.2 L1.85 32.35 2.5 30.3 2.5 30.9 2.15 32.2 M3.95 33.65 L3.95 33.0 6.3 35.5 9.45 34.25 9.0 35.1 6.3 36.15 3.95 33.65 M7.7 37.2 L10.1 40.0 9.45 39.85 7.7 37.8 7.7 37.2 M1.85 38.0 L0.85 37.7 4.0 36.45 4.0 37.05 1.85 38.0 M11.65 40.85 L10.8 40.2 12.75 40.2 13.45 38.3 14.2 40.2 16.15 40.2 15.3 40.85 14.2 40.85 13.45 38.9 12.75 40.85 11.65 40.85 M14.55 41.35 L15.25 43.45 14.95 43.25 14.55 42.0 14.55 41.35 M12.0 43.25 L11.7 43.45 12.35 41.35 12.35 42.0 12.0 43.25" fill="#674512" fill-rule="evenodd" stroke="none"/>
      <path d="M1.8 29.75 L2.9 29.75 3.6 27.85 4.35 29.75 5.45 29.75 4.7 30.3 4.7 30.9 5.1 32.2 3.6 31.1 2.15 32.2 2.5 30.9 2.5 30.3 1.8 29.75 M9.0 35.1 L7.7 37.2 7.7 37.8 9.45 39.85 6.45 39.1 4.5 42.35 4.25 38.6 1.85 38.0 4.0 37.05 4.0 36.45 3.95 33.65 6.3 36.15 9.0 35.1 M11.65 40.85 L12.75 40.85 13.45 38.9 14.2 40.85 15.3 40.85 14.55 41.35 14.55 42.0 14.95 43.25 13.45 42.15 12.0 43.25 12.35 42.0 12.35 41.35 11.65 40.85" fill="#815815" fill-rule="evenodd" stroke="none"/>
      <path d="M35.4 8.55 Q40.8 14.0 40.8 21.65 40.8 29.35 35.4 34.8 29.95 40.2 22.25 40.2 14.5 40.2 9.05 34.8 3.6 29.35 3.6 21.65 3.6 13.95 9.05 8.55 14.5 3.1 22.25 3.1 29.95 3.1 35.4 8.55" fill="url(#gradient5)" fill-rule="evenodd" stroke="none"/>
      <path d="M32.15 17.85 L31.1 16.95 30.65 16.55 30.6 16.5 29.25 15.35 28.85 15.0 28.7 14.95 28.65 14.75 Q27.05 13.3 25.05 12.8 L24.95 12.75 22.5 12.45 22.1 12.5 21.6 12.55 20.45 12.75 Q18.15 13.2 16.35 14.7 L16.4 14.8 16.35 14.75 Q12.9 18.2 12.9 22.3 12.9 23.55 13.15 24.6 L12.85 24.35 Q9.8 21.65 9.8 17.75 9.8 13.9 12.85 11.1 15.95 8.45 20.3 8.45 24.65 8.45 27.7 11.1 30.2 13.35 32.15 17.85" fill="#664411" fill-rule="evenodd" stroke="none"/>
      <path d="M22.65 14.55 L26.95 12.25 26.95 7.0 Q33.2 12.55 32.6 18.5 28.85 15.5 22.65 14.55" fill="#664411" fill-rule="evenodd" stroke="none"/>
      <path d="M11.0 25.95 L12.05 26.85 12.5 27.25 12.55 27.3 13.9 28.45 14.3 28.85 14.45 28.85 14.5 29.05 Q16.1 30.5 18.1 31.0 L18.2 31.05 20.65 31.35 21.05 31.3 21.55 31.25 22.7 31.1 Q25.0 30.65 26.8 29.1 L26.75 29.0 26.8 29.05 Q30.25 25.6 30.25 21.5 L30.0 19.2 30.3 19.45 Q33.35 22.15 33.35 26.05 33.35 29.9 30.3 32.7 27.2 35.35 22.85 35.35 18.5 35.35 15.45 32.7 12.95 30.5 11.0 25.95" fill="#664411" fill-rule="evenodd" stroke="none"/>
      <path d="M20.5 29.25 L16.2 31.55 16.2 36.8 Q9.95 31.25 10.55 25.3 14.3 28.3 20.5 29.25" fill="#664411" fill-rule="evenodd" stroke="none"/>
    </g>
    <linearGradient gradientTransform="matrix(0.0, -0.0258, -0.0551, 0.0, 21.9, 21.85)" gradientUnits="userSpaceOnUse" id="gradient3" spreadMethod="pad" x1="-819.2" x2="819.2">
      <stop offset="0.011764705882352941" stop-color="#c79829"/>
      <stop offset="1.0" stop-color="#be7d1e"/>
    </linearGradient>
    <linearGradient gradientTransform="matrix(0.0, -0.0258, 0.0551, 0.0, 22.1, 21.85)" gradientUnits="userSpaceOnUse" id="gradient4" spreadMethod="pad" x1="-819.2" x2="819.2">
      <stop offset="0.011764705882352941" stop-color="#c79829"/>
      <stop offset="1.0" stop-color="#be7d1e"/>
    </linearGradient>
    <linearGradient gradientTransform="matrix(0.0056, 0.0, 0.0, 0.0043, -24.35, 41.35)" gradientUnits="userSpaceOnUse" id="gradient5" spreadMethod="pad" x1="-819.2" x2="819.2">
      <stop offset="0.011764705882352941" stop-color="#c79829"/>
      <stop offset="1.0" stop-color="#be7d1e"/>
    </linearGradient>
    <g id="shape5" transform="matrix(1.0, 0.0, 0.0, 1.0, -0.05, 0.0)">
      <path d="M40.9 22.05 Q40.9 14.1 35.3 8.6 29.8 3.05 21.9 3.05 13.95 3.05 8.45 8.6 2.9 14.1 2.9 22.05 2.9 29.95 8.45 35.45 13.95 41.1 21.9 41.1 29.8 41.1 35.3 35.45 40.9 29.95 40.9 22.05 M41.85 2.3 Q44.05 4.5 44.05 7.6 L44.05 36.4 Q44.05 39.6 41.85 41.8 39.65 44.0 36.45 44.0 L7.65 44.0 Q4.5 44.0 2.3 41.8 0.05 39.6 0.05 36.4 L0.05 7.6 Q0.05 4.5 2.3 2.3 4.5 0.0 7.65 0.0 L36.45 0.0 Q39.6 0.0 41.85 2.3" fill="url(#gradient6)" fill-rule="evenodd" stroke="none"/>
      <path d="M33.75 10.35 Q28.8 5.45 21.9 5.4 15.0 5.45 10.15 10.35 5.25 15.15 5.2 22.05 5.25 29.0 10.15 33.85 15.0 38.75 21.9 38.75 28.8 38.75 33.75 33.85 38.55 29.0 38.55 22.05 38.55 15.15 33.75 10.35 M40.9 22.05 Q40.9 29.95 35.3 35.45 29.8 41.1 21.9 41.1 13.95 41.1 8.45 35.45 2.9 29.95 2.9 22.05 2.9 14.1 8.45 8.6 13.95 3.05 21.9 3.05 29.8 3.05 35.3 8.6 40.9 14.1 40.9 22.05" fill="url(#gradient7)" fill-rule="evenodd" stroke="none"/>
    </g>
    <linearGradient gradientTransform="matrix(0.0, -0.0258, -0.0551, 0.0, 21.9, 21.85)" gradientUnits="userSpaceOnUse" id="gradient6" spreadMethod="pad" x1="-819.2" x2="819.2">
      <stop offset="0.011764705882352941" stop-color="#dad67d"/>
      <stop offset="1.0" stop-color="#cfa451"/>
    </linearGradient>
    <linearGradient gradientTransform="matrix(0.0, 0.0059, -0.0232, 0.0, 21.9, 18.4)" gradientUnits="userSpaceOnUse" id="gradient7" spreadMethod="pad" x1="-819.2" x2="819.2">
      <stop offset="0.011764705882352941" stop-color="#8d5910"/>
      <stop offset="1.0" stop-color="#d9d597"/>
    </linearGradient>
    <g id="shape6" transform="matrix(1.0, 0.0, 0.0, 1.0, -0.05, -26.05)">
      <path d="M38.9 27.95 L39.35 26.8 39.75 26.3 Q40.1 26.05 40.45 26.05 L41.1 26.3 41.55 26.85 41.95 27.95 43.1 27.95 Q43.55 27.95 43.8 28.2 L44.0 28.35 44.0 29.95 43.75 30.1 42.9 30.75 43.3 32.1 43.3 32.8 42.85 33.35 42.15 33.55 41.5 33.3 41.25 33.15 41.2 35.7 43.6 36.65 44.0 36.9 43.65 38.8 43.45 38.85 40.9 39.5 40.7 42.45 40.55 42.75 39.3 43.5 39.05 43.45 38.55 43.0 37.05 40.45 34.25 41.2 33.9 41.2 33.05 41.8 33.45 43.15 33.45 43.85 33.35 44.0 31.2 44.0 30.6 43.6 29.95 44.0 27.75 44.0 27.7 43.8 27.7 43.1 28.1 41.8 27.2 41.2 26.8 40.6 Q26.65 40.2 26.8 39.85 L27.2 39.25 27.9 39.05 29.05 39.05 29.5 37.9 29.9 37.35 30.6 37.15 31.25 37.35 31.7 37.95 32.1 39.05 33.25 39.05 34.9 37.05 33.6 34.85 33.45 34.15 33.75 33.45 Q33.95 33.2 34.3 33.15 L35.0 33.2 37.4 34.15 38.1 33.4 37.95 33.3 37.55 32.7 37.55 32.0 37.95 30.75 37.05 30.1 36.65 29.55 Q36.5 29.15 36.65 28.8 L37.05 28.2 Q37.35 27.95 37.75 27.95 L38.9 27.95 M30.7 38.7 L30.45 38.7 29.85 40.2 28.25 40.2 28.15 40.45 29.5 41.35 28.9 43.1 29.1 43.2 30.6 42.15 32.0 43.2 32.25 43.1 31.7 41.35 32.85 40.5 32.8 40.2 31.3 40.2 30.7 38.7 M37.75 35.5 L34.6 34.25 36.35 37.2 33.95 40.0 37.6 39.1 39.55 42.35 39.8 38.6 43.2 37.7 40.05 36.45 40.1 33.0 37.75 35.5 M39.7 29.15 L38.1 29.15 38.0 29.35 39.35 30.3 38.8 32.0 38.95 32.15 40.45 31.1 41.85 32.15 42.1 32.0 41.55 30.3 42.85 29.35 42.7 29.15 41.15 29.15 40.55 27.6 40.3 27.6 39.7 29.15" fill="#d1ae5a" fill-rule="evenodd" stroke="none"/>
      <path d="M42.25 29.75 L41.55 30.3 41.55 30.9 41.9 32.2 40.45 31.1 38.95 32.2 39.35 30.9 39.35 30.3 38.6 29.75 39.7 29.75 40.45 27.85 41.15 29.75 42.25 29.75 M40.05 36.45 L40.05 37.05 42.2 38.0 39.8 38.6 39.55 42.35 37.6 39.1 34.6 39.85 36.35 37.8 36.35 37.2 35.05 35.1 37.75 36.15 40.1 33.65 40.05 36.45 M32.4 40.85 L31.7 41.35 31.7 42.0 32.05 43.25 30.6 42.15 29.1 43.25 29.5 42.0 29.5 41.35 28.75 40.85 29.85 40.85 30.6 38.9 31.3 40.85 32.4 40.85" fill="#815815" fill-rule="evenodd" stroke="none"/>
      <path d="M38.6 29.75 L37.75 29.15 39.7 29.15 40.45 27.2 41.15 29.15 43.1 29.15 42.25 29.75 41.15 29.75 40.45 27.85 39.7 29.75 38.6 29.75 M41.55 30.3 L42.2 32.35 41.9 32.2 41.55 30.9 41.55 30.3 M38.95 32.2 L38.65 32.35 39.35 30.3 39.35 30.9 38.95 32.2 M40.05 36.45 L43.2 37.7 42.2 38.0 40.05 37.05 40.05 36.45 M34.6 39.85 L33.95 40.0 36.35 37.2 36.35 37.8 34.6 39.85 M35.05 35.1 L34.6 34.25 37.75 35.5 40.1 33.0 40.1 33.65 37.75 36.15 35.05 35.1 M28.75 40.85 L27.9 40.2 29.85 40.2 30.6 38.3 31.3 40.2 33.25 40.2 32.4 40.85 31.3 40.85 30.6 38.9 29.85 40.85 28.75 40.85 M31.7 41.35 L32.35 43.45 32.05 43.25 31.7 42.0 31.7 41.35 M29.1 43.25 L28.8 43.45 29.5 41.35 29.5 42.0 29.1 43.25" fill="#674512" fill-rule="evenodd" stroke="none"/>
      <path d="M10.3 33.45 L10.6 34.15 10.45 34.85 9.15 37.05 10.8 39.05 11.95 39.05 12.35 37.95 12.8 37.35 13.45 37.15 14.15 37.35 14.55 37.9 15.0 39.05 16.15 39.05 16.85 39.25 17.25 39.85 17.25 40.6 16.85 41.2 15.95 41.8 16.35 43.1 16.35 43.8 16.3 44.0 14.1 44.0 13.45 43.6 12.85 44.0 10.7 44.0 10.6 43.85 10.6 43.15 11.0 41.8 10.15 41.2 9.8 41.2 7.0 40.45 5.5 43.0 5.0 43.45 4.75 43.5 Q4.05 43.2 3.5 42.75 L3.35 42.45 3.15 39.5 0.6 38.85 0.4 38.8 0.05 36.9 Q0.25 36.7 0.45 36.65 L2.85 35.7 2.8 33.15 2.55 33.3 1.9 33.55 1.2 33.35 0.75 32.8 0.75 32.1 1.15 30.75 0.3 30.1 0.05 29.95 0.05 28.35 0.25 28.2 Q0.5 27.95 0.95 27.95 L2.1 27.95 2.5 26.85 2.95 26.3 Q3.25 26.05 3.6 26.05 L4.3 26.3 4.7 26.8 5.15 27.95 6.3 27.95 Q6.7 27.95 7.0 28.2 L7.4 28.8 7.4 29.55 7.0 30.1 6.1 30.75 6.5 32.0 6.5 32.7 6.1 33.3 5.95 33.4 6.65 34.15 9.05 33.2 9.75 33.15 10.3 33.45 M3.75 27.6 L3.5 27.6 2.9 29.15 1.35 29.15 1.2 29.35 2.5 30.3 1.95 32.0 2.2 32.15 3.6 31.1 5.1 32.15 5.25 32.0 4.7 30.3 6.05 29.35 5.95 29.15 4.35 29.15 3.75 27.6 M4.25 38.6 L4.5 42.35 6.45 39.1 10.1 40.0 7.7 37.2 9.45 34.25 6.3 35.5 3.95 33.0 4.0 36.45 0.85 37.7 4.25 38.6 M11.2 40.5 L12.35 41.35 11.8 43.1 12.05 43.2 13.45 42.15 14.95 43.2 15.15 43.1 14.55 41.35 15.9 40.45 15.8 40.2 14.2 40.2 13.6 38.7 13.35 38.7 12.75 40.2 11.25 40.2 11.2 40.5" fill="#d1ae5a" fill-rule="evenodd" stroke="none"/>
      <path d="M1.8 29.75 L0.95 29.15 2.9 29.15 3.6 27.2 4.35 29.15 6.3 29.15 5.45 29.75 4.35 29.75 3.6 27.85 2.9 29.75 1.8 29.75 M4.7 30.3 L5.4 32.35 5.1 32.2 4.7 30.9 4.7 30.3 M2.15 32.2 L1.85 32.35 2.5 30.3 2.5 30.9 2.15 32.2 M3.95 33.65 L3.95 33.0 6.3 35.5 9.45 34.25 9.0 35.1 6.3 36.15 3.95 33.65 M7.7 37.2 L10.1 40.0 9.45 39.85 7.7 37.8 7.7 37.2 M1.85 38.0 L0.85 37.7 4.0 36.45 4.0 37.05 1.85 38.0 M11.65 40.85 L10.8 40.2 12.75 40.2 13.45 38.3 14.2 40.2 16.15 40.2 15.3 40.85 14.2 40.85 13.45 38.9 12.75 40.85 11.65 40.85 M14.55 41.35 L15.25 43.45 14.95 43.25 14.55 42.0 14.55 41.35 M12.0 43.25 L11.7 43.45 12.35 41.35 12.35 42.0 12.0 43.25" fill="#674512" fill-rule="evenodd" stroke="none"/>
      <path d="M1.8 29.75 L2.9 29.75 3.6 27.85 4.35 29.75 5.45 29.75 4.7 30.3 4.7 30.9 5.1 32.2 3.6 31.1 2.15 32.2 2.5 30.9 2.5 30.3 1.8 29.75 M4.0 36.45 L3.95 33.65 6.3 36.15 9.0 35.1 7.7 37.2 7.7 37.8 9.45 39.85 6.45 39.1 4.5 42.35 4.25 38.6 1.85 38.0 4.0 37.05 4.0 36.45 M11.65 40.85 L12.75 40.85 13.45 38.9 14.2 40.85 15.3 40.85 14.55 41.35 14.55 42.0 14.95 43.25 13.45 42.15 12.0 43.25 12.35 42.0 12.35 41.35 11.65 40.85" fill="#815815" fill-rule="evenodd" stroke="none"/>
    </g>
    <g id="sprite2" transform="matrix(1.0, 0.0, 0.0, 1.0, 0.2, 0.0)">
      <use height="8.6" transform="matrix(1.0, 0.0, 0.0, 1.0, -0.2, 0.0)" width="35.05" xlink:href="#shape3"/>
    </g>
  </defs>
</svg>
