<?xml version="1.0" encoding="UTF-8" standalone="no"?>
<svg xmlns:xlink="http://www.w3.org/1999/xlink" height="66.15px" width="66.0px" xmlns="http://www.w3.org/2000/svg">
  <g transform="matrix(1.5, 0.0, 0.0, 1.5, -0.075, -0.15)">
    <use height="40.4" transform="matrix(1.0, 0.0, 0.0, 1.0, 1.65, 2.35)" width="40.3" xlink:href="#shape0"/>
    <use height="20.15" transform="matrix(1.1594, 0.0, 0.0, 1.1605, 6.1, 5.4)" width="28.2" xlink:href="#sprite0"/>
    <use height="44.1" transform="matrix(1.0, 0.0, 0.0, 1.0, 0.05, 0.1)" width="44.0" xlink:href="#shape2"/>
    <use height="8.6" transform="matrix(1.2077, 0.0, 0.0, 1.2065, 1.0085, 0.9)" width="35.05" xlink:href="#sprite1"/>
  </g>
  <defs>
    <g id="shape0" transform="matrix(1.0, 0.0, 0.0, 1.0, -1.65, -2.35)">
      <path d="M7.6 8.3 Q13.45 2.35 21.85 2.35 30.2 2.35 36.1 8.3 41.95 14.2 41.95 22.55 41.95 30.9 36.1 36.85 30.2 42.75 21.85 42.75 13.45 42.75 7.6 36.85 1.65 30.9 1.65 22.55 1.65 14.2 7.6 8.3" fill="url(#gradient0)" fill-rule="evenodd" stroke="none"/>
      <path d="M29.75 11.9 L30.1 12.45 Q30.6 12.05 31.25 12.05 32.1 12.05 32.7 12.65 33.25 13.3 33.25 14.1 L33.1 14.9 33.85 15.2 34.4 15.6 Q35.15 16.4 35.15 17.5 35.15 18.55 34.4 19.25 L33.85 19.75 32.7 20.05 Q31.65 20.05 30.9 19.25 L30.7 19.1 29.75 19.4 29.0 19.25 28.65 19.8 Q28.05 20.45 27.15 20.45 L26.2 20.15 25.85 19.75 25.55 19.15 26.55 17.25 26.15 17.1 Q24.3 18.55 22.1 18.3 19.45 18.35 18.4 17.05 L17.9 17.25 18.9 19.15 18.65 19.7 18.65 19.75 18.3 20.15 17.3 20.45 Q16.5 20.45 15.85 19.8 L15.5 19.25 14.75 19.4 13.85 19.1 13.6 19.25 Q12.85 20.05 11.75 20.05 10.8 20.05 10.1 19.25 9.35 18.55 9.35 17.5 9.35 16.4 10.1 15.6 10.6 15.05 11.4 14.9 L11.25 14.1 Q11.25 13.3 11.75 12.65 12.45 12.05 13.25 12.05 13.9 12.05 14.4 12.45 14.5 12.2 14.75 11.9 15.2 11.45 15.65 11.3 15.95 10.35 16.6 9.7 17.65 8.7 18.95 8.6 L19.4 8.15 Q20.6 6.9 22.3 6.9 23.9 6.9 25.1 8.15 L25.55 8.6 Q26.9 8.7 27.9 9.7 28.55 10.35 28.8 11.3 L29.75 11.9 M26.6 30.8 Q28.4 31.25 28.15 31.65 L33.85 31.65 Q29.6 36.4 23.6 37.15 L22.55 37.2 21.95 37.2 Q15.2 36.8 10.65 31.65 L16.8 31.65 Q16.8 30.85 18.85 30.8 L18.55 29.3 20.25 30.85 20.55 29.7 20.75 28.7 20.85 27.4 20.85 27.15 20.85 23.9 Q20.25 20.5 18.55 17.75 19.65 18.65 21.0 18.75 L21.65 18.75 22.1 18.65 22.35 18.65 22.8 18.75 23.5 18.75 Q24.85 18.65 26.0 17.75 24.25 20.5 23.65 23.9 L23.65 27.15 23.65 27.4 23.65 27.75 23.8 28.75 24.3 30.85 24.6 30.55 Q25.2 30.15 25.85 29.7 26.5 29.45 25.7 30.8 L26.6 30.8 M14.1 11.1 L14.2 11.0 14.3 10.95 14.4 11.0 14.45 11.1 14.4 11.25 14.3 11.3 14.2 11.25 14.1 11.1 M13.3 9.2 Q13.55 9.2 14.2 9.8 14.75 10.35 14.5 10.35 L13.9 10.35 13.3 10.35 12.9 10.15 12.75 9.8 Q12.75 9.55 12.9 9.4 L13.3 9.2 M11.2 12.0 Q10.65 12.9 10.65 13.2 L10.45 13.7 9.9 13.9 9.45 13.7 9.25 13.2 9.45 12.65 10.65 11.75 Q11.65 11.05 11.2 12.0 M9.65 20.25 L10.2 20.5 10.95 22.0 Q11.35 23.15 10.75 22.7 10.1 22.15 9.7 22.1 L9.0 21.8 Q8.75 21.6 8.75 21.2 8.75 20.8 9.0 20.5 9.25 20.25 9.65 20.25 M13.6 19.95 L13.65 19.85 13.85 19.8 13.9 19.85 13.95 19.95 13.9 20.1 13.85 20.15 13.65 20.1 13.6 19.95 M17.05 22.05 L16.8 22.1 16.6 22.05 16.5 21.8 16.6 21.6 Q16.7 21.45 16.8 21.45 L17.05 21.6 17.1 21.8 17.05 22.05 M18.2 20.55 L18.3 20.5 18.45 20.55 18.45 20.7 18.45 20.8 18.3 20.85 18.2 20.8 18.15 20.7 18.2 20.55 M15.45 28.15 L16.15 27.9 Q16.55 27.9 16.7 28.15 L17.0 28.85 16.7 29.45 16.15 29.7 15.45 29.45 Q15.2 29.25 15.2 28.85 15.2 28.45 15.45 28.15 M26.55 24.4 Q27.4 24.4 26.95 25.0 26.5 25.6 26.35 26.25 26.2 26.85 26.0 26.25 25.75 24.35 26.55 24.4 M26.95 28.75 L27.15 28.85 27.3 29.05 27.15 29.3 26.95 29.4 26.7 29.3 26.65 29.05 26.7 28.85 26.95 28.75" fill="#5f3921" fill-rule="evenodd" stroke="none"/>
    </g>
    <linearGradient gradientTransform="matrix(0.0, -0.0155, -0.0189, 0.0, 21.9, 25.55)" gradientUnits="userSpaceOnUse" id="gradient0" spreadMethod="pad" x1="-819.2" x2="819.2">
      <stop offset="0.011764705882352941" stop-color="#bb9a76"/>
      <stop offset="1.0" stop-color="#a87f53"/>
    </linearGradient>
    <g id="sprite0" transform="matrix(1.0, 0.0, 0.0, 1.0, 0.0, 0.0)">
      <use height="20.15" transform="matrix(1.0, 0.0, 0.0, 1.0, 0.0, 0.0)" width="28.2" xlink:href="#shape1"/>
    </g>
    <g id="shape1" transform="matrix(1.0, 0.0, 0.0, 1.0, 0.0, 0.0)">
      <path d="M27.65 18.45 L27.4 18.95 Q26.2 20.8 23.4 19.8 19.6 18.5 17.35 14.05 14.8 9.1 9.75 7.4 4.1 5.65 0.0 10.3 1.0 6.85 3.7 4.15 7.2 0.65 11.9 0.05 L14.8 0.05 18.4 0.65 Q21.55 1.65 24.05 4.15 28.2 8.3 28.2 14.25 28.2 16.45 27.65 18.45" fill="#ffffff" fill-opacity="0.19607843" fill-rule="evenodd" stroke="none"/>
    </g>
    <g id="shape2" transform="matrix(1.0, 0.0, 0.0, 1.0, -0.05, -0.1)">
      <path d="M22.05 4.8 Q14.85 4.8 9.75 9.9 4.7 15.05 4.7 22.15 4.7 29.35 9.75 34.45 14.8 39.55 22.05 39.55 29.2 39.55 34.25 34.45 39.35 29.35 39.35 22.15 39.35 14.95 34.25 9.9 29.2 4.8 22.05 4.8 M36.45 0.1 Q39.65 0.1 41.8 2.35 44.05 4.65 44.05 7.75 L44.05 36.55 Q44.05 39.7 41.8 41.95 39.65 44.15 36.45 44.15 L7.65 44.15 Q4.5 44.15 2.3 41.95 0.05 39.75 0.05 36.55 L0.05 7.75 Q0.05 4.65 2.3 2.35 4.5 0.1 7.65 0.1 L36.45 0.1" fill="url(#gradient1)" fill-rule="evenodd" stroke="none"/>
      <path d="M41.1 22.1 Q41.1 29.95 35.5 35.5 30.0 41.1 22.15 41.1 14.25 41.1 8.75 35.5 3.2 29.95 3.2 22.1 3.2 14.25 8.75 8.7 14.25 3.15 22.15 3.15 30.0 3.15 35.5 8.7 41.1 14.25 41.1 22.1 M33.9 10.45 Q28.95 5.55 22.15 5.5 15.25 5.55 10.4 10.45 5.55 15.2 5.5 22.1 5.55 29.05 10.4 33.9 15.25 38.75 22.15 38.75 28.95 38.75 33.9 33.9 38.7 29.05 38.7 22.1 38.7 15.2 33.9 10.45" fill="url(#gradient2)" fill-rule="evenodd" stroke="none"/>
      <path d="M0.25 25.2 Q0.4 22.75 0.85 20.75 0.6 24.95 0.85 26.6 1.2 29.6 3.15 31.05 L8.15 35.2 Q10.65 37.55 11.05 40.3 L14.6 42.6 10.75 43.0 Q10.0 44.5 7.25 44.15 3.25 43.6 2.45 40.35 1.75 37.75 3.65 36.75 L3.85 34.55 4.55 36.4 Q6.55 36.0 7.0 37.1 7.5 38.15 6.9 39.2 6.3 40.15 5.75 39.35 6.45 39.3 6.55 38.9 6.6 38.5 5.9 37.85 5.3 37.2 4.7 37.5 4.15 37.8 3.85 38.95 3.25 41.4 6.1 42.5 9.05 43.6 9.5 40.9 10.0 38.65 7.2 36.3 L3.45 33.4 0.95 32.9 1.95 31.95 Q0.15 29.95 0.25 25.2" fill="#7a5130" fill-rule="evenodd" stroke="none"/>
      <path d="M0.3 24.3 Q0.45 21.9 0.9 19.9 0.65 24.05 0.9 25.65 1.25 28.65 3.2 30.15 L8.25 34.3 Q10.7 36.65 11.1 39.35 L14.75 42.65 10.85 42.15 Q10.1 43.6 7.3 43.25 3.3 42.65 2.5 39.5 1.8 36.9 3.75 35.9 L3.85 34.45 4.6 35.55 Q6.6 35.15 7.05 36.95 7.3 38.45 6.75 39.15 L5.9 39.5 Q7.2 38.3 5.8 37.0 4.5 35.65 3.9 38.05 3.3 40.5 6.15 41.55 9.1 42.65 9.55 40.0 10.1 37.8 7.25 35.35 L3.45 32.5 3.5 32.55 0.9 32.95 2.0 31.05 Q0.2 29.0 0.3 24.3" fill="#ca935c" fill-rule="evenodd" stroke="none"/>
      <path d="M0.9 21.55 Q0.85 24.5 0.95 25.7 1.45 28.75 3.3 30.25 L8.3 34.35 Q10.75 36.7 11.25 39.35 L14.35 42.25 14.1 42.15 13.95 42.0 12.25 40.8 Q10.4 39.2 10.35 38.1 10.2 36.75 8.5 35.25 L5.25 32.75 Q2.05 30.3 1.2 27.55 0.6 25.95 0.6 22.15 L0.9 21.55 M6.55 36.7 Q5.9 35.7 4.7 35.7 L4.5 35.8 4.4 35.7 4.25 35.7 4.25 34.85 4.75 35.6 Q6.65 35.2 7.15 37.0 7.35 38.05 7.15 38.75 L7.05 38.8 7.05 38.75 6.95 38.2 6.95 38.1 Q6.95 37.35 6.55 36.7 M4.3 40.4 L4.15 39.8 Q4.6 41.0 6.25 41.6 L8.5 41.8 8.6 41.85 7.05 42.15 Q6.25 42.15 5.4 41.45 L4.3 40.4" fill="#d7ad86" fill-rule="evenodd" stroke="none"/>
      <path d="M43.7 25.2 Q43.8 29.95 42.0 31.95 L43.0 32.9 40.5 33.4 36.75 36.3 Q33.95 38.65 34.45 40.9 34.9 43.6 37.85 42.5 40.7 41.4 40.1 38.95 39.8 37.8 39.25 37.5 38.65 37.2 38.05 37.85 37.35 38.5 37.4 38.9 37.5 39.3 38.2 39.35 37.65 40.15 37.05 39.2 36.45 38.15 36.95 37.1 37.4 36.0 39.4 36.4 L40.1 34.55 40.3 36.75 Q42.2 37.75 41.5 40.35 40.7 43.6 36.7 44.15 33.95 44.5 33.2 43.0 L29.35 42.6 32.9 40.3 Q33.3 37.55 35.8 35.2 L40.8 31.05 Q42.75 29.6 43.1 26.6 43.35 24.95 43.1 20.75 L43.7 25.2" fill="#7a5130" fill-rule="evenodd" stroke="none"/>
      <path d="M43.65 24.3 Q43.75 29.0 41.95 31.05 L43.05 32.95 40.45 32.55 40.5 32.5 36.7 35.35 Q33.85 37.8 34.4 40.0 34.85 42.65 37.8 41.55 40.65 40.5 40.05 38.05 39.45 35.65 38.15 37.0 36.75 38.3 38.05 39.5 L37.2 39.15 Q36.65 38.45 36.9 36.95 37.35 35.15 39.35 35.55 L40.1 34.45 40.2 35.9 Q42.15 36.9 41.45 39.5 40.65 42.65 36.65 43.25 33.85 43.6 33.1 42.15 L29.2 42.65 32.85 39.35 Q33.25 36.65 35.7 34.3 L40.75 30.15 Q42.7 28.65 43.05 25.65 43.3 24.05 43.05 19.9 L43.65 24.3" fill="#ca935c" fill-rule="evenodd" stroke="none"/>
      <path d="M37.4 36.7 Q37.0 37.35 37.0 38.1 L37.0 38.2 36.9 38.75 36.9 38.8 36.8 38.75 Q36.6 38.05 36.8 37.0 37.3 35.2 39.2 35.6 L39.7 34.85 39.7 35.7 39.55 35.7 39.45 35.8 39.25 35.7 Q38.05 35.7 37.4 36.7 M43.05 21.55 L43.35 22.15 Q43.35 25.95 42.75 27.55 41.9 30.3 38.7 32.75 L35.45 35.25 Q33.75 36.75 33.6 38.1 33.55 39.2 31.7 40.8 L30.0 42.0 29.85 42.15 29.6 42.25 32.7 39.35 Q33.2 36.7 35.65 34.35 L40.65 30.25 Q42.5 28.75 43.0 25.7 L43.05 21.55 M39.65 40.4 L38.55 41.45 Q37.7 42.15 36.9 42.15 L35.35 41.85 35.45 41.8 37.7 41.6 Q39.35 41.0 39.8 39.8 L39.65 40.4" fill="#d7ad86" fill-rule="evenodd" stroke="none"/>
    </g>
    <linearGradient gradientTransform="matrix(0.0, -0.0344, -0.0552, 0.0, 22.45, 16.45)" gradientUnits="userSpaceOnUse" id="gradient1" spreadMethod="pad" x1="-819.2" x2="819.2">
      <stop offset="0.0196078431372549" stop-color="#9c6732"/>
      <stop offset="1.0" stop-color="#7d4e2b"/>
    </linearGradient>
    <linearGradient gradientTransform="matrix(1.0E-4, 0.0223, -0.0231, 1.0E-4, 22.2, 22.35)" gradientUnits="userSpaceOnUse" id="gradient2" spreadMethod="pad" x1="-819.2" x2="819.2">
      <stop offset="0.011764705882352941" stop-color="#59351e"/>
      <stop offset="1.0" stop-color="#cc955e"/>
    </linearGradient>
    <g id="sprite1" transform="matrix(1.0, 0.0, 0.0, 1.0, 0.2, 0.0)">
      <use height="8.6" transform="matrix(1.0, 0.0, 0.0, 1.0, -0.2, 0.0)" width="35.05" xlink:href="#shape3"/>
    </g>
    <g id="shape3" transform="matrix(1.0, 0.0, 0.0, 1.0, 0.2, 0.0)">
      <path d="M34.85 8.6 Q34.8 6.95 34.4 5.7 33.0 1.3 27.2 1.3 L7.45 1.3 Q0.05 1.3 -0.2 8.5 L-0.2 7.65 Q-0.2 0.0 7.45 0.0 L27.2 0.0 Q33.0 0.0 34.4 4.4 34.85 5.8 34.85 7.65 L34.85 8.6" fill="#e7deda" fill-rule="evenodd" stroke="none"/>
    </g>
  </defs>
</svg>
