<?xml version="1.0" encoding="UTF-8" standalone="no"?>
<svg xmlns:xlink="http://www.w3.org/1999/xlink" height="66.15px" width="66.0px" xmlns="http://www.w3.org/2000/svg">
  <g transform="matrix(1.5, 0.0, 0.0, 1.5, -0.075, -0.15)">
    <use height="40.4" transform="matrix(1.0, 0.0, 0.0, 1.0, 1.65, 2.35)" width="40.3" xlink:href="#shape0"/>
    <use height="20.15" transform="matrix(1.1594, 0.0, 0.0, 1.1605, 6.1, 5.4)" width="28.2" xlink:href="#sprite0"/>
    <use height="44.1" transform="matrix(1.0, 0.0, 0.0, 1.0, 0.05, 0.1)" width="44.0" xlink:href="#shape2"/>
    <use height="8.6" transform="matrix(1.2077, 0.0, 0.0, 1.2065, 1.0085, 0.9)" width="35.05" xlink:href="#sprite1"/>
  </g>
  <defs>
    <g id="shape0" transform="matrix(1.0, 0.0, 0.0, 1.0, -1.65, -2.35)">
      <path d="M7.6 8.3 Q13.45 2.35 21.85 2.35 30.2 2.35 36.1 8.3 41.95 14.2 41.95 22.55 41.95 30.9 36.1 36.85 30.2 42.75 21.85 42.75 13.45 42.75 7.6 36.85 1.65 30.9 1.65 22.55 1.65 14.2 7.6 8.3" fill="url(#gradient0)" fill-rule="evenodd" stroke="none"/>
      <path d="M21.4 8.1 L22.3 10.0 22.4 10.3 23.25 10.85 Q23.8 11.45 23.85 12.2 L19.35 12.2 Q19.4 11.45 20.0 10.85 20.15 10.65 20.45 10.45 L20.55 10.2 20.0 9.0 Q19.8 8.7 19.9 8.4 L20.2 7.85 20.95 7.75 21.4 8.05 21.4 8.1 M26.1 14.5 Q27.85 16.3 27.85 18.8 27.85 20.05 27.45 21.1 27.0 22.25 26.1 23.2 L24.4 24.4 Q23.15 24.95 21.7 24.95 L21.4 24.95 19.6 24.6 Q18.35 24.15 17.4 23.2 16.45 22.25 16.05 21.15 L15.85 20.55 15.7 19.8 15.6 18.8 Q15.6 16.3 17.35 14.5 L17.4 14.5 17.6 14.25 Q18.5 13.5 19.45 13.15 L19.55 13.05 24.05 13.05 25.8 14.2 26.1 14.5 M22.65 22.75 Q24.6 22.75 24.6 20.55 24.65 19.45 24.2 19.45 23.75 19.45 23.75 20.65 23.8 21.9 22.7 21.9 22.0 21.9 21.6 20.7 21.3 19.5 20.3 19.5 19.25 19.5 18.6 20.4 L17.75 21.55 Q17.6 21.85 17.75 22.1 L18.2 22.35 19.0 21.35 Q19.5 20.3 20.0 20.3 20.5 20.3 21.05 21.5 21.6 22.75 22.65 22.75 M24.6 16.45 Q24.65 15.35 24.2 15.35 23.75 15.35 23.75 16.6 23.8 17.8 22.7 17.8 22.0 17.8 21.6 16.6 21.3 15.4 20.3 15.4 19.25 15.4 18.6 16.3 L17.75 17.45 Q17.6 17.75 17.75 18.0 L18.2 18.25 19.0 17.25 Q19.5 16.2 20.0 16.2 20.5 16.2 21.05 17.45 21.6 18.65 22.65 18.65 24.6 18.65 24.6 16.45 M29.95 16.05 L30.0 16.1 30.85 18.0 30.85 18.05 30.95 18.3 31.8 18.9 Q32.35 19.45 32.4 20.2 L28.25 20.2 28.35 19.15 28.55 18.9 29.0 18.45 29.15 18.2 28.55 17.0 Q28.35 16.75 28.5 16.4 L28.75 15.9 29.5 15.75 29.95 16.05 M28.1 21.05 L32.55 21.05 Q33.55 21.5 34.4 22.3 L34.65 22.5 Q36.4 24.3 36.4 26.8 36.4 29.4 34.65 31.2 32.85 32.95 30.25 32.95 L29.95 32.95 Q27.6 32.85 25.95 31.2 24.15 29.4 24.15 26.8 24.15 25.9 24.4 25.15 L24.4 24.95 26.45 23.55 Q27.55 22.4 28.0 21.05 L28.1 21.05 M9.6 22.55 Q10.5 21.8 11.45 21.45 L11.5 21.4 15.5 21.4 15.6 21.4 Q16.05 22.55 17.05 23.55 18.15 24.65 19.6 25.15 L19.6 25.3 19.85 27.15 Q19.85 29.7 18.1 31.5 16.25 33.3 13.7 33.3 L13.45 33.3 Q11.05 33.15 9.4 31.5 7.6 29.7 7.6 27.15 7.6 24.6 9.4 22.85 L9.6 22.55 M11.9 16.7 L12.2 16.2 12.95 16.05 13.4 16.35 13.4 16.45 14.3 18.3 14.3 18.35 14.4 18.6 Q14.75 18.75 15.1 19.05 L15.3 20.55 11.35 20.55 Q11.4 19.75 12.0 19.2 12.15 18.95 12.45 18.8 L12.55 18.5 12.0 17.35 Q11.8 17.05 11.9 16.7 M16.65 28.5 Q15.65 26.85 16.0 24.8 15.3 25.45 14.85 26.7 13.55 24.45 14.25 22.45 12.95 24.75 12.4 27.35 11.9 26.7 11.05 26.25 L10.8 26.15 10.35 25.95 10.6 26.3 10.8 26.7 Q11.1 27.55 10.8 28.45 10.6 29.55 11.05 30.35 L11.5 30.85 Q13.05 31.7 14.3 31.45 15.5 31.2 16.35 30.55 17.2 29.9 16.65 28.5 M33.2 27.95 L30.55 22.75 28.3 27.85 Q27.65 31.1 30.8 31.05 31.7 31.3 32.65 30.4 33.6 29.55 33.2 27.95" fill="#5f3921" fill-rule="evenodd" stroke="none"/>
    </g>
    <linearGradient gradientTransform="matrix(0.0, -0.0155, -0.0189, 0.0, 21.9, 25.55)" gradientUnits="userSpaceOnUse" id="gradient0" spreadMethod="pad" x1="-819.2" x2="819.2">
      <stop offset="0.011764705882352941" stop-color="#bb9a76"/>
      <stop offset="1.0" stop-color="#a87f53"/>
    </linearGradient>
    <g id="sprite0" transform="matrix(1.0, 0.0, 0.0, 1.0, 0.0, 0.0)">
      <use height="20.15" transform="matrix(1.0, 0.0, 0.0, 1.0, 0.0, 0.0)" width="28.2" xlink:href="#shape1"/>
    </g>
    <g id="shape1" transform="matrix(1.0, 0.0, 0.0, 1.0, 0.0, 0.0)">
      <path d="M27.65 18.45 L27.4 18.95 Q26.2 20.8 23.4 19.8 19.6 18.5 17.35 14.05 14.8 9.1 9.75 7.4 4.1 5.65 0.0 10.3 1.0 6.85 3.7 4.15 7.2 0.65 11.9 0.05 L14.8 0.05 18.4 0.65 Q21.55 1.65 24.05 4.15 28.2 8.3 28.2 14.25 28.2 16.45 27.65 18.45" fill="#ffffff" fill-opacity="0.19607843" fill-rule="evenodd" stroke="none"/>
    </g>
    <g id="shape2" transform="matrix(1.0, 0.0, 0.0, 1.0, -0.05, -0.1)">
      <path d="M36.4 22.4 Q36.4 16.45 32.15 12.2 27.95 8.0 22.0 8.0 16.05 8.0 11.8 12.2 7.6 16.45 7.6 22.4 7.6 28.35 11.8 32.55 16.05 36.8 22.0 36.8 27.95 36.8 32.15 32.55 36.4 28.35 36.4 22.4 M34.7 9.65 Q40.0 14.95 40.0 22.4 40.0 29.85 34.7 35.1 29.45 40.4 22.0 40.4 14.55 40.4 9.25 35.1 4.0 29.85 4.0 22.4 4.0 14.95 9.25 9.65 14.55 4.4 22.0 4.4 29.45 4.4 34.7 9.65" fill="#5f3921" fill-rule="evenodd" stroke="none"/>
      <path d="M22.05 4.8 Q14.85 4.8 9.75 9.9 4.7 15.05 4.7 22.15 4.7 29.35 9.75 34.45 14.8 39.55 22.05 39.55 29.2 39.55 34.25 34.45 39.35 29.35 39.35 22.15 39.35 14.95 34.25 9.9 29.2 4.8 22.05 4.8 M36.45 0.1 Q39.65 0.1 41.8 2.35 44.05 4.65 44.05 7.75 L44.05 36.55 Q44.05 39.7 41.8 41.95 39.65 44.15 36.45 44.15 L7.65 44.15 Q4.5 44.15 2.3 41.95 0.05 39.75 0.05 36.55 L0.05 7.75 Q0.05 4.65 2.3 2.35 4.5 0.1 7.65 0.1 L36.45 0.1" fill="url(#gradient1)" fill-rule="evenodd" stroke="none"/>
      <path d="M41.1 22.1 Q41.1 29.95 35.5 35.5 30.0 41.1 22.15 41.1 14.25 41.1 8.75 35.5 3.2 29.95 3.2 22.1 3.2 14.25 8.75 8.7 14.25 3.15 22.15 3.15 30.0 3.15 35.5 8.7 41.1 14.25 41.1 22.1 M33.9 10.45 Q28.95 5.55 22.15 5.5 15.25 5.55 10.4 10.45 5.55 15.2 5.5 22.1 5.55 29.05 10.4 33.9 15.25 38.75 22.15 38.75 28.95 38.75 33.9 33.9 38.7 29.05 38.7 22.1 38.7 15.2 33.9 10.45" fill="url(#gradient2)" fill-rule="evenodd" stroke="none"/>
      <path d="M0.25 25.2 Q0.4 22.75 0.85 20.75 0.6 24.95 0.85 26.6 1.2 29.6 3.15 31.05 L8.15 35.2 Q10.65 37.55 11.05 40.3 L14.6 42.6 10.75 43.0 Q10.0 44.5 7.25 44.15 3.25 43.6 2.45 40.35 1.75 37.75 3.65 36.75 L3.85 34.55 4.55 36.4 Q6.55 36.0 7.0 37.1 7.5 38.15 6.9 39.2 6.3 40.15 5.75 39.35 6.45 39.3 6.55 38.9 6.6 38.5 5.9 37.85 5.3 37.2 4.7 37.5 4.15 37.8 3.85 38.95 3.25 41.4 6.1 42.5 9.05 43.6 9.5 40.9 10.0 38.65 7.2 36.3 L3.45 33.4 0.95 32.9 1.95 31.95 Q0.15 29.95 0.25 25.2" fill="#7a5130" fill-rule="evenodd" stroke="none"/>
      <path d="M0.3 24.3 Q0.45 21.9 0.9 19.9 0.65 24.05 0.9 25.65 1.25 28.65 3.2 30.15 L8.25 34.3 Q10.7 36.65 11.1 39.35 L14.75 42.65 10.85 42.15 Q10.1 43.6 7.3 43.25 3.3 42.65 2.5 39.5 1.8 36.9 3.75 35.9 L3.85 34.45 4.6 35.55 Q6.6 35.15 7.05 36.95 7.3 38.45 6.75 39.15 L5.9 39.5 Q7.2 38.3 5.8 37.0 4.5 35.65 3.9 38.05 3.3 40.5 6.15 41.55 9.1 42.65 9.55 40.0 10.1 37.8 7.25 35.35 L3.45 32.5 3.5 32.55 0.9 32.95 2.0 31.05 Q0.2 29.0 0.3 24.3" fill="#ca935c" fill-rule="evenodd" stroke="none"/>
      <path d="M0.9 21.55 Q0.85 24.5 0.95 25.7 1.45 28.75 3.3 30.25 L8.3 34.35 Q10.75 36.7 11.25 39.35 L14.35 42.25 14.1 42.15 13.95 42.0 12.25 40.8 Q10.4 39.2 10.35 38.1 10.2 36.75 8.5 35.25 L5.25 32.75 Q2.05 30.3 1.2 27.55 0.6 25.95 0.6 22.15 L0.9 21.55 M6.55 36.7 Q5.9 35.7 4.7 35.7 L4.5 35.8 4.4 35.7 4.25 35.7 4.25 34.85 4.75 35.6 Q6.65 35.2 7.15 37.0 7.35 38.05 7.15 38.75 L7.05 38.8 7.05 38.75 6.95 38.2 6.95 38.1 Q6.95 37.35 6.55 36.7 M4.3 40.4 L4.15 39.8 Q4.6 41.0 6.25 41.6 L8.5 41.8 8.6 41.85 7.05 42.15 Q6.25 42.15 5.4 41.45 L4.3 40.4" fill="#d7ad86" fill-rule="evenodd" stroke="none"/>
      <path d="M43.7 25.2 Q43.8 29.95 42.0 31.95 L43.0 32.9 40.5 33.4 36.75 36.3 Q33.95 38.65 34.45 40.9 34.9 43.6 37.85 42.5 40.7 41.4 40.1 38.95 39.8 37.8 39.25 37.5 38.65 37.2 38.05 37.85 37.35 38.5 37.4 38.9 37.5 39.3 38.2 39.35 37.65 40.15 37.05 39.2 36.45 38.15 36.95 37.1 37.4 36.0 39.4 36.4 L40.1 34.55 40.3 36.75 Q42.2 37.75 41.5 40.35 40.7 43.6 36.7 44.15 33.95 44.5 33.2 43.0 L29.35 42.6 32.9 40.3 Q33.3 37.55 35.8 35.2 L40.8 31.05 Q42.75 29.6 43.1 26.6 43.35 24.95 43.1 20.75 L43.7 25.2" fill="#7a5130" fill-rule="evenodd" stroke="none"/>
      <path d="M43.65 24.3 Q43.75 29.0 41.95 31.05 L43.05 32.95 40.45 32.55 40.5 32.5 36.7 35.35 Q33.85 37.8 34.4 40.0 34.85 42.65 37.8 41.55 40.65 40.5 40.05 38.05 39.45 35.65 38.15 37.0 36.75 38.3 38.05 39.5 L37.2 39.15 Q36.65 38.45 36.9 36.95 37.35 35.15 39.35 35.55 L40.1 34.45 40.2 35.9 Q42.15 36.9 41.45 39.5 40.65 42.65 36.65 43.25 33.85 43.6 33.1 42.15 L29.2 42.65 32.85 39.35 Q33.25 36.65 35.7 34.3 L40.75 30.15 Q42.7 28.65 43.05 25.65 43.3 24.05 43.05 19.9 L43.65 24.3" fill="#ca935c" fill-rule="evenodd" stroke="none"/>
      <path d="M37.4 36.7 Q37.0 37.35 37.0 38.1 L37.0 38.2 36.9 38.75 36.9 38.8 36.8 38.75 Q36.6 38.05 36.8 37.0 37.3 35.2 39.2 35.6 L39.7 34.85 39.7 35.7 39.55 35.7 39.45 35.8 39.25 35.7 Q38.05 35.7 37.4 36.7 M43.05 21.55 L43.35 22.15 Q43.35 25.95 42.75 27.55 41.9 30.3 38.7 32.75 L35.45 35.25 Q33.75 36.75 33.6 38.1 33.55 39.2 31.7 40.8 L30.0 42.0 29.85 42.15 29.6 42.25 32.7 39.35 Q33.2 36.7 35.65 34.35 L40.65 30.25 Q42.5 28.75 43.0 25.7 L43.05 21.55 M39.65 40.4 L38.55 41.45 Q37.7 42.15 36.9 42.15 L35.35 41.85 35.45 41.8 37.7 41.6 Q39.35 41.0 39.8 39.8 L39.65 40.4" fill="#d7ad86" fill-rule="evenodd" stroke="none"/>
    </g>
    <linearGradient gradientTransform="matrix(0.0, -0.0344, -0.0552, 0.0, 22.45, 16.45)" gradientUnits="userSpaceOnUse" id="gradient1" spreadMethod="pad" x1="-819.2" x2="819.2">
      <stop offset="0.0196078431372549" stop-color="#9c6732"/>
      <stop offset="1.0" stop-color="#7d4e2b"/>
    </linearGradient>
    <linearGradient gradientTransform="matrix(1.0E-4, 0.0223, -0.0231, 1.0E-4, 22.2, 22.35)" gradientUnits="userSpaceOnUse" id="gradient2" spreadMethod="pad" x1="-819.2" x2="819.2">
      <stop offset="0.011764705882352941" stop-color="#59351e"/>
      <stop offset="1.0" stop-color="#cc955e"/>
    </linearGradient>
    <g id="sprite1" transform="matrix(1.0, 0.0, 0.0, 1.0, 0.2, 0.0)">
      <use height="8.6" transform="matrix(1.0, 0.0, 0.0, 1.0, -0.2, 0.0)" width="35.05" xlink:href="#shape3"/>
    </g>
    <g id="shape3" transform="matrix(1.0, 0.0, 0.0, 1.0, 0.2, 0.0)">
      <path d="M34.85 8.6 Q34.8 6.95 34.4 5.7 33.0 1.3 27.2 1.3 L7.45 1.3 Q0.05 1.3 -0.2 8.5 L-0.2 7.65 Q-0.2 0.0 7.45 0.0 L27.2 0.0 Q33.0 0.0 34.4 4.4 34.85 5.8 34.85 7.65 L34.85 8.6" fill="#e7deda" fill-rule="evenodd" stroke="none"/>
    </g>
  </defs>
</svg>
