<?xml version="1.0" encoding="UTF-8" standalone="no"?>
<svg xmlns:xlink="http://www.w3.org/1999/xlink" height="66.15px" width="66.0px" xmlns="http://www.w3.org/2000/svg">
  <g transform="matrix(1.5, 0.0, 0.0, 1.5, -0.075, 0.0)">
    <use height="44.05" transform="matrix(1.0, 0.0, 0.0, 1.0, 0.05, 0.0)" width="44.0" xlink:href="#shape0"/>
    <use height="8.6" transform="matrix(1.2077, 0.0, 0.0, 1.2065, 1.0085, 0.8)" width="35.05" xlink:href="#sprite0"/>
    <use height="38.1" transform="matrix(1.0, 0.0, 0.0, 1.0, 2.9, 3.05)" width="38.0" xlink:href="#shape2"/>
    <use height="0.0" transform="matrix(1.2125, 0.0, 0.0, 1.2136, 1.05, 1.0)" width="0.0" xlink:href="#sprite1"/>
    <use height="20.85" transform="matrix(1.0, 0.0, 0.0, 1.0, 0.75, 23.25)" width="42.65" xlink:href="#shape3"/>
    <use height="20.15" transform="matrix(1.1594, 0.0, 0.0, 1.1605, 5.65, 5.55)" width="28.2" xlink:href="#sprite2"/>
  </g>
  <defs>
    <g id="shape0" transform="matrix(1.0, 0.0, 0.0, 1.0, -0.05, 0.0)">
      <path d="M41.85 41.85 Q39.65 44.05 36.45 44.05 L7.65 44.05 Q4.5 44.05 2.3 41.85 0.05 39.65 0.05 36.45 L0.05 7.6 Q0.05 4.5 2.3 2.3 4.5 0.0 7.65 0.0 L36.45 0.0 Q39.6 0.0 41.85 2.3 44.05 4.5 44.05 7.6 L44.05 36.45 Q44.05 39.65 41.85 41.85" fill="url(#gradient0)" fill-rule="evenodd" stroke="none"/>
    </g>
    <linearGradient gradientTransform="matrix(0.0, -0.0283, -0.0551, 0.0, 22.65, 22.0)" gradientUnits="userSpaceOnUse" id="gradient0" spreadMethod="pad" x1="-819.2" x2="819.2">
      <stop offset="0.011764705882352941" stop-color="#9dae7c"/>
      <stop offset="1.0" stop-color="#7e8f45"/>
    </linearGradient>
    <g id="sprite0" transform="matrix(1.0, 0.0, 0.0, 1.0, 0.2, 0.0)">
      <use height="8.6" transform="matrix(1.0, 0.0, 0.0, 1.0, -0.2, 0.0)" width="35.05" xlink:href="#shape1"/>
    </g>
    <g id="shape1" transform="matrix(1.0, 0.0, 0.0, 1.0, 0.2, 0.0)">
      <path d="M34.85 8.6 Q34.8 6.95 34.4 5.7 33.0 1.3 27.2 1.3 L7.45 1.3 Q0.05 1.3 -0.2 8.5 L-0.2 7.65 Q-0.2 0.0 7.45 0.0 L27.2 0.0 Q33.0 0.0 34.4 4.4 34.85 5.8 34.85 7.65 L34.85 8.6" fill="#e7deda" fill-rule="evenodd" stroke="none"/>
    </g>
    <g id="shape2" transform="matrix(1.0, 0.0, 0.0, 1.0, -2.9, -3.05)">
      <path d="M8.9 8.95 Q14.35 3.5 22.1 3.5 29.8 3.5 35.25 8.95 40.65 14.4 40.65 22.05 40.65 29.8 35.25 35.25 29.8 40.65 22.1 40.65 14.35 40.65 8.9 35.25 3.45 29.8 3.45 22.05 3.45 14.35 8.9 8.95" fill="url(#gradient1)" fill-rule="evenodd" stroke="none"/>
      <path d="M20.35 10.7 L21.85 10.7 21.85 6.85 Q15.75 6.9 11.35 11.25 7.0 15.65 7.0 21.85 L10.7 21.85 10.7 20.65 M21.85 4.8 L21.85 6.85 Q27.9 6.9 32.25 11.25 36.7 15.65 36.7 21.85 L39.75 21.85 M23.35 10.7 L21.85 10.7 21.85 12.3 M23.7 33.4 L21.85 33.4 21.85 36.95 Q27.9 36.9 32.25 32.5 36.7 28.1 36.7 21.9 L36.7 21.85 32.95 21.85 32.95 23.75 M31.4 21.85 L32.95 21.85 32.95 20.65 M21.85 40.5 L21.85 36.95 Q15.75 36.9 11.35 32.5 7.0 28.1 7.0 21.9 L7.0 21.85 3.85 21.85 M12.25 21.85 L10.7 21.85 10.7 23.75 M19.9 33.4 L21.85 33.4 21.85 31.95" fill="none" stroke="#5a6f37" stroke-linecap="round" stroke-linejoin="round" stroke-width="1.0"/>
      <path d="M16.0 10.95 L20.9 17.95 20.9 19.0 20.1 19.0 20.1 21.05 17.75 21.05 17.75 22.45 20.1 22.45 20.1 24.8 20.85 24.8 20.85 26.1 14.95 32.1 17.7 24.95 10.55 29.5 16.95 23.95 13.3 21.95 Q15.05 21.2 16.75 20.4 L10.65 14.8 17.5 19.05 16.0 10.95" fill="#5a6f37" fill-rule="evenodd" stroke="none"/>
      <path d="M26.95 10.95 L25.45 19.05 32.85 14.9 26.2 20.4 30.0 22.1 26.0 23.95 33.6 28.55 25.25 24.95 28.0 32.1 22.1 26.1 22.1 24.8 22.85 24.8 22.85 22.45 25.2 22.45 25.2 21.05 22.85 21.05 22.85 19.0 22.05 19.0 22.05 17.95 26.95 10.95" fill="#5a6f37" fill-rule="evenodd" stroke="none"/>
      <path d="M33.75 10.35 Q28.8 5.5 21.9 5.4 15.0 5.5 10.15 10.35 5.25 15.15 5.2 22.05 5.25 29.05 10.15 33.9 15.0 38.8 21.9 38.8 28.8 38.8 33.75 33.9 38.55 29.05 38.55 22.05 38.55 15.15 33.75 10.35 M40.9 22.05 Q40.9 29.95 35.3 35.5 29.8 41.15 21.9 41.15 13.95 41.15 8.45 35.5 2.9 29.95 2.9 22.05 2.9 14.1 8.45 8.6 13.95 3.05 21.9 3.05 29.8 3.05 35.3 8.6 40.9 14.1 40.9 22.05" fill="url(#gradient2)" fill-rule="evenodd" stroke="none"/>
    </g>
    <linearGradient gradientTransform="matrix(0.0, -0.0173, -0.0173, 0.0, 22.1, 18.55)" gradientUnits="userSpaceOnUse" id="gradient1" spreadMethod="pad" x1="-819.2" x2="819.2">
      <stop offset="0.011764705882352941" stop-color="#d3d4b5"/>
      <stop offset="1.0" stop-color="#71a26f"/>
    </linearGradient>
    <linearGradient gradientTransform="matrix(1.0E-4, 0.0224, -0.0232, 1.0E-4, 21.95, 22.35)" gradientUnits="userSpaceOnUse" id="gradient2" spreadMethod="pad" x1="-819.2" x2="819.2">
      <stop offset="0.011764705882352941" stop-color="#516537"/>
      <stop offset="1.0" stop-color="#a8ce99"/>
    </linearGradient>
    <g id="shape3" transform="matrix(1.0, 0.0, 0.0, 1.0, -0.75, -23.25)">
      <path d="M0.9 32.95 Q1.2 30.6 2.45 29.4 L2.85 27.7 Q3.0 26.7 2.75 25.65 L2.45 24.6 1.8 23.25 2.85 24.35 3.7 25.55 4.0 26.95 Q4.1 27.85 3.4 29.65 2.75 31.25 2.6 33.45 L2.5 33.2 2.45 33.45 Q1.9 36.25 3.05 38.2 3.6 39.15 4.3 39.7 L4.0 39.2 4.1 39.25 4.35 39.75 Q4.95 40.5 5.8 40.65 6.9 40.85 7.95 39.95 9.2 39.0 8.25 37.65 L8.3 38.5 Q8.1 39.45 6.75 39.9 L5.75 40.1 5.75 40.0 5.65 38.8 Q5.6 37.05 7.05 36.15 8.55 35.2 10.05 36.75 L11.25 38.55 Q11.2 36.7 10.3 35.75 L10.45 35.9 Q11.15 36.65 11.45 37.6 L11.4 37.6 11.55 38.0 11.85 38.85 11.9 40.0 Q10.5 42.9 8.7 42.9 10.0 42.7 10.1 41.55 7.2 42.75 3.75 41.05 1.25 39.1 0.9 32.95" fill="#9ec087" fill-rule="evenodd" stroke="none"/>
      <path d="M2.6 33.45 L2.65 34.75 Q3.0 36.5 3.85 37.65 L3.95 37.05 Q4.65 35.05 7.35 34.5 L9.25 34.95 10.3 35.75 Q11.2 36.7 11.25 38.55 L10.05 36.75 Q8.55 35.2 7.05 36.15 5.6 37.05 5.65 38.8 L5.75 40.0 5.75 40.1 6.75 39.9 Q8.1 39.45 8.3 38.5 L8.25 37.65 Q9.2 39.0 7.95 39.95 6.9 40.85 5.8 40.65 4.95 40.5 4.35 39.75 L4.1 39.25 4.0 39.2 4.3 39.7 Q3.6 39.15 3.05 38.2 1.9 36.25 2.45 33.45 L2.6 33.45 M4.0 39.2 L4.15 39.15 4.1 39.0 3.95 39.05 4.0 39.2" fill="#c0d6b1" fill-rule="evenodd" stroke="none"/>
      <path d="M2.45 33.45 L2.5 33.2 2.6 33.45 2.45 33.45" fill="#00632e" fill-rule="evenodd" stroke="none"/>
      <path d="M11.9 40.0 Q11.8 41.15 11.15 42.25 10.15 44.05 7.05 44.1 L4.15 43.8 5.65 43.35 7.85 43.05 6.6 43.15 Q4.45 43.1 2.9 41.6 1.0 39.55 0.8 35.45 0.7 34.05 0.9 32.95 1.25 39.1 3.75 41.05 7.2 42.75 10.1 41.55 10.0 42.7 8.7 42.9 10.5 42.9 11.9 40.0" fill="#648a4a" fill-rule="evenodd" stroke="none"/>
      <path d="M4.0 39.2 L3.95 39.05 4.1 39.0 4.15 39.15 4.0 39.2" fill="#ccbf38" fill-rule="evenodd" stroke="none"/>
      <path d="M11.45 37.6 L11.55 38.0 11.4 37.6 11.45 37.6" fill="url(#gradient3)" fill-rule="evenodd" stroke="none"/>
      <path d="M41.55 33.45 Q41.4 31.25 40.75 29.65 40.05 27.85 40.15 26.95 L40.45 25.55 41.3 24.35 42.35 23.25 41.7 24.6 41.4 25.65 Q41.15 26.7 41.3 27.7 L41.7 29.4 Q42.95 30.6 43.25 32.95 42.9 39.1 40.4 41.05 36.95 42.75 34.05 41.55 34.15 42.7 35.45 42.9 33.65 42.9 32.25 40.0 32.2 39.45 32.3 38.85 L32.6 38.0 32.75 37.6 32.7 37.6 Q33.0 36.65 33.7 35.9 L33.85 35.75 Q32.95 36.7 32.9 38.55 33.35 37.6 34.1 36.75 35.6 35.2 37.1 36.15 38.55 37.05 38.5 38.8 L38.4 40.0 38.4 40.1 37.4 39.9 Q36.05 39.45 35.85 38.5 L35.9 37.65 Q34.95 39.0 36.2 39.95 37.25 40.85 38.35 40.65 39.2 40.5 39.8 39.75 L40.05 39.25 40.15 39.2 39.85 39.7 41.1 38.2 Q42.25 36.25 41.7 33.45 L41.65 33.2 41.55 33.45" fill="#9ec087" fill-rule="evenodd" stroke="none"/>
      <path d="M41.55 33.45 L41.65 33.2 41.7 33.45 41.55 33.45" fill="#00632e" fill-rule="evenodd" stroke="none"/>
      <path d="M41.7 33.45 Q42.25 36.25 41.1 38.2 L39.85 39.7 40.15 39.2 40.05 39.25 39.8 39.75 Q39.2 40.5 38.35 40.65 37.25 40.85 36.2 39.95 34.95 39.0 35.9 37.65 L35.85 38.5 Q36.05 39.45 37.4 39.9 L38.4 40.1 38.4 40.0 38.5 38.8 Q38.55 37.05 37.1 36.15 35.6 35.2 34.1 36.75 33.35 37.6 32.9 38.55 32.95 36.7 33.85 35.75 L34.9 34.95 36.8 34.5 Q39.5 35.05 40.2 37.05 L40.3 37.65 Q41.15 36.5 41.5 34.75 L41.55 33.45 41.7 33.45 M40.15 39.2 L40.2 39.05 40.05 39.0 40.0 39.15 40.15 39.2" fill="#c0d6b1" fill-rule="evenodd" stroke="none"/>
      <path d="M32.25 40.0 Q33.65 42.9 35.45 42.9 34.15 42.7 34.05 41.55 36.95 42.75 40.4 41.05 42.9 39.1 43.25 32.95 L43.35 35.45 Q43.15 39.55 41.25 41.6 39.7 43.1 37.55 43.15 L36.3 43.05 38.5 43.35 40.0 43.8 37.1 44.1 Q34.0 44.05 33.0 42.25 32.35 41.15 32.25 40.0" fill="#648a4a" fill-rule="evenodd" stroke="none"/>
      <path d="M40.15 39.2 L40.0 39.15 40.05 39.0 40.2 39.05 40.15 39.2" fill="#ccbf38" fill-rule="evenodd" stroke="none"/>
      <path d="M32.7 37.6 L32.75 37.6 32.6 38.0 32.7 37.6" fill="url(#gradient4)" fill-rule="evenodd" stroke="none"/>
    </g>
    <linearGradient gradientTransform="matrix(0.0, -0.025, -0.025, 0.0, 6.15, 31.55)" gradientUnits="userSpaceOnUse" id="gradient3" spreadMethod="pad" x1="-819.2" x2="819.2">
      <stop offset="0.011764705882352941" stop-color="#bed9a5"/>
      <stop offset="1.0" stop-color="#739416"/>
    </linearGradient>
    <linearGradient gradientTransform="matrix(0.0, -0.025, 0.025, 0.0, 37.95, 31.55)" gradientUnits="userSpaceOnUse" id="gradient4" spreadMethod="pad" x1="-819.2" x2="819.2">
      <stop offset="0.011764705882352941" stop-color="#bed9a5"/>
      <stop offset="1.0" stop-color="#739416"/>
    </linearGradient>
    <g id="sprite2" transform="matrix(1.0, 0.0, 0.0, 1.0, 0.0, 0.0)">
      <use height="20.15" transform="matrix(1.0, 0.0, 0.0, 1.0, 0.0, 0.0)" width="28.2" xlink:href="#shape4"/>
    </g>
    <g id="shape4" transform="matrix(1.0, 0.0, 0.0, 1.0, 0.0, 0.0)">
      <path d="M27.65 18.45 L27.4 18.95 Q26.2 20.8 23.4 19.8 19.6 18.5 17.35 14.05 14.8 9.1 9.75 7.4 4.1 5.65 0.0 10.3 1.0 6.85 3.7 4.15 7.2 0.65 11.9 0.05 L14.8 0.05 18.4 0.65 Q21.55 1.65 24.05 4.15 28.2 8.3 28.2 14.25 28.2 16.45 27.65 18.45" fill="#ffffff" fill-opacity="0.19607843" fill-rule="evenodd" stroke="none"/>
    </g>
  </defs>
</svg>
