<?xml version="1.0" encoding="UTF-8" standalone="no"?>
<svg xmlns:xlink="http://www.w3.org/1999/xlink" height="67.05px" width="66.0px" xmlns="http://www.w3.org/2000/svg">
  <g transform="matrix(1.5, 0.0, 0.0, 1.5, 0.225, 0.225)">
    <use height="43.75" transform="matrix(1.0, 0.0, 0.0, 1.0, 0.0, -0.15)" width="43.65" xlink:href="#shape0"/>
    <use height="20.15" transform="matrix(1.1594, 0.0, 0.0, 1.1605, 6.05, 5.0)" width="28.2" xlink:href="#sprite0"/>
    <use height="41.2" transform="matrix(1.0, 0.0, 0.0, 1.0, -0.15, 3.35)" width="44.0" xlink:href="#shape2"/>
    <use height="8.6" transform="matrix(1.2077, 0.0, 0.0, 1.2065, 0.6585, 1.1)" width="35.05" xlink:href="#sprite1"/>
  </g>
  <defs>
    <g id="shape0" transform="matrix(1.0, 0.0, 0.0, 1.0, 0.0, 0.15)">
      <path d="M36.1 0.0 Q39.25 0.0 41.45 2.2 43.65 4.4 43.65 7.5 L43.65 36.1 Q43.65 39.2 41.45 41.4 39.25 43.6 36.1 43.6 L7.55 43.6 Q4.4 43.6 2.2 41.4 0.0 39.2 0.0 36.1 L0.0 7.5 Q0.0 4.4 2.2 2.2 4.4 0.0 7.55 0.0 L36.1 0.0" fill="url(#gradient0)" fill-rule="evenodd" stroke="none"/>
      <path d="M21.75 4.35 Q29.35 4.35 34.65 9.65 39.95 14.95 39.95 22.5 39.95 30.0 34.65 35.3 29.35 40.65 21.75 40.65 14.3 40.65 9.0 35.3 3.65 30.0 3.65 22.5 3.65 14.95 9.0 9.65 14.3 4.35 21.75 4.35" fill="url(#gradient1)" fill-rule="evenodd" stroke="none"/>
      <path d="M28.2 13.8 L33.15 13.8 33.15 18.9 28.2 18.9 28.2 24.1 23.05 24.1 23.05 18.9 18.05 18.9 18.05 13.8 23.05 13.8 23.05 9.05 28.2 9.05 28.2 13.8 M35.7 22.25 Q36.45 22.95 37.7 22.9 35.9 23.0 35.45 23.7 34.95 24.4 34.95 25.6 34.85 24.45 34.25 23.75 33.55 22.9 32.1 22.75 33.25 22.8 34.0 22.25 34.8 21.65 35.0 19.7 34.95 21.55 35.7 22.25 M8.95 4.25 L8.9 2.9 9.0 2.9 8.95 4.25 M12.8 18.55 Q12.7 17.4 12.1 16.7 11.4 15.85 9.95 15.7 11.1 15.75 11.85 15.2 12.65 14.6 12.85 12.65 12.8 14.5 13.55 15.2 14.3 15.9 15.5 15.85 13.75 15.95 13.3 16.65 12.8 17.35 12.8 18.55 M26.3 31.2 Q27.45 31.25 28.2 30.7 29.0 30.1 29.2 28.15 29.15 30.0 29.9 30.7 30.65 31.4 31.9 31.35 30.1 31.45 29.65 32.15 29.15 32.85 29.15 34.05 29.05 32.9 28.45 32.2 27.75 31.35 26.3 31.2" fill="#92300b" fill-rule="evenodd" stroke="none"/>
      <path d="M3.85 6.75 L3.8 6.05 M8.9 2.9 L8.95 4.25 M6.1 0.8 L5.8 -0.15" fill="none" stroke="#5f3921" stroke-linecap="round" stroke-linejoin="round" stroke-width="0.05"/>
      <path d="M21.6 23.65 L21.35 23.7 20.95 24.05 21.65 24.25 21.6 26.1 20.75 27.05 21.6 27.25 21.65 28.6 21.5 30.0 20.7 30.1 21.6 30.4 21.6 30.45 21.3 33.0 16.9 32.25 16.45 31.8 16.55 31.1 16.5 30.05 15.8 27.8 17.75 27.1 19.05 25.95 18.5 24.2 18.45 24.2 18.4 24.05 18.45 24.0 18.4 24.0 17.5 20.95 21.3 20.75 21.5 23.5 21.6 23.65 M14.25 25.0 L13.2 23.8 14.5 26.3 12.65 32.2 11.55 32.55 12.8 32.35 14.65 26.7 15.35 27.8 16.15 30.35 16.1 32.0 16.6 32.65 19.05 33.0 Q16.85 35.0 14.9 35.4 14.0 35.6 13.15 35.4 L10.5 37.2 Q8.95 36.15 7.9 34.7 L6.45 32.95 Q6.05 32.65 6.2 32.05 L8.95 29.7 11.35 20.95 16.5 20.3 18.4 25.7 16.95 27.05 15.6 27.25 14.25 25.0" fill="#92300b" fill-rule="evenodd" stroke="none"/>
    </g>
    <linearGradient gradientTransform="matrix(0.0, -0.0546, -0.0546, 0.0, 21.8, 18.15)" gradientUnits="userSpaceOnUse" id="gradient0" spreadMethod="pad" x1="-819.2" x2="819.2">
      <stop offset="0.011764705882352941" stop-color="#bf809f"/>
      <stop offset="1.0" stop-color="#543c7c"/>
    </linearGradient>
    <linearGradient gradientTransform="matrix(0.0, -0.0169, -0.0169, 0.0, 21.75, 18.95)" gradientUnits="userSpaceOnUse" id="gradient1" spreadMethod="pad" x1="-819.2" x2="819.2">
      <stop offset="0.011764705882352941" stop-color="#f9cfb3"/>
      <stop offset="1.0" stop-color="#ff5b79"/>
    </linearGradient>
    <g id="sprite0" transform="matrix(1.0, 0.0, 0.0, 1.0, 0.0, 0.0)">
      <use height="20.15" transform="matrix(1.0, 0.0, 0.0, 1.0, 0.0, 0.0)" width="28.2" xlink:href="#shape1"/>
    </g>
    <g id="shape1" transform="matrix(1.0, 0.0, 0.0, 1.0, 0.0, 0.0)">
      <path d="M27.65 18.45 L27.4 18.95 Q26.2 20.8 23.4 19.8 19.6 18.5 17.35 14.05 14.8 9.1 9.75 7.4 4.1 5.65 0.0 10.3 1.0 6.85 3.7 4.15 7.2 0.65 11.9 0.05 L14.8 0.05 18.4 0.65 Q21.55 1.65 24.05 4.15 28.2 8.3 28.2 14.25 28.2 16.45 27.65 18.45" fill="#ffffff" fill-opacity="0.19607843" fill-rule="evenodd" stroke="none"/>
    </g>
    <g id="shape2" transform="matrix(1.0, 0.0, 0.0, 1.0, 0.15, -3.35)">
      <path d="M38.0 34.15 L38.8 34.05 Q40.8 31.95 42.55 25.85 L43.65 20.9 43.65 20.95 43.55 22.8 42.4 27.2 Q42.0 29.15 40.8 31.5 L39.65 33.55 Q39.1 34.4 37.85 34.45 L37.45 34.55 37.4 34.55 37.15 34.35 38.0 34.15 M40.55 35.55 L41.05 36.1 41.85 32.6 41.85 32.5 42.0 32.35 41.3 36.2 41.2 36.25 40.6 36.2 40.55 35.75 40.55 35.55 M39.6 43.3 L39.6 43.45 39.2 43.65 38.75 43.85 38.8 43.7 39.25 42.8 39.35 42.5 39.45 42.15 39.45 42.1 39.45 42.05 39.5 41.85 39.5 41.0 39.3 40.5 39.0 39.9 38.75 39.45 37.85 38.65 37.5 38.4 37.7 38.35 Q38.85 38.35 39.35 40.0 L39.7 41.85 39.6 43.3 M37.0 35.8 L37.05 35.85 36.4 36.75 34.5 39.2 Q31.75 42.9 29.05 42.9 L28.25 42.85 28.45 42.8 28.7 42.7 29.7 42.35 30.75 42.0 Q32.4 41.45 34.85 38.55 L37.0 35.8 M0.0 20.95 L0.0 20.9 1.1 25.85 Q2.85 31.95 4.85 34.05 L5.7 34.15 6.5 34.35 6.25 34.55 6.2 34.55 5.8 34.45 Q4.6 34.4 4.0 33.55 L2.85 31.5 Q1.7 29.15 1.3 27.2 L0.1 22.8 0.0 20.95 M1.8 32.5 L1.8 32.6 2.6 36.1 3.15 35.55 3.15 35.75 3.05 36.2 2.45 36.25 2.4 36.2 1.7 32.35 1.8 32.5 M15.4 42.85 L14.6 42.9 Q11.95 42.9 9.15 39.2 L7.25 36.75 6.6 35.85 6.65 35.8 8.8 38.55 Q11.25 41.45 12.9 42.0 L13.95 42.35 14.95 42.7 15.25 42.8 15.4 42.85 M4.05 43.3 L3.95 41.85 Q3.95 40.95 4.3 40.0 4.8 38.35 5.95 38.35 L6.15 38.4 5.8 38.65 4.9 39.45 4.65 39.9 4.35 40.5 4.15 41.0 4.15 41.85 4.25 42.05 4.25 42.1 4.25 42.15 4.3 42.5 4.4 42.8 4.85 43.7 4.9 43.85 4.45 43.65 4.05 43.45 4.05 43.3" fill="#c8a6c1" fill-rule="evenodd" stroke="none"/>
      <path d="M43.65 20.95 L43.85 20.15 43.75 20.9 43.65 24.35 Q43.65 25.75 41.85 30.25 L39.9 34.9 40.05 35.1 40.55 35.55 40.55 35.75 40.6 36.2 41.2 36.25 41.3 36.2 42.0 32.35 41.85 32.5 42.4 30.5 42.55 38.95 37.8 34.85 37.45 34.55 37.85 34.45 Q39.1 34.4 39.65 33.55 L40.8 31.5 Q42.0 29.15 42.4 27.2 L43.55 22.8 43.65 20.95 M37.5 34.25 L38.0 34.15 37.15 34.35 37.5 34.25 M42.4 40.2 L42.05 40.95 Q41.35 42.25 39.6 43.3 L39.7 41.85 39.35 40.0 Q38.85 38.35 37.7 38.35 L37.5 38.4 36.75 37.95 33.8 42.25 34.2 42.25 34.85 42.25 38.1 41.6 37.9 41.8 37.3 42.45 36.55 43.2 28.6 43.6 27.05 43.45 26.75 43.35 26.7 43.35 27.0 43.25 27.1 43.25 28.25 42.85 29.05 42.9 Q31.75 42.9 34.5 39.2 L36.4 36.75 37.05 35.85 37.0 35.8 42.3 40.2 42.4 40.2 M5.7 34.15 L6.15 34.25 6.5 34.35 5.7 34.15 M1.1 38.95 L1.3 30.5 1.8 32.5 1.7 32.35 2.4 36.2 2.45 36.25 3.05 36.2 3.15 35.75 3.15 35.55 3.6 35.1 3.75 34.9 1.8 30.25 Q0.0 25.75 0.0 24.35 L-0.1 20.9 -0.15 20.15 0.0 20.95 0.1 22.8 1.3 27.2 Q1.7 29.15 2.85 31.5 L4.0 33.55 Q4.6 34.4 5.8 34.45 L6.2 34.55 5.85 34.85 1.1 38.95 M6.65 35.8 L6.6 35.85 7.25 36.75 9.15 39.2 Q11.95 42.9 14.6 42.9 L15.4 42.85 16.55 43.25 16.7 43.25 16.95 43.35 16.9 43.35 16.6 43.45 15.05 43.6 7.1 43.2 6.35 42.45 5.75 41.8 5.55 41.6 8.8 42.25 9.45 42.25 9.85 42.25 6.9 37.95 6.15 38.4 5.95 38.35 Q4.8 38.35 4.3 40.0 3.95 40.95 3.95 41.85 L4.05 43.3 Q2.3 42.25 1.6 40.95 L1.3 40.2 1.35 40.2 6.65 35.8" fill="#4a3355" fill-rule="evenodd" stroke="none"/>
      <path d="M43.75 20.9 L43.85 20.8 43.65 24.9 Q43.65 26.95 40.05 35.1 L39.9 34.9 41.85 30.25 Q43.65 25.75 43.65 24.35 L43.75 20.9 M42.55 38.95 L42.55 39.6 37.3 35.1 37.6 35.1 37.8 34.85 42.55 38.95 M42.05 40.95 L42.3 40.95 Q41.65 42.9 38.75 44.55 L39.2 43.65 39.6 43.45 39.6 43.3 Q41.35 42.25 42.05 40.95 M28.6 43.6 L36.55 43.2 37.3 42.45 37.85 42.45 36.55 43.8 Q34.8 44.7 26.75 44.0 L26.9 43.85 27.7 43.6 27.9 43.7 28.6 43.6 M34.2 42.25 L33.8 42.25 36.75 37.95 37.5 38.4 37.85 38.65 38.75 39.45 39.0 39.9 39.3 40.5 39.5 41.0 39.5 41.85 Q39.45 40.95 38.75 40.05 37.85 39.05 36.75 38.5 L34.2 42.25 M6.35 35.1 L1.1 39.6 1.1 38.95 5.85 34.85 6.1 35.1 6.35 35.1 M3.6 35.1 Q0.0 26.95 0.0 24.9 L-0.15 20.8 -0.1 20.9 0.0 24.35 Q0.0 25.75 1.8 30.25 L3.75 34.9 3.6 35.1 M1.6 40.95 Q2.3 42.25 4.05 43.3 L4.05 43.45 4.45 43.65 4.9 44.55 Q2.05 42.9 1.35 40.95 L1.6 40.95 M6.15 38.4 L6.9 37.95 9.85 42.25 9.45 42.25 6.9 38.5 Q5.8 39.05 4.9 40.05 4.25 40.95 4.15 41.85 L4.15 41.0 4.35 40.5 4.65 39.9 4.9 39.45 5.8 38.65 6.15 38.4 M6.35 42.45 L7.1 43.2 15.05 43.6 15.75 43.7 16.0 43.6 16.75 43.85 16.9 44.0 Q8.85 44.7 7.1 43.8 L5.8 42.45 6.35 42.45" fill="#0b000a" fill-rule="evenodd" stroke="none"/>
      <path d="M37.3 35.1 L37.25 35.0 37.15 34.9 37.1 34.35 37.5 34.25 37.15 34.35 37.4 34.55 37.45 34.55 37.8 34.85 37.6 35.1 37.3 35.1 M42.3 40.95 L42.05 40.95 42.4 40.2 42.5 40.7 42.4 40.95 42.3 40.95 M27.1 43.25 L27.0 43.25 27.05 43.2 27.1 43.25 M26.75 43.35 L27.05 43.45 28.6 43.6 27.9 43.7 27.7 43.6 26.9 43.85 26.75 44.0 26.75 43.35 M37.3 42.45 L37.9 41.8 38.1 41.95 38.1 42.4 37.85 42.45 37.3 42.45 M6.15 34.25 L6.55 34.35 6.5 34.9 6.45 35.0 6.35 35.1 6.1 35.1 5.85 34.85 6.2 34.55 6.25 34.55 6.5 34.35 6.15 34.25 M1.3 40.2 L1.6 40.95 1.35 40.95 1.3 40.95 1.15 40.7 Q1.15 40.3 1.3 40.2 M5.75 41.8 L6.35 42.45 5.8 42.45 5.55 42.4 5.55 41.95 Q5.6 41.8 5.75 41.8 M15.05 43.6 L16.6 43.45 16.9 43.35 16.9 44.0 16.75 43.85 16.0 43.6 15.75 43.7 15.05 43.6 M16.7 43.25 L16.55 43.25 16.6 43.2 16.7 43.25" fill="#000000" fill-rule="evenodd" stroke="none"/>
      <path d="M33.75 10.65 Q28.8 5.8 21.9 5.75 15.05 5.8 10.15 10.65 5.3 15.45 5.25 22.35 5.3 29.3 10.15 34.15 15.05 39.0 21.9 39.0 28.8 39.0 33.75 34.15 38.55 29.3 38.55 22.35 38.55 15.45 33.75 10.65 M35.3 8.9 Q40.9 14.4 40.9 22.35 40.9 30.2 35.3 35.7 29.8 41.4 21.9 41.4 14.0 41.4 8.5 35.7 2.95 30.2 2.95 22.35 2.95 14.4 8.5 8.9 14.0 3.35 21.9 3.35 29.8 3.35 35.3 8.9" fill="url(#gradient2)" fill-rule="evenodd" stroke="none"/>
    </g>
    <linearGradient gradientTransform="matrix(0.0, 0.0226, -0.0232, 0.0, 21.9, 22.6)" gradientUnits="userSpaceOnUse" id="gradient2" spreadMethod="pad" x1="-819.2" x2="819.2">
      <stop offset="0.0" stop-color="#3d2945"/>
      <stop offset="1.0" stop-color="#cabad6"/>
    </linearGradient>
    <g id="sprite1" transform="matrix(1.0, 0.0, 0.0, 1.0, 0.2, 0.0)">
      <use height="8.6" transform="matrix(1.0, 0.0, 0.0, 1.0, -0.2, 0.0)" width="35.05" xlink:href="#shape3"/>
    </g>
    <g id="shape3" transform="matrix(1.0, 0.0, 0.0, 1.0, 0.2, 0.0)">
      <path d="M34.85 8.6 Q34.8 6.95 34.4 5.7 33.0 1.3 27.2 1.3 L7.45 1.3 Q0.05 1.3 -0.2 8.5 L-0.2 7.65 Q-0.2 0.0 7.45 0.0 L27.2 0.0 Q33.0 0.0 34.4 4.4 34.85 5.8 34.85 7.65 L34.85 8.6" fill="#e7deda" fill-rule="evenodd" stroke="none"/>
    </g>
  </defs>
</svg>
