<?xml version="1.0" encoding="UTF-8" standalone="no"?>
<svg xmlns:xlink="http://www.w3.org/1999/xlink" height="66.15px" width="66.0px" xmlns="http://www.w3.org/2000/svg">
  <g transform="matrix(1.5, 0.0, 0.0, 1.5, -0.075, 0.0)">
    <use height="44.05" transform="matrix(1.0, 0.0, 0.0, 1.0, 0.05, 0.0)" width="44.0" xlink:href="#shape0"/>
    <use height="8.6" transform="matrix(1.2077, 0.0, 0.0, 1.2065, 1.0085, 0.8)" width="35.05" xlink:href="#sprite0"/>
    <use height="38.1" transform="matrix(1.0, 0.0, 0.0, 1.0, 2.9, 3.05)" width="38.0" xlink:href="#shape2"/>
    <use height="0.0" transform="matrix(1.2125, 0.0, 0.0, 1.2136, 1.05, 1.0)" width="0.0" xlink:href="#sprite1"/>
    <use height="39.5" transform="matrix(1.0, 0.0, 0.0, 1.0, 0.75, 4.6)" width="42.65" xlink:href="#shape3"/>
    <use height="20.15" transform="matrix(1.1594, 0.0, 0.0, 1.1605, 5.65, 5.55)" width="28.2" xlink:href="#sprite2"/>
  </g>
  <defs>
    <g id="shape0" transform="matrix(1.0, 0.0, 0.0, 1.0, -0.05, 0.0)">
      <path d="M41.85 41.85 Q39.65 44.05 36.45 44.05 L7.65 44.05 Q4.5 44.05 2.3 41.85 0.05 39.65 0.05 36.45 L0.05 7.6 Q0.05 4.5 2.3 2.3 4.5 0.0 7.65 0.0 L36.45 0.0 Q39.6 0.0 41.85 2.3 44.05 4.5 44.05 7.6 L44.05 36.45 Q44.05 39.65 41.85 41.85" fill="url(#gradient0)" fill-rule="evenodd" stroke="none"/>
    </g>
    <linearGradient gradientTransform="matrix(0.0, -0.0283, -0.0551, 0.0, 22.65, 22.0)" gradientUnits="userSpaceOnUse" id="gradient0" spreadMethod="pad" x1="-819.2" x2="819.2">
      <stop offset="0.011764705882352941" stop-color="#9dae7c"/>
      <stop offset="1.0" stop-color="#7e8f45"/>
    </linearGradient>
    <g id="sprite0" transform="matrix(1.0, 0.0, 0.0, 1.0, 0.2, 0.0)">
      <use height="8.6" transform="matrix(1.0, 0.0, 0.0, 1.0, -0.2, 0.0)" width="35.05" xlink:href="#shape1"/>
    </g>
    <g id="shape1" transform="matrix(1.0, 0.0, 0.0, 1.0, 0.2, 0.0)">
      <path d="M34.85 8.6 Q34.8 6.95 34.4 5.7 33.0 1.3 27.2 1.3 L7.45 1.3 Q0.05 1.3 -0.2 8.5 L-0.2 7.65 Q-0.2 0.0 7.45 0.0 L27.2 0.0 Q33.0 0.0 34.4 4.4 34.85 5.8 34.85 7.65 L34.85 8.6" fill="#e7deda" fill-rule="evenodd" stroke="none"/>
    </g>
    <g id="shape2" transform="matrix(1.0, 0.0, 0.0, 1.0, -2.9, -3.05)">
      <path d="M8.9 8.95 Q14.35 3.5 22.1 3.5 29.8 3.5 35.25 8.95 40.65 14.4 40.65 22.05 40.65 29.8 35.25 35.25 29.8 40.65 22.1 40.65 14.35 40.65 8.9 35.25 3.45 29.8 3.45 22.05 3.45 14.35 8.9 8.95" fill="url(#gradient1)" fill-rule="evenodd" stroke="none"/>
      <path d="M33.75 10.35 Q28.8 5.5 21.9 5.4 15.0 5.5 10.15 10.35 5.25 15.15 5.2 22.05 5.25 29.05 10.15 33.9 15.0 38.8 21.9 38.8 28.8 38.8 33.75 33.9 38.55 29.05 38.55 22.05 38.55 15.15 33.75 10.35 M40.9 22.05 Q40.9 29.95 35.3 35.5 29.8 41.15 21.9 41.15 13.95 41.15 8.45 35.5 2.9 29.95 2.9 22.05 2.9 14.1 8.45 8.6 13.95 3.05 21.9 3.05 29.8 3.05 35.3 8.6 40.9 14.1 40.9 22.05" fill="url(#gradient2)" fill-rule="evenodd" stroke="none"/>
    </g>
    <linearGradient gradientTransform="matrix(0.0, -0.0173, -0.0173, 0.0, 22.1, 18.55)" gradientUnits="userSpaceOnUse" id="gradient1" spreadMethod="pad" x1="-819.2" x2="819.2">
      <stop offset="0.011764705882352941" stop-color="#d3d4b5"/>
      <stop offset="1.0" stop-color="#71a26f"/>
    </linearGradient>
    <linearGradient gradientTransform="matrix(1.0E-4, 0.0224, -0.0232, 1.0E-4, 21.95, 22.35)" gradientUnits="userSpaceOnUse" id="gradient2" spreadMethod="pad" x1="-819.2" x2="819.2">
      <stop offset="0.011764705882352941" stop-color="#516537"/>
      <stop offset="1.0" stop-color="#a8ce99"/>
    </linearGradient>
    <g id="shape3" transform="matrix(1.0, 0.0, 0.0, 1.0, -0.75, -4.6)">
      <path d="M0.9 32.95 Q1.2 30.6 2.45 29.4 L2.85 27.7 Q3.0 26.7 2.75 25.65 L2.45 24.6 1.8 23.25 2.85 24.35 3.7 25.55 4.0 26.95 Q4.1 27.85 3.4 29.65 2.75 31.25 2.6 33.45 L2.5 33.2 2.45 33.45 Q1.9 36.25 3.05 38.2 3.6 39.15 4.3 39.7 L4.0 39.2 4.1 39.25 4.35 39.75 Q4.95 40.5 5.8 40.65 6.9 40.85 7.95 39.95 9.2 39.0 8.25 37.65 L8.3 38.5 Q8.1 39.45 6.75 39.9 L5.75 40.1 5.75 40.0 5.65 38.8 Q5.6 37.05 7.05 36.15 8.55 35.2 10.05 36.75 L11.25 38.55 Q11.2 36.7 10.3 35.75 L10.45 35.9 Q11.15 36.65 11.45 37.6 L11.4 37.6 11.55 38.0 11.85 38.85 11.9 40.0 Q10.5 42.9 8.7 42.9 10.0 42.7 10.1 41.55 7.2 42.75 3.75 41.05 1.25 39.1 0.9 32.95" fill="#9ec087" fill-rule="evenodd" stroke="none"/>
      <path d="M11.9 40.0 Q11.8 41.15 11.15 42.25 10.15 44.05 7.05 44.1 L4.15 43.8 5.65 43.35 7.85 43.05 6.6 43.15 Q4.45 43.1 2.9 41.6 1.0 39.55 0.8 35.45 0.7 34.05 0.9 32.95 1.25 39.1 3.75 41.05 7.2 42.75 10.1 41.55 10.0 42.7 8.7 42.9 10.5 42.9 11.9 40.0" fill="#648a4a" fill-rule="evenodd" stroke="none"/>
      <path d="M2.6 33.45 L2.65 34.75 Q3.0 36.5 3.85 37.65 L3.95 37.05 Q4.65 35.05 7.35 34.5 L9.25 34.95 10.3 35.75 Q11.2 36.7 11.25 38.55 L10.05 36.75 Q8.55 35.2 7.05 36.15 5.6 37.05 5.65 38.8 L5.75 40.0 5.75 40.1 6.75 39.9 Q8.1 39.45 8.3 38.5 L8.25 37.65 Q9.2 39.0 7.95 39.95 6.9 40.85 5.8 40.65 4.95 40.5 4.35 39.75 L4.1 39.25 4.0 39.2 4.3 39.7 Q3.6 39.15 3.05 38.2 1.9 36.25 2.45 33.45 L2.6 33.45 M4.0 39.2 L4.15 39.15 4.1 39.0 3.95 39.05 4.0 39.2" fill="#c0d6b1" fill-rule="evenodd" stroke="none"/>
      <path d="M2.45 33.45 L2.5 33.2 2.6 33.45 2.45 33.45" fill="#00632e" fill-rule="evenodd" stroke="none"/>
      <path d="M4.0 39.2 L3.95 39.05 4.1 39.0 4.15 39.15 4.0 39.2" fill="#ccbf38" fill-rule="evenodd" stroke="none"/>
      <path d="M11.45 37.6 L11.55 38.0 11.4 37.6 11.45 37.6" fill="url(#gradient3)" fill-rule="evenodd" stroke="none"/>
      <path d="M41.55 33.45 Q41.4 31.25 40.75 29.65 40.05 27.85 40.15 26.95 L40.45 25.55 41.3 24.35 42.35 23.25 41.7 24.6 41.4 25.65 Q41.15 26.7 41.3 27.7 L41.7 29.4 Q42.95 30.6 43.25 32.95 42.9 39.1 40.4 41.05 36.95 42.75 34.05 41.55 34.15 42.7 35.45 42.9 33.65 42.9 32.25 40.0 32.2 39.45 32.3 38.85 L32.6 38.0 32.75 37.6 32.7 37.6 Q33.0 36.65 33.7 35.9 L33.85 35.75 Q32.95 36.7 32.9 38.55 33.35 37.6 34.1 36.75 35.6 35.2 37.1 36.15 38.55 37.05 38.5 38.8 L38.4 40.0 38.4 40.1 37.4 39.9 Q36.05 39.45 35.85 38.5 L35.9 37.65 Q34.95 39.0 36.2 39.95 37.25 40.85 38.35 40.65 39.2 40.5 39.8 39.75 L40.05 39.25 40.15 39.2 39.85 39.7 41.1 38.2 Q42.25 36.25 41.7 33.45 L41.65 33.2 41.55 33.45" fill="#9ec087" fill-rule="evenodd" stroke="none"/>
      <path d="M32.25 40.0 Q33.65 42.9 35.45 42.9 34.15 42.7 34.05 41.55 36.95 42.75 40.4 41.05 42.9 39.1 43.25 32.95 L43.35 35.45 Q43.15 39.55 41.25 41.6 39.7 43.1 37.55 43.15 L36.3 43.05 38.5 43.35 40.0 43.8 37.1 44.1 Q34.0 44.05 33.0 42.25 32.35 41.15 32.25 40.0" fill="#648a4a" fill-rule="evenodd" stroke="none"/>
      <path d="M41.55 33.45 L41.65 33.2 41.7 33.45 41.55 33.45" fill="#00632e" fill-rule="evenodd" stroke="none"/>
      <path d="M41.7 33.45 Q42.25 36.25 41.1 38.2 L39.85 39.7 40.15 39.2 40.05 39.25 39.8 39.75 Q39.2 40.5 38.35 40.65 37.25 40.85 36.2 39.95 34.95 39.0 35.9 37.65 L35.85 38.5 Q36.05 39.45 37.4 39.9 L38.4 40.1 38.4 40.0 38.5 38.8 Q38.55 37.05 37.1 36.15 35.6 35.2 34.1 36.75 33.35 37.6 32.9 38.55 32.95 36.7 33.85 35.75 L34.9 34.95 36.8 34.5 Q39.5 35.05 40.2 37.05 L40.3 37.65 Q41.15 36.5 41.5 34.75 L41.55 33.45 41.7 33.45 M40.15 39.2 L40.2 39.05 40.05 39.0 40.0 39.15 40.15 39.2" fill="#c0d6b1" fill-rule="evenodd" stroke="none"/>
      <path d="M40.15 39.2 L40.0 39.15 40.05 39.0 40.2 39.05 40.15 39.2" fill="#ccbf38" fill-rule="evenodd" stroke="none"/>
      <path d="M32.7 37.6 L32.75 37.6 32.6 38.0 32.7 37.6" fill="url(#gradient4)" fill-rule="evenodd" stroke="none"/>
      <path d="M37.25 11.5 L37.7 12.1 24.5 26.3 24.1 25.95 24.6 25.1 24.0 24.85 Q23.65 24.45 23.6 23.9 23.65 23.5 24.05 23.2 24.4 22.9 24.9 22.85 L25.75 23.3 25.8 23.4 29.95 17.1 Q29.4 17.05 28.95 16.5 28.2 15.7 28.2 14.7 28.25 13.7 29.05 13.15 29.8 12.45 30.75 12.5 31.7 12.65 32.45 13.35 L35.05 9.5 37.25 11.5 M27.55 5.5 Q29.0 5.9 30.3 6.5 L22.3 24.3 22.2 24.25 21.7 24.15 26.95 5.3 27.55 5.5 M24.2 4.85 L20.55 21.45 19.7 20.25 18.7 19.2 19.0 4.75 Q21.0 4.5 23.25 4.7 L24.2 4.85 M18.65 20.8 L19.35 22.2 19.5 22.6 19.55 22.7 20.15 23.1 20.25 23.15 20.7 23.95 17.15 23.95 Q17.2 23.5 17.6 23.15 L17.7 23.1 Q17.75 22.95 18.0 22.9 L18.1 22.8 18.15 22.65 18.2 22.55 18.25 22.4 18.25 22.3 17.65 21.2 17.65 21.15 17.6 20.8 17.6 20.75 17.75 20.55 17.8 20.5 18.25 20.4 18.5 20.55 18.55 20.65 18.65 20.8 M26.6 26.8 L38.85 13.9 38.85 17.0 26.6 26.8 M28.4 28.4 Q28.85 28.4 29.15 28.75 29.55 29.1 29.55 29.6 29.5 30.25 29.1 30.45 28.75 30.85 28.2 30.7 L27.4 30.25 Q26.95 29.85 26.95 29.4 L27.0 29.1 25.7 29.9 25.65 29.15 39.05 18.8 39.05 22.0 28.4 28.4 M17.85 4.85 L16.6 22.85 16.75 22.9 16.9 23.25 Q16.7 23.6 16.65 24.05 L16.4 24.1 16.35 24.15 16.15 24.25 15.7 23.85 15.45 23.4 15.75 22.9 16.15 22.7 14.55 5.85 Q16.15 5.2 17.85 4.85 M9.1 9.05 L11.55 7.3 13.1 15.05 13.5 15.0 Q14.05 15.0 14.35 15.3 L14.7 16.25 Q14.7 16.75 14.35 17.05 L13.5 17.3 14.9 25.0 14.85 25.0 14.15 25.55 12.05 20.3 10.55 20.5 Q9.75 20.45 9.15 19.8 8.55 19.15 8.6 18.3 8.6 17.5 9.25 17.05 9.75 16.55 10.45 16.5 L7.85 10.25 9.1 9.05 M4.45 15.25 L11.35 26.45 11.4 26.45 Q12.1 26.65 12.45 27.0 L12.9 28.05 Q12.75 28.4 12.75 28.75 L12.4 29.05 11.3 29.4 Q10.75 29.2 10.35 28.75 9.95 28.4 9.85 27.75 9.9 27.2 10.35 26.8 L10.55 26.65 3.55 17.6 4.45 15.25 M19.45 26.4 L19.0 26.35 18.5 26.4 18.15 26.5 Q16.95 26.8 16.1 27.45 L15.5 28.05 15.25 28.35 Q14.85 28.95 14.85 29.65 14.85 30.55 15.4 31.2 L14.4 32.45 14.45 32.55 15.35 33.4 16.35 33.95 16.9 32.4 19.0 32.8 21.0 32.4 21.6 33.95 22.6 33.4 23.5 32.55 23.55 32.45 22.55 31.2 Q23.05 30.55 23.05 29.65 23.05 28.95 22.65 28.35 L22.6 28.25 21.9 27.45 21.1 27.0 20.9 26.9 Q20.4 26.65 19.75 26.5 L19.45 26.4 M17.05 25.0 L21.1 25.0 21.4 25.15 21.55 25.2 22.1 25.5 22.7 26.0 23.0 26.3 23.5 26.85 23.7 27.2 Q24.5 28.45 24.55 30.05 L24.55 30.2 24.55 30.55 Q24.4 32.65 23.0 34.1 L22.45 34.55 21.75 35.05 Q20.5 35.7 19.0 35.7 L18.7 35.7 Q16.6 35.6 15.1 34.1 14.35 33.35 13.95 32.45 L13.65 31.65 13.6 31.45 13.5 30.2 13.6 28.9 Q13.85 27.75 14.65 26.75 L15.1 26.3 15.15 26.25 15.3 26.0 Q16.1 25.35 17.0 25.05 L17.05 25.0 M15.9 28.3 Q16.2 27.9 16.7 27.9 17.15 27.9 17.55 28.3 17.9 28.7 17.9 29.2 L17.55 30.15 17.1 30.4 16.7 30.45 15.9 30.15 15.8 30.0 15.6 29.2 15.6 29.15 15.65 28.9 Q15.7 28.55 15.9 28.3 M20.15 29.7 L20.05 29.2 Q20.05 28.7 20.4 28.3 L20.55 28.15 20.65 28.1 Q20.85 27.9 21.2 27.9 21.7 27.9 22.05 28.3 L22.3 28.7 22.4 29.2 Q22.4 29.75 22.05 30.15 L21.2 30.45 20.7 30.35 20.4 30.15 20.15 29.7 M13.55 25.65 L13.8 26.1 13.6 26.55 13.2 26.65 Q12.9 26.65 12.7 26.45 L12.55 26.0 12.7 25.6 13.2 25.45 13.55 25.65 M14.75 35.15 L16.1 35.95 15.85 36.2 15.1 36.05 14.75 35.6 14.75 35.15 M14.4 34.4 L5.75 32.15 5.75 31.1 5.15 31.1 5.15 29.25 14.4 34.4 M11.0 30.7 L3.6 26.6 3.6 23.35 11.0 30.7 M26.7 32.8 L38.1 26.35 38.1 28.15 26.7 32.8 M22.0 36.25 L36.6 30.85 36.6 32.95 35.75 32.95 35.75 34.5 22.0 36.25 M25.7 31.65 Q25.8 31.5 26.05 31.5 26.25 31.45 26.45 31.65 L26.6 32.1 26.4 32.45 26.05 32.55 25.7 32.35 25.5 32.0 25.7 31.65 M26.05 37.55 Q25.65 37.75 25.15 37.55 L24.35 37.4 26.25 36.1 26.35 36.5 Q26.45 37.2 26.05 37.55" fill="#5a6f37" fill-rule="evenodd" stroke="none"/>
    </g>
    <linearGradient gradientTransform="matrix(0.0, -0.025, -0.025, 0.0, 6.15, 31.55)" gradientUnits="userSpaceOnUse" id="gradient3" spreadMethod="pad" x1="-819.2" x2="819.2">
      <stop offset="0.011764705882352941" stop-color="#bed9a5"/>
      <stop offset="1.0" stop-color="#739416"/>
    </linearGradient>
    <linearGradient gradientTransform="matrix(0.0, -0.025, 0.025, 0.0, 37.95, 31.55)" gradientUnits="userSpaceOnUse" id="gradient4" spreadMethod="pad" x1="-819.2" x2="819.2">
      <stop offset="0.011764705882352941" stop-color="#bed9a5"/>
      <stop offset="1.0" stop-color="#739416"/>
    </linearGradient>
    <g id="sprite2" transform="matrix(1.0, 0.0, 0.0, 1.0, 0.0, 0.0)">
      <use height="20.15" transform="matrix(1.0, 0.0, 0.0, 1.0, 0.0, 0.0)" width="28.2" xlink:href="#shape4"/>
    </g>
    <g id="shape4" transform="matrix(1.0, 0.0, 0.0, 1.0, 0.0, 0.0)">
      <path d="M27.65 18.45 L27.4 18.95 Q26.2 20.8 23.4 19.8 19.6 18.5 17.35 14.05 14.8 9.1 9.75 7.4 4.1 5.65 0.0 10.3 1.0 6.85 3.7 4.15 7.2 0.65 11.9 0.05 L14.8 0.05 18.4 0.65 Q21.55 1.65 24.05 4.15 28.2 8.3 28.2 14.25 28.2 16.45 27.65 18.45" fill="#ffffff" fill-opacity="0.19607843" fill-rule="evenodd" stroke="none"/>
    </g>
  </defs>
</svg>
