<?xml version="1.0" encoding="UTF-8" standalone="no"?>
<svg xmlns:xlink="http://www.w3.org/1999/xlink" height="66.15px" width="66.0px" xmlns="http://www.w3.org/2000/svg">
  <g transform="matrix(1.5, 0.0, 0.0, 1.5, -0.075, -0.15)">
    <use height="40.4" transform="matrix(1.0, 0.0, 0.0, 1.0, 1.65, 2.35)" width="40.3" xlink:href="#shape0"/>
    <use height="20.15" transform="matrix(1.1594, 0.0, 0.0, 1.1605, 6.1, 5.4)" width="28.2" xlink:href="#sprite0"/>
    <use height="44.1" transform="matrix(1.0, 0.0, 0.0, 1.0, 0.05, 0.1)" width="44.0" xlink:href="#shape2"/>
    <use height="8.6" transform="matrix(1.2077, 0.0, 0.0, 1.2065, 1.0085, 0.9)" width="35.05" xlink:href="#sprite1"/>
  </g>
  <defs>
    <g id="shape0" transform="matrix(1.0, 0.0, 0.0, 1.0, -1.65, -2.35)">
      <path d="M7.6 8.3 Q13.45 2.35 21.85 2.35 30.2 2.35 36.1 8.3 41.95 14.2 41.95 22.55 41.95 30.9 36.1 36.85 30.2 42.75 21.85 42.75 13.45 42.75 7.6 36.85 1.65 30.9 1.65 22.55 1.65 14.2 7.6 8.3" fill="url(#gradient0)" fill-rule="evenodd" stroke="none"/>
    </g>
    <linearGradient gradientTransform="matrix(0.0, -0.0155, -0.0189, 0.0, 21.9, 25.55)" gradientUnits="userSpaceOnUse" id="gradient0" spreadMethod="pad" x1="-819.2" x2="819.2">
      <stop offset="0.011764705882352941" stop-color="#bb9a76"/>
      <stop offset="1.0" stop-color="#a87f53"/>
    </linearGradient>
    <g id="sprite0" transform="matrix(1.0, 0.0, 0.0, 1.0, 0.0, 0.0)">
      <use height="20.15" transform="matrix(1.0, 0.0, 0.0, 1.0, 0.0, 0.0)" width="28.2" xlink:href="#shape1"/>
    </g>
    <g id="shape1" transform="matrix(1.0, 0.0, 0.0, 1.0, 0.0, 0.0)">
      <path d="M27.65 18.45 L27.4 18.95 Q26.2 20.8 23.4 19.8 19.6 18.5 17.35 14.05 14.8 9.1 9.75 7.4 4.1 5.65 0.0 10.3 1.0 6.85 3.7 4.15 7.2 0.65 11.9 0.05 L14.8 0.05 18.4 0.65 Q21.55 1.65 24.05 4.15 28.2 8.3 28.2 14.25 28.2 16.45 27.65 18.45" fill="#ffffff" fill-opacity="0.19607843" fill-rule="evenodd" stroke="none"/>
    </g>
    <g id="shape2" transform="matrix(1.0, 0.0, 0.0, 1.0, -0.05, -0.1)">
      <path d="M22.55 14.8 L22.9 19.65 22.85 19.65 23.8 20.05 24.05 19.85 23.4 18.8 24.4 19.4 24.65 19.15 23.6 17.75 25.2 18.55 25.45 18.4 24.5 17.05 26.1 18.0 26.35 17.95 25.3 16.45 26.9 17.65 27.7 17.3 24.6 20.9 24.95 21.85 24.95 21.65 25.45 21.7 25.8 20.55 26.0 21.65 26.35 21.75 26.7 20.05 27.15 21.7 27.45 21.85 27.8 20.2 28.2 22.0 28.45 22.2 28.8 20.4 29.0 22.35 29.75 22.75 24.95 22.9 24.6 23.65 24.9 24.0 25.95 23.35 25.35 24.35 25.6 24.65 27.0 23.6 26.15 25.15 26.3 25.4 27.7 24.45 26.75 26.05 26.85 26.35 28.35 25.3 27.1 26.85 27.45 27.65 23.8 24.5 22.9 24.9 22.9 25.3 24.05 25.55 22.95 25.85 22.9 26.2 24.65 26.45 22.95 26.95 22.9 27.25 24.55 27.55 22.75 28.0 22.6 28.3 24.4 28.6 22.45 28.9 22.05 29.65 21.75 24.85 20.75 24.45 20.6 24.6 21.25 25.65 20.25 25.0 20.0 25.25 21.05 26.7 19.45 25.85 19.15 26.0 20.15 27.4 18.55 26.45 18.25 26.5 19.3 28.0 17.75 26.8 16.95 27.1 20.0 23.6 19.7 22.8 19.35 22.75 18.95 23.95 18.8 22.85 18.45 22.75 18.1 24.45 17.65 22.75 17.35 22.7 16.95 24.3 16.6 22.5 16.35 22.35 16.0 24.1 15.8 22.2 15.05 21.75 19.7 21.65 20.05 20.8 19.75 20.45 18.7 21.1 19.3 20.1 19.05 19.8 17.65 20.85 18.45 19.25 18.3 19.05 16.95 19.95 17.9 18.4 17.85 18.1 16.35 19.15 17.55 17.6 17.2 16.8 20.9 19.95 20.9 20.05 21.8 19.65 21.7 19.65 21.75 19.15 20.55 18.85 21.7 18.6 21.7 18.25 20.0 18.0 21.7 17.5 21.75 17.15 20.1 16.9 21.9 16.45 22.05 16.15 20.2 15.85 22.2 15.55 22.55 14.8" fill="#5e3821" fill-rule="evenodd" stroke="none"/>
      <path d="M29.8 22.65 Q29.8 25.8 27.5 28.05 25.3 30.3 22.15 30.3 19.0 30.3 16.75 28.05 14.55 25.8 14.55 22.65 14.55 19.5 16.75 17.25 19.0 15.05 22.15 15.05 25.3 15.05 27.5 17.25 29.8 19.5 29.8 22.65 Z" fill="none" stroke="#5e3821" stroke-linecap="round" stroke-linejoin="round" stroke-width="0.4"/>
      <path d="M31.35 22.65 Q31.35 26.45 28.65 29.1 26.0 31.8 22.2 31.8 18.45 31.8 15.7 29.1 13.05 26.45 13.05 22.65 13.05 18.9 15.7 16.15 18.45 13.5 22.2 13.5 26.0 13.5 28.65 16.15 31.35 18.9 31.35 22.65 Z" fill="none" stroke="#5e3821" stroke-linecap="round" stroke-linejoin="round" stroke-width="0.8"/>
      <path d="M35.05 22.7 Q35.05 27.95 31.25 31.7 27.55 35.5 22.25 35.5 16.95 35.5 13.2 31.7 9.45 27.95 9.45 22.7 9.45 17.4 13.2 13.6 16.95 9.9 22.25 9.9 27.55 9.9 31.25 13.6 35.05 17.4 35.05 22.7 Z" fill="none" stroke="#5e3821" stroke-linecap="round" stroke-linejoin="round" stroke-width="1.0"/>
      <path d="M14.0 19.0 L13.15 18.2 Q11.7 16.75 11.2 15.05 10.85 13.3 11.7 12.45 12.6 11.55 14.25 12.0 16.0 12.4 17.5 13.9 L18.05 14.5" fill="none" stroke="#5e3821" stroke-linecap="round" stroke-linejoin="round" stroke-width="0.6000000000000001"/>
      <path d="M30.35 18.9 L31.2 18.1 Q32.65 16.65 33.15 14.95 33.5 13.2 32.65 12.35 31.75 11.45 30.1 11.9 28.35 12.3 26.85 13.8 L26.3 14.4" fill="none" stroke="#5e3821" stroke-linecap="round" stroke-linejoin="round" stroke-width="0.6000000000000001"/>
      <path d="M14.0 26.05 L13.15 26.85 Q11.7 28.3 11.2 30.0 10.85 31.75 11.7 32.6 12.6 33.5 14.25 33.05 16.0 32.65 17.5 31.15 L18.05 30.55" fill="none" stroke="#5e3821" stroke-linecap="round" stroke-linejoin="round" stroke-width="0.6000000000000001"/>
      <path d="M30.35 26.2 L31.2 27.0 Q32.65 28.45 33.15 30.15 33.5 31.9 32.65 32.75 31.75 33.65 30.1 33.2 28.35 32.8 26.85 31.3 L26.3 30.7" fill="none" stroke="#5e3821" stroke-linecap="round" stroke-linejoin="round" stroke-width="0.6000000000000001"/>
      <path d="M19.05 34.95 L20.1 34.95 20.7 35.7 17.7 37.85 19.05 34.95" fill="#5e3821" fill-rule="evenodd" stroke="none"/>
      <path d="M20.7 35.75 L21.9 35.3 22.35 35.25 21.55 39.25 20.7 35.75" fill="#5e3821" fill-rule="evenodd" stroke="none"/>
      <path d="M23.65 34.95 L22.6 34.95 22.0 35.7 25.0 37.85 23.65 34.95" fill="#5e3821" fill-rule="evenodd" stroke="none"/>
      <path d="M19.0 34.95 L20.05 34.95 20.7 35.7 17.7 37.85 19.0 34.95" fill="#5e3821" fill-rule="evenodd" stroke="none"/>
      <path d="M20.7 35.65 L21.9 35.25 22.35 35.2 21.55 39.2 20.7 35.65" fill="#5e3821" fill-rule="evenodd" stroke="none"/>
      <path d="M23.35 34.95 L22.3 34.95 21.65 35.7 24.65 37.85 23.35 34.95" fill="#5e3821" fill-rule="evenodd" stroke="none"/>
      <path d="M23.7 10.2 L22.65 10.2 22.0 9.45 25.0 7.3 23.7 10.2" fill="#5e3821" fill-rule="evenodd" stroke="none"/>
      <path d="M22.0 9.5 L20.8 9.9 20.35 9.95 21.15 5.95 22.0 9.5" fill="#5e3821" fill-rule="evenodd" stroke="none"/>
      <path d="M19.4 10.2 L20.45 10.2 21.1 9.45 18.1 7.3 19.4 10.2" fill="#5e3821" fill-rule="evenodd" stroke="none"/>
      <path d="M9.75 20.25 L9.75 21.3 9.0 21.95 6.85 18.95 9.75 20.25" fill="#5e3821" fill-rule="evenodd" stroke="none"/>
      <path d="M9.05 21.9 L9.45 23.1 9.5 23.55 5.5 22.75 9.05 21.9" fill="#5e3821" fill-rule="evenodd" stroke="none"/>
      <path d="M9.75 24.6 L9.75 23.55 9.0 22.9 6.85 25.9 9.75 24.6" fill="#5e3821" fill-rule="evenodd" stroke="none"/>
      <path d="M34.55 24.9 L34.55 23.85 35.3 23.2 37.45 26.2 34.55 24.9" fill="#5e3821" fill-rule="evenodd" stroke="none"/>
      <path d="M35.25 23.25 L34.85 22.05 34.8 21.6 38.8 22.4 35.25 23.25" fill="#5e3821" fill-rule="evenodd" stroke="none"/>
      <path d="M34.55 20.65 L34.55 21.7 35.3 22.35 37.45 19.35 34.55 20.65" fill="#5e3821" fill-rule="evenodd" stroke="none"/>
      <path d="M22.05 4.8 Q14.85 4.8 9.75 9.9 4.7 15.05 4.7 22.15 4.7 29.35 9.75 34.45 14.8 39.55 22.05 39.55 29.2 39.55 34.25 34.45 39.35 29.35 39.35 22.15 39.35 14.95 34.25 9.9 29.2 4.8 22.05 4.8 M36.45 0.1 Q39.65 0.1 41.8 2.35 44.05 4.65 44.05 7.75 L44.05 36.55 Q44.05 39.7 41.8 41.95 39.65 44.15 36.45 44.15 L7.65 44.15 Q4.5 44.15 2.3 41.95 0.05 39.75 0.05 36.55 L0.05 7.75 Q0.05 4.65 2.3 2.35 4.5 0.1 7.65 0.1 L36.45 0.1" fill="url(#gradient1)" fill-rule="evenodd" stroke="none"/>
      <path d="M33.9 10.45 Q28.95 5.55 22.15 5.5 15.25 5.55 10.4 10.45 5.55 15.2 5.5 22.1 5.55 29.05 10.4 33.9 15.25 38.75 22.15 38.75 28.95 38.75 33.9 33.9 38.7 29.05 38.7 22.1 38.7 15.2 33.9 10.45 M41.1 22.1 Q41.1 29.95 35.5 35.5 30.0 41.1 22.15 41.1 14.25 41.1 8.75 35.5 3.2 29.95 3.2 22.1 3.2 14.25 8.75 8.7 14.25 3.15 22.15 3.15 30.0 3.15 35.5 8.7 41.1 14.25 41.1 22.1" fill="url(#gradient2)" fill-rule="evenodd" stroke="none"/>
      <path d="M0.25 25.2 Q0.4 22.75 0.85 20.75 0.6 24.95 0.85 26.6 1.2 29.6 3.15 31.05 L8.15 35.2 Q10.65 37.55 11.05 40.3 L14.6 42.6 10.75 43.0 Q10.0 44.5 7.25 44.15 3.25 43.6 2.45 40.35 1.75 37.75 3.65 36.75 L3.85 34.55 4.55 36.4 Q6.55 36.0 7.0 37.1 7.5 38.15 6.9 39.2 6.3 40.15 5.75 39.35 6.45 39.3 6.55 38.9 6.6 38.5 5.9 37.85 5.3 37.2 4.7 37.5 4.15 37.8 3.85 38.95 3.25 41.4 6.1 42.5 9.05 43.6 9.5 40.9 10.0 38.65 7.2 36.3 L3.45 33.4 0.95 32.9 1.95 31.95 Q0.15 29.95 0.25 25.2" fill="#7a5130" fill-rule="evenodd" stroke="none"/>
      <path d="M0.3 24.3 Q0.45 21.9 0.9 19.9 0.65 24.05 0.9 25.65 1.25 28.65 3.2 30.15 L8.25 34.3 Q10.7 36.65 11.1 39.35 L14.75 42.65 10.85 42.15 Q10.1 43.6 7.3 43.25 3.3 42.65 2.5 39.5 1.8 36.9 3.75 35.9 L3.85 34.45 4.6 35.55 Q6.6 35.15 7.05 36.95 7.3 38.45 6.75 39.15 L5.9 39.5 Q7.2 38.3 5.8 37.0 4.5 35.65 3.9 38.05 3.3 40.5 6.15 41.55 9.1 42.65 9.55 40.0 10.1 37.8 7.25 35.35 L3.45 32.5 3.5 32.55 0.9 32.95 2.0 31.05 Q0.2 29.0 0.3 24.3" fill="#ca935c" fill-rule="evenodd" stroke="none"/>
      <path d="M0.9 21.55 Q0.85 24.5 0.95 25.7 1.45 28.75 3.3 30.25 L8.3 34.35 Q10.75 36.7 11.25 39.35 L14.35 42.25 14.1 42.15 13.95 42.0 12.25 40.8 Q10.4 39.2 10.35 38.1 10.2 36.75 8.5 35.25 L5.25 32.75 Q2.05 30.3 1.2 27.55 0.6 25.95 0.6 22.15 L0.9 21.55 M6.55 36.7 Q5.9 35.7 4.7 35.7 L4.5 35.8 4.4 35.7 4.25 35.7 4.25 34.85 4.75 35.6 Q6.65 35.2 7.15 37.0 7.35 38.05 7.15 38.75 L7.05 38.8 7.05 38.75 6.95 38.2 6.95 38.1 Q6.95 37.35 6.55 36.7 M4.3 40.4 L4.15 39.8 Q4.6 41.0 6.25 41.6 L8.5 41.8 8.6 41.85 7.05 42.15 Q6.25 42.15 5.4 41.45 L4.3 40.4" fill="#d7ad86" fill-rule="evenodd" stroke="none"/>
      <path d="M43.7 25.2 Q43.8 29.95 42.0 31.95 L43.0 32.9 40.5 33.4 36.75 36.3 Q33.95 38.65 34.45 40.9 34.9 43.6 37.85 42.5 40.7 41.4 40.1 38.95 39.8 37.8 39.25 37.5 38.65 37.2 38.05 37.85 37.35 38.5 37.4 38.9 37.5 39.3 38.2 39.35 37.65 40.15 37.05 39.2 36.45 38.15 36.95 37.1 37.4 36.0 39.4 36.4 L40.1 34.55 40.3 36.75 Q42.2 37.75 41.5 40.35 40.7 43.6 36.7 44.15 33.95 44.5 33.2 43.0 L29.35 42.6 32.9 40.3 Q33.3 37.55 35.8 35.2 L40.8 31.05 Q42.75 29.6 43.1 26.6 43.35 24.95 43.1 20.75 L43.7 25.2" fill="#7a5130" fill-rule="evenodd" stroke="none"/>
      <path d="M43.65 24.3 Q43.75 29.0 41.95 31.05 L43.05 32.95 40.45 32.55 40.5 32.5 36.7 35.35 Q33.85 37.8 34.4 40.0 34.85 42.65 37.8 41.55 40.65 40.5 40.05 38.05 39.45 35.65 38.15 37.0 36.75 38.3 38.05 39.5 L37.2 39.15 Q36.65 38.45 36.9 36.95 37.35 35.15 39.35 35.55 L40.1 34.45 40.2 35.9 Q42.15 36.9 41.45 39.5 40.65 42.65 36.65 43.25 33.85 43.6 33.1 42.15 L29.2 42.65 32.85 39.35 Q33.25 36.65 35.7 34.3 L40.75 30.15 Q42.7 28.65 43.05 25.65 43.3 24.05 43.05 19.9 L43.65 24.3" fill="#ca935c" fill-rule="evenodd" stroke="none"/>
      <path d="M37.4 36.7 Q37.0 37.35 37.0 38.1 L37.0 38.2 36.9 38.75 36.9 38.8 36.8 38.75 Q36.6 38.05 36.8 37.0 37.3 35.2 39.2 35.6 L39.7 34.85 39.7 35.7 39.55 35.7 39.45 35.8 39.25 35.7 Q38.05 35.7 37.4 36.7 M43.05 21.55 L43.35 22.15 Q43.35 25.95 42.75 27.55 41.9 30.3 38.7 32.75 L35.45 35.25 Q33.75 36.75 33.6 38.1 33.55 39.2 31.7 40.8 L30.0 42.0 29.85 42.15 29.6 42.25 32.7 39.35 Q33.2 36.7 35.65 34.35 L40.65 30.25 Q42.5 28.75 43.0 25.7 L43.05 21.55 M39.65 40.4 L38.55 41.45 Q37.7 42.15 36.9 42.15 L35.35 41.85 35.45 41.8 37.7 41.6 Q39.35 41.0 39.8 39.8 L39.65 40.4" fill="#d7ad86" fill-rule="evenodd" stroke="none"/>
    </g>
    <linearGradient gradientTransform="matrix(0.0, -0.0344, -0.0552, 0.0, 22.45, 16.45)" gradientUnits="userSpaceOnUse" id="gradient1" spreadMethod="pad" x1="-819.2" x2="819.2">
      <stop offset="0.0196078431372549" stop-color="#9c6732"/>
      <stop offset="1.0" stop-color="#7d4e2b"/>
    </linearGradient>
    <linearGradient gradientTransform="matrix(1.0E-4, 0.0223, -0.0231, 1.0E-4, 22.2, 22.35)" gradientUnits="userSpaceOnUse" id="gradient2" spreadMethod="pad" x1="-819.2" x2="819.2">
      <stop offset="0.011764705882352941" stop-color="#59351e"/>
      <stop offset="1.0" stop-color="#cc955e"/>
    </linearGradient>
    <g id="sprite1" transform="matrix(1.0, 0.0, 0.0, 1.0, 0.2, 0.0)">
      <use height="8.6" transform="matrix(1.0, 0.0, 0.0, 1.0, -0.2, 0.0)" width="35.05" xlink:href="#shape3"/>
    </g>
    <g id="shape3" transform="matrix(1.0, 0.0, 0.0, 1.0, 0.2, 0.0)">
      <path d="M34.85 8.6 Q34.8 6.95 34.4 5.7 33.0 1.3 27.2 1.3 L7.45 1.3 Q0.05 1.3 -0.2 8.5 L-0.2 7.65 Q-0.2 0.0 7.45 0.0 L27.2 0.0 Q33.0 0.0 34.4 4.4 34.85 5.8 34.85 7.65 L34.85 8.6" fill="#e7deda" fill-rule="evenodd" stroke="none"/>
    </g>
  </defs>
</svg>
