<?xml version="1.0" encoding="UTF-8" standalone="no"?>
<svg xmlns:xlink="http://www.w3.org/1999/xlink" height="66.825px" width="66.0px" xmlns="http://www.w3.org/2000/svg">
  <g transform="matrix(1.5, 0.0, 0.0, 1.5, 0.225, 0.0)">
    <use height="43.6" transform="matrix(1.0, 0.0, 0.0, 1.0, 0.0, 0.0)" width="43.65" xlink:href="#shape0"/>
    <use height="20.15" transform="matrix(1.1594, 0.0, 0.0, 1.1605, 6.05, 5.0)" width="28.2" xlink:href="#sprite0"/>
    <use height="41.2" transform="matrix(1.0, 0.0, 0.0, 1.0, -0.15, 3.35)" width="44.0" xlink:href="#shape2"/>
    <use height="8.6" transform="matrix(1.2077, 0.0, 0.0, 1.2065, 0.6585, 1.1)" width="35.05" xlink:href="#sprite1"/>
  </g>
  <defs>
    <g id="shape0" transform="matrix(1.0, 0.0, 0.0, 1.0, 0.0, 0.0)">
      <path d="M36.1 0.0 Q39.25 0.0 41.45 2.2 43.65 4.4 43.65 7.5 L43.65 36.1 Q43.65 39.2 41.45 41.4 39.25 43.6 36.1 43.6 L7.55 43.6 Q4.4 43.6 2.2 41.4 0.0 39.2 0.0 36.1 L0.0 7.5 Q0.0 4.4 2.2 2.2 4.4 0.0 7.55 0.0 L36.1 0.0" fill="url(#gradient0)" fill-rule="evenodd" stroke="none"/>
      <path d="M39.7 21.9 Q39.7 29.3 34.5 34.6 29.3 39.8 21.9 39.8 14.45 39.8 9.25 34.6 4.05 29.3 4.05 21.9 4.05 14.55 9.25 9.3 14.55 4.05 21.9 4.05 29.3 4.05 34.5 9.3 39.7 14.55 39.7 21.9" fill="url(#gradient1)" fill-rule="evenodd" stroke="none"/>
      <path d="M39.0 15.65 L33.45 17.65 38.3 14.2 39.0 15.65 M38.7 16.35 L38.5 18.15 34.3 18.7 38.7 16.35 M22.35 4.35 L22.4 4.4 22.4 8.4 20.65 4.35 22.35 4.35 M29.05 8.3 L28.95 8.3 27.2 12.2 27.7 5.65 28.1 5.65 29.9 6.2 29.05 8.3 M12.75 6.55 L15.0 11.75 11.65 7.55 11.55 7.5 12.75 6.55 M13.85 7.05 L15.85 6.3 17.3 13.0 13.85 7.05 M4.55 20.2 L4.55 17.1 10.85 20.2 4.55 20.2 M20.0 40.95 L18.2 40.6 18.0 36.4 20.0 40.95 M16.4 39.75 L13.85 38.3 17.6 35.4 16.4 39.75 M6.75 31.15 L5.7 28.45 10.45 28.55 6.75 31.15 M4.6 24.0 L3.9 21.2 9.35 21.2 4.6 24.0 M32.6 28.4 L39.3 28.4 38.15 31.45 32.6 28.4 M29.0 39.55 L25.9 34.55 30.35 38.6 29.0 39.55 M27.4 39.35 L25.6 39.0 25.4 34.8 27.4 39.35" fill="#4a3355" fill-rule="evenodd" stroke="none"/>
      <path d="M22.0 10.3 Q25.0 12.0 25.3 15.65 L22.25 17.8 Q22.55 16.05 21.8 14.8 21.1 15.95 21.3 17.9 L18.4 15.3 Q18.0 11.6 22.0 10.3" fill="#4a3355" fill-rule="evenodd" stroke="none"/>
      <path d="M22.0 36.7 Q25.0 35.0 25.3 31.35 L22.25 29.2 Q22.55 30.95 21.8 32.2 21.1 31.05 21.3 29.1 L18.4 31.7 Q18.0 35.4 22.0 36.7" fill="#4a3355" fill-rule="evenodd" stroke="none"/>
      <path d="M9.5 23.5 Q11.2 20.5 14.85 20.2 L17.0 23.25 Q15.25 22.95 14.0 23.7 15.15 24.4 17.1 24.2 L14.5 27.1 Q10.8 27.5 9.5 23.5" fill="#4a3355" fill-rule="evenodd" stroke="none"/>
      <path d="M11.25 12.95 Q14.55 12.05 17.35 14.35 L16.75 18.05 Q15.7 16.6 14.3 16.3 14.65 17.55 16.15 18.85 L12.3 19.0 Q9.35 16.65 11.25 12.95" fill="#4a3355" fill-rule="evenodd" stroke="none"/>
      <path d="M32.45 34.2 Q33.35 30.9 31.05 28.1 L27.35 28.7 Q28.8 29.75 29.1 31.15 27.85 30.8 26.55 29.3 L26.4 33.15 Q28.75 36.1 32.45 34.2" fill="#4a3355" fill-rule="evenodd" stroke="none"/>
      <path d="M11.7 34.0 Q10.8 30.7 13.1 27.9 L16.8 28.5 Q15.35 29.55 15.05 30.95 16.3 30.6 17.6 29.1 L17.75 32.95 Q15.4 35.9 11.7 34.0" fill="#4a3355" fill-rule="evenodd" stroke="none"/>
      <path d="M31.9 13.15 Q28.6 12.25 25.8 14.55 L26.4 18.25 Q27.45 16.8 28.85 16.5 28.5 17.75 27.0 19.05 L30.85 19.2 Q33.8 16.85 31.9 13.15" fill="#4a3355" fill-rule="evenodd" stroke="none"/>
      <path d="M26.75 18.25 Q27.4 20.05 26.2 21.65 L24.1 21.45 Q24.9 20.85 25.0 20.05 24.35 20.25 23.65 21.2 L23.4 19.0 Q24.65 17.25 26.75 18.25" fill="#4a3355" fill-rule="evenodd" stroke="none"/>
      <path d="M17.7 28.4 Q19.55 28.8 21.05 27.4 L20.55 25.4 Q20.05 26.2 19.25 26.4 19.4 25.7 20.2 24.95 L18.05 24.95 Q16.5 26.4 17.7 28.4" fill="#4a3355" fill-rule="evenodd" stroke="none"/>
      <path d="M17.45 19.15 Q19.25 18.5 20.85 19.7 L20.65 21.8 Q20.05 21.0 19.25 20.9 19.45 21.55 20.4 22.25 L18.2 22.5 Q16.45 21.25 17.45 19.15" fill="#4a3355" fill-rule="evenodd" stroke="none"/>
      <path d="M27.45 27.95 Q27.85 26.1 26.45 24.6 L24.45 25.1 Q25.25 25.6 25.45 26.4 24.75 26.25 24.0 25.45 L24.0 27.6 Q25.45 29.15 27.45 27.95" fill="#4a3355" fill-rule="evenodd" stroke="none"/>
      <path d="M26.75 18.25 Q27.4 20.05 26.2 21.65 L24.1 21.45 Q24.9 20.85 25.0 20.05 24.35 20.25 23.65 21.2 L23.4 19.0 Q24.65 17.25 26.75 18.25" fill="#4a3355" fill-rule="evenodd" stroke="none"/>
      <path d="M17.7 28.4 Q19.55 28.8 21.05 27.4 L20.55 25.4 Q20.05 26.2 19.25 26.4 19.4 25.7 20.2 24.95 L18.05 24.95 Q16.5 26.4 17.7 28.4" fill="#4a3355" fill-rule="evenodd" stroke="none"/>
      <path d="M17.45 19.15 Q19.25 18.5 20.85 19.7 L20.65 21.8 Q20.05 21.0 19.25 20.9 19.45 21.55 20.4 22.25 L18.2 22.5 Q16.45 21.25 17.45 19.15" fill="#4a3355" fill-rule="evenodd" stroke="none"/>
      <path d="M27.45 27.95 Q27.85 26.1 26.45 24.6 L24.45 25.1 Q25.25 25.6 25.45 26.4 24.75 26.25 24.0 25.45 L24.0 27.6 Q25.45 29.15 27.45 27.95" fill="#4a3355" fill-rule="evenodd" stroke="none"/>
      <path d="M35.9 23.5 Q34.2 20.5 30.55 20.2 L28.4 23.25 Q30.15 22.95 31.4 23.7 30.25 24.4 28.3 24.2 L30.9 27.1 Q34.6 27.5 35.9 23.5" fill="#4a3355" fill-rule="evenodd" stroke="none"/>
    </g>
    <linearGradient gradientTransform="matrix(0.0, -0.0546, -0.0546, 0.0, 21.8, 18.15)" gradientUnits="userSpaceOnUse" id="gradient0" spreadMethod="pad" x1="-819.2" x2="819.2">
      <stop offset="0.011764705882352941" stop-color="#bf809f"/>
      <stop offset="1.0" stop-color="#543c7c"/>
    </linearGradient>
    <linearGradient gradientTransform="matrix(0.0, -0.0167, -0.0167, 0.0, 21.9, 18.55)" gradientUnits="userSpaceOnUse" id="gradient1" spreadMethod="pad" x1="-819.2" x2="819.2">
      <stop offset="0.011764705882352941" stop-color="#bcb9ae"/>
      <stop offset="1.0" stop-color="#9b5b79"/>
    </linearGradient>
    <g id="sprite0" transform="matrix(1.0, 0.0, 0.0, 1.0, 0.0, 0.0)">
      <use height="20.15" transform="matrix(1.0, 0.0, 0.0, 1.0, 0.0, 0.0)" width="28.2" xlink:href="#shape1"/>
    </g>
    <g id="shape1" transform="matrix(1.0, 0.0, 0.0, 1.0, 0.0, 0.0)">
      <path d="M27.65 18.45 L27.4 18.95 Q26.2 20.8 23.4 19.8 19.6 18.5 17.35 14.05 14.8 9.1 9.75 7.4 4.1 5.65 0.0 10.3 1.0 6.85 3.7 4.15 7.2 0.65 11.9 0.05 L14.8 0.05 18.4 0.65 Q21.55 1.65 24.05 4.15 28.2 8.3 28.2 14.25 28.2 16.45 27.65 18.45" fill="#ffffff" fill-opacity="0.19607843" fill-rule="evenodd" stroke="none"/>
    </g>
    <g id="shape2" transform="matrix(1.0, 0.0, 0.0, 1.0, 0.15, -3.35)">
      <path d="M38.0 34.15 L38.8 34.05 Q40.8 31.95 42.55 25.85 L43.65 20.9 43.65 20.95 43.55 22.8 42.4 27.2 Q42.0 29.15 40.8 31.5 L39.65 33.55 Q39.1 34.4 37.85 34.45 L37.45 34.55 37.4 34.55 37.15 34.35 38.0 34.15 M40.55 35.55 L41.05 36.1 41.85 32.6 41.85 32.5 42.0 32.35 41.3 36.2 41.2 36.25 40.6 36.2 40.55 35.75 40.55 35.55 M39.6 43.3 L39.6 43.45 39.2 43.65 38.75 43.85 38.8 43.7 39.25 42.8 39.35 42.5 39.45 42.15 39.45 42.1 39.45 42.05 39.5 41.85 39.5 41.0 39.3 40.5 39.0 39.9 38.75 39.45 37.85 38.65 37.5 38.4 37.7 38.35 Q38.85 38.35 39.35 40.0 L39.7 41.85 39.6 43.3 M37.0 35.8 L37.05 35.85 36.4 36.75 34.5 39.2 Q31.75 42.9 29.05 42.9 L28.25 42.85 28.45 42.8 28.7 42.7 29.7 42.35 30.75 42.0 Q32.4 41.45 34.85 38.55 L37.0 35.8 M0.0 20.95 L0.0 20.9 1.1 25.85 Q2.85 31.95 4.85 34.05 L5.7 34.15 6.5 34.35 6.25 34.55 6.2 34.55 5.8 34.45 Q4.6 34.4 4.0 33.55 L2.85 31.5 Q1.7 29.15 1.3 27.2 L0.1 22.8 0.0 20.95 M1.8 32.5 L1.8 32.6 2.6 36.1 3.15 35.55 3.15 35.75 3.05 36.2 2.45 36.25 2.4 36.2 1.7 32.35 1.8 32.5 M15.4 42.85 L14.6 42.9 Q11.95 42.9 9.15 39.2 L7.25 36.75 6.6 35.85 6.65 35.8 8.8 38.55 Q11.25 41.45 12.9 42.0 L13.95 42.35 14.95 42.7 15.25 42.8 15.4 42.85 M4.05 43.3 L3.95 41.85 Q3.95 40.95 4.3 40.0 4.8 38.35 5.95 38.35 L6.15 38.4 5.8 38.65 4.9 39.45 4.65 39.9 4.35 40.5 4.15 41.0 4.15 41.85 4.25 42.05 4.25 42.1 4.25 42.15 4.3 42.5 4.4 42.8 4.85 43.7 4.9 43.85 4.45 43.65 4.05 43.45 4.05 43.3" fill="#c8a6c1" fill-rule="evenodd" stroke="none"/>
      <path d="M43.65 20.95 L43.85 20.15 43.75 20.9 43.65 24.35 Q43.65 25.75 41.85 30.25 L39.9 34.9 40.05 35.1 40.55 35.55 40.55 35.75 40.6 36.2 41.2 36.25 41.3 36.2 42.0 32.35 41.85 32.5 42.4 30.5 42.55 38.95 37.8 34.85 37.45 34.55 37.85 34.45 Q39.1 34.4 39.65 33.55 L40.8 31.5 Q42.0 29.15 42.4 27.2 L43.55 22.8 43.65 20.95 M37.5 34.25 L38.0 34.15 37.15 34.35 37.5 34.25 M42.4 40.2 L42.05 40.95 Q41.35 42.25 39.6 43.3 L39.7 41.85 39.35 40.0 Q38.85 38.35 37.7 38.35 L37.5 38.4 36.75 37.95 33.8 42.25 34.2 42.25 34.85 42.25 38.1 41.6 37.9 41.8 37.3 42.45 36.55 43.2 28.6 43.6 27.05 43.45 26.75 43.35 26.7 43.35 27.0 43.25 27.1 43.25 28.25 42.85 29.05 42.9 Q31.75 42.9 34.5 39.2 L36.4 36.75 37.05 35.85 37.0 35.8 42.3 40.2 42.4 40.2 M5.7 34.15 L6.15 34.25 6.5 34.35 5.7 34.15 M1.1 38.95 L1.3 30.5 1.8 32.5 1.7 32.35 2.4 36.2 2.45 36.25 3.05 36.2 3.15 35.75 3.15 35.55 3.6 35.1 3.75 34.9 1.8 30.25 Q0.0 25.75 0.0 24.35 L-0.1 20.9 -0.15 20.15 0.0 20.95 0.1 22.8 1.3 27.2 Q1.7 29.15 2.85 31.5 L4.0 33.55 Q4.6 34.4 5.8 34.45 L6.2 34.55 5.85 34.85 1.1 38.95 M6.65 35.8 L6.6 35.85 7.25 36.75 9.15 39.2 Q11.95 42.9 14.6 42.9 L15.4 42.85 16.55 43.25 16.7 43.25 16.95 43.35 16.9 43.35 16.6 43.45 15.05 43.6 7.1 43.2 6.35 42.45 5.75 41.8 5.55 41.6 8.8 42.25 9.45 42.25 9.85 42.25 6.9 37.95 6.15 38.4 5.95 38.35 Q4.8 38.35 4.3 40.0 3.95 40.95 3.95 41.85 L4.05 43.3 Q2.3 42.25 1.6 40.95 L1.3 40.2 1.35 40.2 6.65 35.8" fill="#4a3355" fill-rule="evenodd" stroke="none"/>
      <path d="M43.75 20.9 L43.85 20.8 43.65 24.9 Q43.65 26.95 40.05 35.1 L39.9 34.9 41.85 30.25 Q43.65 25.75 43.65 24.35 L43.75 20.9 M42.55 38.95 L42.55 39.6 37.3 35.1 37.6 35.1 37.8 34.85 42.55 38.95 M42.05 40.95 L42.3 40.95 Q41.65 42.9 38.75 44.55 L39.2 43.65 39.6 43.45 39.6 43.3 Q41.35 42.25 42.05 40.95 M28.6 43.6 L36.55 43.2 37.3 42.45 37.85 42.45 36.55 43.8 Q34.8 44.7 26.75 44.0 L26.9 43.85 27.7 43.6 27.9 43.7 28.6 43.6 M34.2 42.25 L33.8 42.25 36.75 37.95 37.5 38.4 37.85 38.65 38.75 39.45 39.0 39.9 39.3 40.5 39.5 41.0 39.5 41.85 Q39.45 40.95 38.75 40.05 37.85 39.05 36.75 38.5 L34.2 42.25 M6.35 35.1 L1.1 39.6 1.1 38.95 5.85 34.85 6.1 35.1 6.35 35.1 M3.6 35.1 Q0.0 26.95 0.0 24.9 L-0.15 20.8 -0.1 20.9 0.0 24.35 Q0.0 25.75 1.8 30.25 L3.75 34.9 3.6 35.1 M1.6 40.95 Q2.3 42.25 4.05 43.3 L4.05 43.45 4.45 43.65 4.9 44.55 Q2.05 42.9 1.35 40.95 L1.6 40.95 M6.15 38.4 L6.9 37.95 9.85 42.25 9.45 42.25 6.9 38.5 Q5.8 39.05 4.9 40.05 4.25 40.95 4.15 41.85 L4.15 41.0 4.35 40.5 4.65 39.9 4.9 39.45 5.8 38.65 6.15 38.4 M6.35 42.45 L7.1 43.2 15.05 43.6 15.75 43.7 16.0 43.6 16.75 43.85 16.9 44.0 Q8.85 44.7 7.1 43.8 L5.8 42.45 6.35 42.45" fill="#0b000a" fill-rule="evenodd" stroke="none"/>
      <path d="M37.3 35.1 L37.25 35.0 37.15 34.9 37.1 34.35 37.5 34.25 37.15 34.35 37.4 34.55 37.45 34.55 37.8 34.85 37.6 35.1 37.3 35.1 M42.3 40.95 L42.05 40.95 42.4 40.2 42.5 40.7 42.4 40.95 42.3 40.95 M27.1 43.25 L27.0 43.25 27.05 43.2 27.1 43.25 M26.75 43.35 L27.05 43.45 28.6 43.6 27.9 43.7 27.7 43.6 26.9 43.85 26.75 44.0 26.75 43.35 M37.3 42.45 L37.9 41.8 38.1 41.95 38.1 42.4 37.85 42.45 37.3 42.45 M6.15 34.25 L6.55 34.35 6.5 34.9 6.45 35.0 6.35 35.1 6.1 35.1 5.85 34.85 6.2 34.55 6.25 34.55 6.5 34.35 6.15 34.25 M1.3 40.2 L1.6 40.95 1.35 40.95 1.3 40.95 1.15 40.7 Q1.15 40.3 1.3 40.2 M5.75 41.8 L6.35 42.45 5.8 42.45 5.55 42.4 5.55 41.95 Q5.6 41.8 5.75 41.8 M15.05 43.6 L16.6 43.45 16.9 43.35 16.9 44.0 16.75 43.85 16.0 43.6 15.75 43.7 15.05 43.6 M16.7 43.25 L16.55 43.25 16.6 43.2 16.7 43.25" fill="#000000" fill-rule="evenodd" stroke="none"/>
      <path d="M35.3 8.9 Q40.9 14.4 40.9 22.35 40.9 30.2 35.3 35.7 29.8 41.4 21.9 41.4 14.0 41.4 8.5 35.7 2.95 30.2 2.95 22.35 2.95 14.4 8.5 8.9 14.0 3.35 21.9 3.35 29.8 3.35 35.3 8.9 M33.75 10.65 Q28.8 5.8 21.9 5.75 15.05 5.8 10.15 10.65 5.3 15.45 5.25 22.35 5.3 29.3 10.15 34.15 15.05 39.0 21.9 39.0 28.8 39.0 33.75 34.15 38.55 29.3 38.55 22.35 38.55 15.45 33.75 10.65" fill="url(#gradient2)" fill-rule="evenodd" stroke="none"/>
    </g>
    <linearGradient gradientTransform="matrix(0.0, 0.0226, -0.0232, 0.0, 21.9, 22.6)" gradientUnits="userSpaceOnUse" id="gradient2" spreadMethod="pad" x1="-819.2" x2="819.2">
      <stop offset="0.0" stop-color="#3d2945"/>
      <stop offset="1.0" stop-color="#cabad6"/>
    </linearGradient>
    <g id="sprite1" transform="matrix(1.0, 0.0, 0.0, 1.0, 0.2, 0.0)">
      <use height="8.6" transform="matrix(1.0, 0.0, 0.0, 1.0, -0.2, 0.0)" width="35.05" xlink:href="#shape3"/>
    </g>
    <g id="shape3" transform="matrix(1.0, 0.0, 0.0, 1.0, 0.2, 0.0)">
      <path d="M34.85 8.6 Q34.8 6.95 34.4 5.7 33.0 1.3 27.2 1.3 L7.45 1.3 Q0.05 1.3 -0.2 8.5 L-0.2 7.65 Q-0.2 0.0 7.45 0.0 L27.2 0.0 Q33.0 0.0 34.4 4.4 34.85 5.8 34.85 7.65 L34.85 8.6" fill="#e7deda" fill-rule="evenodd" stroke="none"/>
    </g>
  </defs>
</svg>
