<?xml version="1.0" encoding="UTF-8" standalone="no"?>
<svg xmlns:xlink="http://www.w3.org/1999/xlink" height="66.0px" width="66.0px" xmlns="http://www.w3.org/2000/svg">
  <g transform="matrix(1.5, 0.0, 0.0, 1.5, 0.15, 0.075)">
    <use height="44.0" transform="matrix(1.0, 0.0, 0.0, 1.0, -0.1, -0.05)" width="44.0" xlink:href="#shape0"/>
    <use height="20.15" transform="matrix(1.1593, 0.0, 0.0, 1.1591, 5.7, 4.85)" width="28.2" xlink:href="#sprite0"/>
    <use height="40.95" transform="matrix(1.0, 0.0, 0.0, 1.0, 0.15, 2.95)" width="43.45" xlink:href="#shape2"/>
    <use height="8.6" transform="matrix(1.2076, 0.0, 0.0, 1.2051, 0.7085, 0.4)" width="35.05" xlink:href="#sprite1"/>
  </g>
  <defs>
    <g id="shape0" transform="matrix(1.0, 0.0, 0.0, 1.0, 0.1, 0.05)">
      <path d="M7.5 7.95 Q13.35 2.0 21.75 2.0 30.1 2.0 36.0 7.95 41.85 13.85 41.85 22.15 41.85 30.5 36.0 36.45 30.1 42.35 21.75 42.35 13.35 42.35 7.5 36.45 1.55 30.5 1.55 22.15 1.55 13.85 7.5 7.95" fill="url(#gradient0)" fill-rule="evenodd" stroke="none"/>
      <path d="M30.1 4.35 L30.1 4.3 Q29.6 7.8 26.8 10.1 L26.75 10.1 Q23.95 12.25 20.3 11.8 16.85 11.3 14.7 8.45 13.3 6.55 13.05 4.4 13.0 4.25 13.1 4.05 L14.45 4.05 14.5 4.25 Q14.75 6.0 15.85 7.65 L15.85 7.6 Q17.65 9.95 20.55 10.3 23.5 10.65 25.9 8.9 28.25 7.0 28.6 4.15 L28.65 4.05 30.15 4.05 30.1 4.35 M25.4 4.05 L26.4 4.05 Q26.05 5.7 24.45 6.8 L24.5 6.8 Q23.05 8.0 21.1 7.65 19.2 7.45 18.0 5.95 L17.95 5.95 Q17.35 5.0 17.2 4.05 L18.2 4.05 18.75 5.4 18.75 5.35 Q19.75 6.5 21.2 6.7 L21.25 6.7 Q22.7 6.9 23.85 6.0 L23.95 5.95 Q25.05 5.15 25.4 4.05 M35.8 10.6 L35.3 10.95 Q33.6 11.4 32.2 12.7 30.1 14.85 30.1 17.7 L30.2 18.95 Q30.55 21.2 32.2 22.8 34.3 24.9 37.25 24.9 L38.9 24.75 39.4 24.85 39.75 25.3 39.65 25.85 39.25 26.2 37.25 26.4 Q33.7 26.4 31.15 23.85 29.1 21.75 28.75 18.95 L28.65 17.7 Q28.65 14.25 31.1 11.7 L31.15 11.65 Q32.85 10.05 35.0 9.5 L35.55 9.55 35.9 10.1 35.8 10.6 M20.2 5.15 Q19.75 4.7 19.65 4.05 L24.0 4.05 23.25 5.15 Q22.65 5.8 21.75 5.8 20.85 5.8 20.2 5.15 M37.65 14.15 L37.35 14.3 Q35.9 14.3 34.75 15.3 L34.75 15.35 Q33.7 16.4 33.7 17.95 L33.85 18.95 Q34.1 19.8 34.75 20.45 35.9 21.65 37.35 21.65 38.3 21.65 39.0 21.25 L39.35 21.2 39.65 21.4 39.7 21.85 39.45 22.1 Q38.55 22.65 37.35 22.65 35.55 22.65 34.05 21.1 33.1 20.2 32.85 18.95 L32.7 17.95 Q32.7 16.05 34.05 14.65 L34.1 14.65 Q35.55 13.3 37.35 13.3 L37.65 13.5 37.85 13.8 37.65 14.15 M21.65 13.3 L21.8 13.3 Q23.75 13.3 24.95 14.65 26.35 16.05 26.35 17.6 L26.15 18.95 Q25.8 19.9 24.95 20.6 L23.95 21.65 Q23.75 21.65 23.65 21.75 L23.65 22.25 26.95 22.95 26.95 24.95 26.95 33.05 25.1 33.05 24.25 33.05 24.25 27.15 23.65 27.15 23.65 34.6 31.55 34.6 31.55 36.6 Q27.65 38.3 23.65 38.7 L23.65 39.15 19.65 39.15 19.65 38.8 Q15.6 38.55 11.45 37.05 L11.45 34.6 19.65 34.6 19.65 27.15 18.8 27.15 18.8 33.05 18.2 33.05 16.4 33.05 16.4 24.95 16.4 22.95 19.65 22.25 19.65 21.75 18.5 20.95 18.3 20.6 18.2 20.6 Q17.4 19.9 17.1 18.95 16.85 18.35 16.85 17.6 16.85 16.05 18.2 14.65 L18.3 14.65 Q19.65 13.3 21.1 13.3 L21.65 13.3 M37.25 15.75 Q38.15 15.75 38.75 16.35 39.4 17.0 39.4 17.9 39.4 18.8 38.75 19.35 38.15 20.0 37.25 20.0 36.35 20.0 35.7 19.35 35.1 18.8 35.1 17.9 35.1 17.0 35.7 16.35 36.35 15.75 37.25 15.75 M5.85 14.3 Q5.65 14.3 5.55 14.15 L5.4 13.8 Q5.4 13.6 5.55 13.5 5.65 13.3 5.85 13.3 7.75 13.3 9.2 14.65 10.55 16.05 10.55 17.95 L10.45 18.95 Q10.15 20.2 9.2 21.1 7.75 22.65 5.85 22.65 4.7 22.65 3.8 22.1 L3.55 21.85 3.55 21.5 3.85 21.2 4.25 21.2 Q4.9 21.65 5.85 21.65 7.3 21.65 8.5 20.45 9.15 19.8 9.4 18.95 L9.55 17.95 Q9.55 16.4 8.55 15.35 L8.5 15.3 Q7.3 14.3 5.85 14.3 M8.0 10.95 Q7.65 10.85 7.45 10.6 L7.4 10.1 Q7.45 9.7 7.8 9.55 L8.3 9.5 Q9.35 9.75 10.3 10.3 L12.1 11.65 12.1 11.7 Q14.65 14.25 14.65 17.7 L14.6 18.95 Q14.2 21.75 12.1 23.85 9.55 26.4 5.95 26.4 L4.1 26.2 3.65 25.85 Q3.45 25.6 3.55 25.3 L3.85 24.85 4.45 24.75 5.95 24.9 Q8.95 24.9 11.1 22.8 12.65 21.2 13.0 18.95 L13.1 17.7 Q13.1 14.85 11.1 12.7 9.9 11.6 8.5 11.1 L8.0 10.95 M6.15 15.6 Q7.05 15.6 7.65 16.2 8.3 16.85 8.3 17.75 8.3 18.65 7.65 19.2 7.05 19.85 6.15 19.85 5.25 19.85 4.6 19.2 4.0 18.65 4.0 17.75 4.0 16.85 4.6 16.2 5.25 15.6 6.15 15.6" fill="#5f3921" fill-rule="evenodd" stroke="none"/>
      <path d="M21.9 4.65 Q14.75 4.65 9.6 9.7 4.6 14.85 4.6 21.95 4.6 29.15 9.6 34.25 14.7 39.3 21.9 39.3 29.05 39.3 34.15 34.25 39.25 29.15 39.25 21.95 39.25 14.8 34.15 9.7 29.05 4.65 21.9 4.65 M36.35 -0.05 Q39.5 -0.05 41.65 2.2 43.9 4.45 43.9 7.55 L43.9 36.3 Q43.9 39.5 41.65 41.75 39.5 43.95 36.35 43.95 L7.55 43.95 Q4.35 43.95 2.15 41.75 -0.1 39.55 -0.1 36.3 L-0.1 7.55 Q-0.1 4.45 2.15 2.2 4.35 -0.05 7.55 -0.05 L36.35 -0.05" fill="url(#gradient1)" fill-rule="evenodd" stroke="none"/>
    </g>
    <linearGradient gradientTransform="matrix(0.0, -0.0155, -0.0189, 0.0, 21.75, 25.15)" gradientUnits="userSpaceOnUse" id="gradient0" spreadMethod="pad" x1="-819.2" x2="819.2">
      <stop offset="0.011764705882352941" stop-color="#bb9a76"/>
      <stop offset="1.0" stop-color="#a87f53"/>
    </linearGradient>
    <linearGradient gradientTransform="matrix(0.0, -0.0344, -0.0552, 0.0, 22.35, 16.25)" gradientUnits="userSpaceOnUse" id="gradient1" spreadMethod="pad" x1="-819.2" x2="819.2">
      <stop offset="0.0196078431372549" stop-color="#9c6732"/>
      <stop offset="1.0" stop-color="#7d4e2b"/>
    </linearGradient>
    <g id="sprite0" transform="matrix(1.0, 0.0, 0.0, 1.0, 0.0, 0.0)">
      <use height="20.15" transform="matrix(1.0, 0.0, 0.0, 1.0, 0.0, 0.0)" width="28.2" xlink:href="#shape1"/>
    </g>
    <g id="shape1" transform="matrix(1.0, 0.0, 0.0, 1.0, 0.0, 0.0)">
      <path d="M27.65 18.45 L27.4 18.95 Q26.2 20.8 23.4 19.8 19.6 18.5 17.35 14.05 14.8 9.1 9.75 7.4 4.1 5.65 0.0 10.3 1.0 6.85 3.7 4.15 7.2 0.65 11.9 0.05 L14.8 0.05 18.4 0.65 Q21.55 1.65 24.05 4.15 28.2 8.3 28.2 14.25 28.2 16.45 27.65 18.45" fill="#ffffff" fill-opacity="0.19607843" fill-rule="evenodd" stroke="none"/>
    </g>
    <g id="shape2" transform="matrix(1.0, 0.0, 0.0, 1.0, -0.15, -2.95)">
      <path d="M33.8 10.25 Q28.85 5.4 22.0 5.35 15.15 5.4 10.3 10.25 5.45 15.05 5.4 21.9 5.45 28.85 10.3 33.7 15.15 38.55 22.0 38.55 28.85 38.55 33.8 33.7 38.6 28.85 38.6 21.9 38.6 15.05 33.8 10.25 M40.95 21.9 Q40.95 29.75 35.35 35.3 29.85 40.9 22.0 40.9 14.1 40.9 8.6 35.3 3.1 29.75 3.1 21.9 3.1 14.05 8.6 8.5 14.1 2.95 22.0 2.95 29.85 2.95 35.35 8.5 40.95 14.05 40.95 21.9" fill="url(#gradient2)" fill-rule="evenodd" stroke="none"/>
      <path d="M0.15 24.9 Q0.3 22.45 0.75 20.45 0.5 24.65 0.75 26.3 1.1 29.3 3.05 30.75 L8.05 34.9 Q10.55 37.25 10.95 40.0 L14.5 42.3 10.65 42.7 Q9.9 44.2 7.15 43.85 3.15 43.3 2.35 40.05 1.65 37.45 3.55 36.45 L3.75 34.25 4.45 36.1 Q6.45 35.7 6.9 36.8 7.4 37.85 6.8 38.9 6.2 39.85 5.65 39.05 L6.45 38.6 Q6.5 38.2 5.8 37.55 5.2 36.9 4.6 37.2 4.05 37.5 3.75 38.65 3.15 41.1 6.0 42.2 8.95 43.3 9.4 40.6 9.9 38.35 7.1 36.0 4.85 34.4 3.35 33.1 L0.85 32.6 1.85 31.65 Q0.05 29.65 0.15 24.9" fill="#7a5130" fill-rule="evenodd" stroke="none"/>
      <path d="M0.2 24.0 Q0.35 21.6 0.8 19.6 0.55 23.75 0.8 25.35 1.15 28.35 3.1 29.85 L8.15 34.0 Q10.6 36.35 11.0 39.05 L14.65 42.35 10.75 41.85 Q10.0 43.3 7.2 42.95 3.2 42.35 2.4 39.2 1.7 36.6 3.65 35.6 L3.75 34.15 4.5 35.25 Q6.5 34.85 6.95 36.65 7.2 38.15 6.65 38.85 L5.8 39.2 Q7.1 38.0 5.7 36.7 4.4 35.35 3.8 37.75 3.2 40.2 6.05 41.25 9.0 42.35 9.45 39.7 10.0 37.5 7.15 35.05 L3.35 32.2 3.4 32.25 0.8 32.65 1.9 30.75 Q0.1 28.7 0.2 24.0" fill="#ca935c" fill-rule="evenodd" stroke="none"/>
      <path d="M0.8 21.25 Q0.75 24.2 0.85 25.4 1.35 28.45 3.2 29.95 L8.2 34.05 Q10.65 36.4 11.15 39.05 L14.25 41.95 14.0 41.85 13.85 41.7 12.15 40.5 Q10.3 38.9 10.25 37.8 10.1 36.45 8.4 34.95 L5.15 32.45 Q1.95 30.0 1.1 27.25 0.5 25.65 0.5 21.85 L0.8 21.25 M6.45 36.4 Q5.8 35.4 4.6 35.4 L4.4 35.5 4.3 35.4 4.15 35.4 4.15 34.55 4.65 35.3 Q6.55 34.9 7.05 36.7 7.25 37.75 7.05 38.45 L6.95 38.5 6.95 38.45 6.85 37.9 6.85 37.8 Q6.85 37.05 6.45 36.4 M4.2 40.1 L4.05 39.5 Q4.5 40.7 6.15 41.3 L8.4 41.5 8.5 41.55 6.95 41.85 Q6.15 41.85 5.3 41.15 L4.2 40.1" fill="#d7ad86" fill-rule="evenodd" stroke="none"/>
      <path d="M43.6 24.9 Q43.7 29.65 41.9 31.65 L42.9 32.6 40.4 33.1 36.65 36.0 Q33.85 38.35 34.35 40.6 34.8 43.3 37.75 42.2 40.6 41.1 40.0 38.65 39.7 37.5 39.15 37.2 38.55 36.9 37.95 37.55 37.25 38.2 37.3 38.6 37.4 39.0 38.1 39.05 37.55 39.85 36.95 38.9 36.35 37.85 36.85 36.8 37.3 35.7 39.3 36.1 L40.0 34.25 40.2 36.45 Q42.1 37.45 41.4 40.05 40.6 43.3 36.6 43.85 33.85 44.2 33.1 42.7 L29.25 42.3 32.8 40.0 Q33.2 37.25 35.7 34.9 L40.7 30.75 Q42.65 29.3 43.0 26.3 43.25 24.65 43.0 20.45 L43.6 24.9" fill="#7a5130" fill-rule="evenodd" stroke="none"/>
      <path d="M43.55 24.0 Q43.65 28.7 41.85 30.75 L42.95 32.65 40.35 32.25 40.4 32.2 36.6 35.05 Q33.75 37.5 34.3 39.7 34.75 42.35 37.7 41.25 40.55 40.2 39.95 37.75 39.35 35.35 38.05 36.7 36.65 38.0 37.95 39.2 L37.1 38.85 Q36.55 38.15 36.8 36.65 37.25 34.85 39.25 35.25 L40.0 34.15 40.1 35.6 Q42.05 36.6 41.35 39.2 40.55 42.35 36.55 42.95 33.75 43.3 33.0 41.85 L29.1 42.35 32.75 39.05 Q33.15 36.35 35.6 34.0 L40.65 29.85 Q42.6 28.35 42.95 25.35 43.2 23.75 42.95 19.6 L43.55 24.0" fill="#ca935c" fill-rule="evenodd" stroke="none"/>
      <path d="M37.3 36.4 Q36.9 37.05 36.9 37.8 L36.9 37.9 36.8 38.45 36.8 38.5 36.7 38.45 Q36.5 37.75 36.7 36.7 37.2 34.9 39.1 35.3 L39.6 34.55 39.6 35.4 39.45 35.4 39.35 35.5 39.15 35.4 Q37.95 35.4 37.3 36.4 M42.95 21.25 L43.25 21.85 Q43.25 25.65 42.65 27.25 41.8 30.0 38.6 32.45 L35.35 34.95 Q33.65 36.45 33.5 37.8 33.45 38.9 31.6 40.5 L29.9 41.7 29.75 41.85 29.5 41.95 32.6 39.05 Q33.1 36.4 35.55 34.05 L40.55 29.95 Q42.4 28.45 42.9 25.4 L42.95 21.25 M39.55 40.1 L38.45 41.15 Q37.6 41.85 36.8 41.85 L35.25 41.55 35.35 41.5 37.6 41.3 Q39.25 40.7 39.7 39.5 L39.55 40.1" fill="#d7ad86" fill-rule="evenodd" stroke="none"/>
    </g>
    <linearGradient gradientTransform="matrix(1.0E-4, 0.0222, -0.0231, 1.0E-4, 22.05, 22.15)" gradientUnits="userSpaceOnUse" id="gradient2" spreadMethod="pad" x1="-819.2" x2="819.2">
      <stop offset="0.011764705882352941" stop-color="#59351e"/>
      <stop offset="1.0" stop-color="#cc955e"/>
    </linearGradient>
    <g id="sprite1" transform="matrix(1.0, 0.0, 0.0, 1.0, 0.2, 0.0)">
      <use height="8.6" transform="matrix(1.0, 0.0, 0.0, 1.0, -0.2, 0.0)" width="35.05" xlink:href="#shape3"/>
    </g>
    <g id="shape3" transform="matrix(1.0, 0.0, 0.0, 1.0, 0.2, 0.0)">
      <path d="M34.85 8.6 Q34.8 6.95 34.4 5.7 33.0 1.3 27.2 1.3 L7.45 1.3 Q0.05 1.3 -0.2 8.5 L-0.2 7.65 Q-0.2 0.0 7.45 0.0 L27.2 0.0 Q33.0 0.0 34.4 4.4 34.85 5.8 34.85 7.65 L34.85 8.6" fill="#e7deda" fill-rule="evenodd" stroke="none"/>
    </g>
  </defs>
</svg>
