<?xml version="1.0" encoding="UTF-8" standalone="no"?>
<svg xmlns:xlink="http://www.w3.org/1999/xlink" height="66.0px" width="66.0px" xmlns="http://www.w3.org/2000/svg">
  <g transform="matrix(1.5, 0.0, 0.0, 1.5, 0.225, 0.15)">
    <use height="43.95" transform="matrix(1.0, 0.0, 0.0, 1.0, -0.15, -0.1)" width="44.0" xlink:href="#shape0"/>
    <use height="8.6" transform="matrix(1.2077, 0.0, 0.0, 1.2036, 0.7085, 0.2)" width="35.05" xlink:href="#sprite0"/>
    <use height="38.05" transform="matrix(1.0, 0.0, 0.0, 1.0, 2.7, 3.15)" width="38.0" xlink:href="#shape2"/>
    <use height="0.0" transform="matrix(1.2125, 0.0, 0.0, 1.2107, 0.85, 0.6)" width="0.0" xlink:href="#sprite1"/>
    <use height="37.1" transform="matrix(1.0, 0.0, 0.0, 1.0, 0.55, 6.8)" width="42.65" xlink:href="#shape3"/>
    <use height="20.15" transform="matrix(1.1594, 0.0, 0.0, 1.1577, 5.45, 5.15)" width="28.2" xlink:href="#sprite2"/>
  </g>
  <defs>
    <g id="shape0" transform="matrix(1.0, 0.0, 0.0, 1.0, 0.15, 0.1)">
      <path d="M41.65 41.65 Q39.45 43.85 36.25 43.85 L7.45 43.85 Q4.3 43.85 2.1 41.65 -0.15 39.45 -0.15 36.25 L-0.15 7.5 Q-0.15 4.4 2.1 2.2 4.3 -0.1 7.45 -0.1 L36.25 -0.1 Q39.4 -0.1 41.65 2.2 43.85 4.4 43.85 7.5 L43.85 36.25 Q43.85 39.45 41.65 41.65" fill="url(#gradient0)" fill-rule="evenodd" stroke="none"/>
    </g>
    <linearGradient gradientTransform="matrix(0.0, -0.0282, -0.0551, 0.0, 22.4, 21.6)" gradientUnits="userSpaceOnUse" id="gradient0" spreadMethod="pad" x1="-819.2" x2="819.2">
      <stop offset="0.011764705882352941" stop-color="#9dae7c"/>
      <stop offset="1.0" stop-color="#7e8f45"/>
    </linearGradient>
    <g id="sprite0" transform="matrix(1.0, 0.0, 0.0, 1.0, 0.2, 0.0)">
      <use height="8.6" transform="matrix(1.0, 0.0, 0.0, 1.0, -0.2, 0.0)" width="35.05" xlink:href="#shape1"/>
    </g>
    <g id="shape1" transform="matrix(1.0, 0.0, 0.0, 1.0, 0.2, 0.0)">
      <path d="M34.85 8.6 Q34.8 6.95 34.4 5.7 33.0 1.3 27.2 1.3 L7.45 1.3 Q0.05 1.3 -0.2 8.5 L-0.2 7.65 Q-0.2 0.0 7.45 0.0 L27.2 0.0 Q33.0 0.0 34.4 4.4 34.85 5.8 34.85 7.65 L34.85 8.6" fill="#e7deda" fill-rule="evenodd" stroke="none"/>
    </g>
    <g id="shape2" transform="matrix(1.0, 0.0, 0.0, 1.0, -2.7, -3.15)">
      <path d="M8.7 8.85 Q14.15 3.4 21.9 3.4 29.6 3.4 35.05 8.85 40.45 14.25 40.45 21.9 40.45 29.65 35.05 35.05 29.6 40.45 21.9 40.45 14.15 40.45 8.7 35.05 3.25 29.65 3.25 21.9 3.25 14.2 8.7 8.85" fill="url(#gradient1)" fill-rule="evenodd" stroke="none"/>
      <path d="M40.7 22.15 Q40.7 30.0 35.1 35.5 29.6 41.2 21.7 41.2 13.75 41.2 8.25 35.5 2.7 30.0 2.7 22.15 2.7 14.2 8.25 8.7 13.75 3.15 21.7 3.15 29.6 3.15 35.1 8.7 40.7 14.2 40.7 22.15 M33.55 10.45 Q28.6 5.6 21.7 5.55 14.8 5.6 9.95 10.45 5.05 15.25 5.0 22.15 5.05 29.1 9.95 33.95 14.8 38.8 21.7 38.8 28.6 38.8 33.55 33.95 38.35 29.1 38.35 22.15 38.35 15.25 33.55 10.45" fill="url(#gradient2)" fill-rule="evenodd" stroke="none"/>
    </g>
    <linearGradient gradientTransform="matrix(0.0, -0.0173, -0.0173, 0.0, 21.9, 18.4)" gradientUnits="userSpaceOnUse" id="gradient1" spreadMethod="pad" x1="-819.2" x2="819.2">
      <stop offset="0.011764705882352941" stop-color="#d3d4b5"/>
      <stop offset="1.0" stop-color="#71a26f"/>
    </linearGradient>
    <linearGradient gradientTransform="matrix(1.0E-4, 0.0223, -0.0232, 1.0E-4, 21.75, 22.4)" gradientUnits="userSpaceOnUse" id="gradient2" spreadMethod="pad" x1="-819.2" x2="819.2">
      <stop offset="0.011764705882352941" stop-color="#516537"/>
      <stop offset="1.0" stop-color="#a8ce99"/>
    </linearGradient>
    <g id="shape3" transform="matrix(1.0, 0.0, 0.0, 1.0, -0.55, -6.8)">
      <path d="M0.7 32.75 Q1.0 30.45 2.25 29.25 L2.65 27.55 Q2.8 26.55 2.55 25.5 L2.25 24.45 1.6 23.1 2.65 24.2 3.5 25.4 3.8 26.8 Q3.9 27.7 3.2 29.5 2.55 31.05 2.4 33.25 L2.3 33.0 2.25 33.25 Q1.7 36.05 2.85 38.0 3.4 38.95 4.1 39.5 L3.8 39.0 3.9 39.05 4.15 39.55 Q4.75 40.3 5.6 40.45 6.7 40.65 7.75 39.75 9.0 38.8 8.05 37.45 L8.1 38.3 Q7.9 39.25 6.55 39.7 L5.55 39.9 5.55 39.8 5.45 38.6 Q5.4 36.85 6.85 35.95 8.35 35.0 9.85 36.55 L11.05 38.35 Q11.0 36.5 10.1 35.55 L10.25 35.7 Q10.95 36.45 11.25 37.4 L11.2 37.4 11.35 37.8 11.65 38.65 11.7 39.8 Q10.3 42.7 8.5 42.7 9.8 42.5 9.9 41.35 7.0 42.55 3.55 40.85 1.05 38.9 0.7 32.75" fill="#9ec087" fill-rule="evenodd" stroke="none"/>
      <path d="M11.7 39.8 Q11.6 40.95 10.95 42.05 9.95 43.85 6.85 43.9 L3.95 43.6 5.45 43.15 7.65 42.85 6.4 42.95 Q4.25 42.9 2.7 41.4 0.8 39.35 0.6 35.25 0.5 33.85 0.7 32.75 1.05 38.9 3.55 40.85 7.0 42.55 9.9 41.35 9.8 42.5 8.5 42.7 10.3 42.7 11.7 39.8" fill="#648a4a" fill-rule="evenodd" stroke="none"/>
      <path d="M2.4 33.25 L2.45 34.55 Q2.8 36.3 3.65 37.45 L3.75 36.85 Q4.45 34.85 7.15 34.3 L9.05 34.75 10.1 35.55 Q11.0 36.5 11.05 38.35 L9.85 36.55 Q8.35 35.0 6.85 35.95 5.4 36.85 5.45 38.6 L5.55 39.8 5.55 39.9 6.55 39.7 Q7.9 39.25 8.1 38.3 L8.05 37.45 Q9.0 38.8 7.75 39.75 6.7 40.65 5.6 40.45 4.75 40.3 4.15 39.55 L3.9 39.05 3.8 39.0 4.1 39.5 Q3.4 38.95 2.85 38.0 1.7 36.05 2.25 33.25 L2.4 33.25 M3.8 39.0 L3.95 38.95 3.9 38.8 3.75 38.85 3.8 39.0" fill="#c0d6b1" fill-rule="evenodd" stroke="none"/>
      <path d="M2.25 33.25 L2.3 33.0 2.4 33.25 2.25 33.25" fill="#00632e" fill-rule="evenodd" stroke="none"/>
      <path d="M3.8 39.0 L3.75 38.85 3.9 38.8 3.95 38.95 3.8 39.0" fill="#ccbf38" fill-rule="evenodd" stroke="none"/>
      <path d="M11.25 37.4 L11.35 37.8 11.2 37.4 11.25 37.4" fill="url(#gradient3)" fill-rule="evenodd" stroke="none"/>
      <path d="M41.35 33.25 Q41.2 31.05 40.55 29.5 39.85 27.7 39.95 26.8 L40.25 25.4 41.1 24.2 42.15 23.1 41.5 24.45 41.2 25.5 Q40.95 26.55 41.1 27.55 L41.5 29.25 Q42.75 30.45 43.05 32.75 42.7 38.9 40.2 40.85 36.75 42.55 33.85 41.35 33.95 42.5 35.25 42.7 33.45 42.7 32.05 39.8 32.0 39.25 32.1 38.65 L32.4 37.8 32.55 37.4 32.5 37.4 Q32.8 36.45 33.5 35.7 L33.65 35.55 Q32.75 36.5 32.7 38.35 33.15 37.4 33.9 36.55 35.4 35.0 36.9 35.95 38.35 36.85 38.3 38.6 L38.2 39.8 38.2 39.9 37.2 39.7 Q35.85 39.25 35.65 38.3 L35.7 37.45 Q34.75 38.8 36.0 39.75 37.05 40.65 38.15 40.45 39.0 40.3 39.6 39.55 L39.85 39.05 39.95 39.0 39.65 39.5 40.9 38.0 Q42.05 36.05 41.5 33.25 L41.45 33.0 41.35 33.25" fill="#9ec087" fill-rule="evenodd" stroke="none"/>
      <path d="M32.05 39.8 Q33.45 42.7 35.25 42.7 33.95 42.5 33.85 41.35 36.75 42.55 40.2 40.85 42.7 38.9 43.05 32.75 L43.15 35.25 Q42.95 39.35 41.05 41.4 39.5 42.9 37.35 42.95 L36.1 42.85 38.3 43.15 39.8 43.6 36.9 43.9 Q33.8 43.85 32.8 42.05 32.15 40.95 32.05 39.8" fill="#648a4a" fill-rule="evenodd" stroke="none"/>
      <path d="M41.35 33.25 L41.45 33.0 41.5 33.25 41.35 33.25" fill="#00632e" fill-rule="evenodd" stroke="none"/>
      <path d="M41.5 33.25 Q42.05 36.05 40.9 38.0 L39.65 39.5 39.95 39.0 39.85 39.05 39.6 39.55 Q39.0 40.3 38.15 40.45 37.05 40.65 36.0 39.75 34.75 38.8 35.7 37.45 L35.65 38.3 Q35.85 39.25 37.2 39.7 L38.2 39.9 38.2 39.8 38.3 38.6 Q38.35 36.85 36.9 35.95 35.4 35.0 33.9 36.55 33.15 37.4 32.7 38.35 32.75 36.5 33.65 35.55 34.15 35.05 34.7 34.75 L36.6 34.3 Q39.3 34.85 40.0 36.85 L40.1 37.45 Q40.95 36.3 41.3 34.55 L41.35 33.25 41.5 33.25 M39.95 39.0 L40.0 38.85 39.85 38.8 39.8 38.95 39.95 39.0" fill="#c0d6b1" fill-rule="evenodd" stroke="none"/>
      <path d="M39.95 39.0 L39.8 38.95 39.85 38.8 40.0 38.85 39.95 39.0" fill="#ccbf38" fill-rule="evenodd" stroke="none"/>
      <path d="M32.5 37.4 L32.55 37.4 32.4 37.8 32.5 37.4" fill="url(#gradient4)" fill-rule="evenodd" stroke="none"/>
      <path d="M24.85 6.8 Q25.95 6.9 26.65 7.7 L26.75 7.75 26.9 8.05 28.05 8.0 Q30.0 8.2 31.2 9.65 32.3 10.95 32.25 12.65 L32.5 12.85 32.6 12.95 Q33.2 13.8 33.1 15.0 L33.1 15.05 Q33.0 16.1 32.15 16.8 31.3 17.55 30.25 17.45 L29.4 18.4 Q28.25 19.3 26.85 19.2 L25.3 18.7 24.4 19.8 Q23.3 20.65 22.3 20.0 L22.85 18.85 Q23.25 19.1 24.1 18.5 L24.9 17.65 26.1 18.0 Q27.25 18.1 28.2 17.4 27.7 17.45 27.35 17.0 26.9 16.5 26.6 15.5 27.15 16.1 27.85 16.4 L28.95 16.65 Q29.75 16.7 30.5 16.15 31.15 15.6 31.25 14.8 L31.25 14.75 Q31.35 13.85 30.85 13.15 L30.75 13.1 30.6 12.9 Q30.55 11.6 29.7 10.5 28.7 9.4 27.1 9.25 L26.1 9.3 Q25.05 9.8 24.7 10.7 24.55 9.55 25.45 8.7 L24.45 8.35 Q23.5 8.25 22.75 8.85 L22.45 9.1 22.4 9.15 22.3 9.15 Q21.2 9.05 20.3 9.7 20.9 10.55 20.85 11.75 20.55 10.65 19.7 10.25 19.0 9.75 18.1 9.65 16.45 9.5 15.3 10.45 14.05 11.35 13.85 12.85 L13.9 13.25 Q14.1 14.25 15.15 14.65 13.9 14.7 13.65 13.95 L13.6 14.15 Q13.5 15.0 14.1 15.7 L14.7 16.2 15.65 16.5 15.95 16.5 16.05 16.55 Q17.85 16.4 19.0 15.8 18.6 16.55 17.35 16.85 L17.5 17.15 18.1 17.6 19.05 17.9 19.35 17.95 19.85 17.9 19.45 19.1 18.7 19.1 18.3 19.05 17.2 18.7 16.45 18.05 16.2 17.75 14.6 17.35 14.2 17.3 Q13.55 17.25 13.05 16.9 L12.35 16.3 Q11.6 15.4 11.7 14.35 11.8 13.7 12.05 13.2 L12.05 12.7 Q12.3 10.75 13.8 9.6 15.25 8.35 17.2 8.55 18.3 8.65 19.2 9.2 L19.75 8.7 Q20.85 7.75 22.3 7.9 L22.4 7.9 22.45 7.85 Q22.6 7.55 22.9 7.4 23.75 6.65 24.85 6.8 M27.4 14.85 L28.3 14.75 Q26.8 15.65 25.55 15.05 25.1 15.7 24.0 15.8 22.25 16.05 21.25 14.3 21.0 13.55 21.25 12.45 22.0 15.2 24.75 14.5 23.85 13.4 24.5 11.7 24.5 13.45 25.6 14.25 L25.85 14.45 27.4 14.85 M20.65 33.3 L19.75 33.45 Q19.05 33.65 19.05 33.95 19.05 34.25 19.75 34.4 L21.45 34.65 23.1 34.4 23.85 33.95 Q23.85 33.65 23.1 33.45 L22.2 33.3 23.6 33.5 Q24.55 33.8 24.55 34.15 L23.6 34.8 21.45 35.05 19.2 34.8 Q18.35 34.5 18.35 34.15 18.35 33.8 19.2 33.5 L20.65 33.3 M14.9 34.3 L14.95 34.3 15.25 34.1 15.55 33.9 15.05 33.45 16.1 33.65 16.2 33.6 16.65 33.45 19.8 32.95 19.8 33.0 17.85 33.3 16.75 33.8 16.5 34.0 16.3 34.35 Q16.3 34.95 17.55 35.35 L17.85 35.45 21.6 35.9 25.25 35.45 Q26.85 35.05 26.85 34.35 26.85 33.8 25.25 33.3 L23.3 33.0 23.3 32.95 25.35 33.25 26.4 33.45 26.95 33.65 28.55 33.6 27.95 34.1 28.25 34.35 28.35 34.4 31.0 34.85 28.3 35.3 27.95 35.6 27.45 35.9 28.1 36.6 26.1 36.35 25.55 36.45 24.6 36.65 24.55 36.65 24.55 37.25 23.8 36.7 23.4 36.75 22.6 36.8 22.45 36.8 21.85 37.65 21.2 36.8 20.95 36.8 19.5 36.75 19.25 36.7 18.4 37.3 18.4 36.6 17.25 36.4 16.65 36.25 14.6 36.5 15.65 35.85 14.85 35.3 14.75 35.05 12.55 34.65 14.9 34.3 M23.7 16.3 L21.35 20.8 25.5 20.4 23.65 24.9 26.85 24.65 21.0 33.9 22.95 27.25 19.85 27.8 21.65 22.95 18.25 23.35 21.3 15.15 Q22.05 16.35 23.7 16.3" fill="#496125" fill-rule="evenodd" stroke="none"/>
    </g>
    <linearGradient gradientTransform="matrix(0.0, -0.0249, -0.0249, 0.0, 5.85, 31.15)" gradientUnits="userSpaceOnUse" id="gradient3" spreadMethod="pad" x1="-819.2" x2="819.2">
      <stop offset="0.011764705882352941" stop-color="#bed9a5"/>
      <stop offset="1.0" stop-color="#739416"/>
    </linearGradient>
    <linearGradient gradientTransform="matrix(0.0, -0.0249, 0.0249, 0.0, 37.65, 31.15)" gradientUnits="userSpaceOnUse" id="gradient4" spreadMethod="pad" x1="-819.2" x2="819.2">
      <stop offset="0.011764705882352941" stop-color="#bed9a5"/>
      <stop offset="1.0" stop-color="#739416"/>
    </linearGradient>
    <g id="sprite2" transform="matrix(1.0, 0.0, 0.0, 1.0, 0.0, 0.0)">
      <use height="20.15" transform="matrix(1.0, 0.0, 0.0, 1.0, 0.0, 0.0)" width="28.2" xlink:href="#shape4"/>
    </g>
    <g id="shape4" transform="matrix(1.0, 0.0, 0.0, 1.0, 0.0, 0.0)">
      <path d="M27.65 18.45 L27.4 18.95 Q26.2 20.8 23.4 19.8 19.6 18.5 17.35 14.05 14.8 9.1 9.75 7.4 4.1 5.65 0.0 10.3 1.0 6.85 3.7 4.15 7.2 0.65 11.9 0.05 L14.8 0.05 18.4 0.65 Q21.55 1.65 24.05 4.15 28.2 8.3 28.2 14.25 28.2 16.45 27.65 18.45" fill="#ffffff" fill-opacity="0.19607843" fill-rule="evenodd" stroke="none"/>
    </g>
  </defs>
</svg>
