<?xml version="1.0" encoding="UTF-8" standalone="no"?>
<svg xmlns:xlink="http://www.w3.org/1999/xlink" height="66.0px" width="66.0px" xmlns="http://www.w3.org/2000/svg">
  <g transform="matrix(1.5, 0.0, 0.0, 1.5, 0.225, 0.225)">
    <use height="43.1" transform="matrix(1.0, 0.0, 0.0, 1.0, 0.0, -0.15)" width="43.65" xlink:href="#shape0"/>
    <use height="20.15" transform="matrix(1.1594, 0.0, 0.0, 1.1474, 6.05, 4.65)" width="28.2" xlink:href="#sprite0"/>
    <use height="40.8" transform="matrix(1.0, 0.0, 0.0, 1.0, -0.15, 3.05)" width="44.0" xlink:href="#shape2"/>
    <use height="8.6" transform="matrix(1.2077, 0.0, 0.0, 1.1929, 0.6585, 0.8)" width="35.05" xlink:href="#sprite1"/>
  </g>
  <defs>
    <g id="shape0" transform="matrix(1.0, 0.0, 0.0, 1.0, 0.0, 0.15)">
      <path d="M36.1 -0.15 Q39.25 -0.15 41.45 2.0 43.65 4.2 43.65 7.25 L43.65 35.5 Q43.65 38.6 41.45 40.75 39.25 42.95 36.1 42.95 L7.55 42.95 Q4.4 42.95 2.2 40.75 0.0 38.6 0.0 35.5 L0.0 7.25 Q0.0 4.2 2.2 2.0 4.4 -0.15 7.55 -0.15 L36.1 -0.15" fill="url(#gradient0)" fill-rule="evenodd" stroke="none"/>
      <path d="M39.7 21.4 Q39.7 28.7 34.5 33.95 29.3 39.1 21.9 39.1 14.45 39.1 9.25 33.95 4.05 28.7 4.05 21.4 4.05 14.15 9.25 8.95 14.55 3.75 21.9 3.75 29.3 3.75 34.5 8.95 39.7 14.15 39.7 21.4" fill="url(#gradient1)" fill-rule="evenodd" stroke="none"/>
      <path d="M17.4 32.55 L13.25 30.7 14.3 30.2 10.95 26.9 9.5 26.4 9.9 26.0 7.9 25.5 8.45 24.95 5.95 24.1 8.4 23.6 8.8 21.2 9.8 23.6 10.25 23.2 10.8 25.1 11.2 24.7 11.65 26.2 15.0 29.5 15.55 28.4 17.4 32.55 M27.25 16.55 L27.3 16.55 27.3 18.65 27.3 27.3 27.25 27.3 25.55 27.3 24.75 27.3 24.75 20.7 24.15 20.7 24.15 31.5 24.15 33.15 24.15 33.25 25.45 33.25 Q26.6 33.25 27.35 34.0 28.1 34.75 28.15 35.9 L28.15 38.65 16.45 38.65 16.45 35.9 Q16.5 34.75 17.2 34.0 18.05 33.25 19.2 33.25 L20.25 33.25 20.25 33.15 20.25 31.5 20.25 20.7 19.5 20.7 19.5 27.3 18.85 27.3 17.1 27.3 17.1 16.55 20.25 15.9 20.25 15.45 19.05 14.65 18.9 14.45 18.85 14.45 Q17.6 13.25 17.6 11.5 17.6 9.9 18.85 8.6 L18.9 8.6 Q20.2 7.4 21.8 7.4 L22.15 7.4 22.4 7.4 Q24.2 7.4 25.35 8.6 L25.5 8.6 Q26.7 9.9 26.7 11.5 26.7 13.25 25.5 14.45 L25.35 14.45 24.35 15.35 24.15 15.45 24.15 15.9 27.25 16.55 M26.65 32.55 L28.5 28.4 29.05 29.5 32.4 26.2 32.9 24.7 33.25 25.1 33.8 23.2 34.25 23.6 35.25 21.2 35.65 23.6 38.1 24.1 35.6 24.95 36.15 25.5 34.15 26.0 34.6 26.4 33.1 26.9 29.75 30.2 30.8 30.7 Q28.75 31.65 26.65 32.55" fill="#4a3355" fill-rule="evenodd" stroke="none"/>
      <path d="M13.75 6.75 L15.75 6.05 17.85 16.85 13.75 6.75 M36.45 13.0 L30.9 15.0 35.75 11.55 36.45 13.0 M22.25 9.2 L22.3 9.25 22.45 14.35 21.35 8.8 22.25 9.2 M28.95 8.0 L28.85 8.0 27.1 11.85 27.6 5.4 28.0 5.4 29.8 5.95 28.95 8.0 M6.65 15.4 L7.55 12.9 13.3 19.25 6.65 15.4 M14.2 12.6 L17.15 19.15 13.8 15.0 13.7 14.95 14.2 12.6" fill="#4a3355" fill-rule="evenodd" stroke="none"/>
    </g>
    <linearGradient gradientTransform="matrix(0.0, -0.054, -0.0546, 0.0, 21.8, 17.8)" gradientUnits="userSpaceOnUse" id="gradient0" spreadMethod="pad" x1="-819.2" x2="819.2">
      <stop offset="0.011764705882352941" stop-color="#bf809f"/>
      <stop offset="1.0" stop-color="#543c7c"/>
    </linearGradient>
    <linearGradient gradientTransform="matrix(0.0, -0.0165, -0.0167, 0.0, 21.9, 18.05)" gradientUnits="userSpaceOnUse" id="gradient1" spreadMethod="pad" x1="-819.2" x2="819.2">
      <stop offset="0.011764705882352941" stop-color="#bcb9ae"/>
      <stop offset="1.0" stop-color="#9b5b79"/>
    </linearGradient>
    <g id="sprite0" transform="matrix(1.0, 0.0, 0.0, 1.0, 0.0, 0.0)">
      <use height="20.15" transform="matrix(1.0, 0.0, 0.0, 1.0, 0.0, 0.0)" width="28.2" xlink:href="#shape1"/>
    </g>
    <g id="shape1" transform="matrix(1.0, 0.0, 0.0, 1.0, 0.0, 0.0)">
      <path d="M27.65 18.45 L27.4 18.95 Q26.2 20.8 23.4 19.8 19.6 18.5 17.35 14.05 14.8 9.1 9.75 7.4 4.1 5.65 0.0 10.3 1.0 6.85 3.7 4.15 7.2 0.65 11.9 0.05 L14.8 0.05 18.4 0.65 Q21.55 1.65 24.05 4.15 28.2 8.3 28.2 14.25 28.2 16.45 27.65 18.45" fill="#ffffff" fill-opacity="0.19607843" fill-rule="evenodd" stroke="none"/>
    </g>
    <g id="shape2" transform="matrix(1.0, 0.0, 0.0, 1.0, 0.15, -3.05)">
      <path d="M38.0 33.55 L38.8 33.45 Q40.8 31.4 42.55 25.35 L43.65 20.45 43.65 20.5 43.55 22.35 42.4 26.7 Q42.0 28.6 40.8 30.95 L39.65 32.95 Q39.1 33.8 37.85 33.85 L37.45 33.95 37.4 33.95 37.15 33.75 38.0 33.55 M40.55 34.95 L41.05 35.5 41.85 32.05 41.85 31.95 42.0 31.8 41.3 35.6 41.2 35.65 40.6 35.6 40.55 35.15 40.55 34.95 M39.6 42.6 L39.6 42.75 39.2 42.95 38.75 43.15 38.8 43.0 39.25 42.1 39.35 41.8 39.45 41.5 39.45 41.45 39.45 41.4 39.5 41.2 39.5 40.35 39.3 39.85 39.0 39.25 38.75 38.8 37.85 38.0 37.5 37.75 37.7 37.7 Q38.85 37.7 39.35 39.35 L39.7 41.2 39.6 42.6 M37.0 35.2 L37.05 35.25 36.4 36.15 34.5 38.55 Q31.75 42.2 29.05 42.2 L28.25 42.15 28.45 42.1 28.7 42.0 29.7 41.65 30.75 41.35 Q32.4 40.8 34.85 37.9 L37.0 35.2 M0.0 20.5 L0.0 20.45 1.1 25.35 Q2.85 31.4 4.85 33.45 L5.7 33.55 6.5 33.75 6.25 33.95 6.2 33.95 5.8 33.85 Q4.6 33.8 4.0 32.95 L2.85 30.95 Q1.7 28.6 1.3 26.7 L0.1 22.35 0.0 20.5 M1.8 31.95 L1.8 32.05 2.6 35.5 3.15 34.95 3.15 35.15 3.05 35.6 2.45 35.65 2.4 35.6 1.7 31.8 1.8 31.95 M15.4 42.15 L14.6 42.2 Q11.95 42.2 9.15 38.55 L7.25 36.15 6.6 35.25 6.65 35.2 8.8 37.9 Q11.25 40.8 12.9 41.35 L13.95 41.65 14.95 42.0 15.25 42.1 15.4 42.15 M4.05 42.6 L3.95 41.2 Q3.95 40.3 4.3 39.35 4.8 37.7 5.95 37.7 L6.15 37.75 5.8 38.0 4.9 38.8 4.65 39.25 4.35 39.85 4.15 40.35 4.15 41.2 4.25 41.4 4.25 41.45 4.25 41.5 4.3 41.8 4.4 42.1 4.85 43.0 4.9 43.15 4.45 42.95 4.05 42.75 4.05 42.6" fill="#c8a6c1" fill-rule="evenodd" stroke="none"/>
      <path d="M43.65 20.5 L43.85 19.7 43.75 20.45 43.65 23.9 Q43.65 25.25 41.85 29.7 L39.9 34.3 40.05 34.5 40.55 34.95 40.55 35.15 40.6 35.6 41.2 35.65 41.3 35.6 42.0 31.8 41.85 31.95 42.4 29.95 42.55 38.3 37.8 34.25 37.45 33.95 37.85 33.85 Q39.1 33.8 39.65 32.95 L40.8 30.95 Q42.0 28.6 42.4 26.7 L43.55 22.35 43.65 20.5 M37.5 33.65 L38.0 33.55 37.15 33.75 37.5 33.65 M42.4 39.55 L42.05 40.3 Q41.35 41.55 39.6 42.6 L39.7 41.2 39.35 39.35 Q38.85 37.7 37.7 37.7 L37.5 37.75 36.75 37.3 33.8 41.55 34.2 41.55 34.85 41.55 38.1 40.95 37.9 41.15 37.3 41.75 36.55 42.5 28.6 42.9 27.05 42.75 26.75 42.65 26.7 42.65 27.0 42.55 27.1 42.55 28.25 42.15 29.05 42.2 Q31.75 42.2 34.5 38.55 L36.4 36.15 37.05 35.25 37.0 35.2 42.3 39.55 42.4 39.55 M5.7 33.55 L6.15 33.65 6.5 33.75 5.7 33.55 M1.1 38.3 L1.3 29.95 1.8 31.95 1.7 31.8 2.4 35.6 2.45 35.65 3.05 35.6 3.15 35.15 3.15 34.95 3.6 34.5 3.75 34.3 1.8 29.7 Q0.0 25.25 0.0 23.9 L-0.1 20.45 -0.15 19.7 0.0 20.5 0.1 22.35 1.3 26.7 Q1.7 28.6 2.85 30.95 L4.0 32.95 Q4.6 33.8 5.8 33.85 L6.2 33.95 5.85 34.25 1.1 38.3 M6.65 35.2 L6.6 35.25 7.25 36.15 9.15 38.55 Q11.95 42.2 14.6 42.2 L15.4 42.15 16.55 42.55 16.7 42.55 16.95 42.65 16.9 42.65 16.6 42.75 15.05 42.9 7.1 42.5 6.35 41.75 5.75 41.15 5.55 40.95 8.8 41.55 9.45 41.55 9.85 41.55 6.9 37.3 6.15 37.75 5.95 37.7 Q4.8 37.7 4.3 39.35 3.95 40.3 3.95 41.2 L4.05 42.6 Q2.3 41.55 1.6 40.3 L1.3 39.55 1.35 39.55 6.65 35.2" fill="#4a3355" fill-rule="evenodd" stroke="none"/>
      <path d="M43.75 20.45 L43.85 20.35 43.65 24.4 Q43.65 26.45 40.05 34.5 L39.9 34.3 41.85 29.7 Q43.65 25.25 43.65 23.9 L43.75 20.45 M42.55 38.3 L42.55 38.95 37.3 34.5 37.6 34.5 37.8 34.25 42.55 38.3 M42.05 40.3 L42.3 40.3 Q41.65 42.2 38.75 43.85 L39.2 42.95 39.6 42.75 39.6 42.6 Q41.35 41.55 42.05 40.3 M28.6 42.9 L36.55 42.5 37.3 41.75 37.85 41.75 36.55 43.1 Q34.8 44.0 26.75 43.3 L26.9 43.15 27.7 42.9 27.9 43.0 28.6 42.9 M34.2 41.55 L33.8 41.55 36.75 37.3 37.5 37.75 37.85 38.0 38.75 38.8 39.0 39.25 39.3 39.85 39.5 40.35 39.5 41.2 Q39.45 40.3 38.75 39.4 37.85 38.4 36.75 37.85 L34.2 41.55 M6.35 34.5 L1.1 38.95 1.1 38.3 5.85 34.25 6.1 34.5 6.35 34.5 M3.6 34.5 Q0.0 26.45 0.0 24.4 L-0.15 20.35 -0.1 20.45 0.0 23.9 Q0.0 25.25 1.8 29.7 L3.75 34.3 3.6 34.5 M1.6 40.3 Q2.3 41.55 4.05 42.6 L4.05 42.75 4.45 42.95 4.9 43.85 Q2.05 42.2 1.35 40.3 L1.6 40.3 M6.15 37.75 L6.9 37.3 9.85 41.55 9.45 41.55 6.9 37.85 Q5.8 38.4 4.9 39.4 4.25 40.3 4.15 41.2 L4.15 40.35 4.35 39.85 4.65 39.25 4.9 38.8 5.8 38.0 6.15 37.75 M6.35 41.75 L7.1 42.5 15.05 42.9 15.75 43.0 16.0 42.9 16.75 43.15 16.9 43.3 Q8.85 44.0 7.1 43.1 L5.8 41.75 6.35 41.75" fill="#0b000a" fill-rule="evenodd" stroke="none"/>
      <path d="M37.3 34.5 L37.25 34.4 37.15 34.3 37.1 33.75 37.5 33.65 37.15 33.75 37.4 33.95 37.45 33.95 37.8 34.25 37.6 34.5 37.3 34.5 M42.3 40.3 L42.05 40.3 42.4 39.55 42.5 40.05 42.4 40.3 42.3 40.3 M27.1 42.55 L27.0 42.55 27.05 42.5 27.1 42.55 M26.75 42.65 L27.05 42.75 28.6 42.9 27.9 43.0 27.7 42.9 26.9 43.15 26.75 43.3 26.75 42.65 M37.3 41.75 L37.9 41.15 38.1 41.3 38.1 41.7 37.85 41.75 37.3 41.75 M6.15 33.65 L6.55 33.75 6.5 34.3 6.45 34.4 6.35 34.5 6.1 34.5 5.85 34.25 6.2 33.95 6.25 33.95 6.5 33.75 6.15 33.65 M1.3 39.55 L1.6 40.3 1.35 40.3 1.3 40.3 1.15 40.05 Q1.15 39.65 1.3 39.55 M5.75 41.15 L6.35 41.75 5.8 41.75 5.55 41.7 5.55 41.3 Q5.6 41.15 5.75 41.15 M15.05 42.9 L16.6 42.75 16.9 42.65 16.9 43.3 16.75 43.15 16.0 42.9 15.75 43.0 15.05 42.9 M16.7 42.55 L16.55 42.55 16.6 42.5 16.7 42.55" fill="#000000" fill-rule="evenodd" stroke="none"/>
      <path d="M35.3 8.55 Q40.9 13.95 40.9 21.85 40.9 29.6 35.3 35.05 29.8 40.65 21.9 40.65 14.0 40.65 8.5 35.05 2.95 29.6 2.95 21.85 2.95 13.95 8.5 8.55 14.0 3.05 21.9 3.05 29.8 3.05 35.3 8.55 M33.75 10.25 Q28.8 5.45 21.9 5.4 15.05 5.45 10.15 10.25 5.3 15.0 5.25 21.85 5.3 28.7 10.15 33.5 15.05 38.3 21.9 38.3 28.8 38.3 33.75 33.5 38.55 28.7 38.55 21.85 38.55 15.0 33.75 10.25" fill="url(#gradient2)" fill-rule="evenodd" stroke="none"/>
    </g>
    <linearGradient gradientTransform="matrix(0.0, 0.0224, -0.0232, 0.0, 21.9, 22.05)" gradientUnits="userSpaceOnUse" id="gradient2" spreadMethod="pad" x1="-819.2" x2="819.2">
      <stop offset="0.0" stop-color="#3d2945"/>
      <stop offset="1.0" stop-color="#cabad6"/>
    </linearGradient>
    <g id="sprite1" transform="matrix(1.0, 0.0, 0.0, 1.0, 0.2, 0.0)">
      <use height="8.6" transform="matrix(1.0, 0.0, 0.0, 1.0, -0.2, 0.0)" width="35.05" xlink:href="#shape3"/>
    </g>
    <g id="shape3" transform="matrix(1.0, 0.0, 0.0, 1.0, 0.2, 0.0)">
      <path d="M34.85 8.6 Q34.8 6.95 34.4 5.7 33.0 1.3 27.2 1.3 L7.45 1.3 Q0.05 1.3 -0.2 8.5 L-0.2 7.65 Q-0.2 0.0 7.45 0.0 L27.2 0.0 Q33.0 0.0 34.4 4.4 34.85 5.8 34.85 7.65 L34.85 8.6" fill="#e7deda" fill-rule="evenodd" stroke="none"/>
    </g>
  </defs>
</svg>
