<?xml version="1.0" encoding="UTF-8" standalone="no"?>
<svg xmlns:xlink="http://www.w3.org/1999/xlink" height="66.0px" width="66.0px" xmlns="http://www.w3.org/2000/svg">
  <g transform="matrix(1.5, 0.0, 0.0, 1.5, 0.075, 0.0)">
    <use height="43.95" transform="matrix(1.0, 0.0, 0.0, 1.0, -0.05, 0.0)" width="44.0" xlink:href="#shape0"/>
    <use height="8.6" transform="matrix(1.2075, 0.0, 0.0, 1.2037, 0.3085, 0.45)" width="35.05" xlink:href="#sprite0"/>
    <use height="40.95" transform="matrix(1.0, 0.0, 0.0, 1.0, 0.65, 3.05)" width="42.65" xlink:href="#shape2"/>
    <use height="20.15" transform="matrix(1.1594, 0.0, 0.0, 1.1579, 5.55, 5.5)" width="28.2" xlink:href="#sprite1"/>
  </g>
  <defs>
    <g id="shape0" transform="matrix(1.0, 0.0, 0.0, 1.0, 0.05, 0.0)">
      <path d="M41.75 41.75 Q39.55 43.95 36.35 43.95 L7.55 43.95 Q4.4 43.95 2.2 41.75 -0.05 39.55 -0.05 36.35 L-0.05 7.6 Q-0.05 4.5 2.2 2.3 4.4 0.0 7.55 0.0 L36.35 0.0 Q39.5 0.0 41.75 2.3 43.95 4.5 43.95 7.6 L43.95 36.35 Q43.95 39.55 41.75 41.75" fill="url(#gradient0)" fill-rule="evenodd" stroke="none"/>
    </g>
    <linearGradient gradientTransform="matrix(0.0, -0.0282, -0.055, 0.0, 22.25, 21.65)" gradientUnits="userSpaceOnUse" id="gradient0" spreadMethod="pad" x1="-819.2" x2="819.2">
      <stop offset="0.011764705882352941" stop-color="#9dae7c"/>
      <stop offset="1.0" stop-color="#7e8f45"/>
    </linearGradient>
    <g id="sprite0" transform="matrix(1.0, 0.0, 0.0, 1.0, 0.2, 0.0)">
      <use height="8.6" transform="matrix(1.0, 0.0, 0.0, 1.0, -0.2, 0.0)" width="35.05" xlink:href="#shape1"/>
    </g>
    <g id="shape1" transform="matrix(1.0, 0.0, 0.0, 1.0, 0.2, 0.0)">
      <path d="M34.85 8.6 Q34.8 6.95 34.4 5.7 33.0 1.3 27.2 1.3 L7.45 1.3 Q0.05 1.3 -0.2 8.5 L-0.2 7.65 Q-0.2 0.0 7.45 0.0 L27.2 0.0 Q33.0 0.0 34.4 4.4 34.85 5.8 34.85 7.65 L34.85 8.6" fill="#e7deda" fill-rule="evenodd" stroke="none"/>
    </g>
    <g id="shape2" transform="matrix(1.0, 0.0, 0.0, 1.0, -0.65, -3.05)">
      <path d="M8.8 8.95 Q14.25 3.5 22.0 3.5 29.7 3.5 35.15 8.95 40.55 14.35 40.55 22.0 40.55 29.75 35.15 35.15 29.7 40.55 22.0 40.55 14.25 40.55 8.8 35.15 3.35 29.75 3.35 22.0 3.35 14.3 8.8 8.95" fill="url(#gradient1)" fill-rule="evenodd" stroke="none"/>
      <path d="M25.0 12.4 L25.0 10.05 18.05 10.05 18.05 12.4 19.55 12.4 19.55 15.45 13.5 15.45 13.2 19.7 14.5 19.7 14.8 17.2 18.65 17.2 18.65 34.6 21.45 37.95 24.35 34.6 24.35 17.2 28.25 17.2 28.45 19.7 29.85 19.7 29.55 15.45 23.5 15.45 23.5 12.4 25.0 12.4 M26.55 13.7 L33.75 13.7 33.75 21.45 26.55 21.45 26.55 38.9 16.65 38.9 16.65 21.45 9.7 21.45 9.7 13.7 16.65 13.7 16.65 8.25 26.55 8.25 26.55 13.7" fill="#5a6f37" fill-rule="evenodd" stroke="none"/>
      <path d="M40.8 22.05 Q40.8 29.9 35.2 35.4 29.7 41.1 21.8 41.1 13.85 41.1 8.35 35.4 2.8 29.9 2.8 22.05 2.8 14.1 8.35 8.6 13.85 3.05 21.8 3.05 29.7 3.05 35.2 8.6 40.8 14.1 40.8 22.05 M33.65 10.35 Q28.7 5.5 21.8 5.45 14.9 5.5 10.05 10.35 5.15 15.15 5.1 22.05 5.15 29.0 10.05 33.85 14.9 38.7 21.8 38.7 28.7 38.7 33.65 33.85 38.45 29.0 38.45 22.05 38.45 15.15 33.65 10.35" fill="url(#gradient2)" fill-rule="evenodd" stroke="none"/>
      <path d="M0.8 32.85 Q1.1 30.55 2.35 29.35 L2.75 27.65 Q2.9 26.65 2.65 25.6 L2.35 24.55 1.7 23.2 2.75 24.3 3.6 25.5 3.9 26.9 Q4.0 27.8 3.3 29.6 2.65 31.2 2.5 33.35 L2.4 33.1 2.35 33.35 Q1.8 36.15 2.95 38.1 3.5 39.05 4.2 39.6 L3.9 39.1 4.0 39.15 4.25 39.65 Q4.85 40.4 5.7 40.55 6.8 40.75 7.85 39.85 9.1 38.9 8.15 37.55 L8.2 38.4 Q8.0 39.35 6.65 39.8 L5.65 40.0 5.65 39.9 5.55 38.7 Q5.5 36.95 6.95 36.05 8.45 35.1 9.95 36.65 L11.15 38.45 Q11.1 36.6 10.2 35.65 L10.35 35.8 Q11.05 36.55 11.35 37.5 L11.3 37.5 11.45 37.9 11.75 38.75 11.8 39.9 Q10.4 42.8 8.6 42.8 9.9 42.6 10.0 41.45 7.1 42.65 3.65 40.95 1.15 39.0 0.8 32.85" fill="#9ec087" fill-rule="evenodd" stroke="none"/>
      <path d="M11.8 39.9 Q11.7 41.05 11.05 42.15 10.05 43.95 6.95 44.0 L4.05 43.7 5.55 43.25 7.75 42.95 6.5 43.05 Q4.35 43.0 2.8 41.5 0.9 39.45 0.7 35.35 0.6 33.95 0.8 32.85 1.15 39.0 3.65 40.95 7.1 42.65 10.0 41.45 9.9 42.6 8.6 42.8 10.4 42.8 11.8 39.9" fill="#648a4a" fill-rule="evenodd" stroke="none"/>
      <path d="M2.5 33.35 L2.55 34.65 Q2.9 36.4 3.75 37.55 L3.85 36.95 Q4.55 34.95 7.25 34.4 L9.15 34.85 10.2 35.65 Q11.1 36.6 11.15 38.45 L9.95 36.65 Q8.45 35.1 6.95 36.05 5.5 36.95 5.55 38.7 L5.65 39.9 5.65 40.0 6.65 39.8 Q8.0 39.35 8.2 38.4 L8.15 37.55 Q9.1 38.9 7.85 39.85 6.8 40.75 5.7 40.55 4.85 40.4 4.25 39.65 L4.0 39.15 3.9 39.1 4.2 39.6 Q3.5 39.05 2.95 38.1 1.8 36.15 2.35 33.35 L2.5 33.35 M3.9 39.1 L4.05 39.05 4.0 38.9 3.85 38.95 3.9 39.1" fill="#c0d6b1" fill-rule="evenodd" stroke="none"/>
      <path d="M2.35 33.35 L2.4 33.1 2.5 33.35 2.35 33.35" fill="#00632e" fill-rule="evenodd" stroke="none"/>
      <path d="M3.9 39.1 L3.85 38.95 4.0 38.9 4.05 39.05 3.9 39.1" fill="#ccbf38" fill-rule="evenodd" stroke="none"/>
      <path d="M11.35 37.5 L11.45 37.9 11.3 37.5 11.35 37.5" fill="url(#gradient3)" fill-rule="evenodd" stroke="none"/>
      <path d="M41.45 33.35 Q41.3 31.2 40.65 29.6 39.95 27.8 40.05 26.9 L40.35 25.5 41.2 24.3 42.25 23.2 41.6 24.55 41.3 25.6 Q41.05 26.65 41.2 27.65 L41.6 29.35 Q42.85 30.55 43.15 32.85 42.8 39.0 40.3 40.95 36.85 42.65 33.95 41.45 34.05 42.6 35.35 42.8 33.55 42.8 32.15 39.9 32.1 39.35 32.2 38.75 L32.5 37.9 32.65 37.5 32.6 37.5 Q32.9 36.55 33.6 35.8 L33.75 35.65 Q32.85 36.6 32.8 38.45 33.25 37.5 34.0 36.65 35.5 35.1 37.0 36.05 38.45 36.95 38.4 38.7 L38.3 39.9 38.3 40.0 37.3 39.8 Q35.95 39.35 35.75 38.4 L35.8 37.55 Q34.85 38.9 36.1 39.85 37.15 40.75 38.25 40.55 39.1 40.4 39.7 39.65 L39.95 39.15 40.05 39.1 39.75 39.6 41.0 38.1 Q42.15 36.15 41.6 33.35 L41.55 33.1 41.45 33.35" fill="#9ec087" fill-rule="evenodd" stroke="none"/>
      <path d="M32.15 39.9 Q33.55 42.8 35.35 42.8 34.05 42.6 33.95 41.45 36.85 42.65 40.3 40.95 42.8 39.0 43.15 32.85 L43.25 35.35 Q43.05 39.45 41.15 41.5 39.6 43.0 37.45 43.05 L36.2 42.95 38.4 43.25 39.9 43.7 37.0 44.0 Q33.9 43.95 32.9 42.15 32.25 41.05 32.15 39.9" fill="#648a4a" fill-rule="evenodd" stroke="none"/>
      <path d="M41.45 33.35 L41.55 33.1 41.6 33.35 41.45 33.35" fill="#00632e" fill-rule="evenodd" stroke="none"/>
      <path d="M41.6 33.35 Q42.15 36.15 41.0 38.1 L39.75 39.6 40.05 39.1 39.95 39.15 39.7 39.65 Q39.1 40.4 38.25 40.55 37.15 40.75 36.1 39.85 34.85 38.9 35.8 37.55 L35.75 38.4 Q35.95 39.35 37.3 39.8 L38.3 40.0 38.3 39.9 38.4 38.7 Q38.45 36.95 37.0 36.05 35.5 35.1 34.0 36.65 33.25 37.5 32.8 38.45 32.85 36.6 33.75 35.65 L34.8 34.85 36.7 34.4 Q39.4 34.95 40.1 36.95 L40.2 37.55 Q41.05 36.4 41.4 34.65 L41.45 33.35 41.6 33.35 M40.05 39.1 L40.1 38.95 39.95 38.9 39.9 39.05 40.05 39.1" fill="#c0d6b1" fill-rule="evenodd" stroke="none"/>
      <path d="M40.05 39.1 L39.9 39.05 39.95 38.9 40.1 38.95 40.05 39.1" fill="#ccbf38" fill-rule="evenodd" stroke="none"/>
      <path d="M32.6 37.5 L32.65 37.5 32.5 37.9 32.6 37.5" fill="url(#gradient4)" fill-rule="evenodd" stroke="none"/>
    </g>
    <linearGradient gradientTransform="matrix(0.0, -0.0173, -0.0173, 0.0, 22.0, 18.5)" gradientUnits="userSpaceOnUse" id="gradient1" spreadMethod="pad" x1="-819.2" x2="819.2">
      <stop offset="0.011764705882352941" stop-color="#d3d4b5"/>
      <stop offset="1.0" stop-color="#71a26f"/>
    </linearGradient>
    <linearGradient gradientTransform="matrix(1.0E-4, 0.0223, -0.0232, 1.0E-4, 21.85, 22.3)" gradientUnits="userSpaceOnUse" id="gradient2" spreadMethod="pad" x1="-819.2" x2="819.2">
      <stop offset="0.011764705882352941" stop-color="#516537"/>
      <stop offset="1.0" stop-color="#a8ce99"/>
    </linearGradient>
    <linearGradient gradientTransform="matrix(0.0, -0.0248, -0.0249, 0.0, 5.95, 31.15)" gradientUnits="userSpaceOnUse" id="gradient3" spreadMethod="pad" x1="-819.2" x2="819.2">
      <stop offset="0.011764705882352941" stop-color="#bed9a5"/>
      <stop offset="1.0" stop-color="#739416"/>
    </linearGradient>
    <linearGradient gradientTransform="matrix(0.0, -0.0248, 0.0249, 0.0, 37.75, 31.15)" gradientUnits="userSpaceOnUse" id="gradient4" spreadMethod="pad" x1="-819.2" x2="819.2">
      <stop offset="0.011764705882352941" stop-color="#bed9a5"/>
      <stop offset="1.0" stop-color="#739416"/>
    </linearGradient>
    <g id="sprite1" transform="matrix(1.0, 0.0, 0.0, 1.0, 0.0, 0.0)">
      <use height="20.15" transform="matrix(1.0, 0.0, 0.0, 1.0, 0.0, 0.0)" width="28.2" xlink:href="#shape3"/>
    </g>
    <g id="shape3" transform="matrix(1.0, 0.0, 0.0, 1.0, 0.0, 0.0)">
      <path d="M27.65 18.45 L27.4 18.95 Q26.2 20.8 23.4 19.8 19.6 18.5 17.35 14.05 14.8 9.1 9.75 7.4 4.1 5.65 0.0 10.3 1.0 6.85 3.7 4.15 7.2 0.65 11.9 0.05 L14.8 0.05 18.4 0.65 Q21.55 1.65 24.05 4.15 28.2 8.3 28.2 14.25 28.2 16.45 27.65 18.45" fill="#ffffff" fill-opacity="0.19607843" fill-rule="evenodd" stroke="none"/>
    </g>
  </defs>
</svg>
