<?xml version="1.0" encoding="UTF-8" standalone="no"?>
<svg xmlns:xlink="http://www.w3.org/1999/xlink" height="66.15px" width="66.0px" xmlns="http://www.w3.org/2000/svg">
  <g transform="matrix(1.5, 0.0, 0.0, 1.5, -0.075, 0.0)">
    <use height="44.05" transform="matrix(1.0, 0.0, 0.0, 1.0, 0.05, 0.0)" width="44.0" xlink:href="#shape0"/>
    <use height="8.6" transform="matrix(1.2077, 0.0, 0.0, 1.2065, 1.0085, 0.8)" width="35.05" xlink:href="#sprite0"/>
    <use height="41.05" transform="matrix(1.0, 0.0, 0.0, 1.0, 0.75, 3.05)" width="42.65" xlink:href="#shape2"/>
    <use height="20.15" transform="matrix(1.1594, 0.0, 0.0, 1.1605, 5.65, 5.55)" width="28.2" xlink:href="#sprite1"/>
  </g>
  <defs>
    <g id="shape0" transform="matrix(1.0, 0.0, 0.0, 1.0, -0.05, 0.0)">
      <path d="M41.85 41.85 Q39.65 44.05 36.45 44.05 L7.65 44.05 Q4.5 44.05 2.3 41.85 0.05 39.65 0.05 36.45 L0.05 7.6 Q0.05 4.5 2.3 2.3 4.5 0.0 7.65 0.0 L36.45 0.0 Q39.6 0.0 41.85 2.3 44.05 4.5 44.05 7.6 L44.05 36.45 Q44.05 39.65 41.85 41.85" fill="url(#gradient0)" fill-rule="evenodd" stroke="none"/>
    </g>
    <linearGradient gradientTransform="matrix(0.0, -0.0283, -0.0551, 0.0, 22.65, 22.0)" gradientUnits="userSpaceOnUse" id="gradient0" spreadMethod="pad" x1="-819.2" x2="819.2">
      <stop offset="0.011764705882352941" stop-color="#9dae7c"/>
      <stop offset="1.0" stop-color="#7e8f45"/>
    </linearGradient>
    <g id="sprite0" transform="matrix(1.0, 0.0, 0.0, 1.0, 0.2, 0.0)">
      <use height="8.6" transform="matrix(1.0, 0.0, 0.0, 1.0, -0.2, 0.0)" width="35.05" xlink:href="#shape1"/>
    </g>
    <g id="shape1" transform="matrix(1.0, 0.0, 0.0, 1.0, 0.2, 0.0)">
      <path d="M34.85 8.6 Q34.8 6.95 34.4 5.7 33.0 1.3 27.2 1.3 L7.45 1.3 Q0.05 1.3 -0.2 8.5 L-0.2 7.65 Q-0.2 0.0 7.45 0.0 L27.2 0.0 Q33.0 0.0 34.4 4.4 34.85 5.8 34.85 7.65 L34.85 8.6" fill="#e7deda" fill-rule="evenodd" stroke="none"/>
    </g>
    <g id="shape2" transform="matrix(1.0, 0.0, 0.0, 1.0, -0.75, -3.05)">
      <path d="M8.9 8.95 Q14.35 3.5 22.1 3.5 29.8 3.5 35.25 8.95 40.65 14.4 40.65 22.05 40.65 29.8 35.25 35.25 29.8 40.65 22.1 40.65 14.35 40.65 8.9 35.25 3.45 29.8 3.45 22.05 3.45 14.35 8.9 8.95" fill="url(#gradient1)" fill-rule="evenodd" stroke="none"/>
      <path d="M27.7 5.55 L28.85 6.0 29.3 8.2 29.35 8.4 29.45 8.95 28.2 8.65 27.6 8.6 27.6 8.4 27.65 8.05 27.7 6.0 27.7 5.9 27.7 5.55 M27.55 9.9 L27.55 9.85 27.6 9.45 29.25 9.6 29.5 9.6 29.5 9.85 29.55 10.4 29.55 11.2 28.6 10.8 27.5 10.4 27.55 9.9 M27.45 11.2 L28.2 11.5 29.55 12.15 29.55 12.45 29.5 14.05 29.5 14.3 29.4 14.25 28.05 13.5 26.85 12.65 26.95 12.45 27.15 12.0 27.4 11.5 27.45 11.2 M27.7 14.15 L29.45 15.25 29.35 15.6 29.25 15.85 28.8 16.25 Q27.85 16.95 27.8 17.7 L27.85 17.95 27.85 18.1 27.55 18.4 27.65 18.7 28.5 20.45 Q28.95 21.7 29.05 23.2 L29.1 23.85 30.45 23.7 32.75 23.4 Q34.05 22.95 35.45 22.65 L35.9 22.5 37.5 22.15 Q37.05 23.6 35.9 25.0 L35.85 25.05 35.45 25.3 Q33.75 26.5 31.5 26.65 L31.45 26.7 31.4 26.7 30.85 26.75 31.4 27.7 Q32.75 29.8 35.3 30.8 L32.05 30.7 Q32.2 31.9 32.6 32.95 33.15 34.35 34.0 35.55 31.8 34.55 30.9 32.95 L30.7 32.6 30.65 32.45 30.6 32.95 Q30.2 34.25 29.1 35.05 L29.05 32.95 28.75 31.7 27.15 32.95 26.0 33.35 26.25 32.95 27.55 30.55 27.05 31.25 26.85 31.5 26.4 32.05 Q25.25 33.3 24.0 33.8 23.35 35.05 23.05 36.65 22.8 37.6 21.95 37.65 L21.7 37.6 21.45 37.5 Q21.0 37.35 20.8 36.65 L19.95 33.8 Q18.35 33.15 17.0 31.65 L18.1 33.4 18.3 33.85 Q17.65 33.8 17.15 33.4 L15.55 32.2 15.25 33.4 Q15.05 34.55 15.2 35.55 14.1 34.75 13.75 33.4 L13.6 32.95 13.6 33.05 13.4 33.4 Q12.5 35.0 10.3 36.0 11.2 34.85 11.7 33.4 L12.3 31.15 9.05 31.3 Q10.7 30.6 11.75 29.55 L12.4 28.85 12.95 28.2 13.6 26.95 13.65 26.9 12.4 26.7 12.35 26.65 Q9.85 26.45 8.05 25.05 L7.7 24.6 Q6.75 23.45 6.3 22.15 L10.45 22.9 14.75 23.9 14.8 23.2 Q15.0 20.75 16.25 18.7 L16.4 18.4 Q16.0 18.35 16.0 18.1 L16.0 17.95 16.1 17.7 Q16.0 16.95 15.05 16.25 L14.65 15.85 14.55 15.6 14.45 14.65 16.2 13.4 17.1 12.75 17.65 13.7 17.8 13.85 18.8 13.7 18.9 13.65 Q19.6 13.45 19.75 14.05 19.95 14.35 19.8 15.05 L19.75 15.55 20.0 15.4 21.7 15.15 21.85 15.15 21.95 15.15 22.55 15.15 24.05 15.5 24.1 15.55 24.05 15.05 24.05 14.85 24.05 14.4 24.05 14.35 24.1 14.05 Q24.3 13.45 24.95 13.65 L25.0 13.7 25.05 13.7 26.1 13.85 26.2 13.7 26.45 13.4 26.55 13.45 27.7 14.15 M29.9 17.25 L30.95 16.95 Q31.35 16.95 31.35 17.3 L31.1 17.85 Q30.05 17.7 30.35 18.5 30.65 19.3 31.55 19.5 32.45 19.65 33.05 19.05 31.8 18.25 31.9 17.3 32.0 16.3 33.3 16.2 34.65 16.05 34.5 17.15 L34.15 19.1 34.5 19.15 Q35.85 19.15 36.05 17.1 36.05 16.4 35.2 15.5 L34.3 14.65 Q34.3 13.85 35.5 15.0 36.65 16.1 36.65 17.15 L36.25 18.6 Q35.65 19.75 34.45 19.75 L34.05 19.6 Q32.85 21.3 31.25 21.2 29.65 21.05 29.3 20.05 29.0 19.0 29.15 18.35 29.3 17.65 29.9 17.25 M22.0 24.0 Q22.0 22.55 21.35 21.45 L21.2 21.3 Q20.45 20.2 19.35 20.2 18.3 20.2 17.55 21.3 16.75 22.45 16.75 24.0 16.75 25.55 17.55 26.75 18.1 27.45 18.75 27.7 L19.35 27.85 Q20.45 27.85 21.2 26.75 22.0 25.55 22.0 24.0 M21.35 24.45 Q21.35 25.45 20.75 26.2 20.25 26.9 19.45 26.9 18.65 26.9 18.0 26.2 17.45 25.45 17.45 24.45 17.45 23.45 18.0 22.7 18.65 22.0 19.45 22.0 20.25 22.0 20.75 22.7 21.35 23.45 21.35 24.45 M33.65 17.65 Q33.65 17.15 33.0 17.15 32.35 17.1 32.65 17.7 L33.2 18.35 33.45 18.5 33.65 17.65 M16.15 5.55 L16.15 6.0 16.25 8.05 16.3 8.55 15.65 8.6 14.55 8.55 14.6 8.2 15.0 6.0 15.2 5.9 16.15 5.55 M14.35 10.4 L14.4 9.85 14.5 9.35 15.65 9.35 16.35 9.35 16.4 9.85 16.4 9.9 16.4 10.05 15.7 10.35 14.35 10.9 14.35 10.4 M18.8 23.25 L18.6 23.75 18.8 24.25 19.3 24.45 Q19.6 24.45 19.8 24.25 L20.0 23.75 19.8 23.25 19.3 23.05 18.8 23.25 M9.75 18.05 L9.95 18.9 10.2 18.75 10.75 18.1 Q11.05 17.5 10.4 17.55 9.75 17.55 9.75 18.05 M7.9 15.4 Q9.1 14.25 9.1 15.05 L8.2 15.9 Q7.35 16.8 7.35 17.5 7.55 19.55 8.9 19.55 L9.25 19.5 Q9.0 18.65 8.9 17.55 8.75 16.45 10.1 16.6 11.4 16.7 11.5 17.7 11.6 18.65 10.35 19.45 10.95 20.05 11.85 19.9 12.75 19.7 13.05 18.9 13.35 18.1 12.3 18.25 L12.05 17.7 Q12.05 17.35 12.45 17.35 L13.5 17.65 Q14.1 18.05 14.25 18.75 L14.1 20.45 Q13.75 21.45 12.15 21.6 10.55 21.7 9.35 20.0 L8.95 20.15 Q7.75 20.15 7.15 19.0 L6.75 17.55 Q6.75 16.5 7.9 15.4 M14.3 11.9 L14.35 11.75 15.9 11.1 16.5 10.9 16.5 11.5 16.7 12.0 16.0 12.6 Q15.5 12.85 14.7 13.45 L14.4 13.7 14.35 12.45 14.3 11.9 M17.7 30.75 Q19.35 33.25 22.15 33.2 24.95 33.1 26.45 30.5 28.0 27.75 27.85 25.0 L27.85 25.3 Q27.5 27.45 26.2 29.2 24.45 31.65 21.95 31.65 19.4 31.65 17.65 29.2 16.4 27.45 16.05 25.3 16.05 28.25 17.7 30.75 M26.0 25.7 L25.7 24.85 Q25.3 24.55 24.8 24.55 24.35 24.55 24.0 24.85 23.65 25.25 23.65 25.7 23.65 26.25 24.0 26.55 24.35 26.9 24.8 26.9 L25.7 26.55 25.75 26.55 26.0 25.7 M25.05 25.5 L25.2 25.8 25.05 26.1 24.8 26.25 24.5 26.1 24.35 25.8 24.5 25.5 Q24.6 25.35 24.8 25.35 L25.05 25.5" fill="#5a6f37" fill-rule="evenodd" stroke="none"/>
      <path d="M40.9 22.05 Q40.9 29.95 35.3 35.5 29.8 41.15 21.9 41.15 13.95 41.15 8.45 35.5 2.9 29.95 2.9 22.05 2.9 14.1 8.45 8.6 13.95 3.05 21.9 3.05 29.8 3.05 35.3 8.6 40.9 14.1 40.9 22.05 M33.75 10.35 Q28.8 5.5 21.9 5.4 15.0 5.5 10.15 10.35 5.25 15.15 5.2 22.05 5.25 29.05 10.15 33.9 15.0 38.8 21.9 38.8 28.8 38.8 33.75 33.9 38.55 29.05 38.55 22.05 38.55 15.15 33.75 10.35" fill="url(#gradient2)" fill-rule="evenodd" stroke="none"/>
      <path d="M0.9 32.95 Q1.2 30.6 2.45 29.4 L2.85 27.7 Q3.0 26.7 2.75 25.65 L2.45 24.6 1.8 23.25 2.85 24.35 3.7 25.55 4.0 26.95 Q4.1 27.85 3.4 29.65 2.75 31.25 2.6 33.45 L2.5 33.2 2.45 33.45 Q1.9 36.25 3.05 38.2 3.6 39.15 4.3 39.7 L4.0 39.2 4.1 39.25 4.35 39.75 Q4.95 40.5 5.8 40.65 6.9 40.85 7.95 39.95 9.2 39.0 8.25 37.65 L8.3 38.5 Q8.1 39.45 6.75 39.9 L5.75 40.1 5.75 40.0 5.65 38.8 Q5.6 37.05 7.05 36.15 8.55 35.2 10.05 36.75 L11.25 38.55 Q11.2 36.7 10.3 35.75 L10.45 35.9 Q11.15 36.65 11.45 37.6 L11.4 37.6 11.55 38.0 11.85 38.85 11.9 40.0 Q10.5 42.9 8.7 42.9 10.0 42.7 10.1 41.55 7.2 42.75 3.75 41.05 1.25 39.1 0.9 32.95" fill="#9ec087" fill-rule="evenodd" stroke="none"/>
      <path d="M11.9 40.0 Q11.8 41.15 11.15 42.25 10.15 44.05 7.05 44.1 L4.15 43.8 5.65 43.35 7.85 43.05 6.6 43.15 Q4.45 43.1 2.9 41.6 1.0 39.55 0.8 35.45 0.7 34.05 0.9 32.95 1.25 39.1 3.75 41.05 7.2 42.75 10.1 41.55 10.0 42.7 8.7 42.9 10.5 42.9 11.9 40.0" fill="#648a4a" fill-rule="evenodd" stroke="none"/>
      <path d="M2.6 33.45 L2.65 34.75 Q3.0 36.5 3.85 37.65 L3.95 37.05 Q4.65 35.05 7.35 34.5 L9.25 34.95 10.3 35.75 Q11.2 36.7 11.25 38.55 L10.05 36.75 Q8.55 35.2 7.05 36.15 5.6 37.05 5.65 38.8 L5.75 40.0 5.75 40.1 6.75 39.9 Q8.1 39.45 8.3 38.5 L8.25 37.65 Q9.2 39.0 7.95 39.95 6.9 40.85 5.8 40.65 4.95 40.5 4.35 39.75 L4.1 39.25 4.0 39.2 4.3 39.7 Q3.6 39.15 3.05 38.2 1.9 36.25 2.45 33.45 L2.6 33.45 M4.0 39.2 L4.15 39.15 4.1 39.0 3.95 39.05 4.0 39.2" fill="#c0d6b1" fill-rule="evenodd" stroke="none"/>
      <path d="M2.45 33.45 L2.5 33.2 2.6 33.45 2.45 33.45" fill="#00632e" fill-rule="evenodd" stroke="none"/>
      <path d="M4.0 39.2 L3.95 39.05 4.1 39.0 4.15 39.15 4.0 39.2" fill="#ccbf38" fill-rule="evenodd" stroke="none"/>
      <path d="M11.45 37.6 L11.55 38.0 11.4 37.6 11.45 37.6" fill="url(#gradient3)" fill-rule="evenodd" stroke="none"/>
      <path d="M41.55 33.45 Q41.4 31.25 40.75 29.65 40.05 27.85 40.15 26.95 L40.45 25.55 41.3 24.35 42.35 23.25 41.7 24.6 41.4 25.65 Q41.15 26.7 41.3 27.7 L41.7 29.4 Q42.95 30.6 43.25 32.95 42.9 39.1 40.4 41.05 36.95 42.75 34.05 41.55 34.15 42.7 35.45 42.9 33.65 42.9 32.25 40.0 32.2 39.45 32.3 38.85 L32.6 38.0 32.75 37.6 32.7 37.6 Q33.0 36.65 33.7 35.9 L33.85 35.75 Q32.95 36.7 32.9 38.55 33.35 37.6 34.1 36.75 35.6 35.2 37.1 36.15 38.55 37.05 38.5 38.8 L38.4 40.0 38.4 40.1 37.4 39.9 Q36.05 39.45 35.85 38.5 L35.9 37.65 Q34.95 39.0 36.2 39.95 37.25 40.85 38.35 40.65 39.2 40.5 39.8 39.75 L40.05 39.25 40.15 39.2 39.85 39.7 41.1 38.2 Q42.25 36.25 41.7 33.45 L41.65 33.2 41.55 33.45" fill="#9ec087" fill-rule="evenodd" stroke="none"/>
      <path d="M32.25 40.0 Q33.65 42.9 35.45 42.9 34.15 42.7 34.05 41.55 36.95 42.75 40.4 41.05 42.9 39.1 43.25 32.95 L43.35 35.45 Q43.15 39.55 41.25 41.6 39.7 43.1 37.55 43.15 L36.3 43.05 38.5 43.35 40.0 43.8 37.1 44.1 Q34.0 44.05 33.0 42.25 32.35 41.15 32.25 40.0" fill="#648a4a" fill-rule="evenodd" stroke="none"/>
      <path d="M41.55 33.45 L41.65 33.2 41.7 33.45 41.55 33.45" fill="#00632e" fill-rule="evenodd" stroke="none"/>
      <path d="M41.7 33.45 Q42.25 36.25 41.1 38.2 L39.85 39.7 40.15 39.2 40.05 39.25 39.8 39.75 Q39.2 40.5 38.35 40.65 37.25 40.85 36.2 39.95 34.95 39.0 35.9 37.65 L35.85 38.5 Q36.05 39.45 37.4 39.9 L38.4 40.1 38.4 40.0 38.5 38.8 Q38.55 37.05 37.1 36.15 35.6 35.2 34.1 36.75 33.35 37.6 32.9 38.55 32.95 36.7 33.85 35.75 L34.9 34.95 36.8 34.5 Q39.5 35.05 40.2 37.05 L40.3 37.65 Q41.15 36.5 41.5 34.75 L41.55 33.45 41.7 33.45 M40.15 39.2 L40.2 39.05 40.05 39.0 40.0 39.15 40.15 39.2" fill="#c0d6b1" fill-rule="evenodd" stroke="none"/>
      <path d="M40.15 39.2 L40.0 39.15 40.05 39.0 40.2 39.05 40.15 39.2" fill="#ccbf38" fill-rule="evenodd" stroke="none"/>
      <path d="M32.7 37.6 L32.75 37.6 32.6 38.0 32.7 37.6" fill="url(#gradient4)" fill-rule="evenodd" stroke="none"/>
    </g>
    <linearGradient gradientTransform="matrix(0.0, -0.0173, -0.0173, 0.0, 22.1, 18.55)" gradientUnits="userSpaceOnUse" id="gradient1" spreadMethod="pad" x1="-819.2" x2="819.2">
      <stop offset="0.011764705882352941" stop-color="#d3d4b5"/>
      <stop offset="1.0" stop-color="#71a26f"/>
    </linearGradient>
    <linearGradient gradientTransform="matrix(1.0E-4, 0.0224, -0.0232, 1.0E-4, 21.95, 22.35)" gradientUnits="userSpaceOnUse" id="gradient2" spreadMethod="pad" x1="-819.2" x2="819.2">
      <stop offset="0.011764705882352941" stop-color="#516537"/>
      <stop offset="1.0" stop-color="#a8ce99"/>
    </linearGradient>
    <linearGradient gradientTransform="matrix(0.0, -0.025, -0.025, 0.0, 6.15, 31.55)" gradientUnits="userSpaceOnUse" id="gradient3" spreadMethod="pad" x1="-819.2" x2="819.2">
      <stop offset="0.011764705882352941" stop-color="#bed9a5"/>
      <stop offset="1.0" stop-color="#739416"/>
    </linearGradient>
    <linearGradient gradientTransform="matrix(0.0, -0.025, 0.025, 0.0, 37.95, 31.55)" gradientUnits="userSpaceOnUse" id="gradient4" spreadMethod="pad" x1="-819.2" x2="819.2">
      <stop offset="0.011764705882352941" stop-color="#bed9a5"/>
      <stop offset="1.0" stop-color="#739416"/>
    </linearGradient>
    <g id="sprite1" transform="matrix(1.0, 0.0, 0.0, 1.0, 0.0, 0.0)">
      <use height="20.15" transform="matrix(1.0, 0.0, 0.0, 1.0, 0.0, 0.0)" width="28.2" xlink:href="#shape3"/>
    </g>
    <g id="shape3" transform="matrix(1.0, 0.0, 0.0, 1.0, 0.0, 0.0)">
      <path d="M27.65 18.45 L27.4 18.95 Q26.2 20.8 23.4 19.8 19.6 18.5 17.35 14.05 14.8 9.1 9.75 7.4 4.1 5.65 0.0 10.3 1.0 6.85 3.7 4.15 7.2 0.65 11.9 0.05 L14.8 0.05 18.4 0.65 Q21.55 1.65 24.05 4.15 28.2 8.3 28.2 14.25 28.2 16.45 27.65 18.45" fill="#ffffff" fill-opacity="0.19607843" fill-rule="evenodd" stroke="none"/>
    </g>
  </defs>
</svg>
