<?xml version="1.0" encoding="UTF-8" standalone="no"?>
<svg xmlns:xlink="http://www.w3.org/1999/xlink" height="66.0px" width="66.075px" xmlns="http://www.w3.org/2000/svg">
  <g transform="matrix(1.5, 0.0, 0.0, 1.5, 0.0, 0.075)">
    <use height="43.95" transform="matrix(1.0, 0.0, 0.0, 1.0, 0.0, -0.05)" width="44.05" xlink:href="#shape0"/>
    <use height="20.7" transform="matrix(1.2076, 0.0, 0.0, 1.2077, 0.15, 18.95)" width="7.3" xlink:href="#sprite0"/>
    <use height="24.05" transform="matrix(1.0, 0.0, 0.0, 1.0, 1.25, 18.5)" width="8.5" xlink:href="#shape2"/>
    <use height="12.1" transform="matrix(1.2076, 0.0, 0.0, 1.2077, 1.6396, 27.45)" width="5.7" xlink:href="#sprite1"/>
    <use height="18.7" transform="matrix(1.1918, 0.0, 0.0, 1.1919, 0.7, 18.2)" width="5.7" xlink:href="#sprite2"/>
    <use height="7.0" transform="matrix(1.1918, 0.0, 0.0, 1.1919, 2.65, 32.2904)" width="3.35" xlink:href="#sprite3"/>
    <use height="22.75" transform="matrix(1.0, 0.0, 0.0, 1.0, 1.75, 18.9)" width="7.05" xlink:href="#shape6"/>
    <use height="11.6" transform="matrix(1.1918, 0.0, 0.0, 1.1919, 0.6, 29.6)" width="6.9" xlink:href="#sprite4"/>
    <use height="11.1" transform="matrix(1.1918, 0.0, 0.0, 1.1919, 0.85, 29.6)" width="6.45" xlink:href="#sprite5"/>
    <use height="11.8" transform="matrix(1.1918, 0.0, 0.0, 1.1919, 0.6, 28.3)" width="6.5" xlink:href="#sprite6"/>
    <use height="18.7" transform="matrix(1.1918, 0.0, 0.0, 1.1919, 35.0, 18.2)" width="5.7" xlink:href="#sprite7"/>
    <use height="7.0" transform="matrix(1.1918, 0.0, 0.0, 1.1919, 35.8, 32.2904)" width="3.35" xlink:href="#sprite8"/>
    <use height="22.8" transform="matrix(1.0, 0.0, 0.0, 1.0, 34.55, 18.9)" width="7.05" xlink:href="#shape12"/>
    <use height="11.6" transform="matrix(1.1918, 0.0, 0.0, 1.1919, 33.5904, 29.6)" width="6.9" xlink:href="#sprite9"/>
    <use height="11.1" transform="matrix(1.1918, 0.0, 0.0, 1.1919, 34.0096, 29.6)" width="6.35" xlink:href="#sprite10"/>
    <use height="11.8" transform="matrix(1.1918, 0.0, 0.0, 1.1919, 34.1596, 28.3)" width="6.45" xlink:href="#sprite11"/>
    <use height="8.6" transform="matrix(1.2077, 0.0, 0.0, 1.2065, 0.5085, 0.7)" width="35.05" xlink:href="#sprite12"/>
    <use height="20.15" transform="matrix(1.1593, 0.0, 0.0, 1.1605, 5.8, 5.55)" width="28.2" xlink:href="#sprite13"/>
  </g>
  <defs>
    <g id="shape0" transform="matrix(1.0, 0.0, 0.0, 1.0, 0.0, 0.05)">
      <path d="M21.7 2.2 Q30.05 2.2 35.95 8.1 41.9 14.05 41.9 22.35 41.9 30.7 35.95 36.6 30.05 42.55 21.7 42.55 13.35 42.55 7.45 36.6 1.55 30.7 1.55 22.35 1.55 14.05 7.45 8.1 13.35 2.2 21.7 2.2" fill="url(#gradient0)" fill-rule="evenodd" stroke="none"/>
      <path d="M22.05 4.6 Q14.9 4.6 9.8 9.7 4.75 14.75 4.75 21.95 4.75 29.1 9.8 34.2 14.9 39.25 22.05 39.25 29.25 39.25 34.25 34.2 39.35 29.1 39.35 21.95 39.35 14.75 34.25 9.7 29.2 4.6 22.05 4.6 M0.0 7.55 Q0.0 4.45 2.25 2.2 4.5 -0.05 7.65 -0.05 L36.45 -0.05 Q39.55 -0.05 41.8 2.2 44.05 4.45 44.05 7.55 L44.05 36.3 Q44.05 39.45 41.8 41.7 39.55 43.9 36.45 43.9 L7.65 43.9 Q4.5 43.9 2.25 41.7 0.0 39.45 0.0 36.3 L0.0 7.55" fill="url(#gradient1)" fill-rule="evenodd" stroke="none"/>
      <path d="M25.5 12.85 L25.5 10.45 18.55 10.45 18.55 12.85 20.05 12.85 20.05 15.9 14.0 15.9 13.7 20.15 15.0 20.15 15.3 17.65 19.15 17.65 19.15 35.1 21.95 38.45 24.85 35.1 24.85 17.65 28.75 17.65 28.95 20.15 30.35 20.15 30.05 15.9 24.0 15.9 24.0 12.85 25.5 12.85 M27.05 14.15 L34.25 14.15 34.25 21.9 27.05 21.9 27.05 39.4 17.15 39.4 17.15 21.9 10.2 21.9 10.2 14.15 17.15 14.15 17.15 8.65 27.05 8.65 27.05 14.15" fill="#2e5d6b" fill-rule="evenodd" stroke="none"/>
      <path d="M8.5 8.75 Q14.1 3.15 22.0 3.15 29.85 3.15 35.4 8.75 41.0 14.3 41.0 22.15 41.0 30.05 35.4 35.6 29.85 41.15 22.0 41.15 14.1 41.15 8.5 35.6 2.95 30.05 2.95 22.15 2.95 14.3 8.5 8.75 M5.35 22.15 Q5.35 29.05 10.25 33.95 15.05 38.75 22.0 38.75 28.8 38.75 33.7 33.95 38.6 29.05 38.6 22.15 38.6 15.25 33.7 10.4 28.85 5.55 22.0 5.5 15.05 5.55 10.25 10.4 5.35 15.25 5.35 22.15" fill="url(#gradient2)" fill-rule="evenodd" stroke="none"/>
    </g>
    <linearGradient gradientTransform="matrix(0.0, -0.0189, -0.0189, 0.0, 21.65, 18.55)" gradientUnits="userSpaceOnUse" id="gradient0" spreadMethod="pad" x1="-819.2" x2="819.2">
      <stop offset="0.011764705882352941" stop-color="#b3f9e4"/>
      <stop offset="1.0" stop-color="#5bbbff"/>
    </linearGradient>
    <linearGradient gradientTransform="matrix(0.0, -0.044, -0.044, 0.0, 22.05, -1.25)" gradientUnits="userSpaceOnUse" id="gradient1" spreadMethod="pad" x1="-819.2" x2="819.2">
      <stop offset="0.011764705882352941" stop-color="#90d1d1"/>
      <stop offset="0.9764705882352941" stop-color="#003459"/>
    </linearGradient>
    <linearGradient gradientTransform="matrix(0.0, -0.0168, -0.0168, 0.0, 21.95, 26.75)" gradientUnits="userSpaceOnUse" id="gradient2" spreadMethod="pad" x1="-819.2" x2="819.2">
      <stop offset="0.011764705882352941" stop-color="#dbf7ff"/>
      <stop offset="0.9764705882352941" stop-color="#384759"/>
    </linearGradient>
    <g id="sprite0" transform="matrix(1.0, 0.0, 0.0, 1.0, 0.0, 0.0)">
      <use height="20.7" transform="matrix(1.0, 0.0, 0.0, 1.0, 0.0, 0.0)" width="7.3" xlink:href="#shape1"/>
    </g>
    <g id="shape1" transform="matrix(1.0, 0.0, 0.0, 1.0, 0.0, 0.0)">
      <path d="M1.5 3.3 Q1.25 4.9 1.35 6.95 1.55 10.95 3.35 13.0 L6.75 16.9 Q7.8 18.5 6.9 19.6 5.25 21.5 2.85 20.1 -0.1 18.35 0.0 11.65 0.1 5.2 1.1 1.95 1.6 0.35 2.05 0.0 L1.5 3.3" fill="#6c6a85" fill-rule="evenodd" stroke="none"/>
    </g>
    <g id="shape2" transform="matrix(1.0, 0.0, 0.0, 1.0, -1.25, -18.5)">
      <path d="M2.85 21.4 L2.75 25.75 Q3.2 30.65 5.25 33.15 L9.1 38.0 Q10.4 40.0 9.15 41.3 7.1 43.55 4.3 41.7 0.85 39.45 1.3 31.35 1.8 23.65 2.6 20.3 L3.25 18.5 2.85 21.4" fill="url(#gradient3)" fill-rule="evenodd" stroke="none"/>
    </g>
    <linearGradient gradientTransform="matrix(0.0, -0.0105, -0.0105, 0.0, 5.45, 33.25)" gradientUnits="userSpaceOnUse" id="gradient3" spreadMethod="pad" x1="-819.2" x2="819.2">
      <stop offset="0.011764705882352941" stop-color="#dbf7ff"/>
      <stop offset="0.9764705882352941" stop-color="#384759"/>
    </linearGradient>
    <g id="sprite1" transform="matrix(1.0, 0.0, 0.0, 1.0, 0.05, 0.0)">
      <use height="12.1" transform="matrix(1.0, 0.0, 0.0, 1.0, -0.05, 0.0)" width="5.7" xlink:href="#shape3"/>
    </g>
    <g id="shape3" transform="matrix(1.0, 0.0, 0.0, 1.0, 0.05, 0.0)">
      <path d="M1.45 10.9 Q3.25 11.3 3.25 9.75 3.25 8.85 2.15 7.35 L0.45 4.75 Q-0.3 2.9 0.1 0.0 0.15 0.9 0.5 2.05 1.15 4.35 2.45 5.8 L5.15 8.65 Q6.15 9.9 5.1 11.0 2.85 13.25 1.45 10.9" fill="#f2f2f2" fill-rule="evenodd" stroke="none"/>
    </g>
    <g id="sprite2" transform="matrix(1.0, 0.0, 0.0, 1.0, 0.0, 0.0)">
      <use height="18.7" transform="matrix(1.0, 0.0, 0.0, 1.0, 0.0, 0.0)" width="5.7" xlink:href="#shape4"/>
    </g>
    <g id="shape4" transform="matrix(1.0, 0.0, 0.0, 1.0, 0.0, 0.0)">
      <path d="M1.65 11.9 Q1.55 10.8 0.55 8.3 -0.4 5.85 0.25 2.65 0.6 1.1 1.1 0.0 L0.5 2.55 Q0.05 5.55 0.95 8.0 1.6 9.8 3.55 11.35 5.25 12.65 5.55 14.75 5.9 17.2 5.3 18.15 L4.6 18.55 Q3.45 19.2 2.4 16.85 1.55 14.9 1.55 13.5 L1.65 11.9" fill="#ffffff" fill-rule="evenodd" stroke="none"/>
    </g>
    <g id="sprite3" transform="matrix(1.0, 0.0, 0.0, 1.0, 0.0, 0.05)">
      <use height="7.0" transform="matrix(1.0, 0.0, 0.0, 1.0, 0.0, -0.05)" width="3.35" xlink:href="#shape5"/>
    </g>
    <g id="shape5" transform="matrix(1.0, 0.0, 0.0, 1.0, 0.0, 0.05)">
      <path d="M2.3 5.7 Q2.05 4.1 0.65 2.6 -0.4 1.45 0.2 0.4 0.8 -0.6 2.05 0.6 3.35 1.8 3.35 4.25 3.35 6.7 2.05 6.95 2.9 6.45 2.3 5.7" fill="#ffffff" fill-rule="evenodd" stroke="none"/>
    </g>
    <g id="shape6" transform="matrix(1.0, 0.0, 0.0, 1.0, -1.75, -18.9)">
      <path d="M3.85 34.4 L3.55 33.65 Q3.5 32.8 4.55 32.8 6.1 32.8 5.85 35.45 L5.0 34.05 Q4.1 33.0 3.85 34.4" fill="#ffffff" fill-rule="evenodd" stroke="none"/>
      <path d="M3.45 28.15 L5.35 30.55 Q6.95 32.15 7.6 33.3 9.25 36.05 8.65 39.35 8.5 40.1 8.0 40.65 6.8 41.9 4.45 41.55 L6.2 41.2 Q7.9 40.25 7.75 37.1 7.55 34.5 5.1 31.75 2.5 28.85 2.1 26.55 1.55 23.45 1.85 20.9 L2.25 18.9 2.2 22.7 Q2.3 26.65 3.45 28.15" fill="#bbded6" fill-rule="evenodd" stroke="none"/>
    </g>
    <g id="sprite4" transform="matrix(1.0, 0.0, 0.0, 1.0, 0.0, 0.0)">
      <use height="11.6" transform="matrix(1.0, 0.0, 0.0, 1.0, 0.0, 0.0)" width="6.9" xlink:href="#shape7"/>
    </g>
    <g id="shape7" transform="matrix(1.0, 0.0, 0.0, 1.0, 0.0, 0.0)">
      <path d="M0.0 4.95 Q0.0 2.4 0.35 0.0 0.5 4.25 0.85 6.75 1.1 8.3 2.25 9.5 L3.35 10.4 Q5.95 10.25 6.3 7.5 6.45 6.1 6.1 4.75 7.75 7.6 6.05 10.0 4.4 12.4 2.0 11.15 0.05 10.1 0.0 4.95" fill="#bbded6" fill-rule="evenodd" stroke="none"/>
    </g>
    <g id="sprite5" transform="matrix(1.0, 0.0, 0.0, 1.0, 0.0, 0.0)">
      <use height="11.1" transform="matrix(1.0, 0.0, 0.0, 1.0, 0.0, 0.0)" width="6.45" xlink:href="#shape8"/>
    </g>
    <g id="shape8" transform="matrix(1.0, 0.0, 0.0, 1.0, 0.0, 0.0)">
      <path d="M0.45 5.0 Q1.15 10.05 3.15 10.4 L4.6 10.1 Q6.1 9.4 6.3 7.2 L6.3 6.25 Q6.6 7.3 6.35 8.45 5.85 10.7 3.3 11.1 2.3 11.25 1.35 9.9 -0.45 7.25 0.15 0.0 0.1 2.45 0.45 5.0" fill="#bbded6" fill-rule="evenodd" stroke="none"/>
    </g>
    <g id="sprite6" transform="matrix(1.0, 0.0, 0.0, 1.0, 0.0, 0.0)">
      <use height="11.8" transform="matrix(1.0, 0.0, 0.0, 1.0, 0.0, 0.0)" width="6.5" xlink:href="#shape9"/>
    </g>
    <g id="shape9" transform="matrix(1.0, 0.0, 0.0, 1.0, 0.0, 0.0)">
      <path d="M0.0 0.0 Q0.4 0.55 0.4 1.45 0.4 4.65 0.65 6.45 1.25 10.9 3.1 11.35 L4.2 11.4 Q5.4 11.25 6.1 10.2 L6.5 8.75 6.45 9.5 Q6.15 10.85 5.0 11.45 4.5 11.8 3.8 11.8 2.45 11.75 1.4 10.05 0.4 7.35 0.3 3.6 L0.25 0.8 0.0 0.0" fill="#306b5e" fill-rule="evenodd" stroke="none"/>
    </g>
    <g id="sprite7" transform="matrix(1.0, 0.0, 0.0, 1.0, 0.0, 0.0)">
      <use height="18.7" transform="matrix(1.0, 0.0, 0.0, 1.0, 0.0, 0.0)" width="5.7" xlink:href="#shape10"/>
    </g>
    <g id="shape10" transform="matrix(1.0, 0.0, 0.0, 1.0, 0.0, 0.0)">
      <path d="M4.05 11.9 L4.15 13.5 Q4.15 14.9 3.3 16.85 2.25 19.2 1.1 18.55 0.75 18.6 0.4 18.15 -0.2 17.2 0.15 14.75 0.45 12.65 2.15 11.35 4.1 9.8 4.75 8.0 5.65 5.55 5.2 2.55 5.0 1.05 4.6 0.0 L5.45 2.65 Q6.1 5.85 5.15 8.3 4.15 10.8 4.05 11.9" fill="#ffffff" fill-rule="evenodd" stroke="none"/>
    </g>
    <g id="sprite8" transform="matrix(1.0, 0.0, 0.0, 1.0, 0.0, 0.05)">
      <use height="7.0" transform="matrix(1.0, 0.0, 0.0, 1.0, 0.0, -0.05)" width="3.35" xlink:href="#shape11"/>
    </g>
    <g id="shape11" transform="matrix(1.0, 0.0, 0.0, 1.0, 0.0, 0.05)">
      <path d="M1.05 5.7 Q0.45 6.45 1.3 6.95 0.0 6.7 0.0 4.25 0.0 1.8 1.3 0.6 2.55 -0.6 3.15 0.4 3.75 1.45 2.7 2.6 1.3 4.1 1.05 5.7" fill="#ffffff" fill-rule="evenodd" stroke="none"/>
    </g>
    <g id="shape12" transform="matrix(1.0, 0.0, 0.0, 1.0, -34.7, -18.95)">
      <path d="M39.65 34.45 Q39.4 33.05 38.45 34.1 L37.65 35.5 Q37.6 34.8 37.7 34.15 38.0 32.85 39.0 32.85 40.55 32.85 39.65 34.45" fill="#ffffff" fill-rule="evenodd" stroke="none"/>
      <path d="M40.0 28.2 Q41.15 26.7 41.25 22.75 L41.2 18.95 41.65 20.95 Q41.9 23.5 41.4 26.6 40.95 28.9 38.35 31.8 35.9 34.55 35.75 37.15 35.55 40.3 37.3 41.25 L38.7 41.7 Q36.65 41.9 35.5 40.7 L34.85 39.4 Q34.25 36.1 35.85 33.35 36.5 32.2 38.1 30.6 L40.0 28.2" fill="#bbded6" fill-rule="evenodd" stroke="none"/>
    </g>
    <g id="sprite9" transform="matrix(1.0, 0.0, 0.0, 1.0, 0.05, 0.0)">
      <use height="11.6" transform="matrix(1.0, 0.0, 0.0, 1.0, -0.05, 0.0)" width="6.9" xlink:href="#shape13"/>
    </g>
    <g id="shape13" transform="matrix(1.0, 0.0, 0.0, 1.0, 0.05, 0.0)">
      <path d="M0.8 10.0 Q-0.9 7.6 0.75 4.75 0.4 6.1 0.55 7.5 0.9 10.25 3.5 10.4 L4.6 9.5 Q5.75 8.3 6.0 6.75 6.35 4.25 6.5 0.0 6.9 2.4 6.85 4.95 6.8 10.1 4.85 11.15 2.45 12.4 0.8 10.0" fill="#bbded6" fill-rule="evenodd" stroke="none"/>
    </g>
    <g id="sprite10" transform="matrix(1.0, 0.0, 0.0, 1.0, -0.05, 0.0)">
      <use height="11.1" transform="matrix(1.0, 0.0, 0.0, 1.0, 0.05, 0.0)" width="6.35" xlink:href="#shape14"/>
    </g>
    <g id="shape14" transform="matrix(1.0, 0.0, 0.0, 1.0, -0.05, 0.0)">
      <path d="M5.95 5.0 Q6.3 2.45 6.25 0.0 6.85 7.25 5.05 9.9 4.15 11.25 3.1 11.1 0.55 10.7 0.05 8.45 L0.1 6.25 0.1 7.2 Q0.3 9.4 1.8 10.1 L3.25 10.4 Q5.25 10.05 5.95 5.0" fill="#bbded6" fill-rule="evenodd" stroke="none"/>
    </g>
    <g id="sprite11" transform="matrix(1.0, 0.0, 0.0, 1.0, -0.05, 0.0)">
      <use height="11.8" transform="matrix(1.0, 0.0, 0.0, 1.0, 0.05, 0.0)" width="6.45" xlink:href="#shape15"/>
    </g>
    <g id="shape15" transform="matrix(1.0, 0.0, 0.0, 1.0, -0.05, 0.0)">
      <path d="M6.5 0.0 L6.3 0.8 6.2 3.6 Q6.1 7.35 5.1 10.05 4.05 11.75 2.7 11.8 2.0 11.8 1.5 11.45 0.4 10.85 0.1 9.5 L0.05 8.95 0.4 10.2 Q1.1 11.25 2.3 11.4 L3.4 11.35 Q5.25 10.9 5.85 6.45 L6.1 1.45 Q6.1 0.55 6.5 0.0" fill="#306b5e" fill-rule="evenodd" stroke="none"/>
    </g>
    <g id="sprite12" transform="matrix(1.0, 0.0, 0.0, 1.0, 0.2, 0.0)">
      <use height="8.6" transform="matrix(1.0, 0.0, 0.0, 1.0, -0.2, 0.0)" width="35.05" xlink:href="#shape16"/>
    </g>
    <g id="shape16" transform="matrix(1.0, 0.0, 0.0, 1.0, 0.2, 0.0)">
      <path d="M34.85 8.6 Q34.8 6.95 34.4 5.7 33.0 1.3 27.2 1.3 L7.45 1.3 Q0.05 1.3 -0.2 8.5 L-0.2 7.65 Q-0.2 0.0 7.45 0.0 L27.2 0.0 Q33.0 0.0 34.4 4.4 34.85 5.8 34.85 7.65 L34.85 8.6" fill="#e7deda" fill-rule="evenodd" stroke="none"/>
    </g>
    <g id="sprite13" transform="matrix(1.0, 0.0, 0.0, 1.0, 0.0, 0.0)">
      <use height="20.15" transform="matrix(1.0, 0.0, 0.0, 1.0, 0.0, 0.0)" width="28.2" xlink:href="#shape17"/>
    </g>
    <g id="shape17" transform="matrix(1.0, 0.0, 0.0, 1.0, 0.0, 0.0)">
      <path d="M27.65 18.45 L27.4 18.95 Q26.2 20.8 23.4 19.8 19.6 18.5 17.35 14.05 14.8 9.1 9.75 7.4 4.1 5.65 0.0 10.3 1.0 6.85 3.7 4.15 7.2 0.65 11.9 0.05 L14.8 0.05 18.4 0.65 Q21.55 1.65 24.05 4.15 28.2 8.3 28.2 14.25 28.2 16.45 27.65 18.45" fill="#ffffff" fill-opacity="0.19607843" fill-rule="evenodd" stroke="none"/>
    </g>
  </defs>
</svg>
