<?xml version="1.0" encoding="UTF-8" standalone="no"?>
<svg xmlns:xlink="http://www.w3.org/1999/xlink" height="66.0px" width="66.0px" xmlns="http://www.w3.org/2000/svg">
  <g transform="matrix(1.5, 0.0, 0.0, 1.5, 0.075, 0.15)">
    <use height="37.15" transform="matrix(1.0, 0.0, 0.0, 1.0, 3.3, 2.8)" width="37.2" xlink:href="#shape0"/>
    <use height="20.15" transform="matrix(1.1594, 0.0, 0.0, 1.1592, 6.0, 5.1)" width="28.2" xlink:href="#sprite0"/>
    <use height="44.0" transform="matrix(1.0, 0.0, 0.0, 1.0, -0.05, -0.1)" width="44.0" xlink:href="#shape2"/>
    <use height="8.6" transform="matrix(1.2077, 0.0, 0.0, 1.2065, 1.0085, 0.9)" width="35.05" xlink:href="#sprite1"/>
  </g>
  <defs>
    <g id="shape0" transform="matrix(1.0, 0.0, 0.0, 1.0, -3.3, -2.8)">
      <path d="M8.75 8.25 Q14.2 2.8 21.95 2.8 29.65 2.8 35.1 8.25 40.5 13.7 40.5 21.35 40.5 29.1 35.1 34.55 29.65 39.95 21.95 39.95 14.2 39.95 8.75 34.55 3.3 29.1 3.3 21.35 3.3 13.65 8.75 8.25" fill="url(#gradient0)" fill-rule="evenodd" stroke="none"/>
      <path d="M17.35 11.35 L17.2 11.85 17.1 12.05 16.7 12.7 21.85 22.9 15.0 13.4 14.45 13.35 Q13.45 13.15 12.85 12.3 12.3 11.5 12.5 10.45 12.65 9.45 13.5 8.85 14.35 8.3 15.35 8.5 16.4 8.65 16.95 9.5 L17.2 10.0 17.35 11.35" fill="#5a6f37" fill-rule="evenodd" stroke="none"/>
      <path d="M20.25 30.25 Q20.0 30.0 20.05 29.7 L20.45 29.1 21.15 29.05 21.8 29.35 22.85 30.5 23.2 30.4 23.2 30.7 23.25 30.75 23.9 31.55 23.95 31.65 24.0 31.65 24.15 31.85 25.05 32.6 25.3 32.65 25.15 33.0 26.0 33.95 26.25 34.55 25.85 35.0 25.2 35.2 Q24.7 35.15 24.5 34.85 L23.95 34.25 21.9 35.45 21.8 35.5 21.05 35.65 20.55 35.45 20.35 35.3 Q20.15 35.05 20.25 34.7 20.25 34.35 20.55 34.2 L21.15 33.9 20.8 33.55 20.55 33.25 19.95 33.55 19.3 33.7 18.6 33.35 Q18.35 33.05 18.45 32.75 18.45 32.4 18.7 32.25 L20.9 31.0 20.25 30.25 M25.45 23.45 L26.4 23.35 26.75 23.35 27.9 23.6 28.1 23.55 28.35 23.6 Q30.05 24.2 31.55 25.55 L32.9 26.95 Q34.2 28.5 34.35 30.15 L34.35 30.3 34.25 30.45 34.2 31.4 34.05 31.65 33.7 32.4 32.75 33.05 31.9 33.5 Q31.85 33.45 31.8 33.55 L31.2 33.6 30.8 33.7 30.1 33.7 29.7 33.7 29.15 33.55 28.8 33.55 28.6 33.5 Q26.2 32.85 24.45 31.0 L24.4 31.0 24.3 30.85 24.25 30.8 Q22.6 28.95 22.55 26.95 L22.65 26.0 22.75 25.7 23.5 24.5 24.3 23.9 Q24.8 23.6 25.45 23.45" fill="#5a6f37" fill-rule="evenodd" stroke="none"/>
      <path d="M10.95 20.75 L11.2 21.35 11.25 22.05 20.75 26.0 10.5 23.45 10.15 23.75 8.45 24.0 Q7.6 23.75 7.15 22.95 6.65 22.15 6.9 21.25 7.1 20.35 7.9 19.9 L9.6 19.7 Q10.45 19.95 10.95 20.75" fill="#5a6f37" fill-rule="evenodd" stroke="none"/>
      <path d="M29.1 10.85 L28.45 11.25 27.75 11.4 25.2 22.35 26.05 10.9 25.65 10.5 Q25.0 9.75 25.1 8.75 25.2 7.75 26.0 7.15 26.75 6.5 27.75 6.6 28.75 6.7 29.4 7.45 30.05 8.25 29.95 9.25 29.85 10.2 29.1 10.85" fill="#5a6f37" fill-rule="evenodd" stroke="none"/>
    </g>
    <linearGradient gradientTransform="matrix(0.0, -0.0173, -0.0173, 0.0, 21.95, 17.85)" gradientUnits="userSpaceOnUse" id="gradient0" spreadMethod="pad" x1="-819.2" x2="819.2">
      <stop offset="0.011764705882352941" stop-color="#d3d4b5"/>
      <stop offset="1.0" stop-color="#71a26f"/>
    </linearGradient>
    <g id="sprite0" transform="matrix(1.0, 0.0, 0.0, 1.0, 0.0, 0.0)">
      <use height="20.15" transform="matrix(1.0, 0.0, 0.0, 1.0, 0.0, 0.0)" width="28.2" xlink:href="#shape1"/>
    </g>
    <g id="shape1" transform="matrix(1.0, 0.0, 0.0, 1.0, 0.0, 0.0)">
      <path d="M27.65 18.45 L27.4 18.95 Q26.2 20.8 23.4 19.8 19.6 18.5 17.35 14.05 14.8 9.1 9.75 7.4 4.1 5.65 0.0 10.3 1.0 6.85 3.7 4.15 7.2 0.65 11.9 0.05 L14.8 0.05 18.4 0.65 Q21.55 1.65 24.05 4.15 28.2 8.3 28.2 14.25 28.2 16.45 27.65 18.45" fill="#ffffff" fill-opacity="0.19607843" fill-rule="evenodd" stroke="none"/>
    </g>
    <g id="shape2" transform="matrix(1.0, 0.0, 0.0, 1.0, 0.05, 0.1)">
      <path d="M21.95 4.6 Q14.75 4.6 9.65 9.65 4.6 14.8 4.6 21.9 4.6 29.1 9.65 34.2 14.7 39.3 21.95 39.3 29.1 39.3 34.15 34.2 39.25 29.1 39.25 21.9 39.25 14.75 34.15 9.65 29.1 4.6 21.95 4.6 M36.35 -0.1 Q39.55 -0.1 41.7 2.15 43.95 4.4 43.95 7.5 L43.95 36.25 Q43.95 39.45 41.7 41.7 39.55 43.9 36.35 43.9 L7.55 43.9 Q4.4 43.9 2.2 41.7 -0.05 39.5 -0.05 36.25 L-0.05 7.5 Q-0.05 4.4 2.2 2.15 4.4 -0.1 7.55 -0.1 L36.35 -0.1" fill="url(#gradient1)" fill-rule="evenodd" stroke="none"/>
      <path d="M33.8 10.2 Q28.85 5.3 22.05 5.25 15.15 5.3 10.3 10.2 5.45 14.95 5.4 21.8 5.45 28.75 10.3 33.6 15.15 38.45 22.05 38.45 28.85 38.45 33.8 33.6 38.6 28.75 38.6 21.8 38.6 14.95 33.8 10.2 M41.0 21.8 Q41.0 29.65 35.4 35.2 29.9 40.8 22.05 40.8 14.15 40.8 8.65 35.2 3.1 29.65 3.1 21.8 3.1 14.0 8.65 8.45 14.15 2.9 22.05 2.9 29.9 2.9 35.4 8.45 41.0 14.0 41.0 21.8" fill="url(#gradient2)" fill-rule="evenodd" stroke="none"/>
      <path d="M0.15 24.9 Q0.3 22.45 0.75 20.45 0.5 24.65 0.75 26.3 1.1 29.3 3.05 30.75 L8.05 34.9 Q10.55 37.25 10.95 40.0 L14.5 42.3 10.65 42.7 Q9.9 44.2 7.15 43.85 3.15 43.3 2.35 40.05 1.65 37.45 3.55 36.45 L3.75 34.25 4.45 36.1 Q6.45 35.7 6.9 36.8 7.4 37.85 6.8 38.9 6.2 39.85 5.65 39.05 L6.45 38.6 Q6.5 38.2 5.8 37.55 5.2 36.9 4.6 37.2 4.05 37.5 3.75 38.65 3.15 41.1 6.0 42.2 8.95 43.3 9.4 40.6 9.9 38.35 7.1 36.0 4.85 34.4 3.35 33.1 L0.85 32.6 1.85 31.65 Q0.05 29.65 0.15 24.9" fill="#7a5130" fill-rule="evenodd" stroke="none"/>
      <path d="M0.2 24.0 Q0.35 21.6 0.8 19.65 0.55 23.75 0.8 25.35 1.15 28.35 3.1 29.85 L8.15 34.0 Q10.6 36.35 11.0 39.05 L14.65 42.35 10.75 41.85 Q10.0 43.3 7.2 42.95 3.2 42.35 2.4 39.2 1.7 36.6 3.65 35.6 L3.75 34.15 4.5 35.25 Q6.5 34.85 6.95 36.65 7.2 38.15 6.65 38.85 L5.8 39.2 Q7.1 38.0 5.7 36.7 4.4 35.35 3.8 37.75 3.2 40.2 6.05 41.25 9.0 42.35 9.45 39.7 10.0 37.5 7.15 35.05 L3.35 32.2 3.4 32.25 0.8 32.65 1.9 30.75 Q0.1 28.7 0.2 24.0" fill="#ca935c" fill-rule="evenodd" stroke="none"/>
      <path d="M0.8 21.25 Q0.75 24.2 0.85 25.4 1.35 28.45 3.2 29.95 L8.2 34.05 Q10.65 36.4 11.15 39.05 L14.25 41.95 14.0 41.85 13.85 41.7 12.15 40.5 Q10.3 38.9 10.25 37.8 10.1 36.45 8.4 34.95 L5.15 32.45 Q1.95 30.0 1.1 27.25 0.5 25.65 0.5 21.85 L0.8 21.25 M6.45 36.4 Q5.8 35.4 4.6 35.4 L4.4 35.5 4.3 35.4 4.15 35.4 4.15 34.55 4.65 35.3 Q6.55 34.9 7.05 36.7 7.25 37.75 7.05 38.45 L6.95 38.5 6.95 38.45 6.85 37.9 6.85 37.8 Q6.85 37.05 6.45 36.4 M4.2 40.1 L4.05 39.5 Q4.5 40.7 6.15 41.3 L8.4 41.5 8.5 41.55 6.95 41.85 Q6.15 41.85 5.3 41.15 L4.2 40.1" fill="#d7ad86" fill-rule="evenodd" stroke="none"/>
      <path d="M43.6 24.9 Q43.7 29.65 41.9 31.65 L42.9 32.6 40.4 33.1 36.65 36.0 Q33.85 38.35 34.35 40.6 34.8 43.3 37.75 42.2 40.6 41.1 40.0 38.65 39.7 37.5 39.15 37.2 38.55 36.9 37.95 37.55 37.25 38.2 37.3 38.6 37.4 39.0 38.1 39.05 37.55 39.85 36.95 38.9 36.35 37.85 36.85 36.8 37.3 35.7 39.3 36.1 L40.0 34.25 40.2 36.45 Q42.1 37.45 41.4 40.05 40.6 43.3 36.6 43.85 33.85 44.2 33.1 42.7 L29.25 42.3 32.8 40.0 Q33.2 37.25 35.7 34.9 L40.7 30.75 Q42.65 29.3 43.0 26.3 43.25 24.65 43.0 20.45 L43.6 24.9" fill="#7a5130" fill-rule="evenodd" stroke="none"/>
      <path d="M43.55 24.0 Q43.65 28.7 41.85 30.75 L42.95 32.65 40.35 32.25 40.4 32.2 36.6 35.05 Q33.75 37.5 34.3 39.7 34.75 42.35 37.7 41.25 40.55 40.2 39.95 37.75 39.35 35.35 38.05 36.7 36.65 38.0 37.95 39.2 L37.1 38.85 Q36.55 38.15 36.8 36.65 37.25 34.85 39.25 35.25 L40.0 34.15 40.1 35.6 Q42.05 36.6 41.35 39.2 40.55 42.35 36.55 42.95 33.75 43.3 33.0 41.85 L29.1 42.35 32.75 39.05 Q33.15 36.35 35.6 34.0 L40.65 29.85 Q42.6 28.35 42.95 25.35 43.2 23.75 42.95 19.65 L43.55 24.0" fill="#ca935c" fill-rule="evenodd" stroke="none"/>
      <path d="M37.3 36.4 Q36.9 37.05 36.9 37.8 L36.9 37.9 36.8 38.45 36.8 38.5 36.7 38.45 Q36.5 37.75 36.7 36.7 37.2 34.9 39.1 35.3 L39.6 34.55 39.6 35.4 39.45 35.4 39.35 35.5 39.15 35.4 Q37.95 35.4 37.3 36.4 M42.95 21.25 L43.25 21.85 Q43.25 25.65 42.65 27.25 41.8 30.0 38.6 32.45 L35.35 34.95 Q33.65 36.45 33.5 37.8 33.45 38.9 31.6 40.5 L29.9 41.7 29.75 41.85 29.5 41.95 32.6 39.05 Q33.1 36.4 35.55 34.05 L40.55 29.95 Q42.4 28.45 42.9 25.4 L42.95 21.25 M39.55 40.1 L38.45 41.15 Q37.6 41.85 36.8 41.85 L35.25 41.55 35.35 41.5 37.6 41.3 Q39.25 40.7 39.7 39.5 L39.55 40.1" fill="#d7ad86" fill-rule="evenodd" stroke="none"/>
    </g>
    <linearGradient gradientTransform="matrix(0.0, -0.0344, -0.0552, 0.0, 22.35, 16.2)" gradientUnits="userSpaceOnUse" id="gradient1" spreadMethod="pad" x1="-819.2" x2="819.2">
      <stop offset="0.0196078431372549" stop-color="#9c6732"/>
      <stop offset="1.0" stop-color="#7d4e2b"/>
    </linearGradient>
    <linearGradient gradientTransform="matrix(0.0, 0.0222, -0.023, 0.0, 21.85, 21.8)" gradientUnits="userSpaceOnUse" id="gradient2" spreadMethod="pad" x1="-819.2" x2="819.2">
      <stop offset="0.011764705882352941" stop-color="#59351e"/>
      <stop offset="1.0" stop-color="#cc955e"/>
    </linearGradient>
    <g id="sprite1" transform="matrix(1.0, 0.0, 0.0, 1.0, 0.2, 0.0)">
      <use height="8.6" transform="matrix(1.0, 0.0, 0.0, 1.0, -0.2, 0.0)" width="35.05" xlink:href="#shape3"/>
    </g>
    <g id="shape3" transform="matrix(1.0, 0.0, 0.0, 1.0, 0.2, 0.0)">
      <path d="M34.85 8.6 Q34.8 6.95 34.4 5.7 33.0 1.3 27.2 1.3 L7.45 1.3 Q0.05 1.3 -0.2 8.5 L-0.2 7.65 Q-0.2 0.0 7.45 0.0 L27.2 0.0 Q33.0 0.0 34.4 4.4 34.85 5.8 34.85 7.65 L34.85 8.6" fill="#e7deda" fill-rule="evenodd" stroke="none"/>
    </g>
  </defs>
</svg>
