<?xml version="1.0" encoding="UTF-8" standalone="no"?>
<svg xmlns:xlink="http://www.w3.org/1999/xlink" height="66.15px" width="66.0px" xmlns="http://www.w3.org/2000/svg">
  <g transform="matrix(1.5, 0.0, 0.0, 1.5, -0.075, 0.0)">
    <use height="44.05" transform="matrix(1.0, 0.0, 0.0, 1.0, 0.05, 0.0)" width="44.0" xlink:href="#shape0"/>
    <use height="8.6" transform="matrix(1.2077, 0.0, 0.0, 1.2065, 1.0085, 0.8)" width="35.05" xlink:href="#sprite0"/>
    <use height="40.35" transform="matrix(1.0, 0.0, 0.0, 1.0, 0.75, 3.75)" width="42.65" xlink:href="#shape2"/>
    <use height="20.15" transform="matrix(1.1594, 0.0, 0.0, 1.1605, 5.95, 5.4)" width="28.2" xlink:href="#sprite1"/>
    <use height="38.1" transform="matrix(1.0, 0.0, 0.0, 1.0, 2.9, 3.05)" width="38.0" xlink:href="#shape4"/>
  </g>
  <defs>
    <g id="shape0" transform="matrix(1.0, 0.0, 0.0, 1.0, -0.05, 0.0)">
      <path d="M41.85 41.85 Q39.65 44.05 36.45 44.05 L7.65 44.05 Q4.5 44.05 2.3 41.85 0.05 39.65 0.05 36.45 L0.05 7.6 Q0.05 4.5 2.3 2.3 4.5 0.0 7.65 0.0 L36.45 0.0 Q39.6 0.0 41.85 2.3 44.05 4.5 44.05 7.6 L44.05 36.45 Q44.05 39.65 41.85 41.85" fill="url(#gradient0)" fill-rule="evenodd" stroke="none"/>
    </g>
    <linearGradient gradientTransform="matrix(0.0, -0.0283, -0.0551, 0.0, 22.65, 22.0)" gradientUnits="userSpaceOnUse" id="gradient0" spreadMethod="pad" x1="-819.2" x2="819.2">
      <stop offset="0.011764705882352941" stop-color="#9dae7c"/>
      <stop offset="1.0" stop-color="#7e8f45"/>
    </linearGradient>
    <g id="sprite0" transform="matrix(1.0, 0.0, 0.0, 1.0, 0.2, 0.0)">
      <use height="8.6" transform="matrix(1.0, 0.0, 0.0, 1.0, -0.2, 0.0)" width="35.05" xlink:href="#shape1"/>
    </g>
    <g id="shape1" transform="matrix(1.0, 0.0, 0.0, 1.0, 0.2, 0.0)">
      <path d="M34.85 8.6 Q34.8 6.95 34.4 5.7 33.0 1.3 27.2 1.3 L7.45 1.3 Q0.05 1.3 -0.2 8.5 L-0.2 7.65 Q-0.2 0.0 7.45 0.0 L27.2 0.0 Q33.0 0.0 34.4 4.4 34.85 5.8 34.85 7.65 L34.85 8.6" fill="#e7deda" fill-rule="evenodd" stroke="none"/>
    </g>
    <g id="shape2" transform="matrix(1.0, 0.0, 0.0, 1.0, -0.75, -3.75)">
      <path d="M40.25 21.9 Q40.25 29.45 34.85 34.8 29.5 40.1 21.95 40.1 14.65 40.1 9.55 35.15 L9.2 34.8 Q3.75 29.45 3.75 21.9 3.75 16.4 6.75 12.05 7.75 10.45 9.2 9.05 14.45 3.75 21.95 3.75 29.5 3.75 34.85 9.05 40.25 14.4 40.25 21.9" fill="url(#gradient1)" fill-rule="evenodd" stroke="none"/>
      <path d="M0.9 32.95 Q1.2 30.6 2.45 29.4 L2.85 27.7 Q3.0 26.7 2.75 25.65 L2.45 24.6 1.8 23.25 2.85 24.35 3.7 25.55 4.0 26.95 Q4.1 27.85 3.4 29.65 2.75 31.25 2.6 33.45 L2.5 33.2 2.45 33.45 Q1.9 36.25 3.05 38.2 3.6 39.15 4.3 39.7 L4.0 39.2 4.1 39.25 4.35 39.75 Q4.95 40.5 5.8 40.65 6.9 40.85 7.95 39.95 9.2 39.0 8.25 37.65 L8.3 38.5 Q8.1 39.45 6.75 39.9 L5.75 40.1 5.75 40.0 5.65 38.8 Q5.6 37.05 7.05 36.15 8.55 35.2 10.05 36.75 L11.25 38.55 Q11.2 36.7 10.3 35.75 L10.45 35.9 Q11.15 36.65 11.45 37.6 L11.4 37.6 11.55 38.0 11.85 38.85 11.9 40.0 Q10.5 42.9 8.7 42.9 10.0 42.7 10.1 41.55 7.2 42.75 3.75 41.05 1.25 39.1 0.9 32.95" fill="#9ec087" fill-rule="evenodd" stroke="none"/>
      <path d="M11.9 40.0 Q11.8 41.15 11.15 42.25 10.15 44.05 7.05 44.1 L4.15 43.8 5.65 43.35 7.85 43.05 6.6 43.15 Q4.45 43.1 2.9 41.6 1.0 39.55 0.8 35.45 0.7 34.05 0.9 32.95 1.25 39.1 3.75 41.05 7.2 42.75 10.1 41.55 10.0 42.7 8.7 42.9 10.5 42.9 11.9 40.0" fill="#648a4a" fill-rule="evenodd" stroke="none"/>
      <path d="M2.6 33.45 L2.65 34.75 Q3.0 36.5 3.85 37.65 L3.95 37.05 Q4.65 35.05 7.35 34.5 L9.25 34.95 10.3 35.75 Q11.2 36.7 11.25 38.55 L10.05 36.75 Q8.55 35.2 7.05 36.15 5.6 37.05 5.65 38.8 L5.75 40.0 5.75 40.1 6.75 39.9 Q8.1 39.45 8.3 38.5 L8.25 37.65 Q9.2 39.0 7.95 39.95 6.9 40.85 5.8 40.65 4.95 40.5 4.35 39.75 L4.1 39.25 4.0 39.2 4.3 39.7 Q3.6 39.15 3.05 38.2 1.9 36.25 2.45 33.45 L2.6 33.45 M4.0 39.2 L4.15 39.15 4.1 39.0 3.95 39.05 4.0 39.2" fill="#c0d6b1" fill-rule="evenodd" stroke="none"/>
      <path d="M2.45 33.45 L2.5 33.2 2.6 33.45 2.45 33.45" fill="#00632e" fill-rule="evenodd" stroke="none"/>
      <path d="M4.0 39.2 L3.95 39.05 4.1 39.0 4.15 39.15 4.0 39.2" fill="#ccbf38" fill-rule="evenodd" stroke="none"/>
      <path d="M11.45 37.6 L11.55 38.0 11.4 37.6 11.45 37.6" fill="url(#gradient2)" fill-rule="evenodd" stroke="none"/>
      <path d="M41.55 33.45 Q41.4 31.25 40.75 29.65 40.05 27.85 40.15 26.95 L40.45 25.55 41.3 24.35 42.35 23.25 41.7 24.6 41.4 25.65 Q41.15 26.7 41.3 27.7 L41.7 29.4 Q42.95 30.6 43.25 32.95 42.9 39.1 40.4 41.05 36.95 42.75 34.05 41.55 34.15 42.7 35.45 42.9 33.65 42.9 32.25 40.0 32.2 39.45 32.3 38.85 L32.6 38.0 32.75 37.6 32.7 37.6 Q33.0 36.65 33.7 35.9 L33.85 35.75 Q32.95 36.7 32.9 38.55 33.35 37.6 34.1 36.75 35.6 35.2 37.1 36.15 38.55 37.05 38.5 38.8 L38.4 40.0 38.4 40.1 37.4 39.9 Q36.05 39.45 35.85 38.5 L35.9 37.65 Q34.95 39.0 36.2 39.95 37.25 40.85 38.35 40.65 39.2 40.5 39.8 39.75 L40.05 39.25 40.15 39.2 39.85 39.7 41.1 38.2 Q42.25 36.25 41.7 33.45 L41.65 33.2 41.55 33.45" fill="#9ec087" fill-rule="evenodd" stroke="none"/>
      <path d="M32.25 40.0 Q33.65 42.9 35.45 42.9 34.15 42.7 34.05 41.55 36.95 42.75 40.4 41.05 42.9 39.1 43.25 32.95 L43.35 35.45 Q43.15 39.55 41.25 41.6 39.7 43.1 37.55 43.15 L36.3 43.05 38.5 43.35 40.0 43.8 37.1 44.1 Q34.0 44.05 33.0 42.25 32.35 41.15 32.25 40.0" fill="#648a4a" fill-rule="evenodd" stroke="none"/>
      <path d="M41.55 33.45 L41.65 33.2 41.7 33.45 41.55 33.45" fill="#00632e" fill-rule="evenodd" stroke="none"/>
      <path d="M41.7 33.45 Q42.25 36.25 41.1 38.2 L39.85 39.7 40.15 39.2 40.05 39.25 39.8 39.75 Q39.2 40.5 38.35 40.65 37.25 40.85 36.2 39.95 34.95 39.0 35.9 37.65 L35.85 38.5 Q36.05 39.45 37.4 39.9 L38.4 40.1 38.4 40.0 38.5 38.8 Q38.55 37.05 37.1 36.15 35.6 35.2 34.1 36.75 33.35 37.6 32.9 38.55 32.95 36.7 33.85 35.75 L34.9 34.95 36.8 34.5 Q39.5 35.05 40.2 37.05 L40.3 37.65 Q41.15 36.5 41.5 34.75 L41.55 33.45 41.7 33.45 M40.15 39.2 L40.2 39.05 40.05 39.0 40.0 39.15 40.15 39.2" fill="#c0d6b1" fill-rule="evenodd" stroke="none"/>
      <path d="M40.15 39.2 L40.0 39.15 40.05 39.0 40.2 39.05 40.15 39.2" fill="#ccbf38" fill-rule="evenodd" stroke="none"/>
      <path d="M32.7 37.6 L32.75 37.6 32.6 38.0 32.7 37.6" fill="url(#gradient3)" fill-rule="evenodd" stroke="none"/>
      <path d="M36.75 13.8 Q37.7 15.9 38.1 17.7 38.5 19.45 38.5 21.2 L33.0 19.05 36.75 13.8 M20.4 10.15 L20.4 10.2 20.35 10.15 20.35 10.1 16.25 6.0 Q17.75 5.25 19.65 5.0 21.5 4.75 23.25 5.05 L20.4 10.15 M10.1 10.0 Q11.35 8.7 13.0 7.8 L13.8 13.7 7.85 12.85 Q8.75 11.3 10.1 10.0 M30.9 25.3 L30.65 25.25 29.75 25.1 34.2 21.35 32.3 26.2 Q31.65 25.8 31.65 25.9 L31.45 25.95 31.35 26.05 27.7 31.1 27.5 31.3 27.35 32.7 27.05 32.5 26.85 32.55 26.75 32.55 26.75 32.65 26.5 34.45 26.2 34.3 Q26.15 34.2 26.1 34.25 L25.9 34.25 25.9 34.5 25.55 36.1 25.1 34.6 25.0 34.45 24.85 34.5 23.25 34.45 24.7 33.6 24.85 33.5 24.85 33.3 24.75 33.2 24.5 33.1 26.1 32.3 26.15 32.15 26.2 32.0 26.1 31.85 26.0 31.7 27.1 31.0 27.1 30.9 30.8 25.7 30.8 25.55 30.9 25.3" fill="#92300b" fill-rule="evenodd" stroke="none"/>
      <path d="M18.2 29.6 Q19.7 30.65 18.8 32.3 17.65 34.0 15.15 34.0 L12.75 34.1 12.6 34.05 11.65 34.55 11.85 33.4 11.95 33.3 11.4 31.2 Q10.7 28.85 11.95 27.15 13.25 25.8 14.8 26.95 16.25 28.1 15.25 29.8 16.8 28.45 18.2 29.6" fill="#92300b" fill-rule="evenodd" stroke="none"/>
      <path d="M19.9 33.6 Q20.65 33.2 21.2 33.9 21.65 34.7 21.25 35.75 L20.8 36.7 20.8 36.75 20.85 37.2 20.4 36.95 20.4 36.9 19.45 36.8 Q18.3 36.65 17.85 35.8 17.5 35.0 18.25 34.6 18.95 34.15 19.5 34.9 19.2 34.05 19.9 33.6" fill="#92300b" fill-rule="evenodd" stroke="none"/>
      <path d="M11.2 23.7 Q11.55 24.8 10.45 25.25 9.25 25.65 8.1 24.65 L6.9 23.8 6.9 23.75 6.2 23.7 6.8 23.2 6.85 23.2 7.4 21.95 Q7.85 20.55 9.1 20.25 10.3 20.05 10.55 21.15 10.85 22.25 9.7 22.8 10.9 22.6 11.2 23.7" fill="#92300b" fill-rule="evenodd" stroke="none"/>
      <path d="M32.55 8.75 Q33.75 10.05 35.3 11.15 L28.85 12.5 28.7 12.55 29.9 6.35 32.55 8.75" fill="#92300b" fill-rule="evenodd" stroke="none"/>
      <path d="M29.85 23.4 L32.4 21.2" fill="none" stroke="#92300b" stroke-linecap="round" stroke-linejoin="round" stroke-width="0.5"/>
      <path d="M34.85 23.55 L34.25 25.85" fill="none" stroke="#92300b" stroke-linecap="round" stroke-linejoin="round" stroke-width="0.5"/>
      <path d="M20.2 24.4 L20.3 24.6 21.45 25.0 16.7 27.9 18.35 22.75 19.0 23.6 19.15 23.75 19.35 23.75 19.55 23.6 23.95 17.75 24.0 17.65 24.45 15.75 24.7 15.95 Q24.85 16.1 24.95 16.05 L25.2 15.9 25.25 15.7 25.55 13.05 25.85 13.3 26.1 13.5 26.25 13.4 26.45 13.15 27.0 10.4 27.9 13.0 28.0 13.1 28.2 13.25 30.8 13.3 28.3 14.65 28.2 14.85 28.2 14.9 28.2 15.05 28.3 15.25 28.7 15.5 26.1 16.5 26.05 16.65 26.05 16.95 26.15 17.15 26.45 17.25 Q25.6 17.65 24.8 18.1 L24.65 18.3 20.25 24.05 20.1 24.25 20.2 24.4" fill="#92300b" fill-rule="evenodd" stroke="none"/>
      <path d="M18.5 15.7 L18.1 20.15" fill="none" stroke="#92300b" stroke-linecap="round" stroke-linejoin="round" stroke-width="0.5"/>
      <path d="M16.0 17.4 L16.5 19.7" fill="none" stroke="#92300b" stroke-linecap="round" stroke-linejoin="round" stroke-width="0.5"/>
      <path d="M23.4 26.2 L26.1 24.2" fill="none" stroke="#92300b" stroke-linecap="round" stroke-linejoin="round" stroke-width="0.5"/>
      <path d="M23.5 24.35 L25.5 22.5" fill="none" stroke="#92300b" stroke-linecap="round" stroke-linejoin="round" stroke-width="0.5"/>
    </g>
    <linearGradient gradientTransform="matrix(0.0, -0.017, -0.017, 0.0, 21.95, 18.35)" gradientUnits="userSpaceOnUse" id="gradient1" spreadMethod="pad" x1="-819.2" x2="819.2">
      <stop offset="0.011764705882352941" stop-color="#f9cfb3"/>
      <stop offset="1.0" stop-color="#ff5b79"/>
    </linearGradient>
    <linearGradient gradientTransform="matrix(0.0, -0.025, -0.025, 0.0, 6.15, 31.55)" gradientUnits="userSpaceOnUse" id="gradient2" spreadMethod="pad" x1="-819.2" x2="819.2">
      <stop offset="0.011764705882352941" stop-color="#bed9a5"/>
      <stop offset="1.0" stop-color="#739416"/>
    </linearGradient>
    <linearGradient gradientTransform="matrix(0.0, -0.025, 0.025, 0.0, 37.95, 31.55)" gradientUnits="userSpaceOnUse" id="gradient3" spreadMethod="pad" x1="-819.2" x2="819.2">
      <stop offset="0.011764705882352941" stop-color="#bed9a5"/>
      <stop offset="1.0" stop-color="#739416"/>
    </linearGradient>
    <g id="sprite1" transform="matrix(1.0, 0.0, 0.0, 1.0, 0.0, 0.0)">
      <use height="20.15" transform="matrix(1.0, 0.0, 0.0, 1.0, 0.0, 0.0)" width="28.2" xlink:href="#shape3"/>
    </g>
    <g id="shape3" transform="matrix(1.0, 0.0, 0.0, 1.0, 0.0, 0.0)">
      <path d="M27.65 18.45 L27.4 18.95 Q26.2 20.8 23.4 19.8 19.6 18.5 17.35 14.05 14.8 9.1 9.75 7.4 4.1 5.65 0.0 10.3 1.0 6.85 3.7 4.15 7.2 0.65 11.9 0.05 L14.8 0.05 18.4 0.65 Q21.55 1.65 24.05 4.15 28.2 8.3 28.2 14.25 28.2 16.45 27.65 18.45" fill="#ffffff" fill-opacity="0.19607843" fill-rule="evenodd" stroke="none"/>
    </g>
    <g id="shape4" transform="matrix(1.0, 0.0, 0.0, 1.0, -2.9, -3.05)">
      <path d="M33.75 10.35 Q28.8 5.5 21.9 5.4 15.0 5.5 10.15 10.35 5.25 15.15 5.2 22.05 5.25 29.05 10.15 33.9 15.0 38.8 21.9 38.8 28.8 38.8 33.75 33.9 38.55 29.05 38.55 22.05 38.55 15.15 33.75 10.35 M40.9 22.05 Q40.9 29.95 35.3 35.5 29.8 41.15 21.9 41.15 13.95 41.15 8.45 35.5 2.9 29.95 2.9 22.05 2.9 14.1 8.45 8.6 13.95 3.05 21.9 3.05 29.8 3.05 35.3 8.6 40.9 14.1 40.9 22.05" fill="url(#gradient4)" fill-rule="evenodd" stroke="none"/>
    </g>
    <linearGradient gradientTransform="matrix(1.0E-4, 0.0224, -0.0232, 1.0E-4, 21.95, 22.35)" gradientUnits="userSpaceOnUse" id="gradient4" spreadMethod="pad" x1="-819.2" x2="819.2">
      <stop offset="0.011764705882352941" stop-color="#516537"/>
      <stop offset="1.0" stop-color="#a8ce99"/>
    </linearGradient>
  </defs>
</svg>
