<?xml version="1.0" encoding="UTF-8" standalone="no"?>
<svg xmlns:xlink="http://www.w3.org/1999/xlink" height="66.0px" width="66.0px" xmlns="http://www.w3.org/2000/svg">
  <g transform="matrix(1.5, 0.0, 0.0, 1.5, -0.075, 0.0)">
    <use height="43.95" transform="matrix(1.0, 0.0, 0.0, 1.0, 0.05, 0.0)" width="44.0" xlink:href="#shape0"/>
    <use height="8.6" transform="matrix(1.2075, 0.0, 0.0, 1.2036, 0.6085, 0.35)" width="35.05" xlink:href="#sprite0"/>
    <use height="40.95" transform="matrix(1.0, 0.0, 0.0, 1.0, 0.75, 3.05)" width="42.65" xlink:href="#shape2"/>
    <use height="20.15" transform="matrix(1.1593, 0.0, 0.0, 1.1578, 5.45, 5.3)" width="28.2" xlink:href="#sprite1"/>
  </g>
  <defs>
    <g id="shape0" transform="matrix(1.0, 0.0, 0.0, 1.0, -0.05, 0.0)">
      <path d="M41.85 41.75 Q39.65 43.95 36.45 43.95 L7.65 43.95 Q4.5 43.95 2.3 41.75 0.05 39.55 0.05 36.35 L0.05 7.6 Q0.05 4.5 2.3 2.3 4.5 0.0 7.65 0.0 L36.45 0.0 Q39.6 0.0 41.85 2.3 44.05 4.5 44.05 7.6 L44.05 36.35 Q44.05 39.55 41.85 41.75" fill="url(#gradient0)" fill-rule="evenodd" stroke="none"/>
    </g>
    <linearGradient gradientTransform="matrix(0.0, -0.0282, -0.0551, 0.0, 22.55, 21.7)" gradientUnits="userSpaceOnUse" id="gradient0" spreadMethod="pad" x1="-819.2" x2="819.2">
      <stop offset="0.011764705882352941" stop-color="#9dae7c"/>
      <stop offset="1.0" stop-color="#7e8f45"/>
    </linearGradient>
    <g id="sprite0" transform="matrix(1.0, 0.0, 0.0, 1.0, 0.2, 0.0)">
      <use height="8.6" transform="matrix(1.0, 0.0, 0.0, 1.0, -0.2, 0.0)" width="35.05" xlink:href="#shape1"/>
    </g>
    <g id="shape1" transform="matrix(1.0, 0.0, 0.0, 1.0, 0.2, 0.0)">
      <path d="M34.85 8.6 Q34.8 6.95 34.4 5.7 33.0 1.3 27.2 1.3 L7.45 1.3 Q0.05 1.3 -0.2 8.5 L-0.2 7.65 Q-0.2 0.0 7.45 0.0 L27.2 0.0 Q33.0 0.0 34.4 4.4 34.85 5.8 34.85 7.65 L34.85 8.6" fill="#e7deda" fill-rule="evenodd" stroke="none"/>
    </g>
    <g id="shape2" transform="matrix(1.0, 0.0, 0.0, 1.0, -0.75, -3.05)">
      <path d="M22.05 5.0 Q29.5 5.0 34.7 10.2 39.95 15.35 39.95 22.8 39.95 30.2 34.7 35.4 29.5 40.65 22.05 40.65 14.65 40.65 9.45 35.4 4.15 30.2 4.15 22.8 4.15 15.35 9.45 10.2 14.65 5.0 22.05 5.0" fill="url(#gradient1)" fill-rule="evenodd" stroke="none"/>
      <path d="M22.75 16.25 L22.65 25.25 24.0 27.95 22.9 28.0 24.95 31.3 23.6 31.3 25.7 35.95 21.75 33.2 17.8 35.8 19.9 31.35 18.55 31.35 20.65 27.95 19.45 28.0 20.75 25.2 20.8 16.3 18.6 16.95 21.75 8.8 24.75 16.95 22.75 16.25" fill="#92300b" fill-rule="evenodd" stroke="none"/>
      <path d="M16.4 29.75 L16.4 30.5 11.7 34.2 14.1 29.55 14.8 29.1 15.7 29.15 16.4 29.75 M18.0 31.6 L18.2 32.35 18.15 32.6 16.45 34.05 17.2 32.1 18.0 31.6 M15.25 27.2 L8.15 30.6 13.0 25.8 Q15.15 24.5 15.25 27.2" fill="#92300b" fill-rule="evenodd" stroke="none"/>
      <path d="M28.15 26.9 Q28.2 24.2 30.4 25.5 L35.2 30.3 28.15 26.9 M26.95 29.5 L27.7 28.85 28.55 28.8 29.3 29.25 31.65 33.9 26.95 30.2 26.95 29.5 M25.15 32.05 L25.4 31.3 26.15 31.8 26.9 33.75 25.2 32.3 25.15 32.05" fill="#92300b" fill-rule="evenodd" stroke="none"/>
      <path d="M35.55 9.75 Q40.7 14.1 40.7 20.35 40.7 26.2 36.2 30.35 L24.65 5.45 Q30.95 5.85 35.55 9.75 M3.8 20.45 Q4.5 14.55 8.6 10.15 12.7 5.8 19.2 5.45 L7.6 30.5 Q3.1 26.35 3.8 20.45" fill="#92300b" fill-rule="evenodd" stroke="none"/>
      <path d="M33.75 10.35 Q28.8 5.5 21.9 5.4 15.0 5.5 10.15 10.35 5.25 15.1 5.2 22.0 5.25 29.0 10.15 33.8 15.0 38.7 21.9 38.7 28.8 38.7 33.75 33.8 38.55 29.0 38.55 22.0 38.55 15.1 33.75 10.35 M40.9 22.0 Q40.9 29.9 35.3 35.4 29.8 41.05 21.9 41.05 13.95 41.05 8.45 35.4 2.9 29.9 2.9 22.0 2.9 14.05 8.45 8.6 13.95 3.05 21.9 3.05 29.8 3.05 35.3 8.6 40.9 14.05 40.9 22.0" fill="url(#gradient2)" fill-rule="evenodd" stroke="none"/>
      <path d="M0.9 32.85 Q1.2 30.55 2.45 29.35 L2.85 27.65 Q3.0 26.65 2.75 25.6 L2.45 24.55 1.8 23.2 2.85 24.3 3.7 25.5 4.0 26.9 Q4.1 27.8 3.4 29.6 2.75 31.15 2.6 33.35 L2.5 33.1 2.45 33.35 Q1.9 36.15 3.05 38.1 3.6 39.05 4.3 39.6 L4.0 39.1 4.1 39.15 4.35 39.65 Q4.95 40.4 5.8 40.55 6.9 40.75 7.95 39.85 9.2 38.9 8.25 37.55 L8.3 38.4 Q8.1 39.35 6.75 39.8 L5.75 40.0 5.75 39.9 5.65 38.7 Q5.6 36.95 7.05 36.05 8.55 35.1 10.05 36.65 L11.25 38.45 Q11.2 36.6 10.3 35.65 L10.45 35.8 Q11.15 36.55 11.45 37.5 L11.4 37.5 11.55 37.9 11.85 38.75 11.9 39.9 Q10.5 42.8 8.7 42.8 10.0 42.6 10.1 41.45 7.2 42.65 3.75 40.95 1.25 39.0 0.9 32.85" fill="#9ec087" fill-rule="evenodd" stroke="none"/>
      <path d="M2.6 33.35 L2.65 34.65 Q3.0 36.4 3.85 37.55 L3.95 36.95 Q4.65 34.95 7.35 34.4 L9.25 34.85 10.3 35.65 Q11.2 36.6 11.25 38.45 L10.05 36.65 Q8.55 35.1 7.05 36.05 5.6 36.95 5.65 38.7 L5.75 39.9 5.75 40.0 6.75 39.8 Q8.1 39.35 8.3 38.4 L8.25 37.55 Q9.2 38.9 7.95 39.85 6.9 40.75 5.8 40.55 4.95 40.4 4.35 39.65 L4.1 39.15 4.0 39.1 4.3 39.6 Q3.6 39.05 3.05 38.1 1.9 36.15 2.45 33.35 L2.6 33.35 M4.0 39.1 L4.15 39.05 4.1 38.9 3.95 38.95 4.0 39.1" fill="#c0d6b1" fill-rule="evenodd" stroke="none"/>
      <path d="M2.45 33.35 L2.5 33.1 2.6 33.35 2.45 33.35" fill="#00632e" fill-rule="evenodd" stroke="none"/>
      <path d="M11.9 39.9 Q11.8 41.05 11.15 42.15 10.15 43.95 7.05 44.0 L4.15 43.7 5.65 43.25 7.85 42.95 6.6 43.05 Q4.45 43.0 2.9 41.5 1.0 39.45 0.8 35.35 0.7 33.95 0.9 32.85 1.25 39.0 3.75 40.95 7.2 42.65 10.1 41.45 10.0 42.6 8.7 42.8 10.5 42.8 11.9 39.9" fill="#648a4a" fill-rule="evenodd" stroke="none"/>
      <path d="M4.0 39.1 L3.95 38.95 4.1 38.9 4.15 39.05 4.0 39.1" fill="#ccbf38" fill-rule="evenodd" stroke="none"/>
      <path d="M11.45 37.5 L11.55 37.9 11.4 37.5 11.45 37.5" fill="url(#gradient3)" fill-rule="evenodd" stroke="none"/>
      <path d="M41.55 33.35 Q41.4 31.15 40.75 29.6 40.05 27.8 40.15 26.9 L40.45 25.5 41.3 24.3 42.35 23.2 41.7 24.55 41.4 25.6 Q41.15 26.65 41.3 27.65 L41.7 29.35 Q42.95 30.55 43.25 32.85 42.9 39.0 40.4 40.95 36.95 42.65 34.05 41.45 34.15 42.6 35.45 42.8 33.65 42.8 32.25 39.9 32.2 39.35 32.3 38.75 L32.6 37.9 32.75 37.5 32.7 37.5 Q33.0 36.55 33.7 35.8 L33.85 35.65 Q32.95 36.6 32.9 38.45 33.35 37.5 34.1 36.65 35.6 35.1 37.1 36.05 38.55 36.95 38.5 38.7 L38.4 39.9 38.4 40.0 37.4 39.8 Q36.05 39.35 35.85 38.4 L35.9 37.55 Q34.95 38.9 36.2 39.85 37.25 40.75 38.35 40.55 39.2 40.4 39.8 39.65 L40.05 39.15 40.15 39.1 39.85 39.6 41.1 38.1 Q42.25 36.15 41.7 33.35 L41.65 33.1 41.55 33.35" fill="#9ec087" fill-rule="evenodd" stroke="none"/>
      <path d="M41.55 33.35 L41.65 33.1 41.7 33.35 41.55 33.35" fill="#00632e" fill-rule="evenodd" stroke="none"/>
      <path d="M41.7 33.35 Q42.25 36.15 41.1 38.1 L39.85 39.6 40.15 39.1 40.05 39.15 39.8 39.65 Q39.2 40.4 38.35 40.55 37.25 40.75 36.2 39.85 34.95 38.9 35.9 37.55 L35.85 38.4 Q36.05 39.35 37.4 39.8 L38.4 40.0 38.4 39.9 38.5 38.7 Q38.55 36.95 37.1 36.05 35.6 35.1 34.1 36.65 33.35 37.5 32.9 38.45 32.95 36.6 33.85 35.65 L34.9 34.85 36.8 34.4 Q39.5 34.95 40.2 36.95 L40.3 37.55 Q41.15 36.4 41.5 34.65 L41.55 33.35 41.7 33.35 M40.15 39.1 L40.2 38.95 40.05 38.9 40.0 39.05 40.15 39.1" fill="#c0d6b1" fill-rule="evenodd" stroke="none"/>
      <path d="M32.25 39.9 Q33.65 42.8 35.45 42.8 34.15 42.6 34.05 41.45 36.95 42.65 40.4 40.95 42.9 39.0 43.25 32.85 L43.35 35.35 Q43.15 39.45 41.25 41.5 39.7 43.0 37.55 43.05 L36.3 42.95 38.5 43.25 40.0 43.7 37.1 44.0 Q34.0 43.95 33.0 42.15 32.35 41.05 32.25 39.9" fill="#648a4a" fill-rule="evenodd" stroke="none"/>
      <path d="M40.15 39.1 L40.0 39.05 40.05 38.9 40.2 38.95 40.15 39.1" fill="#ccbf38" fill-rule="evenodd" stroke="none"/>
      <path d="M32.7 37.5 L32.75 37.5 32.6 37.9 32.7 37.5" fill="url(#gradient4)" fill-rule="evenodd" stroke="none"/>
    </g>
    <linearGradient gradientTransform="matrix(0.0, -0.0166, -0.0166, 0.0, 21.9, 19.15)" gradientUnits="userSpaceOnUse" id="gradient1" spreadMethod="pad" x1="-819.2" x2="819.2">
      <stop offset="0.011764705882352941" stop-color="#f9cfb3"/>
      <stop offset="1.0" stop-color="#ff5b79"/>
    </linearGradient>
    <linearGradient gradientTransform="matrix(1.0E-4, 0.0223, -0.0232, 1.0E-4, 21.9, 22.25)" gradientUnits="userSpaceOnUse" id="gradient2" spreadMethod="pad" x1="-819.2" x2="819.2">
      <stop offset="0.011764705882352941" stop-color="#516537"/>
      <stop offset="1.0" stop-color="#a8ce99"/>
    </linearGradient>
    <linearGradient gradientTransform="matrix(0.0, -0.0249, -0.0249, 0.0, 6.05, 31.25)" gradientUnits="userSpaceOnUse" id="gradient3" spreadMethod="pad" x1="-819.2" x2="819.2">
      <stop offset="0.011764705882352941" stop-color="#bed9a5"/>
      <stop offset="1.0" stop-color="#739416"/>
    </linearGradient>
    <linearGradient gradientTransform="matrix(0.0, -0.0249, 0.0249, 0.0, 37.85, 31.25)" gradientUnits="userSpaceOnUse" id="gradient4" spreadMethod="pad" x1="-819.2" x2="819.2">
      <stop offset="0.011764705882352941" stop-color="#bed9a5"/>
      <stop offset="1.0" stop-color="#739416"/>
    </linearGradient>
    <g id="sprite1" transform="matrix(1.0, 0.0, 0.0, 1.0, 0.0, 0.0)">
      <use height="20.15" transform="matrix(1.0, 0.0, 0.0, 1.0, 0.0, 0.0)" width="28.2" xlink:href="#shape3"/>
    </g>
    <g id="shape3" transform="matrix(1.0, 0.0, 0.0, 1.0, 0.0, 0.0)">
      <path d="M27.65 18.45 L27.4 18.95 Q26.2 20.8 23.4 19.8 19.6 18.5 17.35 14.05 14.8 9.1 9.75 7.4 4.1 5.65 0.0 10.3 1.0 6.85 3.7 4.15 7.2 0.65 11.9 0.05 L14.8 0.05 18.4 0.65 Q21.55 1.65 24.05 4.15 28.2 8.3 28.2 14.25 28.2 16.45 27.65 18.45" fill="#ffffff" fill-opacity="0.19607843" fill-rule="evenodd" stroke="none"/>
    </g>
  </defs>
</svg>
