<?xml version="1.0" encoding="UTF-8" standalone="no"?>
<svg xmlns:xlink="http://www.w3.org/1999/xlink" height="66.0px" width="66.0px" xmlns="http://www.w3.org/2000/svg">
  <g transform="matrix(1.5, 0.0, 0.0, 1.5, 0.675, -0.6)">
    <use height="39.05" transform="matrix(1.0, 0.0, 0.0, 1.0, 3.4, 1.55)" width="37.2" xlink:href="#shape0"/>
    <use height="0.0" transform="matrix(1.2125, 0.0, 0.0, 1.2125, 1.1, 0.9)" width="0.0" xlink:href="#sprite0"/>
    <use height="44.0" transform="matrix(1.0, 0.0, 0.0, 1.0, -0.45, 0.4)" width="44.0" xlink:href="#shape1"/>
    <use height="8.6" transform="matrix(1.2076, 0.0, 0.0, 1.2092, -0.0415, 0.85)" width="35.05" xlink:href="#sprite1"/>
    <use height="20.15" transform="matrix(1.1548, 0.0, 0.0, 1.1564, 5.9, 6.05)" width="28.2" xlink:href="#sprite2"/>
    <use height="39.85" transform="matrix(1.0, 0.0, 0.0, 1.0, 1.35, 4.5)" width="40.55" xlink:href="#shape4"/>
    <use height="8.6" transform="matrix(1.2077, 0.0, 0.0, 1.2065, 1.0085, 0.9)" width="35.05" xlink:href="#sprite1"/>
  </g>
  <defs>
    <g id="shape0" transform="matrix(1.0, 0.0, 0.0, 1.0, -3.4, -1.55)">
      <path d="M22.05 40.6 Q14.3 40.6 8.85 35.2 3.4 29.75 3.4 22.05 3.4 14.35 8.85 8.95 14.3 3.5 22.05 3.5 29.75 3.5 35.2 8.95 40.6 14.4 40.6 22.05 40.6 29.75 35.2 35.2 29.75 40.6 22.05 40.6" fill="url(#gradient0)" fill-rule="evenodd" stroke="none"/>
      <path d="M30.15 15.35 L30.3 15.6 30.1 15.85 28.95 16.65 28.9 16.6 29.3 17.2 30.35 16.75 30.6 16.75 30.8 16.85 30.8 17.1 30.7 17.3 29.65 17.75 30.1 18.7 31.35 18.45 31.55 18.5 31.75 18.7 31.7 18.85 31.5 19.0 30.2 19.3 30.5 20.25 33.1 20.2 33.4 20.3 33.5 20.5 33.4 20.75 33.1 20.85 30.5 20.85 30.4 21.9 31.45 22.1 31.6 22.2 31.7 22.4 31.55 22.55 31.3 22.65 30.2 22.5 29.85 23.55 31.6 24.2 31.8 24.4 31.8 24.6 31.6 24.75 31.35 24.75 29.6 24.05 28.95 24.95 30.55 25.95 30.7 26.1 30.6 26.4 30.35 26.5 30.05 26.4 28.55 25.35 28.0 25.9 27.65 26.1 27.45 26.25 27.8 27.4 Q28.4 27.5 28.85 27.85 29.4 28.4 29.4 29.4 L29.4 29.6 26.75 29.6 26.0 29.25 25.95 28.55 25.85 27.95 25.95 27.85 Q26.35 27.5 26.75 27.4 L26.6 26.75 25.25 27.4 25.55 29.6 26.6 30.0 Q27.15 30.6 27.15 31.6 L27.15 31.8 23.1 31.8 23.1 31.6 Q23.1 30.6 23.7 30.0 24.05 29.7 24.55 29.6 L24.35 27.7 22.8 27.95 23.15 27.95 23.25 28.8 23.15 28.95 22.95 29.15 22.65 29.05 22.55 28.85 22.45 28.0 22.05 28.0 21.9 28.0 21.5 28.0 21.25 29.75 21.05 29.95 20.85 29.95 20.55 29.85 20.5 29.7 20.75 27.95 20.1 27.85 19.5 27.7 19.3 29.6 20.05 30.0 Q20.7 30.6 20.7 31.6 L20.7 31.8 16.7 31.8 16.7 31.6 Q16.7 30.6 17.2 30.0 17.7 29.65 18.25 29.6 18.25 28.4 18.55 27.4 L17.2 26.85 17.05 27.4 17.85 27.85 17.95 27.95 17.85 28.55 17.8 29.25 Q17.35 29.4 17.05 29.6 L14.35 29.6 14.35 29.4 Q14.35 28.4 14.95 27.85 L16.05 27.4 16.4 26.3 Q16.05 26.1 15.85 25.9 L15.75 25.85 14.2 27.0 13.95 27.1 13.7 26.95 13.6 26.75 13.7 26.55 15.25 25.35 14.6 24.65 12.15 25.8 11.85 25.8 11.7 25.65 11.65 25.4 11.8 25.25 14.25 24.1 13.75 23.15 11.5 23.65 11.3 23.65 11.1 23.5 Q11.05 23.3 11.15 23.25 L11.35 23.1 13.6 22.55 13.35 21.6 11.0 21.7 10.75 21.65 10.65 21.4 10.75 21.15 10.95 21.1 13.3 21.0 13.3 20.8 13.35 19.95 11.95 19.8 11.7 19.65 11.7 19.45 11.8 19.25 12.05 19.2 13.5 19.35 13.8 18.3 11.7 17.55 11.5 17.45 11.5 17.2 Q11.5 17.1 11.7 17.1 L11.95 17.1 14.05 17.75 14.6 16.95 12.7 15.75 12.55 15.65 Q12.5 15.45 12.6 15.35 L12.85 15.25 13.15 15.3 15.05 16.45 15.85 15.7 14.65 14.5 14.55 14.3 14.65 14.1 14.95 14.05 15.25 14.1 16.4 15.25 17.2 14.75 15.85 12.75 15.85 12.55 Q15.85 12.4 16.0 12.35 L16.2 12.35 16.45 12.45 17.85 14.45 18.0 14.35 Q18.45 14.15 18.95 14.05 L18.35 12.25 Q18.25 12.1 18.4 12.05 L18.6 11.9 18.85 11.95 19.0 12.1 19.6 13.85 20.3 13.75 20.1 12.35 Q20.05 12.2 20.15 12.1 L20.45 12.0 20.65 12.1 20.8 12.3 21.0 13.65 21.4 13.65 21.4 1.55 22.7 1.55 22.7 13.65 23.1 13.7 23.1 13.65 23.25 12.85 23.4 12.65 23.65 12.65 23.9 12.75 23.95 12.95 23.8 13.7 23.8 13.8 24.6 13.9 25.35 12.1 25.5 11.95 25.75 11.9 25.9 12.05 25.9 12.3 25.2 14.1 26.25 14.55 26.75 13.85 26.95 13.75 27.25 13.75 27.45 13.9 27.4 14.15 26.8 14.95 27.4 15.25 28.75 13.95 28.95 13.9 29.3 13.95 29.4 14.15 29.3 14.4 27.95 15.7 28.0 15.75 28.25 15.95 28.25 16.0 28.3 16.0 28.5 16.2 29.65 15.35 29.95 15.3 30.15 15.35 M24.6 21.3 L24.5 21.65 24.5 21.85 24.8 22.4 25.4 22.85 26.1 22.4 26.25 21.65 26.2 21.15 26.1 20.8 27.7 20.25 27.95 21.3 27.95 21.7 27.95 22.1 27.95 22.3 27.4 23.65 Q26.75 24.4 25.85 24.4 25.0 24.4 24.35 23.6 23.9 23.0 23.85 22.2 L23.8 21.7 23.8 21.55 24.6 21.3 M14.3 21.9 Q14.3 23.4 15.35 24.4 16.35 25.45 17.85 25.45 19.35 25.45 20.4 24.4 21.4 23.4 21.4 21.9 21.4 20.4 20.4 19.35 19.35 18.35 17.85 18.35 16.35 18.35 15.35 19.35 14.3 20.4 14.3 21.9 M38.1 21.7 L36.55 23.75 34.45 24.95 34.45 22.95 38.1 21.7 M29.6 21.9 Q29.6 20.4 28.55 19.35 27.55 18.35 26.05 18.35 24.55 18.35 23.5 19.35 22.5 20.4 22.5 21.9 22.5 23.4 23.5 24.4 24.55 25.45 26.05 25.45 27.55 25.45 28.55 24.4 29.6 23.4 29.6 21.9 M5.9 21.7 L9.95 23.6 8.4 25.8 7.45 23.75 5.9 21.7 M19.3 21.3 L20.1 21.55 20.1 21.7 20.05 22.2 Q20.0 23.0 19.55 23.6 18.9 24.4 18.05 24.4 17.15 24.4 16.5 23.65 16.15 23.1 15.95 22.3 L15.95 22.1 15.95 21.7 15.95 21.3 Q15.95 20.7 16.2 20.25 L17.8 20.8 17.7 21.15 17.65 21.65 Q17.65 22.15 17.8 22.4 L18.5 22.85 Q18.9 22.85 19.1 22.4 L19.4 21.85 19.4 21.65 19.3 21.3 M7.95 28.95 L12.55 28.95 14.6 34.9 10.75 32.7 7.95 28.95 M36.05 28.5 L33.25 32.25 29.4 34.45 31.45 28.5 36.05 28.5" fill="#372d2d" fill-rule="evenodd" stroke="none"/>
      <path d="M10.2 15.75 Q13.25 14.6 16.25 15.75 14.2 17.85 13.5 20.9 10.85 19.35 10.2 15.75" fill="#372d2d" fill-rule="evenodd" stroke="none"/>
      <path d="M14.65 12.05 Q17.8 12.55 19.85 15.05 17.05 15.85 14.9 18.15 13.4 15.45 14.65 12.05" fill="#372d2d" fill-rule="evenodd" stroke="none"/>
      <path d="M21.35 8.4 Q24.4 10.85 25.0 14.7 L18.0 14.95 Q18.0 11.25 21.35 8.4" fill="#372d2d" fill-rule="evenodd" stroke="none"/>
      <path d="M32.4 15.0 Q29.35 13.85 26.35 15.0 28.4 17.1 29.1 20.15 31.75 18.6 32.4 15.0" fill="#372d2d" fill-rule="evenodd" stroke="none"/>
      <path d="M27.95 11.3 Q24.8 11.8 22.75 14.3 25.55 15.1 27.7 17.4 29.2 14.7 27.95 11.3" fill="#372d2d" fill-rule="evenodd" stroke="none"/>
      <path d="M10.2 26.65 Q13.25 27.8 16.25 26.65 14.2 24.55 13.5 21.5 10.85 23.05 10.2 26.65" fill="#372d2d" fill-rule="evenodd" stroke="none"/>
      <path d="M14.65 30.35 Q17.8 29.85 19.85 27.35 17.05 26.55 14.9 24.25 13.4 26.95 14.65 30.35" fill="#372d2d" fill-rule="evenodd" stroke="none"/>
      <path d="M33.5 26.65 Q30.45 27.8 27.45 26.65 29.5 24.55 30.2 21.5 32.85 23.05 33.5 26.65" fill="#372d2d" fill-rule="evenodd" stroke="none"/>
      <path d="M29.05 30.35 Q25.9 29.85 23.85 27.35 26.65 26.55 28.8 24.25 30.3 26.95 29.05 30.35" fill="#372d2d" fill-rule="evenodd" stroke="none"/>
      <path d="M36.05 17.1 Q34.2 22.4 30.15 23.6 30.3 20.85 28.95 18.5 31.8 17.55 36.05 17.1" fill="#372d2d" fill-rule="evenodd" stroke="none"/>
      <path d="M7.95 18.0 Q9.8 23.3 13.85 24.5 13.7 21.75 15.05 19.4 12.2 18.45 7.95 18.0" fill="#372d2d" fill-rule="evenodd" stroke="none"/>
    </g>
    <linearGradient gradientTransform="matrix(0.0, -0.0173, -0.0173, 0.0, 22.0, 18.5)" gradientUnits="userSpaceOnUse" id="gradient0" spreadMethod="pad" x1="-819.2" x2="819.2">
      <stop offset="0.011764705882352941" stop-color="#c4bebb"/>
      <stop offset="1.0" stop-color="#9f8a82"/>
    </linearGradient>
    <g id="shape1" transform="matrix(1.0, 0.0, 0.0, 1.0, 0.45, -0.4)">
      <path d="M33.8 10.15 Q28.7 5.05 21.55 5.05 14.4 5.05 9.3 10.15 4.25 15.2 4.25 22.4 4.25 29.6 9.3 34.65 14.4 39.75 21.55 39.75 28.75 39.75 33.8 34.65 38.8 29.6 38.8 22.4 38.8 15.2 33.8 10.15 M1.75 2.65 Q4.0 0.4 7.1 0.4 L35.95 0.4 Q39.1 0.4 41.3 2.65 43.55 4.9 43.55 8.0 L43.55 36.8 Q43.55 39.95 41.3 42.2 39.1 44.4 35.95 44.4 L7.1 44.4 Q4.0 44.4 1.75 42.2 -0.45 39.95 -0.45 36.8 L-0.45 8.0 Q-0.45 4.9 1.75 2.65" fill="url(#gradient1)" fill-rule="evenodd" stroke="none"/>
      <path d="M21.5 5.95 Q14.55 6.0 9.8 10.85 4.85 15.7 4.85 22.6 4.85 29.5 9.8 34.45 14.55 39.25 21.5 39.25 28.3 39.25 33.2 34.45 38.15 29.5 38.15 22.6 38.15 15.7 33.2 10.85 28.35 6.0 21.5 5.95 M8.0 9.15 Q13.6 3.55 21.5 3.55 29.35 3.55 34.9 9.15 40.5 14.7 40.5 22.6 40.5 30.5 34.9 36.05 29.35 41.6 21.5 41.6 13.6 41.6 8.0 36.05 2.45 30.5 2.45 22.6 2.45 14.7 8.0 9.15" fill="url(#gradient2)" fill-rule="evenodd" stroke="none"/>
    </g>
    <linearGradient gradientTransform="matrix(0.0, -0.0275, -0.044, 0.0, 20.45, 22.55)" gradientUnits="userSpaceOnUse" id="gradient1" spreadMethod="pad" x1="-819.2" x2="819.2">
      <stop offset="0.0196078431372549" stop-color="#905a3d"/>
      <stop offset="0.9764705882352941" stop-color="#6a412d"/>
    </linearGradient>
    <linearGradient gradientTransform="matrix(0.0, -0.0168, -0.0168, 0.0, 21.45, 27.2)" gradientUnits="userSpaceOnUse" id="gradient2" spreadMethod="pad" x1="-819.2" x2="819.2">
      <stop offset="0.0196078431372549" stop-color="#a3704d"/>
      <stop offset="0.9803921568627451" stop-color="#492d20"/>
    </linearGradient>
    <g id="sprite1" transform="matrix(1.0, 0.0, 0.0, 1.0, 0.2, 0.0)">
      <use height="8.6" transform="matrix(1.0, 0.0, 0.0, 1.0, -0.2, 0.0)" width="35.05" xlink:href="#shape2"/>
    </g>
    <g id="shape2" transform="matrix(1.0, 0.0, 0.0, 1.0, 0.2, 0.0)">
      <path d="M34.85 8.6 Q34.8 6.95 34.4 5.7 33.0 1.3 27.2 1.3 L7.45 1.3 Q0.05 1.3 -0.2 8.5 L-0.2 7.65 Q-0.2 0.0 7.45 0.0 L27.2 0.0 Q33.0 0.0 34.4 4.4 34.85 5.8 34.85 7.65 L34.85 8.6" fill="#e7deda" fill-rule="evenodd" stroke="none"/>
    </g>
    <g id="sprite2" transform="matrix(1.0, 0.0, 0.0, 1.0, 0.0, 0.0)">
      <use height="20.15" transform="matrix(1.0, 0.0, 0.0, 1.0, 0.0, 0.0)" width="28.2" xlink:href="#shape3"/>
    </g>
    <g id="shape3" transform="matrix(1.0, 0.0, 0.0, 1.0, 0.0, 0.0)">
      <path d="M27.65 18.45 L27.4 18.95 Q26.2 20.8 23.4 19.8 19.6 18.5 17.35 14.05 14.8 9.1 9.75 7.4 4.1 5.65 0.0 10.3 1.0 6.85 3.7 4.15 7.2 0.65 11.9 0.05 L14.8 0.05 18.4 0.65 Q21.55 1.65 24.05 4.15 28.2 8.3 28.2 14.25 28.2 16.45 27.65 18.45" fill="#ffffff" fill-opacity="0.19607843" fill-rule="evenodd" stroke="none"/>
    </g>
    <g id="shape4" transform="matrix(1.0, 0.0, 0.0, 1.0, -1.35, -4.5)">
      <path d="M15.85 40.85 Q12.35 39.85 9.15 38.2 10.4 34.95 12.8 34.45 13.55 38.1 15.85 40.85 M29.8 34.45 Q32.2 34.95 33.45 38.25 30.25 40.0 26.9 40.85 28.55 38.85 29.35 36.25 L29.8 34.45" fill="url(#gradient3)" fill-rule="evenodd" stroke="none"/>
      <path d="M12.8 34.45 Q14.3 37.45 17.45 38.9 L15.85 40.85 Q13.55 38.1 12.8 34.45 M26.9 40.85 L25.15 38.9 Q28.3 37.45 29.8 34.45 L29.35 36.25 Q28.55 38.85 26.9 40.85" fill="#6d4a34" fill-rule="evenodd" stroke="none"/>
      <path d="M31.75 14.55 Q31.25 10.15 28.65 7.45 L30.4 5.65 30.6 6.2 31.1 7.85 Q31.85 11.3 31.75 14.55 M11.35 14.55 Q11.15 10.25 12.7 5.65 L14.45 7.45 Q11.85 10.15 11.35 14.55" fill="#492d20" fill-rule="evenodd" stroke="none"/>
      <path d="M30.6 6.2 L30.05 4.5 Q33.45 6.2 36.35 9.15 L36.4 9.3 Q35.6 13.35 31.75 14.55 31.85 11.3 31.1 7.85 L30.6 6.2 M11.35 14.55 Q7.5 13.35 6.7 9.35 L6.95 9.15 Q9.7 6.3 13.0 4.65 L12.7 5.65 Q11.15 10.25 11.35 14.55" fill="url(#gradient4)" fill-rule="evenodd" stroke="none"/>
      <path d="M1.45 33.9 L1.45 36.6 Q1.45 37.6 2.0 38.25 2.5 38.85 3.4 38.85 4.2 38.85 4.85 38.25 5.4 37.6 5.4 36.6 L5.4 35.35 M41.8 33.9 L41.8 36.6 Q41.8 37.6 41.2 38.25 40.7 38.85 39.85 38.85 39.0 38.85 38.4 38.25 37.8 37.6 37.8 36.6 L37.8 35.35" fill="none" stroke="#6a402d" stroke-linecap="round" stroke-linejoin="round" stroke-width="0.25"/>
      <path d="M4.15 5.85 Q4.45 6.0 4.6 6.6 4.95 7.45 4.95 8.7 4.95 9.9 4.6 10.75 L4.15 11.5 3.6 10.75 Q3.35 9.9 3.35 8.7 3.35 7.45 3.6 6.6 L4.15 5.85 M39.0 5.85 L39.55 6.6 39.85 8.7 39.55 10.75 39.0 11.5 38.55 10.75 Q38.2 9.9 38.2 8.7 38.2 7.45 38.55 6.6 L39.0 5.85" fill="#331d16" fill-rule="evenodd" stroke="none"/>
      <path d="M4.15 5.85 L3.6 6.6 Q3.35 7.45 3.35 8.7 3.35 9.9 3.6 10.75 L4.15 11.5 3.8 11.65 Q3.3 11.65 2.95 10.75 2.65 9.9 2.65 8.7 2.65 7.45 2.95 6.6 3.3 5.75 3.8 5.75 L4.15 5.85 M39.0 11.5 L39.55 10.75 39.85 8.7 39.55 6.6 39.0 5.85 39.35 5.75 Q39.9 5.75 40.25 6.6 L40.5 8.7 40.25 10.75 Q39.9 11.65 39.35 11.65 L39.0 11.5" fill="#1a0d09" fill-rule="evenodd" stroke="none"/>
      <path d="M4.15 11.5 L4.6 10.75 Q4.95 9.9 4.95 8.7 4.95 7.45 4.6 6.6 4.45 6.0 4.15 5.85 L3.8 5.75 Q3.3 5.75 2.95 6.6 2.65 7.45 2.65 8.7 2.65 9.9 2.95 10.75 3.3 11.65 3.8 11.65 L4.15 11.5 M39.0 11.5 L39.35 11.65 Q39.9 11.65 40.25 10.75 L40.5 8.7 40.25 6.6 Q39.9 5.75 39.35 5.75 L39.0 5.85 38.55 6.6 Q38.2 7.45 38.2 8.7 38.2 9.9 38.55 10.75 L39.0 11.5" fill="none" stroke="#6a402d" stroke-linecap="round" stroke-linejoin="round" stroke-width="0.05"/>
      <path d="M31.5 44.35 L11.7 44.35 Q12.45 44.0 14.05 43.6 L21.6 43.05 29.1 43.6 31.5 44.35" fill="#6c432e" fill-rule="evenodd" stroke="none"/>
    </g>
    <linearGradient gradientTransform="matrix(0.0, -0.0275, -0.0439, 0.0, 20.25, 22.4)" gradientUnits="userSpaceOnUse" id="gradient3" spreadMethod="pad" x1="-819.2" x2="819.2">
      <stop offset="0.0196078431372549" stop-color="#905a3d"/>
      <stop offset="0.9764705882352941" stop-color="#6a412d"/>
    </linearGradient>
    <linearGradient gradientTransform="matrix(0.0, -0.0275, -0.0439, 0.0, 20.25, 22.4)" gradientUnits="userSpaceOnUse" id="gradient4" spreadMethod="pad" x1="-819.2" x2="819.2">
      <stop offset="0.0196078431372549" stop-color="#905a3d"/>
      <stop offset="0.9764705882352941" stop-color="#6a412d"/>
    </linearGradient>
  </defs>
</svg>
