<?xml version="1.0" encoding="UTF-8" standalone="no"?>
<svg xmlns:xlink="http://www.w3.org/1999/xlink" height="44.85px" width="44.3px" xmlns="http://www.w3.org/2000/svg">
  <g transform="matrix(1.0, 0.0, 0.0, 1.0, 0.0, 0.0)">
    <use height="44.05" transform="matrix(1.0, 0.0, 0.0, 1.0, 0.3, 0.8)" width="44.0" xlink:href="#sprite0"/>
    <use height="37.1" transform="matrix(1.0, 0.0, 0.0, 1.0, 2.35, 3.6)" width="37.2" xlink:href="#sprite2"/>
    <use height="41.95" transform="matrix(1.0, 0.0, 0.0, 1.0, 2.35, 0.0)" width="38.0" xlink:href="#shape2"/>
    <use height="0.0" transform="matrix(1.2125, 0.0, 0.0, 1.2137, 0.5, 1.8)" width="0.0" xlink:href="#sprite1"/>
    <use height="20.15" transform="matrix(1.1594, 0.0, 0.0, 1.1605, 5.1, 6.35)" width="28.2" xlink:href="#sprite3"/>
    <use height="13.9" transform="matrix(1.0, 0.0, 0.0, 1.0, 0.0, 30.75)" width="12.15" xlink:href="#sprite4"/>
    <use height="13.9" transform="matrix(-1.0, 0.0, 0.0, 1.0, 44.3, 30.8)" width="12.15" xlink:href="#sprite4"/>
  </g>
  <defs>
    <g id="sprite0" transform="matrix(1.0, 0.0, 0.0, 1.0, 22.0, 22.0)">
      <use height="44.05" transform="matrix(1.0, 0.0, 0.0, 1.0, -22.0, -22.0)" width="44.0" xlink:href="#shape0"/>
      <use height="0.0" transform="matrix(1.2077, 0.0, 0.0, 1.2065, -20.8, -21.2)" width="0.0" xlink:href="#sprite1"/>
    </g>
    <g id="shape0" transform="matrix(1.0, 0.0, 0.0, 1.0, 22.0, 22.0)">
      <path d="M19.8 -19.7 Q22.0 -17.5 22.0 -14.4 L22.0 14.45 Q22.0 17.65 19.8 19.85 17.6 22.05 14.4 22.05 L-14.4 22.05 Q-17.55 22.05 -19.75 19.85 -22.0 17.65 -22.0 14.45 L-22.0 -14.4 Q-22.0 -17.5 -19.75 -19.7 -17.55 -22.0 -14.4 -22.0 L14.4 -22.0 Q17.55 -22.0 19.8 -19.7" fill="url(#gradient0)" fill-rule="evenodd" stroke="none"/>
    </g>
    <linearGradient gradientTransform="matrix(0.0, -0.0259, 0.0269, 0.0, -0.05, 0.05)" gradientUnits="userSpaceOnUse" id="gradient0" spreadMethod="pad" x1="-819.2" x2="819.2">
      <stop offset="0.011764705882352941" stop-color="#718b30"/>
      <stop offset="1.0" stop-color="#4e5e09"/>
    </linearGradient>
    <g id="sprite2" transform="matrix(1.0, 0.0, 0.0, 1.0, 18.6, 18.55)">
      <use height="37.1" transform="matrix(1.0, 0.0, 0.0, 1.0, -18.6, -18.55)" width="37.2" xlink:href="#shape1"/>
    </g>
    <g id="shape1" transform="matrix(1.0, 0.0, 0.0, 1.0, 18.6, 18.55)">
      <path d="M13.2 -13.1 Q18.6 -7.65 18.6 0.0 18.6 7.7 13.2 13.15 7.75 18.55 0.05 18.55 -7.7 18.55 -13.15 13.15 -18.6 7.7 -18.6 0.0 -18.6 -7.7 -13.15 -13.1 -7.7 -18.55 0.05 -18.55 7.75 -18.55 13.2 -13.1" fill="url(#gradient1)" fill-rule="evenodd" stroke="none"/>
    </g>
    <linearGradient gradientTransform="matrix(0.0, -0.0173, -0.0173, 0.0, 0.05, -3.55)" gradientUnits="userSpaceOnUse" id="gradient1" spreadMethod="pad" x1="-819.2" x2="819.2">
      <stop offset="0.011764705882352941" stop-color="#c4bebb"/>
      <stop offset="1.0" stop-color="#9f8a82"/>
    </linearGradient>
    <g id="shape2" transform="matrix(1.0, 0.0, 0.0, 1.0, -2.35, 0.0)">
      <path d="M24.55 17.7 Q24.45 19.9 25.1 22.8 L25.15 22.85 24.7 22.85 24.85 24.95 26.95 24.8 26.9 23.75 31.45 26.15 31.6 28.15 33.7 28.0 33.7 27.7 33.9 28.85 33.9 28.95 32.7 29.0 32.8 31.1 33.5 31.05 33.05 31.85 31.85 31.9 31.9 32.75 32.95 32.7 33.1 34.85 30.95 34.95 30.8 32.8 30.95 32.8 30.95 32.0 28.75 32.1 28.8 32.9 27.35 31.3 28.7 31.2 28.6 29.1 26.45 29.2 26.55 30.5 24.3 28.1 24.45 28.1 24.3 26.0 22.15 26.05 22.2 26.3 14.95 22.9 Q11.5 19.95 11.45 18.2 L9.9 17.05 8.1 15.95 8.1 14.85 Q8.6 14.25 9.0 14.2 L10.0 14.15 Q11.1 14.15 12.55 15.1 L14.05 16.3 15.6 11.8 Q16.2 11.5 16.75 12.0 17.3 12.45 17.25 13.1 L16.95 14.25 16.6 14.8 16.9 15.65 16.95 15.7 16.95 15.65 17.55 15.7 19.15 15.5 Q19.8 15.5 19.8 16.35 19.8 17.65 18.35 17.65 L17.2 17.45 17.25 17.85 Q18.35 18.35 18.85 19.1 L20.0 19.8 Q20.55 20.0 21.2 19.4 21.9 18.85 21.6 18.0 21.35 17.15 21.45 15.95 21.5 14.8 22.55 14.8 22.95 14.8 24.55 17.7 M22.0 22.5 L19.85 22.6 20.0 24.7 22.15 24.65 22.0 22.5 M12.7 11.65 L12.7 11.5 13.0 11.5 12.7 11.65 M28.05 20.4 L30.2 20.3 30.35 22.4 28.2 22.5 28.05 20.4 M14.3 0.0 L14.35 0.0 14.35 0.1 14.3 0.0 M12.05 13.0 L12.0 13.25 12.0 13.0 12.05 13.0 M17.2 28.5 L17.55 28.5 Q17.4 28.55 17.2 28.7 L17.2 28.5 M37.5 27.65 L37.65 29.75 35.5 29.9 35.4 27.75 37.5 27.65 M30.55 26.0 L28.4 26.05 28.55 28.2 30.7 28.1 30.55 26.0 M35.1 33.85 L34.95 31.75 37.1 31.6 37.2 33.7 35.1 33.85 M31.65 29.05 L29.55 29.15 29.65 31.3 31.8 31.15 31.65 29.05 M25.55 25.6 L25.65 27.75 27.8 27.6 27.65 25.5 25.55 25.6" fill="#372d2d" fill-rule="evenodd" stroke="none"/>
      <path d="M33.2 11.15 Q28.25 6.3 21.35 6.2 14.45 6.3 9.6 11.15 4.7 15.95 4.65 22.85 4.7 29.85 9.6 34.7 14.45 39.6 21.35 39.6 28.25 39.6 33.2 34.7 38.0 29.85 38.0 22.85 38.0 15.95 33.2 11.15 M40.35 22.85 Q40.35 30.75 34.75 36.3 29.25 41.95 21.35 41.95 13.4 41.95 7.9 36.3 2.35 30.75 2.35 22.85 2.35 14.9 7.9 9.4 13.4 3.85 21.35 3.85 29.25 3.85 34.75 9.4 40.35 14.9 40.35 22.85" fill="url(#gradient2)" fill-rule="evenodd" stroke="none"/>
    </g>
    <linearGradient gradientTransform="matrix(1.0E-4, 0.0224, -0.0232, 1.0E-4, 21.4, 23.15)" gradientUnits="userSpaceOnUse" id="gradient2" spreadMethod="pad" x1="-819.2" x2="819.2">
      <stop offset="0.011764705882352941" stop-color="#516537"/>
      <stop offset="1.0" stop-color="#a8ce99"/>
    </linearGradient>
    <g id="sprite3" transform="matrix(1.0, 0.0, 0.0, 1.0, 0.0, 0.0)">
      <use height="20.15" transform="matrix(1.0, 0.0, 0.0, 1.0, 0.0, 0.0)" width="28.2" xlink:href="#shape3"/>
    </g>
    <g id="shape3" transform="matrix(1.0, 0.0, 0.0, 1.0, 0.0, 0.0)">
      <path d="M27.65 18.45 L27.4 18.95 Q26.2 20.8 23.4 19.8 19.6 18.5 17.35 14.05 14.8 9.1 9.75 7.4 4.1 5.65 0.0 10.3 1.0 6.85 3.7 4.15 7.2 0.65 11.9 0.05 L14.8 0.05 18.4 0.65 Q21.55 1.65 24.05 4.15 28.2 8.3 28.2 14.25 28.2 16.45 27.65 18.45" fill="#ffffff" fill-opacity="0.19607843" fill-rule="evenodd" stroke="none"/>
    </g>
    <g id="sprite4" transform="matrix(1.0, 0.0, 0.0, 1.0, 6.1, 6.95)">
      <use height="13.9" transform="matrix(1.0, 0.0, 0.0, 1.0, -6.1, -6.95)" width="12.15" xlink:href="#shape4"/>
    </g>
    <g id="shape4" transform="matrix(1.0, 0.0, 0.0, 1.0, 6.1, 6.95)">
      <path d="M6.0 -6.55 L0.6 -2.25 -6.1 -1.6 -5.5 -2.4 0.3 -3.1 5.25 -6.95 6.0 -6.55" fill="#c4cca2" fill-rule="evenodd" stroke="none"/>
      <path d="M6.05 -6.5 L6.0 -6.55 6.05 -6.55 6.05 -6.5" fill="#8c8175" fill-rule="evenodd" stroke="none"/>
      <path d="M6.0 -6.55 L6.05 -6.5 3.2 -0.25 4.2 6.65 4.2 6.7 0.1 1.05 -6.1 -1.6 0.6 -2.25 6.0 -6.55" fill="#769418" fill-rule="evenodd" stroke="none"/>
      <path d="M-6.1 -1.6 L0.1 1.05 4.2 6.7 3.6 6.95 -0.6 1.45 -5.95 -0.75 -6.1 -1.6" fill="#49570f" fill-rule="evenodd" stroke="none"/>
    </g>
  </defs>
</svg>
