<?xml version="1.0" encoding="UTF-8" standalone="no"?>
<svg xmlns:xlink="http://www.w3.org/1999/xlink" height="66.0px" width="66.0px" xmlns="http://www.w3.org/2000/svg">
  <g transform="matrix(1.5, 0.0, 0.0, 1.5, 0.0, 0.0)">
    <use height="37.1" transform="matrix(1.0, 0.0, 0.0, 1.0, 3.4, 3.5)" width="37.2" xlink:href="#shape0"/>
    <use height="20.15" transform="matrix(1.1594, 0.0, 0.0, 1.1594, 5.8, 5.25)" width="28.2" xlink:href="#sprite0"/>
    <use height="44.0" transform="matrix(1.0, 0.0, 0.0, 1.0, 0.0, 0.0)" width="44.0" xlink:href="#shape2"/>
    <use height="8.6" transform="matrix(1.2125, 0.0, 0.0, 1.2125, 0.8575, 0.95)" width="35.05" xlink:href="#sprite1"/>
    <use height="40.5" transform="matrix(1.0, 0.0, 0.0, 1.0, 0.0, 3.5)" width="43.95" xlink:href="#shape4"/>
    <use height="20.15" transform="matrix(1.1594, 0.0, 0.0, 1.1594, 5.8, 5.25)" width="28.2" xlink:href="#sprite0"/>
    <use height="44.0" transform="matrix(1.0, 0.0, 0.0, 1.0, 0.0, 0.0)" width="44.0" xlink:href="#shape5"/>
    <use height="8.6" transform="matrix(1.2125, 0.0, 0.0, 1.2125, 0.8575, 0.95)" width="35.05" xlink:href="#sprite1"/>
    <use height="17.95" transform="matrix(1.0, 0.0, 0.0, 1.0, 0.0, 26.05)" width="43.95" xlink:href="#shape6"/>
  </g>
  <defs>
    <g id="shape0" transform="matrix(1.0, 0.0, 0.0, 1.0, -3.4, -3.5)">
      <path d="M3.4 22.05 Q3.4 14.35 8.85 8.95 14.3 3.5 22.05 3.5 29.75 3.5 35.2 8.95 40.6 14.4 40.6 22.05 40.6 29.75 35.2 35.2 29.75 40.6 22.05 40.6 14.3 40.6 8.85 35.2 3.4 29.75 3.4 22.05" fill="url(#gradient0)" fill-rule="evenodd" stroke="none"/>
      <path d="M21.9 11.45 L21.9 11.7 Q28.8 11.7 35.8 17.8 26.65 19.95 25.9 22.1 L31.85 22.1 Q27.05 24.9 25.95 27.4 L29.7 27.4 Q25.7 28.75 24.25 31.95 L26.75 31.95 Q23.25 33.15 21.9 35.8 L21.7 36.0 21.7 35.55 Q20.35 32.95 16.85 31.75 L19.35 31.75 Q17.9 28.6 13.9 27.25 L17.65 27.25 Q16.55 24.7 11.7 21.95 L17.7 21.95 Q16.95 19.75 7.8 17.6 14.85 11.4 21.9 11.45" fill="#664411" fill-rule="evenodd" stroke="none"/>
    </g>
    <linearGradient gradientTransform="matrix(0.0, -0.017, -0.0173, 0.0, 21.0, 26.95)" gradientUnits="userSpaceOnUse" id="gradient0" spreadMethod="pad" x1="-819.2" x2="819.2">
      <stop offset="0.011764705882352941" stop-color="#dad67d"/>
      <stop offset="1.0" stop-color="#cfa451"/>
    </linearGradient>
    <g id="sprite0" transform="matrix(1.0, 0.0, 0.0, 1.0, 0.0, 0.0)">
      <use height="20.15" transform="matrix(1.0, 0.0, 0.0, 1.0, 0.0, 0.0)" width="28.2" xlink:href="#shape1"/>
    </g>
    <g id="shape1" transform="matrix(1.0, 0.0, 0.0, 1.0, 0.0, 0.0)">
      <path d="M27.65 18.45 L27.4 18.95 Q26.2 20.8 23.4 19.8 19.6 18.5 17.35 14.05 14.8 9.1 9.75 7.4 4.1 5.65 0.0 10.3 1.0 6.85 3.7 4.15 7.2 0.65 11.9 0.05 L14.8 0.05 18.4 0.65 Q21.55 1.65 24.05 4.15 28.2 8.3 28.2 14.25 28.2 16.45 27.65 18.45" fill="#ffffff" fill-opacity="0.19607843" fill-rule="evenodd" stroke="none"/>
    </g>
    <g id="shape2" transform="matrix(1.0, 0.0, 0.0, 1.0, 0.0, 0.0)">
      <path d="M44.0 7.6 L44.0 36.4 Q44.0 39.6 41.8 41.8 39.6 44.0 36.4 44.0 L7.6 44.0 Q4.45 44.0 2.25 41.8 0.0 39.6 0.0 36.4 L0.0 7.6 Q0.0 4.5 2.25 2.3 4.45 0.0 7.6 0.0 L36.4 0.0 Q39.55 0.0 41.8 2.3 44.0 4.5 44.0 7.6 M40.85 22.05 Q40.85 14.1 35.25 8.6 29.75 3.05 21.85 3.05 13.9 3.05 8.4 8.6 2.85 14.1 2.85 22.05 2.85 29.95 8.4 35.45 13.9 41.1 21.85 41.1 29.75 41.1 35.25 35.45 40.85 29.95 40.85 22.05" fill="url(#gradient1)" fill-rule="evenodd" stroke="none"/>
      <path d="M40.85 22.05 Q40.85 29.95 35.25 35.45 29.75 41.1 21.85 41.1 13.9 41.1 8.4 35.45 2.85 29.95 2.85 22.05 2.85 14.1 8.4 8.6 13.9 3.05 21.85 3.05 29.75 3.05 35.25 8.6 40.85 14.1 40.85 22.05 M33.7 10.35 Q28.75 5.45 21.85 5.4 14.95 5.45 10.1 10.35 5.2 15.15 5.15 22.05 5.2 29.0 10.1 33.85 14.95 38.75 21.85 38.75 28.75 38.75 33.7 33.85 38.5 29.0 38.5 22.05 38.5 15.15 33.7 10.35" fill="url(#gradient2)" fill-rule="evenodd" stroke="none"/>
    </g>
    <linearGradient gradientTransform="matrix(0.0, -0.0258, -0.0551, 0.0, 21.85, 21.85)" gradientUnits="userSpaceOnUse" id="gradient1" spreadMethod="pad" x1="-819.2" x2="819.2">
      <stop offset="0.011764705882352941" stop-color="#c79829"/>
      <stop offset="1.0" stop-color="#be7d1e"/>
    </linearGradient>
    <linearGradient gradientTransform="matrix(1.0E-4, 0.0223, -0.0232, 1.0E-4, 21.9, 22.3)" gradientUnits="userSpaceOnUse" id="gradient2" spreadMethod="pad" x1="-819.2" x2="819.2">
      <stop offset="0.011764705882352941" stop-color="#8d5910"/>
      <stop offset="1.0" stop-color="#d9d597"/>
    </linearGradient>
    <g id="sprite1" transform="matrix(1.0, 0.0, 0.0, 1.0, 0.2, 0.0)">
      <use height="8.6" transform="matrix(1.0, 0.0, 0.0, 1.0, -0.2, 0.0)" width="35.05" xlink:href="#shape3"/>
    </g>
    <g id="shape3" transform="matrix(1.0, 0.0, 0.0, 1.0, 0.2, 0.0)">
      <path d="M34.4 4.4 Q34.85 5.8 34.85 7.65 L34.85 8.6 Q34.8 6.95 34.4 5.7 33.0 1.3 27.2 1.3 L7.45 1.3 Q0.05 1.3 -0.2 8.5 L-0.2 7.65 Q-0.2 0.0 7.45 0.0 L27.2 0.0 Q33.0 0.0 34.4 4.4" fill="#e7deda" fill-rule="evenodd" stroke="none"/>
    </g>
    <g id="shape4" transform="matrix(1.0, 0.0, 0.0, 1.0, 0.0, -3.5)">
      <path d="M38.85 27.95 L39.3 26.8 39.7 26.3 Q40.05 26.05 40.4 26.05 L41.05 26.3 41.5 26.85 41.9 27.95 43.05 27.95 43.75 28.2 43.95 28.35 43.95 29.95 43.7 30.1 42.85 30.75 43.25 32.1 43.25 32.8 42.8 33.35 42.1 33.55 41.45 33.3 41.2 33.15 41.15 35.7 43.55 36.65 Q43.75 36.7 43.95 36.9 L43.6 38.8 43.4 38.85 40.85 39.5 40.65 42.45 40.5 42.75 39.25 43.5 39.0 43.45 38.5 43.0 37.0 40.45 34.2 41.2 33.85 41.2 33.0 41.8 33.4 43.15 33.4 43.85 33.3 44.0 31.15 44.0 30.55 43.6 29.9 44.0 27.7 44.0 27.65 43.8 27.65 43.1 28.05 41.8 27.15 41.2 26.75 40.6 Q26.6 40.2 26.75 39.85 L27.15 39.25 27.85 39.05 29.0 39.05 29.45 37.9 Q29.6 37.55 29.85 37.35 L30.55 37.15 31.2 37.35 31.65 37.95 32.05 39.05 33.2 39.05 34.85 37.05 33.55 34.85 33.4 34.15 33.7 33.45 Q33.9 33.2 34.25 33.15 L34.95 33.2 37.35 34.15 38.05 33.4 37.9 33.3 37.5 32.7 37.5 32.0 37.9 30.75 37.0 30.1 36.6 29.55 Q36.45 29.15 36.6 28.8 L37.0 28.2 Q37.3 27.95 37.7 27.95 L38.85 27.95 M30.65 38.7 L30.4 38.7 29.8 40.2 28.2 40.2 28.1 40.45 29.45 41.35 28.85 43.1 29.05 43.2 30.55 42.15 31.95 43.2 32.2 43.1 31.65 41.35 32.8 40.5 32.75 40.2 31.25 40.2 30.65 38.7 M37.7 35.5 L34.55 34.25 36.3 37.2 33.9 40.0 37.55 39.1 39.5 42.35 39.75 38.6 43.15 37.7 40.0 36.45 40.05 33.0 37.7 35.5 M39.65 29.15 L38.05 29.15 37.95 29.35 39.3 30.3 38.75 32.0 38.9 32.15 40.4 31.1 41.8 32.15 42.05 32.0 41.5 30.3 42.8 29.35 42.65 29.15 41.1 29.15 40.5 27.6 40.25 27.6 39.65 29.15" fill="url(#gradient3)" fill-rule="evenodd" stroke="none"/>
      <path d="M42.2 29.75 L41.5 30.3 41.5 30.9 41.85 32.2 40.4 31.1 38.9 32.2 39.3 30.9 39.3 30.3 38.55 29.75 39.65 29.75 40.4 27.85 41.1 29.75 42.2 29.75 M40.0 36.45 L40.0 37.05 42.15 38.0 39.75 38.6 39.5 42.35 37.55 39.1 34.55 39.85 36.3 37.8 36.3 37.2 35.0 35.1 37.7 36.15 40.05 33.65 40.0 36.45 M32.35 40.85 L31.65 41.35 31.65 42.0 32.0 43.25 30.55 42.15 29.05 43.25 29.45 42.0 29.45 41.35 28.7 40.85 29.8 40.85 30.55 38.9 31.25 40.85 32.35 40.85" fill="#815815" fill-rule="evenodd" stroke="none"/>
      <path d="M38.55 29.75 L37.7 29.15 39.65 29.15 40.4 27.2 41.1 29.15 43.05 29.15 42.2 29.75 41.1 29.75 40.4 27.85 39.65 29.75 38.55 29.75 M41.5 30.3 L42.15 32.35 41.85 32.2 41.5 30.9 41.5 30.3 M38.9 32.2 L38.6 32.35 39.3 30.3 39.3 30.9 38.9 32.2 M40.0 36.45 L43.15 37.7 42.15 38.0 40.0 37.05 40.0 36.45 M34.55 39.85 L33.9 40.0 36.3 37.2 36.3 37.8 34.55 39.85 M35.0 35.1 L34.55 34.25 37.7 35.5 40.05 33.0 40.05 33.65 37.7 36.15 35.0 35.1 M28.7 40.85 L27.85 40.2 29.8 40.2 30.55 38.3 31.25 40.2 33.2 40.2 32.35 40.85 31.25 40.85 30.55 38.9 29.8 40.85 28.7 40.85 M31.65 41.35 L32.3 43.45 32.0 43.25 31.65 42.0 31.65 41.35 M29.05 43.25 L28.75 43.45 29.45 41.35 29.45 42.0 29.05 43.25" fill="#674512" fill-rule="evenodd" stroke="none"/>
      <path d="M5.1 27.95 L6.25 27.95 6.95 28.2 7.35 28.8 7.35 29.55 6.95 30.1 6.05 30.75 6.45 32.0 6.45 32.7 6.05 33.3 5.9 33.4 6.6 34.15 9.0 33.2 9.7 33.15 10.25 33.45 10.55 34.15 10.4 34.85 9.1 37.05 10.75 39.05 11.9 39.05 12.3 37.95 Q12.4 37.55 12.75 37.35 L13.4 37.15 14.1 37.35 14.5 37.9 14.95 39.05 16.1 39.05 16.8 39.25 17.2 39.85 17.2 40.6 16.8 41.2 15.9 41.8 16.3 43.1 16.3 43.8 16.25 44.0 14.05 44.0 13.4 43.6 12.8 44.0 10.65 44.0 10.55 43.85 10.55 43.15 10.95 41.8 10.1 41.2 9.75 41.2 6.95 40.45 5.45 43.0 4.95 43.45 4.7 43.5 3.45 42.75 3.3 42.45 3.1 39.5 0.55 38.85 0.35 38.8 0.0 36.9 0.4 36.65 2.8 35.7 2.75 33.15 2.5 33.3 1.85 33.55 Q1.45 33.55 1.15 33.35 L0.7 32.8 0.7 32.1 1.1 30.75 0.25 30.1 0.0 29.95 0.0 28.35 0.2 28.2 0.9 27.95 2.05 27.95 2.45 26.85 Q2.55 26.45 2.9 26.3 L3.55 26.05 Q3.9 26.05 4.25 26.3 L4.65 26.8 5.1 27.95 M4.3 29.15 L3.7 27.6 3.45 27.6 2.85 29.15 1.3 29.15 1.15 29.35 2.45 30.3 1.9 32.0 2.15 32.15 3.55 31.1 5.05 32.15 5.2 32.0 4.65 30.3 6.0 29.35 5.9 29.15 4.3 29.15 M6.25 35.5 L3.9 33.0 3.95 36.45 0.8 37.7 4.2 38.6 4.45 42.35 6.4 39.1 10.05 40.0 7.65 37.2 9.4 34.25 6.25 35.5 M13.3 38.7 L12.7 40.2 11.2 40.2 11.15 40.5 12.3 41.35 11.75 43.1 12.0 43.2 13.4 42.15 14.9 43.2 15.1 43.1 14.5 41.35 15.85 40.45 15.75 40.2 14.15 40.2 13.55 38.7 13.3 38.7" fill="url(#gradient4)" fill-rule="evenodd" stroke="none"/>
      <path d="M1.75 29.75 L0.9 29.15 2.85 29.15 3.55 27.2 4.3 29.15 6.25 29.15 5.4 29.75 4.3 29.75 3.55 27.85 2.85 29.75 1.75 29.75 M4.65 30.3 L5.35 32.35 5.05 32.2 4.65 30.9 4.65 30.3 M2.1 32.2 L1.8 32.35 2.45 30.3 2.45 30.9 2.1 32.2 M3.9 33.65 L3.9 33.0 6.25 35.5 9.4 34.25 8.95 35.1 6.25 36.15 3.9 33.65 M7.65 37.2 L10.05 40.0 9.4 39.85 7.65 37.8 7.65 37.2 M1.8 38.0 L0.8 37.7 3.95 36.45 3.95 37.05 1.8 38.0 M11.6 40.85 L10.75 40.2 12.7 40.2 13.4 38.3 14.15 40.2 16.1 40.2 15.25 40.85 14.15 40.85 13.4 38.9 12.7 40.85 11.6 40.85 M14.5 41.35 L15.2 43.45 14.9 43.25 14.5 42.0 14.5 41.35 M11.95 43.25 L11.65 43.45 12.3 41.35 12.3 42.0 11.95 43.25" fill="#674512" fill-rule="evenodd" stroke="none"/>
      <path d="M1.75 29.75 L2.85 29.75 3.55 27.85 4.3 29.75 5.4 29.75 4.65 30.3 4.65 30.9 5.05 32.2 3.55 31.1 2.1 32.2 2.45 30.9 2.45 30.3 1.75 29.75 M8.95 35.1 L7.65 37.2 7.65 37.8 9.4 39.85 6.4 39.1 4.45 42.35 4.2 38.6 1.8 38.0 3.95 37.05 3.95 36.45 3.9 33.65 6.25 36.15 8.95 35.1 M11.6 40.85 L12.7 40.85 13.4 38.9 14.15 40.85 15.25 40.85 14.5 41.35 14.5 42.0 14.9 43.25 13.4 42.15 11.95 43.25 12.3 42.0 12.3 41.35 11.6 40.85" fill="#815815" fill-rule="evenodd" stroke="none"/>
      <path d="M3.4 22.05 Q3.4 14.35 8.85 8.95 14.3 3.5 22.05 3.5 29.75 3.5 35.2 8.95 40.6 14.4 40.6 22.05 40.6 29.75 35.2 35.2 29.75 40.6 22.05 40.6 14.3 40.6 8.85 35.2 3.4 29.75 3.4 22.05" fill="url(#gradient5)" fill-rule="evenodd" stroke="none"/>
      <path d="M21.5 32.3 L19.15 31.9 18.95 30.0 20.35 29.7 18.9 29.4 18.75 27.6 22.4 27.05 18.65 26.65 18.55 26.1 18.55 25.45 20.5 23.95 20.5 22.7 22.55 22.45 20.5 22.1 20.5 20.4 18.65 20.4 12.3 19.8 12.3 19.6 20.1 18.9 12.3 18.9 12.3 17.85 20.5 17.85 20.5 17.4 20.35 17.4 18.95 16.6 22.6 16.15 17.95 15.6 17.7 15.2 24.6 14.6 17.15 14.05 16.95 12.8 16.95 12.6 22.65 12.2 17.1 11.85 Q17.4 10.35 18.4 9.4 19.85 8.05 21.7 8.05 L22.1 8.05 Q24.0 8.05 25.4 9.4 L25.45 9.4 Q26.8 10.85 26.8 12.8 26.8 14.7 25.45 16.05 L25.4 16.1 23.45 17.4 23.3 17.4 23.3 17.85 27.0 17.85 31.5 17.85 31.5 20.4 27.0 20.4 23.3 20.4 23.3 23.95 25.2 25.45 25.2 26.1 24.65 32.15 24.2 35.9 24.15 36.15 22.35 36.15 22.35 29.8 21.9 29.8 21.45 29.8 21.5 32.3 21.45 36.15 19.65 36.15 19.6 35.9 19.15 32.3 21.5 32.3" fill="#664411" fill-rule="evenodd" stroke="none"/>
    </g>
    <linearGradient gradientTransform="matrix(0.0, -0.0258, -0.0551, 0.0, 21.85, 21.85)" gradientUnits="userSpaceOnUse" id="gradient3" spreadMethod="pad" x1="-819.2" x2="819.2">
      <stop offset="0.011764705882352941" stop-color="#c79829"/>
      <stop offset="1.0" stop-color="#be7d1e"/>
    </linearGradient>
    <linearGradient gradientTransform="matrix(0.0, -0.0258, 0.0551, 0.0, 22.05, 21.85)" gradientUnits="userSpaceOnUse" id="gradient4" spreadMethod="pad" x1="-819.2" x2="819.2">
      <stop offset="0.011764705882352941" stop-color="#c79829"/>
      <stop offset="1.0" stop-color="#be7d1e"/>
    </linearGradient>
    <linearGradient gradientTransform="matrix(0.0056, 0.0, 0.0, 0.0043, -24.55, 41.75)" gradientUnits="userSpaceOnUse" id="gradient5" spreadMethod="pad" x1="-819.2" x2="819.2">
      <stop offset="0.011764705882352941" stop-color="#c79829"/>
      <stop offset="1.0" stop-color="#be7d1e"/>
    </linearGradient>
    <g id="shape5" transform="matrix(1.0, 0.0, 0.0, 1.0, 0.0, 0.0)">
      <path d="M41.8 2.3 Q44.0 4.5 44.0 7.6 L44.0 36.4 Q44.0 39.6 41.8 41.8 39.6 44.0 36.4 44.0 L7.6 44.0 Q4.45 44.0 2.25 41.8 0.0 39.6 0.0 36.4 L0.0 7.6 Q0.0 4.5 2.25 2.3 4.45 0.0 7.6 0.0 L36.4 0.0 Q39.55 0.0 41.8 2.3 M40.85 22.05 Q40.85 14.1 35.25 8.6 29.75 3.05 21.85 3.05 13.9 3.05 8.4 8.6 2.85 14.1 2.85 22.05 2.85 29.95 8.4 35.45 13.9 41.1 21.85 41.1 29.75 41.1 35.25 35.45 40.85 29.95 40.85 22.05" fill="url(#gradient6)" fill-rule="evenodd" stroke="none"/>
      <path d="M40.85 22.05 Q40.85 29.95 35.25 35.45 29.75 41.1 21.85 41.1 13.9 41.1 8.4 35.45 2.85 29.95 2.85 22.05 2.85 14.1 8.4 8.6 13.9 3.05 21.85 3.05 29.75 3.05 35.25 8.6 40.85 14.1 40.85 22.05 M33.7 10.35 Q28.75 5.45 21.85 5.4 14.95 5.45 10.1 10.35 5.2 15.15 5.15 22.05 5.2 29.0 10.1 33.85 14.95 38.75 21.85 38.75 28.75 38.75 33.7 33.85 38.5 29.0 38.5 22.05 38.5 15.15 33.7 10.35" fill="url(#gradient7)" fill-rule="evenodd" stroke="none"/>
    </g>
    <linearGradient gradientTransform="matrix(0.0, -0.0258, -0.0551, 0.0, 21.85, 21.85)" gradientUnits="userSpaceOnUse" id="gradient6" spreadMethod="pad" x1="-819.2" x2="819.2">
      <stop offset="0.011764705882352941" stop-color="#dad67d"/>
      <stop offset="1.0" stop-color="#cfa451"/>
    </linearGradient>
    <linearGradient gradientTransform="matrix(0.0, 0.0059, -0.0232, 0.0, 21.85, 18.4)" gradientUnits="userSpaceOnUse" id="gradient7" spreadMethod="pad" x1="-819.2" x2="819.2">
      <stop offset="0.011764705882352941" stop-color="#8d5910"/>
      <stop offset="1.0" stop-color="#d9d597"/>
    </linearGradient>
    <g id="shape6" transform="matrix(1.0, 0.0, 0.0, 1.0, 0.0, -26.1)">
      <path d="M41.5 26.9 L41.9 28.0 43.05 28.0 43.75 28.25 43.95 28.4 43.95 30.0 43.7 30.15 42.85 30.8 43.25 32.15 43.25 32.85 42.8 33.4 42.1 33.6 41.45 33.35 41.2 33.2 41.15 35.75 43.55 36.7 Q43.75 36.75 43.95 36.95 L43.6 38.85 43.4 38.9 40.85 39.55 40.65 42.5 40.5 42.8 39.25 43.55 39.0 43.5 38.5 43.05 37.0 40.5 34.2 41.25 33.85 41.25 33.0 41.85 33.4 43.2 33.4 43.9 33.3 44.05 31.15 44.05 30.55 43.65 29.9 44.05 27.7 44.05 27.65 43.85 27.65 43.15 28.05 41.85 27.15 41.25 26.75 40.65 Q26.6 40.25 26.75 39.9 L27.15 39.3 27.85 39.1 29.0 39.1 29.45 37.95 Q29.6 37.6 29.85 37.4 L30.55 37.2 31.2 37.4 31.65 38.0 32.05 39.1 33.2 39.1 34.85 37.1 33.55 34.9 33.4 34.2 33.7 33.5 Q33.9 33.25 34.25 33.2 L34.95 33.25 37.35 34.2 38.05 33.45 37.9 33.35 37.5 32.75 37.5 32.05 37.9 30.8 37.0 30.15 36.6 29.6 Q36.45 29.2 36.6 28.85 L37.0 28.25 Q37.3 28.0 37.7 28.0 L38.85 28.0 39.3 26.85 39.7 26.35 Q40.05 26.1 40.4 26.1 L41.05 26.35 41.5 26.9 M29.8 40.25 L28.2 40.25 28.1 40.5 29.45 41.4 28.85 43.15 29.05 43.25 30.55 42.2 31.95 43.25 32.2 43.15 31.65 41.4 32.8 40.55 32.75 40.25 31.25 40.25 30.65 38.75 30.4 38.75 29.8 40.25 M40.05 33.05 L37.7 35.55 34.55 34.3 36.3 37.25 33.9 40.05 37.55 39.15 39.5 42.4 39.75 38.65 43.15 37.75 40.0 36.5 40.05 33.05 M42.65 29.2 L41.1 29.2 40.5 27.65 40.25 27.65 39.65 29.2 38.05 29.2 37.95 29.4 39.3 30.35 38.75 32.05 38.9 32.2 40.4 31.15 41.8 32.2 42.05 32.05 41.5 30.35 42.8 29.4 42.65 29.2" fill="#d1ae5a" fill-rule="evenodd" stroke="none"/>
      <path d="M42.2 29.8 L41.5 30.35 41.5 30.95 41.85 32.25 40.4 31.15 38.9 32.25 39.3 30.95 39.3 30.35 38.55 29.8 39.65 29.8 40.4 27.9 41.1 29.8 42.2 29.8 M40.0 36.5 L40.0 37.1 42.15 38.05 39.75 38.65 39.5 42.4 37.55 39.15 34.55 39.9 36.3 37.85 36.3 37.25 35.0 35.15 37.7 36.2 40.05 33.7 40.0 36.5 M32.35 40.9 L31.65 41.4 31.65 42.05 32.0 43.3 30.55 42.2 29.05 43.3 29.45 42.05 29.45 41.4 28.7 40.9 29.8 40.9 30.55 38.95 31.25 40.9 32.35 40.9" fill="#815815" fill-rule="evenodd" stroke="none"/>
      <path d="M38.55 29.8 L37.7 29.2 39.65 29.2 40.4 27.25 41.1 29.2 43.05 29.2 42.2 29.8 41.1 29.8 40.4 27.9 39.65 29.8 38.55 29.8 M41.5 30.35 L42.15 32.4 41.85 32.25 41.5 30.95 41.5 30.35 M38.9 32.25 L38.6 32.4 39.3 30.35 39.3 30.95 38.9 32.25 M40.0 36.5 L43.15 37.75 42.15 38.05 40.0 37.1 40.0 36.5 M34.55 39.9 L33.9 40.05 36.3 37.25 36.3 37.85 34.55 39.9 M35.0 35.15 L34.55 34.3 37.7 35.55 40.05 33.05 40.05 33.7 37.7 36.2 35.0 35.15 M28.7 40.9 L27.85 40.25 29.8 40.25 30.55 38.35 31.25 40.25 33.2 40.25 32.35 40.9 31.25 40.9 30.55 38.95 29.8 40.9 28.7 40.9 M31.65 41.4 L32.3 43.5 32.0 43.3 31.65 42.05 31.65 41.4 M29.05 43.3 L28.75 43.5 29.45 41.4 29.45 42.05 29.05 43.3" fill="#674512" fill-rule="evenodd" stroke="none"/>
      <path d="M10.25 33.5 L10.55 34.2 10.4 34.9 9.1 37.1 10.75 39.1 11.9 39.1 12.3 38.0 Q12.4 37.6 12.75 37.4 L13.4 37.2 14.1 37.4 14.5 37.95 14.95 39.1 16.1 39.1 16.8 39.3 17.2 39.9 17.2 40.65 16.8 41.25 15.9 41.85 16.3 43.15 16.3 43.85 16.25 44.05 14.05 44.05 13.4 43.65 12.8 44.05 10.65 44.05 10.55 43.9 10.55 43.2 10.95 41.85 10.1 41.25 9.75 41.25 6.95 40.5 5.45 43.05 4.95 43.5 4.7 43.55 3.45 42.8 3.3 42.5 3.1 39.55 0.55 38.9 0.35 38.85 0.0 36.95 0.4 36.7 2.8 35.75 2.75 33.2 2.5 33.35 1.85 33.6 Q1.45 33.6 1.15 33.4 L0.7 32.85 0.7 32.15 1.1 30.8 0.25 30.15 0.0 30.0 0.0 28.4 0.2 28.25 0.9 28.0 2.05 28.0 2.45 26.9 Q2.55 26.5 2.9 26.35 L3.55 26.1 Q3.9 26.1 4.25 26.35 L4.65 26.85 5.1 28.0 6.25 28.0 6.95 28.25 7.35 28.85 7.35 29.6 6.95 30.15 6.05 30.8 6.45 32.05 6.45 32.75 6.05 33.35 5.9 33.45 6.6 34.2 9.0 33.25 9.7 33.2 10.25 33.5 M5.9 29.2 L4.3 29.2 3.7 27.65 3.45 27.65 2.85 29.2 1.3 29.2 1.15 29.4 2.45 30.35 1.9 32.05 2.15 32.2 3.55 31.15 5.05 32.2 5.2 32.05 4.65 30.35 6.0 29.4 5.9 29.2 M3.95 36.5 L0.8 37.75 4.2 38.65 4.45 42.4 6.4 39.15 10.05 40.05 7.65 37.25 9.4 34.3 6.25 35.55 3.9 33.05 3.95 36.5 M15.75 40.25 L14.15 40.25 13.55 38.75 13.3 38.75 12.7 40.25 11.2 40.25 11.15 40.55 12.3 41.4 11.75 43.15 12.0 43.25 13.4 42.2 14.9 43.25 15.1 43.15 14.5 41.4 15.85 40.5 15.75 40.25" fill="#d1ae5a" fill-rule="evenodd" stroke="none"/>
      <path d="M1.75 29.8 L0.9 29.2 2.85 29.2 3.55 27.25 4.3 29.2 6.25 29.2 5.4 29.8 4.3 29.8 3.55 27.9 2.85 29.8 1.75 29.8 M4.65 30.35 L5.35 32.4 5.05 32.25 4.65 30.95 4.65 30.35 M2.1 32.25 L1.8 32.4 2.45 30.35 2.45 30.95 2.1 32.25 M3.9 33.7 L3.9 33.05 6.25 35.55 9.4 34.3 8.95 35.15 6.25 36.2 3.9 33.7 M7.65 37.25 L10.05 40.05 9.4 39.9 7.65 37.85 7.65 37.25 M1.8 38.05 L0.8 37.75 3.95 36.5 3.95 37.1 1.8 38.05 M11.6 40.9 L10.75 40.25 12.7 40.25 13.4 38.35 14.15 40.25 16.1 40.25 15.25 40.9 14.15 40.9 13.4 38.95 12.7 40.9 11.6 40.9 M14.5 41.4 L15.2 43.5 14.9 43.3 14.5 42.05 14.5 41.4 M11.95 43.3 L11.65 43.5 12.3 41.4 12.3 42.05 11.95 43.3" fill="#674512" fill-rule="evenodd" stroke="none"/>
      <path d="M1.75 29.8 L2.85 29.8 3.55 27.9 4.3 29.8 5.4 29.8 4.65 30.35 4.65 30.95 5.05 32.25 3.55 31.15 2.1 32.25 2.45 30.95 2.45 30.35 1.75 29.8 M3.95 36.5 L3.9 33.7 6.25 36.2 8.95 35.15 7.65 37.25 7.65 37.85 9.4 39.9 6.4 39.15 4.45 42.4 4.2 38.65 1.8 38.05 3.95 37.1 3.95 36.5 M11.6 40.9 L12.7 40.9 13.4 38.95 14.15 40.9 15.25 40.9 14.5 41.4 14.5 42.05 14.9 43.3 13.4 42.2 11.95 43.3 12.3 42.05 12.3 41.4 11.6 40.9" fill="#815815" fill-rule="evenodd" stroke="none"/>
    </g>
  </defs>
</svg>
