<?xml version="1.0" encoding="UTF-8" standalone="no"?>
<svg xmlns:xlink="http://www.w3.org/1999/xlink" height="66.15px" width="66.0px" xmlns="http://www.w3.org/2000/svg">
  <g transform="matrix(1.5, 0.0, 0.0, 1.5, -0.075, -0.075)">
    <use height="44.1" transform="matrix(1.0, 0.0, 0.0, 1.0, 0.05, 0.05)" width="44.0" xlink:href="#shape0"/>
    <use height="0.0" transform="matrix(1.2125, 0.0, 0.0, 1.2137, 1.05, 1.05)" width="0.0" xlink:href="#sprite0"/>
    <use height="20.85" transform="matrix(1.0, 0.0, 0.0, 1.0, 0.75, 23.3)" width="42.65" xlink:href="#shape1"/>
    <use height="20.15" transform="matrix(1.1594, 0.0, 0.0, 1.1605, 5.55, 5.6)" width="28.2" xlink:href="#sprite1"/>
    <use height="8.6" transform="matrix(1.2077, 0.0, 0.0, 1.2065, 1.0085, 0.6)" width="35.05" xlink:href="#sprite2"/>
  </g>
  <defs>
    <g id="shape0" transform="matrix(1.0, 0.0, 0.0, 1.0, -0.05, -0.05)">
      <path d="M16.45 43.1 L15.35 42.25 28.75 42.25 28.75 44.15 20.15 44.15 Q18.05 44.1 16.45 43.1" fill="url(#gradient0)" fill-rule="evenodd" stroke="none"/>
      <path d="M28.75 42.25 L33.15 42.25 33.15 44.15 28.75 44.15 28.75 42.25 M20.15 44.15 L16.45 44.15 16.45 43.1 Q18.05 44.1 20.15 44.15" fill="url(#gradient1)" fill-rule="evenodd" stroke="none"/>
      <path d="M41.85 2.35 Q44.05 4.55 44.05 7.65 L44.05 36.5 Q44.05 39.7 41.85 41.9 39.65 44.1 36.45 44.1 L7.65 44.1 Q4.5 44.1 2.3 41.9 0.05 39.7 0.05 36.5 L0.05 7.65 Q0.05 4.55 2.3 2.35 4.5 0.05 7.65 0.05 L36.45 0.05 Q39.6 0.05 41.85 2.35" fill="url(#gradient2)" fill-rule="evenodd" stroke="none"/>
      <path d="M22.1 4.55 Q29.4 4.55 34.55 9.65 39.7 14.8 39.7 22.1 39.7 29.4 34.55 34.5 29.4 39.65 22.1 39.65 14.85 39.65 9.75 34.5 4.55 29.4 4.55 22.1 4.55 14.8 9.75 9.65 14.85 4.55 22.1 4.55" fill="url(#gradient3)" fill-rule="evenodd" stroke="none"/>
      <path d="M23.25 8.2 L23.3 8.2 22.95 9.1 23.05 9.95 22.95 10.4 22.65 10.6 22.85 10.4 22.55 9.8 22.25 9.35 Q22.25 8.95 22.65 8.65 L23.25 8.2 M29.75 18.5 L29.95 18.75 30.4 18.8 30.4 19.25 29.45 19.35 29.35 19.4 Q28.65 19.55 27.85 20.6 L26.5 22.35 26.5 22.45 26.75 23.6 Q26.75 24.2 26.1 24.3 25.45 24.5 25.45 24.65 L26.15 26.35 26.35 27.8 26.2 28.9 25.95 30.3 26.05 30.75 26.0 31.5 25.6 34.4 26.0 35.4 25.05 36.9 24.75 36.15 24.45 35.3 24.55 34.4 24.55 34.35 24.5 33.95 24.05 31.6 24.15 30.95 23.8 29.8 23.5 28.35 23.5 28.05 23.15 28.9 Q22.6 29.95 21.85 29.95 20.95 29.95 20.95 26.65 20.95 25.35 21.5 25.05 22.1 24.7 22.1 24.3 L21.85 23.35 Q20.65 23.55 19.05 24.5 17.55 25.35 16.9 26.2 L16.85 26.25 16.7 26.65 16.45 27.25 16.15 27.25 16.1 26.65 15.85 26.45 15.2 26.9 14.65 27.3 14.6 27.1 Q14.6 26.55 15.3 26.05 L16.45 25.4 Q16.75 25.05 17.9 24.35 L19.0 23.5 20.3 22.8 Q21.3 22.4 21.6 21.75 20.35 20.7 20.35 18.9 L20.55 17.75 21.05 18.15 21.55 18.2 Q21.05 17.8 21.05 16.5 21.05 15.15 22.6 12.4 22.55 14.4 24.4 15.6 L25.2 16.25 Q25.25 11.7 27.95 9.1 29.1 10.15 27.5 15.55 29.8 12.0 33.2 10.4 34.0 12.15 26.85 19.95 L26.7 20.75 30.15 17.05 30.3 17.3 30.0 17.9 29.75 18.5 M26.15 18.45 L26.15 18.6 26.2 18.6 26.35 18.2 26.15 18.45 M26.85 17.5 L27.05 19.0 26.85 19.8 Q29.75 16.1 31.0 13.15 28.8 14.35 26.95 17.15 L26.85 17.5 M26.95 16.45 Q27.45 13.85 27.25 11.85 25.8 13.4 25.45 16.55 26.1 17.1 26.2 17.8 L26.95 16.45 M9.9 20.8 Q9.35 20.55 9.15 20.15 9.7 20.15 10.85 21.05 L9.9 20.8 M18.15 10.9 Q18.85 11.4 18.85 11.75 L18.5 12.4 Q18.5 12.0 17.95 11.7 17.4 11.35 17.4 10.8 L17.65 10.05 Q17.55 10.4 18.15 10.9 M34.25 20.2 L33.85 20.05 34.8 19.65 Q35.4 19.35 35.75 19.35 L36.4 19.6 Q36.1 19.65 35.65 20.0 35.2 20.35 34.75 20.35 L34.25 20.2 M14.4 13.25 Q15.6 16.1 18.4 19.7 11.85 12.4 12.4 10.75 17.0 13.05 19.5 19.7 17.15 14.85 14.4 13.25 M16.4 30.65 Q18.5 28.9 20.2 26.6 16.2 32.55 14.6 32.8 15.55 29.0 21.05 24.95 17.15 28.25 16.4 30.65 M17.7 21.15 Q13.7 16.5 10.2 15.55 12.35 18.25 16.5 21.5 7.15 15.35 7.25 13.3 13.05 14.55 17.7 21.15 M10.5 27.45 Q9.25 27.6 9.25 28.15 L9.25 27.8 Q9.25 27.0 10.2 26.95 11.1 26.9 11.45 26.2 11.65 27.35 10.5 27.45 M19.25 33.9 Q18.85 33.95 18.8 34.75 18.7 35.5 18.15 35.55 L18.1 35.5 18.3 35.4 18.35 35.0 18.25 34.3 Q18.25 33.95 18.7 33.9 L19.25 33.9 M35.55 25.1 L35.9 25.85 35.35 25.3 34.75 25.5 34.0 25.7 Q32.8 25.7 32.9 24.55 33.0 25.05 33.65 25.05 L34.9 24.75 35.55 25.1 M29.1 31.2 L28.45 30.35 30.2 31.7 30.2 32.05 29.9 32.05 29.1 31.2 M32.6 28.75 Q31.2 26.65 26.7 24.4 33.0 26.95 34.9 30.35 33.2 30.5 26.55 25.1 29.9 27.5 32.6 28.75" fill="#92300b" fill-rule="evenodd" stroke="none"/>
      <path d="M33.75 10.4 Q28.8 5.55 21.9 5.45 15.0 5.55 10.15 10.4 5.25 15.2 5.2 22.1 5.25 29.1 10.15 33.95 15.0 38.85 21.9 38.85 28.8 38.85 33.75 33.95 38.55 29.1 38.55 22.1 38.55 15.2 33.75 10.4 M40.9 22.1 Q40.9 30.0 35.3 35.55 29.8 41.2 21.9 41.2 13.95 41.2 8.45 35.55 2.9 30.0 2.9 22.1 2.9 14.15 8.45 8.65 13.95 3.1 21.9 3.1 29.8 3.1 35.3 8.65 40.9 14.15 40.9 22.1" fill="url(#gradient4)" fill-rule="evenodd" stroke="none"/>
    </g>
    <linearGradient gradientTransform="matrix(0.0, -0.0555, -0.0554, 0.0, 34.8, 18.45)" gradientUnits="userSpaceOnUse" id="gradient0" spreadMethod="pad" x1="-819.2" x2="819.2">
      <stop offset="0.011764705882352941" stop-color="#e8e1b7"/>
      <stop offset="1.0" stop-color="#eed731"/>
    </linearGradient>
    <linearGradient gradientTransform="matrix(0.0, -0.0555, -0.0554, 0.0, 22.5, 18.45)" gradientUnits="userSpaceOnUse" id="gradient1" spreadMethod="pad" x1="-819.2" x2="819.2">
      <stop offset="0.011764705882352941" stop-color="#e8e1b7"/>
      <stop offset="1.0" stop-color="#eed731"/>
    </linearGradient>
    <linearGradient gradientTransform="matrix(0.0, -0.0283, -0.0551, 0.0, 22.65, 22.05)" gradientUnits="userSpaceOnUse" id="gradient2" spreadMethod="pad" x1="-819.2" x2="819.2">
      <stop offset="0.011764705882352941" stop-color="#9dae7c"/>
      <stop offset="1.0" stop-color="#7e8f45"/>
    </linearGradient>
    <linearGradient gradientTransform="matrix(0.0, -0.0164, -0.0164, 0.0, 22.1, 18.7)" gradientUnits="userSpaceOnUse" id="gradient3" spreadMethod="pad" x1="-819.2" x2="819.2">
      <stop offset="0.011764705882352941" stop-color="#f9cfb3"/>
      <stop offset="1.0" stop-color="#ff5b79"/>
    </linearGradient>
    <linearGradient gradientTransform="matrix(1.0E-4, 0.0224, -0.0232, 1.0E-4, 21.95, 22.4)" gradientUnits="userSpaceOnUse" id="gradient4" spreadMethod="pad" x1="-819.2" x2="819.2">
      <stop offset="0.011764705882352941" stop-color="#516537"/>
      <stop offset="1.0" stop-color="#a8ce99"/>
    </linearGradient>
    <g id="shape1" transform="matrix(1.0, 0.0, 0.0, 1.0, -0.75, -23.3)">
      <path d="M0.9 33.0 Q1.2 30.65 2.45 29.45 L2.85 27.75 Q3.0 26.75 2.75 25.7 L2.45 24.65 1.8 23.3 2.85 24.4 3.7 25.6 4.0 27.0 Q4.1 27.9 3.4 29.7 2.75 31.3 2.6 33.5 L2.5 33.25 2.45 33.5 Q1.9 36.3 3.05 38.25 3.6 39.2 4.3 39.75 L4.0 39.25 4.1 39.3 4.35 39.8 Q4.95 40.55 5.8 40.7 6.9 40.9 7.95 40.0 9.2 39.05 8.25 37.7 L8.3 38.55 Q8.1 39.5 6.75 39.95 L5.75 40.15 5.75 40.05 5.65 38.85 Q5.6 37.1 7.05 36.2 8.55 35.25 10.05 36.8 L11.25 38.6 Q11.2 36.75 10.3 35.8 L10.45 35.95 Q11.15 36.7 11.45 37.65 L11.4 37.65 11.55 38.05 11.85 38.9 11.9 40.05 Q10.5 42.95 8.7 42.95 10.0 42.75 10.1 41.6 7.2 42.8 3.75 41.1 1.25 39.15 0.9 33.0" fill="#9ec087" fill-rule="evenodd" stroke="none"/>
      <path d="M11.9 40.05 Q11.8 41.2 11.15 42.3 10.15 44.1 7.05 44.15 L4.15 43.85 5.65 43.4 7.85 43.1 6.6 43.2 Q4.45 43.15 2.9 41.65 1.0 39.6 0.8 35.5 0.7 34.1 0.9 33.0 1.25 39.15 3.75 41.1 7.2 42.8 10.1 41.6 10.0 42.75 8.7 42.95 10.5 42.95 11.9 40.05" fill="#648a4a" fill-rule="evenodd" stroke="none"/>
      <path d="M2.6 33.5 L2.65 34.8 Q3.0 36.55 3.85 37.7 L3.95 37.1 Q4.65 35.1 7.35 34.55 L9.25 35.0 10.3 35.8 Q11.2 36.75 11.25 38.6 L10.05 36.8 Q8.55 35.25 7.05 36.2 5.6 37.1 5.65 38.85 L5.75 40.05 5.75 40.15 6.75 39.95 Q8.1 39.5 8.3 38.55 L8.25 37.7 Q9.2 39.05 7.95 40.0 6.9 40.9 5.8 40.7 4.95 40.55 4.35 39.8 L4.1 39.3 4.0 39.25 4.3 39.75 Q3.6 39.2 3.05 38.25 1.9 36.3 2.45 33.5 L2.6 33.5 M4.0 39.25 L4.15 39.2 4.1 39.05 3.95 39.1 4.0 39.25" fill="#c0d6b1" fill-rule="evenodd" stroke="none"/>
      <path d="M2.45 33.5 L2.5 33.25 2.6 33.5 2.45 33.5" fill="#00632e" fill-rule="evenodd" stroke="none"/>
      <path d="M4.0 39.25 L3.95 39.1 4.1 39.05 4.15 39.2 4.0 39.25" fill="#ccbf38" fill-rule="evenodd" stroke="none"/>
      <path d="M11.45 37.65 L11.55 38.05 11.4 37.65 11.45 37.65" fill="url(#gradient5)" fill-rule="evenodd" stroke="none"/>
      <path d="M41.55 33.5 Q41.4 31.3 40.75 29.7 40.05 27.9 40.15 27.0 L40.45 25.6 41.3 24.4 42.35 23.3 41.7 24.65 41.4 25.7 Q41.15 26.75 41.3 27.75 L41.7 29.45 Q42.95 30.65 43.25 33.0 42.9 39.15 40.4 41.1 36.95 42.8 34.05 41.6 34.15 42.75 35.45 42.95 33.65 42.95 32.25 40.05 32.2 39.5 32.3 38.9 L32.6 38.05 32.75 37.65 32.7 37.65 Q33.0 36.7 33.7 35.95 L33.85 35.8 Q32.95 36.75 32.9 38.6 33.35 37.65 34.1 36.8 35.6 35.25 37.1 36.2 38.55 37.1 38.5 38.85 L38.4 40.05 38.4 40.15 37.4 39.95 Q36.05 39.5 35.85 38.55 L35.9 37.7 Q34.95 39.05 36.2 40.0 37.25 40.9 38.35 40.7 39.2 40.55 39.8 39.8 L40.05 39.3 40.15 39.25 39.85 39.75 41.1 38.25 Q42.25 36.3 41.7 33.5 L41.65 33.25 41.55 33.5" fill="#9ec087" fill-rule="evenodd" stroke="none"/>
      <path d="M32.25 40.05 Q33.65 42.95 35.45 42.95 34.15 42.75 34.05 41.6 36.95 42.8 40.4 41.1 42.9 39.15 43.25 33.0 L43.35 35.5 Q43.15 39.6 41.25 41.65 39.7 43.15 37.55 43.2 L36.3 43.1 38.5 43.4 40.0 43.85 37.1 44.15 Q34.0 44.1 33.0 42.3 32.35 41.2 32.25 40.05" fill="#648a4a" fill-rule="evenodd" stroke="none"/>
      <path d="M41.55 33.5 L41.65 33.25 41.7 33.5 41.55 33.5" fill="#00632e" fill-rule="evenodd" stroke="none"/>
      <path d="M41.7 33.5 Q42.25 36.3 41.1 38.25 L39.85 39.75 40.15 39.25 40.05 39.3 39.8 39.8 Q39.2 40.55 38.35 40.7 37.25 40.9 36.2 40.0 34.95 39.05 35.9 37.7 L35.85 38.55 Q36.05 39.5 37.4 39.95 L38.4 40.15 38.4 40.05 38.5 38.85 Q38.55 37.1 37.1 36.2 35.6 35.25 34.1 36.8 33.35 37.65 32.9 38.6 32.95 36.75 33.85 35.8 L34.9 35.0 36.8 34.55 Q39.5 35.1 40.2 37.1 L40.3 37.7 Q41.15 36.55 41.5 34.8 L41.55 33.5 41.7 33.5 M40.15 39.25 L40.2 39.1 40.05 39.05 40.0 39.2 40.15 39.25" fill="#c0d6b1" fill-rule="evenodd" stroke="none"/>
      <path d="M40.15 39.25 L40.0 39.2 40.05 39.05 40.2 39.1 40.15 39.25" fill="#ccbf38" fill-rule="evenodd" stroke="none"/>
      <path d="M32.7 37.65 L32.75 37.65 32.6 38.05 32.7 37.65" fill="url(#gradient6)" fill-rule="evenodd" stroke="none"/>
    </g>
    <linearGradient gradientTransform="matrix(0.0, -0.025, -0.025, 0.0, 6.15, 31.6)" gradientUnits="userSpaceOnUse" id="gradient5" spreadMethod="pad" x1="-819.2" x2="819.2">
      <stop offset="0.011764705882352941" stop-color="#bed9a5"/>
      <stop offset="1.0" stop-color="#739416"/>
    </linearGradient>
    <linearGradient gradientTransform="matrix(0.0, -0.025, 0.025, 0.0, 37.95, 31.6)" gradientUnits="userSpaceOnUse" id="gradient6" spreadMethod="pad" x1="-819.2" x2="819.2">
      <stop offset="0.011764705882352941" stop-color="#bed9a5"/>
      <stop offset="1.0" stop-color="#739416"/>
    </linearGradient>
    <g id="sprite1" transform="matrix(1.0, 0.0, 0.0, 1.0, 0.0, 0.0)">
      <use height="20.15" transform="matrix(1.0, 0.0, 0.0, 1.0, 0.0, 0.0)" width="28.2" xlink:href="#shape2"/>
    </g>
    <g id="shape2" transform="matrix(1.0, 0.0, 0.0, 1.0, 0.0, 0.0)">
      <path d="M27.65 18.45 L27.4 18.95 Q26.2 20.8 23.4 19.8 19.6 18.5 17.35 14.05 14.8 9.1 9.75 7.4 4.1 5.65 0.0 10.3 1.0 6.85 3.7 4.15 7.2 0.65 11.9 0.05 L14.8 0.05 18.4 0.65 Q21.55 1.65 24.05 4.15 28.2 8.3 28.2 14.25 28.2 16.45 27.65 18.45" fill="#ffffff" fill-opacity="0.19607843" fill-rule="evenodd" stroke="none"/>
    </g>
    <g id="sprite2" transform="matrix(1.0, 0.0, 0.0, 1.0, 0.2, 0.0)">
      <use height="8.6" transform="matrix(1.0, 0.0, 0.0, 1.0, -0.2, 0.0)" width="35.05" xlink:href="#shape3"/>
    </g>
    <g id="shape3" transform="matrix(1.0, 0.0, 0.0, 1.0, 0.2, 0.0)">
      <path d="M34.4 4.4 Q34.85 5.8 34.85 7.65 L34.85 8.6 Q34.8 6.95 34.4 5.7 33.0 1.3 27.2 1.3 L7.45 1.3 Q0.05 1.3 -0.2 8.5 L-0.2 7.65 Q-0.2 0.0 7.45 0.0 L27.2 0.0 Q33.0 0.0 34.4 4.4" fill="#e7deda" fill-rule="evenodd" stroke="none"/>
    </g>
  </defs>
</svg>
