<?xml version="1.0" encoding="UTF-8" standalone="no"?>
<svg xmlns:xlink="http://www.w3.org/1999/xlink" height="66.0px" width="66.075px" xmlns="http://www.w3.org/2000/svg">
  <g transform="matrix(1.5, 0.0, 0.0, 1.5, 0.0, -0.15)">
    <use height="43.95" transform="matrix(1.0, 0.0, 0.0, 1.0, 0.0, 0.1)" width="44.05" xlink:href="#shape0"/>
    <use height="8.6" transform="matrix(1.2077, 0.0, 0.0, 1.2077, 0.5085, 0.85)" width="35.05" xlink:href="#sprite0"/>
    <use height="20.7" transform="matrix(1.2077, 0.0, 0.0, 1.2077, 0.6, 19.1)" width="7.3" xlink:href="#sprite1"/>
    <use height="24.05" transform="matrix(1.0, 0.0, 0.0, 1.0, 1.2, 18.65)" width="8.5" xlink:href="#shape3"/>
    <use height="12.1" transform="matrix(1.2077, 0.0, 0.0, 1.2077, 2.0896, 27.6)" width="5.7" xlink:href="#sprite2"/>
    <use height="18.7" transform="matrix(1.1919, 0.0, 0.0, 1.1919, 1.1, 18.35)" width="5.7" xlink:href="#sprite3"/>
    <use height="7.0" transform="matrix(1.1919, 0.0, 0.0, 1.1919, 3.05, 32.4404)" width="3.35" xlink:href="#sprite4"/>
    <use height="22.75" transform="matrix(1.0, 0.0, 0.0, 1.0, 1.8, 19.05)" width="7.0" xlink:href="#shape7"/>
    <use height="11.6" transform="matrix(1.1919, 0.0, 0.0, 1.1919, 1.05, 29.7)" width="6.9" xlink:href="#sprite5"/>
    <use height="11.1" transform="matrix(1.1919, 0.0, 0.0, 1.1919, 1.3, 29.7)" width="6.45" xlink:href="#sprite6"/>
    <use height="11.8" transform="matrix(1.1919, 0.0, 0.0, 1.1919, 1.05, 28.45)" width="6.5" xlink:href="#sprite7"/>
    <use height="18.7" transform="matrix(1.1919, 0.0, 0.0, 1.1919, 35.4, 18.35)" width="5.7" xlink:href="#sprite8"/>
    <use height="7.0" transform="matrix(1.1919, 0.0, 0.0, 1.1919, 36.2, 32.4404)" width="3.35" xlink:href="#sprite9"/>
    <use height="22.8" transform="matrix(1.0, 0.0, 0.0, 1.0, 34.55, 19.05)" width="7.05" xlink:href="#shape13"/>
    <use height="11.6" transform="matrix(1.1919, 0.0, 0.0, 1.1919, 34.0404, 29.7)" width="6.9" xlink:href="#sprite10"/>
    <use height="11.1" transform="matrix(1.1919, 0.0, 0.0, 1.1919, 34.4096, 29.7)" width="6.35" xlink:href="#sprite11"/>
    <use height="11.8" transform="matrix(1.1919, 0.0, 0.0, 1.1919, 34.6096, 28.45)" width="6.45" xlink:href="#sprite12"/>
    <use height="31.9" transform="matrix(1.0, 0.0, 0.0, 1.0, 6.1, 6.15)" width="31.55" xlink:href="#shape17"/>
    <use height="20.15" transform="matrix(1.1548, 0.0, 0.0, 1.1548, 6.3, 5.75)" width="28.2" xlink:href="#sprite13"/>
  </g>
  <defs>
    <g id="shape0" transform="matrix(1.0, 0.0, 0.0, 1.0, 0.0, -0.1)">
      <path d="M22.05 3.85 Q29.65 3.85 34.95 9.15 40.25 14.45 40.25 22.0 40.25 29.5 34.95 34.8 29.65 40.15 22.05 40.15 14.6 40.15 9.3 34.8 3.95 29.5 3.95 22.0 3.95 14.45 9.3 9.15 14.6 3.85 22.05 3.85" fill="url(#gradient0)" fill-rule="evenodd" stroke="none"/>
      <path d="M2.25 2.35 Q4.5 0.1 7.6 0.1 L36.4 0.1 Q39.55 0.1 41.8 2.35 44.05 4.6 44.05 7.7 L44.05 36.45 Q44.05 39.6 41.8 41.85 39.55 44.05 36.4 44.05 L7.6 44.05 Q4.5 44.05 2.25 41.85 0.0 39.6 0.0 36.45 L0.0 7.7 Q0.0 4.6 2.25 2.35 M22.05 4.75 Q14.85 4.75 9.8 9.85 4.7 14.9 4.7 22.1 4.7 29.25 9.8 34.35 14.85 39.4 22.05 39.4 29.25 39.4 34.25 34.35 39.3 29.25 39.3 22.1 39.3 14.9 34.25 9.85 29.15 4.75 22.05 4.75" fill="url(#gradient1)" fill-rule="evenodd" stroke="none"/>
      <path d="M21.95 5.6 Q15.0 5.65 10.2 10.5 5.3 15.35 5.3 22.25 5.3 29.2 10.2 34.1 15.0 38.9 21.95 38.9 28.75 38.9 33.65 34.1 38.55 29.2 38.55 22.25 38.55 15.35 33.65 10.5 28.8 5.65 21.95 5.6 M35.35 8.85 Q40.95 14.4 40.95 22.25 40.95 30.15 35.35 35.7 29.8 41.25 21.95 41.25 14.05 41.25 8.45 35.7 2.9 30.15 2.9 22.25 2.9 14.4 8.45 8.85 14.05 3.25 21.95 3.25 29.8 3.25 35.35 8.85" fill="url(#gradient2)" fill-rule="evenodd" stroke="none"/>
    </g>
    <linearGradient gradientTransform="matrix(0.0, -0.0169, -0.0169, 0.0, 22.05, 18.45)" gradientUnits="userSpaceOnUse" id="gradient0" spreadMethod="pad" x1="-819.2" x2="819.2">
      <stop offset="0.011764705882352941" stop-color="#f9cfb3"/>
      <stop offset="1.0" stop-color="#ff5b79"/>
    </linearGradient>
    <linearGradient gradientTransform="matrix(0.0, -0.044, -0.044, 0.0, 22.0, -1.1)" gradientUnits="userSpaceOnUse" id="gradient1" spreadMethod="pad" x1="-819.2" x2="819.2">
      <stop offset="0.011764705882352941" stop-color="#90d1d1"/>
      <stop offset="0.9764705882352941" stop-color="#003459"/>
    </linearGradient>
    <linearGradient gradientTransform="matrix(0.0, -0.0168, -0.0168, 0.0, 21.95, 26.85)" gradientUnits="userSpaceOnUse" id="gradient2" spreadMethod="pad" x1="-819.2" x2="819.2">
      <stop offset="0.011764705882352941" stop-color="#dbf7ff"/>
      <stop offset="0.9764705882352941" stop-color="#384759"/>
    </linearGradient>
    <g id="sprite0" transform="matrix(1.0, 0.0, 0.0, 1.0, 0.2, 0.0)">
      <use height="8.6" transform="matrix(1.0, 0.0, 0.0, 1.0, -0.2, 0.0)" width="35.05" xlink:href="#shape1"/>
    </g>
    <g id="shape1" transform="matrix(1.0, 0.0, 0.0, 1.0, 0.2, 0.0)">
      <path d="M34.4 4.4 Q34.85 5.8 34.85 7.65 L34.85 8.6 Q34.8 6.95 34.4 5.7 33.0 1.3 27.2 1.3 L7.45 1.3 Q0.05 1.3 -0.2 8.5 L-0.2 7.65 Q-0.2 0.0 7.45 0.0 L27.2 0.0 Q33.0 0.0 34.4 4.4" fill="#e7deda" fill-rule="evenodd" stroke="none"/>
    </g>
    <g id="sprite1" transform="matrix(1.0, 0.0, 0.0, 1.0, 0.0, 0.0)">
      <use height="20.7" transform="matrix(1.0, 0.0, 0.0, 1.0, 0.0, 0.0)" width="7.3" xlink:href="#shape2"/>
    </g>
    <g id="shape2" transform="matrix(1.0, 0.0, 0.0, 1.0, 0.0, 0.0)">
      <path d="M1.5 3.3 Q1.25 4.9 1.35 6.95 1.55 10.95 3.35 13.0 L6.75 16.9 Q7.8 18.5 6.9 19.6 5.25 21.5 2.85 20.1 -0.1 18.35 0.0 11.65 0.1 5.2 1.1 1.95 1.6 0.35 2.05 0.0 L1.5 3.3" fill="#6c6a85" fill-rule="evenodd" stroke="none"/>
    </g>
    <g id="shape3" transform="matrix(1.0, 0.0, 0.0, 1.0, -1.2, -18.65)">
      <path d="M2.8 21.55 L2.7 25.9 Q3.15 30.8 5.2 33.3 L9.05 38.15 Q10.35 40.15 9.1 41.45 7.05 43.7 4.25 41.85 0.8 39.6 1.25 31.5 1.75 23.8 2.55 20.45 L3.2 18.65 2.8 21.55" fill="url(#gradient3)" fill-rule="evenodd" stroke="none"/>
    </g>
    <linearGradient gradientTransform="matrix(0.0, -0.0105, -0.0105, 0.0, 5.4, 33.4)" gradientUnits="userSpaceOnUse" id="gradient3" spreadMethod="pad" x1="-819.2" x2="819.2">
      <stop offset="0.011764705882352941" stop-color="#dbf7ff"/>
      <stop offset="0.9764705882352941" stop-color="#384759"/>
    </linearGradient>
    <g id="sprite2" transform="matrix(1.0, 0.0, 0.0, 1.0, 0.05, 0.0)">
      <use height="12.1" transform="matrix(1.0, 0.0, 0.0, 1.0, -0.05, 0.0)" width="5.7" xlink:href="#shape4"/>
    </g>
    <g id="shape4" transform="matrix(1.0, 0.0, 0.0, 1.0, 0.05, 0.0)">
      <path d="M1.45 10.9 Q3.25 11.3 3.25 9.75 3.25 8.85 2.15 7.35 L0.45 4.75 Q-0.3 2.9 0.1 0.0 0.15 0.9 0.5 2.05 1.15 4.35 2.45 5.8 L5.15 8.65 Q6.15 9.9 5.1 11.0 2.85 13.25 1.45 10.9" fill="#f2f2f2" fill-rule="evenodd" stroke="none"/>
    </g>
    <g id="sprite3" transform="matrix(1.0, 0.0, 0.0, 1.0, 0.0, 0.0)">
      <use height="18.7" transform="matrix(1.0, 0.0, 0.0, 1.0, 0.0, 0.0)" width="5.7" xlink:href="#shape5"/>
    </g>
    <g id="shape5" transform="matrix(1.0, 0.0, 0.0, 1.0, 0.0, 0.0)">
      <path d="M1.65 11.9 Q1.55 10.8 0.55 8.3 -0.4 5.85 0.25 2.65 0.6 1.1 1.1 0.0 L0.5 2.55 Q0.05 5.55 0.95 8.0 1.6 9.8 3.55 11.35 5.25 12.65 5.55 14.75 5.9 17.2 5.3 18.15 L4.6 18.55 Q3.45 19.2 2.4 16.85 1.55 14.9 1.55 13.5 L1.65 11.9" fill="#ffffff" fill-rule="evenodd" stroke="none"/>
    </g>
    <g id="sprite4" transform="matrix(1.0, 0.0, 0.0, 1.0, 0.0, 0.05)">
      <use height="7.0" transform="matrix(1.0, 0.0, 0.0, 1.0, 0.0, -0.05)" width="3.35" xlink:href="#shape6"/>
    </g>
    <g id="shape6" transform="matrix(1.0, 0.0, 0.0, 1.0, 0.0, 0.05)">
      <path d="M2.3 5.7 Q2.05 4.1 0.65 2.6 -0.4 1.45 0.2 0.4 0.8 -0.6 2.05 0.6 3.35 1.8 3.35 4.25 3.35 6.7 2.05 6.95 2.9 6.45 2.3 5.7" fill="#ffffff" fill-rule="evenodd" stroke="none"/>
    </g>
    <g id="shape7" transform="matrix(1.0, 0.0, 0.0, 1.0, -1.85, -19.0)">
      <path d="M3.95 34.5 L3.65 33.75 Q3.6 32.9 4.6 32.9 6.15 32.9 5.9 35.55 L5.1 34.15 Q4.2 33.1 3.95 34.5" fill="#ffffff" fill-rule="evenodd" stroke="none"/>
      <path d="M3.55 28.25 L5.45 30.65 Q7.05 32.25 7.7 33.4 9.3 36.15 8.7 39.45 8.6 40.2 8.05 40.75 6.9 42.0 4.55 41.65 L6.3 41.3 Q8.0 40.35 7.85 37.2 7.65 34.6 5.2 31.85 2.6 28.95 2.15 26.65 1.65 23.55 1.95 21.0 L2.35 19.0 2.3 22.8 Q2.4 26.75 3.55 28.25" fill="#bbded6" fill-rule="evenodd" stroke="none"/>
    </g>
    <g id="sprite5" transform="matrix(1.0, 0.0, 0.0, 1.0, 0.0, 0.0)">
      <use height="11.6" transform="matrix(1.0, 0.0, 0.0, 1.0, 0.0, 0.0)" width="6.9" xlink:href="#shape8"/>
    </g>
    <g id="shape8" transform="matrix(1.0, 0.0, 0.0, 1.0, 0.0, 0.0)">
      <path d="M0.0 4.95 Q0.0 2.4 0.35 0.0 0.5 4.25 0.85 6.75 1.1 8.3 2.25 9.5 L3.35 10.4 Q5.95 10.25 6.3 7.5 6.45 6.1 6.1 4.75 7.75 7.6 6.05 10.0 4.4 12.4 2.0 11.15 0.05 10.1 0.0 4.95" fill="#bbded6" fill-rule="evenodd" stroke="none"/>
    </g>
    <g id="sprite6" transform="matrix(1.0, 0.0, 0.0, 1.0, 0.0, 0.0)">
      <use height="11.1" transform="matrix(1.0, 0.0, 0.0, 1.0, 0.0, 0.0)" width="6.45" xlink:href="#shape9"/>
    </g>
    <g id="shape9" transform="matrix(1.0, 0.0, 0.0, 1.0, 0.0, 0.0)">
      <path d="M0.45 5.0 Q1.15 10.05 3.15 10.4 L4.6 10.1 Q6.1 9.4 6.3 7.2 L6.3 6.25 Q6.6 7.3 6.35 8.45 5.85 10.7 3.3 11.1 2.3 11.25 1.35 9.9 -0.45 7.25 0.15 0.0 0.1 2.45 0.45 5.0" fill="#bbded6" fill-rule="evenodd" stroke="none"/>
    </g>
    <g id="sprite7" transform="matrix(1.0, 0.0, 0.0, 1.0, 0.0, 0.0)">
      <use height="11.8" transform="matrix(1.0, 0.0, 0.0, 1.0, 0.0, 0.0)" width="6.5" xlink:href="#shape10"/>
    </g>
    <g id="shape10" transform="matrix(1.0, 0.0, 0.0, 1.0, 0.0, 0.0)">
      <path d="M0.0 0.0 Q0.4 0.55 0.4 1.45 0.4 4.65 0.65 6.45 1.25 10.9 3.1 11.35 L4.2 11.4 Q5.4 11.25 6.1 10.2 L6.5 8.75 6.45 9.5 Q6.15 10.85 5.0 11.45 4.5 11.8 3.8 11.8 2.45 11.75 1.4 10.05 0.4 7.35 0.3 3.6 L0.25 0.8 0.0 0.0" fill="#306b5e" fill-rule="evenodd" stroke="none"/>
    </g>
    <g id="sprite8" transform="matrix(1.0, 0.0, 0.0, 1.0, 0.0, 0.0)">
      <use height="18.7" transform="matrix(1.0, 0.0, 0.0, 1.0, 0.0, 0.0)" width="5.7" xlink:href="#shape11"/>
    </g>
    <g id="shape11" transform="matrix(1.0, 0.0, 0.0, 1.0, 0.0, 0.0)">
      <path d="M4.05 11.9 L4.15 13.5 Q4.15 14.9 3.3 16.85 2.25 19.2 1.1 18.55 0.75 18.6 0.4 18.15 -0.2 17.2 0.15 14.75 0.45 12.65 2.15 11.35 4.1 9.8 4.75 8.0 5.65 5.55 5.2 2.55 5.0 1.05 4.6 0.0 L5.45 2.65 Q6.1 5.85 5.15 8.3 4.15 10.8 4.05 11.9" fill="#ffffff" fill-rule="evenodd" stroke="none"/>
    </g>
    <g id="sprite9" transform="matrix(1.0, 0.0, 0.0, 1.0, 0.0, 0.05)">
      <use height="7.0" transform="matrix(1.0, 0.0, 0.0, 1.0, 0.0, -0.05)" width="3.35" xlink:href="#shape12"/>
    </g>
    <g id="shape12" transform="matrix(1.0, 0.0, 0.0, 1.0, 0.0, 0.05)">
      <path d="M1.05 5.7 Q0.45 6.45 1.3 6.95 0.0 6.7 0.0 4.25 0.0 1.8 1.3 0.6 2.55 -0.6 3.15 0.4 3.75 1.45 2.7 2.6 1.3 4.1 1.05 5.7" fill="#ffffff" fill-rule="evenodd" stroke="none"/>
    </g>
    <g id="shape13" transform="matrix(1.0, 0.0, 0.0, 1.0, -34.6, -19.0)">
      <path d="M39.6 34.5 Q39.35 33.1 38.4 34.15 L37.55 35.55 37.65 34.2 Q37.9 32.9 38.95 32.9 40.5 32.9 39.6 34.5" fill="#ffffff" fill-rule="evenodd" stroke="none"/>
      <path d="M39.95 28.25 Q41.1 26.75 41.2 22.8 L41.15 19.0 41.55 21.0 Q41.85 23.55 41.3 26.65 40.9 28.95 38.3 31.85 35.85 34.6 35.65 37.2 35.5 40.35 37.2 41.3 L38.65 41.75 Q36.55 41.95 35.4 40.75 L34.75 39.45 Q34.15 36.15 35.8 33.4 36.45 32.25 38.05 30.65 L39.95 28.25" fill="#bbded6" fill-rule="evenodd" stroke="none"/>
    </g>
    <g id="sprite10" transform="matrix(1.0, 0.0, 0.0, 1.0, 0.05, 0.0)">
      <use height="11.6" transform="matrix(1.0, 0.0, 0.0, 1.0, -0.05, 0.0)" width="6.9" xlink:href="#shape14"/>
    </g>
    <g id="shape14" transform="matrix(1.0, 0.0, 0.0, 1.0, 0.05, 0.0)">
      <path d="M0.8 10.0 Q-0.9 7.6 0.75 4.75 0.4 6.1 0.55 7.5 0.9 10.25 3.5 10.4 L4.6 9.5 Q5.75 8.3 6.0 6.75 6.35 4.25 6.5 0.0 6.9 2.4 6.85 4.95 6.8 10.1 4.85 11.15 2.45 12.4 0.8 10.0" fill="#bbded6" fill-rule="evenodd" stroke="none"/>
    </g>
    <g id="sprite11" transform="matrix(1.0, 0.0, 0.0, 1.0, -0.05, 0.0)">
      <use height="11.1" transform="matrix(1.0, 0.0, 0.0, 1.0, 0.05, 0.0)" width="6.35" xlink:href="#shape15"/>
    </g>
    <g id="shape15" transform="matrix(1.0, 0.0, 0.0, 1.0, -0.05, 0.0)">
      <path d="M5.95 5.0 Q6.3 2.45 6.25 0.0 6.85 7.25 5.05 9.9 4.15 11.25 3.1 11.1 0.55 10.7 0.05 8.45 L0.1 6.25 0.1 7.2 Q0.3 9.4 1.8 10.1 L3.25 10.4 Q5.25 10.05 5.95 5.0" fill="#bbded6" fill-rule="evenodd" stroke="none"/>
    </g>
    <g id="sprite12" transform="matrix(1.0, 0.0, 0.0, 1.0, -0.05, 0.0)">
      <use height="11.8" transform="matrix(1.0, 0.0, 0.0, 1.0, 0.05, 0.0)" width="6.45" xlink:href="#shape16"/>
    </g>
    <g id="shape16" transform="matrix(1.0, 0.0, 0.0, 1.0, -0.05, 0.0)">
      <path d="M6.5 0.0 L6.3 0.8 6.2 3.6 Q6.1 7.35 5.1 10.05 4.05 11.75 2.7 11.8 2.0 11.8 1.5 11.45 0.4 10.85 0.1 9.5 L0.05 8.95 0.4 10.2 Q1.1 11.25 2.3 11.4 L3.4 11.35 Q5.25 10.9 5.85 6.45 L6.1 1.45 Q6.1 0.55 6.5 0.0" fill="#306b5e" fill-rule="evenodd" stroke="none"/>
    </g>
    <g id="shape17" transform="matrix(1.0, 0.0, 0.0, 1.0, -6.1, -6.15)">
      <path d="M31.55 12.25 L33.25 11.55 26.65 19.25 Q27.2 20.2 27.4 21.3 L27.4 20.95 28.4 21.05 29.2 18.5 29.65 20.95 30.35 21.1 31.15 17.4 32.05 21.05 32.7 21.25 33.5 17.75 34.3 21.65 Q34.85 21.85 34.85 22.0 L35.65 18.2 36.05 22.35 37.65 23.25 27.35 23.5 26.65 25.2 27.25 25.9 29.5 24.55 28.2 26.65 28.7 27.25 31.75 25.0 29.95 28.4 30.3 28.95 33.25 26.9 31.25 30.3 31.35 30.9 34.6 28.65 32.0 32.05 32.7 33.75 24.9 27.0 23.0 27.85 22.95 28.65 25.5 29.25 23.05 29.85 23.0 30.6 26.7 31.2 23.05 32.3 22.95 32.95 26.45 33.55 22.6 34.55 22.3 35.1 26.15 35.75 21.95 36.4 21.15 38.05 20.45 27.8 Q19.3 27.55 18.4 26.9 18.15 27.05 18.05 27.15 L19.4 29.4 17.3 28.1 Q16.85 28.65 16.7 28.6 L18.95 31.65 15.55 29.85 15.0 30.2 17.05 33.15 13.65 31.15 13.05 31.25 15.3 34.5 11.9 31.9 10.2 32.6 16.75 25.05 Q16.25 24.25 16.1 23.35 L15.35 23.3 14.55 25.85 14.1 23.4 13.4 23.25 12.6 26.95 11.7 23.3 11.05 23.1 10.25 26.6 9.45 22.7 8.9 22.35 8.1 26.15 7.7 22.0 6.1 21.1 16.15 20.85 Q16.35 19.9 16.9 19.1 L16.2 18.3 13.95 19.65 15.25 17.55 14.75 16.95 11.7 19.2 13.5 15.8 13.15 15.25 10.2 17.3 12.2 13.9 Q12.0 13.4 12.1 13.3 L8.85 15.55 11.45 12.15 10.75 10.45 18.7 17.3 18.65 17.4 Q19.55 16.8 20.6 16.6 L20.4 16.6 20.45 15.55 17.9 14.95 20.35 14.35 Q20.3 13.65 20.4 13.6 L16.7 13.0 20.35 11.9 20.45 11.25 16.95 10.65 20.8 9.65 Q20.95 9.1 21.1 9.1 L17.25 8.45 21.45 7.8 22.25 6.15 23.0 16.6 22.9 16.6 Q24.0 16.8 24.9 17.45 L25.4 17.0 24.05 14.75 26.15 16.05 26.75 15.55 24.5 12.5 27.9 14.3 28.45 13.95 26.4 11.0 29.8 13.0 30.4 12.9 28.15 9.65 31.55 12.25" fill="#92300b" fill-rule="evenodd" stroke="none"/>
    </g>
    <g id="sprite13" transform="matrix(1.0, 0.0, 0.0, 1.0, 0.0, 0.0)">
      <use height="20.15" transform="matrix(1.0, 0.0, 0.0, 1.0, 0.0, 0.0)" width="28.2" xlink:href="#shape18"/>
    </g>
    <g id="shape18" transform="matrix(1.0, 0.0, 0.0, 1.0, 0.0, 0.0)">
      <path d="M27.65 18.45 L27.4 18.95 Q26.2 20.8 23.4 19.8 19.6 18.5 17.35 14.05 14.8 9.1 9.75 7.4 4.1 5.65 0.0 10.3 1.0 6.85 3.7 4.15 7.2 0.65 11.9 0.05 L14.8 0.05 18.4 0.65 Q21.55 1.65 24.05 4.15 28.2 8.3 28.2 14.25 28.2 16.45 27.65 18.45" fill="#ffffff" fill-opacity="0.19607843" fill-rule="evenodd" stroke="none"/>
    </g>
  </defs>
</svg>
