<?xml version="1.0" encoding="UTF-8" standalone="no"?>
<svg xmlns:xlink="http://www.w3.org/1999/xlink" height="66.0px" width="66.0px" xmlns="http://www.w3.org/2000/svg">
  <g transform="matrix(1.5, 0.0, 0.0, 1.5, 0.0, 0.0)">
    <use height="44.0" transform="matrix(1.0, 0.0, 0.0, 1.0, 0.0, 0.0)" width="44.0" xlink:href="#shape0"/>
    <use height="0.0" transform="matrix(1.2125, 0.0, 0.0, 1.2125, 1.1, 0.9)" width="0.0" xlink:href="#sprite0"/>
    <use height="20.15" transform="matrix(1.1548, 0.0, 0.0, 1.1548, 5.65, 5.5)" width="28.2" xlink:href="#sprite1"/>
    <use height="8.6" transform="matrix(1.2077, 0.0, 0.0, 1.2065, 0.9585, 0.9)" width="35.05" xlink:href="#sprite2"/>
  </g>
  <defs>
    <g id="shape0" transform="matrix(1.0, 0.0, 0.0, 1.0, 0.0, 0.0)">
      <path d="M7.6 0.0 L36.4 0.0 Q39.55 0.0 41.8 2.25 44.0 4.45 44.0 7.6 L44.0 36.4 Q44.0 39.6 41.8 41.8 39.6 44.0 36.4 44.0 L7.6 44.0 Q4.45 44.0 2.25 41.8 0.0 39.6 0.0 36.4 L0.0 7.6 Q0.0 4.45 2.25 2.25 4.45 0.0 7.6 0.0" fill="url(#gradient0)" fill-rule="evenodd" stroke="none"/>
      <path d="M34.9 8.8 Q40.1 14.05 40.1 21.4 40.1 28.8 34.9 34.1 29.7 39.3 22.3 39.3 14.85 39.3 9.65 34.1 4.45 28.8 4.45 21.4 4.45 14.05 9.65 8.8 14.95 3.55 22.3 3.55 29.7 3.55 34.9 8.8" fill="url(#gradient1)" fill-rule="evenodd" stroke="none"/>
      <path d="M24.45 19.0 L26.0 18.85 Q26.5 18.95 26.9 19.45 L27.45 19.95 Q28.1 20.1 28.25 19.35 L27.55 17.85 26.65 16.55 Q25.05 16.1 24.4 18.2 L24.45 19.0 M21.25 24.6 Q21.25 25.05 21.95 26.05 22.55 27.0 22.55 27.5 22.55 28.05 22.15 28.55 21.75 29.0 21.75 29.7 21.75 30.35 22.5 30.65 L23.55 31.05 25.55 28.6 Q26.05 27.6 26.05 25.85 26.05 24.75 25.6 23.95 25.0 22.85 23.65 22.85 21.25 22.85 21.25 24.6 M20.5 18.85 L21.75 19.35 22.0 18.65 Q22.0 16.65 20.5 16.65 L19.35 17.65 18.35 18.8 Q18.35 19.45 19.0 19.45 L19.6 19.2 Q20.05 18.85 20.5 18.85 M14.75 20.35 Q16.45 22.7 16.45 25.2 16.15 27.2 16.15 28.15 16.15 29.95 17.1 31.65 17.95 33.25 19.25 34.2 L19.65 34.2 20.45 33.75 20.55 32.7 Q20.55 30.7 18.55 26.05 16.55 21.3 16.55 18.1 16.55 15.2 18.25 13.05 20.05 10.85 22.45 10.85 25.55 10.85 28.15 14.0 30.65 17.05 30.65 20.3 30.65 22.9 28.25 27.3 25.85 31.65 25.85 32.85 L26.05 33.4 26.6 33.6 Q26.95 33.6 27.35 33.25 27.85 32.65 28.55 30.35 29.2 28.2 30.5 27.25 33.85 24.95 34.2 21.95 34.75 23.1 34.75 24.25 L34.4 25.7 34.05 26.95 34.4 29.7 Q34.4 31.85 32.45 33.6 L32.25 33.9 31.65 34.4 Q31.65 35.15 32.7 35.15 33.15 35.15 34.75 34.15 27.15 41.65 13.65 37.05 L7.85 32.3 11.4 32.05 Q12.1 31.8 12.1 31.15 12.1 30.1 10.8 29.4 L9.25 28.85 Q9.45 28.6 9.9 28.6 12.2 28.6 13.15 31.9 14.05 35.15 15.7 35.15 L16.35 35.05 16.45 34.35 Q16.45 31.95 11.8 27.6 7.15 23.2 7.15 20.85 7.15 17.8 10.45 17.8 12.85 17.8 14.75 20.35 M8.75 20.9 L8.65 21.25 Q8.65 21.7 9.35 22.45 L10.15 23.2 10.7 23.2 10.85 23.0 Q10.85 22.25 10.25 21.5 9.7 20.7 9.0 20.7 L8.75 20.9 M13.0 20.2 Q12.35 19.6 11.85 19.65 L12.5 20.8 13.35 21.7 13.6 21.7 13.7 21.3 13.0 20.2 M13.6 24.05 L12.8 23.1 Q12.45 23.45 12.45 23.85 L12.9 25.05 13.7 25.95 Q14.05 25.95 14.05 25.2 L13.6 24.05 M30.75 28.85 Q31.4 28.75 31.4 28.35 L31.2 27.95 30.6 28.45 30.75 28.85 M32.8 29.0 Q32.8 29.55 33.2 29.55 33.7 29.55 33.6 28.75 32.8 28.75 32.8 29.0 M31.9 31.4 Q31.9 30.25 30.6 30.8 29.35 31.4 29.35 33.1 29.35 33.4 29.7 33.7 L30.95 32.7 Q31.9 31.9 31.9 31.4" fill="#4a3355" fill-rule="evenodd" stroke="none"/>
      <path d="M40.85 22.05 Q40.85 29.9 35.25 35.45 29.75 41.1 21.85 41.1 13.9 41.1 8.4 35.45 2.85 29.9 2.85 22.05 2.85 14.1 8.4 8.6 13.9 3.0 21.85 3.0 29.75 3.0 35.25 8.6 40.85 14.1 40.85 22.05 M21.85 5.4 Q14.95 5.45 10.1 10.35 5.2 15.15 5.15 22.05 5.2 29.0 10.1 33.85 14.95 38.75 21.85 38.75 28.75 38.75 33.7 33.85 38.5 29.0 38.5 22.05 38.5 15.15 33.7 10.35 28.75 5.45 21.85 5.4" fill="url(#gradient2)" fill-rule="evenodd" stroke="none"/>
      <path d="M5.65 36.05 Q5.55 36.8 4.95 37.4 4.25 38.1 3.3 38.1 2.35 38.1 1.6 37.4 1.05 36.8 0.95 36.15 3.15 33.2 5.65 36.05" fill="#625748" fill-rule="evenodd" stroke="none"/>
      <path d="M0.95 36.15 L0.9 35.75 Q0.9 34.75 1.6 34.05 2.35 33.35 3.3 33.35 4.25 33.35 4.95 34.05 5.65 34.75 5.65 35.75 L5.65 36.05 Q3.15 33.2 0.95 36.15" fill="#494136" fill-rule="evenodd" stroke="none"/>
      <path d="M6.0 38.0 L5.95 37.75 Q5.95 37.15 6.4 36.7 6.8 36.3 7.4 36.3 8.0 36.3 8.4 36.7 8.85 37.15 8.85 37.75 L8.85 37.95 6.0 38.0" fill="#494136" fill-rule="evenodd" stroke="none"/>
      <path d="M8.85 37.95 L8.4 38.75 Q8.0 39.15 7.4 39.15 6.8 39.15 6.4 38.75 L6.0 38.0 8.85 37.95" fill="#625748" fill-rule="evenodd" stroke="none"/>
      <path d="M3.0 40.9 L2.95 40.65 Q2.95 40.05 3.4 39.6 3.8 39.2 4.4 39.2 5.0 39.2 5.4 39.6 5.85 40.05 5.85 40.65 L5.85 40.85 3.0 40.9" fill="#494136" fill-rule="evenodd" stroke="none"/>
      <path d="M5.85 40.85 L5.4 41.65 Q5.0 42.05 4.4 42.05 3.8 42.05 3.4 41.65 3.05 41.3 3.0 40.9 L5.85 40.85" fill="#625748" fill-rule="evenodd" stroke="none"/>
      <path d="M7.7 41.55 L7.7 41.4 Q7.7 40.95 8.0 40.6 8.35 40.3 8.8 40.3 9.2 40.3 9.55 40.6 L9.9 41.4 9.9 41.55 Q8.7 40.2 7.7 41.55" fill="#494136" fill-rule="evenodd" stroke="none"/>
      <path d="M9.9 41.55 L9.55 42.15 Q9.2 42.5 8.8 42.5 8.35 42.5 8.0 42.15 L7.7 41.55 Q8.7 40.2 9.9 41.55" fill="#625748" fill-rule="evenodd" stroke="none"/>
      <path d="M37.65 36.05 Q40.15 33.2 42.35 36.15 L41.7 37.4 Q40.95 38.1 40.0 38.1 39.05 38.1 38.35 37.4 37.75 36.8 37.65 36.05" fill="#625748" fill-rule="evenodd" stroke="none"/>
      <path d="M37.65 36.05 L37.65 35.75 Q37.65 34.75 38.35 34.05 39.05 33.35 40.0 33.35 40.95 33.35 41.7 34.05 42.4 34.75 42.4 35.75 L42.35 36.15 Q40.15 33.2 37.65 36.05" fill="#494136" fill-rule="evenodd" stroke="none"/>
      <path d="M34.45 37.95 L34.45 37.75 Q34.45 37.15 34.9 36.7 35.3 36.3 35.9 36.3 36.5 36.3 36.9 36.7 37.35 37.15 37.35 37.75 L37.3 38.0 34.45 37.95" fill="#494136" fill-rule="evenodd" stroke="none"/>
      <path d="M34.45 37.95 L37.3 38.0 36.9 38.75 Q36.5 39.15 35.9 39.15 35.3 39.15 34.9 38.75 L34.45 37.95" fill="#625748" fill-rule="evenodd" stroke="none"/>
      <path d="M37.45 40.85 L37.45 40.65 Q37.45 40.05 37.9 39.6 38.3 39.2 38.9 39.2 39.5 39.2 39.9 39.6 40.35 40.05 40.35 40.65 L40.3 40.9 37.45 40.85" fill="#494136" fill-rule="evenodd" stroke="none"/>
      <path d="M37.45 40.85 L40.3 40.9 39.9 41.65 Q39.5 42.05 38.9 42.05 38.3 42.05 37.9 41.65 L37.45 40.85" fill="#625748" fill-rule="evenodd" stroke="none"/>
      <path d="M33.4 41.55 L33.4 41.4 Q33.4 40.95 33.75 40.6 34.1 40.3 34.5 40.3 34.95 40.3 35.3 40.6 L35.6 41.4 35.6 41.55 Q34.6 40.2 33.4 41.55" fill="#494136" fill-rule="evenodd" stroke="none"/>
      <path d="M33.4 41.55 Q34.6 40.2 35.6 41.55 L35.3 42.15 Q34.95 42.5 34.5 42.5 34.1 42.5 33.75 42.15 L33.4 41.55" fill="#625748" fill-rule="evenodd" stroke="none"/>
    </g>
    <linearGradient gradientTransform="matrix(0.0, -0.0551, -0.0551, 0.0, 22.05, 18.45)" gradientUnits="userSpaceOnUse" id="gradient0" spreadMethod="pad" x1="-819.2" x2="819.2">
      <stop offset="0.011764705882352941" stop-color="#bcb0a0"/>
      <stop offset="1.0" stop-color="#453e3a"/>
    </linearGradient>
    <linearGradient gradientTransform="matrix(0.0, -0.0167, -0.0167, 0.0, 22.3, 18.05)" gradientUnits="userSpaceOnUse" id="gradient1" spreadMethod="pad" x1="-819.2" x2="819.2">
      <stop offset="0.011764705882352941" stop-color="#bcb9ae"/>
      <stop offset="1.0" stop-color="#9b5b79"/>
    </linearGradient>
    <linearGradient gradientTransform="matrix(1.0E-4, 0.0223, -0.0232, 1.0E-4, 21.9, 22.3)" gradientUnits="userSpaceOnUse" id="gradient2" spreadMethod="pad" x1="-819.2" x2="819.2">
      <stop offset="0.011764705882352941" stop-color="#494136"/>
      <stop offset="1.0" stop-color="#dbccbd"/>
    </linearGradient>
    <g id="sprite1" transform="matrix(1.0, 0.0, 0.0, 1.0, 0.0, 0.0)">
      <use height="20.15" transform="matrix(1.0, 0.0, 0.0, 1.0, 0.0, 0.0)" width="28.2" xlink:href="#shape1"/>
    </g>
    <g id="shape1" transform="matrix(1.0, 0.0, 0.0, 1.0, 0.0, 0.0)">
      <path d="M27.65 18.45 L27.4 18.95 Q26.2 20.8 23.4 19.8 19.6 18.5 17.35 14.05 14.8 9.1 9.75 7.4 4.1 5.65 0.0 10.3 1.0 6.85 3.7 4.15 7.2 0.65 11.9 0.05 L14.8 0.05 18.4 0.65 Q21.55 1.65 24.05 4.15 28.2 8.3 28.2 14.25 28.2 16.45 27.65 18.45" fill="#ffffff" fill-opacity="0.19607843" fill-rule="evenodd" stroke="none"/>
    </g>
    <g id="sprite2" transform="matrix(1.0, 0.0, 0.0, 1.0, 0.2, 0.0)">
      <use height="8.6" transform="matrix(1.0, 0.0, 0.0, 1.0, -0.2, 0.0)" width="35.05" xlink:href="#shape2"/>
    </g>
    <g id="shape2" transform="matrix(1.0, 0.0, 0.0, 1.0, 0.2, 0.0)">
      <path d="M34.4 4.4 Q34.85 5.8 34.85 7.65 L34.85 8.6 Q34.8 6.95 34.4 5.7 33.0 1.3 27.2 1.3 L7.45 1.3 Q0.05 1.3 -0.2 8.5 L-0.2 7.65 Q-0.2 0.0 7.45 0.0 L27.2 0.0 Q33.0 0.0 34.4 4.4" fill="#e7deda" fill-rule="evenodd" stroke="none"/>
    </g>
  </defs>
</svg>
