<?xml version="1.0" encoding="UTF-8" standalone="no"?>
<svg xmlns:xlink="http://www.w3.org/1999/xlink" height="66.0px" width="66.0px" xmlns="http://www.w3.org/2000/svg">
  <g transform="matrix(1.5, 0.0, 0.0, 1.5, 0.0, 0.0)">
    <use height="44.0" transform="matrix(1.0, 0.0, 0.0, 1.0, 0.0, 0.0)" width="44.0" xlink:href="#shape0"/>
    <use height="0.0" transform="matrix(1.2125, 0.0, 0.0, 1.2125, 1.1, 0.9)" width="0.0" xlink:href="#sprite0"/>
    <use height="28.65" transform="matrix(1.0, 0.0, 0.0, 1.0, 7.25, 7.25)" width="29.0" xlink:href="#shape1"/>
    <use height="20.15" transform="matrix(1.1548, 0.0, 0.0, 1.1548, 5.65, 5.5)" width="28.2" xlink:href="#sprite1"/>
    <use height="8.6" transform="matrix(1.2077, 0.0, 0.0, 1.2065, 0.9585, 0.9)" width="35.05" xlink:href="#sprite2"/>
  </g>
  <defs>
    <g id="shape0" transform="matrix(1.0, 0.0, 0.0, 1.0, 0.0, 0.0)">
      <path d="M7.6 0.0 L36.4 0.0 Q39.55 0.0 41.8 2.25 44.0 4.45 44.0 7.6 L44.0 36.4 Q44.0 39.6 41.8 41.8 39.6 44.0 36.4 44.0 L7.6 44.0 Q4.45 44.0 2.25 41.8 0.0 39.6 0.0 36.4 L0.0 7.6 Q0.0 4.45 2.25 2.25 4.45 0.0 7.6 0.0" fill="url(#gradient0)" fill-rule="evenodd" stroke="none"/>
      <path d="M34.9 8.8 Q40.1 14.05 40.1 21.4 40.1 28.8 34.9 34.1 29.7 39.3 22.3 39.3 14.85 39.3 9.65 34.1 4.45 28.8 4.45 21.4 4.45 14.05 9.65 8.8 14.95 3.55 22.3 3.55 29.7 3.55 34.9 8.8" fill="url(#gradient1)" fill-rule="evenodd" stroke="none"/>
      <path d="M40.85 22.05 Q40.85 29.9 35.25 35.45 29.75 41.1 21.85 41.1 13.9 41.1 8.4 35.45 2.85 29.9 2.85 22.05 2.85 14.1 8.4 8.6 13.9 3.0 21.85 3.0 29.75 3.0 35.25 8.6 40.85 14.1 40.85 22.05 M21.85 5.4 Q14.95 5.45 10.1 10.35 5.2 15.15 5.15 22.05 5.2 29.0 10.1 33.85 14.95 38.75 21.85 38.75 28.75 38.75 33.7 33.85 38.5 29.0 38.5 22.05 38.5 15.15 33.7 10.35 28.75 5.45 21.85 5.4" fill="url(#gradient2)" fill-rule="evenodd" stroke="none"/>
      <path d="M5.65 36.05 Q5.55 36.8 4.95 37.4 4.25 38.1 3.3 38.1 2.35 38.1 1.6 37.4 1.05 36.8 0.95 36.15 3.15 33.2 5.65 36.05" fill="#625748" fill-rule="evenodd" stroke="none"/>
      <path d="M0.95 36.15 L0.9 35.75 Q0.9 34.75 1.6 34.05 2.35 33.35 3.3 33.35 4.25 33.35 4.95 34.05 5.65 34.75 5.65 35.75 L5.65 36.05 Q3.15 33.2 0.95 36.15" fill="#494136" fill-rule="evenodd" stroke="none"/>
      <path d="M6.0 38.0 L5.95 37.75 Q5.95 37.15 6.4 36.7 6.8 36.3 7.4 36.3 8.0 36.3 8.4 36.7 8.85 37.15 8.85 37.75 L8.85 37.95 6.0 38.0" fill="#494136" fill-rule="evenodd" stroke="none"/>
      <path d="M8.85 37.95 L8.4 38.75 Q8.0 39.15 7.4 39.15 6.8 39.15 6.4 38.75 L6.0 38.0 8.85 37.95" fill="#625748" fill-rule="evenodd" stroke="none"/>
      <path d="M5.85 40.85 L5.4 41.65 Q5.0 42.05 4.4 42.05 3.8 42.05 3.4 41.65 3.05 41.3 3.0 40.9 L5.85 40.85" fill="#625748" fill-rule="evenodd" stroke="none"/>
      <path d="M5.85 40.85 L3.0 40.9 2.95 40.65 Q2.95 40.05 3.4 39.6 3.8 39.2 4.4 39.2 5.0 39.2 5.4 39.6 5.85 40.05 5.85 40.65 L5.85 40.85" fill="#494136" fill-rule="evenodd" stroke="none"/>
      <path d="M7.7 41.55 L7.7 41.4 Q7.7 40.95 8.0 40.6 8.35 40.3 8.8 40.3 9.2 40.3 9.55 40.6 L9.9 41.4 9.9 41.55 Q8.7 40.2 7.7 41.55" fill="#494136" fill-rule="evenodd" stroke="none"/>
      <path d="M9.9 41.55 L9.55 42.15 Q9.2 42.5 8.8 42.5 8.35 42.5 8.0 42.15 L7.7 41.55 Q8.7 40.2 9.9 41.55" fill="#625748" fill-rule="evenodd" stroke="none"/>
      <path d="M37.65 36.05 Q40.15 33.2 42.35 36.15 L41.7 37.4 Q40.95 38.1 40.0 38.1 39.05 38.1 38.35 37.4 37.75 36.8 37.65 36.05" fill="#625748" fill-rule="evenodd" stroke="none"/>
      <path d="M37.65 36.05 L37.65 35.75 Q37.65 34.75 38.35 34.05 39.05 33.35 40.0 33.35 40.95 33.35 41.7 34.05 42.4 34.75 42.4 35.75 L42.35 36.15 Q40.15 33.2 37.65 36.05" fill="#494136" fill-rule="evenodd" stroke="none"/>
      <path d="M34.45 37.95 L34.45 37.75 Q34.45 37.15 34.9 36.7 35.3 36.3 35.9 36.3 36.5 36.3 36.9 36.7 37.35 37.15 37.35 37.75 L37.3 38.0 34.45 37.95" fill="#494136" fill-rule="evenodd" stroke="none"/>
      <path d="M34.45 37.95 L37.3 38.0 36.9 38.75 Q36.5 39.15 35.9 39.15 35.3 39.15 34.9 38.75 L34.45 37.95" fill="#625748" fill-rule="evenodd" stroke="none"/>
      <path d="M37.45 40.85 L37.45 40.65 Q37.45 40.05 37.9 39.6 38.3 39.2 38.9 39.2 39.5 39.2 39.9 39.6 40.35 40.05 40.35 40.65 L40.3 40.9 37.45 40.85" fill="#494136" fill-rule="evenodd" stroke="none"/>
      <path d="M37.45 40.85 L40.3 40.9 39.9 41.65 Q39.5 42.05 38.9 42.05 38.3 42.05 37.9 41.65 L37.45 40.85" fill="#625748" fill-rule="evenodd" stroke="none"/>
      <path d="M33.4 41.55 L33.4 41.4 Q33.4 40.95 33.75 40.6 34.1 40.3 34.5 40.3 34.95 40.3 35.3 40.6 L35.6 41.4 35.6 41.55 Q34.6 40.2 33.4 41.55" fill="#494136" fill-rule="evenodd" stroke="none"/>
      <path d="M33.4 41.55 Q34.6 40.2 35.6 41.55 L35.3 42.15 Q34.95 42.5 34.5 42.5 34.1 42.5 33.75 42.15 L33.4 41.55" fill="#625748" fill-rule="evenodd" stroke="none"/>
    </g>
    <linearGradient gradientTransform="matrix(0.0, -0.0551, -0.0551, 0.0, 22.05, 18.45)" gradientUnits="userSpaceOnUse" id="gradient0" spreadMethod="pad" x1="-819.2" x2="819.2">
      <stop offset="0.011764705882352941" stop-color="#bcb0a0"/>
      <stop offset="1.0" stop-color="#453e3a"/>
    </linearGradient>
    <linearGradient gradientTransform="matrix(0.0, -0.0167, -0.0167, 0.0, 22.3, 18.05)" gradientUnits="userSpaceOnUse" id="gradient1" spreadMethod="pad" x1="-819.2" x2="819.2">
      <stop offset="0.011764705882352941" stop-color="#bcb9ae"/>
      <stop offset="1.0" stop-color="#9b5b79"/>
    </linearGradient>
    <linearGradient gradientTransform="matrix(1.0E-4, 0.0223, -0.0232, 1.0E-4, 21.9, 22.3)" gradientUnits="userSpaceOnUse" id="gradient2" spreadMethod="pad" x1="-819.2" x2="819.2">
      <stop offset="0.011764705882352941" stop-color="#494136"/>
      <stop offset="1.0" stop-color="#dbccbd"/>
    </linearGradient>
    <g id="shape1" transform="matrix(1.0, 0.0, 0.0, 1.0, -7.25, -7.25)">
      <path d="M21.6 8.7 Q20.35 8.8 20.05 9.3 19.5 10.05 19.4 11.05 19.3 12.3 20.05 13.05 20.9 13.75 21.5 13.75 L22.35 13.4 22.65 12.65 Q22.45 12.25 21.95 12.25 20.8 12.05 20.55 12.5 L21.0 11.9 Q21.7 11.15 22.75 11.3 24.05 11.5 24.45 12.25 24.75 12.9 24.35 13.55 24.05 14.15 23.4 14.3 L23.5 14.3 22.85 14.55 Q23.55 15.15 23.5 16.1 23.3 16.95 22.65 17.3 L23.3 17.8 24.0 17.8 Q23.6 16.9 24.5 16.3 24.35 16.55 24.35 16.9 24.35 17.3 24.5 17.5 L24.75 17.8 25.3 17.8 25.3 18.2 25.85 18.35 26.6 17.85 26.95 17.15 26.25 16.1 26.2 16.1 Q25.95 16.15 25.8 16.3 L26.0 16.65 Q26.4 17.1 26.55 16.95 L26.25 17.1 Q25.8 17.2 25.45 16.8 25.0 16.35 25.05 15.95 25.1 15.6 25.5 15.5 L26.05 15.45 26.0 15.4 26.05 15.4 Q25.45 12.85 27.2 11.2 30.15 9.45 32.7 12.6 34.2 15.5 31.65 16.75 L32.15 15.55 31.95 14.25 Q31.7 13.6 30.85 12.75 29.95 11.95 29.35 12.05 28.45 12.25 27.65 12.85 26.7 13.7 26.65 14.75 26.8 15.8 27.25 16.25 L28.1 16.6 28.8 16.3 Q28.95 15.85 28.6 15.5 27.95 14.55 27.5 14.7 L28.2 14.6 Q29.25 14.55 29.85 15.45 30.65 16.45 30.4 17.3 30.15 17.95 29.35 18.15 L28.2 18.0 28.25 18.05 Q27.7 17.9 27.45 17.65 L27.45 17.55 27.4 17.5 26.9 18.6 Q26.1 19.2 25.3 19.0 L25.3 19.95 25.95 21.0 25.95 20.7 Q26.45 19.2 27.7 19.65 L27.15 19.9 26.75 20.4 26.65 21.25 Q26.7 21.85 26.9 22.0 L27.75 22.3 Q28.35 22.35 28.7 22.0 L28.95 21.65 28.95 21.35 29.0 21.05 28.85 20.9 Q28.7 20.75 28.5 20.75 L28.3 21.1 Q28.25 21.65 28.45 21.75 L28.15 21.55 Q27.8 21.2 27.9 20.7 27.95 20.1 28.3 19.9 L28.95 19.95 29.15 20.1 29.25 19.75 29.45 19.55 Q30.85 17.25 33.3 17.35 36.6 18.2 36.2 22.15 35.2 25.35 32.5 24.4 L33.7 23.85 34.55 22.8 34.8 21.0 Q34.7 19.75 34.2 19.45 33.45 18.9 32.45 18.8 31.2 18.7 30.45 19.45 29.75 20.3 29.75 20.9 29.75 21.35 30.1 21.75 30.45 22.05 30.85 22.05 31.25 21.85 31.25 21.35 31.45 20.2 31.0 19.95 L31.6 20.4 Q32.35 21.1 32.2 22.15 32.0 23.45 31.25 23.85 L29.95 23.75 Q29.35 23.45 29.2 22.8 L29.2 22.9 29.0 22.3 Q28.3 23.05 27.35 23.0 26.25 22.7 26.0 21.75 L25.3 22.9 25.3 23.45 Q26.35 22.85 27.0 23.85 L26.4 23.7 25.8 23.85 25.3 24.35 25.3 25.1 24.95 25.1 24.95 25.2 25.45 25.95 Q25.9 26.35 26.4 26.3 L26.75 26.2 26.9 26.0 27.2 25.75 27.2 25.55 27.0 25.15 Q26.8 25.15 26.65 25.35 26.2 25.75 26.35 25.9 L26.2 25.6 Q26.1 25.15 26.5 24.8 26.95 24.35 27.35 24.4 L27.8 24.85 27.9 25.3 28.25 25.15 28.5 25.1 Q31.15 24.45 32.85 26.25 34.6 29.2 31.45 31.75 28.55 33.25 27.3 30.7 L28.5 31.2 29.8 31.0 Q30.45 30.75 31.3 29.9 32.1 29.0 32.0 28.4 31.8 27.5 31.2 26.7 30.35 25.75 29.3 25.7 28.25 25.85 27.8 26.3 27.5 26.6 27.45 27.15 27.45 27.55 27.75 27.85 L28.55 27.65 Q29.5 27.0 29.35 26.55 L29.45 27.25 Q29.5 28.3 28.6 28.9 27.6 29.7 26.75 29.45 26.1 29.2 25.9 28.4 25.7 27.8 26.05 27.25 L26.0 27.3 26.25 26.75 Q25.4 26.8 24.7 26.25 24.25 25.7 24.25 25.1 L23.3 25.1 22.3 25.7 22.45 25.7 Q23.95 26.2 23.5 27.45 L23.25 26.9 22.75 26.5 21.9 26.4 Q21.3 26.45 21.15 26.65 L20.85 27.5 Q20.8 28.1 21.15 28.45 L21.35 28.6 21.4 28.6 22.2 28.7 22.25 28.6 22.4 28.25 22.05 28.05 Q21.5 28.0 21.4 28.2 L21.6 27.9 Q21.95 27.55 22.45 27.65 23.05 27.7 23.25 28.05 L23.2 28.7 23.05 28.95 23.2 29.1 Q25.5 30.5 25.4 32.95 24.55 36.25 20.6 35.85 17.4 34.85 18.35 32.15 L18.9 33.35 Q19.4 34.0 19.95 34.2 L21.75 34.45 Q23.0 34.35 23.3 33.85 L23.95 32.1 Q24.05 30.85 23.3 30.1 22.45 29.4 21.85 29.4 21.4 29.4 21.0 29.75 20.7 30.1 20.7 30.5 20.9 30.9 21.4 30.9 22.55 31.1 22.8 30.65 L22.35 31.25 Q21.65 32.0 20.6 31.85 19.3 31.65 18.9 30.9 18.6 30.25 19.0 29.6 19.3 29.0 19.95 28.85 L19.85 28.85 20.7 28.6 20.75 28.6 Q20.1 28.0 20.15 27.1 20.4 26.1 21.25 25.8 L20.05 25.1 19.3 25.1 Q19.55 26.2 18.4 26.6 L18.7 26.05 18.7 25.4 18.6 25.1 18.0 25.1 18.0 24.4 17.6 24.25 16.75 24.55 Q16.25 24.9 16.2 25.35 16.15 25.85 16.35 26.1 L16.4 26.15 16.75 26.3 17.1 26.25 17.1 25.8 16.6 25.4 16.9 25.35 Q17.4 25.45 17.65 25.9 L17.8 26.75 17.25 27.1 17.1 27.15 17.25 27.5 17.3 27.75 Q17.95 30.4 16.15 32.1 13.2 33.85 10.65 30.7 9.15 27.8 11.7 26.55 L11.2 27.75 Q11.15 28.6 11.4 29.05 L12.5 30.55 Q13.4 31.35 14.0 31.25 14.9 31.05 15.7 30.45 16.65 29.6 16.7 28.55 16.55 27.5 16.1 27.05 L15.25 26.7 Q14.85 26.7 14.55 27.0 14.4 27.45 14.75 27.8 15.4 28.75 15.85 28.6 L15.15 28.7 Q14.1 28.75 13.5 27.85 12.7 26.85 12.95 26.0 13.2 25.35 14.0 25.15 L15.15 25.3 15.1 25.25 15.85 25.6 Q15.75 24.35 16.65 23.75 L18.0 23.65 18.0 22.75 17.4 21.75 Q16.85 23.15 15.65 22.7 L16.2 22.45 16.6 21.95 16.7 21.1 16.45 20.35 15.6 20.05 Q15.0 20.0 14.65 20.35 L14.55 20.5 14.55 20.95 14.55 21.5 14.85 21.6 15.05 21.25 14.9 20.6 15.2 20.8 Q15.55 21.15 15.45 21.65 15.4 22.25 15.05 22.45 L14.4 22.4 14.35 22.35 14.25 22.55 14.05 22.75 Q12.65 25.05 10.2 24.95 6.9 24.1 7.3 20.15 8.3 16.95 11.0 17.9 L9.8 18.45 Q9.15 18.95 8.95 19.5 8.7 20.15 8.7 21.3 8.8 22.55 9.3 22.85 10.05 23.4 11.05 23.5 12.3 23.6 13.05 22.85 13.75 22.0 13.75 21.4 13.75 20.95 13.4 20.55 13.05 20.25 12.65 20.25 12.25 20.45 12.25 20.95 12.05 22.1 12.5 22.35 L11.9 21.9 Q11.15 21.2 11.3 20.15 11.5 18.85 12.25 18.45 L13.55 18.55 Q14.15 18.85 14.3 19.5 L14.3 19.4 14.5 19.95 Q15.1 19.3 16.0 19.35 17.2 19.65 17.4 20.8 L18.0 19.75 18.0 19.1 17.95 19.1 Q16.55 19.6 16.1 18.3 L16.65 18.6 17.3 18.6 18.0 18.2 18.0 17.8 18.4 17.8 18.45 17.5 18.15 16.65 17.4 16.1 17.25 16.25 17.15 16.25 16.75 16.75 16.45 17.0 16.9 17.0 17.3 16.5 17.35 16.8 16.8 17.55 15.95 17.7 15.7 17.5 15.4 17.6 15.15 17.65 Q12.5 18.3 10.8 16.5 9.05 13.55 12.2 11.0 15.1 9.5 16.35 12.05 L15.15 11.55 13.85 11.75 12.35 12.85 Q11.55 13.75 11.65 14.35 L12.45 16.05 Q13.3 17.0 14.35 17.05 L15.7 16.6 15.9 16.3 15.95 16.3 16.05 16.2 16.2 15.6 15.9 14.9 Q15.45 14.75 15.1 15.1 14.15 15.75 14.3 16.2 L14.2 15.5 Q14.15 14.45 15.05 13.85 16.05 13.05 16.9 13.3 17.55 13.55 17.75 14.35 17.95 14.95 17.6 15.5 L17.65 15.45 17.55 15.75 Q18.45 15.8 18.95 16.55 19.25 17.2 19.1 17.8 L20.5 17.8 20.9 17.4 Q19.75 16.85 20.15 15.75 L20.4 16.3 20.9 16.7 21.5 16.8 21.65 16.6 21.9 16.8 22.5 16.55 22.8 15.7 Q22.85 15.1 22.5 14.75 L22.25 14.55 21.95 14.55 21.5 14.55 21.4 14.6 Q21.25 14.75 21.25 14.95 21.35 15.15 21.6 15.15 L22.25 15.0 22.05 15.3 21.2 15.55 Q20.6 15.5 20.4 15.15 20.25 14.8 20.45 14.5 L20.6 14.35 20.35 14.25 20.15 14.05 Q17.85 12.65 17.95 10.2 18.8 6.9 22.75 7.3 25.95 8.3 25.0 11.0 L24.45 9.8 23.4 8.95 21.6 8.7 M25.25 21.4 L24.3 20.4 24.3 18.8 22.9 18.8 21.75 17.85 20.8 18.8 19.0 18.8 19.0 20.1 18.1 21.1 19.0 22.35 19.0 24.1 20.5 24.1 21.65 25.15 22.75 24.1 24.3 24.1 24.3 22.65 25.25 21.4" fill="#4a3355" fill-rule="evenodd" stroke="none"/>
    </g>
    <g id="sprite1" transform="matrix(1.0, 0.0, 0.0, 1.0, 0.0, 0.0)">
      <use height="20.15" transform="matrix(1.0, 0.0, 0.0, 1.0, 0.0, 0.0)" width="28.2" xlink:href="#shape2"/>
    </g>
    <g id="shape2" transform="matrix(1.0, 0.0, 0.0, 1.0, 0.0, 0.0)">
      <path d="M27.65 18.45 L27.4 18.95 Q26.2 20.8 23.4 19.8 19.6 18.5 17.35 14.05 14.8 9.1 9.75 7.4 4.1 5.65 0.0 10.3 1.0 6.85 3.7 4.15 7.2 0.65 11.9 0.05 L14.8 0.05 18.4 0.65 Q21.55 1.65 24.05 4.15 28.2 8.3 28.2 14.25 28.2 16.45 27.65 18.45" fill="#ffffff" fill-opacity="0.19607843" fill-rule="evenodd" stroke="none"/>
    </g>
    <g id="sprite2" transform="matrix(1.0, 0.0, 0.0, 1.0, 0.2, 0.0)">
      <use height="8.6" transform="matrix(1.0, 0.0, 0.0, 1.0, -0.2, 0.0)" width="35.05" xlink:href="#shape3"/>
    </g>
    <g id="shape3" transform="matrix(1.0, 0.0, 0.0, 1.0, 0.2, 0.0)">
      <path d="M34.4 4.4 Q34.85 5.8 34.85 7.65 L34.85 8.6 Q34.8 6.95 34.4 5.7 33.0 1.3 27.2 1.3 L7.45 1.3 Q0.05 1.3 -0.2 8.5 L-0.2 7.65 Q-0.2 0.0 7.45 0.0 L27.2 0.0 Q33.0 0.0 34.4 4.4" fill="#e7deda" fill-rule="evenodd" stroke="none"/>
    </g>
  </defs>
</svg>
