<?xml version="1.0" encoding="UTF-8" standalone="no"?>
<svg xmlns:xlink="http://www.w3.org/1999/xlink" height="66.0px" width="66.0px" xmlns="http://www.w3.org/2000/svg">
  <g transform="matrix(1.5, 0.0, 0.0, 1.5, 0.0, 0.0)">
    <use height="44.0" transform="matrix(1.0, 0.0, 0.0, 1.0, 0.0, 0.0)" width="44.0" xlink:href="#shape0"/>
    <use height="20.15" transform="matrix(1.1594, 0.0, 0.0, 1.1594, 5.85, 5.45)" width="28.2" xlink:href="#sprite0"/>
    <use height="8.6" transform="matrix(1.2125, 0.0, 0.0, 1.2125, 0.7075, 1.0)" width="35.05" xlink:href="#sprite1"/>
    <use height="20.8" transform="matrix(1.0, 0.0, 0.0, 1.0, 0.65, 23.2)" width="42.65" xlink:href="#shape3"/>
  </g>
  <defs>
    <g id="shape0" transform="matrix(1.0, 0.0, 0.0, 1.0, 0.0, 0.0)">
      <path d="M41.8 2.25 Q44.0 4.45 44.0 7.6 L44.0 36.4 Q44.0 39.6 41.8 41.8 39.6 44.0 36.4 44.0 L7.6 44.0 Q4.45 44.0 2.25 41.8 0.0 39.6 0.0 36.4 L0.0 7.6 Q0.0 4.45 2.25 2.25 4.45 0.0 7.6 0.0 L36.4 0.0 Q39.55 0.0 41.8 2.25" fill="url(#gradient0)" fill-rule="evenodd" stroke="none"/>
      <path d="M40.6 22.05 Q40.6 29.75 35.2 35.2 29.75 40.6 22.05 40.6 14.3 40.6 8.85 35.2 3.4 29.75 3.4 22.05 3.4 14.3 8.85 8.95 14.3 3.5 22.05 3.5 29.75 3.5 35.2 8.95 40.6 14.4 40.6 22.05" fill="url(#gradient1)" fill-rule="evenodd" stroke="none"/>
      <path d="M23.5 16.35 L30.95 13.0 27.55 20.4 26.6 18.55 20.65 24.5 19.8 27.15 19.05 26.4 18.1 29.95 17.3 29.15 15.6 33.45 14.85 29.1 10.5 28.25 14.85 26.7 13.95 25.8 17.5 24.85 16.75 24.1 19.4 23.25 25.35 17.3 23.5 16.35" fill="#496125" fill-rule="evenodd" stroke="none"/>
      <path d="M23.15 25.4 L24.35 23.95 Q26.4 22.25 28.95 22.45 31.5 22.65 33.2 24.6 34.95 26.6 34.75 29.15 34.55 31.8 32.6 33.45 L31.05 34.45 M8.75 13.4 L9.95 11.95 Q12.0 10.25 14.55 10.45 16.15 10.55 17.4 11.4 L18.8 12.6 Q20.55 14.6 20.35 17.15 20.15 19.8 18.2 21.45 L16.65 22.45 M8.4 18.05 L8.3 17.4 Q8.5 15.45 9.9 14.2 11.45 12.9 13.35 13.0 15.25 13.15 16.5 14.6 L17.4 16.05 Q17.8 17.0 17.7 18.05 L17.4 19.45 Q17.0 20.45 16.05 21.2 L15.7 21.5 Q14.35 22.5 12.65 22.4 M22.8 30.05 L22.7 29.4 Q22.9 27.45 24.3 26.2 25.85 24.9 27.75 25.0 29.65 25.15 30.9 26.6 32.25 28.15 32.1 30.05 32.0 32.0 30.45 33.2 29.0 34.5 27.05 34.4" fill="none" stroke="#496125" stroke-linecap="round" stroke-linejoin="round" stroke-width="0.75"/>
      <path d="M40.85 22.05 Q40.85 29.9 35.25 35.4 29.75 41.1 21.85 41.1 13.9 41.1 8.4 35.4 2.85 29.9 2.85 22.05 2.85 14.1 8.4 8.6 13.9 3.0 21.85 3.0 29.75 3.0 35.25 8.6 40.85 14.1 40.85 22.05 M33.7 10.3 Q28.75 5.45 21.85 5.4 14.95 5.45 10.1 10.3 5.2 15.15 5.15 22.05 5.2 29.0 10.1 33.85 14.95 38.75 21.85 38.75 28.75 38.75 33.7 33.85 38.5 29.0 38.5 22.05 38.5 15.15 33.7 10.3" fill="url(#gradient2)" fill-rule="evenodd" stroke="none"/>
    </g>
    <linearGradient gradientTransform="matrix(0.0, -0.0283, -0.0551, 0.0, 22.6, 21.95)" gradientUnits="userSpaceOnUse" id="gradient0" spreadMethod="pad" x1="-819.2" x2="819.2">
      <stop offset="0.011764705882352941" stop-color="#9dae7c"/>
      <stop offset="1.0" stop-color="#7e8f45"/>
    </linearGradient>
    <linearGradient gradientTransform="matrix(0.0, -0.0173, -0.0173, 0.0, 22.05, 18.5)" gradientUnits="userSpaceOnUse" id="gradient1" spreadMethod="pad" x1="-819.2" x2="819.2">
      <stop offset="0.011764705882352941" stop-color="#d3d4b5"/>
      <stop offset="1.0" stop-color="#71a26f"/>
    </linearGradient>
    <linearGradient gradientTransform="matrix(1.0E-4, 0.0223, -0.0232, 1.0E-4, 21.9, 22.3)" gradientUnits="userSpaceOnUse" id="gradient2" spreadMethod="pad" x1="-819.2" x2="819.2">
      <stop offset="0.011764705882352941" stop-color="#516537"/>
      <stop offset="1.0" stop-color="#a8ce99"/>
    </linearGradient>
    <g id="sprite0" transform="matrix(1.0, 0.0, 0.0, 1.0, 0.0, 0.0)">
      <use height="20.15" transform="matrix(1.0, 0.0, 0.0, 1.0, 0.0, 0.0)" width="28.2" xlink:href="#shape1"/>
    </g>
    <g id="shape1" transform="matrix(1.0, 0.0, 0.0, 1.0, 0.0, 0.0)">
      <path d="M27.65 18.45 L27.4 18.95 Q26.2 20.8 23.4 19.8 19.6 18.5 17.35 14.05 14.8 9.1 9.75 7.4 4.1 5.65 0.0 10.3 1.0 6.85 3.7 4.15 7.2 0.65 11.9 0.05 L14.8 0.05 18.4 0.65 Q21.55 1.65 24.05 4.15 28.2 8.3 28.2 14.25 28.2 16.45 27.65 18.45" fill="#ffffff" fill-opacity="0.19607843" fill-rule="evenodd" stroke="none"/>
    </g>
    <g id="sprite1" transform="matrix(1.0, 0.0, 0.0, 1.0, 0.2, 0.0)">
      <use height="8.6" transform="matrix(1.0, 0.0, 0.0, 1.0, -0.2, 0.0)" width="35.05" xlink:href="#shape2"/>
    </g>
    <g id="shape2" transform="matrix(1.0, 0.0, 0.0, 1.0, 0.2, 0.0)">
      <path d="M34.85 8.6 Q34.8 6.95 34.4 5.7 33.0 1.3 27.2 1.3 L7.45 1.3 Q0.05 1.3 -0.2 8.5 L-0.2 7.65 Q-0.2 0.0 7.45 0.0 L27.2 0.0 Q33.0 0.0 34.4 4.4 34.85 5.8 34.85 7.65 L34.85 8.6" fill="#fff7d4" fill-rule="evenodd" stroke="none"/>
    </g>
    <g id="shape3" transform="matrix(1.0, 0.0, 0.0, 1.0, -0.65, -23.2)">
      <path d="M0.8 32.9 Q1.1 30.55 2.35 29.35 L2.75 27.7 Q2.9 26.65 2.65 25.6 L2.35 24.55 1.7 23.2 2.75 24.3 3.6 25.55 3.9 26.9 Q4.0 27.8 3.3 29.6 2.65 31.2 2.5 33.4 L2.4 33.1 2.35 33.4 Q1.8 36.2 2.95 38.15 L4.2 39.6 4.25 39.7 Q4.85 40.45 5.7 40.6 6.8 40.8 7.85 39.9 9.1 38.9 8.15 37.6 L8.2 38.45 Q8.0 39.4 6.65 39.85 L5.65 40.0 5.65 39.95 5.55 38.75 Q5.5 37.0 6.95 36.1 8.45 35.15 9.95 36.7 L11.15 38.5 Q11.1 36.65 10.2 35.7 L10.35 35.85 Q11.05 36.6 11.35 37.55 L11.3 37.55 11.45 37.95 11.75 38.8 11.8 39.95 Q10.4 42.85 8.6 42.85 9.9 42.65 10.0 41.45 7.1 42.7 3.65 41.0 1.15 39.05 0.8 32.9 M3.9 39.15 L4.0 39.2 4.15 39.55 3.9 39.15" fill="#9ec087" fill-rule="evenodd" stroke="none"/>
      <path d="M2.5 33.4 L2.55 34.7 Q2.9 36.45 3.75 37.6 L3.85 37.0 Q4.55 35.0 7.25 34.45 L9.15 34.9 10.2 35.7 Q11.1 36.65 11.15 38.5 L9.95 36.7 Q8.45 35.15 6.95 36.1 5.5 37.0 5.55 38.75 L5.65 39.95 5.65 40.0 6.65 39.85 Q8.0 39.4 8.2 38.45 L8.15 37.6 Q9.1 38.9 7.85 39.9 6.8 40.8 5.7 40.6 4.85 40.45 4.25 39.7 L4.2 39.6 2.95 38.15 Q1.8 36.2 2.35 33.4 L2.5 33.4 M3.9 39.15 L4.15 39.55 4.0 39.2 3.9 39.15 4.05 39.1 4.0 38.9 3.85 39.0 3.9 39.15" fill="#c0d6b1" fill-rule="evenodd" stroke="none"/>
      <path d="M2.35 33.4 L2.4 33.1 2.5 33.4 2.35 33.4" fill="#00632e" fill-rule="evenodd" stroke="none"/>
      <path d="M11.8 39.95 Q11.7 41.05 11.05 42.15 10.05 43.95 6.95 44.0 L4.05 43.75 5.55 43.25 7.75 43.0 6.5 43.1 Q4.35 43.05 2.8 41.55 0.9 39.5 0.7 35.4 0.6 34.0 0.8 32.9 1.15 39.05 3.65 41.0 7.1 42.7 10.0 41.45 9.9 42.65 8.6 42.85 10.4 42.85 11.8 39.95" fill="#648a4a" fill-rule="evenodd" stroke="none"/>
      <path d="M3.9 39.15 L3.85 39.0 4.0 38.9 4.05 39.1 3.9 39.15" fill="#ccbf38" fill-rule="evenodd" stroke="none"/>
      <path d="M11.35 37.55 L11.45 37.95 11.3 37.55 11.35 37.55" fill="url(#gradient3)" fill-rule="evenodd" stroke="none"/>
      <path d="M41.45 33.4 Q41.3 31.2 40.65 29.6 39.95 27.8 40.05 26.9 L40.35 25.55 Q40.65 24.95 41.2 24.3 L42.25 23.2 41.6 24.55 41.3 25.6 Q41.05 26.65 41.2 27.7 L41.6 29.35 Q42.85 30.55 43.15 32.9 42.8 39.05 40.3 41.0 36.85 42.7 33.95 41.45 34.05 42.65 35.35 42.85 33.55 42.85 32.15 39.95 32.1 39.4 32.2 38.8 L32.5 37.95 32.65 37.55 32.6 37.55 Q32.9 36.6 33.6 35.85 L33.75 35.7 Q32.85 36.65 32.8 38.5 33.25 37.55 34.0 36.7 35.5 35.15 37.0 36.1 38.45 37.0 38.4 38.75 L38.3 39.95 38.3 40.0 37.3 39.85 Q35.95 39.4 35.75 38.45 L35.8 37.6 Q34.85 38.9 36.1 39.9 37.15 40.8 38.25 40.6 39.1 40.45 39.7 39.7 L39.8 39.6 41.0 38.15 Q42.15 36.2 41.6 33.4 L41.55 33.1 41.45 33.4 M39.8 39.6 L39.95 39.2 40.05 39.15 39.8 39.6" fill="#9ec087" fill-rule="evenodd" stroke="none"/>
      <path d="M41.6 33.4 Q42.15 36.2 41.0 38.15 L39.8 39.6 39.7 39.7 Q39.1 40.45 38.25 40.6 37.15 40.8 36.1 39.9 34.85 38.9 35.8 37.6 L35.75 38.45 Q35.95 39.4 37.3 39.85 L38.3 40.0 38.3 39.95 38.4 38.75 Q38.45 37.0 37.0 36.1 35.5 35.15 34.0 36.7 33.25 37.55 32.8 38.5 32.85 36.65 33.75 35.7 L34.8 34.9 36.7 34.45 Q39.4 35.0 40.1 37.0 L40.2 37.6 Q41.05 36.45 41.4 34.7 L41.45 33.4 41.6 33.4 M40.05 39.15 L39.95 39.2 39.8 39.6 40.05 39.15 40.1 39.0 39.95 38.9 39.9 39.1 40.05 39.15" fill="#c0d6b1" fill-rule="evenodd" stroke="none"/>
      <path d="M41.45 33.4 L41.55 33.1 41.6 33.4 41.45 33.4" fill="#00632e" fill-rule="evenodd" stroke="none"/>
      <path d="M32.15 39.95 Q33.55 42.85 35.35 42.85 34.05 42.65 33.95 41.45 36.85 42.7 40.3 41.0 42.8 39.05 43.15 32.9 L43.25 35.4 Q43.05 39.5 41.15 41.55 39.6 43.05 37.45 43.1 L36.2 43.0 38.4 43.25 39.9 43.75 37.0 44.0 Q33.9 43.95 32.9 42.15 32.25 41.05 32.15 39.95" fill="#648a4a" fill-rule="evenodd" stroke="none"/>
      <path d="M40.05 39.15 L39.9 39.1 39.95 38.9 40.1 39.0 40.05 39.15" fill="#ccbf38" fill-rule="evenodd" stroke="none"/>
      <path d="M32.6 37.55 L32.65 37.55 32.5 37.95 32.6 37.55" fill="url(#gradient4)" fill-rule="evenodd" stroke="none"/>
    </g>
    <linearGradient gradientTransform="matrix(0.0, -0.025, -0.025, 0.0, 6.05, 31.5)" gradientUnits="userSpaceOnUse" id="gradient3" spreadMethod="pad" x1="-819.2" x2="819.2">
      <stop offset="0.011764705882352941" stop-color="#bed9a5"/>
      <stop offset="1.0" stop-color="#739416"/>
    </linearGradient>
    <linearGradient gradientTransform="matrix(0.0, -0.025, 0.025, 0.0, 37.85, 31.5)" gradientUnits="userSpaceOnUse" id="gradient4" spreadMethod="pad" x1="-819.2" x2="819.2">
      <stop offset="0.011764705882352941" stop-color="#bed9a5"/>
      <stop offset="1.0" stop-color="#739416"/>
    </linearGradient>
  </defs>
</svg>
