<?xml version="1.0" encoding="UTF-8" standalone="no"?>
<svg xmlns:xlink="http://www.w3.org/1999/xlink" height="66.15px" width="66.0px" xmlns="http://www.w3.org/2000/svg">
  <g transform="matrix(1.5, 0.0, 0.0, 1.5, 0.0, 0.0)">
    <use height="44.1" transform="matrix(1.0, 0.0, 0.0, 1.0, 0.0, 0.0)" width="44.0" xlink:href="#shape0"/>
    <use height="8.6" transform="matrix(1.2077, 0.0, 0.0, 1.2065, 0.9585, 0.55)" width="35.05" xlink:href="#sprite0"/>
    <use height="20.15" transform="matrix(1.1594, 0.0, 0.0, 1.1605, 5.95, 5.4)" width="28.2" xlink:href="#sprite1"/>
  </g>
  <defs>
    <g id="shape0" transform="matrix(1.0, 0.0, 0.0, 1.0, 0.0, 0.0)">
      <path d="M36.05 36.75 Q30.1 42.65 21.8 42.65 13.4 42.65 7.55 36.75 1.6 30.8 1.6 22.45 1.6 14.1 7.55 8.2 13.4 2.25 21.8 2.25 30.1 2.25 36.05 8.2 41.9 14.1 41.9 22.45 41.9 30.8 36.05 36.75" fill="url(#gradient0)" fill-rule="evenodd" stroke="none"/>
      <path d="M22.0 4.7 Q14.8 4.7 9.7 9.8 4.65 14.95 4.65 22.05 4.65 29.25 9.7 34.35 14.75 39.45 22.0 39.45 29.15 39.45 34.2 34.35 39.3 29.25 39.3 22.05 39.3 14.85 34.2 9.8 29.15 4.7 22.0 4.7 M36.4 0.0 Q39.6 0.0 41.75 2.25 44.0 4.55 44.0 7.65 L44.0 36.45 Q44.0 39.6 41.75 41.85 39.6 44.05 36.4 44.05 L7.6 44.05 Q4.45 44.05 2.25 41.85 0.0 39.65 0.0 36.45 L0.0 7.65 Q0.0 4.55 2.25 2.25 4.45 0.0 7.6 0.0 L36.4 0.0" fill="url(#gradient1)" fill-rule="evenodd" stroke="none"/>
      <path d="M41.05 22.0 Q41.05 29.85 35.45 35.4 29.95 41.0 22.1 41.0 14.2 41.0 8.7 35.4 3.15 29.85 3.15 22.0 3.15 14.15 8.7 8.6 14.2 3.05 22.1 3.05 29.95 3.05 35.45 8.6 41.05 14.15 41.05 22.0 M33.85 10.35 Q28.9 5.45 22.1 5.4 15.2 5.45 10.35 10.35 5.5 15.1 5.45 22.0 5.5 28.95 10.35 33.8 15.2 38.65 22.1 38.65 28.9 38.65 33.85 33.8 38.65 28.95 38.65 22.0 38.65 15.1 33.85 10.35" fill="url(#gradient2)" fill-rule="evenodd" stroke="none"/>
      <path d="M19.2 10.25 L17.3 8.95 20.55 8.95 19.05 6.85 22.3 8.55 22.3 5.9 23.8 8.75 25.45 6.65 24.5 10.15 Q28.0 10.85 30.65 13.5 33.1 15.9 33.9 19.05 L36.15 16.95 35.0 20.55 37.45 19.05 35.75 22.45 37.45 22.45 35.75 23.75 37.3 24.95 34.05 24.85 34.0 24.9 Q33.25 28.25 30.65 30.75 L30.65 30.7 Q28.2 33.25 25.05 34.05 L25.0 34.05 25.45 35.95 23.85 35.05 23.85 36.35 22.3 35.4 21.5 37.7 20.7 35.05 17.3 36.35 19.0 34.0 Q15.85 33.2 13.4 30.7 10.8 28.1 10.15 24.65 L7.75 25.7 8.75 23.7 6.7 22.85 8.7 22.85 6.85 20.6 8.6 20.4 7.85 18.2 10.15 19.4 Q10.85 16.05 13.4 13.5 15.9 11.0 19.2 10.25 M24.25 11.15 L22.05 10.9 19.85 11.15 Q16.6 11.75 14.1 14.2 11.75 16.6 11.1 19.75 L10.9 22.15 11.1 24.3 11.1 24.35 Q11.65 27.55 14.1 30.0 16.4 32.35 19.45 33.1 L22.05 33.35 24.8 33.05 24.8 33.1 Q27.7 32.35 29.95 30.0 32.35 27.75 33.0 24.7 L33.25 22.15 33.0 19.5 33.05 19.55 Q32.3 16.5 29.95 14.2 27.5 11.75 24.25 11.15 M25.75 21.75 L25.5 23.9 24.55 23.9 24.55 15.15 22.35 12.2 20.2 15.15 20.2 23.9 19.2 23.9 19.0 21.75 18.0 21.75 18.25 25.4 20.85 25.4 20.85 28.1 19.75 28.1 19.75 30.25 24.95 30.25 24.95 28.1 23.85 28.1 23.85 25.4 26.5 25.4 26.75 21.75 25.75 21.75 M29.35 14.8 Q32.35 17.75 32.35 22.0 32.35 26.2 29.35 29.15 26.4 32.15 22.15 32.15 17.95 32.15 14.95 29.15 12.0 26.2 12.0 22.0 12.0 17.75 14.95 14.8 17.95 11.8 22.15 11.8 26.4 11.8 29.35 14.8" fill="#5f3921" fill-rule="evenodd" stroke="none"/>
      <path d="M24.5 10.15 L25.45 6.65 23.8 8.75 22.3 5.9 22.3 8.55 19.05 6.85 20.55 8.95 17.3 8.95 19.2 10.25 M10.15 19.4 L7.85 18.2 8.6 20.4 6.85 20.6 8.7 22.85 6.7 22.85 8.75 23.7 7.75 25.7 10.15 24.65 M19.0 34.0 L17.3 36.35 20.7 35.05 21.5 37.7 22.3 35.4 23.85 36.35 23.85 35.05 25.45 35.95 25.0 34.05 M34.05 24.85 L37.3 24.95 35.75 23.75 37.45 22.45 35.75 22.45 37.45 19.05 35.0 20.55 36.15 16.95 33.9 19.05" fill="none" stroke="#5f3921" stroke-linecap="round" stroke-linejoin="round" stroke-width="0.05"/>
      <path d="M0.2 25.1 Q0.3 22.65 0.8 20.65 0.55 24.85 0.8 26.5 1.15 29.5 3.1 30.95 L8.1 35.1 Q10.6 37.45 11.0 40.2 L14.5 42.5 10.7 42.9 Q9.95 44.4 7.2 44.05 3.2 43.5 2.4 40.25 1.7 37.65 3.6 36.65 L3.8 34.45 4.5 36.3 Q6.5 35.9 6.95 37.0 7.4 38.05 6.85 39.1 6.25 40.05 5.7 39.25 6.4 39.2 6.5 38.8 6.55 38.4 5.85 37.75 5.25 37.1 4.65 37.4 4.05 37.7 3.8 38.85 3.2 41.3 6.05 42.4 9.0 43.5 9.45 40.8 9.95 38.55 7.15 36.2 L3.4 33.3 0.9 32.8 1.9 31.85 Q0.1 29.85 0.2 25.1" fill="#7a5130" fill-rule="evenodd" stroke="none"/>
      <path d="M0.25 24.2 Q0.4 21.8 0.85 19.8 0.6 23.95 0.85 25.55 1.2 28.55 3.15 30.05 L8.15 34.15 Q10.65 36.55 11.05 39.25 L14.7 42.55 10.75 42.05 Q10.0 43.5 7.25 43.15 3.25 42.55 2.45 39.4 1.75 36.8 3.65 35.8 L3.8 34.35 4.55 35.45 Q6.55 35.05 7.0 36.85 7.25 38.35 6.65 39.05 L5.85 39.4 Q7.15 38.2 5.75 36.9 4.4 35.55 3.85 37.95 3.25 40.4 6.1 41.45 9.05 42.55 9.5 39.9 10.0 37.7 7.2 35.25 L3.4 32.4 3.45 32.45 0.85 32.85 1.95 30.95 Q0.15 28.9 0.25 24.2" fill="#ca935c" fill-rule="evenodd" stroke="none"/>
      <path d="M0.85 21.45 Q0.8 24.4 0.9 25.6 1.4 28.65 3.25 30.15 L8.25 34.25 Q10.7 36.6 11.2 39.25 L14.3 42.15 14.05 42.05 13.9 41.9 12.2 40.7 Q10.35 39.1 10.3 38.0 10.15 36.65 8.45 35.15 L5.15 32.65 Q2.0 30.2 1.15 27.45 0.55 25.85 0.55 22.05 L0.85 21.45 M6.5 36.6 Q5.85 35.6 4.65 35.6 L4.4 35.7 4.35 35.6 4.2 35.6 4.2 34.75 4.7 35.5 Q6.6 35.1 7.1 36.9 7.3 37.95 7.1 38.6 L7.0 38.7 7.0 38.6 6.9 38.1 6.9 38.0 Q6.9 37.25 6.5 36.6 M4.25 40.3 L4.05 39.7 Q4.55 40.9 6.2 41.5 L8.45 41.7 8.5 41.75 7.0 42.05 Q6.2 42.05 5.35 41.35 L4.25 40.3" fill="#d7ad86" fill-rule="evenodd" stroke="none"/>
      <path d="M43.65 25.1 Q43.55 22.65 43.05 20.65 43.3 24.85 43.05 26.5 42.7 29.5 40.75 30.95 L35.75 35.1 Q33.25 37.45 32.85 40.2 L29.35 42.5 33.15 42.9 Q33.9 44.4 36.65 44.05 40.65 43.5 41.45 40.25 42.15 37.65 40.25 36.65 L40.05 34.45 39.35 36.3 Q37.35 35.9 36.9 37.0 36.45 38.05 37.0 39.1 37.6 40.05 38.15 39.25 37.45 39.2 37.35 38.8 37.3 38.4 38.0 37.75 38.6 37.1 39.2 37.4 39.8 37.7 40.05 38.85 40.65 41.3 37.8 42.4 34.85 43.5 34.4 40.8 33.9 38.55 36.7 36.2 L40.45 33.3 42.95 32.8 41.95 31.85 Q43.75 29.85 43.65 25.1" fill="#7a5130" fill-rule="evenodd" stroke="none"/>
      <path d="M43.6 24.2 L43.0 19.8 Q43.25 23.95 43.0 25.55 42.65 28.55 40.7 30.05 L35.7 34.15 Q33.2 36.55 32.8 39.25 L29.15 42.55 33.1 42.05 Q33.85 43.5 36.6 43.15 40.6 42.55 41.4 39.4 42.1 36.8 40.2 35.8 L40.05 34.35 39.3 35.45 Q37.3 35.05 36.85 36.85 36.6 38.35 37.2 39.05 L38.0 39.4 Q36.7 38.2 38.1 36.9 39.45 35.55 40.0 37.95 40.6 40.4 37.75 41.45 34.8 42.55 34.35 39.9 33.85 37.7 36.65 35.25 L40.45 32.4 40.4 32.45 43.0 32.85 41.9 30.95 Q43.7 28.9 43.6 24.2" fill="#ca935c" fill-rule="evenodd" stroke="none"/>
      <path d="M43.0 21.45 L42.95 25.6 Q42.45 28.65 40.6 30.15 L35.6 34.25 Q33.15 36.6 32.65 39.25 L29.55 42.15 29.8 42.05 29.95 41.9 31.65 40.7 Q33.5 39.1 33.55 38.0 33.7 36.65 35.4 35.15 L38.7 32.65 Q41.85 30.2 42.7 27.45 43.3 25.85 43.3 22.05 L43.0 21.45 M37.35 36.6 Q38.0 35.6 39.2 35.6 L39.45 35.7 39.5 35.6 39.65 35.6 39.65 34.75 39.15 35.5 Q37.25 35.1 36.75 36.9 36.55 37.95 36.75 38.6 L36.85 38.7 36.85 38.6 36.95 38.1 36.95 38.0 Q36.95 37.25 37.35 36.6 M39.6 40.3 L39.8 39.7 Q39.3 40.9 37.65 41.5 L35.4 41.7 35.35 41.75 36.85 42.05 Q37.65 42.05 38.5 41.35 L39.6 40.3" fill="#d7ad86" fill-rule="evenodd" stroke="none"/>
    </g>
    <linearGradient gradientTransform="matrix(0.0, -0.0155, -0.0189, 0.0, 21.85, 25.45)" gradientUnits="userSpaceOnUse" id="gradient0" spreadMethod="pad" x1="-819.2" x2="819.2">
      <stop offset="0.011764705882352941" stop-color="#bb9a76"/>
      <stop offset="1.0" stop-color="#a87f53"/>
    </linearGradient>
    <linearGradient gradientTransform="matrix(0.0, -0.0344, -0.0552, 0.0, 22.4, 16.35)" gradientUnits="userSpaceOnUse" id="gradient1" spreadMethod="pad" x1="-819.2" x2="819.2">
      <stop offset="0.0196078431372549" stop-color="#9c6732"/>
      <stop offset="1.0" stop-color="#7d4e2b"/>
    </linearGradient>
    <linearGradient gradientTransform="matrix(1.0E-4, 0.0223, -0.0231, 1.0E-4, 22.15, 22.25)" gradientUnits="userSpaceOnUse" id="gradient2" spreadMethod="pad" x1="-819.2" x2="819.2">
      <stop offset="0.011764705882352941" stop-color="#59351e"/>
      <stop offset="1.0" stop-color="#cc955e"/>
    </linearGradient>
    <g id="sprite0" transform="matrix(1.0, 0.0, 0.0, 1.0, 0.2, 0.0)">
      <use height="10.4" transform="matrix(0.8345, 0.0, 0.0, 0.8269, -0.1838, 0.0087)" width="42.0" xlink:href="#shape1"/>
    </g>
    <g id="shape1" transform="matrix(1.0, 0.0, 0.0, 1.0, 0.4, 0.05)">
      <path d="M32.4 -0.05 Q39.35 -0.05 41.05 5.25 41.6 6.95 41.6 9.2 L41.6 10.35 Q41.55 8.35 41.05 6.85 39.35 1.5 32.4 1.5 L8.75 1.5 Q-0.1 1.5 -0.4 10.2 L-0.4 9.2 Q-0.4 -0.05 8.75 -0.05 L32.4 -0.05" fill="#e7deda" fill-rule="evenodd" stroke="none"/>
    </g>
    <g id="sprite1" transform="matrix(1.0, 0.0, 0.0, 1.0, 0.0, 0.0)">
      <use height="20.15" transform="matrix(1.0, 0.0, 0.0, 1.0, 0.0, 0.0)" width="28.2" xlink:href="#shape2"/>
    </g>
    <g id="shape2" transform="matrix(1.0, 0.0, 0.0, 1.0, 0.0, 0.0)">
      <path d="M27.65 18.45 L27.4 18.95 Q26.2 20.8 23.4 19.8 19.6 18.5 17.35 14.05 14.8 9.1 9.75 7.4 4.1 5.65 0.0 10.3 1.0 6.85 3.7 4.15 7.2 0.65 11.9 0.05 L14.8 0.05 18.4 0.65 Q21.55 1.65 24.05 4.15 28.2 8.3 28.2 14.25 28.2 16.45 27.65 18.45" fill="#ffffff" fill-opacity="0.19607843" fill-rule="evenodd" stroke="none"/>
    </g>
  </defs>
</svg>
