<?xml version="1.0" encoding="UTF-8" standalone="no"?>
<svg xmlns:xlink="http://www.w3.org/1999/xlink" height="44.1px" width="44.0px" xmlns="http://www.w3.org/2000/svg">
  <g transform="matrix(1.0, 0.0, 0.0, 1.0, 0.0, 0.0)">
    <use height="44.05" transform="matrix(1.0, 0.0, 0.0, 1.0, 0.0, 0.0)" width="44.0" xlink:href="#shape0"/>
    <use height="8.6" transform="matrix(1.2088, 0.0, 0.0, 1.2099, 0.7582, 0.8)" width="35.05" xlink:href="#sprite0"/>
    <use height="20.15" transform="matrix(1.1548, 0.0, 0.0, 1.1559, 6.2, 5.65)" width="28.2" xlink:href="#sprite1"/>
    <use height="24.3" transform="matrix(1.0, 0.0, 0.0, 1.0, 0.2, 19.8)" width="43.45" xlink:href="#shape3"/>
  </g>
  <defs>
    <g id="shape0" transform="matrix(1.0, 0.0, 0.0, 1.0, 0.0, 0.0)">
      <path d="M21.8 2.3 Q30.15 2.3 36.05 8.25 41.9 14.15 41.9 22.5 41.9 30.85 36.05 36.8 30.15 42.7 21.8 42.7 13.4 42.7 7.55 36.8 1.6 30.85 1.6 22.5 1.6 14.15 7.55 8.25 13.4 2.3 21.8 2.3" fill="url(#gradient0)" fill-rule="evenodd" stroke="none"/>
      <path d="M18.9 29.7 Q24.8 33.1 31.8 28.95 30.95 31.15 29.15 32.95 25.6 36.5 20.6 36.5 15.7 36.5 12.1 33.0 8.55 29.4 8.6 24.5 8.6 19.5 12.15 15.9 13.75 14.35 15.95 13.35 11.65 20.05 15.15 25.95 L13.25 27.85 Q12.6 29.25 13.65 30.95 15.55 32.15 17.0 31.6 L18.9 29.7" fill="#5f3921" fill-rule="evenodd" stroke="none"/>
      <path d="M19.95 16.55 L15.45 22.2 M29.35 27.85 L28.05 29.5 M27.95 17.15 L19.3 28.05 M21.75 21.85 L15.55 29.55" fill="none" stroke="#5f3921" stroke-linecap="round" stroke-linejoin="round" stroke-width="0.5"/>
      <path d="M24.0 13.65 L16.15 23.65 M31.1 23.25 L26.05 29.6 M32.5 5.2 L17.05 24.85 M22.85 10.1 L15.05 19.85 M30.55 18.85 L22.35 29.1" fill="none" stroke="#5f3921" stroke-linecap="round" stroke-linejoin="round" stroke-width="1.0"/>
      <path d="M22.0 4.7 Q14.8 4.7 9.7 9.8 4.65 14.95 4.65 22.05 4.65 29.25 9.7 34.35 14.75 39.45 22.0 39.45 29.15 39.45 34.2 34.35 39.3 29.25 39.3 22.05 39.3 14.85 34.2 9.8 29.15 4.7 22.0 4.7 M36.4 0.0 Q39.6 0.0 41.75 2.25 44.0 4.55 44.0 7.65 L44.0 36.45 Q44.0 39.6 41.75 41.85 39.6 44.05 36.4 44.05 L7.6 44.05 Q4.45 44.05 2.25 41.85 0.0 39.65 0.0 36.45 L0.0 7.65 Q0.0 4.55 2.25 2.25 4.45 0.0 7.6 0.0 L36.4 0.0" fill="url(#gradient1)" fill-rule="evenodd" stroke="none"/>
      <path d="M33.85 10.4 Q28.9 5.5 22.1 5.45 15.2 5.5 10.35 10.4 5.5 15.15 5.45 22.05 5.5 29.0 10.35 33.85 15.2 38.7 22.1 38.7 28.9 38.7 33.85 33.85 38.65 29.0 38.65 22.05 38.65 15.15 33.85 10.4 M41.05 22.05 Q41.05 29.9 35.45 35.45 29.95 41.05 22.1 41.05 14.2 41.05 8.7 35.45 3.15 29.9 3.15 22.05 3.15 14.2 8.7 8.65 14.2 3.1 22.1 3.1 29.95 3.1 35.45 8.65 41.05 14.2 41.05 22.05" fill="url(#gradient2)" fill-rule="evenodd" stroke="none"/>
    </g>
    <linearGradient gradientTransform="matrix(0.0, -0.0155, -0.0189, 0.0, 21.85, 25.5)" gradientUnits="userSpaceOnUse" id="gradient0" spreadMethod="pad" x1="-819.2" x2="819.2">
      <stop offset="0.011764705882352941" stop-color="#bb9a76"/>
      <stop offset="1.0" stop-color="#a87f53"/>
    </linearGradient>
    <linearGradient gradientTransform="matrix(0.0, -0.0344, -0.0552, 0.0, 22.4, 16.35)" gradientUnits="userSpaceOnUse" id="gradient1" spreadMethod="pad" x1="-819.2" x2="819.2">
      <stop offset="0.0196078431372549" stop-color="#9c6732"/>
      <stop offset="1.0" stop-color="#7d4e2b"/>
    </linearGradient>
    <linearGradient gradientTransform="matrix(1.0E-4, 0.0223, -0.0231, 1.0E-4, 22.15, 22.3)" gradientUnits="userSpaceOnUse" id="gradient2" spreadMethod="pad" x1="-819.2" x2="819.2">
      <stop offset="0.011764705882352941" stop-color="#59351e"/>
      <stop offset="1.0" stop-color="#cc955e"/>
    </linearGradient>
    <g id="sprite0" transform="matrix(1.0, 0.0, 0.0, 1.0, 0.2, 0.0)">
      <use height="8.6" transform="matrix(1.0, 0.0, 0.0, 1.0, -0.2, 0.0)" width="35.05" xlink:href="#shape1"/>
    </g>
    <g id="shape1" transform="matrix(1.0, 0.0, 0.0, 1.0, 0.2, 0.0)">
      <path d="M34.85 8.6 Q34.8 6.95 34.4 5.7 33.0 1.3 27.2 1.3 L7.45 1.3 Q0.05 1.3 -0.2 8.5 L-0.2 7.65 Q-0.2 0.0 7.45 0.0 L27.2 0.0 Q33.0 0.0 34.4 4.4 34.85 5.8 34.85 7.65 L34.85 8.6" fill="#fff7d4" fill-rule="evenodd" stroke="none"/>
    </g>
    <g id="sprite1" transform="matrix(1.0, 0.0, 0.0, 1.0, 0.0, 0.0)">
      <use height="20.15" transform="matrix(1.0, 0.0, 0.0, 1.0, 0.0, 0.0)" width="28.2" xlink:href="#shape2"/>
    </g>
    <g id="shape2" transform="matrix(1.0, 0.0, 0.0, 1.0, 0.0, 0.0)">
      <path d="M27.65 18.45 L27.4 18.95 Q26.2 20.8 23.4 19.8 19.6 18.5 17.35 14.05 14.8 9.1 9.75 7.4 4.1 5.65 0.0 10.3 1.0 6.85 3.7 4.15 7.2 0.65 11.9 0.05 L14.8 0.05 18.4 0.65 Q21.55 1.65 24.05 4.15 28.2 8.3 28.2 14.25 28.2 16.45 27.65 18.45" fill="#ffffff" fill-opacity="0.19607843" fill-rule="evenodd" stroke="none"/>
    </g>
    <g id="shape3" transform="matrix(1.0, 0.0, 0.0, 1.0, -0.25, -19.8)">
      <path d="M0.25 25.1 Q0.4 22.65 0.85 20.65 0.6 24.85 0.85 26.5 1.2 29.5 3.15 30.95 L8.15 35.1 Q10.65 37.45 11.05 40.2 L14.6 42.5 10.75 42.9 Q10.0 44.4 7.25 44.05 3.25 43.5 2.45 40.25 1.75 37.65 3.65 36.65 L3.85 34.45 4.55 36.3 Q6.55 35.9 7.0 37.0 7.5 38.05 6.9 39.1 6.3 40.05 5.75 39.25 6.45 39.2 6.55 38.8 6.6 38.4 5.9 37.75 5.3 37.1 4.7 37.4 4.15 37.7 3.85 38.85 3.25 41.3 6.1 42.4 9.05 43.5 9.5 40.8 10.0 38.55 7.2 36.2 L3.45 33.3 0.95 32.8 1.95 31.85 Q0.15 29.85 0.25 25.1" fill="#7a5130" fill-rule="evenodd" stroke="none"/>
      <path d="M0.3 24.2 Q0.45 21.8 0.9 19.8 0.65 23.95 0.9 25.55 1.25 28.55 3.2 30.05 L8.25 34.2 Q10.7 36.55 11.1 39.25 L14.75 42.55 10.85 42.05 Q10.1 43.5 7.3 43.15 3.3 42.55 2.5 39.4 1.8 36.8 3.75 35.8 L3.85 34.35 4.6 35.45 Q6.6 35.05 7.05 36.85 7.3 38.35 6.75 39.05 L5.9 39.4 Q7.2 38.2 5.8 36.9 4.5 35.55 3.9 37.95 3.3 40.4 6.15 41.45 9.1 42.55 9.55 39.9 10.1 37.7 7.25 35.25 L3.45 32.4 3.5 32.45 0.9 32.85 2.0 30.95 Q0.2 28.9 0.3 24.2" fill="#ca935c" fill-rule="evenodd" stroke="none"/>
      <path d="M0.9 21.45 Q0.85 24.4 0.95 25.6 1.45 28.65 3.3 30.15 L8.3 34.25 Q10.75 36.6 11.25 39.25 L14.35 42.15 14.1 42.05 13.95 41.9 12.25 40.7 Q10.4 39.1 10.35 38.0 10.2 36.65 8.5 35.15 L5.25 32.65 Q2.05 30.2 1.2 27.45 0.6 25.85 0.6 22.05 L0.9 21.45 M6.55 36.6 Q5.9 35.6 4.7 35.6 L4.5 35.7 4.4 35.6 4.25 35.6 4.25 34.75 4.75 35.5 Q6.65 35.1 7.15 36.9 7.35 37.95 7.15 38.65 L7.05 38.7 7.05 38.65 6.95 38.1 6.95 38.0 Q6.95 37.25 6.55 36.6 M4.3 40.3 L4.15 39.7 Q4.6 40.9 6.25 41.5 L8.5 41.7 8.6 41.75 7.05 42.05 Q6.25 42.05 5.4 41.35 L4.3 40.3" fill="#d7ad86" fill-rule="evenodd" stroke="none"/>
      <path d="M43.7 25.1 Q43.8 29.85 42.0 31.85 L43.0 32.8 40.5 33.3 36.75 36.2 Q33.95 38.55 34.45 40.8 34.9 43.5 37.85 42.4 40.7 41.3 40.1 38.85 39.8 37.7 39.25 37.4 38.65 37.1 38.05 37.75 37.35 38.4 37.4 38.8 37.5 39.2 38.2 39.25 37.65 40.05 37.05 39.1 36.45 38.05 36.95 37.0 37.4 35.9 39.4 36.3 L40.1 34.45 40.3 36.65 Q42.2 37.65 41.5 40.25 40.7 43.5 36.7 44.05 33.95 44.4 33.2 42.9 L29.35 42.5 32.9 40.2 Q33.3 37.45 35.8 35.1 L40.8 30.95 Q42.75 29.5 43.1 26.5 43.35 24.85 43.1 20.65 L43.7 25.1" fill="#7a5130" fill-rule="evenodd" stroke="none"/>
      <path d="M43.65 24.2 Q43.75 28.9 41.95 30.95 L43.05 32.85 40.45 32.45 40.5 32.4 36.7 35.25 Q33.85 37.7 34.4 39.9 34.85 42.55 37.8 41.45 40.65 40.4 40.05 37.95 39.45 35.55 38.15 36.9 36.75 38.2 38.05 39.4 L37.2 39.05 Q36.65 38.35 36.9 36.85 37.35 35.05 39.35 35.45 L40.1 34.35 40.2 35.8 Q42.15 36.8 41.45 39.4 40.65 42.55 36.65 43.15 33.85 43.5 33.1 42.05 L29.2 42.55 32.85 39.25 Q33.25 36.55 35.7 34.2 L40.75 30.05 Q42.7 28.55 43.05 25.55 43.3 23.95 43.05 19.8 L43.65 24.2" fill="#ca935c" fill-rule="evenodd" stroke="none"/>
      <path d="M37.4 36.6 Q37.0 37.25 37.0 38.0 L37.0 38.1 36.9 38.65 36.9 38.7 36.8 38.65 Q36.6 37.95 36.8 36.9 37.3 35.1 39.2 35.5 L39.7 34.75 39.7 35.6 39.55 35.6 39.45 35.7 39.25 35.6 Q38.05 35.6 37.4 36.6 M43.05 21.45 L43.35 22.05 Q43.35 25.85 42.75 27.45 41.9 30.2 38.7 32.65 L35.45 35.15 Q33.75 36.65 33.6 38.0 33.55 39.1 31.7 40.7 L30.0 41.9 29.85 42.05 29.6 42.15 32.7 39.25 Q33.2 36.6 35.65 34.25 L40.65 30.15 Q42.5 28.65 43.0 25.6 L43.05 21.45 M39.65 40.3 L38.55 41.35 Q37.7 42.05 36.9 42.05 L35.35 41.75 35.45 41.7 37.7 41.5 Q39.35 40.9 39.8 39.7 L39.65 40.3" fill="#d7ad86" fill-rule="evenodd" stroke="none"/>
    </g>
  </defs>
</svg>
