<?xml version="1.0" encoding="UTF-8" standalone="no"?>
<svg xmlns:xlink="http://www.w3.org/1999/xlink" height="66.0px" width="66.0px" xmlns="http://www.w3.org/2000/svg">
  <g transform="matrix(1.5, 0.0, 0.0, 1.5, 0.0, 0.0)">
    <use height="44.0" transform="matrix(1.0, 0.0, 0.0, 1.0, 0.0, 0.0)" width="44.0" xlink:href="#shape0"/>
    <use height="20.15" transform="matrix(1.1594, 0.0, 0.0, 1.1605, 5.8, 5.3)" width="28.2" xlink:href="#sprite0"/>
    <use height="8.6" transform="matrix(1.2077, 0.0, 0.0, 1.2065, 0.7085, 0.8)" width="35.05" xlink:href="#sprite1"/>
  </g>
  <defs>
    <g id="shape0" transform="matrix(1.0, 0.0, 0.0, 1.0, 0.0, 0.0)">
      <path d="M41.8 2.25 Q44.0 4.45 44.0 7.6 L44.0 36.4 Q44.0 39.6 41.8 41.8 39.6 44.0 36.4 44.0 L7.6 44.0 Q4.45 44.0 2.25 41.8 0.0 39.6 0.0 36.4 L0.0 7.6 Q0.0 4.45 2.25 2.25 4.45 0.0 7.6 0.0 L36.4 0.0 Q39.55 0.0 41.8 2.25" fill="url(#gradient0)" fill-rule="evenodd" stroke="none"/>
      <path d="M40.6 22.05 Q40.6 29.75 35.2 35.2 29.75 40.6 22.05 40.6 14.3 40.6 8.85 35.2 3.4 29.75 3.4 22.05 3.4 14.3 8.85 8.95 14.3 3.5 22.05 3.5 29.75 3.5 35.2 8.95 40.6 14.4 40.6 22.05" fill="url(#gradient1)" fill-rule="evenodd" stroke="none"/>
      <path d="M11.55 19.75 L17.4 20.7 23.55 21.1 24.2 21.1 26.1 19.7 Q24.35 4.35 15.15 11.85 L15.25 11.75 15.1 11.85 15.1 11.9 14.95 12.15 11.55 19.75 M33.0 19.7 Q30.9 19.75 32.35 18.4 L35.45 17.4 33.0 19.7 M14.3 11.05 L14.45 8.3 15.15 10.55 16.05 9.85 Q25.95 2.1 29.95 22.0 L33.75 25.3 29.55 26.1 Q20.25 43.95 11.45 29.4 L9.55 30.95 10.9 28.45 10.4 19.7 10.45 19.4 14.3 11.05 M11.95 28.55 L12.2 28.85 Q19.5 40.4 25.0 26.0 L23.3 24.05 Q17.75 21.45 11.55 19.95 L11.95 28.55 M30.4 31.2 Q29.4 29.35 31.3 30.1 L33.45 32.55 30.4 31.2 M37.35 26.0 L35.45 26.05 Q34.0 25.45 35.55 25.15 L37.35 26.0" fill="#496125" fill-rule="evenodd" stroke="none"/>
      <path d="M33.0 19.7 L35.45 17.4 32.35 18.4 Q30.9 19.75 33.0 19.7 M15.1 11.9 L15.1 11.85 15.25 11.75 15.15 11.85 Q24.35 4.35 26.1 19.7 L24.2 21.1 23.55 21.1 17.4 20.7 11.55 19.75 M10.9 28.45 L9.55 30.95 11.45 29.4 Q20.25 43.95 29.55 26.1 L33.75 25.3 29.95 22.0 Q25.95 2.1 16.05 9.85 L15.15 10.55 14.45 8.3 14.3 11.05 M11.55 19.95 Q17.75 21.45 23.3 24.05 L25.0 26.0 Q19.5 40.4 12.2 28.85 L11.95 28.55 M37.35 26.0 L35.55 25.15 Q34.0 25.45 35.45 26.05 L37.35 26.0 M30.4 31.2 L33.45 32.55 31.3 30.1 Q29.4 29.35 30.4 31.2" fill="none" stroke="#496125" stroke-linecap="round" stroke-linejoin="round" stroke-width="0.05"/>
      <path d="M33.7 10.3 Q28.75 5.45 21.85 5.4 14.95 5.45 10.1 10.3 5.2 15.15 5.15 22.05 5.2 29.0 10.1 33.85 14.95 38.75 21.85 38.75 28.75 38.75 33.7 33.85 38.5 29.0 38.5 22.05 38.5 15.15 33.7 10.3 M40.85 22.05 Q40.85 29.9 35.25 35.4 29.75 41.1 21.85 41.1 13.9 41.1 8.4 35.4 2.85 29.9 2.85 22.05 2.85 14.1 8.4 8.6 13.9 3.0 21.85 3.0 29.75 3.0 35.25 8.6 40.85 14.1 40.85 22.05" fill="url(#gradient2)" fill-rule="evenodd" stroke="none"/>
      <path d="M0.8 32.85 Q1.1 30.5 2.35 29.3 L2.75 27.6 Q2.9 26.55 2.65 25.55 L2.35 24.5 1.75 23.15 2.75 24.25 3.6 25.45 3.95 26.85 Q4.0 27.75 3.3 29.55 2.65 31.15 2.5 33.35 L2.4 33.05 2.35 33.35 Q1.8 36.15 2.95 38.1 L4.2 39.55 3.95 39.1 4.0 39.15 4.3 39.6 Q4.85 40.35 5.75 40.55 6.85 40.7 7.85 39.85 9.1 38.85 8.15 37.55 L8.2 38.4 Q8.0 39.3 6.65 39.8 L5.65 39.95 5.65 39.9 5.55 38.7 Q5.5 36.95 6.95 36.0 8.45 35.1 9.95 36.65 L11.2 38.45 Q11.1 36.6 10.2 35.6 L10.35 35.8 Q11.05 36.55 11.35 37.45 L11.3 37.45 11.45 37.85 11.75 38.75 11.8 39.9 Q10.4 42.8 8.6 42.8 9.9 42.55 10.0 41.4 7.1 42.65 3.65 40.95 1.15 38.95 0.8 32.85" fill="#9ec087" fill-rule="evenodd" stroke="none"/>
      <path d="M2.5 33.35 L2.55 34.65 Q2.9 36.35 3.75 37.55 L3.85 36.95 Q4.55 34.9 7.25 34.4 L9.15 34.85 Q9.75 35.15 10.2 35.6 11.1 36.6 11.2 38.45 L9.95 36.65 Q8.45 35.1 6.95 36.0 5.5 36.95 5.55 38.7 L5.65 39.9 5.65 39.95 6.65 39.8 Q8.0 39.3 8.2 38.4 L8.15 37.55 Q9.1 38.85 7.85 39.85 6.85 40.7 5.75 40.55 4.85 40.35 4.3 39.6 L4.0 39.15 3.95 39.1 4.2 39.55 2.95 38.1 Q1.8 36.15 2.35 33.35 L2.5 33.35 M3.95 39.1 L4.05 39.05 4.0 38.85 3.85 38.9 3.95 39.1" fill="#c0d6b1" fill-rule="evenodd" stroke="none"/>
      <path d="M11.8 39.9 Q11.7 41.0 11.05 42.1 10.05 43.9 6.95 43.95 L4.05 43.65 5.55 43.2 7.75 42.9 6.5 43.05 Q4.35 42.95 2.85 41.45 0.9 39.45 0.7 35.3 L0.8 32.85 Q1.15 38.95 3.65 40.95 7.1 42.65 10.0 41.4 9.9 42.55 8.6 42.8 10.4 42.8 11.8 39.9" fill="#648a4a" fill-rule="evenodd" stroke="none"/>
      <path d="M2.35 33.35 L2.4 33.05 2.5 33.35 2.35 33.35" fill="#00632e" fill-rule="evenodd" stroke="none"/>
      <path d="M3.95 39.1 L3.85 38.9 4.0 38.85 4.05 39.05 3.95 39.1" fill="#ccbf38" fill-rule="evenodd" stroke="none"/>
      <path d="M11.35 37.45 L11.45 37.85 11.3 37.45 11.35 37.45" fill="url(#gradient3)" fill-rule="evenodd" stroke="none"/>
      <path d="M42.9 32.85 Q42.6 30.5 41.35 29.3 L40.95 27.6 Q40.8 26.55 41.05 25.55 L41.35 24.5 41.95 23.15 40.95 24.25 40.1 25.45 39.75 26.85 Q39.7 27.75 40.4 29.55 41.05 31.15 41.2 33.35 L41.3 33.05 41.35 33.35 Q41.9 36.15 40.75 38.1 L39.5 39.55 39.75 39.1 39.7 39.15 39.4 39.6 Q38.85 40.35 37.95 40.55 36.85 40.7 35.85 39.85 34.6 38.85 35.55 37.55 L35.5 38.4 Q35.7 39.3 37.05 39.8 L38.05 39.95 38.05 39.9 38.15 38.7 Q38.2 36.95 36.75 36.0 35.25 35.1 33.75 36.65 L32.5 38.45 Q32.6 36.6 33.5 35.6 L33.35 35.8 Q32.65 36.55 32.35 37.45 L32.4 37.45 32.25 37.85 31.95 38.75 Q31.85 39.3 31.9 39.9 33.3 42.8 35.1 42.8 33.8 42.55 33.7 41.4 36.6 42.65 40.05 40.95 42.55 38.95 42.9 32.85" fill="#9ec087" fill-rule="evenodd" stroke="none"/>
      <path d="M41.2 33.35 L41.15 34.65 Q40.8 36.35 39.95 37.55 L39.85 36.95 Q39.15 34.9 36.45 34.4 L34.55 34.85 Q33.95 35.15 33.5 35.6 32.6 36.6 32.5 38.45 L33.75 36.65 Q35.25 35.1 36.75 36.0 38.2 36.95 38.15 38.7 L38.05 39.9 38.05 39.95 37.05 39.8 Q35.7 39.3 35.5 38.4 L35.55 37.55 Q34.6 38.85 35.85 39.85 36.85 40.7 37.95 40.55 38.85 40.35 39.4 39.6 L39.7 39.15 39.75 39.1 39.5 39.55 40.75 38.1 Q41.9 36.15 41.35 33.35 L41.2 33.35 M39.75 39.1 L39.65 39.05 39.7 38.85 39.85 38.9 39.75 39.1" fill="#c0d6b1" fill-rule="evenodd" stroke="none"/>
      <path d="M31.9 39.9 Q32.0 41.0 32.65 42.1 33.65 43.9 36.75 43.95 L39.65 43.65 38.15 43.2 35.95 42.9 37.2 43.05 Q39.35 42.95 40.85 41.45 42.8 39.45 43.0 35.3 L42.9 32.85 Q42.55 38.95 40.05 40.95 36.6 42.65 33.7 41.4 33.8 42.55 35.1 42.8 33.3 42.8 31.9 39.9" fill="#648a4a" fill-rule="evenodd" stroke="none"/>
      <path d="M41.35 33.35 L41.3 33.05 41.2 33.35 41.35 33.35" fill="#00632e" fill-rule="evenodd" stroke="none"/>
      <path d="M39.75 39.1 L39.85 38.9 39.7 38.85 39.65 39.05 39.75 39.1" fill="#ccbf38" fill-rule="evenodd" stroke="none"/>
      <path d="M32.35 37.45 L32.25 37.85 32.4 37.45 32.35 37.45" fill="url(#gradient4)" fill-rule="evenodd" stroke="none"/>
    </g>
    <linearGradient gradientTransform="matrix(0.0, -0.0283, -0.0551, 0.0, 22.6, 21.95)" gradientUnits="userSpaceOnUse" id="gradient0" spreadMethod="pad" x1="-819.2" x2="819.2">
      <stop offset="0.011764705882352941" stop-color="#9dae7c"/>
      <stop offset="1.0" stop-color="#7e8f45"/>
    </linearGradient>
    <linearGradient gradientTransform="matrix(0.0, -0.0173, -0.0173, 0.0, 22.0, 18.45)" gradientUnits="userSpaceOnUse" id="gradient1" spreadMethod="pad" x1="-819.2" x2="819.2">
      <stop offset="0.011764705882352941" stop-color="#d3d4b5"/>
      <stop offset="1.0" stop-color="#71a26f"/>
    </linearGradient>
    <linearGradient gradientTransform="matrix(1.0E-4, 0.0223, -0.0232, 1.0E-4, 21.9, 22.3)" gradientUnits="userSpaceOnUse" id="gradient2" spreadMethod="pad" x1="-819.2" x2="819.2">
      <stop offset="0.011764705882352941" stop-color="#516537"/>
      <stop offset="1.0" stop-color="#a8ce99"/>
    </linearGradient>
    <linearGradient gradientTransform="matrix(0.0, -0.0249, -0.0249, 0.0, 5.9, 31.25)" gradientUnits="userSpaceOnUse" id="gradient3" spreadMethod="pad" x1="-819.2" x2="819.2">
      <stop offset="0.011764705882352941" stop-color="#bed9a5"/>
      <stop offset="1.0" stop-color="#739416"/>
    </linearGradient>
    <linearGradient gradientTransform="matrix(0.0, -0.0249, 0.0249, 0.0, 37.75, 31.25)" gradientUnits="userSpaceOnUse" id="gradient4" spreadMethod="pad" x1="-819.2" x2="819.2">
      <stop offset="0.011764705882352941" stop-color="#bed9a5"/>
      <stop offset="1.0" stop-color="#739416"/>
    </linearGradient>
    <g id="sprite0" transform="matrix(1.0, 0.0, 0.0, 1.0, 0.0, 0.0)">
      <use height="20.15" transform="matrix(1.0, 0.0, 0.0, 1.0, 0.0, 0.0)" width="28.2" xlink:href="#shape1"/>
    </g>
    <g id="shape1" transform="matrix(1.0, 0.0, 0.0, 1.0, 0.0, 0.0)">
      <path d="M27.65 18.45 L27.4 18.95 Q26.2 20.8 23.4 19.8 19.6 18.5 17.35 14.05 14.8 9.1 9.75 7.4 4.1 5.65 0.0 10.3 1.0 6.85 3.7 4.15 7.2 0.65 11.9 0.05 L14.8 0.05 18.4 0.65 Q21.55 1.65 24.05 4.15 28.2 8.3 28.2 14.25 28.2 16.45 27.65 18.45" fill="#ffffff" fill-opacity="0.19607843" fill-rule="evenodd" stroke="none"/>
    </g>
    <g id="sprite1" transform="matrix(1.0, 0.0, 0.0, 1.0, 0.2, 0.0)">
      <use height="8.6" transform="matrix(1.0, 0.0, 0.0, 1.0, -0.2, 0.0)" width="35.05" xlink:href="#shape2"/>
    </g>
    <g id="shape2" transform="matrix(1.0, 0.0, 0.0, 1.0, 0.2, 0.0)">
      <path d="M34.4 4.4 Q34.85 5.8 34.85 7.65 L34.85 8.6 Q34.8 6.95 34.4 5.7 33.0 1.3 27.2 1.3 L7.45 1.3 Q0.05 1.3 -0.2 8.5 L-0.2 7.65 Q-0.2 0.0 7.45 0.0 L27.2 0.0 Q33.0 0.0 34.4 4.4" fill="#e7deda" fill-rule="evenodd" stroke="none"/>
    </g>
  </defs>
</svg>
