<?xml version="1.0" encoding="UTF-8" standalone="no"?>
<svg xmlns:xlink="http://www.w3.org/1999/xlink" height="66.0px" width="66.0px" xmlns="http://www.w3.org/2000/svg">
  <g transform="matrix(1.5, 0.0, 0.0, 1.5, 0.0, 0.0)">
    <use height="44.0" transform="matrix(1.0, 0.0, 0.0, 1.0, 0.0, 0.0)" width="44.0" xlink:href="#shape0"/>
    <use height="20.15" transform="matrix(1.1594, 0.0, 0.0, 1.1605, 5.8, 5.3)" width="28.2" xlink:href="#sprite0"/>
    <use height="8.6" transform="matrix(1.2077, 0.0, 0.0, 1.2065, 0.7085, 0.8)" width="35.05" xlink:href="#sprite1"/>
  </g>
  <defs>
    <g id="shape0" transform="matrix(1.0, 0.0, 0.0, 1.0, 0.0, 0.0)">
      <path d="M41.8 2.25 Q44.0 4.45 44.0 7.6 L44.0 36.4 Q44.0 39.6 41.8 41.8 39.6 44.0 36.4 44.0 L7.6 44.0 Q4.45 44.0 2.25 41.8 0.0 39.6 0.0 36.4 L0.0 7.6 Q0.0 4.45 2.25 2.25 4.45 0.0 7.6 0.0 L36.4 0.0 Q39.55 0.0 41.8 2.25" fill="url(#gradient0)" fill-rule="evenodd" stroke="none"/>
      <path d="M40.6 22.05 Q40.6 29.75 35.2 35.2 29.75 40.6 22.05 40.6 14.3 40.6 8.85 35.2 3.4 29.75 3.4 22.05 3.4 14.3 8.85 8.95 14.3 3.5 22.05 3.5 29.75 3.5 35.2 8.95 40.6 14.4 40.6 22.05" fill="url(#gradient1)" fill-rule="evenodd" stroke="none"/>
      <path d="M11.55 19.75 L17.4 20.7 23.55 21.1 24.2 21.1 26.1 19.7 Q24.35 4.35 15.15 11.85 L15.25 11.75 15.1 11.85 15.1 11.9 14.95 12.15 11.55 19.75 M33.0 19.7 Q30.9 19.75 32.35 18.4 L35.45 17.4 33.0 19.7 M14.3 11.05 L14.45 8.3 15.15 10.55 16.05 9.85 Q25.95 2.1 29.95 22.0 L33.75 25.3 29.55 26.1 Q20.25 43.95 11.45 29.4 L9.55 30.95 10.9 28.45 10.4 19.7 10.45 19.4 14.3 11.05 M11.95 28.55 L12.2 28.85 Q19.5 40.4 25.0 26.0 L23.3 24.05 Q17.75 21.45 11.55 19.95 L11.95 28.55 M30.4 31.2 Q29.4 29.35 31.3 30.1 L33.45 32.55 30.4 31.2 M37.35 26.0 L35.45 26.05 Q34.0 25.45 35.55 25.15 L37.35 26.0" fill="#496125" fill-rule="evenodd" stroke="none"/>
      <path d="M33.0 19.7 L35.45 17.4 32.35 18.4 Q30.9 19.75 33.0 19.7 M15.1 11.9 L15.1 11.85 15.25 11.75 15.15 11.85 Q24.35 4.35 26.1 19.7 L24.2 21.1 23.55 21.1 17.4 20.7 11.55 19.75 M10.9 28.45 L9.55 30.95 11.45 29.4 Q20.25 43.95 29.55 26.1 L33.75 25.3 29.95 22.0 Q25.95 2.1 16.05 9.85 L15.15 10.55 14.45 8.3 14.3 11.05 M11.55 19.95 Q17.75 21.45 23.3 24.05 L25.0 26.0 Q19.5 40.4 12.2 28.85 L11.95 28.55 M37.35 26.0 L35.55 25.15 Q34.0 25.45 35.45 26.05 L37.35 26.0 M30.4 31.2 L33.45 32.55 31.3 30.1 Q29.4 29.35 30.4 31.2" fill="none" stroke="#496125" stroke-linecap="round" stroke-linejoin="round" stroke-width="0.05"/>
      <path d="M33.7 10.3 Q28.75 5.45 21.85 5.4 14.95 5.45 10.1 10.3 5.2 15.15 5.15 22.05 5.2 29.0 10.1 33.85 14.95 38.75 21.85 38.75 28.75 38.75 33.7 33.85 38.5 29.0 38.5 22.05 38.5 15.15 33.7 10.3 M40.85 22.05 Q40.85 29.9 35.25 35.4 29.75 41.1 21.85 41.1 13.9 41.1 8.4 35.4 2.85 29.9 2.85 22.05 2.85 14.1 8.4 8.6 13.9 3.0 21.85 3.0 29.75 3.0 35.25 8.6 40.85 14.1 40.85 22.05" fill="url(#gradient2)" fill-rule="evenodd" stroke="none"/>
      <path d="M0.85 32.85 Q1.1 30.5 2.4 29.3 L2.8 27.6 2.7 25.55 2.4 24.5 1.75 23.15 2.8 24.25 3.6 25.5 3.95 26.85 Q4.0 27.75 3.3 29.55 2.7 31.15 2.5 33.35 L2.45 33.05 2.4 33.35 Q1.8 36.15 2.95 38.1 3.55 39.05 4.25 39.55 L3.95 39.1 4.0 39.15 4.3 39.6 Q4.9 40.35 5.75 40.55 6.85 40.7 7.9 39.85 9.1 38.85 8.2 37.55 L8.25 38.4 Q8.0 39.35 6.7 39.8 L5.7 39.95 5.7 39.9 5.6 38.7 Q5.55 36.95 6.95 36.05 8.5 35.1 10.0 36.65 L11.2 38.45 Q11.15 36.6 10.2 35.6 L10.4 35.8 Q11.1 36.55 11.4 37.5 L11.3 37.5 11.5 37.9 11.8 38.75 11.85 39.9 Q10.45 42.8 8.65 42.8 9.95 42.6 10.05 41.4 7.15 42.65 3.65 40.95 1.2 39.0 0.85 32.85" fill="#9ec087" fill-rule="evenodd" stroke="none"/>
      <path d="M2.5 33.35 L2.55 34.65 Q2.9 36.35 3.8 37.55 L3.9 36.95 Q4.6 34.95 7.25 34.4 L9.2 34.85 Q9.75 35.15 10.2 35.6 11.15 36.6 11.2 38.45 L10.0 36.65 Q8.5 35.1 6.95 36.05 5.55 36.95 5.6 38.7 L5.7 39.9 5.7 39.95 6.7 39.8 Q8.0 39.35 8.25 38.4 L8.2 37.55 Q9.1 38.85 7.9 39.85 6.85 40.7 5.75 40.55 4.9 40.35 4.3 39.6 L4.0 39.15 3.95 39.1 4.25 39.55 Q3.55 39.05 2.95 38.1 1.8 36.15 2.4 33.35 L2.5 33.35 M3.95 39.1 L4.1 39.05 4.0 38.85 3.9 38.95 3.95 39.1" fill="#c0d6b1" fill-rule="evenodd" stroke="none"/>
      <path d="M11.85 39.9 Q11.75 41.0 11.1 42.1 10.1 43.9 6.95 43.95 L4.1 43.7 5.6 43.2 7.8 42.95 6.5 43.05 Q4.35 43.0 2.85 41.5 0.95 39.45 0.7 35.35 0.65 33.95 0.85 32.85 1.2 39.0 3.65 40.95 7.15 42.65 10.05 41.4 9.95 42.6 8.65 42.8 10.45 42.8 11.85 39.9" fill="#648a4a" fill-rule="evenodd" stroke="none"/>
      <path d="M2.4 33.35 L2.45 33.05 2.5 33.35 2.4 33.35" fill="#00632e" fill-rule="evenodd" stroke="none"/>
      <path d="M3.95 39.1 L3.9 38.95 4.0 38.85 4.1 39.05 3.95 39.1" fill="#ccbf38" fill-rule="evenodd" stroke="none"/>
      <path d="M11.4 37.5 L11.5 37.9 11.3 37.5 11.4 37.5" fill="url(#gradient3)" fill-rule="evenodd" stroke="none"/>
      <path d="M43.1 32.85 Q42.85 30.5 41.55 29.3 L41.15 27.6 Q41.05 26.6 41.25 25.55 L41.55 24.5 42.2 23.15 41.15 24.25 40.35 25.5 Q40.05 26.15 40.0 26.85 39.95 27.75 40.65 29.55 41.25 31.15 41.45 33.35 L41.5 33.05 41.55 33.35 Q42.15 36.15 41.0 38.1 L39.7 39.55 40.0 39.1 39.95 39.15 39.65 39.6 Q39.05 40.35 38.2 40.55 37.1 40.7 36.05 39.85 34.85 38.85 35.75 37.55 L35.7 38.4 Q35.95 39.35 37.25 39.8 L38.25 39.95 38.25 39.9 38.35 38.7 Q38.4 36.95 37.0 36.05 35.45 35.1 33.95 36.65 L32.75 38.45 Q32.8 36.6 33.75 35.6 L33.55 35.8 Q32.85 36.55 32.55 37.5 L32.65 37.5 32.45 37.9 32.15 38.75 Q32.05 39.35 32.1 39.9 33.5 42.8 35.3 42.8 34.0 42.6 33.9 41.4 36.8 42.65 40.3 40.95 42.75 39.0 43.1 32.85" fill="#9ec087" fill-rule="evenodd" stroke="none"/>
      <path d="M41.45 33.35 L41.4 34.65 Q41.05 36.35 40.15 37.55 L40.05 36.95 Q39.35 34.95 36.7 34.4 L34.75 34.85 33.75 35.6 Q32.8 36.6 32.75 38.45 L33.95 36.65 Q35.45 35.1 37.0 36.05 38.4 36.95 38.35 38.7 L38.25 39.9 38.25 39.95 37.25 39.8 Q35.95 39.35 35.7 38.4 L35.75 37.55 Q34.85 38.85 36.05 39.85 37.1 40.7 38.2 40.55 39.05 40.35 39.65 39.6 L39.95 39.15 40.0 39.1 39.7 39.55 41.0 38.1 Q42.15 36.15 41.55 33.35 L41.45 33.35 M40.0 39.1 L39.85 39.05 39.95 38.85 40.05 38.95 40.0 39.1" fill="#c0d6b1" fill-rule="evenodd" stroke="none"/>
      <path d="M32.1 39.9 Q32.2 41.0 32.85 42.1 33.85 43.9 37.0 43.95 L39.85 43.7 38.35 43.2 36.15 42.95 37.45 43.05 Q39.6 43.0 41.1 41.5 43.0 39.45 43.25 35.35 L43.1 32.85 Q42.75 39.0 40.3 40.95 36.8 42.65 33.9 41.4 34.0 42.6 35.3 42.8 33.5 42.8 32.1 39.9" fill="#648a4a" fill-rule="evenodd" stroke="none"/>
      <path d="M41.55 33.35 L41.5 33.05 41.45 33.35 41.55 33.35" fill="#00632e" fill-rule="evenodd" stroke="none"/>
      <path d="M40.0 39.1 L40.05 38.95 39.95 38.85 39.85 39.05 40.0 39.1" fill="#ccbf38" fill-rule="evenodd" stroke="none"/>
      <path d="M32.55 37.5 L32.45 37.9 32.65 37.5 32.55 37.5" fill="url(#gradient4)" fill-rule="evenodd" stroke="none"/>
    </g>
    <linearGradient gradientTransform="matrix(0.0, -0.0283, -0.0551, 0.0, 22.6, 21.95)" gradientUnits="userSpaceOnUse" id="gradient0" spreadMethod="pad" x1="-819.2" x2="819.2">
      <stop offset="0.011764705882352941" stop-color="#9dae7c"/>
      <stop offset="1.0" stop-color="#7e8f45"/>
    </linearGradient>
    <linearGradient gradientTransform="matrix(0.0, -0.0173, -0.0173, 0.0, 22.0, 18.45)" gradientUnits="userSpaceOnUse" id="gradient1" spreadMethod="pad" x1="-819.2" x2="819.2">
      <stop offset="0.011764705882352941" stop-color="#d3d4b5"/>
      <stop offset="1.0" stop-color="#71a26f"/>
    </linearGradient>
    <linearGradient gradientTransform="matrix(1.0E-4, 0.0223, -0.0232, 1.0E-4, 21.9, 22.3)" gradientUnits="userSpaceOnUse" id="gradient2" spreadMethod="pad" x1="-819.2" x2="819.2">
      <stop offset="0.011764705882352941" stop-color="#516537"/>
      <stop offset="1.0" stop-color="#a8ce99"/>
    </linearGradient>
    <linearGradient gradientTransform="matrix(0.0, -0.0249, -0.0249, 0.0, 6.0, 31.35)" gradientUnits="userSpaceOnUse" id="gradient3" spreadMethod="pad" x1="-819.2" x2="819.2">
      <stop offset="0.011764705882352941" stop-color="#bed9a5"/>
      <stop offset="1.0" stop-color="#739416"/>
    </linearGradient>
    <linearGradient gradientTransform="matrix(0.0, -0.0249, 0.0249, 0.0, 37.9, 31.35)" gradientUnits="userSpaceOnUse" id="gradient4" spreadMethod="pad" x1="-819.2" x2="819.2">
      <stop offset="0.011764705882352941" stop-color="#bed9a5"/>
      <stop offset="1.0" stop-color="#739416"/>
    </linearGradient>
    <g id="sprite0" transform="matrix(1.0, 0.0, 0.0, 1.0, 0.0, 0.0)">
      <use height="20.15" transform="matrix(1.0, 0.0, 0.0, 1.0, 0.0, 0.0)" width="28.2" xlink:href="#shape1"/>
    </g>
    <g id="shape1" transform="matrix(1.0, 0.0, 0.0, 1.0, 0.0, 0.0)">
      <path d="M27.65 18.45 L27.4 18.95 Q26.2 20.8 23.4 19.8 19.6 18.5 17.35 14.05 14.8 9.1 9.75 7.4 4.1 5.65 0.0 10.3 1.0 6.85 3.7 4.15 7.2 0.65 11.9 0.05 L14.8 0.05 18.4 0.65 Q21.55 1.65 24.05 4.15 28.2 8.3 28.2 14.25 28.2 16.45 27.65 18.45" fill="#ffffff" fill-opacity="0.19607843" fill-rule="evenodd" stroke="none"/>
    </g>
    <g id="sprite1" transform="matrix(1.0, 0.0, 0.0, 1.0, 0.2, 0.0)">
      <use height="8.6" transform="matrix(1.0, 0.0, 0.0, 1.0, -0.2, 0.0)" width="35.05" xlink:href="#shape2"/>
    </g>
    <g id="shape2" transform="matrix(1.0, 0.0, 0.0, 1.0, 0.2, 0.0)">
      <path d="M34.4 4.4 Q34.85 5.8 34.85 7.65 L34.85 8.6 Q34.8 6.95 34.4 5.7 33.0 1.3 27.2 1.3 L7.45 1.3 Q0.05 1.3 -0.2 8.5 L-0.2 7.65 Q-0.2 0.0 7.45 0.0 L27.2 0.0 Q33.0 0.0 34.4 4.4" fill="#e7deda" fill-rule="evenodd" stroke="none"/>
    </g>
  </defs>
</svg>
