<?xml version="1.0" encoding="UTF-8" standalone="no"?>
<svg xmlns:xlink="http://www.w3.org/1999/xlink" height="66.0px" width="66.15px" xmlns="http://www.w3.org/2000/svg">
  <g transform="matrix(1.5, 0.0, 0.0, 1.5, 0.15, 0.0)">
    <use height="37.1" transform="matrix(1.0, 0.0, 0.0, 1.0, 3.4, 3.5)" width="37.2" xlink:href="#shape0"/>
    <use height="20.15" transform="matrix(1.1594, 0.0, 0.0, 1.1594, 5.8, 5.25)" width="28.2" xlink:href="#sprite0"/>
    <use height="44.0" transform="matrix(1.0, 0.0, 0.0, 1.0, -0.1, 0.0)" width="44.0" xlink:href="#shape2"/>
    <use height="8.6" transform="matrix(1.2125, 0.0, 0.0, 1.2125, 0.7575, 0.85)" width="35.05" xlink:href="#sprite1"/>
    <use height="40.9" transform="matrix(1.0, 0.0, 0.0, 1.0, 0.0, 3.1)" width="43.9" xlink:href="#shape4"/>
    <use height="20.15" transform="matrix(1.1594, 0.0, 0.0, 1.1594, 5.8, 5.25)" width="28.2" xlink:href="#sprite0"/>
    <use height="44.0" transform="matrix(1.0, 0.0, 0.0, 1.0, 0.0, 0.0)" width="44.0" xlink:href="#shape5"/>
    <use height="8.6" transform="matrix(1.2125, 0.0, 0.0, 1.2125, 0.8575, 0.95)" width="35.05" xlink:href="#sprite1"/>
    <use height="17.95" transform="matrix(1.0, 0.0, 0.0, 1.0, 0.0, 26.05)" width="43.95" xlink:href="#shape6"/>
  </g>
  <defs>
    <g id="shape0" transform="matrix(1.0, 0.0, 0.0, 1.0, -3.4, -3.5)">
      <path d="M3.4 22.05 Q3.4 14.35 8.85 8.95 14.3 3.5 22.05 3.5 29.75 3.5 35.2 8.95 40.6 14.4 40.6 22.05 40.6 29.75 35.2 35.2 29.75 40.6 22.05 40.6 14.3 40.6 8.85 35.2 3.4 29.75 3.4 22.05" fill="url(#gradient0)" fill-rule="evenodd" stroke="none"/>
    </g>
    <linearGradient gradientTransform="matrix(0.0, -0.017, -0.0173, 0.0, 21.0, 26.95)" gradientUnits="userSpaceOnUse" id="gradient0" spreadMethod="pad" x1="-819.2" x2="819.2">
      <stop offset="0.011764705882352941" stop-color="#dad67d"/>
      <stop offset="1.0" stop-color="#cfa451"/>
    </linearGradient>
    <g id="sprite0" transform="matrix(1.0, 0.0, 0.0, 1.0, 0.0, 0.0)">
      <use height="20.15" transform="matrix(1.0, 0.0, 0.0, 1.0, 0.0, 0.0)" width="28.2" xlink:href="#shape1"/>
    </g>
    <g id="shape1" transform="matrix(1.0, 0.0, 0.0, 1.0, 0.0, 0.0)">
      <path d="M27.65 18.45 L27.4 18.95 Q26.2 20.8 23.4 19.8 19.6 18.5 17.35 14.05 14.8 9.1 9.75 7.4 4.1 5.65 0.0 10.3 1.0 6.85 3.7 4.15 7.2 0.65 11.9 0.05 L14.8 0.05 18.4 0.65 Q21.55 1.65 24.05 4.15 28.2 8.3 28.2 14.25 28.2 16.45 27.65 18.45" fill="#ffffff" fill-opacity="0.19607843" fill-rule="evenodd" stroke="none"/>
    </g>
    <g id="shape2" transform="matrix(1.0, 0.0, 0.0, 1.0, 0.1, 0.0)">
      <path d="M43.9 7.6 L43.9 36.4 Q43.9 39.6 41.7 41.8 39.5 44.0 36.3 44.0 L7.5 44.0 Q4.35 44.0 2.15 41.8 -0.1 39.6 -0.1 36.4 L-0.1 7.6 Q-0.1 4.5 2.15 2.3 4.35 0.0 7.5 0.0 L36.3 0.0 Q39.45 0.0 41.7 2.3 43.9 4.5 43.9 7.6 M40.8 22.05 Q40.8 14.1 35.15 8.6 29.65 3.05 21.75 3.05 13.8 3.05 8.3 8.6 2.75 14.1 2.75 22.05 2.75 29.95 8.3 35.45 13.8 41.1 21.75 41.1 29.65 41.1 35.15 35.45 40.8 29.95 40.8 22.05" fill="url(#gradient1)" fill-rule="evenodd" stroke="none"/>
      <path d="M40.8 22.05 Q40.8 29.95 35.15 35.45 29.65 41.1 21.75 41.1 13.8 41.1 8.3 35.45 2.75 29.95 2.75 22.05 2.75 14.1 8.3 8.6 13.8 3.05 21.75 3.05 29.65 3.05 35.15 8.6 40.8 14.1 40.8 22.05 M33.6 10.35 Q28.65 5.45 21.75 5.4 14.85 5.45 10.0 10.35 5.15 15.15 5.05 22.05 5.15 29.0 10.0 33.85 14.85 38.75 21.75 38.75 28.65 38.75 33.6 33.85 38.4 29.0 38.4 22.05 38.4 15.15 33.6 10.35" fill="url(#gradient2)" fill-rule="evenodd" stroke="none"/>
    </g>
    <linearGradient gradientTransform="matrix(0.0, -0.0258, -0.0551, 0.0, 21.75, 21.85)" gradientUnits="userSpaceOnUse" id="gradient1" spreadMethod="pad" x1="-819.2" x2="819.2">
      <stop offset="0.011764705882352941" stop-color="#c79829"/>
      <stop offset="1.0" stop-color="#be7d1e"/>
    </linearGradient>
    <linearGradient gradientTransform="matrix(1.0E-4, 0.0223, -0.0232, 1.0E-4, 21.8, 22.3)" gradientUnits="userSpaceOnUse" id="gradient2" spreadMethod="pad" x1="-819.2" x2="819.2">
      <stop offset="0.011764705882352941" stop-color="#8d5910"/>
      <stop offset="1.0" stop-color="#d9d597"/>
    </linearGradient>
    <g id="sprite1" transform="matrix(1.0, 0.0, 0.0, 1.0, 0.2, 0.0)">
      <use height="8.6" transform="matrix(1.0, 0.0, 0.0, 1.0, -0.2, 0.0)" width="35.05" xlink:href="#shape3"/>
    </g>
    <g id="shape3" transform="matrix(1.0, 0.0, 0.0, 1.0, 0.2, 0.0)">
      <path d="M34.4 4.4 Q34.85 5.8 34.85 7.65 L34.85 8.6 Q34.8 6.95 34.4 5.7 33.0 1.3 27.2 1.3 L7.45 1.3 Q0.05 1.3 -0.2 8.5 L-0.2 7.65 Q-0.2 0.0 7.45 0.0 L27.2 0.0 Q33.0 0.0 34.4 4.4" fill="#e7deda" fill-rule="evenodd" stroke="none"/>
    </g>
    <g id="shape4" transform="matrix(1.0, 0.0, 0.0, 1.0, 0.0, -3.1)">
      <path d="M38.8 27.95 L39.3 26.8 Q39.45 26.45 39.7 26.25 L40.4 26.05 41.0 26.25 41.5 26.85 41.9 27.95 43.05 27.95 43.75 28.2 43.9 28.35 43.9 29.9 43.7 30.1 42.8 30.75 43.2 32.05 43.2 32.75 42.75 33.35 42.05 33.5 41.45 33.3 41.2 33.1 41.15 35.65 43.5 36.65 43.9 36.85 43.55 38.8 43.4 38.85 40.85 39.5 40.6 42.45 40.5 42.75 39.2 43.5 39.0 43.4 38.45 42.95 36.95 40.4 34.2 41.15 33.85 41.15 32.95 41.8 33.35 43.15 33.35 43.85 33.25 44.0 31.1 44.0 30.55 43.6 29.9 44.0 27.7 44.0 27.65 43.75 Q27.5 43.4 27.65 43.05 L28.05 41.8 27.1 41.15 26.7 40.6 26.7 39.85 27.1 39.25 Q27.4 39.0 27.8 39.0 L28.95 39.0 29.45 37.85 29.85 37.35 30.55 37.1 31.15 37.35 31.65 37.9 32.05 39.0 33.2 39.0 34.8 37.05 33.55 34.85 33.35 34.15 33.65 33.45 Q33.9 33.15 34.25 33.1 L34.95 33.15 37.3 34.15 38.0 33.4 37.9 33.3 37.5 32.7 Q37.35 32.35 37.5 32.0 L37.9 30.75 36.95 30.1 36.55 29.5 36.55 28.75 36.95 28.2 Q37.25 27.95 37.65 27.95 L38.8 27.95 M30.65 38.65 L30.35 38.65 29.8 40.2 28.15 40.2 28.1 40.4 29.45 41.35 28.85 43.05 29.0 43.2 30.55 42.15 31.9 43.2 32.15 43.05 31.65 41.35 32.8 40.45 32.75 40.2 31.2 40.2 30.65 38.65 M37.65 35.5 L34.55 34.2 36.25 37.15 33.9 40.0 37.55 39.05 39.45 42.3 39.75 38.55 43.1 37.7 40.0 36.4 40.05 33.0 37.65 35.5 M39.65 29.1 L38.0 29.1 37.95 29.35 39.3 30.25 38.7 32.0 38.9 32.1 40.4 31.05 41.8 32.1 42.0 32.0 41.5 30.25 42.75 29.35 42.65 29.1 41.1 29.1 40.5 27.6 40.2 27.6 39.65 29.1" fill="url(#gradient3)" fill-rule="evenodd" stroke="none"/>
      <path d="M38.55 29.75 L37.65 29.1 39.65 29.1 40.4 27.2 41.1 29.1 43.05 29.1 42.2 29.75 41.1 29.75 40.4 27.85 39.65 29.75 38.55 29.75 M41.5 30.25 L42.1 32.35 41.85 32.2 41.5 30.9 41.5 30.25 M38.9 32.2 L38.6 32.35 39.3 30.25 39.3 30.9 38.9 32.2 M40.0 36.4 L43.1 37.7 42.1 37.95 40.0 37.05 40.0 36.4 M34.55 39.85 L33.9 40.0 36.25 37.15 36.25 37.8 34.55 39.85 M35.0 35.05 L34.55 34.2 37.65 35.5 40.05 33.0 40.05 33.6 37.65 36.1 35.0 35.05 M32.0 43.25 L31.65 41.95 31.65 41.35 32.25 43.4 32.0 43.25 M32.35 40.8 L31.2 40.8 30.55 38.9 29.8 40.8 28.65 40.8 27.8 40.2 29.8 40.2 30.55 38.25 31.2 40.2 33.2 40.2 32.35 40.8 M29.45 41.35 L29.45 41.95 29.0 43.25 28.75 43.4 29.45 41.35" fill="#674512" fill-rule="evenodd" stroke="none"/>
      <path d="M42.2 29.75 L41.5 30.25 41.5 30.9 41.85 32.2 40.4 31.05 38.9 32.2 39.3 30.9 39.3 30.25 38.55 29.75 39.65 29.75 40.4 27.85 41.1 29.75 42.2 29.75 M40.0 36.4 L40.0 37.05 42.1 37.95 39.75 38.55 39.45 42.3 37.55 39.05 34.55 39.85 36.25 37.8 36.25 37.15 35.0 35.05 37.65 36.1 40.05 33.6 40.0 36.4 M31.65 41.35 L31.65 41.95 32.0 43.25 30.55 42.15 29.0 43.25 29.45 41.95 29.45 41.35 28.65 40.8 29.8 40.8 30.55 38.9 31.2 40.8 32.35 40.8 31.65 41.35" fill="#815815" fill-rule="evenodd" stroke="none"/>
      <path d="M5.1 27.95 L4.6 26.8 4.2 26.25 3.5 26.05 2.9 26.25 2.4 26.85 2.0 27.95 0.85 27.95 Q0.45 27.95 0.15 28.2 L0.0 28.35 0.0 29.9 0.2 30.1 1.1 30.75 0.7 32.05 Q0.55 32.4 0.7 32.75 L1.15 33.35 1.85 33.5 2.45 33.3 2.7 33.1 2.75 35.65 0.4 36.65 Q0.15 36.7 0.0 36.85 L0.35 38.8 0.5 38.85 3.05 39.5 3.3 42.45 3.4 42.75 4.7 43.5 4.9 43.4 5.45 42.95 6.95 40.4 9.7 41.15 10.05 41.15 10.95 41.8 10.55 43.15 Q10.4 43.5 10.55 43.85 L10.65 44.0 12.8 44.0 13.35 43.6 14.0 44.0 16.2 44.0 16.25 43.75 16.25 43.05 15.85 41.8 16.8 41.15 17.2 40.6 17.2 39.85 16.8 39.25 Q16.5 39.0 16.1 39.0 L14.95 39.0 14.45 37.85 14.05 37.35 Q13.7 37.1 13.35 37.1 13.0 37.1 12.75 37.35 L12.25 37.9 11.85 39.0 10.7 39.0 9.1 37.05 10.35 34.85 10.55 34.15 10.25 33.45 Q10.0 33.15 9.65 33.1 L8.95 33.15 6.6 34.15 5.9 33.4 6.0 33.3 6.4 32.7 6.4 32.0 6.0 30.75 6.95 30.1 7.35 29.5 7.35 28.75 6.95 28.2 6.25 27.95 5.1 27.95 M13.25 38.65 L13.55 38.65 14.1 40.2 15.75 40.2 15.8 40.4 14.45 41.35 15.05 43.05 14.9 43.2 13.35 42.15 12.0 43.2 11.75 43.05 12.25 41.35 11.1 40.45 11.15 40.2 12.7 40.2 13.25 38.65 M6.25 35.5 L9.35 34.2 7.65 37.15 10.0 40.0 6.35 39.05 4.45 42.3 4.15 38.55 0.8 37.7 3.9 36.4 3.85 33.0 6.25 35.5 M4.25 29.1 L5.9 29.1 5.95 29.35 4.6 30.25 5.2 32.0 5.0 32.1 3.5 31.05 2.1 32.1 1.9 32.0 2.4 30.25 1.15 29.35 1.25 29.1 2.8 29.1 3.4 27.6 3.7 27.6 4.25 29.1" fill="url(#gradient4)" fill-rule="evenodd" stroke="none"/>
      <path d="M5.35 29.75 L6.25 29.1 4.25 29.1 3.5 27.2 2.8 29.1 0.85 29.1 1.7 29.75 2.8 29.75 3.5 27.85 4.25 29.75 5.35 29.75 M2.4 30.25 L1.8 32.35 2.05 32.2 2.4 30.9 2.4 30.25 M5.0 32.2 L5.3 32.35 4.6 30.25 4.6 30.9 5.0 32.2 M3.9 36.4 L0.8 37.7 1.8 37.95 3.9 37.05 3.9 36.4 M9.35 39.85 L10.0 40.0 7.65 37.15 7.65 37.8 9.35 39.85 M8.9 35.05 L9.35 34.2 6.25 35.5 3.85 33.0 3.85 33.6 6.25 36.1 8.9 35.05 M15.25 40.8 L16.1 40.2 14.1 40.2 13.35 38.25 12.7 40.2 10.7 40.2 11.55 40.8 12.7 40.8 13.35 38.9 14.1 40.8 15.25 40.8 M12.25 41.35 L11.65 43.4 11.9 43.25 12.25 41.95 12.25 41.35 M14.9 43.25 L15.15 43.4 14.45 41.35 14.45 41.95 14.9 43.25" fill="#674512" fill-rule="evenodd" stroke="none"/>
      <path d="M1.7 29.75 L2.4 30.25 2.4 30.9 2.05 32.2 Q2.75 31.65 3.5 31.05 L5.0 32.2 4.6 30.9 4.6 30.25 5.35 29.75 4.25 29.75 3.5 27.85 2.8 29.75 1.7 29.75 M3.9 36.4 L3.9 37.05 1.8 37.95 4.15 38.55 4.45 42.3 6.35 39.05 9.35 39.85 7.65 37.8 7.65 37.15 8.9 35.05 6.25 36.1 3.85 33.6 3.9 36.4 M11.55 40.8 L12.25 41.35 12.25 41.95 11.9 43.25 13.35 42.15 14.9 43.25 14.45 41.95 14.45 41.35 15.25 40.8 14.1 40.8 13.35 38.9 12.7 40.8 11.55 40.8" fill="#815815" fill-rule="evenodd" stroke="none"/>
      <path d="M35.35 8.55 Q40.75 14.0 40.75 21.65 40.75 29.35 35.35 34.8 29.9 40.2 22.2 40.2 14.45 40.2 9.0 34.8 3.55 29.35 3.55 21.65 3.55 13.95 9.0 8.55 14.45 3.1 22.2 3.1 29.9 3.1 35.35 8.55" fill="url(#gradient5)" fill-rule="evenodd" stroke="none"/>
      <path d="M27.15 19.95 L36.75 23.8 27.3 26.9 28.0 24.35 18.65 24.15 14.0 26.5 13.75 24.6 10.3 26.5 9.9 24.95 6.25 26.1 9.15 22.9 6.1 19.55 9.55 20.25 9.55 19.15 13.1 21.3 13.25 19.55 18.6 22.25 28.1 22.5 27.15 20.0 27.15 19.95 M17.45 30.65 L17.7 30.9 17.75 31.3 16.75 33.75 16.45 34.0 16.1 34.05 15.8 33.75 15.8 33.4 16.8 30.95 17.05 30.65 17.45 30.65 M15.65 29.35 Q15.75 29.2 16.0 29.2 L16.35 29.35 16.5 29.7 16.4 30.05 15.1 31.4 14.75 31.55 14.35 31.45 14.2 31.1 14.35 30.7 15.65 29.35 M15.5 28.6 L15.2 28.85 12.2 29.75 11.85 29.7 11.6 29.4 11.6 29.05 11.9 28.8 14.9 27.9 15.3 27.9 15.55 28.2 15.5 28.6 M10.5 16.2 L10.9 16.15 13.9 17.0 14.2 17.2 14.25 17.6 14.0 17.9 13.65 17.95 10.65 17.1 10.35 16.85 10.3 16.5 10.5 16.2 M13.1 15.15 L12.95 14.8 Q12.95 14.55 13.1 14.45 13.25 14.3 13.5 14.3 L13.85 14.45 15.1 15.8 15.2 16.2 15.05 16.55 14.7 16.65 14.35 16.5 13.1 15.15 M15.2 11.85 L15.45 12.1 16.45 14.55 16.45 14.95 16.2 15.2 15.8 15.2 15.55 14.95 14.55 12.5 14.55 12.1 Q14.6 11.9 14.8 11.85 L15.2 11.85 M25.75 15.35 L23.4 12.95 22.95 14.8 19.9 13.1 19.85 16.65 18.45 14.8 14.35 5.95 17.15 4.95 20.55 4.25 25.75 15.35 M24.55 31.95 L27.35 29.4 27.8 38.5 23.4 39.45 20.85 39.75 20.85 31.75 22.05 33.35 23.35 29.25 24.55 31.95" fill="#664411" fill-rule="evenodd" stroke="none"/>
    </g>
    <linearGradient gradientTransform="matrix(0.0, -0.0257, -0.0551, 0.0, 21.75, 21.75)" gradientUnits="userSpaceOnUse" id="gradient3" spreadMethod="pad" x1="-819.2" x2="819.2">
      <stop offset="0.011764705882352941" stop-color="#c79829"/>
      <stop offset="1.0" stop-color="#be7d1e"/>
    </linearGradient>
    <linearGradient gradientTransform="matrix(0.0, -0.0257, 0.0551, 0.0, 22.1, 21.75)" gradientUnits="userSpaceOnUse" id="gradient4" spreadMethod="pad" x1="-819.2" x2="819.2">
      <stop offset="0.011764705882352941" stop-color="#c79829"/>
      <stop offset="1.0" stop-color="#be7d1e"/>
    </linearGradient>
    <linearGradient gradientTransform="matrix(0.0056, 0.0, 0.0, 0.0043, -24.4, 41.35)" gradientUnits="userSpaceOnUse" id="gradient5" spreadMethod="pad" x1="-819.2" x2="819.2">
      <stop offset="0.011764705882352941" stop-color="#c79829"/>
      <stop offset="1.0" stop-color="#be7d1e"/>
    </linearGradient>
    <g id="shape5" transform="matrix(1.0, 0.0, 0.0, 1.0, 0.0, 0.0)">
      <path d="M41.8 2.3 Q44.0 4.5 44.0 7.6 L44.0 36.4 Q44.0 39.6 41.8 41.8 39.6 44.0 36.4 44.0 L7.6 44.0 Q4.45 44.0 2.25 41.8 0.0 39.6 0.0 36.4 L0.0 7.6 Q0.0 4.5 2.25 2.3 4.45 0.0 7.6 0.0 L36.4 0.0 Q39.55 0.0 41.8 2.3 M40.85 22.05 Q40.85 14.1 35.25 8.6 29.75 3.05 21.85 3.05 13.9 3.05 8.4 8.6 2.85 14.1 2.85 22.05 2.85 29.95 8.4 35.45 13.9 41.1 21.85 41.1 29.75 41.1 35.25 35.45 40.85 29.95 40.85 22.05" fill="url(#gradient6)" fill-rule="evenodd" stroke="none"/>
      <path d="M40.85 22.05 Q40.85 29.95 35.25 35.45 29.75 41.1 21.85 41.1 13.9 41.1 8.4 35.45 2.85 29.95 2.85 22.05 2.85 14.1 8.4 8.6 13.9 3.05 21.85 3.05 29.75 3.05 35.25 8.6 40.85 14.1 40.85 22.05 M33.7 10.35 Q28.75 5.45 21.85 5.4 14.95 5.45 10.1 10.35 5.2 15.15 5.15 22.05 5.2 29.0 10.1 33.85 14.95 38.75 21.85 38.75 28.75 38.75 33.7 33.85 38.5 29.0 38.5 22.05 38.5 15.15 33.7 10.35" fill="url(#gradient7)" fill-rule="evenodd" stroke="none"/>
    </g>
    <linearGradient gradientTransform="matrix(0.0, -0.0258, -0.0551, 0.0, 21.85, 21.85)" gradientUnits="userSpaceOnUse" id="gradient6" spreadMethod="pad" x1="-819.2" x2="819.2">
      <stop offset="0.011764705882352941" stop-color="#dad67d"/>
      <stop offset="1.0" stop-color="#cfa451"/>
    </linearGradient>
    <linearGradient gradientTransform="matrix(0.0, 0.0059, -0.0232, 0.0, 21.85, 18.4)" gradientUnits="userSpaceOnUse" id="gradient7" spreadMethod="pad" x1="-819.2" x2="819.2">
      <stop offset="0.011764705882352941" stop-color="#8d5910"/>
      <stop offset="1.0" stop-color="#d9d597"/>
    </linearGradient>
    <g id="shape6" transform="matrix(1.0, 0.0, 0.0, 1.0, 0.0, -26.05)">
      <path d="M39.65 29.15 L38.05 29.15 37.95 29.35 39.3 30.3 38.75 32.0 38.9 32.15 40.4 31.1 41.8 32.15 42.05 32.0 41.5 30.3 42.8 29.35 42.65 29.15 41.1 29.15 40.5 27.6 40.25 27.6 39.65 29.15 M38.85 27.95 L39.3 26.8 39.7 26.3 Q40.05 26.05 40.4 26.05 L41.05 26.3 41.5 26.85 41.9 27.95 43.05 27.95 43.75 28.2 43.95 28.35 43.95 29.95 43.7 30.1 42.85 30.75 43.25 32.1 43.25 32.8 42.8 33.35 42.1 33.55 41.45 33.3 41.2 33.15 41.15 35.7 43.55 36.65 Q43.75 36.7 43.95 36.9 L43.6 38.8 43.4 38.85 40.85 39.5 40.65 42.45 40.5 42.75 39.25 43.5 39.0 43.45 38.5 43.0 37.0 40.45 34.2 41.2 33.85 41.2 33.0 41.8 33.4 43.15 33.4 43.85 33.3 44.0 31.15 44.0 30.55 43.6 29.9 44.0 27.7 44.0 27.65 43.8 27.65 43.1 28.05 41.8 27.15 41.2 26.75 40.6 Q26.6 40.2 26.75 39.85 L27.15 39.25 27.85 39.05 29.0 39.05 29.45 37.9 Q29.6 37.55 29.85 37.35 L30.55 37.15 31.2 37.35 31.65 37.95 32.05 39.05 33.2 39.05 34.85 37.05 33.55 34.85 33.4 34.15 33.7 33.45 Q33.9 33.2 34.25 33.15 L34.95 33.2 37.35 34.15 38.05 33.4 37.9 33.3 37.5 32.7 37.5 32.0 37.9 30.75 37.0 30.1 36.6 29.55 Q36.45 29.15 36.6 28.8 L37.0 28.2 Q37.3 27.95 37.7 27.95 L38.85 27.95 M37.7 35.5 L34.55 34.25 36.3 37.2 33.9 40.0 37.55 39.1 39.5 42.35 39.75 38.6 43.15 37.7 40.0 36.45 40.05 33.0 37.7 35.5 M30.65 38.7 L30.4 38.7 29.8 40.2 28.2 40.2 28.1 40.45 29.45 41.35 28.85 43.1 29.05 43.2 30.55 42.15 31.95 43.2 32.2 43.1 31.65 41.35 32.8 40.5 32.75 40.2 31.25 40.2 30.65 38.7" fill="#d1ae5a" fill-rule="evenodd" stroke="none"/>
      <path d="M38.55 29.75 L37.7 29.15 39.65 29.15 40.4 27.2 41.1 29.15 43.05 29.15 42.2 29.75 41.1 29.75 40.4 27.85 39.65 29.75 38.55 29.75 M41.5 30.3 L42.15 32.35 41.85 32.2 41.5 30.9 41.5 30.3 M38.9 32.2 L38.6 32.35 39.3 30.3 39.3 30.9 38.9 32.2 M40.0 36.45 L43.15 37.7 42.15 38.0 40.0 37.05 40.0 36.45 M34.55 39.85 L33.9 40.0 36.3 37.2 36.3 37.8 34.55 39.85 M35.0 35.1 L34.55 34.25 37.7 35.5 40.05 33.0 40.05 33.65 37.7 36.15 35.0 35.1 M32.35 40.85 L31.25 40.85 30.55 38.9 29.8 40.85 28.7 40.85 27.85 40.2 29.8 40.2 30.55 38.3 31.25 40.2 33.2 40.2 32.35 40.85 M29.45 41.35 L29.45 42.0 29.05 43.25 28.75 43.45 29.45 41.35 M32.0 43.25 L31.65 42.0 31.65 41.35 32.3 43.45 32.0 43.25" fill="#674512" fill-rule="evenodd" stroke="none"/>
      <path d="M42.2 29.75 L41.5 30.3 41.5 30.9 41.85 32.2 40.4 31.1 38.9 32.2 39.3 30.9 39.3 30.3 38.55 29.75 39.65 29.75 40.4 27.85 41.1 29.75 42.2 29.75 M40.0 36.45 L40.0 37.05 42.15 38.0 39.75 38.6 39.5 42.35 37.55 39.1 34.55 39.85 36.3 37.8 36.3 37.2 35.0 35.1 37.7 36.15 40.05 33.65 40.0 36.45 M32.35 40.85 L31.65 41.35 31.65 42.0 32.0 43.25 30.55 42.15 29.05 43.25 29.45 42.0 29.45 41.35 28.7 40.85 29.8 40.85 30.55 38.9 31.25 40.85 32.35 40.85" fill="#815815" fill-rule="evenodd" stroke="none"/>
      <path d="M10.25 33.45 L10.55 34.15 10.4 34.85 9.1 37.05 10.75 39.05 11.9 39.05 12.3 37.95 Q12.4 37.55 12.75 37.35 L13.4 37.15 14.1 37.35 14.5 37.9 14.95 39.05 16.1 39.05 16.8 39.25 17.2 39.85 17.2 40.6 16.8 41.2 15.9 41.8 16.3 43.1 16.3 43.8 16.25 44.0 14.05 44.0 13.4 43.6 12.8 44.0 10.65 44.0 10.55 43.85 10.55 43.15 10.95 41.8 10.1 41.2 9.75 41.2 6.95 40.45 5.45 43.0 4.95 43.45 4.7 43.5 3.45 42.75 3.3 42.45 3.1 39.5 0.55 38.85 0.35 38.8 0.0 36.9 0.4 36.65 2.8 35.7 2.75 33.15 2.5 33.3 1.85 33.55 Q1.45 33.55 1.15 33.35 L0.7 32.8 0.7 32.1 1.1 30.75 0.25 30.1 0.0 29.95 0.0 28.35 0.2 28.2 0.9 27.95 2.05 27.95 2.45 26.85 Q2.55 26.45 2.9 26.3 L3.55 26.05 Q3.9 26.05 4.25 26.3 L4.65 26.8 5.1 27.95 6.25 27.95 6.95 28.2 7.35 28.8 7.35 29.55 6.95 30.1 6.05 30.75 6.45 32.0 6.45 32.7 6.05 33.3 5.9 33.4 6.6 34.15 9.0 33.2 9.7 33.15 10.25 33.45 M11.15 40.5 L12.3 41.35 11.75 43.1 12.0 43.2 13.4 42.15 14.9 43.2 15.1 43.1 14.5 41.35 15.85 40.45 15.75 40.2 14.15 40.2 13.55 38.7 13.3 38.7 12.7 40.2 11.2 40.2 11.15 40.5 M3.7 27.6 L3.45 27.6 2.85 29.15 1.3 29.15 1.15 29.35 2.45 30.3 1.9 32.0 2.15 32.15 3.55 31.1 5.05 32.15 5.2 32.0 4.65 30.3 6.0 29.35 5.9 29.15 4.3 29.15 3.7 27.6 M4.2 38.6 L4.45 42.35 6.4 39.1 10.05 40.0 7.65 37.2 9.4 34.25 6.25 35.5 3.9 33.0 3.95 36.45 0.8 37.7 4.2 38.6" fill="#d1ae5a" fill-rule="evenodd" stroke="none"/>
      <path d="M12.3 41.35 L11.6 40.85 12.7 40.85 13.4 38.9 14.15 40.85 15.25 40.85 14.5 41.35 14.5 42.0 14.9 43.25 13.4 42.15 11.95 43.25 12.3 42.0 12.3 41.35 M1.75 29.75 L2.85 29.75 3.55 27.85 4.3 29.75 5.4 29.75 4.65 30.3 4.65 30.9 5.05 32.2 3.55 31.1 2.1 32.2 2.45 30.9 2.45 30.3 1.75 29.75 M8.95 35.1 L7.65 37.2 7.65 37.8 9.4 39.85 6.4 39.1 4.45 42.35 4.2 38.6 1.8 38.0 3.95 37.05 3.95 36.45 3.9 33.65 6.25 36.15 8.95 35.1" fill="#815815" fill-rule="evenodd" stroke="none"/>
      <path d="M11.6 40.85 L10.75 40.2 12.7 40.2 13.4 38.3 14.15 40.2 16.1 40.2 15.25 40.85 14.15 40.85 13.4 38.9 12.7 40.85 11.6 40.85 M14.5 41.35 L15.2 43.45 14.9 43.25 14.5 42.0 14.5 41.35 M11.95 43.25 L11.65 43.45 12.3 41.35 12.3 42.0 11.95 43.25 M1.75 29.75 L0.9 29.15 2.85 29.15 3.55 27.2 4.3 29.15 6.25 29.15 5.4 29.75 4.3 29.75 3.55 27.85 2.85 29.75 1.75 29.75 M4.65 30.3 L5.35 32.35 5.05 32.2 4.65 30.9 4.65 30.3 M2.1 32.2 L1.8 32.35 2.45 30.3 2.45 30.9 2.1 32.2 M3.9 33.65 L3.9 33.0 6.25 35.5 9.4 34.25 8.95 35.1 6.25 36.15 3.9 33.65 M7.65 37.2 L10.05 40.0 9.4 39.85 7.65 37.8 7.65 37.2 M1.8 38.0 L0.8 37.7 3.95 36.45 3.95 37.05 1.8 38.0" fill="#674512" fill-rule="evenodd" stroke="none"/>
    </g>
  </defs>
</svg>
