<?xml version="1.0" encoding="UTF-8" standalone="no"?>
<svg xmlns:xlink="http://www.w3.org/1999/xlink" height="66.0px" width="66.45px" xmlns="http://www.w3.org/2000/svg">
  <g transform="matrix(1.5, 0.0, 0.0, 1.5, 0.45, 0.0)">
    <use height="37.1" transform="matrix(1.0, 0.0, 0.0, 1.0, 3.4, 3.5)" width="37.2" xlink:href="#shape0"/>
    <use height="20.15" transform="matrix(1.1594, 0.0, 0.0, 1.1594, 5.8, 5.25)" width="28.2" xlink:href="#sprite0"/>
    <use height="44.0" transform="matrix(1.0, 0.0, 0.0, 1.0, -0.3, 0.0)" width="44.0" xlink:href="#shape2"/>
    <use height="8.6" transform="matrix(1.2124, 0.0, 0.0, 1.2124, 0.6575, 0.65)" width="35.05" xlink:href="#sprite1"/>
    <use height="40.85" transform="matrix(1.0, 0.0, 0.0, 1.0, -0.05, 3.1)" width="43.9" xlink:href="#shape4"/>
    <use height="20.15" transform="matrix(1.1594, 0.0, 0.0, 1.1594, 5.8, 5.25)" width="28.2" xlink:href="#sprite0"/>
    <use height="44.0" transform="matrix(1.0, 0.0, 0.0, 1.0, 0.0, 0.0)" width="44.0" xlink:href="#shape5"/>
    <use height="8.6" transform="matrix(1.2125, 0.0, 0.0, 1.2125, 0.8575, 0.95)" width="35.05" xlink:href="#sprite1"/>
    <use height="17.95" transform="matrix(1.0, 0.0, 0.0, 1.0, 0.0, 26.05)" width="43.95" xlink:href="#shape6"/>
  </g>
  <defs>
    <g id="shape0" transform="matrix(1.0, 0.0, 0.0, 1.0, -3.4, -3.5)">
      <path d="M3.4 22.05 Q3.4 14.35 8.85 8.95 14.3 3.5 22.05 3.5 29.75 3.5 35.2 8.95 40.6 14.4 40.6 22.05 40.6 29.75 35.2 35.2 29.75 40.6 22.05 40.6 14.3 40.6 8.85 35.2 3.4 29.75 3.4 22.05" fill="url(#gradient0)" fill-rule="evenodd" stroke="none"/>
    </g>
    <linearGradient gradientTransform="matrix(0.0, -0.017, -0.0173, 0.0, 21.0, 26.95)" gradientUnits="userSpaceOnUse" id="gradient0" spreadMethod="pad" x1="-819.2" x2="819.2">
      <stop offset="0.011764705882352941" stop-color="#dad67d"/>
      <stop offset="1.0" stop-color="#cfa451"/>
    </linearGradient>
    <g id="sprite0" transform="matrix(1.0, 0.0, 0.0, 1.0, 0.0, 0.0)">
      <use height="20.15" transform="matrix(1.0, 0.0, 0.0, 1.0, 0.0, 0.0)" width="28.2" xlink:href="#shape1"/>
    </g>
    <g id="shape1" transform="matrix(1.0, 0.0, 0.0, 1.0, 0.0, 0.0)">
      <path d="M27.65 18.45 L27.4 18.95 Q26.2 20.8 23.4 19.8 19.6 18.5 17.35 14.05 14.8 9.1 9.75 7.4 4.1 5.65 0.0 10.3 1.0 6.85 3.7 4.15 7.2 0.65 11.9 0.05 L14.8 0.05 18.4 0.65 Q21.55 1.65 24.05 4.15 28.2 8.3 28.2 14.25 28.2 16.45 27.65 18.45" fill="#ffffff" fill-opacity="0.19607843" fill-rule="evenodd" stroke="none"/>
    </g>
    <g id="shape2" transform="matrix(1.0, 0.0, 0.0, 1.0, 0.3, 0.0)">
      <path d="M43.7 7.6 L43.7 36.4 Q43.7 39.6 41.5 41.8 39.3 44.0 36.15 44.0 L7.3 44.0 Q4.2 44.0 2.0 41.8 -0.3 39.6 -0.3 36.4 L-0.3 7.6 Q-0.3 4.45 2.0 2.25 4.2 0.0 7.3 0.0 L36.15 0.0 Q39.25 0.0 41.5 2.25 43.7 4.45 43.7 7.6 M40.6 22.05 Q40.6 14.1 34.95 8.6 29.45 3.0 21.6 3.0 13.65 3.0 8.15 8.6 2.55 14.1 2.55 22.05 2.55 29.9 8.15 35.45 13.65 41.1 21.6 41.1 29.45 41.1 34.95 35.45 40.6 29.9 40.6 22.05" fill="url(#gradient1)" fill-rule="evenodd" stroke="none"/>
      <path d="M40.6 22.05 Q40.6 29.9 34.95 35.45 29.45 41.1 21.6 41.1 13.65 41.1 8.15 35.45 2.55 29.9 2.55 22.05 2.55 14.1 8.15 8.6 13.65 3.0 21.6 3.0 29.45 3.0 34.95 8.6 40.6 14.1 40.6 22.05 M33.4 10.35 Q28.5 5.45 21.6 5.4 14.7 5.45 9.8 10.35 4.95 15.15 4.9 22.05 4.95 29.0 9.8 33.85 14.7 38.75 21.6 38.75 28.5 38.75 33.4 33.85 38.2 29.0 38.2 22.05 38.2 15.15 33.4 10.35" fill="url(#gradient2)" fill-rule="evenodd" stroke="none"/>
    </g>
    <linearGradient gradientTransform="matrix(0.0, -0.0257, -0.0551, 0.0, 21.55, 21.85)" gradientUnits="userSpaceOnUse" id="gradient1" spreadMethod="pad" x1="-819.2" x2="819.2">
      <stop offset="0.011764705882352941" stop-color="#c79829"/>
      <stop offset="1.0" stop-color="#be7d1e"/>
    </linearGradient>
    <linearGradient gradientTransform="matrix(1.0E-4, 0.0223, -0.0232, 1.0E-4, 21.6, 22.3)" gradientUnits="userSpaceOnUse" id="gradient2" spreadMethod="pad" x1="-819.2" x2="819.2">
      <stop offset="0.011764705882352941" stop-color="#8d5910"/>
      <stop offset="1.0" stop-color="#d9d597"/>
    </linearGradient>
    <g id="sprite1" transform="matrix(1.0, 0.0, 0.0, 1.0, 0.2, 0.0)">
      <use height="8.6" transform="matrix(1.0, 0.0, 0.0, 1.0, -0.2, 0.0)" width="35.05" xlink:href="#shape3"/>
    </g>
    <g id="shape3" transform="matrix(1.0, 0.0, 0.0, 1.0, 0.2, 0.0)">
      <path d="M34.4 4.4 Q34.85 5.8 34.85 7.65 L34.85 8.6 Q34.8 6.95 34.4 5.7 33.0 1.3 27.2 1.3 L7.45 1.3 Q0.05 1.3 -0.2 8.5 L-0.2 7.65 Q-0.2 0.0 7.45 0.0 L27.2 0.0 Q33.0 0.0 34.4 4.4" fill="#e7deda" fill-rule="evenodd" stroke="none"/>
    </g>
    <g id="shape4" transform="matrix(1.0, 0.0, 0.0, 1.0, 0.05, -3.1)">
      <path d="M38.75 27.9 L39.25 26.75 39.65 26.2 40.35 26.0 41.0 26.2 41.45 26.8 41.85 27.9 43.0 27.9 43.7 28.15 43.85 28.3 43.85 29.85 43.65 30.05 42.75 30.7 43.2 32.0 43.2 32.7 42.7 33.3 42.0 33.45 41.4 33.25 41.15 33.05 41.1 35.6 43.45 36.6 Q43.7 36.65 43.85 36.85 L43.55 38.75 43.35 38.8 40.8 39.45 40.55 42.4 40.45 42.7 39.2 43.45 38.95 43.4 38.4 42.9 36.9 40.35 34.15 41.1 33.8 41.1 32.9 41.75 33.3 43.1 33.3 43.8 33.2 43.95 31.05 43.95 30.5 43.55 29.85 43.95 27.65 43.95 27.6 43.7 Q27.45 43.4 27.6 43.05 L28.0 41.75 27.05 41.1 26.65 40.55 26.65 39.8 27.05 39.2 Q27.35 38.95 27.75 38.95 L28.9 38.95 29.4 37.8 29.8 37.3 30.5 37.05 Q30.85 37.05 31.1 37.3 L31.6 37.85 32.0 38.95 33.15 38.95 34.75 37.0 33.5 34.8 33.3 34.1 33.6 33.4 34.2 33.05 34.9 33.1 37.25 34.1 37.95 33.35 37.85 33.25 37.45 32.65 Q37.3 32.3 37.45 31.95 L37.85 30.7 36.9 30.05 36.5 29.45 36.5 28.7 36.9 28.15 Q37.2 27.9 37.6 27.9 L38.75 27.9 M30.6 38.6 L30.3 38.6 29.75 40.15 28.1 40.15 28.05 40.35 29.4 41.3 28.8 43.05 29.0 43.15 30.5 42.1 31.9 43.15 32.1 43.05 31.6 41.3 32.75 40.4 32.7 40.15 31.2 40.15 30.6 38.6 M37.6 35.45 L34.5 34.15 36.2 37.1 33.85 39.95 37.5 39.05 39.4 42.25 39.7 38.5 43.05 37.65 39.95 36.35 40.0 32.95 37.6 35.45 M39.6 29.05 L37.95 29.05 37.9 29.3 39.25 30.2 38.65 31.95 38.85 32.05 40.35 31.05 41.75 32.05 41.95 31.95 41.45 30.2 42.7 29.3 42.6 29.05 41.05 29.05 40.45 27.55 40.15 27.55 39.6 29.05" fill="url(#gradient3)" fill-rule="evenodd" stroke="none"/>
      <path d="M38.5 29.7 L37.6 29.05 39.6 29.05 40.35 27.15 41.05 29.05 43.0 29.05 42.15 29.7 41.05 29.7 40.35 27.8 39.6 29.7 38.5 29.7 M41.45 30.2 L42.1 32.3 41.8 32.15 41.45 30.85 41.45 30.2 M38.85 32.15 L38.55 32.3 39.25 30.2 39.25 30.85 38.85 32.15 M39.95 36.35 L43.05 37.65 42.1 37.95 39.95 37.0 39.95 36.35 M34.5 39.8 L33.85 39.95 36.2 37.1 36.2 37.75 34.5 39.8 M34.95 35.05 L34.5 34.15 37.6 35.45 40.0 32.95 40.0 33.6 37.6 36.05 34.95 35.05 M28.65 40.75 L27.75 40.15 29.75 40.15 30.5 38.2 31.2 40.15 33.15 40.15 32.3 40.75 31.2 40.75 30.5 38.85 29.75 40.75 28.65 40.75 M31.6 41.3 L32.2 43.4 31.95 43.2 31.6 41.95 31.6 41.3 M29.0 43.2 L28.7 43.4 29.4 41.3 29.4 41.95 29.0 43.2" fill="#674512" fill-rule="evenodd" stroke="none"/>
      <path d="M42.15 29.7 L41.45 30.2 41.45 30.85 41.8 32.15 40.35 31.05 38.85 32.15 39.25 30.85 39.25 30.2 38.5 29.7 39.6 29.7 40.35 27.8 41.05 29.7 42.15 29.7 M39.95 36.35 L39.95 37.0 42.1 37.95 39.7 38.5 39.4 42.25 37.5 39.05 34.5 39.8 36.2 37.75 36.2 37.1 34.95 35.05 37.6 36.05 40.0 33.6 39.95 36.35 M32.3 40.75 L31.6 41.3 31.6 41.95 31.95 43.2 30.5 42.1 29.0 43.2 29.4 41.95 29.4 41.3 28.65 40.75 29.75 40.75 30.5 38.85 31.2 40.75 32.3 40.75" fill="#815815" fill-rule="evenodd" stroke="none"/>
      <path d="M5.05 27.9 L4.55 26.75 4.15 26.2 3.45 26.0 2.8 26.2 2.35 26.8 1.95 27.9 0.8 27.9 Q0.4 27.9 0.1 28.15 L-0.05 28.3 -0.05 29.85 0.15 30.05 1.05 30.7 0.6 32.0 0.6 32.7 1.1 33.3 1.8 33.45 2.4 33.25 2.65 33.05 2.7 35.6 0.35 36.6 Q0.1 36.65 -0.05 36.85 L0.25 38.75 0.45 38.8 3.0 39.45 3.25 42.4 3.35 42.7 4.6 43.45 4.85 43.4 5.4 42.9 6.9 40.35 9.65 41.1 10.0 41.1 10.9 41.75 10.5 43.1 Q10.35 43.45 10.5 43.8 L10.6 43.95 12.75 43.95 13.3 43.55 13.95 43.95 16.15 43.95 16.2 43.7 16.2 43.05 15.8 41.75 16.75 41.1 17.15 40.55 17.15 39.8 16.75 39.2 16.05 38.95 14.9 38.95 14.4 37.8 14.0 37.3 Q13.65 37.05 13.3 37.05 12.95 37.05 12.7 37.3 L12.2 37.85 11.8 38.95 10.65 38.95 9.05 37.0 10.3 34.8 10.5 34.1 10.2 33.4 9.6 33.05 8.9 33.1 6.55 34.1 5.85 33.35 5.95 33.25 6.35 32.65 6.35 31.95 5.95 30.7 6.9 30.05 7.3 29.45 7.3 28.7 6.9 28.15 Q6.6 27.9 6.2 27.9 L5.05 27.9 M13.2 38.6 L13.5 38.6 14.05 40.15 15.7 40.15 15.75 40.35 14.4 41.3 15.0 43.05 14.8 43.15 13.3 42.1 11.9 43.15 11.7 43.05 12.2 41.3 11.05 40.4 11.1 40.15 12.6 40.15 13.2 38.6 M6.2 35.45 L9.3 34.15 7.6 37.1 9.95 39.95 6.3 39.05 4.4 42.25 4.1 38.5 0.75 37.65 3.85 36.35 3.8 32.95 6.2 35.45 M4.2 29.05 L5.85 29.05 5.9 29.3 4.55 30.2 5.15 31.95 4.95 32.05 3.45 31.05 2.05 32.05 1.85 31.95 2.35 30.2 1.1 29.3 1.2 29.05 2.75 29.05 3.35 27.55 3.65 27.55 4.2 29.05" fill="url(#gradient4)" fill-rule="evenodd" stroke="none"/>
      <path d="M5.3 29.7 L6.2 29.05 4.2 29.05 3.45 27.15 2.75 29.05 0.8 29.05 1.65 29.7 2.75 29.7 3.45 27.8 4.2 29.7 5.3 29.7 M2.35 30.2 L1.7 32.3 2.0 32.15 2.35 30.85 2.35 30.2 M4.95 32.15 L5.25 32.3 4.55 30.2 4.55 30.85 4.95 32.15 M3.85 36.35 L0.75 37.65 1.7 37.95 3.85 37.0 3.85 36.35 M9.3 39.8 L9.95 39.95 7.6 37.1 7.6 37.75 9.3 39.8 M8.85 35.05 L9.3 34.15 6.2 35.45 3.8 32.95 3.8 33.6 6.2 36.05 8.85 35.05 M11.85 43.2 L12.2 41.95 12.2 41.3 11.6 43.4 11.85 43.2 M11.5 40.75 L12.6 40.75 13.3 38.85 14.05 40.75 15.15 40.75 16.05 40.15 14.05 40.15 13.3 38.2 12.6 40.15 10.65 40.15 11.5 40.75 M14.4 41.3 L14.4 41.95 14.8 43.2 15.1 43.4 14.4 41.3" fill="#674512" fill-rule="evenodd" stroke="none"/>
      <path d="M1.65 29.7 L2.35 30.2 2.35 30.85 2.0 32.15 3.45 31.05 4.95 32.15 4.55 30.85 4.55 30.2 5.3 29.7 4.2 29.7 3.45 27.8 2.75 29.7 1.65 29.7 M3.85 36.35 L3.85 37.0 1.7 37.95 4.1 38.5 4.4 42.25 6.3 39.05 9.3 39.8 7.6 37.75 7.6 37.1 8.85 35.05 6.2 36.05 3.8 33.6 3.85 36.35 M12.2 41.3 L12.2 41.95 11.85 43.2 13.3 42.1 14.8 43.2 14.4 41.95 14.4 41.3 15.15 40.75 14.05 40.75 13.3 38.85 12.6 40.75 11.5 40.75 12.2 41.3" fill="#815815" fill-rule="evenodd" stroke="none"/>
      <path d="M35.35 8.55 Q40.75 14.0 40.75 21.65 40.75 29.35 35.35 34.8 29.9 40.2 22.2 40.2 14.45 40.2 9.0 34.8 3.55 29.35 3.55 21.65 3.55 13.95 9.0 8.55 14.45 3.1 22.2 3.1 29.9 3.1 35.35 8.55" fill="url(#gradient5)" fill-rule="evenodd" stroke="none"/>
      <path d="M16.0 28.65 L11.5 27.7 16.15 26.05 15.2 25.1 19.25 24.05 18.3 23.15 21.3 22.2 27.85 15.65 25.8 14.6 33.95 10.95 30.25 19.05 29.2 17.0 22.65 23.55 21.7 26.5 20.85 25.65 19.75 29.65 18.9 28.75 17.15 33.5 16.45 30.1 16.15 28.75 16.0 28.65 16.85 27.75 16.0 28.65 M16.45 30.1 L16.85 29.75 16.45 30.1" fill="#664411" fill-rule="evenodd" stroke="none"/>
      <path d="M16.45 30.1 L12.75 33.85 M23.75 15.8 L22.95 16.65 M16.85 29.75 L16.45 30.1 M24.85 25.1 L28.95 21.0 M10.55 26.5 L14.8 22.25" fill="none" stroke="#664411" stroke-linecap="round" stroke-linejoin="round" stroke-width="0.5"/>
      <path d="M16.0 28.65 L13.3 31.4 M16.85 27.75 L16.0 28.65 M14.95 37.7 L19.75 32.9 M5.55 27.8 L12.1 21.25" fill="none" stroke="#664411" stroke-linecap="round" stroke-linejoin="round" stroke-width="1.0"/>
    </g>
    <linearGradient gradientTransform="matrix(0.0, -0.0257, -0.055, 0.0, 21.6, 21.6)" gradientUnits="userSpaceOnUse" id="gradient3" spreadMethod="pad" x1="-819.2" x2="819.2">
      <stop offset="0.011764705882352941" stop-color="#c79829"/>
      <stop offset="1.0" stop-color="#be7d1e"/>
    </linearGradient>
    <linearGradient gradientTransform="matrix(0.0, -0.0257, 0.055, 0.0, 22.15, 21.6)" gradientUnits="userSpaceOnUse" id="gradient4" spreadMethod="pad" x1="-819.2" x2="819.2">
      <stop offset="0.011764705882352941" stop-color="#c79829"/>
      <stop offset="1.0" stop-color="#be7d1e"/>
    </linearGradient>
    <linearGradient gradientTransform="matrix(0.0056, 0.0, 0.0, 0.0043, -24.4, 41.35)" gradientUnits="userSpaceOnUse" id="gradient5" spreadMethod="pad" x1="-819.2" x2="819.2">
      <stop offset="0.011764705882352941" stop-color="#c79829"/>
      <stop offset="1.0" stop-color="#be7d1e"/>
    </linearGradient>
    <g id="shape5" transform="matrix(1.0, 0.0, 0.0, 1.0, 0.0, 0.0)">
      <path d="M41.8 2.3 Q44.0 4.5 44.0 7.6 L44.0 36.4 Q44.0 39.6 41.8 41.8 39.6 44.0 36.4 44.0 L7.6 44.0 Q4.45 44.0 2.25 41.8 0.0 39.6 0.0 36.4 L0.0 7.6 Q0.0 4.5 2.25 2.3 4.45 0.0 7.6 0.0 L36.4 0.0 Q39.55 0.0 41.8 2.3 M40.85 22.05 Q40.85 14.1 35.25 8.6 29.75 3.05 21.85 3.05 13.9 3.05 8.4 8.6 2.85 14.1 2.85 22.05 2.85 29.95 8.4 35.45 13.9 41.1 21.85 41.1 29.75 41.1 35.25 35.45 40.85 29.95 40.85 22.05" fill="url(#gradient6)" fill-rule="evenodd" stroke="none"/>
      <path d="M40.85 22.05 Q40.85 29.95 35.25 35.45 29.75 41.1 21.85 41.1 13.9 41.1 8.4 35.45 2.85 29.95 2.85 22.05 2.85 14.1 8.4 8.6 13.9 3.05 21.85 3.05 29.75 3.05 35.25 8.6 40.85 14.1 40.85 22.05 M33.7 10.35 Q28.75 5.45 21.85 5.4 14.95 5.45 10.1 10.35 5.2 15.15 5.15 22.05 5.2 29.0 10.1 33.85 14.95 38.75 21.85 38.75 28.75 38.75 33.7 33.85 38.5 29.0 38.5 22.05 38.5 15.15 33.7 10.35" fill="url(#gradient7)" fill-rule="evenodd" stroke="none"/>
    </g>
    <linearGradient gradientTransform="matrix(0.0, -0.0258, -0.0551, 0.0, 21.85, 21.85)" gradientUnits="userSpaceOnUse" id="gradient6" spreadMethod="pad" x1="-819.2" x2="819.2">
      <stop offset="0.011764705882352941" stop-color="#dad67d"/>
      <stop offset="1.0" stop-color="#cfa451"/>
    </linearGradient>
    <linearGradient gradientTransform="matrix(0.0, 0.0059, -0.0232, 0.0, 21.85, 18.4)" gradientUnits="userSpaceOnUse" id="gradient7" spreadMethod="pad" x1="-819.2" x2="819.2">
      <stop offset="0.011764705882352941" stop-color="#8d5910"/>
      <stop offset="1.0" stop-color="#d9d597"/>
    </linearGradient>
    <g id="shape6" transform="matrix(1.0, 0.0, 0.0, 1.0, 0.0, -26.05)">
      <path d="M39.65 29.15 L38.05 29.15 37.95 29.35 39.3 30.3 38.75 32.0 38.9 32.15 40.4 31.1 41.8 32.15 42.05 32.0 41.5 30.3 42.8 29.35 42.65 29.15 41.1 29.15 40.5 27.6 40.25 27.6 39.65 29.15 M38.85 27.95 L39.3 26.8 39.7 26.3 Q40.05 26.05 40.4 26.05 L41.05 26.3 41.5 26.85 41.9 27.95 43.05 27.95 43.75 28.2 43.95 28.35 43.95 29.95 43.7 30.1 42.85 30.75 43.25 32.1 43.25 32.8 42.8 33.35 42.1 33.55 41.45 33.3 41.2 33.15 41.15 35.7 43.55 36.65 Q43.75 36.7 43.95 36.9 L43.6 38.8 43.4 38.85 40.85 39.5 40.65 42.45 40.5 42.75 39.25 43.5 39.0 43.45 38.5 43.0 37.0 40.45 34.2 41.2 33.85 41.2 33.0 41.8 33.4 43.15 33.4 43.85 33.3 44.0 31.15 44.0 30.55 43.6 29.9 44.0 27.7 44.0 27.65 43.8 27.65 43.1 28.05 41.8 27.15 41.2 26.75 40.6 Q26.6 40.2 26.75 39.85 L27.15 39.25 27.85 39.05 29.0 39.05 29.45 37.9 Q29.6 37.55 29.85 37.35 L30.55 37.15 31.2 37.35 31.65 37.95 32.05 39.05 33.2 39.05 34.85 37.05 33.55 34.85 33.4 34.15 33.7 33.45 Q33.9 33.2 34.25 33.15 L34.95 33.2 37.35 34.15 38.05 33.4 37.9 33.3 37.5 32.7 37.5 32.0 37.9 30.75 37.0 30.1 36.6 29.55 Q36.45 29.15 36.6 28.8 L37.0 28.2 Q37.3 27.95 37.7 27.95 L38.85 27.95 M37.7 35.5 L34.55 34.25 36.3 37.2 33.9 40.0 37.55 39.1 39.5 42.35 39.75 38.6 43.15 37.7 40.0 36.45 40.05 33.0 37.7 35.5 M30.65 38.7 L30.4 38.7 29.8 40.2 28.2 40.2 28.1 40.45 29.45 41.35 28.85 43.1 29.05 43.2 30.55 42.15 31.95 43.2 32.2 43.1 31.65 41.35 32.8 40.5 32.75 40.2 31.25 40.2 30.65 38.7" fill="#d1ae5a" fill-rule="evenodd" stroke="none"/>
      <path d="M38.55 29.75 L37.7 29.15 39.65 29.15 40.4 27.2 41.1 29.15 43.05 29.15 42.2 29.75 41.1 29.75 40.4 27.85 39.65 29.75 38.55 29.75 M41.5 30.3 L42.15 32.35 41.85 32.2 41.5 30.9 41.5 30.3 M38.9 32.2 L38.6 32.35 39.3 30.3 39.3 30.9 38.9 32.2 M40.0 36.45 L43.15 37.7 42.15 38.0 40.0 37.05 40.0 36.45 M34.55 39.85 L33.9 40.0 36.3 37.2 36.3 37.8 34.55 39.85 M35.0 35.1 L34.55 34.25 37.7 35.5 40.05 33.0 40.05 33.65 37.7 36.15 35.0 35.1 M32.35 40.85 L31.25 40.85 30.55 38.9 29.8 40.85 28.7 40.85 27.85 40.2 29.8 40.2 30.55 38.3 31.25 40.2 33.2 40.2 32.35 40.85 M29.45 41.35 L29.45 42.0 29.05 43.25 28.75 43.45 29.45 41.35 M32.0 43.25 L31.65 42.0 31.65 41.35 32.3 43.45 32.0 43.25" fill="#674512" fill-rule="evenodd" stroke="none"/>
      <path d="M42.2 29.75 L41.5 30.3 41.5 30.9 41.85 32.2 40.4 31.1 38.9 32.2 39.3 30.9 39.3 30.3 38.55 29.75 39.65 29.75 40.4 27.85 41.1 29.75 42.2 29.75 M40.0 36.45 L40.0 37.05 42.15 38.0 39.75 38.6 39.5 42.35 37.55 39.1 34.55 39.85 36.3 37.8 36.3 37.2 35.0 35.1 37.7 36.15 40.05 33.65 40.0 36.45 M32.35 40.85 L31.65 41.35 31.65 42.0 32.0 43.25 30.55 42.15 29.05 43.25 29.45 42.0 29.45 41.35 28.7 40.85 29.8 40.85 30.55 38.9 31.25 40.85 32.35 40.85" fill="#815815" fill-rule="evenodd" stroke="none"/>
      <path d="M10.25 33.45 L10.55 34.15 10.4 34.85 9.1 37.05 10.75 39.05 11.9 39.05 12.3 37.95 Q12.4 37.55 12.75 37.35 L13.4 37.15 14.1 37.35 14.5 37.9 14.95 39.05 16.1 39.05 16.8 39.25 17.2 39.85 17.2 40.6 16.8 41.2 15.9 41.8 16.3 43.1 16.3 43.8 16.25 44.0 14.05 44.0 13.4 43.6 12.8 44.0 10.65 44.0 10.55 43.85 10.55 43.15 10.95 41.8 10.1 41.2 9.75 41.2 6.95 40.45 5.45 43.0 4.95 43.45 4.7 43.5 3.45 42.75 3.3 42.45 3.1 39.5 0.55 38.85 0.35 38.8 0.0 36.9 0.4 36.65 2.8 35.7 2.75 33.15 2.5 33.3 1.85 33.55 Q1.45 33.55 1.15 33.35 L0.7 32.8 0.7 32.1 1.1 30.75 0.25 30.1 0.0 29.95 0.0 28.35 0.2 28.2 0.9 27.95 2.05 27.95 2.45 26.85 Q2.55 26.45 2.9 26.3 L3.55 26.05 Q3.9 26.05 4.25 26.3 L4.65 26.8 5.1 27.95 6.25 27.95 6.95 28.2 7.35 28.8 7.35 29.55 6.95 30.1 6.05 30.75 6.45 32.0 6.45 32.7 6.05 33.3 5.9 33.4 6.6 34.15 9.0 33.2 9.7 33.15 10.25 33.45 M11.15 40.5 L12.3 41.35 11.75 43.1 12.0 43.2 13.4 42.15 14.9 43.2 15.1 43.1 14.5 41.35 15.85 40.45 15.75 40.2 14.15 40.2 13.55 38.7 13.3 38.7 12.7 40.2 11.2 40.2 11.15 40.5 M3.7 27.6 L3.45 27.6 2.85 29.15 1.3 29.15 1.15 29.35 2.45 30.3 1.9 32.0 2.15 32.15 3.55 31.1 5.05 32.15 5.2 32.0 4.65 30.3 6.0 29.35 5.9 29.15 4.3 29.15 3.7 27.6 M4.2 38.6 L4.45 42.35 6.4 39.1 10.05 40.0 7.65 37.2 9.4 34.25 6.25 35.5 3.9 33.0 3.95 36.45 0.8 37.7 4.2 38.6" fill="#d1ae5a" fill-rule="evenodd" stroke="none"/>
      <path d="M12.3 41.35 L11.6 40.85 12.7 40.85 13.4 38.9 14.15 40.85 15.25 40.85 14.5 41.35 14.5 42.0 14.9 43.25 13.4 42.15 11.95 43.25 12.3 42.0 12.3 41.35 M1.75 29.75 L2.85 29.75 3.55 27.85 4.3 29.75 5.4 29.75 4.65 30.3 4.65 30.9 5.05 32.2 3.55 31.1 2.1 32.2 2.45 30.9 2.45 30.3 1.75 29.75 M8.95 35.1 L7.65 37.2 7.65 37.8 9.4 39.85 6.4 39.1 4.45 42.35 4.2 38.6 1.8 38.0 3.95 37.05 3.95 36.45 3.9 33.65 6.25 36.15 8.95 35.1" fill="#815815" fill-rule="evenodd" stroke="none"/>
      <path d="M11.6 40.85 L10.75 40.2 12.7 40.2 13.4 38.3 14.15 40.2 16.1 40.2 15.25 40.85 14.15 40.85 13.4 38.9 12.7 40.85 11.6 40.85 M14.5 41.35 L15.2 43.45 14.9 43.25 14.5 42.0 14.5 41.35 M11.95 43.25 L11.65 43.45 12.3 41.35 12.3 42.0 11.95 43.25 M1.75 29.75 L0.9 29.15 2.85 29.15 3.55 27.2 4.3 29.15 6.25 29.15 5.4 29.75 4.3 29.75 3.55 27.85 2.85 29.75 1.75 29.75 M4.65 30.3 L5.35 32.35 5.05 32.2 4.65 30.9 4.65 30.3 M2.1 32.2 L1.8 32.35 2.45 30.3 2.45 30.9 2.1 32.2 M3.9 33.65 L3.9 33.0 6.25 35.5 9.4 34.25 8.95 35.1 6.25 36.15 3.9 33.65 M7.65 37.2 L10.05 40.0 9.4 39.85 7.65 37.8 7.65 37.2 M1.8 38.0 L0.8 37.7 3.95 36.45 3.95 37.05 1.8 38.0" fill="#674512" fill-rule="evenodd" stroke="none"/>
    </g>
  </defs>
</svg>
