<?xml version="1.0" encoding="UTF-8" standalone="no"?>
<svg xmlns:xlink="http://www.w3.org/1999/xlink" height="43.9px" width="44.0px" xmlns="http://www.w3.org/2000/svg">
  <g transform="matrix(1.0, 0.0, 0.0, 1.0, 0.0, 0.0)">
    <use height="43.9" transform="matrix(1.0, 0.0, 0.0, 1.0, 0.0, 0.0)" width="44.0" xlink:href="#shape0"/>
    <use height="8.6" transform="matrix(1.2077, 0.0, 0.0, 1.2064, 0.5085, 0.75)" width="35.05" xlink:href="#sprite0"/>
    <use height="20.15" transform="matrix(1.1548, 0.0, 0.0, 1.1536, 6.3, 5.65)" width="28.2" xlink:href="#sprite1"/>
    <use height="22.3" transform="matrix(1.1548, 0.0, 0.0, 1.1536, 0.6, 18.2)" width="36.1" xlink:href="#sprite2"/>
  </g>
  <defs>
    <g id="shape0" transform="matrix(1.0, 0.0, 0.0, 1.0, 0.0, 0.0)">
      <path d="M36.05 36.6 Q30.1 42.5 21.8 42.5 13.45 42.5 7.5 36.6 1.65 30.7 1.65 22.35 1.65 14.05 7.5 8.1 13.45 2.25 21.8 2.25 30.1 2.25 36.05 8.1 41.95 14.05 41.95 22.35 41.95 30.7 36.05 36.6" fill="url(#gradient0)" fill-rule="evenodd" stroke="none"/>
      <path d="M25.4 4.7 L21.45 10.55 Q21.7 10.6 21.8 10.75 22.2 11.05 22.2 11.45 22.2 11.95 21.8 12.25 L21.1 12.5 20.3 12.25 14.0 21.4 17.35 13.3 Q16.65 13.25 16.2 12.7 15.65 12.15 15.65 11.45 15.65 10.7 16.2 10.2 16.75 9.65 17.55 9.65 18.15 9.65 18.7 10.05 L20.95 4.55 22.55 4.45 25.4 4.7 M31.35 6.6 L18.9 17.5 18.95 17.7 18.7 18.15 18.25 18.3 18.0 18.25 17.9 18.2 17.75 18.15 17.6 17.7 17.75 17.2 Q18.0 17.05 18.25 17.05 L18.7 17.2 28.4 5.4 Q29.95 5.85 31.35 6.6 M15.35 5.85 L12.9 16.9 12.95 16.95 13.35 17.85 Q13.35 18.4 12.95 18.8 L12.4 19.15 12.0 19.15 Q11.45 19.15 11.05 18.8 10.7 18.4 10.7 17.85 10.7 17.4 11.05 16.95 11.45 16.6 12.0 16.6 L12.25 16.6 13.2 6.9 Q14.25 6.3 15.35 5.85 M7.35 12.35 L9.5 9.75 9.95 19.5 7.3 12.4 7.35 12.35 M10.45 21.55 L10.75 21.35 Q11.0 21.35 11.1 21.55 L11.25 21.85 11.1 22.15 10.75 22.25 10.45 22.15 10.3 21.85 Q10.3 21.65 10.45 21.55 M13.2 21.9 L13.65 21.65 13.85 21.7 14.25 21.9 14.4 22.35 14.25 22.9 13.65 23.05 13.2 22.9 12.95 22.35 Q12.95 22.05 13.2 21.9 M13.9 17.7 Q13.9 17.45 14.05 17.25 L14.45 17.15 14.85 17.25 15.0 17.7 14.85 18.05 14.45 18.2 14.05 18.05 13.9 17.7 M15.15 21.65 L15.2 21.5 15.4 21.35 15.55 21.5 15.7 21.65 15.55 21.85 15.4 21.9 15.2 21.85 15.15 21.65 M23.85 21.9 L24.65 22.15 24.95 22.9 24.95 23.0 25.0 23.0 31.85 21.25 Q31.6 20.85 31.6 20.25 31.6 19.35 32.2 18.75 32.9 18.15 33.8 18.15 34.8 18.15 35.4 18.75 36.0 19.35 36.05 20.2 L40.35 19.15 40.55 21.65 40.55 22.3 19.1 24.45 23.05 23.45 22.8 22.9 Q22.8 22.5 23.1 22.15 23.4 21.9 23.85 21.9 M37.7 12.45 L39.0 14.65 17.9 23.25 37.4 12.0 37.7 12.45 M35.8 10.1 L15.0 23.75 32.2 7.15 Q33.8 8.15 35.2 9.55 L35.8 10.1 M6.35 14.05 L9.95 23.75 5.1 17.15 Q5.55 15.5 6.35 14.05 M6.15 29.35 L6.2 29.1 6.25 29.05 6.5 28.9 Q6.7 28.9 6.8 29.05 L6.95 29.35 6.8 29.55 6.5 29.7 6.25 29.55 6.15 29.35 M35.2 33.9 L34.9 34.2 19.5 29.55 36.45 32.6 35.2 33.9 M38.35 29.95 L23.6 27.65 23.85 28.35 23.55 29.05 Q23.15 29.4 22.75 29.4 22.25 29.4 21.95 29.05 21.65 28.75 21.65 28.35 21.65 27.85 21.95 27.55 L22.1 27.4 16.35 26.45 39.5 27.55 38.35 29.95 M39.9 26.25 L23.35 25.65 40.35 24.2 39.9 26.25 M19.55 29.15 L19.25 29.05 19.1 28.7 Q19.1 28.5 19.25 28.4 19.35 28.25 19.55 28.25 L19.9 28.4 20.05 28.7 19.9 29.05 19.55 29.15 M17.1 24.3 L17.0 24.6 16.6 24.7 16.3 24.6 16.2 24.3 16.3 23.95 Q16.45 23.8 16.6 23.8 L17.0 23.95 17.1 24.3 M13.85 27.5 Q13.5 27.9 12.95 27.9 12.35 27.9 11.95 27.5 11.55 27.15 11.55 26.65 11.55 26.05 11.95 25.65 12.35 25.3 12.95 25.3 13.5 25.3 13.85 25.65 14.3 26.05 14.3 26.65 L13.85 27.5 M14.65 28.2 L15.0 28.1 15.4 28.2 15.55 28.65 15.4 29.0 15.0 29.15 Q14.8 29.15 14.65 29.0 L14.45 28.65 14.65 28.2 M10.35 24.75 L10.25 25.0 10.05 25.05 9.8 25.0 9.75 24.75 9.8 24.6 Q9.95 24.45 10.05 24.45 L10.25 24.6 10.35 24.75 M7.55 24.1 L7.5 23.9 7.55 23.7 7.75 23.65 7.9 23.7 8.0 23.9 7.9 24.1 7.75 24.2 7.55 24.1 M8.9 27.2 L8.8 27.4 8.6 27.45 8.4 27.4 8.35 27.2 8.4 27.0 8.6 26.95 8.8 27.0 8.9 27.2 M11.15 29.0 L11.05 29.15 10.85 29.25 10.6 29.15 10.5 29.0 10.6 28.75 10.85 28.65 11.05 28.75 11.15 29.0 M14.1 29.2 L33.15 35.65 Q30.95 37.15 28.4 38.0 L14.1 29.2" fill="#2e5d6b" fill-rule="evenodd" stroke="none"/>
      <path d="M34.25 9.75 Q29.15 4.65 22.0 4.65 14.85 4.65 9.75 9.75 4.7 14.75 4.7 21.95 4.7 29.1 9.75 34.2 14.85 39.25 22.0 39.25 29.25 39.25 34.25 34.2 39.25 29.1 39.25 21.95 39.25 14.75 34.25 9.75 M2.2 2.25 Q4.45 0.0 7.55 0.0 L36.4 0.0 Q39.55 0.0 41.75 2.25 44.0 4.5 44.0 7.6 L44.0 36.35 Q44.0 39.45 41.75 41.7 39.55 43.9 36.4 43.9 L7.55 43.9 Q4.45 43.9 2.2 41.7 0.0 39.45 0.0 36.35 L0.0 7.6 Q0.0 4.5 2.2 2.25" fill="url(#gradient1)" fill-rule="evenodd" stroke="none"/>
      <path d="M21.95 5.55 Q15.0 5.6 10.25 10.45 5.3 15.3 5.3 22.15 5.3 29.05 10.25 33.95 15.0 38.75 21.95 38.75 28.75 38.75 33.65 33.95 38.6 29.05 38.6 22.15 38.6 15.3 33.65 10.45 28.8 5.6 21.95 5.55 M8.45 8.75 Q14.05 3.15 21.95 3.15 29.8 3.15 35.35 8.75 40.95 14.3 40.95 22.15 40.95 30.05 35.35 35.6 29.8 41.1 21.95 41.1 14.05 41.1 8.45 35.6 2.9 30.05 2.9 22.15 2.9 14.3 8.45 8.75" fill="url(#gradient2)" fill-rule="evenodd" stroke="none"/>
    </g>
    <linearGradient gradientTransform="matrix(0.0, -0.0188, -0.0189, 0.0, 21.8, 18.55)" gradientUnits="userSpaceOnUse" id="gradient0" spreadMethod="pad" x1="-819.2" x2="819.2">
      <stop offset="0.0196078431372549" stop-color="#a6dac5"/>
      <stop offset="1.0" stop-color="#79bed2"/>
    </linearGradient>
    <linearGradient gradientTransform="matrix(0.0, -0.0315, -0.044, 0.0, 20.85, 18.55)" gradientUnits="userSpaceOnUse" id="gradient1" spreadMethod="pad" x1="-819.2" x2="819.2">
      <stop offset="0.011764705882352941" stop-color="#87b6b2"/>
      <stop offset="0.9764705882352941" stop-color="#4f7e86"/>
    </linearGradient>
    <linearGradient gradientTransform="matrix(0.0, -0.0168, -0.0168, 0.0, 21.95, 26.75)" gradientUnits="userSpaceOnUse" id="gradient2" spreadMethod="pad" x1="-819.2" x2="819.2">
      <stop offset="0.011764705882352941" stop-color="#c4dbdf"/>
      <stop offset="0.9764705882352941" stop-color="#35414c"/>
    </linearGradient>
    <g id="sprite0" transform="matrix(1.0, 0.0, 0.0, 1.0, 0.2, 0.0)">
      <use height="8.6" transform="matrix(1.0, 0.0, 0.0, 1.0, -0.2, 0.0)" width="35.05" xlink:href="#shape1"/>
    </g>
    <g id="shape1" transform="matrix(1.0, 0.0, 0.0, 1.0, 0.2, 0.0)">
      <path d="M34.85 8.6 Q34.8 6.95 34.4 5.7 33.0 1.3 27.2 1.3 L7.45 1.3 Q0.05 1.3 -0.2 8.5 L-0.2 7.65 Q-0.2 0.0 7.45 0.0 L27.2 0.0 Q33.0 0.0 34.4 4.4 34.85 5.8 34.85 7.65 L34.85 8.6" fill="#fff7d4" fill-rule="evenodd" stroke="none"/>
    </g>
    <g id="sprite1" transform="matrix(1.0, 0.0, 0.0, 1.0, 0.0, 0.0)">
      <use height="20.15" transform="matrix(1.0, 0.0, 0.0, 1.0, 0.0, 0.0)" width="28.2" xlink:href="#shape2"/>
    </g>
    <g id="shape2" transform="matrix(1.0, 0.0, 0.0, 1.0, 0.0, 0.0)">
      <path d="M27.65 18.45 L27.4 18.95 Q26.2 20.8 23.4 19.8 19.6 18.5 17.35 14.05 14.8 9.1 9.75 7.4 4.1 5.65 0.0 10.3 1.0 6.85 3.7 4.15 7.2 0.65 11.9 0.05 L14.8 0.05 18.4 0.65 Q21.55 1.65 24.05 4.15 28.2 8.3 28.2 14.25 28.2 16.45 27.65 18.45" fill="#ffffff" fill-opacity="0.19607843" fill-rule="evenodd" stroke="none"/>
    </g>
    <g id="sprite2" transform="matrix(1.0, 0.0, 0.0, 1.0, 0.0, 0.0)">
      <use height="20.7" transform="matrix(1.0458, 0.0, 0.0, 1.0458, 0.0, 0.65)" width="7.3" xlink:href="#sprite3"/>
      <use height="20.85" transform="matrix(1.0, 0.0, 0.0, 1.0, 0.55, 0.25)" width="7.3" xlink:href="#shape4"/>
      <use height="12.1" transform="matrix(1.0458, 0.0, 0.0, 1.0458, 1.2977, 8.0)" width="5.7" xlink:href="#sprite4"/>
      <use height="18.7" transform="matrix(1.032, 0.0, 0.0, 1.032, 0.45, 0.0)" width="5.7" xlink:href="#sprite5"/>
      <use height="7.0" transform="matrix(1.032, 0.0, 0.0, 1.032, 2.15, 12.1984)" width="3.35" xlink:href="#sprite6"/>
      <use height="19.65" transform="matrix(1.0, 0.0, 0.0, 1.0, 1.0, 0.6)" width="6.15" xlink:href="#shape8"/>
      <use height="11.6" transform="matrix(1.032, 0.0, 0.0, 1.032, 0.4, 9.85)" width="6.9" xlink:href="#sprite7"/>
      <use height="11.1" transform="matrix(1.032, 0.0, 0.0, 1.032, 0.6, 9.85)" width="6.45" xlink:href="#sprite8"/>
      <use height="11.8" transform="matrix(1.032, 0.0, 0.0, 1.032, 0.4, 8.75)" width="6.5" xlink:href="#sprite9"/>
      <use height="18.7" transform="matrix(1.032, 0.0, 0.0, 1.032, 30.15, 0.0)" width="5.7" xlink:href="#sprite10"/>
      <use height="7.0" transform="matrix(1.032, 0.0, 0.0, 1.032, 30.85, 12.1984)" width="3.35" xlink:href="#sprite11"/>
      <use height="19.7" transform="matrix(1.0, 0.0, 0.0, 1.0, 29.4, 0.6)" width="6.1" xlink:href="#shape14"/>
      <use height="11.6" transform="matrix(1.032, 0.0, 0.0, 1.032, 28.9484, 9.85)" width="6.9" xlink:href="#sprite12"/>
      <use height="11.1" transform="matrix(1.032, 0.0, 0.0, 1.032, 29.3016, 9.85)" width="6.35" xlink:href="#sprite13"/>
      <use height="11.8" transform="matrix(1.032, 0.0, 0.0, 1.032, 29.4516, 8.75)" width="6.45" xlink:href="#sprite14"/>
    </g>
    <g id="sprite3" transform="matrix(1.0, 0.0, 0.0, 1.0, 0.0, 0.0)">
      <use height="20.7" transform="matrix(1.0, 0.0, 0.0, 1.0, 0.0, 0.0)" width="7.3" xlink:href="#shape3"/>
    </g>
    <g id="shape3" transform="matrix(1.0, 0.0, 0.0, 1.0, 0.0, 0.0)">
      <path d="M1.5 3.3 Q1.25 4.9 1.35 6.95 1.55 10.95 3.35 13.0 L6.75 16.9 Q7.8 18.5 6.9 19.6 5.25 21.5 2.85 20.1 -0.1 18.35 0.0 11.65 0.1 5.2 1.1 1.95 1.6 0.35 2.05 0.0 L1.5 3.3" fill="#6c6a85" fill-opacity="0.69803923" fill-rule="evenodd" stroke="none"/>
    </g>
    <g id="shape4" transform="matrix(1.0, 0.0, 0.0, 1.0, -0.55, -0.25)">
      <path d="M1.9 2.75 L1.85 6.55 Q2.2 10.75 4.0 12.95 L7.3 17.15 Q8.4 18.9 7.35 20.05 5.6 21.95 3.15 20.35 0.15 18.4 0.6 11.4 1.0 4.7 1.65 1.85 L2.25 0.25 1.9 2.75" fill="url(#gradient3)" fill-rule="evenodd" stroke="none"/>
    </g>
    <linearGradient gradientTransform="matrix(0.0, -0.0091, -0.0091, 0.0, 4.15, 13.05)" gradientUnits="userSpaceOnUse" id="gradient3" spreadMethod="pad" x1="-819.2" x2="819.2">
      <stop offset="0.011764705882352941" stop-color="#dbf7ff" stop-opacity="0.69803923"/>
      <stop offset="0.9764705882352941" stop-color="#384759" stop-opacity="0.69803923"/>
    </linearGradient>
    <g id="sprite4" transform="matrix(1.0, 0.0, 0.0, 1.0, 0.05, 0.0)">
      <use height="12.1" transform="matrix(1.0, 0.0, 0.0, 1.0, -0.05, 0.0)" width="5.7" xlink:href="#shape5"/>
    </g>
    <g id="shape5" transform="matrix(1.0, 0.0, 0.0, 1.0, 0.05, 0.0)">
      <path d="M1.45 10.9 Q3.25 11.3 3.25 9.75 3.25 8.85 2.15 7.35 L0.45 4.75 Q-0.3 2.9 0.1 0.0 0.15 0.9 0.5 2.05 1.15 4.35 2.45 5.8 L5.15 8.65 Q6.15 9.9 5.1 11.0 2.85 13.25 1.45 10.9" fill="#f2f2f2" fill-opacity="0.69803923" fill-rule="evenodd" stroke="none"/>
    </g>
    <g id="sprite5" transform="matrix(1.0, 0.0, 0.0, 1.0, 0.0, 0.0)">
      <use height="18.7" transform="matrix(1.0, 0.0, 0.0, 1.0, 0.0, 0.0)" width="5.7" xlink:href="#shape6"/>
    </g>
    <g id="shape6" transform="matrix(1.0, 0.0, 0.0, 1.0, 0.0, 0.0)">
      <path d="M1.65 11.9 Q1.55 10.8 0.55 8.3 -0.4 5.85 0.25 2.65 0.6 1.1 1.1 0.0 L0.5 2.55 Q0.05 5.55 0.95 8.0 1.6 9.8 3.55 11.35 5.25 12.65 5.55 14.75 5.9 17.2 5.3 18.15 L4.6 18.55 Q3.45 19.2 2.4 16.85 1.55 14.9 1.55 13.5 L1.65 11.9" fill="#ffffff" fill-opacity="0.69803923" fill-rule="evenodd" stroke="none"/>
    </g>
    <g id="sprite6" transform="matrix(1.0, 0.0, 0.0, 1.0, 0.0, 0.05)">
      <use height="7.0" transform="matrix(1.0, 0.0, 0.0, 1.0, 0.0, -0.05)" width="3.35" xlink:href="#shape7"/>
    </g>
    <g id="shape7" transform="matrix(1.0, 0.0, 0.0, 1.0, 0.0, 0.05)">
      <path d="M2.3 5.7 Q2.05 4.1 0.65 2.6 -0.4 1.45 0.2 0.4 0.8 -0.6 2.05 0.6 3.35 1.8 3.35 4.25 3.35 6.7 2.05 6.95 2.9 6.45 2.3 5.7" fill="#ffffff" fill-opacity="0.69803923" fill-rule="evenodd" stroke="none"/>
    </g>
    <g id="shape8" transform="matrix(1.0, 0.0, 0.0, 1.0, -1.0, -0.6)">
      <path d="M2.85 14.0 L2.6 13.35 Q2.55 12.6 3.45 12.6 4.75 12.6 4.55 14.9 L3.85 13.7 Q3.05 12.8 2.85 14.0" fill="#ffffff" fill-opacity="0.69803923" fill-rule="evenodd" stroke="none"/>
      <path d="M2.5 8.6 L4.15 10.65 6.1 13.05 Q7.5 15.4 7.0 18.3 L6.4 19.45 Q5.4 20.5 3.35 20.2 L4.85 19.9 Q6.35 19.1 6.2 16.35 6.05 14.05 3.95 11.7 1.65 9.2 1.3 7.2 0.85 4.5 1.1 2.3 L1.45 0.6 1.4 3.85 Q1.5 7.3 2.5 8.6" fill="#bbded6" fill-opacity="0.69803923" fill-rule="evenodd" stroke="none"/>
    </g>
    <g id="sprite7" transform="matrix(1.0, 0.0, 0.0, 1.0, 0.0, 0.0)">
      <use height="11.6" transform="matrix(1.0, 0.0, 0.0, 1.0, 0.0, 0.0)" width="6.9" xlink:href="#shape9"/>
    </g>
    <g id="shape9" transform="matrix(1.0, 0.0, 0.0, 1.0, 0.0, 0.0)">
      <path d="M0.0 4.95 Q0.0 2.4 0.35 0.0 0.5 4.25 0.85 6.75 1.1 8.3 2.25 9.5 L3.35 10.4 Q5.95 10.25 6.3 7.5 6.45 6.1 6.1 4.75 7.75 7.6 6.05 10.0 4.4 12.4 2.0 11.15 0.05 10.1 0.0 4.95" fill="#bbded6" fill-opacity="0.69803923" fill-rule="evenodd" stroke="none"/>
    </g>
    <g id="sprite8" transform="matrix(1.0, 0.0, 0.0, 1.0, 0.0, 0.0)">
      <use height="11.1" transform="matrix(1.0, 0.0, 0.0, 1.0, 0.0, 0.0)" width="6.45" xlink:href="#shape10"/>
    </g>
    <g id="shape10" transform="matrix(1.0, 0.0, 0.0, 1.0, 0.0, 0.0)">
      <path d="M0.45 5.0 Q1.15 10.05 3.15 10.4 L4.6 10.1 Q6.1 9.4 6.3 7.2 L6.3 6.25 Q6.6 7.3 6.35 8.45 5.85 10.7 3.3 11.1 2.3 11.25 1.35 9.9 -0.45 7.25 0.15 0.0 0.1 2.45 0.45 5.0" fill="#bbded6" fill-opacity="0.69803923" fill-rule="evenodd" stroke="none"/>
    </g>
    <g id="sprite9" transform="matrix(1.0, 0.0, 0.0, 1.0, 0.0, 0.0)">
      <use height="11.8" transform="matrix(1.0, 0.0, 0.0, 1.0, 0.0, 0.0)" width="6.5" xlink:href="#shape11"/>
    </g>
    <g id="shape11" transform="matrix(1.0, 0.0, 0.0, 1.0, 0.0, 0.0)">
      <path d="M0.0 0.0 Q0.4 0.55 0.4 1.45 0.4 4.65 0.65 6.45 1.25 10.9 3.1 11.35 L4.2 11.4 Q5.4 11.25 6.1 10.2 L6.5 8.75 6.45 9.5 Q6.15 10.85 5.0 11.45 4.5 11.8 3.8 11.8 2.45 11.75 1.4 10.05 0.4 7.35 0.3 3.6 L0.25 0.8 0.0 0.0" fill="#306b5e" fill-opacity="0.69803923" fill-rule="evenodd" stroke="none"/>
    </g>
    <g id="sprite10" transform="matrix(1.0, 0.0, 0.0, 1.0, 0.0, 0.0)">
      <use height="18.7" transform="matrix(1.0, 0.0, 0.0, 1.0, 0.0, 0.0)" width="5.7" xlink:href="#shape12"/>
    </g>
    <g id="shape12" transform="matrix(1.0, 0.0, 0.0, 1.0, 0.0, 0.0)">
      <path d="M4.05 11.9 L4.15 13.5 Q4.15 14.9 3.3 16.85 2.25 19.2 1.1 18.55 0.75 18.6 0.4 18.15 -0.2 17.2 0.15 14.75 0.45 12.65 2.15 11.35 4.1 9.8 4.75 8.0 5.65 5.55 5.2 2.55 5.0 1.05 4.6 0.0 L5.45 2.65 Q6.1 5.85 5.15 8.3 4.15 10.8 4.05 11.9" fill="#ffffff" fill-opacity="0.69803923" fill-rule="evenodd" stroke="none"/>
    </g>
    <g id="sprite11" transform="matrix(1.0, 0.0, 0.0, 1.0, 0.0, 0.05)">
      <use height="7.0" transform="matrix(1.0, 0.0, 0.0, 1.0, 0.0, -0.05)" width="3.35" xlink:href="#shape13"/>
    </g>
    <g id="shape13" transform="matrix(1.0, 0.0, 0.0, 1.0, 0.0, 0.05)">
      <path d="M1.05 5.7 Q0.45 6.45 1.3 6.95 0.0 6.7 0.0 4.25 0.0 1.8 1.3 0.6 2.55 -0.6 3.15 0.4 3.75 1.45 2.7 2.6 1.3 4.1 1.05 5.7" fill="#ffffff" fill-opacity="0.69803923" fill-rule="evenodd" stroke="none"/>
    </g>
    <g id="shape14" transform="matrix(1.0, 0.0, 0.0, 1.0, -29.4, -0.6)">
      <path d="M33.7 14.0 Q33.5 12.8 32.7 13.7 L31.95 14.9 Q31.9 14.35 32.0 13.75 32.25 12.6 33.15 12.6 34.5 12.6 33.7 14.0" fill="#ffffff" fill-opacity="0.69803923" fill-rule="evenodd" stroke="none"/>
      <path d="M34.05 8.6 Q35.0 7.3 35.1 3.85 L35.05 0.6 35.4 2.3 Q35.7 4.5 35.2 7.2 34.85 9.2 32.6 11.7 30.45 14.05 30.3 16.35 30.15 19.1 31.65 19.9 L32.9 20.25 Q31.1 20.45 30.1 19.45 L29.55 18.3 Q29.0 15.4 30.4 13.05 L32.35 10.65 34.05 8.6" fill="#bbded6" fill-opacity="0.69803923" fill-rule="evenodd" stroke="none"/>
    </g>
    <g id="sprite12" transform="matrix(1.0, 0.0, 0.0, 1.0, 0.05, 0.0)">
      <use height="11.6" transform="matrix(1.0, 0.0, 0.0, 1.0, -0.05, 0.0)" width="6.9" xlink:href="#shape15"/>
    </g>
    <g id="shape15" transform="matrix(1.0, 0.0, 0.0, 1.0, 0.05, 0.0)">
      <path d="M0.8 10.0 Q-0.9 7.6 0.75 4.75 0.4 6.1 0.55 7.5 0.9 10.25 3.5 10.4 L4.6 9.5 Q5.75 8.3 6.0 6.75 6.35 4.25 6.5 0.0 6.9 2.4 6.85 4.95 6.8 10.1 4.85 11.15 2.45 12.4 0.8 10.0" fill="#bbded6" fill-opacity="0.69803923" fill-rule="evenodd" stroke="none"/>
    </g>
    <g id="sprite13" transform="matrix(1.0, 0.0, 0.0, 1.0, -0.05, 0.0)">
      <use height="11.1" transform="matrix(1.0, 0.0, 0.0, 1.0, 0.05, 0.0)" width="6.35" xlink:href="#shape16"/>
    </g>
    <g id="shape16" transform="matrix(1.0, 0.0, 0.0, 1.0, -0.05, 0.0)">
      <path d="M5.95 5.0 Q6.3 2.45 6.25 0.0 6.85 7.25 5.05 9.9 4.15 11.25 3.1 11.1 0.55 10.7 0.05 8.45 L0.1 6.25 0.1 7.2 Q0.3 9.4 1.8 10.1 L3.25 10.4 Q5.25 10.05 5.95 5.0" fill="#bbded6" fill-opacity="0.69803923" fill-rule="evenodd" stroke="none"/>
    </g>
    <g id="sprite14" transform="matrix(1.0, 0.0, 0.0, 1.0, -0.05, 0.0)">
      <use height="11.8" transform="matrix(1.0, 0.0, 0.0, 1.0, 0.05, 0.0)" width="6.45" xlink:href="#shape17"/>
    </g>
    <g id="shape17" transform="matrix(1.0, 0.0, 0.0, 1.0, -0.05, 0.0)">
      <path d="M6.5 0.0 L6.3 0.8 6.2 3.6 Q6.1 7.35 5.1 10.05 4.05 11.75 2.7 11.8 2.0 11.8 1.5 11.45 0.4 10.85 0.1 9.5 L0.05 8.95 0.4 10.2 Q1.1 11.25 2.3 11.4 L3.4 11.35 Q5.25 10.9 5.85 6.45 L6.1 1.45 Q6.1 0.55 6.5 0.0" fill="#306b5e" fill-opacity="0.69803923" fill-rule="evenodd" stroke="none"/>
    </g>
  </defs>
</svg>
