<?xml version="1.0" encoding="UTF-8" standalone="no"?>
<svg xmlns:xlink="http://www.w3.org/1999/xlink" height="66.525px" width="66.0px" xmlns="http://www.w3.org/2000/svg">
  <g transform="matrix(1.5, 0.0, 0.0, 1.5, 1.125, 0.375)">
    <use height="40.6" transform="matrix(1.0, 0.0, 0.0, 1.0, 3.4, 3.5)" width="37.2" xlink:href="#shape0"/>
    <use height="0.0" transform="matrix(1.2125, 0.0, 0.0, 1.2137, 1.0, 1.0)" width="0.0" xlink:href="#sprite0"/>
    <use height="44.0" transform="matrix(1.0, 0.0, 0.0, 1.0, -0.75, -0.25)" width="44.0" xlink:href="#shape1"/>
    <use height="8.6" transform="matrix(1.2077, 0.0, 0.0, 1.2093, -0.2415, 0.5)" width="35.05" xlink:href="#sprite1"/>
    <use height="20.15" transform="matrix(1.1548, 0.0, 0.0, 1.1564, 5.55, 5.4)" width="28.2" xlink:href="#sprite2"/>
    <use height="39.85" transform="matrix(1.0, 0.0, 0.0, 1.0, 1.0, 3.85)" width="40.55" xlink:href="#shape4"/>
  </g>
  <defs>
    <g id="shape0" transform="matrix(1.0, 0.0, 0.0, 1.0, -3.4, -3.5)">
      <path d="M16.35 43.05 Q17.95 44.05 20.05 44.1 L16.35 44.1 16.35 43.05" fill="url(#gradient0)" fill-rule="evenodd" stroke="none"/>
      <path d="M8.85 8.95 Q14.3 3.5 22.05 3.5 29.75 3.5 35.2 8.95 40.6 14.4 40.6 22.05 40.6 29.8 35.2 35.25 29.75 40.65 22.05 40.65 14.3 40.65 8.85 35.25 3.4 29.8 3.4 22.05 3.4 14.35 8.85 8.95" fill="url(#gradient1)" fill-rule="evenodd" stroke="none"/>
      <path d="M20.2 14.55 L18.25 12.3 19.7 12.25 18.25 9.25 19.75 9.9 21.05 7.15 22.45 9.75 24.2 9.05 22.6 12.25 24.25 12.25 22.3 14.65 Q25.7 14.85 28.2 16.5 L28.45 16.75 28.6 17.0 29.9 18.25 30.2 18.65 30.9 19.95 10.95 19.95 11.65 18.65 11.95 18.25 13.25 17.0 13.4 16.75 13.65 16.5 Q16.35 14.8 20.2 14.55 M23.35 23.25 Q23.35 24.3 22.6 24.95 21.95 25.6 21.05 25.6 20.05 25.6 19.35 24.95 18.75 24.3 18.75 23.25 18.75 22.4 19.35 21.6 20.05 20.95 21.05 20.95 21.95 20.95 22.6 21.6 23.35 22.4 23.35 23.25 M30.4 25.15 L30.6 24.5 30.9 23.7 31.0 23.45 Q32.0 25.05 34.35 25.2 L33.1 27.05 Q32.05 26.9 31.55 26.4 L31.45 26.3 31.45 26.4 Q31.8 28.85 34.4 30.3 L32.75 32.15 Q31.55 31.4 30.75 30.3 29.55 28.85 29.3 26.8 L29.9 26.25 30.5 25.35 30.4 25.15 M19.1 31.95 Q19.15 31.25 19.45 30.65 L19.7 30.8 19.75 30.8 20.9 30.85 21.05 30.85 21.15 30.85 21.3 30.85 22.65 30.75 22.6 30.75 22.8 30.65 Q23.15 31.25 23.15 31.95 L23.15 32.25 Q23.15 33.45 22.6 34.3 22.0 35.1 21.15 35.1 20.25 35.1 19.7 34.3 19.1 33.45 19.1 32.25 L19.1 31.95 23.15 31.95 19.1 31.95 M29.5 26.45 L28.85 27.1 28.5 27.45 28.2 27.7 Q25.3 30.0 21.2 30.1 L21.05 30.1 20.85 30.1 20.75 30.1 20.65 30.1 Q16.55 30.0 13.65 27.7 L12.4 26.5 29.5 26.45 M19.7 34.3 L19.7 32.45 19.7 34.3 M22.6 32.45 L22.6 34.3 22.6 32.45" fill="#496125" fill-rule="evenodd" stroke="none"/>
      <path d="M20.2 14.55 Q16.35 14.8 13.65 16.5 L13.4 16.75 13.25 17.0 11.95 18.25 11.65 18.65 10.95 19.95 30.9 19.95 30.2 18.65 29.9 18.25 28.6 17.0 28.45 16.75 28.2 16.5 Q25.7 14.85 22.3 14.65 M30.4 25.15 L30.6 24.5 30.9 23.7 31.0 23.45 31.15 21.95 30.9 19.95 M12.4 26.5 Q11.3 25.2 10.85 23.75 L10.65 21.95 Q10.65 20.95 10.95 19.95 M29.5 26.45 L28.85 27.1 28.5 27.45 28.2 27.7 Q25.3 30.0 21.2 30.1 L21.05 30.1 20.85 30.1 20.75 30.1 20.65 30.1 Q16.55 30.0 13.65 27.7 L12.4 26.5 29.5 26.45 30.4 25.15 30.5 25.35" fill="none" stroke="#496125" stroke-linecap="round" stroke-linejoin="round" stroke-width="0.5"/>
      <path d="M23.15 31.95 L24.4 31.95 M19.1 31.95 L17.65 31.95 M19.7 32.45 L19.7 34.3 19.7 35.75 M22.6 34.3 L22.6 32.45 M22.6 34.3 L22.6 35.75 M19.1 31.95 L23.15 31.95" fill="none" stroke="#496125" stroke-linecap="round" stroke-linejoin="round" stroke-width="1.5"/>
    </g>
    <linearGradient gradientTransform="matrix(0.0, -0.0555, -0.0554, 0.0, 22.45, 18.4)" gradientUnits="userSpaceOnUse" id="gradient0" spreadMethod="pad" x1="-819.2" x2="819.2">
      <stop offset="0.011764705882352941" stop-color="#e8e1b7"/>
      <stop offset="1.0" stop-color="#eed731"/>
    </linearGradient>
    <linearGradient gradientTransform="matrix(0.0, -0.0173, -0.0173, 0.0, 22.05, 18.55)" gradientUnits="userSpaceOnUse" id="gradient1" spreadMethod="pad" x1="-819.2" x2="819.2">
      <stop offset="0.011764705882352941" stop-color="#d3d4b5"/>
      <stop offset="1.0" stop-color="#71a26f"/>
    </linearGradient>
    <g id="shape1" transform="matrix(1.0, 0.0, 0.0, 1.0, 0.75, 0.25)">
      <path d="M33.45 9.55 Q28.4 4.45 21.25 4.45 14.05 4.45 9.0 9.55 3.9 14.55 3.9 21.8 3.9 28.95 9.0 34.05 14.05 39.15 21.25 39.15 28.45 39.15 33.45 34.05 38.5 28.95 38.5 21.8 38.5 14.55 33.45 9.55 M1.4 2.0 Q3.7 -0.25 6.8 -0.25 L35.6 -0.25 Q38.8 -0.25 41.0 2.0 43.25 4.3 43.25 7.4 L43.25 36.2 Q43.25 39.3 41.0 41.55 38.8 43.75 35.6 43.75 L6.8 43.75 Q3.7 43.75 1.4 41.55 -0.75 39.3 -0.75 36.2 L-0.75 7.4 Q-0.75 4.3 1.4 2.0" fill="url(#gradient2)" fill-rule="evenodd" stroke="none"/>
      <path d="M21.15 5.3 Q14.25 5.35 9.45 10.25 4.55 15.1 4.55 21.95 4.55 28.9 9.45 33.8 14.25 38.6 21.15 38.6 28.0 38.6 32.9 33.8 37.8 28.9 37.8 21.95 37.8 15.1 32.9 10.25 28.05 5.35 21.15 5.3 M7.65 8.55 Q13.25 2.95 21.15 2.95 29.0 2.95 34.55 8.55 40.15 14.1 40.15 21.95 40.15 29.9 34.55 35.45 29.0 41.0 21.15 41.0 13.25 41.0 7.65 35.45 2.1 29.9 2.1 21.95 2.1 14.1 7.65 8.55" fill="url(#gradient3)" fill-rule="evenodd" stroke="none"/>
    </g>
    <linearGradient gradientTransform="matrix(0.0, -0.0275, -0.044, 0.0, 20.1, 21.95)" gradientUnits="userSpaceOnUse" id="gradient2" spreadMethod="pad" x1="-819.2" x2="819.2">
      <stop offset="0.0196078431372549" stop-color="#905a3d"/>
      <stop offset="0.9764705882352941" stop-color="#6a412d"/>
    </linearGradient>
    <linearGradient gradientTransform="matrix(0.0, -0.0168, -0.0168, 0.0, 21.15, 26.55)" gradientUnits="userSpaceOnUse" id="gradient3" spreadMethod="pad" x1="-819.2" x2="819.2">
      <stop offset="0.0196078431372549" stop-color="#a3704d"/>
      <stop offset="0.9803921568627451" stop-color="#492d20"/>
    </linearGradient>
    <g id="sprite1" transform="matrix(1.0, 0.0, 0.0, 1.0, 0.2, 0.0)">
      <use height="8.6" transform="matrix(1.0, 0.0, 0.0, 1.0, -0.2, 0.0)" width="35.05" xlink:href="#shape2"/>
    </g>
    <g id="shape2" transform="matrix(1.0, 0.0, 0.0, 1.0, 0.2, 0.0)">
      <path d="M34.4 4.4 Q34.85 5.8 34.85 7.65 L34.85 8.6 Q34.8 6.95 34.4 5.7 33.0 1.3 27.2 1.3 L7.45 1.3 Q0.05 1.3 -0.2 8.5 L-0.2 7.65 Q-0.2 0.0 7.45 0.0 L27.2 0.0 Q33.0 0.0 34.4 4.4" fill="#e7deda" fill-rule="evenodd" stroke="none"/>
    </g>
    <g id="sprite2" transform="matrix(1.0, 0.0, 0.0, 1.0, 0.0, 0.0)">
      <use height="20.15" transform="matrix(1.0, 0.0, 0.0, 1.0, 0.0, 0.0)" width="28.2" xlink:href="#shape3"/>
    </g>
    <g id="shape3" transform="matrix(1.0, 0.0, 0.0, 1.0, 0.0, 0.0)">
      <path d="M27.65 18.45 L27.4 18.95 Q26.2 20.8 23.4 19.8 19.6 18.5 17.35 14.05 14.8 9.1 9.75 7.4 4.1 5.65 0.0 10.3 1.0 6.85 3.7 4.15 7.2 0.65 11.9 0.05 L14.8 0.05 18.4 0.65 Q21.55 1.65 24.05 4.15 28.2 8.3 28.2 14.25 28.2 16.45 27.65 18.45" fill="#ffffff" fill-opacity="0.19607843" fill-rule="evenodd" stroke="none"/>
    </g>
    <g id="shape4" transform="matrix(1.0, 0.0, 0.0, 1.0, -1.75, -4.1)">
      <path d="M16.25 40.5 Q12.8 39.5 9.55 37.85 10.85 34.6 13.2 34.05 13.95 37.7 16.25 40.5 M30.25 34.05 Q32.6 34.6 33.85 37.9 30.7 39.6 27.35 40.5 28.95 38.45 29.75 35.85 L30.25 34.05" fill="url(#gradient4)" fill-rule="evenodd" stroke="none"/>
      <path d="M13.2 34.05 Q14.7 37.1 17.9 38.5 L16.25 40.5 Q13.95 37.7 13.2 34.05 M27.35 40.5 L25.55 38.5 Q28.75 37.1 30.25 34.05 L29.75 35.85 Q28.95 38.45 27.35 40.5" fill="#6d4a34" fill-rule="evenodd" stroke="none"/>
      <path d="M32.2 14.2 Q31.7 9.8 29.1 7.05 L30.8 5.3 31.05 5.8 31.5 7.45 Q32.25 10.95 32.2 14.2 M11.75 14.2 Q11.6 9.9 13.15 5.3 L14.9 7.05 Q12.3 9.8 11.75 14.2" fill="#492d20" fill-rule="evenodd" stroke="none"/>
      <path d="M31.05 5.8 L30.45 4.1 Q33.85 5.85 36.75 8.8 L36.8 8.9 Q36.0 12.95 32.2 14.2 32.25 10.95 31.5 7.45 L31.05 5.8 M11.75 14.2 Q7.95 12.95 7.15 9.0 L7.35 8.8 Q10.15 5.9 13.45 4.3 L13.15 5.3 Q11.6 9.9 11.75 14.2" fill="url(#gradient5)" fill-rule="evenodd" stroke="none"/>
      <path d="M42.2 33.5 L42.2 36.2 Q42.2 37.2 41.6 37.85 41.1 38.45 40.25 38.45 39.4 38.45 38.8 37.85 38.2 37.2 38.2 36.2 L38.2 34.95 M1.85 33.5 L1.85 36.2 Q1.85 37.2 2.4 37.85 2.9 38.45 3.8 38.45 4.6 38.45 5.25 37.85 5.8 37.2 5.8 36.2 L5.8 34.95" fill="none" stroke="#6a402d" stroke-linecap="round" stroke-linejoin="round" stroke-width="0.25"/>
      <path d="M39.4 5.45 L39.75 5.35 Q40.3 5.35 40.65 6.2 L40.9 8.3 40.65 10.35 Q40.3 11.25 39.75 11.25 L39.4 11.1 39.95 10.35 40.25 8.3 39.95 6.2 39.4 5.45 M4.55 11.1 L4.2 11.25 Q3.7 11.25 3.35 10.35 3.05 9.5 3.05 8.3 3.05 7.05 3.35 6.2 3.7 5.35 4.2 5.35 L4.55 5.45 4.0 6.2 Q3.75 7.05 3.75 8.3 3.75 9.5 4.0 10.35 L4.55 11.1" fill="#1a0d09" fill-rule="evenodd" stroke="none"/>
      <path d="M39.4 11.1 L38.95 10.35 Q38.6 9.5 38.6 8.3 38.6 7.05 38.95 6.2 L39.4 5.45 39.95 6.2 40.25 8.3 39.95 10.35 39.4 11.1 M4.55 11.1 L4.0 10.35 Q3.75 9.5 3.75 8.3 3.75 7.05 4.0 6.2 L4.55 5.45 5.0 6.2 Q5.35 7.05 5.35 8.3 5.35 9.5 5.0 10.35 L4.55 11.1" fill="#331d16" fill-rule="evenodd" stroke="none"/>
      <path d="M39.4 5.45 L39.75 5.35 Q40.3 5.35 40.65 6.2 L40.9 8.3 40.65 10.35 Q40.3 11.25 39.75 11.25 L39.4 11.1 38.95 10.35 Q38.6 9.5 38.6 8.3 38.6 7.05 38.95 6.2 L39.4 5.45 M4.55 5.45 L4.2 5.35 Q3.7 5.35 3.35 6.2 3.05 7.05 3.05 8.3 3.05 9.5 3.35 10.35 3.7 11.25 4.2 11.25 L4.55 11.1 5.0 10.35 Q5.35 9.5 5.35 8.3 5.35 7.05 5.0 6.2 L4.55 5.45" fill="none" stroke="#6a402d" stroke-linecap="round" stroke-linejoin="round" stroke-width="0.05"/>
      <path d="M31.9 43.95 L12.1 43.95 Q12.85 43.6 14.45 43.2 L22.0 42.65 29.5 43.2 31.9 43.95" fill="#6c432e" fill-rule="evenodd" stroke="none"/>
    </g>
    <linearGradient gradientTransform="matrix(0.0, -0.0275, -0.044, 0.0, 20.85, 22.2)" gradientUnits="userSpaceOnUse" id="gradient4" spreadMethod="pad" x1="-819.2" x2="819.2">
      <stop offset="0.0196078431372549" stop-color="#905a3d"/>
      <stop offset="0.9764705882352941" stop-color="#6a412d"/>
    </linearGradient>
    <linearGradient gradientTransform="matrix(0.0, -0.0275, -0.044, 0.0, 20.85, 22.2)" gradientUnits="userSpaceOnUse" id="gradient5" spreadMethod="pad" x1="-819.2" x2="819.2">
      <stop offset="0.0196078431372549" stop-color="#905a3d"/>
      <stop offset="0.9764705882352941" stop-color="#6a412d"/>
    </linearGradient>
  </defs>
</svg>
