<?xml version="1.0" encoding="UTF-8" standalone="no"?>
<svg xmlns:xlink="http://www.w3.org/1999/xlink" height="66.0px" width="66.3px" xmlns="http://www.w3.org/2000/svg">
  <g transform="matrix(1.5, 0.0, 0.0, 1.5, 0.0, 0.0)">
    <use height="37.1" transform="matrix(1.0, 0.0, 0.0, 1.0, 3.6, 3.5)" width="37.2" xlink:href="#shape0"/>
    <use height="20.15" transform="matrix(1.1594, 0.0, 0.0, 1.1594, 6.0, 5.25)" width="28.2" xlink:href="#sprite0"/>
    <use height="44.0" transform="matrix(1.0, 0.0, 0.0, 1.0, 0.2, 0.0)" width="44.0" xlink:href="#shape2"/>
    <use height="8.6" transform="matrix(1.2125, 0.0, 0.0, 1.2125, 1.0575, 0.95)" width="35.05" xlink:href="#sprite1"/>
    <use height="40.5" transform="matrix(1.0, 0.0, 0.0, 1.0, 0.2, 3.5)" width="43.95" xlink:href="#shape4"/>
    <use height="20.15" transform="matrix(1.1594, 0.0, 0.0, 1.1594, 6.0, 5.25)" width="28.2" xlink:href="#sprite0"/>
    <use height="44.0" transform="matrix(1.0, 0.0, 0.0, 1.0, 0.0, 0.0)" width="44.0" xlink:href="#shape5"/>
    <use height="8.6" transform="matrix(1.2125, 0.0, 0.0, 1.2125, 0.8575, 0.95)" width="35.05" xlink:href="#sprite1"/>
    <use height="17.95" transform="matrix(1.0, 0.0, 0.0, 1.0, 0.0, 26.05)" width="43.95" xlink:href="#shape6"/>
  </g>
  <defs>
    <g id="shape0" transform="matrix(1.0, 0.0, 0.0, 1.0, -3.6, -3.5)">
      <path d="M3.6 22.05 Q3.6 14.35 9.05 8.95 14.5 3.5 22.25 3.5 29.95 3.5 35.4 8.95 40.8 14.4 40.8 22.05 40.8 29.75 35.4 35.2 29.95 40.6 22.25 40.6 14.5 40.6 9.05 35.2 3.6 29.75 3.6 22.05" fill="url(#gradient0)" fill-rule="evenodd" stroke="none"/>
      <path d="M22.1 11.45 L22.1 11.7 Q29.0 11.7 36.0 17.8 26.85 19.95 26.1 22.1 L32.05 22.1 Q27.25 24.9 26.15 27.4 L29.9 27.4 Q25.9 28.75 24.45 31.95 L26.95 31.95 Q23.45 33.15 22.1 35.8 L21.9 36.0 21.9 35.55 Q20.55 32.95 17.05 31.75 L19.55 31.75 Q18.1 28.6 14.1 27.25 L17.85 27.25 Q16.75 24.7 11.9 21.95 L17.9 21.95 Q17.15 19.75 8.0 17.6 15.05 11.4 22.1 11.45" fill="#664411" fill-rule="evenodd" stroke="none"/>
    </g>
    <linearGradient gradientTransform="matrix(0.0, -0.017, -0.0173, 0.0, 21.2, 26.95)" gradientUnits="userSpaceOnUse" id="gradient0" spreadMethod="pad" x1="-819.2" x2="819.2">
      <stop offset="0.011764705882352941" stop-color="#dad67d"/>
      <stop offset="1.0" stop-color="#cfa451"/>
    </linearGradient>
    <g id="sprite0" transform="matrix(1.0, 0.0, 0.0, 1.0, 0.0, 0.0)">
      <use height="20.15" transform="matrix(1.0, 0.0, 0.0, 1.0, 0.0, 0.0)" width="28.2" xlink:href="#shape1"/>
    </g>
    <g id="shape1" transform="matrix(1.0, 0.0, 0.0, 1.0, 0.0, 0.0)">
      <path d="M27.65 18.45 L27.4 18.95 Q26.2 20.8 23.4 19.8 19.6 18.5 17.35 14.05 14.8 9.1 9.75 7.4 4.1 5.65 0.0 10.3 1.0 6.85 3.7 4.15 7.2 0.65 11.9 0.05 L14.8 0.05 18.4 0.65 Q21.55 1.65 24.05 4.15 28.2 8.3 28.2 14.25 28.2 16.45 27.65 18.45" fill="#ffffff" fill-opacity="0.19607843" fill-rule="evenodd" stroke="none"/>
    </g>
    <g id="shape2" transform="matrix(1.0, 0.0, 0.0, 1.0, -0.2, 0.0)">
      <path d="M42.0 2.3 Q44.2 4.5 44.2 7.6 L44.2 36.4 Q44.2 39.6 42.0 41.8 39.8 44.0 36.6 44.0 L7.8 44.0 Q4.65 44.0 2.45 41.8 0.2 39.6 0.2 36.4 L0.2 7.6 Q0.2 4.5 2.45 2.3 4.65 0.0 7.8 0.0 L36.6 0.0 Q39.75 0.0 42.0 2.3 M41.05 22.05 Q41.05 14.1 35.45 8.6 29.95 3.05 22.05 3.05 14.1 3.05 8.6 8.6 3.05 14.1 3.05 22.05 3.05 29.95 8.6 35.45 14.1 41.1 22.05 41.1 29.95 41.1 35.45 35.45 41.05 29.95 41.05 22.05" fill="url(#gradient1)" fill-rule="evenodd" stroke="none"/>
      <path d="M41.05 22.05 Q41.05 29.95 35.45 35.45 29.95 41.1 22.05 41.1 14.1 41.1 8.6 35.45 3.05 29.95 3.05 22.05 3.05 14.1 8.6 8.6 14.1 3.05 22.05 3.05 29.95 3.05 35.45 8.6 41.05 14.1 41.05 22.05 M33.9 10.35 Q28.95 5.45 22.05 5.4 15.15 5.45 10.3 10.35 5.4 15.15 5.35 22.05 5.4 29.0 10.3 33.85 15.15 38.75 22.05 38.75 28.95 38.75 33.9 33.85 38.7 29.0 38.7 22.05 38.7 15.15 33.9 10.35" fill="url(#gradient2)" fill-rule="evenodd" stroke="none"/>
    </g>
    <linearGradient gradientTransform="matrix(0.0, -0.0258, -0.0551, 0.0, 22.05, 21.85)" gradientUnits="userSpaceOnUse" id="gradient1" spreadMethod="pad" x1="-819.2" x2="819.2">
      <stop offset="0.011764705882352941" stop-color="#c79829"/>
      <stop offset="1.0" stop-color="#be7d1e"/>
    </linearGradient>
    <linearGradient gradientTransform="matrix(1.0E-4, 0.0223, -0.0232, 1.0E-4, 22.1, 22.3)" gradientUnits="userSpaceOnUse" id="gradient2" spreadMethod="pad" x1="-819.2" x2="819.2">
      <stop offset="0.011764705882352941" stop-color="#8d5910"/>
      <stop offset="1.0" stop-color="#d9d597"/>
    </linearGradient>
    <g id="sprite1" transform="matrix(1.0, 0.0, 0.0, 1.0, 0.2, 0.0)">
      <use height="8.6" transform="matrix(1.0, 0.0, 0.0, 1.0, -0.2, 0.0)" width="35.05" xlink:href="#shape3"/>
    </g>
    <g id="shape3" transform="matrix(1.0, 0.0, 0.0, 1.0, 0.2, 0.0)">
      <path d="M34.4 4.4 Q34.85 5.8 34.85 7.65 L34.85 8.6 Q34.8 6.95 34.4 5.7 33.0 1.3 27.2 1.3 L7.45 1.3 Q0.05 1.3 -0.2 8.5 L-0.2 7.65 Q-0.2 0.0 7.45 0.0 L27.2 0.0 Q33.0 0.0 34.4 4.4" fill="#e7deda" fill-rule="evenodd" stroke="none"/>
    </g>
    <g id="shape4" transform="matrix(1.0, 0.0, 0.0, 1.0, -0.2, -3.5)">
      <path d="M39.05 27.95 L39.5 26.8 39.9 26.3 40.6 26.05 41.25 26.3 41.7 26.85 42.1 27.95 43.25 27.95 Q43.7 27.95 43.95 28.2 L44.15 28.35 44.15 29.95 43.9 30.1 43.05 30.75 43.45 32.1 43.45 32.8 43.0 33.35 42.3 33.55 41.65 33.3 41.4 33.15 41.35 35.7 43.75 36.65 44.15 36.9 43.8 38.8 43.6 38.85 41.05 39.5 40.85 42.45 40.7 42.75 39.45 43.5 39.2 43.45 38.7 43.0 37.2 40.45 34.4 41.2 34.05 41.2 33.2 41.8 33.6 43.15 33.6 43.85 33.5 44.0 31.35 44.0 30.75 43.6 30.1 44.0 27.9 44.0 27.85 43.8 27.85 43.1 28.25 41.8 27.35 41.2 26.95 40.6 Q26.8 40.2 26.95 39.85 L27.35 39.25 28.05 39.05 29.2 39.05 29.65 37.9 30.05 37.35 30.75 37.15 31.4 37.35 31.85 37.95 32.25 39.05 33.4 39.05 35.05 37.05 33.75 34.85 33.6 34.15 33.9 33.45 Q34.1 33.2 34.45 33.15 L35.15 33.2 37.55 34.15 38.25 33.4 38.1 33.3 37.7 32.7 37.7 32.0 38.1 30.75 37.2 30.1 36.8 29.55 Q36.65 29.15 36.8 28.8 L37.2 28.2 Q37.5 27.95 37.9 27.95 L39.05 27.95 M30.85 38.7 L30.6 38.7 30.0 40.2 28.4 40.2 28.3 40.45 29.65 41.35 29.05 43.1 29.25 43.2 30.75 42.15 32.15 43.2 32.4 43.1 31.85 41.35 33.0 40.5 32.95 40.2 31.45 40.2 30.85 38.7 M37.9 35.5 L34.75 34.25 36.5 37.2 34.1 40.0 37.75 39.1 39.7 42.35 39.95 38.6 43.35 37.7 40.2 36.45 40.25 33.0 37.9 35.5 M39.85 29.15 L38.25 29.15 38.15 29.35 39.5 30.3 38.95 32.0 39.1 32.15 40.6 31.1 42.0 32.15 42.25 32.0 41.7 30.3 43.0 29.35 42.85 29.15 41.3 29.15 40.7 27.6 40.45 27.6 39.85 29.15" fill="url(#gradient3)" fill-rule="evenodd" stroke="none"/>
      <path d="M38.75 29.75 L37.9 29.15 39.85 29.15 40.6 27.2 41.3 29.15 43.25 29.15 42.4 29.75 41.3 29.75 40.6 27.85 39.85 29.75 38.75 29.75 M41.7 30.3 L42.35 32.35 42.05 32.2 41.7 30.9 41.7 30.3 M39.1 32.2 L38.8 32.35 39.5 30.3 39.5 30.9 39.1 32.2 M40.2 36.45 L43.35 37.7 42.35 38.0 40.2 37.05 40.2 36.45 M34.75 39.85 L34.1 40.0 36.5 37.2 36.5 37.8 34.75 39.85 M35.2 35.1 L34.75 34.25 37.9 35.5 40.25 33.0 40.25 33.65 37.9 36.15 35.2 35.1 M28.9 40.85 L28.05 40.2 30.0 40.2 30.75 38.3 31.45 40.2 33.4 40.2 32.55 40.85 31.45 40.85 30.75 38.9 30.0 40.85 28.9 40.85 M31.85 41.35 L32.5 43.45 32.2 43.25 31.85 42.0 31.85 41.35 M29.25 43.25 L28.95 43.45 29.65 41.35 29.65 42.0 29.25 43.25" fill="#674512" fill-rule="evenodd" stroke="none"/>
      <path d="M42.4 29.75 L41.7 30.3 41.7 30.9 42.05 32.2 40.6 31.1 39.1 32.2 39.5 30.9 39.5 30.3 38.75 29.75 39.85 29.75 40.6 27.85 41.3 29.75 42.4 29.75 M40.2 36.45 L40.2 37.05 42.35 38.0 39.95 38.6 39.7 42.35 37.75 39.1 34.75 39.85 36.5 37.8 36.5 37.2 35.2 35.1 37.9 36.15 40.25 33.65 40.2 36.45 M32.55 40.85 L31.85 41.35 31.85 42.0 32.2 43.25 30.75 42.15 29.25 43.25 29.65 42.0 29.65 41.35 28.9 40.85 30.0 40.85 30.75 38.9 31.45 40.85 32.55 40.85" fill="#815815" fill-rule="evenodd" stroke="none"/>
      <path d="M5.3 27.95 L6.45 27.95 7.15 28.2 7.55 28.8 7.55 29.55 7.15 30.1 6.25 30.75 6.65 32.0 6.65 32.7 6.25 33.3 6.1 33.4 6.8 34.15 9.2 33.2 9.9 33.15 Q10.25 33.2 10.45 33.45 L10.75 34.15 10.6 34.85 9.3 37.05 10.95 39.05 12.1 39.05 12.5 37.95 12.95 37.35 13.6 37.15 14.3 37.35 14.7 37.9 15.15 39.05 16.3 39.05 17.0 39.25 17.4 39.85 17.4 40.6 17.0 41.2 16.1 41.8 16.5 43.1 16.5 43.8 16.45 44.0 14.25 44.0 13.6 43.6 13.0 44.0 10.85 44.0 10.75 43.85 10.75 43.15 11.15 41.8 10.3 41.2 9.95 41.2 7.15 40.45 5.65 43.0 5.15 43.45 4.9 43.5 Q4.2 43.2 3.65 42.75 L3.5 42.45 3.3 39.5 0.75 38.85 0.55 38.8 0.2 36.9 0.6 36.65 3.0 35.7 2.95 33.15 2.7 33.3 2.05 33.55 Q1.65 33.55 1.35 33.35 L0.9 32.8 0.9 32.1 1.3 30.75 0.45 30.1 0.2 29.95 0.2 28.35 0.4 28.2 Q0.65 27.95 1.1 27.95 L2.25 27.95 2.65 26.85 Q2.75 26.45 3.1 26.3 3.4 26.05 3.75 26.05 L4.45 26.3 4.85 26.8 5.3 27.95 M4.5 29.15 L3.9 27.6 3.65 27.6 3.05 29.15 1.5 29.15 1.35 29.35 2.65 30.3 2.1 32.0 2.35 32.15 3.75 31.1 5.25 32.15 5.4 32.0 4.85 30.3 6.2 29.35 6.1 29.15 4.5 29.15 M6.45 35.5 L4.1 33.0 4.15 36.45 1.0 37.7 4.4 38.6 4.65 42.35 6.6 39.1 10.25 40.0 7.85 37.2 9.6 34.25 6.45 35.5 M13.5 38.7 L12.9 40.2 11.4 40.2 11.35 40.5 12.5 41.35 11.95 43.1 12.2 43.2 13.6 42.15 15.1 43.2 15.3 43.1 14.7 41.35 16.05 40.45 15.95 40.2 14.35 40.2 13.75 38.7 13.5 38.7" fill="url(#gradient4)" fill-rule="evenodd" stroke="none"/>
      <path d="M1.95 29.75 L1.1 29.15 3.05 29.15 3.75 27.2 4.5 29.15 6.45 29.15 5.6 29.75 4.5 29.75 3.75 27.85 3.05 29.75 1.95 29.75 M4.85 30.3 L5.55 32.35 5.25 32.2 4.85 30.9 4.85 30.3 M2.3 32.2 L2.0 32.35 2.65 30.3 2.65 30.9 2.3 32.2 M4.1 33.65 L4.1 33.0 6.45 35.5 9.6 34.25 9.15 35.1 6.45 36.15 4.1 33.65 M7.85 37.2 L10.25 40.0 9.6 39.85 7.85 37.8 7.85 37.2 M2.0 38.0 L1.0 37.7 4.15 36.45 4.15 37.05 2.0 38.0 M11.8 40.85 L10.95 40.2 12.9 40.2 13.6 38.3 14.35 40.2 16.3 40.2 15.45 40.85 14.35 40.85 13.6 38.9 12.9 40.85 11.8 40.85 M14.7 41.35 L15.4 43.45 15.1 43.25 14.7 42.0 14.7 41.35 M12.15 43.25 L11.85 43.45 12.5 41.35 12.5 42.0 12.15 43.25" fill="#674512" fill-rule="evenodd" stroke="none"/>
      <path d="M1.95 29.75 L3.05 29.75 3.75 27.85 4.5 29.75 5.6 29.75 4.85 30.3 4.85 30.9 5.25 32.2 3.75 31.1 2.3 32.2 2.65 30.9 2.65 30.3 1.95 29.75 M9.15 35.1 L7.85 37.2 7.85 37.8 9.6 39.85 6.6 39.1 4.65 42.35 4.4 38.6 2.0 38.0 4.15 37.05 4.15 36.45 4.1 33.65 6.45 36.15 9.15 35.1 M11.8 40.85 L12.9 40.85 13.6 38.9 14.35 40.85 15.45 40.85 14.7 41.35 14.7 42.0 15.1 43.25 13.6 42.15 12.15 43.25 12.5 42.0 12.5 41.35 11.8 40.85" fill="#815815" fill-rule="evenodd" stroke="none"/>
      <path d="M3.6 22.05 Q3.6 14.35 9.05 8.95 14.5 3.5 22.25 3.5 29.95 3.5 35.4 8.95 40.8 14.4 40.8 22.05 40.8 29.75 35.4 35.2 29.95 40.6 22.25 40.6 14.5 40.6 9.05 35.2 3.6 29.75 3.6 22.05" fill="url(#gradient5)" fill-rule="evenodd" stroke="none"/>
      <path d="M25.65 4.6 Q25.9 5.4 25.7 6.4 25.35 7.9 23.85 8.8 22.5 9.65 20.95 9.3 19.35 8.9 18.5 7.55 17.7 6.1 18.05 4.6 M39.05 25.4 L37.25 25.45 Q35.75 25.1 34.85 23.6 34.0 22.25 34.35 20.7 34.75 19.1 36.1 18.25 37.55 17.45 39.05 17.8 M4.65 25.4 L6.45 25.45 Q7.95 25.1 8.85 23.6 9.7 22.25 9.35 20.7 8.95 19.1 7.6 18.25 6.15 17.45 4.65 17.8" fill="none" stroke="#664411" stroke-linecap="round" stroke-linejoin="round" stroke-width="1.0"/>
      <path d="M29.05 5.6 L28.85 7.25 Q28.15 10.2 25.5 11.85 22.95 13.45 19.9 12.75 17.0 12.05 15.35 9.45 14.35 7.75 14.3 5.9 M38.05 28.8 L36.4 28.6 Q33.45 27.9 31.8 25.25 30.2 22.7 30.9 19.65 31.6 16.75 34.2 15.1 35.9 14.1 37.75 14.05 M5.65 28.8 L7.3 28.6 Q10.25 27.9 11.9 25.25 13.5 22.7 12.8 19.65 12.1 16.75 9.5 15.1 7.8 14.1 5.95 14.05 M14.25 38.8 Q14.7 37.3 15.85 36.0 17.85 33.75 20.95 33.5 24.0 33.4 26.3 35.45 27.75 36.75 28.45 38.6" fill="none" stroke="#664411" stroke-linecap="round" stroke-linejoin="round" stroke-width="1.5"/>
      <path d="M20.95 14.55 L21.1 14.7 21.15 14.85 21.15 15.9 21.0 16.4 20.55 17.7 Q19.6 20.0 17.95 20.75 L15.55 20.75 15.4 20.65 15.25 20.5 Q15.2 20.4 15.3 20.25 16.15 18.45 17.25 17.15 18.75 15.4 20.75 14.55 L20.95 14.55 M22.6 14.55 Q24.55 15.4 26.0 17.15 27.15 18.45 28.0 20.25 L28.05 20.5 27.9 20.65 27.75 20.75 25.35 20.75 Q23.75 20.0 22.75 17.7 L22.25 16.4 22.15 15.9 22.15 14.85 22.25 14.7 22.35 14.55 22.6 14.55 M23.35 20.75 L24.15 21.4 23.5 21.95 Q22.65 22.65 22.25 23.7 21.8 24.6 21.65 25.7 21.55 24.6 21.1 23.7 20.6 22.65 19.75 21.95 L19.15 21.4 20.0 20.75 21.15 19.0 21.65 17.2 22.15 19.0 Q22.6 20.0 23.35 20.75 M25.2 21.95 L27.7 21.95 27.9 21.95 27.95 22.05 28.0 22.3 Q27.45 26.65 22.75 31.0 L22.55 31.1 22.3 31.0 22.25 30.85 22.25 27.6 22.35 26.7 22.65 25.8 22.65 25.5 Q23.45 23.25 25.2 21.95 M18.1 21.95 Q19.85 23.25 20.6 25.5 L20.65 25.8 20.95 26.7 21.1 27.6 21.1 30.85 21.0 31.0 20.8 31.1 20.55 31.0 Q15.85 26.65 15.3 22.3 L15.3 22.05 15.45 21.95 15.55 21.95 18.1 21.95" fill="#664411" fill-rule="evenodd" stroke="none"/>
    </g>
    <linearGradient gradientTransform="matrix(0.0, -0.0258, -0.0551, 0.0, 22.05, 21.85)" gradientUnits="userSpaceOnUse" id="gradient3" spreadMethod="pad" x1="-819.2" x2="819.2">
      <stop offset="0.011764705882352941" stop-color="#c79829"/>
      <stop offset="1.0" stop-color="#be7d1e"/>
    </linearGradient>
    <linearGradient gradientTransform="matrix(0.0, -0.0258, 0.0551, 0.0, 22.25, 21.85)" gradientUnits="userSpaceOnUse" id="gradient4" spreadMethod="pad" x1="-819.2" x2="819.2">
      <stop offset="0.011764705882352941" stop-color="#c79829"/>
      <stop offset="1.0" stop-color="#be7d1e"/>
    </linearGradient>
    <linearGradient gradientTransform="matrix(0.0056, 0.0, 0.0, 0.0043, -24.35, 41.75)" gradientUnits="userSpaceOnUse" id="gradient5" spreadMethod="pad" x1="-819.2" x2="819.2">
      <stop offset="0.011764705882352941" stop-color="#c79829"/>
      <stop offset="1.0" stop-color="#be7d1e"/>
    </linearGradient>
    <g id="shape5" transform="matrix(1.0, 0.0, 0.0, 1.0, 0.0, 0.0)">
      <path d="M40.85 22.05 Q40.85 14.1 35.25 8.6 29.75 3.05 21.85 3.05 13.9 3.05 8.4 8.6 2.85 14.1 2.85 22.05 2.85 29.95 8.4 35.45 13.9 41.1 21.85 41.1 29.75 41.1 35.25 35.45 40.85 29.95 40.85 22.05 M41.8 2.3 Q44.0 4.5 44.0 7.6 L44.0 36.4 Q44.0 39.6 41.8 41.8 39.6 44.0 36.4 44.0 L7.6 44.0 Q4.45 44.0 2.25 41.8 0.0 39.6 0.0 36.4 L0.0 7.6 Q0.0 4.5 2.25 2.3 4.45 0.0 7.6 0.0 L36.4 0.0 Q39.55 0.0 41.8 2.3" fill="url(#gradient6)" fill-rule="evenodd" stroke="none"/>
      <path d="M33.7 10.35 Q28.75 5.45 21.85 5.4 14.95 5.45 10.1 10.35 5.2 15.15 5.15 22.05 5.2 29.0 10.1 33.85 14.95 38.75 21.85 38.75 28.75 38.75 33.7 33.85 38.5 29.0 38.5 22.05 38.5 15.15 33.7 10.35 M40.85 22.05 Q40.85 29.95 35.25 35.45 29.75 41.1 21.85 41.1 13.9 41.1 8.4 35.45 2.85 29.95 2.85 22.05 2.85 14.1 8.4 8.6 13.9 3.05 21.85 3.05 29.75 3.05 35.25 8.6 40.85 14.1 40.85 22.05" fill="url(#gradient7)" fill-rule="evenodd" stroke="none"/>
    </g>
    <linearGradient gradientTransform="matrix(0.0, -0.0258, -0.0551, 0.0, 21.85, 21.85)" gradientUnits="userSpaceOnUse" id="gradient6" spreadMethod="pad" x1="-819.2" x2="819.2">
      <stop offset="0.011764705882352941" stop-color="#dad67d"/>
      <stop offset="1.0" stop-color="#cfa451"/>
    </linearGradient>
    <linearGradient gradientTransform="matrix(0.0, 0.0059, -0.0232, 0.0, 21.85, 18.4)" gradientUnits="userSpaceOnUse" id="gradient7" spreadMethod="pad" x1="-819.2" x2="819.2">
      <stop offset="0.011764705882352941" stop-color="#8d5910"/>
      <stop offset="1.0" stop-color="#d9d597"/>
    </linearGradient>
    <g id="shape6" transform="matrix(1.0, 0.0, 0.0, 1.0, 0.0, -26.1)">
      <path d="M41.5 26.9 L41.9 28.0 43.05 28.0 43.75 28.25 43.95 28.4 43.95 30.0 43.7 30.15 42.85 30.8 43.25 32.15 43.25 32.85 42.8 33.4 42.1 33.6 41.45 33.35 41.2 33.2 41.15 35.75 43.55 36.7 Q43.75 36.75 43.95 36.95 L43.6 38.85 43.4 38.9 40.85 39.55 40.65 42.5 40.5 42.8 39.25 43.55 39.0 43.5 38.5 43.05 37.0 40.5 34.2 41.25 33.85 41.25 33.0 41.85 33.4 43.2 33.4 43.9 33.3 44.05 31.15 44.05 30.55 43.65 29.9 44.05 27.7 44.05 27.65 43.85 27.65 43.15 28.05 41.85 27.15 41.25 26.75 40.65 Q26.6 40.25 26.75 39.9 L27.15 39.3 27.85 39.1 29.0 39.1 29.45 37.95 Q29.6 37.6 29.85 37.4 L30.55 37.2 31.2 37.4 31.65 38.0 32.05 39.1 33.2 39.1 34.85 37.1 33.55 34.9 33.4 34.2 33.7 33.5 Q33.9 33.25 34.25 33.2 L34.95 33.25 37.35 34.2 38.05 33.45 37.9 33.35 37.5 32.75 37.5 32.05 37.9 30.8 37.0 30.15 36.6 29.6 Q36.45 29.2 36.6 28.85 L37.0 28.25 Q37.3 28.0 37.7 28.0 L38.85 28.0 39.3 26.85 39.7 26.35 Q40.05 26.1 40.4 26.1 L41.05 26.35 41.5 26.9 M29.8 40.25 L28.2 40.25 28.1 40.5 29.45 41.4 28.85 43.15 29.05 43.25 30.55 42.2 31.95 43.25 32.2 43.15 31.65 41.4 32.8 40.55 32.75 40.25 31.25 40.25 30.65 38.75 30.4 38.75 29.8 40.25 M40.05 33.05 L37.7 35.55 34.55 34.3 36.3 37.25 33.9 40.05 37.55 39.15 39.5 42.4 39.75 38.65 43.15 37.75 40.0 36.5 40.05 33.05 M42.65 29.2 L41.1 29.2 40.5 27.65 40.25 27.65 39.65 29.2 38.05 29.2 37.95 29.4 39.3 30.35 38.75 32.05 38.9 32.2 40.4 31.15 41.8 32.2 42.05 32.05 41.5 30.35 42.8 29.4 42.65 29.2" fill="#d1ae5a" fill-rule="evenodd" stroke="none"/>
      <path d="M42.2 29.8 L41.5 30.35 41.5 30.95 41.85 32.25 40.4 31.15 38.9 32.25 39.3 30.95 39.3 30.35 38.55 29.8 39.65 29.8 40.4 27.9 41.1 29.8 42.2 29.8 M40.0 36.5 L40.0 37.1 42.15 38.05 39.75 38.65 39.5 42.4 37.55 39.15 34.55 39.9 36.3 37.85 36.3 37.25 35.0 35.15 37.7 36.2 40.05 33.7 40.0 36.5 M32.35 40.9 L31.65 41.4 31.65 42.05 32.0 43.3 30.55 42.2 29.05 43.3 29.45 42.05 29.45 41.4 28.7 40.9 29.8 40.9 30.55 38.95 31.25 40.9 32.35 40.9" fill="#815815" fill-rule="evenodd" stroke="none"/>
      <path d="M38.55 29.8 L37.7 29.2 39.65 29.2 40.4 27.25 41.1 29.2 43.05 29.2 42.2 29.8 41.1 29.8 40.4 27.9 39.65 29.8 38.55 29.8 M41.5 30.35 L42.15 32.4 41.85 32.25 41.5 30.95 41.5 30.35 M38.9 32.25 L38.6 32.4 39.3 30.35 39.3 30.95 38.9 32.25 M40.0 36.5 L43.15 37.75 42.15 38.05 40.0 37.1 40.0 36.5 M34.55 39.9 L33.9 40.05 36.3 37.25 36.3 37.85 34.55 39.9 M35.0 35.15 L34.55 34.3 37.7 35.55 40.05 33.05 40.05 33.7 37.7 36.2 35.0 35.15 M28.7 40.9 L27.85 40.25 29.8 40.25 30.55 38.35 31.25 40.25 33.2 40.25 32.35 40.9 31.25 40.9 30.55 38.95 29.8 40.9 28.7 40.9 M31.65 41.4 L32.3 43.5 32.0 43.3 31.65 42.05 31.65 41.4 M29.05 43.3 L28.75 43.5 29.45 41.4 29.45 42.05 29.05 43.3" fill="#674512" fill-rule="evenodd" stroke="none"/>
      <path d="M10.25 33.5 L10.55 34.2 10.4 34.9 9.1 37.1 10.75 39.1 11.9 39.1 12.3 38.0 Q12.4 37.6 12.75 37.4 L13.4 37.2 14.1 37.4 14.5 37.95 14.95 39.1 16.1 39.1 16.8 39.3 17.2 39.9 17.2 40.65 16.8 41.25 15.9 41.85 16.3 43.15 16.3 43.85 16.25 44.05 14.05 44.05 13.4 43.65 12.8 44.05 10.65 44.05 10.55 43.9 10.55 43.2 10.95 41.85 10.1 41.25 9.75 41.25 6.95 40.5 5.45 43.05 4.95 43.5 4.7 43.55 3.45 42.8 3.3 42.5 3.1 39.55 0.55 38.9 0.35 38.85 0.0 36.95 0.4 36.7 2.8 35.75 2.75 33.2 2.5 33.35 1.85 33.6 Q1.45 33.6 1.15 33.4 L0.7 32.85 0.7 32.15 1.1 30.8 0.25 30.15 0.0 30.0 0.0 28.4 0.2 28.25 0.9 28.0 2.05 28.0 2.45 26.9 Q2.55 26.5 2.9 26.35 L3.55 26.1 Q3.9 26.1 4.25 26.35 L4.65 26.85 5.1 28.0 6.25 28.0 6.95 28.25 7.35 28.85 7.35 29.6 6.95 30.15 6.05 30.8 6.45 32.05 6.45 32.75 6.05 33.35 5.9 33.45 6.6 34.2 9.0 33.25 9.7 33.2 10.25 33.5 M5.9 29.2 L4.3 29.2 3.7 27.65 3.45 27.65 2.85 29.2 1.3 29.2 1.15 29.4 2.45 30.35 1.9 32.05 2.15 32.2 3.55 31.15 5.05 32.2 5.2 32.05 4.65 30.35 6.0 29.4 5.9 29.2 M3.95 36.5 L0.8 37.75 4.2 38.65 4.45 42.4 6.4 39.15 10.05 40.05 7.65 37.25 9.4 34.3 6.25 35.55 3.9 33.05 3.95 36.5 M15.75 40.25 L14.15 40.25 13.55 38.75 13.3 38.75 12.7 40.25 11.2 40.25 11.15 40.55 12.3 41.4 11.75 43.15 12.0 43.25 13.4 42.2 14.9 43.25 15.1 43.15 14.5 41.4 15.85 40.5 15.75 40.25" fill="#d1ae5a" fill-rule="evenodd" stroke="none"/>
      <path d="M1.75 29.8 L0.9 29.2 2.85 29.2 3.55 27.25 4.3 29.2 6.25 29.2 5.4 29.8 4.3 29.8 3.55 27.9 2.85 29.8 1.75 29.8 M4.65 30.35 L5.35 32.4 5.05 32.25 4.65 30.95 4.65 30.35 M2.1 32.25 L1.8 32.4 2.45 30.35 2.45 30.95 2.1 32.25 M3.9 33.7 L3.9 33.05 6.25 35.55 9.4 34.3 8.95 35.15 6.25 36.2 3.9 33.7 M7.65 37.25 L10.05 40.05 9.4 39.9 7.65 37.85 7.65 37.25 M1.8 38.05 L0.8 37.75 3.95 36.5 3.95 37.1 1.8 38.05 M11.6 40.9 L10.75 40.25 12.7 40.25 13.4 38.35 14.15 40.25 16.1 40.25 15.25 40.9 14.15 40.9 13.4 38.95 12.7 40.9 11.6 40.9 M14.5 41.4 L15.2 43.5 14.9 43.3 14.5 42.05 14.5 41.4 M11.95 43.3 L11.65 43.5 12.3 41.4 12.3 42.05 11.95 43.3" fill="#674512" fill-rule="evenodd" stroke="none"/>
      <path d="M1.75 29.8 L2.85 29.8 3.55 27.9 4.3 29.8 5.4 29.8 4.65 30.35 4.65 30.95 5.05 32.25 3.55 31.15 2.1 32.25 2.45 30.95 2.45 30.35 1.75 29.8 M3.95 36.5 L3.9 33.7 6.25 36.2 8.95 35.15 7.65 37.25 7.65 37.85 9.4 39.9 6.4 39.15 4.45 42.4 4.2 38.65 1.8 38.05 3.95 37.1 3.95 36.5 M11.6 40.9 L12.7 40.9 13.4 38.95 14.15 40.9 15.25 40.9 14.5 41.4 14.5 42.05 14.9 43.3 13.4 42.2 11.95 43.3 12.3 42.05 12.3 41.4 11.6 40.9" fill="#815815" fill-rule="evenodd" stroke="none"/>
    </g>
  </defs>
</svg>
