<?xml version="1.0" encoding="UTF-8" standalone="no"?>
<svg xmlns:xlink="http://www.w3.org/1999/xlink" height="44.0px" width="44.0px" xmlns="http://www.w3.org/2000/svg">
  <g transform="matrix(1.0, 0.0, 0.0, 1.0, 0.0, 0.0)">
    <use height="37.05" transform="matrix(1.0, 0.0, 0.0, 1.0, 3.4, 3.45)" width="37.2" xlink:href="#shape0"/>
    <use height="20.15" transform="matrix(1.1594, 0.0, 0.0, 1.1579, 6.1, 5.2)" width="28.2" xlink:href="#sprite0"/>
    <use height="44.0" transform="matrix(1.0, 0.0, 0.0, 1.0, 0.0, 0.0)" width="44.0" xlink:href="#shape2"/>
    <use height="0.0" transform="matrix(1.2125, 0.0, 0.0, 1.2109, 1.0, 0.95)" width="0.0" xlink:href="#sprite1"/>
    <use height="20.8" transform="matrix(1.0, 0.0, 0.0, 1.0, 0.7, 23.15)" width="42.65" xlink:href="#shape3"/>
    <use height="8.6" transform="matrix(1.2077, 0.0, 0.0, 1.2038, 0.9585, 0.95)" width="35.05" xlink:href="#sprite2"/>
  </g>
  <defs>
    <g id="shape0" transform="matrix(1.0, 0.0, 0.0, 1.0, -3.4, -3.45)">
      <path d="M40.6 22.0 Q40.6 29.7 35.2 35.15 29.75 40.5 22.05 40.5 14.3 40.5 8.85 35.15 3.4 29.7 3.4 22.0 3.4 14.3 8.85 8.9 14.3 3.45 22.05 3.45 29.75 3.45 35.2 8.9 40.6 14.35 40.6 22.0" fill="url(#gradient0)" fill-rule="evenodd" stroke="none"/>
      <path d="M31.65 10.45 Q32.6 10.45 33.3 11.2 34.0 11.95 34.0 13.05 34.0 14.1 33.3 14.8 L33.15 15.0 32.75 15.3 29.35 18.6 25.95 15.3 25.55 15.0 25.4 14.8 Q24.75 14.1 24.75 13.05 24.75 11.95 25.4 11.2 26.1 10.45 27.05 10.45 28.0 10.45 28.65 11.2 29.3 11.9 29.35 12.9 29.4 11.9 30.05 11.2 30.7 10.45 31.65 10.45 M23.2 16.1 Q25.05 18.55 25.7 19.75 L26.55 21.2 27.25 22.95 27.45 25.05 27.45 25.9 Q27.95 25.55 28.6 25.55 29.55 25.55 30.2 26.2 30.8 26.9 30.8 27.85 30.8 28.8 30.2 29.4 29.55 30.1 28.6 30.1 27.8 30.1 27.25 29.6 L27.05 29.4 26.55 28.8 25.1 30.85 25.0 31.0 23.9 31.85 Q22.05 34.1 19.3 34.7 16.55 34.1 14.65 31.85 L13.55 31.0 13.45 30.85 Q12.55 29.95 11.95 28.8 L11.55 29.4 Q10.9 30.1 9.95 30.1 9.05 30.1 8.3 29.4 7.75 28.8 7.75 27.85 7.75 26.9 8.3 26.2 9.05 25.55 9.95 25.55 10.55 25.55 11.05 25.9 L11.05 25.05 Q11.05 22.9 12.05 21.2 L12.85 19.75 15.35 16.1 15.35 18.3 Q16.65 15.6 19.3 13.85 21.9 15.6 23.2 18.3 L23.2 16.1 M17.85 28.9 Q16.95 27.75 16.0 27.8 15.05 27.75 14.15 28.9 L14.05 29.25 14.25 29.6 14.6 29.7 14.95 29.55 Q15.5 28.85 16.0 28.8 L17.05 29.55 17.4 29.7 17.8 29.6 17.95 29.25 17.85 28.9 M21.45 29.55 Q22.0 28.85 22.5 28.8 23.0 28.85 23.55 29.55 L23.9 29.7 24.3 29.6 24.45 29.25 24.35 28.9 Q23.45 27.75 22.5 27.8 21.55 27.75 20.65 28.9 L20.55 29.25 20.75 29.6 21.1 29.7 21.45 29.55" fill="#496125" fill-rule="evenodd" stroke="none"/>
      <path d="M28.6 23.0 L29.4 22.45 Q29.75 22.15 29.75 21.6 29.75 20.85 29.4 20.6 L29.35 20.85 Q29.25 21.5 28.7 21.5 L28.45 21.25 28.35 21.0 28.6 20.65 Q28.8 20.5 28.95 20.5 L29.4 20.6 29.5 19.5" fill="none" stroke="#496125" stroke-linecap="round" stroke-linejoin="round" stroke-width="0.5"/>
    </g>
    <linearGradient gradientTransform="matrix(0.0, -0.0173, -0.0173, 0.0, 22.0, 18.45)" gradientUnits="userSpaceOnUse" id="gradient0" spreadMethod="pad" x1="-819.2" x2="819.2">
      <stop offset="0.011764705882352941" stop-color="#d3d4b5"/>
      <stop offset="1.0" stop-color="#71a26f"/>
    </linearGradient>
    <g id="sprite0" transform="matrix(1.0, 0.0, 0.0, 1.0, 0.0, 0.0)">
      <use height="20.15" transform="matrix(1.0, 0.0, 0.0, 1.0, 0.0, 0.0)" width="28.2" xlink:href="#shape1"/>
    </g>
    <g id="shape1" transform="matrix(1.0, 0.0, 0.0, 1.0, 0.0, 0.0)">
      <path d="M27.65 18.45 L27.4 18.95 Q26.2 20.8 23.4 19.8 19.6 18.5 17.35 14.05 14.8 9.1 9.75 7.4 4.1 5.65 0.0 10.3 1.0 6.85 3.7 4.15 7.2 0.65 11.9 0.05 L14.8 0.05 18.4 0.65 Q21.55 1.65 24.05 4.15 28.2 8.3 28.2 14.25 28.2 16.45 27.65 18.45" fill="#ffffff" fill-opacity="0.19607843" fill-rule="evenodd" stroke="none"/>
    </g>
    <g id="shape2" transform="matrix(1.0, 0.0, 0.0, 1.0, 0.0, 0.0)">
      <path d="M20.1 44.0 L16.4 44.0 16.4 42.95 Q18.0 43.95 20.1 44.0 M28.7 42.1 L33.1 42.1 33.1 44.0 28.7 44.0 28.7 42.1" fill="url(#gradient1)" fill-rule="evenodd" stroke="none"/>
      <path d="M20.1 44.0 Q18.0 43.95 16.4 42.95 L15.3 42.1 28.7 42.1 28.7 44.0 20.1 44.0" fill="url(#gradient2)" fill-rule="evenodd" stroke="none"/>
      <path d="M43.85 42.1 Q41.8 44.0 38.8 44.0 L34.95 44.0 34.95 42.1 43.85 42.1" fill="url(#gradient3)" fill-rule="evenodd" stroke="none"/>
      <path d="M36.4 0.0 Q39.55 0.0 41.8 2.25 44.0 4.45 44.0 7.55 L44.0 36.35 Q44.0 39.55 41.8 41.75 39.6 43.95 36.4 43.95 L7.6 43.95 Q4.45 43.95 2.25 41.75 0.0 39.55 0.0 36.35 L0.0 7.55 Q0.0 4.45 2.25 2.25 4.45 0.0 7.6 0.0 L36.4 0.0 M35.25 8.55 Q29.75 3.0 21.85 3.0 13.9 3.0 8.4 8.55 2.85 14.05 2.85 22.0 2.85 29.85 8.4 35.4 13.9 41.05 21.85 41.05 29.75 41.05 35.25 35.4 40.85 29.85 40.85 22.0 40.85 14.05 35.25 8.55" fill="url(#gradient4)" fill-rule="evenodd" stroke="none"/>
      <path d="M35.25 8.55 Q40.85 14.05 40.85 22.0 40.85 29.85 35.25 35.4 29.75 41.05 21.85 41.05 13.9 41.05 8.4 35.4 2.85 29.85 2.85 22.0 2.85 14.05 8.4 8.55 13.9 3.0 21.85 3.0 29.75 3.0 35.25 8.55 M33.7 10.3 Q28.75 5.45 21.85 5.35 14.95 5.45 10.1 10.3 5.2 15.1 5.15 22.0 5.2 28.95 10.1 33.8 14.95 38.7 21.85 38.7 28.75 38.7 33.7 33.8 38.5 28.95 38.5 22.0 38.5 15.1 33.7 10.3" fill="url(#gradient5)" fill-rule="evenodd" stroke="none"/>
    </g>
    <linearGradient gradientTransform="matrix(0.0, -0.0553, -0.0554, 0.0, 22.45, 18.3)" gradientUnits="userSpaceOnUse" id="gradient1" spreadMethod="pad" x1="-819.2" x2="819.2">
      <stop offset="0.011764705882352941" stop-color="#e8e1b7"/>
      <stop offset="1.0" stop-color="#eed731"/>
    </linearGradient>
    <linearGradient gradientTransform="matrix(0.0, -0.0553, -0.0554, 0.0, 34.75, 18.3)" gradientUnits="userSpaceOnUse" id="gradient2" spreadMethod="pad" x1="-819.2" x2="819.2">
      <stop offset="0.011764705882352941" stop-color="#e8e1b7"/>
      <stop offset="1.0" stop-color="#eed731"/>
    </linearGradient>
    <linearGradient gradientTransform="matrix(0.0, -0.0553, -0.0554, 0.0, 24.35, 18.3)" gradientUnits="userSpaceOnUse" id="gradient3" spreadMethod="pad" x1="-819.2" x2="819.2">
      <stop offset="0.011764705882352941" stop-color="#e8e1b7"/>
      <stop offset="1.0" stop-color="#eed731"/>
    </linearGradient>
    <linearGradient gradientTransform="matrix(0.0, -0.0283, -0.0551, 0.0, 22.6, 21.9)" gradientUnits="userSpaceOnUse" id="gradient4" spreadMethod="pad" x1="-819.2" x2="819.2">
      <stop offset="0.011764705882352941" stop-color="#9dae7c"/>
      <stop offset="1.0" stop-color="#7e8f45"/>
    </linearGradient>
    <linearGradient gradientTransform="matrix(1.0E-4, 0.0223, -0.0232, 1.0E-4, 21.9, 22.25)" gradientUnits="userSpaceOnUse" id="gradient5" spreadMethod="pad" x1="-819.2" x2="819.2">
      <stop offset="0.011764705882352941" stop-color="#516537"/>
      <stop offset="1.0" stop-color="#a8ce99"/>
    </linearGradient>
    <g id="shape3" transform="matrix(1.0, 0.0, 0.0, 1.0, -0.7, -23.15)">
      <path d="M0.85 32.85 Q1.15 30.5 2.4 29.3 L2.8 27.6 Q2.95 26.6 2.7 25.55 L2.4 24.5 1.75 23.15 2.8 24.25 3.65 25.5 3.95 26.85 Q4.05 27.75 3.35 29.55 2.7 31.15 2.55 33.35 L2.45 33.05 2.4 33.35 Q1.85 36.15 3.0 38.1 3.55 39.0 4.25 39.55 L3.95 39.1 4.05 39.15 4.3 39.6 Q4.9 40.35 5.75 40.55 6.85 40.7 7.9 39.85 9.15 38.85 8.2 37.5 L8.25 38.4 Q8.05 39.3 6.7 39.8 L5.7 39.95 5.7 39.9 5.6 38.7 Q5.55 36.95 7.0 36.0 8.5 35.1 10.0 36.65 L11.2 38.45 Q11.15 36.85 10.5 35.9 L11.4 37.45 11.35 37.45 11.5 37.85 11.8 38.75 11.85 39.9 Q10.45 42.8 8.65 42.8 9.95 42.55 10.05 41.4 7.15 42.6 3.7 40.95 1.2 38.95 0.85 32.85" fill="#9ec087" fill-rule="evenodd" stroke="none"/>
      <path d="M2.55 33.35 L2.6 34.6 Q2.95 36.35 3.8 37.5 L3.9 36.95 Q4.6 34.9 7.3 34.4 L9.2 34.85 Q9.75 35.15 10.25 35.6 L10.3 35.65 10.4 35.8 10.5 35.9 Q11.15 36.85 11.2 38.45 L10.0 36.65 Q8.5 35.1 7.0 36.0 5.55 36.95 5.6 38.7 L5.7 39.9 5.7 39.95 6.7 39.8 Q8.05 39.3 8.25 38.4 L8.2 37.5 Q9.15 38.85 7.9 39.85 6.85 40.7 5.75 40.55 4.9 40.35 4.3 39.6 L4.05 39.15 3.95 39.1 4.25 39.55 Q3.55 39.0 3.0 38.1 1.85 36.15 2.4 33.35 L2.55 33.35 M3.95 39.1 L4.1 39.0 4.05 38.85 3.9 38.9 3.95 39.1" fill="#c0d6b1" fill-rule="evenodd" stroke="none"/>
      <path d="M2.4 33.35 L2.45 33.05 2.55 33.35 2.4 33.35" fill="#00632e" fill-rule="evenodd" stroke="none"/>
      <path d="M11.85 39.9 Q11.75 41.0 11.1 42.1 10.1 43.9 7.0 43.95 L4.1 43.65 5.6 43.2 7.8 42.9 6.55 43.0 Q4.4 42.95 2.85 41.45 0.95 39.45 0.75 35.3 0.65 33.95 0.85 32.85 1.2 38.95 3.7 40.95 7.15 42.6 10.05 41.4 9.95 42.55 8.65 42.8 10.45 42.8 11.85 39.9" fill="#648a4a" fill-rule="evenodd" stroke="none"/>
      <path d="M3.95 39.1 L3.9 38.9 4.05 38.85 4.1 39.0 3.95 39.1" fill="#ccbf38" fill-rule="evenodd" stroke="none"/>
      <path d="M11.4 37.45 L11.5 37.85 11.35 37.45 11.4 37.45" fill="url(#gradient6)" fill-rule="evenodd" stroke="none"/>
      <path d="M41.5 33.35 Q41.35 31.15 40.7 29.55 40.0 27.75 40.1 26.85 L40.4 25.5 41.25 24.25 42.3 23.15 41.65 24.5 41.35 25.55 Q41.1 26.6 41.25 27.6 L41.65 29.3 Q42.9 30.5 43.2 32.85 42.85 38.95 40.35 40.95 36.9 42.6 34.0 41.4 34.1 42.55 35.4 42.8 33.6 42.8 32.2 39.9 32.15 39.3 32.25 38.75 L32.55 37.85 32.7 37.45 32.65 37.45 Q32.95 36.55 33.65 35.8 32.9 36.75 32.85 38.45 33.3 37.45 34.05 36.65 35.55 35.1 37.05 36.0 38.5 36.95 38.45 38.7 L38.35 39.9 38.35 39.95 37.35 39.8 Q36.0 39.3 35.8 38.4 L35.85 37.5 Q34.9 38.85 36.15 39.85 37.2 40.7 38.3 40.55 L39.75 39.6 40.0 39.15 40.1 39.1 39.8 39.55 41.05 38.1 Q42.2 36.15 41.65 33.35 L41.6 33.05 41.5 33.35" fill="#9ec087" fill-rule="evenodd" stroke="none"/>
      <path d="M32.2 39.9 Q33.6 42.8 35.4 42.8 34.1 42.55 34.0 41.4 36.9 42.6 40.35 40.95 42.85 38.95 43.2 32.85 L43.3 35.3 Q43.1 39.45 41.2 41.45 39.65 42.95 37.5 43.0 L36.25 42.9 38.45 43.2 39.95 43.65 37.05 43.95 Q33.95 43.9 32.95 42.1 32.3 41.0 32.2 39.9" fill="#648a4a" fill-rule="evenodd" stroke="none"/>
      <path d="M41.5 33.35 L41.6 33.05 41.65 33.35 41.5 33.35" fill="#00632e" fill-rule="evenodd" stroke="none"/>
      <path d="M41.65 33.35 Q42.2 36.15 41.05 38.1 L39.8 39.55 40.1 39.1 40.0 39.15 39.75 39.6 38.3 40.55 Q37.2 40.7 36.15 39.85 34.9 38.85 35.85 37.5 L35.8 38.4 Q36.0 39.3 37.35 39.8 L38.35 39.95 38.35 39.9 38.45 38.7 Q38.5 36.95 37.05 36.0 35.55 35.1 34.05 36.65 33.3 37.45 32.85 38.45 32.9 36.75 33.65 35.8 L33.8 35.65 33.8 35.6 Q34.3 35.15 34.85 34.85 L36.75 34.4 Q39.45 34.9 40.15 36.95 L40.25 37.5 Q41.1 36.35 41.45 34.6 L41.5 33.35 41.65 33.35 M40.1 39.1 L40.15 38.9 40.0 38.85 39.95 39.0 40.1 39.1" fill="#c0d6b1" fill-rule="evenodd" stroke="none"/>
      <path d="M40.1 39.1 L39.95 39.0 40.0 38.85 40.15 38.9 40.1 39.1" fill="#ccbf38" fill-rule="evenodd" stroke="none"/>
      <path d="M32.65 37.45 L32.7 37.45 32.55 37.85 32.65 37.45" fill="url(#gradient7)" fill-rule="evenodd" stroke="none"/>
    </g>
    <linearGradient gradientTransform="matrix(0.0, -0.0249, -0.025, 0.0, 6.1, 31.4)" gradientUnits="userSpaceOnUse" id="gradient6" spreadMethod="pad" x1="-819.2" x2="819.2">
      <stop offset="0.011764705882352941" stop-color="#bed9a5"/>
      <stop offset="1.0" stop-color="#739416"/>
    </linearGradient>
    <linearGradient gradientTransform="matrix(0.0, -0.0249, 0.025, 0.0, 37.9, 31.4)" gradientUnits="userSpaceOnUse" id="gradient7" spreadMethod="pad" x1="-819.2" x2="819.2">
      <stop offset="0.011764705882352941" stop-color="#bed9a5"/>
      <stop offset="1.0" stop-color="#739416"/>
    </linearGradient>
    <g id="sprite2" transform="matrix(1.0, 0.0, 0.0, 1.0, 0.2, 0.0)">
      <use height="8.6" transform="matrix(1.0, 0.0, 0.0, 1.0, -0.2, 0.0)" width="35.05" xlink:href="#shape4"/>
    </g>
    <g id="shape4" transform="matrix(1.0, 0.0, 0.0, 1.0, 0.2, 0.0)">
      <path d="M34.85 8.6 Q34.8 6.95 34.4 5.7 33.0 1.3 27.2 1.3 L7.45 1.3 Q0.05 1.3 -0.2 8.5 L-0.2 7.65 Q-0.2 0.0 7.45 0.0 L27.2 0.0 Q33.0 0.0 34.4 4.4 34.85 5.8 34.85 7.65 L34.85 8.6" fill="#e7deda" fill-rule="evenodd" stroke="none"/>
    </g>
  </defs>
</svg>
