<?xml version="1.0" encoding="UTF-8" standalone="no"?>
<svg xmlns:xlink="http://www.w3.org/1999/xlink" height="66.0px" width="66.0px" xmlns="http://www.w3.org/2000/svg">
  <g transform="matrix(1.5, 0.0, 0.0, 1.5, -0.075, -0.075)">
    <use height="44.0" transform="matrix(1.0, 0.0, 0.0, 1.0, 0.05, 0.05)" width="44.0" xlink:href="#shape0"/>
    <use height="0.0" transform="matrix(1.2077, 0.0, 0.0, 1.2065, 1.0, 0.75)" width="0.0" xlink:href="#sprite0"/>
    <use height="20.15" transform="matrix(1.1594, 0.0, 0.0, 1.1605, 5.8, 5.35)" width="28.2" xlink:href="#sprite1"/>
    <use height="10.35" transform="matrix(1.0, 0.0, 0.0, 1.0, 1.0, 0.5)" width="42.05" xlink:href="#sprite2"/>
  </g>
  <defs>
    <g id="shape0" transform="matrix(1.0, 0.0, 0.0, 1.0, -0.05, -0.05)">
      <path d="M41.85 2.3 Q44.05 4.5 44.05 7.65 L44.05 36.45 Q44.05 39.65 41.85 41.85 39.65 44.05 36.45 44.05 L7.65 44.05 Q4.5 44.05 2.3 41.85 0.05 39.65 0.05 36.45 L0.05 7.65 Q0.05 4.5 2.3 2.3 4.5 0.05 7.65 0.05 L36.45 0.05 Q39.6 0.05 41.85 2.3" fill="url(#gradient0)" fill-rule="evenodd" stroke="none"/>
      <path d="M8.9 9.0 Q14.35 3.55 22.1 3.55 29.8 3.55 35.25 9.0 40.65 14.45 40.65 22.1 40.65 29.8 35.25 35.25 29.8 40.65 22.1 40.65 14.35 40.65 8.9 35.25 3.45 29.8 3.45 22.1 3.45 14.35 8.9 9.0" fill="url(#gradient1)" fill-rule="evenodd" stroke="none"/>
      <path d="M40.9 22.1 Q40.9 29.95 35.3 35.45 29.8 41.15 21.9 41.15 13.95 41.15 8.45 35.45 2.9 29.95 2.9 22.1 2.9 14.15 8.45 8.65 13.95 3.05 21.9 3.05 29.8 3.05 35.3 8.65 40.9 14.15 40.9 22.1 M33.75 10.35 Q28.8 5.5 21.9 5.45 15.0 5.5 10.15 10.35 5.25 15.2 5.2 22.1 5.25 29.05 10.15 33.9 15.0 38.8 21.9 38.8 28.8 38.8 33.75 33.9 38.55 29.05 38.55 22.1 38.55 15.2 33.75 10.35" fill="url(#gradient2)" fill-rule="evenodd" stroke="none"/>
      <path d="M22.85 8.4 L30.35 19.0 15.25 19.0 22.85 8.4" fill="#496125" fill-rule="evenodd" stroke="none"/>
      <path d="M19.25 17.75 L26.15 17.85 Q26.5 27.45 19.9 36.25 21.45 26.85 19.25 17.75" fill="#496125" fill-rule="evenodd" stroke="none"/>
      <path d="M23.65 35.6 L27.75 26.25 32.75 24.25 23.65 35.6 M30.75 30.5 L34.45 31.05 25.95 35.6 30.75 30.5" fill="#496125" fill-rule="evenodd" stroke="none"/>
      <path d="M18.75 35.6 L12.85 22.25 17.2 25.5 18.75 35.6 M12.95 28.75 L17.1 34.35 8.7 28.1 12.95 28.75" fill="#496125" fill-rule="evenodd" stroke="none"/>
      <path d="M0.9 32.9 Q1.2 30.55 2.45 29.35 L2.85 27.7 Q3.0 26.65 2.75 25.6 L2.45 24.55 1.8 23.2 2.85 24.3 3.7 25.55 4.0 26.9 Q4.1 27.8 3.4 29.6 2.75 31.2 2.6 33.4 L2.5 33.1 2.45 33.4 Q1.9 36.2 3.05 38.15 3.6 39.1 4.3 39.6 L4.0 39.15 4.1 39.2 4.3 39.6 4.35 39.7 Q4.95 40.45 5.8 40.6 6.9 40.8 7.95 39.9 9.2 38.9 8.25 37.6 L8.3 38.45 Q8.1 39.4 6.75 39.85 L5.75 40.0 5.75 39.95 5.65 38.75 Q5.6 37.0 7.05 36.1 8.55 35.15 10.05 36.7 L11.25 38.5 Q11.2 36.65 10.3 35.7 L10.45 35.85 Q11.15 36.6 11.45 37.55 L11.4 37.55 11.55 37.95 11.85 38.8 11.9 39.95 Q10.5 42.85 8.7 42.85 10.0 42.65 10.1 41.45 7.2 42.7 3.75 41.0 1.25 39.05 0.9 32.9" fill="#9ec087" fill-rule="evenodd" stroke="none"/>
      <path d="M2.6 33.4 L2.65 34.7 Q3.0 36.45 3.85 37.6 L3.95 37.0 Q4.65 35.0 7.35 34.45 L9.25 34.9 10.3 35.7 Q11.2 36.65 11.25 38.5 L10.05 36.7 Q8.55 35.15 7.05 36.1 5.6 37.0 5.65 38.75 L5.75 39.95 5.75 40.0 6.75 39.85 Q8.1 39.4 8.3 38.45 L8.25 37.6 Q9.2 38.9 7.95 39.9 6.9 40.8 5.8 40.6 4.95 40.45 4.35 39.7 L4.3 39.6 4.1 39.2 4.0 39.15 4.3 39.6 Q3.6 39.1 3.05 38.15 1.9 36.2 2.45 33.4 L2.6 33.4 M4.0 39.15 L4.15 39.1 4.1 38.9 3.95 39.0 4.0 39.15" fill="#c0d6b1" fill-rule="evenodd" stroke="none"/>
      <path d="M2.45 33.4 L2.5 33.1 2.6 33.4 2.45 33.4" fill="#00632e" fill-rule="evenodd" stroke="none"/>
      <path d="M11.9 39.95 Q11.8 41.05 11.15 42.15 10.15 43.95 7.05 44.0 L4.15 43.75 5.65 43.25 7.85 43.0 6.6 43.1 Q4.45 43.05 2.9 41.55 1.0 39.5 0.8 35.4 0.7 34.0 0.9 32.9 1.25 39.05 3.75 41.0 7.2 42.7 10.1 41.45 10.0 42.65 8.7 42.85 10.5 42.85 11.9 39.95" fill="#648a4a" fill-rule="evenodd" stroke="none"/>
      <path d="M4.0 39.15 L3.95 39.0 4.1 38.9 4.15 39.1 4.0 39.15" fill="#ccbf38" fill-rule="evenodd" stroke="none"/>
      <path d="M11.45 37.55 L11.55 37.95 11.4 37.55 11.45 37.55" fill="url(#gradient3)" fill-rule="evenodd" stroke="none"/>
      <path d="M41.55 33.4 Q41.4 31.2 40.75 29.6 40.05 27.8 40.15 26.9 L40.45 25.55 41.3 24.3 42.35 23.2 41.7 24.55 41.4 25.6 Q41.15 26.65 41.3 27.7 L41.7 29.35 Q42.95 30.55 43.25 32.9 42.9 39.05 40.4 41.0 36.95 42.7 34.05 41.45 34.15 42.65 35.45 42.85 33.65 42.85 32.25 39.95 32.2 39.4 32.3 38.8 L32.6 37.95 32.75 37.55 32.7 37.55 Q33.0 36.6 33.7 35.85 L33.85 35.7 Q32.95 36.65 32.9 38.5 33.35 37.55 34.1 36.7 35.6 35.15 37.1 36.1 38.55 37.0 38.5 38.75 L38.4 39.95 38.4 40.0 37.4 39.85 Q36.05 39.4 35.85 38.45 L35.9 37.6 Q34.95 38.9 36.2 39.9 37.25 40.8 38.35 40.6 39.2 40.45 39.8 39.7 L39.9 39.6 41.1 38.15 Q42.25 36.2 41.7 33.4 L41.65 33.1 41.55 33.4 M39.9 39.6 L40.05 39.2 40.15 39.15 39.9 39.6" fill="#9ec087" fill-rule="evenodd" stroke="none"/>
      <path d="M41.55 33.4 L41.65 33.1 41.7 33.4 41.55 33.4" fill="#00632e" fill-rule="evenodd" stroke="none"/>
      <path d="M41.7 33.4 Q42.25 36.2 41.1 38.15 L39.9 39.6 39.8 39.7 Q39.2 40.45 38.35 40.6 37.25 40.8 36.2 39.9 34.95 38.9 35.9 37.6 L35.85 38.45 Q36.05 39.4 37.4 39.85 L38.4 40.0 38.4 39.95 38.5 38.75 Q38.55 37.0 37.1 36.1 35.6 35.15 34.1 36.7 33.35 37.55 32.9 38.5 32.95 36.65 33.85 35.7 L34.9 34.9 36.8 34.45 Q39.5 35.0 40.2 37.0 L40.3 37.6 Q41.15 36.45 41.5 34.7 L41.55 33.4 41.7 33.4 M40.15 39.15 L40.05 39.2 39.9 39.6 40.15 39.15 40.2 39.0 40.05 38.9 40.0 39.1 40.15 39.15" fill="#c0d6b1" fill-rule="evenodd" stroke="none"/>
      <path d="M32.25 39.95 Q33.65 42.85 35.45 42.85 34.15 42.65 34.05 41.45 36.95 42.7 40.4 41.0 42.9 39.05 43.25 32.9 L43.35 35.4 Q43.15 39.5 41.25 41.55 39.7 43.05 37.55 43.1 L36.3 43.0 38.5 43.25 40.0 43.75 37.1 44.0 Q34.0 43.95 33.0 42.15 32.35 41.05 32.25 39.95" fill="#648a4a" fill-rule="evenodd" stroke="none"/>
      <path d="M40.15 39.15 L40.0 39.1 40.05 38.9 40.2 39.0 40.15 39.15" fill="#ccbf38" fill-rule="evenodd" stroke="none"/>
      <path d="M32.7 37.55 L32.75 37.55 32.6 37.95 32.7 37.55" fill="url(#gradient4)" fill-rule="evenodd" stroke="none"/>
    </g>
    <linearGradient gradientTransform="matrix(0.0, -0.0283, -0.0551, 0.0, 22.65, 22.0)" gradientUnits="userSpaceOnUse" id="gradient0" spreadMethod="pad" x1="-819.2" x2="819.2">
      <stop offset="0.011764705882352941" stop-color="#9dae7c"/>
      <stop offset="1.0" stop-color="#7e8f45"/>
    </linearGradient>
    <linearGradient gradientTransform="matrix(0.0, -0.0173, -0.0173, 0.0, 22.1, 18.55)" gradientUnits="userSpaceOnUse" id="gradient1" spreadMethod="pad" x1="-819.2" x2="819.2">
      <stop offset="0.011764705882352941" stop-color="#d3d4b5"/>
      <stop offset="1.0" stop-color="#71a26f"/>
    </linearGradient>
    <linearGradient gradientTransform="matrix(1.0E-4, 0.0223, -0.0232, 1.0E-4, 21.95, 22.35)" gradientUnits="userSpaceOnUse" id="gradient2" spreadMethod="pad" x1="-819.2" x2="819.2">
      <stop offset="0.011764705882352941" stop-color="#516537"/>
      <stop offset="1.0" stop-color="#a8ce99"/>
    </linearGradient>
    <linearGradient gradientTransform="matrix(0.0, -0.025, -0.025, 0.0, 6.15, 31.5)" gradientUnits="userSpaceOnUse" id="gradient3" spreadMethod="pad" x1="-819.2" x2="819.2">
      <stop offset="0.011764705882352941" stop-color="#bed9a5"/>
      <stop offset="1.0" stop-color="#739416"/>
    </linearGradient>
    <linearGradient gradientTransform="matrix(0.0, -0.025, 0.025, 0.0, 37.95, 31.5)" gradientUnits="userSpaceOnUse" id="gradient4" spreadMethod="pad" x1="-819.2" x2="819.2">
      <stop offset="0.011764705882352941" stop-color="#bed9a5"/>
      <stop offset="1.0" stop-color="#739416"/>
    </linearGradient>
    <g id="sprite1" transform="matrix(1.0, 0.0, 0.0, 1.0, 0.0, 0.0)">
      <use height="20.15" transform="matrix(1.0, 0.0, 0.0, 1.0, 0.0, 0.0)" width="28.2" xlink:href="#shape1"/>
    </g>
    <g id="shape1" transform="matrix(1.0, 0.0, 0.0, 1.0, 0.0, 0.0)">
      <path d="M27.4 18.95 Q26.2 20.8 23.4 19.8 19.6 18.5 17.35 14.05 14.8 9.1 9.75 7.4 4.1 5.65 0.0 10.3 1.0 6.85 3.7 4.15 7.2 0.65 11.9 0.05 L14.8 0.05 18.4 0.65 Q21.55 1.65 24.05 4.15 28.2 8.3 28.2 14.25 28.2 16.45 27.65 18.45 L27.4 18.95" fill="#ffffff" fill-opacity="0.19607843" fill-rule="evenodd" stroke="none"/>
    </g>
    <g id="sprite2" transform="matrix(1.0, 0.0, 0.0, 1.0, 0.15, 0.0)">
      <use height="10.35" transform="matrix(1.0, 0.0, 0.0, 1.0, -0.15, 0.0)" width="42.05" xlink:href="#shape2"/>
    </g>
    <g id="shape2" transform="matrix(1.0, 0.0, 0.0, 1.0, 0.15, 0.0)">
      <path d="M32.7 0.0 Q39.65 0.0 41.35 5.3 41.9 7.0 41.9 9.2 L41.9 10.35 Q41.85 8.4 41.35 6.9 39.65 1.55 32.7 1.55 L9.05 1.55 Q0.15 1.55 -0.15 10.2 L-0.15 9.2 Q-0.15 0.0 9.05 0.0 L32.7 0.0" fill="#e7deda" fill-opacity="0.5882353" fill-rule="evenodd" stroke="none"/>
    </g>
  </defs>
</svg>
