<?xml version="1.0" encoding="UTF-8" standalone="no"?>
<svg xmlns:xlink="http://www.w3.org/1999/xlink" height="66.0px" width="66.0px" xmlns="http://www.w3.org/2000/svg">
  <g transform="matrix(1.5, 0.0, 0.0, 1.5, -0.075, -0.075)">
    <use height="44.0" transform="matrix(1.0, 0.0, 0.0, 1.0, 0.05, 0.05)" width="44.0" xlink:href="#shape0"/>
    <use height="0.0" transform="matrix(1.2125, 0.0, 0.0, 1.2125, 1.15, 0.95)" width="0.0" xlink:href="#sprite0"/>
    <use height="27.8" transform="matrix(1.0, 0.0, 0.0, 1.0, 6.15, 8.7)" width="31.75" xlink:href="#shape1"/>
    <use height="20.15" transform="matrix(1.1594, 0.0, 0.0, 1.1605, 5.8, 5.4)" width="28.2" xlink:href="#sprite1"/>
    <use height="8.6" transform="matrix(1.2077, 0.0, 0.0, 1.2065, 1.0085, 0.6)" width="35.05" xlink:href="#sprite2"/>
  </g>
  <defs>
    <g id="shape0" transform="matrix(1.0, 0.0, 0.0, 1.0, -0.05, -0.05)">
      <path d="M41.85 2.3 Q44.05 4.5 44.05 7.65 L44.05 36.45 Q44.05 39.65 41.85 41.85 39.65 44.05 36.45 44.05 L7.65 44.05 Q4.5 44.05 2.3 41.85 0.05 39.65 0.05 36.45 L0.05 7.65 Q0.05 4.5 2.3 2.3 4.5 0.05 7.65 0.05 L36.45 0.05 Q39.6 0.05 41.85 2.3" fill="url(#gradient0)" fill-rule="evenodd" stroke="none"/>
      <path d="M34.6 34.2 Q29.45 39.4 22.15 39.4 14.85 39.4 9.75 34.2 4.55 29.05 4.55 21.7 4.55 14.4 9.75 9.25 14.85 4.0 22.15 4.0 29.45 4.0 34.6 9.25 39.65 14.4 39.65 21.7 39.65 29.05 34.6 34.2" fill="url(#gradient1)" fill-rule="evenodd" stroke="none"/>
      <path d="M21.9 41.15 Q13.95 41.15 8.45 35.5 2.9 29.95 2.9 22.1 2.9 14.15 8.45 8.65 13.95 3.05 21.9 3.05 29.8 3.05 35.3 8.65 40.9 14.15 40.9 22.1 40.9 29.95 35.3 35.5 29.8 41.15 21.9 41.15 M21.9 5.45 Q15.0 5.5 10.15 10.4 5.25 15.2 5.2 22.1 5.25 29.05 10.15 33.9 15.0 38.8 21.9 38.8 28.8 38.8 33.75 33.9 38.55 29.05 38.55 22.1 38.55 15.2 33.75 10.4 28.8 5.5 21.9 5.45" fill="url(#gradient2)" fill-rule="evenodd" stroke="none"/>
      <path d="M5.7 36.1 Q5.6 36.85 5.0 37.45 4.3 38.15 3.35 38.15 2.4 38.15 1.65 37.45 L1.0 36.2 Q3.2 33.25 5.7 36.1" fill="#625748" fill-rule="evenodd" stroke="none"/>
      <path d="M1.0 36.2 L0.95 35.8 Q0.95 34.8 1.65 34.1 2.4 33.4 3.35 33.4 4.3 33.4 5.0 34.1 5.7 34.8 5.7 35.8 L5.7 36.1 Q3.2 33.25 1.0 36.2" fill="#494136" fill-rule="evenodd" stroke="none"/>
      <path d="M6.05 38.05 L6.0 37.8 Q6.0 37.2 6.45 36.75 6.85 36.35 7.45 36.35 8.05 36.35 8.45 36.75 8.9 37.2 8.9 37.8 L8.9 38.0 6.05 38.05" fill="#494136" fill-rule="evenodd" stroke="none"/>
      <path d="M8.9 38.0 L8.45 38.8 Q8.05 39.2 7.45 39.2 6.85 39.2 6.45 38.8 6.1 38.45 6.05 38.05 L8.9 38.0" fill="#625748" fill-rule="evenodd" stroke="none"/>
      <path d="M3.05 40.95 L3.0 40.7 Q3.0 40.1 3.45 39.65 3.85 39.25 4.45 39.25 5.05 39.25 5.45 39.65 5.9 40.1 5.9 40.7 L5.9 40.9 3.05 40.95" fill="#494136" fill-rule="evenodd" stroke="none"/>
      <path d="M5.9 40.9 L5.45 41.7 Q5.05 42.1 4.45 42.1 3.85 42.1 3.45 41.7 L3.05 40.95 5.9 40.9" fill="#625748" fill-rule="evenodd" stroke="none"/>
      <path d="M7.75 41.6 L7.75 41.45 Q7.75 41.0 8.05 40.65 8.4 40.35 8.85 40.35 9.25 40.35 9.6 40.65 9.95 41.0 9.95 41.45 L9.95 41.6 Q8.75 40.25 7.75 41.6" fill="#494136" fill-rule="evenodd" stroke="none"/>
      <path d="M9.95 41.6 L9.6 42.2 8.85 42.55 Q8.4 42.55 8.05 42.2 L7.75 41.6 Q8.75 40.25 9.95 41.6" fill="#625748" fill-rule="evenodd" stroke="none"/>
      <path d="M37.7 36.1 Q40.2 33.25 42.4 36.2 L41.75 37.45 Q41.0 38.15 40.05 38.15 39.1 38.15 38.4 37.45 37.8 36.85 37.7 36.1" fill="#625748" fill-rule="evenodd" stroke="none"/>
      <path d="M37.7 36.1 L37.7 35.8 Q37.7 34.8 38.4 34.1 39.1 33.4 40.05 33.4 41.0 33.4 41.75 34.1 42.45 34.8 42.45 35.8 L42.4 36.2 Q40.2 33.25 37.7 36.1" fill="#494136" fill-rule="evenodd" stroke="none"/>
      <path d="M34.5 38.0 L34.5 37.8 Q34.5 37.2 34.95 36.75 35.35 36.35 35.95 36.35 36.55 36.35 36.95 36.75 37.4 37.2 37.4 37.8 L37.35 38.05 34.5 38.0" fill="#494136" fill-rule="evenodd" stroke="none"/>
      <path d="M34.5 38.0 L37.35 38.05 36.95 38.8 Q36.55 39.2 35.95 39.2 35.35 39.2 34.95 38.8 L34.5 38.0" fill="#625748" fill-rule="evenodd" stroke="none"/>
      <path d="M37.5 40.9 L37.5 40.7 Q37.5 40.1 37.95 39.65 38.35 39.25 38.95 39.25 39.55 39.25 39.95 39.65 40.4 40.1 40.4 40.7 L40.35 40.95 37.5 40.9" fill="#494136" fill-rule="evenodd" stroke="none"/>
      <path d="M37.5 40.9 L40.35 40.95 39.95 41.7 Q39.55 42.1 38.95 42.1 38.35 42.1 37.95 41.7 L37.5 40.9" fill="#625748" fill-rule="evenodd" stroke="none"/>
      <path d="M33.45 41.6 L33.45 41.45 Q33.45 41.0 33.8 40.65 L34.55 40.35 Q35.0 40.35 35.35 40.65 L35.65 41.45 35.65 41.6 Q34.65 40.25 33.45 41.6" fill="#494136" fill-rule="evenodd" stroke="none"/>
      <path d="M33.45 41.6 Q34.65 40.25 35.65 41.6 L35.35 42.2 Q35.0 42.55 34.55 42.55 34.15 42.55 33.8 42.2 L33.45 41.6" fill="#625748" fill-rule="evenodd" stroke="none"/>
    </g>
    <linearGradient gradientTransform="matrix(0.0, -0.0551, -0.0551, 0.0, 22.05, 18.45)" gradientUnits="userSpaceOnUse" id="gradient0" spreadMethod="pad" x1="-819.2" x2="819.2">
      <stop offset="0.011764705882352941" stop-color="#bcb0a0"/>
      <stop offset="1.0" stop-color="#453e3a"/>
    </linearGradient>
    <linearGradient gradientTransform="matrix(0.0, -0.0155, -0.0187, 0.0, 21.55, 25.4)" gradientUnits="userSpaceOnUse" id="gradient1" spreadMethod="pad" x1="-819.2" x2="819.2">
      <stop offset="0.011764705882352941" stop-color="#bb9a76"/>
      <stop offset="1.0" stop-color="#a87f53"/>
    </linearGradient>
    <linearGradient gradientTransform="matrix(1.0E-4, 0.0223, -0.0232, 1.0E-4, 21.95, 22.35)" gradientUnits="userSpaceOnUse" id="gradient2" spreadMethod="pad" x1="-819.2" x2="819.2">
      <stop offset="0.011764705882352941" stop-color="#494136"/>
      <stop offset="1.0" stop-color="#dbccbd"/>
    </linearGradient>
    <g id="shape1" transform="matrix(1.0, 0.0, 0.0, 1.0, -6.15, -8.7)">
      <path d="M29.15 9.5 Q30.55 10.25 30.25 12.0 30.0 13.65 29.0 14.35 27.6 15.45 26.95 15.35 26.3 15.3 25.65 13.0 25.5 15.5 26.55 16.15 27.6 16.85 28.25 16.55 28.9 16.25 29.0 14.75 31.4 15.7 31.65 17.05 31.9 18.45 31.2 20.0 L30.8 20.9 31.55 20.8 Q33.9 21.1 34.5 23.4 34.9 22.3 34.7 21.2 34.4 19.75 33.2 20.05 31.8 21.05 33.35 19.2 34.0 18.35 34.85 18.4 35.85 18.3 37.2 19.7 37.9 20.35 37.9 21.45 37.9 24.05 34.05 28.85 L33.8 28.6 33.55 27.75 Q32.6 25.35 30.85 23.35 L30.8 23.3 30.7 23.2 Q26.7 19.2 21.05 19.2 15.4 19.2 11.4 23.2 8.8 25.8 7.9 29.1 7.15 28.2 6.7 26.5 5.05 21.4 8.15 21.7 6.8 22.5 7.1 23.75 7.45 24.85 8.0 24.8 6.75 22.65 8.7 22.0 L8.55 21.35 8.55 20.3 Q8.55 18.3 10.25 17.0 11.65 15.9 13.05 15.9 14.3 15.9 14.3 17.55 L14.15 18.65 Q14.05 18.95 13.0 19.45 L13.0 19.55 Q13.5 19.7 14.25 18.9 14.95 18.15 14.9 17.35 14.85 16.55 14.15 15.85 13.5 15.1 12.55 15.3 L12.55 13.65 Q13.0 12.35 14.15 11.6 15.2 10.9 16.55 10.9 18.55 10.9 18.55 13.45 L18.15 14.6 Q19.1 14.1 20.2 15.1 21.35 16.1 21.1 17.4 L21.15 17.4 Q21.3 16.7 22.15 16.1 L22.5 15.85 Q21.45 13.5 21.45 12.15 21.45 10.15 23.0 9.3 24.15 8.7 26.25 8.7 27.8 8.7 29.15 9.5 M21.4 23.8 L22.75 24.1 Q24.7 24.6 26.15 25.65 28.15 27.15 28.15 29.35 28.15 30.75 27.3 31.9 L29.0 33.9 28.85 34.05 27.4 35.45 25.7 36.5 24.85 33.85 Q23.3 34.55 21.4 34.55 19.55 34.55 18.0 33.85 L17.1 36.5 15.4 35.45 13.95 34.05 13.85 33.9 15.5 31.9 Q14.6 30.75 14.6 29.35 14.6 27.15 16.7 25.65 18.1 24.6 20.05 24.1 L21.4 23.8 M29.3 23.9 Q31.65 26.25 32.5 31.2 31.7 28.25 29.4 25.95 26.0 22.5 21.2 22.35 16.5 22.5 13.1 25.95 10.75 28.25 9.95 31.2 10.8 26.25 13.15 23.9 16.5 20.55 21.2 20.25 25.95 20.55 29.3 23.9 M19.05 30.1 Q19.6 29.45 19.6 28.55 19.6 27.75 19.05 27.1 18.5 26.45 17.7 26.45 16.85 26.45 16.35 27.1 15.8 27.75 15.8 28.55 15.8 29.45 16.35 30.1 16.85 30.65 17.7 30.65 18.5 30.65 19.05 30.1 M27.05 28.55 Q27.05 27.75 26.45 27.1 25.9 26.45 25.1 26.45 24.3 26.45 23.75 27.1 23.2 27.75 23.2 28.55 23.2 29.45 23.75 30.1 24.3 30.65 25.1 30.65 25.9 30.65 26.45 30.1 27.05 29.45 27.05 28.55" fill="#5f3921" fill-rule="evenodd" stroke="none"/>
    </g>
    <g id="sprite1" transform="matrix(1.0, 0.0, 0.0, 1.0, 0.0, 0.0)">
      <use height="20.15" transform="matrix(1.0, 0.0, 0.0, 1.0, 0.0, 0.0)" width="28.2" xlink:href="#shape2"/>
    </g>
    <g id="shape2" transform="matrix(1.0, 0.0, 0.0, 1.0, 0.0, 0.0)">
      <path d="M27.65 18.45 L27.4 18.95 Q26.2 20.8 23.4 19.8 19.6 18.5 17.35 14.05 14.8 9.1 9.75 7.4 4.1 5.65 0.0 10.3 1.0 6.85 3.7 4.15 7.2 0.65 11.9 0.05 L14.8 0.05 18.4 0.65 Q21.55 1.65 24.05 4.15 28.2 8.3 28.2 14.25 28.2 16.45 27.65 18.45" fill="#ffffff" fill-opacity="0.19607843" fill-rule="evenodd" stroke="none"/>
    </g>
    <g id="sprite2" transform="matrix(1.0, 0.0, 0.0, 1.0, 0.2, 0.0)">
      <use height="10.4" transform="matrix(0.8276, 0.0, 0.0, 0.8269, -0.2, 0.0)" width="42.35" xlink:href="#shape3"/>
    </g>
    <g id="shape3" transform="matrix(1.0, 0.0, 0.0, 1.0, 0.0, 0.0)">
      <path d="M42.35 9.25 L42.35 10.4 Q42.3 8.4 41.8 6.9 40.1 1.55 33.1 1.55 L9.25 1.55 Q0.3 1.55 0.0 10.25 L0.0 9.25 Q0.0 0.0 9.25 0.0 L33.1 0.0 Q40.1 0.0 41.8 5.3 42.35 7.0 42.35 9.25" fill="#e7deda" fill-opacity="0.5882353" fill-rule="evenodd" stroke="none"/>
    </g>
  </defs>
</svg>
