<?xml version="1.0" encoding="UTF-8" standalone="no"?>
<svg xmlns:xlink="http://www.w3.org/1999/xlink" height="66.0px" width="66.0px" xmlns="http://www.w3.org/2000/svg">
  <g transform="matrix(1.5, 0.0, 0.0, 1.5, 0.0, -0.15)">
    <use height="44.0" transform="matrix(1.0, 0.0, 0.0, 1.0, 0.0, 0.1)" width="44.0" xlink:href="#shape0"/>
    <use height="0.0" transform="matrix(1.2125, 0.0, 0.0, 1.2125, 1.0, 1.05)" width="0.0" xlink:href="#sprite0"/>
    <use height="20.8" transform="matrix(1.0, 0.0, 0.0, 1.0, 0.7, 23.25)" width="42.65" xlink:href="#shape1"/>
    <use height="8.6" transform="matrix(1.2077, 0.0, 0.0, 1.2065, 0.7085, 0.6)" width="35.05" xlink:href="#sprite1"/>
    <use height="20.15" transform="matrix(1.1594, 0.0, 0.0, 1.1605, 5.8, 5.6)" width="28.2" xlink:href="#sprite2"/>
    <use height="0.0" transform="matrix(1.2077, 0.0, 0.0, 1.2077, 0.8, 0.75)" width="0.0" xlink:href="#sprite0"/>
  </g>
  <defs>
    <g id="shape0" transform="matrix(1.0, 0.0, 0.0, 1.0, 0.0, -0.1)">
      <path d="M41.8 2.35 Q44.0 4.55 44.0 7.7 L44.0 36.5 Q44.0 39.7 41.8 41.9 39.6 44.1 36.4 44.1 L7.6 44.1 Q4.45 44.1 2.25 41.9 0.0 39.7 0.0 36.5 L0.0 7.7 Q0.0 4.55 2.25 2.35 4.45 0.1 7.6 0.1 L36.4 0.1 Q39.55 0.1 41.8 2.35" fill="url(#gradient0)" fill-rule="evenodd" stroke="none"/>
      <path d="M39.5 21.65 Q39.5 28.9 34.35 34.05 29.25 39.15 21.95 39.15 14.75 39.15 9.6 34.05 4.45 28.9 4.45 21.65 4.45 14.35 9.6 9.25 14.75 4.15 21.95 4.15 29.25 4.15 34.35 9.25 39.5 14.35 39.5 21.65" fill="url(#gradient1)" fill-rule="evenodd" stroke="none"/>
      <path d="M22.0 12.05 L21.95 13.65 Q21.45 14.75 19.9 15.35 17.7 15.25 17.1 14.3 16.75 13.75 16.55 12.85 L16.4 12.05 Q16.7 11.3 17.4 10.9 L18.4 10.9 19.2 11.6 Q19.45 12.15 18.75 12.7 19.2 12.7 19.5 12.4 L19.55 11.3 Q19.3 10.65 18.65 10.5 18.0 10.25 16.75 10.85 16.35 11.15 16.0 12.1 L16.0 12.15 Q15.7 13.05 16.5 14.25 15.55 14.45 14.6 13.05 13.7 11.55 15.25 8.75 15.75 8.2 17.5 7.6 18.9 7.55 20.05 8.2 21.2 9.0 21.75 10.4 L22.0 12.05 M35.05 11.5 Q34.3 8.4 33.6 7.15 45.05 18.15 35.75 33.05 27.65 42.05 20.15 40.25 12.6 38.45 10.85 35.8 5.45 30.35 6.35 25.55 7.05 21.8 8.85 20.15 9.15 19.7 11.35 18.95 13.7 18.1 14.55 18.4 L15.1 18.6 Q16.45 19.3 17.3 20.65 18.0 22.1 17.7 23.95 L17.4 25.3 Q17.0 26.55 16.15 27.2 15.0 28.05 13.1 27.75 L12.7 27.7 Q10.9 27.05 10.8 25.05 10.7 23.3 11.35 22.55 L11.7 22.2 12.15 21.95 13.1 21.85 Q13.7 21.9 14.15 22.4 14.65 22.85 14.55 23.6 14.45 24.3 13.5 24.4 L13.9 24.6 14.35 24.45 Q14.75 24.35 14.95 23.5 15.2 22.65 14.55 22.1 L13.55 21.55 12.45 21.4 Q11.85 21.4 10.95 22.2 L10.9 22.2 Q10.0 23.05 10.3 25.5 10.55 27.75 12.75 28.75 13.7 29.05 14.8 29.7 16.2 30.35 17.95 30.6 L20.9 30.85 23.0 30.8 Q21.15 29.35 20.55 27.45 19.55 24.4 20.05 22.4 L20.45 21.6 21.55 20.15 Q22.9 18.7 23.6 18.5 25.6 18.5 26.65 19.05 27.8 19.75 28.35 21.25 L28.7 22.45 Q28.95 23.5 28.55 24.4 28.05 25.55 26.5 26.15 L26.3 26.3 Q24.6 26.55 23.7 25.15 22.9 23.9 23.0 23.05 L23.0 22.95 23.4 22.25 Q23.8 21.85 24.0 21.8 L25.05 21.7 Q25.55 21.85 25.85 22.45 26.05 23.0 25.4 23.45 L25.75 23.4 26.1 23.15 Q26.3 22.85 26.15 22.15 25.9 21.5 25.25 21.3 24.6 21.1 23.95 21.3 L23.35 21.7 Q22.95 21.95 22.6 22.85 L22.6 22.95 Q22.35 23.8 23.1 25.05 L23.85 26.45 Q24.5 27.5 25.8 28.05 L28.4 28.4 Q29.75 28.3 30.7 27.15 L32.3 25.3 Q35.2 20.85 35.7 18.15 36.05 15.8 35.05 11.5" fill="#92300b" fill-rule="evenodd" stroke="none"/>
      <path d="M33.7 10.4 Q28.75 5.55 21.85 5.5 14.95 5.55 10.1 10.4 5.2 15.25 5.15 22.15 5.2 29.1 10.1 33.95 14.95 38.85 21.85 38.85 28.75 38.85 33.7 33.95 38.5 29.1 38.5 22.15 38.5 15.25 33.7 10.4 M40.85 22.15 Q40.85 30.0 35.25 35.5 29.75 41.2 21.85 41.2 13.9 41.2 8.4 35.5 2.85 30.0 2.85 22.15 2.85 14.2 8.4 8.7 13.9 3.1 21.85 3.1 29.75 3.1 35.25 8.7 40.85 14.2 40.85 22.15" fill="url(#gradient2)" fill-rule="evenodd" stroke="none"/>
    </g>
    <linearGradient gradientTransform="matrix(0.0, -0.0283, -0.0551, 0.0, 22.6, 22.05)" gradientUnits="userSpaceOnUse" id="gradient0" spreadMethod="pad" x1="-819.2" x2="819.2">
      <stop offset="0.011764705882352941" stop-color="#9dae7c"/>
      <stop offset="1.0" stop-color="#7e8f45"/>
    </linearGradient>
    <linearGradient gradientTransform="matrix(0.0, -0.0163, -0.0163, 0.0, 21.9, 18.25)" gradientUnits="userSpaceOnUse" id="gradient1" spreadMethod="pad" x1="-819.2" x2="819.2">
      <stop offset="0.011764705882352941" stop-color="#f9cfb3"/>
      <stop offset="1.0" stop-color="#ff5b79"/>
    </linearGradient>
    <linearGradient gradientTransform="matrix(1.0E-4, 0.0223, -0.0232, 1.0E-4, 21.9, 22.4)" gradientUnits="userSpaceOnUse" id="gradient2" spreadMethod="pad" x1="-819.2" x2="819.2">
      <stop offset="0.011764705882352941" stop-color="#516537"/>
      <stop offset="1.0" stop-color="#a8ce99"/>
    </linearGradient>
    <g id="shape1" transform="matrix(1.0, 0.0, 0.0, 1.0, -0.7, -23.25)">
      <path d="M0.85 32.95 Q1.15 30.6 2.4 29.4 L2.8 27.75 Q2.95 26.7 2.7 25.65 L2.4 24.6 1.75 23.25 2.8 24.35 3.65 25.6 3.95 26.95 Q4.05 27.85 3.35 29.65 2.7 31.25 2.55 33.45 L2.45 33.15 2.4 33.45 Q1.85 36.25 3.0 38.2 3.55 39.15 4.25 39.65 L4.3 39.75 Q4.9 40.5 5.75 40.65 6.85 40.85 7.9 39.95 9.15 38.95 8.2 37.65 L8.25 38.5 Q8.05 39.45 6.7 39.9 L5.7 40.05 5.7 40.0 5.6 38.8 Q5.55 37.05 7.0 36.15 8.5 35.2 10.0 36.75 L11.2 38.55 Q11.15 36.7 10.25 35.75 L10.4 35.9 Q11.1 36.65 11.4 37.6 L11.35 37.6 11.5 38.0 11.8 38.85 11.85 40.0 Q10.45 42.9 8.65 42.9 9.95 42.7 10.05 41.5 7.15 42.75 3.7 41.05 1.2 39.1 0.85 32.95 M3.95 39.2 L4.05 39.25 4.2 39.6 3.95 39.2" fill="#9ec087" fill-rule="evenodd" stroke="none"/>
      <path d="M11.85 40.0 Q11.75 41.1 11.1 42.2 10.1 44.0 7.0 44.05 L4.1 43.8 5.6 43.3 7.8 43.05 6.55 43.15 Q4.4 43.1 2.85 41.6 0.95 39.55 0.75 35.45 0.65 34.05 0.85 32.95 1.2 39.1 3.7 41.05 7.15 42.75 10.05 41.5 9.95 42.7 8.65 42.9 10.45 42.9 11.85 40.0" fill="#648a4a" fill-rule="evenodd" stroke="none"/>
      <path d="M2.4 33.45 L2.45 33.15 2.55 33.45 2.4 33.45" fill="#00632e" fill-rule="evenodd" stroke="none"/>
      <path d="M2.55 33.45 L2.6 34.75 Q2.95 36.5 3.8 37.65 L3.9 37.05 Q4.6 35.05 7.3 34.5 L9.2 34.95 10.25 35.75 Q11.15 36.7 11.2 38.55 L10.0 36.75 Q8.5 35.2 7.0 36.15 5.55 37.05 5.6 38.8 L5.7 40.0 5.7 40.05 6.7 39.9 Q8.05 39.45 8.25 38.5 L8.2 37.65 Q9.15 38.95 7.9 39.95 6.85 40.85 5.75 40.65 4.9 40.5 4.3 39.75 L4.25 39.65 Q3.55 39.15 3.0 38.2 1.85 36.25 2.4 33.45 L2.55 33.45 M3.95 39.2 L4.2 39.6 4.05 39.25 3.95 39.2 4.1 39.15 4.05 38.95 3.9 39.05 3.95 39.2" fill="#c0d6b1" fill-rule="evenodd" stroke="none"/>
      <path d="M3.95 39.2 L3.9 39.05 4.05 38.95 4.1 39.15 3.95 39.2" fill="#ccbf38" fill-rule="evenodd" stroke="none"/>
      <path d="M11.4 37.6 L11.5 38.0 11.35 37.6 11.4 37.6" fill="url(#gradient3)" fill-rule="evenodd" stroke="none"/>
      <path d="M41.5 33.45 Q41.35 31.25 40.7 29.65 40.0 27.85 40.1 26.95 L40.4 25.6 41.25 24.35 42.3 23.25 41.65 24.6 41.35 25.65 Q41.1 26.7 41.25 27.75 L41.65 29.4 Q42.9 30.6 43.2 32.95 42.85 39.1 40.35 41.05 36.9 42.75 34.0 41.5 34.1 42.7 35.4 42.9 33.6 42.9 32.2 40.0 32.15 39.45 32.25 38.85 L32.55 38.0 32.7 37.6 32.65 37.6 Q32.95 36.65 33.65 35.9 L33.8 35.75 Q32.9 36.7 32.85 38.55 33.3 37.6 34.05 36.75 35.55 35.2 37.05 36.15 38.5 37.05 38.45 38.8 L38.35 40.0 38.35 40.05 37.35 39.9 Q36.0 39.45 35.8 38.5 L35.85 37.65 Q34.9 38.95 36.15 39.95 37.2 40.85 38.3 40.65 39.15 40.5 39.75 39.75 L39.85 39.65 41.05 38.2 Q42.2 36.25 41.65 33.45 L41.6 33.15 41.5 33.45 M40.1 39.2 L39.85 39.65 40.0 39.25 40.1 39.2" fill="#9ec087" fill-rule="evenodd" stroke="none"/>
      <path d="M32.2 40.0 Q33.6 42.9 35.4 42.9 34.1 42.7 34.0 41.5 36.9 42.75 40.35 41.05 42.85 39.1 43.2 32.95 L43.3 35.45 Q43.1 39.55 41.2 41.6 39.65 43.1 37.5 43.15 L36.25 43.05 38.45 43.3 39.95 43.8 37.05 44.05 Q33.95 44.0 32.95 42.2 32.3 41.1 32.2 40.0" fill="#648a4a" fill-rule="evenodd" stroke="none"/>
      <path d="M41.5 33.45 L41.6 33.15 41.65 33.45 41.5 33.45" fill="#00632e" fill-rule="evenodd" stroke="none"/>
      <path d="M41.65 33.45 Q42.2 36.25 41.05 38.2 L39.85 39.65 39.75 39.75 Q39.15 40.5 38.3 40.65 37.2 40.85 36.15 39.95 34.9 38.95 35.85 37.65 L35.8 38.5 Q36.0 39.45 37.35 39.9 L38.35 40.05 38.35 40.0 38.45 38.8 Q38.5 37.05 37.05 36.15 35.55 35.2 34.05 36.75 33.3 37.6 32.85 38.55 32.9 36.7 33.8 35.75 L34.85 34.95 36.75 34.5 Q39.45 35.05 40.15 37.05 L40.25 37.65 Q41.1 36.5 41.45 34.75 L41.5 33.45 41.65 33.45 M40.1 39.2 L40.15 39.05 40.0 38.95 39.95 39.15 40.1 39.2 40.0 39.25 39.85 39.65 40.1 39.2" fill="#c0d6b1" fill-rule="evenodd" stroke="none"/>
      <path d="M40.1 39.2 L39.95 39.15 40.0 38.95 40.15 39.05 40.1 39.2" fill="#ccbf38" fill-rule="evenodd" stroke="none"/>
      <path d="M32.65 37.6 L32.7 37.6 32.55 38.0 32.65 37.6" fill="url(#gradient4)" fill-rule="evenodd" stroke="none"/>
    </g>
    <linearGradient gradientTransform="matrix(0.0, -0.025, -0.025, 0.0, 6.1, 31.55)" gradientUnits="userSpaceOnUse" id="gradient3" spreadMethod="pad" x1="-819.2" x2="819.2">
      <stop offset="0.011764705882352941" stop-color="#bed9a5"/>
      <stop offset="1.0" stop-color="#739416"/>
    </linearGradient>
    <linearGradient gradientTransform="matrix(0.0, -0.025, 0.025, 0.0, 37.9, 31.55)" gradientUnits="userSpaceOnUse" id="gradient4" spreadMethod="pad" x1="-819.2" x2="819.2">
      <stop offset="0.011764705882352941" stop-color="#bed9a5"/>
      <stop offset="1.0" stop-color="#739416"/>
    </linearGradient>
    <g id="sprite1" transform="matrix(1.0, 0.0, 0.0, 1.0, 0.2, 0.0)">
      <use height="8.6" transform="matrix(1.0, 0.0, 0.0, 1.0, -0.2, 0.0)" width="35.05" xlink:href="#shape2"/>
    </g>
    <g id="shape2" transform="matrix(1.0, 0.0, 0.0, 1.0, 0.2, 0.0)">
      <path d="M34.4 4.4 Q34.85 5.8 34.85 7.65 L34.85 8.6 Q34.8 6.95 34.4 5.7 33.0 1.3 27.2 1.3 L7.45 1.3 Q0.05 1.3 -0.2 8.5 L-0.2 7.65 Q-0.2 0.0 7.45 0.0 L27.2 0.0 Q33.0 0.0 34.4 4.4" fill="#e7deda" fill-rule="evenodd" stroke="none"/>
    </g>
    <g id="sprite2" transform="matrix(1.0, 0.0, 0.0, 1.0, 0.0, 0.0)">
      <use height="20.15" transform="matrix(1.0, 0.0, 0.0, 1.0, 0.0, 0.0)" width="28.2" xlink:href="#shape3"/>
    </g>
    <g id="shape3" transform="matrix(1.0, 0.0, 0.0, 1.0, 0.0, 0.0)">
      <path d="M27.65 18.45 L27.4 18.95 Q26.2 20.8 23.4 19.8 19.6 18.5 17.35 14.05 14.8 9.1 9.75 7.4 4.1 5.65 0.0 10.3 1.0 6.85 3.7 4.15 7.2 0.65 11.9 0.05 L14.8 0.05 18.4 0.65 Q21.55 1.65 24.05 4.15 28.2 8.3 28.2 14.25 28.2 16.45 27.65 18.45" fill="#ffffff" fill-opacity="0.19607843" fill-rule="evenodd" stroke="none"/>
    </g>
  </defs>
</svg>
