<?xml version="1.0" encoding="UTF-8" standalone="no"?>
<svg xmlns:xlink="http://www.w3.org/1999/xlink" height="66.15px" width="66.0px" xmlns="http://www.w3.org/2000/svg">
  <g transform="matrix(1.5, 0.0, 0.0, 1.5, -0.15, 0.0)">
    <use height="44.1" transform="matrix(1.0, 0.0, 0.0, 1.0, 0.1, 0.0)" width="44.0" xlink:href="#shape0"/>
    <use height="8.6" transform="matrix(1.2077, 0.0, 0.0, 1.2065, 1.0585, 0.75)" width="35.05" xlink:href="#sprite0"/>
    <use height="20.15" transform="matrix(1.1594, 0.0, 0.0, 1.1605, 6.1, 5.35)" width="28.2" xlink:href="#sprite1"/>
  </g>
  <defs>
    <g id="shape0" transform="matrix(1.0, 0.0, 0.0, 1.0, -0.1, 0.0)">
      <path d="M7.65 8.2 Q13.5 2.25 21.9 2.25 30.25 2.25 36.15 8.2 42.0 14.1 42.0 22.45 42.0 30.8 36.15 36.75 30.25 42.65 21.9 42.65 13.5 42.65 7.65 36.75 1.7 30.8 1.7 22.45 1.7 14.1 7.65 8.2" fill="url(#gradient0)" fill-rule="evenodd" stroke="none"/>
      <path d="M22.1 4.7 Q14.9 4.7 9.8 9.8 4.75 14.95 4.75 22.05 4.75 29.25 9.8 34.35 14.85 39.45 22.1 39.45 29.25 39.45 34.3 34.35 39.4 29.25 39.4 22.05 39.4 14.85 34.3 9.8 29.25 4.7 22.1 4.7 M36.5 0.0 Q39.7 0.0 41.85 2.25 44.1 4.55 44.1 7.65 L44.1 36.45 Q44.1 39.6 41.85 41.85 39.7 44.05 36.5 44.05 L7.7 44.05 Q4.55 44.05 2.35 41.85 0.1 39.65 0.1 36.45 L0.1 7.65 Q0.1 4.55 2.35 2.25 4.55 0.0 7.7 0.0 L36.5 0.0" fill="url(#gradient1)" fill-rule="evenodd" stroke="none"/>
      <path d="M41.15 22.0 Q41.15 29.85 35.55 35.4 30.05 41.0 22.2 41.0 14.3 41.0 8.8 35.4 3.25 29.85 3.25 22.0 3.25 14.15 8.8 8.6 14.3 3.05 22.2 3.05 30.05 3.05 35.55 8.6 41.15 14.15 41.15 22.0 M33.95 10.35 Q29.0 5.45 22.2 5.4 15.3 5.45 10.45 10.35 5.6 15.1 5.55 22.0 5.6 28.95 10.45 33.8 15.3 38.65 22.2 38.65 29.0 38.65 33.95 33.8 38.75 28.95 38.75 22.0 38.75 15.1 33.95 10.35" fill="url(#gradient2)" fill-rule="evenodd" stroke="none"/>
      <path d="M0.3 25.1 Q0.45 22.65 0.9 20.65 0.65 24.85 0.9 26.5 1.25 29.5 3.2 30.95 L8.2 35.1 Q10.7 37.45 11.1 40.2 L14.65 42.5 10.8 42.9 Q10.05 44.4 7.3 44.05 3.3 43.5 2.5 40.25 1.8 37.65 3.7 36.65 L3.9 34.45 4.6 36.3 Q6.6 35.9 7.05 37.0 7.55 38.05 6.95 39.1 6.35 40.05 5.8 39.25 6.5 39.2 6.6 38.8 6.65 38.4 5.95 37.75 5.35 37.1 4.75 37.4 4.2 37.7 3.9 38.85 3.3 41.3 6.15 42.4 9.1 43.5 9.55 40.8 10.05 38.55 7.25 36.2 L3.5 33.3 1.0 32.8 2.0 31.85 Q0.2 29.85 0.3 25.1" fill="#7a5130" fill-rule="evenodd" stroke="none"/>
      <path d="M0.35 24.2 Q0.5 21.8 0.95 19.8 0.7 23.95 0.95 25.55 1.3 28.55 3.25 30.05 L8.3 34.2 Q10.75 36.55 11.15 39.25 L14.8 42.55 10.9 42.05 Q10.15 43.5 7.35 43.15 3.35 42.55 2.55 39.4 1.85 36.8 3.8 35.8 L3.9 34.35 4.65 35.45 Q6.65 35.05 7.1 36.85 7.35 38.35 6.8 39.05 L5.95 39.4 Q7.25 38.2 5.85 36.9 4.55 35.55 3.95 37.95 3.35 40.4 6.2 41.45 9.15 42.55 9.6 39.9 10.15 37.7 7.3 35.25 L3.5 32.4 3.55 32.45 0.95 32.85 2.05 30.95 Q0.25 28.9 0.35 24.2" fill="#ca935c" fill-rule="evenodd" stroke="none"/>
      <path d="M0.95 21.45 Q0.9 24.4 1.0 25.6 1.5 28.65 3.35 30.15 L8.35 34.25 Q10.8 36.6 11.3 39.25 L14.4 42.15 14.15 42.05 14.0 41.9 12.3 40.7 Q10.45 39.1 10.4 38.0 10.25 36.65 8.55 35.15 L5.3 32.65 Q2.1 30.2 1.25 27.45 0.65 25.85 0.65 22.05 L0.95 21.45 M6.6 36.6 Q5.95 35.6 4.75 35.6 L4.55 35.7 4.45 35.6 4.3 35.6 4.3 34.75 4.8 35.5 Q6.7 35.1 7.2 36.9 7.4 37.95 7.2 38.65 L7.1 38.7 7.1 38.65 7.0 38.1 7.0 38.0 Q7.0 37.25 6.6 36.6 M4.35 40.3 L4.2 39.7 Q4.65 40.9 6.3 41.5 L8.55 41.7 8.65 41.75 7.1 42.05 Q6.3 42.05 5.45 41.35 L4.35 40.3" fill="#d7ad86" fill-rule="evenodd" stroke="none"/>
      <path d="M43.75 25.1 Q43.85 29.85 42.05 31.85 L43.05 32.8 40.55 33.3 36.8 36.2 Q34.0 38.55 34.5 40.8 34.95 43.5 37.9 42.4 40.75 41.3 40.15 38.85 39.85 37.7 39.3 37.4 38.7 37.1 38.1 37.75 37.4 38.4 37.45 38.8 37.55 39.2 38.25 39.25 37.7 40.05 37.1 39.1 36.5 38.05 37.0 37.0 37.45 35.9 39.45 36.3 L40.15 34.45 40.35 36.65 Q42.25 37.65 41.55 40.25 40.75 43.5 36.75 44.05 34.0 44.4 33.25 42.9 L29.4 42.5 32.95 40.2 Q33.35 37.45 35.85 35.1 L40.85 30.95 Q42.8 29.5 43.15 26.5 43.4 24.85 43.15 20.65 L43.75 25.1" fill="#7a5130" fill-rule="evenodd" stroke="none"/>
      <path d="M43.7 24.2 Q43.8 28.9 42.0 30.95 L43.1 32.85 40.5 32.45 40.55 32.4 36.75 35.25 Q33.9 37.7 34.45 39.9 34.9 42.55 37.85 41.45 40.7 40.4 40.1 37.95 39.5 35.55 38.2 36.9 36.8 38.2 38.1 39.4 L37.25 39.05 Q36.7 38.35 36.95 36.85 37.4 35.05 39.4 35.45 L40.15 34.35 40.25 35.8 Q42.2 36.8 41.5 39.4 40.7 42.55 36.7 43.15 33.9 43.5 33.15 42.05 L29.25 42.55 32.9 39.25 Q33.3 36.55 35.75 34.2 L40.8 30.05 Q42.75 28.55 43.1 25.55 43.35 23.95 43.1 19.8 L43.7 24.2" fill="#ca935c" fill-rule="evenodd" stroke="none"/>
      <path d="M37.45 36.6 Q37.05 37.25 37.05 38.0 L37.05 38.1 36.95 38.65 36.95 38.7 36.85 38.65 Q36.65 37.95 36.85 36.9 37.35 35.1 39.25 35.5 L39.75 34.75 39.75 35.6 39.6 35.6 39.5 35.7 39.3 35.6 Q38.1 35.6 37.45 36.6 M43.1 21.45 L43.4 22.05 Q43.4 25.85 42.8 27.45 41.95 30.2 38.75 32.65 L35.5 35.15 Q33.8 36.65 33.65 38.0 33.6 39.1 31.75 40.7 L30.05 41.9 29.9 42.05 29.65 42.15 32.75 39.25 Q33.25 36.6 35.7 34.25 L40.7 30.15 Q42.55 28.65 43.05 25.6 L43.1 21.45 M39.7 40.3 L38.6 41.35 Q37.75 42.05 36.95 42.05 L35.4 41.75 35.5 41.7 37.75 41.5 Q39.4 40.9 39.85 39.7 L39.7 40.3" fill="#d7ad86" fill-rule="evenodd" stroke="none"/>
      <path d="M27.8 5.55 L28.95 6.0 29.4 8.2 29.45 8.4 29.55 8.95 28.3 8.65 27.7 8.6 27.7 8.4 27.75 8.05 27.8 6.0 27.8 5.9 27.8 5.55 M27.55 11.2 L28.3 11.5 29.65 12.15 29.65 12.45 29.6 14.05 29.6 14.3 29.5 14.25 28.15 13.5 26.95 12.65 27.05 12.45 27.25 12.0 27.5 11.5 27.55 11.2 M27.65 9.9 L27.65 9.85 27.7 9.45 29.35 9.6 29.6 9.6 29.6 9.85 29.65 10.4 29.65 11.2 28.7 10.8 27.6 10.4 27.65 9.9 M27.8 14.15 L29.55 15.25 29.45 15.6 29.35 15.85 28.9 16.25 Q27.95 16.95 27.9 17.7 L27.95 17.95 27.95 18.1 27.65 18.4 27.75 18.7 28.6 20.45 Q29.05 21.7 29.15 23.2 L29.2 23.85 30.55 23.7 32.85 23.4 35.55 22.65 36.0 22.5 37.6 22.15 Q37.15 23.6 36.0 25.0 L35.95 25.05 35.55 25.3 Q33.85 26.5 31.6 26.65 L31.55 26.7 31.5 26.7 30.95 26.75 31.5 27.7 Q32.85 29.8 35.4 30.8 L32.15 30.7 32.7 32.95 Q33.25 34.35 34.1 35.55 31.9 34.55 31.0 32.95 L30.8 32.6 30.75 32.45 30.7 32.95 Q30.3 34.25 29.2 35.05 L29.15 32.95 28.85 31.7 27.25 32.95 26.1 33.35 26.35 32.95 27.65 30.55 27.15 31.25 26.95 31.5 26.5 32.05 Q25.35 33.3 24.1 33.8 23.45 35.05 23.15 36.65 22.9 37.6 22.05 37.65 L21.8 37.6 21.55 37.5 Q21.1 37.35 20.9 36.65 L20.05 33.8 Q18.45 33.15 17.1 31.65 L18.2 33.4 18.4 33.85 Q17.75 33.8 17.25 33.4 16.35 33.05 15.65 32.2 L15.35 33.4 Q15.15 34.55 15.3 35.55 14.2 34.75 13.85 33.4 L13.7 32.95 13.7 33.05 13.5 33.4 Q12.6 35.0 10.4 36.0 11.3 34.85 11.8 33.4 L12.4 31.15 9.15 31.3 Q10.8 30.6 11.85 29.55 L12.5 28.85 13.05 28.2 13.7 26.95 13.75 26.9 12.5 26.7 12.45 26.65 Q9.95 26.45 8.15 25.05 L7.8 24.6 Q6.85 23.45 6.4 22.15 L10.55 22.9 Q13.4 23.35 14.85 23.9 L14.9 23.2 Q15.1 20.75 16.35 18.7 L16.5 18.4 16.1 18.1 16.1 17.95 16.2 17.7 Q16.1 16.95 15.15 16.25 L14.75 15.85 14.65 15.6 14.55 14.65 16.3 13.4 17.2 12.75 17.75 13.7 17.9 13.85 18.9 13.7 19.0 13.65 Q19.7 13.45 19.85 14.05 20.05 14.35 19.9 15.05 L19.85 15.55 20.1 15.4 21.8 15.15 21.95 15.15 22.05 15.15 22.65 15.15 24.15 15.5 24.2 15.55 24.15 15.05 24.15 14.85 24.15 14.4 24.15 14.35 24.2 14.05 Q24.4 13.45 25.05 13.65 L25.1 13.7 25.15 13.7 26.2 13.85 26.3 13.7 26.55 13.4 26.65 13.45 27.8 14.15 M30.0 17.25 L31.05 16.95 Q31.45 16.95 31.45 17.3 L31.2 17.85 Q30.15 17.7 30.45 18.5 30.75 19.3 31.65 19.5 32.55 19.65 33.15 19.05 31.9 18.25 32.0 17.3 32.1 16.3 33.4 16.2 34.75 16.05 34.6 17.15 L34.25 19.1 34.6 19.15 Q35.95 19.15 36.15 17.1 36.15 16.4 35.3 15.5 L34.4 14.65 Q34.4 13.85 35.6 15.0 36.75 16.1 36.75 17.15 36.75 17.8 36.35 18.6 35.75 19.75 34.55 19.75 L34.15 19.6 Q32.95 21.3 31.35 21.2 29.75 21.05 29.4 20.05 29.1 19.0 29.25 18.35 29.4 17.65 30.0 17.25 M22.1 24.0 Q22.1 22.55 21.45 21.45 L21.3 21.3 Q20.55 20.2 19.45 20.2 18.4 20.2 17.65 21.3 16.85 22.45 16.85 24.0 16.85 25.55 17.65 26.75 L18.85 27.7 19.45 27.85 Q20.55 27.85 21.3 26.75 22.1 25.55 22.1 24.0 M21.45 24.45 Q21.45 25.45 20.85 26.2 20.35 26.9 19.55 26.9 18.75 26.9 18.1 26.2 17.55 25.45 17.55 24.45 17.55 23.45 18.1 22.7 18.75 22.0 19.55 22.0 20.35 22.0 20.85 22.7 21.45 23.45 21.45 24.45 M33.75 17.65 Q33.75 17.15 33.1 17.15 32.45 17.1 32.75 17.7 L33.3 18.35 33.55 18.5 33.75 17.65 M16.25 5.55 L16.25 6.0 16.35 8.05 16.4 8.55 15.75 8.6 14.65 8.55 14.7 8.2 15.1 6.0 15.3 5.9 16.25 5.55 M14.45 10.4 L14.5 9.85 14.6 9.35 15.75 9.35 16.45 9.35 16.5 9.85 16.5 9.9 16.5 10.05 15.8 10.35 Q15.0 10.65 14.45 10.9 L14.45 10.4 M18.9 23.25 L18.7 23.75 18.9 24.25 19.4 24.45 Q19.7 24.45 19.9 24.25 L20.1 23.75 19.9 23.25 19.4 23.05 18.9 23.25 M9.85 18.05 L10.05 18.9 10.3 18.75 10.85 18.1 Q11.15 17.5 10.5 17.55 9.85 17.55 9.85 18.05 M8.0 15.4 Q9.2 14.25 9.2 15.05 L8.3 15.9 Q7.45 16.8 7.45 17.5 7.65 19.55 9.0 19.55 L9.35 19.5 Q9.1 18.65 9.0 17.55 8.85 16.45 10.2 16.6 11.5 16.7 11.6 17.7 11.7 18.65 10.45 19.45 11.05 20.05 11.95 19.9 12.85 19.7 13.15 18.9 13.45 18.1 12.4 18.25 L12.15 17.7 Q12.15 17.35 12.55 17.35 L13.6 17.65 Q14.2 18.05 14.35 18.75 L14.2 20.45 Q13.85 21.45 12.25 21.6 10.65 21.7 9.45 20.0 L9.05 20.15 Q7.85 20.15 7.25 19.0 L6.85 17.55 Q6.85 16.5 8.0 15.4 M14.4 11.9 L14.45 11.75 16.0 11.1 16.6 10.9 16.6 11.5 16.8 12.0 16.1 12.6 Q15.6 12.85 14.8 13.45 14.6 13.55 14.5 13.7 L14.45 12.45 14.4 11.9 M17.8 30.75 Q19.45 33.25 22.25 33.2 25.05 33.1 26.55 30.5 28.1 27.75 27.95 25.0 L27.95 25.3 Q27.6 27.45 26.3 29.2 24.55 31.65 22.05 31.65 19.5 31.65 17.75 29.2 16.5 27.45 16.15 25.3 16.15 28.25 17.8 30.75 M26.1 25.7 L25.8 24.85 Q25.4 24.55 24.9 24.55 24.45 24.55 24.1 24.85 23.75 25.25 23.75 25.7 23.75 26.25 24.1 26.55 24.45 26.9 24.9 26.9 L25.8 26.55 25.85 26.55 26.1 25.7 M25.15 25.5 L25.3 25.8 25.15 26.1 24.9 26.25 24.6 26.1 24.45 25.8 24.6 25.5 Q24.7 25.35 24.9 25.35 L25.15 25.5" fill="#5f3921" fill-rule="evenodd" stroke="none"/>
    </g>
    <linearGradient gradientTransform="matrix(0.0, -0.0155, -0.0189, 0.0, 21.95, 25.45)" gradientUnits="userSpaceOnUse" id="gradient0" spreadMethod="pad" x1="-819.2" x2="819.2">
      <stop offset="0.011764705882352941" stop-color="#bb9a76"/>
      <stop offset="1.0" stop-color="#a87f53"/>
    </linearGradient>
    <linearGradient gradientTransform="matrix(0.0, -0.0344, -0.0552, 0.0, 22.5, 16.35)" gradientUnits="userSpaceOnUse" id="gradient1" spreadMethod="pad" x1="-819.2" x2="819.2">
      <stop offset="0.0196078431372549" stop-color="#9c6732"/>
      <stop offset="1.0" stop-color="#7d4e2b"/>
    </linearGradient>
    <linearGradient gradientTransform="matrix(1.0E-4, 0.0223, -0.0231, 1.0E-4, 22.25, 22.25)" gradientUnits="userSpaceOnUse" id="gradient2" spreadMethod="pad" x1="-819.2" x2="819.2">
      <stop offset="0.011764705882352941" stop-color="#59351e"/>
      <stop offset="1.0" stop-color="#cc955e"/>
    </linearGradient>
    <g id="sprite0" transform="matrix(1.0, 0.0, 0.0, 1.0, 0.2, 0.0)">
      <use height="8.6" transform="matrix(1.0, 0.0, 0.0, 1.0, -0.2, 0.0)" width="35.05" xlink:href="#shape1"/>
    </g>
    <g id="shape1" transform="matrix(1.0, 0.0, 0.0, 1.0, 0.2, 0.0)">
      <path d="M34.4 4.4 Q34.85 5.8 34.85 7.65 L34.85 8.6 Q34.8 6.95 34.4 5.7 33.0 1.3 27.2 1.3 L7.45 1.3 Q0.05 1.3 -0.2 8.5 L-0.2 7.65 Q-0.2 0.0 7.45 0.0 L27.2 0.0 Q33.0 0.0 34.4 4.4" fill="#e7deda" fill-rule="evenodd" stroke="none"/>
    </g>
    <g id="sprite1" transform="matrix(1.0, 0.0, 0.0, 1.0, 0.0, 0.0)">
      <use height="20.15" transform="matrix(1.0, 0.0, 0.0, 1.0, 0.0, 0.0)" width="28.2" xlink:href="#shape2"/>
    </g>
    <g id="shape2" transform="matrix(1.0, 0.0, 0.0, 1.0, 0.0, 0.0)">
      <path d="M27.65 18.45 L27.4 18.95 Q26.2 20.8 23.4 19.8 19.6 18.5 17.35 14.05 14.8 9.1 9.75 7.4 4.1 5.65 0.0 10.3 1.0 6.85 3.7 4.15 7.2 0.65 11.9 0.05 L14.8 0.05 18.4 0.65 Q21.55 1.65 24.05 4.15 28.2 8.3 28.2 14.25 28.2 16.45 27.65 18.45" fill="#ffffff" fill-opacity="0.19607843" fill-rule="evenodd" stroke="none"/>
    </g>
  </defs>
</svg>
