<?xml version="1.0" encoding="UTF-8" standalone="no"?>
<svg xmlns:xlink="http://www.w3.org/1999/xlink" height="66.0px" width="66.0px" xmlns="http://www.w3.org/2000/svg">
  <g transform="matrix(1.5, 0.0, 0.0, 1.5, -0.075, 0.0)">
    <use height="44.0" transform="matrix(1.0, 0.0, 0.0, 1.0, 0.05, 0.0)" width="44.0" xlink:href="#shape0"/>
    <use height="0.0" transform="matrix(1.2125, 0.0, 0.0, 1.2125, 1.15, 0.9)" width="0.0" xlink:href="#sprite0"/>
    <use height="20.15" transform="matrix(1.1548, 0.0, 0.0, 1.1548, 5.7, 5.5)" width="28.2" xlink:href="#sprite1"/>
    <use height="8.6" transform="matrix(1.2077, 0.0, 0.0, 1.2065, 1.0085, 0.9)" width="35.05" xlink:href="#sprite2"/>
  </g>
  <defs>
    <g id="shape0" transform="matrix(1.0, 0.0, 0.0, 1.0, -0.05, 0.0)">
      <path d="M7.65 0.0 L36.45 0.0 Q39.6 0.0 41.85 2.25 44.05 4.45 44.05 7.6 L44.05 36.4 Q44.05 39.6 41.85 41.8 39.65 44.0 36.45 44.0 L7.65 44.0 Q4.5 44.0 2.3 41.8 0.05 39.6 0.05 36.4 L0.05 7.6 Q0.05 4.45 2.3 2.25 4.5 0.0 7.65 0.0" fill="url(#gradient0)" fill-rule="evenodd" stroke="none"/>
      <path d="M34.95 8.8 Q40.15 14.05 40.15 21.4 40.15 28.8 34.95 34.1 29.75 39.3 22.35 39.3 14.9 39.3 9.7 34.1 4.5 28.8 4.5 21.4 4.5 14.05 9.7 8.8 15.0 3.55 22.35 3.55 29.75 3.55 34.95 8.8" fill="url(#gradient1)" fill-rule="evenodd" stroke="none"/>
      <path d="M27.25 15.9 L27.4 14.45 25.5 14.9 20.75 15.75 20.95 15.85 17.65 20.85 16.25 18.85 15.45 19.5 13.35 17.5 10.9 20.45 Q8.65 19.4 8.25 17.2 L13.9 10.1 Q14.9 10.45 15.75 11.4 L16.0 13.65 18.05 16.25 18.8 15.15 17.8 5.75 25.1 5.5 25.1 12.4 29.8 10.95 29.45 15.9 30.35 16.1 30.75 19.4 34.1 19.45 Q35.1 22.25 34.15 24.1 L26.1 24.1 Q25.6 23.05 25.55 21.6 L26.65 19.8 26.65 16.1 Q26.9 15.95 27.25 15.9 M20.75 15.75 L19.05 14.7 18.8 15.15 19.05 14.7 20.75 15.75 M25.1 12.4 L25.55 12.7 25.5 14.9 25.55 12.7 25.1 12.4 M16.85 38.65 Q11.4 37.5 5.45 30.8 L37.65 30.8 Q34.95 41.65 16.85 38.65" fill="#4a3355" fill-rule="evenodd" stroke="none"/>
      <path d="M27.25 15.9 L27.4 14.45 25.5 14.9 20.75 15.75 20.95 15.85 17.65 20.85 16.25 18.85 M18.05 16.25 L18.8 15.15 17.8 5.75 25.1 5.5 25.1 12.4 29.8 10.95 29.45 15.9 M25.5 14.9 L25.55 12.7 25.1 12.4 M18.8 15.15 L19.05 14.7 20.75 15.75" fill="none" stroke="#4a3355" stroke-linecap="round" stroke-linejoin="round" stroke-width="1.0"/>
      <path d="M10.25 27.0 Q10.7 28.3 11.95 28.95 L14.7 28.9 Q15.95 28.4 16.15 27.2 L16.25 26.45 15.75 26.5 Q13.8 26.4 13.2 25.1 12.85 24.35 13.5 24.05 L14.7 24.25 Q15.5 24.55 15.9 25.3 16.25 25.9 16.25 26.45 L17.7 26.2 Q18.55 25.75 19.0 24.75 19.3 23.65 18.9 22.75 L18.2 21.95" fill="none" stroke="#4a3355" stroke-linecap="round" stroke-linejoin="round" stroke-width="1.5"/>
      <path d="M21.9 5.4 Q15.0 5.45 10.15 10.35 5.25 15.15 5.2 22.05 5.25 29.0 10.15 33.85 15.0 38.75 21.9 38.75 28.8 38.75 33.75 33.85 38.55 29.0 38.55 22.05 38.55 15.15 33.75 10.35 28.8 5.45 21.9 5.4 M40.9 22.05 Q40.9 29.9 35.3 35.45 29.8 41.1 21.9 41.1 13.95 41.1 8.45 35.45 2.9 29.9 2.9 22.05 2.9 14.1 8.45 8.6 13.95 3.0 21.9 3.0 29.8 3.0 35.3 8.6 40.9 14.1 40.9 22.05" fill="url(#gradient2)" fill-rule="evenodd" stroke="none"/>
      <path d="M1.0 36.15 L0.95 35.75 Q0.95 34.75 1.65 34.05 2.4 33.35 3.35 33.35 4.3 33.35 5.0 34.05 5.7 34.75 5.7 35.75 L5.7 36.05 Q3.2 33.2 1.0 36.15" fill="#494136" fill-rule="evenodd" stroke="none"/>
      <path d="M5.7 36.05 Q5.6 36.8 5.0 37.4 4.3 38.1 3.35 38.1 2.4 38.1 1.65 37.4 L1.0 36.15 Q3.2 33.2 5.7 36.05" fill="#625748" fill-rule="evenodd" stroke="none"/>
      <path d="M6.05 38.0 L6.0 37.75 Q6.0 37.15 6.45 36.7 6.85 36.3 7.45 36.3 8.05 36.3 8.45 36.7 8.9 37.15 8.9 37.75 L8.9 37.95 6.05 38.0" fill="#494136" fill-rule="evenodd" stroke="none"/>
      <path d="M8.9 37.95 L8.45 38.75 Q8.05 39.15 7.45 39.15 6.85 39.15 6.45 38.75 6.1 38.4 6.05 38.0 L8.9 37.95" fill="#625748" fill-rule="evenodd" stroke="none"/>
      <path d="M3.05 40.9 L3.0 40.65 Q3.0 40.05 3.45 39.6 3.85 39.2 4.45 39.2 5.05 39.2 5.45 39.6 5.9 40.05 5.9 40.65 L5.9 40.85 3.05 40.9" fill="#494136" fill-rule="evenodd" stroke="none"/>
      <path d="M5.9 40.85 L5.45 41.65 Q5.05 42.05 4.45 42.05 3.85 42.05 3.45 41.65 L3.05 40.9 5.9 40.85" fill="#625748" fill-rule="evenodd" stroke="none"/>
      <path d="M7.75 41.55 L7.75 41.4 Q7.75 40.95 8.05 40.6 8.4 40.3 8.85 40.3 9.25 40.3 9.6 40.6 9.95 40.95 9.95 41.4 L9.95 41.55 Q8.75 40.2 7.75 41.55" fill="#494136" fill-rule="evenodd" stroke="none"/>
      <path d="M9.95 41.55 L9.6 42.15 8.85 42.5 Q8.4 42.5 8.05 42.15 L7.75 41.55 Q8.75 40.2 9.95 41.55" fill="#625748" fill-rule="evenodd" stroke="none"/>
      <path d="M37.7 36.05 Q40.2 33.2 42.4 36.15 L41.75 37.4 Q41.0 38.1 40.05 38.1 39.1 38.1 38.4 37.4 37.8 36.8 37.7 36.05" fill="#625748" fill-rule="evenodd" stroke="none"/>
      <path d="M37.7 36.05 L37.7 35.75 Q37.7 34.75 38.4 34.05 39.1 33.35 40.05 33.35 41.0 33.35 41.75 34.05 42.45 34.75 42.45 35.75 L42.4 36.15 Q40.2 33.2 37.7 36.05" fill="#494136" fill-rule="evenodd" stroke="none"/>
      <path d="M34.5 37.95 L34.5 37.75 Q34.5 37.15 34.95 36.7 35.35 36.3 35.95 36.3 36.55 36.3 36.95 36.7 37.4 37.15 37.4 37.75 L37.35 38.0 34.5 37.95" fill="#494136" fill-rule="evenodd" stroke="none"/>
      <path d="M34.5 37.95 L37.35 38.0 36.95 38.75 Q36.55 39.15 35.95 39.15 35.35 39.15 34.95 38.75 L34.5 37.95" fill="#625748" fill-rule="evenodd" stroke="none"/>
      <path d="M37.5 40.85 L37.5 40.65 Q37.5 40.05 37.95 39.6 38.35 39.2 38.95 39.2 39.55 39.2 39.95 39.6 40.4 40.05 40.4 40.65 L40.35 40.9 37.5 40.85" fill="#494136" fill-rule="evenodd" stroke="none"/>
      <path d="M37.5 40.85 L40.35 40.9 39.95 41.65 Q39.55 42.05 38.95 42.05 38.35 42.05 37.95 41.65 L37.5 40.85" fill="#625748" fill-rule="evenodd" stroke="none"/>
      <path d="M33.45 41.55 L33.45 41.4 Q33.45 40.95 33.8 40.6 L34.55 40.3 Q35.0 40.3 35.35 40.6 L35.65 41.4 35.65 41.55 Q34.65 40.2 33.45 41.55" fill="#494136" fill-rule="evenodd" stroke="none"/>
      <path d="M33.45 41.55 Q34.65 40.2 35.65 41.55 L35.35 42.15 Q35.0 42.5 34.55 42.5 34.15 42.5 33.8 42.15 L33.45 41.55" fill="#625748" fill-rule="evenodd" stroke="none"/>
    </g>
    <linearGradient gradientTransform="matrix(0.0, -0.0551, -0.0551, 0.0, 22.1, 18.45)" gradientUnits="userSpaceOnUse" id="gradient0" spreadMethod="pad" x1="-819.2" x2="819.2">
      <stop offset="0.011764705882352941" stop-color="#bcb0a0"/>
      <stop offset="1.0" stop-color="#453e3a"/>
    </linearGradient>
    <linearGradient gradientTransform="matrix(0.0, -0.0167, -0.0167, 0.0, 22.35, 18.05)" gradientUnits="userSpaceOnUse" id="gradient1" spreadMethod="pad" x1="-819.2" x2="819.2">
      <stop offset="0.011764705882352941" stop-color="#bcb9ae"/>
      <stop offset="1.0" stop-color="#9b5b79"/>
    </linearGradient>
    <linearGradient gradientTransform="matrix(1.0E-4, 0.0223, -0.0232, 1.0E-4, 21.95, 22.3)" gradientUnits="userSpaceOnUse" id="gradient2" spreadMethod="pad" x1="-819.2" x2="819.2">
      <stop offset="0.011764705882352941" stop-color="#494136"/>
      <stop offset="1.0" stop-color="#dbccbd"/>
    </linearGradient>
    <g id="sprite1" transform="matrix(1.0, 0.0, 0.0, 1.0, 0.0, 0.0)">
      <use height="20.15" transform="matrix(1.0, 0.0, 0.0, 1.0, 0.0, 0.0)" width="28.2" xlink:href="#shape1"/>
    </g>
    <g id="shape1" transform="matrix(1.0, 0.0, 0.0, 1.0, 0.0, 0.0)">
      <path d="M27.65 18.45 L27.4 18.95 Q26.2 20.8 23.4 19.8 19.6 18.5 17.35 14.05 14.8 9.1 9.75 7.4 4.1 5.65 0.0 10.3 1.0 6.85 3.7 4.15 7.2 0.65 11.9 0.05 L14.8 0.05 18.4 0.65 Q21.55 1.65 24.05 4.15 28.2 8.3 28.2 14.25 28.2 16.45 27.65 18.45" fill="#ffffff" fill-opacity="0.19607843" fill-rule="evenodd" stroke="none"/>
    </g>
    <g id="sprite2" transform="matrix(1.0, 0.0, 0.0, 1.0, 0.2, 0.0)">
      <use height="8.6" transform="matrix(1.0, 0.0, 0.0, 1.0, -0.2, 0.0)" width="35.05" xlink:href="#shape2"/>
    </g>
    <g id="shape2" transform="matrix(1.0, 0.0, 0.0, 1.0, 0.2, 0.0)">
      <path d="M34.4 4.4 Q34.85 5.8 34.85 7.65 L34.85 8.6 Q34.8 6.95 34.4 5.7 33.0 1.3 27.2 1.3 L7.45 1.3 Q0.05 1.3 -0.2 8.5 L-0.2 7.65 Q-0.2 0.0 7.45 0.0 L27.2 0.0 Q33.0 0.0 34.4 4.4" fill="#e7deda" fill-rule="evenodd" stroke="none"/>
    </g>
  </defs>
</svg>
