<?xml version="1.0" encoding="UTF-8" standalone="no"?>
<svg xmlns:xlink="http://www.w3.org/1999/xlink" height="66.0px" width="66.0px" xmlns="http://www.w3.org/2000/svg">
  <g transform="matrix(1.5, 0.0, 0.0, 1.5, -0.075, -0.15)">
    <use height="44.0" transform="matrix(1.0, 0.0, 0.0, 1.0, 0.05, 0.1)" width="44.0" xlink:href="#shape0"/>
    <use height="20.15" transform="matrix(1.1594, 0.0, 0.0, 1.1594, 5.85, 5.35)" width="28.2" xlink:href="#sprite0"/>
    <use height="8.6" transform="matrix(1.2077, 0.0, 0.0, 1.2065, 0.9585, 0.8)" width="35.05" xlink:href="#sprite1"/>
  </g>
  <defs>
    <g id="shape0" transform="matrix(1.0, 0.0, 0.0, 1.0, -0.05, -0.1)">
      <path d="M41.85 2.35 Q44.05 4.55 44.05 7.7 L44.05 36.5 Q44.05 39.7 41.85 41.9 39.65 44.1 36.45 44.1 L7.65 44.1 Q4.5 44.1 2.3 41.9 0.05 39.7 0.05 36.5 L0.05 7.7 Q0.05 4.55 2.3 2.35 4.5 0.1 7.65 0.1 L36.45 0.1 Q39.6 0.1 41.85 2.35" fill="url(#gradient0)" fill-rule="evenodd" stroke="none"/>
      <path d="M22.05 40.6 Q14.3 40.6 8.85 35.2 3.4 29.75 3.4 22.05 3.4 14.35 8.85 8.95 14.3 3.5 22.05 3.5 29.75 3.5 35.2 8.95 40.6 14.4 40.6 22.05 40.6 29.75 35.2 35.2 29.75 40.6 22.05 40.6" fill="url(#gradient1)" fill-rule="evenodd" stroke="none"/>
      <path d="M23.9 13.6 Q26.45 10.8 29.45 10.8 32.45 10.8 34.55 13.4 36.7 16.1 36.7 19.8 36.7 21.8 36.2 23.4 34.95 27.2 31.4 30.35 L31.4 30.3 Q25.6 34.45 21.1 36.3 10.2 31.2 7.75 23.4 L7.6 23.0 7.4 22.25 Q7.1 21.05 7.1 19.8 7.1 16.1 9.2 13.4 11.4 10.8 14.35 10.8 17.35 10.8 19.65 13.65 21.1 15.4 21.5 16.95 18.4 16.95 16.2 18.85 L15.8 19.25 15.6 19.45 Q14.05 21.2 14.05 23.45 14.05 25.75 15.6 27.5 L15.8 27.75 17.7 29.15 17.7 31.7 Q21.75 37.55 25.5 31.7 L25.5 29.15 27.6 27.3 Q29.0 25.65 29.0 23.45 29.0 21.1 27.25 19.25 L26.8 18.85 Q24.75 17.05 21.9 16.95 22.45 15.1 23.9 13.6 M22.75 20.75 Q23.35 18.75 24.15 19.25 25.0 19.8 25.6 21.25 26.15 22.7 26.15 23.8 26.15 24.9 25.6 25.65 25.0 26.4 24.15 26.4 23.35 26.4 22.75 25.65 22.2 24.9 22.2 23.8 22.2 22.7 22.75 20.75 M17.45 20.85 Q18.2 18.95 19.0 19.4 19.75 19.85 20.2 21.3 20.7 22.7 20.7 23.8 20.7 24.9 20.1 25.65 19.55 26.4 18.7 26.4 17.9 26.4 17.3 25.65 16.7 24.9 16.7 23.8 16.7 22.7 17.45 20.85 M22.45 30.5 Q22.65 31.65 22.45 32.45 22.25 33.25 21.5 33.25 20.75 33.25 20.45 32.55 20.1 31.8 20.35 30.7 L20.65 28.85 Q20.75 27.95 21.5 27.95 22.25 27.95 22.25 28.7 L22.45 30.5" fill="#372d2d" fill-rule="evenodd" stroke="none"/>
      <path d="M21.9 5.5 Q15.0 5.55 10.15 10.45 5.25 15.25 5.2 22.15 5.25 29.1 10.15 33.95 15.0 38.85 21.9 38.85 28.8 38.85 33.75 33.95 38.55 29.1 38.55 22.15 38.55 15.25 33.75 10.45 28.8 5.55 21.9 5.5 M21.9 41.2 Q13.95 41.2 8.45 35.55 2.9 30.0 2.9 22.15 2.9 14.2 8.45 8.7 13.95 3.1 21.9 3.1 29.8 3.1 35.3 8.7 40.9 14.2 40.9 22.15 40.9 30.0 35.3 35.55 29.8 41.2 21.9 41.2" fill="url(#gradient2)" fill-rule="evenodd" stroke="none"/>
      <path d="M5.7 36.15 Q5.6 36.9 5.0 37.5 4.3 38.2 3.35 38.2 2.4 38.2 1.65 37.5 L1.0 36.25 Q3.2 33.3 5.7 36.15" fill="#625748" fill-rule="evenodd" stroke="none"/>
      <path d="M1.0 36.25 L0.95 35.85 Q0.95 34.85 1.65 34.15 2.4 33.45 3.35 33.45 4.3 33.45 5.0 34.15 5.7 34.85 5.7 35.85 L5.7 36.15 Q3.2 33.3 1.0 36.25" fill="#494136" fill-rule="evenodd" stroke="none"/>
      <path d="M6.05 38.1 L6.0 37.85 Q6.0 37.25 6.45 36.8 6.85 36.4 7.45 36.4 8.05 36.4 8.45 36.8 8.9 37.25 8.9 37.85 L8.9 38.05 6.05 38.1" fill="#494136" fill-rule="evenodd" stroke="none"/>
      <path d="M8.9 38.05 L8.45 38.85 Q8.05 39.25 7.45 39.25 6.85 39.25 6.45 38.85 6.1 38.5 6.05 38.1 L8.9 38.05" fill="#625748" fill-rule="evenodd" stroke="none"/>
      <path d="M3.05 41.0 L3.0 40.75 Q3.0 40.15 3.45 39.7 3.85 39.3 4.45 39.3 5.05 39.3 5.45 39.7 5.9 40.15 5.9 40.75 L5.9 40.95 3.05 41.0" fill="#494136" fill-rule="evenodd" stroke="none"/>
      <path d="M5.9 40.95 L5.45 41.75 Q5.05 42.15 4.45 42.15 3.85 42.15 3.45 41.75 L3.05 41.0 5.9 40.95" fill="#625748" fill-rule="evenodd" stroke="none"/>
      <path d="M7.75 41.7 L7.75 41.55 Q7.75 41.1 8.05 40.75 8.4 40.45 8.85 40.45 9.25 40.45 9.6 40.75 9.95 41.1 9.95 41.55 L9.95 41.7 Q8.75 40.35 7.75 41.7" fill="#494136" fill-rule="evenodd" stroke="none"/>
      <path d="M9.95 41.7 L9.6 42.3 8.85 42.65 Q8.4 42.65 8.05 42.3 L7.75 41.7 Q8.75 40.35 9.95 41.7" fill="#625748" fill-rule="evenodd" stroke="none"/>
      <path d="M37.7 36.15 Q40.2 33.3 42.4 36.25 L41.75 37.5 Q41.0 38.2 40.05 38.2 39.1 38.2 38.4 37.5 37.8 36.9 37.7 36.15" fill="#625748" fill-rule="evenodd" stroke="none"/>
      <path d="M37.7 36.15 L37.7 35.85 Q37.7 34.85 38.4 34.15 39.1 33.45 40.05 33.45 41.0 33.45 41.75 34.15 42.45 34.85 42.45 35.85 L42.4 36.25 Q40.2 33.3 37.7 36.15" fill="#494136" fill-rule="evenodd" stroke="none"/>
      <path d="M34.5 38.05 L34.5 37.85 Q34.5 37.25 34.95 36.8 35.35 36.4 35.95 36.4 36.55 36.4 36.95 36.8 37.4 37.25 37.4 37.85 L37.35 38.1 34.5 38.05" fill="#494136" fill-rule="evenodd" stroke="none"/>
      <path d="M34.5 38.05 L37.35 38.1 36.95 38.85 Q36.55 39.25 35.95 39.25 35.35 39.25 34.95 38.85 L34.5 38.05" fill="#625748" fill-rule="evenodd" stroke="none"/>
      <path d="M37.5 40.95 L37.5 40.75 Q37.5 40.15 37.95 39.7 38.35 39.3 38.95 39.3 39.55 39.3 39.95 39.7 40.4 40.15 40.4 40.75 L40.35 41.0 37.5 40.95" fill="#494136" fill-rule="evenodd" stroke="none"/>
      <path d="M37.5 40.95 L40.35 41.0 39.95 41.75 Q39.55 42.15 38.95 42.15 38.35 42.15 37.95 41.75 L37.5 40.95" fill="#625748" fill-rule="evenodd" stroke="none"/>
      <path d="M33.45 41.7 L33.45 41.55 Q33.45 41.1 33.8 40.75 L34.55 40.45 Q35.0 40.45 35.35 40.75 L35.65 41.55 35.65 41.7 Q34.65 40.35 33.45 41.7" fill="#494136" fill-rule="evenodd" stroke="none"/>
      <path d="M33.45 41.7 Q34.65 40.35 35.65 41.7 L35.35 42.3 Q35.0 42.65 34.55 42.65 34.15 42.65 33.8 42.3 L33.45 41.7" fill="#625748" fill-rule="evenodd" stroke="none"/>
    </g>
    <linearGradient gradientTransform="matrix(0.0, -0.0551, -0.0551, 0.0, 22.05, 18.5)" gradientUnits="userSpaceOnUse" id="gradient0" spreadMethod="pad" x1="-819.2" x2="819.2">
      <stop offset="0.011764705882352941" stop-color="#bcb0a0"/>
      <stop offset="1.0" stop-color="#453e3a"/>
    </linearGradient>
    <linearGradient gradientTransform="matrix(0.0, -0.0173, -0.0173, 0.0, 22.05, 18.5)" gradientUnits="userSpaceOnUse" id="gradient1" spreadMethod="pad" x1="-819.2" x2="819.2">
      <stop offset="0.011764705882352941" stop-color="#c4bebb"/>
      <stop offset="1.0" stop-color="#9f8a82"/>
    </linearGradient>
    <linearGradient gradientTransform="matrix(1.0E-4, 0.0223, -0.0232, 1.0E-4, 21.95, 22.4)" gradientUnits="userSpaceOnUse" id="gradient2" spreadMethod="pad" x1="-819.2" x2="819.2">
      <stop offset="0.011764705882352941" stop-color="#494136"/>
      <stop offset="1.0" stop-color="#dbccbd"/>
    </linearGradient>
    <g id="sprite0" transform="matrix(1.0, 0.0, 0.0, 1.0, 0.0, 0.0)">
      <use height="20.15" transform="matrix(1.0, 0.0, 0.0, 1.0, 0.0, 0.0)" width="28.2" xlink:href="#shape1"/>
    </g>
    <g id="shape1" transform="matrix(1.0, 0.0, 0.0, 1.0, 0.0, 0.0)">
      <path d="M27.65 18.45 L27.4 18.95 Q26.2 20.8 23.4 19.8 19.6 18.5 17.35 14.05 14.8 9.1 9.75 7.4 4.1 5.65 0.0 10.3 1.0 6.85 3.7 4.15 7.2 0.65 11.9 0.05 L14.8 0.05 18.4 0.65 Q21.55 1.65 24.05 4.15 28.2 8.3 28.2 14.25 28.2 16.45 27.65 18.45" fill="#ffffff" fill-opacity="0.19607843" fill-rule="evenodd" stroke="none"/>
    </g>
    <g id="sprite1" transform="matrix(1.0, 0.0, 0.0, 1.0, 0.2, 0.0)">
      <use height="8.6" transform="matrix(1.0, 0.0, 0.0, 1.0, -0.2, 0.0)" width="35.05" xlink:href="#shape2"/>
    </g>
    <g id="shape2" transform="matrix(1.0, 0.0, 0.0, 1.0, 0.2, 0.0)">
      <path d="M34.4 4.4 Q34.85 5.8 34.85 7.65 L34.85 8.6 Q34.8 6.95 34.4 5.7 33.0 1.3 27.2 1.3 L7.45 1.3 Q0.05 1.3 -0.2 8.5 L-0.2 7.65 Q-0.2 0.0 7.45 0.0 L27.2 0.0 Q33.0 0.0 34.4 4.4" fill="#e7deda" fill-rule="evenodd" stroke="none"/>
    </g>
  </defs>
</svg>
