<?xml version="1.0" encoding="UTF-8" standalone="no"?>
<svg xmlns:xlink="http://www.w3.org/1999/xlink" height="66.15px" width="66.0px" xmlns="http://www.w3.org/2000/svg">
  <g transform="matrix(1.5, 0.0, 0.0, 1.5, -0.15, -0.15)">
    <use height="44.1" transform="matrix(1.0, 0.0, 0.0, 1.0, 0.1, 0.1)" width="44.0" xlink:href="#shape0"/>
    <use height="8.6" transform="matrix(1.2077, 0.0, 0.0, 1.2065, 1.1085, 1.1)" width="35.05" xlink:href="#sprite0"/>
    <use height="20.15" transform="matrix(1.1548, 0.0, 0.0, 1.1548, 5.9, 5.5)" width="28.2" xlink:href="#sprite1"/>
  </g>
  <defs>
    <g id="shape0" transform="matrix(1.0, 0.0, 0.0, 1.0, -0.1, -0.1)">
      <path d="M16.5 43.15 L15.4 42.3 28.8 42.3 28.8 44.2 20.2 44.2 Q18.1 44.15 16.5 43.15" fill="url(#gradient0)" fill-rule="evenodd" stroke="none"/>
      <path d="M28.8 42.3 L33.2 42.3 33.2 44.2 28.8 44.2 28.8 42.3 M20.2 44.2 L16.5 44.2 16.5 43.15 Q18.1 44.15 20.2 44.2" fill="url(#gradient1)" fill-rule="evenodd" stroke="none"/>
      <path d="M41.9 2.4 Q44.1 4.6 44.1 7.7 L44.1 36.55 Q44.1 39.75 41.9 41.95 39.7 44.15 36.5 44.15 L7.7 44.15 Q4.55 44.15 2.35 41.95 0.1 39.75 0.1 36.55 L0.1 7.7 Q0.1 4.6 2.35 2.4 4.55 0.1 7.7 0.1 L36.5 0.1 Q39.65 0.1 41.9 2.4" fill="url(#gradient2)" fill-rule="evenodd" stroke="none"/>
      <path d="M8.95 9.05 Q14.4 3.6 22.15 3.6 29.85 3.6 35.3 9.05 40.7 14.5 40.7 22.15 40.7 29.9 35.3 35.35 29.85 40.75 22.15 40.75 14.4 40.75 8.95 35.35 3.5 29.9 3.5 22.15 3.5 14.45 8.95 9.05" fill="url(#gradient3)" fill-rule="evenodd" stroke="none"/>
      <path d="M29.65 10.5 Q30.7 10.5 31.45 11.2 32.2 11.95 32.2 13.0 32.2 14.05 31.45 14.75 30.7 15.5 29.65 15.5 28.6 15.5 27.85 14.75 L27.45 14.25 Q27.15 13.65 27.15 13.0 27.15 11.95 27.85 11.2 28.6 10.5 29.65 10.5 M29.75 17.85 L32.7 14.8 34.4 16.7 33.0 18.1 32.95 18.1 32.0 19.05 32.0 20.55 27.4 20.55 27.4 19.3 24.95 16.85 26.7 14.95 29.45 17.85 29.75 17.85 M26.4 14.6 L24.6 16.5 23.6 15.5 23.25 14.95 Q23.1 14.55 23.25 14.2 L23.7 13.6 Q24.7 12.7 25.85 14.1 L26.4 14.6 M21.05 18.3 Q19.8 19.25 18.05 19.25 13.75 19.25 13.8 17.1 L13.85 15.05 14.0 14.6 14.25 14.0 Q15.0 12.75 17.2 12.75 19.2 12.75 19.2 14.6 L18.9 15.5 Q18.55 15.95 17.9 15.95 L17.2 15.75 17.15 15.7 16.95 15.35 17.05 15.2 17.2 14.85 17.1 14.8 16.8 15.05 16.65 15.3 Q16.65 15.6 16.95 15.9 17.35 16.25 17.95 16.25 18.75 16.25 19.15 15.6 L19.45 14.65 Q19.45 12.5 17.15 12.5 15.35 12.5 14.4 13.2 13.5 13.9 12.95 15.35 L12.25 17.35 Q11.8 18.85 11.8 20.55 11.8 24.45 13.4 26.85 L13.45 26.05 Q13.45 23.9 15.25 22.6 L15.4 22.5 Q17.05 21.4 18.7 21.4 21.5 21.4 23.6 23.4 L24.65 24.6 24.75 24.5 26.55 26.35 25.95 27.0 25.7 27.2 25.75 28.2 Q25.75 29.8 24.8 30.75 23.95 31.65 22.55 31.65 21.4 31.65 20.65 30.75 20.0 29.95 20.0 28.8 20.0 28.05 20.65 27.4 21.0 27.05 21.3 26.95 L21.35 26.95 22.1 26.85 Q22.6 26.85 23.15 27.35 L23.65 28.05 Q23.65 28.75 22.8 28.75 22.25 28.75 22.25 28.3 L22.15 28.25 21.95 28.45 22.2 28.85 22.8 29.05 Q23.9 29.05 23.9 28.05 23.9 27.55 23.35 27.1 22.7 26.5 21.6 26.5 20.75 26.5 20.05 27.05 17.8 27.9 17.8 30.15 L17.85 30.5 Q18.0 32.6 20.95 34.15 23.6 35.45 26.2 35.45 28.45 35.45 32.35 33.85 L36.2 31.8 Q27.6 44.4 12.3 37.85 0.1 31.85 5.95 14.55 10.15 8.5 14.8 8.65 19.5 8.75 21.25 11.15 23.1 13.5 22.75 15.35 22.45 17.2 21.05 18.3 M28.8 24.05 L26.9 26.0 25.05 24.15 27.4 21.95 27.4 20.95 32.0 20.95 32.0 22.2 34.35 24.4 32.5 26.25 30.35 24.05 28.8 24.05 M34.65 24.75 L34.8 24.85 Q36.15 26.05 35.3 27.0 L33.4 27.1 32.8 26.6 34.65 24.75 M35.65 13.4 Q36.65 14.3 35.75 15.35 L34.7 16.4 32.95 14.5 33.45 14.0 Q34.65 12.6 35.65 13.4" fill="#496125" fill-rule="evenodd" stroke="none"/>
      <path d="M33.8 10.45 Q28.85 5.6 21.95 5.5 15.05 5.6 10.2 10.45 5.3 15.25 5.25 22.15 5.3 29.15 10.2 34.0 15.05 38.9 21.95 38.9 28.85 38.9 33.8 34.0 38.6 29.15 38.6 22.15 38.6 15.25 33.8 10.45 M40.95 22.15 Q40.95 30.05 35.35 35.6 29.85 41.25 21.95 41.25 14.0 41.25 8.5 35.6 2.95 30.05 2.95 22.15 2.95 14.2 8.5 8.7 14.0 3.15 21.95 3.15 29.85 3.15 35.35 8.7 40.95 14.2 40.95 22.15" fill="url(#gradient4)" fill-rule="evenodd" stroke="none"/>
      <path d="M0.95 33.05 Q1.25 30.7 2.5 29.5 L2.9 27.8 Q3.05 26.8 2.8 25.75 L2.5 24.7 1.85 23.35 2.9 24.45 3.75 25.65 4.05 27.05 Q4.15 27.95 3.45 29.75 2.8 31.35 2.65 33.55 L2.55 33.3 2.5 33.55 Q1.95 36.35 3.1 38.3 3.65 39.25 4.35 39.8 L4.05 39.3 4.15 39.35 4.4 39.85 Q5.0 40.6 5.85 40.75 6.95 40.95 8.0 40.05 9.25 39.1 8.3 37.75 L8.35 38.6 Q8.15 39.55 6.8 40.0 L5.8 40.2 5.8 40.1 5.7 38.9 Q5.65 37.15 7.1 36.25 8.6 35.3 10.1 36.85 L11.3 38.65 Q11.25 36.8 10.35 35.85 L10.5 36.0 Q11.2 36.75 11.5 37.7 L11.45 37.7 11.6 38.1 11.9 38.95 11.95 40.1 Q10.55 43.0 8.75 43.0 10.05 42.8 10.15 41.65 7.25 42.85 3.8 41.15 1.3 39.2 0.95 33.05" fill="#9ec087" fill-rule="evenodd" stroke="none"/>
      <path d="M2.5 33.55 L2.55 33.3 2.65 33.55 2.5 33.55" fill="#00632e" fill-rule="evenodd" stroke="none"/>
      <path d="M2.65 33.55 L2.7 34.85 Q3.05 36.6 3.9 37.75 L4.0 37.15 Q4.7 35.15 7.4 34.6 L9.3 35.05 10.35 35.85 Q11.25 36.8 11.3 38.65 L10.1 36.85 Q8.6 35.3 7.1 36.25 5.65 37.15 5.7 38.9 L5.8 40.1 5.8 40.2 6.8 40.0 Q8.15 39.55 8.35 38.6 L8.3 37.75 Q9.25 39.1 8.0 40.05 6.95 40.95 5.85 40.75 5.0 40.6 4.4 39.85 L4.15 39.35 4.05 39.3 4.35 39.8 Q3.65 39.25 3.1 38.3 1.95 36.35 2.5 33.55 L2.65 33.55 M4.05 39.3 L4.2 39.25 4.15 39.1 4.0 39.15 4.05 39.3" fill="#c0d6b1" fill-rule="evenodd" stroke="none"/>
      <path d="M11.95 40.1 Q11.85 41.25 11.2 42.35 10.2 44.15 7.1 44.2 L4.2 43.9 5.7 43.45 7.9 43.15 6.65 43.25 Q4.5 43.2 2.95 41.7 1.05 39.65 0.85 35.55 0.75 34.15 0.95 33.05 1.3 39.2 3.8 41.15 7.25 42.85 10.15 41.65 10.05 42.8 8.75 43.0 10.55 43.0 11.95 40.1" fill="#648a4a" fill-rule="evenodd" stroke="none"/>
      <path d="M4.05 39.3 L4.0 39.15 4.15 39.1 4.2 39.25 4.05 39.3" fill="#ccbf38" fill-rule="evenodd" stroke="none"/>
      <path d="M11.5 37.7 L11.6 38.1 11.45 37.7 11.5 37.7" fill="url(#gradient5)" fill-rule="evenodd" stroke="none"/>
      <path d="M41.6 33.55 Q41.45 31.35 40.8 29.75 40.1 27.95 40.2 27.05 L40.5 25.65 41.35 24.45 42.4 23.35 41.75 24.7 41.45 25.75 Q41.2 26.8 41.35 27.8 L41.75 29.5 Q43.0 30.7 43.3 33.05 42.95 39.2 40.45 41.15 37.0 42.85 34.1 41.65 34.2 42.8 35.5 43.0 33.7 43.0 32.3 40.1 32.25 39.55 32.35 38.95 L32.65 38.1 32.8 37.7 32.75 37.7 Q33.05 36.75 33.75 36.0 L33.9 35.85 Q33.0 36.8 32.95 38.65 33.4 37.7 34.15 36.85 35.65 35.3 37.15 36.25 38.6 37.15 38.55 38.9 L38.45 40.1 38.45 40.2 37.45 40.0 Q36.1 39.55 35.9 38.6 L35.95 37.75 Q35.0 39.1 36.25 40.05 37.3 40.95 38.4 40.75 39.25 40.6 39.85 39.85 L40.1 39.35 40.2 39.3 39.9 39.8 41.15 38.3 Q42.3 36.35 41.75 33.55 L41.7 33.3 41.6 33.55" fill="#9ec087" fill-rule="evenodd" stroke="none"/>
      <path d="M41.75 33.55 Q42.3 36.35 41.15 38.3 L39.9 39.8 40.2 39.3 40.1 39.35 39.85 39.85 Q39.25 40.6 38.4 40.75 37.3 40.95 36.25 40.05 35.0 39.1 35.95 37.75 L35.9 38.6 Q36.1 39.55 37.45 40.0 L38.45 40.2 38.45 40.1 38.55 38.9 Q38.6 37.15 37.15 36.25 35.65 35.3 34.15 36.85 33.4 37.7 32.95 38.65 33.0 36.8 33.9 35.85 L34.95 35.05 36.85 34.6 Q39.55 35.15 40.25 37.15 L40.35 37.75 Q41.2 36.6 41.55 34.85 L41.6 33.55 41.75 33.55 M40.2 39.3 L40.25 39.15 40.1 39.1 40.05 39.25 40.2 39.3" fill="#c0d6b1" fill-rule="evenodd" stroke="none"/>
      <path d="M41.6 33.55 L41.7 33.3 41.75 33.55 41.6 33.55" fill="#00632e" fill-rule="evenodd" stroke="none"/>
      <path d="M32.3 40.1 Q33.7 43.0 35.5 43.0 34.2 42.8 34.1 41.65 37.0 42.85 40.45 41.15 42.95 39.2 43.3 33.05 L43.4 35.55 Q43.2 39.65 41.3 41.7 39.75 43.2 37.6 43.25 L36.35 43.15 38.55 43.45 40.05 43.9 37.15 44.2 Q34.05 44.15 33.05 42.35 32.4 41.25 32.3 40.1" fill="#648a4a" fill-rule="evenodd" stroke="none"/>
      <path d="M40.2 39.3 L40.05 39.25 40.1 39.1 40.25 39.15 40.2 39.3" fill="#ccbf38" fill-rule="evenodd" stroke="none"/>
      <path d="M32.75 37.7 L32.8 37.7 32.65 38.1 32.75 37.7" fill="url(#gradient6)" fill-rule="evenodd" stroke="none"/>
    </g>
    <linearGradient gradientTransform="matrix(0.0, -0.0555, -0.0554, 0.0, 34.85, 18.5)" gradientUnits="userSpaceOnUse" id="gradient0" spreadMethod="pad" x1="-819.2" x2="819.2">
      <stop offset="0.011764705882352941" stop-color="#e8e1b7"/>
      <stop offset="1.0" stop-color="#eed731"/>
    </linearGradient>
    <linearGradient gradientTransform="matrix(0.0, -0.0555, -0.0554, 0.0, 22.55, 18.5)" gradientUnits="userSpaceOnUse" id="gradient1" spreadMethod="pad" x1="-819.2" x2="819.2">
      <stop offset="0.011764705882352941" stop-color="#e8e1b7"/>
      <stop offset="1.0" stop-color="#eed731"/>
    </linearGradient>
    <linearGradient gradientTransform="matrix(0.0, -0.0283, -0.0551, 0.0, 22.7, 22.1)" gradientUnits="userSpaceOnUse" id="gradient2" spreadMethod="pad" x1="-819.2" x2="819.2">
      <stop offset="0.011764705882352941" stop-color="#9dae7c"/>
      <stop offset="1.0" stop-color="#7e8f45"/>
    </linearGradient>
    <linearGradient gradientTransform="matrix(0.0, -0.0173, -0.0173, 0.0, 22.15, 18.65)" gradientUnits="userSpaceOnUse" id="gradient3" spreadMethod="pad" x1="-819.2" x2="819.2">
      <stop offset="0.011764705882352941" stop-color="#d3d4b5"/>
      <stop offset="1.0" stop-color="#71a26f"/>
    </linearGradient>
    <linearGradient gradientTransform="matrix(1.0E-4, 0.0224, -0.0232, 1.0E-4, 22.0, 22.45)" gradientUnits="userSpaceOnUse" id="gradient4" spreadMethod="pad" x1="-819.2" x2="819.2">
      <stop offset="0.011764705882352941" stop-color="#516537"/>
      <stop offset="1.0" stop-color="#a8ce99"/>
    </linearGradient>
    <linearGradient gradientTransform="matrix(0.0, -0.025, -0.025, 0.0, 6.2, 31.65)" gradientUnits="userSpaceOnUse" id="gradient5" spreadMethod="pad" x1="-819.2" x2="819.2">
      <stop offset="0.011764705882352941" stop-color="#bed9a5"/>
      <stop offset="1.0" stop-color="#739416"/>
    </linearGradient>
    <linearGradient gradientTransform="matrix(0.0, -0.025, 0.025, 0.0, 38.0, 31.65)" gradientUnits="userSpaceOnUse" id="gradient6" spreadMethod="pad" x1="-819.2" x2="819.2">
      <stop offset="0.011764705882352941" stop-color="#bed9a5"/>
      <stop offset="1.0" stop-color="#739416"/>
    </linearGradient>
    <g id="sprite0" transform="matrix(1.0, 0.0, 0.0, 1.0, 0.2, 0.0)">
      <use height="8.6" transform="matrix(1.0, 0.0, 0.0, 1.0, -0.2, 0.0)" width="35.05" xlink:href="#shape1"/>
    </g>
    <g id="shape1" transform="matrix(1.0, 0.0, 0.0, 1.0, 0.2, 0.0)">
      <path d="M34.85 8.6 Q34.8 6.95 34.4 5.7 33.0 1.3 27.2 1.3 L7.45 1.3 Q0.05 1.3 -0.2 8.5 L-0.2 7.65 Q-0.2 0.0 7.45 0.0 L27.2 0.0 Q33.0 0.0 34.4 4.4 34.85 5.8 34.85 7.65 L34.85 8.6" fill="#e7deda" fill-rule="evenodd" stroke="none"/>
    </g>
    <g id="sprite1" transform="matrix(1.0, 0.0, 0.0, 1.0, 0.0, 0.0)">
      <use height="20.15" transform="matrix(1.0, 0.0, 0.0, 1.0, 0.0, 0.0)" width="28.2" xlink:href="#shape2"/>
    </g>
    <g id="shape2" transform="matrix(1.0, 0.0, 0.0, 1.0, 0.0, 0.0)">
      <path d="M27.65 18.45 L27.4 18.95 Q26.2 20.8 23.4 19.8 19.6 18.5 17.35 14.05 14.8 9.1 9.75 7.4 4.1 5.65 0.0 10.3 1.0 6.85 3.7 4.15 7.2 0.65 11.9 0.05 L14.8 0.05 18.4 0.65 Q21.55 1.65 24.05 4.15 28.2 8.3 28.2 14.25 28.2 16.45 27.65 18.45" fill="#ffffff" fill-opacity="0.19607843" fill-rule="evenodd" stroke="none"/>
    </g>
  </defs>
</svg>
