<?xml version="1.0" encoding="UTF-8" standalone="no"?>
<svg xmlns:xlink="http://www.w3.org/1999/xlink" height="66.0px" width="66.0px" xmlns="http://www.w3.org/2000/svg">
  <g transform="matrix(1.5, 0.0, 0.0, 1.5, 0.0, 0.0)">
    <use height="40.3" transform="matrix(1.0, 0.0, 0.0, 1.0, 1.6, 2.35)" width="40.35" xlink:href="#shape0"/>
    <use height="20.15" transform="matrix(1.1594, 0.0, 0.0, 1.1594, 5.8, 5.25)" width="28.2" xlink:href="#sprite0"/>
    <use height="29.3" transform="matrix(1.0, 0.0, 0.0, 1.0, 7.3, 7.1)" width="29.3" xlink:href="#shape2"/>
    <use height="20.15" transform="matrix(1.1594, 0.0, 0.0, 1.1594, 5.8, 5.25)" width="28.2" xlink:href="#sprite0"/>
    <use height="44.0" transform="matrix(1.0, 0.0, 0.0, 1.0, 0.0, 0.0)" width="44.0" xlink:href="#shape3"/>
    <use height="8.6" transform="matrix(1.2077, 0.0, 0.0, 1.2093, 0.5085, 0.75)" width="35.05" xlink:href="#sprite1"/>
    <use height="20.15" transform="matrix(1.1548, 0.0, 0.0, 1.1564, 6.3, 5.65)" width="28.2" xlink:href="#sprite2"/>
    <use height="39.85" transform="matrix(1.0, 0.0, 0.0, 1.0, 1.75, 4.1)" width="40.55" xlink:href="#shape6"/>
  </g>
  <defs>
    <g id="shape0" transform="matrix(1.0, 0.0, 0.0, 1.0, -1.6, -2.35)">
      <path d="M3.4 22.05 Q3.4 14.35 8.85 8.95 14.3 3.5 22.05 3.5 29.75 3.5 35.2 8.95 40.6 14.4 40.6 22.05 40.6 29.75 35.2 35.2 29.75 40.6 22.05 40.6 14.3 40.6 8.85 35.2 3.4 29.75 3.4 22.05" fill="url(#gradient0)" fill-rule="evenodd" stroke="none"/>
      <path d="M41.95 22.5 Q41.95 30.85 36.05 36.75 30.15 42.65 21.75 42.65 13.45 42.65 7.55 36.75 1.6 30.85 1.6 22.5 1.6 14.1 7.55 8.2 13.45 2.35 21.75 2.35 30.15 2.35 36.05 8.2 41.95 14.1 41.95 22.5" fill="url(#gradient1)" fill-rule="evenodd" stroke="none"/>
    </g>
    <linearGradient gradientTransform="matrix(0.0, -0.017, -0.0173, 0.0, 21.0, 26.95)" gradientUnits="userSpaceOnUse" id="gradient0" spreadMethod="pad" x1="-819.2" x2="819.2">
      <stop offset="0.011764705882352941" stop-color="#dad67d"/>
      <stop offset="1.0" stop-color="#cfa451"/>
    </linearGradient>
    <linearGradient gradientTransform="matrix(0.0, -0.0188, -0.0188, 0.0, 21.75, 18.6)" gradientUnits="userSpaceOnUse" id="gradient1" spreadMethod="pad" x1="-819.2" x2="819.2">
      <stop offset="0.011764705882352941" stop-color="#f9cfb3"/>
      <stop offset="1.0" stop-color="#ff5b79"/>
    </linearGradient>
    <g id="sprite0" transform="matrix(1.0, 0.0, 0.0, 1.0, 0.0, 0.0)">
      <use height="20.15" transform="matrix(1.0, 0.0, 0.0, 1.0, 0.0, 0.0)" width="28.2" xlink:href="#shape1"/>
    </g>
    <g id="shape1" transform="matrix(1.0, 0.0, 0.0, 1.0, 0.0, 0.0)">
      <path d="M27.65 18.45 L27.4 18.95 Q26.2 20.8 23.4 19.8 19.6 18.5 17.35 14.05 14.8 9.1 9.75 7.4 4.1 5.65 0.0 10.3 1.0 6.85 3.7 4.15 7.2 0.65 11.9 0.05 L14.8 0.05 18.4 0.65 Q21.55 1.65 24.05 4.15 28.2 8.3 28.2 14.25 28.2 16.45 27.65 18.45" fill="#ffffff" fill-opacity="0.19607843" fill-rule="evenodd" stroke="none"/>
    </g>
    <g id="shape2" transform="matrix(1.0, 0.0, 0.0, 1.0, -7.3, -7.1)">
      <path d="M27.4 17.0 L28.7 18.8 27.4 20.45 25.05 18.15 23.05 16.4 24.9 15.15 Q26.25 15.75 27.35 16.9 L27.4 17.0 M27.7 21.15 L29.3 18.95 29.4 18.8 29.35 18.65 Q28.85 17.55 27.95 16.6 L27.85 16.5 Q26.6 15.15 25.05 14.45 L24.9 14.45 24.75 14.45 22.35 16.2 22.25 16.35 22.25 16.55 22.35 16.7 24.65 18.6 27.2 21.2 27.4 21.25 27.6 21.25 27.7 21.15 M26.75 13.75 L26.7 13.75 25.9 14.15 Q27.25 14.85 28.35 16.05 L29.65 17.85 30.05 17.25 Q31.65 14.1 30.9 13.0 L30.9 12.95 Q29.85 12.1 26.75 13.75 M19.45 14.6 L21.55 16.1 21.7 16.15 21.95 16.05 23.9 14.65 24.05 14.45 24.0 14.2 23.8 14.1 22.0 13.8 19.55 14.0 19.35 14.15 19.35 14.4 19.45 14.6 M22.9 14.55 L21.75 15.4 20.5 14.5 22.0 14.45 22.9 14.55 M19.2 24.55 L21.65 26.7 21.9 26.8 22.1 26.7 24.5 24.55 27.05 21.85 27.1 21.65 27.0 21.45 24.4 18.85 21.95 16.8 21.75 16.75 21.5 16.8 19.15 19.0 16.65 21.6 16.55 21.85 16.65 22.05 19.2 24.55 M15.75 16.3 Q14.65 17.4 14.05 18.6 L14.0 18.8 14.1 18.95 16.0 21.35 16.15 21.4 16.35 21.4 16.5 21.3 18.85 18.75 21.15 16.75 21.25 16.55 21.25 16.35 21.15 16.2 18.65 14.5 18.5 14.5 18.35 14.45 17.95 14.65 15.95 16.05 15.75 16.3 M12.05 31.15 L12.05 31.1 Q10.55 29.75 12.75 25.9 L13.15 25.25 Q12.55 23.7 12.65 21.85 12.7 20.3 13.25 18.9 L12.6 17.9 12.1 17.0 11.45 15.45 11.2 14.05 Q11.2 13.35 11.6 12.85 L11.75 12.65 12.0 12.4 Q12.3 12.15 12.75 12.0 L13.35 11.9 Q14.7 11.85 17.0 12.9 L17.05 12.95 17.45 13.15 18.35 13.55 18.5 13.7 Q20.2 13.1 22.05 13.15 L24.85 13.65 Q25.5 13.2 26.25 12.9 30.25 10.85 31.6 12.35 33.0 13.7 30.95 17.65 L30.15 18.9 Q30.8 20.6 30.75 22.55 L30.4 24.75 30.4 24.8 Q32.2 27.4 32.7 29.25 33.0 30.5 32.6 31.1 32.15 31.9 31.0 31.85 29.4 31.95 25.95 30.25 23.9 31.35 21.35 31.25 19.45 31.2 17.8 30.4 L17.35 30.7 17.3 30.7 Q13.35 32.6 12.05 31.15 M17.35 21.85 L19.6 19.5 19.6 19.45 21.75 17.45 24.0 19.35 26.35 21.7 24.05 24.05 24.0 24.05 21.9 26.05 19.65 24.1 17.35 21.85 M27.85 21.9 L29.4 23.8 29.65 23.95 29.85 23.9 30.0 23.65 30.1 22.55 Q30.15 21.1 29.8 19.85 L29.65 19.6 29.4 19.6 29.2 19.7 27.8 21.45 27.75 21.65 27.85 21.9 M24.7 24.75 L22.5 26.75 22.4 26.95 22.4 27.1 22.55 27.3 25.85 29.45 26.0 29.45 26.15 29.4 27.4 28.4 Q28.95 26.95 29.7 25.1 L29.7 24.9 29.55 24.75 29.55 24.6 29.45 24.4 27.7 22.2 27.55 22.1 27.35 22.1 27.25 22.2 24.7 24.75 M29.3 20.65 L29.45 22.5 29.45 22.75 28.5 21.7 29.3 20.65 M27.4 22.9 L28.9 24.7 29.0 25.0 Q28.3 26.7 26.95 27.95 L26.0 28.75 23.2 27.05 25.15 25.2 25.1 25.2 27.4 22.9 M12.45 13.35 L12.25 13.8 12.2 14.0 12.25 14.7 12.3 14.9 12.75 16.1 13.45 17.45 13.45 17.4 13.75 17.9 Q14.2 17.05 14.8 16.4 L15.55 15.55 16.0 15.15 16.9 14.5 17.4 14.2 17.15 14.05 16.75 13.9 16.6 13.85 16.65 13.85 Q14.2 12.7 13.05 13.0 L12.6 13.2 12.45 13.35 M18.45 18.3 L16.25 20.65 14.75 18.75 Q15.35 17.5 16.4 16.55 17.35 15.65 18.45 15.1 L20.4 16.5 18.45 18.3 M13.85 19.55 L13.65 19.75 Q13.35 20.8 13.3 21.9 13.25 23.15 13.55 24.2 L13.65 24.4 13.9 24.45 14.1 24.3 15.85 22.1 15.95 21.85 15.85 21.65 14.2 19.65 14.05 19.55 13.85 19.55 M14.05 23.35 L13.95 21.9 14.15 20.55 15.2 21.85 14.05 23.35 M16.2 22.25 L16.0 22.4 Q14.8 23.8 13.95 25.15 L13.9 25.3 13.95 25.45 Q14.45 26.8 15.5 27.95 16.45 28.95 17.65 29.65 L17.8 29.65 18.0 29.65 21.35 27.3 21.45 27.15 21.45 26.95 21.3 26.8 19.05 24.8 18.95 24.75 16.5 22.35 16.4 22.25 16.2 22.25 M14.6 25.35 L16.3 23.05 18.5 25.3 18.6 25.35 20.6 27.05 17.8 28.95 15.95 27.5 Q15.05 26.5 14.6 25.35 M18.6 30.0 L18.8 30.15 21.35 30.6 Q23.35 30.7 25.15 29.95 L25.3 29.75 25.3 29.55 25.15 29.4 22.1 27.4 21.95 27.4 21.75 27.4 18.75 29.55 18.65 29.8 18.6 30.0 M27.85 28.85 L26.9 29.7 Q29.65 30.9 31.0 30.9 31.55 30.9 31.75 30.6 31.95 30.25 31.75 29.45 31.3 27.95 30.0 25.95 29.25 27.55 27.85 28.85 M13.55 26.4 L13.6 26.4 Q11.9 29.45 12.75 30.45 13.7 31.35 16.8 29.9 15.85 29.3 15.05 28.35 14.1 27.4 13.6 26.3 L13.55 26.4 M24.2 29.6 L21.4 30.0 19.7 29.75 21.9 28.1 24.2 29.6" fill="#92300b" fill-rule="evenodd" stroke="none"/>
      <path d="M36.6 21.75 Q36.6 27.8 32.3 32.1 28.0 36.4 21.95 36.4 15.9 36.4 11.6 32.1 7.3 27.8 7.3 21.75 7.3 15.7 11.6 11.4 15.9 7.1 21.95 7.1 28.0 7.1 32.3 11.4 36.6 15.7 36.6 21.75 M34.15 21.8 Q34.15 16.7 30.55 13.1 27.0 9.5 21.9 9.5 16.85 9.5 13.25 13.1 9.65 16.7 9.65 21.8 9.65 26.85 13.25 30.45 16.85 34.05 21.9 34.05 27.0 34.05 30.55 30.45 34.15 26.85 34.15 21.8" fill="#92300b" fill-rule="evenodd" stroke="none"/>
    </g>
    <g id="shape3" transform="matrix(1.0, 0.0, 0.0, 1.0, 0.0, 0.0)">
      <path d="M34.2 9.8 Q29.15 4.7 22.0 4.7 14.8 4.7 9.75 9.8 4.65 14.8 4.65 22.05 4.65 29.2 9.75 34.3 14.8 39.4 22.0 39.4 29.2 39.4 34.2 34.3 39.25 29.2 39.25 22.05 39.25 14.8 34.2 9.8 M2.15 2.25 Q4.45 0.0 7.55 0.0 L36.35 0.0 Q39.55 0.0 41.75 2.25 44.0 4.55 44.0 7.65 L44.0 36.45 Q44.0 39.55 41.75 41.8 39.55 44.0 36.35 44.0 L7.55 44.0 Q4.45 44.0 2.15 41.8 0.0 39.55 0.0 36.45 L0.0 7.65 Q0.0 4.55 2.15 2.25" fill="url(#gradient2)" fill-rule="evenodd" stroke="none"/>
      <path d="M21.9 5.55 Q15.0 5.6 10.2 10.5 5.3 15.35 5.3 22.2 5.3 29.15 10.2 34.05 15.0 38.85 21.9 38.85 28.75 38.85 33.65 34.05 38.55 29.15 38.55 22.2 38.55 15.35 33.65 10.5 28.8 5.6 21.9 5.55 M8.4 8.8 Q14.0 3.2 21.9 3.2 29.75 3.2 35.3 8.8 40.9 14.35 40.9 22.2 40.9 30.15 35.3 35.7 29.75 41.25 21.9 41.25 14.0 41.25 8.4 35.7 2.85 30.15 2.85 22.2 2.85 14.35 8.4 8.8" fill="url(#gradient3)" fill-rule="evenodd" stroke="none"/>
    </g>
    <linearGradient gradientTransform="matrix(0.0, -0.0275, -0.044, 0.0, 20.85, 22.2)" gradientUnits="userSpaceOnUse" id="gradient2" spreadMethod="pad" x1="-819.2" x2="819.2">
      <stop offset="0.0196078431372549" stop-color="#905a3d"/>
      <stop offset="0.9764705882352941" stop-color="#6a412d"/>
    </linearGradient>
    <linearGradient gradientTransform="matrix(0.0, -0.0168, -0.0168, 0.0, 21.9, 26.8)" gradientUnits="userSpaceOnUse" id="gradient3" spreadMethod="pad" x1="-819.2" x2="819.2">
      <stop offset="0.0196078431372549" stop-color="#a3704d"/>
      <stop offset="0.9803921568627451" stop-color="#492d20"/>
    </linearGradient>
    <g id="sprite1" transform="matrix(1.0, 0.0, 0.0, 1.0, 0.2, 0.0)">
      <use height="8.6" transform="matrix(1.0, 0.0, 0.0, 1.0, -0.2, 0.0)" width="35.05" xlink:href="#shape4"/>
    </g>
    <g id="shape4" transform="matrix(1.0, 0.0, 0.0, 1.0, 0.2, 0.0)">
      <path d="M34.85 8.6 Q34.8 6.95 34.4 5.7 33.0 1.3 27.2 1.3 L7.45 1.3 Q0.05 1.3 -0.2 8.5 L-0.2 7.65 Q-0.2 0.0 7.45 0.0 L27.2 0.0 Q33.0 0.0 34.4 4.4 34.85 5.8 34.85 7.65 L34.85 8.6" fill="#e7deda" fill-rule="evenodd" stroke="none"/>
    </g>
    <g id="sprite2" transform="matrix(1.0, 0.0, 0.0, 1.0, 0.0, 0.0)">
      <use height="20.15" transform="matrix(1.0, 0.0, 0.0, 1.0, 0.0, 0.0)" width="28.2" xlink:href="#shape5"/>
    </g>
    <g id="shape5" transform="matrix(1.0, 0.0, 0.0, 1.0, 0.0, 0.0)">
      <path d="M27.65 18.45 L27.4 18.95 Q26.2 20.8 23.4 19.8 19.6 18.5 17.35 14.05 14.8 9.1 9.75 7.4 4.1 5.65 0.0 10.3 1.0 6.85 3.7 4.15 7.2 0.65 11.9 0.05 L14.8 0.05 18.4 0.65 Q21.55 1.65 24.05 4.15 28.2 8.3 28.2 14.25 28.2 16.45 27.65 18.45" fill="#ffffff" fill-opacity="0.19607843" fill-rule="evenodd" stroke="none"/>
    </g>
    <g id="shape6" transform="matrix(1.0, 0.0, 0.0, 1.0, -1.75, -4.1)">
      <path d="M16.25 40.5 Q12.8 39.5 9.55 37.85 10.85 34.6 13.2 34.05 13.95 37.7 16.25 40.5 M27.35 40.5 Q28.95 38.45 29.75 35.85 L30.25 34.05 Q32.6 34.6 33.85 37.9 30.7 39.6 27.35 40.5" fill="url(#gradient4)" fill-rule="evenodd" stroke="none"/>
      <path d="M13.2 34.05 Q14.7 37.1 17.9 38.5 L16.25 40.5 Q13.95 37.7 13.2 34.05 M27.35 40.5 L25.55 38.5 Q28.75 37.1 30.25 34.05 L29.75 35.85 Q28.95 38.45 27.35 40.5" fill="#6d4a34" fill-rule="evenodd" stroke="none"/>
      <path d="M32.2 14.2 Q31.7 9.8 29.1 7.05 L30.8 5.3 31.05 5.8 31.5 7.45 Q32.25 10.95 32.2 14.2 M11.75 14.2 Q11.6 9.9 13.15 5.3 L14.9 7.05 Q12.3 9.8 11.75 14.2" fill="#492d20" fill-rule="evenodd" stroke="none"/>
      <path d="M31.05 5.8 L30.45 4.1 Q33.85 5.85 36.75 8.8 L36.8 8.9 Q36.0 12.95 32.2 14.2 32.25 10.95 31.5 7.45 L31.05 5.8 M13.15 5.3 Q11.6 9.9 11.75 14.2 7.95 12.95 7.15 9.0 L7.35 8.8 Q10.15 5.9 13.45 4.3 L13.15 5.3" fill="url(#gradient5)" fill-rule="evenodd" stroke="none"/>
      <path d="M42.2 33.5 L42.2 36.2 Q42.2 37.2 41.6 37.85 41.1 38.45 40.25 38.45 39.4 38.45 38.8 37.85 38.2 37.2 38.2 36.2 L38.2 34.95 M1.85 33.5 L1.85 36.2 Q1.85 37.2 2.4 37.85 2.9 38.45 3.8 38.45 4.6 38.45 5.25 37.85 5.8 37.2 5.8 36.2 L5.8 34.95" fill="none" stroke="#6a402d" stroke-linecap="round" stroke-linejoin="round" stroke-width="0.25"/>
      <path d="M39.4 5.45 L39.75 5.35 Q40.3 5.35 40.65 6.2 L40.9 8.3 40.65 10.35 Q40.3 11.25 39.75 11.25 L39.4 11.1 39.95 10.35 40.25 8.3 39.95 6.2 39.4 5.45 M4.55 11.1 L4.2 11.25 Q3.7 11.25 3.35 10.35 3.05 9.5 3.05 8.3 3.05 7.05 3.35 6.2 3.7 5.35 4.2 5.35 L4.55 5.45 4.0 6.2 Q3.75 7.05 3.75 8.3 3.75 9.5 4.0 10.35 L4.55 11.1" fill="#1a0d09" fill-rule="evenodd" stroke="none"/>
      <path d="M39.4 5.45 L39.95 6.2 40.25 8.3 39.95 10.35 39.4 11.1 38.95 10.35 Q38.6 9.5 38.6 8.3 38.6 7.05 38.95 6.2 L39.4 5.45 M4.55 5.45 L5.0 6.2 Q5.35 7.05 5.35 8.3 5.35 9.5 5.0 10.35 L4.55 11.1 4.0 10.35 Q3.75 9.5 3.75 8.3 3.75 7.05 4.0 6.2 L4.55 5.45" fill="#331d16" fill-rule="evenodd" stroke="none"/>
      <path d="M39.4 11.1 L39.75 11.25 Q40.3 11.25 40.65 10.35 L40.9 8.3 40.65 6.2 Q40.3 5.35 39.75 5.35 L39.4 5.45 38.95 6.2 Q38.6 7.05 38.6 8.3 38.6 9.5 38.95 10.35 L39.4 11.1 M4.55 11.1 L4.2 11.25 Q3.7 11.25 3.35 10.35 3.05 9.5 3.05 8.3 3.05 7.05 3.35 6.2 3.7 5.35 4.2 5.35 L4.55 5.45 5.0 6.2 Q5.35 7.05 5.35 8.3 5.35 9.5 5.0 10.35 L4.55 11.1" fill="none" stroke="#6a402d" stroke-linecap="round" stroke-linejoin="round" stroke-width="0.05"/>
      <path d="M31.9 43.95 L12.1 43.95 Q12.85 43.6 14.45 43.2 L22.0 42.65 29.5 43.2 31.9 43.95" fill="#6c432e" fill-rule="evenodd" stroke="none"/>
    </g>
    <linearGradient gradientTransform="matrix(0.0, -0.0275, -0.044, 0.0, 20.85, 22.2)" gradientUnits="userSpaceOnUse" id="gradient4" spreadMethod="pad" x1="-819.2" x2="819.2">
      <stop offset="0.0196078431372549" stop-color="#905a3d"/>
      <stop offset="0.9764705882352941" stop-color="#6a412d"/>
    </linearGradient>
    <linearGradient gradientTransform="matrix(0.0, -0.0275, -0.044, 0.0, 20.85, 22.2)" gradientUnits="userSpaceOnUse" id="gradient5" spreadMethod="pad" x1="-819.2" x2="819.2">
      <stop offset="0.0196078431372549" stop-color="#905a3d"/>
      <stop offset="0.9764705882352941" stop-color="#6a412d"/>
    </linearGradient>
  </defs>
</svg>
