<?xml version="1.0" encoding="UTF-8" standalone="no"?>
<svg xmlns:xlink="http://www.w3.org/1999/xlink" height="66.0px" width="66.0px" xmlns="http://www.w3.org/2000/svg">
  <g transform="matrix(1.5, 0.0, 0.0, 1.5, 0.0, 0.0)">
    <use height="40.3" transform="matrix(1.0, 0.0, 0.0, 1.0, 2.1, 2.6)" width="40.35" xlink:href="#shape0"/>
    <use height="20.15" transform="matrix(1.1594, 0.0, 0.0, 1.1594, 5.8, 5.25)" width="28.2" xlink:href="#sprite0"/>
    <use height="44.0" transform="matrix(1.0, 0.0, 0.0, 1.0, 0.0, 0.0)" width="44.0" xlink:href="#shape2"/>
    <use height="8.6" transform="matrix(1.2125, 0.0, 0.0, 1.2125, 0.8575, 0.95)" width="35.05" xlink:href="#sprite1"/>
    <use height="44.0" transform="matrix(1.0, 0.0, 0.0, 1.0, 0.0, 0.0)" width="44.0" xlink:href="#shape4"/>
    <use height="8.6" transform="matrix(1.2125, 0.0, 0.0, 1.2125, 0.8575, 0.95)" width="35.05" xlink:href="#sprite1"/>
    <use height="17.95" transform="matrix(1.0, 0.0, 0.0, 1.0, 0.0, 26.05)" width="43.95" xlink:href="#shape5"/>
  </g>
  <defs>
    <g id="shape0" transform="matrix(1.0, 0.0, 0.0, 1.0, -2.1, -2.6)">
      <path d="M3.4 22.05 Q3.4 14.35 8.85 8.95 14.3 3.5 22.05 3.5 29.75 3.5 35.2 8.95 40.6 14.4 40.6 22.05 40.6 29.75 35.2 35.2 29.75 40.6 22.05 40.6 14.3 40.6 8.85 35.2 3.4 29.75 3.4 22.05" fill="url(#gradient0)" fill-rule="evenodd" stroke="none"/>
      <path d="M42.45 22.75 Q42.45 31.15 36.5 37.0 30.6 42.9 22.25 42.9 13.9 42.9 8.05 37.0 2.1 31.15 2.1 22.75 2.1 14.4 8.05 8.5 13.9 2.6 22.25 2.6 30.6 2.6 36.5 8.5 42.45 14.4 42.45 22.75" fill="url(#gradient1)" fill-rule="evenodd" stroke="none"/>
      <path d="M15.05 14.7 Q17.9 11.85 21.9 11.85 25.95 11.85 28.75 14.7 31.6 17.55 31.6 21.55 31.6 25.6 28.75 28.4 25.95 31.25 21.9 31.25 17.9 31.25 15.05 28.4 12.2 25.6 12.2 21.55 12.2 17.55 15.05 14.7 M13.2 12.8 Q9.6 16.35 9.6 21.4 9.6 26.45 13.2 30.05 16.75 33.6 21.8 33.6 26.9 33.6 30.45 30.05 34.0 26.45 34.0 21.4 34.0 16.35 30.45 12.8 26.9 9.2 21.8 9.2 16.75 9.2 13.2 12.8 M13.5 21.6 Q13.5 25.05 15.95 27.5 18.4 29.95 21.85 29.95 25.35 29.95 27.75 27.5 30.2 25.05 30.2 21.6 30.2 18.1 27.75 15.65 25.35 13.2 21.85 13.2 18.4 13.2 15.95 15.65 13.5 18.1 13.5 21.6 M11.9 11.35 Q16.05 7.25 21.9 7.25 27.75 7.25 31.9 11.35 36.05 15.5 36.05 21.4 36.05 27.25 31.9 31.35 27.75 35.5 21.9 35.5 16.05 35.5 11.9 31.35 7.75 27.25 7.75 21.4 7.75 15.5 11.9 11.35" fill="#92300b" fill-rule="evenodd" stroke="none"/>
      <path d="M17.45 15.7 Q21.25 15.7 21.75 19.35 22.5 15.7 26.1 15.7 30.0 15.6 30.4 19.25 30.4 23.15 26.55 25.85 24.1 27.2 22.7 28.8 L21.75 30.6 Q21.5 29.6 20.6 28.5 19.25 27.1 17.2 25.85 13.15 23.15 13.3 19.25 13.7 15.6 17.45 15.7" fill="#92300b" fill-rule="evenodd" stroke="none"/>
    </g>
    <linearGradient gradientTransform="matrix(0.0, -0.017, -0.0173, 0.0, 21.0, 26.95)" gradientUnits="userSpaceOnUse" id="gradient0" spreadMethod="pad" x1="-819.2" x2="819.2">
      <stop offset="0.011764705882352941" stop-color="#dad67d"/>
      <stop offset="1.0" stop-color="#cfa451"/>
    </linearGradient>
    <linearGradient gradientTransform="matrix(0.0, -0.0188, -0.0188, 0.0, 22.2, 18.85)" gradientUnits="userSpaceOnUse" id="gradient1" spreadMethod="pad" x1="-819.2" x2="819.2">
      <stop offset="0.011764705882352941" stop-color="#f9cfb3"/>
      <stop offset="1.0" stop-color="#ff5b79"/>
    </linearGradient>
    <g id="sprite0" transform="matrix(1.0, 0.0, 0.0, 1.0, 0.0, 0.0)">
      <use height="20.15" transform="matrix(1.0, 0.0, 0.0, 1.0, 0.0, 0.0)" width="28.2" xlink:href="#shape1"/>
    </g>
    <g id="shape1" transform="matrix(1.0, 0.0, 0.0, 1.0, 0.0, 0.0)">
      <path d="M27.65 18.45 L27.4 18.95 Q26.2 20.8 23.4 19.8 19.6 18.5 17.35 14.05 14.8 9.1 9.75 7.4 4.1 5.65 0.0 10.3 1.0 6.85 3.7 4.15 7.2 0.65 11.9 0.05 L14.8 0.05 18.4 0.65 Q21.55 1.65 24.05 4.15 28.2 8.3 28.2 14.25 28.2 16.45 27.65 18.45" fill="#ffffff" fill-opacity="0.19607843" fill-rule="evenodd" stroke="none"/>
    </g>
    <g id="shape2" transform="matrix(1.0, 0.0, 0.0, 1.0, 0.0, 0.0)">
      <path d="M41.8 2.3 Q44.0 4.5 44.0 7.6 L44.0 36.4 Q44.0 39.6 41.8 41.8 39.6 44.0 36.4 44.0 L7.6 44.0 Q4.45 44.0 2.25 41.8 0.0 39.6 0.0 36.4 L0.0 7.6 Q0.0 4.5 2.25 2.3 4.45 0.0 7.6 0.0 L36.4 0.0 Q39.55 0.0 41.8 2.3 M40.85 22.05 Q40.85 14.1 35.25 8.6 29.75 3.05 21.85 3.05 13.9 3.05 8.4 8.6 2.85 14.1 2.85 22.05 2.85 29.95 8.4 35.45 13.9 41.1 21.85 41.1 29.75 41.1 35.25 35.45 40.85 29.95 40.85 22.05" fill="url(#gradient2)" fill-rule="evenodd" stroke="none"/>
      <path d="M40.85 22.05 Q40.85 29.95 35.25 35.45 29.75 41.1 21.85 41.1 13.9 41.1 8.4 35.45 2.85 29.95 2.85 22.05 2.85 14.1 8.4 8.6 13.9 3.05 21.85 3.05 29.75 3.05 35.25 8.6 40.85 14.1 40.85 22.05 M33.7 10.35 Q28.75 5.45 21.85 5.4 14.95 5.45 10.1 10.35 5.2 15.15 5.15 22.05 5.2 29.0 10.1 33.85 14.95 38.75 21.85 38.75 28.75 38.75 33.7 33.85 38.5 29.0 38.5 22.05 38.5 15.15 33.7 10.35" fill="url(#gradient3)" fill-rule="evenodd" stroke="none"/>
    </g>
    <linearGradient gradientTransform="matrix(0.0, -0.0258, -0.0551, 0.0, 21.85, 21.85)" gradientUnits="userSpaceOnUse" id="gradient2" spreadMethod="pad" x1="-819.2" x2="819.2">
      <stop offset="0.011764705882352941" stop-color="#c79829"/>
      <stop offset="1.0" stop-color="#be7d1e"/>
    </linearGradient>
    <linearGradient gradientTransform="matrix(1.0E-4, 0.0223, -0.0232, 1.0E-4, 21.9, 22.3)" gradientUnits="userSpaceOnUse" id="gradient3" spreadMethod="pad" x1="-819.2" x2="819.2">
      <stop offset="0.011764705882352941" stop-color="#8d5910"/>
      <stop offset="1.0" stop-color="#d9d597"/>
    </linearGradient>
    <g id="sprite1" transform="matrix(1.0, 0.0, 0.0, 1.0, 0.2, 0.0)">
      <use height="8.6" transform="matrix(1.0, 0.0, 0.0, 1.0, -0.2, 0.0)" width="35.05" xlink:href="#shape3"/>
    </g>
    <g id="shape3" transform="matrix(1.0, 0.0, 0.0, 1.0, 0.2, 0.0)">
      <path d="M34.85 8.6 Q34.8 6.95 34.4 5.7 33.0 1.3 27.2 1.3 L7.45 1.3 Q0.05 1.3 -0.2 8.5 L-0.2 7.65 Q-0.2 0.0 7.45 0.0 L27.2 0.0 Q33.0 0.0 34.4 4.4 34.85 5.8 34.85 7.65 L34.85 8.6" fill="#e7deda" fill-rule="evenodd" stroke="none"/>
    </g>
    <g id="shape4" transform="matrix(1.0, 0.0, 0.0, 1.0, 0.0, 0.0)">
      <path d="M38.85 27.95 L39.3 26.8 39.7 26.3 Q40.05 26.05 40.4 26.05 L41.05 26.3 41.5 26.85 41.9 27.95 43.05 27.95 43.75 28.2 43.95 28.35 43.95 29.95 43.7 30.1 42.85 30.75 43.25 32.1 43.25 32.8 42.8 33.35 42.1 33.55 41.45 33.3 41.2 33.15 41.15 35.7 43.55 36.65 Q43.75 36.7 43.95 36.9 L43.6 38.8 43.4 38.85 40.85 39.5 40.65 42.45 40.5 42.75 39.25 43.5 39.0 43.45 38.5 43.0 37.0 40.45 34.2 41.2 33.85 41.2 33.0 41.8 33.4 43.15 33.4 43.85 33.3 44.0 31.15 44.0 30.55 43.6 29.9 44.0 27.7 44.0 27.65 43.8 27.65 43.1 28.05 41.8 27.15 41.2 26.75 40.6 Q26.6 40.2 26.75 39.85 L27.15 39.25 27.85 39.05 29.0 39.05 29.45 37.9 Q29.6 37.55 29.85 37.35 L30.55 37.15 31.2 37.35 31.65 37.95 32.05 39.05 33.2 39.05 34.85 37.05 33.55 34.85 33.4 34.15 33.7 33.45 Q33.9 33.2 34.25 33.15 L34.95 33.2 37.35 34.15 38.05 33.4 37.9 33.3 37.5 32.7 37.5 32.0 37.9 30.75 37.0 30.1 36.6 29.55 Q36.45 29.15 36.6 28.8 L37.0 28.2 Q37.3 27.95 37.7 27.95 L38.85 27.95 M30.65 38.7 L30.4 38.7 29.8 40.2 28.2 40.2 28.1 40.45 29.45 41.35 28.85 43.1 29.05 43.2 30.55 42.15 31.95 43.2 32.2 43.1 31.65 41.35 32.8 40.5 32.75 40.2 31.25 40.2 30.65 38.7 M37.7 35.5 L34.55 34.25 36.3 37.2 33.9 40.0 37.55 39.1 39.5 42.35 39.75 38.6 43.15 37.7 40.0 36.45 40.05 33.0 37.7 35.5 M39.65 29.15 L38.05 29.15 37.95 29.35 39.3 30.3 38.75 32.0 38.9 32.15 40.4 31.1 41.8 32.15 42.05 32.0 41.5 30.3 42.8 29.35 42.65 29.15 41.1 29.15 40.5 27.6 40.25 27.6 39.65 29.15" fill="url(#gradient4)" fill-rule="evenodd" stroke="none"/>
      <path d="M42.2 29.75 L41.5 30.3 41.5 30.9 41.85 32.2 40.4 31.1 38.9 32.2 39.3 30.9 39.3 30.3 38.55 29.75 39.65 29.75 40.4 27.85 41.1 29.75 42.2 29.75 M40.0 36.45 L40.0 37.05 42.15 38.0 39.75 38.6 39.5 42.35 37.55 39.1 34.55 39.85 36.3 37.8 36.3 37.2 35.0 35.1 37.7 36.15 40.05 33.65 40.0 36.45 M32.35 40.85 L31.65 41.35 31.65 42.0 32.0 43.25 30.55 42.15 29.05 43.25 29.45 42.0 29.45 41.35 28.7 40.85 29.8 40.85 30.55 38.9 31.25 40.85 32.35 40.85" fill="#815815" fill-rule="evenodd" stroke="none"/>
      <path d="M38.55 29.75 L37.7 29.15 39.65 29.15 40.4 27.2 41.1 29.15 43.05 29.15 42.2 29.75 41.1 29.75 40.4 27.85 39.65 29.75 38.55 29.75 M41.5 30.3 L42.15 32.35 41.85 32.2 41.5 30.9 41.5 30.3 M38.9 32.2 L38.6 32.35 39.3 30.3 39.3 30.9 38.9 32.2 M40.0 36.45 L43.15 37.7 42.15 38.0 40.0 37.05 40.0 36.45 M34.55 39.85 L33.9 40.0 36.3 37.2 36.3 37.8 34.55 39.85 M35.0 35.1 L34.55 34.25 37.7 35.5 40.05 33.0 40.05 33.65 37.7 36.15 35.0 35.1 M28.7 40.85 L27.85 40.2 29.8 40.2 30.55 38.3 31.25 40.2 33.2 40.2 32.35 40.85 31.25 40.85 30.55 38.9 29.8 40.85 28.7 40.85 M31.65 41.35 L32.3 43.45 32.0 43.25 31.65 42.0 31.65 41.35 M29.05 43.25 L28.75 43.45 29.45 41.35 29.45 42.0 29.05 43.25" fill="#674512" fill-rule="evenodd" stroke="none"/>
      <path d="M5.1 27.95 L6.25 27.95 6.95 28.2 7.35 28.8 7.35 29.55 6.95 30.1 6.05 30.75 6.45 32.0 6.45 32.7 6.05 33.3 5.9 33.4 6.6 34.15 9.0 33.2 9.7 33.15 10.25 33.45 10.55 34.15 10.4 34.85 9.1 37.05 10.75 39.05 11.9 39.05 12.3 37.95 Q12.4 37.55 12.75 37.35 L13.4 37.15 14.1 37.35 14.5 37.9 14.95 39.05 16.1 39.05 16.8 39.25 17.2 39.85 17.2 40.6 16.8 41.2 15.9 41.8 16.3 43.1 16.3 43.8 16.25 44.0 14.05 44.0 13.4 43.6 12.8 44.0 10.65 44.0 10.55 43.85 10.55 43.15 10.95 41.8 10.1 41.2 9.75 41.2 6.95 40.45 5.45 43.0 4.95 43.45 4.7 43.5 3.45 42.75 3.3 42.45 3.1 39.5 0.55 38.85 0.35 38.8 0.0 36.9 0.4 36.65 2.8 35.7 2.75 33.15 2.5 33.3 1.85 33.55 Q1.45 33.55 1.15 33.35 L0.7 32.8 0.7 32.1 1.1 30.75 0.25 30.1 0.0 29.95 0.0 28.35 0.2 28.2 0.9 27.95 2.05 27.95 2.45 26.85 Q2.55 26.45 2.9 26.3 L3.55 26.05 Q3.9 26.05 4.25 26.3 L4.65 26.8 5.1 27.95 M4.3 29.15 L3.7 27.6 3.45 27.6 2.85 29.15 1.3 29.15 1.15 29.35 2.45 30.3 1.9 32.0 2.15 32.15 3.55 31.1 5.05 32.15 5.2 32.0 4.65 30.3 6.0 29.35 5.9 29.15 4.3 29.15 M6.25 35.5 L3.9 33.0 3.95 36.45 0.8 37.7 4.2 38.6 4.45 42.35 6.4 39.1 10.05 40.0 7.65 37.2 9.4 34.25 6.25 35.5 M13.3 38.7 L12.7 40.2 11.2 40.2 11.15 40.5 12.3 41.35 11.75 43.1 12.0 43.2 13.4 42.15 14.9 43.2 15.1 43.1 14.5 41.35 15.85 40.45 15.75 40.2 14.15 40.2 13.55 38.7 13.3 38.7" fill="url(#gradient5)" fill-rule="evenodd" stroke="none"/>
      <path d="M1.75 29.75 L0.9 29.15 2.85 29.15 3.55 27.2 4.3 29.15 6.25 29.15 5.4 29.75 4.3 29.75 3.55 27.85 2.85 29.75 1.75 29.75 M4.65 30.3 L5.35 32.35 5.05 32.2 4.65 30.9 4.65 30.3 M2.1 32.2 L1.8 32.35 2.45 30.3 2.45 30.9 2.1 32.2 M3.9 33.65 L3.9 33.0 6.25 35.5 9.4 34.25 8.95 35.1 6.25 36.15 3.9 33.65 M7.65 37.2 L10.05 40.0 9.4 39.85 7.65 37.8 7.65 37.2 M1.8 38.0 L0.8 37.7 3.95 36.45 3.95 37.05 1.8 38.0 M11.6 40.85 L10.75 40.2 12.7 40.2 13.4 38.3 14.15 40.2 16.1 40.2 15.25 40.85 14.15 40.85 13.4 38.9 12.7 40.85 11.6 40.85 M14.5 41.35 L15.2 43.45 14.9 43.25 14.5 42.0 14.5 41.35 M11.95 43.25 L11.65 43.45 12.3 41.35 12.3 42.0 11.95 43.25" fill="#674512" fill-rule="evenodd" stroke="none"/>
      <path d="M1.75 29.75 L2.85 29.75 3.55 27.85 4.3 29.75 5.4 29.75 4.65 30.3 4.65 30.9 5.05 32.2 3.55 31.1 2.1 32.2 2.45 30.9 2.45 30.3 1.75 29.75 M8.95 35.1 L7.65 37.2 7.65 37.8 9.4 39.85 6.4 39.1 4.45 42.35 4.2 38.6 1.8 38.0 3.95 37.05 3.95 36.45 3.9 33.65 6.25 36.15 8.95 35.1 M11.6 40.85 L12.7 40.85 13.4 38.9 14.15 40.85 15.25 40.85 14.5 41.35 14.5 42.0 14.9 43.25 13.4 42.15 11.95 43.25 12.3 42.0 12.3 41.35 11.6 40.85" fill="#815815" fill-rule="evenodd" stroke="none"/>
      <path d="M40.85 22.05 Q40.85 14.1 35.25 8.6 29.75 3.05 21.85 3.05 13.9 3.05 8.4 8.6 2.85 14.1 2.85 22.05 2.85 29.95 8.4 35.45 13.9 41.1 21.85 41.1 29.75 41.1 35.25 35.45 40.85 29.95 40.85 22.05 M41.8 2.3 Q44.0 4.5 44.0 7.6 L44.0 36.4 Q44.0 39.6 41.8 41.8 39.6 44.0 36.4 44.0 L7.6 44.0 Q4.45 44.0 2.25 41.8 0.0 39.6 0.0 36.4 L0.0 7.6 Q0.0 4.5 2.25 2.3 4.45 0.0 7.6 0.0 L36.4 0.0 Q39.55 0.0 41.8 2.3" fill="url(#gradient6)" fill-rule="evenodd" stroke="none"/>
      <path d="M33.7 10.35 Q28.75 5.45 21.85 5.4 14.95 5.45 10.1 10.35 5.2 15.15 5.15 22.05 5.2 29.0 10.1 33.85 14.95 38.75 21.85 38.75 28.75 38.75 33.7 33.85 38.5 29.0 38.5 22.05 38.5 15.15 33.7 10.35 M40.85 22.05 Q40.85 29.95 35.25 35.45 29.75 41.1 21.85 41.1 13.9 41.1 8.4 35.45 2.85 29.95 2.85 22.05 2.85 14.1 8.4 8.6 13.9 3.05 21.85 3.05 29.75 3.05 35.25 8.6 40.85 14.1 40.85 22.05" fill="url(#gradient7)" fill-rule="evenodd" stroke="none"/>
    </g>
    <linearGradient gradientTransform="matrix(0.0, -0.0258, -0.0551, 0.0, 21.85, 21.85)" gradientUnits="userSpaceOnUse" id="gradient4" spreadMethod="pad" x1="-819.2" x2="819.2">
      <stop offset="0.011764705882352941" stop-color="#c79829"/>
      <stop offset="1.0" stop-color="#be7d1e"/>
    </linearGradient>
    <linearGradient gradientTransform="matrix(0.0, -0.0258, 0.0551, 0.0, 22.05, 21.85)" gradientUnits="userSpaceOnUse" id="gradient5" spreadMethod="pad" x1="-819.2" x2="819.2">
      <stop offset="0.011764705882352941" stop-color="#c79829"/>
      <stop offset="1.0" stop-color="#be7d1e"/>
    </linearGradient>
    <linearGradient gradientTransform="matrix(0.0, -0.0258, -0.0551, 0.0, 21.85, 21.85)" gradientUnits="userSpaceOnUse" id="gradient6" spreadMethod="pad" x1="-819.2" x2="819.2">
      <stop offset="0.011764705882352941" stop-color="#dad67d"/>
      <stop offset="1.0" stop-color="#cfa451"/>
    </linearGradient>
    <linearGradient gradientTransform="matrix(0.0, 0.0059, -0.0232, 0.0, 21.85, 18.4)" gradientUnits="userSpaceOnUse" id="gradient7" spreadMethod="pad" x1="-819.2" x2="819.2">
      <stop offset="0.011764705882352941" stop-color="#8d5910"/>
      <stop offset="1.0" stop-color="#d9d597"/>
    </linearGradient>
    <g id="shape5" transform="matrix(1.0, 0.0, 0.0, 1.0, -0.2, -26.05)">
      <path d="M39.85 29.15 L38.25 29.15 38.15 29.35 39.5 30.3 38.95 32.0 39.1 32.15 40.6 31.1 42.0 32.15 42.25 32.0 41.7 30.3 43.0 29.35 42.85 29.15 41.3 29.15 40.7 27.6 40.45 27.6 39.85 29.15 M39.05 27.95 L39.5 26.8 39.9 26.3 40.6 26.05 41.25 26.3 41.7 26.85 42.1 27.95 43.25 27.95 Q43.7 27.95 43.95 28.2 L44.15 28.35 44.15 29.95 43.9 30.1 43.05 30.75 43.45 32.1 43.45 32.8 43.0 33.35 42.3 33.55 41.65 33.3 41.4 33.15 41.35 35.7 43.75 36.65 44.15 36.9 43.8 38.8 43.6 38.85 41.05 39.5 40.85 42.45 40.7 42.75 39.45 43.5 39.2 43.45 38.7 43.0 37.2 40.45 34.4 41.2 34.05 41.2 33.2 41.8 33.6 43.15 33.6 43.85 33.5 44.0 31.35 44.0 30.75 43.6 30.1 44.0 27.9 44.0 27.85 43.8 27.85 43.1 28.25 41.8 27.35 41.2 26.95 40.6 Q26.8 40.2 26.95 39.85 L27.35 39.25 28.05 39.05 29.2 39.05 29.65 37.9 30.05 37.35 30.75 37.15 31.4 37.35 31.85 37.95 32.25 39.05 33.4 39.05 35.05 37.05 33.75 34.85 33.6 34.15 33.9 33.45 Q34.1 33.2 34.45 33.15 L35.15 33.2 37.55 34.15 38.25 33.4 38.1 33.3 37.7 32.7 37.7 32.0 38.1 30.75 37.2 30.1 36.8 29.55 Q36.65 29.15 36.8 28.8 L37.2 28.2 Q37.5 27.95 37.9 27.95 L39.05 27.95 M37.9 35.5 L34.75 34.25 36.5 37.2 34.1 40.0 37.75 39.1 39.7 42.35 39.95 38.6 43.35 37.7 40.2 36.45 40.25 33.0 37.9 35.5 M30.85 38.7 L30.6 38.7 30.0 40.2 28.4 40.2 28.3 40.45 29.65 41.35 29.05 43.1 29.25 43.2 30.75 42.15 32.15 43.2 32.4 43.1 31.85 41.35 33.0 40.5 32.95 40.2 31.45 40.2 30.85 38.7" fill="#d1ae5a" fill-rule="evenodd" stroke="none"/>
      <path d="M38.75 29.75 L37.9 29.15 39.85 29.15 40.6 27.2 41.3 29.15 43.25 29.15 42.4 29.75 41.3 29.75 40.6 27.85 39.85 29.75 38.75 29.75 M41.7 30.3 L42.35 32.35 42.05 32.2 41.7 30.9 41.7 30.3 M39.1 32.2 L38.8 32.35 39.5 30.3 39.5 30.9 39.1 32.2 M40.2 36.45 L43.35 37.7 42.35 38.0 40.2 37.05 40.2 36.45 M34.75 39.85 L34.1 40.0 36.5 37.2 36.5 37.8 34.75 39.85 M35.2 35.1 L34.75 34.25 37.9 35.5 40.25 33.0 40.25 33.65 37.9 36.15 35.2 35.1 M32.55 40.85 L31.45 40.85 30.75 38.9 30.0 40.85 28.9 40.85 28.05 40.2 30.0 40.2 30.75 38.3 31.45 40.2 33.4 40.2 32.55 40.85 M29.65 41.35 L29.65 42.0 29.25 43.25 28.95 43.45 29.65 41.35 M32.2 43.25 L31.85 42.0 31.85 41.35 32.5 43.45 32.2 43.25" fill="#674512" fill-rule="evenodd" stroke="none"/>
      <path d="M42.4 29.75 L41.7 30.3 41.7 30.9 42.05 32.2 40.6 31.1 39.1 32.2 39.5 30.9 39.5 30.3 38.75 29.75 39.85 29.75 40.6 27.85 41.3 29.75 42.4 29.75 M40.2 36.45 L40.2 37.05 42.35 38.0 39.95 38.6 39.7 42.35 37.75 39.1 34.75 39.85 36.5 37.8 36.5 37.2 35.2 35.1 37.9 36.15 40.25 33.65 40.2 36.45 M28.9 40.85 L30.0 40.85 30.75 38.9 31.45 40.85 32.55 40.85 31.85 41.35 31.85 42.0 32.2 43.25 30.75 42.15 29.25 43.25 29.65 42.0 29.65 41.35 28.9 40.85" fill="#815815" fill-rule="evenodd" stroke="none"/>
      <path d="M10.45 33.45 L10.75 34.15 10.6 34.85 9.3 37.05 10.95 39.05 12.1 39.05 12.5 37.95 12.95 37.35 13.6 37.15 14.3 37.35 14.7 37.9 15.15 39.05 16.3 39.05 17.0 39.25 17.4 39.85 17.4 40.6 17.0 41.2 16.1 41.8 16.5 43.1 16.5 43.8 16.45 44.0 14.25 44.0 13.6 43.6 13.0 44.0 10.85 44.0 10.75 43.85 10.75 43.15 11.15 41.8 10.3 41.2 9.95 41.2 7.15 40.45 5.65 43.0 5.15 43.45 4.9 43.5 Q4.2 43.2 3.65 42.75 L3.5 42.45 3.3 39.5 0.75 38.85 0.55 38.8 0.2 36.9 0.6 36.65 3.0 35.7 2.95 33.15 2.7 33.3 2.05 33.55 Q1.65 33.55 1.35 33.35 L0.9 32.8 0.9 32.1 1.3 30.75 0.45 30.1 0.2 29.95 0.2 28.35 0.4 28.2 Q0.65 27.95 1.1 27.95 L2.25 27.95 2.65 26.85 Q2.75 26.45 3.1 26.3 3.4 26.05 3.75 26.05 L4.45 26.3 4.85 26.8 5.3 27.95 6.45 27.95 7.15 28.2 7.55 28.8 7.55 29.55 7.15 30.1 6.25 30.75 6.65 32.0 6.65 32.7 6.25 33.3 6.1 33.4 6.8 34.15 9.2 33.2 9.9 33.15 Q10.25 33.2 10.45 33.45 M11.35 40.5 L12.5 41.35 11.95 43.1 12.2 43.2 13.6 42.15 15.1 43.2 15.3 43.1 14.7 41.35 16.05 40.45 15.95 40.2 14.35 40.2 13.75 38.7 13.5 38.7 12.9 40.2 11.4 40.2 11.35 40.5 M3.9 27.6 L3.65 27.6 3.05 29.15 1.5 29.15 1.35 29.35 2.65 30.3 2.1 32.0 2.35 32.15 3.75 31.1 5.25 32.15 5.4 32.0 4.85 30.3 6.2 29.35 6.1 29.15 4.5 29.15 3.9 27.6 M4.4 38.6 L4.65 42.35 6.6 39.1 10.25 40.0 7.85 37.2 9.6 34.25 6.45 35.5 4.1 33.0 4.15 36.45 1.0 37.7 4.4 38.6" fill="#d1ae5a" fill-rule="evenodd" stroke="none"/>
      <path d="M11.8 40.85 L12.9 40.85 13.6 38.9 14.35 40.85 15.45 40.85 14.7 41.35 14.7 42.0 15.1 43.25 13.6 42.15 12.15 43.25 12.5 42.0 12.5 41.35 11.8 40.85 M1.95 29.75 L3.05 29.75 3.75 27.85 4.5 29.75 5.6 29.75 4.85 30.3 4.85 30.9 5.25 32.2 3.75 31.1 2.3 32.2 2.65 30.9 2.65 30.3 1.95 29.75 M9.15 35.1 L7.85 37.2 7.85 37.8 9.6 39.85 6.6 39.1 4.65 42.35 4.4 38.6 2.0 38.0 4.15 37.05 4.15 36.45 4.1 33.65 6.45 36.15 9.15 35.1" fill="#815815" fill-rule="evenodd" stroke="none"/>
      <path d="M15.45 40.85 L14.35 40.85 13.6 38.9 12.9 40.85 11.8 40.85 10.95 40.2 12.9 40.2 13.6 38.3 14.35 40.2 16.3 40.2 15.45 40.85 M12.5 41.35 L12.5 42.0 12.15 43.25 11.85 43.45 12.5 41.35 M15.1 43.25 L14.7 42.0 14.7 41.35 15.4 43.45 15.1 43.25 M1.95 29.75 L1.1 29.15 3.05 29.15 3.75 27.2 4.5 29.15 6.45 29.15 5.6 29.75 4.5 29.75 3.75 27.85 3.05 29.75 1.95 29.75 M4.85 30.3 L5.55 32.35 5.25 32.2 4.85 30.9 4.85 30.3 M2.3 32.2 L2.0 32.35 2.65 30.3 2.65 30.9 2.3 32.2 M4.1 33.65 L4.1 33.0 6.45 35.5 9.6 34.25 9.15 35.1 6.45 36.15 4.1 33.65 M7.85 37.2 L10.25 40.0 9.6 39.85 7.85 37.8 7.85 37.2 M2.0 38.0 L1.0 37.7 4.15 36.45 4.15 37.05 2.0 38.0" fill="#674512" fill-rule="evenodd" stroke="none"/>
    </g>
  </defs>
</svg>
