<?xml version="1.0" encoding="UTF-8" standalone="no"?>
<svg xmlns:xlink="http://www.w3.org/1999/xlink" height="66.0px" width="66.0px" xmlns="http://www.w3.org/2000/svg">
  <g transform="matrix(1.5, 0.0, 0.0, 1.5, 0.0, 0.0)">
    <use height="44.0" transform="matrix(1.0, 0.0, 0.0, 1.0, 0.0, 0.0)" width="44.0" xlink:href="#shape0"/>
    <use height="0.0" transform="matrix(1.2125, 0.0, 0.0, 1.2125, 1.1, 0.9)" width="0.0" xlink:href="#sprite0"/>
    <use height="20.15" transform="matrix(1.1548, 0.0, 0.0, 1.1548, 5.65, 5.5)" width="28.2" xlink:href="#sprite1"/>
    <use height="8.6" transform="matrix(1.2077, 0.0, 0.0, 1.2065, 0.9585, 0.9)" width="35.05" xlink:href="#sprite2"/>
  </g>
  <defs>
    <g id="shape0" transform="matrix(1.0, 0.0, 0.0, 1.0, 0.0, 0.0)">
      <path d="M7.6 0.0 L36.4 0.0 Q39.55 0.0 41.8 2.25 44.0 4.45 44.0 7.6 L44.0 36.4 Q44.0 39.6 41.8 41.8 39.6 44.0 36.4 44.0 L7.6 44.0 Q4.45 44.0 2.25 41.8 0.0 39.6 0.0 36.4 L0.0 7.6 Q0.0 4.45 2.25 2.25 4.45 0.0 7.6 0.0" fill="url(#gradient0)" fill-rule="evenodd" stroke="none"/>
      <path d="M34.9 8.8 Q40.1 14.05 40.1 21.4 40.1 28.8 34.9 34.1 29.7 39.3 22.3 39.3 14.85 39.3 9.65 34.1 4.45 28.8 4.45 21.4 4.45 14.05 9.65 8.8 14.95 3.55 22.3 3.55 29.7 3.55 34.9 8.8" fill="url(#gradient1)" fill-rule="evenodd" stroke="none"/>
      <path d="M40.85 22.05 Q40.85 29.9 35.25 35.45 29.75 41.1 21.85 41.1 13.9 41.1 8.4 35.45 2.85 29.9 2.85 22.05 2.85 14.1 8.4 8.6 13.9 3.0 21.85 3.0 29.75 3.0 35.25 8.6 40.85 14.1 40.85 22.05 M21.85 5.4 Q14.95 5.45 10.1 10.35 5.2 15.15 5.15 22.05 5.2 29.0 10.1 33.85 14.95 38.75 21.85 38.75 28.75 38.75 33.7 33.85 38.5 29.0 38.5 22.05 38.5 15.15 33.7 10.35 28.75 5.45 21.85 5.4" fill="url(#gradient2)" fill-rule="evenodd" stroke="none"/>
      <path d="M0.95 36.15 L0.9 35.75 Q0.9 34.75 1.6 34.05 2.35 33.35 3.3 33.35 4.25 33.35 4.95 34.05 5.65 34.75 5.65 35.75 L5.65 36.05 Q3.15 33.2 0.95 36.15" fill="#494136" fill-rule="evenodd" stroke="none"/>
      <path d="M5.65 36.05 Q5.55 36.8 4.95 37.4 4.25 38.1 3.3 38.1 2.35 38.1 1.6 37.4 1.05 36.8 0.95 36.15 3.15 33.2 5.65 36.05" fill="#625748" fill-rule="evenodd" stroke="none"/>
      <path d="M6.0 38.0 L5.95 37.75 Q5.95 37.15 6.4 36.7 6.8 36.3 7.4 36.3 8.0 36.3 8.4 36.7 8.85 37.15 8.85 37.75 L8.85 37.95 6.0 38.0" fill="#494136" fill-rule="evenodd" stroke="none"/>
      <path d="M8.85 37.95 L8.4 38.75 Q8.0 39.15 7.4 39.15 6.8 39.15 6.4 38.75 L6.0 38.0 8.85 37.95" fill="#625748" fill-rule="evenodd" stroke="none"/>
      <path d="M3.0 40.9 L2.95 40.65 Q2.95 40.05 3.4 39.6 3.8 39.2 4.4 39.2 5.0 39.2 5.4 39.6 5.85 40.05 5.85 40.65 L5.85 40.85 3.0 40.9" fill="#494136" fill-rule="evenodd" stroke="none"/>
      <path d="M5.85 40.85 L5.4 41.65 Q5.0 42.05 4.4 42.05 3.8 42.05 3.4 41.65 3.05 41.3 3.0 40.9 L5.85 40.85" fill="#625748" fill-rule="evenodd" stroke="none"/>
      <path d="M7.7 41.55 L7.7 41.4 Q7.7 40.95 8.0 40.6 8.35 40.3 8.8 40.3 9.2 40.3 9.55 40.6 L9.9 41.4 9.9 41.55 Q8.7 40.2 7.7 41.55" fill="#494136" fill-rule="evenodd" stroke="none"/>
      <path d="M9.9 41.55 L9.55 42.15 Q9.2 42.5 8.8 42.5 8.35 42.5 8.0 42.15 L7.7 41.55 Q8.7 40.2 9.9 41.55" fill="#625748" fill-rule="evenodd" stroke="none"/>
      <path d="M24.6 9.45 Q25.25 8.3 26.6 7.85 28.05 7.4 29.4 8.15 30.8 8.85 31.2 10.3 31.75 11.8 31.1 13.1 L31.2 13.25 Q33.1 15.25 33.95 18.1 L33.95 18.35 35.35 18.7 Q36.7 19.45 37.15 20.9 37.65 22.45 36.9 23.75 36.2 25.15 34.7 25.65 L33.9 25.8 33.8 26.15 33.1 27.8 31.65 29.95 31.45 30.15 31.6 30.7 Q32.0 32.2 31.3 33.55 30.6 34.9 29.15 35.35 L26.25 35.15 25.1 34.15 24.9 34.2 19.8 34.5 19.4 34.35 Q18.7 35.45 17.4 35.8 L14.6 35.55 Q13.2 34.85 12.8 33.35 12.35 32.1 12.85 30.9 L12.65 30.75 Q10.85 28.95 9.85 26.45 L9.85 26.15 8.4 25.65 Q7.05 25.0 6.6 23.5 6.1 21.95 6.8 20.65 7.55 19.3 9.05 18.8 L9.5 18.65 9.5 18.35 Q9.85 17.15 10.55 15.9 11.35 14.25 12.5 13.05 L12.8 12.9 12.7 12.6 Q12.2 11.15 12.95 9.8 13.65 8.5 15.1 8.0 L18.0 8.2 19.35 9.35 19.55 9.3 Q22.1 8.85 24.4 9.35 L24.6 9.45 M29.65 14.7 L28.8 15.05 Q27.35 15.5 25.95 14.75 24.6 14.05 24.15 12.55 L23.95 11.4 20.0 11.3 Q20.05 12.4 19.55 13.25 18.85 14.6 17.35 15.05 L14.5 14.85 14.0 14.5 Q13.0 15.55 12.35 16.85 L11.5 18.85 11.85 19.1 Q13.2 19.8 13.65 21.25 14.15 22.75 13.45 24.05 12.85 25.2 11.8 25.65 12.65 27.8 14.15 29.25 L15.25 28.65 Q16.75 28.3 18.1 28.95 19.4 29.75 19.9 31.1 L20.05 32.4 24.3 32.2 Q24.15 31.1 24.75 30.05 25.4 28.75 26.9 28.25 28.4 27.8 29.8 28.5 L30.0 28.65 31.2 26.8 31.85 25.4 31.85 25.35 Q30.5 24.65 30.0 23.2 29.55 21.7 30.3 20.3 30.85 19.25 31.95 18.7 L31.95 18.65 Q31.2 16.35 29.7 14.7 L29.65 14.7 M25.05 18.8 L24.55 18.95 24.0 18.7 Q23.8 18.5 23.9 18.2 L24.15 17.7 24.55 17.35 Q23.5 16.8 22.35 16.65 L22.35 17.3 22.15 17.8 21.65 18.0 Q21.35 18.0 21.15 17.8 L20.95 17.3 20.95 16.65 Q19.7 16.8 18.7 17.5 L19.0 17.7 19.2 18.2 19.0 18.7 18.5 18.95 18.0 18.8 17.7 18.45 Q16.7 19.6 16.45 21.05 L17.1 21.05 17.55 21.25 17.75 21.7 17.55 22.2 17.1 22.4 16.45 22.4 Q16.55 24.0 17.55 25.2 L18.0 24.75 18.5 24.55 19.0 24.75 19.2 25.3 19.0 25.8 18.55 26.2 Q19.65 27.0 20.95 27.15 L20.95 26.65 21.15 26.15 Q21.35 25.9 21.65 25.9 L22.15 26.15 22.35 26.65 22.35 27.15 Q23.6 27.1 24.65 26.3 L24.15 25.85 23.9 25.35 Q23.8 25.05 24.0 24.85 24.25 24.65 24.55 24.55 L25.05 24.75 25.7 25.35 Q26.85 24.05 27.05 22.4 L26.4 22.4 25.9 22.2 25.7 21.7 25.9 21.25 26.4 21.05 27.0 21.05 Q26.7 19.45 25.6 18.3 L25.05 18.8 M26.85 16.3 L27.05 16.7 26.85 17.2 26.4 17.55 Q27.75 19.1 28.05 21.05 L28.8 21.05 29.2 21.25 29.4 21.7 29.2 22.2 28.8 22.4 28.05 22.4 Q27.9 24.5 26.45 26.05 L26.85 26.35 27.05 26.85 26.85 27.35 26.4 27.6 25.9 27.35 25.45 27.1 Q24.1 28.1 22.35 28.25 L22.35 29.0 22.15 29.45 21.65 29.75 21.15 29.45 20.95 29.0 20.95 28.25 Q19.15 28.1 17.75 26.85 L17.2 27.35 16.7 27.6 Q16.4 27.6 16.25 27.35 L16.05 26.85 16.25 26.35 16.75 25.85 Q15.45 24.4 15.4 22.4 L14.65 22.4 Q14.45 22.4 14.25 22.2 L14.0 21.7 Q14.0 21.4 14.25 21.25 L14.65 21.05 15.45 21.05 Q15.65 19.15 16.9 17.8 L16.25 17.2 16.05 16.8 16.25 16.3 Q16.4 16.05 16.7 16.0 16.95 15.9 17.2 16.15 L17.9 16.8 Q19.2 15.7 20.95 15.55 L20.95 14.9 21.15 14.4 21.65 14.2 22.15 14.4 22.35 14.9 22.35 15.55 Q24.0 15.7 25.4 16.65 L25.9 16.2 26.4 16.0 Q26.6 16.0 26.85 16.3" fill="#4a3355" fill-rule="evenodd" stroke="none"/>
      <path d="M37.65 36.05 Q40.15 33.2 42.35 36.15 L41.7 37.4 Q40.95 38.1 40.0 38.1 39.05 38.1 38.35 37.4 37.75 36.8 37.65 36.05" fill="#625748" fill-rule="evenodd" stroke="none"/>
      <path d="M37.65 36.05 L37.65 35.75 Q37.65 34.75 38.35 34.05 39.05 33.35 40.0 33.35 40.95 33.35 41.7 34.05 42.4 34.75 42.4 35.75 L42.35 36.15 Q40.15 33.2 37.65 36.05" fill="#494136" fill-rule="evenodd" stroke="none"/>
      <path d="M34.45 37.95 L34.45 37.75 Q34.45 37.15 34.9 36.7 35.3 36.3 35.9 36.3 36.5 36.3 36.9 36.7 37.35 37.15 37.35 37.75 L37.3 38.0 34.45 37.95" fill="#494136" fill-rule="evenodd" stroke="none"/>
      <path d="M34.45 37.95 L37.3 38.0 36.9 38.75 Q36.5 39.15 35.9 39.15 35.3 39.15 34.9 38.75 L34.45 37.95" fill="#625748" fill-rule="evenodd" stroke="none"/>
      <path d="M37.45 40.85 L37.45 40.65 Q37.45 40.05 37.9 39.6 38.3 39.2 38.9 39.2 39.5 39.2 39.9 39.6 40.35 40.05 40.35 40.65 L40.3 40.9 37.45 40.85" fill="#494136" fill-rule="evenodd" stroke="none"/>
      <path d="M37.45 40.85 L40.3 40.9 39.9 41.65 Q39.5 42.05 38.9 42.05 38.3 42.05 37.9 41.65 L37.45 40.85" fill="#625748" fill-rule="evenodd" stroke="none"/>
      <path d="M33.4 41.55 L33.4 41.4 Q33.4 40.95 33.75 40.6 34.1 40.3 34.5 40.3 34.95 40.3 35.3 40.6 L35.6 41.4 35.6 41.55 Q34.6 40.2 33.4 41.55" fill="#494136" fill-rule="evenodd" stroke="none"/>
      <path d="M33.4 41.55 Q34.6 40.2 35.6 41.55 L35.3 42.15 Q34.95 42.5 34.5 42.5 34.1 42.5 33.75 42.15 L33.4 41.55" fill="#625748" fill-rule="evenodd" stroke="none"/>
    </g>
    <linearGradient gradientTransform="matrix(0.0, -0.0551, -0.0551, 0.0, 22.05, 18.45)" gradientUnits="userSpaceOnUse" id="gradient0" spreadMethod="pad" x1="-819.2" x2="819.2">
      <stop offset="0.011764705882352941" stop-color="#bcb0a0"/>
      <stop offset="1.0" stop-color="#453e3a"/>
    </linearGradient>
    <linearGradient gradientTransform="matrix(0.0, -0.0167, -0.0167, 0.0, 22.3, 18.05)" gradientUnits="userSpaceOnUse" id="gradient1" spreadMethod="pad" x1="-819.2" x2="819.2">
      <stop offset="0.011764705882352941" stop-color="#bcb9ae"/>
      <stop offset="1.0" stop-color="#9b5b79"/>
    </linearGradient>
    <linearGradient gradientTransform="matrix(1.0E-4, 0.0223, -0.0232, 1.0E-4, 21.9, 22.3)" gradientUnits="userSpaceOnUse" id="gradient2" spreadMethod="pad" x1="-819.2" x2="819.2">
      <stop offset="0.011764705882352941" stop-color="#494136"/>
      <stop offset="1.0" stop-color="#dbccbd"/>
    </linearGradient>
    <g id="sprite1" transform="matrix(1.0, 0.0, 0.0, 1.0, 0.0, 0.0)">
      <use height="20.15" transform="matrix(1.0, 0.0, 0.0, 1.0, 0.0, 0.0)" width="28.2" xlink:href="#shape1"/>
    </g>
    <g id="shape1" transform="matrix(1.0, 0.0, 0.0, 1.0, 0.0, 0.0)">
      <path d="M27.65 18.45 L27.4 18.95 Q26.2 20.8 23.4 19.8 19.6 18.5 17.35 14.05 14.8 9.1 9.75 7.4 4.1 5.65 0.0 10.3 1.0 6.85 3.7 4.15 7.2 0.65 11.9 0.05 L14.8 0.05 18.4 0.65 Q21.55 1.65 24.05 4.15 28.2 8.3 28.2 14.25 28.2 16.45 27.65 18.45" fill="#ffffff" fill-opacity="0.19607843" fill-rule="evenodd" stroke="none"/>
    </g>
    <g id="sprite2" transform="matrix(1.0, 0.0, 0.0, 1.0, 0.2, 0.0)">
      <use height="8.6" transform="matrix(1.0, 0.0, 0.0, 1.0, -0.2, 0.0)" width="35.05" xlink:href="#shape2"/>
    </g>
    <g id="shape2" transform="matrix(1.0, 0.0, 0.0, 1.0, 0.2, 0.0)">
      <path d="M34.85 8.6 Q34.8 6.95 34.4 5.7 33.0 1.3 27.2 1.3 L7.45 1.3 Q0.05 1.3 -0.2 8.5 L-0.2 7.65 Q-0.2 0.0 7.45 0.0 L27.2 0.0 Q33.0 0.0 34.4 4.4 34.85 5.8 34.85 7.65 L34.85 8.6" fill="#e7deda" fill-rule="evenodd" stroke="none"/>
    </g>
  </defs>
</svg>
