<?xml version="1.0" encoding="UTF-8" standalone="no"?>
<svg xmlns:xlink="http://www.w3.org/1999/xlink" height="66.15px" width="66.0px" xmlns="http://www.w3.org/2000/svg">
  <g transform="matrix(1.5, 0.0, 0.0, 1.5, 0.0, 0.0)">
    <use height="44.1" transform="matrix(1.0, 0.0, 0.0, 1.0, 0.0, 0.0)" width="44.0" xlink:href="#shape0"/>
    <use height="8.6" transform="matrix(1.2077, 0.0, 0.0, 1.2065, 0.9585, 0.55)" width="35.05" xlink:href="#sprite0"/>
    <use height="20.15" transform="matrix(1.1594, 0.0, 0.0, 1.1605, 5.95, 5.4)" width="28.2" xlink:href="#sprite1"/>
  </g>
  <defs>
    <g id="shape0" transform="matrix(1.0, 0.0, 0.0, 1.0, 0.0, 0.0)">
      <path d="M41.9 22.45 Q41.9 30.8 36.05 36.75 30.1 42.65 21.8 42.65 13.4 42.65 7.55 36.75 1.6 30.8 1.6 22.45 1.6 14.1 7.55 8.2 13.4 2.25 21.8 2.25 30.1 2.25 36.05 8.2 41.9 14.1 41.9 22.45" fill="url(#gradient0)" fill-rule="evenodd" stroke="none"/>
      <path d="M22.0 4.7 Q14.8 4.7 9.7 9.8 4.65 14.95 4.65 22.05 4.65 29.25 9.7 34.35 14.75 39.45 22.0 39.45 29.15 39.45 34.2 34.35 39.3 29.25 39.3 22.05 39.3 14.85 34.2 9.8 29.15 4.7 22.0 4.7 M36.4 0.0 Q39.6 0.0 41.75 2.25 44.0 4.55 44.0 7.65 L44.0 36.45 Q44.0 39.6 41.75 41.85 39.6 44.05 36.4 44.05 L7.6 44.05 Q4.45 44.05 2.25 41.85 0.0 39.65 0.0 36.45 L0.0 7.65 Q0.0 4.55 2.25 2.25 4.45 0.0 7.6 0.0 L36.4 0.0" fill="url(#gradient1)" fill-rule="evenodd" stroke="none"/>
      <path d="M41.05 22.0 Q41.05 29.85 35.45 35.4 29.95 41.0 22.1 41.0 14.2 41.0 8.7 35.4 3.15 29.85 3.15 22.0 3.15 14.15 8.7 8.6 14.2 3.05 22.1 3.05 29.95 3.05 35.45 8.6 41.05 14.15 41.05 22.0 M33.85 10.35 Q28.9 5.45 22.1 5.4 15.2 5.45 10.35 10.35 5.5 15.1 5.45 22.0 5.5 28.95 10.35 33.8 15.2 38.65 22.1 38.65 28.9 38.65 33.85 33.8 38.65 28.95 38.65 22.0 38.65 15.1 33.85 10.35" fill="url(#gradient2)" fill-rule="evenodd" stroke="none"/>
      <path d="M24.25 11.15 L22.05 10.9 19.85 11.15 Q16.6 11.75 14.1 14.2 11.7 16.6 11.1 19.75 L10.9 22.15 11.1 24.3 11.1 24.35 Q11.65 27.55 14.1 30.0 16.4 32.35 19.45 33.1 L22.05 33.35 24.8 33.05 24.8 33.1 Q27.7 32.35 29.95 30.0 32.35 27.75 33.0 24.7 L33.25 22.15 33.0 19.5 33.05 19.55 Q32.3 16.5 29.95 14.2 27.5 11.75 24.25 11.15 M22.2 5.9 L22.2 5.85 22.3 5.8 22.35 5.8 22.4 5.85 23.8 8.55 25.35 6.6 25.45 6.55 25.5 6.55 25.6 6.6 25.6 6.7 24.6 10.2 Q28.05 10.9 30.65 13.5 33.05 15.85 33.9 18.9 L36.1 16.85 36.15 16.85 36.25 16.85 36.3 16.9 36.3 17.0 35.25 20.25 37.4 18.95 37.45 18.95 37.55 18.95 37.6 19.05 37.55 19.1 35.95 22.35 37.45 22.35 37.55 22.35 37.6 22.4 37.6 22.5 37.55 22.55 35.95 23.75 37.4 24.85 37.45 24.95 37.45 25.0 37.4 25.05 37.3 25.1 34.0 24.95 Q33.25 28.25 30.65 30.75 L30.65 30.7 Q28.25 33.2 25.15 34.0 L25.6 35.95 25.55 36.05 25.5 36.1 25.4 36.05 24.0 35.25 24.0 36.35 23.95 36.45 23.9 36.5 23.8 36.45 22.4 35.6 21.65 37.75 21.6 37.8 21.5 37.85 21.45 37.8 21.4 37.75 20.65 35.25 17.35 36.5 17.3 36.5 17.2 36.45 17.2 36.35 17.2 36.3 18.85 33.95 Q15.75 33.15 13.4 30.7 10.85 28.15 10.15 24.75 L7.8 25.85 7.75 25.85 7.65 25.8 7.65 25.75 7.65 25.65 8.6 23.8 6.65 23.0 6.6 22.9 6.6 22.85 6.65 22.75 6.7 22.75 8.45 22.75 6.75 20.7 6.75 20.6 6.75 20.55 6.85 20.5 8.45 20.3 7.75 18.25 7.75 18.15 7.85 18.1 7.9 18.1 10.15 19.3 Q10.9 16.0 13.4 13.5 15.85 11.1 19.05 10.3 L17.25 9.05 17.2 9.0 17.2 8.95 17.25 8.85 17.3 8.85 20.3 8.85 18.95 6.95 18.95 6.85 18.95 6.8 19.05 6.75 19.1 6.75 22.2 8.35 22.2 5.9" fill="#5f3921" fill-rule="evenodd" stroke="none"/>
      <path d="M25.35 13.3 Q26.0 12.85 26.75 12.55 30.85 10.5 32.2 12.0 33.7 13.4 31.55 17.4 L30.75 18.7 Q31.4 20.45 31.35 22.45 L31.0 24.65 31.0 24.75 Q32.85 27.4 33.35 29.25 33.7 30.5 33.25 31.15 32.8 32.0 31.6 31.9 30.0 32.0 26.45 30.25 24.35 31.4 21.75 31.3 19.85 31.25 18.1 30.45 L17.7 30.75 17.6 30.75 Q13.6 32.65 12.25 31.2 L12.25 31.15 Q10.7 29.75 13.0 25.8 L13.4 25.15 Q12.75 23.6 12.85 21.7 12.9 20.15 13.5 18.7 L12.85 17.65 12.3 16.75 11.65 15.2 11.4 13.7 Q11.4 13.05 11.8 12.5 L11.95 12.3 12.2 12.05 Q12.5 11.8 13.0 11.65 L13.6 11.55 Q15.0 11.5 17.3 12.55 L17.35 12.6 17.8 12.8 18.7 13.2 18.85 13.4 Q20.6 12.75 22.5 12.8 L25.35 13.3 M28.9 15.75 L30.25 17.6 30.65 17.0 Q32.3 13.8 31.55 12.65 L31.55 12.6 Q30.45 11.75 27.25 13.45 L26.4 13.85 Q27.8 14.55 28.9 15.75 M25.55 14.15 L22.4 13.45 19.9 13.7 18.3 14.35 16.9 15.3 16.05 16.0 14.85 17.55 14.0 19.2 Q13.6 20.65 13.55 21.75 L13.65 23.5 13.95 24.75 14.2 25.4 Q14.75 26.75 15.8 27.95 L17.3 29.3 18.35 29.95 19.6 30.4 21.75 30.65 Q23.65 30.75 25.35 30.1 L26.15 29.75 26.65 29.45 27.95 28.4 Q29.55 26.9 30.3 25.0 L30.6 23.5 30.7 22.45 Q30.75 20.95 30.4 19.65 L29.8 18.25 28.4 16.25 Q27.1 14.85 25.55 14.15 M20.5 22.85 Q20.5 21.8 21.25 21.05 22.0 20.3 23.05 20.3 23.95 19.5 21.4 18.95 18.8 18.35 17.95 21.8 17.1 25.2 20.75 26.95 24.4 28.7 29.65 23.65 27.75 26.85 26.35 28.15 24.95 29.4 21.75 29.35 18.55 29.3 16.85 27.3 15.1 25.3 14.85 23.65 14.55 21.95 15.3 19.9 16.05 17.8 17.45 16.55 18.8 15.25 21.8 15.05 24.75 14.85 26.85 17.3 28.9 19.75 27.85 22.15 26.8 24.55 25.35 25.05 L22.9 25.4 Q21.85 25.25 21.2 24.6 20.5 23.9 20.5 22.85 M31.6 30.95 Q32.2 30.95 32.35 30.65 32.6 30.25 32.35 29.45 31.95 27.95 30.6 25.9 29.8 27.55 28.4 28.85 L27.45 29.7 Q30.25 30.95 31.6 30.95 M17.1 29.95 L15.3 28.35 Q14.35 27.4 13.85 26.25 L13.8 26.35 13.85 26.35 Q12.1 29.45 13.0 30.5 13.95 31.4 17.1 29.95 M17.05 13.55 L16.95 13.55 Q14.45 12.35 13.25 12.65 L12.85 12.85 12.65 13.05 12.45 13.45 12.4 13.7 12.45 14.4 12.5 14.6 13.0 15.85 13.65 17.2 13.65 17.15 14.0 17.65 Q14.45 16.8 15.05 16.1 L15.8 15.25 16.3 14.85 17.2 14.2 17.7 13.9 17.45 13.7 17.05 13.55" fill="#5f3921" fill-rule="evenodd" stroke="none"/>
      <path d="M0.2 25.1 Q0.3 22.65 0.8 20.65 0.55 24.85 0.8 26.5 1.1 29.5 3.1 30.95 L8.1 35.1 Q10.6 37.45 11.0 40.2 L14.5 42.5 10.7 42.9 Q9.95 44.4 7.2 44.05 3.2 43.5 2.4 40.25 1.7 37.65 3.6 36.65 L3.8 34.45 4.45 36.3 Q6.5 35.9 6.95 37.0 7.4 38.05 6.85 39.1 6.25 40.05 5.7 39.25 6.4 39.2 6.5 38.8 6.55 38.4 5.85 37.75 5.2 37.1 4.65 37.4 4.05 37.7 3.8 38.85 3.2 41.3 6.05 42.4 9.0 43.5 9.45 40.8 9.95 38.55 7.15 36.2 L3.35 33.3 0.9 32.8 1.85 31.85 Q0.1 29.85 0.2 25.1" fill="#7a5130" fill-rule="evenodd" stroke="none"/>
      <path d="M0.25 24.15 Q0.35 21.8 0.85 19.8 0.6 23.95 0.85 25.55 1.2 28.55 3.15 30.05 L8.15 34.15 Q10.65 36.55 11.05 39.25 L14.7 42.55 10.75 42.05 Q10.0 43.5 7.25 43.15 3.25 42.55 2.45 39.35 1.75 36.75 3.65 35.8 L3.8 34.35 4.55 35.45 Q6.55 35.05 7.0 36.85 7.25 38.35 6.65 39.05 L5.85 39.35 Q7.15 38.2 5.75 36.9 4.4 35.55 3.85 37.95 3.25 40.4 6.1 41.45 9.05 42.55 9.5 39.9 10.0 37.7 7.2 35.25 L3.35 32.4 3.45 32.45 0.85 32.85 1.95 30.95 Q0.15 28.9 0.25 24.15" fill="#ca935c" fill-rule="evenodd" stroke="none"/>
      <path d="M0.85 21.45 Q0.8 24.4 0.9 25.6 1.4 28.6 3.25 30.15 L8.2 34.25 Q10.7 36.6 11.15 39.25 L14.3 42.15 14.05 42.05 13.9 41.9 12.2 40.7 Q10.35 39.1 10.3 38.0 10.15 36.65 8.45 35.15 L5.15 32.65 Q2.0 30.2 1.1 27.45 0.55 25.85 0.55 22.05 L0.85 21.45 M6.5 36.6 Q5.85 35.6 4.65 35.6 L4.4 35.7 4.35 35.6 4.2 35.6 4.2 34.75 4.7 35.5 Q6.6 35.1 7.05 36.9 7.3 37.95 7.05 38.6 L7.0 38.7 7.0 38.6 6.9 38.1 6.9 38.0 Q6.9 37.25 6.5 36.6 M4.25 40.3 L4.05 39.7 Q4.55 40.9 6.2 41.5 L8.45 41.7 8.5 41.75 7.0 42.05 Q6.2 42.05 5.35 41.35 L4.25 40.3" fill="#d7ad86" fill-rule="evenodd" stroke="none"/>
      <path d="M43.65 25.1 Q43.55 22.65 43.05 20.65 43.3 24.85 43.05 26.5 42.75 29.5 40.75 30.95 L35.75 35.1 Q33.25 37.45 32.85 40.2 L29.35 42.5 33.15 42.9 Q33.9 44.4 36.65 44.05 40.65 43.5 41.45 40.25 42.15 37.65 40.25 36.65 L40.05 34.45 39.4 36.3 Q37.35 35.9 36.9 37.0 36.45 38.05 37.0 39.1 37.6 40.05 38.15 39.25 37.45 39.2 37.35 38.8 37.3 38.4 38.0 37.75 38.65 37.1 39.2 37.4 39.8 37.7 40.05 38.85 40.65 41.3 37.8 42.4 34.85 43.5 34.4 40.8 33.9 38.55 36.7 36.2 L40.5 33.3 42.95 32.8 42.0 31.85 Q43.75 29.85 43.65 25.1" fill="#7a5130" fill-rule="evenodd" stroke="none"/>
      <path d="M43.6 24.15 Q43.5 21.8 43.0 19.8 43.25 23.95 43.0 25.55 42.65 28.55 40.7 30.05 L35.7 34.15 Q33.2 36.55 32.8 39.25 L29.15 42.55 33.1 42.05 Q33.85 43.5 36.6 43.15 40.6 42.55 41.4 39.35 42.1 36.75 40.2 35.8 L40.05 34.35 39.3 35.45 Q37.3 35.05 36.85 36.85 36.6 38.35 37.2 39.05 L38.0 39.35 Q36.7 38.2 38.1 36.9 39.45 35.55 40.0 37.95 40.6 40.4 37.75 41.45 34.8 42.55 34.35 39.9 33.85 37.7 36.65 35.25 L40.5 32.4 40.4 32.45 43.0 32.85 41.9 30.95 Q43.7 28.9 43.6 24.15" fill="#ca935c" fill-rule="evenodd" stroke="none"/>
      <path d="M43.0 21.45 L42.95 25.6 Q42.45 28.6 40.6 30.15 L35.65 34.25 Q33.15 36.6 32.7 39.25 L29.55 42.15 29.8 42.05 29.95 41.9 31.65 40.7 Q33.5 39.1 33.55 38.0 33.7 36.65 35.4 35.15 L38.7 32.65 Q41.85 30.2 42.75 27.45 43.3 25.85 43.3 22.05 L43.0 21.45 M37.35 36.6 Q38.0 35.6 39.2 35.6 L39.45 35.7 39.5 35.6 39.65 35.6 39.65 34.75 39.15 35.5 Q37.25 35.1 36.8 36.9 36.55 37.95 36.8 38.6 L36.85 38.7 36.85 38.6 36.95 38.1 36.95 38.0 Q36.95 37.25 37.35 36.6 M39.6 40.3 L39.8 39.7 Q39.3 40.9 37.65 41.5 L35.4 41.7 35.35 41.75 36.85 42.05 Q37.65 42.05 38.5 41.35 L39.6 40.3" fill="#d7ad86" fill-rule="evenodd" stroke="none"/>
    </g>
    <linearGradient gradientTransform="matrix(0.0, -0.0155, -0.0189, 0.0, 21.85, 25.45)" gradientUnits="userSpaceOnUse" id="gradient0" spreadMethod="pad" x1="-819.2" x2="819.2">
      <stop offset="0.011764705882352941" stop-color="#bb9a76"/>
      <stop offset="1.0" stop-color="#a87f53"/>
    </linearGradient>
    <linearGradient gradientTransform="matrix(0.0, -0.0344, -0.0552, 0.0, 22.4, 16.35)" gradientUnits="userSpaceOnUse" id="gradient1" spreadMethod="pad" x1="-819.2" x2="819.2">
      <stop offset="0.0196078431372549" stop-color="#9c6732"/>
      <stop offset="1.0" stop-color="#7d4e2b"/>
    </linearGradient>
    <linearGradient gradientTransform="matrix(1.0E-4, 0.0223, -0.0231, 1.0E-4, 22.15, 22.25)" gradientUnits="userSpaceOnUse" id="gradient2" spreadMethod="pad" x1="-819.2" x2="819.2">
      <stop offset="0.011764705882352941" stop-color="#59351e"/>
      <stop offset="1.0" stop-color="#cc955e"/>
    </linearGradient>
    <g id="sprite0" transform="matrix(1.0, 0.0, 0.0, 1.0, 0.2, 0.0)">
      <use height="8.6" transform="matrix(1.0, 0.0, 0.0, 1.0, -0.2, 0.0)" width="35.05" xlink:href="#shape1"/>
    </g>
    <g id="shape1" transform="matrix(1.0, 0.0, 0.0, 1.0, 0.2, 0.0)">
      <path d="M34.4 4.4 Q34.85 5.8 34.85 7.65 L34.85 8.6 Q34.8 6.95 34.4 5.7 33.0 1.3 27.2 1.3 L7.45 1.3 Q0.05 1.3 -0.2 8.5 L-0.2 7.65 Q-0.2 0.0 7.45 0.0 L27.2 0.0 Q33.0 0.0 34.4 4.4" fill="#e7deda" fill-rule="evenodd" stroke="none"/>
    </g>
    <g id="sprite1" transform="matrix(1.0, 0.0, 0.0, 1.0, 0.0, 0.0)">
      <use height="20.15" transform="matrix(1.0, 0.0, 0.0, 1.0, 0.0, 0.0)" width="28.2" xlink:href="#shape2"/>
    </g>
    <g id="shape2" transform="matrix(1.0, 0.0, 0.0, 1.0, 0.0, 0.0)">
      <path d="M27.4 18.95 Q26.2 20.8 23.4 19.8 19.6 18.5 17.35 14.05 14.8 9.1 9.75 7.4 4.1 5.65 0.0 10.3 1.0 6.85 3.7 4.15 7.2 0.65 11.9 0.05 L14.8 0.05 18.4 0.65 Q21.55 1.65 24.05 4.15 28.2 8.3 28.2 14.25 28.2 16.45 27.65 18.45 L27.4 18.95" fill="#ffffff" fill-opacity="0.19607843" fill-rule="evenodd" stroke="none"/>
    </g>
  </defs>
</svg>
