<?xml version="1.0" encoding="UTF-8" standalone="no"?>
<svg xmlns:xlink="http://www.w3.org/1999/xlink" height="66.0px" width="66.0px" xmlns="http://www.w3.org/2000/svg">
  <g transform="matrix(1.5, 0.0, 0.0, 1.5, 0.0, 0.0)">
    <use height="44.0" transform="matrix(1.0, 0.0, 0.0, 1.0, 0.0, 0.0)" width="44.0" xlink:href="#shape0"/>
    <use height="0.0" transform="matrix(1.2125, 0.0, 0.0, 1.2125, 1.0, 0.95)" width="0.0" xlink:href="#sprite0"/>
    <use height="20.8" transform="matrix(1.0, 0.0, 0.0, 1.0, 0.7, 23.15)" width="42.45" xlink:href="#shape1"/>
    <use height="20.15" transform="matrix(1.1594, 0.0, 0.0, 1.1605, 5.8, 5.3)" width="28.2" xlink:href="#sprite1"/>
    <use height="8.6" transform="matrix(1.2077, 0.0, 0.0, 1.2065, 0.7085, 0.8)" width="35.05" xlink:href="#sprite2"/>
  </g>
  <defs>
    <g id="shape0" transform="matrix(1.0, 0.0, 0.0, 1.0, 0.0, 0.0)">
      <path d="M41.8 41.8 Q39.6 44.0 36.4 44.0 L7.6 44.0 Q4.45 44.0 2.25 41.8 0.0 39.6 0.0 36.4 L0.0 7.6 Q0.0 4.45 2.25 2.25 4.45 0.0 7.6 0.0 L36.4 0.0 Q39.55 0.0 41.8 2.25 44.0 4.45 44.0 7.6 L44.0 36.4 Q44.0 39.6 41.8 41.8" fill="url(#gradient0)" fill-rule="evenodd" stroke="none"/>
      <path d="M40.6 22.05 Q40.6 29.75 35.2 35.2 29.75 40.6 22.05 40.6 14.3 40.6 8.85 35.2 3.4 29.75 3.4 22.05 3.4 14.3 8.85 8.95 14.3 3.5 22.05 3.5 29.75 3.5 35.2 8.95 40.6 14.4 40.6 22.05" fill="url(#gradient1)" fill-rule="evenodd" stroke="none"/>
      <path d="M37.55 22.8 Q36.9 28.1 30.85 29.4 33.65 27.65 32.0 25.8 29.25 28.8 25.45 26.95 27.9 26.8 28.7 24.7 L26.8 24.25 25.9 25.4 25.4 25.9 Q25.3 27.35 24.25 28.5 23.45 29.15 22.45 29.45 L21.8 30.5 21.2 30.85 Q21.65 31.4 21.65 32.1 21.65 33.05 20.95 33.7 20.3 34.3 19.4 34.3 L18.55 34.1 18.25 34.95 17.8 35.55 Q16.9 36.35 15.75 36.35 14.6 36.35 13.85 35.55 L13.3 34.95 Q13.0 34.4 13.0 33.7 13.0 32.55 13.85 31.75 L14.0 31.5 Q13.65 31.05 13.65 30.5 L13.85 29.65 13.2 29.3 Q12.55 28.6 12.55 27.7 12.55 27.1 12.85 26.6 13.0 26.45 13.3 26.25 L13.9 25.95 16.0 27.0 16.15 26.55 Q15.15 25.3 14.9 23.85 L14.75 23.85 13.35 23.95 12.25 24.15 11.05 24.5 12.7 26.35 11.1 26.05 11.85 28.55 10.15 26.8 10.15 34.9 Q4.55 29.95 4.1 22.65 L4.1 22.0 4.15 20.85 Q4.95 14.35 10.15 9.75 L10.15 17.85 11.85 16.1 11.1 18.6 12.25 18.4 12.25 18.75 11.05 20.1 13.35 20.65 14.75 20.8 14.95 20.8 Q15.15 19.0 16.2 18.1 L16.0 17.6 13.9 18.65 13.35 18.4 13.3 18.4 12.85 18.05 Q12.55 17.55 12.55 16.95 12.55 16.05 13.2 15.35 L13.85 15.0 13.65 14.15 Q13.65 13.6 14.0 13.15 L13.85 12.9 Q13.0 12.1 13.0 10.95 13.0 9.85 13.85 9.1 14.6 8.3 15.75 8.3 16.9 8.3 17.8 9.1 18.4 9.7 18.55 10.55 L19.4 10.35 Q20.3 10.35 20.95 10.95 21.65 11.65 21.65 12.55 L21.2 13.8 Q21.5 13.9 21.8 14.15 L22.45 15.2 Q23.45 15.5 24.25 16.15 25.3 17.3 25.4 18.75 L25.9 19.25 26.9 20.7 28.7 20.25 Q27.9 18.2 25.45 18.05 29.25 16.2 32.0 19.15 33.65 17.4 30.85 15.6 36.9 16.9 37.55 22.15 L37.6 22.45 37.55 22.8 M20.95 8.4 L21.2 8.95 20.95 9.5 20.4 9.75 19.85 9.5 19.65 8.95 19.85 8.4 20.4 8.2 20.95 8.4 M24.55 13.0 Q24.35 13.2 24.1 13.2 23.85 13.2 23.7 13.0 L23.5 12.6 23.7 12.15 Q23.85 12.0 24.1 12.0 L24.55 12.15 24.7 12.6 24.55 13.0 M22.65 13.5 L22.8 13.55 22.85 13.7 22.8 13.8 22.65 13.85 22.55 13.8 22.45 13.7 22.55 13.55 22.65 13.5 M12.7 8.6 L12.45 9.25 11.7 9.55 Q11.3 9.55 11.05 9.25 10.75 9.05 10.75 8.6 10.75 8.2 11.05 7.9 11.3 7.65 11.7 7.65 L12.45 7.9 12.7 8.6 M12.9 13.25 L12.85 13.15 12.9 13.0 13.05 12.95 13.15 13.0 13.2 13.15 13.15 13.25 13.05 13.3 12.9 13.25 M12.45 18.05 L12.4 18.15 12.25 18.2 12.15 18.15 12.1 18.05 12.15 17.9 12.25 17.85 12.4 17.9 12.45 18.05 M11.4 16.4 L11.3 16.65 11.05 16.75 10.8 16.65 10.7 16.4 10.8 16.15 11.05 16.05 11.3 16.15 11.4 16.4" fill="#496125" fill-rule="evenodd" stroke="none"/>
      <path d="M33.7 10.3 Q28.75 5.45 21.85 5.4 14.95 5.45 10.1 10.3 5.2 15.15 5.15 22.05 5.2 29.0 10.1 33.85 14.95 38.75 21.85 38.75 28.75 38.75 33.7 33.85 38.5 29.0 38.5 22.05 38.5 15.15 33.7 10.3 M40.85 22.05 Q40.85 29.9 35.25 35.4 29.75 41.1 21.85 41.1 13.9 41.1 8.4 35.4 2.85 29.9 2.85 22.05 2.85 14.1 8.4 8.6 13.9 3.0 21.85 3.0 29.75 3.0 35.25 8.6 40.85 14.1 40.85 22.05" fill="url(#gradient2)" fill-rule="evenodd" stroke="none"/>
    </g>
    <linearGradient gradientTransform="matrix(0.0, -0.0283, -0.0551, 0.0, 22.6, 21.95)" gradientUnits="userSpaceOnUse" id="gradient0" spreadMethod="pad" x1="-819.2" x2="819.2">
      <stop offset="0.011764705882352941" stop-color="#9dae7c"/>
      <stop offset="1.0" stop-color="#7e8f45"/>
    </linearGradient>
    <linearGradient gradientTransform="matrix(0.0, -0.0173, -0.0173, 0.0, 22.0, 18.45)" gradientUnits="userSpaceOnUse" id="gradient1" spreadMethod="pad" x1="-819.2" x2="819.2">
      <stop offset="0.011764705882352941" stop-color="#d3d4b5"/>
      <stop offset="1.0" stop-color="#71a26f"/>
    </linearGradient>
    <linearGradient gradientTransform="matrix(1.0E-4, 0.0223, -0.0232, 1.0E-4, 21.9, 22.3)" gradientUnits="userSpaceOnUse" id="gradient2" spreadMethod="pad" x1="-819.2" x2="819.2">
      <stop offset="0.011764705882352941" stop-color="#516537"/>
      <stop offset="1.0" stop-color="#a8ce99"/>
    </linearGradient>
    <g id="shape1" transform="matrix(1.0, 0.0, 0.0, 1.0, -0.7, -23.15)">
      <path d="M0.8 32.85 Q1.1 30.5 2.4 29.3 L2.8 27.6 Q2.9 26.55 2.65 25.55 L2.4 24.5 1.75 23.15 2.8 24.25 3.6 25.45 3.95 26.85 Q4.0 27.75 3.3 29.55 2.65 31.15 2.5 33.35 L2.45 33.05 2.4 33.35 Q1.8 36.15 2.95 38.1 3.55 39.05 4.25 39.55 L3.95 39.1 4.0 39.15 4.3 39.6 Q4.85 40.35 5.75 40.55 6.85 40.7 7.9 39.85 9.1 38.85 8.2 37.55 L8.25 38.4 Q8.0 39.35 6.65 39.8 L5.7 39.95 5.7 39.9 5.55 38.7 Q5.5 36.95 6.95 36.0 8.45 35.1 9.95 36.65 L11.2 38.45 Q11.15 36.6 10.2 35.6 L10.4 35.8 Q11.05 36.55 11.35 37.45 L11.3 37.45 11.5 37.9 11.75 38.75 11.85 39.9 Q10.45 42.8 8.65 42.8 9.9 42.55 10.05 41.4 7.15 42.65 3.65 40.95 1.15 39.0 0.8 32.85" fill="#9ec087" fill-rule="evenodd" stroke="none"/>
      <path d="M11.85 39.9 Q11.7 41.0 11.05 42.1 10.1 43.9 6.95 43.95 L4.05 43.65 5.55 43.2 7.75 42.9 6.5 43.05 Q4.35 43.0 2.85 41.45 0.95 39.45 0.7 35.35 L0.8 32.85 Q1.15 39.0 3.65 40.95 7.15 42.65 10.05 41.4 9.9 42.55 8.65 42.8 10.45 42.8 11.85 39.9" fill="#648a4a" fill-rule="evenodd" stroke="none"/>
      <path d="M2.5 33.35 L2.55 34.65 Q2.9 36.35 3.75 37.55 L3.9 36.95 Q4.6 34.9 7.25 34.4 L9.15 34.85 Q9.75 35.15 10.2 35.6 11.15 36.6 11.2 38.45 L9.95 36.65 Q8.45 35.1 6.95 36.0 5.5 36.95 5.55 38.7 L5.7 39.9 5.7 39.95 6.65 39.8 Q8.0 39.35 8.25 38.4 L8.2 37.55 Q9.1 38.85 7.9 39.85 6.85 40.7 5.75 40.55 4.85 40.35 4.3 39.6 L4.0 39.15 3.95 39.1 4.25 39.55 Q3.55 39.05 2.95 38.1 1.8 36.15 2.4 33.35 L2.5 33.35 M3.95 39.1 L4.05 39.05 4.0 38.85 3.9 38.9 3.95 39.1" fill="#c0d6b1" fill-rule="evenodd" stroke="none"/>
      <path d="M2.5 33.35 L2.4 33.35 2.45 33.05 2.5 33.35" fill="#00632e" fill-rule="evenodd" stroke="none"/>
      <path d="M3.95 39.1 L3.9 38.9 4.0 38.85 4.05 39.05 3.95 39.1" fill="#ccbf38" fill-rule="evenodd" stroke="none"/>
      <path d="M11.35 37.45 L11.5 37.9 11.3 37.45 11.35 37.45" fill="url(#gradient3)" fill-rule="evenodd" stroke="none"/>
      <path d="M43.05 32.85 Q42.75 30.5 41.45 29.3 L41.05 27.6 Q40.95 26.55 41.2 25.55 L41.45 24.5 42.1 23.15 41.05 24.25 40.25 25.45 39.9 26.85 Q39.85 27.75 40.55 29.55 41.2 31.15 41.35 33.35 L41.4 33.05 41.45 33.35 Q42.05 36.15 40.9 38.1 L39.6 39.55 39.9 39.1 39.85 39.15 39.55 39.6 Q39.0 40.35 38.1 40.55 37.0 40.7 35.95 39.85 34.75 38.85 35.65 37.55 L35.6 38.4 Q35.85 39.35 37.2 39.8 L38.15 39.95 38.15 39.9 38.3 38.7 Q38.35 36.95 36.9 36.0 35.4 35.1 33.9 36.65 33.1 37.45 32.65 38.45 32.7 36.6 33.65 35.6 L33.45 35.8 Q32.8 36.55 32.5 37.45 L32.55 37.45 32.35 37.9 32.1 38.75 32.0 39.9 Q33.4 42.8 35.2 42.8 33.95 42.55 33.8 41.4 36.7 42.65 40.2 40.95 42.7 39.0 43.05 32.85" fill="#9ec087" fill-rule="evenodd" stroke="none"/>
      <path d="M32.0 39.9 Q32.15 41.0 32.8 42.1 33.75 43.9 36.9 43.95 L39.8 43.65 38.3 43.2 36.1 42.9 37.35 43.05 Q39.5 43.0 41.0 41.45 42.9 39.45 43.15 35.35 L43.05 32.85 Q42.7 39.0 40.2 40.95 36.7 42.65 33.8 41.4 33.95 42.55 35.2 42.8 33.4 42.8 32.0 39.9" fill="#648a4a" fill-rule="evenodd" stroke="none"/>
      <path d="M41.35 33.35 L41.3 34.65 Q40.95 36.35 40.1 37.55 L39.95 36.95 Q39.25 34.9 36.6 34.4 L34.7 34.85 33.65 35.6 Q32.7 36.6 32.65 38.45 33.1 37.45 33.9 36.65 35.4 35.1 36.9 36.0 38.35 36.95 38.3 38.7 L38.15 39.9 38.15 39.95 37.2 39.8 Q35.85 39.35 35.6 38.4 L35.65 37.55 Q34.75 38.85 35.95 39.85 37.0 40.7 38.1 40.55 39.0 40.35 39.55 39.6 L39.85 39.15 39.9 39.1 39.6 39.55 40.9 38.1 Q42.05 36.15 41.45 33.35 L41.35 33.35 M39.9 39.1 L39.8 39.05 39.85 38.85 39.95 38.9 39.9 39.1" fill="#c0d6b1" fill-rule="evenodd" stroke="none"/>
      <path d="M41.35 33.35 L41.45 33.35 41.4 33.05 41.35 33.35" fill="#00632e" fill-rule="evenodd" stroke="none"/>
      <path d="M39.9 39.1 L39.95 38.9 39.85 38.85 39.8 39.05 39.9 39.1" fill="#ccbf38" fill-rule="evenodd" stroke="none"/>
      <path d="M32.5 37.45 L32.35 37.9 32.55 37.45 32.5 37.45" fill="url(#gradient4)" fill-rule="evenodd" stroke="none"/>
    </g>
    <linearGradient gradientTransform="matrix(0.0, -0.0249, -0.0249, 0.0, 5.95, 31.3)" gradientUnits="userSpaceOnUse" id="gradient3" spreadMethod="pad" x1="-819.2" x2="819.2">
      <stop offset="0.011764705882352941" stop-color="#bed9a5"/>
      <stop offset="1.0" stop-color="#739416"/>
    </linearGradient>
    <linearGradient gradientTransform="matrix(0.0, -0.0249, 0.0249, 0.0, 37.85, 31.3)" gradientUnits="userSpaceOnUse" id="gradient4" spreadMethod="pad" x1="-819.2" x2="819.2">
      <stop offset="0.011764705882352941" stop-color="#bed9a5"/>
      <stop offset="1.0" stop-color="#739416"/>
    </linearGradient>
    <g id="sprite1" transform="matrix(1.0, 0.0, 0.0, 1.0, 0.0, 0.0)">
      <use height="20.15" transform="matrix(1.0, 0.0, 0.0, 1.0, 0.0, 0.0)" width="28.2" xlink:href="#shape2"/>
    </g>
    <g id="shape2" transform="matrix(1.0, 0.0, 0.0, 1.0, 0.0, 0.0)">
      <path d="M27.4 18.95 Q26.2 20.8 23.4 19.8 19.6 18.5 17.35 14.05 14.8 9.1 9.75 7.4 4.1 5.65 0.0 10.3 1.0 6.85 3.7 4.15 7.2 0.65 11.9 0.05 L14.8 0.05 18.4 0.65 Q21.55 1.65 24.05 4.15 28.2 8.3 28.2 14.25 28.2 16.45 27.65 18.45 L27.4 18.95" fill="#ffffff" fill-opacity="0.19607843" fill-rule="evenodd" stroke="none"/>
    </g>
    <g id="sprite2" transform="matrix(1.0, 0.0, 0.0, 1.0, 0.2, 0.0)">
      <use height="8.6" transform="matrix(1.0, 0.0, 0.0, 1.0, -0.2, 0.0)" width="35.05" xlink:href="#shape3"/>
    </g>
    <g id="shape3" transform="matrix(1.0, 0.0, 0.0, 1.0, 0.2, 0.0)">
      <path d="M34.4 4.4 Q34.85 5.8 34.85 7.65 L34.85 8.6 Q34.8 6.95 34.4 5.7 33.0 1.3 27.2 1.3 L7.45 1.3 Q0.05 1.3 -0.2 8.5 L-0.2 7.65 Q-0.2 0.0 7.45 0.0 L27.2 0.0 Q33.0 0.0 34.4 4.4" fill="#e7deda" fill-rule="evenodd" stroke="none"/>
    </g>
  </defs>
</svg>
