<?xml version="1.0" encoding="UTF-8" standalone="no"?>
<svg xmlns:xlink="http://www.w3.org/1999/xlink" height="66.075px" width="66.0px" xmlns="http://www.w3.org/2000/svg">
  <g transform="matrix(1.5, 0.0, 0.0, 1.5, -0.15, -0.075)">
    <use height="44.05" transform="matrix(1.0, 0.0, 0.0, 1.0, 0.1, 0.05)" width="44.0" xlink:href="#shape0"/>
    <use height="8.6" transform="matrix(1.2077, 0.0, 0.0, 1.2065, 1.0085, 0.65)" width="35.05" xlink:href="#sprite0"/>
    <use height="20.15" transform="matrix(1.1594, 0.0, 0.0, 1.1605, 6.1, 5.35)" width="28.2" xlink:href="#sprite1"/>
  </g>
  <defs>
    <g id="shape0" transform="matrix(1.0, 0.0, 0.0, 1.0, -0.1, -0.05)">
      <path d="M36.35 0.05 Q39.5 0.05 41.7 2.25 43.9 4.45 43.9 7.55 L43.9 36.15 Q43.9 39.25 41.7 41.45 39.5 43.65 36.35 43.65 L7.8 43.65 Q4.65 43.65 2.45 41.45 0.25 39.25 0.25 36.15 L0.25 7.55 Q0.25 4.45 2.45 2.25 4.65 0.05 7.8 0.05 L36.35 0.05" fill="url(#gradient0)" fill-rule="evenodd" stroke="none"/>
      <path d="M35.4 8.6 Q40.6 13.85 40.6 21.2 40.6 28.6 35.4 33.9 30.2 39.1 22.8 39.1 15.35 39.1 10.15 33.9 4.95 28.6 4.95 21.2 4.95 13.85 10.15 8.6 15.45 3.35 22.8 3.35 30.2 3.35 35.4 8.6" fill="url(#gradient1)" fill-rule="evenodd" stroke="none"/>
      <path d="M44.0 20.45 L44.1 20.35 43.9 24.45 Q43.9 26.5 40.3 34.65 L40.15 34.45 42.1 29.8 Q43.9 25.3 43.9 23.9 L44.0 20.45 M42.8 38.5 L42.8 39.15 37.55 34.65 37.85 34.65 38.05 34.4 42.8 38.5 M42.3 40.5 L42.55 40.5 Q41.9 42.45 39.0 44.1 L39.45 43.2 39.85 43.0 39.85 42.85 Q41.6 41.8 42.3 40.5 M6.6 34.65 L1.35 39.15 1.35 38.5 6.1 34.4 6.35 34.65 6.6 34.65 M3.85 34.65 Q0.25 26.5 0.25 24.45 L0.1 20.35 0.15 20.45 0.25 23.9 Q0.25 25.3 2.05 29.8 L4.0 34.45 3.85 34.65 M1.85 40.5 Q2.55 41.8 4.3 42.85 L4.3 43.0 4.7 43.2 5.15 44.1 Q2.3 42.45 1.6 40.5 L1.85 40.5 M6.4 37.95 Q6.75 37.65 7.15 37.5 L10.1 41.8 9.7 41.8 7.15 38.05 Q6.05 38.6 5.15 39.6 4.5 40.5 4.4 41.4 L4.4 40.55 4.6 40.05 4.9 39.45 5.15 39.0 6.05 38.2 6.4 37.95 M6.6 42.0 L7.35 42.75 15.3 43.15 16.0 43.25 16.25 43.15 17.0 43.4 17.15 43.55 Q9.1 44.25 7.35 43.35 L6.05 42.0 6.6 42.0 M28.85 43.15 L36.8 42.75 37.55 42.0 38.1 42.0 36.8 43.35 Q35.05 44.25 27.0 43.55 L27.15 43.4 27.95 43.15 28.15 43.25 28.85 43.15 M34.45 41.8 L34.05 41.8 37.0 37.5 Q37.4 37.65 37.75 37.95 L38.1 38.2 39.0 39.0 39.25 39.45 39.55 40.05 39.75 40.55 39.75 41.4 Q39.7 40.5 39.0 39.6 38.1 38.6 37.0 38.05 L34.45 41.8" fill="#0b000a" fill-rule="evenodd" stroke="none"/>
      <path d="M40.3 34.65 L40.8 35.1 40.8 35.3 40.85 35.75 41.45 35.8 41.55 35.75 42.25 31.9 42.1 32.05 42.65 30.05 42.8 38.5 38.05 34.4 37.7 34.1 38.1 34.0 Q39.35 33.95 39.9 33.1 L41.05 31.05 Q42.25 28.7 42.65 26.75 L43.8 22.35 43.9 20.5 44.1 19.7 44.0 20.45 43.9 23.9 Q43.9 25.3 42.1 29.8 L40.15 34.45 40.3 34.65 M37.75 33.8 L38.25 33.7 37.4 33.9 37.75 33.8 M42.3 40.5 Q41.6 41.8 39.85 42.85 L39.95 41.4 Q39.95 40.5 39.6 39.55 39.1 37.9 37.95 37.9 L37.75 37.95 Q37.4 37.65 37.0 37.5 L34.05 41.8 34.45 41.8 35.1 41.8 38.35 41.15 38.15 41.35 37.55 42.0 36.8 42.75 28.85 43.15 27.3 43.0 27.0 42.9 26.95 42.9 27.25 42.8 27.35 42.8 28.5 42.4 29.3 42.45 Q32.0 42.45 34.75 38.75 L36.65 36.3 37.3 35.4 37.25 35.35 42.55 39.75 42.65 39.75 42.3 40.5 M5.95 33.7 L6.4 33.8 6.75 33.9 5.95 33.7 M1.35 38.5 L1.55 30.05 2.05 32.05 1.95 31.9 2.65 35.75 2.7 35.8 3.3 35.75 3.4 35.3 3.4 35.1 3.85 34.65 4.0 34.45 2.05 29.8 Q0.25 25.3 0.25 23.9 L0.15 20.45 0.1 19.7 0.25 20.5 0.35 22.35 1.55 26.75 Q1.95 28.7 3.1 31.05 L4.25 33.1 Q4.85 33.95 6.05 34.0 L6.45 34.1 6.1 34.4 1.35 38.5 M6.9 35.35 L6.85 35.4 7.5 36.3 9.4 38.75 Q12.2 42.45 14.85 42.45 L15.65 42.4 16.8 42.8 16.95 42.8 17.2 42.9 17.15 42.9 16.85 43.0 15.3 43.15 7.35 42.75 6.6 42.0 6.0 41.35 5.8 41.15 9.05 41.8 9.7 41.8 10.1 41.8 7.15 37.5 Q6.75 37.65 6.4 37.95 L6.2 37.9 Q5.05 37.9 4.55 39.55 4.2 40.5 4.2 41.4 L4.3 42.85 Q2.55 41.8 1.85 40.5 L1.55 39.75 1.6 39.75 6.9 35.35" fill="#4a3355" fill-rule="evenodd" stroke="none"/>
      <path d="M40.8 35.1 L41.3 35.65 42.1 32.15 42.1 32.05 42.25 31.9 41.55 35.75 41.45 35.8 40.85 35.75 40.8 35.3 40.8 35.1 M38.25 33.7 L39.05 33.6 Q41.05 31.5 42.8 25.4 L43.9 20.45 43.9 20.5 43.8 22.35 42.65 26.75 Q42.25 28.7 41.05 31.05 L39.9 33.1 Q39.35 33.95 38.1 34.0 L37.7 34.1 37.65 34.1 37.4 33.9 38.25 33.7 M39.85 42.85 L39.85 43.0 39.45 43.2 Q39.2 43.25 39.0 43.4 L39.05 43.25 39.5 42.35 39.6 42.05 39.7 41.7 39.7 41.65 39.7 41.6 39.75 41.4 39.75 40.55 39.55 40.05 39.25 39.45 39.0 39.0 38.1 38.2 37.75 37.95 37.95 37.9 Q39.1 37.9 39.6 39.55 39.95 40.5 39.95 41.4 L39.85 42.85 M0.25 20.5 L0.25 20.45 1.35 25.4 Q3.1 31.5 5.1 33.6 L5.95 33.7 6.75 33.9 6.5 34.1 6.45 34.1 6.05 34.0 Q4.85 33.95 4.25 33.1 L3.1 31.05 Q1.95 28.7 1.55 26.75 L0.35 22.35 0.25 20.5 M2.05 32.05 L2.05 32.15 2.85 35.65 3.4 35.1 3.4 35.3 3.3 35.75 2.7 35.8 2.65 35.75 1.95 31.9 2.05 32.05 M15.65 42.4 L14.85 42.45 Q12.2 42.45 9.4 38.75 L7.5 36.3 6.85 35.4 6.9 35.35 9.05 38.1 Q11.5 41.0 13.15 41.55 L14.2 41.9 15.2 42.25 15.5 42.35 15.65 42.4 M4.3 42.85 L4.2 41.4 Q4.2 40.5 4.55 39.55 5.05 37.9 6.2 37.9 L6.4 37.95 6.05 38.2 5.15 39.0 4.9 39.45 4.6 40.05 4.4 40.55 4.4 41.4 4.5 41.6 4.5 41.65 4.5 41.7 4.55 42.05 4.65 42.35 5.1 43.25 5.15 43.4 4.7 43.2 4.3 43.0 4.3 42.85 M37.25 35.35 L37.3 35.4 36.65 36.3 34.75 38.75 Q32.0 42.45 29.3 42.45 L28.5 42.4 28.7 42.35 28.95 42.25 29.95 41.9 31.0 41.55 Q32.65 41.0 35.1 38.1 L37.25 35.35" fill="#c8a6c1" fill-rule="evenodd" stroke="none"/>
      <path d="M37.55 34.65 L37.5 34.55 37.4 34.45 37.35 33.9 37.75 33.8 37.4 33.9 37.65 34.1 37.7 34.1 38.05 34.4 37.85 34.65 37.55 34.65 M42.55 40.5 L42.3 40.5 42.65 39.75 42.75 40.25 42.65 40.5 42.55 40.5 M6.4 33.8 L6.8 33.9 6.75 34.45 6.7 34.55 6.6 34.65 6.35 34.65 6.1 34.4 6.45 34.1 6.5 34.1 6.75 33.9 6.4 33.8 M1.55 39.75 L1.85 40.5 1.6 40.5 1.55 40.5 1.4 40.25 Q1.4 39.85 1.55 39.75 M6.0 41.35 L6.6 42.0 6.05 42.0 5.8 41.95 5.8 41.5 6.0 41.35 M15.3 43.15 L16.85 43.0 17.15 42.9 17.15 43.55 17.0 43.4 16.25 43.15 16.0 43.25 15.3 43.15 M16.95 42.8 L16.8 42.8 16.85 42.75 16.95 42.8 M27.35 42.8 L27.25 42.8 27.3 42.75 27.35 42.8 M27.0 42.9 L27.3 43.0 28.85 43.15 28.15 43.25 27.95 43.15 27.15 43.4 27.0 43.55 27.0 42.9 M37.55 42.0 L38.15 41.35 38.35 41.5 38.35 41.95 38.1 42.0 37.55 42.0" fill="#000000" fill-rule="evenodd" stroke="none"/>
      <path d="M23.4 8.75 Q32.75 12.7 36.7 21.5 L4.25 21.05 4.25 20.05 21.2 20.05 Q18.45 16.2 15.1 12.3 24.05 17.9 26.75 18.1 29.05 17.0 23.4 8.75 M21.3 23.9 L4.05 23.9 4.1 22.75 36.65 22.3 Q32.9 31.35 23.4 35.4 29.5 27.45 26.75 26.1 24.3 26.1 15.1 31.9 L21.2 24.05 21.3 23.9" fill="#4a3355" fill-rule="evenodd" stroke="none"/>
      <path d="M34.0 10.2 Q29.05 5.35 22.15 5.3 15.3 5.35 10.4 10.2 5.55 15.0 5.5 21.9 5.55 28.85 10.4 33.7 15.3 38.55 22.15 38.55 29.05 38.55 34.0 33.7 38.8 28.85 38.8 21.9 38.8 15.0 34.0 10.2 M41.15 21.9 Q41.15 29.75 35.55 35.25 30.05 40.95 22.15 40.95 14.25 40.95 8.75 35.25 3.2 29.75 3.2 21.9 3.2 13.95 8.75 8.45 14.25 2.9 22.15 2.9 30.05 2.9 35.55 8.45 41.15 13.95 41.15 21.9" fill="url(#gradient2)" fill-rule="evenodd" stroke="none"/>
    </g>
    <linearGradient gradientTransform="matrix(0.0, -0.0546, -0.0546, 0.0, 22.05, 18.2)" gradientUnits="userSpaceOnUse" id="gradient0" spreadMethod="pad" x1="-819.2" x2="819.2">
      <stop offset="0.011764705882352941" stop-color="#bf809f"/>
      <stop offset="1.0" stop-color="#543c7c"/>
    </linearGradient>
    <linearGradient gradientTransform="matrix(0.0, -0.0167, -0.0167, 0.0, 22.8, 17.85)" gradientUnits="userSpaceOnUse" id="gradient1" spreadMethod="pad" x1="-819.2" x2="819.2">
      <stop offset="0.011764705882352941" stop-color="#bcb9ae"/>
      <stop offset="1.0" stop-color="#9b5b79"/>
    </linearGradient>
    <linearGradient gradientTransform="matrix(0.0, 0.0226, -0.0232, 0.0, 22.15, 22.1)" gradientUnits="userSpaceOnUse" id="gradient2" spreadMethod="pad" x1="-819.2" x2="819.2">
      <stop offset="0.0" stop-color="#3d2945"/>
      <stop offset="1.0" stop-color="#cabad6"/>
    </linearGradient>
    <g id="sprite0" transform="matrix(1.0, 0.0, 0.0, 1.0, 0.2, 0.0)">
      <use height="8.6" transform="matrix(1.0, 0.0, 0.0, 1.0, -0.2, 0.0)" width="35.05" xlink:href="#shape1"/>
    </g>
    <g id="shape1" transform="matrix(1.0, 0.0, 0.0, 1.0, 0.2, 0.0)">
      <path d="M34.85 8.6 Q34.8 6.95 34.4 5.7 33.0 1.3 27.2 1.3 L7.45 1.3 Q0.05 1.3 -0.2 8.5 L-0.2 7.65 Q-0.2 0.0 7.45 0.0 L27.2 0.0 Q33.0 0.0 34.4 4.4 34.85 5.8 34.85 7.65 L34.85 8.6" fill="#e7deda" fill-rule="evenodd" stroke="none"/>
    </g>
    <g id="sprite1" transform="matrix(1.0, 0.0, 0.0, 1.0, 0.0, 0.0)">
      <use height="20.15" transform="matrix(1.0, 0.0, 0.0, 1.0, 0.0, 0.0)" width="28.2" xlink:href="#shape2"/>
    </g>
    <g id="shape2" transform="matrix(1.0, 0.0, 0.0, 1.0, 0.0, 0.0)">
      <path d="M27.4 18.95 Q26.2 20.8 23.4 19.8 19.6 18.5 17.35 14.05 14.8 9.1 9.75 7.4 4.1 5.65 0.0 10.3 1.0 6.85 3.7 4.15 7.2 0.65 11.9 0.05 L14.8 0.05 18.4 0.65 Q21.55 1.65 24.05 4.15 28.2 8.3 28.2 14.25 28.2 16.45 27.65 18.45 L27.4 18.95" fill="#ffffff" fill-opacity="0.19607843" fill-rule="evenodd" stroke="none"/>
      <path d="M27.4 18.95 Q26.2 20.8 23.4 19.8 19.6 18.5 17.35 14.05 14.8 9.1 9.75 7.4 4.1 5.65 0.0 10.3 1.0 6.85 3.7 4.15 7.2 0.65 11.9 0.05 L14.8 0.05 18.4 0.65 Q21.55 1.65 24.05 4.15 28.2 8.3 28.2 14.25 28.2 16.45 27.65 18.45 L27.4 18.95" fill="#ffffff" fill-opacity="0.19607843" fill-rule="evenodd" stroke="none"/>
    </g>
  </defs>
</svg>
