<?xml version="1.0" encoding="UTF-8" standalone="no"?>
<svg xmlns:xlink="http://www.w3.org/1999/xlink" height="65.85px" width="66.0px" xmlns="http://www.w3.org/2000/svg">
  <g transform="matrix(1.5, 0.0, 0.0, 1.5, 0.0, -0.075)">
    <use height="43.9" transform="matrix(1.0, 0.0, 0.0, 1.0, 0.0, 0.05)" width="44.0" xlink:href="#shape0"/>
    <use height="20.15" transform="matrix(1.1548, 0.0, 0.0, 1.1548, 5.3, 5.6)" width="28.2" xlink:href="#sprite0"/>
    <use height="39.75" transform="matrix(1.0, 0.0, 0.0, 1.0, 1.75, 4.15)" width="40.55" xlink:href="#shape2"/>
    <use height="0.0" transform="matrix(1.2077, 0.0, 0.0, 1.2065, 1.05, 0.55)" width="0.0" xlink:href="#sprite1"/>
    <use height="10.35" transform="matrix(1.0, 0.0, 0.0, 1.0, 0.95, 0.5)" width="42.0" xlink:href="#sprite2"/>
  </g>
  <defs>
    <g id="shape0" transform="matrix(1.0, 0.0, 0.0, 1.0, 0.0, -0.05)">
      <path d="M40.15 21.05 Q40.15 28.8 34.75 34.25 29.3 39.65 21.6 39.65 13.85 39.65 8.4 34.25 2.95 28.8 2.95 21.05 2.95 13.35 8.4 7.95 13.85 2.5 21.6 2.5 29.3 2.5 34.75 7.95 40.15 13.4 40.15 21.05" fill="url(#gradient0)" fill-rule="evenodd" stroke="none"/>
      <path d="M23.95 22.45 Q22.95 23.4 22.95 24.8 22.8 26.3 23.65 27.35 24.45 28.4 25.7 28.55 26.95 28.65 27.95 27.65 28.8 26.8 28.95 25.35 28.95 23.95 28.2 22.8 27.4 21.75 26.1 21.7 24.85 21.55 23.95 22.45 M31.35 20.1 Q31.7 21.25 31.7 22.55 L31.65 23.6 Q32.3 23.25 33.05 23.25 34.1 23.25 34.95 23.95 35.65 24.7 35.65 25.85 35.65 26.95 34.95 27.75 34.1 28.5 33.05 28.5 32.1 28.5 31.35 27.95 L31.15 27.75 30.65 27.05 Q29.95 28.35 28.85 29.45 L28.75 29.55 27.45 30.65 Q25.25 33.25 21.95 34.45 18.7 33.25 16.5 30.65 L15.2 29.55 15.05 29.45 Q13.95 28.35 13.3 27.05 L12.75 27.75 Q12.0 28.5 10.9 28.5 9.8 28.5 9.0 27.75 8.25 26.95 8.25 25.85 8.25 24.7 9.0 23.95 9.8 23.25 10.9 23.25 L12.25 23.6 12.2 22.55 Q12.2 20.0 13.4 17.95 L14.35 16.2 Q15.15 14.75 17.35 11.95 L17.35 14.45 Q18.85 11.3 21.95 9.3 25.05 11.3 26.55 14.45 L26.55 11.95 Q28.8 14.75 29.55 16.2 L30.55 17.95 31.35 20.1 M20.0 22.45 Q19.1 21.55 17.85 21.7 16.6 21.75 15.75 22.8 15.0 23.95 15.05 25.35 15.1 26.8 16.1 27.65 17.0 28.65 18.25 28.55 19.55 28.4 20.3 27.35 21.1 26.3 21.05 24.8 21.0 23.4 20.0 22.45 M19.85 24.7 L20.3 24.85 20.5 25.35 20.4 25.8 19.95 26.1 19.5 25.95 19.25 25.4 19.45 24.95 19.85 24.7 M24.0 24.75 L24.4 25.0 24.55 25.45 24.4 25.95 23.95 26.15 23.5 25.9 Q23.3 25.7 23.4 25.4 23.4 25.1 23.55 24.95 L24.0 24.75" fill="#664411" fill-rule="evenodd" stroke="none"/>
      <path d="M34.2 9.8 Q29.15 4.75 22.0 4.75 14.8 4.75 9.75 9.8 4.65 14.85 4.65 22.05 4.65 29.2 9.75 34.25 14.8 39.35 22.0 39.35 29.2 39.35 34.2 34.25 39.25 29.2 39.25 22.05 39.25 14.85 34.2 9.8 M2.15 2.3 Q4.45 0.05 7.55 0.05 L36.35 0.05 Q39.55 0.05 41.75 2.3 44.0 4.55 44.0 7.7 L44.0 36.4 Q44.0 39.5 41.75 41.75 39.55 43.95 36.35 43.95 L7.55 43.95 Q4.45 43.95 2.15 41.75 0.0 39.5 0.0 36.4 L0.0 7.7 Q0.0 4.55 2.15 2.3" fill="url(#gradient1)" fill-rule="evenodd" stroke="none"/>
      <path d="M21.95 5.6 Q15.0 5.65 10.2 10.5 5.3 15.35 5.3 22.2 5.3 29.15 10.2 34.05 15.0 38.85 21.95 38.85 28.75 38.85 33.65 34.05 38.55 29.15 38.55 22.2 38.55 15.35 33.65 10.5 28.8 5.65 21.95 5.6 M35.3 8.85 Q40.9 14.35 40.9 22.2 40.9 30.1 35.3 35.65 29.8 41.2 21.95 41.2 14.0 41.2 8.4 35.65 2.85 30.1 2.85 22.2 2.85 14.35 8.4 8.85 14.0 3.25 21.95 3.25 29.8 3.25 35.3 8.85" fill="url(#gradient2)" fill-rule="evenodd" stroke="none"/>
    </g>
    <linearGradient gradientTransform="matrix(0.0, -0.0173, -0.0173, 0.0, 21.6, 17.55)" gradientUnits="userSpaceOnUse" id="gradient0" spreadMethod="pad" x1="-819.2" x2="819.2">
      <stop offset="0.011764705882352941" stop-color="#d3d4b5"/>
      <stop offset="1.0" stop-color="#71a26f"/>
    </linearGradient>
    <linearGradient gradientTransform="matrix(0.0, -0.0275, -0.044, 0.0, 20.85, 22.2)" gradientUnits="userSpaceOnUse" id="gradient1" spreadMethod="pad" x1="-819.2" x2="819.2">
      <stop offset="0.0196078431372549" stop-color="#905a3d"/>
      <stop offset="0.9764705882352941" stop-color="#6a412d"/>
    </linearGradient>
    <linearGradient gradientTransform="matrix(0.0, -0.0168, -0.0168, 0.0, 21.95, 26.85)" gradientUnits="userSpaceOnUse" id="gradient2" spreadMethod="pad" x1="-819.2" x2="819.2">
      <stop offset="0.0196078431372549" stop-color="#a3704d"/>
      <stop offset="0.9803921568627451" stop-color="#492d20"/>
    </linearGradient>
    <g id="sprite0" transform="matrix(1.0, 0.0, 0.0, 1.0, 0.0, 0.0)">
      <use height="20.15" transform="matrix(1.0, 0.0, 0.0, 1.0, 0.0, 0.0)" width="28.2" xlink:href="#shape1"/>
    </g>
    <g id="shape1" transform="matrix(1.0, 0.0, 0.0, 1.0, 0.0, 0.0)">
      <path d="M27.4 18.95 Q26.2 20.8 23.4 19.8 19.6 18.5 17.35 14.05 14.8 9.1 9.75 7.4 4.1 5.65 0.0 10.3 1.0 6.85 3.7 4.15 7.2 0.65 11.9 0.05 L14.8 0.05 18.4 0.65 Q21.55 1.65 24.05 4.15 28.2 8.3 28.2 14.25 28.2 16.45 27.65 18.45 L27.4 18.95" fill="#ffffff" fill-opacity="0.19607843" fill-rule="evenodd" stroke="none"/>
    </g>
    <g id="shape2" transform="matrix(1.0, 0.0, 0.0, 1.0, -1.75, -4.1)">
      <path d="M16.25 40.4 Q12.8 39.4 9.55 37.75 10.85 34.5 13.2 34.0 13.95 37.65 16.25 40.4 M30.25 34.0 Q32.6 34.5 33.85 37.8 30.7 39.55 27.35 40.4 28.95 38.4 29.75 35.8 L30.25 34.0" fill="url(#gradient3)" fill-rule="evenodd" stroke="none"/>
      <path d="M13.2 34.0 Q14.7 37.0 17.9 38.45 L16.25 40.4 Q13.95 37.65 13.2 34.0 M27.35 40.4 L25.55 38.45 Q28.75 37.0 30.25 34.0 L29.75 35.8 Q28.95 38.4 27.35 40.4" fill="#6d4a34" fill-rule="evenodd" stroke="none"/>
      <path d="M32.2 14.15 Q31.7 9.75 29.1 7.05 L30.8 5.25 31.05 5.85 31.5 7.45 Q32.25 10.9 32.2 14.15 M11.75 14.15 Q11.6 9.9 13.15 5.25 L14.9 7.05 Q12.3 9.75 11.75 14.15" fill="#492d20" fill-rule="evenodd" stroke="none"/>
      <path d="M31.05 5.85 L30.45 4.1 Q33.85 5.85 36.75 8.8 L36.8 8.9 Q36.0 12.95 32.2 14.15 32.25 10.9 31.5 7.45 L31.05 5.85 M13.15 5.25 Q11.6 9.9 11.75 14.15 7.95 12.95 7.15 8.95 L7.35 8.8 Q10.15 5.9 13.45 4.3 L13.15 5.25" fill="url(#gradient4)" fill-rule="evenodd" stroke="none"/>
      <path d="M42.2 33.4 L42.2 36.15 Q42.2 37.1 41.6 37.75 41.1 38.4 40.25 38.4 39.4 38.4 38.8 37.75 38.2 37.1 38.2 36.15 L38.2 34.85 M1.85 33.4 L1.85 36.15 Q1.85 37.1 2.4 37.75 2.9 38.4 3.8 38.4 4.6 38.4 5.25 37.75 5.8 37.1 5.8 36.15 L5.8 34.85" fill="none" stroke="#6a402d" stroke-linecap="round" stroke-linejoin="round" stroke-width="0.25"/>
      <path d="M39.4 5.45 Q39.6 5.3 39.75 5.3 40.3 5.3 40.65 6.2 L40.9 8.25 40.65 10.35 Q40.3 11.2 39.75 11.2 L39.4 11.1 39.95 10.35 40.25 8.25 39.95 6.2 39.4 5.45 M4.55 11.1 L4.2 11.2 Q3.7 11.2 3.35 10.35 3.05 9.5 3.05 8.25 3.05 7.05 3.35 6.2 3.7 5.3 4.2 5.3 L4.55 5.45 4.0 6.2 Q3.75 7.05 3.75 8.25 3.75 9.5 4.0 10.35 L4.55 11.1" fill="#1a0d09" fill-rule="evenodd" stroke="none"/>
      <path d="M39.4 11.1 L38.95 10.35 Q38.6 9.5 38.6 8.25 38.6 7.05 38.95 6.2 L39.4 5.45 39.95 6.2 40.25 8.25 39.95 10.35 39.4 11.1 M4.55 11.1 L4.0 10.35 Q3.75 9.5 3.75 8.25 3.75 7.05 4.0 6.2 L4.55 5.45 5.0 6.2 Q5.35 7.05 5.35 8.25 5.35 9.5 5.0 10.35 L4.55 11.1" fill="#331d16" fill-rule="evenodd" stroke="none"/>
      <path d="M39.4 5.45 Q39.6 5.3 39.75 5.3 40.3 5.3 40.65 6.2 L40.9 8.25 40.65 10.35 Q40.3 11.2 39.75 11.2 L39.4 11.1 38.95 10.35 Q38.6 9.5 38.6 8.25 38.6 7.05 38.95 6.2 L39.4 5.45 M4.55 5.45 L4.2 5.3 Q3.7 5.3 3.35 6.2 3.05 7.05 3.05 8.25 3.05 9.5 3.35 10.35 3.7 11.2 4.2 11.2 L4.55 11.1 5.0 10.35 Q5.35 9.5 5.35 8.25 5.35 7.05 5.0 6.2 L4.55 5.45" fill="none" stroke="#6a402d" stroke-linecap="round" stroke-linejoin="round" stroke-width="0.05"/>
      <path d="M31.9 43.85 L12.1 43.85 Q12.85 43.5 14.45 43.1 L22.0 42.55 29.5 43.1 31.9 43.85" fill="#6c432e" fill-rule="evenodd" stroke="none"/>
    </g>
    <linearGradient gradientTransform="matrix(0.0, -0.0275, -0.044, 0.0, 20.85, 22.15)" gradientUnits="userSpaceOnUse" id="gradient3" spreadMethod="pad" x1="-819.2" x2="819.2">
      <stop offset="0.0196078431372549" stop-color="#905a3d"/>
      <stop offset="0.9764705882352941" stop-color="#6a412d"/>
    </linearGradient>
    <linearGradient gradientTransform="matrix(0.0, -0.0275, -0.044, 0.0, 20.85, 22.15)" gradientUnits="userSpaceOnUse" id="gradient4" spreadMethod="pad" x1="-819.2" x2="819.2">
      <stop offset="0.0196078431372549" stop-color="#905a3d"/>
      <stop offset="0.9764705882352941" stop-color="#6a412d"/>
    </linearGradient>
    <g id="sprite2" transform="matrix(1.0, 0.0, 0.0, 1.0, 0.2, 0.0)">
      <use height="10.35" transform="matrix(1.0, 0.0, 0.0, 1.0, -0.2, 0.0)" width="42.0" xlink:href="#shape3"/>
    </g>
    <g id="shape3" transform="matrix(1.0, 0.0, 0.0, 1.0, 0.2, 0.0)">
      <path d="M32.6 0.0 Q39.55 0.0 41.25 5.25 41.8 6.95 41.8 9.2 L41.8 10.35 Q41.75 8.35 41.25 6.85 39.55 1.55 32.6 1.55 L8.95 1.55 Q0.05 1.55 -0.2 10.2 L-0.2 9.2 Q-0.2 0.0 8.95 0.0 L32.6 0.0" fill="#e7deda" fill-opacity="0.5882353" fill-rule="evenodd" stroke="none"/>
    </g>
  </defs>
</svg>
