<?xml version="1.0" encoding="UTF-8" standalone="no"?>
<svg xmlns:xlink="http://www.w3.org/1999/xlink" height="66.15px" width="66.0px" xmlns="http://www.w3.org/2000/svg">
  <g transform="matrix(1.5, 0.0, 0.0, 1.5, 0.0, 0.0)">
    <use height="44.05" transform="matrix(1.0, 0.0, 0.0, 1.0, 0.0, 0.0)" width="44.0" xlink:href="#shape0"/>
    <use height="0.0" transform="matrix(1.2088, 0.0, 0.0, 1.2099, 0.95, 0.75)" width="0.0" xlink:href="#sprite0"/>
    <use height="35.7" transform="matrix(1.0, 0.0, 0.0, 1.0, 0.2, 8.4)" width="43.45" xlink:href="#shape1"/>
    <use height="20.15" transform="matrix(1.1594, 0.0, 0.0, 1.1605, 6.0, 5.45)" width="28.2" xlink:href="#sprite1"/>
    <use height="8.6" transform="matrix(1.2077, 0.0, 0.0, 1.2065, 0.7585, 0.5)" width="35.05" xlink:href="#sprite2"/>
  </g>
  <defs>
    <g id="shape0" transform="matrix(1.0, 0.0, 0.0, 1.0, 0.0, 0.0)">
      <path d="M7.55 8.2 Q13.4 2.25 21.8 2.25 30.15 2.25 36.05 8.2 41.9 14.1 41.9 22.45 41.9 30.8 36.05 36.75 30.15 42.65 21.8 42.65 13.4 42.65 7.55 36.75 1.6 30.8 1.6 22.45 1.6 14.1 7.55 8.2" fill="url(#gradient0)" fill-rule="evenodd" stroke="none"/>
      <path d="M22.0 4.7 Q14.8 4.7 9.7 9.8 4.65 14.95 4.65 22.05 4.65 29.25 9.7 34.35 14.75 39.45 22.0 39.45 29.15 39.45 34.2 34.35 39.3 29.25 39.3 22.05 39.3 14.85 34.2 9.8 29.15 4.7 22.0 4.7 M36.4 0.0 Q39.6 0.0 41.75 2.25 44.0 4.55 44.0 7.65 L44.0 36.45 Q44.0 39.6 41.75 41.85 39.6 44.05 36.4 44.05 L7.6 44.05 Q4.45 44.05 2.25 41.85 0.0 39.65 0.0 36.45 L0.0 7.65 Q0.0 4.55 2.25 2.25 4.45 0.0 7.6 0.0 L36.4 0.0" fill="url(#gradient1)" fill-rule="evenodd" stroke="none"/>
      <path d="M35.45 8.6 Q41.05 14.15 41.05 22.0 41.05 29.85 35.45 35.4 29.95 41.0 22.1 41.0 14.2 41.0 8.7 35.4 3.15 29.85 3.15 22.0 3.15 14.15 8.7 8.6 14.2 3.05 22.1 3.05 29.95 3.05 35.45 8.6 M22.1 5.4 Q15.25 5.5 10.4 10.35 5.55 15.15 5.45 22.0 5.55 28.95 10.4 33.8 15.25 38.65 22.1 38.65 28.9 38.65 33.9 33.8 38.65 28.95 38.65 22.0 38.65 15.15 33.9 10.35 28.9 5.5 22.1 5.4" fill="url(#gradient2)" fill-rule="evenodd" stroke="none"/>
    </g>
    <linearGradient gradientTransform="matrix(0.0, -0.0155, -0.0189, 0.0, 21.85, 25.45)" gradientUnits="userSpaceOnUse" id="gradient0" spreadMethod="pad" x1="-819.2" x2="819.2">
      <stop offset="0.011764705882352941" stop-color="#bb9a76"/>
      <stop offset="1.0" stop-color="#a87f53"/>
    </linearGradient>
    <linearGradient gradientTransform="matrix(0.0, -0.0344, -0.0552, 0.0, 22.4, 16.35)" gradientUnits="userSpaceOnUse" id="gradient1" spreadMethod="pad" x1="-819.2" x2="819.2">
      <stop offset="0.0196078431372549" stop-color="#9c6732"/>
      <stop offset="1.0" stop-color="#7d4e2b"/>
    </linearGradient>
    <linearGradient gradientTransform="matrix(1.0E-4, 0.0223, -0.0231, 1.0E-4, 22.15, 22.3)" gradientUnits="userSpaceOnUse" id="gradient2" spreadMethod="pad" x1="-819.2" x2="819.2">
      <stop offset="0.011764705882352941" stop-color="#59351e"/>
      <stop offset="1.0" stop-color="#cc955e"/>
    </linearGradient>
    <g id="shape1" transform="matrix(1.0, 0.0, 0.0, 1.0, -0.2, -8.4)">
      <path d="M0.2 25.1 Q0.35 22.65 0.8 20.65 0.55 24.85 0.8 26.5 1.15 29.5 3.1 30.95 L8.1 35.1 Q10.6 37.45 11.0 40.2 L14.55 42.5 10.7 42.9 Q9.95 44.4 7.2 44.05 3.2 43.5 2.4 40.25 1.7 37.65 3.6 36.65 L3.8 34.45 4.5 36.3 Q6.5 35.9 6.95 37.0 7.45 38.05 6.85 39.1 6.25 40.05 5.7 39.25 6.4 39.2 6.5 38.8 6.55 38.4 5.85 37.75 5.25 37.1 4.65 37.4 4.1 37.7 3.8 38.85 3.2 41.3 6.05 42.4 9.0 43.5 9.45 40.8 9.95 38.55 7.15 36.2 L3.4 33.3 0.9 32.8 1.9 31.85 Q0.1 29.85 0.2 25.1" fill="#7a5130" fill-rule="evenodd" stroke="none"/>
      <path d="M0.25 24.2 Q0.4 21.8 0.85 19.8 0.6 23.95 0.85 25.55 1.2 28.55 3.15 30.05 L8.2 34.2 Q10.65 36.55 11.05 39.25 L14.7 42.55 10.8 42.05 Q10.05 43.5 7.25 43.15 3.25 42.55 2.45 39.4 1.75 36.8 3.7 35.8 L3.8 34.35 4.55 35.45 Q6.55 35.05 7.0 36.85 7.25 38.35 6.7 39.05 L5.85 39.4 Q7.15 38.2 5.75 36.9 4.45 35.55 3.85 37.95 3.25 40.4 6.1 41.45 9.05 42.55 9.5 39.9 10.05 37.7 7.2 35.25 L3.4 32.4 3.45 32.45 0.85 32.85 1.95 30.95 Q0.15 28.9 0.25 24.2" fill="#ca935c" fill-rule="evenodd" stroke="none"/>
      <path d="M0.85 21.45 Q0.8 24.4 0.9 25.6 1.4 28.65 3.25 30.15 L8.25 34.25 Q10.7 36.6 11.2 39.25 L14.3 42.15 14.05 42.05 13.9 41.9 12.2 40.7 Q10.35 39.1 10.3 38.0 10.15 36.65 8.45 35.15 L5.2 32.65 Q2.0 30.2 1.15 27.45 0.55 25.85 0.55 22.05 L0.85 21.45 M6.5 36.6 Q5.85 35.6 4.65 35.6 L4.45 35.7 4.35 35.6 4.2 35.6 4.2 34.75 4.7 35.5 Q6.6 35.1 7.1 36.9 7.3 37.95 7.1 38.65 L7.0 38.7 7.0 38.65 6.9 38.1 6.9 38.0 Q6.9 37.25 6.5 36.6 M4.25 40.3 L4.1 39.7 Q4.55 40.9 6.2 41.5 L8.45 41.7 8.55 41.75 7.0 42.05 Q6.2 42.05 5.35 41.35 L4.25 40.3" fill="#d7ad86" fill-rule="evenodd" stroke="none"/>
      <path d="M43.65 25.1 Q43.75 29.85 41.95 31.85 L42.95 32.8 40.45 33.3 36.7 36.2 Q33.9 38.55 34.4 40.8 34.85 43.5 37.8 42.4 40.65 41.3 40.05 38.85 39.75 37.7 39.2 37.4 38.6 37.1 38.0 37.75 37.3 38.4 37.35 38.8 37.45 39.2 38.15 39.25 37.6 40.05 37.0 39.1 36.4 38.05 36.9 37.0 37.35 35.9 39.35 36.3 L40.05 34.45 40.25 36.65 Q42.15 37.65 41.45 40.25 40.65 43.5 36.65 44.05 33.9 44.4 33.15 42.9 L29.3 42.5 32.85 40.2 Q33.25 37.45 35.75 35.1 L40.75 30.95 Q42.7 29.5 43.05 26.5 43.3 24.85 43.05 20.65 L43.65 25.1" fill="#7a5130" fill-rule="evenodd" stroke="none"/>
      <path d="M43.6 24.2 Q43.7 28.9 41.9 30.95 L43.0 32.85 40.4 32.45 40.45 32.4 36.65 35.25 Q33.8 37.7 34.35 39.9 34.8 42.55 37.75 41.45 40.6 40.4 40.0 37.95 39.4 35.55 38.1 36.9 36.7 38.2 38.0 39.4 L37.15 39.05 Q36.6 38.35 36.85 36.85 37.3 35.05 39.3 35.45 L40.05 34.35 40.15 35.8 Q42.1 36.8 41.4 39.4 40.6 42.55 36.6 43.15 33.8 43.5 33.05 42.05 L29.15 42.55 32.8 39.25 Q33.2 36.55 35.65 34.2 L40.7 30.05 Q42.65 28.55 43.0 25.55 43.25 23.95 43.0 19.8 L43.6 24.2" fill="#ca935c" fill-rule="evenodd" stroke="none"/>
      <path d="M37.35 36.6 Q36.95 37.25 36.95 38.0 L36.95 38.1 36.85 38.65 36.85 38.7 36.75 38.65 Q36.55 37.95 36.75 36.9 37.25 35.1 39.15 35.5 L39.65 34.75 39.65 35.6 39.5 35.6 39.4 35.7 39.2 35.6 Q38.0 35.6 37.35 36.6 M43.0 21.45 L43.3 22.05 Q43.3 25.85 42.7 27.45 41.85 30.2 38.65 32.65 L35.4 35.15 Q33.7 36.65 33.55 38.0 33.5 39.1 31.65 40.7 L29.95 41.9 29.8 42.05 29.55 42.15 32.65 39.25 Q33.15 36.6 35.6 34.25 L40.6 30.15 Q42.45 28.65 42.95 25.6 L43.0 21.45 M39.6 40.3 L38.5 41.35 Q37.65 42.05 36.85 42.05 L35.3 41.75 35.4 41.7 37.65 41.5 Q39.3 40.9 39.75 39.7 L39.6 40.3" fill="#d7ad86" fill-rule="evenodd" stroke="none"/>
      <path d="M28.85 15.6 L26.55 14.05 32.0 9.45 Q33.05 11.65 32.0 14.7 L30.7 17.45 28.85 15.6 M21.9 8.45 L22.0 8.4 22.1 8.4 22.2 8.4 22.25 8.45 22.35 8.5 22.35 8.45 22.85 8.8 Q24.85 9.85 25.6 11.65 L28.15 11.75 25.7 13.85 25.55 14.05 25.6 14.3 25.75 14.45 28.85 16.5 Q29.85 17.35 30.45 18.3 L30.65 18.45 30.9 18.45 31.05 18.3 32.6 15.1 32.65 14.95 32.7 14.75 32.8 14.8 34.5 15.6 35.1 15.9 35.15 15.95 35.2 16.05 35.2 16.1 35.15 16.2 35.15 16.25 34.5 16.85 33.1 18.7 34.5 20.3 35.35 21.9 35.85 24.15 35.8 24.25 35.7 24.3 34.5 24.7 34.1 24.8 34.1 26.75 34.05 26.9 33.95 26.95 31.65 27.45 32.35 29.1 32.7 30.3 32.85 31.75 Q32.9 33.1 31.9 34.1 30.95 35.1 29.6 35.45 28.25 35.75 27.8 34.45 27.65 35.95 26.7 37.2 25.2 36.2 24.55 34.35 L23.35 35.0 23.3 35.05 23.2 35.05 22.6 35.2 22.45 35.2 22.35 35.2 22.2 35.2 22.15 35.2 21.05 35.05 20.95 35.05 20.9 35.0 19.65 34.35 Q19.0 36.2 17.55 37.2 16.6 35.95 16.45 34.45 15.95 35.75 14.65 35.45 13.3 35.1 12.35 34.1 11.35 33.1 11.35 31.75 11.35 30.35 11.9 29.1 L12.55 27.45 10.25 26.95 10.15 26.9 10.1 26.75 10.1 24.8 8.5 24.3 8.45 24.25 8.4 24.15 Q8.45 22.9 8.9 21.9 9.6 20.05 11.15 18.7 L9.1 16.25 9.05 16.2 9.05 16.1 9.05 16.05 9.1 15.95 9.15 15.9 Q10.25 15.25 11.45 14.8 L11.5 14.75 11.55 14.95 11.6 15.1 Q12.15 16.6 13.15 18.3 L13.35 18.45 13.6 18.45 13.75 18.3 Q15.2 16.1 18.45 14.45 L18.6 14.3 18.65 14.05 18.55 13.85 16.1 11.75 18.65 11.65 Q19.4 9.85 21.35 8.8 L21.9 8.45 M29.7 21.6 L26.8 23.2 26.9 24.05 26.7 25.2 26.2 25.65 Q25.9 25.65 25.7 25.2 L25.5 24.05 25.5 23.85 24.1 24.65 Q26.1 26.9 28.8 26.35 L28.85 26.35 Q30.0 25.95 30.5 25.05 L30.55 25.05 30.55 25.0 Q31.35 23.6 30.85 20.95 L29.7 21.55 29.7 21.6 M12.25 14.7 Q11.2 11.65 12.2 9.45 L17.7 14.05 Q14.95 15.55 13.5 17.45 12.7 16.0 12.25 14.7 M14.5 21.55 L13.4 20.95 Q12.9 23.6 13.7 25.0 L13.7 25.05 Q14.25 26.0 15.45 26.35 L15.4 26.35 Q18.15 26.9 20.1 24.65 L18.7 23.85 18.7 24.05 18.5 25.2 Q18.3 25.65 18.0 25.65 L17.55 25.2 17.35 24.05 17.45 23.2 14.55 21.6 14.5 21.55 M18.8 28.5 Q18.2 28.3 17.75 29.5 L17.0 32.0 Q16.75 33.25 17.2 33.85 17.6 34.45 18.7 34.45 L19.75 34.15 20.1 33.85 Q20.45 33.3 20.25 32.25 L19.75 29.95 Q19.45 28.8 18.8 28.5 M15.95 30.8 L15.8 30.05 15.35 28.1 Q14.95 26.7 14.25 26.4 13.6 26.15 13.0 27.55 L13.0 27.6 12.95 27.6 12.1 30.5 Q11.8 31.95 12.3 32.65 12.8 33.4 14.1 33.35 15.3 33.25 15.7 32.75 L15.75 32.65 Q16.15 32.05 15.95 30.8 M31.25 27.55 Q30.65 26.15 30.0 26.4 29.25 26.7 28.9 28.1 L28.85 28.2 28.4 30.05 28.3 30.8 Q28.1 32.05 28.5 32.65 L28.5 32.75 Q28.9 33.25 30.15 33.35 31.4 33.4 31.9 32.65 32.45 31.95 32.1 30.5 L32.1 30.3 31.25 27.6 31.25 27.55 M24.2 26.8 L23.1 25.7 22.35 25.45 22.2 25.45 Q21.7 25.4 21.15 25.7 20.5 26.0 20.05 26.8 20.75 26.85 21.15 27.6 L21.25 28.0 21.3 28.0 21.3 28.05 22.35 28.3 22.95 28.05 22.95 28.0 23.0 28.0 23.1 27.6 Q23.45 26.85 24.2 26.8 M26.5 29.5 Q26.05 28.3 25.4 28.5 24.8 28.8 24.5 29.95 24.1 31.15 23.95 32.25 23.8 33.3 24.15 33.85 L24.45 34.15 25.55 34.45 Q26.6 34.45 27.05 33.85 27.5 33.25 27.25 32.0 L26.5 29.5" fill="#5f3921" fill-rule="evenodd" stroke="none"/>
    </g>
    <g id="sprite1" transform="matrix(1.0, 0.0, 0.0, 1.0, 0.0, 0.0)">
      <use height="20.15" transform="matrix(1.0, 0.0, 0.0, 1.0, 0.0, 0.0)" width="28.2" xlink:href="#shape2"/>
    </g>
    <g id="shape2" transform="matrix(1.0, 0.0, 0.0, 1.0, 0.0, 0.0)">
      <path d="M27.4 18.95 Q26.2 20.8 23.4 19.8 19.6 18.5 17.35 14.05 14.8 9.1 9.75 7.4 4.1 5.65 0.0 10.3 1.0 6.85 3.7 4.15 7.2 0.65 11.9 0.05 L14.8 0.05 18.4 0.65 Q21.55 1.65 24.05 4.15 28.2 8.3 28.2 14.25 28.2 16.45 27.65 18.45 L27.4 18.95" fill="#ffffff" fill-opacity="0.19607843" fill-rule="evenodd" stroke="none"/>
    </g>
    <g id="sprite2" transform="matrix(1.0, 0.0, 0.0, 1.0, 0.2, 0.0)">
      <use height="8.6" transform="matrix(1.0, 0.0, 0.0, 1.0, -0.2, 0.0)" width="35.05" xlink:href="#shape3"/>
    </g>
    <g id="shape3" transform="matrix(1.0, 0.0, 0.0, 1.0, 0.2, 0.0)">
      <path d="M34.4 4.4 Q34.85 5.8 34.85 7.65 L34.85 8.6 Q34.8 6.95 34.4 5.7 33.0 1.3 27.2 1.3 L7.45 1.3 Q0.05 1.3 -0.2 8.5 L-0.2 7.65 Q-0.2 0.0 7.45 0.0 L27.2 0.0 Q33.0 0.0 34.4 4.4" fill="#e7deda" fill-rule="evenodd" stroke="none"/>
    </g>
  </defs>
</svg>
