<?xml version="1.0" encoding="UTF-8" standalone="no"?>
<svg xmlns:xlink="http://www.w3.org/1999/xlink" height="66.0px" width="66.0px" xmlns="http://www.w3.org/2000/svg">
  <g transform="matrix(1.5, 0.0, 0.0, 1.5, 0.075, -0.075)">
    <use height="37.1" transform="matrix(1.0, 0.0, 0.0, 1.0, 3.35, 3.55)" width="37.2" xlink:href="#shape0"/>
    <use height="20.15" transform="matrix(1.1594, 0.0, 0.0, 1.1594, 5.75, 5.3)" width="28.2" xlink:href="#sprite0"/>
    <use height="44.0" transform="matrix(1.0, 0.0, 0.0, 1.0, -0.05, 0.05)" width="44.0" xlink:href="#shape2"/>
    <use height="8.6" transform="matrix(1.2125, 0.0, 0.0, 1.2125, 0.8075, 1.0)" width="35.05" xlink:href="#sprite1"/>
    <use height="40.5" transform="matrix(1.0, 0.0, 0.0, 1.0, -0.05, 3.55)" width="43.95" xlink:href="#shape4"/>
    <use height="20.15" transform="matrix(1.1594, 0.0, 0.0, 1.1594, 5.75, 5.3)" width="28.2" xlink:href="#sprite0"/>
    <use height="44.0" transform="matrix(1.0, 0.0, 0.0, 1.0, -0.05, 0.05)" width="44.0" xlink:href="#shape5"/>
    <use height="8.6" transform="matrix(1.2125, 0.0, 0.0, 1.2125, 0.8075, 1.0)" width="35.05" xlink:href="#sprite1"/>
    <use height="17.95" transform="matrix(1.0, 0.0, 0.0, 1.0, -0.05, 26.1)" width="43.95" xlink:href="#shape6"/>
    <use height="0.0" transform="matrix(1.2125, 0.0, 0.0, 1.2125, 1.15, 0.9)" width="0.0" xlink:href="#sprite2"/>
  </g>
  <defs>
    <g id="shape0" transform="matrix(1.0, 0.0, 0.0, 1.0, -3.35, -3.55)">
      <path d="M3.35 22.1 Q3.35 14.4 8.8 9.0 14.25 3.55 22.0 3.55 29.7 3.55 35.15 9.0 40.55 14.45 40.55 22.1 40.55 29.8 35.15 35.25 29.7 40.65 22.0 40.65 14.25 40.65 8.8 35.25 3.35 29.8 3.35 22.1" fill="url(#gradient0)" fill-rule="evenodd" stroke="none"/>
      <path d="M21.85 11.5 L21.85 11.75 Q28.75 11.75 35.75 17.85 26.6 20.0 25.85 22.15 L31.8 22.15 Q27.0 24.95 25.9 27.45 L29.65 27.45 Q25.65 28.8 24.2 32.0 L26.7 32.0 Q23.2 33.2 21.85 35.85 L21.65 36.05 21.65 35.6 Q20.3 33.0 16.8 31.8 L19.3 31.8 Q17.85 28.65 13.85 27.3 L17.6 27.3 Q16.5 24.75 11.65 22.0 L17.65 22.0 Q16.9 19.8 7.75 17.65 14.8 11.45 21.85 11.5" fill="#664411" fill-rule="evenodd" stroke="none"/>
    </g>
    <linearGradient gradientTransform="matrix(0.0, -0.017, -0.0173, 0.0, 20.95, 27.0)" gradientUnits="userSpaceOnUse" id="gradient0" spreadMethod="pad" x1="-819.2" x2="819.2">
      <stop offset="0.011764705882352941" stop-color="#dad67d"/>
      <stop offset="1.0" stop-color="#cfa451"/>
    </linearGradient>
    <g id="sprite0" transform="matrix(1.0, 0.0, 0.0, 1.0, 0.0, 0.0)">
      <use height="20.15" transform="matrix(1.0, 0.0, 0.0, 1.0, 0.0, 0.0)" width="28.2" xlink:href="#shape1"/>
    </g>
    <g id="shape1" transform="matrix(1.0, 0.0, 0.0, 1.0, 0.0, 0.0)">
      <path d="M27.65 18.45 L27.4 18.95 Q26.2 20.8 23.4 19.8 19.6 18.5 17.35 14.05 14.8 9.1 9.75 7.4 4.1 5.65 0.0 10.3 1.0 6.85 3.7 4.15 7.2 0.65 11.9 0.05 L14.8 0.05 18.4 0.65 Q21.55 1.65 24.05 4.15 28.2 8.3 28.2 14.25 28.2 16.45 27.65 18.45" fill="#ffffff" fill-opacity="0.19607843" fill-rule="evenodd" stroke="none"/>
    </g>
    <g id="shape2" transform="matrix(1.0, 0.0, 0.0, 1.0, 0.05, -0.05)">
      <path d="M41.75 2.35 Q43.95 4.55 43.95 7.65 L43.95 36.45 Q43.95 39.65 41.75 41.85 39.55 44.05 36.35 44.05 L7.55 44.05 Q4.4 44.05 2.2 41.85 -0.05 39.65 -0.05 36.45 L-0.05 7.65 Q-0.05 4.55 2.2 2.35 4.4 0.05 7.55 0.05 L36.35 0.05 Q39.5 0.05 41.75 2.35 M40.8 22.1 Q40.8 14.15 35.2 8.65 29.7 3.1 21.8 3.1 13.85 3.1 8.35 8.65 2.8 14.15 2.8 22.1 2.8 30.0 8.35 35.5 13.85 41.15 21.8 41.15 29.7 41.15 35.2 35.5 40.8 30.0 40.8 22.1" fill="url(#gradient1)" fill-rule="evenodd" stroke="none"/>
      <path d="M40.8 22.1 Q40.8 30.0 35.2 35.5 29.7 41.15 21.8 41.15 13.85 41.15 8.35 35.5 2.8 30.0 2.8 22.1 2.8 14.15 8.35 8.65 13.85 3.1 21.8 3.1 29.7 3.1 35.2 8.65 40.8 14.15 40.8 22.1 M33.65 10.4 Q28.7 5.5 21.8 5.45 14.9 5.5 10.05 10.4 5.15 15.2 5.1 22.1 5.15 29.05 10.05 33.9 14.9 38.8 21.8 38.8 28.7 38.8 33.65 33.9 38.45 29.05 38.45 22.1 38.45 15.2 33.65 10.4" fill="url(#gradient2)" fill-rule="evenodd" stroke="none"/>
    </g>
    <linearGradient gradientTransform="matrix(0.0, -0.0258, -0.0551, 0.0, 21.8, 21.9)" gradientUnits="userSpaceOnUse" id="gradient1" spreadMethod="pad" x1="-819.2" x2="819.2">
      <stop offset="0.011764705882352941" stop-color="#c79829"/>
      <stop offset="1.0" stop-color="#be7d1e"/>
    </linearGradient>
    <linearGradient gradientTransform="matrix(1.0E-4, 0.0223, -0.0232, 1.0E-4, 21.85, 22.35)" gradientUnits="userSpaceOnUse" id="gradient2" spreadMethod="pad" x1="-819.2" x2="819.2">
      <stop offset="0.011764705882352941" stop-color="#8d5910"/>
      <stop offset="1.0" stop-color="#d9d597"/>
    </linearGradient>
    <g id="sprite1" transform="matrix(1.0, 0.0, 0.0, 1.0, 0.2, 0.0)">
      <use height="8.6" transform="matrix(1.0, 0.0, 0.0, 1.0, -0.2, 0.0)" width="35.05" xlink:href="#shape3"/>
    </g>
    <g id="shape3" transform="matrix(1.0, 0.0, 0.0, 1.0, 0.2, 0.0)">
      <path d="M34.4 4.4 Q34.85 5.8 34.85 7.65 L34.85 8.6 Q34.8 6.95 34.4 5.7 33.0 1.3 27.2 1.3 L7.45 1.3 Q0.05 1.3 -0.2 8.5 L-0.2 7.65 Q-0.2 0.0 7.45 0.0 L27.2 0.0 Q33.0 0.0 34.4 4.4" fill="#e7deda" fill-rule="evenodd" stroke="none"/>
    </g>
    <g id="shape4" transform="matrix(1.0, 0.0, 0.0, 1.0, 0.05, -3.55)">
      <path d="M38.8 28.0 L39.25 26.85 39.65 26.35 40.35 26.1 Q40.7 26.1 41.0 26.35 L41.45 26.9 41.85 28.0 43.0 28.0 Q43.45 28.0 43.7 28.25 L43.9 28.4 43.9 30.0 43.65 30.15 42.8 30.8 43.2 32.15 43.2 32.85 42.75 33.4 42.05 33.6 41.4 33.35 41.15 33.2 41.1 35.75 43.5 36.7 43.9 36.95 43.55 38.85 43.35 38.9 40.8 39.55 40.6 42.5 40.45 42.8 39.2 43.55 38.95 43.5 38.45 43.05 36.95 40.5 34.15 41.25 33.8 41.25 32.95 41.85 33.35 43.2 33.35 43.9 33.25 44.05 31.1 44.05 30.5 43.65 29.85 44.05 27.65 44.05 27.6 43.85 27.6 43.15 28.0 41.85 27.1 41.25 26.7 40.65 Q26.55 40.25 26.7 39.9 L27.1 39.3 27.8 39.1 28.95 39.1 29.4 37.95 29.8 37.4 30.5 37.2 31.15 37.4 31.6 38.0 32.0 39.1 33.15 39.1 34.8 37.1 33.5 34.9 Q33.35 34.55 33.35 34.2 L33.65 33.5 Q33.85 33.25 34.2 33.2 L34.9 33.25 37.3 34.2 38.0 33.45 37.85 33.35 37.45 32.75 37.45 32.05 37.85 30.8 36.95 30.15 36.55 29.6 Q36.4 29.2 36.55 28.85 L36.95 28.25 Q37.25 28.0 37.65 28.0 L38.8 28.0 M30.6 38.75 L30.35 38.75 29.75 40.25 28.15 40.25 28.05 40.5 29.4 41.4 28.8 43.15 29.0 43.25 30.5 42.2 31.9 43.25 32.15 43.15 31.6 41.4 32.75 40.55 32.7 40.25 31.2 40.25 30.6 38.75 M37.65 35.55 L34.5 34.3 36.25 37.25 33.85 40.05 37.5 39.15 39.45 42.4 39.7 38.65 43.1 37.75 39.95 36.5 40.0 33.05 37.65 35.55 M39.6 29.2 L38.0 29.2 37.9 29.4 39.25 30.35 38.7 32.05 38.85 32.2 40.35 31.15 41.75 32.2 42.0 32.05 41.45 30.35 42.75 29.4 42.6 29.2 41.05 29.2 40.45 27.65 40.2 27.65 39.6 29.2" fill="url(#gradient3)" fill-rule="evenodd" stroke="none"/>
      <path d="M42.15 29.8 L41.45 30.35 41.45 30.95 41.8 32.25 40.35 31.15 38.85 32.25 39.25 30.95 39.25 30.35 38.5 29.8 39.6 29.8 40.35 27.9 41.05 29.8 42.15 29.8 M39.95 36.5 L39.95 37.1 42.1 38.05 39.7 38.65 39.45 42.4 37.5 39.15 34.5 39.9 36.25 37.85 36.25 37.25 34.95 35.15 37.65 36.2 40.0 33.7 39.95 36.5 M32.3 40.9 L31.6 41.4 31.6 42.05 31.95 43.3 30.5 42.2 29.0 43.3 29.4 42.05 29.4 41.4 28.65 40.9 29.75 40.9 30.5 38.95 31.2 40.9 32.3 40.9" fill="#815815" fill-rule="evenodd" stroke="none"/>
      <path d="M38.5 29.8 L37.65 29.2 39.6 29.2 40.35 27.25 41.05 29.2 43.0 29.2 42.15 29.8 41.05 29.8 40.35 27.9 39.6 29.8 38.5 29.8 M41.45 30.35 L42.1 32.4 41.8 32.25 41.45 30.95 41.45 30.35 M38.85 32.25 L38.55 32.4 39.25 30.35 39.25 30.95 38.85 32.25 M39.95 36.5 L43.1 37.75 42.1 38.05 39.95 37.1 39.95 36.5 M34.5 39.9 L33.85 40.05 36.25 37.25 36.25 37.85 34.5 39.9 M34.95 35.15 L34.5 34.3 37.65 35.55 40.0 33.05 40.0 33.7 37.65 36.2 34.95 35.15 M28.65 40.9 L27.8 40.25 29.75 40.25 30.5 38.35 31.2 40.25 33.15 40.25 32.3 40.9 31.2 40.9 30.5 38.95 29.75 40.9 28.65 40.9 M31.6 41.4 L32.25 43.5 31.95 43.3 31.6 42.05 31.6 41.4 M29.0 43.3 L28.7 43.5 29.4 41.4 29.4 42.05 29.0 43.3" fill="#674512" fill-rule="evenodd" stroke="none"/>
      <path d="M5.05 28.0 L6.2 28.0 Q6.6 28.0 6.9 28.25 L7.3 28.85 7.3 29.6 6.9 30.15 6.0 30.8 6.4 32.05 6.4 32.75 6.0 33.35 5.85 33.45 6.55 34.2 8.95 33.25 9.65 33.2 Q10.0 33.25 10.2 33.5 L10.5 34.2 10.35 34.9 9.05 37.1 10.7 39.1 11.85 39.1 12.25 38.0 Q12.35 37.6 12.7 37.4 L13.35 37.2 14.05 37.4 14.45 37.95 14.9 39.1 16.05 39.1 16.75 39.3 17.15 39.9 17.15 40.65 16.75 41.25 15.85 41.85 16.25 43.15 16.25 43.85 16.2 44.05 14.0 44.05 13.35 43.65 12.75 44.05 10.6 44.05 10.5 43.9 10.5 43.2 10.9 41.85 10.05 41.25 9.7 41.25 6.9 40.5 5.4 43.05 4.9 43.5 4.65 43.55 3.4 42.8 3.25 42.5 3.05 39.55 0.5 38.9 0.3 38.85 -0.05 36.95 0.35 36.7 2.75 35.75 2.7 33.2 2.45 33.35 1.8 33.6 1.1 33.4 0.65 32.85 0.65 32.15 1.05 30.8 0.2 30.15 -0.05 30.0 -0.05 28.4 0.15 28.25 Q0.4 28.0 0.85 28.0 L2.0 28.0 2.4 26.9 Q2.5 26.5 2.85 26.35 3.15 26.1 3.5 26.1 L4.2 26.35 4.6 26.85 5.05 28.0 M4.25 29.2 L3.65 27.65 3.4 27.65 2.8 29.2 1.25 29.2 1.1 29.4 2.4 30.35 1.85 32.05 2.1 32.2 3.5 31.15 5.0 32.2 5.15 32.05 4.6 30.35 5.95 29.4 5.85 29.2 4.25 29.2 M6.2 35.55 L3.85 33.05 3.9 36.5 0.75 37.75 4.15 38.65 4.4 42.4 6.35 39.15 10.0 40.05 7.6 37.25 9.35 34.3 6.2 35.55 M13.25 38.75 L12.65 40.25 11.15 40.25 11.1 40.55 12.25 41.4 11.7 43.15 11.95 43.25 13.35 42.2 14.85 43.25 15.05 43.15 14.45 41.4 15.8 40.5 15.7 40.25 14.1 40.25 13.5 38.75 13.25 38.75" fill="url(#gradient4)" fill-rule="evenodd" stroke="none"/>
      <path d="M1.7 29.8 L0.85 29.2 2.8 29.2 3.5 27.25 4.25 29.2 6.2 29.2 5.35 29.8 4.25 29.8 3.5 27.9 2.8 29.8 1.7 29.8 M4.6 30.35 L5.3 32.4 5.0 32.25 4.6 30.95 4.6 30.35 M2.05 32.25 L1.75 32.4 2.4 30.35 2.4 30.95 2.05 32.25 M3.85 33.7 L3.85 33.05 6.2 35.55 9.35 34.3 8.9 35.15 6.2 36.2 3.85 33.7 M7.6 37.25 L10.0 40.05 9.35 39.9 7.6 37.85 7.6 37.25 M1.75 38.05 L0.75 37.75 3.9 36.5 3.9 37.1 1.75 38.05 M11.55 40.9 L10.7 40.25 12.65 40.25 13.35 38.35 14.1 40.25 16.05 40.25 15.2 40.9 14.1 40.9 13.35 38.95 12.65 40.9 11.55 40.9 M14.45 41.4 L15.15 43.5 14.85 43.3 14.45 42.05 14.45 41.4 M11.9 43.3 L11.6 43.5 12.25 41.4 12.25 42.05 11.9 43.3" fill="#674512" fill-rule="evenodd" stroke="none"/>
      <path d="M1.7 29.8 L2.8 29.8 3.5 27.9 4.25 29.8 5.35 29.8 4.6 30.35 4.6 30.95 5.0 32.25 3.5 31.15 2.05 32.25 2.4 30.95 2.4 30.35 1.7 29.8 M8.9 35.15 L7.6 37.25 7.6 37.85 9.35 39.9 6.35 39.15 4.4 42.4 4.15 38.65 1.75 38.05 3.9 37.1 3.9 36.5 3.85 33.7 6.2 36.2 8.9 35.15 M11.55 40.9 L12.65 40.9 13.35 38.95 14.1 40.9 15.2 40.9 14.45 41.4 14.45 42.05 14.85 43.3 13.35 42.2 11.9 43.3 12.25 42.05 12.25 41.4 11.55 40.9" fill="#815815" fill-rule="evenodd" stroke="none"/>
      <path d="M3.35 22.1 Q3.35 14.4 8.8 9.0 14.25 3.55 22.0 3.55 29.7 3.55 35.15 9.0 40.55 14.45 40.55 22.1 40.55 29.8 35.15 35.25 29.7 40.65 22.0 40.65 14.25 40.65 8.8 35.25 3.35 29.8 3.35 22.1" fill="url(#gradient5)" fill-rule="evenodd" stroke="none"/>
      <path d="M22.0 23.9 L22.2 23.9 Q23.45 23.9 24.3 24.8 L24.4 24.8 Q25.25 25.7 25.25 26.9 25.25 28.2 24.4 29.05 L24.3 29.05 23.55 29.7 23.4 29.75 23.4 30.05 25.7 30.55 25.7 32.05 25.7 36.4 23.85 36.4 23.85 33.6 23.4 33.6 23.4 36.4 23.4 39.9 23.4 41.35 20.6 41.35 20.6 39.9 20.6 36.4 20.6 33.6 20.05 33.6 20.05 36.4 18.35 36.4 18.35 32.05 18.35 30.55 20.6 30.05 20.6 29.75 19.75 29.15 19.65 29.05 19.6 29.05 Q18.7 28.2 18.7 26.9 18.7 25.7 19.6 24.8 L19.65 24.8 Q20.6 23.9 21.75 23.9 L22.0 23.9 M21.45 5.95 Q22.0 5.7 22.7 5.95 23.4 6.2 24.0 6.75 24.95 7.7 24.95 9.0 24.95 10.25 24.0 11.15 L23.85 11.3 23.85 12.15 26.95 12.15 28.45 10.65 28.45 10.6 27.75 9.25 Q27.75 8.2 28.7 8.2 29.25 8.2 29.7 9.05 30.2 9.85 30.2 10.65 L30.2 11.0 30.05 11.2 30.1 11.25 27.55 13.85 27.55 13.95 27.4 13.95 27.35 14.0 27.3 13.95 23.85 13.95 23.85 14.95 23.95 15.05 26.45 14.95 31.5 18.75 33.55 16.65 Q35.55 17.45 35.85 18.95 L30.9 23.9 Q30.1 23.75 29.35 23.05 L29.1 21.5 24.95 17.2 23.2 17.7 20.95 17.7 19.2 17.2 15.05 21.5 14.8 23.05 Q14.05 23.75 13.25 23.9 L8.3 18.95 Q8.6 17.45 10.6 16.65 L12.65 18.75 17.7 14.95 20.2 15.05 20.3 14.95 20.3 13.95 16.85 13.95 16.8 14.0 16.75 13.95 16.6 13.95 16.6 13.85 14.05 11.25 14.1 11.2 13.95 11.0 13.95 10.65 Q13.95 9.85 14.45 9.05 14.9 8.2 15.45 8.2 16.4 8.2 16.4 9.25 L15.7 10.6 15.7 10.65 17.2 12.15 20.3 12.15 20.3 11.3 20.15 11.15 Q19.2 10.25 19.2 9.0 19.2 7.7 20.15 6.75 20.75 6.2 21.45 5.95" fill="#664411" fill-rule="evenodd" stroke="none"/>
      <path d="M36.6 24.4 L30.9 29.25 27.15 27.55 26.35 23.85 24.2 22.1 22.75 22.6 21.25 22.6 19.8 22.1 17.7 23.85 16.9 27.55 13.1 29.25 7.45 24.4 M8.35 21.85 L13.3 26.8 15.8 25.55 16.45 22.6 19.25 20.1 20.95 20.6 23.15 20.55 24.85 20.05 27.7 22.55 28.3 25.5 Q30.0 26.55 30.85 26.75 L35.8 21.8" fill="none" stroke="#664411" stroke-linecap="round" stroke-linejoin="round" stroke-width="0.75"/>
    </g>
    <linearGradient gradientTransform="matrix(0.0, -0.0258, -0.0551, 0.0, 21.8, 21.9)" gradientUnits="userSpaceOnUse" id="gradient3" spreadMethod="pad" x1="-819.2" x2="819.2">
      <stop offset="0.011764705882352941" stop-color="#c79829"/>
      <stop offset="1.0" stop-color="#be7d1e"/>
    </linearGradient>
    <linearGradient gradientTransform="matrix(0.0, -0.0258, 0.0551, 0.0, 22.0, 21.9)" gradientUnits="userSpaceOnUse" id="gradient4" spreadMethod="pad" x1="-819.2" x2="819.2">
      <stop offset="0.011764705882352941" stop-color="#c79829"/>
      <stop offset="1.0" stop-color="#be7d1e"/>
    </linearGradient>
    <linearGradient gradientTransform="matrix(0.0056, 0.0, 0.0, 0.0043, -24.6, 41.8)" gradientUnits="userSpaceOnUse" id="gradient5" spreadMethod="pad" x1="-819.2" x2="819.2">
      <stop offset="0.011764705882352941" stop-color="#c79829"/>
      <stop offset="1.0" stop-color="#be7d1e"/>
    </linearGradient>
    <g id="shape5" transform="matrix(1.0, 0.0, 0.0, 1.0, 0.05, -0.05)">
      <path d="M41.75 2.35 Q43.95 4.55 43.95 7.65 L43.95 36.45 Q43.95 39.65 41.75 41.85 39.55 44.05 36.35 44.05 L7.55 44.05 Q4.4 44.05 2.2 41.85 -0.05 39.65 -0.05 36.45 L-0.05 7.65 Q-0.05 4.55 2.2 2.35 4.4 0.05 7.55 0.05 L36.35 0.05 Q39.5 0.05 41.75 2.35 M40.8 22.1 Q40.8 14.15 35.2 8.65 29.7 3.1 21.8 3.1 13.85 3.1 8.35 8.65 2.8 14.15 2.8 22.1 2.8 30.0 8.35 35.5 13.85 41.15 21.8 41.15 29.7 41.15 35.2 35.5 40.8 30.0 40.8 22.1" fill="url(#gradient6)" fill-rule="evenodd" stroke="none"/>
      <path d="M40.8 22.1 Q40.8 30.0 35.2 35.5 29.7 41.15 21.8 41.15 13.85 41.15 8.35 35.5 2.8 30.0 2.8 22.1 2.8 14.15 8.35 8.65 13.85 3.1 21.8 3.1 29.7 3.1 35.2 8.65 40.8 14.15 40.8 22.1 M33.65 10.4 Q28.7 5.5 21.8 5.45 14.9 5.5 10.05 10.4 5.15 15.2 5.1 22.1 5.15 29.05 10.05 33.9 14.9 38.8 21.8 38.8 28.7 38.8 33.65 33.9 38.45 29.05 38.45 22.1 38.45 15.2 33.65 10.4" fill="url(#gradient7)" fill-rule="evenodd" stroke="none"/>
    </g>
    <linearGradient gradientTransform="matrix(0.0, -0.0258, -0.0551, 0.0, 21.8, 21.9)" gradientUnits="userSpaceOnUse" id="gradient6" spreadMethod="pad" x1="-819.2" x2="819.2">
      <stop offset="0.011764705882352941" stop-color="#dad67d"/>
      <stop offset="1.0" stop-color="#cfa451"/>
    </linearGradient>
    <linearGradient gradientTransform="matrix(0.0, 0.0059, -0.0232, 0.0, 21.8, 18.45)" gradientUnits="userSpaceOnUse" id="gradient7" spreadMethod="pad" x1="-819.2" x2="819.2">
      <stop offset="0.011764705882352941" stop-color="#8d5910"/>
      <stop offset="1.0" stop-color="#d9d597"/>
    </linearGradient>
    <g id="shape6" transform="matrix(1.0, 0.0, 0.0, 1.0, 0.0, -26.05)">
      <path d="M38.85 27.95 L39.3 26.8 39.7 26.3 Q40.05 26.05 40.4 26.05 L41.05 26.3 41.5 26.85 41.9 27.95 43.05 27.95 43.75 28.2 43.95 28.35 43.95 29.95 43.7 30.1 42.85 30.75 43.25 32.1 43.25 32.8 42.8 33.35 42.1 33.55 41.45 33.3 41.2 33.15 41.15 35.7 43.55 36.65 Q43.75 36.7 43.95 36.9 L43.6 38.8 43.4 38.85 40.85 39.5 40.65 42.45 40.5 42.75 39.25 43.5 39.0 43.45 38.5 43.0 37.0 40.45 34.2 41.2 33.85 41.2 33.0 41.8 33.4 43.15 33.4 43.85 33.3 44.0 31.15 44.0 30.55 43.6 29.9 44.0 27.7 44.0 27.65 43.8 27.65 43.1 28.05 41.8 27.15 41.2 26.75 40.6 Q26.6 40.2 26.75 39.85 L27.15 39.25 27.85 39.05 29.0 39.05 29.45 37.9 Q29.6 37.55 29.85 37.35 L30.55 37.15 31.2 37.35 31.65 37.95 32.05 39.05 33.2 39.05 34.85 37.05 33.55 34.85 33.4 34.15 33.7 33.45 Q33.9 33.2 34.25 33.15 L34.95 33.2 37.35 34.15 38.05 33.4 37.9 33.3 37.5 32.7 37.5 32.0 37.9 30.75 37.0 30.1 36.6 29.55 Q36.45 29.15 36.6 28.8 L37.0 28.2 Q37.3 27.95 37.7 27.95 L38.85 27.95 M37.7 35.5 L34.55 34.25 36.3 37.2 33.9 40.0 37.55 39.1 39.5 42.35 39.75 38.6 43.15 37.7 40.0 36.45 40.05 33.0 37.7 35.5 M30.65 38.7 L30.4 38.7 29.8 40.2 28.2 40.2 28.1 40.45 29.45 41.35 28.85 43.1 29.05 43.2 30.55 42.15 31.95 43.2 32.2 43.1 31.65 41.35 32.8 40.5 32.75 40.2 31.25 40.2 30.65 38.7 M39.65 29.15 L38.05 29.15 37.95 29.35 39.3 30.3 38.75 32.0 38.9 32.15 40.4 31.1 41.8 32.15 42.05 32.0 41.5 30.3 42.8 29.35 42.65 29.15 41.1 29.15 40.5 27.6 40.25 27.6 39.65 29.15" fill="#d1ae5a" fill-rule="evenodd" stroke="none"/>
      <path d="M38.55 29.75 L37.7 29.15 39.65 29.15 40.4 27.2 41.1 29.15 43.05 29.15 42.2 29.75 41.1 29.75 40.4 27.85 39.65 29.75 38.55 29.75 M41.5 30.3 L42.15 32.35 41.85 32.2 41.5 30.9 41.5 30.3 M38.9 32.2 L38.6 32.35 39.3 30.3 39.3 30.9 38.9 32.2 M40.0 36.45 L43.15 37.7 42.15 38.0 40.0 37.05 40.0 36.45 M34.55 39.85 L33.9 40.0 36.3 37.2 36.3 37.8 34.55 39.85 M35.0 35.1 L34.55 34.25 37.7 35.5 40.05 33.0 40.05 33.65 37.7 36.15 35.0 35.1 M28.7 40.85 L27.85 40.2 29.8 40.2 30.55 38.3 31.25 40.2 33.2 40.2 32.35 40.85 31.25 40.85 30.55 38.9 29.8 40.85 28.7 40.85 M31.65 41.35 L32.3 43.45 32.0 43.25 31.65 42.0 31.65 41.35 M29.05 43.25 L28.75 43.45 29.45 41.35 29.45 42.0 29.05 43.25" fill="#674512" fill-rule="evenodd" stroke="none"/>
      <path d="M42.2 29.75 L41.5 30.3 41.5 30.9 41.85 32.2 40.4 31.1 38.9 32.2 39.3 30.9 39.3 30.3 38.55 29.75 39.65 29.75 40.4 27.85 41.1 29.75 42.2 29.75 M40.0 36.45 L40.0 37.05 42.15 38.0 39.75 38.6 39.5 42.35 37.55 39.1 34.55 39.85 36.3 37.8 36.3 37.2 35.0 35.1 37.7 36.15 40.05 33.65 40.0 36.45 M32.35 40.85 L31.65 41.35 31.65 42.0 32.0 43.25 30.55 42.15 29.05 43.25 29.45 42.0 29.45 41.35 28.7 40.85 29.8 40.85 30.55 38.9 31.25 40.85 32.35 40.85" fill="#815815" fill-rule="evenodd" stroke="none"/>
      <path d="M10.25 33.45 L10.55 34.15 10.4 34.85 9.1 37.05 10.75 39.05 11.9 39.05 12.3 37.95 Q12.4 37.55 12.75 37.35 L13.4 37.15 14.1 37.35 14.5 37.9 14.95 39.05 16.1 39.05 16.8 39.25 17.2 39.85 17.2 40.6 16.8 41.2 15.9 41.8 16.3 43.1 16.3 43.8 16.25 44.0 14.05 44.0 13.4 43.6 12.8 44.0 10.65 44.0 10.55 43.85 10.55 43.15 10.95 41.8 10.1 41.2 9.75 41.2 6.95 40.45 5.45 43.0 4.95 43.45 4.7 43.5 3.45 42.75 3.3 42.45 3.1 39.5 0.55 38.85 0.35 38.8 0.0 36.9 0.4 36.65 2.8 35.7 2.75 33.15 2.5 33.3 1.85 33.55 Q1.45 33.55 1.15 33.35 L0.7 32.8 0.7 32.1 1.1 30.75 0.25 30.1 0.0 29.95 0.0 28.35 0.2 28.2 0.9 27.95 2.05 27.95 2.45 26.85 Q2.55 26.45 2.9 26.3 L3.55 26.05 Q3.9 26.05 4.25 26.3 L4.65 26.8 5.1 27.95 6.25 27.95 6.95 28.2 7.35 28.8 7.35 29.55 6.95 30.1 6.05 30.75 6.45 32.0 6.45 32.7 6.05 33.3 5.9 33.4 6.6 34.15 9.0 33.2 9.7 33.15 10.25 33.45 M11.15 40.5 L12.3 41.35 11.75 43.1 12.0 43.2 13.4 42.15 14.9 43.2 15.1 43.1 14.5 41.35 15.85 40.45 15.75 40.2 14.15 40.2 13.55 38.7 13.3 38.7 12.7 40.2 11.2 40.2 11.15 40.5 M3.7 27.6 L3.45 27.6 2.85 29.15 1.3 29.15 1.15 29.35 2.45 30.3 1.9 32.0 2.15 32.15 3.55 31.1 5.05 32.15 5.2 32.0 4.65 30.3 6.0 29.35 5.9 29.15 4.3 29.15 3.7 27.6 M4.2 38.6 L4.45 42.35 6.4 39.1 10.05 40.0 7.65 37.2 9.4 34.25 6.25 35.5 3.9 33.0 3.95 36.45 0.8 37.7 4.2 38.6" fill="#d1ae5a" fill-rule="evenodd" stroke="none"/>
      <path d="M11.6 40.85 L10.75 40.2 12.7 40.2 13.4 38.3 14.15 40.2 16.1 40.2 15.25 40.85 14.15 40.85 13.4 38.9 12.7 40.85 11.6 40.85 M14.5 41.35 L15.2 43.45 14.9 43.25 14.5 42.0 14.5 41.35 M11.95 43.25 L11.65 43.45 12.3 41.35 12.3 42.0 11.95 43.25 M1.75 29.75 L0.9 29.15 2.85 29.15 3.55 27.2 4.3 29.15 6.25 29.15 5.4 29.75 4.3 29.75 3.55 27.85 2.85 29.75 1.75 29.75 M4.65 30.3 L5.35 32.35 5.05 32.2 4.65 30.9 4.65 30.3 M2.1 32.2 L1.8 32.35 2.45 30.3 2.45 30.9 2.1 32.2 M3.9 33.65 L3.9 33.0 6.25 35.5 9.4 34.25 8.95 35.1 6.25 36.15 3.9 33.65 M7.65 37.2 L10.05 40.0 9.4 39.85 7.65 37.8 7.65 37.2 M1.8 38.0 L0.8 37.7 3.95 36.45 3.95 37.05 1.8 38.0" fill="#674512" fill-rule="evenodd" stroke="none"/>
      <path d="M11.6 40.85 L12.7 40.85 13.4 38.9 14.15 40.85 15.25 40.85 14.5 41.35 14.5 42.0 14.9 43.25 13.4 42.15 11.95 43.25 12.3 42.0 12.3 41.35 11.6 40.85 M1.75 29.75 L2.85 29.75 3.55 27.85 4.3 29.75 5.4 29.75 4.65 30.3 4.65 30.9 5.05 32.2 3.55 31.1 2.1 32.2 2.45 30.9 2.45 30.3 1.75 29.75 M8.95 35.1 L7.65 37.2 7.65 37.8 9.4 39.85 6.4 39.1 4.45 42.35 4.2 38.6 1.8 38.0 3.95 37.05 3.95 36.45 3.9 33.65 6.25 36.15 8.95 35.1" fill="#815815" fill-rule="evenodd" stroke="none"/>
    </g>
  </defs>
</svg>
