<?xml version="1.0" encoding="UTF-8" standalone="no"?>
<svg xmlns:xlink="http://www.w3.org/1999/xlink" height="66.15px" width="66.0px" xmlns="http://www.w3.org/2000/svg">
  <g transform="matrix(1.5, 0.0, 0.0, 1.5, 0.0, 0.0)">
    <use height="44.05" transform="matrix(1.0, 0.0, 0.0, 1.0, 0.0, 0.0)" width="44.0" xlink:href="#shape0"/>
    <use height="0.0" transform="matrix(1.2088, 0.0, 0.0, 1.2099, 0.95, 0.75)" width="0.0" xlink:href="#sprite0"/>
    <use height="24.3" transform="matrix(1.0, 0.0, 0.0, 1.0, 0.2, 19.8)" width="43.45" xlink:href="#shape1"/>
    <use height="8.6" transform="matrix(1.2077, 0.0, 0.0, 1.2065, 1.0585, 0.55)" width="35.05" xlink:href="#sprite1"/>
    <use height="20.15" transform="matrix(1.1594, 0.0, 0.0, 1.1605, 6.1, 5.45)" width="28.2" xlink:href="#sprite2"/>
    <use height="16.1" transform="matrix(1.0, 0.0, 0.0, 1.0, 5.75, 14.75)" width="32.2" xlink:href="#shape4"/>
  </g>
  <defs>
    <g id="shape0" transform="matrix(1.0, 0.0, 0.0, 1.0, 0.0, 0.0)">
      <path d="M7.55 8.2 Q13.4 2.25 21.8 2.25 30.15 2.25 36.05 8.2 41.9 14.1 41.9 22.45 41.9 30.8 36.05 36.75 30.15 42.65 21.8 42.65 13.4 42.65 7.55 36.75 1.6 30.8 1.6 22.45 1.6 14.1 7.55 8.2" fill="url(#gradient0)" fill-rule="evenodd" stroke="none"/>
      <path d="M34.2 9.8 Q29.15 4.7 22.0 4.7 14.8 4.7 9.7 9.8 4.65 14.95 4.65 22.05 4.65 29.25 9.7 34.35 14.75 39.45 22.0 39.45 29.15 39.45 34.2 34.35 39.3 29.25 39.3 22.05 39.3 14.85 34.2 9.8 M41.75 2.25 Q44.0 4.55 44.0 7.65 L44.0 36.45 Q44.0 39.6 41.75 41.85 39.6 44.05 36.4 44.05 L7.6 44.05 Q4.45 44.05 2.25 41.85 0.0 39.65 0.0 36.45 L0.0 7.65 Q0.0 4.55 2.25 2.25 4.45 0.0 7.6 0.0 L36.4 0.0 Q39.6 0.0 41.75 2.25" fill="url(#gradient1)" fill-rule="evenodd" stroke="none"/>
      <path d="M9.65 32.8 L8.9 32.05 8.8 31.95 11.5 31.95 11.45 31.9 15.35 31.9 15.35 31.85 17.15 31.85 17.2 31.75 Q17.25 31.05 17.75 30.5 18.45 29.9 19.35 29.9 L20.25 29.9 20.25 19.65 19.6 19.65 19.6 25.0 19.1 25.0 17.65 25.0 17.65 17.9 17.65 16.2 20.25 15.65 20.25 15.3 19.25 14.6 19.15 14.45 19.1 14.45 Q18.1 13.5 18.1 12.05 18.1 10.7 19.1 9.7 L19.15 9.7 Q20.2 8.7 21.5 8.7 L21.75 8.7 22.0 8.7 Q23.45 8.7 24.4 9.7 L24.45 9.7 Q25.45 10.7 25.45 12.05 25.45 13.5 24.45 14.45 L24.4 14.45 23.5 15.2 23.4 15.3 23.4 15.65 25.95 16.2 25.95 17.9 25.95 25.0 24.5 25.0 23.9 25.0 23.9 19.65 23.4 19.65 23.4 29.9 24.4 29.9 Q25.35 29.9 26.0 30.5 26.5 31.05 26.65 31.75 L26.7 31.9 35.1 31.9 35.1 31.95 35.05 31.95 35.0 32.05 34.25 32.8 Q29.1 37.95 21.9 37.95 14.7 37.95 9.65 32.8" fill="#5f3921" fill-rule="evenodd" stroke="none"/>
      <path d="M41.05 22.0 Q41.05 29.85 35.45 35.4 29.95 41.0 22.1 41.0 14.2 41.0 8.7 35.4 3.15 29.85 3.15 22.0 3.15 14.15 8.7 8.6 14.2 3.05 22.1 3.05 29.95 3.05 35.45 8.6 41.05 14.15 41.05 22.0 M33.85 10.35 Q28.9 5.45 22.1 5.4 15.2 5.45 10.35 10.35 5.5 15.1 5.45 22.0 5.5 28.95 10.35 33.8 15.2 38.65 22.1 38.65 28.9 38.65 33.85 33.8 38.65 28.95 38.65 22.0 38.65 15.1 33.85 10.35" fill="url(#gradient2)" fill-rule="evenodd" stroke="none"/>
    </g>
    <linearGradient gradientTransform="matrix(0.0, -0.0155, -0.0189, 0.0, 21.85, 25.45)" gradientUnits="userSpaceOnUse" id="gradient0" spreadMethod="pad" x1="-819.2" x2="819.2">
      <stop offset="0.011764705882352941" stop-color="#bb9a76"/>
      <stop offset="1.0" stop-color="#a87f53"/>
    </linearGradient>
    <linearGradient gradientTransform="matrix(0.0, -0.0344, -0.0552, 0.0, 22.45, 16.35)" gradientUnits="userSpaceOnUse" id="gradient1" spreadMethod="pad" x1="-819.2" x2="819.2">
      <stop offset="0.0196078431372549" stop-color="#9c6732"/>
      <stop offset="1.0" stop-color="#7d4e2b"/>
    </linearGradient>
    <linearGradient gradientTransform="matrix(1.0E-4, 0.0223, -0.0231, 1.0E-4, 22.15, 22.25)" gradientUnits="userSpaceOnUse" id="gradient2" spreadMethod="pad" x1="-819.2" x2="819.2">
      <stop offset="0.011764705882352941" stop-color="#59351e"/>
      <stop offset="1.0" stop-color="#cc955e"/>
    </linearGradient>
    <g id="shape1" transform="matrix(1.0, 0.0, 0.0, 1.0, -0.2, -19.8)">
      <path d="M0.2 25.1 Q0.35 22.65 0.8 20.65 0.55 24.85 0.8 26.5 1.15 29.5 3.1 30.95 L8.1 35.1 Q10.6 37.45 11.0 40.2 L14.55 42.5 10.7 42.9 Q9.95 44.4 7.2 44.05 3.2 43.5 2.4 40.25 1.7 37.65 3.6 36.65 L3.8 34.45 4.5 36.3 Q6.5 35.9 6.95 37.0 7.45 38.05 6.85 39.1 6.25 40.05 5.7 39.25 6.4 39.2 6.5 38.8 6.55 38.4 5.85 37.75 5.25 37.1 4.65 37.4 4.1 37.7 3.8 38.85 3.2 41.3 6.05 42.4 9.0 43.5 9.45 40.8 9.95 38.55 7.15 36.2 L3.4 33.3 0.9 32.8 1.9 31.85 Q0.1 29.85 0.2 25.1" fill="#7a5130" fill-rule="evenodd" stroke="none"/>
      <path d="M0.25 24.2 Q0.4 21.8 0.85 19.8 0.6 23.95 0.85 25.55 1.2 28.55 3.15 30.05 L8.2 34.2 Q10.65 36.55 11.05 39.25 L14.7 42.55 10.8 42.05 Q10.05 43.5 7.25 43.15 3.25 42.55 2.45 39.4 1.75 36.8 3.7 35.8 L3.8 34.35 4.55 35.45 Q6.55 35.05 7.0 36.85 7.25 38.35 6.7 39.05 L5.85 39.4 Q7.15 38.2 5.75 36.9 4.45 35.55 3.85 37.95 3.25 40.4 6.1 41.45 9.05 42.55 9.5 39.9 10.05 37.7 7.2 35.25 L3.4 32.4 3.45 32.45 0.85 32.85 1.95 30.95 Q0.15 28.9 0.25 24.2" fill="#ca935c" fill-rule="evenodd" stroke="none"/>
      <path d="M0.85 21.45 Q0.8 24.4 0.9 25.6 1.4 28.65 3.25 30.15 L8.25 34.25 Q10.7 36.6 11.2 39.25 L14.3 42.15 14.05 42.05 13.9 41.9 12.2 40.7 Q10.35 39.1 10.3 38.0 10.15 36.65 8.45 35.15 L5.2 32.65 Q2.0 30.2 1.15 27.45 0.55 25.85 0.55 22.05 L0.85 21.45 M6.5 36.6 Q5.85 35.6 4.65 35.6 L4.45 35.7 4.35 35.6 4.2 35.6 4.2 34.75 4.7 35.5 Q6.6 35.1 7.1 36.9 7.3 37.95 7.1 38.65 L7.0 38.7 7.0 38.65 6.9 38.1 6.9 38.0 Q6.9 37.25 6.5 36.6 M4.25 40.3 L4.1 39.7 Q4.55 40.9 6.2 41.5 L8.45 41.7 8.55 41.75 7.0 42.05 Q6.2 42.05 5.35 41.35 L4.25 40.3" fill="#d7ad86" fill-rule="evenodd" stroke="none"/>
      <path d="M43.65 25.1 Q43.75 29.85 41.95 31.85 L42.95 32.8 40.45 33.3 36.7 36.2 Q33.9 38.55 34.4 40.8 34.85 43.5 37.8 42.4 40.65 41.3 40.05 38.85 39.75 37.7 39.2 37.4 38.6 37.1 38.0 37.75 37.3 38.4 37.35 38.8 37.45 39.2 38.15 39.25 37.6 40.05 37.0 39.1 36.4 38.05 36.9 37.0 37.35 35.9 39.35 36.3 L40.05 34.45 40.25 36.65 Q42.15 37.65 41.45 40.25 40.65 43.5 36.65 44.05 33.9 44.4 33.15 42.9 L29.3 42.5 32.85 40.2 Q33.25 37.45 35.75 35.1 L40.75 30.95 Q42.7 29.5 43.05 26.5 43.3 24.85 43.05 20.65 L43.65 25.1" fill="#7a5130" fill-rule="evenodd" stroke="none"/>
      <path d="M43.6 24.2 Q43.7 28.9 41.9 30.95 L43.0 32.85 40.4 32.45 40.45 32.4 36.65 35.25 Q33.8 37.7 34.35 39.9 34.8 42.55 37.75 41.45 40.6 40.4 40.0 37.95 39.4 35.55 38.1 36.9 36.7 38.2 38.0 39.4 L37.15 39.05 Q36.6 38.35 36.85 36.85 37.3 35.05 39.3 35.45 L40.05 34.35 40.15 35.8 Q42.1 36.8 41.4 39.4 40.6 42.55 36.6 43.15 33.8 43.5 33.05 42.05 L29.15 42.55 32.8 39.25 Q33.2 36.55 35.65 34.2 L40.7 30.05 Q42.65 28.55 43.0 25.55 43.25 23.95 43.0 19.8 L43.6 24.2" fill="#ca935c" fill-rule="evenodd" stroke="none"/>
      <path d="M37.35 36.6 Q36.95 37.25 36.95 38.0 L36.95 38.1 36.85 38.65 36.85 38.7 36.75 38.65 Q36.55 37.95 36.75 36.9 37.25 35.1 39.15 35.5 L39.65 34.75 39.65 35.6 39.5 35.6 39.4 35.7 39.2 35.6 Q38.0 35.6 37.35 36.6 M43.0 21.45 L43.3 22.05 Q43.3 25.85 42.7 27.45 41.85 30.2 38.65 32.65 L35.4 35.15 Q33.7 36.65 33.55 38.0 33.5 39.1 31.65 40.7 L29.95 41.9 29.8 42.05 29.55 42.15 32.65 39.25 Q33.15 36.6 35.6 34.25 L40.6 30.15 Q42.45 28.65 42.95 25.6 L43.0 21.45 M39.6 40.3 L38.5 41.35 Q37.65 42.05 36.85 42.05 L35.3 41.75 35.4 41.7 37.65 41.5 Q39.3 40.9 39.75 39.7 L39.6 40.3" fill="#d7ad86" fill-rule="evenodd" stroke="none"/>
    </g>
    <g id="sprite1" transform="matrix(1.0, 0.0, 0.0, 1.0, 0.2, 0.0)">
      <use height="8.6" transform="matrix(1.0, 0.0, 0.0, 1.0, -0.2, 0.0)" width="35.05" xlink:href="#shape2"/>
    </g>
    <g id="shape2" transform="matrix(1.0, 0.0, 0.0, 1.0, 0.2, 0.0)">
      <path d="M34.4 4.4 Q34.85 5.8 34.85 7.65 L34.85 8.6 Q34.8 6.95 34.4 5.7 33.0 1.3 27.2 1.3 L7.45 1.3 Q0.05 1.3 -0.2 8.5 L-0.2 7.65 Q-0.2 0.0 7.45 0.0 L27.2 0.0 Q33.0 0.0 34.4 4.4" fill="#e7deda" fill-rule="evenodd" stroke="none"/>
    </g>
    <g id="sprite2" transform="matrix(1.0, 0.0, 0.0, 1.0, 0.0, 0.0)">
      <use height="20.15" transform="matrix(1.0, 0.0, 0.0, 1.0, 0.0, 0.0)" width="28.2" xlink:href="#shape3"/>
    </g>
    <g id="shape3" transform="matrix(1.0, 0.0, 0.0, 1.0, 0.0, 0.0)">
      <path d="M27.65 18.45 L27.4 18.95 Q26.2 20.8 23.4 19.8 19.6 18.5 17.35 14.05 14.8 9.1 9.75 7.4 4.1 5.65 0.0 10.3 1.0 6.85 3.7 4.15 7.2 0.65 11.9 0.05 L14.8 0.05 18.4 0.65 Q21.55 1.65 24.05 4.15 28.2 8.3 28.2 14.25 28.2 16.45 27.65 18.45" fill="#ffffff" fill-opacity="0.19607843" fill-rule="evenodd" stroke="none"/>
    </g>
    <g id="shape4" transform="matrix(1.0, 0.0, 0.0, 1.0, -5.75, -14.75)">
      <path d="M30.8 30.65 L28.3 30.55 Q27.0 30.0 26.8 28.6 L26.85 28.6 Q26.5 27.5 27.1 26.4 L27.5 26.1 28.0 26.15 28.25 26.55 28.2 27.0 Q27.85 27.65 28.05 28.35 L28.05 28.4 Q28.2 29.1 28.85 29.4 L30.45 29.45 30.35 29.55 Q31.2 29.15 31.55 28.4 31.85 27.65 31.55 26.85 L31.55 26.8 31.4 26.45 31.3 26.3 29.45 23.25 29.4 23.1 29.35 23.1 27.5 20.0 Q27.15 19.6 27.1 19.05 26.65 17.85 27.2 16.75 27.7 15.5 28.95 15.0 L29.0 14.9 31.5 15.1 31.5 15.05 Q32.8 15.6 33.0 16.9 33.25 18.2 32.7 19.15 L32.35 19.4 31.85 19.35 31.6 18.95 Q31.45 18.8 31.65 18.55 31.9 17.95 31.75 17.15 31.7 16.45 31.05 16.2 L31.0 16.2 29.45 16.1 Q28.7 16.5 28.25 17.25 27.95 18.0 28.25 18.75 L28.35 18.85 28.5 19.3 28.6 19.3 30.15 21.9 32.7 20.35 33.4 19.9 33.5 19.85 Q34.85 19.5 36.0 20.1 37.2 20.7 37.7 21.8 L37.8 21.8 Q38.2 23.15 37.6 24.4 37.05 25.7 35.75 25.9 L33.6 25.65 33.3 25.2 Q33.15 25.05 33.3 24.8 33.4 24.55 33.65 24.45 L34.1 24.5 35.5 24.65 36.5 23.85 Q36.85 23.15 36.6 22.2 L36.6 22.25 Q36.2 21.5 35.45 21.2 L33.9 21.1 33.4 21.4 30.8 23.05 32.25 25.45 32.4 25.65 32.8 26.35 32.75 26.35 Q33.25 27.65 32.7 28.9 32.15 30.15 30.8 30.65 M28.95 17.35 Q29.15 16.9 29.55 16.75 L30.4 16.8 30.95 17.4 Q31.15 17.85 30.95 18.2 L30.35 18.8 29.45 18.75 28.9 18.1 Q28.75 17.75 28.95 17.35 M34.65 23.95 L34.15 23.35 34.15 22.6 Q34.35 22.15 34.8 21.95 35.15 21.75 35.6 21.95 36.05 22.15 36.15 22.6 36.35 23.0 36.1 23.4 L35.5 23.95 Q35.1 24.15 34.65 23.95 M30.35 26.85 L30.95 27.4 30.95 28.3 30.3 28.85 29.5 28.8 28.95 28.15 Q28.75 27.75 28.95 27.35 29.1 26.9 29.5 26.8 L30.35 26.85" fill="#5f3921" fill-rule="evenodd" stroke="none"/>
      <path d="M12.9 30.65 Q11.55 30.15 11.0 28.9 10.45 27.65 10.95 26.35 L10.9 26.35 11.3 25.65 11.45 25.45 12.9 23.05 10.3 21.4 9.8 21.1 8.25 21.2 Q7.5 21.5 7.1 22.25 L7.1 22.2 Q6.85 23.15 7.2 23.85 7.55 24.5 8.2 24.65 L9.6 24.5 10.05 24.45 10.4 24.8 10.4 25.2 10.1 25.65 7.95 25.9 Q6.65 25.7 6.1 24.4 5.5 23.15 5.9 21.8 L6.0 21.8 Q6.5 20.7 7.7 20.1 8.85 19.5 10.2 19.85 L10.3 19.9 11.0 20.35 13.55 21.9 15.1 19.3 15.2 19.3 15.35 18.85 15.45 18.75 Q15.75 18.0 15.45 17.25 15.0 16.5 14.25 16.1 L12.7 16.2 12.65 16.2 Q12.0 16.45 11.95 17.15 11.8 17.95 12.05 18.55 12.25 18.8 12.1 18.95 L11.85 19.35 11.35 19.4 11.0 19.15 Q10.45 18.2 10.7 16.9 10.9 15.6 12.2 15.05 L12.2 15.1 14.7 14.9 14.75 15.0 Q16.0 15.5 16.5 16.75 17.05 17.85 16.6 19.05 L16.2 20.0 14.35 23.1 14.3 23.1 14.25 23.25 12.4 26.3 12.3 26.45 12.15 26.8 12.15 26.85 Q11.85 27.65 12.15 28.4 12.5 29.15 13.35 29.55 L13.25 29.45 14.85 29.4 Q15.5 29.1 15.65 28.4 L15.65 28.35 Q15.85 27.65 15.5 27.0 L15.45 26.55 15.7 26.15 16.2 26.1 16.6 26.4 Q17.2 27.5 16.85 28.6 L16.9 28.6 Q16.7 30.0 15.4 30.55 L12.9 30.65 M13.35 26.85 L14.2 26.8 14.75 27.35 Q14.95 27.75 14.75 28.15 L14.2 28.8 13.4 28.85 12.75 28.3 Q12.6 27.85 12.75 27.4 12.95 27.05 13.35 26.85 M14.75 17.35 Q14.95 17.75 14.8 18.1 L14.25 18.75 13.35 18.8 12.75 18.2 Q12.55 17.85 12.75 17.4 12.95 16.95 13.3 16.8 L14.15 16.75 14.75 17.35 M9.05 23.95 Q8.6 24.15 8.2 23.95 L7.6 23.4 Q7.35 23.0 7.55 22.6 7.65 22.15 8.1 21.95 8.55 21.75 8.9 21.95 L9.55 22.6 9.55 23.35 9.05 23.95" fill="#5f3921" fill-rule="evenodd" stroke="none"/>
    </g>
  </defs>
</svg>
