<?xml version="1.0" encoding="UTF-8" standalone="no"?>
<svg xmlns:xlink="http://www.w3.org/1999/xlink" height="66.825px" width="66.0px" xmlns="http://www.w3.org/2000/svg">
  <g transform="matrix(1.5, 0.0, 0.0, 1.5, 0.075, 0.0)">
    <use height="43.6" transform="matrix(1.0, 0.0, 0.0, 1.0, 0.1, 0.0)" width="43.65" xlink:href="#shape0"/>
    <use height="20.15" transform="matrix(1.1594, 0.0, 0.0, 1.1605, 6.15, 5.0)" width="28.2" xlink:href="#sprite0"/>
    <use height="41.2" transform="matrix(1.0, 0.0, 0.0, 1.0, -0.05, 3.35)" width="44.0" xlink:href="#shape2"/>
    <use height="8.6" transform="matrix(1.2077, 0.0, 0.0, 1.2065, 0.7585, 1.1)" width="35.05" xlink:href="#sprite1"/>
  </g>
  <defs>
    <g id="shape0" transform="matrix(1.0, 0.0, 0.0, 1.0, -0.1, 0.0)">
      <path d="M2.3 2.2 Q4.5 0.0 7.65 0.0 L36.2 0.0 Q39.35 0.0 41.55 2.2 43.75 4.4 43.75 7.5 L43.75 36.1 Q43.75 39.2 41.55 41.4 39.35 43.6 36.2 43.6 L7.65 43.6 Q4.5 43.6 2.3 41.4 0.1 39.2 0.1 36.1 L0.1 7.5 Q0.1 4.4 2.3 2.2" fill="url(#gradient0)" fill-rule="evenodd" stroke="none"/>
      <path d="M34.4 9.75 Q39.55 14.9 39.55 22.2 39.55 29.5 34.4 34.6 29.25 39.75 21.95 39.75 14.7 39.75 9.6 34.6 4.4 29.5 4.4 22.2 4.4 14.9 9.6 9.75 14.7 4.65 21.95 4.65 29.25 4.65 34.4 9.75" fill="url(#gradient1)" fill-rule="evenodd" stroke="none"/>
      <path d="M26.45 17.95 Q26.45 17.1 27.2 17.1 27.65 17.1 28.0 17.8 28.4 18.45 28.4 19.05 L28.4 19.35 28.3 19.55 28.35 19.6 26.25 21.7 26.25 21.75 26.15 21.75 26.1 21.8 26.05 21.75 23.25 21.75 23.25 22.55 23.35 22.65 25.4 22.55 29.45 25.65 31.15 23.95 Q32.75 24.6 33.0 25.8 L29.0 29.85 Q28.35 29.7 27.7 29.15 L27.55 27.85 24.15 24.4 22.75 24.8 20.9 24.8 19.5 24.4 16.1 27.85 15.95 29.15 Q15.3 29.7 14.65 29.85 L10.65 25.8 Q10.9 24.6 12.5 23.95 L14.2 25.65 16.75 23.7 18.2 22.65 18.25 22.55 20.3 22.65 20.4 22.55 20.4 21.75 17.55 21.75 17.55 21.8 17.5 21.75 17.4 21.75 17.4 21.7 15.3 19.6 15.35 19.55 15.25 19.35 15.25 19.05 Q15.25 18.45 15.65 17.8 16.0 17.1 16.45 17.1 17.2 17.1 17.2 17.95 L16.65 19.05 17.85 20.3 20.4 20.3 20.4 19.6 20.25 19.5 Q19.5 18.8 19.5 17.75 19.5 16.7 20.25 15.95 20.75 15.45 21.35 15.3 21.75 15.05 22.3 15.3 L23.35 15.95 Q24.15 16.7 24.15 17.75 24.15 18.8 23.35 19.5 L23.25 19.6 23.25 20.3 25.8 20.3 27.0 19.05 Q26.45 18.25 26.45 17.95" fill="#92300b" fill-rule="evenodd" stroke="none"/>
      <path d="M34.1 21.85 Q34.1 16.8 30.55 13.25 27.0 9.65 21.9 9.65 16.85 9.65 13.3 13.25 9.7 16.8 9.7 21.85 9.7 26.9 13.3 30.5 16.85 34.05 21.9 34.05 27.0 34.05 30.55 30.5 34.1 26.9 34.1 21.85 M30.2 23.45 L30.3 22.05 Q30.3 18.55 27.85 16.1 25.45 13.65 21.95 13.65 18.5 13.65 16.05 16.1 13.6 18.55 13.6 22.05 L13.7 23.2 13.2 23.1 12.4 23.2 12.3 22.0 Q12.3 18.0 15.15 15.15 18.0 12.3 22.0 12.3 26.05 12.3 28.85 15.15 31.7 18.0 31.7 22.0 L31.65 23.25 31.2 23.2 30.2 23.45 M32.0 11.8 Q36.15 15.95 36.15 21.85 36.15 27.7 32.0 31.8 27.85 35.95 22.0 35.95 16.15 35.95 12.0 31.8 7.85 27.7 7.85 21.85 7.85 15.95 12.0 11.8 16.15 7.7 22.0 7.7 27.85 7.7 32.0 11.8 M16.95 29.1 L17.1 28.85 Q19.2 30.4 21.95 30.4 24.75 30.4 26.85 28.85 L27.05 29.5 27.55 30.0 Q25.15 31.7 22.0 31.7 18.9 31.7 16.5 30.0 L16.95 29.1" fill="#92300b" fill-rule="evenodd" stroke="none"/>
    </g>
    <linearGradient gradientTransform="matrix(0.0, -0.0546, -0.0546, 0.0, 21.9, 18.15)" gradientUnits="userSpaceOnUse" id="gradient0" spreadMethod="pad" x1="-819.2" x2="819.2">
      <stop offset="0.011764705882352941" stop-color="#bf809f"/>
      <stop offset="1.0" stop-color="#543c7c"/>
    </linearGradient>
    <linearGradient gradientTransform="matrix(0.0, -0.0164, -0.0164, 0.0, 21.95, 18.8)" gradientUnits="userSpaceOnUse" id="gradient1" spreadMethod="pad" x1="-819.2" x2="819.2">
      <stop offset="0.011764705882352941" stop-color="#f9cfb3"/>
      <stop offset="1.0" stop-color="#ff5b79"/>
    </linearGradient>
    <g id="sprite0" transform="matrix(1.0, 0.0, 0.0, 1.0, 0.0, 0.0)">
      <use height="20.15" transform="matrix(1.0, 0.0, 0.0, 1.0, 0.0, 0.0)" width="28.2" xlink:href="#shape1"/>
    </g>
    <g id="shape1" transform="matrix(1.0, 0.0, 0.0, 1.0, 0.0, 0.0)">
      <path d="M27.65 18.45 L27.4 18.95 Q26.2 20.8 23.4 19.8 19.6 18.5 17.35 14.05 14.8 9.1 9.75 7.4 4.1 5.65 0.0 10.3 1.0 6.85 3.7 4.15 7.2 0.65 11.9 0.05 L14.8 0.05 18.4 0.65 Q21.55 1.65 24.05 4.15 28.2 8.3 28.2 14.25 28.2 16.45 27.65 18.45" fill="#ffffff" fill-opacity="0.19607843" fill-rule="evenodd" stroke="none"/>
    </g>
    <g id="shape2" transform="matrix(1.0, 0.0, 0.0, 1.0, 0.05, -3.35)">
      <path d="M38.1 34.15 L38.9 34.05 Q40.9 31.95 42.65 25.85 L43.75 20.9 43.75 20.95 43.65 22.8 42.5 27.2 Q42.1 29.15 40.9 31.5 L39.75 33.55 Q39.2 34.4 37.95 34.45 L37.55 34.55 37.5 34.55 37.25 34.35 38.1 34.15 M40.65 35.55 L41.15 36.1 41.95 32.6 41.95 32.5 42.1 32.35 41.4 36.2 41.3 36.25 40.7 36.2 40.65 35.75 40.65 35.55 M37.1 35.8 L37.15 35.85 36.5 36.75 34.6 39.2 Q31.85 42.9 29.15 42.9 L28.35 42.85 28.55 42.8 28.8 42.7 29.8 42.35 30.85 42.0 Q32.5 41.45 34.95 38.55 L37.1 35.8 M37.6 38.4 L37.8 38.35 Q38.95 38.35 39.45 40.0 39.8 40.95 39.8 41.85 L39.7 43.3 39.7 43.45 39.3 43.65 38.85 43.85 38.9 43.7 39.35 42.8 39.45 42.5 39.55 42.15 39.55 42.1 39.55 42.05 39.6 41.85 39.6 41.0 39.4 40.5 39.1 39.9 38.85 39.45 37.95 38.65 37.6 38.4 M6.3 34.55 L5.9 34.45 Q4.7 34.4 4.1 33.55 L2.95 31.5 Q1.8 29.15 1.4 27.2 L0.2 22.8 0.1 20.95 0.1 20.9 1.2 25.85 Q2.95 31.95 4.95 34.05 L5.8 34.15 6.6 34.35 6.35 34.55 6.3 34.55 M3.25 35.55 L3.25 35.75 3.15 36.2 2.55 36.25 2.5 36.2 1.8 32.35 1.9 32.5 1.9 32.6 2.7 36.1 3.25 35.55 M15.5 42.85 L14.7 42.9 Q12.05 42.9 9.25 39.2 L7.35 36.75 6.7 35.85 6.75 35.8 8.9 38.55 Q11.35 41.45 13.0 42.0 L14.05 42.35 15.05 42.7 15.35 42.8 15.5 42.85 M4.15 43.3 L4.05 41.85 Q4.05 40.95 4.4 40.0 4.9 38.35 6.05 38.35 L6.25 38.4 Q6.05 38.45 5.9 38.65 L5.0 39.45 4.75 39.9 4.45 40.5 4.25 41.0 4.25 41.85 4.35 42.05 4.35 42.1 4.35 42.15 4.4 42.5 4.5 42.8 4.95 43.7 5.0 43.85 4.55 43.65 4.15 43.45 4.15 43.3" fill="#c8a6c1" fill-rule="evenodd" stroke="none"/>
      <path d="M43.85 20.9 L43.95 20.8 43.75 24.9 Q43.75 26.95 40.15 35.1 L40.0 34.9 41.95 30.25 Q43.75 25.75 43.75 24.35 L43.85 20.9 M42.65 38.95 L42.65 39.6 37.4 35.1 37.7 35.1 37.9 34.85 42.65 38.95 M28.7 43.6 L36.65 43.2 37.4 42.45 37.95 42.45 36.65 43.8 Q34.9 44.7 26.85 44.0 L27.0 43.85 27.8 43.6 28.0 43.7 28.7 43.6 M34.3 42.25 L33.9 42.25 36.85 37.95 Q37.25 38.1 37.6 38.4 L37.95 38.65 38.85 39.45 39.1 39.9 39.4 40.5 39.6 41.0 39.6 41.85 Q39.55 40.95 38.85 40.05 37.95 39.05 36.85 38.5 L34.3 42.25 M39.7 43.3 Q41.45 42.25 42.15 40.95 L42.4 40.95 Q41.75 42.9 38.85 44.55 L39.3 43.65 39.7 43.45 39.7 43.3 M0.0 20.9 L0.1 24.35 Q0.1 25.75 1.9 30.25 L3.85 34.9 3.7 35.1 Q0.1 26.95 0.1 24.9 L-0.05 20.8 0.0 20.9 M1.2 38.95 L5.95 34.85 6.2 35.1 6.45 35.1 1.2 39.6 1.2 38.95 M1.7 40.95 Q2.4 42.25 4.15 43.3 L4.15 43.45 4.55 43.65 5.0 44.55 Q2.15 42.9 1.45 40.95 L1.7 40.95 M6.25 38.4 Q6.6 38.1 7.0 37.95 L9.95 42.25 9.55 42.25 7.0 38.5 Q5.9 39.05 5.0 40.05 4.35 40.95 4.25 41.85 L4.25 41.0 4.45 40.5 4.75 39.9 5.0 39.45 5.9 38.65 Q6.05 38.45 6.25 38.4 M6.45 42.45 L7.2 43.2 15.15 43.6 15.85 43.7 16.1 43.6 16.85 43.85 17.0 44.0 Q8.95 44.7 7.2 43.8 L5.9 42.45 6.45 42.45" fill="#0b000a" fill-rule="evenodd" stroke="none"/>
      <path d="M43.75 20.95 L43.95 20.15 43.85 20.9 43.75 24.35 Q43.75 25.75 41.95 30.25 L40.0 34.9 40.15 35.1 40.65 35.55 40.65 35.75 40.7 36.2 41.3 36.25 41.4 36.2 42.1 32.35 41.95 32.5 42.5 30.5 42.65 38.95 37.9 34.85 37.55 34.55 37.95 34.45 Q39.2 34.4 39.75 33.55 L40.9 31.5 Q42.1 29.15 42.5 27.2 L43.65 22.8 43.75 20.95 M37.6 34.25 L38.1 34.15 37.25 34.35 37.6 34.25 M42.5 40.2 L42.15 40.95 Q41.45 42.25 39.7 43.3 L39.8 41.85 Q39.8 40.95 39.45 40.0 38.95 38.35 37.8 38.35 L37.6 38.4 Q37.25 38.1 36.85 37.95 L33.9 42.25 34.3 42.25 34.95 42.25 38.2 41.6 38.0 41.8 37.4 42.45 36.65 43.2 28.7 43.6 27.15 43.45 26.85 43.35 26.8 43.35 27.1 43.25 27.2 43.25 28.35 42.85 29.15 42.9 Q31.85 42.9 34.6 39.2 L36.5 36.75 37.15 35.85 37.1 35.8 42.4 40.2 42.5 40.2 M0.1 20.95 L0.2 22.8 1.4 27.2 Q1.8 29.15 2.95 31.5 L4.1 33.55 Q4.7 34.4 5.9 34.45 L6.3 34.55 5.95 34.85 1.2 38.95 1.4 30.5 1.9 32.5 1.8 32.35 2.5 36.2 2.55 36.25 3.15 36.2 3.25 35.75 3.25 35.55 3.7 35.1 3.85 34.9 1.9 30.25 Q0.1 25.75 0.1 24.35 L0.0 20.9 -0.05 20.15 0.1 20.95 M6.6 34.35 L5.8 34.15 6.25 34.25 6.6 34.35 M6.75 35.8 L6.7 35.85 7.35 36.75 9.25 39.2 Q12.05 42.9 14.7 42.9 L15.5 42.85 16.65 43.25 16.8 43.25 17.05 43.35 17.0 43.35 16.7 43.45 15.15 43.6 7.2 43.2 6.45 42.45 5.85 41.8 5.65 41.6 8.9 42.25 9.55 42.25 9.95 42.25 7.0 37.95 Q6.6 38.1 6.25 38.4 L6.05 38.35 Q4.9 38.35 4.4 40.0 4.05 40.95 4.05 41.85 L4.15 43.3 Q2.4 42.25 1.7 40.95 L1.4 40.2 1.45 40.2 6.75 35.8" fill="#4a3355" fill-rule="evenodd" stroke="none"/>
      <path d="M37.4 35.1 L37.35 35.0 37.25 34.9 37.2 34.35 37.6 34.25 37.25 34.35 37.5 34.55 37.55 34.55 37.9 34.85 37.7 35.1 37.4 35.1 M42.15 40.95 L42.5 40.2 42.6 40.7 42.5 40.95 42.4 40.95 42.15 40.95 M27.2 43.25 L27.1 43.25 27.15 43.2 27.2 43.25 M26.85 43.35 L27.15 43.45 28.7 43.6 28.0 43.7 27.8 43.6 27.0 43.85 26.85 44.0 26.85 43.35 M37.4 42.45 L38.0 41.8 38.2 41.95 38.2 42.4 37.95 42.45 37.4 42.45 M6.3 34.55 L6.35 34.55 6.6 34.35 6.25 34.25 6.65 34.35 6.6 34.9 6.55 35.0 6.45 35.1 6.2 35.1 5.95 34.85 6.3 34.55 M1.4 40.2 L1.7 40.95 1.45 40.95 1.4 40.95 1.25 40.7 Q1.25 40.3 1.4 40.2 M5.85 41.8 L6.45 42.45 5.9 42.45 5.65 42.4 5.65 41.95 5.85 41.8 M15.15 43.6 L16.7 43.45 17.0 43.35 17.0 44.0 16.85 43.85 16.1 43.6 15.85 43.7 15.15 43.6 M16.8 43.25 L16.65 43.25 16.7 43.2 16.8 43.25" fill="#000000" fill-rule="evenodd" stroke="none"/>
      <path d="M33.85 10.65 Q28.9 5.8 22.0 5.75 15.15 5.8 10.25 10.65 5.4 15.45 5.35 22.35 5.4 29.3 10.25 34.15 15.15 39.0 22.0 39.0 28.9 39.0 33.85 34.15 38.65 29.3 38.65 22.35 38.65 15.45 33.85 10.65 M41.0 22.35 Q41.0 30.2 35.4 35.7 29.9 41.4 22.0 41.4 14.1 41.4 8.6 35.7 3.05 30.2 3.05 22.35 3.05 14.4 8.6 8.9 14.1 3.35 22.0 3.35 29.9 3.35 35.4 8.9 41.0 14.4 41.0 22.35" fill="url(#gradient2)" fill-rule="evenodd" stroke="none"/>
    </g>
    <linearGradient gradientTransform="matrix(0.0, 0.0226, -0.0232, 0.0, 22.0, 22.55)" gradientUnits="userSpaceOnUse" id="gradient2" spreadMethod="pad" x1="-819.2" x2="819.2">
      <stop offset="0.0" stop-color="#3d2945"/>
      <stop offset="1.0" stop-color="#cabad6"/>
    </linearGradient>
    <g id="sprite1" transform="matrix(1.0, 0.0, 0.0, 1.0, 0.2, 0.0)">
      <use height="8.6" transform="matrix(1.0, 0.0, 0.0, 1.0, -0.2, 0.0)" width="35.05" xlink:href="#shape3"/>
    </g>
    <g id="shape3" transform="matrix(1.0, 0.0, 0.0, 1.0, 0.2, 0.0)">
      <path d="M34.4 4.4 Q34.85 5.8 34.85 7.65 L34.85 8.6 Q34.8 6.95 34.4 5.7 33.0 1.3 27.2 1.3 L7.45 1.3 Q0.05 1.3 -0.2 8.5 L-0.2 7.65 Q-0.2 0.0 7.45 0.0 L27.2 0.0 Q33.0 0.0 34.4 4.4" fill="#e7deda" fill-rule="evenodd" stroke="none"/>
    </g>
  </defs>
</svg>
