<?xml version="1.0" encoding="UTF-8" standalone="no"?>
<svg xmlns:xlink="http://www.w3.org/1999/xlink" height="66.825px" width="66.0px" xmlns="http://www.w3.org/2000/svg">
  <g transform="matrix(1.5, 0.0, 0.0, 1.5, -0.225, -0.075)">
    <use height="43.6" transform="matrix(1.0, 0.0, 0.0, 1.0, 0.3, 0.05)" width="43.65" xlink:href="#shape0"/>
    <use height="20.15" transform="matrix(1.1594, 0.0, 0.0, 1.1605, 6.35, 5.05)" width="28.2" xlink:href="#sprite0"/>
    <use height="41.2" transform="matrix(1.0, 0.0, 0.0, 1.0, 0.15, 3.4)" width="44.0" xlink:href="#shape2"/>
    <use height="8.6" transform="matrix(1.2077, 0.0, 0.0, 1.2065, 0.9585, 1.15)" width="35.05" xlink:href="#sprite1"/>
  </g>
  <defs>
    <g id="shape0" transform="matrix(1.0, 0.0, 0.0, 1.0, -0.3, -0.05)">
      <path d="M36.4 0.05 Q39.55 0.05 41.75 2.25 43.95 4.45 43.95 7.55 L43.95 36.15 Q43.95 39.25 41.75 41.45 39.55 43.65 36.4 43.65 L7.85 43.65 Q4.7 43.65 2.5 41.45 0.3 39.25 0.3 36.15 L0.3 7.55 Q0.3 4.45 2.5 2.25 4.7 0.05 7.85 0.05 L36.4 0.05" fill="url(#gradient0)" fill-rule="evenodd" stroke="none"/>
      <path d="M22.15 4.7 Q29.45 4.7 34.6 9.8 39.75 14.95 39.75 22.25 39.75 29.55 34.6 34.65 29.45 39.8 22.15 39.8 14.9 39.8 9.8 34.65 4.6 29.55 4.6 22.25 4.6 14.95 9.8 9.8 14.9 4.7 22.15 4.7" fill="url(#gradient1)" fill-rule="evenodd" stroke="none"/>
      <path d="M21.0 18.35 Q22.0 17.25 21.35 16.85 20.7 16.5 19.65 17.15 18.7 17.85 17.95 19.15 17.2 20.5 17.05 21.7 17.0 22.9 17.8 23.3 L18.95 23.4 19.6 21.3 Q20.0 19.5 21.0 18.35 M25.3 17.15 L25.25 17.2 Q27.0 18.95 27.0 21.4 27.0 23.9 25.25 25.6 23.5 27.35 21.05 27.35 19.45 27.35 18.15 26.6 19.85 28.25 22.2 28.25 24.7 28.25 26.4 26.5 28.15 24.75 28.15 22.3 28.15 19.8 26.4 18.1 25.9 17.55 25.3 17.15 M29.2 22.25 Q29.2 25.1 27.2 27.1 25.2 29.1 22.35 29.1 19.5 29.1 17.55 27.1 15.5 25.1 15.5 22.25 15.5 19.4 17.55 17.45 19.5 15.4 22.35 15.4 25.2 15.4 27.2 17.45 29.2 19.4 29.2 22.25 M27.95 16.7 Q25.6 14.35 22.35 14.35 19.1 14.35 16.8 16.7 14.45 19.0 14.45 22.25 14.45 25.5 16.8 27.85 19.1 30.15 22.35 30.15 25.6 30.15 27.95 27.85 30.25 25.5 30.25 22.25 30.25 19.0 27.95 16.7 M36.7 20.5 Q36.7 23.05 35.8 24.85 L35.85 24.85 Q35.0 26.3 34.0 26.35 33.45 26.35 33.05 25.95 34.3 23.5 34.3 20.5 34.3 17.45 33.1 15.05 33.5 14.7 34.0 14.65 35.0 14.7 35.85 16.2 L35.8 16.15 Q36.7 17.95 36.7 20.5 M31.55 15.25 L31.6 15.3 Q32.9 17.6 32.9 20.5 32.9 23.4 31.55 25.7 L31.5 25.8 29.8 27.9 Q26.75 31.05 22.35 31.05 18.0 31.05 14.9 27.9 L13.25 25.85 13.1 25.65 Q11.8 23.3 11.8 20.5 11.8 17.9 12.85 15.8 L12.9 15.8 13.95 14.2 14.05 13.7 14.8 12.9 Q17.95 9.75 22.35 9.75 26.8 9.75 29.95 12.9 L30.65 13.7 30.8 14.1 31.55 15.25 M11.4 15.65 Q10.4 17.85 10.4 20.5 10.4 23.55 11.75 26.05 11.15 26.85 10.4 26.9 9.35 26.8 8.6 25.35 7.65 23.55 7.65 21.0 7.65 18.5 8.6 16.7 L8.6 16.75 Q9.35 15.25 10.4 15.15 10.9 15.2 11.4 15.65 M16.6 33.2 Q16.2 32.6 16.15 31.95 16.25 31.3 16.7 30.65 19.25 31.95 22.3 31.95 25.8 31.95 28.8 30.15 29.7 31.0 29.7 31.95 29.65 32.9 28.9 33.65 L29.2 34.45 28.9 35.25 28.1 35.6 Q27.6 35.6 27.25 35.25 L27.0 34.85 25.6 35.3 25.6 35.5 25.3 36.3 Q24.95 36.65 24.5 36.65 24.0 36.65 23.65 36.3 23.3 35.95 23.3 35.55 L22.95 35.55 21.55 35.5 21.25 36.3 Q20.9 36.65 20.45 36.65 19.95 36.65 19.6 36.3 19.25 35.95 19.25 35.5 L19.35 35.0 18.4 34.6 18.35 34.65 17.55 35.0 Q17.05 35.0 16.7 34.65 16.35 34.3 16.35 33.85 16.35 33.45 16.6 33.2" fill="#92300b" fill-rule="evenodd" stroke="none"/>
    </g>
    <linearGradient gradientTransform="matrix(0.0, -0.0546, -0.0546, 0.0, 22.1, 18.2)" gradientUnits="userSpaceOnUse" id="gradient0" spreadMethod="pad" x1="-819.2" x2="819.2">
      <stop offset="0.011764705882352941" stop-color="#bf809f"/>
      <stop offset="1.0" stop-color="#543c7c"/>
    </linearGradient>
    <linearGradient gradientTransform="matrix(0.0, -0.0164, -0.0164, 0.0, 22.15, 18.85)" gradientUnits="userSpaceOnUse" id="gradient1" spreadMethod="pad" x1="-819.2" x2="819.2">
      <stop offset="0.011764705882352941" stop-color="#f9cfb3"/>
      <stop offset="1.0" stop-color="#ff5b79"/>
    </linearGradient>
    <g id="sprite0" transform="matrix(1.0, 0.0, 0.0, 1.0, 0.0, 0.0)">
      <use height="20.15" transform="matrix(1.0, 0.0, 0.0, 1.0, 0.0, 0.0)" width="28.2" xlink:href="#shape1"/>
    </g>
    <g id="shape1" transform="matrix(1.0, 0.0, 0.0, 1.0, 0.0, 0.0)">
      <path d="M27.65 18.45 L27.4 18.95 Q26.2 20.8 23.4 19.8 19.6 18.5 17.35 14.05 14.8 9.1 9.75 7.4 4.1 5.65 0.0 10.3 1.0 6.85 3.7 4.15 7.2 0.65 11.9 0.05 L14.8 0.05 18.4 0.65 Q21.55 1.65 24.05 4.15 28.2 8.3 28.2 14.25 28.2 16.45 27.65 18.45" fill="#ffffff" fill-opacity="0.19607843" fill-rule="evenodd" stroke="none"/>
    </g>
    <g id="shape2" transform="matrix(1.0, 0.0, 0.0, 1.0, -0.15, -3.4)">
      <path d="M43.95 21.0 L44.15 20.2 44.05 20.95 43.95 24.4 Q43.95 25.8 42.15 30.3 L40.2 34.95 40.35 35.15 40.85 35.6 40.85 35.8 40.9 36.25 41.5 36.3 41.6 36.25 42.3 32.4 42.15 32.55 42.7 30.55 42.85 39.0 38.1 34.9 37.75 34.6 38.15 34.5 Q39.4 34.45 39.95 33.6 L41.1 31.55 Q42.3 29.2 42.7 27.25 L43.85 22.85 43.95 21.0 M37.8 34.3 L38.3 34.2 37.45 34.4 37.8 34.3 M42.35 41.0 Q41.65 42.3 39.9 43.35 L40.0 41.9 39.65 40.05 Q39.15 38.4 38.0 38.4 L37.8 38.45 37.05 38.0 34.1 42.3 34.5 42.3 35.15 42.3 38.4 41.65 38.2 41.85 37.6 42.5 36.85 43.25 28.9 43.65 27.35 43.5 27.05 43.4 27.0 43.4 27.3 43.3 27.4 43.3 28.55 42.9 29.35 42.95 Q32.05 42.95 34.8 39.25 L36.7 36.8 37.35 35.9 37.3 35.85 42.6 40.25 42.7 40.25 42.35 41.0 M0.3 21.0 L0.4 22.85 1.6 27.25 Q2.0 29.2 3.15 31.55 L4.3 33.6 Q4.9 34.45 6.1 34.5 L6.5 34.6 6.15 34.9 1.4 39.0 1.6 30.55 2.1 32.55 2.0 32.4 2.7 36.25 2.75 36.3 3.35 36.25 3.45 35.8 3.45 35.6 3.9 35.15 4.05 34.95 2.1 30.3 Q0.3 25.8 0.3 24.4 L0.2 20.95 0.15 20.2 0.3 21.0 M6.8 34.4 L6.0 34.2 6.45 34.3 6.8 34.4 M6.95 35.85 L6.9 35.9 7.55 36.8 9.45 39.25 Q12.25 42.95 14.9 42.95 L15.7 42.9 16.85 43.3 17.0 43.3 17.25 43.4 17.2 43.4 16.9 43.5 15.35 43.65 7.4 43.25 6.65 42.5 6.05 41.85 5.85 41.65 9.1 42.3 9.75 42.3 10.15 42.3 7.2 38.0 6.45 38.45 6.25 38.4 Q5.1 38.4 4.6 40.05 4.25 41.0 4.25 41.9 L4.35 43.35 Q2.6 42.3 1.9 41.0 L1.6 40.25 1.65 40.25 6.95 35.85" fill="#4a3355" fill-rule="evenodd" stroke="none"/>
      <path d="M44.05 20.95 L44.15 20.85 43.95 24.95 Q43.95 27.0 40.35 35.15 L40.2 34.95 42.15 30.3 Q43.95 25.8 43.95 24.4 L44.05 20.95 M42.85 39.0 L42.85 39.65 37.6 35.15 37.9 35.15 38.1 34.9 42.85 39.0 M42.35 41.0 L42.6 41.0 Q41.95 42.95 39.05 44.6 L39.5 43.7 39.9 43.5 39.9 43.35 Q41.65 42.3 42.35 41.0 M28.9 43.65 L36.85 43.25 37.6 42.5 38.15 42.5 36.85 43.85 Q35.1 44.75 27.05 44.05 L27.2 43.9 28.0 43.65 28.2 43.75 28.9 43.65 M34.5 42.3 L34.1 42.3 37.05 38.0 37.8 38.45 38.15 38.7 39.05 39.5 39.3 39.95 39.6 40.55 39.8 41.05 39.8 41.9 Q39.75 41.0 39.05 40.1 38.15 39.1 37.05 38.55 L34.5 42.3 M0.2 20.95 L0.3 24.4 Q0.3 25.8 2.1 30.3 L4.05 34.95 3.9 35.15 Q0.3 27.0 0.3 24.95 L0.15 20.85 0.2 20.95 M1.4 39.0 L6.15 34.9 6.4 35.15 6.65 35.15 1.4 39.65 1.4 39.0 M1.9 41.0 Q2.6 42.3 4.35 43.35 L4.35 43.5 4.75 43.7 5.2 44.6 Q2.35 42.95 1.65 41.0 L1.9 41.0 M6.45 38.45 L7.2 38.0 10.15 42.3 9.75 42.3 7.2 38.55 Q6.1 39.1 5.2 40.1 4.55 41.0 4.45 41.9 L4.45 41.05 4.65 40.55 4.95 39.95 5.2 39.5 6.1 38.7 6.45 38.45 M6.65 42.5 L7.4 43.25 15.35 43.65 16.05 43.75 16.3 43.65 17.05 43.9 17.2 44.05 Q9.15 44.75 7.4 43.85 L6.1 42.5 6.65 42.5" fill="#0b000a" fill-rule="evenodd" stroke="none"/>
      <path d="M40.85 35.6 L41.35 36.15 42.15 32.65 42.15 32.55 42.3 32.4 41.6 36.25 41.5 36.3 40.9 36.25 40.85 35.8 40.85 35.6 M38.3 34.2 L39.1 34.1 Q41.1 32.0 42.85 25.9 L43.95 20.95 43.95 21.0 43.85 22.85 42.7 27.25 Q42.3 29.2 41.1 31.55 L39.95 33.6 Q39.4 34.45 38.15 34.5 L37.75 34.6 37.7 34.6 37.45 34.4 38.3 34.2 M39.9 43.35 L39.9 43.5 39.5 43.7 39.05 43.9 39.1 43.75 39.55 42.85 39.65 42.55 39.75 42.2 39.75 42.15 39.75 42.1 39.8 41.9 39.8 41.05 39.6 40.55 39.3 39.95 39.05 39.5 38.15 38.7 37.8 38.45 38.0 38.4 Q39.15 38.4 39.65 40.05 L40.0 41.9 39.9 43.35 M37.3 35.85 L37.35 35.9 36.7 36.8 34.8 39.25 Q32.05 42.95 29.35 42.95 L28.55 42.9 28.75 42.85 29.0 42.75 30.0 42.4 31.05 42.05 Q32.7 41.5 35.15 38.6 L37.3 35.85 M6.5 34.6 L6.1 34.5 Q4.9 34.45 4.3 33.6 L3.15 31.55 Q2.0 29.2 1.6 27.25 L0.4 22.85 0.3 21.0 0.3 20.95 1.4 25.9 Q3.15 32.0 5.15 34.1 L6.0 34.2 6.8 34.4 6.55 34.6 6.5 34.6 M3.45 35.6 L3.45 35.8 3.35 36.25 2.75 36.3 2.7 36.25 2.0 32.4 2.1 32.55 2.1 32.65 2.9 36.15 3.45 35.6 M15.7 42.9 L14.9 42.95 Q12.25 42.95 9.45 39.25 L7.55 36.8 6.9 35.9 6.95 35.85 9.1 38.6 Q11.55 41.5 13.2 42.05 L14.25 42.4 15.25 42.75 15.55 42.85 15.7 42.9 M4.35 43.35 L4.25 41.9 Q4.25 41.0 4.6 40.05 5.1 38.4 6.25 38.4 L6.45 38.45 6.1 38.7 5.2 39.5 4.95 39.95 4.65 40.55 4.45 41.05 4.45 41.9 4.55 42.1 4.55 42.15 4.55 42.2 4.6 42.55 4.7 42.85 5.15 43.75 5.2 43.9 4.75 43.7 4.35 43.5 4.35 43.35" fill="#c8a6c1" fill-rule="evenodd" stroke="none"/>
      <path d="M37.6 35.15 L37.55 35.05 37.45 34.95 37.4 34.4 37.8 34.3 37.45 34.4 37.7 34.6 37.75 34.6 38.1 34.9 37.9 35.15 37.6 35.15 M42.6 41.0 L42.35 41.0 42.7 40.25 42.8 40.75 42.7 41.0 42.6 41.0 M27.4 43.3 L27.3 43.3 27.35 43.25 27.4 43.3 M27.05 43.4 L27.35 43.5 28.9 43.65 28.2 43.75 28.0 43.65 27.2 43.9 27.05 44.05 27.05 43.4 M37.6 42.5 L38.2 41.85 38.4 42.0 38.4 42.45 38.15 42.5 37.6 42.5 M6.5 34.6 L6.55 34.6 6.8 34.4 6.45 34.3 6.85 34.4 6.8 34.95 6.75 35.05 6.65 35.15 6.4 35.15 6.15 34.9 6.5 34.6 M1.6 40.25 L1.9 41.0 1.65 41.0 1.6 41.0 1.45 40.75 Q1.45 40.35 1.6 40.25 M6.05 41.85 L6.65 42.5 6.1 42.5 5.85 42.45 5.85 42.0 Q5.9 41.85 6.05 41.85 M15.35 43.65 L16.9 43.5 17.2 43.4 17.2 44.05 17.05 43.9 16.3 43.65 16.05 43.75 15.35 43.65 M17.0 43.3 L16.85 43.3 16.9 43.25 17.0 43.3" fill="#000000" fill-rule="evenodd" stroke="none"/>
      <path d="M34.05 10.7 Q29.1 5.85 22.2 5.8 15.35 5.85 10.45 10.7 5.6 15.5 5.55 22.4 5.6 29.35 10.45 34.2 15.35 39.05 22.2 39.05 29.1 39.05 34.05 34.2 38.85 29.35 38.85 22.4 38.85 15.5 34.05 10.7 M41.2 22.4 Q41.2 30.25 35.6 35.75 30.1 41.45 22.2 41.45 14.3 41.45 8.8 35.75 3.25 30.25 3.25 22.4 3.25 14.45 8.8 8.95 14.3 3.4 22.2 3.4 30.1 3.4 35.6 8.95 41.2 14.45 41.2 22.4" fill="url(#gradient2)" fill-rule="evenodd" stroke="none"/>
    </g>
    <linearGradient gradientTransform="matrix(0.0, 0.0226, -0.0232, 0.0, 22.2, 22.6)" gradientUnits="userSpaceOnUse" id="gradient2" spreadMethod="pad" x1="-819.2" x2="819.2">
      <stop offset="0.0" stop-color="#3d2945"/>
      <stop offset="1.0" stop-color="#cabad6"/>
    </linearGradient>
    <g id="sprite1" transform="matrix(1.0, 0.0, 0.0, 1.0, 0.2, 0.0)">
      <use height="8.6" transform="matrix(1.0, 0.0, 0.0, 1.0, -0.2, 0.0)" width="35.05" xlink:href="#shape3"/>
    </g>
    <g id="shape3" transform="matrix(1.0, 0.0, 0.0, 1.0, 0.2, 0.0)">
      <path d="M34.85 8.6 Q34.8 6.95 34.4 5.7 33.0 1.3 27.2 1.3 L7.45 1.3 Q0.05 1.3 -0.2 8.5 L-0.2 7.65 Q-0.2 0.0 7.45 0.0 L27.2 0.0 Q33.0 0.0 34.4 4.4 34.85 5.8 34.85 7.65 L34.85 8.6" fill="#e7deda" fill-rule="evenodd" stroke="none"/>
    </g>
  </defs>
</svg>
