<?xml version="1.0" encoding="UTF-8" standalone="no"?>
<svg xmlns:xlink="http://www.w3.org/1999/xlink" height="66.825px" width="66.0px" xmlns="http://www.w3.org/2000/svg">
  <g transform="matrix(1.5, 0.0, 0.0, 1.5, 0.0, 0.15)">
    <use height="43.6" transform="matrix(1.0, 0.0, 0.0, 1.0, 0.15, -0.1)" width="43.65" xlink:href="#shape0"/>
    <use height="20.15" transform="matrix(1.1594, 0.0, 0.0, 1.1605, 6.2, 4.9)" width="28.2" xlink:href="#sprite0"/>
    <use height="41.2" transform="matrix(1.0, 0.0, 0.0, 1.0, 0.0, 3.25)" width="44.0" xlink:href="#shape2"/>
    <use height="8.6" transform="matrix(1.2077, 0.0, 0.0, 1.2065, 0.8085, 1.0)" width="35.05" xlink:href="#sprite1"/>
  </g>
  <defs>
    <g id="shape0" transform="matrix(1.0, 0.0, 0.0, 1.0, -0.15, 0.1)">
      <path d="M36.25 -0.1 Q39.4 -0.1 41.6 2.1 43.8 4.3 43.8 7.4 L43.8 36.0 Q43.8 39.1 41.6 41.3 39.4 43.5 36.25 43.5 L7.7 43.5 Q4.55 43.5 2.35 41.3 0.15 39.1 0.15 36.0 L0.15 7.4 Q0.15 4.3 2.35 2.1 4.55 -0.1 7.7 -0.1 L36.25 -0.1" fill="url(#gradient0)" fill-rule="evenodd" stroke="none"/>
      <path d="M22.0 4.55 Q29.3 4.55 34.45 9.65 39.6 14.8 39.6 22.1 39.6 29.4 34.45 34.5 29.3 39.65 22.0 39.65 14.75 39.65 9.65 34.5 4.45 29.4 4.45 22.1 4.45 14.8 9.65 9.65 14.75 4.55 22.0 4.55" fill="url(#gradient1)" fill-rule="evenodd" stroke="none"/>
      <path d="M27.05 15.7 L28.05 16.05 Q28.65 16.05 29.05 15.7 L29.5 14.75 Q29.5 14.15 29.1 13.8 28.7 13.35 28.15 13.35 27.55 13.35 27.1 13.8 26.7 14.15 26.7 14.75 26.7 15.3 27.05 15.7 M22.05 8.25 L22.05 8.2 22.1 8.25 Q25.7 11.1 30.6 13.4 L30.55 18.9 Q30.4 22.55 27.9 25.05 25.5 27.35 22.1 29.0 L22.05 29.0 Q18.65 27.35 16.2 25.05 13.7 22.55 13.55 18.9 L13.55 13.4 Q18.4 11.1 22.05 8.25 M22.05 10.5 Q21.45 10.5 21.05 10.95 20.65 11.3 20.65 11.9 20.65 12.45 21.05 12.9 21.45 13.25 22.05 13.25 22.65 13.25 23.05 12.9 23.45 12.45 23.45 11.9 23.45 11.3 23.05 10.95 22.65 10.5 22.05 10.5 M27.0 20.1 L27.0 17.0 Q24.15 15.7 22.05 14.05 19.95 15.7 17.15 17.0 L17.05 20.1 Q17.15 22.2 18.6 23.7 20.0 25.1 22.05 26.1 24.1 25.1 25.5 23.7 26.95 22.2 27.0 20.1 M18.6 30.7 Q19.35 30.15 20.0 30.15 21.0 30.15 21.0 31.1 L20.3 31.85 19.45 33.1 Q19.35 33.7 18.85 34.1 18.25 34.6 18.1 35.1 L18.1 39.15 16.05 39.15 16.05 35.1 16.0 35.0 15.8 34.75 15.05 34.2 14.25 33.7 12.6 32.45 12.45 32.2 12.4 32.15 11.95 31.4 Q11.6 30.8 11.6 30.3 11.6 28.7 13.65 28.7 15.05 28.7 16.05 30.0 17.1 31.3 17.75 31.3 L18.6 30.7 M17.15 15.7 Q17.5 15.3 17.5 14.75 17.5 14.15 17.15 13.8 16.7 13.35 16.1 13.35 15.5 13.35 15.15 13.8 14.7 14.15 14.75 14.75 14.75 15.3 15.2 15.7 15.6 16.05 16.15 16.05 16.75 16.05 17.15 15.7 M19.15 38.8 Q19.25 37.95 19.5 37.3 L19.5 34.9 Q20.2 34.35 21.15 34.9 L21.15 35.6 22.0 35.4 22.85 35.6 22.85 34.95 Q23.75 34.4 24.45 34.95 L24.45 37.4 24.65 37.85 24.85 39.35 24.85 39.55 19.1 39.55 19.1 39.4 19.15 38.8 M31.3 32.7 L29.7 34.0 28.9 34.5 28.15 35.0 27.9 35.3 27.85 35.35 27.85 39.45 25.85 39.45 25.85 35.35 25.1 34.4 Q24.6 34.0 24.45 33.4 L23.6 32.15 22.9 31.4 Q22.9 30.4 23.95 30.4 24.6 30.4 25.35 31.0 L26.2 31.55 Q26.8 31.55 27.85 30.3 28.9 29.0 30.25 29.0 32.35 29.0 32.35 30.6 L32.0 31.7 Q31.8 31.9 31.55 32.45 L31.5 32.5 31.3 32.7" fill="#92300b" fill-rule="evenodd" stroke="none"/>
    </g>
    <linearGradient gradientTransform="matrix(0.0, -0.0546, -0.0546, 0.0, 21.95, 18.05)" gradientUnits="userSpaceOnUse" id="gradient0" spreadMethod="pad" x1="-819.2" x2="819.2">
      <stop offset="0.011764705882352941" stop-color="#bf809f"/>
      <stop offset="1.0" stop-color="#543c7c"/>
    </linearGradient>
    <linearGradient gradientTransform="matrix(0.0, -0.0164, -0.0164, 0.0, 22.0, 18.7)" gradientUnits="userSpaceOnUse" id="gradient1" spreadMethod="pad" x1="-819.2" x2="819.2">
      <stop offset="0.011764705882352941" stop-color="#f9cfb3"/>
      <stop offset="1.0" stop-color="#ff5b79"/>
    </linearGradient>
    <g id="sprite0" transform="matrix(1.0, 0.0, 0.0, 1.0, 0.0, 0.0)">
      <use height="20.15" transform="matrix(1.0, 0.0, 0.0, 1.0, 0.0, 0.0)" width="28.2" xlink:href="#shape1"/>
    </g>
    <g id="shape1" transform="matrix(1.0, 0.0, 0.0, 1.0, 0.0, 0.0)">
      <path d="M27.65 18.45 L27.4 18.95 Q26.2 20.8 23.4 19.8 19.6 18.5 17.35 14.05 14.8 9.1 9.75 7.4 4.1 5.65 0.0 10.3 1.0 6.85 3.7 4.15 7.2 0.65 11.9 0.05 L14.8 0.05 18.4 0.65 Q21.55 1.65 24.05 4.15 28.2 8.3 28.2 14.25 28.2 16.45 27.65 18.45" fill="#ffffff" fill-opacity="0.19607843" fill-rule="evenodd" stroke="none"/>
    </g>
    <g id="shape2" transform="matrix(1.0, 0.0, 0.0, 1.0, 0.0, -3.25)">
      <path d="M43.8 20.85 L44.0 20.05 43.9 20.8 43.8 24.25 Q43.8 25.65 42.0 30.15 L40.05 34.8 40.2 35.0 40.7 35.45 40.7 35.65 40.75 36.1 41.35 36.15 41.45 36.1 42.15 32.25 42.0 32.4 42.55 30.4 42.7 38.85 37.95 34.75 37.6 34.45 38.0 34.35 Q39.25 34.3 39.8 33.45 L40.95 31.4 Q42.15 29.05 42.55 27.1 L43.7 22.7 43.8 20.85 M37.65 34.15 L38.15 34.05 37.3 34.25 37.65 34.15 M42.55 40.1 L42.2 40.85 Q41.5 42.15 39.75 43.2 L39.85 41.75 Q39.85 40.85 39.5 39.9 39.0 38.25 37.85 38.25 L37.65 38.3 36.9 37.85 33.95 42.15 34.35 42.15 35.0 42.15 38.25 41.5 38.05 41.7 37.45 42.35 36.7 43.1 28.75 43.5 27.2 43.35 26.9 43.25 26.85 43.25 27.15 43.15 27.25 43.15 28.4 42.75 29.2 42.8 Q31.9 42.8 34.65 39.1 L36.55 36.65 37.2 35.75 37.15 35.7 42.45 40.1 42.55 40.1 M0.15 20.85 L0.25 22.7 1.45 27.1 Q1.85 29.05 3.0 31.4 L4.15 33.45 Q4.75 34.3 5.95 34.35 L6.35 34.45 6.0 34.75 1.25 38.85 1.45 30.4 1.95 32.4 1.85 32.25 2.55 36.1 2.6 36.15 3.2 36.1 3.3 35.65 3.3 35.45 3.75 35.0 3.9 34.8 1.95 30.15 Q0.15 25.65 0.15 24.25 L0.05 20.8 0.0 20.05 0.15 20.85 M6.65 34.25 L5.85 34.05 6.3 34.15 6.65 34.25 M6.8 35.7 L6.75 35.75 7.4 36.65 9.3 39.1 Q12.1 42.8 14.75 42.8 L15.55 42.75 16.7 43.15 16.85 43.15 17.1 43.25 17.05 43.25 16.75 43.35 15.2 43.5 7.25 43.1 6.5 42.35 5.9 41.7 5.7 41.5 8.95 42.15 9.6 42.15 10.0 42.15 7.05 37.85 6.3 38.3 6.1 38.25 Q4.95 38.25 4.45 39.9 4.1 40.85 4.1 41.75 L4.2 43.2 Q2.45 42.15 1.75 40.85 L1.45 40.1 1.5 40.1 6.8 35.7" fill="#4a3355" fill-rule="evenodd" stroke="none"/>
      <path d="M43.9 20.8 L44.0 20.7 43.8 24.8 Q43.8 26.85 40.2 35.0 L40.05 34.8 42.0 30.15 Q43.8 25.65 43.8 24.25 L43.9 20.8 M42.7 38.85 L42.7 39.5 37.45 35.0 37.75 35.0 37.95 34.75 42.7 38.85 M28.75 43.5 L36.7 43.1 37.45 42.35 38.0 42.35 36.7 43.7 Q34.95 44.6 26.9 43.9 L27.05 43.75 27.85 43.5 28.05 43.6 28.75 43.5 M34.35 42.15 L33.95 42.15 36.9 37.85 37.65 38.3 38.0 38.55 38.9 39.35 39.15 39.8 39.45 40.4 39.65 40.9 39.65 41.75 Q39.6 40.85 38.9 39.95 38.0 38.95 36.9 38.4 L34.35 42.15 M39.75 43.2 Q41.5 42.15 42.2 40.85 L42.45 40.85 Q41.8 42.8 38.9 44.45 L39.35 43.55 39.75 43.35 39.75 43.2 M0.05 20.8 L0.15 24.25 Q0.15 25.65 1.95 30.15 L3.9 34.8 3.75 35.0 Q0.15 26.85 0.15 24.8 L0.0 20.7 0.05 20.8 M1.25 38.85 L6.0 34.75 6.25 35.0 6.5 35.0 1.25 39.5 1.25 38.85 M1.75 40.85 Q2.45 42.15 4.2 43.2 L4.2 43.35 4.6 43.55 5.05 44.45 Q2.2 42.8 1.5 40.85 L1.75 40.85 M6.3 38.3 L7.05 37.85 10.0 42.15 9.6 42.15 7.05 38.4 Q5.95 38.95 5.05 39.95 4.4 40.85 4.3 41.75 L4.3 40.9 4.5 40.4 4.8 39.8 5.05 39.35 5.95 38.55 6.3 38.3 M6.5 42.35 L7.25 43.1 15.2 43.5 15.9 43.6 16.15 43.5 16.9 43.75 17.05 43.9 Q9.0 44.6 7.25 43.7 L5.95 42.35 6.5 42.35" fill="#0b000a" fill-rule="evenodd" stroke="none"/>
      <path d="M40.7 35.45 L41.2 36.0 42.0 32.5 42.0 32.4 42.15 32.25 41.45 36.1 41.35 36.15 40.75 36.1 40.7 35.65 40.7 35.45 M38.15 34.05 L38.95 33.95 Q40.95 31.85 42.7 25.75 L43.8 20.8 43.8 20.85 43.7 22.7 42.55 27.1 Q42.15 29.05 40.95 31.4 L39.8 33.45 Q39.25 34.3 38.0 34.35 L37.6 34.45 37.55 34.45 37.3 34.25 38.15 34.05 M37.15 35.7 L37.2 35.75 36.55 36.65 34.65 39.1 Q31.9 42.8 29.2 42.8 L28.4 42.75 28.6 42.7 28.85 42.6 29.85 42.25 30.9 41.9 Q32.55 41.35 35.0 38.45 L37.15 35.7 M37.65 38.3 L37.85 38.25 Q39.0 38.25 39.5 39.9 39.85 40.85 39.85 41.75 L39.75 43.2 39.75 43.35 39.35 43.55 38.9 43.75 38.95 43.6 39.4 42.7 39.5 42.4 39.6 42.05 39.6 42.0 39.6 41.95 39.65 41.75 39.65 40.9 39.45 40.4 39.15 39.8 38.9 39.35 38.0 38.55 37.65 38.3 M6.35 34.45 L5.95 34.35 Q4.75 34.3 4.15 33.45 L3.0 31.4 Q1.85 29.05 1.45 27.1 L0.25 22.7 0.15 20.85 0.15 20.8 1.25 25.75 Q3.0 31.85 5.0 33.95 L5.85 34.05 6.65 34.25 6.4 34.45 6.35 34.45 M3.3 35.45 L3.3 35.65 3.2 36.1 2.6 36.15 2.55 36.1 1.85 32.25 1.95 32.4 1.95 32.5 2.75 36.0 3.3 35.45 M15.55 42.75 L14.75 42.8 Q12.1 42.8 9.3 39.1 L7.4 36.65 6.75 35.75 6.8 35.7 8.95 38.45 Q11.4 41.35 13.05 41.9 L14.1 42.25 15.1 42.6 15.4 42.7 15.55 42.75 M4.2 43.2 L4.1 41.75 Q4.1 40.85 4.45 39.9 4.95 38.25 6.1 38.25 L6.3 38.3 5.95 38.55 5.05 39.35 4.8 39.8 4.5 40.4 4.3 40.9 4.3 41.75 4.4 41.95 4.4 42.0 4.4 42.05 4.45 42.4 4.55 42.7 5.0 43.6 5.05 43.75 4.6 43.55 4.2 43.35 4.2 43.2" fill="#c8a6c1" fill-rule="evenodd" stroke="none"/>
      <path d="M37.45 35.0 L37.4 34.9 37.3 34.8 37.25 34.25 37.65 34.15 37.3 34.25 37.55 34.45 37.6 34.45 37.95 34.75 37.75 35.0 37.45 35.0 M42.2 40.85 L42.55 40.1 42.65 40.6 42.55 40.85 42.45 40.85 42.2 40.85 M27.25 43.15 L27.15 43.15 27.2 43.1 27.25 43.15 M26.9 43.25 L27.2 43.35 28.75 43.5 28.05 43.6 27.85 43.5 27.05 43.75 26.9 43.9 26.9 43.25 M37.45 42.35 L38.05 41.7 38.25 41.85 38.25 42.3 38.0 42.35 37.45 42.35 M6.35 34.45 L6.4 34.45 6.65 34.25 6.3 34.15 6.7 34.25 6.65 34.8 6.6 34.9 6.5 35.0 6.25 35.0 6.0 34.75 6.35 34.45 M1.45 40.1 L1.75 40.85 1.5 40.85 1.45 40.85 1.3 40.6 Q1.3 40.2 1.45 40.1 M5.9 41.7 L6.5 42.35 5.95 42.35 5.7 42.3 5.7 41.85 Q5.75 41.7 5.9 41.7 M15.2 43.5 L16.75 43.35 17.05 43.25 17.05 43.9 16.9 43.75 16.15 43.5 15.9 43.6 15.2 43.5 M16.85 43.15 L16.7 43.15 16.75 43.1 16.85 43.15" fill="#000000" fill-rule="evenodd" stroke="none"/>
      <path d="M41.05 22.25 Q41.05 30.1 35.45 35.6 29.95 41.3 22.05 41.3 14.15 41.3 8.65 35.6 3.1 30.1 3.1 22.25 3.1 14.3 8.65 8.8 14.15 3.25 22.05 3.25 29.95 3.25 35.45 8.8 41.05 14.3 41.05 22.25 M33.9 10.55 Q28.95 5.7 22.05 5.65 15.2 5.7 10.3 10.55 5.45 15.35 5.4 22.25 5.45 29.2 10.3 34.05 15.2 38.9 22.05 38.9 28.95 38.9 33.9 34.05 38.7 29.2 38.7 22.25 38.7 15.35 33.9 10.55" fill="url(#gradient2)" fill-rule="evenodd" stroke="none"/>
    </g>
    <linearGradient gradientTransform="matrix(0.0, 0.0226, -0.0232, 0.0, 22.05, 22.45)" gradientUnits="userSpaceOnUse" id="gradient2" spreadMethod="pad" x1="-819.2" x2="819.2">
      <stop offset="0.0" stop-color="#3d2945"/>
      <stop offset="1.0" stop-color="#cabad6"/>
    </linearGradient>
    <g id="sprite1" transform="matrix(1.0, 0.0, 0.0, 1.0, 0.2, 0.0)">
      <use height="8.6" transform="matrix(1.0, 0.0, 0.0, 1.0, -0.2, 0.0)" width="35.05" xlink:href="#shape3"/>
    </g>
    <g id="shape3" transform="matrix(1.0, 0.0, 0.0, 1.0, 0.2, 0.0)">
      <path d="M34.4 4.4 Q34.85 5.8 34.85 7.65 L34.85 8.6 Q34.8 6.95 34.4 5.7 33.0 1.3 27.2 1.3 L7.45 1.3 Q0.05 1.3 -0.2 8.5 L-0.2 7.65 Q-0.2 0.0 7.45 0.0 L27.2 0.0 Q33.0 0.0 34.4 4.4" fill="#e7deda" fill-rule="evenodd" stroke="none"/>
    </g>
  </defs>
</svg>
