<?xml version="1.0" encoding="UTF-8" standalone="no"?>
<svg xmlns:xlink="http://www.w3.org/1999/xlink" height="66.825px" width="66.0px" xmlns="http://www.w3.org/2000/svg">
  <g transform="matrix(1.5, 0.0, 0.0, 1.5, 0.0, 0.15)">
    <use height="43.6" transform="matrix(1.0, 0.0, 0.0, 1.0, 0.15, -0.1)" width="43.65" xlink:href="#shape0"/>
    <use height="20.15" transform="matrix(1.1594, 0.0, 0.0, 1.1605, 6.2, 4.9)" width="28.2" xlink:href="#sprite0"/>
    <use height="41.2" transform="matrix(1.0, 0.0, 0.0, 1.0, 0.0, 3.25)" width="44.0" xlink:href="#shape2"/>
    <use height="8.6" transform="matrix(1.2077, 0.0, 0.0, 1.2065, 0.8085, 1.0)" width="35.05" xlink:href="#sprite1"/>
  </g>
  <defs>
    <g id="shape0" transform="matrix(1.0, 0.0, 0.0, 1.0, -0.15, 0.1)">
      <path d="M36.25 -0.1 Q39.4 -0.1 41.6 2.1 43.8 4.3 43.8 7.4 L43.8 36.0 Q43.8 39.1 41.6 41.3 39.4 43.5 36.25 43.5 L7.7 43.5 Q4.55 43.5 2.35 41.3 0.15 39.1 0.15 36.0 L0.15 7.4 Q0.15 4.3 2.35 2.1 4.55 -0.1 7.7 -0.1 L36.25 -0.1" fill="url(#gradient0)" fill-rule="evenodd" stroke="none"/>
      <path d="M22.0 4.55 Q29.3 4.55 34.45 9.65 39.6 14.8 39.6 22.1 39.6 29.4 34.45 34.5 29.3 39.65 22.0 39.65 14.75 39.65 9.65 34.5 4.45 29.4 4.45 22.1 4.45 14.8 9.65 9.65 14.75 4.55 22.0 4.55" fill="url(#gradient1)" fill-rule="evenodd" stroke="none"/>
      <path d="M37.85 12.2 L31.7 14.2 30.6 15.0 30.35 15.1 Q30.1 16.3 28.9 17.55 26.35 18.65 23.15 18.65 21.9 18.5 21.95 17.5 L21.45 17.45 17.0 16.6 Q14.2 16.25 14.45 14.9 12.25 14.5 13.15 13.1 L14.4 13.2 Q14.35 12.8 15.1 12.75 L18.3 12.55 21.75 12.75 Q24.9 11.35 27.6 11.4 L28.8 11.4 Q31.55 9.9 33.2 7.55 L33.2 7.6 37.85 12.2 M17.8 25.65 Q16.45 25.2 15.65 25.65 L13.7 27.2 Q12.5 28.3 12.3 29.45 12.05 30.6 13.25 30.3 L14.1 30.1 17.5 29.25 17.5 29.2 18.75 28.85 Q19.8 28.5 19.5 27.35 19.2 26.2 17.8 25.65 M35.05 23.85 L34.7 24.35 35.15 24.65 Q37.65 26.3 38.95 28.25 35.45 32.85 31.0 36.85 L30.95 36.9 27.4 39.35 Q22.65 39.85 17.9 39.35 L13.45 37.6 13.4 37.65 Q9.35 35.8 5.65 29.8 6.8 26.9 10.25 24.65 L10.4 24.55 9.85 23.85 Q9.25 22.8 9.45 21.75 9.65 20.65 10.55 20.1 L12.5 20.0 Q13.55 20.35 14.15 21.4 L14.55 22.5 14.9 22.25 Q18.1 20.15 22.7 20.15 27.25 20.15 30.4 22.2 L30.75 21.4 Q31.35 20.35 32.4 20.0 L34.35 20.1 Q35.25 20.65 35.45 21.75 35.65 22.8 35.05 23.85 M32.0 29.65 Q31.7 28.65 31.05 27.8 L29.1 26.1 Q27.85 25.2 26.5 25.65 25.1 26.2 24.8 27.35 24.5 28.5 25.55 28.85 L26.4 29.05 30.8 30.25 31.05 30.3 Q32.25 30.6 32.0 29.65 M24.1 30.45 Q24.1 30.1 23.55 29.85 L22.25 29.65 20.95 29.85 Q20.4 30.1 20.4 30.45 20.4 30.8 20.95 31.0 L22.25 31.25 23.55 31.0 24.1 30.45 M16.7 11.35 Q20.85 7.8 28.5 9.95 22.3 9.5 16.7 11.35 M18.75 9.15 Q21.25 6.5 26.05 8.05 22.2 7.75 18.75 9.15" fill="#92300b" fill-rule="evenodd" stroke="none"/>
    </g>
    <linearGradient gradientTransform="matrix(0.0, -0.0546, -0.0546, 0.0, 21.95, 18.05)" gradientUnits="userSpaceOnUse" id="gradient0" spreadMethod="pad" x1="-819.2" x2="819.2">
      <stop offset="0.011764705882352941" stop-color="#bf809f"/>
      <stop offset="1.0" stop-color="#543c7c"/>
    </linearGradient>
    <linearGradient gradientTransform="matrix(0.0, -0.0164, -0.0164, 0.0, 22.0, 18.7)" gradientUnits="userSpaceOnUse" id="gradient1" spreadMethod="pad" x1="-819.2" x2="819.2">
      <stop offset="0.011764705882352941" stop-color="#f9cfb3"/>
      <stop offset="1.0" stop-color="#ff5b79"/>
    </linearGradient>
    <g id="sprite0" transform="matrix(1.0, 0.0, 0.0, 1.0, 0.0, 0.0)">
      <use height="20.15" transform="matrix(1.0, 0.0, 0.0, 1.0, 0.0, 0.0)" width="28.2" xlink:href="#shape1"/>
    </g>
    <g id="shape1" transform="matrix(1.0, 0.0, 0.0, 1.0, 0.0, 0.0)">
      <path d="M27.65 18.45 L27.4 18.95 Q26.2 20.8 23.4 19.8 19.6 18.5 17.35 14.05 14.8 9.1 9.75 7.4 4.1 5.65 0.0 10.3 1.0 6.85 3.7 4.15 7.2 0.65 11.9 0.05 L14.8 0.05 18.4 0.65 Q21.55 1.65 24.05 4.15 28.2 8.3 28.2 14.25 28.2 16.45 27.65 18.45" fill="#ffffff" fill-opacity="0.19607843" fill-rule="evenodd" stroke="none"/>
    </g>
    <g id="shape2" transform="matrix(1.0, 0.0, 0.0, 1.0, 0.0, -3.25)">
      <path d="M40.2 35.0 L40.05 34.8 42.0 30.15 Q43.8 25.65 43.8 24.25 L43.9 20.8 44.0 20.7 43.8 24.8 Q43.8 26.85 40.2 35.0 M37.95 34.75 L42.7 38.85 42.7 39.5 37.45 35.0 37.75 35.0 37.95 34.75 M42.2 40.85 L42.45 40.85 Q41.8 42.8 38.9 44.45 L39.35 43.55 39.75 43.35 39.75 43.2 Q41.5 42.15 42.2 40.85 M28.75 43.5 L36.7 43.1 37.45 42.35 38.0 42.35 36.7 43.7 Q34.95 44.6 26.9 43.9 L27.05 43.75 27.85 43.5 28.05 43.6 28.75 43.5 M34.35 42.15 L33.95 42.15 36.9 37.85 37.65 38.3 38.0 38.55 38.9 39.35 39.15 39.8 39.45 40.4 39.65 40.9 39.65 41.75 Q39.6 40.85 38.9 39.95 38.0 38.95 36.9 38.4 L34.35 42.15 M6.5 35.0 L1.25 39.5 1.25 38.85 6.0 34.75 6.25 35.0 6.5 35.0 M3.75 35.0 Q0.15 26.85 0.15 24.8 L0.0 20.7 0.05 20.8 0.15 24.25 Q0.15 25.65 1.95 30.15 L3.9 34.8 3.75 35.0 M1.75 40.85 Q2.45 42.15 4.2 43.2 L4.2 43.35 4.6 43.55 5.05 44.45 Q2.2 42.8 1.5 40.85 L1.75 40.85 M6.3 38.3 L7.05 37.85 10.0 42.15 9.6 42.15 7.05 38.4 Q5.95 38.95 5.05 39.95 4.4 40.85 4.3 41.75 L4.3 40.9 4.5 40.4 4.8 39.8 5.05 39.35 5.95 38.55 6.3 38.3 M6.5 42.35 L7.25 43.1 15.2 43.5 15.9 43.6 16.15 43.5 16.9 43.75 17.05 43.9 Q9.0 44.6 7.25 43.7 L5.95 42.35 6.5 42.35" fill="#0b000a" fill-rule="evenodd" stroke="none"/>
      <path d="M43.9 20.8 L43.8 24.25 Q43.8 25.65 42.0 30.15 L40.05 34.8 40.2 35.0 40.7 35.45 40.7 35.65 40.75 36.1 41.35 36.15 41.45 36.1 42.15 32.25 42.0 32.4 42.55 30.4 42.7 38.85 37.95 34.75 37.6 34.45 38.0 34.35 Q39.25 34.3 39.8 33.45 L40.95 31.4 Q42.15 29.05 42.55 27.1 L43.7 22.7 43.8 20.85 44.0 20.05 43.9 20.8 M42.2 40.85 Q41.5 42.15 39.75 43.2 L39.85 41.75 Q39.85 40.85 39.5 39.9 39.0 38.25 37.85 38.25 L37.65 38.3 36.9 37.85 33.95 42.15 34.35 42.15 35.0 42.15 38.25 41.5 38.05 41.7 37.45 42.35 36.7 43.1 28.75 43.5 27.2 43.35 26.9 43.25 26.85 43.25 27.15 43.15 27.25 43.15 28.4 42.75 29.2 42.8 Q31.9 42.8 34.65 39.1 L36.55 36.65 37.2 35.75 37.15 35.7 42.45 40.1 42.55 40.1 42.2 40.85 M37.65 34.15 L38.15 34.05 37.3 34.25 37.65 34.15 M5.85 34.05 L6.3 34.15 6.65 34.25 5.85 34.05 M1.25 38.85 L1.45 30.4 1.95 32.4 1.85 32.25 2.55 36.1 2.6 36.15 3.2 36.1 3.3 35.65 3.3 35.45 3.75 35.0 3.9 34.8 1.95 30.15 Q0.15 25.65 0.15 24.25 L0.05 20.8 0.0 20.05 0.15 20.85 0.25 22.7 1.45 27.1 Q1.85 29.05 3.0 31.4 L4.15 33.45 Q4.75 34.3 5.95 34.35 L6.35 34.45 6.0 34.75 1.25 38.85 M6.8 35.7 L6.75 35.75 7.4 36.65 9.3 39.1 Q12.1 42.8 14.75 42.8 L15.55 42.75 16.7 43.15 16.85 43.15 17.1 43.25 17.05 43.25 16.75 43.35 15.2 43.5 7.25 43.1 6.5 42.35 5.9 41.7 5.7 41.5 8.95 42.15 9.6 42.15 10.0 42.15 7.05 37.85 6.3 38.3 6.1 38.25 Q4.95 38.25 4.45 39.9 4.1 40.85 4.1 41.75 L4.2 43.2 Q2.45 42.15 1.75 40.85 L1.45 40.1 1.5 40.1 6.8 35.7" fill="#4a3355" fill-rule="evenodd" stroke="none"/>
      <path d="M43.8 20.85 L43.7 22.7 42.55 27.1 Q42.15 29.05 40.95 31.4 L39.8 33.45 Q39.25 34.3 38.0 34.35 L37.6 34.45 37.55 34.45 37.3 34.25 38.15 34.05 38.95 33.95 Q40.95 31.85 42.7 25.75 L43.8 20.8 43.8 20.85 M42.0 32.4 L42.15 32.25 41.45 36.1 41.35 36.15 40.75 36.1 40.7 35.65 40.7 35.45 41.2 36.0 42.0 32.5 42.0 32.4 M39.75 43.2 L39.75 43.35 39.35 43.55 38.9 43.75 38.95 43.6 39.4 42.7 39.5 42.4 39.6 42.05 39.6 42.0 39.6 41.95 39.65 41.75 39.65 40.9 39.45 40.4 39.15 39.8 38.9 39.35 38.0 38.55 37.65 38.3 37.85 38.25 Q39.0 38.25 39.5 39.9 39.85 40.85 39.85 41.75 L39.75 43.2 M37.15 35.7 L37.2 35.75 36.55 36.65 34.65 39.1 Q31.9 42.8 29.2 42.8 L28.4 42.75 28.6 42.7 28.85 42.6 29.85 42.25 30.9 41.9 Q32.55 41.35 35.0 38.45 L37.15 35.7 M0.15 20.85 L0.15 20.8 1.25 25.75 Q3.0 31.85 5.0 33.95 L5.85 34.05 6.65 34.25 6.4 34.45 6.35 34.45 5.95 34.35 Q4.75 34.3 4.15 33.45 L3.0 31.4 Q1.85 29.05 1.45 27.1 L0.25 22.7 0.15 20.85 M1.95 32.4 L1.95 32.5 2.75 36.0 3.3 35.45 3.3 35.65 3.2 36.1 2.6 36.15 2.55 36.1 1.85 32.25 1.95 32.4 M15.55 42.75 L14.75 42.8 Q12.1 42.8 9.3 39.1 L7.4 36.65 6.75 35.75 6.8 35.7 8.95 38.45 Q11.4 41.35 13.05 41.9 L14.1 42.25 15.1 42.6 15.4 42.7 15.55 42.75 M4.2 43.2 L4.1 41.75 Q4.1 40.85 4.45 39.9 4.95 38.25 6.1 38.25 L6.3 38.3 5.95 38.55 5.05 39.35 4.8 39.8 4.5 40.4 4.3 40.9 4.3 41.75 4.4 41.95 4.4 42.0 4.4 42.05 4.45 42.4 4.55 42.7 5.0 43.6 5.05 43.75 4.6 43.55 4.2 43.35 4.2 43.2" fill="#c8a6c1" fill-rule="evenodd" stroke="none"/>
      <path d="M37.6 34.45 L37.95 34.75 37.75 35.0 37.45 35.0 37.4 34.9 37.3 34.8 37.25 34.25 37.65 34.15 37.3 34.25 37.55 34.45 37.6 34.45 M42.45 40.85 L42.2 40.85 42.55 40.1 42.65 40.6 42.55 40.85 42.45 40.85 M27.25 43.15 L27.15 43.15 27.2 43.1 27.25 43.15 M26.9 43.25 L27.2 43.35 28.75 43.5 28.05 43.6 27.85 43.5 27.05 43.75 26.9 43.9 26.9 43.25 M37.45 42.35 L38.05 41.7 38.25 41.85 38.25 42.3 38.0 42.35 37.45 42.35 M6.3 34.15 L6.7 34.25 6.65 34.8 6.6 34.9 6.5 35.0 6.25 35.0 6.0 34.75 6.35 34.45 6.4 34.45 6.65 34.25 6.3 34.15 M1.45 40.1 L1.75 40.85 1.5 40.85 1.45 40.85 1.3 40.6 Q1.3 40.2 1.45 40.1 M5.9 41.7 L6.5 42.35 5.95 42.35 5.7 42.3 5.7 41.85 Q5.75 41.7 5.9 41.7 M15.2 43.5 L16.75 43.35 17.05 43.25 17.05 43.9 16.9 43.75 16.15 43.5 15.9 43.6 15.2 43.5 M16.85 43.15 L16.7 43.15 16.75 43.1 16.85 43.15" fill="#000000" fill-rule="evenodd" stroke="none"/>
      <path d="M41.05 22.25 Q41.05 30.1 35.45 35.6 29.95 41.3 22.05 41.3 14.15 41.3 8.65 35.6 3.1 30.1 3.1 22.25 3.1 14.3 8.65 8.8 14.15 3.25 22.05 3.25 29.95 3.25 35.45 8.8 41.05 14.3 41.05 22.25 M33.9 10.55 Q28.95 5.7 22.05 5.65 15.2 5.7 10.3 10.55 5.45 15.35 5.4 22.25 5.45 29.2 10.3 34.05 15.2 38.9 22.05 38.9 28.95 38.9 33.9 34.05 38.7 29.2 38.7 22.25 38.7 15.35 33.9 10.55" fill="url(#gradient2)" fill-rule="evenodd" stroke="none"/>
    </g>
    <linearGradient gradientTransform="matrix(0.0, 0.0226, -0.0232, 0.0, 22.05, 22.45)" gradientUnits="userSpaceOnUse" id="gradient2" spreadMethod="pad" x1="-819.2" x2="819.2">
      <stop offset="0.0" stop-color="#3d2945"/>
      <stop offset="1.0" stop-color="#cabad6"/>
    </linearGradient>
    <g id="sprite1" transform="matrix(1.0, 0.0, 0.0, 1.0, 0.2, 0.0)">
      <use height="8.6" transform="matrix(1.0, 0.0, 0.0, 1.0, -0.2, 0.0)" width="35.05" xlink:href="#shape3"/>
    </g>
    <g id="shape3" transform="matrix(1.0, 0.0, 0.0, 1.0, 0.2, 0.0)">
      <path d="M34.4 4.4 Q34.85 5.8 34.85 7.65 L34.85 8.6 Q34.8 6.95 34.4 5.7 33.0 1.3 27.2 1.3 L7.45 1.3 Q0.05 1.3 -0.2 8.5 L-0.2 7.65 Q-0.2 0.0 7.45 0.0 L27.2 0.0 Q33.0 0.0 34.4 4.4" fill="#e7deda" fill-rule="evenodd" stroke="none"/>
    </g>
  </defs>
</svg>
