<?xml version="1.0" encoding="UTF-8" standalone="no"?>
<svg xmlns:xlink="http://www.w3.org/1999/xlink" height="66.0px" width="66.0px" xmlns="http://www.w3.org/2000/svg">
  <g transform="matrix(1.5, 0.0, 0.0, 1.5, -0.15, -0.15)">
    <use height="44.0" transform="matrix(1.0, 0.0, 0.0, 1.0, 0.1, 0.1)" width="44.0" xlink:href="#shape0"/>
    <use height="20.15" transform="matrix(1.1548, 0.0, 0.0, 1.1548, 6.0, 5.55)" width="28.2" xlink:href="#sprite0"/>
    <use height="8.6" transform="matrix(1.2077, 0.0, 0.0, 1.2065, 1.0585, 1.0)" width="35.05" xlink:href="#sprite1"/>
  </g>
  <defs>
    <g id="shape0" transform="matrix(1.0, 0.0, 0.0, 1.0, -0.1, -0.1)">
      <path d="M41.9 2.35 Q44.1 4.55 44.1 7.7 L44.1 36.5 Q44.1 39.7 41.9 41.9 39.7 44.1 36.5 44.1 L7.7 44.1 Q4.55 44.1 2.35 41.9 0.1 39.7 0.1 36.5 L0.1 7.7 Q0.1 4.55 2.35 2.35 4.55 0.1 7.7 0.1 L36.5 0.1 Q39.65 0.1 41.9 2.35" fill="url(#gradient0)" fill-rule="evenodd" stroke="none"/>
      <path d="M9.35 9.65 Q14.65 4.4 22.0 4.4 29.4 4.4 34.6 9.65 39.8 14.9 39.8 22.25 39.8 29.65 34.6 34.95 29.4 40.15 22.0 40.15 14.55 40.15 9.35 34.95 4.15 29.65 4.15 22.25 4.15 14.9 9.35 9.65" fill="url(#gradient1)" fill-rule="evenodd" stroke="none"/>
      <path d="M25.15 4.05 Q28.95 4.6 31.95 6.55 L29.6 10.25 Q27.35 8.75 24.4 8.25 L25.15 4.05 M40.1 18.35 L35.95 19.35 Q35.3 16.65 33.6 14.2 L37.15 11.65 Q39.35 14.85 40.1 18.35 M6.1 12.15 L9.75 14.5 Q8.35 16.8 7.8 19.75 L3.4 19.0 Q4.2 15.2 6.1 12.15 M18.05 4.1 L18.85 8.25 Q16.1 8.85 13.65 10.5 L11.3 6.95 Q14.5 4.65 18.05 4.1 M18.6 40.65 L18.45 40.65 Q14.7 39.9 11.75 37.95 L14.1 34.35 Q16.25 35.7 19.25 36.35 L19.35 36.35 18.6 40.65 M33.9 30.0 Q35.4 27.75 35.95 24.9 L40.2 25.6 Q39.55 29.45 37.55 32.35 L33.9 30.0 M25.85 40.5 L24.95 36.35 Q27.55 35.7 30.0 34.0 L32.5 37.6 Q29.25 39.75 25.85 40.5 M10.0 30.4 L6.45 32.9 Q4.35 29.7 3.55 26.2 L7.85 25.35 Q8.35 28.0 10.0 30.4" fill="#4a3355" fill-rule="evenodd" stroke="none"/>
      <path d="M18.45 17.75 L18.45 18.1 Q18.5 20.5 20.95 20.1 L24.4 20.3 Q28.05 21.6 27.95 24.05 L27.95 24.4 27.95 24.45 27.9 24.65 27.9 24.7 27.85 24.85 Q27.6 25.7 26.05 26.6 24.15 27.45 22.25 27.0 L22.0 26.9 Q17.4 25.7 14.5 27.05 13.25 25.7 14.25 24.4 15.2 22.9 18.0 23.55 L19.65 23.8 22.65 24.1 Q20.05 23.95 18.25 22.5 15.45 20.3 18.45 17.75 M28.5 25.6 Q32.65 28.2 29.35 31.8 22.55 34.75 15.3 31.8 13.4 30.8 11.85 33.45 10.35 31.0 11.95 29.65 L13.8 28.3 Q15.2 27.5 17.05 27.4 L18.6 27.35 21.75 27.85 21.7 27.85 24.95 28.05 25.8 27.85 Q27.0 27.4 27.95 26.2 L28.5 25.6" fill="#4a3355" fill-rule="evenodd" stroke="none"/>
      <path d="M21.75 9.95 Q21.3 10.35 21.35 10.8 21.35 11.25 21.75 11.75 22.4 12.35 21.75 13.35 21.25 13.9 21.45 14.5 L21.75 15.1 M24.45 9.95 Q23.95 10.35 24.0 10.8 24.0 11.25 24.45 11.75 25.15 12.35 24.45 13.35 23.9 13.9 24.15 14.5 L24.45 15.1 M18.9 9.95 Q18.45 10.35 18.45 10.8 18.45 11.25 18.9 11.75 19.6 12.35 18.9 13.35 18.4 13.9 18.65 14.5 L18.9 15.1" fill="none" stroke="#4a3355" stroke-linecap="round" stroke-linejoin="round" stroke-width="1.0"/>
      <path d="M35.35 8.7 Q40.95 14.2 40.95 22.15 40.95 30.0 35.35 35.55 29.85 41.2 21.95 41.2 14.0 41.2 8.5 35.55 2.95 30.0 2.95 22.15 2.95 14.2 8.5 8.7 14.0 3.1 21.95 3.1 29.85 3.1 35.35 8.7 M33.8 10.45 Q28.85 5.55 21.95 5.5 15.05 5.55 10.2 10.45 5.3 15.25 5.25 22.15 5.3 29.1 10.2 33.95 15.05 38.85 21.95 38.85 28.85 38.85 33.8 33.95 38.6 29.1 38.6 22.15 38.6 15.25 33.8 10.45" fill="url(#gradient2)" fill-rule="evenodd" stroke="none"/>
      <path d="M1.05 36.25 L1.0 35.85 Q1.0 34.85 1.7 34.15 2.45 33.45 3.4 33.45 4.35 33.45 5.05 34.15 5.75 34.85 5.75 35.85 L5.75 36.15 Q3.25 33.3 1.05 36.25" fill="#494136" fill-rule="evenodd" stroke="none"/>
      <path d="M5.75 36.15 Q5.65 36.9 5.05 37.5 4.35 38.2 3.4 38.2 2.45 38.2 1.7 37.5 1.15 36.9 1.05 36.25 3.25 33.3 5.75 36.15" fill="#625748" fill-rule="evenodd" stroke="none"/>
      <path d="M6.1 38.1 L6.05 37.85 Q6.05 37.25 6.5 36.8 6.9 36.4 7.5 36.4 8.1 36.4 8.5 36.8 8.95 37.25 8.95 37.85 L8.95 38.05 6.1 38.1" fill="#494136" fill-rule="evenodd" stroke="none"/>
      <path d="M8.95 38.05 L8.5 38.85 Q8.1 39.25 7.5 39.25 6.9 39.25 6.5 38.85 L6.1 38.1 8.95 38.05" fill="#625748" fill-rule="evenodd" stroke="none"/>
      <path d="M3.1 41.0 L3.05 40.75 Q3.05 40.15 3.5 39.7 3.9 39.3 4.5 39.3 5.1 39.3 5.5 39.7 5.95 40.15 5.95 40.75 L5.95 40.95 3.1 41.0" fill="#494136" fill-rule="evenodd" stroke="none"/>
      <path d="M5.95 40.95 L5.5 41.75 Q5.1 42.15 4.5 42.15 3.9 42.15 3.5 41.75 L3.1 41.0 5.95 40.95" fill="#625748" fill-rule="evenodd" stroke="none"/>
      <path d="M7.8 41.65 L7.8 41.5 Q7.8 41.05 8.1 40.7 8.45 40.4 8.9 40.4 9.3 40.4 9.65 40.7 10.0 41.05 10.0 41.5 L10.0 41.65 Q8.8 40.3 7.8 41.65" fill="#494136" fill-rule="evenodd" stroke="none"/>
      <path d="M10.0 41.65 L9.65 42.25 Q9.3 42.6 8.9 42.6 8.45 42.6 8.1 42.25 L7.8 41.65 Q8.8 40.3 10.0 41.65" fill="#625748" fill-rule="evenodd" stroke="none"/>
      <path d="M37.75 36.15 Q40.25 33.3 42.45 36.25 L41.8 37.5 Q41.05 38.2 40.1 38.2 39.15 38.2 38.45 37.5 37.85 36.9 37.75 36.15" fill="#625748" fill-rule="evenodd" stroke="none"/>
      <path d="M37.75 36.15 L37.75 35.85 Q37.75 34.85 38.45 34.15 39.15 33.45 40.1 33.45 41.05 33.45 41.8 34.15 42.5 34.85 42.5 35.85 L42.45 36.25 Q40.25 33.3 37.75 36.15" fill="#494136" fill-rule="evenodd" stroke="none"/>
      <path d="M34.55 38.05 L34.55 37.85 Q34.55 37.25 35.0 36.8 35.4 36.4 36.0 36.4 36.6 36.4 37.0 36.8 37.45 37.25 37.45 37.85 L37.4 38.1 34.55 38.05" fill="#494136" fill-rule="evenodd" stroke="none"/>
      <path d="M34.55 38.05 L37.4 38.1 37.0 38.85 Q36.6 39.25 36.0 39.25 35.4 39.25 35.0 38.85 L34.55 38.05" fill="#625748" fill-rule="evenodd" stroke="none"/>
      <path d="M37.55 40.95 L37.55 40.75 Q37.55 40.15 38.0 39.7 38.4 39.3 39.0 39.3 39.6 39.3 40.0 39.7 40.45 40.15 40.45 40.75 L40.4 41.0 37.55 40.95" fill="#494136" fill-rule="evenodd" stroke="none"/>
      <path d="M37.55 40.95 L40.4 41.0 40.0 41.75 Q39.6 42.15 39.0 42.15 38.4 42.15 38.0 41.75 L37.55 40.95" fill="#625748" fill-rule="evenodd" stroke="none"/>
      <path d="M33.5 41.65 L33.5 41.5 Q33.5 41.05 33.85 40.7 34.2 40.4 34.6 40.4 L35.4 40.7 35.7 41.5 35.7 41.65 Q34.7 40.3 33.5 41.65" fill="#494136" fill-rule="evenodd" stroke="none"/>
      <path d="M33.5 41.65 Q34.7 40.3 35.7 41.65 L35.4 42.25 34.6 42.6 Q34.2 42.6 33.85 42.25 L33.5 41.65" fill="#625748" fill-rule="evenodd" stroke="none"/>
    </g>
    <linearGradient gradientTransform="matrix(0.0, -0.0551, -0.0551, 0.0, 22.15, 18.55)" gradientUnits="userSpaceOnUse" id="gradient0" spreadMethod="pad" x1="-819.2" x2="819.2">
      <stop offset="0.011764705882352941" stop-color="#bcb0a0"/>
      <stop offset="1.0" stop-color="#453e3a"/>
    </linearGradient>
    <linearGradient gradientTransform="matrix(0.0, -0.0167, -0.0167, 0.0, 22.0, 18.9)" gradientUnits="userSpaceOnUse" id="gradient1" spreadMethod="pad" x1="-819.2" x2="819.2">
      <stop offset="0.011764705882352941" stop-color="#bcb9ae"/>
      <stop offset="1.0" stop-color="#9b5b79"/>
    </linearGradient>
    <linearGradient gradientTransform="matrix(1.0E-4, 0.0223, -0.0232, 1.0E-4, 22.0, 22.4)" gradientUnits="userSpaceOnUse" id="gradient2" spreadMethod="pad" x1="-819.2" x2="819.2">
      <stop offset="0.011764705882352941" stop-color="#494136"/>
      <stop offset="1.0" stop-color="#dbccbd"/>
    </linearGradient>
    <g id="sprite0" transform="matrix(1.0, 0.0, 0.0, 1.0, 0.0, 0.0)">
      <use height="20.15" transform="matrix(1.0, 0.0, 0.0, 1.0, 0.0, 0.0)" width="28.2" xlink:href="#shape1"/>
    </g>
    <g id="shape1" transform="matrix(1.0, 0.0, 0.0, 1.0, 0.0, 0.0)">
      <path d="M27.4 18.95 Q26.2 20.8 23.4 19.8 19.6 18.5 17.35 14.05 14.8 9.1 9.75 7.4 4.1 5.65 0.0 10.3 1.0 6.85 3.7 4.15 7.2 0.65 11.9 0.05 L14.8 0.05 18.4 0.65 Q21.55 1.65 24.05 4.15 28.2 8.3 28.2 14.25 28.2 16.45 27.65 18.45 L27.4 18.95" fill="#ffffff" fill-opacity="0.19607843" fill-rule="evenodd" stroke="none"/>
    </g>
    <g id="sprite1" transform="matrix(1.0, 0.0, 0.0, 1.0, 0.2, 0.0)">
      <use height="8.6" transform="matrix(1.0, 0.0, 0.0, 1.0, -0.2, 0.0)" width="35.05" xlink:href="#shape2"/>
    </g>
    <g id="shape2" transform="matrix(1.0, 0.0, 0.0, 1.0, 0.2, 0.0)">
      <path d="M34.4 4.4 Q34.85 5.8 34.85 7.65 L34.85 8.6 Q34.8 6.95 34.4 5.7 33.0 1.3 27.2 1.3 L7.45 1.3 Q0.05 1.3 -0.2 8.5 L-0.2 7.65 Q-0.2 0.0 7.45 0.0 L27.2 0.0 Q33.0 0.0 34.4 4.4" fill="#e7deda" fill-rule="evenodd" stroke="none"/>
    </g>
  </defs>
</svg>
