<?xml version="1.0" encoding="UTF-8" standalone="no"?>
<svg xmlns:xlink="http://www.w3.org/1999/xlink" height="66.15px" width="66.0px" xmlns="http://www.w3.org/2000/svg">
  <g transform="matrix(1.5, 0.0, 0.0, 1.5, -0.075, -0.225)">
    <use height="44.1" transform="matrix(1.0, 0.0, 0.0, 1.0, 0.05, 0.15)" width="44.0" xlink:href="#shape0"/>
    <use height="8.6" transform="matrix(1.2077, 0.0, 0.0, 1.2065, 1.0085, 0.95)" width="35.05" xlink:href="#sprite0"/>
    <use height="41.05" transform="matrix(1.0, 0.0, 0.0, 1.0, 0.75, 3.2)" width="42.65" xlink:href="#shape2"/>
    <use height="20.15" transform="matrix(1.1594, 0.0, 0.0, 1.1605, 5.65, 5.7)" width="28.2" xlink:href="#sprite1"/>
    <use height="27.35" transform="matrix(1.0, 0.0, 0.0, 1.0, 9.25, 8.7)" width="26.45" xlink:href="#shape4"/>
  </g>
  <defs>
    <g id="shape0" transform="matrix(1.0, 0.0, 0.0, 1.0, -0.05, -0.15)">
      <path d="M16.45 43.2 L15.35 42.35 28.75 42.35 28.75 44.25 20.15 44.25 Q18.05 44.2 16.45 43.2" fill="url(#gradient0)" fill-rule="evenodd" stroke="none"/>
      <path d="M28.75 42.35 L33.15 42.35 33.15 44.25 28.75 44.25 28.75 42.35 M20.15 44.25 L16.45 44.25 16.45 43.2 Q18.05 44.2 20.15 44.25" fill="url(#gradient1)" fill-rule="evenodd" stroke="none"/>
      <path d="M35.0 44.25 L35.0 42.35 43.9 42.35 Q41.85 44.25 38.85 44.25 L35.0 44.25" fill="url(#gradient2)" fill-rule="evenodd" stroke="none"/>
      <path d="M41.85 42.0 Q39.65 44.2 36.45 44.2 L7.65 44.2 Q4.5 44.2 2.3 42.0 0.05 39.8 0.05 36.6 L0.05 7.75 Q0.05 4.65 2.3 2.45 4.5 0.15 7.65 0.15 L36.45 0.15 Q39.6 0.15 41.85 2.45 44.05 4.65 44.05 7.75 L44.05 36.6 Q44.05 39.8 41.85 42.0" fill="url(#gradient3)" fill-rule="evenodd" stroke="none"/>
    </g>
    <linearGradient gradientTransform="matrix(0.0, -0.0555, -0.0554, 0.0, 34.8, 18.55)" gradientUnits="userSpaceOnUse" id="gradient0" spreadMethod="pad" x1="-819.2" x2="819.2">
      <stop offset="0.011764705882352941" stop-color="#e8e1b7"/>
      <stop offset="1.0" stop-color="#eed731"/>
    </linearGradient>
    <linearGradient gradientTransform="matrix(0.0, -0.0555, -0.0554, 0.0, 22.5, 18.55)" gradientUnits="userSpaceOnUse" id="gradient1" spreadMethod="pad" x1="-819.2" x2="819.2">
      <stop offset="0.011764705882352941" stop-color="#e8e1b7"/>
      <stop offset="1.0" stop-color="#eed731"/>
    </linearGradient>
    <linearGradient gradientTransform="matrix(0.0, -0.0555, -0.0554, 0.0, 24.4, 18.55)" gradientUnits="userSpaceOnUse" id="gradient2" spreadMethod="pad" x1="-819.2" x2="819.2">
      <stop offset="0.011764705882352941" stop-color="#e8e1b7"/>
      <stop offset="1.0" stop-color="#eed731"/>
    </linearGradient>
    <linearGradient gradientTransform="matrix(0.0, -0.0283, -0.0551, 0.0, 22.65, 22.15)" gradientUnits="userSpaceOnUse" id="gradient3" spreadMethod="pad" x1="-819.2" x2="819.2">
      <stop offset="0.011764705882352941" stop-color="#9dae7c"/>
      <stop offset="1.0" stop-color="#7e8f45"/>
    </linearGradient>
    <g id="sprite0" transform="matrix(1.0, 0.0, 0.0, 1.0, 0.2, 0.0)">
      <use height="8.6" transform="matrix(1.0, 0.0, 0.0, 1.0, -0.2, 0.0)" width="35.05" xlink:href="#shape1"/>
    </g>
    <g id="shape1" transform="matrix(1.0, 0.0, 0.0, 1.0, 0.2, 0.0)">
      <path d="M34.4 4.4 Q34.85 5.8 34.85 7.65 L34.85 8.6 Q34.8 6.95 34.4 5.7 33.0 1.3 27.2 1.3 L7.45 1.3 Q0.05 1.3 -0.2 8.5 L-0.2 7.65 Q-0.2 0.0 7.45 0.0 L27.2 0.0 Q33.0 0.0 34.4 4.4" fill="#e7deda" fill-rule="evenodd" stroke="none"/>
    </g>
    <g id="shape2" transform="matrix(1.0, 0.0, 0.0, 1.0, -0.75, -3.2)">
      <path d="M8.9 9.1 Q14.35 3.65 22.1 3.65 29.8 3.65 35.25 9.1 40.65 14.55 40.65 22.2 40.65 29.95 35.25 35.4 29.8 40.8 22.1 40.8 14.35 40.8 8.9 35.4 3.45 29.95 3.45 22.2 3.45 14.5 8.9 9.1" fill="url(#gradient4)" fill-rule="evenodd" stroke="none"/>
      <path d="M40.9 22.2 Q40.9 30.1 35.3 35.65 29.8 41.3 21.9 41.3 13.95 41.3 8.45 35.65 2.9 30.1 2.9 22.2 2.9 14.25 8.45 8.75 13.95 3.2 21.9 3.2 29.8 3.2 35.3 8.75 40.9 14.25 40.9 22.2 M33.75 10.5 Q28.8 5.65 21.9 5.55 15.0 5.65 10.15 10.5 5.25 15.3 5.2 22.2 5.25 29.2 10.15 34.05 15.0 38.95 21.9 38.95 28.8 38.95 33.75 34.05 38.55 29.2 38.55 22.2 38.55 15.3 33.75 10.5" fill="url(#gradient5)" fill-rule="evenodd" stroke="none"/>
      <path d="M0.9 33.1 Q1.2 30.75 2.45 29.55 L2.85 27.85 Q3.0 26.85 2.75 25.8 L2.45 24.75 1.8 23.4 2.85 24.5 3.7 25.7 4.0 27.1 Q4.1 28.0 3.4 29.8 2.75 31.4 2.6 33.6 L2.5 33.35 2.45 33.6 Q1.9 36.4 3.05 38.35 3.6 39.3 4.3 39.85 L4.0 39.35 4.1 39.4 4.35 39.9 Q4.95 40.65 5.8 40.8 6.9 41.0 7.95 40.1 9.2 39.15 8.25 37.8 L8.3 38.65 Q8.1 39.6 6.75 40.05 L5.75 40.25 5.75 40.15 5.65 38.95 Q5.6 37.2 7.05 36.3 8.55 35.35 10.05 36.9 L11.25 38.7 Q11.2 36.85 10.3 35.9 L10.45 36.05 Q11.15 36.8 11.45 37.75 L11.4 37.75 11.55 38.15 11.85 39.0 11.9 40.15 Q10.5 43.05 8.7 43.05 10.0 42.85 10.1 41.7 7.2 42.9 3.75 41.2 1.25 39.25 0.9 33.1" fill="#9ec087" fill-rule="evenodd" stroke="none"/>
      <path d="M11.9 40.15 Q11.8 41.3 11.15 42.4 10.15 44.2 7.05 44.25 L4.15 43.95 5.65 43.5 7.85 43.2 6.6 43.3 Q4.45 43.25 2.9 41.75 1.0 39.7 0.8 35.6 0.7 34.2 0.9 33.1 1.25 39.25 3.75 41.2 7.2 42.9 10.1 41.7 10.0 42.85 8.7 43.05 10.5 43.05 11.9 40.15" fill="#648a4a" fill-rule="evenodd" stroke="none"/>
      <path d="M2.45 33.6 L2.5 33.35 2.6 33.6 2.45 33.6" fill="#00632e" fill-rule="evenodd" stroke="none"/>
      <path d="M2.6 33.6 L2.65 34.9 Q3.0 36.65 3.85 37.8 L3.95 37.2 Q4.65 35.2 7.35 34.65 L9.25 35.1 10.3 35.9 Q11.2 36.85 11.25 38.7 L10.05 36.9 Q8.55 35.35 7.05 36.3 5.6 37.2 5.65 38.95 L5.75 40.15 5.75 40.25 6.75 40.05 Q8.1 39.6 8.3 38.65 L8.25 37.8 Q9.2 39.15 7.95 40.1 6.9 41.0 5.8 40.8 4.95 40.65 4.35 39.9 L4.1 39.4 4.0 39.35 4.3 39.85 Q3.6 39.3 3.05 38.35 1.9 36.4 2.45 33.6 L2.6 33.6 M4.0 39.35 L4.15 39.3 4.1 39.15 3.95 39.2 4.0 39.35" fill="#c0d6b1" fill-rule="evenodd" stroke="none"/>
      <path d="M4.0 39.35 L3.95 39.2 4.1 39.15 4.15 39.3 4.0 39.35" fill="#ccbf38" fill-rule="evenodd" stroke="none"/>
      <path d="M11.45 37.75 L11.55 38.15 11.4 37.75 11.45 37.75" fill="url(#gradient6)" fill-rule="evenodd" stroke="none"/>
      <path d="M41.55 33.6 Q41.4 31.4 40.75 29.8 40.05 28.0 40.15 27.1 L40.45 25.7 41.3 24.5 42.35 23.4 41.7 24.75 41.4 25.8 Q41.15 26.85 41.3 27.85 L41.7 29.55 Q42.95 30.75 43.25 33.1 42.9 39.25 40.4 41.2 36.95 42.9 34.05 41.7 34.15 42.85 35.45 43.05 33.65 43.05 32.25 40.15 32.2 39.6 32.3 39.0 L32.6 38.15 32.75 37.75 32.7 37.75 Q33.0 36.8 33.7 36.05 L33.85 35.9 Q32.95 36.85 32.9 38.7 33.35 37.75 34.1 36.9 35.6 35.35 37.1 36.3 38.55 37.2 38.5 38.95 L38.4 40.15 38.4 40.25 37.4 40.05 Q36.05 39.6 35.85 38.65 L35.9 37.8 Q34.95 39.15 36.2 40.1 37.25 41.0 38.35 40.8 39.2 40.65 39.8 39.9 L40.05 39.4 40.15 39.35 39.85 39.85 41.1 38.35 Q42.25 36.4 41.7 33.6 L41.65 33.35 41.55 33.6" fill="#9ec087" fill-rule="evenodd" stroke="none"/>
      <path d="M41.7 33.6 Q42.25 36.4 41.1 38.35 L39.85 39.85 40.15 39.35 40.05 39.4 39.8 39.9 Q39.2 40.65 38.35 40.8 37.25 41.0 36.2 40.1 34.95 39.15 35.9 37.8 L35.85 38.65 Q36.05 39.6 37.4 40.05 L38.4 40.25 38.4 40.15 38.5 38.95 Q38.55 37.2 37.1 36.3 35.6 35.35 34.1 36.9 33.35 37.75 32.9 38.7 32.95 36.85 33.85 35.9 L34.9 35.1 36.8 34.65 Q39.5 35.2 40.2 37.2 L40.3 37.8 Q41.15 36.65 41.5 34.9 L41.55 33.6 41.7 33.6 M40.15 39.35 L40.2 39.2 40.05 39.15 40.0 39.3 40.15 39.35" fill="#c0d6b1" fill-rule="evenodd" stroke="none"/>
      <path d="M41.55 33.6 L41.65 33.35 41.7 33.6 41.55 33.6" fill="#00632e" fill-rule="evenodd" stroke="none"/>
      <path d="M32.25 40.15 Q33.65 43.05 35.45 43.05 34.15 42.85 34.05 41.7 36.95 42.9 40.4 41.2 42.9 39.25 43.25 33.1 L43.35 35.6 Q43.15 39.7 41.25 41.75 39.7 43.25 37.55 43.3 L36.3 43.2 38.5 43.5 40.0 43.95 37.1 44.25 Q34.0 44.2 33.0 42.4 32.35 41.3 32.25 40.15" fill="#648a4a" fill-rule="evenodd" stroke="none"/>
      <path d="M40.15 39.35 L40.0 39.3 40.05 39.15 40.2 39.2 40.15 39.35" fill="#ccbf38" fill-rule="evenodd" stroke="none"/>
      <path d="M32.7 37.75 L32.75 37.75 32.6 38.15 32.7 37.75" fill="url(#gradient7)" fill-rule="evenodd" stroke="none"/>
    </g>
    <linearGradient gradientTransform="matrix(0.0, -0.0173, -0.0173, 0.0, 22.1, 18.7)" gradientUnits="userSpaceOnUse" id="gradient4" spreadMethod="pad" x1="-819.2" x2="819.2">
      <stop offset="0.011764705882352941" stop-color="#d3d4b5"/>
      <stop offset="1.0" stop-color="#71a26f"/>
    </linearGradient>
    <linearGradient gradientTransform="matrix(1.0E-4, 0.0224, -0.0232, 1.0E-4, 21.95, 22.5)" gradientUnits="userSpaceOnUse" id="gradient5" spreadMethod="pad" x1="-819.2" x2="819.2">
      <stop offset="0.011764705882352941" stop-color="#516537"/>
      <stop offset="1.0" stop-color="#a8ce99"/>
    </linearGradient>
    <linearGradient gradientTransform="matrix(0.0, -0.025, -0.025, 0.0, 6.15, 31.7)" gradientUnits="userSpaceOnUse" id="gradient6" spreadMethod="pad" x1="-819.2" x2="819.2">
      <stop offset="0.011764705882352941" stop-color="#bed9a5"/>
      <stop offset="1.0" stop-color="#739416"/>
    </linearGradient>
    <linearGradient gradientTransform="matrix(0.0, -0.025, 0.025, 0.0, 37.95, 31.7)" gradientUnits="userSpaceOnUse" id="gradient7" spreadMethod="pad" x1="-819.2" x2="819.2">
      <stop offset="0.011764705882352941" stop-color="#bed9a5"/>
      <stop offset="1.0" stop-color="#739416"/>
    </linearGradient>
    <g id="sprite1" transform="matrix(1.0, 0.0, 0.0, 1.0, 0.0, 0.0)">
      <use height="20.15" transform="matrix(1.0, 0.0, 0.0, 1.0, 0.0, 0.0)" width="28.2" xlink:href="#shape3"/>
    </g>
    <g id="shape3" transform="matrix(1.0, 0.0, 0.0, 1.0, 0.0, 0.0)">
      <path d="M27.4 18.95 Q26.2 20.8 23.4 19.8 19.6 18.5 17.35 14.05 14.8 9.1 9.75 7.4 4.1 5.65 0.0 10.3 1.0 6.85 3.7 4.15 7.2 0.65 11.9 0.05 L14.8 0.05 18.4 0.65 Q21.55 1.65 24.05 4.15 28.2 8.3 28.2 14.25 28.2 16.45 27.65 18.45 L27.4 18.95" fill="#ffffff" fill-opacity="0.19607843" fill-rule="evenodd" stroke="none"/>
    </g>
    <g id="shape4" transform="matrix(1.0, 0.0, 0.0, 1.0, -9.25, -8.7)">
      <path d="M26.45 13.4 L26.45 13.25 26.2 13.25 Q24.6 12.4 22.75 12.15 L18.85 12.3 Q15.95 13.0 13.7 15.3 L12.35 16.95 11.9 18.2 Q11.05 21.4 12.7 24.25 13.8 26.25 15.6 27.25 L15.7 27.3 15.8 27.35 17.35 27.95 18.0 28.1 17.5 27.85 16.15 26.75 16.05 26.65 Q14.5 25.05 14.1 22.9 14.65 24.7 16.1 26.05 18.05 27.8 20.2 27.5 L22.15 26.9 26.9 26.9 Q25.75 28.55 23.75 29.7 20.2 31.7 16.4 30.65 13.1 29.75 11.2 27.05 L10.5 28.35 Q9.25 25.6 9.25 22.35 L9.35 20.55 9.65 18.6 Q9.95 17.45 10.5 16.45 L10.6 16.25 Q11.5 14.35 13.1 12.7 17.0 8.7 22.5 8.7 27.95 8.7 31.85 12.7 35.7 16.7 35.7 22.35 35.7 28.05 31.85 32.05 27.95 36.05 22.5 36.05 19.15 36.05 16.45 34.6 L20.95 34.45 Q25.7 34.15 28.85 30.95 31.95 27.7 31.95 23.1 31.95 18.5 28.85 15.3 L26.45 13.4" fill="#496125" fill-rule="evenodd" stroke="none"/>
      <path d="M26.2 14.6 Q26.65 14.65 27.4 15.85 L27.65 16.55 Q27.95 17.4 27.7 18.2 L27.1 19.6 26.85 19.9 26.8 19.95 25.25 19.9 24.3 18.75 24.2 18.2 24.35 17.2 Q24.6 16.1 25.15 15.35 25.7 14.6 26.2 14.6 M19.75 18.9 L19.45 18.15 Q19.25 17.05 19.95 15.8 20.65 14.6 21.1 14.6 21.55 14.55 22.05 15.3 L22.4 15.8 22.9 17.2 Q23.2 18.3 23.0 18.75 L22.45 19.45 21.95 19.9 Q21.45 20.35 21.0 20.25 L20.45 19.95 19.75 18.9 M24.35 20.65 Q25.55 21.2 26.15 22.55 L26.45 23.3 Q27.0 24.9 26.9 26.6 26.8 28.2 25.25 27.45 L21.85 27.3 Q20.55 27.65 20.2 26.95 19.95 26.55 20.0 25.85 20.05 23.8 21.0 21.95 L21.2 21.4 Q22.45 19.65 24.35 20.65 M29.25 20.85 L29.3 22.1 29.0 23.1 28.05 23.45 Q27.35 23.55 26.95 22.9 L26.8 22.25 26.8 22.2 26.8 21.4 Q26.85 20.7 27.65 20.2 28.4 19.65 28.7 19.85 29.05 20.0 29.2 20.7 L29.25 20.85 M19.3 20.3 L19.5 20.45 Q20.0 20.85 20.15 21.5 L20.2 21.75 19.95 23.0 19.7 23.3 18.85 23.5 17.95 23.2 17.75 22.7 17.65 22.2 Q17.55 21.35 17.75 20.75 17.9 20.1 18.2 19.95 18.6 19.8 19.3 20.3" fill="#496125" fill-rule="evenodd" stroke="none"/>
    </g>
  </defs>
</svg>
