<?xml version="1.0" encoding="UTF-8" standalone="no"?>
<svg xmlns:xlink="http://www.w3.org/1999/xlink" height="65.925px" width="66.075px" xmlns="http://www.w3.org/2000/svg">
  <g transform="matrix(1.5, 0.0, 0.0, 1.5, 0.075, 0.0)">
    <use height="43.95" transform="matrix(1.0, 0.0, 0.0, 1.0, -0.05, 0.0)" width="44.05" xlink:href="#shape0"/>
    <use height="0.0" transform="matrix(1.2077, 0.0, 0.0, 1.2064, 0.75, 0.75)" width="0.0" xlink:href="#sprite0"/>
    <use height="20.15" transform="matrix(1.1548, 0.0, 0.0, 1.1536, 6.3, 5.65)" width="28.2" xlink:href="#sprite1"/>
    <use height="22.3" transform="matrix(1.1548, 0.0, 0.0, 1.1536, 0.6, 18.2)" width="36.1" xlink:href="#sprite2"/>
    <use height="10.35" transform="matrix(1.0, 0.0, 0.0, 1.0, 1.0, 0.5)" width="42.05" xlink:href="#sprite15"/>
  </g>
  <defs>
    <g id="shape0" transform="matrix(1.0, 0.0, 0.0, 1.0, 0.05, 0.0)">
      <path d="M21.9 2.35 Q30.25 2.35 36.15 8.25 42.1 14.2 42.1 22.5 42.1 30.85 36.15 36.75 30.25 42.7 21.9 42.7 13.55 42.7 7.65 36.75 1.75 30.85 1.75 22.5 1.75 14.2 7.65 8.25 13.55 2.35 21.9 2.35" fill="url(#gradient0)" fill-rule="evenodd" stroke="none"/>
      <path d="M30.45 13.3 L30.8 13.9 Q31.35 13.45 32.05 13.45 33.0 13.45 33.65 14.15 34.25 14.8 34.25 15.7 L34.05 16.55 34.9 16.85 35.5 17.3 Q36.3 18.2 36.3 19.35 36.3 20.5 35.5 21.25 L34.9 21.8 33.65 22.1 Q32.5 22.1 31.7 21.25 L31.45 21.1 30.45 21.45 29.6 21.25 29.25 21.9 Q28.55 22.55 27.65 22.55 L26.55 22.25 26.2 21.8 25.9 21.2 26.95 19.1 26.5 18.95 Q24.5 20.5 22.1 20.25 19.25 20.3 18.05 18.9 L17.55 19.1 18.6 21.2 18.35 21.75 18.35 21.8 18.0 22.25 16.9 22.55 Q16.0 22.55 15.3 21.9 L14.95 21.25 14.1 21.45 Q13.55 21.45 13.1 21.1 L12.85 21.25 Q12.05 22.1 10.9 22.1 9.8 22.1 9.05 21.25 8.25 20.5 8.25 19.35 8.25 18.2 9.05 17.3 9.65 16.7 10.5 16.55 L10.3 15.7 Q10.3 14.8 10.9 14.15 11.6 13.45 12.5 13.45 13.2 13.45 13.75 13.9 L14.1 13.3 Q14.65 12.8 15.15 12.65 15.45 11.65 16.1 10.85 17.25 9.8 18.7 9.7 L19.2 9.2 Q20.5 7.85 22.3 7.85 24.05 7.85 25.35 9.2 L25.85 9.7 Q27.3 9.8 28.45 10.85 29.1 11.65 29.4 12.65 29.9 12.8 30.45 13.3 M27.0 33.8 Q28.95 34.3 28.7 34.75 L34.85 34.75 Q30.25 39.95 23.75 40.75 L22.6 40.8 21.95 40.8 Q14.65 40.35 9.7 34.75 L16.4 34.75 Q16.4 33.9 18.55 33.8 L18.25 32.2 20.1 33.85 20.45 32.65 20.65 31.55 20.75 30.15 20.75 29.9 20.75 26.3 Q20.1 22.6 18.25 19.6 19.45 20.6 20.95 20.75 L21.65 20.75 22.15 20.65 22.4 20.65 22.9 20.75 23.6 20.75 Q25.1 20.6 26.35 19.6 24.45 22.6 23.8 26.3 L23.8 29.9 23.8 30.15 23.8 30.5 23.95 31.65 24.5 33.85 24.8 33.55 26.2 32.65 Q26.85 32.4 26.0 33.8 L27.0 33.8 M12.55 10.4 L13.5 11.0 Q14.15 11.6 13.85 11.6 L13.2 11.6 12.55 11.6 Q12.3 11.6 12.1 11.4 L11.95 11.0 Q11.95 10.75 12.1 10.55 12.3 10.4 12.55 10.4 M13.45 12.45 L13.5 12.3 13.65 12.25 13.75 12.3 13.8 12.45 13.75 12.55 13.65 12.65 13.5 12.55 13.45 12.45 M10.25 13.4 Q9.7 14.4 9.7 14.7 L9.45 15.25 8.9 15.45 8.35 15.25 8.15 14.7 Q8.15 14.4 8.4 14.15 L9.7 13.1 Q10.75 12.35 10.25 13.4 M8.55 22.4 L9.2 22.65 10.0 24.25 Q10.45 25.5 9.75 25.0 9.05 24.45 8.6 24.4 L7.85 24.05 7.6 23.4 Q7.6 22.95 7.85 22.65 L8.55 22.4 M12.9 22.05 L12.95 21.95 13.1 21.9 13.2 21.95 13.25 22.05 13.2 22.2 13.1 22.25 12.95 22.2 12.9 22.05 M16.6 24.3 L16.35 24.4 16.1 24.3 16.0 24.05 16.1 23.8 16.35 23.7 16.6 23.8 16.7 24.05 16.6 24.3 M17.85 22.7 L18.0 22.65 18.1 22.7 18.15 22.85 18.1 22.95 18.0 23.0 17.85 22.95 17.8 22.85 17.85 22.7 M14.9 30.95 L15.6 30.7 Q16.05 30.7 16.25 30.95 L16.55 31.7 16.25 32.35 Q16.05 32.65 15.6 32.65 15.2 32.65 14.9 32.35 14.65 32.1 14.65 31.7 14.65 31.25 14.9 30.95 M26.95 26.85 Q27.85 26.85 27.4 27.5 26.9 28.2 26.75 28.9 26.55 29.55 26.4 28.85 26.05 26.8 26.95 26.85 M27.4 31.6 L27.65 31.7 27.75 31.95 27.65 32.2 27.4 32.3 27.15 32.2 27.05 31.95 27.15 31.7 27.4 31.6" fill="#2e5d6b" fill-rule="evenodd" stroke="none"/>
      <path d="M22.0 4.65 Q14.8 4.65 9.75 9.75 4.65 14.8 4.65 22.0 4.65 29.15 9.75 34.25 14.8 39.3 22.0 39.3 29.2 39.3 34.2 34.25 39.25 29.15 39.25 22.0 39.25 14.8 34.2 9.75 29.1 4.65 22.0 4.65 M-0.05 7.6 Q-0.05 4.5 2.2 2.25 4.45 0.0 7.55 0.0 L36.35 0.0 Q39.5 0.0 41.75 2.25 44.0 4.5 44.0 7.6 L44.0 36.35 Q44.0 39.5 41.75 41.75 39.5 43.95 36.35 43.95 L7.55 43.95 Q4.45 43.95 2.2 41.75 -0.05 39.5 -0.05 36.35 L-0.05 7.6" fill="url(#gradient1)" fill-rule="evenodd" stroke="none"/>
      <path d="M21.95 5.55 Q15.0 5.6 10.25 10.45 5.3 15.3 5.3 22.15 5.3 29.05 10.25 33.95 15.0 38.75 21.95 38.75 28.75 38.75 33.65 33.95 38.6 29.05 38.6 22.15 38.6 15.3 33.65 10.45 28.8 5.6 21.95 5.55 M8.45 8.75 Q14.05 3.15 21.95 3.15 29.8 3.15 35.35 8.75 40.95 14.3 40.95 22.15 40.95 30.05 35.35 35.6 29.8 41.1 21.95 41.1 14.05 41.1 8.45 35.6 2.9 30.05 2.9 22.15 2.9 14.3 8.45 8.75" fill="url(#gradient2)" fill-rule="evenodd" stroke="none"/>
    </g>
    <linearGradient gradientTransform="matrix(0.0, -0.0189, -0.0189, 0.0, 21.9, 18.7)" gradientUnits="userSpaceOnUse" id="gradient0" spreadMethod="pad" x1="-819.2" x2="819.2">
      <stop offset="0.011764705882352941" stop-color="#b3f9e4"/>
      <stop offset="1.0" stop-color="#5bbbff"/>
    </linearGradient>
    <linearGradient gradientTransform="matrix(0.0, -0.044, -0.044, 0.0, 21.95, -1.2)" gradientUnits="userSpaceOnUse" id="gradient1" spreadMethod="pad" x1="-819.2" x2="819.2">
      <stop offset="0.011764705882352941" stop-color="#90d1d1"/>
      <stop offset="0.9764705882352941" stop-color="#003459"/>
    </linearGradient>
    <linearGradient gradientTransform="matrix(0.0, -0.0168, -0.0168, 0.0, 21.95, 26.75)" gradientUnits="userSpaceOnUse" id="gradient2" spreadMethod="pad" x1="-819.2" x2="819.2">
      <stop offset="0.011764705882352941" stop-color="#c4dbdf"/>
      <stop offset="0.9764705882352941" stop-color="#35414c"/>
    </linearGradient>
    <g id="sprite1" transform="matrix(1.0, 0.0, 0.0, 1.0, 0.0, 0.0)">
      <use height="20.15" transform="matrix(1.0, 0.0, 0.0, 1.0, 0.0, 0.0)" width="28.2" xlink:href="#shape1"/>
    </g>
    <g id="shape1" transform="matrix(1.0, 0.0, 0.0, 1.0, 0.0, 0.0)">
      <path d="M27.4 18.95 Q26.2 20.8 23.4 19.8 19.6 18.5 17.35 14.05 14.8 9.1 9.75 7.4 4.1 5.65 0.0 10.3 1.0 6.85 3.7 4.15 7.2 0.65 11.9 0.05 L14.8 0.05 18.4 0.65 Q21.55 1.65 24.05 4.15 28.2 8.3 28.2 14.25 28.2 16.45 27.65 18.45 L27.4 18.95" fill="#ffffff" fill-opacity="0.19607843" fill-rule="evenodd" stroke="none"/>
    </g>
    <g id="sprite2" transform="matrix(1.0, 0.0, 0.0, 1.0, 0.0, 0.0)">
      <use height="20.7" transform="matrix(1.0458, 0.0, 0.0, 1.0458, 0.0, 0.65)" width="7.3" xlink:href="#sprite3"/>
      <use height="20.85" transform="matrix(1.0, 0.0, 0.0, 1.0, 0.55, 0.25)" width="7.3" xlink:href="#shape3"/>
      <use height="12.1" transform="matrix(1.0458, 0.0, 0.0, 1.0458, 1.2977, 8.0)" width="5.7" xlink:href="#sprite4"/>
      <use height="18.7" transform="matrix(1.032, 0.0, 0.0, 1.032, 0.45, 0.0)" width="5.7" xlink:href="#sprite5"/>
      <use height="7.0" transform="matrix(1.032, 0.0, 0.0, 1.032, 2.15, 12.1984)" width="3.35" xlink:href="#sprite6"/>
      <use height="19.65" transform="matrix(1.0, 0.0, 0.0, 1.0, 1.0, 0.6)" width="6.15" xlink:href="#shape7"/>
      <use height="11.6" transform="matrix(1.032, 0.0, 0.0, 1.032, 0.4, 9.85)" width="6.9" xlink:href="#sprite7"/>
      <use height="11.1" transform="matrix(1.032, 0.0, 0.0, 1.032, 0.6, 9.85)" width="6.45" xlink:href="#sprite8"/>
      <use height="11.8" transform="matrix(1.032, 0.0, 0.0, 1.032, 0.4, 8.75)" width="6.5" xlink:href="#sprite9"/>
      <use height="18.7" transform="matrix(1.032, 0.0, 0.0, 1.032, 30.15, 0.0)" width="5.7" xlink:href="#sprite10"/>
      <use height="7.0" transform="matrix(1.032, 0.0, 0.0, 1.032, 30.85, 12.1984)" width="3.35" xlink:href="#sprite11"/>
      <use height="19.7" transform="matrix(1.0, 0.0, 0.0, 1.0, 29.4, 0.6)" width="6.1" xlink:href="#shape13"/>
      <use height="11.6" transform="matrix(1.032, 0.0, 0.0, 1.032, 28.9484, 9.85)" width="6.9" xlink:href="#sprite12"/>
      <use height="11.1" transform="matrix(1.032, 0.0, 0.0, 1.032, 29.3016, 9.85)" width="6.35" xlink:href="#sprite13"/>
      <use height="11.8" transform="matrix(1.032, 0.0, 0.0, 1.032, 29.4516, 8.75)" width="6.45" xlink:href="#sprite14"/>
    </g>
    <g id="sprite3" transform="matrix(1.0, 0.0, 0.0, 1.0, 0.0, 0.0)">
      <use height="20.7" transform="matrix(1.0, 0.0, 0.0, 1.0, 0.0, 0.0)" width="7.3" xlink:href="#shape2"/>
    </g>
    <g id="shape2" transform="matrix(1.0, 0.0, 0.0, 1.0, 0.0, 0.0)">
      <path d="M1.5 3.3 Q1.25 4.9 1.35 6.95 1.55 10.95 3.35 13.0 L6.75 16.9 Q7.8 18.5 6.9 19.6 5.25 21.5 2.85 20.1 -0.1 18.35 0.0 11.65 0.1 5.2 1.1 1.95 1.6 0.35 2.05 0.0 L1.5 3.3" fill="#6c6a85" fill-opacity="0.69803923" fill-rule="evenodd" stroke="none"/>
    </g>
    <g id="shape3" transform="matrix(1.0, 0.0, 0.0, 1.0, -0.55, -0.25)">
      <path d="M1.9 2.75 L1.85 6.55 Q2.2 10.75 4.0 12.95 L7.3 17.15 Q8.4 18.9 7.35 20.05 5.6 21.95 3.15 20.35 0.15 18.4 0.6 11.4 1.0 4.7 1.65 1.85 L2.25 0.25 1.9 2.75" fill="url(#gradient3)" fill-rule="evenodd" stroke="none"/>
    </g>
    <linearGradient gradientTransform="matrix(0.0, -0.0091, -0.0091, 0.0, 4.15, 13.05)" gradientUnits="userSpaceOnUse" id="gradient3" spreadMethod="pad" x1="-819.2" x2="819.2">
      <stop offset="0.011764705882352941" stop-color="#dbf7ff" stop-opacity="0.69803923"/>
      <stop offset="0.9764705882352941" stop-color="#384759" stop-opacity="0.69803923"/>
    </linearGradient>
    <g id="sprite4" transform="matrix(1.0, 0.0, 0.0, 1.0, 0.05, 0.0)">
      <use height="12.1" transform="matrix(1.0, 0.0, 0.0, 1.0, -0.05, 0.0)" width="5.7" xlink:href="#shape4"/>
    </g>
    <g id="shape4" transform="matrix(1.0, 0.0, 0.0, 1.0, 0.05, 0.0)">
      <path d="M1.45 10.9 Q3.25 11.3 3.25 9.75 3.25 8.85 2.15 7.35 L0.45 4.75 Q-0.3 2.9 0.1 0.0 0.15 0.9 0.5 2.05 1.15 4.35 2.45 5.8 L5.15 8.65 Q6.15 9.9 5.1 11.0 2.85 13.25 1.45 10.9" fill="#f2f2f2" fill-opacity="0.69803923" fill-rule="evenodd" stroke="none"/>
    </g>
    <g id="sprite5" transform="matrix(1.0, 0.0, 0.0, 1.0, 0.0, 0.0)">
      <use height="18.7" transform="matrix(1.0, 0.0, 0.0, 1.0, 0.0, 0.0)" width="5.7" xlink:href="#shape5"/>
    </g>
    <g id="shape5" transform="matrix(1.0, 0.0, 0.0, 1.0, 0.0, 0.0)">
      <path d="M1.65 11.9 Q1.55 10.8 0.55 8.3 -0.4 5.85 0.25 2.65 0.6 1.1 1.1 0.0 L0.5 2.55 Q0.05 5.55 0.95 8.0 1.6 9.8 3.55 11.35 5.25 12.65 5.55 14.75 5.9 17.2 5.3 18.15 L4.6 18.55 Q3.45 19.2 2.4 16.85 1.55 14.9 1.55 13.5 L1.65 11.9" fill="#ffffff" fill-opacity="0.69803923" fill-rule="evenodd" stroke="none"/>
    </g>
    <g id="sprite6" transform="matrix(1.0, 0.0, 0.0, 1.0, 0.0, 0.05)">
      <use height="7.0" transform="matrix(1.0, 0.0, 0.0, 1.0, 0.0, -0.05)" width="3.35" xlink:href="#shape6"/>
    </g>
    <g id="shape6" transform="matrix(1.0, 0.0, 0.0, 1.0, 0.0, 0.05)">
      <path d="M2.3 5.7 Q2.05 4.1 0.65 2.6 -0.4 1.45 0.2 0.4 0.8 -0.6 2.05 0.6 3.35 1.8 3.35 4.25 3.35 6.7 2.05 6.95 2.9 6.45 2.3 5.7" fill="#ffffff" fill-opacity="0.69803923" fill-rule="evenodd" stroke="none"/>
    </g>
    <g id="shape7" transform="matrix(1.0, 0.0, 0.0, 1.0, -1.0, -0.6)">
      <path d="M2.85 14.0 L2.6 13.35 Q2.55 12.6 3.45 12.6 4.75 12.6 4.55 14.9 L3.85 13.7 Q3.05 12.8 2.85 14.0" fill="#ffffff" fill-opacity="0.69803923" fill-rule="evenodd" stroke="none"/>
      <path d="M2.5 8.6 L4.15 10.65 6.1 13.05 Q7.5 15.4 7.0 18.3 L6.4 19.45 Q5.4 20.5 3.35 20.2 L4.85 19.9 Q6.35 19.1 6.2 16.35 6.05 14.05 3.95 11.7 1.65 9.2 1.3 7.2 0.85 4.5 1.1 2.3 L1.45 0.6 1.4 3.85 Q1.5 7.3 2.5 8.6" fill="#bbded6" fill-opacity="0.69803923" fill-rule="evenodd" stroke="none"/>
    </g>
    <g id="sprite7" transform="matrix(1.0, 0.0, 0.0, 1.0, 0.0, 0.0)">
      <use height="11.6" transform="matrix(1.0, 0.0, 0.0, 1.0, 0.0, 0.0)" width="6.9" xlink:href="#shape8"/>
    </g>
    <g id="shape8" transform="matrix(1.0, 0.0, 0.0, 1.0, 0.0, 0.0)">
      <path d="M0.0 4.95 Q0.0 2.4 0.35 0.0 0.5 4.25 0.85 6.75 1.1 8.3 2.25 9.5 L3.35 10.4 Q5.95 10.25 6.3 7.5 6.45 6.1 6.1 4.75 7.75 7.6 6.05 10.0 4.4 12.4 2.0 11.15 0.05 10.1 0.0 4.95" fill="#bbded6" fill-opacity="0.69803923" fill-rule="evenodd" stroke="none"/>
    </g>
    <g id="sprite8" transform="matrix(1.0, 0.0, 0.0, 1.0, 0.0, 0.0)">
      <use height="11.1" transform="matrix(1.0, 0.0, 0.0, 1.0, 0.0, 0.0)" width="6.45" xlink:href="#shape9"/>
    </g>
    <g id="shape9" transform="matrix(1.0, 0.0, 0.0, 1.0, 0.0, 0.0)">
      <path d="M0.45 5.0 Q1.15 10.05 3.15 10.4 L4.6 10.1 Q6.1 9.4 6.3 7.2 L6.3 6.25 Q6.6 7.3 6.35 8.45 5.85 10.7 3.3 11.1 2.3 11.25 1.35 9.9 -0.45 7.25 0.15 0.0 0.1 2.45 0.45 5.0" fill="#bbded6" fill-opacity="0.69803923" fill-rule="evenodd" stroke="none"/>
    </g>
    <g id="sprite9" transform="matrix(1.0, 0.0, 0.0, 1.0, 0.0, 0.0)">
      <use height="11.8" transform="matrix(1.0, 0.0, 0.0, 1.0, 0.0, 0.0)" width="6.5" xlink:href="#shape10"/>
    </g>
    <g id="shape10" transform="matrix(1.0, 0.0, 0.0, 1.0, 0.0, 0.0)">
      <path d="M0.0 0.0 Q0.4 0.55 0.4 1.45 0.4 4.65 0.65 6.45 1.25 10.9 3.1 11.35 L4.2 11.4 Q5.4 11.25 6.1 10.2 L6.5 8.75 6.45 9.5 Q6.15 10.85 5.0 11.45 4.5 11.8 3.8 11.8 2.45 11.75 1.4 10.05 0.4 7.35 0.3 3.6 L0.25 0.8 0.0 0.0" fill="#306b5e" fill-opacity="0.69803923" fill-rule="evenodd" stroke="none"/>
    </g>
    <g id="sprite10" transform="matrix(1.0, 0.0, 0.0, 1.0, 0.0, 0.0)">
      <use height="18.7" transform="matrix(1.0, 0.0, 0.0, 1.0, 0.0, 0.0)" width="5.7" xlink:href="#shape11"/>
    </g>
    <g id="shape11" transform="matrix(1.0, 0.0, 0.0, 1.0, 0.0, 0.0)">
      <path d="M4.05 11.9 L4.15 13.5 Q4.15 14.9 3.3 16.85 2.25 19.2 1.1 18.55 0.75 18.6 0.4 18.15 -0.2 17.2 0.15 14.75 0.45 12.65 2.15 11.35 4.1 9.8 4.75 8.0 5.65 5.55 5.2 2.55 5.0 1.05 4.6 0.0 L5.45 2.65 Q6.1 5.85 5.15 8.3 4.15 10.8 4.05 11.9" fill="#ffffff" fill-opacity="0.69803923" fill-rule="evenodd" stroke="none"/>
    </g>
    <g id="sprite11" transform="matrix(1.0, 0.0, 0.0, 1.0, 0.0, 0.05)">
      <use height="7.0" transform="matrix(1.0, 0.0, 0.0, 1.0, 0.0, -0.05)" width="3.35" xlink:href="#shape12"/>
    </g>
    <g id="shape12" transform="matrix(1.0, 0.0, 0.0, 1.0, 0.0, 0.05)">
      <path d="M1.05 5.7 Q0.45 6.45 1.3 6.95 0.0 6.7 0.0 4.25 0.0 1.8 1.3 0.6 2.55 -0.6 3.15 0.4 3.75 1.45 2.7 2.6 1.3 4.1 1.05 5.7" fill="#ffffff" fill-opacity="0.69803923" fill-rule="evenodd" stroke="none"/>
    </g>
    <g id="shape13" transform="matrix(1.0, 0.0, 0.0, 1.0, -29.4, -0.6)">
      <path d="M33.7 14.0 Q33.5 12.8 32.7 13.7 L31.95 14.9 Q31.9 14.35 32.0 13.75 32.25 12.6 33.15 12.6 34.5 12.6 33.7 14.0" fill="#ffffff" fill-opacity="0.69803923" fill-rule="evenodd" stroke="none"/>
      <path d="M34.05 8.6 Q35.0 7.3 35.1 3.85 L35.05 0.6 35.4 2.3 Q35.7 4.5 35.2 7.2 34.85 9.2 32.6 11.7 30.45 14.05 30.3 16.35 30.15 19.1 31.65 19.9 L32.9 20.25 Q31.1 20.45 30.1 19.45 L29.55 18.3 Q29.0 15.4 30.4 13.05 L32.35 10.65 34.05 8.6" fill="#bbded6" fill-opacity="0.69803923" fill-rule="evenodd" stroke="none"/>
    </g>
    <g id="sprite12" transform="matrix(1.0, 0.0, 0.0, 1.0, 0.05, 0.0)">
      <use height="11.6" transform="matrix(1.0, 0.0, 0.0, 1.0, -0.05, 0.0)" width="6.9" xlink:href="#shape14"/>
    </g>
    <g id="shape14" transform="matrix(1.0, 0.0, 0.0, 1.0, 0.05, 0.0)">
      <path d="M0.8 10.0 Q-0.9 7.6 0.75 4.75 0.4 6.1 0.55 7.5 0.9 10.25 3.5 10.4 L4.6 9.5 Q5.75 8.3 6.0 6.75 6.35 4.25 6.5 0.0 6.9 2.4 6.85 4.95 6.8 10.1 4.85 11.15 2.45 12.4 0.8 10.0" fill="#bbded6" fill-opacity="0.69803923" fill-rule="evenodd" stroke="none"/>
    </g>
    <g id="sprite13" transform="matrix(1.0, 0.0, 0.0, 1.0, -0.05, 0.0)">
      <use height="11.1" transform="matrix(1.0, 0.0, 0.0, 1.0, 0.05, 0.0)" width="6.35" xlink:href="#shape15"/>
    </g>
    <g id="shape15" transform="matrix(1.0, 0.0, 0.0, 1.0, -0.05, 0.0)">
      <path d="M5.95 5.0 Q6.3 2.45 6.25 0.0 6.85 7.25 5.05 9.9 4.15 11.25 3.1 11.1 0.55 10.7 0.05 8.45 L0.1 6.25 0.1 7.2 Q0.3 9.4 1.8 10.1 L3.25 10.4 Q5.25 10.05 5.95 5.0" fill="#bbded6" fill-opacity="0.69803923" fill-rule="evenodd" stroke="none"/>
    </g>
    <g id="sprite14" transform="matrix(1.0, 0.0, 0.0, 1.0, -0.05, 0.0)">
      <use height="11.8" transform="matrix(1.0, 0.0, 0.0, 1.0, 0.05, 0.0)" width="6.45" xlink:href="#shape16"/>
    </g>
    <g id="shape16" transform="matrix(1.0, 0.0, 0.0, 1.0, -0.05, 0.0)">
      <path d="M6.5 0.0 L6.3 0.8 6.2 3.6 Q6.1 7.35 5.1 10.05 4.05 11.75 2.7 11.8 2.0 11.8 1.5 11.45 0.4 10.85 0.1 9.5 L0.05 8.95 0.4 10.2 Q1.1 11.25 2.3 11.4 L3.4 11.35 Q5.25 10.9 5.85 6.45 L6.1 1.45 Q6.1 0.55 6.5 0.0" fill="#306b5e" fill-opacity="0.69803923" fill-rule="evenodd" stroke="none"/>
    </g>
    <g id="sprite15" transform="matrix(1.0, 0.0, 0.0, 1.0, 0.15, 0.0)">
      <use height="10.35" transform="matrix(1.0, 0.0, 0.0, 1.0, -0.15, 0.0)" width="42.05" xlink:href="#shape17"/>
    </g>
    <g id="shape17" transform="matrix(1.0, 0.0, 0.0, 1.0, 0.15, 0.0)">
      <path d="M32.7 0.0 Q39.65 0.0 41.35 5.3 41.9 7.0 41.9 9.2 L41.9 10.35 Q41.85 8.4 41.35 6.9 39.65 1.55 32.7 1.55 L9.05 1.55 Q0.15 1.55 -0.15 10.2 L-0.15 9.2 Q-0.15 0.0 9.05 0.0 L32.7 0.0" fill="#e7deda" fill-opacity="0.5882353" fill-rule="evenodd" stroke="none"/>
    </g>
  </defs>
</svg>
