<?xml version="1.0" encoding="UTF-8" standalone="no"?>
<svg xmlns:xlink="http://www.w3.org/1999/xlink" height="66.15px" width="66.0px" xmlns="http://www.w3.org/2000/svg">
  <g transform="matrix(1.5, 0.0, 0.0, 1.5, -0.15, -0.075)">
    <use height="44.1" transform="matrix(1.0, 0.0, 0.0, 1.0, 0.1, 0.05)" width="44.0" xlink:href="#shape0"/>
    <use height="20.15" transform="matrix(1.1594, 0.0, 0.0, 1.1605, 6.25, 5.6)" width="28.2" xlink:href="#sprite0"/>
    <use height="0.0" transform="matrix(1.2077, 0.0, 0.0, 1.2065, 1.05, 0.6)" width="0.0" xlink:href="#sprite1"/>
    <use height="10.35" transform="matrix(1.0, 0.0, 0.0, 1.0, 1.0, 0.5)" width="42.05" xlink:href="#sprite2"/>
  </g>
  <defs>
    <g id="shape0" transform="matrix(1.0, 0.0, 0.0, 1.0, -0.1, -0.05)">
      <path d="M7.65 8.25 Q13.5 2.3 21.9 2.3 30.25 2.3 36.15 8.25 42.0 14.15 42.0 22.5 42.0 30.85 36.15 36.8 30.25 42.7 21.9 42.7 13.5 42.7 7.65 36.8 1.7 30.85 1.7 22.5 1.7 14.15 7.65 8.25" fill="url(#gradient0)" fill-rule="evenodd" stroke="none"/>
      <path d="M22.1 4.75 Q14.9 4.75 9.8 9.85 4.75 15.0 4.75 22.1 4.75 29.3 9.8 34.4 14.85 39.5 22.1 39.5 29.25 39.5 34.3 34.4 39.4 29.3 39.4 22.1 39.4 14.9 34.3 9.85 29.25 4.75 22.1 4.75 M36.5 0.05 Q39.7 0.05 41.85 2.3 44.1 4.6 44.1 7.7 L44.1 36.5 Q44.1 39.65 41.85 41.9 39.7 44.1 36.5 44.1 L7.7 44.1 Q4.55 44.1 2.35 41.9 0.1 39.7 0.1 36.5 L0.1 7.7 Q0.1 4.6 2.35 2.3 4.55 0.05 7.7 0.05 L36.5 0.05" fill="url(#gradient1)" fill-rule="evenodd" stroke="none"/>
      <path d="M24.3 9.2 L24.8 9.75 Q25.15 9.9 25.05 10.25 L24.65 10.75 24.55 11.05 Q24.25 11.45 23.25 11.35 L22.55 11.75 21.4 11.9 Q20.25 11.65 19.9 10.9 L19.9 10.55 Q19.55 10.3 19.55 10.05 L19.6 9.85 19.45 9.45 Q19.55 9.1 19.9 9.0 L20.35 8.85 20.7 8.85 Q20.8 8.7 20.95 8.75 L21.8 8.75 21.85 8.75 22.25 8.8 24.05 9.2 24.1 9.25 24.3 9.2 M28.15 10.65 L28.1 11.0 27.45 11.05 26.95 10.75 Q26.9 10.5 27.15 10.25 L28.2 10.35 28.15 10.65 M27.1 14.7 L27.2 14.7 28.4 14.8 28.9 15.1 29.5 15.15 Q30.9 15.4 31.3 16.2 L31.4 17.05 31.35 17.5 31.45 17.7 31.6 18.5 31.55 18.8 31.4 19.5 Q31.2 19.9 30.35 19.75 29.6 19.6 28.95 18.9 L28.0 18.15 27.9 18.05 Q26.4 17.7 26.1 17.05 25.95 16.8 26.05 16.15 26.4 14.55 27.1 14.7 M20.65 15.6 Q20.75 14.85 21.75 15.05 22.7 15.25 22.6 15.9 L22.35 16.4 21.5 16.55 Q20.5 16.35 20.65 15.6 M20.35 19.0 L21.3 20.05 Q21.2 20.55 19.2 21.1 17.05 21.8 15.55 21.5 14.4 21.3 14.2 20.75 L14.2 20.3 Q14.35 19.5 15.15 19.05 15.85 18.6 17.85 18.05 L19.35 18.3 Q19.95 18.3 20.1 18.55 L20.25 18.75 20.35 19.0 M24.3 21.05 L23.55 20.75 23.65 20.3 Q23.75 19.6 24.5 19.75 25.2 19.85 25.1 20.45 24.95 21.15 24.3 21.05 M25.7 21.6 Q25.75 21.35 26.4 21.4 26.95 21.4 26.85 21.85 L26.8 22.15 26.1 22.2 25.7 21.6 M36.0 21.8 L35.5 21.9 Q34.7 21.75 34.8 21.2 34.9 20.75 35.65 20.85 36.25 21.0 36.15 21.5 L36.0 21.8 M7.55 21.6 L7.6 21.15 Q7.75 20.25 9.4 20.15 10.9 20.05 10.75 20.9 L10.25 21.75 Q9.7 22.4 9.25 22.3 7.85 22.05 7.55 21.6 M16.4 12.75 Q16.55 12.05 17.3 12.45 18.05 12.8 17.95 13.45 L17.6 14.05 17.3 14.1 Q16.8 14.0 16.6 13.3 L16.4 12.75 M9.65 29.3 L6.45 30.15 Q5.6 28.45 5.15 26.5 L9.8 25.25 21.45 24.05 25.3 25.75 38.7 27.75 37.5 31.0 37.25 31.5 34.0 30.8 24.85 29.9 21.0 28.25 9.65 29.3 M9.4 30.5 L21.25 29.25 25.15 30.9 36.7 32.35 Q34.4 35.85 29.95 38.35 L23.85 38.15 20.0 36.5 14.05 37.5 Q9.35 34.9 7.05 31.15 L9.4 30.5 M19.85 39.05 L18.2 39.35 15.1 38.05 20.15 37.2 24.05 38.85 28.65 39.0 25.75 40.2 24.2 40.7 23.7 40.7 19.85 39.05" fill="#5f3921" fill-rule="evenodd" stroke="none"/>
      <path d="M41.15 22.05 Q41.15 29.9 35.55 35.45 30.05 41.05 22.2 41.05 14.3 41.05 8.8 35.45 3.25 29.9 3.25 22.05 3.25 14.2 8.8 8.65 14.3 3.1 22.2 3.1 30.05 3.1 35.55 8.65 41.15 14.2 41.15 22.05 M33.95 10.4 Q29.0 5.5 22.2 5.45 15.3 5.5 10.45 10.4 5.6 15.15 5.55 22.05 5.6 29.0 10.45 33.85 15.3 38.7 22.2 38.7 29.0 38.7 33.95 33.85 38.75 29.0 38.75 22.05 38.75 15.15 33.95 10.4" fill="url(#gradient2)" fill-rule="evenodd" stroke="none"/>
      <path d="M0.3 25.15 Q0.45 22.7 0.9 20.7 0.65 24.9 0.9 26.55 1.25 29.55 3.2 31.0 L8.2 35.15 Q10.7 37.5 11.1 40.25 L14.65 42.55 10.8 42.95 Q10.05 44.45 7.3 44.1 3.3 43.55 2.5 40.3 1.8 37.7 3.7 36.7 L3.9 34.5 4.6 36.35 Q6.6 35.95 7.05 37.05 7.55 38.1 6.95 39.15 6.35 40.1 5.8 39.3 6.5 39.25 6.6 38.85 6.65 38.45 5.95 37.8 5.35 37.15 4.75 37.45 4.2 37.75 3.9 38.9 3.3 41.35 6.15 42.45 9.1 43.55 9.55 40.85 10.05 38.6 7.25 36.25 L3.5 33.35 1.0 32.85 2.0 31.9 Q0.2 29.9 0.3 25.15" fill="#7a5130" fill-rule="evenodd" stroke="none"/>
      <path d="M0.35 24.25 Q0.5 21.85 0.95 19.85 0.7 24.0 0.95 25.6 1.3 28.6 3.25 30.1 L8.3 34.25 Q10.75 36.6 11.15 39.3 L14.8 42.6 10.9 42.1 Q10.15 43.55 7.35 43.2 3.35 42.6 2.55 39.45 1.85 36.85 3.8 35.85 L3.9 34.4 4.65 35.5 Q6.65 35.1 7.1 36.9 7.35 38.4 6.8 39.1 L5.95 39.45 Q7.25 38.25 5.85 36.95 4.55 35.6 3.95 38.0 3.35 40.45 6.2 41.5 9.15 42.6 9.6 39.95 10.15 37.75 7.3 35.3 L3.5 32.45 3.55 32.5 0.95 32.9 2.05 31.0 Q0.25 28.95 0.35 24.25" fill="#ca935c" fill-rule="evenodd" stroke="none"/>
      <path d="M0.95 21.5 Q0.9 24.45 1.0 25.65 1.5 28.7 3.35 30.2 L8.35 34.3 Q10.8 36.65 11.3 39.3 L14.4 42.2 14.15 42.1 14.0 41.95 12.3 40.75 Q10.45 39.15 10.4 38.05 10.25 36.7 8.55 35.2 L5.3 32.7 Q2.1 30.25 1.25 27.5 0.65 25.9 0.65 22.1 L0.95 21.5 M6.6 36.65 Q5.95 35.65 4.75 35.65 L4.55 35.75 4.45 35.65 4.3 35.65 4.3 34.8 4.8 35.55 Q6.7 35.15 7.2 36.95 7.4 38.0 7.2 38.7 L7.1 38.75 7.1 38.7 7.0 38.15 7.0 38.05 Q7.0 37.3 6.6 36.65 M4.35 40.35 L4.2 39.75 Q4.65 40.95 6.3 41.55 L8.55 41.75 8.65 41.8 7.1 42.1 Q6.3 42.1 5.45 41.4 L4.35 40.35" fill="#d7ad86" fill-rule="evenodd" stroke="none"/>
      <path d="M43.75 25.15 Q43.85 29.9 42.05 31.9 L43.05 32.85 40.55 33.35 36.8 36.25 Q34.0 38.6 34.5 40.85 34.95 43.55 37.9 42.45 40.75 41.35 40.15 38.9 39.85 37.75 39.3 37.45 38.7 37.15 38.1 37.8 37.4 38.45 37.45 38.85 37.55 39.25 38.25 39.3 37.7 40.1 37.1 39.15 36.5 38.1 37.0 37.05 37.45 35.95 39.45 36.35 L40.15 34.5 40.35 36.7 Q42.25 37.7 41.55 40.3 40.75 43.55 36.75 44.1 34.0 44.45 33.25 42.95 L29.4 42.55 32.95 40.25 Q33.35 37.5 35.85 35.15 L40.85 31.0 Q42.8 29.55 43.15 26.55 43.4 24.9 43.15 20.7 L43.75 25.15" fill="#7a5130" fill-rule="evenodd" stroke="none"/>
      <path d="M43.7 24.25 Q43.8 28.95 42.0 31.0 L43.1 32.9 40.5 32.5 40.55 32.45 36.75 35.3 Q33.9 37.75 34.45 39.95 34.9 42.6 37.85 41.5 40.7 40.45 40.1 38.0 39.5 35.6 38.2 36.95 36.8 38.25 38.1 39.45 L37.25 39.1 Q36.7 38.4 36.95 36.9 37.4 35.1 39.4 35.5 L40.15 34.4 40.25 35.85 Q42.2 36.85 41.5 39.45 40.7 42.6 36.7 43.2 33.9 43.55 33.15 42.1 L29.25 42.6 32.9 39.3 Q33.3 36.6 35.75 34.25 L40.8 30.1 Q42.75 28.6 43.1 25.6 43.35 24.0 43.1 19.85 L43.7 24.25" fill="#ca935c" fill-rule="evenodd" stroke="none"/>
      <path d="M37.45 36.65 Q37.05 37.3 37.05 38.05 L37.05 38.15 36.95 38.7 36.95 38.75 36.85 38.7 Q36.65 38.0 36.85 36.95 37.35 35.15 39.25 35.55 L39.75 34.8 39.75 35.65 39.6 35.65 39.5 35.75 39.3 35.65 Q38.1 35.65 37.45 36.65 M43.1 21.5 L43.4 22.1 Q43.4 25.9 42.8 27.5 41.95 30.25 38.75 32.7 L35.5 35.2 Q33.8 36.7 33.65 38.05 33.6 39.15 31.75 40.75 L30.05 41.95 29.9 42.1 29.65 42.2 32.75 39.3 Q33.25 36.65 35.7 34.3 L40.7 30.2 Q42.55 28.7 43.05 25.65 L43.1 21.5 M39.7 40.35 L38.6 41.4 Q37.75 42.1 36.95 42.1 L35.4 41.8 35.5 41.75 37.75 41.55 Q39.4 40.95 39.85 39.75 L39.7 40.35" fill="#d7ad86" fill-rule="evenodd" stroke="none"/>
    </g>
    <linearGradient gradientTransform="matrix(0.0, -0.0155, -0.0189, 0.0, 21.95, 25.5)" gradientUnits="userSpaceOnUse" id="gradient0" spreadMethod="pad" x1="-819.2" x2="819.2">
      <stop offset="0.011764705882352941" stop-color="#bb9a76"/>
      <stop offset="1.0" stop-color="#a87f53"/>
    </linearGradient>
    <linearGradient gradientTransform="matrix(0.0, -0.0344, -0.0552, 0.0, 22.5, 16.4)" gradientUnits="userSpaceOnUse" id="gradient1" spreadMethod="pad" x1="-819.2" x2="819.2">
      <stop offset="0.0196078431372549" stop-color="#9c6732"/>
      <stop offset="1.0" stop-color="#7d4e2b"/>
    </linearGradient>
    <linearGradient gradientTransform="matrix(1.0E-4, 0.0223, -0.0231, 1.0E-4, 22.25, 22.3)" gradientUnits="userSpaceOnUse" id="gradient2" spreadMethod="pad" x1="-819.2" x2="819.2">
      <stop offset="0.011764705882352941" stop-color="#59351e"/>
      <stop offset="1.0" stop-color="#cc955e"/>
    </linearGradient>
    <g id="sprite0" transform="matrix(1.0, 0.0, 0.0, 1.0, 0.0, 0.0)">
      <use height="20.15" transform="matrix(1.0, 0.0, 0.0, 1.0, 0.0, 0.0)" width="28.2" xlink:href="#shape1"/>
    </g>
    <g id="shape1" transform="matrix(1.0, 0.0, 0.0, 1.0, 0.0, 0.0)">
      <path d="M27.4 18.95 Q26.2 20.8 23.4 19.8 19.6 18.5 17.35 14.05 14.8 9.1 9.75 7.4 4.1 5.65 0.0 10.3 1.0 6.85 3.7 4.15 7.2 0.65 11.9 0.05 L14.8 0.05 18.4 0.65 Q21.55 1.65 24.05 4.15 28.2 8.3 28.2 14.25 28.2 16.45 27.65 18.45 L27.4 18.95" fill="#ffffff" fill-opacity="0.19607843" fill-rule="evenodd" stroke="none"/>
    </g>
    <g id="sprite2" transform="matrix(1.0, 0.0, 0.0, 1.0, 0.15, 0.0)">
      <use height="10.35" transform="matrix(1.0, 0.0, 0.0, 1.0, -0.15, 0.0)" width="42.05" xlink:href="#shape2"/>
    </g>
    <g id="shape2" transform="matrix(1.0, 0.0, 0.0, 1.0, 0.15, 0.0)">
      <path d="M32.7 0.0 Q39.65 0.0 41.35 5.3 41.9 7.0 41.9 9.2 L41.9 10.35 Q41.85 8.4 41.35 6.9 39.65 1.55 32.7 1.55 L9.05 1.55 Q0.15 1.55 -0.15 10.2 L-0.15 9.2 Q-0.15 0.0 9.05 0.0 L32.7 0.0" fill="#e7deda" fill-opacity="0.5882353" fill-rule="evenodd" stroke="none"/>
    </g>
  </defs>
</svg>
