<?xml version="1.0" encoding="UTF-8" standalone="no"?>
<svg xmlns:xlink="http://www.w3.org/1999/xlink" height="66.0px" width="66.0px" xmlns="http://www.w3.org/2000/svg">
  <g transform="matrix(1.5, 0.0, 0.0, 1.5, 0.0, 0.0)">
    <use height="40.4" transform="matrix(1.0, 0.0, 0.0, 1.0, 1.6, 2.25)" width="40.3" xlink:href="#shape0"/>
    <use height="20.15" transform="matrix(1.1548, 0.0, 0.0, 1.1564, 6.25, 5.65)" width="28.2" xlink:href="#sprite0"/>
    <use height="44.0" transform="matrix(1.0, 0.0, 0.0, 1.0, 0.0, 0.0)" width="44.0" xlink:href="#shape2"/>
    <use height="8.6" transform="matrix(1.2077, 0.0, 0.0, 1.2093, 0.4585, 0.75)" width="35.05" xlink:href="#sprite1"/>
    <use height="39.85" transform="matrix(1.0, 0.0, 0.0, 1.0, 1.75, 4.1)" width="40.55" xlink:href="#shape4"/>
  </g>
  <defs>
    <g id="shape0" transform="matrix(1.0, 0.0, 0.0, 1.0, -1.6, -2.25)">
      <path d="M1.6 22.45 Q1.6 14.1 7.5 8.15 13.45 2.25 21.75 2.25 30.05 2.25 36.0 8.15 41.9 14.1 41.9 22.45 41.9 30.75 36.0 36.75 30.05 42.65 21.75 42.65 13.45 42.65 7.5 36.75 1.6 30.75 1.6 22.45" fill="url(#gradient0)" fill-rule="evenodd" stroke="none"/>
      <path d="M30.05 16.85 L30.2 17.1 30.0 17.35 28.85 18.15 28.8 18.1 29.2 18.7 30.25 18.25 30.5 18.25 30.7 18.35 30.7 18.6 30.6 18.8 29.55 19.25 30.0 20.2 31.25 19.95 31.45 20.0 31.65 20.2 31.6 20.35 31.4 20.5 30.1 20.8 30.4 21.75 33.0 21.7 33.3 21.8 33.4 22.0 33.3 22.25 33.0 22.35 30.4 22.35 30.3 23.4 31.35 23.6 31.5 23.7 31.6 23.9 31.45 24.05 31.2 24.15 30.1 24.0 29.75 25.05 31.5 25.7 31.7 25.9 31.7 26.1 31.5 26.25 31.25 26.25 29.5 25.55 28.85 26.45 30.45 27.45 30.6 27.6 30.5 27.9 30.25 28.0 29.95 27.9 28.45 26.85 27.9 27.4 27.55 27.6 27.35 27.75 27.7 28.9 Q28.3 29.0 28.75 29.35 29.3 29.9 29.3 30.9 L29.3 31.1 26.65 31.1 25.9 30.75 25.85 30.05 25.75 29.45 25.85 29.35 Q26.25 29.0 26.65 28.9 L26.5 28.25 25.15 28.9 25.45 31.1 Q26.0 31.15 26.5 31.5 27.05 32.1 27.05 33.1 L27.05 33.3 23.0 33.3 23.0 33.1 Q23.0 32.1 23.6 31.5 23.95 31.2 24.45 31.1 L24.25 29.2 22.7 29.45 23.05 29.45 23.15 30.3 23.05 30.45 22.85 30.65 22.55 30.55 22.45 30.35 22.35 29.5 21.95 29.5 21.8 29.5 21.4 29.5 21.15 31.25 20.95 31.45 20.75 31.45 20.45 31.35 20.4 31.2 20.65 29.45 20.0 29.35 19.4 29.2 19.2 31.1 19.95 31.5 Q20.6 32.1 20.6 33.1 L20.6 33.3 16.6 33.3 16.6 33.1 Q16.6 32.1 17.1 31.5 17.6 31.15 18.15 31.1 18.15 29.9 18.45 28.9 L17.1 28.35 16.95 28.9 17.75 29.35 17.85 29.45 17.75 30.05 17.7 30.75 16.95 31.1 14.25 31.1 14.25 30.9 Q14.25 29.9 14.85 29.35 L15.95 28.9 16.3 27.8 15.75 27.4 15.65 27.35 14.1 28.5 13.85 28.6 13.6 28.45 13.5 28.25 13.6 28.05 15.15 26.85 14.5 26.15 12.05 27.3 11.75 27.3 11.6 27.15 11.55 26.9 11.7 26.75 14.15 25.6 13.65 24.65 11.4 25.15 11.2 25.15 11.0 25.0 Q10.95 24.8 11.05 24.75 L11.25 24.6 13.5 24.05 13.25 23.1 10.9 23.2 10.65 23.15 10.55 22.9 10.65 22.65 10.85 22.6 13.2 22.5 13.2 22.3 13.25 21.45 11.85 21.3 11.6 21.15 11.6 20.95 11.7 20.75 11.95 20.7 13.4 20.85 13.7 19.8 11.6 19.05 11.4 18.95 11.4 18.7 Q11.4 18.6 11.6 18.6 L11.85 18.6 13.95 19.25 14.5 18.45 12.6 17.25 12.45 17.15 Q12.4 16.95 12.5 16.85 L12.75 16.75 13.05 16.8 14.95 17.95 15.75 17.2 14.55 16.0 14.45 15.8 14.55 15.6 14.85 15.55 15.15 15.6 16.3 16.75 17.1 16.25 15.75 14.25 15.75 14.05 15.9 13.85 16.1 13.85 16.35 13.95 17.75 15.95 17.9 15.85 18.85 15.55 18.25 13.75 Q18.15 13.6 18.3 13.55 L18.5 13.4 18.75 13.45 18.9 13.6 19.5 15.35 20.2 15.25 20.0 13.85 Q19.95 13.7 20.05 13.6 L20.35 13.5 20.55 13.6 20.7 13.8 20.9 15.15 21.3 15.15 21.3 3.05 22.6 3.05 22.6 15.15 23.0 15.2 23.0 15.15 23.15 14.35 23.3 14.15 23.55 14.15 23.8 14.25 23.85 14.45 23.7 15.2 23.7 15.3 24.5 15.4 25.25 13.6 25.4 13.45 25.65 13.4 25.8 13.55 25.8 13.8 25.1 15.6 26.15 16.05 26.65 15.35 26.85 15.25 27.15 15.25 27.35 15.4 27.3 15.65 26.7 16.45 27.3 16.75 28.65 15.45 28.85 15.4 29.2 15.45 29.3 15.65 29.2 15.9 27.85 17.2 27.9 17.25 28.15 17.45 28.15 17.5 28.2 17.5 28.4 17.7 29.55 16.85 29.85 16.8 30.05 16.85 M26.05 22.3 L24.45 21.8 24.15 22.8 24.15 23.2 24.2 23.6 24.2 23.8 24.75 25.1 24.75 25.15 Q25.45 25.9 26.15 25.9 L26.3 25.9 Q27.05 25.9 27.7 25.15 28.15 24.6 28.25 23.7 L28.35 23.2 28.35 23.05 27.6 22.8 27.65 23.15 27.65 23.35 27.3 23.9 26.7 24.35 26.0 23.9 25.8 23.15 25.9 22.65 26.0 22.3 26.05 22.3 M16.3 22.8 L15.5 23.05 15.5 23.2 15.55 23.7 Q15.6 24.5 16.05 25.1 16.7 25.9 17.55 25.9 18.45 25.9 19.1 25.15 L19.65 23.8 19.65 23.6 19.65 23.2 19.65 22.8 19.4 21.75 17.8 22.3 17.9 22.65 17.95 23.15 17.8 23.9 17.1 24.35 16.5 23.9 16.2 23.35 16.2 23.15 16.3 22.8" fill="#492c1f" fill-rule="evenodd" stroke="none"/>
    </g>
    <linearGradient gradientTransform="matrix(0.0, -0.0189, -0.0189, 0.0, 21.65, 25.05)" gradientUnits="userSpaceOnUse" id="gradient0" spreadMethod="pad" x1="-819.2" x2="819.2">
      <stop offset="0.011764705882352941" stop-color="#bd9d7a"/>
      <stop offset="1.0" stop-color="#a57a4d"/>
    </linearGradient>
    <g id="sprite0" transform="matrix(1.0, 0.0, 0.0, 1.0, 0.0, 0.0)">
      <use height="20.15" transform="matrix(1.0, 0.0, 0.0, 1.0, 0.0, 0.0)" width="28.2" xlink:href="#shape1"/>
    </g>
    <g id="shape1" transform="matrix(1.0, 0.0, 0.0, 1.0, 0.0, 0.0)">
      <path d="M27.65 18.45 L27.4 18.95 Q26.2 20.8 23.4 19.8 19.6 18.5 17.35 14.05 14.8 9.1 9.75 7.4 4.1 5.65 0.0 10.3 1.0 6.85 3.7 4.15 7.2 0.65 11.9 0.05 L14.8 0.05 18.4 0.65 Q21.55 1.65 24.05 4.15 28.2 8.3 28.2 14.25 28.2 16.45 27.65 18.45" fill="#ffffff" fill-opacity="0.19607843" fill-rule="evenodd" stroke="none"/>
    </g>
    <g id="shape2" transform="matrix(1.0, 0.0, 0.0, 1.0, 0.0, 0.0)">
      <path d="M39.25 22.05 Q39.25 14.8 34.2 9.8 29.15 4.7 22.0 4.7 14.8 4.7 9.75 9.8 4.65 14.8 4.65 22.05 4.65 29.2 9.75 34.3 14.8 39.4 22.0 39.4 29.2 39.4 34.2 34.3 39.25 29.2 39.25 22.05 M7.55 0.0 L36.35 0.0 Q39.55 0.0 41.75 2.25 44.0 4.55 44.0 7.65 L44.0 36.45 Q44.0 39.55 41.75 41.8 39.55 44.0 36.35 44.0 L7.55 44.0 Q4.45 44.0 2.2 41.8 0.0 39.55 0.0 36.45 L0.0 7.65 Q0.0 4.55 2.2 2.25 4.45 0.0 7.55 0.0" fill="url(#gradient1)" fill-rule="evenodd" stroke="none"/>
      <path d="M21.9 5.55 Q15.0 5.6 10.2 10.5 5.3 15.35 5.3 22.2 5.3 29.15 10.2 34.05 15.0 38.85 21.9 38.85 28.75 38.85 33.65 34.05 38.55 29.15 38.55 22.2 38.55 15.35 33.65 10.5 28.8 5.6 21.9 5.55 M8.4 8.8 Q14.0 3.2 21.9 3.2 29.75 3.2 35.3 8.8 40.9 14.35 40.9 22.2 40.9 30.15 35.3 35.7 29.75 41.25 21.9 41.25 14.0 41.25 8.4 35.7 2.85 30.15 2.85 22.2 2.85 14.35 8.4 8.8" fill="url(#gradient2)" fill-rule="evenodd" stroke="none"/>
    </g>
    <linearGradient gradientTransform="matrix(0.0, -0.0275, -0.044, 0.0, 20.9, 22.2)" gradientUnits="userSpaceOnUse" id="gradient1" spreadMethod="pad" x1="-819.2" x2="819.2">
      <stop offset="0.0196078431372549" stop-color="#905a3d"/>
      <stop offset="0.9764705882352941" stop-color="#6a412d"/>
    </linearGradient>
    <linearGradient gradientTransform="matrix(0.0, -0.0168, -0.0168, 0.0, 21.9, 26.8)" gradientUnits="userSpaceOnUse" id="gradient2" spreadMethod="pad" x1="-819.2" x2="819.2">
      <stop offset="0.0196078431372549" stop-color="#a3704d"/>
      <stop offset="0.9803921568627451" stop-color="#492d20"/>
    </linearGradient>
    <g id="sprite1" transform="matrix(1.0, 0.0, 0.0, 1.0, 0.2, 0.0)">
      <use height="8.6" transform="matrix(1.0, 0.0, 0.0, 1.0, -0.2, 0.0)" width="35.05" xlink:href="#shape3"/>
    </g>
    <g id="shape3" transform="matrix(1.0, 0.0, 0.0, 1.0, 0.2, 0.0)">
      <path d="M34.85 8.6 Q34.8 6.95 34.4 5.7 33.0 1.3 27.2 1.3 L7.45 1.3 Q0.05 1.3 -0.2 8.5 L-0.2 7.65 Q-0.2 0.0 7.45 0.0 L27.2 0.0 Q33.0 0.0 34.4 4.4 34.85 5.8 34.85 7.65 L34.85 8.6" fill="#e7deda" fill-rule="evenodd" stroke="none"/>
    </g>
    <g id="shape4" transform="matrix(1.0, 0.0, 0.0, 1.0, -1.8, -4.15)">
      <path d="M13.25 34.1 Q14.75 37.15 17.95 38.55 L16.3 40.55 Q14.0 37.75 13.25 34.1 M27.4 40.55 L25.6 38.55 Q28.8 37.15 30.3 34.1 L29.8 35.9 Q29.0 38.5 27.4 40.55" fill="#6d4a34" fill-rule="evenodd" stroke="none"/>
      <path d="M16.3 40.55 Q12.85 39.55 9.6 37.9 10.9 34.65 13.25 34.1 14.0 37.75 16.3 40.55 M27.4 40.55 Q29.0 38.5 29.8 35.9 L30.3 34.1 Q32.65 34.65 33.9 37.95 30.75 39.65 27.4 40.55" fill="url(#gradient3)" fill-rule="evenodd" stroke="none"/>
      <path d="M32.25 14.25 Q31.75 9.85 29.15 7.1 L30.85 5.35 31.1 5.85 31.55 7.5 Q32.3 11.0 32.25 14.25 M13.2 5.35 L14.95 7.1 Q12.35 9.85 11.8 14.25 11.65 9.95 13.2 5.35" fill="#492d20" fill-rule="evenodd" stroke="none"/>
      <path d="M31.1 5.85 L30.5 4.15 Q33.9 5.9 36.8 8.85 L36.85 8.95 Q36.05 13.0 32.25 14.25 32.3 11.0 31.55 7.5 L31.1 5.85 M13.2 5.35 Q11.65 9.95 11.8 14.25 8.0 13.0 7.2 9.05 L7.4 8.85 Q10.2 5.95 13.5 4.35 L13.2 5.35" fill="url(#gradient4)" fill-rule="evenodd" stroke="none"/>
      <path d="M42.25 33.55 L42.25 36.25 Q42.25 37.25 41.65 37.9 41.15 38.5 40.3 38.5 39.45 38.5 38.85 37.9 38.25 37.25 38.25 36.25 L38.25 35.0 M1.9 33.55 L1.9 36.25 Q1.9 37.25 2.45 37.9 2.95 38.5 3.85 38.5 4.65 38.5 5.3 37.9 5.85 37.25 5.85 36.25 L5.85 35.0" fill="none" stroke="#6a402d" stroke-linecap="round" stroke-linejoin="round" stroke-width="0.25"/>
      <path d="M39.45 5.5 L39.8 5.4 Q40.35 5.4 40.7 6.25 L40.95 8.35 40.7 10.4 Q40.35 11.3 39.8 11.3 L39.45 11.15 40.0 10.4 40.3 8.35 40.0 6.25 39.45 5.5 M4.6 11.15 L4.25 11.3 Q3.75 11.3 3.4 10.4 3.1 9.55 3.1 8.35 3.1 7.1 3.4 6.25 3.75 5.4 4.25 5.4 L4.6 5.5 4.05 6.25 Q3.8 7.1 3.8 8.35 3.8 9.55 4.05 10.4 L4.6 11.15" fill="#1a0d09" fill-rule="evenodd" stroke="none"/>
      <path d="M39.45 5.5 L40.0 6.25 40.3 8.35 40.0 10.4 39.45 11.15 39.0 10.4 Q38.65 9.55 38.65 8.35 38.65 7.1 39.0 6.25 L39.45 5.5 M4.6 5.5 Q4.9 5.65 5.05 6.25 5.4 7.1 5.4 8.35 5.4 9.55 5.05 10.4 L4.6 11.15 4.05 10.4 Q3.8 9.55 3.8 8.35 3.8 7.1 4.05 6.25 L4.6 5.5" fill="#331d16" fill-rule="evenodd" stroke="none"/>
      <path d="M39.45 11.15 L39.8 11.3 Q40.35 11.3 40.7 10.4 L40.95 8.35 40.7 6.25 Q40.35 5.4 39.8 5.4 L39.45 5.5 39.0 6.25 Q38.65 7.1 38.65 8.35 38.65 9.55 39.0 10.4 L39.45 11.15 M4.6 11.15 L4.25 11.3 Q3.75 11.3 3.4 10.4 3.1 9.55 3.1 8.35 3.1 7.1 3.4 6.25 3.75 5.4 4.25 5.4 L4.6 5.5 Q4.9 5.65 5.05 6.25 5.4 7.1 5.4 8.35 5.4 9.55 5.05 10.4 L4.6 11.15" fill="none" stroke="#6a402d" stroke-linecap="round" stroke-linejoin="round" stroke-width="0.05"/>
      <path d="M31.95 44.0 L12.15 44.0 Q12.9 43.65 14.5 43.25 L22.05 42.7 29.55 43.25 31.95 44.0" fill="#6c432e" fill-rule="evenodd" stroke="none"/>
    </g>
    <linearGradient gradientTransform="matrix(0.0, -0.0275, -0.044, 0.0, 20.9, 22.25)" gradientUnits="userSpaceOnUse" id="gradient3" spreadMethod="pad" x1="-819.2" x2="819.2">
      <stop offset="0.0196078431372549" stop-color="#905a3d"/>
      <stop offset="0.9764705882352941" stop-color="#6a412d"/>
    </linearGradient>
    <linearGradient gradientTransform="matrix(0.0, -0.0275, -0.044, 0.0, 20.9, 22.25)" gradientUnits="userSpaceOnUse" id="gradient4" spreadMethod="pad" x1="-819.2" x2="819.2">
      <stop offset="0.0196078431372549" stop-color="#905a3d"/>
      <stop offset="0.9764705882352941" stop-color="#6a412d"/>
    </linearGradient>
  </defs>
</svg>
