<?xml version="1.0" encoding="UTF-8" standalone="no"?>
<svg xmlns:xlink="http://www.w3.org/1999/xlink" height="67.125px" width="66.075px" xmlns="http://www.w3.org/2000/svg">
  <g transform="matrix(1.5, 0.0, 0.0, 1.5, -0.15, 0.975)">
    <use height="44.7" transform="matrix(1.0, 0.0, 0.0, 1.0, 0.1, -0.65)" width="44.05" xlink:href="#shape0"/>
    <use height="20.7" transform="matrix(1.2077, 0.0, 0.0, 1.2077, 0.7, 19.1)" width="7.3" xlink:href="#sprite0"/>
    <use height="24.05" transform="matrix(1.0, 0.0, 0.0, 1.0, 1.3, 18.65)" width="8.5" xlink:href="#shape2"/>
    <use height="12.1" transform="matrix(1.2077, 0.0, 0.0, 1.2077, 2.1896, 27.6)" width="5.7" xlink:href="#sprite1"/>
    <use height="18.7" transform="matrix(1.1919, 0.0, 0.0, 1.1919, 1.25, 18.35)" width="5.7" xlink:href="#sprite2"/>
    <use height="7.0" transform="matrix(1.1919, 0.0, 0.0, 1.1919, 3.2, 32.4404)" width="3.35" xlink:href="#sprite3"/>
    <use height="22.75" transform="matrix(1.0, 0.0, 0.0, 1.0, 1.95, 19.05)" width="7.0" xlink:href="#shape6"/>
    <use height="11.6" transform="matrix(1.1919, 0.0, 0.0, 1.1919, 1.15, 29.75)" width="6.9" xlink:href="#sprite4"/>
    <use height="11.1" transform="matrix(1.1919, 0.0, 0.0, 1.1919, 1.4, 29.75)" width="6.45" xlink:href="#sprite5"/>
    <use height="11.8" transform="matrix(1.1919, 0.0, 0.0, 1.1919, 1.15, 28.45)" width="6.5" xlink:href="#sprite6"/>
    <use height="18.7" transform="matrix(1.1919, 0.0, 0.0, 1.1919, 35.55, 18.35)" width="5.7" xlink:href="#sprite7"/>
    <use height="7.0" transform="matrix(1.1919, 0.0, 0.0, 1.1919, 36.35, 32.4404)" width="3.35" xlink:href="#sprite8"/>
    <use height="22.8" transform="matrix(1.0, 0.0, 0.0, 1.0, 34.7, 19.05)" width="7.05" xlink:href="#shape12"/>
    <use height="11.6" transform="matrix(1.1919, 0.0, 0.0, 1.1919, 34.1404, 29.75)" width="6.9" xlink:href="#sprite9"/>
    <use height="11.1" transform="matrix(1.1919, 0.0, 0.0, 1.1919, 34.5596, 29.75)" width="6.35" xlink:href="#sprite10"/>
    <use height="11.8" transform="matrix(1.1919, 0.0, 0.0, 1.1919, 34.7096, 28.45)" width="6.45" xlink:href="#sprite11"/>
    <use height="30.5" transform="matrix(1.0, 0.0, 0.0, 1.0, 6.95, 7.15)" width="30.5" xlink:href="#shape16"/>
    <use height="20.15" transform="matrix(1.1594, 0.0, 0.0, 1.1605, 5.8, 5.7)" width="28.2" xlink:href="#sprite12"/>
    <use height="0.0" transform="matrix(1.2077, 0.0, 0.0, 1.2065, 1.3, 0.65)" width="0.0" xlink:href="#sprite13"/>
    <use height="10.35" transform="matrix(1.0, 0.0, 0.0, 1.0, 1.0, 0.5)" width="42.05" xlink:href="#sprite14"/>
  </g>
  <defs>
    <g id="shape0" transform="matrix(1.0, 0.0, 0.0, 1.0, -0.1, 0.65)">
      <path d="M21.9 2.35 Q30.25 2.35 36.15 8.25 42.1 14.2 42.1 22.5 42.1 30.85 36.15 36.75 30.25 42.7 21.9 42.7 13.55 42.7 7.65 36.75 1.75 30.85 1.75 22.5 1.75 14.2 7.65 8.25 13.55 2.35 21.9 2.35" fill="url(#gradient0)" fill-rule="evenodd" stroke="none"/>
      <path d="M22.15 4.75 Q14.95 4.75 9.9 9.85 4.8 14.9 4.8 22.1 4.8 29.25 9.9 34.35 14.95 39.4 22.15 39.4 29.35 39.4 34.35 34.35 39.4 29.25 39.4 22.1 39.4 14.9 34.35 9.85 29.25 4.75 22.15 4.75 M0.1 7.7 Q0.1 4.6 2.35 2.35 4.6 0.1 7.7 0.1 22.5 -1.35 36.5 0.1 39.65 0.1 41.9 2.35 44.15 4.6 44.15 7.7 L44.15 36.45 Q44.15 39.6 41.9 41.85 39.65 44.05 36.5 44.05 L7.7 44.05 Q4.6 44.05 2.35 41.85 0.1 39.6 0.1 36.45 L0.1 7.7" fill="url(#gradient1)" fill-rule="evenodd" stroke="none"/>
      <path d="M5.45 22.3 Q5.45 29.2 10.35 34.1 15.15 38.9 22.1 38.9 28.9 38.9 33.8 34.1 38.7 29.2 38.7 22.3 38.7 15.4 33.8 10.55 28.95 5.7 22.1 5.65 15.15 5.7 10.35 10.55 5.45 15.4 5.45 22.3 M8.55 8.9 Q14.15 3.3 22.1 3.3 29.95 3.3 35.5 8.9 41.1 14.45 41.1 22.3 41.1 30.2 35.5 35.75 29.95 41.3 22.1 41.3 14.15 41.3 8.55 35.75 3.05 30.2 3.05 22.3 3.05 14.45 8.55 8.9" fill="url(#gradient2)" fill-rule="evenodd" stroke="none"/>
    </g>
    <linearGradient gradientTransform="matrix(0.0, -0.0189, -0.0189, 0.0, 21.9, 18.7)" gradientUnits="userSpaceOnUse" id="gradient0" spreadMethod="pad" x1="-819.2" x2="819.2">
      <stop offset="0.011764705882352941" stop-color="#b3f9e4"/>
      <stop offset="1.0" stop-color="#5bbbff"/>
    </linearGradient>
    <linearGradient gradientTransform="matrix(0.0, -0.044, -0.044, 0.0, 22.1, -1.1)" gradientUnits="userSpaceOnUse" id="gradient1" spreadMethod="pad" x1="-819.2" x2="819.2">
      <stop offset="0.011764705882352941" stop-color="#90d1d1"/>
      <stop offset="0.9764705882352941" stop-color="#003459"/>
    </linearGradient>
    <linearGradient gradientTransform="matrix(0.0, -0.0168, -0.0168, 0.0, 22.05, 26.9)" gradientUnits="userSpaceOnUse" id="gradient2" spreadMethod="pad" x1="-819.2" x2="819.2">
      <stop offset="0.011764705882352941" stop-color="#dbf7ff"/>
      <stop offset="0.9764705882352941" stop-color="#384759"/>
    </linearGradient>
    <g id="sprite0" transform="matrix(1.0, 0.0, 0.0, 1.0, 0.0, 0.0)">
      <use height="20.7" transform="matrix(1.0, 0.0, 0.0, 1.0, 0.0, 0.0)" width="7.3" xlink:href="#shape1"/>
    </g>
    <g id="shape1" transform="matrix(1.0, 0.0, 0.0, 1.0, 0.0, 0.0)">
      <path d="M1.5 3.3 Q1.25 4.9 1.35 6.95 1.55 10.95 3.35 13.0 L6.75 16.9 Q7.8 18.5 6.9 19.6 5.25 21.5 2.85 20.1 -0.1 18.35 0.0 11.65 0.1 5.2 1.1 1.95 1.6 0.35 2.05 0.0 L1.5 3.3" fill="#6c6a85" fill-rule="evenodd" stroke="none"/>
    </g>
    <g id="shape2" transform="matrix(1.0, 0.0, 0.0, 1.0, -1.3, -18.65)">
      <path d="M2.9 21.55 L2.8 25.9 Q3.25 30.8 5.3 33.3 L9.15 38.15 Q10.45 40.15 9.2 41.45 7.15 43.7 4.35 41.85 0.9 39.6 1.35 31.5 1.85 23.8 2.65 20.45 L3.3 18.65 2.9 21.55" fill="url(#gradient3)" fill-rule="evenodd" stroke="none"/>
    </g>
    <linearGradient gradientTransform="matrix(0.0, -0.0105, -0.0105, 0.0, 5.5, 33.4)" gradientUnits="userSpaceOnUse" id="gradient3" spreadMethod="pad" x1="-819.2" x2="819.2">
      <stop offset="0.011764705882352941" stop-color="#dbf7ff"/>
      <stop offset="0.9764705882352941" stop-color="#384759"/>
    </linearGradient>
    <g id="sprite1" transform="matrix(1.0, 0.0, 0.0, 1.0, 0.05, 0.0)">
      <use height="12.1" transform="matrix(1.0, 0.0, 0.0, 1.0, -0.05, 0.0)" width="5.7" xlink:href="#shape3"/>
    </g>
    <g id="shape3" transform="matrix(1.0, 0.0, 0.0, 1.0, 0.05, 0.0)">
      <path d="M1.45 10.9 Q3.25 11.3 3.25 9.75 3.25 8.85 2.15 7.35 L0.45 4.75 Q-0.3 2.9 0.1 0.0 0.15 0.9 0.5 2.05 1.15 4.35 2.45 5.8 L5.15 8.65 Q6.15 9.9 5.1 11.0 2.85 13.25 1.45 10.9" fill="#f2f2f2" fill-rule="evenodd" stroke="none"/>
    </g>
    <g id="sprite2" transform="matrix(1.0, 0.0, 0.0, 1.0, 0.0, 0.0)">
      <use height="18.7" transform="matrix(1.0, 0.0, 0.0, 1.0, 0.0, 0.0)" width="5.7" xlink:href="#shape4"/>
    </g>
    <g id="shape4" transform="matrix(1.0, 0.0, 0.0, 1.0, 0.0, 0.0)">
      <path d="M1.65 11.9 Q1.55 10.8 0.55 8.3 -0.4 5.85 0.25 2.65 0.6 1.1 1.1 0.0 L0.5 2.55 Q0.05 5.55 0.95 8.0 1.6 9.8 3.55 11.35 5.25 12.65 5.55 14.75 5.9 17.2 5.3 18.15 L4.6 18.55 Q3.45 19.2 2.4 16.85 1.55 14.9 1.55 13.5 L1.65 11.9" fill="#ffffff" fill-rule="evenodd" stroke="none"/>
    </g>
    <g id="sprite3" transform="matrix(1.0, 0.0, 0.0, 1.0, 0.0, 0.05)">
      <use height="7.0" transform="matrix(1.0, 0.0, 0.0, 1.0, 0.0, -0.05)" width="3.35" xlink:href="#shape5"/>
    </g>
    <g id="shape5" transform="matrix(1.0, 0.0, 0.0, 1.0, 0.0, 0.05)">
      <path d="M2.3 5.7 Q2.05 4.1 0.65 2.6 -0.4 1.45 0.2 0.4 0.8 -0.6 2.05 0.6 3.35 1.8 3.35 4.25 3.35 6.7 2.05 6.95 2.9 6.45 2.3 5.7" fill="#ffffff" fill-rule="evenodd" stroke="none"/>
    </g>
    <g id="shape6" transform="matrix(1.0, 0.0, 0.0, 1.0, -1.8, -18.95)">
      <path d="M3.9 34.45 L3.6 33.7 Q3.55 32.85 4.55 32.85 6.1 32.85 5.85 35.5 L5.05 34.1 Q4.15 33.05 3.9 34.45" fill="#ffffff" fill-rule="evenodd" stroke="none"/>
      <path d="M3.5 28.2 L5.4 30.6 Q7.0 32.2 7.65 33.35 9.25 36.1 8.65 39.4 8.55 40.15 8.0 40.7 6.85 41.95 4.5 41.6 L6.25 41.25 Q7.95 40.3 7.8 37.15 7.6 34.55 5.15 31.8 2.55 28.9 2.1 26.6 1.6 23.5 1.9 20.95 L2.3 18.95 2.25 22.75 Q2.35 26.7 3.5 28.2" fill="#bbded6" fill-rule="evenodd" stroke="none"/>
    </g>
    <g id="sprite4" transform="matrix(1.0, 0.0, 0.0, 1.0, 0.0, 0.0)">
      <use height="11.6" transform="matrix(1.0, 0.0, 0.0, 1.0, 0.0, 0.0)" width="6.9" xlink:href="#shape7"/>
    </g>
    <g id="shape7" transform="matrix(1.0, 0.0, 0.0, 1.0, 0.0, 0.0)">
      <path d="M0.0 4.95 Q0.0 2.4 0.35 0.0 0.5 4.25 0.85 6.75 1.1 8.3 2.25 9.5 L3.35 10.4 Q5.95 10.25 6.3 7.5 6.45 6.1 6.1 4.75 7.75 7.6 6.05 10.0 4.4 12.4 2.0 11.15 0.05 10.1 0.0 4.95" fill="#bbded6" fill-rule="evenodd" stroke="none"/>
    </g>
    <g id="sprite5" transform="matrix(1.0, 0.0, 0.0, 1.0, 0.0, 0.0)">
      <use height="11.1" transform="matrix(1.0, 0.0, 0.0, 1.0, 0.0, 0.0)" width="6.45" xlink:href="#shape8"/>
    </g>
    <g id="shape8" transform="matrix(1.0, 0.0, 0.0, 1.0, 0.0, 0.0)">
      <path d="M0.45 5.0 Q1.15 10.05 3.15 10.4 L4.6 10.1 Q6.1 9.4 6.3 7.2 L6.3 6.25 Q6.6 7.3 6.35 8.45 5.85 10.7 3.3 11.1 2.3 11.25 1.35 9.9 -0.45 7.25 0.15 0.0 0.1 2.45 0.45 5.0" fill="#bbded6" fill-rule="evenodd" stroke="none"/>
    </g>
    <g id="sprite6" transform="matrix(1.0, 0.0, 0.0, 1.0, 0.0, 0.0)">
      <use height="11.8" transform="matrix(1.0, 0.0, 0.0, 1.0, 0.0, 0.0)" width="6.5" xlink:href="#shape9"/>
    </g>
    <g id="shape9" transform="matrix(1.0, 0.0, 0.0, 1.0, 0.0, 0.0)">
      <path d="M0.0 0.0 Q0.4 0.55 0.4 1.45 0.4 4.65 0.65 6.45 1.25 10.9 3.1 11.35 L4.2 11.4 Q5.4 11.25 6.1 10.2 L6.5 8.75 6.45 9.5 Q6.15 10.85 5.0 11.45 4.5 11.8 3.8 11.8 2.45 11.75 1.4 10.05 0.4 7.35 0.3 3.6 L0.25 0.8 0.0 0.0" fill="#306b5e" fill-rule="evenodd" stroke="none"/>
    </g>
    <g id="sprite7" transform="matrix(1.0, 0.0, 0.0, 1.0, 0.0, 0.0)">
      <use height="18.7" transform="matrix(1.0, 0.0, 0.0, 1.0, 0.0, 0.0)" width="5.7" xlink:href="#shape10"/>
    </g>
    <g id="shape10" transform="matrix(1.0, 0.0, 0.0, 1.0, 0.0, 0.0)">
      <path d="M4.05 11.9 L4.15 13.5 Q4.15 14.9 3.3 16.85 2.25 19.2 1.1 18.55 0.75 18.6 0.4 18.15 -0.2 17.2 0.15 14.75 0.45 12.65 2.15 11.35 4.1 9.8 4.75 8.0 5.65 5.55 5.2 2.55 5.0 1.05 4.6 0.0 L5.45 2.65 Q6.1 5.85 5.15 8.3 4.15 10.8 4.05 11.9" fill="#ffffff" fill-rule="evenodd" stroke="none"/>
    </g>
    <g id="sprite8" transform="matrix(1.0, 0.0, 0.0, 1.0, 0.0, 0.05)">
      <use height="7.0" transform="matrix(1.0, 0.0, 0.0, 1.0, 0.0, -0.05)" width="3.35" xlink:href="#shape11"/>
    </g>
    <g id="shape11" transform="matrix(1.0, 0.0, 0.0, 1.0, 0.0, 0.05)">
      <path d="M1.05 5.7 Q0.45 6.45 1.3 6.95 0.0 6.7 0.0 4.25 0.0 1.8 1.3 0.6 2.55 -0.6 3.15 0.4 3.75 1.45 2.7 2.6 1.3 4.1 1.05 5.7" fill="#ffffff" fill-rule="evenodd" stroke="none"/>
    </g>
    <g id="shape12" transform="matrix(1.0, 0.0, 0.0, 1.0, -34.55, -18.95)">
      <path d="M39.55 34.45 Q39.3 33.05 38.35 34.1 L37.5 35.5 37.6 34.15 Q37.85 32.85 38.9 32.85 40.45 32.85 39.55 34.45" fill="#ffffff" fill-rule="evenodd" stroke="none"/>
      <path d="M39.9 28.2 Q41.05 26.7 41.15 22.75 L41.1 18.95 41.5 20.95 Q41.8 23.5 41.25 26.6 40.85 28.9 38.25 31.8 35.8 34.55 35.6 37.15 35.45 40.3 37.15 41.25 37.85 41.7 38.6 41.7 36.5 41.9 35.35 40.7 L34.7 39.4 Q34.1 36.1 35.75 33.35 36.4 32.2 38.0 30.6 L39.9 28.2" fill="#bbded6" fill-rule="evenodd" stroke="none"/>
    </g>
    <g id="sprite9" transform="matrix(1.0, 0.0, 0.0, 1.0, 0.05, 0.0)">
      <use height="11.6" transform="matrix(1.0, 0.0, 0.0, 1.0, -0.05, 0.0)" width="6.9" xlink:href="#shape13"/>
    </g>
    <g id="shape13" transform="matrix(1.0, 0.0, 0.0, 1.0, 0.05, 0.0)">
      <path d="M0.8 10.0 Q-0.9 7.6 0.75 4.75 0.4 6.1 0.55 7.5 0.9 10.25 3.5 10.4 L4.6 9.5 Q5.75 8.3 6.0 6.75 6.35 4.25 6.5 0.0 6.9 2.4 6.85 4.95 6.8 10.1 4.85 11.15 2.45 12.4 0.8 10.0" fill="#bbded6" fill-rule="evenodd" stroke="none"/>
    </g>
    <g id="sprite10" transform="matrix(1.0, 0.0, 0.0, 1.0, -0.05, 0.0)">
      <use height="11.1" transform="matrix(1.0, 0.0, 0.0, 1.0, 0.05, 0.0)" width="6.35" xlink:href="#shape14"/>
    </g>
    <g id="shape14" transform="matrix(1.0, 0.0, 0.0, 1.0, -0.05, 0.0)">
      <path d="M5.95 5.0 Q6.3 2.45 6.25 0.0 6.85 7.25 5.05 9.9 4.15 11.25 3.1 11.1 0.55 10.7 0.05 8.45 L0.1 6.25 0.1 7.2 Q0.3 9.4 1.8 10.1 L3.25 10.4 Q5.25 10.05 5.95 5.0" fill="#bbded6" fill-rule="evenodd" stroke="none"/>
    </g>
    <g id="sprite11" transform="matrix(1.0, 0.0, 0.0, 1.0, -0.05, 0.0)">
      <use height="11.8" transform="matrix(1.0, 0.0, 0.0, 1.0, 0.05, 0.0)" width="6.45" xlink:href="#shape15"/>
    </g>
    <g id="shape15" transform="matrix(1.0, 0.0, 0.0, 1.0, -0.05, 0.0)">
      <path d="M6.5 0.0 L6.3 0.8 6.2 3.6 Q6.1 7.35 5.1 10.05 4.05 11.75 2.7 11.8 2.0 11.8 1.5 11.45 0.4 10.85 0.1 9.5 L0.05 8.95 0.4 10.2 Q1.1 11.25 2.3 11.4 L3.4 11.35 Q5.25 10.9 5.85 6.45 L6.1 1.45 Q6.1 0.55 6.5 0.0" fill="#306b5e" fill-rule="evenodd" stroke="none"/>
    </g>
    <g id="shape16" transform="matrix(1.0, 0.0, 0.0, 1.0, -6.95, -7.15)">
      <path d="M30.4 11.35 Q27.0 8.1 22.25 8.1 17.65 8.1 14.3 11.35 L12.75 13.25 14.0 13.8 15.3 12.3 Q18.15 9.35 22.25 9.35 26.6 9.35 29.45 12.3 30.35 13.2 30.85 14.2 L32.2 13.8 Q31.55 12.4 30.4 11.35 M29.1 14.25 Q26.55 11.65 22.7 11.65 19.05 11.65 16.3 14.25 L16.0 14.55 Q16.75 14.8 17.3 15.2 19.55 13.0 22.7 13.0 25.9 13.0 28.1 15.2 L28.25 15.35 29.65 14.75 29.1 14.25 M19.95 17.25 Q21.05 16.7 22.35 16.7 24.05 16.7 25.3 17.45 L26.5 16.65 Q24.7 15.3 22.35 15.3 20.35 15.3 18.8 16.2 L19.95 17.25 M22.35 18.85 L21.35 18.9 22.25 20.15 22.55 20.6 22.8 20.2 23.75 19.0 22.35 18.85 M37.3 20.1 L34.95 19.8 Q31.1 19.8 28.55 22.5 L28.25 22.65 29.5 23.4 Q31.75 21.15 34.95 21.15 L37.45 21.55 37.45 22.4 37.4 24.1 34.6 23.6 Q32.6 23.6 31.05 24.5 L32.05 25.45 Q33.2 24.8 34.6 24.8 36.0 24.8 37.2 25.5 36.35 29.85 33.0 33.2 28.55 37.65 22.2 37.65 15.9 37.65 11.45 33.2 7.95 29.7 7.2 25.05 L7.55 25.45 Q8.65 24.8 10.1 24.8 11.75 24.8 12.9 25.65 L14.15 24.65 Q12.35 23.6 10.1 23.6 8.5 23.6 7.05 24.25 L6.95 22.4 6.95 21.95 Q8.55 21.15 10.45 21.15 13.6 21.15 15.9 23.4 L15.95 23.65 17.15 22.95 16.75 22.5 Q14.15 19.8 10.45 19.8 8.6 19.8 7.05 20.45 7.2 19.1 7.6 17.9 L10.0 17.6 Q14.2 17.6 17.05 20.45 L18.6 22.35 19.95 21.95 18.05 19.55 Q14.85 16.2 10.0 16.2 L8.15 16.35 Q9.3 13.75 11.45 11.6 15.9 7.15 22.2 7.15 28.55 7.15 33.0 11.6 35.15 13.75 36.3 16.35 L34.55 16.2 Q29.75 16.2 26.6 19.55 25.55 20.45 24.9 21.5 L26.3 21.85 Q26.65 21.15 27.5 20.45 30.4 17.6 34.55 17.6 L36.8 17.85 37.3 20.1 M11.5 27.15 L10.1 27.0 9.1 27.1 9.95 28.35 10.3 28.85 10.6 28.4 11.5 27.15 M26.5 32.9 Q24.7 31.55 22.35 31.55 20.35 31.55 18.8 32.55 L19.95 33.65 Q21.05 32.95 22.35 32.95 24.05 32.95 25.3 33.85 L26.5 32.9 M28.25 31.75 L29.65 31.0 29.1 30.6 Q26.55 28.0 22.7 28.0 19.05 28.0 16.3 30.6 L16.0 30.85 17.3 31.5 Q19.55 29.4 22.7 29.4 25.9 29.4 28.1 31.5 L28.25 31.75 M32.2 30.0 L30.4 27.7 Q27.0 24.4 22.25 24.4 17.65 24.4 14.3 27.7 L12.75 29.6 14.0 29.95 15.3 28.65 Q18.15 25.75 22.25 25.75 26.6 25.75 29.45 28.65 30.35 29.4 30.85 30.4 L32.2 30.0 M22.35 35.25 L21.35 35.3 22.25 36.5 22.55 36.95 22.8 36.5 23.75 35.3 22.35 35.25 M34.75 28.85 L35.05 28.4 36.05 27.15 34.55 27.0 33.55 27.1 34.55 28.35 34.75 28.85" fill="#2e5d6b" fill-rule="evenodd" stroke="none"/>
    </g>
    <g id="sprite12" transform="matrix(1.0, 0.0, 0.0, 1.0, 0.0, 0.0)">
      <use height="20.15" transform="matrix(1.0, 0.0, 0.0, 1.0, 0.0, 0.0)" width="28.2" xlink:href="#shape17"/>
    </g>
    <g id="shape17" transform="matrix(1.0, 0.0, 0.0, 1.0, 0.0, 0.0)">
      <path d="M27.4 18.95 Q26.2 20.8 23.4 19.8 19.6 18.5 17.35 14.05 14.8 9.1 9.75 7.4 4.1 5.65 0.0 10.3 1.0 6.85 3.7 4.15 7.2 0.65 11.9 0.05 L14.8 0.05 18.4 0.65 Q21.55 1.65 24.05 4.15 28.2 8.3 28.2 14.25 28.2 16.45 27.65 18.45 L27.4 18.95" fill="#ffffff" fill-opacity="0.19607843" fill-rule="evenodd" stroke="none"/>
    </g>
    <g id="sprite14" transform="matrix(1.0, 0.0, 0.0, 1.0, 0.15, 0.0)">
      <use height="10.35" transform="matrix(1.0, 0.0, 0.0, 1.0, -0.15, 0.0)" width="42.05" xlink:href="#shape18"/>
    </g>
    <g id="shape18" transform="matrix(1.0, 0.0, 0.0, 1.0, 0.15, 0.0)">
      <path d="M32.7 0.0 Q39.65 0.0 41.35 5.3 41.9 7.0 41.9 9.2 L41.9 10.35 Q41.85 8.4 41.35 6.9 39.65 1.55 32.7 1.55 L9.05 1.55 Q0.15 1.55 -0.15 10.2 L-0.15 9.2 Q-0.15 0.0 9.05 0.0 L32.7 0.0" fill="#e7deda" fill-opacity="0.5882353" fill-rule="evenodd" stroke="none"/>
    </g>
  </defs>
</svg>
