<?xml version="1.0" encoding="UTF-8" standalone="no"?>
<svg xmlns:xlink="http://www.w3.org/1999/xlink" height="66.225px" width="66.0px" xmlns="http://www.w3.org/2000/svg">
  <g transform="matrix(1.5, 0.0, 0.0, 1.5, -0.075, -0.075)">
    <use height="44.15" transform="matrix(1.0, 0.0, 0.0, 1.0, 0.05, 0.05)" width="44.0" xlink:href="#shape0"/>
    <use height="8.6" transform="matrix(1.2077, 0.0, 0.0, 1.2065, 0.8085, 0.8)" width="35.05" xlink:href="#sprite0"/>
    <use height="20.15" transform="matrix(1.1594, 0.0, 0.0, 1.1605, 5.55, 5.6)" width="28.2" xlink:href="#sprite1"/>
  </g>
  <defs>
    <g id="shape0" transform="matrix(1.0, 0.0, 0.0, 1.0, -0.05, -0.05)">
      <path d="M20.15 44.2 L16.4 44.2 16.4 43.15 Q18.05 44.15 20.15 44.2 M28.7 42.25 L33.1 42.25 33.1 44.2 28.7 44.2 28.7 42.25" fill="url(#gradient0)" fill-rule="evenodd" stroke="none"/>
      <path d="M16.4 43.15 L15.3 42.25 28.7 42.25 28.7 44.2 20.15 44.2 Q18.05 44.15 16.4 43.15" fill="url(#gradient1)" fill-rule="evenodd" stroke="none"/>
      <path d="M41.85 41.9 Q39.65 44.1 36.45 44.1 L7.65 44.1 Q4.5 44.1 2.3 41.9 0.05 39.7 0.05 36.5 L0.05 7.65 Q0.05 4.55 2.3 2.35 4.5 0.05 7.65 0.05 L36.45 0.05 Q39.6 0.05 41.85 2.35 44.05 4.55 44.05 7.65 L44.05 36.5 Q44.05 39.7 41.85 41.9" fill="url(#gradient2)" fill-rule="evenodd" stroke="none"/>
      <path d="M8.9 9.0 Q14.35 3.55 22.1 3.55 29.8 3.55 35.25 9.0 40.65 14.45 40.65 22.1 40.65 29.85 35.25 35.3 29.8 40.7 22.1 40.7 14.35 40.7 8.9 35.3 3.45 29.85 3.45 22.1 3.45 14.4 8.9 9.0" fill="url(#gradient3)" fill-rule="evenodd" stroke="none"/>
      <path d="M24.0 10.55 Q24.9 11.75 24.45 13.65 L23.4 16.65 Q22.8 17.75 21.85 17.7 20.85 17.65 20.25 16.35 19.65 15.1 19.2 13.45 18.7 11.75 19.6 10.55 20.55 9.3 21.85 9.3 23.1 9.3 24.0 10.55 M21.05 14.0 Q21.25 14.4 21.45 14.15 L21.65 13.45 21.4 12.65 Q21.2 12.35 20.9 12.35 20.6 12.35 20.35 12.65 L20.15 13.45 Q20.15 13.9 20.5 13.75 20.85 13.6 21.05 14.0 M23.7 13.45 L23.45 12.65 22.95 12.35 Q22.65 12.35 22.4 12.65 L22.2 13.45 22.4 14.2 22.95 14.55 Q23.25 14.55 23.45 14.2 L23.7 13.45 M23.1 18.85 L22.75 20.5 22.75 21.5 21.15 21.5 21.15 20.5 20.85 18.95 18.6 18.0 16.4 19.3 15.5 18.75 18.4 16.7 20.7 18.1 22.05 18.35 23.25 18.05 25.7 17.0 28.55 18.85 28.3 20.0 25.35 17.95 23.1 18.85 M7.2 33.25 L19.4 33.25 20.95 26.65 21.05 24.05 22.75 24.05 22.75 26.65 24.4 33.25 36.45 33.25 35.45 34.25 Q29.85 39.95 21.85 39.95 13.85 39.95 8.15 34.25 L7.2 33.25 M22.85 33.25 L21.9 29.4 20.85 33.25 22.85 33.25" fill="#496125" fill-rule="evenodd" stroke="none"/>
      <path d="M30.75 21.3 L30.75 18.45 36.35 22.95 30.75 27.4 30.75 24.35 Q22.35 22.9 14.75 24.35 14.5 26.7 13.25 28.45 11.7 30.7 9.5 30.7 L8.45 30.6 Q9.95 30.15 11.1 28.45 12.4 26.7 12.6 24.35 12.95 22.9 12.55 21.3 12.25 19.15 11.1 17.55 9.95 15.85 8.45 15.45 L9.5 15.3 Q11.7 15.3 13.25 17.55 14.35 19.15 14.7 21.3 22.55 22.65 30.75 21.3" fill="#496125" fill-rule="evenodd" stroke="none"/>
      <path d="M33.75 10.4 Q28.8 5.55 21.9 5.45 15.0 5.55 10.15 10.4 5.25 15.2 5.2 22.1 5.25 29.1 10.15 33.95 15.0 38.85 21.9 38.85 28.8 38.85 33.75 33.95 38.55 29.1 38.55 22.1 38.55 15.2 33.75 10.4 M40.9 22.1 Q40.9 30.0 35.3 35.55 29.8 41.2 21.9 41.2 13.95 41.2 8.45 35.55 2.9 30.0 2.9 22.1 2.9 14.15 8.45 8.65 13.95 3.1 21.9 3.1 29.8 3.1 35.3 8.65 40.9 14.15 40.9 22.1" fill="url(#gradient4)" fill-rule="evenodd" stroke="none"/>
      <path d="M0.95 33.0 Q1.25 30.65 2.55 29.45 L2.95 27.75 Q3.05 26.7 2.8 25.7 L2.55 24.65 1.9 23.3 2.95 24.4 3.75 25.6 4.1 27.0 Q4.15 27.9 3.45 29.7 2.8 31.3 2.65 33.5 L2.6 33.2 2.55 33.5 Q1.95 36.3 3.1 38.25 L4.4 39.7 4.1 39.25 4.15 39.3 4.45 39.8 Q5.0 40.55 5.9 40.7 7.0 40.9 8.05 40.0 9.25 39.0 8.35 37.7 L8.4 38.55 Q8.15 39.5 6.8 39.95 L5.85 40.1 5.85 40.05 5.7 38.85 Q5.65 37.1 7.1 36.2 8.6 35.25 10.1 36.8 L11.35 38.6 Q11.3 36.75 10.35 35.75 L10.55 35.95 11.5 37.65 11.45 37.65 11.65 38.05 11.9 38.9 12.0 40.05 Q10.6 42.95 8.8 42.95 10.05 42.75 10.2 41.6 7.3 42.8 3.8 41.1 1.3 39.15 0.95 33.0" fill="#9ec087" fill-rule="evenodd" stroke="none"/>
      <path d="M2.65 33.5 L2.7 34.8 Q3.05 36.55 3.9 37.7 L4.05 37.1 Q4.75 35.1 7.4 34.55 L9.3 35.0 Q9.9 35.3 10.35 35.75 11.3 36.75 11.35 38.6 L10.1 36.8 Q8.6 35.25 7.1 36.2 5.65 37.1 5.7 38.85 L5.85 40.05 5.85 40.1 6.8 39.95 Q8.15 39.5 8.4 38.55 L8.35 37.7 Q9.25 39.0 8.05 40.0 7.0 40.9 5.9 40.7 5.0 40.55 4.45 39.8 L4.15 39.3 4.1 39.25 4.4 39.7 3.1 38.25 Q1.95 36.3 2.55 33.5 L2.65 33.5 M4.1 39.25 L4.2 39.2 4.15 39.0 4.05 39.1 4.1 39.25" fill="#c0d6b1" fill-rule="evenodd" stroke="none"/>
      <path d="M12.0 40.05 Q11.85 41.15 11.2 42.25 10.25 44.05 7.1 44.15 L4.2 43.85 5.7 43.35 7.9 43.1 6.65 43.2 Q4.5 43.15 3.0 41.65 1.1 39.6 0.85 35.5 L0.95 33.0 Q1.3 39.15 3.8 41.1 7.3 42.8 10.2 41.6 10.05 42.75 8.8 42.95 10.6 42.95 12.0 40.05" fill="#648a4a" fill-rule="evenodd" stroke="none"/>
      <path d="M2.55 33.5 L2.6 33.2 2.65 33.5 2.55 33.5" fill="#00632e" fill-rule="evenodd" stroke="none"/>
      <path d="M4.1 39.25 L4.05 39.1 4.15 39.0 4.2 39.2 4.1 39.25" fill="#ccbf38" fill-rule="evenodd" stroke="none"/>
      <path d="M11.5 37.65 L11.65 38.05 11.45 37.65 11.5 37.65" fill="url(#gradient5)" fill-rule="evenodd" stroke="none"/>
      <path d="M43.2 33.0 Q42.9 30.65 41.6 29.45 L41.2 27.75 Q41.1 26.7 41.35 25.7 L41.6 24.65 42.25 23.3 41.2 24.4 40.4 25.6 40.05 27.0 Q40.0 27.9 40.7 29.7 41.35 31.3 41.5 33.5 L41.55 33.2 41.6 33.5 Q42.2 36.3 41.05 38.25 L39.75 39.7 40.05 39.25 40.0 39.3 39.7 39.8 Q39.15 40.55 38.25 40.7 37.15 40.9 36.1 40.0 34.9 39.0 35.8 37.7 L35.75 38.55 Q36.0 39.5 37.35 39.95 L38.3 40.1 38.3 40.05 38.45 38.85 Q38.5 37.1 37.05 36.2 35.55 35.25 34.05 36.8 33.25 37.65 32.8 38.6 32.85 36.75 33.8 35.75 L33.6 35.95 Q32.95 36.7 32.65 37.65 L32.7 37.65 32.5 38.05 32.25 38.9 32.15 40.05 Q33.55 42.95 35.35 42.95 34.1 42.75 33.95 41.6 36.85 42.8 40.35 41.1 42.85 39.15 43.2 33.0" fill="#9ec087" fill-rule="evenodd" stroke="none"/>
      <path d="M41.5 33.5 L41.45 34.8 Q41.1 36.55 40.25 37.7 L40.1 37.1 Q39.4 35.1 36.75 34.55 L34.85 35.0 33.8 35.75 Q32.85 36.75 32.8 38.6 33.25 37.65 34.05 36.8 35.55 35.25 37.05 36.2 38.5 37.1 38.45 38.85 L38.3 40.05 38.3 40.1 37.35 39.95 Q36.0 39.5 35.75 38.55 L35.8 37.7 Q34.9 39.0 36.1 40.0 37.15 40.9 38.25 40.7 39.15 40.55 39.7 39.8 L40.0 39.3 40.05 39.25 39.75 39.7 41.05 38.25 Q42.2 36.3 41.6 33.5 L41.5 33.5 M40.05 39.25 L39.95 39.2 40.0 39.0 40.1 39.1 40.05 39.25" fill="#c0d6b1" fill-rule="evenodd" stroke="none"/>
      <path d="M32.15 40.05 Q32.3 41.15 32.95 42.25 33.9 44.05 37.05 44.15 L39.95 43.85 38.45 43.35 36.25 43.1 37.5 43.2 Q39.65 43.15 41.15 41.65 43.05 39.6 43.3 35.5 L43.2 33.0 Q42.85 39.15 40.35 41.1 36.85 42.8 33.95 41.6 34.1 42.75 35.35 42.95 33.55 42.95 32.15 40.05" fill="#648a4a" fill-rule="evenodd" stroke="none"/>
      <path d="M41.6 33.5 L41.55 33.2 41.5 33.5 41.6 33.5" fill="#00632e" fill-rule="evenodd" stroke="none"/>
      <path d="M40.05 39.25 L40.1 39.1 40.0 39.0 39.95 39.2 40.05 39.25" fill="#ccbf38" fill-rule="evenodd" stroke="none"/>
      <path d="M32.65 37.65 L32.5 38.05 32.7 37.65 32.65 37.65" fill="url(#gradient6)" fill-rule="evenodd" stroke="none"/>
    </g>
    <linearGradient gradientTransform="matrix(0.0, -0.0555, -0.0554, 0.0, 22.5, 18.5)" gradientUnits="userSpaceOnUse" id="gradient0" spreadMethod="pad" x1="-819.2" x2="819.2">
      <stop offset="0.011764705882352941" stop-color="#e8e1b7"/>
      <stop offset="1.0" stop-color="#eed731"/>
    </linearGradient>
    <linearGradient gradientTransform="matrix(0.0, -0.0555, -0.0554, 0.0, 34.8, 18.5)" gradientUnits="userSpaceOnUse" id="gradient1" spreadMethod="pad" x1="-819.2" x2="819.2">
      <stop offset="0.011764705882352941" stop-color="#e8e1b7"/>
      <stop offset="1.0" stop-color="#eed731"/>
    </linearGradient>
    <linearGradient gradientTransform="matrix(0.0, -0.0283, -0.0551, 0.0, 22.65, 22.05)" gradientUnits="userSpaceOnUse" id="gradient2" spreadMethod="pad" x1="-819.2" x2="819.2">
      <stop offset="0.011764705882352941" stop-color="#9dae7c"/>
      <stop offset="1.0" stop-color="#7e8f45"/>
    </linearGradient>
    <linearGradient gradientTransform="matrix(0.0, -0.0173, -0.0173, 0.0, 22.1, 18.6)" gradientUnits="userSpaceOnUse" id="gradient3" spreadMethod="pad" x1="-819.2" x2="819.2">
      <stop offset="0.011764705882352941" stop-color="#d3d4b5"/>
      <stop offset="1.0" stop-color="#71a26f"/>
    </linearGradient>
    <linearGradient gradientTransform="matrix(1.0E-4, 0.0224, -0.0232, 1.0E-4, 21.95, 22.4)" gradientUnits="userSpaceOnUse" id="gradient4" spreadMethod="pad" x1="-819.2" x2="819.2">
      <stop offset="0.011764705882352941" stop-color="#516537"/>
      <stop offset="1.0" stop-color="#a8ce99"/>
    </linearGradient>
    <linearGradient gradientTransform="matrix(0.0, -0.025, -0.0249, 0.0, 6.1, 31.45)" gradientUnits="userSpaceOnUse" id="gradient5" spreadMethod="pad" x1="-819.2" x2="819.2">
      <stop offset="0.011764705882352941" stop-color="#bed9a5"/>
      <stop offset="1.0" stop-color="#739416"/>
    </linearGradient>
    <linearGradient gradientTransform="matrix(0.0, -0.025, 0.0249, 0.0, 38.0, 31.45)" gradientUnits="userSpaceOnUse" id="gradient6" spreadMethod="pad" x1="-819.2" x2="819.2">
      <stop offset="0.011764705882352941" stop-color="#bed9a5"/>
      <stop offset="1.0" stop-color="#739416"/>
    </linearGradient>
    <g id="sprite0" transform="matrix(1.0, 0.0, 0.0, 1.0, 0.2, 0.0)">
      <use height="8.6" transform="matrix(1.0, 0.0, 0.0, 1.0, -0.2, 0.0)" width="35.05" xlink:href="#shape1"/>
    </g>
    <g id="shape1" transform="matrix(1.0, 0.0, 0.0, 1.0, 0.2, 0.0)">
      <path d="M34.85 8.6 Q34.8 6.95 34.4 5.7 33.0 1.3 27.2 1.3 L7.45 1.3 Q0.05 1.3 -0.2 8.5 L-0.2 7.65 Q-0.2 0.0 7.45 0.0 L27.2 0.0 Q33.0 0.0 34.4 4.4 34.85 5.8 34.85 7.65 L34.85 8.6" fill="#e7deda" fill-rule="evenodd" stroke="none"/>
    </g>
    <g id="sprite1" transform="matrix(1.0, 0.0, 0.0, 1.0, 0.0, 0.0)">
      <use height="20.15" transform="matrix(1.0, 0.0, 0.0, 1.0, 0.0, 0.0)" width="28.2" xlink:href="#shape2"/>
    </g>
    <g id="shape2" transform="matrix(1.0, 0.0, 0.0, 1.0, 0.0, 0.0)">
      <path d="M27.65 18.45 L27.4 18.95 Q26.2 20.8 23.4 19.8 19.6 18.5 17.35 14.05 14.8 9.1 9.75 7.4 4.1 5.65 0.0 10.3 1.0 6.85 3.7 4.15 7.2 0.65 11.9 0.05 L14.8 0.05 18.4 0.65 Q21.55 1.65 24.05 4.15 28.2 8.3 28.2 14.25 28.2 16.45 27.65 18.45" fill="#ffffff" fill-opacity="0.19607843" fill-rule="evenodd" stroke="none"/>
    </g>
  </defs>
</svg>
