<?xml version="1.0" encoding="UTF-8" standalone="no"?>
<svg xmlns:xlink="http://www.w3.org/1999/xlink" height="66.0px" width="66.3px" xmlns="http://www.w3.org/2000/svg">
  <g transform="matrix(1.5, 0.0, 0.0, 1.5, 0.225, 0.0)">
    <use height="37.1" transform="matrix(1.0, 0.0, 0.0, 1.0, 3.45, 3.5)" width="37.2" xlink:href="#shape0"/>
    <use height="20.15" transform="matrix(1.1594, 0.0, 0.0, 1.1594, 5.85, 5.25)" width="28.2" xlink:href="#sprite0"/>
    <use height="44.0" transform="matrix(1.0, 0.0, 0.0, 1.0, -0.15, 0.0)" width="44.0" xlink:href="#shape2"/>
    <use height="8.6" transform="matrix(1.2124, 0.0, 0.0, 1.2124, 0.7575, 0.75)" width="35.05" xlink:href="#sprite1"/>
    <use height="40.5" transform="matrix(1.0, 0.0, 0.0, 1.0, -0.05, 3.5)" width="43.95" xlink:href="#shape4"/>
    <use height="20.15" transform="matrix(1.1594, 0.0, 0.0, 1.1594, 5.85, 5.25)" width="28.2" xlink:href="#sprite0"/>
    <use height="44.0" transform="matrix(1.0, 0.0, 0.0, 1.0, 0.05, 0.0)" width="44.0" xlink:href="#shape5"/>
    <use height="8.6" transform="matrix(1.2125, 0.0, 0.0, 1.2125, 0.9075, 0.95)" width="35.05" xlink:href="#sprite1"/>
    <use height="17.95" transform="matrix(1.0, 0.0, 0.0, 1.0, 0.05, 26.05)" width="43.95" xlink:href="#shape6"/>
  </g>
  <defs>
    <g id="shape0" transform="matrix(1.0, 0.0, 0.0, 1.0, -3.45, -3.5)">
      <path d="M3.45 22.05 Q3.45 14.35 8.9 8.95 14.35 3.5 22.1 3.5 29.8 3.5 35.25 8.95 40.65 14.4 40.65 22.05 40.65 29.75 35.25 35.2 29.8 40.6 22.1 40.6 14.35 40.6 8.9 35.2 3.45 29.75 3.45 22.05" fill="url(#gradient0)" fill-rule="evenodd" stroke="none"/>
      <path d="M21.95 11.45 L21.95 11.7 Q28.85 11.7 35.85 17.8 26.7 19.95 25.95 22.1 L31.9 22.1 Q27.1 24.9 26.0 27.4 L29.75 27.4 Q25.75 28.75 24.3 31.95 L26.8 31.95 Q23.3 33.15 21.95 35.8 L21.75 36.0 21.75 35.55 Q20.4 32.95 16.9 31.75 L19.4 31.75 Q17.95 28.6 13.95 27.25 L17.7 27.25 Q16.6 24.7 11.75 21.95 L17.75 21.95 Q17.0 19.75 7.85 17.6 14.9 11.4 21.95 11.45" fill="#664411" fill-rule="evenodd" stroke="none"/>
    </g>
    <linearGradient gradientTransform="matrix(0.0, -0.017, -0.0173, 0.0, 21.05, 26.95)" gradientUnits="userSpaceOnUse" id="gradient0" spreadMethod="pad" x1="-819.2" x2="819.2">
      <stop offset="0.011764705882352941" stop-color="#dad67d"/>
      <stop offset="1.0" stop-color="#cfa451"/>
    </linearGradient>
    <g id="sprite0" transform="matrix(1.0, 0.0, 0.0, 1.0, 0.0, 0.0)">
      <use height="20.15" transform="matrix(1.0, 0.0, 0.0, 1.0, 0.0, 0.0)" width="28.2" xlink:href="#shape1"/>
    </g>
    <g id="shape1" transform="matrix(1.0, 0.0, 0.0, 1.0, 0.0, 0.0)">
      <path d="M27.65 18.45 L27.4 18.95 Q26.2 20.8 23.4 19.8 19.6 18.5 17.35 14.05 14.8 9.1 9.75 7.4 4.1 5.65 0.0 10.3 1.0 6.85 3.7 4.15 7.2 0.65 11.9 0.05 L14.8 0.05 18.4 0.65 Q21.55 1.65 24.05 4.15 28.2 8.3 28.2 14.25 28.2 16.45 27.65 18.45" fill="#ffffff" fill-opacity="0.19607843" fill-rule="evenodd" stroke="none"/>
    </g>
    <g id="shape2" transform="matrix(1.0, 0.0, 0.0, 1.0, 0.15, 0.0)">
      <path d="M41.65 2.25 Q43.85 4.45 43.85 7.6 L43.85 36.4 Q43.85 39.6 41.65 41.8 39.45 44.0 36.25 44.0 L7.45 44.0 Q4.35 44.0 2.15 41.8 -0.15 39.6 -0.15 36.4 L-0.15 7.6 Q-0.15 4.45 2.15 2.25 4.35 0.0 7.45 0.0 L36.25 0.0 Q39.4 0.0 41.65 2.25 M40.75 22.05 Q40.75 14.1 35.1 8.6 29.6 3.05 21.7 3.05 13.8 3.05 8.25 8.6 2.7 14.1 2.7 22.05 2.7 29.9 8.25 35.45 13.8 41.1 21.7 41.1 29.6 41.1 35.1 35.45 40.75 29.9 40.75 22.05" fill="url(#gradient1)" fill-rule="evenodd" stroke="none"/>
      <path d="M40.75 22.05 Q40.75 29.9 35.1 35.45 29.6 41.1 21.7 41.1 13.8 41.1 8.25 35.45 2.7 29.9 2.7 22.05 2.7 14.1 8.25 8.6 13.8 3.05 21.7 3.05 29.6 3.05 35.1 8.6 40.75 14.1 40.75 22.05 M33.55 10.35 Q28.6 5.45 21.7 5.4 14.8 5.45 9.95 10.35 5.1 15.15 5.0 22.05 5.1 29.0 9.95 33.85 14.8 38.75 21.7 38.75 28.6 38.75 33.55 33.85 38.35 29.0 38.35 22.05 38.35 15.15 33.55 10.35" fill="url(#gradient2)" fill-rule="evenodd" stroke="none"/>
    </g>
    <linearGradient gradientTransform="matrix(0.0, -0.0258, -0.0551, 0.0, 21.7, 21.85)" gradientUnits="userSpaceOnUse" id="gradient1" spreadMethod="pad" x1="-819.2" x2="819.2">
      <stop offset="0.011764705882352941" stop-color="#c79829"/>
      <stop offset="1.0" stop-color="#be7d1e"/>
    </linearGradient>
    <linearGradient gradientTransform="matrix(1.0E-4, 0.0223, -0.0232, 1.0E-4, 21.75, 22.3)" gradientUnits="userSpaceOnUse" id="gradient2" spreadMethod="pad" x1="-819.2" x2="819.2">
      <stop offset="0.011764705882352941" stop-color="#8d5910"/>
      <stop offset="1.0" stop-color="#d9d597"/>
    </linearGradient>
    <g id="sprite1" transform="matrix(1.0, 0.0, 0.0, 1.0, 0.2, 0.0)">
      <use height="8.6" transform="matrix(1.0, 0.0, 0.0, 1.0, -0.2, 0.0)" width="35.05" xlink:href="#shape3"/>
    </g>
    <g id="shape3" transform="matrix(1.0, 0.0, 0.0, 1.0, 0.2, 0.0)">
      <path d="M34.85 8.6 Q34.8 6.95 34.4 5.7 33.0 1.3 27.2 1.3 L7.45 1.3 Q0.05 1.3 -0.2 8.5 L-0.2 7.65 Q-0.2 0.0 7.45 0.0 L27.2 0.0 Q33.0 0.0 34.4 4.4 34.85 5.8 34.85 7.65 L34.85 8.6" fill="#e7deda" fill-rule="evenodd" stroke="none"/>
    </g>
    <g id="shape4" transform="matrix(1.0, 0.0, 0.0, 1.0, 0.05, -3.5)">
      <path d="M38.8 27.95 L39.25 26.75 39.65 26.25 40.35 26.0 Q40.7 26.0 41.0 26.25 L41.45 26.85 41.85 27.95 43.05 27.95 43.75 28.15 43.9 28.35 43.9 29.9 43.65 30.05 42.8 30.7 43.2 32.05 43.2 32.75 42.75 33.3 42.05 33.5 41.4 33.25 41.2 33.1 41.1 35.65 43.5 36.6 43.9 36.85 43.55 38.75 43.4 38.8 40.85 39.45 40.6 42.4 40.5 42.7 39.2 43.45 39.0 43.4 38.45 42.95 36.95 40.4 34.15 41.15 33.8 41.15 32.95 41.8 33.35 43.1 33.35 43.8 33.25 44.0 31.1 44.0 30.5 43.6 29.85 44.0 27.65 44.0 27.6 43.75 27.6 43.05 28.0 41.8 27.1 41.15 26.7 40.55 Q26.55 40.15 26.7 39.8 L27.1 39.25 Q27.4 39.0 27.8 39.0 L28.95 39.0 29.4 37.85 29.8 37.3 30.5 37.1 31.15 37.3 31.6 37.9 32.0 39.0 33.2 39.0 34.8 37.05 33.55 34.85 33.35 34.15 33.65 33.45 34.2 33.1 34.9 33.15 37.3 34.15 38.0 33.4 37.85 33.25 37.45 32.7 37.45 32.0 37.85 30.7 36.95 30.05 36.55 29.5 Q36.4 29.1 36.55 28.75 L36.95 28.15 37.65 27.95 38.8 27.95 M30.65 38.65 L30.35 38.65 29.75 40.15 28.15 40.15 28.1 40.4 29.4 41.3 28.85 43.05 29.0 43.15 30.5 42.15 31.9 43.15 32.15 43.05 31.6 41.3 32.75 40.45 32.7 40.15 31.2 40.15 30.65 38.65 M37.65 35.45 L34.5 34.2 36.25 37.15 33.85 40.0 37.55 39.05 39.45 42.3 39.75 38.55 43.1 37.65 39.95 36.4 40.0 32.95 37.65 35.45 M39.6 29.1 L38.0 29.1 37.95 29.3 39.25 30.25 38.7 32.0 38.85 32.1 40.35 31.05 41.75 32.1 42.0 32.0 41.45 30.25 42.75 29.3 42.65 29.1 41.05 29.1 40.5 27.6 40.2 27.6 39.6 29.1" fill="url(#gradient3)" fill-rule="evenodd" stroke="none"/>
      <path d="M38.5 29.7 L37.65 29.1 39.6 29.1 40.35 27.15 41.05 29.1 43.05 29.1 42.15 29.7 41.05 29.7 40.35 27.8 39.6 29.7 38.5 29.7 M41.45 30.25 L42.1 32.35 41.8 32.15 41.45 30.9 41.45 30.25 M38.85 32.15 L38.55 32.35 39.25 30.25 39.25 30.9 38.85 32.15 M39.95 36.4 L43.1 37.65 42.1 37.95 39.95 37.05 39.95 36.4 M34.5 39.8 L33.85 40.0 36.25 37.15 36.25 37.8 34.5 39.8 M35.0 35.05 L34.5 34.2 37.65 35.45 40.0 32.95 40.0 33.6 37.65 36.1 35.0 35.05 M32.3 40.8 L31.2 40.8 30.5 38.9 29.75 40.8 28.65 40.8 27.8 40.15 29.75 40.15 30.5 38.25 31.2 40.15 33.2 40.15 32.3 40.8 M29.4 41.3 L29.4 41.95 29.0 43.25 28.7 43.4 29.4 41.3 M31.95 43.25 L31.6 41.95 31.6 41.3 32.25 43.4 31.95 43.25" fill="#674512" fill-rule="evenodd" stroke="none"/>
      <path d="M38.5 29.7 L39.6 29.7 40.35 27.8 41.05 29.7 42.15 29.7 41.45 30.25 41.45 30.9 41.8 32.15 40.35 31.05 38.85 32.15 39.25 30.9 39.25 30.25 38.5 29.7 M39.95 36.4 L39.95 37.05 42.1 37.95 39.75 38.55 39.45 42.3 37.55 39.05 34.5 39.8 36.25 37.8 36.25 37.15 35.0 35.05 37.65 36.1 40.0 33.6 39.95 36.4 M32.3 40.8 L31.6 41.3 31.6 41.95 31.95 43.25 30.5 42.15 29.0 43.25 29.4 41.95 29.4 41.3 28.65 40.8 29.75 40.8 30.5 38.9 31.2 40.8 32.3 40.8" fill="#815815" fill-rule="evenodd" stroke="none"/>
      <path d="M5.05 27.95 L4.6 26.75 4.2 26.25 3.5 26.0 Q3.15 26.0 2.85 26.25 2.5 26.4 2.4 26.85 L2.0 27.95 0.8 27.95 0.1 28.15 -0.05 28.35 -0.05 29.9 0.2 30.05 1.05 30.7 0.65 32.05 0.65 32.75 1.1 33.3 1.8 33.5 2.45 33.25 2.65 33.1 2.75 35.65 0.35 36.6 -0.05 36.85 0.3 38.75 0.45 38.8 3.0 39.45 3.25 42.4 3.35 42.7 Q3.95 43.15 4.65 43.45 L4.85 43.4 5.4 42.95 6.9 40.4 9.7 41.15 10.05 41.15 10.9 41.8 10.5 43.1 10.5 43.8 10.6 44.0 12.75 44.0 13.35 43.6 14.0 44.0 16.2 44.0 16.25 43.75 16.25 43.05 15.85 41.8 16.75 41.15 17.15 40.55 17.15 39.8 16.75 39.25 16.05 39.0 14.9 39.0 14.45 37.85 14.05 37.3 13.35 37.1 12.7 37.3 Q12.35 37.5 12.25 37.9 L11.85 39.0 10.65 39.0 9.05 37.05 10.3 34.85 10.5 34.15 10.2 33.45 Q10.0 33.15 9.65 33.1 L8.95 33.15 6.55 34.15 5.85 33.4 6.0 33.25 6.4 32.7 6.4 32.0 6.0 30.7 6.9 30.05 7.3 29.5 7.3 28.75 6.9 28.15 6.2 27.95 5.05 27.95 M13.2 38.65 L13.5 38.65 14.1 40.15 15.7 40.15 15.75 40.4 14.45 41.3 15.0 43.05 14.85 43.15 13.35 42.15 11.95 43.15 11.7 43.05 12.25 41.3 11.1 40.45 11.15 40.15 12.65 40.15 13.2 38.65 M6.2 35.45 L9.35 34.2 7.6 37.15 10.0 40.0 6.3 39.05 4.4 42.3 4.1 38.55 0.75 37.65 3.9 36.4 3.85 32.95 6.2 35.45 M4.25 29.1 L5.85 29.1 5.9 29.3 4.6 30.25 5.15 32.0 5.0 32.1 3.5 31.05 2.1 32.1 1.85 32.0 2.4 30.25 1.1 29.3 1.2 29.1 2.8 29.1 3.35 27.6 3.65 27.6 4.25 29.1" fill="url(#gradient4)" fill-rule="evenodd" stroke="none"/>
      <path d="M5.35 29.7 L6.2 29.1 4.25 29.1 3.5 27.15 2.8 29.1 0.8 29.1 1.7 29.7 2.8 29.7 3.5 27.8 4.25 29.7 5.35 29.7 M2.4 30.25 L1.75 32.35 2.05 32.15 2.4 30.9 2.4 30.25 M5.0 32.15 L5.3 32.35 4.6 30.25 4.6 30.9 5.0 32.15 M3.9 36.4 L0.75 37.65 1.75 37.95 3.9 37.05 3.9 36.4 M9.35 39.8 L10.0 40.0 7.6 37.15 7.6 37.8 9.35 39.8 M8.85 35.05 L9.35 34.2 6.2 35.45 3.85 32.95 3.85 33.6 6.2 36.1 8.85 35.05 M11.55 40.8 L12.65 40.8 13.35 38.9 14.1 40.8 15.2 40.8 16.05 40.15 14.1 40.15 13.35 38.25 12.65 40.15 10.65 40.15 11.55 40.8 M14.45 41.3 L14.45 41.95 14.85 43.25 15.15 43.4 14.45 41.3 M11.9 43.25 L12.25 41.95 12.25 41.3 11.6 43.4 11.9 43.25" fill="#674512" fill-rule="evenodd" stroke="none"/>
      <path d="M1.7 29.7 L2.4 30.25 2.4 30.9 2.05 32.15 3.5 31.05 5.0 32.15 4.6 30.9 4.6 30.25 5.35 29.7 4.25 29.7 3.5 27.8 2.8 29.7 1.7 29.7 M3.9 36.4 L3.9 37.05 1.75 37.95 4.1 38.55 4.4 42.3 6.3 39.05 9.35 39.8 7.6 37.8 7.6 37.15 8.85 35.05 6.2 36.1 3.85 33.6 3.9 36.4 M11.55 40.8 L12.25 41.3 12.25 41.95 11.9 43.25 13.35 42.15 14.85 43.25 14.45 41.95 14.45 41.3 15.2 40.8 14.1 40.8 13.35 38.9 12.65 40.8 11.55 40.8" fill="#815815" fill-rule="evenodd" stroke="none"/>
      <path d="M22.1 3.5 Q29.8 3.5 35.25 8.95 40.65 14.4 40.65 22.05 40.65 29.75 35.25 35.2 29.8 40.6 22.1 40.6 14.35 40.6 8.9 35.2 3.45 29.75 3.45 22.05 3.45 14.35 8.9 8.95 14.35 3.5 22.1 3.5" fill="url(#gradient5)" fill-rule="evenodd" stroke="none"/>
      <path d="M11.45 30.2 L11.65 30.65 11.45 31.1 11.0 31.3 3.85 31.35 3.85 30.05 11.0 30.0 11.45 30.2 M20.2 27.5 L19.3 27.65 19.2 27.7 18.85 27.85 18.1 28.05 Q16.7 28.6 16.55 29.45 L16.5 29.65 16.5 29.75 16.55 29.95 17.0 30.65 18.1 31.3 18.8 31.5 19.9 31.8 22.1 31.9 23.45 31.85 24.55 31.65 26.0 31.25 26.0 31.2 26.1 31.15 27.2 30.45 27.65 29.6 Q27.6 28.6 25.95 28.0 L23.8 27.45 23.85 29.25 20.2 29.25 20.2 27.5 M15.7 17.95 L15.8 18.45 15.5 18.8 15.0 18.9 14.6 18.6 11.6 13.5 11.55 13.0 11.85 12.6 12.35 12.55 12.7 12.85 15.7 17.95 M9.3 17.95 L9.2 17.6 9.35 17.35 9.65 17.25 9.95 17.4 13.65 21.9 13.75 22.2 13.6 22.5 13.25 22.6 13.0 22.45 9.3 17.95 M3.85 23.5 L3.85 22.05 12.3 26.9 12.6 27.3 12.5 27.8 12.15 28.1 11.65 28.0 3.85 23.5 M34.1 17.4 Q34.2 17.25 34.35 17.25 L34.7 17.35 34.85 17.6 34.75 17.95 31.05 22.45 30.75 22.6 30.45 22.5 30.3 22.2 30.4 21.9 34.1 17.4 M28.35 18.45 Q28.25 18.15 28.4 17.95 L31.4 12.85 Q31.55 12.6 31.8 12.55 L32.3 12.6 32.6 13.0 32.5 13.5 29.5 18.6 29.15 18.9 28.65 18.8 28.35 18.45 M24.85 8.4 L24.95 8.4 Q26.05 9.6 26.05 11.1 26.05 12.7 24.95 13.7 L24.85 13.7 23.9 14.65 23.8 14.7 23.8 15.1 26.6 15.7 26.6 25.5 25.0 25.5 24.3 25.5 24.3 19.5 23.8 19.5 23.8 26.05 Q26.25 26.25 28.1 27.05 30.7 28.0 30.75 29.55 30.75 30.25 30.05 30.9 L28.35 32.0 28.2 32.05 28.15 32.15 25.95 32.8 24.2 33.1 22.1 33.2 18.65 33.0 16.9 32.55 15.8 32.2 14.15 31.25 Q13.55 30.7 13.4 30.1 L13.35 29.8 13.35 29.65 13.4 29.3 Q13.65 28.0 15.85 27.15 L17.0 26.8 Q17.2 26.65 17.55 26.6 L17.75 26.55 20.2 26.1 20.2 19.5 19.5 19.5 19.5 25.5 18.95 25.5 17.35 25.5 17.35 15.7 20.2 15.1 20.2 14.7 19.1 13.9 19.0 13.7 18.95 13.7 Q17.8 12.7 17.8 11.1 17.8 9.6 18.95 8.4 L19.0 8.4 Q20.15 7.3 21.6 7.3 L21.95 7.3 22.2 7.3 Q23.8 7.3 24.85 8.4 M40.55 21.85 L40.55 23.4 32.3 28.15 31.8 28.2 31.4 27.9 Q31.25 27.65 31.35 27.4 L31.65 27.0 40.55 21.85 M40.55 30.5 L40.55 31.8 33.5 31.8 33.05 31.6 32.85 31.15 33.05 30.7 33.5 30.5 40.55 30.5 M13.25 32.0 L13.3 31.2 13.8 31.7 Q14.45 32.2 15.65 32.65 L18.1 33.4 19.65 33.7 22.05 33.75 23.85 33.65 25.5 33.4 28.35 32.6 28.4 32.6 28.45 32.6 28.55 32.5 30.45 31.3 30.45 31.25 30.4 31.25 30.65 30.9 30.75 31.85 Q30.7 33.25 28.1 34.35 26.4 35.1 24.1 35.3 L22.55 35.4 22.2 35.45 22.0 35.4 20.95 35.45 Q17.95 35.35 15.8 34.45 13.6 33.55 13.35 32.35 L13.25 32.0" fill="#664411" fill-rule="evenodd" stroke="none"/>
    </g>
    <linearGradient gradientTransform="matrix(0.0, -0.0257, -0.0551, 0.0, 21.7, 21.7)" gradientUnits="userSpaceOnUse" id="gradient3" spreadMethod="pad" x1="-819.2" x2="819.2">
      <stop offset="0.011764705882352941" stop-color="#c79829"/>
      <stop offset="1.0" stop-color="#be7d1e"/>
    </linearGradient>
    <linearGradient gradientTransform="matrix(0.0, -0.0257, 0.0551, 0.0, 22.1, 21.7)" gradientUnits="userSpaceOnUse" id="gradient4" spreadMethod="pad" x1="-819.2" x2="819.2">
      <stop offset="0.011764705882352941" stop-color="#c79829"/>
      <stop offset="1.0" stop-color="#be7d1e"/>
    </linearGradient>
    <linearGradient gradientTransform="matrix(0.0056, 0.0, 0.0, 0.0043, -24.5, 41.75)" gradientUnits="userSpaceOnUse" id="gradient5" spreadMethod="pad" x1="-819.2" x2="819.2">
      <stop offset="0.011764705882352941" stop-color="#c79829"/>
      <stop offset="1.0" stop-color="#be7d1e"/>
    </linearGradient>
    <g id="shape5" transform="matrix(1.0, 0.0, 0.0, 1.0, -0.05, 0.0)">
      <path d="M40.9 22.05 Q40.9 14.1 35.3 8.6 29.8 3.05 21.9 3.05 13.95 3.05 8.45 8.6 2.9 14.1 2.9 22.05 2.9 29.95 8.45 35.45 13.95 41.1 21.9 41.1 29.8 41.1 35.3 35.45 40.9 29.95 40.9 22.05 M41.85 2.3 Q44.05 4.5 44.05 7.6 L44.05 36.4 Q44.05 39.6 41.85 41.8 39.65 44.0 36.45 44.0 L7.65 44.0 Q4.5 44.0 2.3 41.8 0.05 39.6 0.05 36.4 L0.05 7.6 Q0.05 4.5 2.3 2.3 4.5 0.0 7.65 0.0 L36.45 0.0 Q39.6 0.0 41.85 2.3" fill="url(#gradient6)" fill-rule="evenodd" stroke="none"/>
      <path d="M33.75 10.35 Q28.8 5.45 21.9 5.4 15.0 5.45 10.15 10.35 5.25 15.15 5.2 22.05 5.25 29.0 10.15 33.85 15.0 38.75 21.9 38.75 28.8 38.75 33.75 33.85 38.55 29.0 38.55 22.05 38.55 15.15 33.75 10.35 M40.9 22.05 Q40.9 29.95 35.3 35.45 29.8 41.1 21.9 41.1 13.95 41.1 8.45 35.45 2.9 29.95 2.9 22.05 2.9 14.1 8.45 8.6 13.95 3.05 21.9 3.05 29.8 3.05 35.3 8.6 40.9 14.1 40.9 22.05" fill="url(#gradient7)" fill-rule="evenodd" stroke="none"/>
    </g>
    <linearGradient gradientTransform="matrix(0.0, -0.0258, -0.0551, 0.0, 21.9, 21.85)" gradientUnits="userSpaceOnUse" id="gradient6" spreadMethod="pad" x1="-819.2" x2="819.2">
      <stop offset="0.011764705882352941" stop-color="#dad67d"/>
      <stop offset="1.0" stop-color="#cfa451"/>
    </linearGradient>
    <linearGradient gradientTransform="matrix(0.0, 0.0059, -0.0232, 0.0, 21.9, 18.4)" gradientUnits="userSpaceOnUse" id="gradient7" spreadMethod="pad" x1="-819.2" x2="819.2">
      <stop offset="0.011764705882352941" stop-color="#8d5910"/>
      <stop offset="1.0" stop-color="#d9d597"/>
    </linearGradient>
    <g id="shape6" transform="matrix(1.0, 0.0, 0.0, 1.0, -0.05, -26.05)">
      <path d="M38.9 27.95 L39.35 26.8 39.75 26.3 Q40.1 26.05 40.45 26.05 L41.1 26.3 41.55 26.85 41.95 27.95 43.1 27.95 Q43.55 27.95 43.8 28.2 L44.0 28.35 44.0 29.95 43.75 30.1 42.9 30.75 43.3 32.1 43.3 32.8 42.85 33.35 42.15 33.55 41.5 33.3 41.25 33.15 41.2 35.7 43.6 36.65 44.0 36.9 43.65 38.8 43.45 38.85 40.9 39.5 40.7 42.45 40.55 42.75 39.3 43.5 39.05 43.45 38.55 43.0 37.05 40.45 34.25 41.2 33.9 41.2 33.05 41.8 33.45 43.15 33.45 43.85 33.35 44.0 31.2 44.0 30.6 43.6 29.95 44.0 27.75 44.0 27.7 43.8 27.7 43.1 28.1 41.8 27.2 41.2 26.8 40.6 Q26.65 40.2 26.8 39.85 L27.2 39.25 27.9 39.05 29.05 39.05 29.5 37.9 29.9 37.35 30.6 37.15 31.25 37.35 31.7 37.95 32.1 39.05 33.25 39.05 34.9 37.05 33.6 34.85 33.45 34.15 33.75 33.45 Q33.95 33.2 34.3 33.15 L35.0 33.2 37.4 34.15 38.1 33.4 37.95 33.3 37.55 32.7 37.55 32.0 37.95 30.75 37.05 30.1 36.65 29.55 Q36.5 29.15 36.65 28.8 L37.05 28.2 Q37.35 27.95 37.75 27.95 L38.9 27.95 M30.7 38.7 L30.45 38.7 29.85 40.2 28.25 40.2 28.15 40.45 29.5 41.35 28.9 43.1 29.1 43.2 30.6 42.15 32.0 43.2 32.25 43.1 31.7 41.35 32.85 40.5 32.8 40.2 31.3 40.2 30.7 38.7 M37.75 35.5 L34.6 34.25 36.35 37.2 33.95 40.0 37.6 39.1 39.55 42.35 39.8 38.6 43.2 37.7 40.05 36.45 40.1 33.0 37.75 35.5 M39.7 29.15 L38.1 29.15 38.0 29.35 39.35 30.3 38.8 32.0 38.95 32.15 40.45 31.1 41.85 32.15 42.1 32.0 41.55 30.3 42.85 29.35 42.7 29.15 41.15 29.15 40.55 27.6 40.3 27.6 39.7 29.15" fill="#d1ae5a" fill-rule="evenodd" stroke="none"/>
      <path d="M42.25 29.75 L41.55 30.3 41.55 30.9 41.9 32.2 40.45 31.1 38.95 32.2 39.35 30.9 39.35 30.3 38.6 29.75 39.7 29.75 40.45 27.85 41.15 29.75 42.25 29.75 M40.05 36.45 L40.05 37.05 42.2 38.0 39.8 38.6 39.55 42.35 37.6 39.1 34.6 39.85 36.35 37.8 36.35 37.2 35.05 35.1 37.75 36.15 40.1 33.65 40.05 36.45 M28.75 40.85 L29.85 40.85 30.6 38.9 31.3 40.85 32.4 40.85 31.7 41.35 31.7 42.0 32.05 43.25 30.6 42.15 29.1 43.25 29.5 42.0 29.5 41.35 28.75 40.85" fill="#815815" fill-rule="evenodd" stroke="none"/>
      <path d="M38.6 29.75 L37.75 29.15 39.7 29.15 40.45 27.2 41.15 29.15 43.1 29.15 42.25 29.75 41.15 29.75 40.45 27.85 39.7 29.75 38.6 29.75 M41.55 30.3 L42.2 32.35 41.9 32.2 41.55 30.9 41.55 30.3 M38.95 32.2 L38.65 32.35 39.35 30.3 39.35 30.9 38.95 32.2 M40.05 36.45 L43.2 37.7 42.2 38.0 40.05 37.05 40.05 36.45 M34.6 39.85 L33.95 40.0 36.35 37.2 36.35 37.8 34.6 39.85 M35.05 35.1 L34.6 34.25 37.75 35.5 40.1 33.0 40.1 33.65 37.75 36.15 35.05 35.1 M28.75 40.85 L27.9 40.2 29.85 40.2 30.6 38.3 31.3 40.2 33.25 40.2 32.4 40.85 31.3 40.85 30.6 38.9 29.85 40.85 28.75 40.85 M31.7 41.35 L32.35 43.45 32.05 43.25 31.7 42.0 31.7 41.35 M29.1 43.25 L28.8 43.45 29.5 41.35 29.5 42.0 29.1 43.25" fill="#674512" fill-rule="evenodd" stroke="none"/>
      <path d="M10.3 33.45 L10.6 34.15 10.45 34.85 9.15 37.05 10.8 39.05 11.95 39.05 12.35 37.95 12.8 37.35 13.45 37.15 14.15 37.35 14.55 37.9 15.0 39.05 16.15 39.05 16.85 39.25 17.25 39.85 17.25 40.6 16.85 41.2 15.95 41.8 16.35 43.1 16.35 43.8 16.3 44.0 14.1 44.0 13.45 43.6 12.85 44.0 10.7 44.0 10.6 43.85 10.6 43.15 11.0 41.8 10.15 41.2 9.8 41.2 7.0 40.45 5.5 43.0 5.0 43.45 4.75 43.5 Q4.05 43.2 3.5 42.75 L3.35 42.45 3.15 39.5 0.6 38.85 0.4 38.8 0.05 36.9 Q0.25 36.7 0.45 36.65 L2.85 35.7 2.8 33.15 2.55 33.3 1.9 33.55 1.2 33.35 0.75 32.8 0.75 32.1 1.15 30.75 0.3 30.1 0.05 29.95 0.05 28.35 0.25 28.2 Q0.5 27.95 0.95 27.95 L2.1 27.95 2.5 26.85 2.95 26.3 Q3.25 26.05 3.6 26.05 L4.3 26.3 4.7 26.8 5.15 27.95 6.3 27.95 Q6.7 27.95 7.0 28.2 L7.4 28.8 7.4 29.55 7.0 30.1 6.1 30.75 6.5 32.0 6.5 32.7 6.1 33.3 5.95 33.4 6.65 34.15 9.05 33.2 9.75 33.15 10.3 33.45 M3.75 27.6 L3.5 27.6 2.9 29.15 1.35 29.15 1.2 29.35 2.5 30.3 1.95 32.0 2.2 32.15 3.6 31.1 5.1 32.15 5.25 32.0 4.7 30.3 6.05 29.35 5.95 29.15 4.35 29.15 3.75 27.6 M4.25 38.6 L4.5 42.35 6.45 39.1 10.1 40.0 7.7 37.2 9.45 34.25 6.3 35.5 3.95 33.0 4.0 36.45 0.85 37.7 4.25 38.6 M11.2 40.5 L12.35 41.35 11.8 43.1 12.05 43.2 13.45 42.15 14.95 43.2 15.15 43.1 14.55 41.35 15.9 40.45 15.8 40.2 14.2 40.2 13.6 38.7 13.35 38.7 12.75 40.2 11.25 40.2 11.2 40.5" fill="#d1ae5a" fill-rule="evenodd" stroke="none"/>
      <path d="M1.8 29.75 L0.95 29.15 2.9 29.15 3.6 27.2 4.35 29.15 6.3 29.15 5.45 29.75 4.35 29.75 3.6 27.85 2.9 29.75 1.8 29.75 M4.7 30.3 L5.4 32.35 5.1 32.2 4.7 30.9 4.7 30.3 M2.15 32.2 L1.85 32.35 2.5 30.3 2.5 30.9 2.15 32.2 M4.0 36.45 L4.0 37.05 1.85 38.0 0.85 37.7 4.0 36.45 M9.45 39.85 L7.7 37.8 7.7 37.2 10.1 40.0 9.45 39.85 M9.0 35.1 L6.3 36.15 3.95 33.65 3.95 33.0 6.3 35.5 9.45 34.25 9.0 35.1 M11.65 40.85 L10.8 40.2 12.75 40.2 13.45 38.3 14.2 40.2 16.15 40.2 15.3 40.85 14.2 40.85 13.45 38.9 12.75 40.85 11.65 40.85 M14.55 41.35 L15.25 43.45 14.95 43.25 14.55 42.0 14.55 41.35 M12.0 43.25 L11.7 43.45 12.35 41.35 12.35 42.0 12.0 43.25" fill="#674512" fill-rule="evenodd" stroke="none"/>
      <path d="M1.8 29.75 L2.9 29.75 3.6 27.85 4.35 29.75 5.45 29.75 4.7 30.3 4.7 30.9 5.1 32.2 3.6 31.1 2.15 32.2 2.5 30.9 2.5 30.3 1.8 29.75 M4.0 36.45 L3.95 33.65 6.3 36.15 9.0 35.1 7.7 37.2 7.7 37.8 9.45 39.85 6.45 39.1 4.5 42.35 4.25 38.6 1.85 38.0 4.0 37.05 4.0 36.45 M15.3 40.85 L14.55 41.35 14.55 42.0 14.95 43.25 13.45 42.15 12.0 43.25 12.35 42.0 12.35 41.35 11.65 40.85 12.75 40.85 13.45 38.9 14.2 40.85 15.3 40.85" fill="#815815" fill-rule="evenodd" stroke="none"/>
    </g>
  </defs>
</svg>
