<?xml version="1.0" encoding="UTF-8" standalone="no"?>
<svg xmlns:xlink="http://www.w3.org/1999/xlink" height="66.0px" width="66.3px" xmlns="http://www.w3.org/2000/svg">
  <g transform="matrix(1.5, 0.0, 0.0, 1.5, 0.225, -0.075)">
    <use height="44.0" transform="matrix(1.0, 0.0, 0.0, 1.0, -0.15, 0.05)" width="44.0" xlink:href="#shape0"/>
    <use height="8.6" transform="matrix(1.2124, 0.0, 0.0, 1.2124, 0.7575, 0.8)" width="35.05" xlink:href="#sprite0"/>
    <use height="40.55" transform="matrix(1.0, 0.0, 0.0, 1.0, -0.05, 3.5)" width="43.95" xlink:href="#shape2"/>
    <use height="20.15" transform="matrix(1.1594, 0.0, 0.0, 1.1605, 6.0, 5.45)" width="28.2" xlink:href="#sprite1"/>
    <use height="44.0" transform="matrix(1.0, 0.0, 0.0, 1.0, 0.05, 0.05)" width="44.0" xlink:href="#shape4"/>
    <use height="8.6" transform="matrix(1.2125, 0.0, 0.0, 1.2125, 0.9075, 1.0)" width="35.05" xlink:href="#sprite0"/>
    <use height="17.95" transform="matrix(1.0, 0.0, 0.0, 1.0, 0.05, 26.1)" width="43.95" xlink:href="#shape5"/>
  </g>
  <defs>
    <g id="shape0" transform="matrix(1.0, 0.0, 0.0, 1.0, 0.15, -0.05)">
      <path d="M43.85 7.65 L43.85 36.45 Q43.85 39.65 41.65 41.85 39.45 44.05 36.25 44.05 L7.45 44.05 Q4.35 44.05 2.15 41.85 -0.15 39.65 -0.15 36.45 L-0.15 7.65 Q-0.15 4.5 2.15 2.3 4.35 0.05 7.45 0.05 L36.25 0.05 Q39.4 0.05 41.65 2.3 43.85 4.5 43.85 7.65 M40.75 22.1 Q40.75 14.15 35.1 8.65 29.6 3.1 21.7 3.1 13.8 3.1 8.25 8.65 2.7 14.15 2.7 22.1 2.7 29.95 8.25 35.5 13.8 41.15 21.7 41.15 29.6 41.15 35.1 35.5 40.75 29.95 40.75 22.1" fill="url(#gradient0)" fill-rule="evenodd" stroke="none"/>
      <path d="M40.75 22.1 Q40.75 29.95 35.1 35.5 29.6 41.15 21.7 41.15 13.8 41.15 8.25 35.5 2.7 29.95 2.7 22.1 2.7 14.15 8.25 8.65 13.8 3.1 21.7 3.1 29.6 3.1 35.1 8.65 40.75 14.15 40.75 22.1 M33.55 10.4 Q28.6 5.5 21.7 5.45 14.8 5.5 9.95 10.4 5.1 15.2 5.0 22.1 5.1 29.05 9.95 33.9 14.8 38.8 21.7 38.8 28.6 38.8 33.55 33.9 38.35 29.05 38.35 22.1 38.35 15.2 33.55 10.4" fill="url(#gradient1)" fill-rule="evenodd" stroke="none"/>
    </g>
    <linearGradient gradientTransform="matrix(0.0, -0.0258, -0.0551, 0.0, 21.7, 21.9)" gradientUnits="userSpaceOnUse" id="gradient0" spreadMethod="pad" x1="-819.2" x2="819.2">
      <stop offset="0.011764705882352941" stop-color="#c79829"/>
      <stop offset="1.0" stop-color="#be7d1e"/>
    </linearGradient>
    <linearGradient gradientTransform="matrix(1.0E-4, 0.0223, -0.0232, 1.0E-4, 21.75, 22.35)" gradientUnits="userSpaceOnUse" id="gradient1" spreadMethod="pad" x1="-819.2" x2="819.2">
      <stop offset="0.011764705882352941" stop-color="#8d5910"/>
      <stop offset="1.0" stop-color="#d9d597"/>
    </linearGradient>
    <g id="sprite0" transform="matrix(1.0, 0.0, 0.0, 1.0, 0.2, 0.0)">
      <use height="8.6" transform="matrix(1.0, 0.0, 0.0, 1.0, -0.2, 0.0)" width="35.05" xlink:href="#shape1"/>
    </g>
    <g id="shape1" transform="matrix(1.0, 0.0, 0.0, 1.0, 0.2, 0.0)">
      <path d="M34.85 8.6 Q34.8 6.95 34.4 5.7 33.0 1.3 27.2 1.3 L7.45 1.3 Q0.05 1.3 -0.2 8.5 L-0.2 7.65 Q-0.2 0.0 7.45 0.0 L27.2 0.0 Q33.0 0.0 34.4 4.4 34.85 5.8 34.85 7.65 L34.85 8.6" fill="#e7deda" fill-rule="evenodd" stroke="none"/>
    </g>
    <g id="shape2" transform="matrix(1.0, 0.0, 0.0, 1.0, 0.05, -3.5)">
      <path d="M38.8 28.0 L39.25 26.8 39.65 26.3 40.35 26.05 Q40.7 26.05 41.0 26.3 L41.45 26.9 41.85 28.0 43.05 28.0 43.75 28.2 43.9 28.4 43.9 29.95 43.65 30.1 42.8 30.75 43.2 32.1 43.2 32.8 42.75 33.35 42.05 33.55 41.4 33.3 41.2 33.15 41.1 35.7 43.5 36.65 43.9 36.9 43.55 38.8 43.4 38.85 40.85 39.5 40.6 42.45 40.5 42.75 39.2 43.5 39.0 43.45 38.45 43.0 36.95 40.45 34.15 41.2 33.8 41.2 32.95 41.85 33.35 43.15 33.35 43.85 33.25 44.05 31.1 44.05 30.5 43.65 29.85 44.05 27.65 44.05 27.6 43.8 27.6 43.1 28.0 41.85 27.1 41.2 26.7 40.6 Q26.55 40.2 26.7 39.85 L27.1 39.3 Q27.4 39.05 27.8 39.05 L28.95 39.05 29.4 37.9 29.8 37.35 30.5 37.15 31.15 37.35 31.6 37.95 32.0 39.05 33.2 39.05 34.8 37.1 33.55 34.9 33.35 34.2 33.65 33.5 34.2 33.15 34.9 33.2 37.3 34.2 38.0 33.45 37.85 33.3 37.45 32.75 37.45 32.05 37.85 30.75 36.95 30.1 36.55 29.55 Q36.4 29.15 36.55 28.8 L36.95 28.2 37.65 28.0 38.8 28.0 M30.65 38.7 L30.35 38.7 29.75 40.2 28.15 40.2 28.1 40.45 29.4 41.35 28.85 43.1 29.0 43.2 30.5 42.2 31.9 43.2 32.15 43.1 31.6 41.35 32.75 40.5 32.7 40.2 31.2 40.2 30.65 38.7 M37.65 35.5 L34.5 34.25 36.25 37.2 33.85 40.05 37.55 39.1 39.45 42.35 39.75 38.6 43.1 37.7 39.95 36.45 40.0 33.0 37.65 35.5 M39.6 29.15 L38.0 29.15 37.95 29.35 39.25 30.3 38.7 32.05 38.85 32.15 40.35 31.1 41.75 32.15 42.0 32.05 41.45 30.3 42.75 29.35 42.65 29.15 41.05 29.15 40.5 27.65 40.2 27.65 39.6 29.15" fill="url(#gradient2)" fill-rule="evenodd" stroke="none"/>
      <path d="M38.5 29.75 L37.65 29.15 39.6 29.15 40.35 27.2 41.05 29.15 43.05 29.15 42.15 29.75 41.05 29.75 40.35 27.85 39.6 29.75 38.5 29.75 M41.45 30.3 L42.1 32.4 41.8 32.2 41.45 30.95 41.45 30.3 M38.85 32.2 L38.55 32.4 39.25 30.3 39.25 30.95 38.85 32.2 M39.95 36.45 L43.1 37.7 42.1 38.0 39.95 37.1 39.95 36.45 M34.5 39.85 L33.85 40.05 36.25 37.2 36.25 37.85 34.5 39.85 M35.0 35.1 L34.5 34.25 37.65 35.5 40.0 33.0 40.0 33.65 37.65 36.15 35.0 35.1 M32.3 40.85 L31.2 40.85 30.5 38.95 29.75 40.85 28.65 40.85 27.8 40.2 29.75 40.2 30.5 38.3 31.2 40.2 33.2 40.2 32.3 40.85 M29.4 41.35 L29.4 42.0 29.0 43.3 28.7 43.45 29.4 41.35 M31.95 43.3 L31.6 42.0 31.6 41.35 32.25 43.45 31.95 43.3" fill="#674512" fill-rule="evenodd" stroke="none"/>
      <path d="M42.15 29.75 L41.45 30.3 41.45 30.95 41.8 32.2 40.35 31.1 38.85 32.2 39.25 30.95 39.25 30.3 38.5 29.75 39.6 29.75 40.35 27.85 41.05 29.75 42.15 29.75 M39.95 36.45 L39.95 37.1 42.1 38.0 39.75 38.6 39.45 42.35 37.55 39.1 34.5 39.85 36.25 37.85 36.25 37.2 35.0 35.1 37.65 36.15 40.0 33.65 39.95 36.45 M32.3 40.85 L31.6 41.35 31.6 42.0 31.95 43.3 30.5 42.2 29.0 43.3 29.4 42.0 29.4 41.35 28.65 40.85 29.75 40.85 30.5 38.95 31.2 40.85 32.3 40.85" fill="#815815" fill-rule="evenodd" stroke="none"/>
      <path d="M5.05 28.0 L4.6 26.8 4.2 26.3 3.5 26.05 Q3.15 26.05 2.85 26.3 2.5 26.45 2.4 26.9 L2.0 28.0 0.8 28.0 0.1 28.2 -0.05 28.4 -0.05 29.95 0.2 30.1 1.05 30.75 0.65 32.1 0.65 32.8 1.1 33.35 1.8 33.55 2.45 33.3 2.65 33.15 2.75 35.7 0.35 36.65 -0.05 36.9 0.3 38.8 0.45 38.85 3.0 39.5 3.25 42.45 3.35 42.75 Q3.95 43.2 4.65 43.5 L4.85 43.45 5.4 43.0 6.9 40.45 9.7 41.2 10.05 41.2 10.9 41.85 10.5 43.15 10.5 43.85 10.6 44.05 12.75 44.05 13.35 43.65 14.0 44.05 16.2 44.05 16.25 43.8 16.25 43.1 15.85 41.85 16.75 41.2 17.15 40.6 17.15 39.85 16.75 39.3 16.05 39.05 14.9 39.05 14.45 37.9 14.05 37.35 13.35 37.15 12.7 37.35 Q12.35 37.55 12.25 37.95 L11.85 39.05 10.65 39.05 9.05 37.1 10.3 34.9 10.5 34.2 10.2 33.5 Q10.0 33.2 9.65 33.15 L8.95 33.2 6.55 34.2 5.85 33.45 6.0 33.3 6.4 32.75 6.4 32.05 6.0 30.75 6.9 30.1 7.3 29.55 7.3 28.8 6.9 28.2 6.2 28.0 5.05 28.0 M13.2 38.7 L13.5 38.7 14.1 40.2 15.7 40.2 15.75 40.45 14.45 41.35 15.0 43.1 14.85 43.2 13.35 42.2 11.95 43.2 11.7 43.1 12.25 41.35 11.1 40.5 11.15 40.2 12.65 40.2 13.2 38.7 M6.2 35.5 L9.35 34.25 7.6 37.2 10.0 40.05 6.3 39.1 4.4 42.35 4.1 38.6 0.75 37.7 3.9 36.45 3.85 33.0 6.2 35.5 M4.25 29.15 L5.85 29.15 5.9 29.35 4.6 30.3 5.15 32.05 5.0 32.15 3.5 31.1 2.1 32.15 1.85 32.05 2.4 30.3 1.1 29.35 1.2 29.15 2.8 29.15 3.35 27.65 3.65 27.65 4.25 29.15" fill="url(#gradient3)" fill-rule="evenodd" stroke="none"/>
      <path d="M5.35 29.75 L6.2 29.15 4.25 29.15 3.5 27.2 2.8 29.15 0.8 29.15 1.7 29.75 2.8 29.75 3.5 27.85 4.25 29.75 5.35 29.75 M2.4 30.3 L1.75 32.4 2.05 32.2 2.4 30.95 2.4 30.3 M5.0 32.2 L5.3 32.4 4.6 30.3 4.6 30.95 5.0 32.2 M3.9 36.45 L0.75 37.7 1.75 38.0 3.9 37.1 3.9 36.45 M9.35 39.85 L10.0 40.05 7.6 37.2 7.6 37.85 9.35 39.85 M8.85 35.1 L9.35 34.25 6.2 35.5 3.85 33.0 3.85 33.65 6.2 36.15 8.85 35.1 M12.25 41.35 L11.6 43.45 11.9 43.3 12.25 42.0 12.25 41.35 M14.85 43.3 L15.15 43.45 14.45 41.35 14.45 42.0 14.85 43.3 M15.2 40.85 L16.05 40.2 14.1 40.2 13.35 38.3 12.65 40.2 10.65 40.2 11.55 40.85 12.65 40.85 13.35 38.95 14.1 40.85 15.2 40.85" fill="#674512" fill-rule="evenodd" stroke="none"/>
      <path d="M1.7 29.75 L2.4 30.3 2.4 30.95 2.05 32.2 3.5 31.1 5.0 32.2 4.6 30.95 4.6 30.3 5.35 29.75 4.25 29.75 3.5 27.85 2.8 29.75 1.7 29.75 M3.9 36.45 L3.9 37.1 1.75 38.0 4.1 38.6 4.4 42.35 6.3 39.1 9.35 39.85 7.6 37.85 7.6 37.2 8.85 35.1 6.2 36.15 3.85 33.65 3.9 36.45 M11.55 40.85 L12.25 41.35 12.25 42.0 11.9 43.3 13.35 42.2 14.85 43.3 14.45 42.0 14.45 41.35 15.2 40.85 14.1 40.85 13.35 38.95 12.65 40.85 11.55 40.85" fill="#815815" fill-rule="evenodd" stroke="none"/>
      <path d="M8.85 8.95 Q14.3 3.5 22.05 3.5 29.75 3.5 35.2 8.95 40.6 14.4 40.6 22.05 40.6 29.75 35.2 35.2 29.75 40.6 22.05 40.6 14.3 40.6 8.85 35.2 3.4 29.75 3.4 22.05 3.4 14.3 8.85 8.95" fill="url(#gradient4)" fill-rule="evenodd" stroke="none"/>
      <path d="M27.4 13.8 L27.45 13.8 29.3 15.3 Q30.25 16.25 30.85 17.3 L32.35 16.45 30.5 14.1 Q29.4 13.0 28.25 12.3 L27.4 13.8 M22.25 9.6 L22.3 9.6 Q25.75 9.55 28.55 11.2 L31.35 13.35 Q32.65 14.65 33.5 16.2 35.1 18.95 35.1 22.35 L35.1 22.4 Q35.1 25.9 33.4 28.8 L31.35 31.35 Q29.95 32.75 28.4 33.6 25.65 35.1 22.3 35.15 L22.25 35.15 Q18.8 35.15 16.0 33.5 L13.3 31.35 Q12.25 30.4 11.55 29.25 L11.15 28.65 11.15 28.6 Q9.5 25.8 9.55 22.4 L9.55 22.35 Q9.5 18.9 11.15 16.2 L11.15 16.15 11.55 15.5 Q12.25 14.4 13.3 13.35 14.6 12.05 16.1 11.2 18.85 9.55 22.25 9.6 M27.7 12.05 Q25.35 10.75 22.5 10.7 L22.5 12.4 22.55 12.4 Q24.85 12.45 26.85 13.5 L27.7 12.05 M21.45 15.0 Q21.1 15.3 21.15 15.7 L21.15 20.5 21.2 20.5 22.15 20.35 23.1 20.45 23.1 15.7 22.8 15.0 Q22.5 14.7 22.1 14.75 21.7 14.7 21.45 15.0 M22.2 20.9 Q21.55 20.9 21.05 21.4 20.55 21.9 20.55 22.55 20.55 23.25 21.05 23.7 21.55 24.2 22.2 24.2 22.85 24.2 23.35 23.7 23.85 23.25 23.85 22.55 23.85 21.9 23.35 21.4 22.85 20.9 22.2 20.9 M21.45 23.35 Q21.15 23.0 21.15 22.6 21.15 22.15 21.45 21.85 21.8 21.5 22.2 21.5 22.6 21.5 22.95 21.85 L23.25 22.6 22.95 23.35 22.2 23.65 Q21.8 23.65 21.45 23.35 M22.5 32.4 L22.5 34.05 Q25.25 33.95 27.6 32.8 L26.8 31.3 26.75 31.35 Q24.85 32.3 22.55 32.4 L22.5 32.4 M32.2 28.45 L30.75 27.65 30.75 27.7 29.3 29.45 27.3 31.0 28.1 32.5 30.5 30.6 32.2 28.45 M17.55 31.25 L17.55 31.2 16.7 32.65 Q19.05 33.95 21.9 34.05 L21.9 32.4 Q19.5 32.3 17.55 31.25 M13.65 27.55 L13.6 27.5 12.2 28.3 12.35 28.65 14.0 30.6 Q15.0 31.6 16.2 32.35 L17.0 30.9 15.15 29.45 13.65 27.55 M12.25 22.7 L10.6 22.7 Q10.6 25.45 11.9 27.8 L13.3 27.0 Q12.3 25.0 12.25 22.75 L12.25 22.7 M13.35 17.75 L11.9 16.95 Q10.6 19.25 10.6 22.1 L12.25 22.1 Q12.3 19.7 13.35 17.75 M16.85 13.9 L17.05 13.75 16.25 12.3 Q15.05 13.05 14.0 14.1 L12.35 16.1 12.15 16.4 13.6 17.25 13.75 17.0 15.15 15.3 Q15.95 14.5 16.85 13.9 M21.9 12.4 L21.9 10.7 Q19.05 10.75 16.8 12.05 L17.55 13.5 Q19.55 12.45 21.9 12.4 M32.25 22.7 L32.25 22.75 Q32.15 25.1 31.1 27.1 L32.5 27.95 Q33.85 25.55 33.9 22.7 L32.25 22.7 M31.15 17.8 L31.2 17.8 Q32.15 19.75 32.25 22.1 L33.9 22.1 Q33.85 19.3 32.6 17.0 L31.15 17.8 M24.25 24.65 L24.2 24.7 28.4 27.1 29.15 27.2 29.7 26.75 29.8 26.0 29.35 25.4 25.15 23.05 24.75 24.05 24.25 24.6 24.25 24.65" fill="#496125" fill-rule="evenodd" stroke="none"/>
    </g>
    <linearGradient gradientTransform="matrix(0.0, -0.0257, -0.0551, 0.0, 21.7, 21.75)" gradientUnits="userSpaceOnUse" id="gradient2" spreadMethod="pad" x1="-819.2" x2="819.2">
      <stop offset="0.011764705882352941" stop-color="#c79829"/>
      <stop offset="1.0" stop-color="#be7d1e"/>
    </linearGradient>
    <linearGradient gradientTransform="matrix(0.0, -0.0257, 0.0551, 0.0, 22.1, 21.75)" gradientUnits="userSpaceOnUse" id="gradient3" spreadMethod="pad" x1="-819.2" x2="819.2">
      <stop offset="0.011764705882352941" stop-color="#c79829"/>
      <stop offset="1.0" stop-color="#be7d1e"/>
    </linearGradient>
    <linearGradient gradientTransform="matrix(0.0, -0.0173, -0.0173, 0.0, 22.05, 18.5)" gradientUnits="userSpaceOnUse" id="gradient4" spreadMethod="pad" x1="-819.2" x2="819.2">
      <stop offset="0.011764705882352941" stop-color="#d3d4b5"/>
      <stop offset="1.0" stop-color="#71a26f"/>
    </linearGradient>
    <g id="sprite1" transform="matrix(1.0, 0.0, 0.0, 1.0, 0.0, 0.0)">
      <use height="20.15" transform="matrix(1.0, 0.0, 0.0, 1.0, 0.0, 0.0)" width="28.2" xlink:href="#shape3"/>
    </g>
    <g id="shape3" transform="matrix(1.0, 0.0, 0.0, 1.0, 0.0, 0.0)">
      <path d="M27.65 18.45 L27.4 18.95 Q26.2 20.8 23.4 19.8 19.6 18.5 17.35 14.05 14.8 9.1 9.75 7.4 4.1 5.65 0.0 10.3 1.0 6.85 3.7 4.15 7.2 0.65 11.9 0.05 L14.8 0.05 18.4 0.65 Q21.55 1.65 24.05 4.15 28.2 8.3 28.2 14.25 28.2 16.45 27.65 18.45" fill="#ffffff" fill-opacity="0.19607843" fill-rule="evenodd" stroke="none"/>
    </g>
    <g id="shape4" transform="matrix(1.0, 0.0, 0.0, 1.0, -0.05, -0.05)">
      <path d="M40.9 22.1 Q40.9 14.15 35.3 8.65 29.8 3.1 21.9 3.1 13.95 3.1 8.45 8.65 2.9 14.15 2.9 22.1 2.9 30.0 8.45 35.5 13.95 41.15 21.9 41.15 29.8 41.15 35.3 35.5 40.9 30.0 40.9 22.1 M41.85 2.35 Q44.05 4.55 44.05 7.65 L44.05 36.45 Q44.05 39.65 41.85 41.85 39.65 44.05 36.45 44.05 L7.65 44.05 Q4.5 44.05 2.3 41.85 0.05 39.65 0.05 36.45 L0.05 7.65 Q0.05 4.55 2.3 2.35 4.5 0.05 7.65 0.05 L36.45 0.05 Q39.6 0.05 41.85 2.35" fill="url(#gradient5)" fill-rule="evenodd" stroke="none"/>
      <path d="M33.75 10.4 Q28.8 5.5 21.9 5.45 15.0 5.5 10.15 10.4 5.25 15.2 5.2 22.1 5.25 29.05 10.15 33.9 15.0 38.8 21.9 38.8 28.8 38.8 33.75 33.9 38.55 29.05 38.55 22.1 38.55 15.2 33.75 10.4 M40.9 22.1 Q40.9 30.0 35.3 35.5 29.8 41.15 21.9 41.15 13.95 41.15 8.45 35.5 2.9 30.0 2.9 22.1 2.9 14.15 8.45 8.65 13.95 3.1 21.9 3.1 29.8 3.1 35.3 8.65 40.9 14.15 40.9 22.1" fill="url(#gradient6)" fill-rule="evenodd" stroke="none"/>
    </g>
    <linearGradient gradientTransform="matrix(0.0, -0.0258, -0.0551, 0.0, 21.9, 21.9)" gradientUnits="userSpaceOnUse" id="gradient5" spreadMethod="pad" x1="-819.2" x2="819.2">
      <stop offset="0.011764705882352941" stop-color="#dad67d"/>
      <stop offset="1.0" stop-color="#cfa451"/>
    </linearGradient>
    <linearGradient gradientTransform="matrix(0.0, 0.0059, -0.0232, 0.0, 21.9, 18.45)" gradientUnits="userSpaceOnUse" id="gradient6" spreadMethod="pad" x1="-819.2" x2="819.2">
      <stop offset="0.011764705882352941" stop-color="#8d5910"/>
      <stop offset="1.0" stop-color="#d9d597"/>
    </linearGradient>
    <g id="shape5" transform="matrix(1.0, 0.0, 0.0, 1.0, -0.05, -26.05)">
      <path d="M38.9 27.95 L39.35 26.8 39.75 26.3 Q40.1 26.05 40.45 26.05 L41.1 26.3 41.55 26.85 41.95 27.95 43.1 27.95 Q43.55 27.95 43.8 28.2 L44.0 28.35 44.0 29.95 43.75 30.1 42.9 30.75 43.3 32.1 43.3 32.8 42.85 33.35 42.15 33.55 41.5 33.3 41.25 33.15 41.2 35.7 43.6 36.65 44.0 36.9 43.65 38.8 43.45 38.85 40.9 39.5 40.7 42.45 40.55 42.75 39.3 43.5 39.05 43.45 38.55 43.0 37.05 40.45 34.25 41.2 33.9 41.2 33.05 41.8 33.45 43.15 33.45 43.85 33.35 44.0 31.2 44.0 30.6 43.6 29.95 44.0 27.75 44.0 27.7 43.8 27.7 43.1 28.1 41.8 27.2 41.2 26.8 40.6 Q26.65 40.2 26.8 39.85 L27.2 39.25 27.9 39.05 29.05 39.05 29.5 37.9 29.9 37.35 30.6 37.15 31.25 37.35 31.7 37.95 32.1 39.05 33.25 39.05 34.9 37.05 33.6 34.85 33.45 34.15 33.75 33.45 Q33.95 33.2 34.3 33.15 L35.0 33.2 37.4 34.15 38.1 33.4 37.95 33.3 37.55 32.7 37.55 32.0 37.95 30.75 37.05 30.1 36.65 29.55 Q36.5 29.15 36.65 28.8 L37.05 28.2 Q37.35 27.95 37.75 27.95 L38.9 27.95 M30.7 38.7 L30.45 38.7 29.85 40.2 28.25 40.2 28.15 40.45 29.5 41.35 28.9 43.1 29.1 43.2 30.6 42.15 32.0 43.2 32.25 43.1 31.7 41.35 32.85 40.5 32.8 40.2 31.3 40.2 30.7 38.7 M37.75 35.5 L34.6 34.25 36.35 37.2 33.95 40.0 37.6 39.1 39.55 42.35 39.8 38.6 43.2 37.7 40.05 36.45 40.1 33.0 37.75 35.5 M39.7 29.15 L38.1 29.15 38.0 29.35 39.35 30.3 38.8 32.0 38.95 32.15 40.45 31.1 41.85 32.15 42.1 32.0 41.55 30.3 42.85 29.35 42.7 29.15 41.15 29.15 40.55 27.6 40.3 27.6 39.7 29.15" fill="#d1ae5a" fill-rule="evenodd" stroke="none"/>
      <path d="M42.25 29.75 L41.55 30.3 41.55 30.9 41.9 32.2 40.45 31.1 38.95 32.2 39.35 30.9 39.35 30.3 38.6 29.75 39.7 29.75 40.45 27.85 41.15 29.75 42.25 29.75 M40.05 36.45 L40.05 37.05 42.2 38.0 39.8 38.6 39.55 42.35 37.6 39.1 34.6 39.85 36.35 37.8 36.35 37.2 35.05 35.1 37.75 36.15 40.1 33.65 40.05 36.45 M28.75 40.85 L29.85 40.85 30.6 38.9 31.3 40.85 32.4 40.85 31.7 41.35 31.7 42.0 32.05 43.25 30.6 42.15 29.1 43.25 29.5 42.0 29.5 41.35 28.75 40.85" fill="#815815" fill-rule="evenodd" stroke="none"/>
      <path d="M38.6 29.75 L37.75 29.15 39.7 29.15 40.45 27.2 41.15 29.15 43.1 29.15 42.25 29.75 41.15 29.75 40.45 27.85 39.7 29.75 38.6 29.75 M41.55 30.3 L42.2 32.35 41.9 32.2 41.55 30.9 41.55 30.3 M38.95 32.2 L38.65 32.35 39.35 30.3 39.35 30.9 38.95 32.2 M40.05 36.45 L43.2 37.7 42.2 38.0 40.05 37.05 40.05 36.45 M34.6 39.85 L33.95 40.0 36.35 37.2 36.35 37.8 34.6 39.85 M35.05 35.1 L34.6 34.25 37.75 35.5 40.1 33.0 40.1 33.65 37.75 36.15 35.05 35.1 M28.75 40.85 L27.9 40.2 29.85 40.2 30.6 38.3 31.3 40.2 33.25 40.2 32.4 40.85 31.3 40.85 30.6 38.9 29.85 40.85 28.75 40.85 M31.7 41.35 L32.35 43.45 32.05 43.25 31.7 42.0 31.7 41.35 M29.1 43.25 L28.8 43.45 29.5 41.35 29.5 42.0 29.1 43.25" fill="#674512" fill-rule="evenodd" stroke="none"/>
      <path d="M10.3 33.45 L10.6 34.15 10.45 34.85 9.15 37.05 10.8 39.05 11.95 39.05 12.35 37.95 12.8 37.35 13.45 37.15 14.15 37.35 14.55 37.9 15.0 39.05 16.15 39.05 16.85 39.25 17.25 39.85 17.25 40.6 16.85 41.2 15.95 41.8 16.35 43.1 16.35 43.8 16.3 44.0 14.1 44.0 13.45 43.6 12.85 44.0 10.7 44.0 10.6 43.85 10.6 43.15 11.0 41.8 10.15 41.2 9.8 41.2 7.0 40.45 5.5 43.0 5.0 43.45 4.75 43.5 Q4.05 43.2 3.5 42.75 L3.35 42.45 3.15 39.5 0.6 38.85 0.4 38.8 0.05 36.9 Q0.25 36.7 0.45 36.65 L2.85 35.7 2.8 33.15 2.55 33.3 1.9 33.55 1.2 33.35 0.75 32.8 0.75 32.1 1.15 30.75 0.3 30.1 0.05 29.95 0.05 28.35 0.25 28.2 Q0.5 27.95 0.95 27.95 L2.1 27.95 2.5 26.85 2.95 26.3 Q3.25 26.05 3.6 26.05 L4.3 26.3 4.7 26.8 5.15 27.95 6.3 27.95 Q6.7 27.95 7.0 28.2 L7.4 28.8 7.4 29.55 7.0 30.1 6.1 30.75 6.5 32.0 6.5 32.7 6.1 33.3 5.95 33.4 6.65 34.15 9.05 33.2 9.75 33.15 10.3 33.45 M3.75 27.6 L3.5 27.6 2.9 29.15 1.35 29.15 1.2 29.35 2.5 30.3 1.95 32.0 2.2 32.15 3.6 31.1 5.1 32.15 5.25 32.0 4.7 30.3 6.05 29.35 5.95 29.15 4.35 29.15 3.75 27.6 M4.25 38.6 L4.5 42.35 6.45 39.1 10.1 40.0 7.7 37.2 9.45 34.25 6.3 35.5 3.95 33.0 4.0 36.45 0.85 37.7 4.25 38.6 M11.2 40.5 L12.35 41.35 11.8 43.1 12.05 43.2 13.45 42.15 14.95 43.2 15.15 43.1 14.55 41.35 15.9 40.45 15.8 40.2 14.2 40.2 13.6 38.7 13.35 38.7 12.75 40.2 11.25 40.2 11.2 40.5" fill="#d1ae5a" fill-rule="evenodd" stroke="none"/>
      <path d="M1.8 29.75 L0.95 29.15 2.9 29.15 3.6 27.2 4.35 29.15 6.3 29.15 5.45 29.75 4.35 29.75 3.6 27.85 2.9 29.75 1.8 29.75 M4.7 30.3 L5.4 32.35 5.1 32.2 4.7 30.9 4.7 30.3 M2.15 32.2 L1.85 32.35 2.5 30.3 2.5 30.9 2.15 32.2 M4.0 36.45 L4.0 37.05 1.85 38.0 0.85 37.7 4.0 36.45 M9.45 39.85 L7.7 37.8 7.7 37.2 10.1 40.0 9.45 39.85 M9.0 35.1 L6.3 36.15 3.95 33.65 3.95 33.0 6.3 35.5 9.45 34.25 9.0 35.1 M11.65 40.85 L10.8 40.2 12.75 40.2 13.45 38.3 14.2 40.2 16.15 40.2 15.3 40.85 14.2 40.85 13.45 38.9 12.75 40.85 11.65 40.85 M14.55 41.35 L15.25 43.45 14.95 43.25 14.55 42.0 14.55 41.35 M12.0 43.25 L11.7 43.45 12.35 41.35 12.35 42.0 12.0 43.25" fill="#674512" fill-rule="evenodd" stroke="none"/>
      <path d="M1.8 29.75 L2.9 29.75 3.6 27.85 4.35 29.75 5.45 29.75 4.7 30.3 4.7 30.9 5.1 32.2 3.6 31.1 2.15 32.2 2.5 30.9 2.5 30.3 1.8 29.75 M4.0 36.45 L3.95 33.65 6.3 36.15 9.0 35.1 7.7 37.2 7.7 37.8 9.45 39.85 6.45 39.1 4.5 42.35 4.25 38.6 1.85 38.0 4.0 37.05 4.0 36.45 M15.3 40.85 L14.55 41.35 14.55 42.0 14.95 43.25 13.45 42.15 12.0 43.25 12.35 42.0 12.35 41.35 11.65 40.85 12.75 40.85 13.45 38.9 14.2 40.85 15.3 40.85" fill="#815815" fill-rule="evenodd" stroke="none"/>
    </g>
  </defs>
</svg>
