<?xml version="1.0" encoding="UTF-8" standalone="no"?>
<svg xmlns:xlink="http://www.w3.org/1999/xlink" height="66.0px" width="66.0px" xmlns="http://www.w3.org/2000/svg">
  <g transform="matrix(1.5, 0.0, 0.0, 1.5, -0.075, -0.075)">
    <use height="44.0" transform="matrix(1.0, 0.0, 0.0, 1.0, 0.05, 0.05)" width="44.0" xlink:href="#shape0"/>
    <use height="8.6" transform="matrix(1.2077, 0.0, 0.0, 1.2065, 0.9585, 0.5)" width="35.05" xlink:href="#sprite0"/>
    <use height="20.15" transform="matrix(1.1594, 0.0, 0.0, 1.1605, 5.85, 5.45)" width="28.2" xlink:href="#sprite1"/>
  </g>
  <defs>
    <g id="shape0" transform="matrix(1.0, 0.0, 0.0, 1.0, -0.05, -0.05)">
      <path d="M41.85 41.85 Q39.65 44.05 36.45 44.05 L7.65 44.05 Q4.5 44.05 2.3 41.85 0.05 39.65 0.05 36.45 L0.05 7.65 Q0.05 4.5 2.3 2.3 4.5 0.05 7.65 0.05 L36.45 0.05 Q39.6 0.05 41.85 2.3 44.05 4.5 44.05 7.65 L44.05 36.45 Q44.05 39.65 41.85 41.85" fill="url(#gradient0)" fill-rule="evenodd" stroke="none"/>
      <path d="M9.4 9.2 Q14.7 3.95 22.05 3.95 29.45 3.95 34.65 9.2 39.85 14.45 39.85 21.8 39.85 29.2 34.65 34.5 29.45 39.7 22.05 39.7 14.6 39.7 9.4 34.5 4.2 29.2 4.2 21.8 4.2 14.45 9.4 9.2" fill="url(#gradient1)" fill-rule="evenodd" stroke="none"/>
      <path d="M21.1 13.25 L20.75 14.35 20.35 19.45 21.1 22.8 Q22.4 31.4 21.1 31.3 L19.65 31.8 Q16.95 32.75 14.9 31.3 L15.0 37.95 11.5 36.1 9.3 34.1 Q4.8 29.6 4.25 23.4 L13.9 23.4 14.35 25.35 15.1 25.35 15.7 22.7 17.3 20.85 19.65 11.4 Q20.6 10.45 21.1 11.4 L21.1 13.25" fill="#4a3355" fill-rule="evenodd" stroke="none"/>
      <path d="M25.85 27.75 L28.5 23.9 31.2 27.75 25.85 27.75 M27.05 18.4 L27.15 18.55 Q28.8 20.6 27.3 23.2 L27.1 23.35 Q24.95 25.4 24.9 28.6 L32.15 28.6 Q32.15 25.4 29.95 23.35 L29.8 23.2 Q28.2 20.6 29.95 18.55 L30.05 18.4 Q32.05 16.85 32.2 13.8 L24.85 13.8 Q25.0 16.85 27.05 18.4 M28.5 19.1 L27.1 16.85 29.95 16.85 28.5 19.1 M22.65 11.75 Q22.9 11.35 23.35 11.35 L33.75 11.35 34.4 11.75 34.65 12.55 34.4 13.45 Q34.15 13.8 33.75 13.8 L33.6 13.8 Q33.45 17.9 30.8 19.95 30.2 20.85 30.8 21.95 33.5 24.45 33.55 28.6 L33.75 28.6 34.4 29.0 34.65 29.85 34.4 30.75 Q34.15 31.1 33.75 31.1 L23.35 31.1 Q22.9 31.1 22.65 30.75 22.35 30.4 22.35 29.85 22.35 29.35 22.65 29.0 22.9 28.6 23.35 28.6 L23.5 28.6 Q23.5 24.45 26.25 21.95 26.9 20.85 26.25 19.95 23.65 17.9 23.45 13.8 L23.35 13.8 Q22.9 13.8 22.65 13.45 22.35 13.1 22.35 12.55 22.35 12.05 22.65 11.75" fill="#4a3355" fill-rule="evenodd" stroke="none"/>
      <path d="M21.9 41.15 Q13.95 41.15 8.45 35.5 2.9 29.95 2.9 22.1 2.9 14.15 8.45 8.65 13.95 3.05 21.9 3.05 29.8 3.05 35.3 8.65 40.9 14.15 40.9 22.1 40.9 29.95 35.3 35.5 29.8 41.15 21.9 41.15 M21.9 5.45 Q15.0 5.5 10.15 10.4 5.25 15.2 5.2 22.1 5.25 29.05 10.15 33.9 15.0 38.8 21.9 38.8 28.8 38.8 33.75 33.9 38.55 29.05 38.55 22.1 38.55 15.2 33.75 10.4 28.8 5.5 21.9 5.45" fill="url(#gradient2)" fill-rule="evenodd" stroke="none"/>
      <path d="M1.0 36.15 L0.95 35.75 Q0.95 34.8 1.65 34.05 2.35 33.4 3.3 33.4 4.3 33.4 4.95 34.05 5.7 34.8 5.7 35.75 L5.7 36.1 Q3.15 33.2 1.0 36.15" fill="#494136" fill-rule="evenodd" stroke="none"/>
      <path d="M5.7 36.1 Q5.55 36.85 4.95 37.4 4.3 38.15 3.3 38.15 2.35 38.15 1.65 37.4 1.05 36.85 1.0 36.15 3.15 33.2 5.7 36.1" fill="#625748" fill-rule="evenodd" stroke="none"/>
      <path d="M6.0 38.0 L6.0 37.75 Q6.0 37.15 6.4 36.75 6.85 36.35 7.4 36.35 8.0 36.35 8.4 36.75 8.85 37.15 8.85 37.75 L8.85 37.95 6.0 38.0" fill="#494136" fill-rule="evenodd" stroke="none"/>
      <path d="M8.85 37.95 L8.4 38.75 Q8.0 39.2 7.4 39.2 6.85 39.2 6.4 38.75 L6.0 38.0 8.85 37.95" fill="#625748" fill-rule="evenodd" stroke="none"/>
      <path d="M3.0 40.9 L3.0 40.65 Q3.0 40.05 3.4 39.65 3.85 39.25 4.4 39.25 5.0 39.25 5.4 39.65 5.85 40.05 5.85 40.65 L5.85 40.85 3.0 40.9" fill="#494136" fill-rule="evenodd" stroke="none"/>
      <path d="M5.85 40.85 L5.4 41.65 Q5.0 42.1 4.4 42.1 3.85 42.1 3.4 41.65 3.05 41.3 3.0 40.9 L5.85 40.85" fill="#625748" fill-rule="evenodd" stroke="none"/>
      <path d="M7.75 41.6 L7.7 41.4 Q7.7 40.95 8.0 40.65 8.35 40.3 8.8 40.3 9.25 40.3 9.55 40.65 9.9 40.95 9.9 41.4 L9.9 41.55 7.75 41.6" fill="#494136" fill-rule="evenodd" stroke="none"/>
      <path d="M9.9 41.55 L9.55 42.2 Q9.25 42.5 8.8 42.5 L8.0 42.2 7.75 41.6 9.9 41.55" fill="#625748" fill-rule="evenodd" stroke="none"/>
      <path d="M42.4 36.15 L42.45 35.75 Q42.45 34.8 41.75 34.05 41.05 33.4 40.1 33.4 39.1 33.4 38.45 34.05 37.7 34.8 37.7 35.75 L37.7 36.1 Q40.25 33.2 42.4 36.15" fill="#494136" fill-rule="evenodd" stroke="none"/>
      <path d="M37.7 36.1 Q37.85 36.85 38.45 37.4 39.1 38.15 40.1 38.15 41.05 38.15 41.75 37.4 42.35 36.85 42.4 36.15 40.25 33.2 37.7 36.1" fill="#625748" fill-rule="evenodd" stroke="none"/>
      <path d="M37.5 38.0 L37.5 37.75 Q37.5 37.15 37.1 36.75 36.65 36.35 36.1 36.35 35.5 36.35 35.1 36.75 34.65 37.15 34.65 37.75 L34.65 37.95 37.5 38.0" fill="#494136" fill-rule="evenodd" stroke="none"/>
      <path d="M34.65 37.95 L35.1 38.75 Q35.5 39.2 36.1 39.2 L37.1 38.75 37.5 38.0 34.65 37.95" fill="#625748" fill-rule="evenodd" stroke="none"/>
      <path d="M40.55 40.9 L40.55 40.65 Q40.55 40.05 40.15 39.65 39.7 39.25 39.15 39.25 38.55 39.25 38.15 39.65 37.7 40.05 37.7 40.65 L37.7 40.85 40.55 40.9" fill="#494136" fill-rule="evenodd" stroke="none"/>
      <path d="M37.7 40.85 L38.15 41.65 Q38.55 42.1 39.15 42.1 39.7 42.1 40.15 41.65 L40.55 40.9 37.7 40.85" fill="#625748" fill-rule="evenodd" stroke="none"/>
      <path d="M35.8 41.6 L35.85 41.4 35.55 40.65 Q35.2 40.3 34.75 40.3 34.3 40.3 34.0 40.65 33.65 40.95 33.65 41.4 L33.65 41.55 35.8 41.6" fill="#494136" fill-rule="evenodd" stroke="none"/>
      <path d="M33.65 41.55 L34.0 42.2 Q34.3 42.5 34.75 42.5 L35.55 42.2 35.8 41.6 33.65 41.55" fill="#625748" fill-rule="evenodd" stroke="none"/>
    </g>
    <linearGradient gradientTransform="matrix(0.0, -0.0551, -0.0551, 0.0, 22.1, 18.5)" gradientUnits="userSpaceOnUse" id="gradient0" spreadMethod="pad" x1="-819.2" x2="819.2">
      <stop offset="0.011764705882352941" stop-color="#bcb0a0"/>
      <stop offset="1.0" stop-color="#453e3a"/>
    </linearGradient>
    <linearGradient gradientTransform="matrix(0.0, -0.0167, -0.0167, 0.0, 22.05, 18.45)" gradientUnits="userSpaceOnUse" id="gradient1" spreadMethod="pad" x1="-819.2" x2="819.2">
      <stop offset="0.011764705882352941" stop-color="#bcb9ae"/>
      <stop offset="1.0" stop-color="#9b5b79"/>
    </linearGradient>
    <linearGradient gradientTransform="matrix(1.0E-4, 0.0223, -0.0232, 1.0E-4, 21.95, 22.35)" gradientUnits="userSpaceOnUse" id="gradient2" spreadMethod="pad" x1="-819.2" x2="819.2">
      <stop offset="0.011764705882352941" stop-color="#494136"/>
      <stop offset="1.0" stop-color="#dbccbd"/>
    </linearGradient>
    <g id="sprite0" transform="matrix(1.0, 0.0, 0.0, 1.0, 0.2, 0.0)">
      <use height="8.6" transform="matrix(1.0, 0.0, 0.0, 1.0, -0.2, 0.0)" width="35.05" xlink:href="#shape1"/>
    </g>
    <g id="shape1" transform="matrix(1.0, 0.0, 0.0, 1.0, 0.2, 0.0)">
      <path d="M34.85 8.6 Q34.8 6.95 34.4 5.7 33.0 1.3 27.2 1.3 L7.45 1.3 Q0.05 1.3 -0.2 8.5 L-0.2 7.65 Q-0.2 0.0 7.45 0.0 L27.2 0.0 Q33.0 0.0 34.4 4.4 34.85 5.8 34.85 7.65 L34.85 8.6" fill="#e7deda" fill-rule="evenodd" stroke="none"/>
    </g>
    <g id="sprite1" transform="matrix(1.0, 0.0, 0.0, 1.0, 0.0, 0.0)">
      <use height="20.15" transform="matrix(1.0, 0.0, 0.0, 1.0, 0.0, 0.0)" width="28.2" xlink:href="#shape2"/>
    </g>
    <g id="shape2" transform="matrix(1.0, 0.0, 0.0, 1.0, 0.0, 0.0)">
      <path d="M27.65 18.45 L27.4 18.95 Q26.2 20.8 23.4 19.8 19.6 18.5 17.35 14.05 14.8 9.1 9.75 7.4 4.1 5.65 0.0 10.3 1.0 6.85 3.7 4.15 7.2 0.65 11.9 0.05 L14.8 0.05 18.4 0.65 Q21.55 1.65 24.05 4.15 28.2 8.3 28.2 14.25 28.2 16.45 27.65 18.45" fill="#ffffff" fill-opacity="0.19607843" fill-rule="evenodd" stroke="none"/>
    </g>
  </defs>
</svg>
