<?xml version="1.0" encoding="UTF-8" standalone="no"?>
<svg xmlns:xlink="http://www.w3.org/1999/xlink" height="66.0px" width="66.0px" xmlns="http://www.w3.org/2000/svg">
  <g transform="matrix(1.5, 0.0, 0.0, 1.5, 0.0, 0.0)">
    <use height="35.5" transform="matrix(1.0, 0.0, 0.0, 1.0, 4.55, 4.25)" width="35.55" xlink:href="#shape0"/>
    <use height="20.15" transform="matrix(1.1548, 0.0, 0.0, 1.1564, 6.25, 5.65)" width="28.2" xlink:href="#sprite0"/>
    <use height="44.0" transform="matrix(1.0, 0.0, 0.0, 1.0, 0.0, 0.0)" width="44.0" xlink:href="#shape2"/>
    <use height="8.6" transform="matrix(1.2077, 0.0, 0.0, 1.2093, 0.4585, 0.75)" width="35.05" xlink:href="#sprite1"/>
    <use height="39.85" transform="matrix(1.0, 0.0, 0.0, 1.0, 1.75, 4.1)" width="40.55" xlink:href="#shape4"/>
  </g>
  <defs>
    <g id="shape0" transform="matrix(1.0, 0.0, 0.0, 1.0, -4.55, -4.25)">
      <path d="M40.1 22.0 Q40.1 29.4 34.9 34.6 29.7 39.75 22.35 39.75 14.95 39.75 9.75 34.6 4.55 29.4 4.55 22.0 4.55 14.65 9.75 9.45 14.95 4.25 22.35 4.25 29.7 4.25 34.9 9.45 40.1 14.7 40.1 22.0" fill="url(#gradient0)" fill-rule="evenodd" stroke="none"/>
      <path d="M22.9 27.1 L22.1 27.1 21.55 29.35 22.4 28.95 22.5 28.9 22.6 28.95 23.45 29.35 22.9 27.1 M19.95 12.75 L22.3 12.55 Q27.6 12.65 29.95 15.1 32.25 17.45 31.5 22.15 L31.5 22.2 30.35 25.0 31.5 25.4 31.65 25.45 31.7 25.65 31.7 27.3 31.7 27.45 31.55 27.55 30.25 28.35 30.1 28.35 30.0 28.35 Q29.25 27.9 28.6 28.1 30.05 29.5 30.35 31.1 L30.35 31.35 Q29.5 32.85 27.55 32.9 L26.9 32.9 26.7 32.85 25.95 32.2 Q24.95 31.35 24.65 31.45 24.35 31.55 24.45 32.65 L24.45 32.75 24.35 32.85 Q23.35 33.55 22.4 33.5 L22.3 33.5 Q21.3 33.55 20.4 32.85 L20.3 32.75 20.25 32.65 20.2 31.45 Q19.65 31.1 18.0 32.85 L17.75 32.9 17.15 32.9 16.2 32.8 Q14.9 32.45 14.35 31.3 L14.3 31.1 Q14.6 29.5 16.1 28.1 15.45 27.9 14.7 28.35 L14.55 28.35 14.45 28.25 13.0 27.45 12.95 27.3 12.95 25.7 13.0 25.55 13.15 25.45 14.35 25.0 13.2 22.2 13.15 22.15 Q12.5 18.05 14.25 15.7 15.9 13.35 19.95 12.75 M23.5 20.85 L23.4 21.2 Q23.05 22.8 23.45 24.0 23.75 24.8 24.3 25.0 L24.85 25.0 26.15 24.95 26.8 24.9 28.8 24.65 29.05 22.6 29.05 20.95 29.0 20.9 28.8 20.7 27.75 19.65 27.5 19.5 Q26.4 18.6 25.65 18.45 25.2 18.3 24.7 18.45 24.3 18.6 23.5 20.85 M19.8 18.45 L19.75 18.45 Q18.9 18.6 17.8 19.5 L17.75 19.5 16.3 20.95 16.25 20.95 Q16.05 21.15 16.25 22.6 L16.45 24.55 17.45 24.7 18.6 24.9 21.05 25.0 Q21.5 24.8 21.8 24.0 L21.8 23.95 Q22.25 22.75 21.8 21.15 L21.8 21.1 21.75 20.85 21.7 20.85 21.2 19.2 20.6 18.45 Q20.05 18.3 19.8 18.45" fill="#496125" fill-rule="evenodd" stroke="none"/>
    </g>
    <linearGradient gradientTransform="matrix(0.0, -0.0166, -0.0166, 0.0, 22.3, 18.6)" gradientUnits="userSpaceOnUse" id="gradient0" spreadMethod="pad" x1="-819.2" x2="819.2">
      <stop offset="0.011764705882352941" stop-color="#d3d4b5"/>
      <stop offset="1.0" stop-color="#71a26f"/>
    </linearGradient>
    <g id="sprite0" transform="matrix(1.0, 0.0, 0.0, 1.0, 0.0, 0.0)">
      <use height="20.15" transform="matrix(1.0, 0.0, 0.0, 1.0, 0.0, 0.0)" width="28.2" xlink:href="#shape1"/>
    </g>
    <g id="shape1" transform="matrix(1.0, 0.0, 0.0, 1.0, 0.0, 0.0)">
      <path d="M27.65 18.45 L27.4 18.95 Q26.2 20.8 23.4 19.8 19.6 18.5 17.35 14.05 14.8 9.1 9.75 7.4 4.1 5.65 0.0 10.3 1.0 6.85 3.7 4.15 7.2 0.65 11.9 0.05 L14.8 0.05 18.4 0.65 Q21.55 1.65 24.05 4.15 28.2 8.3 28.2 14.25 28.2 16.45 27.65 18.45" fill="#ffffff" fill-opacity="0.19607843" fill-rule="evenodd" stroke="none"/>
    </g>
    <g id="shape2" transform="matrix(1.0, 0.0, 0.0, 1.0, 0.0, 0.0)">
      <path d="M39.25 22.05 Q39.25 14.8 34.2 9.8 29.15 4.7 22.0 4.7 14.8 4.7 9.75 9.8 4.65 14.8 4.65 22.05 4.65 29.2 9.75 34.3 14.8 39.4 22.0 39.4 29.2 39.4 34.2 34.3 39.25 29.2 39.25 22.05 M7.55 0.0 L36.35 0.0 Q39.55 0.0 41.75 2.25 44.0 4.55 44.0 7.65 L44.0 36.45 Q44.0 39.55 41.75 41.8 39.55 44.0 36.35 44.0 L7.55 44.0 Q4.45 44.0 2.2 41.8 0.0 39.55 0.0 36.45 L0.0 7.65 Q0.0 4.55 2.2 2.25 4.45 0.0 7.55 0.0" fill="url(#gradient1)" fill-rule="evenodd" stroke="none"/>
      <path d="M21.9 5.55 Q15.0 5.6 10.2 10.5 5.3 15.35 5.3 22.2 5.3 29.15 10.2 34.05 15.0 38.85 21.9 38.85 28.75 38.85 33.65 34.05 38.55 29.15 38.55 22.2 38.55 15.35 33.65 10.5 28.8 5.6 21.9 5.55 M8.4 8.8 Q14.0 3.2 21.9 3.2 29.75 3.2 35.3 8.8 40.9 14.35 40.9 22.2 40.9 30.15 35.3 35.7 29.75 41.25 21.9 41.25 14.0 41.25 8.4 35.7 2.85 30.15 2.85 22.2 2.85 14.35 8.4 8.8" fill="url(#gradient2)" fill-rule="evenodd" stroke="none"/>
    </g>
    <linearGradient gradientTransform="matrix(0.0, -0.0275, -0.044, 0.0, 20.9, 22.2)" gradientUnits="userSpaceOnUse" id="gradient1" spreadMethod="pad" x1="-819.2" x2="819.2">
      <stop offset="0.0196078431372549" stop-color="#905a3d"/>
      <stop offset="0.9764705882352941" stop-color="#6a412d"/>
    </linearGradient>
    <linearGradient gradientTransform="matrix(0.0, -0.0168, -0.0168, 0.0, 21.9, 26.8)" gradientUnits="userSpaceOnUse" id="gradient2" spreadMethod="pad" x1="-819.2" x2="819.2">
      <stop offset="0.0196078431372549" stop-color="#a3704d"/>
      <stop offset="0.9803921568627451" stop-color="#492d20"/>
    </linearGradient>
    <g id="sprite1" transform="matrix(1.0, 0.0, 0.0, 1.0, 0.2, 0.0)">
      <use height="8.6" transform="matrix(1.0, 0.0, 0.0, 1.0, -0.2, 0.0)" width="35.05" xlink:href="#shape3"/>
    </g>
    <g id="shape3" transform="matrix(1.0, 0.0, 0.0, 1.0, 0.2, 0.0)">
      <path d="M34.85 8.6 Q34.8 6.95 34.4 5.7 33.0 1.3 27.2 1.3 L7.45 1.3 Q0.05 1.3 -0.2 8.5 L-0.2 7.65 Q-0.2 0.0 7.45 0.0 L27.2 0.0 Q33.0 0.0 34.4 4.4 34.85 5.8 34.85 7.65 L34.85 8.6" fill="#e7deda" fill-rule="evenodd" stroke="none"/>
    </g>
    <g id="shape4" transform="matrix(1.0, 0.0, 0.0, 1.0, -1.8, -4.15)">
      <path d="M13.25 34.1 Q14.75 37.15 17.95 38.55 L16.3 40.55 Q14.0 37.75 13.25 34.1 M27.4 40.55 L25.6 38.55 Q28.8 37.15 30.3 34.1 L29.8 35.9 Q29.0 38.5 27.4 40.55" fill="#6d4a34" fill-rule="evenodd" stroke="none"/>
      <path d="M16.3 40.55 Q12.85 39.55 9.6 37.9 10.9 34.65 13.25 34.1 14.0 37.75 16.3 40.55 M27.4 40.55 Q29.0 38.5 29.8 35.9 L30.3 34.1 Q32.65 34.65 33.9 37.95 30.75 39.65 27.4 40.55" fill="url(#gradient3)" fill-rule="evenodd" stroke="none"/>
      <path d="M32.25 14.25 Q31.75 9.85 29.15 7.1 L30.85 5.35 31.1 5.85 31.55 7.5 Q32.3 11.0 32.25 14.25 M13.2 5.35 L14.95 7.1 Q12.35 9.85 11.8 14.25 11.65 9.95 13.2 5.35" fill="#492d20" fill-rule="evenodd" stroke="none"/>
      <path d="M31.1 5.85 L30.5 4.15 Q33.9 5.9 36.8 8.85 L36.85 8.95 Q36.05 13.0 32.25 14.25 32.3 11.0 31.55 7.5 L31.1 5.85 M13.2 5.35 Q11.65 9.95 11.8 14.25 8.0 13.0 7.2 9.05 L7.4 8.85 Q10.2 5.95 13.5 4.35 L13.2 5.35" fill="url(#gradient4)" fill-rule="evenodd" stroke="none"/>
      <path d="M42.25 33.55 L42.25 36.25 Q42.25 37.25 41.65 37.9 41.15 38.5 40.3 38.5 39.45 38.5 38.85 37.9 38.25 37.25 38.25 36.25 L38.25 35.0 M1.9 33.55 L1.9 36.25 Q1.9 37.25 2.45 37.9 2.95 38.5 3.85 38.5 4.65 38.5 5.3 37.9 5.85 37.25 5.85 36.25 L5.85 35.0" fill="none" stroke="#6a402d" stroke-linecap="round" stroke-linejoin="round" stroke-width="0.25"/>
      <path d="M39.45 5.5 L39.8 5.4 Q40.35 5.4 40.7 6.25 L40.95 8.35 40.7 10.4 Q40.35 11.3 39.8 11.3 L39.45 11.15 40.0 10.4 40.3 8.35 40.0 6.25 39.45 5.5 M4.6 11.15 L4.25 11.3 Q3.75 11.3 3.4 10.4 3.1 9.55 3.1 8.35 3.1 7.1 3.4 6.25 3.75 5.4 4.25 5.4 L4.6 5.5 4.05 6.25 Q3.8 7.1 3.8 8.35 3.8 9.55 4.05 10.4 L4.6 11.15" fill="#1a0d09" fill-rule="evenodd" stroke="none"/>
      <path d="M39.45 5.5 L40.0 6.25 40.3 8.35 40.0 10.4 39.45 11.15 39.0 10.4 Q38.65 9.55 38.65 8.35 38.65 7.1 39.0 6.25 L39.45 5.5 M4.6 5.5 Q4.9 5.65 5.05 6.25 5.4 7.1 5.4 8.35 5.4 9.55 5.05 10.4 L4.6 11.15 4.05 10.4 Q3.8 9.55 3.8 8.35 3.8 7.1 4.05 6.25 L4.6 5.5" fill="#331d16" fill-rule="evenodd" stroke="none"/>
      <path d="M39.45 11.15 L39.8 11.3 Q40.35 11.3 40.7 10.4 L40.95 8.35 40.7 6.25 Q40.35 5.4 39.8 5.4 L39.45 5.5 39.0 6.25 Q38.65 7.1 38.65 8.35 38.65 9.55 39.0 10.4 L39.45 11.15 M4.6 11.15 L4.25 11.3 Q3.75 11.3 3.4 10.4 3.1 9.55 3.1 8.35 3.1 7.1 3.4 6.25 3.75 5.4 4.25 5.4 L4.6 5.5 Q4.9 5.65 5.05 6.25 5.4 7.1 5.4 8.35 5.4 9.55 5.05 10.4 L4.6 11.15" fill="none" stroke="#6a402d" stroke-linecap="round" stroke-linejoin="round" stroke-width="0.05"/>
      <path d="M31.95 44.0 L12.15 44.0 Q12.9 43.65 14.5 43.25 L22.05 42.7 29.55 43.25 31.95 44.0" fill="#6c432e" fill-rule="evenodd" stroke="none"/>
    </g>
    <linearGradient gradientTransform="matrix(0.0, -0.0275, -0.044, 0.0, 20.9, 22.25)" gradientUnits="userSpaceOnUse" id="gradient3" spreadMethod="pad" x1="-819.2" x2="819.2">
      <stop offset="0.0196078431372549" stop-color="#905a3d"/>
      <stop offset="0.9764705882352941" stop-color="#6a412d"/>
    </linearGradient>
    <linearGradient gradientTransform="matrix(0.0, -0.0275, -0.044, 0.0, 20.9, 22.25)" gradientUnits="userSpaceOnUse" id="gradient4" spreadMethod="pad" x1="-819.2" x2="819.2">
      <stop offset="0.0196078431372549" stop-color="#905a3d"/>
      <stop offset="0.9764705882352941" stop-color="#6a412d"/>
    </linearGradient>
  </defs>
</svg>
