<?xml version="1.0" encoding="UTF-8" standalone="no"?>
<svg xmlns:xlink="http://www.w3.org/1999/xlink" height="66.825px" width="66.0px" xmlns="http://www.w3.org/2000/svg">
  <g transform="matrix(1.5, 0.0, 0.0, 1.5, 0.075, 0.225)">
    <use height="43.6" transform="matrix(1.0, 0.0, 0.0, 1.0, 0.1, -0.15)" width="43.65" xlink:href="#shape0"/>
    <use height="20.15" transform="matrix(1.1594, 0.0, 0.0, 1.1605, 6.15, 4.85)" width="28.2" xlink:href="#sprite0"/>
    <use height="41.2" transform="matrix(1.0, 0.0, 0.0, 1.0, -0.05, 3.2)" width="44.0" xlink:href="#shape2"/>
    <use height="8.6" transform="matrix(1.2077, 0.0, 0.0, 1.2065, 0.7585, 0.95)" width="35.05" xlink:href="#sprite1"/>
  </g>
  <defs>
    <g id="shape0" transform="matrix(1.0, 0.0, 0.0, 1.0, -0.1, 0.15)">
      <path d="M36.2 -0.15 Q39.35 -0.15 41.55 2.05 43.75 4.25 43.75 7.35 L43.75 35.95 Q43.75 39.05 41.55 41.25 39.35 43.45 36.2 43.45 L7.65 43.45 Q4.5 43.45 2.3 41.25 0.1 39.05 0.1 35.95 L0.1 7.35 Q0.1 4.25 2.3 2.05 4.5 -0.15 7.65 -0.15 L36.2 -0.15" fill="url(#gradient0)" fill-rule="evenodd" stroke="none"/>
      <path d="M39.8 21.75 Q39.8 29.15 34.6 34.45 29.4 39.65 22.0 39.65 14.55 39.65 9.35 34.45 4.15 29.15 4.15 21.75 4.15 14.4 9.35 9.15 14.65 3.9 22.0 3.9 29.4 3.9 34.6 9.15 39.8 14.4 39.8 21.75" fill="url(#gradient1)" fill-rule="evenodd" stroke="none"/>
      <path d="M25.25 18.65 L25.2 18.25 28.7 15.95 25.25 18.65 M25.45 23.5 L25.4 22.55 28.95 19.95 25.4 22.35 25.25 19.4 32.3 14.45 32.75 15.2 Q33.5 16.65 33.9 18.15 L25.45 23.5 M25.6 11.65 Q28.8 12.55 30.85 14.95 L29.55 15.8 Q27.5 13.55 24.4 12.75 20.1 11.55 16.2 13.8 L14.95 14.6 Q16.0 13.55 17.35 12.75 21.25 10.5 25.6 11.65 M36.05 11.8 L38.15 15.45 35.7 17.05 34.1 14.35 33.5 13.6 36.05 11.8 M32.05 25.95 Q32.85 22.9 31.95 20.05 L33.2 19.3 Q34.0 22.0 33.25 24.9 32.25 28.45 29.35 30.65 31.25 28.7 32.05 25.95 M11.25 20.35 Q12.25 16.8 15.15 14.6 13.25 16.55 12.45 19.3 11.55 22.75 12.8 25.95 L11.6 26.8 Q10.4 23.7 11.25 20.35 M19.35 26.4 L12.05 31.35 Q11.4 30.5 10.9 29.5 L10.35 28.3 18.95 22.5 19.05 23.35 12.05 28.65 19.1 23.75 19.35 26.4 M8.45 33.75 L6.7 30.75 9.2 29.1 9.85 30.25 11.2 31.9 8.45 33.75 M18.9 33.6 Q16.0 32.8 14.05 30.75 L15.35 29.85 Q17.25 31.75 20.1 32.5 24.4 33.7 28.3 31.45 L29.55 30.65 27.15 32.5 Q23.25 34.75 18.9 33.6 M19.45 27.3 L15.65 29.6 19.4 26.9 19.45 27.3" fill="#4a3355" fill-rule="evenodd" stroke="none"/>
      <path d="M21.5 10.8 L20.2 11.1 19.65 5.3 23.85 5.3 24.1 10.8 Q22.75 10.6 21.5 10.8 M23.15 15.5 L24.3 32.15 23.5 32.25 22.05 32.3 20.35 13.05 21.7 12.9 24.25 13.25 24.85 26.95 23.15 15.5 M21.85 32.3 L20.7 32.15 19.65 20.25 21.85 32.3 M20.9 34.6 L23.7 34.45 24.45 34.3 24.85 40.2 21.35 40.2 20.9 34.6" fill="#4a3355" fill-rule="evenodd" stroke="none"/>
      <path d="M26.5 10.15 L24.65 9.8 24.65 8.5 25.15 8.6 Q29.7 9.8 32.45 13.55 30.05 11.1 26.5 10.15 M19.45 10.1 Q17.65 10.55 15.95 11.55 11.0 14.4 9.5 19.95 8.0 25.45 10.9 30.45 L11.95 32.05 Q10.55 30.65 9.55 28.9 6.65 23.9 8.15 18.4 9.65 12.85 14.6 10.0 16.85 8.7 19.25 8.3 L19.45 10.1" fill="#4a3355" fill-rule="evenodd" stroke="none"/>
      <path d="M11.75 31.85 Q14.2 34.3 17.75 35.25 L20.35 35.7 20.45 37.1 19.1 36.8 Q14.5 35.55 11.75 31.85 M34.75 25.45 Q36.2 19.9 33.35 14.9 L32.3 13.3 Q33.65 14.7 34.7 16.45 37.55 21.45 36.1 27.0 34.55 32.5 29.6 35.4 27.5 36.6 25.35 37.05 L25.25 35.2 Q26.75 34.7 28.25 33.85 33.2 30.95 34.75 25.45" fill="#4a3355" fill-rule="evenodd" stroke="none"/>
    </g>
    <linearGradient gradientTransform="matrix(0.0, -0.0546, -0.0546, 0.0, 21.9, 18.0)" gradientUnits="userSpaceOnUse" id="gradient0" spreadMethod="pad" x1="-819.2" x2="819.2">
      <stop offset="0.011764705882352941" stop-color="#bf809f"/>
      <stop offset="1.0" stop-color="#543c7c"/>
    </linearGradient>
    <linearGradient gradientTransform="matrix(0.0, -0.0167, -0.0167, 0.0, 22.0, 18.4)" gradientUnits="userSpaceOnUse" id="gradient1" spreadMethod="pad" x1="-819.2" x2="819.2">
      <stop offset="0.011764705882352941" stop-color="#bcb9ae"/>
      <stop offset="1.0" stop-color="#9b5b79"/>
    </linearGradient>
    <g id="sprite0" transform="matrix(1.0, 0.0, 0.0, 1.0, 0.0, 0.0)">
      <use height="20.15" transform="matrix(1.0, 0.0, 0.0, 1.0, 0.0, 0.0)" width="28.2" xlink:href="#shape1"/>
    </g>
    <g id="shape1" transform="matrix(1.0, 0.0, 0.0, 1.0, 0.0, 0.0)">
      <path d="M27.4 18.95 Q26.2 20.8 23.4 19.8 19.6 18.5 17.35 14.05 14.8 9.1 9.75 7.4 4.1 5.65 0.0 10.3 1.0 6.85 3.7 4.15 7.2 0.65 11.9 0.05 L14.8 0.05 18.4 0.65 Q21.55 1.65 24.05 4.15 28.2 8.3 28.2 14.25 28.2 16.45 27.65 18.45 L27.4 18.95" fill="#ffffff" fill-opacity="0.19607843" fill-rule="evenodd" stroke="none"/>
      <path d="M27.4 18.95 Q26.2 20.8 23.4 19.8 19.6 18.5 17.35 14.05 14.8 9.1 9.75 7.4 4.1 5.65 0.0 10.3 1.0 6.85 3.7 4.15 7.2 0.65 11.9 0.05 L14.8 0.05 18.4 0.65 Q21.55 1.65 24.05 4.15 28.2 8.3 28.2 14.25 28.2 16.45 27.65 18.45 L27.4 18.95" fill="#ffffff" fill-opacity="0.19607843" fill-rule="evenodd" stroke="none"/>
    </g>
    <g id="shape2" transform="matrix(1.0, 0.0, 0.0, 1.0, 0.05, -3.2)">
      <path d="M43.85 20.75 L43.95 20.65 43.75 24.75 Q43.75 26.8 40.15 34.95 L40.0 34.75 41.95 30.1 Q43.75 25.6 43.75 24.2 L43.85 20.75 M42.65 38.8 L42.65 39.45 37.4 34.95 37.7 34.95 37.9 34.7 42.65 38.8 M28.7 43.45 L36.65 43.05 37.4 42.3 37.95 42.3 36.65 43.65 Q34.9 44.55 26.85 43.85 L27.0 43.7 27.8 43.45 28.0 43.55 28.7 43.45 M34.3 42.1 L33.9 42.1 36.85 37.8 Q37.25 37.95 37.6 38.25 L37.95 38.5 38.85 39.3 39.1 39.75 39.4 40.35 39.6 40.85 39.6 41.7 Q39.55 40.8 38.85 39.9 37.95 38.9 36.85 38.35 L34.3 42.1 M39.7 43.15 Q41.45 42.1 42.15 40.8 L42.4 40.8 Q41.75 42.75 38.85 44.4 L39.3 43.5 39.7 43.3 39.7 43.15 M6.45 34.95 L1.2 39.45 1.2 38.8 5.95 34.7 6.2 34.95 6.45 34.95 M3.7 34.95 Q0.1 26.8 0.1 24.75 L-0.05 20.65 0.0 20.75 0.1 24.2 Q0.1 25.6 1.9 30.1 L3.85 34.75 3.7 34.95 M1.7 40.8 Q2.4 42.1 4.15 43.15 L4.15 43.3 4.55 43.5 5.0 44.4 Q2.15 42.75 1.45 40.8 L1.7 40.8 M6.25 38.25 Q6.6 37.95 7.0 37.8 L9.95 42.1 9.55 42.1 7.0 38.35 Q5.9 38.9 5.0 39.9 4.35 40.8 4.25 41.7 L4.25 40.85 4.45 40.35 4.75 39.75 5.0 39.3 5.9 38.5 Q6.05 38.3 6.25 38.25 M6.45 42.3 L7.2 43.05 15.15 43.45 15.85 43.55 16.1 43.45 16.85 43.7 17.0 43.85 Q8.95 44.55 7.2 43.65 L5.9 42.3 6.45 42.3" fill="#0b000a" fill-rule="evenodd" stroke="none"/>
      <path d="M40.65 35.4 L41.15 35.95 41.95 32.45 41.95 32.35 42.1 32.2 41.4 36.05 41.3 36.1 40.7 36.05 40.65 35.6 40.65 35.4 M38.1 34.0 L38.9 33.9 Q40.9 31.8 42.65 25.7 L43.75 20.75 43.75 20.8 43.65 22.65 42.5 27.05 Q42.1 29.0 40.9 31.35 L39.75 33.4 Q39.2 34.25 37.95 34.3 L37.55 34.4 37.5 34.4 37.25 34.2 38.1 34.0 M37.1 35.65 L37.15 35.7 36.5 36.6 34.6 39.05 Q31.85 42.75 29.15 42.75 L28.35 42.7 28.55 42.65 28.8 42.55 29.8 42.2 30.85 41.85 Q32.5 41.3 34.95 38.4 L37.1 35.65 M37.6 38.25 L37.8 38.2 Q38.95 38.2 39.45 39.85 39.8 40.8 39.8 41.7 L39.7 43.15 39.7 43.3 39.3 43.5 38.85 43.7 38.9 43.55 39.35 42.65 39.45 42.35 39.55 42.0 39.55 41.95 39.55 41.9 39.6 41.7 39.6 40.85 39.4 40.35 39.1 39.75 38.85 39.3 37.95 38.5 37.6 38.25 M0.1 20.8 L0.1 20.75 1.2 25.7 Q2.95 31.8 4.95 33.9 L5.8 34.0 6.6 34.2 6.35 34.4 6.3 34.4 5.9 34.3 Q4.7 34.25 4.1 33.4 L2.95 31.35 Q1.8 29.0 1.4 27.05 L0.2 22.65 0.1 20.8 M1.9 32.35 L1.9 32.45 2.7 35.95 3.25 35.4 3.25 35.6 3.15 36.05 2.55 36.1 2.5 36.05 1.8 32.2 1.9 32.35 M15.5 42.7 L14.7 42.75 Q12.05 42.75 9.25 39.05 L7.35 36.6 6.7 35.7 6.75 35.65 8.9 38.4 Q11.35 41.3 13.0 41.85 L14.05 42.2 15.05 42.55 15.35 42.65 15.5 42.7 M4.15 43.15 L4.05 41.7 Q4.05 40.8 4.4 39.85 4.9 38.2 6.05 38.2 L6.25 38.25 Q6.05 38.3 5.9 38.5 L5.0 39.3 4.75 39.75 4.45 40.35 4.25 40.85 4.25 41.7 4.35 41.9 4.35 41.95 4.35 42.0 4.4 42.35 4.5 42.65 4.95 43.55 5.0 43.7 4.55 43.5 4.15 43.3 4.15 43.15" fill="#c8a6c1" fill-rule="evenodd" stroke="none"/>
      <path d="M40.15 34.95 L40.65 35.4 40.65 35.6 40.7 36.05 41.3 36.1 41.4 36.05 42.1 32.2 41.95 32.35 42.5 30.35 42.65 38.8 37.9 34.7 37.55 34.4 37.95 34.3 Q39.2 34.25 39.75 33.4 L40.9 31.35 Q42.1 29.0 42.5 27.05 L43.65 22.65 43.75 20.8 43.95 20.0 43.85 20.75 43.75 24.2 Q43.75 25.6 41.95 30.1 L40.0 34.75 40.15 34.95 M37.6 34.1 L38.1 34.0 37.25 34.2 37.6 34.1 M42.5 40.05 L42.15 40.8 Q41.45 42.1 39.7 43.15 L39.8 41.7 Q39.8 40.8 39.45 39.85 38.95 38.2 37.8 38.2 L37.6 38.25 Q37.25 37.95 36.85 37.8 L33.9 42.1 34.3 42.1 34.95 42.1 38.2 41.45 38.0 41.65 37.4 42.3 36.65 43.05 28.7 43.45 27.15 43.3 26.85 43.2 26.8 43.2 27.1 43.1 27.2 43.1 28.35 42.7 29.15 42.75 Q31.85 42.75 34.6 39.05 L36.5 36.6 37.15 35.7 37.1 35.65 42.4 40.05 42.5 40.05 M5.8 34.0 L6.25 34.1 6.6 34.2 5.8 34.0 M1.2 38.8 L1.4 30.35 1.9 32.35 1.8 32.2 2.5 36.05 2.55 36.1 3.15 36.05 3.25 35.6 3.25 35.4 3.7 34.95 3.85 34.75 1.9 30.1 Q0.1 25.6 0.1 24.2 L0.0 20.75 -0.05 20.0 0.1 20.8 0.2 22.65 1.4 27.05 Q1.8 29.0 2.95 31.35 L4.1 33.4 Q4.7 34.25 5.9 34.3 L6.3 34.4 5.95 34.7 1.2 38.8 M6.75 35.65 L6.7 35.7 7.35 36.6 9.25 39.05 Q12.05 42.75 14.7 42.75 L15.5 42.7 16.65 43.1 16.8 43.1 17.05 43.2 17.0 43.2 16.7 43.3 15.15 43.45 7.2 43.05 6.45 42.3 5.85 41.65 5.65 41.45 8.9 42.1 9.55 42.1 9.95 42.1 7.0 37.8 Q6.6 37.95 6.25 38.25 L6.05 38.2 Q4.9 38.2 4.4 39.85 4.05 40.8 4.05 41.7 L4.15 43.15 Q2.4 42.1 1.7 40.8 L1.4 40.05 1.45 40.05 6.75 35.65" fill="#4a3355" fill-rule="evenodd" stroke="none"/>
      <path d="M37.4 34.95 L37.35 34.85 37.25 34.75 37.2 34.2 37.6 34.1 37.25 34.2 37.5 34.4 37.55 34.4 37.9 34.7 37.7 34.95 37.4 34.95 M42.15 40.8 L42.5 40.05 42.6 40.55 42.5 40.8 42.4 40.8 42.15 40.8 M27.2 43.1 L27.1 43.1 27.15 43.05 27.2 43.1 M26.85 43.2 L27.15 43.3 28.7 43.45 28.0 43.55 27.8 43.45 27.0 43.7 26.85 43.85 26.85 43.2 M37.4 42.3 L38.0 41.65 38.2 41.8 38.2 42.25 37.95 42.3 37.4 42.3 M6.25 34.1 L6.65 34.2 6.6 34.75 6.55 34.85 6.45 34.95 6.2 34.95 5.95 34.7 6.3 34.4 6.35 34.4 6.6 34.2 6.25 34.1 M1.4 40.05 L1.7 40.8 1.45 40.8 1.4 40.8 1.25 40.55 Q1.25 40.15 1.4 40.05 M5.85 41.65 L6.45 42.3 5.9 42.3 5.65 42.25 5.65 41.8 5.85 41.65 M15.15 43.45 L16.7 43.3 17.0 43.2 17.0 43.85 16.85 43.7 16.1 43.45 15.85 43.55 15.15 43.45 M16.8 43.1 L16.65 43.1 16.7 43.05 16.8 43.1" fill="#000000" fill-rule="evenodd" stroke="none"/>
      <path d="M35.4 8.75 Q41.0 14.25 41.0 22.2 41.0 30.05 35.4 35.55 29.9 41.25 22.0 41.25 14.1 41.25 8.6 35.55 3.05 30.05 3.05 22.2 3.05 14.25 8.6 8.75 14.1 3.2 22.0 3.2 29.9 3.2 35.4 8.75 M33.85 10.5 Q28.9 5.65 22.0 5.6 15.15 5.65 10.25 10.5 5.4 15.3 5.35 22.2 5.4 29.15 10.25 34.0 15.15 38.85 22.0 38.85 28.9 38.85 33.85 34.0 38.65 29.15 38.65 22.2 38.65 15.3 33.85 10.5" fill="url(#gradient2)" fill-rule="evenodd" stroke="none"/>
    </g>
    <linearGradient gradientTransform="matrix(0.0, 0.0226, -0.0232, 0.0, 22.0, 22.45)" gradientUnits="userSpaceOnUse" id="gradient2" spreadMethod="pad" x1="-819.2" x2="819.2">
      <stop offset="0.0" stop-color="#3d2945"/>
      <stop offset="1.0" stop-color="#cabad6"/>
    </linearGradient>
    <g id="sprite1" transform="matrix(1.0, 0.0, 0.0, 1.0, 0.2, 0.0)">
      <use height="8.6" transform="matrix(1.0, 0.0, 0.0, 1.0, -0.2, 0.0)" width="35.05" xlink:href="#shape3"/>
    </g>
    <g id="shape3" transform="matrix(1.0, 0.0, 0.0, 1.0, 0.2, 0.0)">
      <path d="M34.85 8.6 Q34.8 6.95 34.4 5.7 33.0 1.3 27.2 1.3 L7.45 1.3 Q0.05 1.3 -0.2 8.5 L-0.2 7.65 Q-0.2 0.0 7.45 0.0 L27.2 0.0 Q33.0 0.0 34.4 4.4 34.85 5.8 34.85 7.65 L34.85 8.6" fill="#e7deda" fill-rule="evenodd" stroke="none"/>
    </g>
  </defs>
</svg>
