<?xml version="1.0" encoding="UTF-8" standalone="no"?>
<svg xmlns:xlink="http://www.w3.org/1999/xlink" height="44.55px" width="44.0px" xmlns="http://www.w3.org/2000/svg">
  <g transform="matrix(1.0, 0.0, 0.0, 1.0, 0.0, 0.0)">
    <use height="43.6" transform="matrix(1.0, 0.0, 0.0, 1.0, 0.15, 0.0)" width="43.65" xlink:href="#shape0"/>
    <use height="20.15" transform="matrix(1.1594, 0.0, 0.0, 1.1605, 6.2, 5.0)" width="28.2" xlink:href="#sprite0"/>
    <use height="41.2" transform="matrix(1.0, 0.0, 0.0, 1.0, 0.0, 3.35)" width="44.0" xlink:href="#shape2"/>
    <use height="8.6" transform="matrix(1.2077, 0.0, 0.0, 1.2065, 0.8085, 1.1)" width="35.05" xlink:href="#sprite1"/>
  </g>
  <defs>
    <g id="shape0" transform="matrix(1.0, 0.0, 0.0, 1.0, -0.15, 0.0)">
      <path d="M36.25 0.0 Q39.4 0.0 41.6 2.2 43.8 4.4 43.8 7.5 L43.8 36.1 Q43.8 39.2 41.6 41.4 39.4 43.6 36.25 43.6 L7.7 43.6 Q4.55 43.6 2.35 41.4 0.15 39.2 0.15 36.1 L0.15 7.5 Q0.15 4.4 2.35 2.2 4.55 0.0 7.7 0.0 L36.25 0.0" fill="url(#gradient0)" fill-rule="evenodd" stroke="none"/>
      <path d="M39.85 21.9 Q39.85 29.3 34.65 34.6 29.45 39.8 22.05 39.8 14.6 39.8 9.4 34.6 4.2 29.3 4.2 21.9 4.2 14.55 9.4 9.3 14.7 4.05 22.05 4.05 29.45 4.05 34.65 9.3 39.85 14.55 39.85 21.9" fill="url(#gradient1)" fill-rule="evenodd" stroke="none"/>
      <path d="M30.3 23.2 L28.35 13.05 29.15 10.95 30.3 23.2 M29.1 24.55 L22.2 11.4 22.15 8.45 29.1 24.55 M11.6 17.4 Q16.95 16.9 21.15 19.8 L35.35 29.95 17.5 23.25 Q13.6 21.6 11.6 17.4 M6.6 24.05 L9.45 23.35 23.9 26.6 6.6 24.05 M15.7 8.85 L26.55 22.55 16.5 11.65 15.7 8.85 M9.5 29.8 L12.05 28.35 26.85 27.75 9.5 29.8 M15.15 34.6 L16.5 32.85 26.35 29.45 15.15 34.6" fill="#4a3355" fill-rule="evenodd" stroke="none"/>
    </g>
    <linearGradient gradientTransform="matrix(0.0, -0.0546, -0.0546, 0.0, 21.95, 18.15)" gradientUnits="userSpaceOnUse" id="gradient0" spreadMethod="pad" x1="-819.2" x2="819.2">
      <stop offset="0.011764705882352941" stop-color="#bf809f"/>
      <stop offset="1.0" stop-color="#543c7c"/>
    </linearGradient>
    <linearGradient gradientTransform="matrix(0.0, -0.0167, -0.0167, 0.0, 22.05, 18.55)" gradientUnits="userSpaceOnUse" id="gradient1" spreadMethod="pad" x1="-819.2" x2="819.2">
      <stop offset="0.011764705882352941" stop-color="#bcb9ae"/>
      <stop offset="1.0" stop-color="#9b5b79"/>
    </linearGradient>
    <g id="sprite0" transform="matrix(1.0, 0.0, 0.0, 1.0, 0.0, 0.0)">
      <use height="20.15" transform="matrix(1.0, 0.0, 0.0, 1.0, 0.0, 0.0)" width="28.2" xlink:href="#shape1"/>
    </g>
    <g id="shape1" transform="matrix(1.0, 0.0, 0.0, 1.0, 0.0, 0.0)">
      <path d="M27.4 18.95 Q26.2 20.8 23.4 19.8 19.6 18.5 17.35 14.05 14.8 9.1 9.75 7.4 4.1 5.65 0.0 10.3 1.0 6.85 3.7 4.15 7.2 0.65 11.9 0.05 L14.8 0.05 18.4 0.65 Q21.55 1.65 24.05 4.15 28.2 8.3 28.2 14.25 28.2 16.45 27.65 18.45 L27.4 18.95" fill="#ffffff" fill-opacity="0.19607843" fill-rule="evenodd" stroke="none"/>
      <path d="M27.4 18.95 Q26.2 20.8 23.4 19.8 19.6 18.5 17.35 14.05 14.8 9.1 9.75 7.4 4.1 5.65 0.0 10.3 1.0 6.85 3.7 4.15 7.2 0.65 11.9 0.05 L14.8 0.05 18.4 0.65 Q21.55 1.65 24.05 4.15 28.2 8.3 28.2 14.25 28.2 16.45 27.65 18.45 L27.4 18.95" fill="#ffffff" fill-opacity="0.19607843" fill-rule="evenodd" stroke="none"/>
    </g>
    <g id="shape2" transform="matrix(1.0, 0.0, 0.0, 1.0, 0.0, -3.35)">
      <path d="M38.15 34.15 L38.95 34.05 Q40.95 31.95 42.7 25.85 L43.8 20.9 43.8 20.95 43.7 22.8 42.55 27.2 Q42.15 29.15 40.95 31.5 L39.8 33.55 Q39.25 34.4 38.0 34.45 L37.6 34.55 37.55 34.55 37.3 34.35 38.15 34.15 M40.7 35.55 L41.2 36.1 42.0 32.6 42.0 32.5 42.15 32.35 41.45 36.2 41.35 36.25 40.75 36.2 40.7 35.75 40.7 35.55 M39.75 43.3 L39.75 43.45 39.35 43.65 38.9 43.85 38.95 43.7 39.4 42.8 39.5 42.5 39.6 42.15 39.6 42.1 39.6 42.05 39.65 41.85 39.65 41.0 39.45 40.5 39.15 39.9 38.9 39.45 38.0 38.65 37.65 38.4 37.85 38.35 Q39.0 38.35 39.5 40.0 39.85 40.95 39.85 41.85 L39.75 43.3 M37.15 35.8 L37.2 35.85 36.55 36.75 34.65 39.2 Q31.9 42.9 29.2 42.9 L28.4 42.85 28.6 42.8 28.85 42.7 29.85 42.35 30.9 42.0 Q32.55 41.45 35.0 38.55 L37.15 35.8 M6.35 34.55 L5.95 34.45 Q4.75 34.4 4.15 33.55 L3.0 31.5 Q1.85 29.15 1.45 27.2 L0.25 22.8 0.15 20.95 0.15 20.9 1.25 25.85 Q3.0 31.95 5.0 34.05 L5.85 34.15 6.65 34.35 6.4 34.55 6.35 34.55 M3.3 35.55 L3.3 35.75 3.2 36.2 2.6 36.25 2.55 36.2 1.85 32.35 1.95 32.5 1.95 32.6 2.75 36.1 3.3 35.55 M15.55 42.85 L14.75 42.9 Q12.1 42.9 9.3 39.2 L7.4 36.75 6.75 35.85 6.8 35.8 8.95 38.55 Q11.4 41.45 13.05 42.0 L14.1 42.35 15.1 42.7 15.4 42.8 15.55 42.85 M4.2 43.3 L4.1 41.85 Q4.1 40.95 4.45 40.0 4.95 38.35 6.1 38.35 L6.3 38.4 5.95 38.65 5.05 39.45 4.8 39.9 4.5 40.5 4.3 41.0 4.3 41.85 4.4 42.05 4.4 42.1 4.4 42.15 4.45 42.5 4.55 42.8 5.0 43.7 5.05 43.85 4.6 43.65 4.2 43.45 4.2 43.3" fill="#c8a6c1" fill-rule="evenodd" stroke="none"/>
      <path d="M43.8 20.95 L44.0 20.15 43.9 20.9 43.8 24.35 Q43.8 25.75 42.0 30.25 L40.05 34.9 40.2 35.1 40.7 35.55 40.7 35.75 40.75 36.2 41.35 36.25 41.45 36.2 42.15 32.35 42.0 32.5 42.55 30.5 42.7 38.95 37.95 34.85 37.6 34.55 38.0 34.45 Q39.25 34.4 39.8 33.55 L40.95 31.5 Q42.15 29.15 42.55 27.2 L43.7 22.8 43.8 20.95 M37.65 34.25 L38.15 34.15 37.3 34.35 37.65 34.25 M42.55 40.2 L42.2 40.95 Q41.5 42.25 39.75 43.3 L39.85 41.85 Q39.85 40.95 39.5 40.0 39.0 38.35 37.85 38.35 L37.65 38.4 36.9 37.95 33.95 42.25 34.35 42.25 35.0 42.25 38.25 41.6 38.05 41.8 37.45 42.45 36.7 43.2 28.75 43.6 27.2 43.45 26.9 43.35 26.85 43.35 27.15 43.25 27.25 43.25 28.4 42.85 29.2 42.9 Q31.9 42.9 34.65 39.2 L36.55 36.75 37.2 35.85 37.15 35.8 42.45 40.2 42.55 40.2 M0.15 20.95 L0.25 22.8 1.45 27.2 Q1.85 29.15 3.0 31.5 L4.15 33.55 Q4.75 34.4 5.95 34.45 L6.35 34.55 6.0 34.85 1.25 38.95 1.45 30.5 1.95 32.5 1.85 32.35 2.55 36.2 2.6 36.25 3.2 36.2 3.3 35.75 3.3 35.55 3.75 35.1 3.9 34.9 1.95 30.25 Q0.15 25.75 0.15 24.35 L0.05 20.9 0.0 20.15 0.15 20.95 M6.65 34.35 L5.85 34.15 6.3 34.25 6.65 34.35 M6.8 35.8 L6.75 35.85 7.4 36.75 9.3 39.2 Q12.1 42.9 14.75 42.9 L15.55 42.85 16.7 43.25 16.85 43.25 17.1 43.35 17.05 43.35 16.75 43.45 15.2 43.6 7.25 43.2 6.5 42.45 5.9 41.8 5.7 41.6 8.95 42.25 9.6 42.25 10.0 42.25 7.05 37.95 6.3 38.4 6.1 38.35 Q4.95 38.35 4.45 40.0 4.1 40.95 4.1 41.85 L4.2 43.3 Q2.45 42.25 1.75 40.95 L1.45 40.2 1.5 40.2 6.8 35.8" fill="#4a3355" fill-rule="evenodd" stroke="none"/>
      <path d="M43.9 20.9 L44.0 20.8 43.8 24.9 Q43.8 26.95 40.2 35.1 L40.05 34.9 42.0 30.25 Q43.8 25.75 43.8 24.35 L43.9 20.9 M42.7 38.95 L42.7 39.6 37.45 35.1 37.75 35.1 37.95 34.85 42.7 38.95 M42.2 40.95 L42.45 40.95 Q41.8 42.9 38.9 44.55 L39.35 43.65 39.75 43.45 39.75 43.3 Q41.5 42.25 42.2 40.95 M28.75 43.6 L36.7 43.2 37.45 42.45 38.0 42.45 36.7 43.8 Q34.95 44.7 26.9 44.0 L27.05 43.85 27.85 43.6 28.05 43.7 28.75 43.6 M34.35 42.25 L33.95 42.25 36.9 37.95 37.65 38.4 38.0 38.65 38.9 39.45 39.15 39.9 39.45 40.5 39.65 41.0 39.65 41.85 Q39.6 40.95 38.9 40.05 38.0 39.05 36.9 38.5 L34.35 42.25 M0.05 20.9 L0.15 24.35 Q0.15 25.75 1.95 30.25 L3.9 34.9 3.75 35.1 Q0.15 26.95 0.15 24.9 L0.0 20.8 0.05 20.9 M1.25 38.95 L6.0 34.85 6.25 35.1 6.5 35.1 1.25 39.6 1.25 38.95 M1.75 40.95 Q2.45 42.25 4.2 43.3 L4.2 43.45 4.6 43.65 5.05 44.55 Q2.2 42.9 1.5 40.95 L1.75 40.95 M6.3 38.4 L7.05 37.95 10.0 42.25 9.6 42.25 7.05 38.5 Q5.95 39.05 5.05 40.05 4.4 40.95 4.3 41.85 L4.3 41.0 4.5 40.5 4.8 39.9 5.05 39.45 5.95 38.65 6.3 38.4 M6.5 42.45 L7.25 43.2 15.2 43.6 15.9 43.7 16.15 43.6 16.9 43.85 17.05 44.0 Q9.0 44.7 7.25 43.8 L5.95 42.45 6.5 42.45" fill="#0b000a" fill-rule="evenodd" stroke="none"/>
      <path d="M37.45 35.1 L37.4 35.0 37.3 34.9 37.25 34.35 37.65 34.25 37.3 34.35 37.55 34.55 37.6 34.55 37.95 34.85 37.75 35.1 37.45 35.1 M42.45 40.95 L42.2 40.95 42.55 40.2 42.65 40.7 42.55 40.95 42.45 40.95 M27.25 43.25 L27.15 43.25 27.2 43.2 27.25 43.25 M26.9 43.35 L27.2 43.45 28.75 43.6 28.05 43.7 27.85 43.6 27.05 43.85 26.9 44.0 26.9 43.35 M37.45 42.45 L38.05 41.8 38.25 41.95 38.25 42.4 38.0 42.45 37.45 42.45 M6.35 34.55 L6.4 34.55 6.65 34.35 6.3 34.25 6.7 34.35 6.65 34.9 6.6 35.0 6.5 35.1 6.25 35.1 6.0 34.85 6.35 34.55 M1.45 40.2 L1.75 40.95 1.5 40.95 1.45 40.95 1.3 40.7 Q1.3 40.3 1.45 40.2 M5.9 41.8 L6.5 42.45 5.95 42.45 5.7 42.4 5.7 41.95 Q5.75 41.8 5.9 41.8 M15.2 43.6 L16.75 43.45 17.05 43.35 17.05 44.0 16.9 43.85 16.15 43.6 15.9 43.7 15.2 43.6 M16.85 43.25 L16.7 43.25 16.75 43.2 16.85 43.25" fill="#000000" fill-rule="evenodd" stroke="none"/>
      <path d="M35.45 8.9 Q41.05 14.4 41.05 22.35 41.05 30.2 35.45 35.7 29.95 41.4 22.05 41.4 14.15 41.4 8.65 35.7 3.1 30.2 3.1 22.35 3.1 14.4 8.65 8.9 14.15 3.35 22.05 3.35 29.95 3.35 35.45 8.9 M33.9 10.65 Q28.95 5.8 22.05 5.75 15.2 5.8 10.3 10.65 5.45 15.45 5.4 22.35 5.45 29.3 10.3 34.15 15.2 39.0 22.05 39.0 28.95 39.0 33.9 34.15 38.7 29.3 38.7 22.35 38.7 15.45 33.9 10.65" fill="url(#gradient2)" fill-rule="evenodd" stroke="none"/>
    </g>
    <linearGradient gradientTransform="matrix(0.0, 0.0226, -0.0232, 0.0, 22.05, 22.6)" gradientUnits="userSpaceOnUse" id="gradient2" spreadMethod="pad" x1="-819.2" x2="819.2">
      <stop offset="0.0" stop-color="#3d2945"/>
      <stop offset="1.0" stop-color="#cabad6"/>
    </linearGradient>
    <g id="sprite1" transform="matrix(1.0, 0.0, 0.0, 1.0, 0.2, 0.0)">
      <use height="8.6" transform="matrix(1.0, 0.0, 0.0, 1.0, -0.2, 0.0)" width="35.05" xlink:href="#shape3"/>
    </g>
    <g id="shape3" transform="matrix(1.0, 0.0, 0.0, 1.0, 0.2, 0.0)">
      <path d="M34.85 8.6 Q34.8 6.95 34.4 5.7 33.0 1.3 27.2 1.3 L7.45 1.3 Q0.05 1.3 -0.2 8.5 L-0.2 7.65 Q-0.2 0.0 7.45 0.0 L27.2 0.0 Q33.0 0.0 34.4 4.4 34.85 5.8 34.85 7.65 L34.85 8.6" fill="#e7deda" fill-rule="evenodd" stroke="none"/>
    </g>
  </defs>
</svg>
