<?xml version="1.0" encoding="UTF-8" standalone="no"?>
<svg xmlns:xlink="http://www.w3.org/1999/xlink" height="66.0px" width="66.0px" xmlns="http://www.w3.org/2000/svg">
  <g transform="matrix(1.5, 0.0, 0.0, 1.5, 0.225, 0.0)">
    <use height="37.1" transform="matrix(1.0, 0.0, 0.0, 1.0, 3.55, 3.6)" width="37.2" xlink:href="#shape0"/>
    <use height="20.15" transform="matrix(1.1594, 0.0, 0.0, 1.1605, 6.1, 5.35)" width="28.2" xlink:href="#sprite0"/>
    <use height="44.0" transform="matrix(1.0, 0.0, 0.0, 1.0, -0.15, 0.0)" width="44.0" xlink:href="#shape2"/>
    <use height="8.6" transform="matrix(1.2125, 0.0, 0.0, 1.2125, 0.7075, 0.95)" width="35.05" xlink:href="#sprite1"/>
    <use height="44.0" transform="matrix(1.0, 0.0, 0.0, 1.0, -0.15, 0.0)" width="44.0" xlink:href="#shape4"/>
    <use height="8.6" transform="matrix(1.2125, 0.0, 0.0, 1.2125, 0.7075, 0.95)" width="35.05" xlink:href="#sprite1"/>
    <use height="17.95" transform="matrix(1.0, 0.0, 0.0, 1.0, -0.15, 26.05)" width="43.95" xlink:href="#shape5"/>
  </g>
  <defs>
    <g id="shape0" transform="matrix(1.0, 0.0, 0.0, 1.0, -3.55, -3.6)">
      <path d="M35.35 9.05 Q40.75 14.5 40.75 22.15 40.75 29.85 35.35 35.3 29.9 40.7 22.2 40.7 14.45 40.7 9.0 35.3 3.55 29.85 3.55 22.15 3.55 14.45 9.0 9.05 14.45 3.6 22.2 3.6 29.9 3.6 35.35 9.05" fill="url(#gradient0)" fill-rule="evenodd" stroke="none"/>
      <path d="M36.1 16.75 Q34.85 15.15 33.1 14.15 L30.4 13.0 29.25 10.3 Q28.25 8.55 26.65 7.3 30.1 8.95 31.45 11.9 34.45 13.3 36.1 16.75 M21.55 20.6 Q21.3 14.9 20.3 14.95 19.0 15.05 17.35 16.25 19.65 12.8 19.7 11.5 19.3 10.85 17.8 11.5 16.65 11.95 14.95 13.05 16.25 8.35 21.55 5.8 27.05 8.2 28.35 13.05 24.5 10.1 23.65 11.5 23.55 12.65 26.0 16.25 L23.05 14.9 Q21.7 14.3 21.55 20.6 M22.9 21.6 Q28.6 21.35 28.55 20.35 28.45 19.05 27.25 17.4 30.7 19.7 32.0 19.75 33.1 19.05 30.45 15.0 35.15 16.3 37.7 21.6 35.3 27.1 30.45 28.4 33.4 24.55 32.0 23.7 30.85 23.6 27.25 26.05 L28.6 23.1 Q29.2 21.75 22.9 21.6 M12.75 15.0 Q10.1 19.05 11.2 19.75 12.5 19.7 15.95 17.4 14.75 19.05 14.65 20.35 14.6 21.35 20.3 21.6 14.0 21.75 14.6 23.1 L15.95 26.05 Q12.35 23.6 11.2 23.7 9.8 24.55 12.75 28.4 7.9 27.1 5.5 21.6 8.05 16.3 12.75 15.0 M9.95 14.15 Q8.2 15.15 6.95 16.75 8.6 13.3 11.6 11.9 12.95 8.95 16.4 7.3 14.8 8.55 13.8 10.3 L12.65 13.0 9.95 14.15 M9.95 29.05 L12.65 30.2 13.8 32.9 Q14.8 34.65 16.4 35.9 12.95 34.25 11.6 31.3 8.6 29.9 6.95 26.45 8.2 28.05 9.95 29.05 M33.1 29.05 Q34.85 28.05 36.1 26.45 34.45 29.9 31.45 31.3 30.1 34.25 26.65 35.9 28.25 34.65 29.25 32.9 L30.4 30.2 33.1 29.05 M14.95 30.75 Q19.0 33.4 19.7 32.3 19.65 31.0 17.35 27.55 19.0 28.75 20.3 28.85 21.3 28.9 21.55 23.2 21.7 29.5 23.05 28.9 L26.0 27.55 Q23.55 31.15 23.65 32.3 24.5 33.7 28.35 30.75 27.05 35.6 21.55 38.0 16.25 35.45 14.95 30.75" fill="#664411" fill-rule="evenodd" stroke="none"/>
    </g>
    <linearGradient gradientTransform="matrix(0.0056, 0.0, 0.0, 0.0043, -24.4, 41.85)" gradientUnits="userSpaceOnUse" id="gradient0" spreadMethod="pad" x1="-819.2" x2="819.2">
      <stop offset="0.011764705882352941" stop-color="#c79829"/>
      <stop offset="1.0" stop-color="#be7d1e"/>
    </linearGradient>
    <g id="sprite0" transform="matrix(1.0, 0.0, 0.0, 1.0, 0.0, 0.0)">
      <use height="20.15" transform="matrix(1.0, 0.0, 0.0, 1.0, 0.0, 0.0)" width="28.2" xlink:href="#shape1"/>
    </g>
    <g id="shape1" transform="matrix(1.0, 0.0, 0.0, 1.0, 0.0, 0.0)">
      <path d="M27.4 18.95 Q26.2 20.8 23.4 19.8 19.6 18.5 17.35 14.05 14.8 9.1 9.75 7.4 4.1 5.65 0.0 10.3 1.0 6.85 3.7 4.15 7.2 0.65 11.9 0.05 L14.8 0.05 18.4 0.65 Q21.55 1.65 24.05 4.15 28.2 8.3 28.2 14.25 28.2 16.45 27.65 18.45 L27.4 18.95" fill="#ffffff" fill-opacity="0.19607843" fill-rule="evenodd" stroke="none"/>
      <path d="M27.4 18.95 Q26.2 20.8 23.4 19.8 19.6 18.5 17.35 14.05 14.8 9.1 9.75 7.4 4.1 5.65 0.0 10.3 1.0 6.85 3.7 4.15 7.2 0.65 11.9 0.05 L14.8 0.05 18.4 0.65 Q21.55 1.65 24.05 4.15 28.2 8.3 28.2 14.25 28.2 16.45 27.65 18.45 L27.4 18.95" fill="#ffffff" fill-opacity="0.19607843" fill-rule="evenodd" stroke="none"/>
    </g>
    <g id="shape2" transform="matrix(1.0, 0.0, 0.0, 1.0, 0.15, 0.0)">
      <path d="M41.65 2.3 Q43.85 4.5 43.85 7.6 L43.85 36.4 Q43.85 39.6 41.65 41.8 39.45 44.0 36.25 44.0 L7.45 44.0 Q4.3 44.0 2.1 41.8 -0.15 39.6 -0.15 36.4 L-0.15 7.6 Q-0.15 4.5 2.1 2.3 4.3 0.0 7.45 0.0 L36.25 0.0 Q39.4 0.0 41.65 2.3 M40.7 22.05 Q40.7 14.1 35.1 8.6 29.6 3.05 21.7 3.05 13.75 3.05 8.25 8.6 2.7 14.1 2.7 22.05 2.7 29.95 8.25 35.45 13.75 41.1 21.7 41.1 29.6 41.1 35.1 35.45 40.7 29.95 40.7 22.05" fill="url(#gradient1)" fill-rule="evenodd" stroke="none"/>
      <path d="M40.7 22.05 Q40.7 29.95 35.1 35.45 29.6 41.1 21.7 41.1 13.75 41.1 8.25 35.45 2.7 29.95 2.7 22.05 2.7 14.1 8.25 8.6 13.75 3.05 21.7 3.05 29.6 3.05 35.1 8.6 40.7 14.1 40.7 22.05 M33.55 10.35 Q28.6 5.45 21.7 5.4 14.8 5.45 9.95 10.35 5.05 15.15 5.0 22.05 5.05 29.0 9.95 33.85 14.8 38.75 21.7 38.75 28.6 38.75 33.55 33.85 38.35 29.0 38.35 22.05 38.35 15.15 33.55 10.35" fill="url(#gradient2)" fill-rule="evenodd" stroke="none"/>
    </g>
    <linearGradient gradientTransform="matrix(0.0, -0.0258, -0.0551, 0.0, 21.7, 21.85)" gradientUnits="userSpaceOnUse" id="gradient1" spreadMethod="pad" x1="-819.2" x2="819.2">
      <stop offset="0.011764705882352941" stop-color="#c79829"/>
      <stop offset="1.0" stop-color="#be7d1e"/>
    </linearGradient>
    <linearGradient gradientTransform="matrix(1.0E-4, 0.0223, -0.0232, 1.0E-4, 21.75, 22.3)" gradientUnits="userSpaceOnUse" id="gradient2" spreadMethod="pad" x1="-819.2" x2="819.2">
      <stop offset="0.011764705882352941" stop-color="#8d5910"/>
      <stop offset="1.0" stop-color="#d9d597"/>
    </linearGradient>
    <g id="sprite1" transform="matrix(1.0, 0.0, 0.0, 1.0, 0.2, 0.0)">
      <use height="8.6" transform="matrix(1.0, 0.0, 0.0, 1.0, -0.2, 0.0)" width="35.05" xlink:href="#shape3"/>
    </g>
    <g id="shape3" transform="matrix(1.0, 0.0, 0.0, 1.0, 0.2, 0.0)">
      <path d="M34.85 8.6 Q34.8 6.95 34.4 5.7 33.0 1.3 27.2 1.3 L7.45 1.3 Q0.05 1.3 -0.2 8.5 L-0.2 7.65 Q-0.2 0.0 7.45 0.0 L27.2 0.0 Q33.0 0.0 34.4 4.4 34.85 5.8 34.85 7.65 L34.85 8.6" fill="#e7deda" fill-rule="evenodd" stroke="none"/>
    </g>
    <g id="shape4" transform="matrix(1.0, 0.0, 0.0, 1.0, 0.15, 0.0)">
      <path d="M38.7 27.95 L39.15 26.8 39.55 26.3 Q39.9 26.05 40.25 26.05 L40.9 26.3 41.35 26.85 41.75 27.95 42.9 27.95 Q43.35 27.95 43.6 28.2 L43.8 28.35 43.8 29.95 Q43.7 30.0 43.55 30.1 L42.7 30.75 43.1 32.1 43.1 32.8 42.65 33.35 41.95 33.55 41.3 33.3 41.05 33.15 41.0 35.7 43.4 36.65 43.8 36.9 43.45 38.8 43.25 38.85 40.7 39.5 40.5 42.45 40.35 42.75 39.1 43.5 38.85 43.45 38.35 43.0 36.85 40.45 34.05 41.2 33.7 41.2 32.85 41.8 33.25 43.15 33.25 43.85 33.15 44.0 31.0 44.0 30.4 43.6 29.75 44.0 27.55 44.0 27.5 43.8 27.5 43.1 27.9 41.8 27.0 41.2 26.6 40.6 Q26.45 40.2 26.6 39.85 L27.0 39.25 27.7 39.05 28.85 39.05 29.3 37.9 29.7 37.35 30.4 37.15 31.05 37.35 31.5 37.95 31.9 39.05 33.05 39.05 34.7 37.05 33.4 34.85 33.25 34.15 33.55 33.45 Q33.75 33.2 34.1 33.15 L34.8 33.2 37.2 34.15 37.9 33.4 37.75 33.3 37.35 32.7 37.35 32.0 37.75 30.75 36.85 30.1 36.45 29.55 Q36.3 29.15 36.45 28.8 L36.85 28.2 37.55 27.95 38.7 27.95 M30.5 38.7 L30.25 38.7 29.65 40.2 28.05 40.2 27.95 40.45 29.3 41.35 28.7 43.1 28.9 43.2 30.4 42.15 31.8 43.2 32.05 43.1 31.5 41.35 32.65 40.5 32.6 40.2 31.1 40.2 30.5 38.7 M37.55 35.5 L34.4 34.25 36.15 37.2 33.75 40.0 37.4 39.1 39.35 42.35 39.6 38.6 43.0 37.7 39.85 36.45 39.9 33.0 37.55 35.5 M39.5 29.15 L37.9 29.15 37.8 29.35 39.15 30.3 38.6 32.0 38.75 32.15 40.25 31.1 41.65 32.15 41.9 32.0 41.35 30.3 42.65 29.35 42.5 29.15 40.95 29.15 40.35 27.6 40.1 27.6 39.5 29.15" fill="url(#gradient3)" fill-rule="evenodd" stroke="none"/>
      <path d="M38.4 29.75 L37.55 29.15 39.5 29.15 40.25 27.2 40.95 29.15 42.9 29.15 42.05 29.75 40.95 29.75 40.25 27.85 39.5 29.75 38.4 29.75 M41.35 30.3 L42.0 32.35 41.7 32.2 41.35 30.9 41.35 30.3 M38.75 32.2 L38.45 32.35 39.15 30.3 39.15 30.9 38.75 32.2 M39.85 36.45 L43.0 37.7 42.0 38.0 39.85 37.05 39.85 36.45 M34.4 39.85 L33.75 40.0 36.15 37.2 36.15 37.8 34.4 39.85 M34.85 35.1 L34.4 34.25 37.55 35.5 39.9 33.0 39.9 33.65 37.55 36.15 34.85 35.1 M28.9 43.25 L28.6 43.45 29.3 41.35 29.3 42.0 28.9 43.25 M28.55 40.85 L27.7 40.2 29.65 40.2 30.4 38.3 31.1 40.2 33.05 40.2 32.2 40.85 31.1 40.85 30.4 38.9 29.65 40.85 28.55 40.85 M31.5 41.35 L32.15 43.45 31.85 43.25 31.5 42.0 31.5 41.35" fill="#674512" fill-rule="evenodd" stroke="none"/>
      <path d="M42.05 29.75 L41.35 30.3 41.35 30.9 41.7 32.2 40.25 31.1 38.75 32.2 39.15 30.9 39.15 30.3 38.4 29.75 39.5 29.75 40.25 27.85 40.95 29.75 42.05 29.75 M39.85 36.45 L39.85 37.05 42.0 38.0 39.6 38.6 39.35 42.35 37.4 39.1 34.4 39.85 36.15 37.8 36.15 37.2 34.85 35.1 37.55 36.15 39.9 33.65 39.85 36.45 M29.3 41.35 L28.55 40.85 29.65 40.85 30.4 38.9 31.1 40.85 32.2 40.85 31.5 41.35 31.5 42.0 31.85 43.25 30.4 42.15 28.9 43.25 29.3 42.0 29.3 41.35" fill="#815815" fill-rule="evenodd" stroke="none"/>
      <path d="M4.95 27.95 L6.1 27.95 6.8 28.2 7.2 28.8 7.2 29.55 6.8 30.1 5.9 30.75 6.3 32.0 6.3 32.7 5.9 33.3 5.75 33.4 6.45 34.15 8.85 33.2 9.55 33.15 Q9.9 33.2 10.1 33.45 L10.4 34.15 10.25 34.85 8.95 37.05 10.6 39.05 11.75 39.05 12.15 37.95 12.6 37.35 13.25 37.15 13.95 37.35 14.35 37.9 14.8 39.05 15.95 39.05 16.65 39.25 17.05 39.85 17.05 40.6 16.65 41.2 15.75 41.8 16.15 43.1 16.15 43.8 16.1 44.0 13.9 44.0 13.25 43.6 12.65 44.0 10.5 44.0 10.4 43.85 10.4 43.15 10.8 41.8 9.95 41.2 9.6 41.2 6.8 40.45 5.3 43.0 4.8 43.45 4.55 43.5 Q3.85 43.2 3.3 42.75 L3.15 42.45 2.95 39.5 0.4 38.85 0.2 38.8 -0.15 36.9 0.25 36.65 2.65 35.7 2.6 33.15 2.35 33.3 1.7 33.55 1.0 33.35 0.55 32.8 0.55 32.1 0.95 30.75 0.1 30.1 -0.15 29.95 -0.15 28.35 0.05 28.2 Q0.3 27.95 0.75 27.95 L1.9 27.95 2.3 26.85 2.75 26.3 Q3.05 26.05 3.4 26.05 3.75 26.05 4.1 26.3 L4.5 26.8 4.95 27.95 M4.15 29.15 L3.55 27.6 3.3 27.6 2.7 29.15 1.15 29.15 1.0 29.35 2.3 30.3 1.75 32.0 2.0 32.15 3.4 31.1 4.9 32.15 5.05 32.0 4.5 30.3 5.85 29.35 5.75 29.15 4.15 29.15 M6.1 35.5 L3.75 33.0 3.8 36.45 0.65 37.7 4.05 38.6 4.3 42.35 6.25 39.1 9.9 40.0 7.5 37.2 9.25 34.25 6.1 35.5 M13.15 38.7 L12.55 40.2 11.05 40.2 11.0 40.5 12.15 41.35 11.6 43.1 11.85 43.2 13.25 42.15 14.75 43.2 14.95 43.1 14.35 41.35 15.7 40.45 15.6 40.2 14.0 40.2 13.4 38.7 13.15 38.7" fill="url(#gradient4)" fill-rule="evenodd" stroke="none"/>
      <path d="M1.6 29.75 L0.75 29.15 2.7 29.15 3.4 27.2 4.15 29.15 6.1 29.15 5.25 29.75 4.15 29.75 3.4 27.85 2.7 29.75 1.6 29.75 M4.5 30.3 L5.2 32.35 4.9 32.2 4.5 30.9 4.5 30.3 M1.95 32.2 L1.65 32.35 2.3 30.3 2.3 30.9 1.95 32.2 M3.75 33.65 L3.75 33.0 6.1 35.5 9.25 34.25 8.8 35.1 6.1 36.15 3.75 33.65 M7.5 37.2 L9.9 40.0 9.25 39.85 7.5 37.8 7.5 37.2 M1.65 38.0 L0.65 37.7 3.8 36.45 3.8 37.05 1.65 38.0 M11.45 40.85 L10.6 40.2 12.55 40.2 13.25 38.3 14.0 40.2 15.95 40.2 15.1 40.85 14.0 40.85 13.25 38.9 12.55 40.85 11.45 40.85 M14.35 41.35 L15.05 43.45 14.75 43.25 14.35 42.0 14.35 41.35 M11.8 43.25 L11.5 43.45 12.15 41.35 12.15 42.0 11.8 43.25" fill="#674512" fill-rule="evenodd" stroke="none"/>
      <path d="M1.6 29.75 L2.7 29.75 3.4 27.85 4.15 29.75 5.25 29.75 4.5 30.3 4.5 30.9 4.9 32.2 3.4 31.1 1.95 32.2 2.3 30.9 2.3 30.3 1.6 29.75 M3.8 36.45 L3.75 33.65 6.1 36.15 8.8 35.1 7.5 37.2 7.5 37.8 9.25 39.85 6.25 39.1 4.3 42.35 4.05 38.6 1.65 38.0 3.8 37.05 3.8 36.45 M11.45 40.85 L12.55 40.85 13.25 38.9 14.0 40.85 15.1 40.85 14.35 41.35 14.35 42.0 14.75 43.25 13.25 42.15 11.8 43.25 12.15 42.0 12.15 41.35 11.45 40.85" fill="#815815" fill-rule="evenodd" stroke="none"/>
      <path d="M40.7 22.05 Q40.7 29.95 35.1 35.45 29.6 41.1 21.7 41.1 13.75 41.1 8.25 35.45 2.7 29.95 2.7 22.05 2.7 14.1 8.25 8.6 13.75 3.05 21.7 3.05 29.6 3.05 35.1 8.6 40.7 14.1 40.7 22.05 M33.55 10.35 Q28.6 5.45 21.7 5.4 14.8 5.45 9.95 10.35 5.05 15.15 5.0 22.05 5.05 29.0 9.95 33.85 14.8 38.75 21.7 38.75 28.6 38.75 33.55 33.85 38.35 29.0 38.35 22.05 38.35 15.15 33.55 10.35" fill="url(#gradient5)" fill-rule="evenodd" stroke="none"/>
      <path d="M41.65 2.3 Q43.85 4.5 43.85 7.6 L43.85 36.4 Q43.85 39.6 41.65 41.8 39.45 44.0 36.25 44.0 L7.45 44.0 Q4.3 44.0 2.1 41.8 -0.15 39.6 -0.15 36.4 L-0.15 7.6 Q-0.15 4.5 2.1 2.3 4.3 0.0 7.45 0.0 L36.25 0.0 Q39.4 0.0 41.65 2.3 M40.7 22.05 Q40.7 14.1 35.1 8.6 29.6 3.05 21.7 3.05 13.75 3.05 8.25 8.6 2.7 14.1 2.7 22.05 2.7 29.95 8.25 35.45 13.75 41.1 21.7 41.1 29.6 41.1 35.1 35.45 40.7 29.95 40.7 22.05" fill="url(#gradient6)" fill-rule="evenodd" stroke="none"/>
    </g>
    <linearGradient gradientTransform="matrix(0.0, -0.0258, -0.0551, 0.0, 21.7, 21.85)" gradientUnits="userSpaceOnUse" id="gradient3" spreadMethod="pad" x1="-819.2" x2="819.2">
      <stop offset="0.011764705882352941" stop-color="#c79829"/>
      <stop offset="1.0" stop-color="#be7d1e"/>
    </linearGradient>
    <linearGradient gradientTransform="matrix(0.0, -0.0258, 0.0551, 0.0, 21.9, 21.85)" gradientUnits="userSpaceOnUse" id="gradient4" spreadMethod="pad" x1="-819.2" x2="819.2">
      <stop offset="0.011764705882352941" stop-color="#c79829"/>
      <stop offset="1.0" stop-color="#be7d1e"/>
    </linearGradient>
    <linearGradient gradientTransform="matrix(0.0, 0.0059, -0.0232, 0.0, 21.7, 18.4)" gradientUnits="userSpaceOnUse" id="gradient5" spreadMethod="pad" x1="-819.2" x2="819.2">
      <stop offset="0.011764705882352941" stop-color="#8d5910"/>
      <stop offset="1.0" stop-color="#d9d597"/>
    </linearGradient>
    <linearGradient gradientTransform="matrix(0.0, -0.0258, -0.0551, 0.0, 21.7, 21.85)" gradientUnits="userSpaceOnUse" id="gradient6" spreadMethod="pad" x1="-819.2" x2="819.2">
      <stop offset="0.011764705882352941" stop-color="#dad67d"/>
      <stop offset="1.0" stop-color="#cfa451"/>
    </linearGradient>
    <g id="shape5" transform="matrix(1.0, 0.0, 0.0, 1.0, 0.0, -26.05)">
      <path d="M38.85 27.95 L39.3 26.8 39.7 26.3 Q40.05 26.05 40.4 26.05 L41.05 26.3 41.5 26.85 41.9 27.95 43.05 27.95 43.75 28.2 43.95 28.35 43.95 29.95 43.7 30.1 42.85 30.75 43.25 32.1 43.25 32.8 42.8 33.35 42.1 33.55 41.45 33.3 41.2 33.15 41.15 35.7 43.55 36.65 Q43.75 36.7 43.95 36.9 L43.6 38.8 43.4 38.85 40.85 39.5 40.65 42.45 40.5 42.75 39.25 43.5 39.0 43.45 38.5 43.0 37.0 40.45 34.2 41.2 33.85 41.2 33.0 41.8 33.4 43.15 33.4 43.85 33.3 44.0 31.15 44.0 30.55 43.6 29.9 44.0 27.7 44.0 27.65 43.8 27.65 43.1 28.05 41.8 27.15 41.2 26.75 40.6 Q26.6 40.2 26.75 39.85 L27.15 39.25 27.85 39.05 29.0 39.05 29.45 37.9 Q29.6 37.55 29.85 37.35 L30.55 37.15 31.2 37.35 31.65 37.95 32.05 39.05 33.2 39.05 34.85 37.05 33.55 34.85 33.4 34.15 33.7 33.45 Q33.9 33.2 34.25 33.15 L34.95 33.2 37.35 34.15 38.05 33.4 37.9 33.3 37.5 32.7 37.5 32.0 37.9 30.75 37.0 30.1 36.6 29.55 Q36.45 29.15 36.6 28.8 L37.0 28.2 Q37.3 27.95 37.7 27.95 L38.85 27.95 M30.65 38.7 L30.4 38.7 29.8 40.2 28.2 40.2 28.1 40.45 29.45 41.35 28.85 43.1 29.05 43.2 30.55 42.15 31.95 43.2 32.2 43.1 31.65 41.35 32.8 40.5 32.75 40.2 31.25 40.2 30.65 38.7 M37.7 35.5 L34.55 34.25 36.3 37.2 33.9 40.0 37.55 39.1 39.5 42.35 39.75 38.6 43.15 37.7 40.0 36.45 40.05 33.0 37.7 35.5 M39.65 29.15 L38.05 29.15 37.95 29.35 39.3 30.3 38.75 32.0 38.9 32.15 40.4 31.1 41.8 32.15 42.05 32.0 41.5 30.3 42.8 29.35 42.65 29.15 41.1 29.15 40.5 27.6 40.25 27.6 39.65 29.15" fill="#d1ae5a" fill-rule="evenodd" stroke="none"/>
      <path d="M42.2 29.75 L41.5 30.3 41.5 30.9 41.85 32.2 40.4 31.1 38.9 32.2 39.3 30.9 39.3 30.3 38.55 29.75 39.65 29.75 40.4 27.85 41.1 29.75 42.2 29.75 M40.0 36.45 L40.0 37.05 42.15 38.0 39.75 38.6 39.5 42.35 37.55 39.1 34.55 39.85 36.3 37.8 36.3 37.2 35.0 35.1 37.7 36.15 40.05 33.65 40.0 36.45 M28.7 40.85 L29.8 40.85 30.55 38.9 31.25 40.85 32.35 40.85 31.65 41.35 31.65 42.0 32.0 43.25 30.55 42.15 29.05 43.25 29.45 42.0 29.45 41.35 28.7 40.85" fill="#815815" fill-rule="evenodd" stroke="none"/>
      <path d="M38.55 29.75 L37.7 29.15 39.65 29.15 40.4 27.2 41.1 29.15 43.05 29.15 42.2 29.75 41.1 29.75 40.4 27.85 39.65 29.75 38.55 29.75 M41.5 30.3 L42.15 32.35 41.85 32.2 41.5 30.9 41.5 30.3 M38.9 32.2 L38.6 32.35 39.3 30.3 39.3 30.9 38.9 32.2 M40.0 36.45 L43.15 37.7 42.15 38.0 40.0 37.05 40.0 36.45 M34.55 39.85 L33.9 40.0 36.3 37.2 36.3 37.8 34.55 39.85 M35.0 35.1 L34.55 34.25 37.7 35.5 40.05 33.0 40.05 33.65 37.7 36.15 35.0 35.1 M32.35 40.85 L31.25 40.85 30.55 38.9 29.8 40.85 28.7 40.85 27.85 40.2 29.8 40.2 30.55 38.3 31.25 40.2 33.2 40.2 32.35 40.85 M29.45 41.35 L29.45 42.0 29.05 43.25 28.75 43.45 29.45 41.35 M32.0 43.25 L31.65 42.0 31.65 41.35 32.3 43.45 32.0 43.25" fill="#674512" fill-rule="evenodd" stroke="none"/>
      <path d="M10.25 33.45 L10.55 34.15 10.4 34.85 9.1 37.05 10.75 39.05 11.9 39.05 12.3 37.95 Q12.4 37.55 12.75 37.35 L13.4 37.15 14.1 37.35 14.5 37.9 14.95 39.05 16.1 39.05 16.8 39.25 17.2 39.85 17.2 40.6 16.8 41.2 15.9 41.8 16.3 43.1 16.3 43.8 16.25 44.0 14.05 44.0 13.4 43.6 12.8 44.0 10.65 44.0 10.55 43.85 10.55 43.15 10.95 41.8 10.1 41.2 9.75 41.2 6.95 40.45 5.45 43.0 4.95 43.45 4.7 43.5 3.45 42.75 3.3 42.45 3.1 39.5 0.55 38.85 0.35 38.8 0.0 36.9 0.4 36.65 2.8 35.7 2.75 33.15 2.5 33.3 1.85 33.55 Q1.45 33.55 1.15 33.35 L0.7 32.8 0.7 32.1 1.1 30.75 0.25 30.1 0.0 29.95 0.0 28.35 0.2 28.2 0.9 27.95 2.05 27.95 2.45 26.85 Q2.55 26.45 2.9 26.3 L3.55 26.05 Q3.9 26.05 4.25 26.3 L4.65 26.8 5.1 27.95 6.25 27.95 6.95 28.2 7.35 28.8 7.35 29.55 6.95 30.1 6.05 30.75 6.45 32.0 6.45 32.7 6.05 33.3 5.9 33.4 6.6 34.15 9.0 33.2 9.7 33.15 10.25 33.45 M3.7 27.6 L3.45 27.6 2.85 29.15 1.3 29.15 1.15 29.35 2.45 30.3 1.9 32.0 2.15 32.15 3.55 31.1 5.05 32.15 5.2 32.0 4.65 30.3 6.0 29.35 5.9 29.15 4.3 29.15 3.7 27.6 M4.2 38.6 L4.45 42.35 6.4 39.1 10.05 40.0 7.65 37.2 9.4 34.25 6.25 35.5 3.9 33.0 3.95 36.45 0.8 37.7 4.2 38.6 M11.15 40.5 L12.3 41.35 11.75 43.1 12.0 43.2 13.4 42.15 14.9 43.2 15.1 43.1 14.5 41.35 15.85 40.45 15.75 40.2 14.15 40.2 13.55 38.7 13.3 38.7 12.7 40.2 11.2 40.2 11.15 40.5" fill="#d1ae5a" fill-rule="evenodd" stroke="none"/>
      <path d="M1.75 29.75 L0.9 29.15 2.85 29.15 3.55 27.2 4.3 29.15 6.25 29.15 5.4 29.75 4.3 29.75 3.55 27.85 2.85 29.75 1.75 29.75 M4.65 30.3 L5.35 32.35 5.05 32.2 4.65 30.9 4.65 30.3 M2.1 32.2 L1.8 32.35 2.45 30.3 2.45 30.9 2.1 32.2 M3.9 33.65 L3.9 33.0 6.25 35.5 9.4 34.25 8.95 35.1 6.25 36.15 3.9 33.65 M7.65 37.2 L10.05 40.0 9.4 39.85 7.65 37.8 7.65 37.2 M1.8 38.0 L0.8 37.7 3.95 36.45 3.95 37.05 1.8 38.0 M11.6 40.85 L10.75 40.2 12.7 40.2 13.4 38.3 14.15 40.2 16.1 40.2 15.25 40.85 14.15 40.85 13.4 38.9 12.7 40.85 11.6 40.85 M14.5 41.35 L15.2 43.45 14.9 43.25 14.5 42.0 14.5 41.35 M11.95 43.25 L11.65 43.45 12.3 41.35 12.3 42.0 11.95 43.25" fill="#674512" fill-rule="evenodd" stroke="none"/>
      <path d="M1.75 29.75 L2.85 29.75 3.55 27.85 4.3 29.75 5.4 29.75 4.65 30.3 4.65 30.9 5.05 32.2 3.55 31.1 2.1 32.2 2.45 30.9 2.45 30.3 1.75 29.75 M3.95 36.45 L3.9 33.65 6.25 36.15 8.95 35.1 7.65 37.2 7.65 37.8 9.4 39.85 6.4 39.1 4.45 42.35 4.2 38.6 1.8 38.0 3.95 37.05 3.95 36.45 M11.6 40.85 L12.7 40.85 13.4 38.9 14.15 40.85 15.25 40.85 14.5 41.35 14.5 42.0 14.9 43.25 13.4 42.15 11.95 43.25 12.3 42.0 12.3 41.35 11.6 40.85" fill="#815815" fill-rule="evenodd" stroke="none"/>
    </g>
  </defs>
</svg>
