<?xml version="1.0" encoding="UTF-8" standalone="no"?>
<svg xmlns:xlink="http://www.w3.org/1999/xlink" height="66.825px" width="66.0px" xmlns="http://www.w3.org/2000/svg">
  <g transform="matrix(1.5, 0.0, 0.0, 1.5, 0.0, 0.075)">
    <use height="43.6" transform="matrix(1.0, 0.0, 0.0, 1.0, 0.15, -0.05)" width="43.65" xlink:href="#shape0"/>
    <use height="20.15" transform="matrix(1.1594, 0.0, 0.0, 1.1605, 6.2, 4.95)" width="28.2" xlink:href="#sprite0"/>
    <use height="41.2" transform="matrix(1.0, 0.0, 0.0, 1.0, 0.0, 3.3)" width="44.0" xlink:href="#shape2"/>
    <use height="8.6" transform="matrix(1.2077, 0.0, 0.0, 1.2065, 0.8085, 1.05)" width="35.05" xlink:href="#sprite1"/>
  </g>
  <defs>
    <g id="shape0" transform="matrix(1.0, 0.0, 0.0, 1.0, -0.15, 0.05)">
      <path d="M36.25 -0.05 Q39.4 -0.05 41.6 2.15 43.8 4.35 43.8 7.45 L43.8 36.05 Q43.8 39.15 41.6 41.35 39.4 43.55 36.25 43.55 L7.7 43.55 Q4.55 43.55 2.35 41.35 0.15 39.15 0.15 36.05 L0.15 7.45 Q0.15 4.35 2.35 2.15 4.55 -0.05 7.7 -0.05 L36.25 -0.05" fill="url(#gradient0)" fill-rule="evenodd" stroke="none"/>
      <path d="M35.25 8.9 Q40.45 14.15 40.45 21.5 40.45 28.9 35.25 34.2 30.05 39.4 22.65 39.4 15.2 39.4 10.0 34.2 4.8 28.9 4.8 21.5 4.8 14.15 10.0 8.9 15.3 3.65 22.65 3.65 30.05 3.65 35.25 8.9" fill="url(#gradient1)" fill-rule="evenodd" stroke="none"/>
      <path d="M35.65 10.6 Q29.3 16.3 26.35 14.45 23.5 12.6 23.05 4.7 L22.95 4.7 Q22.65 12.1 19.6 13.75 17.2 14.1 15.1 10.95 17.1 19.0 4.6 20.15 L4.6 20.85 Q10.2 21.8 12.6 24.3 15.7 27.45 11.1 35.05 18.7 27.2 22.45 35.15 23.5 37.3 24.45 40.4 L24.45 40.45 22.0 40.6 Q14.4 40.6 9.0 35.2 3.65 29.85 3.65 22.25 3.65 14.65 9.0 9.25 14.4 3.9 22.0 3.9 29.6 3.9 34.95 9.25 40.35 14.65 40.35 22.25 40.35 29.85 34.95 35.2 30.5 39.65 24.55 40.45 L24.55 40.4 Q23.95 34.05 26.95 31.3 29.8 28.6 37.2 31.75 L37.2 31.1 Q33.2 28.3 32.35 26.85 29.65 21.9 38.05 19.1 28.0 19.9 35.65 10.8 L35.65 10.6 M21.85 14.6 L21.9 14.65 21.95 18.5 19.2 21.4 Q18.4 22.35 18.0 23.7 L18.0 24.1 Q18.2 25.25 18.8 26.0 20.1 27.55 21.75 28.65 L22.1 28.9 22.15 29.55 22.15 29.6 22.15 30.1 22.15 30.15 22.15 31.05 21.1 29.2 19.8 28.35 16.8 25.7 16.45 25.4 Q15.85 24.85 15.85 23.8 17.1 21.0 18.1 19.75 L19.9 17.65 21.15 14.8 21.15 14.75 21.5 14.4 21.85 14.6 M23.05 14.25 L23.65 14.8 24.85 17.7 26.25 19.2 26.7 19.8 Q27.95 21.3 28.75 23.65 L28.75 23.7 28.85 24.2 28.7 24.7 25.95 27.55 23.7 29.15 22.65 31.0 22.6 31.0 22.6 30.5 22.6 30.25 22.6 29.15 22.6 29.1 22.6 28.9 22.65 28.9 25.7 26.35 Q26.55 25.45 26.75 23.95 L26.7 23.6 25.8 21.75 23.2 18.75 22.85 18.5 22.85 14.45 22.85 14.4 23.05 14.25 M24.95 24.5 L24.95 25.05 22.85 27.55 22.4 27.75 22.4 27.8 21.5 27.25 Q20.4 26.25 19.7 24.85 L19.65 24.5 19.7 24.5 19.7 24.35 Q20.55 22.7 21.85 21.5 L21.85 21.45 22.3 21.25 Q23.0 21.45 23.4 21.95 24.35 23.05 24.95 24.5 M28.85 23.15 L28.65 22.5 30.4 22.3 30.6 22.4 30.6 22.6 Q30.15 23.0 29.15 23.1 L28.85 23.15 M28.45 21.6 L28.4 21.65 27.45 20.3 27.35 19.7 27.55 19.5 27.6 19.5 30.65 18.75 31.0 19.05 31.1 19.65 31.1 20.4 31.1 20.45 Q30.85 21.55 30.2 21.85 L30.2 21.9 28.9 22.05 28.75 21.55 28.55 20.8 28.6 20.8 29.3 20.75 29.3 20.8 29.5 21.25 29.25 21.35 29.25 21.3 29.15 21.1 29.1 21.05 29.05 21.1 29.05 21.15 29.2 21.6 29.65 21.55 29.75 21.25 29.75 20.55 29.5 20.25 28.25 20.45 28.2 20.6 28.45 21.6 M29.25 24.25 L28.9 23.25 29.8 23.1 30.75 22.7 30.8 22.7 30.85 23.55 30.85 23.6 Q30.8 24.15 29.95 24.25 L29.25 24.25 M14.25 18.75 L17.3 19.5 17.5 19.7 17.55 19.7 17.45 20.3 16.5 21.65 16.45 21.6 16.7 20.6 16.65 20.45 15.35 20.25 15.15 20.55 15.15 21.25 15.25 21.55 15.7 21.6 15.85 21.15 15.85 21.1 15.75 21.05 15.65 21.3 15.65 21.35 15.35 21.25 15.55 20.8 15.55 20.75 16.3 20.8 16.35 20.8 16.15 21.55 16.0 22.05 14.7 21.9 14.7 21.85 Q14.0 21.55 13.8 20.45 L13.8 20.4 13.8 19.65 13.9 19.05 14.2 18.75 14.25 18.75 M14.0 22.4 L14.2 22.3 15.95 22.5 15.75 23.15 15.5 23.1 Q14.5 23.0 14.0 22.6 L14.0 22.4 M13.9 22.7 Q14.15 23.0 14.8 23.1 L15.7 23.25 15.35 24.25 14.7 24.25 Q13.8 24.15 13.75 23.6 L13.75 23.55 13.85 22.7 13.9 22.7" fill="#4a3355" fill-rule="evenodd" stroke="none"/>
    </g>
    <linearGradient gradientTransform="matrix(0.0, -0.0546, -0.0546, 0.0, 21.95, 18.1)" gradientUnits="userSpaceOnUse" id="gradient0" spreadMethod="pad" x1="-819.2" x2="819.2">
      <stop offset="0.011764705882352941" stop-color="#bf809f"/>
      <stop offset="1.0" stop-color="#543c7c"/>
    </linearGradient>
    <linearGradient gradientTransform="matrix(0.0, -0.0167, -0.0167, 0.0, 22.65, 18.15)" gradientUnits="userSpaceOnUse" id="gradient1" spreadMethod="pad" x1="-819.2" x2="819.2">
      <stop offset="0.011764705882352941" stop-color="#bcb9ae"/>
      <stop offset="1.0" stop-color="#9b5b79"/>
    </linearGradient>
    <g id="sprite0" transform="matrix(1.0, 0.0, 0.0, 1.0, 0.0, 0.0)">
      <use height="20.15" transform="matrix(1.0, 0.0, 0.0, 1.0, 0.0, 0.0)" width="28.2" xlink:href="#shape1"/>
    </g>
    <g id="shape1" transform="matrix(1.0, 0.0, 0.0, 1.0, 0.0, 0.0)">
      <path d="M27.4 18.95 Q26.2 20.8 23.4 19.8 19.6 18.5 17.35 14.05 14.8 9.1 9.75 7.4 4.1 5.65 0.0 10.3 1.0 6.85 3.7 4.15 7.2 0.65 11.9 0.05 L14.8 0.05 18.4 0.65 Q21.55 1.65 24.05 4.15 28.2 8.3 28.2 14.25 28.2 16.45 27.65 18.45 L27.4 18.95" fill="#ffffff" fill-opacity="0.19607843" fill-rule="evenodd" stroke="none"/>
      <path d="M27.4 18.95 Q26.2 20.8 23.4 19.8 19.6 18.5 17.35 14.05 14.8 9.1 9.75 7.4 4.1 5.65 0.0 10.3 1.0 6.85 3.7 4.15 7.2 0.65 11.9 0.05 L14.8 0.05 18.4 0.65 Q21.55 1.65 24.05 4.15 28.2 8.3 28.2 14.25 28.2 16.45 27.65 18.45 L27.4 18.95" fill="#ffffff" fill-opacity="0.19607843" fill-rule="evenodd" stroke="none"/>
    </g>
    <g id="shape2" transform="matrix(1.0, 0.0, 0.0, 1.0, 0.0, -3.3)">
      <path d="M43.9 20.85 L44.0 20.75 43.8 24.85 Q43.8 26.9 40.2 35.05 L40.05 34.85 42.0 30.2 Q43.8 25.7 43.8 24.3 L43.9 20.85 M42.7 38.9 L42.7 39.55 37.45 35.05 37.75 35.05 37.95 34.8 42.7 38.9 M42.2 40.9 L42.45 40.9 Q41.8 42.85 38.9 44.5 L39.35 43.6 39.75 43.4 39.75 43.25 Q41.5 42.2 42.2 40.9 M28.75 43.55 L36.7 43.15 37.45 42.4 38.0 42.4 36.7 43.75 Q34.95 44.65 26.9 43.95 L27.05 43.8 27.85 43.55 28.05 43.65 28.75 43.55 M34.35 42.2 L33.95 42.2 36.9 37.9 37.65 38.35 38.0 38.6 38.9 39.4 39.15 39.85 39.45 40.45 39.65 40.95 39.65 41.8 Q39.6 40.9 38.9 40.0 38.0 39.0 36.9 38.45 L34.35 42.2 M6.5 35.05 L1.25 39.55 1.25 38.9 6.0 34.8 6.25 35.05 6.5 35.05 M3.75 35.05 Q0.15 26.9 0.15 24.85 L0.0 20.75 0.05 20.85 0.15 24.3 Q0.15 25.7 1.95 30.2 L3.9 34.85 3.75 35.05 M1.75 40.9 Q2.45 42.2 4.2 43.25 L4.2 43.4 4.6 43.6 5.05 44.5 Q2.2 42.85 1.5 40.9 L1.75 40.9 M6.3 38.35 L7.05 37.9 10.0 42.2 9.6 42.2 7.05 38.45 Q5.95 39.0 5.05 40.0 4.4 40.9 4.3 41.8 L4.3 40.95 4.5 40.45 4.8 39.85 5.05 39.4 5.95 38.6 6.3 38.35 M6.5 42.4 L7.25 43.15 15.2 43.55 15.9 43.65 16.15 43.55 16.9 43.8 17.05 43.95 Q9.0 44.65 7.25 43.75 L5.95 42.4 6.5 42.4" fill="#0b000a" fill-rule="evenodd" stroke="none"/>
      <path d="M40.7 35.5 L41.2 36.05 42.0 32.55 42.0 32.45 42.15 32.3 41.45 36.15 41.35 36.2 40.75 36.15 40.7 35.7 40.7 35.5 M38.15 34.1 L38.95 34.0 Q40.95 31.9 42.7 25.8 L43.8 20.85 43.8 20.9 43.7 22.75 42.55 27.15 Q42.15 29.1 40.95 31.45 L39.8 33.5 Q39.25 34.35 38.0 34.4 L37.6 34.5 37.55 34.5 37.3 34.3 38.15 34.1 M39.75 43.25 L39.75 43.4 39.35 43.6 38.9 43.8 38.95 43.65 39.4 42.75 39.5 42.45 39.6 42.1 39.6 42.05 39.6 42.0 39.65 41.8 39.65 40.95 39.45 40.45 39.15 39.85 38.9 39.4 38.0 38.6 37.65 38.35 37.85 38.3 Q39.0 38.3 39.5 39.95 39.85 40.9 39.85 41.8 L39.75 43.25 M37.15 35.75 L37.2 35.8 36.55 36.7 34.65 39.15 Q31.9 42.85 29.2 42.85 L28.4 42.8 28.6 42.75 28.85 42.65 29.85 42.3 30.9 41.95 Q32.55 41.4 35.0 38.5 L37.15 35.75 M0.15 20.9 L0.15 20.85 1.25 25.8 Q3.0 31.9 5.0 34.0 L5.85 34.1 6.65 34.3 6.4 34.5 6.35 34.5 5.95 34.4 Q4.75 34.35 4.15 33.5 L3.0 31.45 Q1.85 29.1 1.45 27.15 L0.25 22.75 0.15 20.9 M1.95 32.45 L1.95 32.55 2.75 36.05 3.3 35.5 3.3 35.7 3.2 36.15 2.6 36.2 2.55 36.15 1.85 32.3 1.95 32.45 M15.55 42.8 L14.75 42.85 Q12.1 42.85 9.3 39.15 L7.4 36.7 6.75 35.8 6.8 35.75 8.95 38.5 Q11.4 41.4 13.05 41.95 L14.1 42.3 15.1 42.65 15.4 42.75 15.55 42.8 M4.2 43.25 L4.1 41.8 Q4.1 40.9 4.45 39.95 4.95 38.3 6.1 38.3 L6.3 38.35 5.95 38.6 5.05 39.4 4.8 39.85 4.5 40.45 4.3 40.95 4.3 41.8 4.4 42.0 4.4 42.05 4.4 42.1 4.45 42.45 4.55 42.75 5.0 43.65 5.05 43.8 4.6 43.6 4.2 43.4 4.2 43.25" fill="#c8a6c1" fill-rule="evenodd" stroke="none"/>
      <path d="M40.2 35.05 L40.7 35.5 40.7 35.7 40.75 36.15 41.35 36.2 41.45 36.15 42.15 32.3 42.0 32.45 42.55 30.45 42.7 38.9 37.95 34.8 37.6 34.5 38.0 34.4 Q39.25 34.35 39.8 33.5 L40.95 31.45 Q42.15 29.1 42.55 27.15 L43.7 22.75 43.8 20.9 44.0 20.1 43.9 20.85 43.8 24.3 Q43.8 25.7 42.0 30.2 L40.05 34.85 40.2 35.05 M37.65 34.2 L38.15 34.1 37.3 34.3 37.65 34.2 M42.55 40.15 L42.2 40.9 Q41.5 42.2 39.75 43.25 L39.85 41.8 Q39.85 40.9 39.5 39.95 39.0 38.3 37.85 38.3 L37.65 38.35 36.9 37.9 33.95 42.2 34.35 42.2 35.0 42.2 38.25 41.55 38.05 41.75 37.45 42.4 36.7 43.15 28.75 43.55 27.2 43.4 26.9 43.3 26.85 43.3 27.15 43.2 27.25 43.2 28.4 42.8 29.2 42.85 Q31.9 42.85 34.65 39.15 L36.55 36.7 37.2 35.8 37.15 35.75 42.45 40.15 42.55 40.15 M5.85 34.1 L6.3 34.2 6.65 34.3 5.85 34.1 M1.25 38.9 L1.45 30.45 1.95 32.45 1.85 32.3 2.55 36.15 2.6 36.2 3.2 36.15 3.3 35.7 3.3 35.5 3.75 35.05 3.9 34.85 1.95 30.2 Q0.15 25.7 0.15 24.3 L0.05 20.85 0.0 20.1 0.15 20.9 0.25 22.75 1.45 27.15 Q1.85 29.1 3.0 31.45 L4.15 33.5 Q4.75 34.35 5.95 34.4 L6.35 34.5 6.0 34.8 1.25 38.9 M6.8 35.75 L6.75 35.8 7.4 36.7 9.3 39.15 Q12.1 42.85 14.75 42.85 L15.55 42.8 16.7 43.2 16.85 43.2 17.1 43.3 17.05 43.3 16.75 43.4 15.2 43.55 7.25 43.15 6.5 42.4 5.9 41.75 5.7 41.55 8.95 42.2 9.6 42.2 10.0 42.2 7.05 37.9 6.3 38.35 6.1 38.3 Q4.95 38.3 4.45 39.95 4.1 40.9 4.1 41.8 L4.2 43.25 Q2.45 42.2 1.75 40.9 L1.45 40.15 1.5 40.15 6.8 35.75" fill="#4a3355" fill-rule="evenodd" stroke="none"/>
      <path d="M37.45 35.05 L37.4 34.95 37.3 34.85 37.25 34.3 37.65 34.2 37.3 34.3 37.55 34.5 37.6 34.5 37.95 34.8 37.75 35.05 37.45 35.05 M42.45 40.9 L42.2 40.9 42.55 40.15 42.65 40.65 42.55 40.9 42.45 40.9 M27.25 43.2 L27.15 43.2 27.2 43.15 27.25 43.2 M26.9 43.3 L27.2 43.4 28.75 43.55 28.05 43.65 27.85 43.55 27.05 43.8 26.9 43.95 26.9 43.3 M37.45 42.4 L38.05 41.75 38.25 41.9 38.25 42.35 38.0 42.4 37.45 42.4 M6.3 34.2 L6.7 34.3 6.65 34.85 6.6 34.95 6.5 35.05 6.25 35.05 6.0 34.8 6.35 34.5 6.4 34.5 6.65 34.3 6.3 34.2 M1.45 40.15 L1.75 40.9 1.5 40.9 1.45 40.9 1.3 40.65 Q1.3 40.25 1.45 40.15 M5.9 41.75 L6.5 42.4 5.95 42.4 5.7 42.35 5.7 41.9 Q5.75 41.75 5.9 41.75 M15.2 43.55 L16.75 43.4 17.05 43.3 17.05 43.95 16.9 43.8 16.15 43.55 15.9 43.65 15.2 43.55 M16.85 43.2 L16.7 43.2 16.75 43.15 16.85 43.2" fill="#000000" fill-rule="evenodd" stroke="none"/>
      <path d="M33.9 10.6 Q28.95 5.75 22.05 5.7 15.2 5.75 10.3 10.6 5.45 15.4 5.4 22.3 5.45 29.25 10.3 34.1 15.2 38.95 22.05 38.95 28.95 38.95 33.9 34.1 38.7 29.25 38.7 22.3 38.7 15.4 33.9 10.6 M41.05 22.3 Q41.05 30.15 35.45 35.65 29.95 41.35 22.05 41.35 14.15 41.35 8.65 35.65 3.1 30.15 3.1 22.3 3.1 14.35 8.65 8.85 14.15 3.3 22.05 3.3 29.95 3.3 35.45 8.85 41.05 14.35 41.05 22.3" fill="url(#gradient2)" fill-rule="evenodd" stroke="none"/>
    </g>
    <linearGradient gradientTransform="matrix(0.0, 0.0226, -0.0232, 0.0, 22.05, 22.5)" gradientUnits="userSpaceOnUse" id="gradient2" spreadMethod="pad" x1="-819.2" x2="819.2">
      <stop offset="0.0" stop-color="#3d2945"/>
      <stop offset="1.0" stop-color="#cabad6"/>
    </linearGradient>
    <g id="sprite1" transform="matrix(1.0, 0.0, 0.0, 1.0, 0.2, 0.0)">
      <use height="8.6" transform="matrix(1.0, 0.0, 0.0, 1.0, -0.2, 0.0)" width="35.05" xlink:href="#shape3"/>
    </g>
    <g id="shape3" transform="matrix(1.0, 0.0, 0.0, 1.0, 0.2, 0.0)">
      <path d="M34.85 8.6 Q34.8 6.95 34.4 5.7 33.0 1.3 27.2 1.3 L7.45 1.3 Q0.05 1.3 -0.2 8.5 L-0.2 7.65 Q-0.2 0.0 7.45 0.0 L27.2 0.0 Q33.0 0.0 34.4 4.4 34.85 5.8 34.85 7.65 L34.85 8.6" fill="#e7deda" fill-rule="evenodd" stroke="none"/>
    </g>
  </defs>
</svg>
