<?xml version="1.0" encoding="UTF-8" standalone="no"?>
<svg xmlns:xlink="http://www.w3.org/1999/xlink" height="65.85px" width="66.0px" xmlns="http://www.w3.org/2000/svg">
  <g transform="matrix(1.5, 0.0, 0.0, 1.5, 0.0, 0.0)">
    <use height="43.9" transform="matrix(1.0, 0.0, 0.0, 1.0, 0.0, 0.0)" width="44.0" xlink:href="#shape0"/>
    <use height="8.6" transform="matrix(1.2077, 0.0, 0.0, 1.2064, 0.5085, 0.75)" width="35.05" xlink:href="#sprite0"/>
    <use height="20.15" transform="matrix(1.1548, 0.0, 0.0, 1.1536, 6.3, 5.65)" width="28.2" xlink:href="#sprite1"/>
    <use height="22.3" transform="matrix(1.1548, 0.0, 0.0, 1.1536, 0.6, 18.2)" width="36.1" xlink:href="#sprite2"/>
  </g>
  <defs>
    <g id="shape0" transform="matrix(1.0, 0.0, 0.0, 1.0, 0.0, 0.0)">
      <path d="M21.8 42.6 Q13.45 42.6 7.55 36.65 1.65 30.75 1.65 22.4 1.65 14.1 7.55 8.15 13.45 2.25 21.8 2.25 30.15 2.25 36.05 8.15 42.0 14.1 42.0 22.4 42.0 30.75 36.05 36.65 30.15 42.6 21.8 42.6" fill="url(#gradient0)" fill-rule="evenodd" stroke="none"/>
      <path d="M34.0 9.9 L27.6 16.75 32.95 8.95 34.0 9.9 M26.0 5.4 L22.55 18.65 24.05 5.1 26.0 5.4 M22.05 4.95 L21.25 21.05 19.15 5.15 21.95 4.95 22.05 4.95 M26.45 13.55 L29.5 6.65 31.45 7.8 24.25 18.8 25.75 15.25 26.45 13.55 M23.0 20.65 L22.7 20.75 22.4 20.65 22.15 20.25 22.3 19.95 22.55 19.85 22.9 20.0 23.1 20.3 23.0 20.65 M22.1 23.3 Q22.65 23.25 23.2 23.7 L23.6 24.75 23.35 25.65 Q23.0 26.05 22.55 26.0 21.95 26.0 21.55 25.6 21.1 25.15 21.0 24.55 20.9 24.05 21.3 23.65 21.6 23.25 22.1 23.3 M25.05 24.2 L25.45 24.4 25.65 24.75 25.55 25.2 25.2 25.3 24.8 25.15 24.6 24.75 24.75 24.4 25.05 24.2 M28.15 21.4 L28.35 21.8 28.25 22.1 27.9 22.25 27.6 22.05 27.45 21.75 Q27.35 21.55 27.5 21.4 L27.85 21.3 28.15 21.4 M27.65 19.5 L24.15 22.2 35.0 10.95 36.3 12.65 27.35 19.7 27.65 19.5 M39.15 22.15 L39.15 23.15 25.1 25.9 38.9 19.1 39.15 22.15 M38.45 17.1 L28.55 22.45 37.85 15.45 38.45 17.1 M18.05 5.4 L18.95 14.4 16.65 5.75 18.05 5.4 M14.55 6.6 L18.8 19.85 12.4 7.8 14.55 6.6 M6.05 15.5 L15.1 21.95 5.3 17.8 Q5.55 16.6 6.05 15.5 M4.75 22.15 Q4.75 20.9 4.9 19.75 L18.3 24.45 4.85 23.9 4.75 22.15 M16.4 16.35 L16.65 16.7 16.55 17.15 16.2 17.3 15.8 17.1 15.55 16.65 15.7 16.3 15.95 16.1 Q16.25 16.15 16.4 16.35 M20.0 18.9 L20.0 19.15 19.95 19.3 19.9 19.4 19.7 19.25 19.6 19.2 19.6 18.9 19.85 18.95 20.0 18.9 M18.55 20.9 Q18.55 19.95 19.45 20.1 20.3 20.2 20.3 21.0 20.3 21.8 19.45 21.8 18.75 21.8 18.6 21.35 L18.55 20.9 M16.85 22.05 L17.2 21.95 17.55 22.1 17.7 22.4 17.55 22.75 Q17.5 22.95 17.3 22.85 L16.95 22.75 16.85 22.4 16.85 22.05 M8.55 11.35 L14.85 19.4 7.25 13.2 8.55 11.35 M19.0 25.4 L18.9 25.25 18.9 24.95 19.2 24.9 19.35 25.0 19.5 25.2 19.4 25.4 19.25 25.55 19.0 25.4 M15.7 28.4 L15.25 28.1 15.2 27.85 Q15.2 27.45 15.7 27.45 16.2 27.45 16.2 27.9 16.2 28.4 15.7 28.4 M19.3 27.75 Q19.3 26.55 20.45 26.55 21.6 26.55 21.6 27.75 21.6 28.8 20.55 28.8 19.65 28.8 19.4 28.3 L19.3 27.75 M10.85 35.3 L15.4 31.8 11.5 35.85 10.85 35.3 M16.55 34.05 L14.35 37.65 12.85 36.8 18.75 30.35 17.25 32.85 16.55 34.05 M5.4 27.05 L17.9 25.3 6.3 29.4 5.4 27.05 M9.75 34.3 L9.0 33.45 18.85 27.9 9.95 34.5 9.75 34.3 M6.95 30.65 L14.45 27.75 7.5 31.5 6.95 30.65 M17.45 38.8 L20.45 30.45 19.15 39.15 17.45 38.8 M36.95 30.65 L25.55 26.65 38.45 27.2 Q37.9 29.0 36.95 30.65 M32.3 35.9 L29.0 31.7 33.2 35.15 32.3 35.9 M34.85 33.5 L28.75 29.15 35.95 32.2 34.85 33.5 M26.4 29.85 Q25.95 29.85 25.75 29.45 L25.6 29.0 Q25.6 28.3 26.4 28.2 27.15 28.1 27.15 29.0 27.1 29.85 26.4 29.85 M23.2 27.7 L23.3 27.9 23.2 28.1 23.0 28.2 Q22.85 28.25 22.75 28.1 L22.7 27.95 22.65 27.65 22.95 27.6 23.2 27.7 M28.15 38.25 L24.2 29.6 30.05 37.4 28.15 38.25 M21.0 39.35 L21.75 28.75 23.7 39.3 21.95 39.35 21.0 39.35 M24.9 39.15 L24.05 33.45 26.1 38.9 24.9 39.15" fill="#2e5d6b" fill-rule="evenodd" stroke="none"/>
      <path d="M34.25 9.75 Q29.15 4.65 22.0 4.65 14.85 4.65 9.75 9.75 4.7 14.75 4.7 21.95 4.7 29.1 9.75 34.2 14.85 39.25 22.0 39.25 29.25 39.25 34.25 34.2 39.25 29.1 39.25 21.95 39.25 14.75 34.25 9.75 M2.2 2.25 Q4.45 0.0 7.55 0.0 L36.4 0.0 Q39.55 0.0 41.75 2.25 44.0 4.5 44.0 7.6 L44.0 36.35 Q44.0 39.45 41.75 41.7 39.55 43.9 36.4 43.9 L7.55 43.9 Q4.45 43.9 2.2 41.7 0.0 39.45 0.0 36.35 L0.0 7.6 Q0.0 4.5 2.2 2.25" fill="url(#gradient1)" fill-rule="evenodd" stroke="none"/>
      <path d="M21.95 5.55 Q15.0 5.6 10.25 10.45 5.3 15.3 5.3 22.15 5.3 29.05 10.25 33.95 15.0 38.75 21.95 38.75 28.75 38.75 33.65 33.95 38.6 29.05 38.6 22.15 38.6 15.3 33.65 10.45 28.8 5.6 21.95 5.55 M8.45 8.75 Q14.05 3.15 21.95 3.15 29.8 3.15 35.35 8.75 40.95 14.3 40.95 22.15 40.95 30.05 35.35 35.6 29.8 41.1 21.95 41.1 14.05 41.1 8.45 35.6 2.9 30.05 2.9 22.15 2.9 14.3 8.45 8.75" fill="url(#gradient2)" fill-rule="evenodd" stroke="none"/>
    </g>
    <linearGradient gradientTransform="matrix(0.0, -0.0189, -0.0189, 0.0, 21.8, 18.6)" gradientUnits="userSpaceOnUse" id="gradient0" spreadMethod="pad" x1="-819.2" x2="819.2">
      <stop offset="0.011764705882352941" stop-color="#b3f9e4"/>
      <stop offset="1.0" stop-color="#5bbbff"/>
    </linearGradient>
    <linearGradient gradientTransform="matrix(0.0, -0.0315, -0.044, 0.0, 20.85, 18.55)" gradientUnits="userSpaceOnUse" id="gradient1" spreadMethod="pad" x1="-819.2" x2="819.2">
      <stop offset="0.011764705882352941" stop-color="#87b6b2"/>
      <stop offset="0.9764705882352941" stop-color="#4f7e86"/>
    </linearGradient>
    <linearGradient gradientTransform="matrix(0.0, -0.0168, -0.0168, 0.0, 21.95, 26.75)" gradientUnits="userSpaceOnUse" id="gradient2" spreadMethod="pad" x1="-819.2" x2="819.2">
      <stop offset="0.011764705882352941" stop-color="#c4dbdf"/>
      <stop offset="0.9764705882352941" stop-color="#35414c"/>
    </linearGradient>
    <g id="sprite0" transform="matrix(1.0, 0.0, 0.0, 1.0, 0.2, 0.0)">
      <use height="8.6" transform="matrix(1.0, 0.0, 0.0, 1.0, -0.2, 0.0)" width="35.05" xlink:href="#shape1"/>
    </g>
    <g id="shape1" transform="matrix(1.0, 0.0, 0.0, 1.0, 0.2, 0.0)">
      <path d="M34.85 8.6 Q34.8 6.95 34.4 5.7 33.0 1.3 27.2 1.3 L7.45 1.3 Q0.05 1.3 -0.2 8.5 L-0.2 7.65 Q-0.2 0.0 7.45 0.0 L27.2 0.0 Q33.0 0.0 34.4 4.4 34.85 5.8 34.85 7.65 L34.85 8.6" fill="#e7deda" fill-rule="evenodd" stroke="none"/>
    </g>
    <g id="sprite1" transform="matrix(1.0, 0.0, 0.0, 1.0, 0.0, 0.0)">
      <use height="20.15" transform="matrix(1.0, 0.0, 0.0, 1.0, 0.0, 0.0)" width="28.2" xlink:href="#shape2"/>
    </g>
    <g id="shape2" transform="matrix(1.0, 0.0, 0.0, 1.0, 0.0, 0.0)">
      <path d="M27.65 18.45 L27.4 18.95 Q26.2 20.8 23.4 19.8 19.6 18.5 17.35 14.05 14.8 9.1 9.75 7.4 4.1 5.65 0.0 10.3 1.0 6.85 3.7 4.15 7.2 0.65 11.9 0.05 L14.8 0.05 18.4 0.65 Q21.55 1.65 24.05 4.15 28.2 8.3 28.2 14.25 28.2 16.45 27.65 18.45" fill="#ffffff" fill-opacity="0.19607843" fill-rule="evenodd" stroke="none"/>
    </g>
    <g id="sprite2" transform="matrix(1.0, 0.0, 0.0, 1.0, 0.0, 0.0)">
      <use height="20.7" transform="matrix(1.0458, 0.0, 0.0, 1.0458, 0.0, 0.65)" width="7.3" xlink:href="#sprite3"/>
      <use height="20.85" transform="matrix(1.0, 0.0, 0.0, 1.0, 0.55, 0.25)" width="7.3" xlink:href="#shape4"/>
      <use height="12.1" transform="matrix(1.0458, 0.0, 0.0, 1.0458, 1.2977, 8.0)" width="5.7" xlink:href="#sprite4"/>
      <use height="18.7" transform="matrix(1.032, 0.0, 0.0, 1.032, 0.45, 0.0)" width="5.7" xlink:href="#sprite5"/>
      <use height="7.0" transform="matrix(1.032, 0.0, 0.0, 1.032, 2.15, 12.1984)" width="3.35" xlink:href="#sprite6"/>
      <use height="19.65" transform="matrix(1.0, 0.0, 0.0, 1.0, 1.0, 0.6)" width="6.15" xlink:href="#shape8"/>
      <use height="11.6" transform="matrix(1.032, 0.0, 0.0, 1.032, 0.4, 9.85)" width="6.9" xlink:href="#sprite7"/>
      <use height="11.1" transform="matrix(1.032, 0.0, 0.0, 1.032, 0.6, 9.85)" width="6.45" xlink:href="#sprite8"/>
      <use height="11.8" transform="matrix(1.032, 0.0, 0.0, 1.032, 0.4, 8.75)" width="6.5" xlink:href="#sprite9"/>
      <use height="18.7" transform="matrix(1.032, 0.0, 0.0, 1.032, 30.15, 0.0)" width="5.7" xlink:href="#sprite10"/>
      <use height="7.0" transform="matrix(1.032, 0.0, 0.0, 1.032, 30.85, 12.1984)" width="3.35" xlink:href="#sprite11"/>
      <use height="19.7" transform="matrix(1.0, 0.0, 0.0, 1.0, 29.4, 0.6)" width="6.1" xlink:href="#shape14"/>
      <use height="11.6" transform="matrix(1.032, 0.0, 0.0, 1.032, 28.9484, 9.85)" width="6.9" xlink:href="#sprite12"/>
      <use height="11.1" transform="matrix(1.032, 0.0, 0.0, 1.032, 29.3016, 9.85)" width="6.35" xlink:href="#sprite13"/>
      <use height="11.8" transform="matrix(1.032, 0.0, 0.0, 1.032, 29.4516, 8.75)" width="6.45" xlink:href="#sprite14"/>
    </g>
    <g id="sprite3" transform="matrix(1.0, 0.0, 0.0, 1.0, 0.0, 0.0)">
      <use height="20.7" transform="matrix(1.0, 0.0, 0.0, 1.0, 0.0, 0.0)" width="7.3" xlink:href="#shape3"/>
    </g>
    <g id="shape3" transform="matrix(1.0, 0.0, 0.0, 1.0, 0.0, 0.0)">
      <path d="M1.5 3.3 Q1.25 4.9 1.35 6.95 1.55 10.95 3.35 13.0 L6.75 16.9 Q7.8 18.5 6.9 19.6 5.25 21.5 2.85 20.1 -0.1 18.35 0.0 11.65 0.1 5.2 1.1 1.95 1.6 0.35 2.05 0.0 L1.5 3.3" fill="#6c6a85" fill-opacity="0.69803923" fill-rule="evenodd" stroke="none"/>
    </g>
    <g id="shape4" transform="matrix(1.0, 0.0, 0.0, 1.0, -0.55, -0.25)">
      <path d="M1.9 2.75 L1.85 6.55 Q2.2 10.75 4.0 12.95 L7.3 17.15 Q8.4 18.9 7.35 20.05 5.6 21.95 3.15 20.35 0.15 18.4 0.6 11.4 1.0 4.7 1.65 1.85 L2.25 0.25 1.9 2.75" fill="url(#gradient3)" fill-rule="evenodd" stroke="none"/>
    </g>
    <linearGradient gradientTransform="matrix(0.0, -0.0091, -0.0091, 0.0, 4.15, 13.05)" gradientUnits="userSpaceOnUse" id="gradient3" spreadMethod="pad" x1="-819.2" x2="819.2">
      <stop offset="0.011764705882352941" stop-color="#dbf7ff" stop-opacity="0.69803923"/>
      <stop offset="0.9764705882352941" stop-color="#384759" stop-opacity="0.69803923"/>
    </linearGradient>
    <g id="sprite4" transform="matrix(1.0, 0.0, 0.0, 1.0, 0.05, 0.0)">
      <use height="12.1" transform="matrix(1.0, 0.0, 0.0, 1.0, -0.05, 0.0)" width="5.7" xlink:href="#shape5"/>
    </g>
    <g id="shape5" transform="matrix(1.0, 0.0, 0.0, 1.0, 0.05, 0.0)">
      <path d="M1.45 10.9 Q3.25 11.3 3.25 9.75 3.25 8.85 2.15 7.35 L0.45 4.75 Q-0.3 2.9 0.1 0.0 0.15 0.9 0.5 2.05 1.15 4.35 2.45 5.8 L5.15 8.65 Q6.15 9.9 5.1 11.0 2.85 13.25 1.45 10.9" fill="#f2f2f2" fill-opacity="0.69803923" fill-rule="evenodd" stroke="none"/>
    </g>
    <g id="sprite5" transform="matrix(1.0, 0.0, 0.0, 1.0, 0.0, 0.0)">
      <use height="18.7" transform="matrix(1.0, 0.0, 0.0, 1.0, 0.0, 0.0)" width="5.7" xlink:href="#shape6"/>
    </g>
    <g id="shape6" transform="matrix(1.0, 0.0, 0.0, 1.0, 0.0, 0.0)">
      <path d="M1.65 11.9 Q1.55 10.8 0.55 8.3 -0.4 5.85 0.25 2.65 0.6 1.1 1.1 0.0 L0.5 2.55 Q0.05 5.55 0.95 8.0 1.6 9.8 3.55 11.35 5.25 12.65 5.55 14.75 5.9 17.2 5.3 18.15 L4.6 18.55 Q3.45 19.2 2.4 16.85 1.55 14.9 1.55 13.5 L1.65 11.9" fill="#ffffff" fill-opacity="0.69803923" fill-rule="evenodd" stroke="none"/>
    </g>
    <g id="sprite6" transform="matrix(1.0, 0.0, 0.0, 1.0, 0.0, 0.05)">
      <use height="7.0" transform="matrix(1.0, 0.0, 0.0, 1.0, 0.0, -0.05)" width="3.35" xlink:href="#shape7"/>
    </g>
    <g id="shape7" transform="matrix(1.0, 0.0, 0.0, 1.0, 0.0, 0.05)">
      <path d="M2.3 5.7 Q2.05 4.1 0.65 2.6 -0.4 1.45 0.2 0.4 0.8 -0.6 2.05 0.6 3.35 1.8 3.35 4.25 3.35 6.7 2.05 6.95 2.9 6.45 2.3 5.7" fill="#ffffff" fill-opacity="0.69803923" fill-rule="evenodd" stroke="none"/>
    </g>
    <g id="shape8" transform="matrix(1.0, 0.0, 0.0, 1.0, -1.0, -0.6)">
      <path d="M2.85 14.0 L2.6 13.35 Q2.55 12.6 3.45 12.6 4.75 12.6 4.55 14.9 L3.85 13.7 Q3.05 12.8 2.85 14.0" fill="#ffffff" fill-opacity="0.69803923" fill-rule="evenodd" stroke="none"/>
      <path d="M2.5 8.6 L4.15 10.65 6.1 13.05 Q7.5 15.4 7.0 18.3 L6.4 19.45 Q5.4 20.5 3.35 20.2 L4.85 19.9 Q6.35 19.1 6.2 16.35 6.05 14.05 3.95 11.7 1.65 9.2 1.3 7.2 0.85 4.5 1.1 2.3 L1.45 0.6 1.4 3.85 Q1.5 7.3 2.5 8.6" fill="#bbded6" fill-opacity="0.69803923" fill-rule="evenodd" stroke="none"/>
    </g>
    <g id="sprite7" transform="matrix(1.0, 0.0, 0.0, 1.0, 0.0, 0.0)">
      <use height="11.6" transform="matrix(1.0, 0.0, 0.0, 1.0, 0.0, 0.0)" width="6.9" xlink:href="#shape9"/>
    </g>
    <g id="shape9" transform="matrix(1.0, 0.0, 0.0, 1.0, 0.0, 0.0)">
      <path d="M0.0 4.95 Q0.0 2.4 0.35 0.0 0.5 4.25 0.85 6.75 1.1 8.3 2.25 9.5 L3.35 10.4 Q5.95 10.25 6.3 7.5 6.45 6.1 6.1 4.75 7.75 7.6 6.05 10.0 4.4 12.4 2.0 11.15 0.05 10.1 0.0 4.95" fill="#bbded6" fill-opacity="0.69803923" fill-rule="evenodd" stroke="none"/>
    </g>
    <g id="sprite8" transform="matrix(1.0, 0.0, 0.0, 1.0, 0.0, 0.0)">
      <use height="11.1" transform="matrix(1.0, 0.0, 0.0, 1.0, 0.0, 0.0)" width="6.45" xlink:href="#shape10"/>
    </g>
    <g id="shape10" transform="matrix(1.0, 0.0, 0.0, 1.0, 0.0, 0.0)">
      <path d="M0.45 5.0 Q1.15 10.05 3.15 10.4 L4.6 10.1 Q6.1 9.4 6.3 7.2 L6.3 6.25 Q6.6 7.3 6.35 8.45 5.85 10.7 3.3 11.1 2.3 11.25 1.35 9.9 -0.45 7.25 0.15 0.0 0.1 2.45 0.45 5.0" fill="#bbded6" fill-opacity="0.69803923" fill-rule="evenodd" stroke="none"/>
    </g>
    <g id="sprite9" transform="matrix(1.0, 0.0, 0.0, 1.0, 0.0, 0.0)">
      <use height="11.8" transform="matrix(1.0, 0.0, 0.0, 1.0, 0.0, 0.0)" width="6.5" xlink:href="#shape11"/>
    </g>
    <g id="shape11" transform="matrix(1.0, 0.0, 0.0, 1.0, 0.0, 0.0)">
      <path d="M0.0 0.0 Q0.4 0.55 0.4 1.45 0.4 4.65 0.65 6.45 1.25 10.9 3.1 11.35 L4.2 11.4 Q5.4 11.25 6.1 10.2 L6.5 8.75 6.45 9.5 Q6.15 10.85 5.0 11.45 4.5 11.8 3.8 11.8 2.45 11.75 1.4 10.05 0.4 7.35 0.3 3.6 L0.25 0.8 0.0 0.0" fill="#306b5e" fill-opacity="0.69803923" fill-rule="evenodd" stroke="none"/>
    </g>
    <g id="sprite10" transform="matrix(1.0, 0.0, 0.0, 1.0, 0.0, 0.0)">
      <use height="18.7" transform="matrix(1.0, 0.0, 0.0, 1.0, 0.0, 0.0)" width="5.7" xlink:href="#shape12"/>
    </g>
    <g id="shape12" transform="matrix(1.0, 0.0, 0.0, 1.0, 0.0, 0.0)">
      <path d="M4.05 11.9 L4.15 13.5 Q4.15 14.9 3.3 16.85 2.25 19.2 1.1 18.55 0.75 18.6 0.4 18.15 -0.2 17.2 0.15 14.75 0.45 12.65 2.15 11.35 4.1 9.8 4.75 8.0 5.65 5.55 5.2 2.55 5.0 1.05 4.6 0.0 L5.45 2.65 Q6.1 5.85 5.15 8.3 4.15 10.8 4.05 11.9" fill="#ffffff" fill-opacity="0.69803923" fill-rule="evenodd" stroke="none"/>
    </g>
    <g id="sprite11" transform="matrix(1.0, 0.0, 0.0, 1.0, 0.0, 0.05)">
      <use height="7.0" transform="matrix(1.0, 0.0, 0.0, 1.0, 0.0, -0.05)" width="3.35" xlink:href="#shape13"/>
    </g>
    <g id="shape13" transform="matrix(1.0, 0.0, 0.0, 1.0, 0.0, 0.05)">
      <path d="M1.05 5.7 Q0.45 6.45 1.3 6.95 0.0 6.7 0.0 4.25 0.0 1.8 1.3 0.6 2.55 -0.6 3.15 0.4 3.75 1.45 2.7 2.6 1.3 4.1 1.05 5.7" fill="#ffffff" fill-opacity="0.69803923" fill-rule="evenodd" stroke="none"/>
    </g>
    <g id="shape14" transform="matrix(1.0, 0.0, 0.0, 1.0, -29.4, -0.6)">
      <path d="M33.7 14.0 Q33.5 12.8 32.7 13.7 L31.95 14.9 Q31.9 14.35 32.0 13.75 32.25 12.6 33.15 12.6 34.5 12.6 33.7 14.0" fill="#ffffff" fill-opacity="0.69803923" fill-rule="evenodd" stroke="none"/>
      <path d="M34.05 8.6 Q35.0 7.3 35.1 3.85 L35.05 0.6 35.4 2.3 Q35.7 4.5 35.2 7.2 34.85 9.2 32.6 11.7 30.45 14.05 30.3 16.35 30.15 19.1 31.65 19.9 L32.9 20.25 Q31.1 20.45 30.1 19.45 L29.55 18.3 Q29.0 15.4 30.4 13.05 L32.35 10.65 34.05 8.6" fill="#bbded6" fill-opacity="0.69803923" fill-rule="evenodd" stroke="none"/>
    </g>
    <g id="sprite12" transform="matrix(1.0, 0.0, 0.0, 1.0, 0.05, 0.0)">
      <use height="11.6" transform="matrix(1.0, 0.0, 0.0, 1.0, -0.05, 0.0)" width="6.9" xlink:href="#shape15"/>
    </g>
    <g id="shape15" transform="matrix(1.0, 0.0, 0.0, 1.0, 0.05, 0.0)">
      <path d="M0.8 10.0 Q-0.9 7.6 0.75 4.75 0.4 6.1 0.55 7.5 0.9 10.25 3.5 10.4 L4.6 9.5 Q5.75 8.3 6.0 6.75 6.35 4.25 6.5 0.0 6.9 2.4 6.85 4.95 6.8 10.1 4.85 11.15 2.45 12.4 0.8 10.0" fill="#bbded6" fill-opacity="0.69803923" fill-rule="evenodd" stroke="none"/>
    </g>
    <g id="sprite13" transform="matrix(1.0, 0.0, 0.0, 1.0, -0.05, 0.0)">
      <use height="11.1" transform="matrix(1.0, 0.0, 0.0, 1.0, 0.05, 0.0)" width="6.35" xlink:href="#shape16"/>
    </g>
    <g id="shape16" transform="matrix(1.0, 0.0, 0.0, 1.0, -0.05, 0.0)">
      <path d="M5.95 5.0 Q6.3 2.45 6.25 0.0 6.85 7.25 5.05 9.9 4.15 11.25 3.1 11.1 0.55 10.7 0.05 8.45 L0.1 6.25 0.1 7.2 Q0.3 9.4 1.8 10.1 L3.25 10.4 Q5.25 10.05 5.95 5.0" fill="#bbded6" fill-opacity="0.69803923" fill-rule="evenodd" stroke="none"/>
    </g>
    <g id="sprite14" transform="matrix(1.0, 0.0, 0.0, 1.0, -0.05, 0.0)">
      <use height="11.8" transform="matrix(1.0, 0.0, 0.0, 1.0, 0.05, 0.0)" width="6.45" xlink:href="#shape17"/>
    </g>
    <g id="shape17" transform="matrix(1.0, 0.0, 0.0, 1.0, -0.05, 0.0)">
      <path d="M6.5 0.0 L6.3 0.8 6.2 3.6 Q6.1 7.35 5.1 10.05 4.05 11.75 2.7 11.8 2.0 11.8 1.5 11.45 0.4 10.85 0.1 9.5 L0.05 8.95 0.4 10.2 Q1.1 11.25 2.3 11.4 L3.4 11.35 Q5.25 10.9 5.85 6.45 L6.1 1.45 Q6.1 0.55 6.5 0.0" fill="#306b5e" fill-opacity="0.69803923" fill-rule="evenodd" stroke="none"/>
    </g>
  </defs>
</svg>
