<?xml version="1.0" encoding="UTF-8" standalone="no"?>
<svg xmlns:xlink="http://www.w3.org/1999/xlink" height="44.55px" width="44.0px" xmlns="http://www.w3.org/2000/svg">
  <g transform="matrix(1.0, 0.0, 0.0, 1.0, 0.2, 0.15)">
    <use height="43.6" transform="matrix(1.0, 0.0, 0.0, 1.0, -0.05, -0.15)" width="43.65" xlink:href="#shape0"/>
    <use height="20.15" transform="matrix(1.1594, 0.0, 0.0, 1.1605, 6.0, 4.85)" width="28.2" xlink:href="#sprite0"/>
    <use height="41.2" transform="matrix(1.0, 0.0, 0.0, 1.0, -0.2, 3.2)" width="44.0" xlink:href="#shape2"/>
    <use height="8.6" transform="matrix(1.2077, 0.0, 0.0, 1.2065, 0.6085, 0.95)" width="35.05" xlink:href="#sprite1"/>
  </g>
  <defs>
    <g id="shape0" transform="matrix(1.0, 0.0, 0.0, 1.0, 0.05, 0.15)">
      <path d="M36.05 -0.15 Q39.2 -0.15 41.4 2.05 43.6 4.25 43.6 7.35 L43.6 35.95 Q43.6 39.05 41.4 41.25 39.2 43.45 36.05 43.45 L7.5 43.45 Q4.35 43.45 2.15 41.25 -0.05 39.05 -0.05 35.95 L-0.05 7.35 Q-0.05 4.25 2.15 2.05 4.35 -0.15 7.5 -0.15 L36.05 -0.15" fill="url(#gradient0)" fill-rule="evenodd" stroke="none"/>
      <path d="M39.65 21.75 Q39.65 29.15 34.45 34.45 29.25 39.65 21.85 39.65 14.4 39.65 9.2 34.45 4.0 29.15 4.0 21.75 4.0 14.4 9.2 9.15 14.5 3.9 21.85 3.9 29.25 3.9 34.45 9.15 39.65 14.4 39.65 21.75" fill="url(#gradient1)" fill-rule="evenodd" stroke="none"/>
      <path d="M27.35 5.6 L28.35 5.9 28.45 5.9 Q35.65 8.8 38.35 16.25 39.05 18.15 39.15 20.65 L39.25 22.8 39.15 22.8 39.15 23.05 39.15 23.15 39.15 23.25 Q38.45 29.1 35.35 32.6 L35.25 32.6 33.55 32.95 33.4 32.95 32.75 32.95 32.65 32.95 25.3 32.7 25.2 32.7 24.55 32.6 Q22.45 32.05 20.9 31.05 18.25 29.4 18.2 25.15 L19.1 22.8 19.15 22.7 20.45 21.4 20.45 21.35 Q22.45 20.05 25.3 20.7 26.65 21.0 27.45 21.9 L27.75 22.15 27.8 22.25 Q28.25 22.55 28.5 23.1 L28.6 23.15 30.05 22.4 30.15 22.35 30.5 22.15 30.6 22.15 30.65 22.05 30.75 22.0 Q29.8 20.1 28.0 19.0 L27.95 18.95 27.55 18.75 Q26.75 18.3 25.75 18.15 21.7 17.35 19.15 19.2 L19.05 19.25 18.7 19.55 18.6 19.55 16.75 21.65 16.75 21.8 16.55 22.0 16.55 22.15 16.5 22.25 Q15.8 23.5 15.55 25.15 L15.55 25.6 15.55 25.75 15.55 26.75 15.55 26.85 Q16.1 30.25 18.2 32.05 L18.2 32.15 Q21.15 35.0 26.35 35.5 L26.45 35.5 27.35 35.6 27.35 35.65 32.2 35.4 32.3 35.4 29.95 35.85 29.8 35.85 29.8 35.9 28.6 36.0 28.45 36.0 Q20.55 35.95 16.85 31.7 L16.85 31.6 16.45 31.25 16.4 31.15 Q15.15 29.45 14.75 26.85 L14.75 26.75 14.75 26.5 14.7 26.5 14.6 24.85 14.75 24.85 14.75 24.7 14.75 24.25 Q15.25 22.2 16.35 20.7 L16.45 20.65 16.45 20.55 16.45 20.45 16.75 20.2 16.75 20.1 16.75 20.0 Q18.25 18.3 20.5 17.4 L20.6 17.4 20.6 17.3 21.25 17.2 21.4 17.15 Q23.5 16.6 25.85 17.1 L25.9 17.15 26.7 17.4 26.8 17.4 26.85 17.4 Q27.6 16.35 28.0 15.05 L27.9 15.0 Q26.35 14.45 24.4 14.25 L24.3 14.25 22.95 14.25 22.85 14.25 Q17.2 15.05 14.4 18.65 L14.4 18.75 14.35 18.85 13.95 19.3 13.95 19.4 Q12.4 21.3 11.95 24.25 L11.95 24.5 11.95 24.6 11.95 25.85 11.95 25.95 Q12.6 32.3 16.75 35.1 L16.75 35.2 Q20.25 37.65 26.0 37.9 L26.1 37.9 Q27.0 37.75 27.3 38.1 L27.15 38.1 26.0 38.1 26.0 38.2 24.85 38.1 24.75 38.1 Q19.6 37.8 16.45 35.5 L16.35 35.5 13.4 32.7 13.35 32.6 Q12.25 31.1 11.6 29.25 L11.55 29.1 11.45 28.65 11.45 28.55 Q10.85 26.6 11.0 23.8 11.65 20.65 13.25 18.5 L13.25 18.4 14.0 17.65 14.05 17.65 14.05 17.5 14.35 17.3 14.4 17.3 14.4 17.15 Q17.4 13.8 23.4 13.4 L23.4 13.35 23.4 13.25 23.4 10.85 23.3 10.85 22.3 10.85 22.15 10.85 21.8 10.85 21.7 10.85 Q16.95 11.65 13.85 14.15 L13.8 14.2 13.15 14.8 13.15 14.9 11.95 16.05 11.9 16.15 11.45 16.6 11.45 16.7 11.25 16.85 11.2 16.95 10.8 17.5 10.75 17.6 Q8.6 20.55 8.1 25.05 8.2 30.6 10.85 33.5 L10.9 33.6 11.0 33.65 Q12.65 35.75 15.05 37.1 L14.95 37.1 Q12.35 36.0 10.55 34.05 L10.45 34.05 Q6.05 30.25 5.25 22.8 L5.2 22.8 5.15 20.8 5.25 20.8 5.25 20.65 5.25 20.45 5.25 20.3 5.25 19.9 Q6.25 14.0 9.45 10.45 L9.55 10.4 9.55 10.3 9.95 10.0 10.0 9.95 10.0 9.85 10.4 9.55 10.45 9.5 10.45 9.4 10.95 9.0 11.0 8.95 11.0 8.85 12.1 8.05 12.15 7.95 Q15.55 5.5 20.7 4.8 L20.8 4.8 21.5 4.8 21.6 4.8 21.7 4.8 21.7 4.7 22.75 4.75 22.75 4.8 22.85 4.8 23.5 4.8 23.65 4.8 27.35 5.5 27.35 5.6" fill="#4a3355" fill-rule="evenodd" stroke="none"/>
    </g>
    <linearGradient gradientTransform="matrix(0.0, -0.0546, -0.0546, 0.0, 21.75, 18.0)" gradientUnits="userSpaceOnUse" id="gradient0" spreadMethod="pad" x1="-819.2" x2="819.2">
      <stop offset="0.011764705882352941" stop-color="#bf809f"/>
      <stop offset="1.0" stop-color="#543c7c"/>
    </linearGradient>
    <linearGradient gradientTransform="matrix(0.0, -0.0167, -0.0167, 0.0, 21.85, 18.4)" gradientUnits="userSpaceOnUse" id="gradient1" spreadMethod="pad" x1="-819.2" x2="819.2">
      <stop offset="0.011764705882352941" stop-color="#bcb9ae"/>
      <stop offset="1.0" stop-color="#9b5b79"/>
    </linearGradient>
    <g id="sprite0" transform="matrix(1.0, 0.0, 0.0, 1.0, 0.0, 0.0)">
      <use height="20.15" transform="matrix(1.0, 0.0, 0.0, 1.0, 0.0, 0.0)" width="28.2" xlink:href="#shape1"/>
    </g>
    <g id="shape1" transform="matrix(1.0, 0.0, 0.0, 1.0, 0.0, 0.0)">
      <path d="M27.4 18.95 Q26.2 20.8 23.4 19.8 19.6 18.5 17.35 14.05 14.8 9.1 9.75 7.4 4.1 5.65 0.0 10.3 1.0 6.85 3.7 4.15 7.2 0.65 11.9 0.05 L14.8 0.05 18.4 0.65 Q21.55 1.65 24.05 4.15 28.2 8.3 28.2 14.25 28.2 16.45 27.65 18.45 L27.4 18.95" fill="#ffffff" fill-opacity="0.19607843" fill-rule="evenodd" stroke="none"/>
      <path d="M27.4 18.95 Q26.2 20.8 23.4 19.8 19.6 18.5 17.35 14.05 14.8 9.1 9.75 7.4 4.1 5.65 0.0 10.3 1.0 6.85 3.7 4.15 7.2 0.65 11.9 0.05 L14.8 0.05 18.4 0.65 Q21.55 1.65 24.05 4.15 28.2 8.3 28.2 14.25 28.2 16.45 27.65 18.45 L27.4 18.95" fill="#ffffff" fill-opacity="0.19607843" fill-rule="evenodd" stroke="none"/>
    </g>
    <g id="shape2" transform="matrix(1.0, 0.0, 0.0, 1.0, 0.2, -3.2)">
      <path d="M43.6 20.8 L43.8 20.0 43.7 20.75 43.6 24.2 Q43.6 25.6 41.8 30.1 L39.85 34.75 40.0 34.95 40.5 35.4 40.5 35.6 40.55 36.05 41.15 36.1 41.25 36.05 41.95 32.2 41.8 32.35 42.35 30.35 42.5 38.8 37.75 34.7 37.4 34.4 37.8 34.3 Q39.05 34.25 39.6 33.4 L40.75 31.35 Q41.95 29.0 42.35 27.05 L43.5 22.65 43.6 20.8 M37.45 34.1 L37.95 34.0 37.1 34.2 37.45 34.1 M42.35 40.05 L42.0 40.8 Q41.3 42.1 39.55 43.15 L39.65 41.7 39.3 39.85 Q38.8 38.2 37.65 38.2 L37.45 38.25 Q37.1 37.95 36.7 37.8 L33.75 42.1 34.15 42.1 34.8 42.1 38.05 41.45 37.85 41.65 37.25 42.3 36.5 43.05 28.55 43.45 27.0 43.3 26.7 43.2 26.65 43.2 26.95 43.1 27.05 43.1 28.2 42.7 29.0 42.75 Q31.7 42.75 34.45 39.05 L36.35 36.6 37.0 35.7 36.95 35.65 42.25 40.05 42.35 40.05 M-0.05 20.8 L0.05 22.65 1.25 27.05 Q1.65 29.0 2.8 31.35 L3.95 33.4 Q4.55 34.25 5.75 34.3 L6.15 34.4 5.8 34.7 1.05 38.8 1.25 30.35 1.75 32.35 1.65 32.2 2.35 36.05 2.4 36.1 3.0 36.05 3.1 35.6 3.1 35.4 3.55 34.95 3.7 34.75 1.75 30.1 Q-0.05 25.6 -0.05 24.2 L-0.15 20.75 -0.2 20.0 -0.05 20.8 M6.45 34.2 L5.65 34.0 6.1 34.1 6.45 34.2 M6.6 35.65 L6.55 35.7 7.2 36.6 9.1 39.05 Q11.9 42.75 14.55 42.75 L15.35 42.7 16.5 43.1 16.65 43.1 16.9 43.2 16.85 43.2 16.55 43.3 15.0 43.45 7.05 43.05 6.3 42.3 5.7 41.65 5.5 41.45 8.75 42.1 9.4 42.1 9.8 42.1 6.85 37.8 Q6.45 37.95 6.1 38.25 L5.9 38.2 Q4.75 38.2 4.25 39.85 3.9 40.8 3.9 41.7 L4.0 43.15 Q2.25 42.1 1.55 40.8 L1.25 40.05 1.3 40.05 6.6 35.65" fill="#4a3355" fill-rule="evenodd" stroke="none"/>
      <path d="M43.7 20.75 L43.8 20.65 43.6 24.75 Q43.6 26.8 40.0 34.95 L39.85 34.75 41.8 30.1 Q43.6 25.6 43.6 24.2 L43.7 20.75 M42.5 38.8 L42.5 39.45 37.25 34.95 37.55 34.95 37.75 34.7 42.5 38.8 M42.0 40.8 L42.25 40.8 Q41.6 42.75 38.7 44.4 L39.15 43.5 39.55 43.3 39.55 43.15 Q41.3 42.1 42.0 40.8 M28.55 43.45 L36.5 43.05 37.25 42.3 37.8 42.3 36.5 43.65 Q34.75 44.55 26.7 43.85 L26.85 43.7 27.65 43.45 27.85 43.55 28.55 43.45 M34.15 42.1 L33.75 42.1 36.7 37.8 Q37.1 37.95 37.45 38.25 L37.8 38.5 38.7 39.3 38.95 39.75 39.25 40.35 39.45 40.85 39.45 41.7 Q39.4 40.8 38.7 39.9 37.8 38.9 36.7 38.35 L34.15 42.1 M-0.15 20.75 L-0.05 24.2 Q-0.05 25.6 1.75 30.1 L3.7 34.75 3.55 34.95 Q-0.05 26.8 -0.05 24.75 L-0.2 20.65 -0.15 20.75 M1.05 38.8 L5.8 34.7 6.05 34.95 6.3 34.95 1.05 39.45 1.05 38.8 M1.55 40.8 Q2.25 42.1 4.0 43.15 L4.0 43.3 4.4 43.5 4.85 44.4 Q2.0 42.75 1.3 40.8 L1.55 40.8 M6.1 38.25 Q6.45 37.95 6.85 37.8 L9.8 42.1 9.4 42.1 6.85 38.35 Q5.75 38.9 4.85 39.9 4.2 40.8 4.1 41.7 L4.1 40.85 4.3 40.35 4.6 39.75 4.85 39.3 5.75 38.5 Q5.9 38.3 6.1 38.25 M6.3 42.3 L7.05 43.05 15.0 43.45 15.7 43.55 15.95 43.45 16.7 43.7 16.85 43.85 Q8.8 44.55 7.05 43.65 L5.75 42.3 6.3 42.3" fill="#0b000a" fill-rule="evenodd" stroke="none"/>
      <path d="M40.5 35.4 L41.0 35.95 41.8 32.45 41.8 32.35 41.95 32.2 41.25 36.05 41.15 36.1 40.55 36.05 40.5 35.6 40.5 35.4 M37.95 34.0 L38.75 33.9 Q40.75 31.8 42.5 25.7 L43.6 20.75 43.6 20.8 43.5 22.65 42.35 27.05 Q41.95 29.0 40.75 31.35 L39.6 33.4 Q39.05 34.25 37.8 34.3 L37.4 34.4 37.35 34.4 37.1 34.2 37.95 34.0 M39.55 43.15 L39.55 43.3 39.15 43.5 38.7 43.7 38.75 43.55 39.2 42.65 39.3 42.35 39.4 42.0 39.4 41.95 39.4 41.9 39.45 41.7 39.45 40.85 39.25 40.35 38.95 39.75 38.7 39.3 37.8 38.5 37.45 38.25 37.65 38.2 Q38.8 38.2 39.3 39.85 L39.65 41.7 39.55 43.15 M36.95 35.65 L37.0 35.7 36.35 36.6 34.45 39.05 Q31.7 42.75 29.0 42.75 L28.2 42.7 28.4 42.65 28.65 42.55 29.65 42.2 30.7 41.85 Q32.35 41.3 34.8 38.4 L36.95 35.65 M6.15 34.4 L5.75 34.3 Q4.55 34.25 3.95 33.4 L2.8 31.35 Q1.65 29.0 1.25 27.05 L0.05 22.65 -0.05 20.8 -0.05 20.75 1.05 25.7 Q2.8 31.8 4.8 33.9 L5.65 34.0 6.45 34.2 6.2 34.4 6.15 34.4 M3.1 35.4 L3.1 35.6 3.0 36.05 2.4 36.1 2.35 36.05 1.65 32.2 1.75 32.35 1.75 32.45 2.55 35.95 3.1 35.4 M15.35 42.7 L14.55 42.75 Q11.9 42.75 9.1 39.05 L7.2 36.6 6.55 35.7 6.6 35.65 8.75 38.4 Q11.2 41.3 12.85 41.85 L13.9 42.2 14.9 42.55 15.2 42.65 15.35 42.7 M4.0 43.15 L3.9 41.7 Q3.9 40.8 4.25 39.85 4.75 38.2 5.9 38.2 L6.1 38.25 Q5.9 38.3 5.75 38.5 L4.85 39.3 4.6 39.75 4.3 40.35 4.1 40.85 4.1 41.7 4.2 41.9 4.2 41.95 4.2 42.0 4.25 42.35 4.35 42.65 4.8 43.55 4.85 43.7 4.4 43.5 4.0 43.3 4.0 43.15" fill="#c8a6c1" fill-rule="evenodd" stroke="none"/>
      <path d="M37.25 34.95 L37.2 34.85 37.1 34.75 37.05 34.2 37.45 34.1 37.1 34.2 37.35 34.4 37.4 34.4 37.75 34.7 37.55 34.95 37.25 34.95 M42.25 40.8 L42.0 40.8 42.35 40.05 42.45 40.55 42.35 40.8 42.25 40.8 M27.05 43.1 L26.95 43.1 27.0 43.05 27.05 43.1 M26.7 43.2 L27.0 43.3 28.55 43.45 27.85 43.55 27.65 43.45 26.85 43.7 26.7 43.85 26.7 43.2 M37.25 42.3 L37.85 41.65 38.05 41.8 38.05 42.25 37.8 42.3 37.25 42.3 M5.8 34.7 L6.15 34.4 6.2 34.4 6.45 34.2 6.1 34.1 6.5 34.2 6.45 34.75 6.4 34.85 6.3 34.95 6.05 34.95 5.8 34.7 M1.25 40.05 L1.55 40.8 1.3 40.8 1.25 40.8 1.1 40.55 Q1.1 40.15 1.25 40.05 M5.7 41.65 L6.3 42.3 5.75 42.3 5.5 42.25 5.5 41.8 5.7 41.65 M15.0 43.45 L16.55 43.3 16.85 43.2 16.85 43.85 16.7 43.7 15.95 43.45 15.7 43.55 15.0 43.45 M16.65 43.1 L16.5 43.1 16.55 43.05 16.65 43.1" fill="#000000" fill-rule="evenodd" stroke="none"/>
      <path d="M21.85 5.6 Q15.0 5.65 10.1 10.5 5.25 15.3 5.2 22.2 5.25 29.15 10.1 34.0 15.0 38.85 21.85 38.85 28.75 38.85 33.7 34.0 38.5 29.15 38.5 22.2 38.5 15.3 33.7 10.5 28.75 5.65 21.85 5.6 M35.25 8.75 Q40.85 14.25 40.85 22.2 40.85 30.05 35.25 35.55 29.75 41.25 21.85 41.25 13.95 41.25 8.45 35.55 2.9 30.05 2.9 22.2 2.9 14.25 8.45 8.75 13.95 3.2 21.85 3.2 29.75 3.2 35.25 8.75" fill="url(#gradient2)" fill-rule="evenodd" stroke="none"/>
    </g>
    <linearGradient gradientTransform="matrix(0.0, 0.0226, -0.0232, 0.0, 21.85, 22.45)" gradientUnits="userSpaceOnUse" id="gradient2" spreadMethod="pad" x1="-819.2" x2="819.2">
      <stop offset="0.0" stop-color="#3d2945"/>
      <stop offset="1.0" stop-color="#cabad6"/>
    </linearGradient>
    <g id="sprite1" transform="matrix(1.0, 0.0, 0.0, 1.0, 0.2, 0.0)">
      <use height="8.6" transform="matrix(1.0, 0.0, 0.0, 1.0, -0.2, 0.0)" width="35.05" xlink:href="#shape3"/>
    </g>
    <g id="shape3" transform="matrix(1.0, 0.0, 0.0, 1.0, 0.2, 0.0)">
      <path d="M34.85 8.6 Q34.8 6.95 34.4 5.7 33.0 1.3 27.2 1.3 L7.45 1.3 Q0.05 1.3 -0.2 8.5 L-0.2 7.65 Q-0.2 0.0 7.45 0.0 L27.2 0.0 Q33.0 0.0 34.4 4.4 34.85 5.8 34.85 7.65 L34.85 8.6" fill="#e7deda" fill-rule="evenodd" stroke="none"/>
    </g>
  </defs>
</svg>
