<?xml version="1.0" encoding="UTF-8" standalone="no"?>
<svg xmlns:xlink="http://www.w3.org/1999/xlink" height="66.0px" width="66.0px" xmlns="http://www.w3.org/2000/svg">
  <g transform="matrix(1.5, 0.0, 0.0, 1.5, -0.075, -0.15)">
    <use height="37.1" transform="matrix(1.0, 0.0, 0.0, 1.0, 3.45, 3.6)" width="37.2" xlink:href="#shape0"/>
    <use height="20.15" transform="matrix(1.1594, 0.0, 0.0, 1.1594, 5.85, 5.35)" width="28.2" xlink:href="#sprite0"/>
    <use height="44.0" transform="matrix(1.0, 0.0, 0.0, 1.0, 0.05, 0.1)" width="44.0" xlink:href="#shape2"/>
    <use height="8.6" transform="matrix(1.2125, 0.0, 0.0, 1.2125, 0.9075, 1.05)" width="35.05" xlink:href="#sprite1"/>
    <use height="40.5" transform="matrix(1.0, 0.0, 0.0, 1.0, 0.05, 3.6)" width="43.95" xlink:href="#shape4"/>
    <use height="20.15" transform="matrix(1.1594, 0.0, 0.0, 1.1594, 5.85, 5.35)" width="28.2" xlink:href="#sprite0"/>
    <use height="44.0" transform="matrix(1.0, 0.0, 0.0, 1.0, 0.05, 0.1)" width="44.0" xlink:href="#shape5"/>
    <use height="8.6" transform="matrix(1.2125, 0.0, 0.0, 1.2125, 0.9075, 1.05)" width="35.05" xlink:href="#sprite1"/>
    <use height="17.95" transform="matrix(1.0, 0.0, 0.0, 1.0, 0.05, 26.15)" width="43.95" xlink:href="#shape6"/>
  </g>
  <defs>
    <g id="shape0" transform="matrix(1.0, 0.0, 0.0, 1.0, -3.45, -3.6)">
      <path d="M3.45 22.15 Q3.45 14.45 8.9 9.05 14.35 3.6 22.1 3.6 29.8 3.6 35.25 9.05 40.65 14.5 40.65 22.15 40.65 29.85 35.25 35.3 29.8 40.7 22.1 40.7 14.35 40.7 8.9 35.3 3.45 29.85 3.45 22.15" fill="url(#gradient0)" fill-rule="evenodd" stroke="none"/>
      <path d="M21.95 11.55 L21.95 11.8 Q28.85 11.8 35.85 17.9 26.7 20.05 25.95 22.2 L31.9 22.2 Q27.1 25.0 26.0 27.5 L29.75 27.5 Q25.75 28.85 24.3 32.05 L26.8 32.05 Q23.3 33.25 21.95 35.9 L21.75 36.1 21.75 35.65 Q20.4 33.05 16.9 31.85 L19.4 31.85 Q17.95 28.7 13.95 27.35 L17.7 27.35 Q16.6 24.8 11.75 22.05 L17.75 22.05 Q17.0 19.85 7.85 17.7 14.9 11.5 21.95 11.55" fill="#664411" fill-rule="evenodd" stroke="none"/>
    </g>
    <linearGradient gradientTransform="matrix(0.0, -0.017, -0.0173, 0.0, 21.05, 27.05)" gradientUnits="userSpaceOnUse" id="gradient0" spreadMethod="pad" x1="-819.2" x2="819.2">
      <stop offset="0.011764705882352941" stop-color="#dad67d"/>
      <stop offset="1.0" stop-color="#cfa451"/>
    </linearGradient>
    <g id="sprite0" transform="matrix(1.0, 0.0, 0.0, 1.0, 0.0, 0.0)">
      <use height="20.15" transform="matrix(1.0, 0.0, 0.0, 1.0, 0.0, 0.0)" width="28.2" xlink:href="#shape1"/>
    </g>
    <g id="shape1" transform="matrix(1.0, 0.0, 0.0, 1.0, 0.0, 0.0)">
      <path d="M27.65 18.45 L27.4 18.95 Q26.2 20.8 23.4 19.8 19.6 18.5 17.35 14.05 14.8 9.1 9.75 7.4 4.1 5.65 0.0 10.3 1.0 6.85 3.7 4.15 7.2 0.65 11.9 0.05 L14.8 0.05 18.4 0.65 Q21.55 1.65 24.05 4.15 28.2 8.3 28.2 14.25 28.2 16.45 27.65 18.45" fill="#ffffff" fill-opacity="0.19607843" fill-rule="evenodd" stroke="none"/>
    </g>
    <g id="shape2" transform="matrix(1.0, 0.0, 0.0, 1.0, -0.05, -0.1)">
      <path d="M41.85 2.4 Q44.05 4.6 44.05 7.7 L44.05 36.5 Q44.05 39.7 41.85 41.9 39.65 44.1 36.45 44.1 L7.65 44.1 Q4.5 44.1 2.3 41.9 0.05 39.7 0.05 36.5 L0.05 7.7 Q0.05 4.6 2.3 2.4 4.5 0.1 7.65 0.1 L36.45 0.1 Q39.6 0.1 41.85 2.4 M40.9 22.15 Q40.9 14.2 35.3 8.7 29.8 3.15 21.9 3.15 13.95 3.15 8.45 8.7 2.9 14.2 2.9 22.15 2.9 30.05 8.45 35.55 13.95 41.2 21.9 41.2 29.8 41.2 35.3 35.55 40.9 30.05 40.9 22.15" fill="url(#gradient1)" fill-rule="evenodd" stroke="none"/>
      <path d="M40.9 22.15 Q40.9 30.05 35.3 35.55 29.8 41.2 21.9 41.2 13.95 41.2 8.45 35.55 2.9 30.05 2.9 22.15 2.9 14.2 8.45 8.7 13.95 3.15 21.9 3.15 29.8 3.15 35.3 8.7 40.9 14.2 40.9 22.15 M33.75 10.45 Q28.8 5.55 21.9 5.5 15.0 5.55 10.15 10.45 5.25 15.25 5.2 22.15 5.25 29.1 10.15 33.95 15.0 38.85 21.9 38.85 28.8 38.85 33.75 33.95 38.55 29.1 38.55 22.15 38.55 15.25 33.75 10.45" fill="url(#gradient2)" fill-rule="evenodd" stroke="none"/>
    </g>
    <linearGradient gradientTransform="matrix(0.0, -0.0258, -0.0551, 0.0, 21.9, 21.95)" gradientUnits="userSpaceOnUse" id="gradient1" spreadMethod="pad" x1="-819.2" x2="819.2">
      <stop offset="0.011764705882352941" stop-color="#c79829"/>
      <stop offset="1.0" stop-color="#be7d1e"/>
    </linearGradient>
    <linearGradient gradientTransform="matrix(1.0E-4, 0.0223, -0.0232, 1.0E-4, 21.95, 22.4)" gradientUnits="userSpaceOnUse" id="gradient2" spreadMethod="pad" x1="-819.2" x2="819.2">
      <stop offset="0.011764705882352941" stop-color="#8d5910"/>
      <stop offset="1.0" stop-color="#d9d597"/>
    </linearGradient>
    <g id="sprite1" transform="matrix(1.0, 0.0, 0.0, 1.0, 0.2, 0.0)">
      <use height="8.6" transform="matrix(1.0, 0.0, 0.0, 1.0, -0.2, 0.0)" width="35.05" xlink:href="#shape3"/>
    </g>
    <g id="shape3" transform="matrix(1.0, 0.0, 0.0, 1.0, 0.2, 0.0)">
      <path d="M34.4 4.4 Q34.85 5.8 34.85 7.65 L34.85 8.6 Q34.8 6.95 34.4 5.7 33.0 1.3 27.2 1.3 L7.45 1.3 Q0.05 1.3 -0.2 8.5 L-0.2 7.65 Q-0.2 0.0 7.45 0.0 L27.2 0.0 Q33.0 0.0 34.4 4.4" fill="#e7deda" fill-rule="evenodd" stroke="none"/>
    </g>
    <g id="shape4" transform="matrix(1.0, 0.0, 0.0, 1.0, -0.05, -3.6)">
      <path d="M38.9 28.05 L39.35 26.9 39.75 26.4 Q40.1 26.15 40.45 26.15 L41.1 26.4 41.55 26.95 41.95 28.05 43.1 28.05 Q43.55 28.05 43.8 28.3 L44.0 28.45 44.0 30.05 43.75 30.2 42.9 30.85 43.3 32.2 43.3 32.9 42.85 33.45 42.15 33.65 41.5 33.4 41.25 33.25 41.2 35.8 43.6 36.75 44.0 37.0 43.65 38.9 43.45 38.95 40.9 39.6 40.7 42.55 40.55 42.85 39.3 43.6 39.05 43.55 38.55 43.1 37.05 40.55 34.25 41.3 33.9 41.3 33.05 41.9 33.45 43.25 33.45 43.95 33.35 44.1 31.2 44.1 30.6 43.7 29.95 44.1 27.75 44.1 27.7 43.9 27.7 43.2 28.1 41.9 27.2 41.3 26.8 40.7 Q26.65 40.3 26.8 39.95 L27.2 39.35 27.9 39.15 29.05 39.15 29.5 38.0 29.9 37.45 30.6 37.25 31.25 37.45 31.7 38.05 32.1 39.15 33.25 39.15 34.9 37.15 33.6 34.95 33.45 34.25 33.75 33.55 Q33.95 33.3 34.3 33.25 L35.0 33.3 37.4 34.25 38.1 33.5 37.95 33.4 37.55 32.8 37.55 32.1 37.95 30.85 37.05 30.2 36.65 29.65 Q36.5 29.25 36.65 28.9 L37.05 28.3 Q37.35 28.05 37.75 28.05 L38.9 28.05 M30.7 38.8 L30.45 38.8 29.85 40.3 28.25 40.3 28.15 40.55 29.5 41.45 28.9 43.2 29.1 43.3 30.6 42.25 32.0 43.3 32.25 43.2 31.7 41.45 32.85 40.6 32.8 40.3 31.3 40.3 30.7 38.8 M37.75 35.6 L34.6 34.35 36.35 37.3 33.95 40.1 37.6 39.2 39.55 42.45 39.8 38.7 43.2 37.8 40.05 36.55 40.1 33.1 37.75 35.6 M39.7 29.25 L38.1 29.25 38.0 29.45 39.35 30.4 38.8 32.1 38.95 32.25 40.45 31.2 41.85 32.25 42.1 32.1 41.55 30.4 42.85 29.45 42.7 29.25 41.15 29.25 40.55 27.7 40.3 27.7 39.7 29.25" fill="url(#gradient3)" fill-rule="evenodd" stroke="none"/>
      <path d="M42.25 29.85 L41.55 30.4 41.55 31.0 41.9 32.3 40.45 31.2 38.95 32.3 39.35 31.0 39.35 30.4 38.6 29.85 39.7 29.85 40.45 27.95 41.15 29.85 42.25 29.85 M40.05 36.55 L40.05 37.15 42.2 38.1 39.8 38.7 39.55 42.45 37.6 39.2 34.6 39.95 36.35 37.9 36.35 37.3 35.05 35.2 37.75 36.25 40.1 33.75 40.05 36.55 M32.4 40.95 L31.7 41.45 31.7 42.1 32.05 43.35 30.6 42.25 29.1 43.35 29.5 42.1 29.5 41.45 28.75 40.95 29.85 40.95 30.6 39.0 31.3 40.95 32.4 40.95" fill="#815815" fill-rule="evenodd" stroke="none"/>
      <path d="M38.6 29.85 L37.75 29.25 39.7 29.25 40.45 27.3 41.15 29.25 43.1 29.25 42.25 29.85 41.15 29.85 40.45 27.95 39.7 29.85 38.6 29.85 M41.55 30.4 L42.2 32.45 41.9 32.3 41.55 31.0 41.55 30.4 M38.95 32.3 L38.65 32.45 39.35 30.4 39.35 31.0 38.95 32.3 M40.05 36.55 L43.2 37.8 42.2 38.1 40.05 37.15 40.05 36.55 M34.6 39.95 L33.95 40.1 36.35 37.3 36.35 37.9 34.6 39.95 M35.05 35.2 L34.6 34.35 37.75 35.6 40.1 33.1 40.1 33.75 37.75 36.25 35.05 35.2 M28.75 40.95 L27.9 40.3 29.85 40.3 30.6 38.4 31.3 40.3 33.25 40.3 32.4 40.95 31.3 40.95 30.6 39.0 29.85 40.95 28.75 40.95 M31.7 41.45 L32.35 43.55 32.05 43.35 31.7 42.1 31.7 41.45 M29.1 43.35 L28.8 43.55 29.5 41.45 29.5 42.1 29.1 43.35" fill="#674512" fill-rule="evenodd" stroke="none"/>
      <path d="M5.15 28.05 L6.3 28.05 Q6.7 28.05 7.0 28.3 L7.4 28.9 7.4 29.65 7.0 30.2 6.1 30.85 6.5 32.1 6.5 32.8 6.1 33.4 5.95 33.5 6.65 34.25 9.05 33.3 9.75 33.25 10.3 33.55 10.6 34.25 10.45 34.95 9.15 37.15 10.8 39.15 11.95 39.15 12.35 38.05 12.8 37.45 13.45 37.25 14.15 37.45 14.55 38.0 15.0 39.15 16.15 39.15 16.85 39.35 17.25 39.95 17.25 40.7 16.85 41.3 15.95 41.9 16.35 43.2 16.35 43.9 16.3 44.1 14.1 44.1 13.45 43.7 12.85 44.1 10.7 44.1 10.6 43.95 10.6 43.25 11.0 41.9 10.15 41.3 9.8 41.3 7.0 40.55 5.5 43.1 5.0 43.55 4.75 43.6 Q4.05 43.3 3.5 42.85 L3.35 42.55 3.15 39.6 0.6 38.95 0.4 38.9 0.05 37.0 Q0.25 36.8 0.45 36.75 L2.85 35.8 2.8 33.25 2.55 33.4 1.9 33.65 1.2 33.45 0.75 32.9 0.75 32.2 1.15 30.85 0.3 30.2 0.05 30.05 0.05 28.45 0.25 28.3 Q0.5 28.05 0.95 28.05 L2.1 28.05 2.5 26.95 2.95 26.4 Q3.25 26.15 3.6 26.15 L4.3 26.4 4.7 26.9 5.15 28.05 M4.35 29.25 L3.75 27.7 3.5 27.7 2.9 29.25 1.35 29.25 1.2 29.45 2.5 30.4 1.95 32.1 2.2 32.25 3.6 31.2 5.1 32.25 5.25 32.1 4.7 30.4 6.05 29.45 5.95 29.25 4.35 29.25 M6.3 35.6 L3.95 33.1 4.0 36.55 0.85 37.8 4.25 38.7 4.5 42.45 6.45 39.2 10.1 40.1 7.7 37.3 9.45 34.35 6.3 35.6 M13.35 38.8 L12.75 40.3 11.25 40.3 11.2 40.6 12.35 41.45 11.8 43.2 12.05 43.3 13.45 42.25 14.95 43.3 15.15 43.2 14.55 41.45 15.9 40.55 15.8 40.3 14.2 40.3 13.6 38.8 13.35 38.8" fill="url(#gradient4)" fill-rule="evenodd" stroke="none"/>
      <path d="M1.8 29.85 L0.95 29.25 2.9 29.25 3.6 27.3 4.35 29.25 6.3 29.25 5.45 29.85 4.35 29.85 3.6 27.95 2.9 29.85 1.8 29.85 M4.7 30.4 L5.4 32.45 5.1 32.3 4.7 31.0 4.7 30.4 M2.15 32.3 L1.85 32.45 2.5 30.4 2.5 31.0 2.15 32.3 M3.95 33.75 L3.95 33.1 6.3 35.6 9.45 34.35 9.0 35.2 6.3 36.25 3.95 33.75 M7.7 37.3 L10.1 40.1 9.45 39.95 7.7 37.9 7.7 37.3 M1.85 38.1 L0.85 37.8 4.0 36.55 4.0 37.15 1.85 38.1 M11.65 40.95 L10.8 40.3 12.75 40.3 13.45 38.4 14.2 40.3 16.15 40.3 15.3 40.95 14.2 40.95 13.45 39.0 12.75 40.95 11.65 40.95 M14.55 41.45 L15.25 43.55 14.95 43.35 14.55 42.1 14.55 41.45 M12.0 43.35 L11.7 43.55 12.35 41.45 12.35 42.1 12.0 43.35" fill="#674512" fill-rule="evenodd" stroke="none"/>
      <path d="M1.8 29.85 L2.9 29.85 3.6 27.95 4.35 29.85 5.45 29.85 4.7 30.4 4.7 31.0 5.1 32.3 3.6 31.2 2.15 32.3 2.5 31.0 2.5 30.4 1.8 29.85 M9.0 35.2 L7.7 37.3 7.7 37.9 9.45 39.95 6.45 39.2 4.5 42.45 4.25 38.7 1.85 38.1 4.0 37.15 4.0 36.55 3.95 33.75 6.3 36.25 9.0 35.2 M11.65 40.95 L12.75 40.95 13.45 39.0 14.2 40.95 15.3 40.95 14.55 41.45 14.55 42.1 14.95 43.35 13.45 42.25 12.0 43.35 12.35 42.1 12.35 41.45 11.65 40.95" fill="#815815" fill-rule="evenodd" stroke="none"/>
      <path d="M3.45 22.15 Q3.45 14.45 8.9 9.05 14.35 3.6 22.1 3.6 29.8 3.6 35.25 9.05 40.65 14.5 40.65 22.15 40.65 29.85 35.25 35.3 29.8 40.7 22.1 40.7 14.35 40.7 8.9 35.3 3.45 29.85 3.45 22.15" fill="url(#gradient5)" fill-rule="evenodd" stroke="none"/>
      <path d="M8.0 24.45 Q7.7 21.45 8.25 18.9 9.95 16.4 13.25 14.75 9.85 18.55 8.0 24.45 M12.0 11.8 Q15.1 10.3 19.25 10.7 16.7 11.45 14.85 13.1 11.5 14.0 8.8 16.95 9.8 14.05 12.0 11.8 M26.75 9.25 Q30.2 12.3 30.45 17.45 30.65 20.2 29.9 22.7 L33.55 21.65 24.15 29.55 21.4 18.7 23.65 20.75 Q24.5 18.4 24.35 15.5 24.15 12.55 21.9 11.0 19.6 9.4 17.3 9.6 15.0 9.75 12.7 10.6 16.05 7.8 18.8 7.2 23.35 6.25 26.75 9.25 M17.45 35.45 Q16.3 35.05 15.7 34.55 15.05 33.9 15.05 33.2 15.05 32.55 15.7 32.0 L17.45 30.9 Q19.9 30.0 23.3 30.0 26.65 30.0 29.05 30.9 31.5 31.9 31.5 33.2 31.5 34.55 29.05 35.45 26.65 36.45 23.3 36.45 19.9 36.45 17.45 35.45 M19.35 31.65 Q17.8 32.3 17.8 33.2 17.8 34.05 19.35 34.7 21.05 35.35 23.3 35.35 L27.15 34.7 Q28.8 34.05 28.8 33.2 28.8 32.3 27.15 31.65 25.5 31.0 23.3 31.0 21.05 31.0 19.35 31.65 M26.1 33.15 Q26.1 33.65 25.25 33.95 L23.3 34.3 21.25 33.95 Q20.5 33.65 20.5 33.15 20.5 32.75 21.25 32.4 22.15 32.05 23.3 32.05 L25.25 32.4 Q26.1 32.75 26.1 33.15" fill="#664411" fill-rule="evenodd" stroke="none"/>
    </g>
    <linearGradient gradientTransform="matrix(0.0, -0.0258, -0.0551, 0.0, 21.9, 21.95)" gradientUnits="userSpaceOnUse" id="gradient3" spreadMethod="pad" x1="-819.2" x2="819.2">
      <stop offset="0.011764705882352941" stop-color="#c79829"/>
      <stop offset="1.0" stop-color="#be7d1e"/>
    </linearGradient>
    <linearGradient gradientTransform="matrix(0.0, -0.0258, 0.0551, 0.0, 22.1, 21.95)" gradientUnits="userSpaceOnUse" id="gradient4" spreadMethod="pad" x1="-819.2" x2="819.2">
      <stop offset="0.011764705882352941" stop-color="#c79829"/>
      <stop offset="1.0" stop-color="#be7d1e"/>
    </linearGradient>
    <linearGradient gradientTransform="matrix(0.0056, 0.0, 0.0, 0.0043, -24.5, 41.85)" gradientUnits="userSpaceOnUse" id="gradient5" spreadMethod="pad" x1="-819.2" x2="819.2">
      <stop offset="0.011764705882352941" stop-color="#c79829"/>
      <stop offset="1.0" stop-color="#be7d1e"/>
    </linearGradient>
    <g id="shape5" transform="matrix(1.0, 0.0, 0.0, 1.0, -0.05, -0.1)">
      <path d="M40.9 22.15 Q40.9 14.2 35.3 8.7 29.8 3.15 21.9 3.15 13.95 3.15 8.45 8.7 2.9 14.2 2.9 22.15 2.9 30.05 8.45 35.55 13.95 41.2 21.9 41.2 29.8 41.2 35.3 35.55 40.9 30.05 40.9 22.15 M41.85 2.4 Q44.05 4.6 44.05 7.7 L44.05 36.5 Q44.05 39.7 41.85 41.9 39.65 44.1 36.45 44.1 L7.65 44.1 Q4.5 44.1 2.3 41.9 0.05 39.7 0.05 36.5 L0.05 7.7 Q0.05 4.6 2.3 2.4 4.5 0.1 7.65 0.1 L36.45 0.1 Q39.6 0.1 41.85 2.4" fill="url(#gradient6)" fill-rule="evenodd" stroke="none"/>
      <path d="M33.75 10.45 Q28.8 5.55 21.9 5.5 15.0 5.55 10.15 10.45 5.25 15.25 5.2 22.15 5.25 29.1 10.15 33.95 15.0 38.85 21.9 38.85 28.8 38.85 33.75 33.95 38.55 29.1 38.55 22.15 38.55 15.25 33.75 10.45 M40.9 22.15 Q40.9 30.05 35.3 35.55 29.8 41.2 21.9 41.2 13.95 41.2 8.45 35.55 2.9 30.05 2.9 22.15 2.9 14.2 8.45 8.7 13.95 3.15 21.9 3.15 29.8 3.15 35.3 8.7 40.9 14.2 40.9 22.15" fill="url(#gradient7)" fill-rule="evenodd" stroke="none"/>
    </g>
    <linearGradient gradientTransform="matrix(0.0, -0.0258, -0.0551, 0.0, 21.9, 21.95)" gradientUnits="userSpaceOnUse" id="gradient6" spreadMethod="pad" x1="-819.2" x2="819.2">
      <stop offset="0.011764705882352941" stop-color="#dad67d"/>
      <stop offset="1.0" stop-color="#cfa451"/>
    </linearGradient>
    <linearGradient gradientTransform="matrix(0.0, 0.0059, -0.0232, 0.0, 21.9, 18.5)" gradientUnits="userSpaceOnUse" id="gradient7" spreadMethod="pad" x1="-819.2" x2="819.2">
      <stop offset="0.011764705882352941" stop-color="#8d5910"/>
      <stop offset="1.0" stop-color="#d9d597"/>
    </linearGradient>
    <g id="shape6" transform="matrix(1.0, 0.0, 0.0, 1.0, 0.0, -26.1)">
      <path d="M41.5 26.9 L41.9 28.0 43.05 28.0 43.75 28.25 43.95 28.4 43.95 30.0 43.7 30.15 42.85 30.8 43.25 32.15 43.25 32.85 42.8 33.4 42.1 33.6 41.45 33.35 41.2 33.2 41.15 35.75 43.55 36.7 Q43.75 36.75 43.95 36.95 L43.6 38.85 43.4 38.9 40.85 39.55 40.65 42.5 40.5 42.8 39.25 43.55 39.0 43.5 38.5 43.05 37.0 40.5 34.2 41.25 33.85 41.25 33.0 41.85 33.4 43.2 33.4 43.9 33.3 44.05 31.15 44.05 30.55 43.65 29.9 44.05 27.7 44.05 27.65 43.85 27.65 43.15 28.05 41.85 27.15 41.25 26.75 40.65 Q26.6 40.25 26.75 39.9 L27.15 39.3 27.85 39.1 29.0 39.1 29.45 37.95 Q29.6 37.6 29.85 37.4 L30.55 37.2 31.2 37.4 31.65 38.0 32.05 39.1 33.2 39.1 34.85 37.1 33.55 34.9 33.4 34.2 33.7 33.5 Q33.9 33.25 34.25 33.2 L34.95 33.25 37.35 34.2 38.05 33.45 37.9 33.35 37.5 32.75 37.5 32.05 37.9 30.8 37.0 30.15 36.6 29.6 Q36.45 29.2 36.6 28.85 L37.0 28.25 Q37.3 28.0 37.7 28.0 L38.85 28.0 39.3 26.85 39.7 26.35 Q40.05 26.1 40.4 26.1 L41.05 26.35 41.5 26.9 M29.8 40.25 L28.2 40.25 28.1 40.5 29.45 41.4 28.85 43.15 29.05 43.25 30.55 42.2 31.95 43.25 32.2 43.15 31.65 41.4 32.8 40.55 32.75 40.25 31.25 40.25 30.65 38.75 30.4 38.75 29.8 40.25 M40.05 33.05 L37.7 35.55 34.55 34.3 36.3 37.25 33.9 40.05 37.55 39.15 39.5 42.4 39.75 38.65 43.15 37.75 40.0 36.5 40.05 33.05 M42.65 29.2 L41.1 29.2 40.5 27.65 40.25 27.65 39.65 29.2 38.05 29.2 37.95 29.4 39.3 30.35 38.75 32.05 38.9 32.2 40.4 31.15 41.8 32.2 42.05 32.05 41.5 30.35 42.8 29.4 42.65 29.2" fill="#d1ae5a" fill-rule="evenodd" stroke="none"/>
      <path d="M42.2 29.8 L41.5 30.35 41.5 30.95 41.85 32.25 40.4 31.15 38.9 32.25 39.3 30.95 39.3 30.35 38.55 29.8 39.65 29.8 40.4 27.9 41.1 29.8 42.2 29.8 M40.0 36.5 L40.0 37.1 42.15 38.05 39.75 38.65 39.5 42.4 37.55 39.15 34.55 39.9 36.3 37.85 36.3 37.25 35.0 35.15 37.7 36.2 40.05 33.7 40.0 36.5 M32.35 40.9 L31.65 41.4 31.65 42.05 32.0 43.3 30.55 42.2 29.05 43.3 29.45 42.05 29.45 41.4 28.7 40.9 29.8 40.9 30.55 38.95 31.25 40.9 32.35 40.9" fill="#815815" fill-rule="evenodd" stroke="none"/>
      <path d="M38.55 29.8 L37.7 29.2 39.65 29.2 40.4 27.25 41.1 29.2 43.05 29.2 42.2 29.8 41.1 29.8 40.4 27.9 39.65 29.8 38.55 29.8 M41.5 30.35 L42.15 32.4 41.85 32.25 41.5 30.95 41.5 30.35 M38.9 32.25 L38.6 32.4 39.3 30.35 39.3 30.95 38.9 32.25 M40.0 36.5 L43.15 37.75 42.15 38.05 40.0 37.1 40.0 36.5 M34.55 39.9 L33.9 40.05 36.3 37.25 36.3 37.85 34.55 39.9 M35.0 35.15 L34.55 34.3 37.7 35.55 40.05 33.05 40.05 33.7 37.7 36.2 35.0 35.15 M28.7 40.9 L27.85 40.25 29.8 40.25 30.55 38.35 31.25 40.25 33.2 40.25 32.35 40.9 31.25 40.9 30.55 38.95 29.8 40.9 28.7 40.9 M31.65 41.4 L32.3 43.5 32.0 43.3 31.65 42.05 31.65 41.4 M29.05 43.3 L28.75 43.5 29.45 41.4 29.45 42.05 29.05 43.3" fill="#674512" fill-rule="evenodd" stroke="none"/>
      <path d="M10.25 33.5 L10.55 34.2 10.4 34.9 9.1 37.1 10.75 39.1 11.9 39.1 12.3 38.0 Q12.4 37.6 12.75 37.4 L13.4 37.2 14.1 37.4 14.5 37.95 14.95 39.1 16.1 39.1 16.8 39.3 17.2 39.9 17.2 40.65 16.8 41.25 15.9 41.85 16.3 43.15 16.3 43.85 16.25 44.05 14.05 44.05 13.4 43.65 12.8 44.05 10.65 44.05 10.55 43.9 10.55 43.2 10.95 41.85 10.1 41.25 9.75 41.25 6.95 40.5 5.45 43.05 4.95 43.5 4.7 43.55 3.45 42.8 3.3 42.5 3.1 39.55 0.55 38.9 0.35 38.85 0.0 36.95 0.4 36.7 2.8 35.75 2.75 33.2 2.5 33.35 1.85 33.6 Q1.45 33.6 1.15 33.4 L0.7 32.85 0.7 32.15 1.1 30.8 0.25 30.15 0.0 30.0 0.0 28.4 0.2 28.25 0.9 28.0 2.05 28.0 2.45 26.9 Q2.55 26.5 2.9 26.35 L3.55 26.1 Q3.9 26.1 4.25 26.35 L4.65 26.85 5.1 28.0 6.25 28.0 6.95 28.25 7.35 28.85 7.35 29.6 6.95 30.15 6.05 30.8 6.45 32.05 6.45 32.75 6.05 33.35 5.9 33.45 6.6 34.2 9.0 33.25 9.7 33.2 10.25 33.5 M5.9 29.2 L4.3 29.2 3.7 27.65 3.45 27.65 2.85 29.2 1.3 29.2 1.15 29.4 2.45 30.35 1.9 32.05 2.15 32.2 3.55 31.15 5.05 32.2 5.2 32.05 4.65 30.35 6.0 29.4 5.9 29.2 M3.95 36.5 L0.8 37.75 4.2 38.65 4.45 42.4 6.4 39.15 10.05 40.05 7.65 37.25 9.4 34.3 6.25 35.55 3.9 33.05 3.95 36.5 M15.75 40.25 L14.15 40.25 13.55 38.75 13.3 38.75 12.7 40.25 11.2 40.25 11.15 40.55 12.3 41.4 11.75 43.15 12.0 43.25 13.4 42.2 14.9 43.25 15.1 43.15 14.5 41.4 15.85 40.5 15.75 40.25" fill="#d1ae5a" fill-rule="evenodd" stroke="none"/>
      <path d="M1.75 29.8 L0.9 29.2 2.85 29.2 3.55 27.25 4.3 29.2 6.25 29.2 5.4 29.8 4.3 29.8 3.55 27.9 2.85 29.8 1.75 29.8 M4.65 30.35 L5.35 32.4 5.05 32.25 4.65 30.95 4.65 30.35 M2.1 32.25 L1.8 32.4 2.45 30.35 2.45 30.95 2.1 32.25 M3.9 33.7 L3.9 33.05 6.25 35.55 9.4 34.3 8.95 35.15 6.25 36.2 3.9 33.7 M7.65 37.25 L10.05 40.05 9.4 39.9 7.65 37.85 7.65 37.25 M1.8 38.05 L0.8 37.75 3.95 36.5 3.95 37.1 1.8 38.05 M11.6 40.9 L10.75 40.25 12.7 40.25 13.4 38.35 14.15 40.25 16.1 40.25 15.25 40.9 14.15 40.9 13.4 38.95 12.7 40.9 11.6 40.9 M14.5 41.4 L15.2 43.5 14.9 43.3 14.5 42.05 14.5 41.4 M11.95 43.3 L11.65 43.5 12.3 41.4 12.3 42.05 11.95 43.3" fill="#674512" fill-rule="evenodd" stroke="none"/>
      <path d="M1.75 29.8 L2.85 29.8 3.55 27.9 4.3 29.8 5.4 29.8 4.65 30.35 4.65 30.95 5.05 32.25 3.55 31.15 2.1 32.25 2.45 30.95 2.45 30.35 1.75 29.8 M3.95 36.5 L3.9 33.7 6.25 36.2 8.95 35.15 7.65 37.25 7.65 37.85 9.4 39.9 6.4 39.15 4.45 42.4 4.2 38.65 1.8 38.05 3.95 37.1 3.95 36.5 M11.6 40.9 L12.7 40.9 13.4 38.95 14.15 40.9 15.25 40.9 14.5 41.4 14.5 42.05 14.9 43.3 13.4 42.2 11.95 43.3 12.3 42.05 12.3 41.4 11.6 40.9" fill="#815815" fill-rule="evenodd" stroke="none"/>
    </g>
  </defs>
</svg>
