<?xml version="1.0" encoding="UTF-8" standalone="no"?>
<svg xmlns:xlink="http://www.w3.org/1999/xlink" height="65.85px" width="66.0px" xmlns="http://www.w3.org/2000/svg">
  <g transform="matrix(1.5, 0.0, 0.0, 1.5, -0.075, 0.0)">
    <use height="43.9" transform="matrix(1.0, 0.0, 0.0, 1.0, 0.05, 0.0)" width="44.0" xlink:href="#shape0"/>
    <use height="20.15" transform="matrix(1.1548, 0.0, 0.0, 1.1548, 5.7, 5.65)" width="28.2" xlink:href="#sprite0"/>
    <use height="39.75" transform="matrix(1.0, 0.0, 0.0, 1.0, 1.8, 4.1)" width="40.55" xlink:href="#shape2"/>
    <use height="8.6" transform="matrix(1.2077, 0.0, 0.0, 1.2065, 0.8085, 0.45)" width="35.05" xlink:href="#sprite1"/>
  </g>
  <defs>
    <g id="shape0" transform="matrix(1.0, 0.0, 0.0, 1.0, -0.05, 0.0)">
      <path d="M21.75 40.8 Q14.0 40.8 8.55 35.4 3.1 29.95 3.1 22.25 3.1 14.55 8.55 9.15 14.0 3.7 21.75 3.7 29.45 3.7 34.9 9.15 40.3 14.6 40.3 22.25 40.3 29.95 34.9 35.4 29.45 40.8 21.75 40.8" fill="url(#gradient0)" fill-rule="evenodd" stroke="none"/>
      <path d="M33.15 24.0 L36.5 24.55 Q36.05 27.65 34.5 29.95 L31.55 28.05 Q32.75 26.25 33.15 24.0 M24.65 7.5 Q27.65 7.9 30.0 9.5 L28.25 12.35 Q26.35 11.25 24.05 10.8 L24.65 7.5 M33.15 19.55 Q32.7 17.45 31.35 15.5 L34.15 13.55 Q35.9 16.0 36.45 18.75 L33.15 19.55 M19.6 10.8 Q17.5 11.3 15.5 12.55 L13.65 9.8 Q16.2 7.95 18.95 7.5 L19.6 10.8 M7.4 19.35 Q8.05 16.35 9.6 13.9 L12.45 15.75 Q11.35 17.6 10.85 19.9 L7.4 19.35 M20.05 33.1 L19.4 36.5 19.35 36.5 15.9 35.4 14.0 34.35 15.85 31.55 Q17.6 32.55 19.9 33.1 L20.05 33.1 M28.5 31.25 L28.55 31.25 30.55 34.1 30.45 34.1 28.15 35.4 25.15 36.45 24.45 33.1 Q26.55 32.55 28.5 31.25 M9.85 30.35 Q8.1 27.75 7.55 25.0 L10.9 24.3 Q11.4 26.5 12.65 28.4 L9.85 30.35" fill="#372d2d" fill-rule="evenodd" stroke="none"/>
      <path d="M28.95 20.1 Q28.7 18.75 27.8 17.5 L29.6 16.25 Q30.75 17.8 31.1 19.6 L28.95 20.1 M14.05 27.0 Q12.95 25.35 12.6 23.6 L14.75 23.15 Q15.05 24.55 15.85 25.75 L14.05 27.0 M12.5 19.95 Q12.9 18.05 13.9 16.45 L15.7 17.65 Q15.0 18.85 14.7 20.3 L12.5 19.95 M28.95 22.95 L31.1 23.3 Q30.8 25.25 29.85 26.75 L27.95 25.55 Q28.7 24.4 28.95 22.95 M23.55 12.4 Q25.45 12.65 26.95 13.65 L25.85 15.5 Q24.6 14.8 23.15 14.5 L23.55 12.4 M20.3 14.5 Q18.95 14.8 17.65 15.6 L16.5 13.85 Q18.1 12.65 19.9 12.4 L20.3 14.5 M20.15 30.95 L17.95 30.25 16.7 29.55 17.9 27.75 Q19.0 28.4 20.5 28.75 L20.6 28.75 20.15 30.95 M26.0 27.6 L27.3 29.4 27.25 29.4 25.75 30.25 23.85 30.9 23.4 28.75 Q24.75 28.4 26.0 27.6" fill="#372d2d" fill-rule="evenodd" stroke="none"/>
      <path d="M21.35 14.85 L21.35 16.45 18.6 19.2 17.0 19.2 Q18.55 16.0 21.35 14.85 M22.6 14.85 Q25.4 16.0 27.0 19.2 L25.25 19.2 22.6 16.5 22.6 14.85 M22.0 21.6 L20.1 19.65 22.0 17.75 23.9 19.65 22.0 21.6 M24.75 20.6 L26.95 20.6 Q26.5 24.35 22.7 28.05 L22.7 22.65 24.75 20.6 M17.0 20.6 L19.15 20.6 21.3 22.75 21.3 28.05 Q17.45 24.35 17.0 20.6" fill="#372d2d" fill-rule="evenodd" stroke="none"/>
      <path d="M34.25 9.75 Q29.2 4.7 22.05 4.7 14.85 4.7 9.8 9.75 4.7 14.8 4.7 22.0 4.7 29.15 9.8 34.2 14.85 39.3 22.05 39.3 29.25 39.3 34.25 34.2 39.3 29.15 39.3 22.0 39.3 14.8 34.25 9.75 M2.2 2.25 Q4.5 0.0 7.6 0.0 L36.4 0.0 Q39.6 0.0 41.8 2.25 44.05 4.5 44.05 7.65 L44.05 36.35 Q44.05 39.45 41.8 41.7 39.6 43.9 36.4 43.9 L7.6 43.9 Q4.5 43.9 2.2 41.7 0.05 39.45 0.05 36.35 L0.05 7.65 Q0.05 4.5 2.2 2.25" fill="url(#gradient1)" fill-rule="evenodd" stroke="none"/>
      <path d="M21.95 5.55 Q15.05 5.6 10.25 10.45 5.35 15.3 5.35 22.15 5.35 29.1 10.25 34.0 15.05 38.8 21.95 38.8 28.8 38.8 33.7 34.0 38.6 29.1 38.6 22.15 38.6 15.3 33.7 10.45 28.85 5.6 21.95 5.55 M8.45 8.8 Q14.05 3.2 21.95 3.2 29.8 3.2 35.35 8.8 40.95 14.3 40.95 22.15 40.95 30.05 35.35 35.6 29.8 41.15 21.95 41.15 14.05 41.15 8.45 35.6 2.9 30.05 2.9 22.15 2.9 14.3 8.45 8.8" fill="url(#gradient2)" fill-rule="evenodd" stroke="none"/>
    </g>
    <linearGradient gradientTransform="matrix(0.0, -0.0173, -0.0173, 0.0, 21.7, 18.7)" gradientUnits="userSpaceOnUse" id="gradient0" spreadMethod="pad" x1="-819.2" x2="819.2">
      <stop offset="0.011764705882352941" stop-color="#c4bebb"/>
      <stop offset="1.0" stop-color="#9f8a82"/>
    </linearGradient>
    <linearGradient gradientTransform="matrix(0.0, -0.0275, -0.044, 0.0, 20.9, 22.15)" gradientUnits="userSpaceOnUse" id="gradient1" spreadMethod="pad" x1="-819.2" x2="819.2">
      <stop offset="0.0196078431372549" stop-color="#905a3d"/>
      <stop offset="0.9764705882352941" stop-color="#6a412d"/>
    </linearGradient>
    <linearGradient gradientTransform="matrix(0.0, -0.0168, -0.0168, 0.0, 21.95, 26.75)" gradientUnits="userSpaceOnUse" id="gradient2" spreadMethod="pad" x1="-819.2" x2="819.2">
      <stop offset="0.0196078431372549" stop-color="#a3704d"/>
      <stop offset="0.9803921568627451" stop-color="#492d20"/>
    </linearGradient>
    <g id="sprite0" transform="matrix(1.0, 0.0, 0.0, 1.0, 0.0, 0.0)">
      <use height="20.15" transform="matrix(1.0, 0.0, 0.0, 1.0, 0.0, 0.0)" width="28.2" xlink:href="#shape1"/>
    </g>
    <g id="shape1" transform="matrix(1.0, 0.0, 0.0, 1.0, 0.0, 0.0)">
      <path d="M27.65 18.45 L27.4 18.95 Q26.2 20.8 23.4 19.8 19.6 18.5 17.35 14.05 14.8 9.1 9.75 7.4 4.1 5.65 0.0 10.3 1.0 6.85 3.7 4.15 7.2 0.65 11.9 0.05 L14.8 0.05 18.4 0.65 Q21.55 1.65 24.05 4.15 28.2 8.3 28.2 14.25 28.2 16.45 27.65 18.45" fill="#ffffff" fill-opacity="0.19607843" fill-rule="evenodd" stroke="none"/>
    </g>
    <g id="shape2" transform="matrix(1.0, 0.0, 0.0, 1.0, -1.8, -4.1)">
      <path d="M16.3 40.4 Q12.85 39.4 9.6 37.75 10.9 34.5 13.25 34.0 14.0 37.65 16.3 40.4 M30.3 34.0 Q32.65 34.5 33.9 37.8 30.75 39.55 27.4 40.4 29.0 38.4 29.8 35.8 L30.3 34.0" fill="url(#gradient3)" fill-rule="evenodd" stroke="none"/>
      <path d="M13.25 34.0 Q14.75 37.0 17.95 38.45 L16.3 40.4 Q14.0 37.65 13.25 34.0 M27.4 40.4 L25.6 38.45 Q28.8 37.0 30.3 34.0 L29.8 35.8 Q29.0 38.4 27.4 40.4" fill="#6d4a34" fill-rule="evenodd" stroke="none"/>
      <path d="M32.25 14.15 Q31.75 9.75 29.15 7.05 L30.85 5.25 31.1 5.85 31.55 7.45 Q32.3 10.9 32.25 14.15 M11.8 14.15 Q11.65 9.9 13.2 5.25 L14.95 7.05 Q12.35 9.75 11.8 14.15" fill="#492d20" fill-rule="evenodd" stroke="none"/>
      <path d="M31.1 5.85 L30.5 4.1 Q33.9 5.85 36.8 8.8 L36.85 8.9 Q36.05 12.95 32.25 14.15 32.3 10.9 31.55 7.45 L31.1 5.85 M13.2 5.25 Q11.65 9.9 11.8 14.15 8.0 12.95 7.2 8.95 L7.4 8.8 Q10.2 5.9 13.5 4.3 L13.2 5.25" fill="url(#gradient4)" fill-rule="evenodd" stroke="none"/>
      <path d="M42.25 33.4 L42.25 36.15 Q42.25 37.1 41.65 37.75 41.15 38.4 40.3 38.4 39.45 38.4 38.85 37.75 38.25 37.1 38.25 36.15 L38.25 34.85 M1.9 33.4 L1.9 36.15 Q1.9 37.1 2.45 37.75 2.95 38.4 3.85 38.4 4.65 38.4 5.3 37.75 5.85 37.1 5.85 36.15 L5.85 34.85" fill="none" stroke="#6a402d" stroke-linecap="round" stroke-linejoin="round" stroke-width="0.25"/>
      <path d="M39.45 5.45 Q39.65 5.3 39.8 5.3 40.35 5.3 40.7 6.2 L40.95 8.25 40.7 10.35 Q40.35 11.2 39.8 11.2 L39.45 11.1 40.0 10.35 40.3 8.25 40.0 6.2 39.45 5.45 M4.6 11.1 L4.25 11.2 Q3.75 11.2 3.4 10.35 3.1 9.5 3.1 8.25 3.1 7.05 3.4 6.2 3.75 5.3 4.25 5.3 4.4 5.3 4.6 5.45 L4.05 6.2 Q3.8 7.05 3.8 8.25 3.8 9.5 4.05 10.35 L4.6 11.1" fill="#1a0d09" fill-rule="evenodd" stroke="none"/>
      <path d="M39.45 11.1 L39.0 10.35 Q38.65 9.5 38.65 8.25 38.65 7.05 39.0 6.2 L39.45 5.45 40.0 6.2 40.3 8.25 40.0 10.35 39.45 11.1 M4.6 11.1 L4.05 10.35 Q3.8 9.5 3.8 8.25 3.8 7.05 4.05 6.2 L4.6 5.45 Q4.9 5.6 5.05 6.2 5.4 7.05 5.4 8.25 5.4 9.5 5.05 10.35 L4.6 11.1" fill="#331d16" fill-rule="evenodd" stroke="none"/>
      <path d="M39.45 5.45 Q39.65 5.3 39.8 5.3 40.35 5.3 40.7 6.2 L40.95 8.25 40.7 10.35 Q40.35 11.2 39.8 11.2 L39.45 11.1 39.0 10.35 Q38.65 9.5 38.65 8.25 38.65 7.05 39.0 6.2 L39.45 5.45 M4.6 5.45 Q4.4 5.3 4.25 5.3 3.75 5.3 3.4 6.2 3.1 7.05 3.1 8.25 3.1 9.5 3.4 10.35 3.75 11.2 4.25 11.2 L4.6 11.1 5.05 10.35 Q5.4 9.5 5.4 8.25 5.4 7.05 5.05 6.2 4.9 5.6 4.6 5.45" fill="none" stroke="#6a402d" stroke-linecap="round" stroke-linejoin="round" stroke-width="0.05"/>
      <path d="M31.95 43.85 L12.15 43.85 Q12.9 43.5 14.5 43.1 L22.05 42.55 29.55 43.1 31.95 43.85" fill="#6c432e" fill-rule="evenodd" stroke="none"/>
    </g>
    <linearGradient gradientTransform="matrix(0.0, -0.0275, -0.044, 0.0, 20.9, 22.15)" gradientUnits="userSpaceOnUse" id="gradient3" spreadMethod="pad" x1="-819.2" x2="819.2">
      <stop offset="0.0196078431372549" stop-color="#905a3d"/>
      <stop offset="0.9764705882352941" stop-color="#6a412d"/>
    </linearGradient>
    <linearGradient gradientTransform="matrix(0.0, -0.0275, -0.044, 0.0, 20.9, 22.15)" gradientUnits="userSpaceOnUse" id="gradient4" spreadMethod="pad" x1="-819.2" x2="819.2">
      <stop offset="0.0196078431372549" stop-color="#905a3d"/>
      <stop offset="0.9764705882352941" stop-color="#6a412d"/>
    </linearGradient>
    <g id="sprite1" transform="matrix(1.0, 0.0, 0.0, 1.0, 0.2, 0.0)">
      <use height="8.6" transform="matrix(1.0, 0.0, 0.0, 1.0, -0.2, 0.0)" width="35.05" xlink:href="#shape3"/>
    </g>
    <g id="shape3" transform="matrix(1.0, 0.0, 0.0, 1.0, 0.2, 0.0)">
      <path d="M34.4 4.4 Q34.85 5.8 34.85 7.65 L34.85 8.6 Q34.8 6.95 34.4 5.7 33.0 1.3 27.2 1.3 L7.45 1.3 Q0.05 1.3 -0.2 8.5 L-0.2 7.65 Q-0.2 0.0 7.45 0.0 L27.2 0.0 Q33.0 0.0 34.4 4.4" fill="#e7deda" fill-rule="evenodd" stroke="none"/>
    </g>
  </defs>
</svg>
