<?xml version="1.0" encoding="UTF-8" standalone="no"?>
<svg xmlns:xlink="http://www.w3.org/1999/xlink" height="66.15px" width="66.0px" xmlns="http://www.w3.org/2000/svg">
  <g transform="matrix(1.5, 0.0, 0.0, 1.5, -0.075, -0.075)">
    <use height="44.05" transform="matrix(1.0, 0.0, 0.0, 1.0, 0.05, 0.05)" width="44.0" xlink:href="#shape0"/>
    <use height="0.0" transform="matrix(1.2088, 0.0, 0.0, 1.2099, 1.0, 0.8)" width="0.0" xlink:href="#sprite0"/>
    <use height="24.3" transform="matrix(1.0, 0.0, 0.0, 1.0, 0.25, 19.85)" width="43.45" xlink:href="#shape1"/>
    <use height="20.15" transform="matrix(1.1594, 0.0, 0.0, 1.1605, 6.15, 5.4)" width="28.2" xlink:href="#sprite1"/>
    <use height="0.0" transform="matrix(1.2125, 0.0, 0.0, 1.2137, 1.0, 1.0)" width="0.0" xlink:href="#sprite0"/>
    <use height="8.6" transform="matrix(1.2077, 0.0, 0.0, 1.2065, 1.0085, 1.0)" width="35.05" xlink:href="#sprite2"/>
    <use height="20.15" transform="matrix(1.1548, 0.0, 0.0, 1.1548, 5.8, 5.4)" width="28.2" xlink:href="#sprite1"/>
  </g>
  <defs>
    <g id="shape0" transform="matrix(1.0, 0.0, 0.0, 1.0, -0.05, -0.05)">
      <path d="M16.4 43.05 L15.3 42.2 28.7 42.2 28.7 44.1 20.1 44.1 Q18.0 44.05 16.4 43.05" fill="url(#gradient0)" fill-rule="evenodd" stroke="none"/>
      <path d="M28.7 42.2 L33.1 42.2 33.1 44.1 28.7 44.1 28.7 42.2 M20.1 44.1 L16.4 44.1 16.4 43.05 Q18.0 44.05 20.1 44.1" fill="url(#gradient1)" fill-rule="evenodd" stroke="none"/>
      <path d="M7.6 8.25 Q13.45 2.3 21.85 2.3 30.2 2.3 36.1 8.25 41.95 14.15 41.95 22.5 41.95 30.85 36.1 36.8 30.2 42.7 21.85 42.7 13.45 42.7 7.6 36.8 1.65 30.85 1.65 22.5 1.65 14.15 7.6 8.25" fill="url(#gradient2)" fill-rule="evenodd" stroke="none"/>
      <path d="M25.9 16.95 Q25.5 17.3 25.5 17.85 25.4 18.45 25.85 18.85 L26.85 19.5 27.75 19.1 29.0 18.15 30.2 19.6 31.1 20.3 32.05 20.15 32.5 19.3 32.05 18.25 30.85 16.7 32.05 15.8 32.5 15.05 32.05 13.9 Q31.6 13.35 31.1 13.35 L30.2 13.45 29.0 14.4 27.75 12.85 Q27.3 12.3 26.85 12.3 26.25 12.1 25.85 12.5 25.4 12.7 25.5 13.45 L25.9 14.4 27.15 15.9 25.9 16.95 M27.15 23.2 L27.4 22.6 27.15 22.0 Q26.9 21.75 26.55 21.75 L17.75 21.75 Q17.4 21.75 17.15 22.0 L16.9 22.6 17.15 23.2 17.75 23.45 26.55 23.45 27.15 23.2 M36.7 21.45 Q36.7 27.55 32.4 31.8 28.15 36.05 22.1 36.05 16.05 36.05 11.75 31.8 7.5 27.55 7.5 21.45 7.5 15.4 11.75 11.1 16.05 6.85 22.1 6.85 28.15 6.85 32.4 11.1 36.7 15.4 36.7 21.45 M15.5 14.3 L14.25 13.4 13.35 13.3 Q12.75 13.35 12.35 13.95 11.9 14.4 12.05 15.05 11.95 15.45 12.4 15.8 L13.65 16.7 Q12.95 17.4 12.4 18.25 11.95 18.7 12.05 19.3 11.9 19.8 12.35 20.1 L13.35 20.3 14.25 19.6 15.5 18.1 16.7 19.1 Q17.05 19.4 17.6 19.5 L18.55 18.9 Q18.95 18.5 18.95 17.85 18.95 17.3 18.55 16.95 L17.35 15.85 18.55 14.35 18.95 13.4 Q18.95 12.7 18.55 12.4 18.1 12.05 17.6 12.25 17.05 12.25 16.7 12.8 L15.5 14.3" fill="#5f3921" fill-rule="evenodd" stroke="none"/>
      <path d="M22.05 4.75 Q14.85 4.75 9.75 9.85 4.7 15.0 4.7 22.1 4.7 29.3 9.75 34.4 14.8 39.5 22.05 39.5 29.2 39.5 34.25 34.4 39.35 29.3 39.35 22.1 39.35 14.9 34.25 9.85 29.2 4.75 22.05 4.75 M36.45 0.05 Q39.65 0.05 41.8 2.3 44.05 4.6 44.05 7.7 L44.05 36.5 Q44.05 39.65 41.8 41.9 39.65 44.1 36.45 44.1 L7.65 44.1 Q4.5 44.1 2.3 41.9 0.05 39.7 0.05 36.5 L0.05 7.7 Q0.05 4.6 2.3 2.3 4.5 0.05 7.65 0.05 L36.45 0.05" fill="url(#gradient3)" fill-rule="evenodd" stroke="none"/>
      <path d="M33.9 10.4 Q28.95 5.5 22.15 5.45 15.25 5.5 10.4 10.4 5.55 15.15 5.5 22.05 5.55 29.0 10.4 33.85 15.25 38.7 22.15 38.7 28.95 38.7 33.9 33.85 38.7 29.0 38.7 22.05 38.7 15.15 33.9 10.4 M41.1 22.05 Q41.1 29.9 35.5 35.45 30.0 41.05 22.15 41.05 14.25 41.05 8.75 35.45 3.2 29.9 3.2 22.05 3.2 14.2 8.75 8.65 14.25 3.1 22.15 3.1 30.0 3.1 35.5 8.65 41.1 14.2 41.1 22.05" fill="url(#gradient4)" fill-rule="evenodd" stroke="none"/>
    </g>
    <linearGradient gradientTransform="matrix(0.0, -0.0555, -0.0554, 0.0, 34.75, 18.4)" gradientUnits="userSpaceOnUse" id="gradient0" spreadMethod="pad" x1="-819.2" x2="819.2">
      <stop offset="0.011764705882352941" stop-color="#e8e1b7"/>
      <stop offset="1.0" stop-color="#eed731"/>
    </linearGradient>
    <linearGradient gradientTransform="matrix(0.0, -0.0555, -0.0554, 0.0, 22.45, 18.4)" gradientUnits="userSpaceOnUse" id="gradient1" spreadMethod="pad" x1="-819.2" x2="819.2">
      <stop offset="0.011764705882352941" stop-color="#e8e1b7"/>
      <stop offset="1.0" stop-color="#eed731"/>
    </linearGradient>
    <linearGradient gradientTransform="matrix(0.0, -0.0155, -0.0189, 0.0, 21.9, 25.5)" gradientUnits="userSpaceOnUse" id="gradient2" spreadMethod="pad" x1="-819.2" x2="819.2">
      <stop offset="0.011764705882352941" stop-color="#bb9a76"/>
      <stop offset="1.0" stop-color="#a87f53"/>
    </linearGradient>
    <linearGradient gradientTransform="matrix(0.0, -0.0344, -0.0552, 0.0, 22.45, 16.4)" gradientUnits="userSpaceOnUse" id="gradient3" spreadMethod="pad" x1="-819.2" x2="819.2">
      <stop offset="0.0196078431372549" stop-color="#9c6732"/>
      <stop offset="1.0" stop-color="#7d4e2b"/>
    </linearGradient>
    <linearGradient gradientTransform="matrix(1.0E-4, 0.0223, -0.0231, 1.0E-4, 22.2, 22.3)" gradientUnits="userSpaceOnUse" id="gradient4" spreadMethod="pad" x1="-819.2" x2="819.2">
      <stop offset="0.011764705882352941" stop-color="#59351e"/>
      <stop offset="1.0" stop-color="#cc955e"/>
    </linearGradient>
    <g id="shape1" transform="matrix(1.0, 0.0, 0.0, 1.0, -0.2, -19.8)">
      <path d="M0.2 25.1 Q0.35 22.65 0.8 20.65 0.55 24.85 0.8 26.5 1.15 29.5 3.1 30.95 L8.1 35.1 Q10.6 37.45 11.0 40.2 L14.55 42.5 10.7 42.9 Q9.95 44.4 7.2 44.05 3.2 43.5 2.4 40.25 1.7 37.65 3.6 36.65 L3.8 34.45 4.5 36.3 Q6.5 35.9 6.95 37.0 7.45 38.05 6.85 39.1 6.25 40.05 5.7 39.25 6.4 39.2 6.5 38.8 6.55 38.4 5.85 37.75 5.25 37.1 4.65 37.4 4.1 37.7 3.8 38.85 3.2 41.3 6.05 42.4 9.0 43.5 9.45 40.8 9.95 38.55 7.15 36.2 L3.4 33.3 0.9 32.8 1.9 31.85 Q0.1 29.85 0.2 25.1" fill="#7a5130" fill-rule="evenodd" stroke="none"/>
      <path d="M0.25 24.2 Q0.4 21.8 0.85 19.8 0.6 23.95 0.85 25.55 1.2 28.55 3.15 30.05 L8.2 34.2 Q10.65 36.55 11.05 39.25 L14.7 42.55 10.8 42.05 Q10.05 43.5 7.25 43.15 3.25 42.55 2.45 39.4 1.75 36.8 3.7 35.8 L3.8 34.35 4.55 35.45 Q6.55 35.05 7.0 36.85 7.25 38.35 6.7 39.05 L5.85 39.4 Q7.15 38.2 5.75 36.9 4.45 35.55 3.85 37.95 3.25 40.4 6.1 41.45 9.05 42.55 9.5 39.9 10.05 37.7 7.2 35.25 L3.4 32.4 3.45 32.45 0.85 32.85 1.95 30.95 Q0.15 28.9 0.25 24.2" fill="#ca935c" fill-rule="evenodd" stroke="none"/>
      <path d="M0.85 21.45 Q0.8 24.4 0.9 25.6 1.4 28.65 3.25 30.15 L8.25 34.25 Q10.7 36.6 11.2 39.25 L14.3 42.15 14.05 42.05 13.9 41.9 12.2 40.7 Q10.35 39.1 10.3 38.0 10.15 36.65 8.45 35.15 L5.2 32.65 Q2.0 30.2 1.15 27.45 0.55 25.85 0.55 22.05 L0.85 21.45 M6.5 36.6 Q5.85 35.6 4.65 35.6 L4.45 35.7 4.35 35.6 4.2 35.6 4.2 34.75 4.7 35.5 Q6.6 35.1 7.1 36.9 7.3 37.95 7.1 38.65 L7.0 38.7 7.0 38.65 6.9 38.1 6.9 38.0 Q6.9 37.25 6.5 36.6 M4.25 40.3 L4.1 39.7 Q4.55 40.9 6.2 41.5 L8.45 41.7 8.55 41.75 7.0 42.05 Q6.2 42.05 5.35 41.35 L4.25 40.3" fill="#d7ad86" fill-rule="evenodd" stroke="none"/>
      <path d="M43.65 25.1 Q43.75 29.85 41.95 31.85 L42.95 32.8 40.45 33.3 36.7 36.2 Q33.9 38.55 34.4 40.8 34.85 43.5 37.8 42.4 40.65 41.3 40.05 38.85 39.75 37.7 39.2 37.4 38.6 37.1 38.0 37.75 37.3 38.4 37.35 38.8 37.45 39.2 38.15 39.25 37.6 40.05 37.0 39.1 36.4 38.05 36.9 37.0 37.35 35.9 39.35 36.3 L40.05 34.45 40.25 36.65 Q42.15 37.65 41.45 40.25 40.65 43.5 36.65 44.05 33.9 44.4 33.15 42.9 L29.3 42.5 32.85 40.2 Q33.25 37.45 35.75 35.1 L40.75 30.95 Q42.7 29.5 43.05 26.5 43.3 24.85 43.05 20.65 L43.65 25.1" fill="#7a5130" fill-rule="evenodd" stroke="none"/>
      <path d="M43.6 24.2 Q43.7 28.9 41.9 30.95 L43.0 32.85 40.4 32.45 40.45 32.4 36.65 35.25 Q33.8 37.7 34.35 39.9 34.8 42.55 37.75 41.45 40.6 40.4 40.0 37.95 39.4 35.55 38.1 36.9 36.7 38.2 38.0 39.4 L37.15 39.05 Q36.6 38.35 36.85 36.85 37.3 35.05 39.3 35.45 L40.05 34.35 40.15 35.8 Q42.1 36.8 41.4 39.4 40.6 42.55 36.6 43.15 33.8 43.5 33.05 42.05 L29.15 42.55 32.8 39.25 Q33.2 36.55 35.65 34.2 L40.7 30.05 Q42.65 28.55 43.0 25.55 43.25 23.95 43.0 19.8 L43.6 24.2" fill="#ca935c" fill-rule="evenodd" stroke="none"/>
      <path d="M37.35 36.6 Q36.95 37.25 36.95 38.0 L36.95 38.1 36.85 38.65 36.85 38.7 36.75 38.65 Q36.55 37.95 36.75 36.9 37.25 35.1 39.15 35.5 L39.65 34.75 39.65 35.6 39.5 35.6 39.4 35.7 39.2 35.6 Q38.0 35.6 37.35 36.6 M43.0 21.45 L43.3 22.05 Q43.3 25.85 42.7 27.45 41.85 30.2 38.65 32.65 L35.4 35.15 Q33.7 36.65 33.55 38.0 33.5 39.1 31.65 40.7 L29.95 41.9 29.8 42.05 29.55 42.15 32.65 39.25 Q33.15 36.6 35.6 34.25 L40.6 30.15 Q42.45 28.65 42.95 25.6 L43.0 21.45 M39.6 40.3 L38.5 41.35 Q37.65 42.05 36.85 42.05 L35.3 41.75 35.4 41.7 37.65 41.5 Q39.3 40.9 39.75 39.7 L39.6 40.3" fill="#d7ad86" fill-rule="evenodd" stroke="none"/>
    </g>
    <g id="sprite1" transform="matrix(1.0, 0.0, 0.0, 1.0, 0.0, 0.0)">
      <use height="20.15" transform="matrix(1.0, 0.0, 0.0, 1.0, 0.0, 0.0)" width="28.2" xlink:href="#shape2"/>
    </g>
    <g id="shape2" transform="matrix(1.0, 0.0, 0.0, 1.0, 0.0, 0.0)">
      <path d="M27.4 18.95 Q26.2 20.8 23.4 19.8 19.6 18.5 17.35 14.05 14.8 9.1 9.75 7.4 4.1 5.65 0.0 10.3 1.0 6.85 3.7 4.15 7.2 0.65 11.9 0.05 L14.8 0.05 18.4 0.65 Q21.55 1.65 24.05 4.15 28.2 8.3 28.2 14.25 28.2 16.45 27.65 18.45 L27.4 18.95" fill="#ffffff" fill-opacity="0.19607843" fill-rule="evenodd" stroke="none"/>
    </g>
    <g id="sprite2" transform="matrix(1.0, 0.0, 0.0, 1.0, 0.2, 0.0)">
      <use height="8.6" transform="matrix(1.0, 0.0, 0.0, 1.0, -0.2, 0.0)" width="35.05" xlink:href="#shape3"/>
    </g>
    <g id="shape3" transform="matrix(1.0, 0.0, 0.0, 1.0, 0.2, 0.0)">
      <path d="M34.4 4.4 Q34.85 5.8 34.85 7.65 L34.85 8.6 Q34.8 6.95 34.4 5.7 33.0 1.3 27.2 1.3 L7.45 1.3 Q0.05 1.3 -0.2 8.5 L-0.2 7.65 Q-0.2 0.0 7.45 0.0 L27.2 0.0 Q33.0 0.0 34.4 4.4" fill="#e7deda" fill-rule="evenodd" stroke="none"/>
    </g>
  </defs>
</svg>
