<?xml version="1.0" encoding="UTF-8" standalone="no"?>
<svg xmlns:xlink="http://www.w3.org/1999/xlink" height="66.0px" width="66.0px" xmlns="http://www.w3.org/2000/svg">
  <g transform="matrix(1.5, 0.0, 0.0, 1.5, 0.0, 0.0)">
    <use height="44.0" transform="matrix(1.0, 0.0, 0.0, 1.0, 0.0, 0.0)" width="44.0" xlink:href="#shape0"/>
    <use height="20.15" transform="matrix(1.1594, 0.0, 0.0, 1.1605, 5.8, 5.3)" width="28.2" xlink:href="#sprite0"/>
    <use height="8.6" transform="matrix(1.2077, 0.0, 0.0, 1.2065, 0.7085, 0.8)" width="35.05" xlink:href="#sprite1"/>
  </g>
  <defs>
    <g id="shape0" transform="matrix(1.0, 0.0, 0.0, 1.0, 0.0, 0.0)">
      <path d="M41.8 41.8 Q39.6 44.0 36.4 44.0 L7.6 44.0 Q4.45 44.0 2.25 41.8 0.0 39.6 0.0 36.4 L0.0 7.6 Q0.0 4.45 2.25 2.25 4.45 0.0 7.6 0.0 L36.4 0.0 Q39.55 0.0 41.8 2.25 44.0 4.45 44.0 7.6 L44.0 36.4 Q44.0 39.6 41.8 41.8" fill="url(#gradient0)" fill-rule="evenodd" stroke="none"/>
      <path d="M8.85 8.95 Q14.3 3.5 22.05 3.5 29.75 3.5 35.2 8.95 40.6 14.4 40.6 22.05 40.6 29.75 35.2 35.2 29.75 40.6 22.05 40.6 14.3 40.6 8.85 35.2 3.4 29.75 3.4 22.05 3.4 14.3 8.85 8.95" fill="url(#gradient1)" fill-rule="evenodd" stroke="none"/>
      <path d="M28.45 16.95 L26.45 16.75 Q25.5 17.05 24.25 18.4 L23.0 19.45 23.7 18.05 24.45 15.85 Q24.5 14.9 24.05 14.05 23.55 13.2 22.1 13.0 20.65 12.9 19.9 13.55 19.05 14.3 19.05 15.4 19.05 16.4 20.1 18.05 L21.05 19.6 20.95 19.55 20.95 19.6 19.7 18.4 Q18.4 17.05 17.45 16.75 16.4 16.4 15.45 16.95 14.6 17.35 14.35 18.75 14.15 20.0 14.9 20.65 15.6 21.3 16.5 21.5 L19.05 21.4 20.9 21.1 20.95 21.1 20.15 21.4 Q19.2 21.85 18.4 22.25 17.35 22.85 16.9 23.4 16.3 24.15 16.15 25.05 16.0 26.0 16.9 26.95 17.9 27.75 18.85 27.55 19.9 27.45 20.55 26.55 L21.5 24.15 21.85 21.45 21.85 21.25 21.9 21.45 Q22.8 25.75 23.4 26.55 24.05 27.45 25.05 27.55 26.0 27.75 27.0 26.95 27.9 26.0 27.75 25.05 27.65 24.15 27.0 23.4 26.55 22.85 25.5 22.25 L23.8 21.4 23.35 21.1 24.85 21.4 27.45 21.5 Q28.3 21.3 29.0 20.65 29.75 20.0 29.55 18.75 29.35 17.35 28.45 16.95 M21.7 8.8 L21.85 8.75 22.0 8.75 22.1 8.65 Q22.35 8.55 22.1 8.6 23.6 7.8 24.55 7.8 26.35 7.7 27.65 8.75 29.0 9.8 28.6 12.4 L27.0 14.65 26.7 15.05 Q30.9 11.85 32.25 12.7 33.45 13.5 33.8 14.5 34.1 15.55 33.55 17.25 L33.6 17.35 33.45 17.35 Q34.9 18.4 35.15 19.35 35.65 20.85 35.05 22.2 34.35 23.6 29.1 23.15 33.8 26.0 33.45 27.55 33.15 29.05 31.8 29.95 L29.35 30.5 29.25 30.55 Q28.5 32.3 27.75 32.8 26.9 33.4 25.3 33.25 23.7 33.05 22.55 31.1 22.1 30.35 22.05 28.9 L22.0 28.4 Q21.85 30.2 21.4 31.1 20.2 33.05 18.6 33.25 17.0 33.4 16.15 32.8 15.25 32.25 14.85 30.6 13.0 30.55 12.15 29.95 10.75 29.05 10.45 27.55 10.1 26.0 15.0 22.8 L14.7 22.95 Q9.55 23.6 8.85 22.2 8.25 20.85 8.75 19.35 9.0 18.3 10.7 17.25 9.75 15.65 10.1 14.5 10.45 13.5 11.65 12.7 13.0 11.85 16.95 14.6 L15.35 12.15 Q15.1 9.8 16.5 8.75 17.75 7.7 19.0 7.7 20.15 7.7 21.7 8.8" fill="#496125" fill-rule="evenodd" stroke="none"/>
      <path d="M22.05 28.9 Q21.75 35.9 18.0 39.35" fill="none" stroke="#496125" stroke-linecap="round" stroke-linejoin="round" stroke-width="1.5"/>
      <path d="M33.7 10.3 Q28.75 5.45 21.85 5.4 14.95 5.45 10.1 10.3 5.2 15.15 5.15 22.05 5.2 29.0 10.1 33.85 14.95 38.75 21.85 38.75 28.75 38.75 33.7 33.85 38.5 29.0 38.5 22.05 38.5 15.15 33.7 10.3 M40.85 22.05 Q40.85 29.9 35.25 35.4 29.75 41.1 21.85 41.1 13.9 41.1 8.4 35.4 2.85 29.9 2.85 22.05 2.85 14.1 8.4 8.6 13.9 3.0 21.85 3.0 29.75 3.0 35.25 8.6 40.85 14.1 40.85 22.05" fill="url(#gradient2)" fill-rule="evenodd" stroke="none"/>
      <path d="M0.85 32.85 Q1.15 30.5 2.4 29.3 L2.8 27.65 Q2.95 26.6 2.7 25.55 L2.4 24.5 1.75 23.15 2.8 24.25 3.65 25.5 3.95 26.85 Q4.05 27.75 3.35 29.55 2.7 31.15 2.55 33.35 L2.45 33.05 2.4 33.35 Q1.85 36.15 3.0 38.1 3.55 39.05 4.25 39.55 L4.3 39.65 Q4.9 40.4 5.75 40.55 6.85 40.75 7.9 39.85 9.15 38.85 8.2 37.55 L8.25 38.4 Q8.05 39.35 6.7 39.8 L5.7 39.95 5.7 39.9 5.6 38.7 Q5.55 36.95 7.0 36.05 8.5 35.1 10.0 36.65 L11.2 38.45 Q11.15 36.6 10.25 35.65 L10.4 35.8 Q11.1 36.55 11.4 37.5 L11.35 37.5 11.5 37.9 11.8 38.75 11.85 39.9 Q10.45 42.8 8.65 42.8 9.95 42.6 10.05 41.4 7.15 42.65 3.7 40.95 1.2 39.0 0.85 32.85 M3.95 39.1 L4.05 39.15 4.2 39.5 3.95 39.1" fill="#9ec087" fill-rule="evenodd" stroke="none"/>
      <path d="M2.55 33.35 L2.6 34.65 Q2.95 36.4 3.8 37.55 L3.9 36.95 Q4.6 34.95 7.3 34.4 L9.2 34.85 10.25 35.65 Q11.15 36.6 11.2 38.45 L10.0 36.65 Q8.5 35.1 7.0 36.05 5.55 36.95 5.6 38.7 L5.7 39.9 5.7 39.95 6.7 39.8 Q8.05 39.35 8.25 38.4 L8.2 37.55 Q9.15 38.85 7.9 39.85 6.85 40.75 5.75 40.55 4.9 40.4 4.3 39.65 L4.25 39.55 Q3.55 39.05 3.0 38.1 1.85 36.15 2.4 33.35 L2.55 33.35 M3.95 39.1 L4.2 39.5 4.05 39.15 3.95 39.1 4.1 39.05 4.05 38.85 3.9 38.95 3.95 39.1" fill="#c0d6b1" fill-rule="evenodd" stroke="none"/>
      <path d="M2.4 33.35 L2.45 33.05 2.55 33.35 2.4 33.35" fill="#00632e" fill-rule="evenodd" stroke="none"/>
      <path d="M11.85 39.9 Q11.75 41.0 11.1 42.1 10.1 43.9 7.0 43.95 L4.1 43.7 5.6 43.2 7.8 42.95 6.55 43.05 Q4.4 43.0 2.85 41.5 0.95 39.45 0.75 35.35 0.65 33.95 0.85 32.85 1.2 39.0 3.7 40.95 7.15 42.65 10.05 41.4 9.95 42.6 8.65 42.8 10.45 42.8 11.85 39.9" fill="#648a4a" fill-rule="evenodd" stroke="none"/>
      <path d="M3.95 39.1 L3.9 38.95 4.05 38.85 4.1 39.05 3.95 39.1" fill="#ccbf38" fill-rule="evenodd" stroke="none"/>
      <path d="M11.4 37.5 L11.5 37.9 11.35 37.5 11.4 37.5" fill="url(#gradient3)" fill-rule="evenodd" stroke="none"/>
      <path d="M41.5 33.35 Q41.35 31.15 40.7 29.55 40.0 27.75 40.1 26.85 L40.4 25.5 41.25 24.25 42.3 23.15 41.65 24.5 41.35 25.55 Q41.1 26.6 41.25 27.65 L41.65 29.3 Q42.9 30.5 43.2 32.85 42.85 39.0 40.35 40.95 36.9 42.65 34.0 41.4 34.1 42.6 35.4 42.8 33.6 42.8 32.2 39.9 32.15 39.35 32.25 38.75 L32.55 37.9 32.7 37.5 32.65 37.5 Q32.95 36.55 33.65 35.8 L33.8 35.65 Q32.9 36.6 32.85 38.45 33.3 37.5 34.05 36.65 35.55 35.1 37.05 36.05 38.5 36.95 38.45 38.7 L38.35 39.9 38.35 39.95 37.35 39.8 Q36.0 39.35 35.8 38.4 L35.85 37.55 Q34.9 38.85 36.15 39.85 37.2 40.75 38.3 40.55 39.15 40.4 39.75 39.65 L39.85 39.55 41.05 38.1 Q42.2 36.15 41.65 33.35 L41.6 33.05 41.5 33.35 M40.1 39.1 L39.85 39.5 40.0 39.15 40.1 39.1" fill="#9ec087" fill-rule="evenodd" stroke="none"/>
      <path d="M41.65 33.35 Q42.2 36.15 41.05 38.1 L39.85 39.55 39.75 39.65 Q39.15 40.4 38.3 40.55 37.2 40.75 36.15 39.85 34.9 38.85 35.85 37.55 L35.8 38.4 Q36.0 39.35 37.35 39.8 L38.35 39.95 38.35 39.9 38.45 38.7 Q38.5 36.95 37.05 36.05 35.55 35.1 34.05 36.65 33.3 37.5 32.85 38.45 32.9 36.6 33.8 35.65 L34.85 34.85 36.75 34.4 Q39.45 34.95 40.15 36.95 L40.25 37.55 Q41.1 36.4 41.45 34.65 L41.5 33.35 41.65 33.35 M40.1 39.1 L40.0 39.15 39.85 39.5 40.1 39.1 40.15 38.95 40.0 38.85 39.95 39.05 40.1 39.1" fill="#c0d6b1" fill-rule="evenodd" stroke="none"/>
      <path d="M41.5 33.35 L41.6 33.05 41.65 33.35 41.5 33.35" fill="#00632e" fill-rule="evenodd" stroke="none"/>
      <path d="M32.2 39.9 Q33.6 42.8 35.4 42.8 34.1 42.6 34.0 41.4 36.9 42.65 40.35 40.95 42.85 39.0 43.2 32.85 L43.3 35.35 Q43.1 39.45 41.2 41.5 39.65 43.0 37.5 43.05 L36.25 42.95 38.45 43.2 39.95 43.7 37.05 43.95 Q33.95 43.9 32.95 42.1 32.3 41.0 32.2 39.9" fill="#648a4a" fill-rule="evenodd" stroke="none"/>
      <path d="M40.1 39.1 L39.95 39.05 40.0 38.85 40.15 38.95 40.1 39.1" fill="#ccbf38" fill-rule="evenodd" stroke="none"/>
      <path d="M32.65 37.5 L32.7 37.5 32.55 37.9 32.65 37.5" fill="url(#gradient4)" fill-rule="evenodd" stroke="none"/>
    </g>
    <linearGradient gradientTransform="matrix(0.0, -0.0283, -0.0551, 0.0, 22.6, 21.95)" gradientUnits="userSpaceOnUse" id="gradient0" spreadMethod="pad" x1="-819.2" x2="819.2">
      <stop offset="0.011764705882352941" stop-color="#9dae7c"/>
      <stop offset="1.0" stop-color="#7e8f45"/>
    </linearGradient>
    <linearGradient gradientTransform="matrix(0.0, -0.0173, -0.0173, 0.0, 22.05, 18.5)" gradientUnits="userSpaceOnUse" id="gradient1" spreadMethod="pad" x1="-819.2" x2="819.2">
      <stop offset="0.011764705882352941" stop-color="#d3d4b5"/>
      <stop offset="1.0" stop-color="#71a26f"/>
    </linearGradient>
    <linearGradient gradientTransform="matrix(1.0E-4, 0.0223, -0.0232, 1.0E-4, 21.9, 22.3)" gradientUnits="userSpaceOnUse" id="gradient2" spreadMethod="pad" x1="-819.2" x2="819.2">
      <stop offset="0.011764705882352941" stop-color="#516537"/>
      <stop offset="1.0" stop-color="#a8ce99"/>
    </linearGradient>
    <linearGradient gradientTransform="matrix(0.0, -0.025, -0.025, 0.0, 6.1, 31.45)" gradientUnits="userSpaceOnUse" id="gradient3" spreadMethod="pad" x1="-819.2" x2="819.2">
      <stop offset="0.011764705882352941" stop-color="#bed9a5"/>
      <stop offset="1.0" stop-color="#739416"/>
    </linearGradient>
    <linearGradient gradientTransform="matrix(0.0, -0.025, 0.025, 0.0, 37.9, 31.45)" gradientUnits="userSpaceOnUse" id="gradient4" spreadMethod="pad" x1="-819.2" x2="819.2">
      <stop offset="0.011764705882352941" stop-color="#bed9a5"/>
      <stop offset="1.0" stop-color="#739416"/>
    </linearGradient>
    <g id="sprite0" transform="matrix(1.0, 0.0, 0.0, 1.0, 0.0, 0.0)">
      <use height="20.15" transform="matrix(1.0, 0.0, 0.0, 1.0, 0.0, 0.0)" width="28.2" xlink:href="#shape1"/>
    </g>
    <g id="shape1" transform="matrix(1.0, 0.0, 0.0, 1.0, 0.0, 0.0)">
      <path d="M27.4 18.95 Q26.2 20.8 23.4 19.8 19.6 18.5 17.35 14.05 14.8 9.1 9.75 7.4 4.1 5.65 0.0 10.3 1.0 6.85 3.7 4.15 7.2 0.65 11.9 0.05 L14.8 0.05 18.4 0.65 Q21.55 1.65 24.05 4.15 28.2 8.3 28.2 14.25 28.2 16.45 27.65 18.45 L27.4 18.95" fill="#ffffff" fill-opacity="0.19607843" fill-rule="evenodd" stroke="none"/>
    </g>
    <g id="sprite1" transform="matrix(1.0, 0.0, 0.0, 1.0, 0.2, 0.0)">
      <use height="8.6" transform="matrix(1.0, 0.0, 0.0, 1.0, -0.2, 0.0)" width="35.05" xlink:href="#shape2"/>
    </g>
    <g id="shape2" transform="matrix(1.0, 0.0, 0.0, 1.0, 0.2, 0.0)">
      <path d="M34.4 4.4 Q34.85 5.8 34.85 7.65 L34.85 8.6 Q34.8 6.95 34.4 5.7 33.0 1.3 27.2 1.3 L7.45 1.3 Q0.05 1.3 -0.2 8.5 L-0.2 7.65 Q-0.2 0.0 7.45 0.0 L27.2 0.0 Q33.0 0.0 34.4 4.4" fill="#e7deda" fill-rule="evenodd" stroke="none"/>
    </g>
  </defs>
</svg>
