<?xml version="1.0" encoding="UTF-8" standalone="no"?>
<svg xmlns:xlink="http://www.w3.org/1999/xlink" height="66.15px" width="66.0px" xmlns="http://www.w3.org/2000/svg">
  <g transform="matrix(1.5, 0.0, 0.0, 1.5, -0.075, -0.075)">
    <use height="37.1" transform="matrix(1.0, 0.0, 0.0, 1.0, 3.4, 3.5)" width="37.2" xlink:href="#shape0"/>
    <use height="20.15" transform="matrix(1.1594, 0.0, 0.0, 1.1594, 5.8, 5.25)" width="28.2" xlink:href="#sprite0"/>
    <use height="44.05" transform="matrix(1.0, 0.0, 0.0, 1.0, 0.05, 0.05)" width="44.0" xlink:href="#shape2"/>
    <use height="8.6" transform="matrix(1.2088, 0.0, 0.0, 1.2099, 0.8082, 0.85)" width="35.05" xlink:href="#sprite1"/>
    <use height="20.15" transform="matrix(1.1548, 0.0, 0.0, 1.1559, 6.25, 5.7)" width="28.2" xlink:href="#sprite0"/>
    <use height="24.3" transform="matrix(1.0, 0.0, 0.0, 1.0, 0.25, 19.85)" width="43.45" xlink:href="#shape4"/>
  </g>
  <defs>
    <g id="shape0" transform="matrix(1.0, 0.0, 0.0, 1.0, -3.4, -3.5)">
      <path d="M3.4 22.05 Q3.4 14.35 8.85 8.95 14.3 3.5 22.05 3.5 29.75 3.5 35.2 8.95 40.6 14.4 40.6 22.05 40.6 29.75 35.2 35.2 29.75 40.6 22.05 40.6 14.3 40.6 8.85 35.2 3.4 29.75 3.4 22.05" fill="url(#gradient0)" fill-rule="evenodd" stroke="none"/>
      <path d="M21.9 11.45 L21.9 11.7 Q28.8 11.7 35.8 17.8 26.65 19.95 25.9 22.1 L31.85 22.1 Q27.05 24.9 25.95 27.4 L29.7 27.4 Q25.7 28.75 24.25 31.95 L26.75 31.95 Q23.25 33.15 21.9 35.8 L21.7 36.0 21.7 35.55 Q20.35 32.95 16.85 31.75 L19.35 31.75 Q17.9 28.6 13.9 27.25 L17.65 27.25 Q16.55 24.7 11.7 21.95 L17.7 21.95 Q16.95 19.75 7.8 17.6 14.85 11.4 21.9 11.45" fill="#664411" fill-rule="evenodd" stroke="none"/>
    </g>
    <linearGradient gradientTransform="matrix(0.0, -0.017, -0.0173, 0.0, 21.0, 26.95)" gradientUnits="userSpaceOnUse" id="gradient0" spreadMethod="pad" x1="-819.2" x2="819.2">
      <stop offset="0.011764705882352941" stop-color="#dad67d"/>
      <stop offset="1.0" stop-color="#cfa451"/>
    </linearGradient>
    <g id="sprite0" transform="matrix(1.0, 0.0, 0.0, 1.0, 0.0, 0.0)">
      <use height="20.15" transform="matrix(1.0, 0.0, 0.0, 1.0, 0.0, 0.0)" width="28.2" xlink:href="#shape1"/>
    </g>
    <g id="shape1" transform="matrix(1.0, 0.0, 0.0, 1.0, 0.0, 0.0)">
      <path d="M27.65 18.45 L27.4 18.95 Q26.2 20.8 23.4 19.8 19.6 18.5 17.35 14.05 14.8 9.1 9.75 7.4 4.1 5.65 0.0 10.3 1.0 6.85 3.7 4.15 7.2 0.65 11.9 0.05 L14.8 0.05 18.4 0.65 Q21.55 1.65 24.05 4.15 28.2 8.3 28.2 14.25 28.2 16.45 27.65 18.45" fill="#ffffff" fill-opacity="0.19607843" fill-rule="evenodd" stroke="none"/>
    </g>
    <g id="shape2" transform="matrix(1.0, 0.0, 0.0, 1.0, -0.05, -0.05)">
      <path d="M3.4 22.05 Q3.4 14.35 8.85 8.95 14.3 3.5 22.05 3.5 29.75 3.5 35.2 8.95 40.6 14.4 40.6 22.05 40.6 29.75 35.2 35.2 29.75 40.6 22.05 40.6 14.3 40.6 8.85 35.2 3.4 29.75 3.4 22.05" fill="url(#gradient1)" fill-rule="evenodd" stroke="none"/>
      <path d="M22.15 6.45 L21.85 6.55 Q21.1 7.05 20.5 7.85 18.95 9.95 19.15 13.15 19.15 14.85 19.75 16.15 L19.6 16.2 Q18.6 14.45 18.4 12.2 18.1 8.85 19.6 6.75 20.55 5.4 21.6 4.7 L24.15 4.8 Q25.65 5.9 24.6 7.4 23.8 8.6 22.7 7.75 21.9 7.2 22.15 6.45 M26.45 12.15 Q25.9 12.65 25.15 12.5 L24.2 11.95 Q23.5 11.1 25.0 9.85 26.05 9.05 27.3 9.1 28.5 9.1 29.3 9.95 30.8 11.8 28.75 15.0 L26.3 18.1 27.5 19.55 Q30.6 14.8 34.45 14.85 36.1 14.85 35.5 16.3 35.15 16.85 34.15 16.55 33.15 16.35 31.85 16.95 28.85 18.3 28.0 19.3 L27.6 19.75 Q28.2 20.65 28.4 21.9 28.7 23.7 28.0 25.35 L30.5 28.4 Q32.7 30.45 34.05 28.75 34.4 28.4 34.35 27.75 34.5 27.1 34.1 26.65 L33.65 26.6 33.5 27.1 Q33.1 27.4 32.55 26.65 32.15 26.15 32.15 25.6 32.25 24.95 32.8 24.5 33.7 23.75 34.95 25.35 35.65 26.3 35.7 27.6 35.65 28.85 34.85 29.55 32.95 31.1 29.6 28.95 L27.1 26.95 26.0 28.05 Q30.05 31.1 29.9 34.7 30.0 36.3 28.35 35.75 28.0 35.4 28.2 34.3 28.4 33.35 27.85 31.95 26.8 29.25 25.7 28.25 24.45 29.05 23.0 29.3 20.8 29.7 18.85 28.65 L16.35 30.7 Q14.2 32.9 15.9 34.1 16.15 34.45 16.9 34.55 L18.15 34.4 Q18.45 34.1 18.2 33.85 L17.55 33.65 Q17.3 33.3 17.95 32.7 18.5 32.25 19.15 32.4 19.8 32.5 20.2 32.95 20.9 33.85 19.3 35.15 18.35 35.95 17.1 35.9 15.7 35.8 14.95 34.95 13.6 33.15 15.7 29.85 L17.5 27.8 16.45 26.6 Q13.65 30.05 10.3 30.1 8.7 30.1 9.15 28.65 9.5 28.1 10.55 28.35 L13.0 28.0 Q15.15 27.0 16.2 26.15 L15.65 24.7 Q13.95 25.6 12.0 25.85 8.65 26.3 6.45 24.85 5.1 23.9 4.5 22.9 3.5 21.5 4.3 20.4 5.4 18.85 7.0 19.85 8.15 20.6 7.35 21.7 6.85 22.45 6.1 22.25 L6.25 22.6 Q6.7 23.35 7.6 23.95 9.7 25.35 12.85 25.1 L15.6 24.6 15.45 23.95 Q15.0 21.5 16.35 19.55 L13.9 16.75 Q11.7 14.65 10.45 16.3 10.1 16.5 10.05 17.35 9.9 18.05 10.35 18.55 10.6 18.8 10.75 18.65 L11.0 18.0 Q11.35 17.75 11.8 18.4 12.3 19.0 12.2 19.5 12.15 20.25 11.65 20.65 10.8 21.35 9.5 19.7 8.65 18.8 8.7 17.5 8.8 16.3 9.65 15.55 11.5 14.15 14.75 16.1 L17.35 18.2 Q17.85 17.7 18.5 17.4 14.1 14.15 14.15 10.45 14.15 8.75 15.75 9.35 16.2 9.7 15.9 10.8 15.7 11.8 16.25 13.15 17.4 15.95 18.5 17.0 L18.75 17.25 Q19.7 16.7 20.85 16.55 22.85 16.15 24.75 17.05 L28.15 14.25 Q30.25 12.05 28.45 10.75 28.2 10.4 27.5 10.4 L26.3 10.7 Q26.05 10.9 26.15 11.2 L26.75 11.3 Q27.05 11.65 26.45 12.15 M37.4 23.25 Q37.9 22.45 38.65 22.6 L38.5 22.3 37.15 20.95 Q35.1 19.55 31.85 19.8 30.1 19.85 28.85 20.55 L28.8 20.45 Q30.45 19.4 32.7 19.05 36.15 18.65 38.3 20.0 39.65 20.95 40.3 22.0 41.2 23.4 40.4 24.6 39.45 26.15 37.8 25.05 36.65 24.3 37.4 23.25 M19.15 20.9 Q18.35 21.95 18.6 23.4 18.85 24.85 20.0 25.7 21.15 26.5 22.6 26.2 24.05 26.0 24.85 24.9 25.65 23.75 25.4 22.25 25.2 20.9 24.1 20.1 22.9 19.25 21.45 19.45 20.0 19.75 19.15 20.9 M24.5 28.95 Q25.45 30.75 25.7 32.9 26.05 36.25 24.55 38.3 L22.5 40.4 Q21.05 41.15 20.0 40.4 18.4 39.3 19.5 37.7 20.25 36.6 21.35 37.35 22.2 37.95 21.95 38.7 L22.3 38.55 23.6 37.25 Q25.1 35.15 25.0 32.0 24.9 30.3 24.35 28.95 L24.5 28.95" fill="#664411" fill-rule="evenodd" stroke="none"/>
      <path d="M22.05 4.75 Q14.85 4.75 9.75 9.85 4.7 15.0 4.7 22.1 4.7 29.3 9.75 34.4 14.8 39.5 22.05 39.5 29.2 39.5 34.25 34.4 39.35 29.3 39.35 22.1 39.35 14.9 34.25 9.85 29.2 4.75 22.05 4.75 M36.45 0.05 Q39.65 0.05 41.8 2.3 44.05 4.6 44.05 7.7 L44.05 36.5 Q44.05 39.65 41.8 41.9 39.65 44.1 36.45 44.1 L7.65 44.1 Q4.5 44.1 2.3 41.9 0.05 39.7 0.05 36.5 L0.05 7.7 Q0.05 4.6 2.3 2.3 4.5 0.05 7.65 0.05 L36.45 0.05" fill="url(#gradient2)" fill-rule="evenodd" stroke="none"/>
      <path d="M33.9 10.45 Q28.95 5.55 22.15 5.5 15.25 5.55 10.4 10.45 5.55 15.2 5.5 22.1 5.55 29.05 10.4 33.9 15.25 38.75 22.15 38.75 28.95 38.75 33.9 33.9 38.7 29.05 38.7 22.1 38.7 15.2 33.9 10.45 M41.1 22.1 Q41.1 29.95 35.5 35.5 30.0 41.1 22.15 41.1 14.25 41.1 8.75 35.5 3.2 29.95 3.2 22.1 3.2 14.25 8.75 8.7 14.25 3.15 22.15 3.15 30.0 3.15 35.5 8.7 41.1 14.25 41.1 22.1" fill="url(#gradient3)" fill-rule="evenodd" stroke="none"/>
    </g>
    <linearGradient gradientTransform="matrix(0.0, -0.017, -0.0173, 0.0, 21.0, 26.95)" gradientUnits="userSpaceOnUse" id="gradient1" spreadMethod="pad" x1="-819.2" x2="819.2">
      <stop offset="0.011764705882352941" stop-color="#dad67d"/>
      <stop offset="1.0" stop-color="#cfa451"/>
    </linearGradient>
    <linearGradient gradientTransform="matrix(0.0, -0.0344, -0.0552, 0.0, 22.45, 16.4)" gradientUnits="userSpaceOnUse" id="gradient2" spreadMethod="pad" x1="-819.2" x2="819.2">
      <stop offset="0.0196078431372549" stop-color="#9c6732"/>
      <stop offset="1.0" stop-color="#7d4e2b"/>
    </linearGradient>
    <linearGradient gradientTransform="matrix(1.0E-4, 0.0223, -0.0231, 1.0E-4, 22.2, 22.35)" gradientUnits="userSpaceOnUse" id="gradient3" spreadMethod="pad" x1="-819.2" x2="819.2">
      <stop offset="0.011764705882352941" stop-color="#59351e"/>
      <stop offset="1.0" stop-color="#cc955e"/>
    </linearGradient>
    <g id="sprite1" transform="matrix(1.0, 0.0, 0.0, 1.0, 0.2, 0.0)">
      <use height="8.6" transform="matrix(1.0, 0.0, 0.0, 1.0, -0.2, 0.0)" width="35.05" xlink:href="#shape3"/>
    </g>
    <g id="shape3" transform="matrix(1.0, 0.0, 0.0, 1.0, 0.2, 0.0)">
      <path d="M34.4 4.4 Q34.85 5.8 34.85 7.65 L34.85 8.6 Q34.8 6.95 34.4 5.7 33.0 1.3 27.2 1.3 L7.45 1.3 Q0.05 1.3 -0.2 8.5 L-0.2 7.65 Q-0.2 0.0 7.45 0.0 L27.2 0.0 Q33.0 0.0 34.4 4.4" fill="#e7deda" fill-rule="evenodd" stroke="none"/>
    </g>
    <g id="shape4" transform="matrix(1.0, 0.0, 0.0, 1.0, -0.25, -19.85)">
      <path d="M0.25 25.15 Q0.4 22.7 0.85 20.7 0.6 24.9 0.85 26.55 1.2 29.55 3.15 31.0 L8.15 35.15 Q10.65 37.5 11.05 40.25 L14.6 42.55 10.75 42.95 Q10.0 44.45 7.25 44.1 3.25 43.55 2.45 40.3 1.75 37.7 3.65 36.7 L3.85 34.5 4.55 36.35 Q6.55 35.95 7.0 37.05 7.5 38.1 6.9 39.15 6.3 40.1 5.75 39.3 6.45 39.25 6.55 38.85 6.6 38.45 5.9 37.8 5.3 37.15 4.7 37.45 4.15 37.75 3.85 38.9 3.25 41.35 6.1 42.45 9.05 43.55 9.5 40.85 10.0 38.6 7.2 36.25 L3.45 33.35 0.95 32.85 1.95 31.9 Q0.15 29.9 0.25 25.15" fill="#7a5130" fill-rule="evenodd" stroke="none"/>
      <path d="M0.3 24.25 Q0.45 21.85 0.9 19.85 0.65 24.0 0.9 25.6 1.25 28.6 3.2 30.1 L8.25 34.25 Q10.7 36.6 11.1 39.3 L14.75 42.6 10.85 42.1 Q10.1 43.55 7.3 43.2 3.3 42.6 2.5 39.45 1.8 36.85 3.75 35.85 L3.85 34.4 4.6 35.5 Q6.6 35.1 7.05 36.9 7.3 38.4 6.75 39.1 L5.9 39.45 Q7.2 38.25 5.8 36.95 4.5 35.6 3.9 38.0 3.3 40.45 6.15 41.5 9.1 42.6 9.55 39.95 10.1 37.75 7.25 35.3 L3.45 32.45 3.5 32.5 0.9 32.9 2.0 31.0 Q0.2 28.95 0.3 24.25" fill="#ca935c" fill-rule="evenodd" stroke="none"/>
      <path d="M0.9 21.5 Q0.85 24.45 0.95 25.65 1.45 28.7 3.3 30.2 L8.3 34.3 Q10.75 36.65 11.25 39.3 L14.35 42.2 14.1 42.1 13.95 41.95 12.25 40.75 Q10.4 39.15 10.35 38.05 10.2 36.7 8.5 35.2 L5.25 32.7 Q2.05 30.25 1.2 27.5 0.6 25.9 0.6 22.1 L0.9 21.5 M6.55 36.65 Q5.9 35.65 4.7 35.65 L4.5 35.75 4.4 35.65 4.25 35.65 4.25 34.8 4.75 35.55 Q6.65 35.15 7.15 36.95 7.35 38.0 7.15 38.7 L7.05 38.75 7.05 38.7 6.95 38.15 6.95 38.05 Q6.95 37.3 6.55 36.65 M4.3 40.35 L4.15 39.75 Q4.6 40.95 6.25 41.55 L8.5 41.75 8.6 41.8 7.05 42.1 Q6.25 42.1 5.4 41.4 L4.3 40.35" fill="#d7ad86" fill-rule="evenodd" stroke="none"/>
      <path d="M43.7 25.15 Q43.8 29.9 42.0 31.9 L43.0 32.85 40.5 33.35 36.75 36.25 Q33.95 38.6 34.45 40.85 34.9 43.55 37.85 42.45 40.7 41.35 40.1 38.9 39.8 37.75 39.25 37.45 38.65 37.15 38.05 37.8 37.35 38.45 37.4 38.85 37.5 39.25 38.2 39.3 37.65 40.1 37.05 39.15 36.45 38.1 36.95 37.05 37.4 35.95 39.4 36.35 L40.1 34.5 40.3 36.7 Q42.2 37.7 41.5 40.3 40.7 43.55 36.7 44.1 33.95 44.45 33.2 42.95 L29.35 42.55 32.9 40.25 Q33.3 37.5 35.8 35.15 L40.8 31.0 Q42.75 29.55 43.1 26.55 43.35 24.9 43.1 20.7 L43.7 25.15" fill="#7a5130" fill-rule="evenodd" stroke="none"/>
      <path d="M43.65 24.25 Q43.75 28.95 41.95 31.0 L43.05 32.9 40.45 32.5 40.5 32.45 36.7 35.3 Q33.85 37.75 34.4 39.95 34.85 42.6 37.8 41.5 40.65 40.45 40.05 38.0 39.45 35.6 38.15 36.95 36.75 38.25 38.05 39.45 L37.2 39.1 Q36.65 38.4 36.9 36.9 37.35 35.1 39.35 35.5 L40.1 34.4 40.2 35.85 Q42.15 36.85 41.45 39.45 40.65 42.6 36.65 43.2 33.85 43.55 33.1 42.1 L29.2 42.6 32.85 39.3 Q33.25 36.6 35.7 34.25 L40.75 30.1 Q42.7 28.6 43.05 25.6 43.3 24.0 43.05 19.85 L43.65 24.25" fill="#ca935c" fill-rule="evenodd" stroke="none"/>
      <path d="M37.4 36.65 Q37.0 37.3 37.0 38.05 L37.0 38.15 36.9 38.7 36.9 38.75 36.8 38.7 Q36.6 38.0 36.8 36.95 37.3 35.15 39.2 35.55 L39.7 34.8 39.7 35.65 39.55 35.65 39.45 35.75 39.25 35.65 Q38.05 35.65 37.4 36.65 M43.05 21.5 L43.35 22.1 Q43.35 25.9 42.75 27.5 41.9 30.25 38.7 32.7 L35.45 35.2 Q33.75 36.7 33.6 38.05 33.55 39.15 31.7 40.75 L30.0 41.95 29.85 42.1 29.6 42.2 32.7 39.3 Q33.2 36.65 35.65 34.3 L40.65 30.2 Q42.5 28.7 43.0 25.65 L43.05 21.5 M39.65 40.35 L38.55 41.4 Q37.7 42.1 36.9 42.1 L35.35 41.8 35.45 41.75 37.7 41.55 Q39.35 40.95 39.8 39.75 L39.65 40.35" fill="#d7ad86" fill-rule="evenodd" stroke="none"/>
    </g>
  </defs>
</svg>
