<?xml version="1.0" encoding="UTF-8" standalone="no"?>
<svg xmlns:xlink="http://www.w3.org/1999/xlink" height="66.0px" width="66.0px" xmlns="http://www.w3.org/2000/svg">
  <g transform="matrix(1.5, 0.0, 0.0, 1.5, -0.075, 0.0)">
    <use height="40.3" transform="matrix(1.0, 0.0, 0.0, 1.0, 1.8, 2.35)" width="40.35" xlink:href="#shape0"/>
    <use height="20.15" transform="matrix(1.1594, 0.0, 0.0, 1.1594, 5.8, 5.25)" width="28.2" xlink:href="#sprite0"/>
    <use height="39.65" transform="matrix(1.0, 0.0, 0.0, 1.0, 3.1, 0.65)" width="38.0" xlink:href="#shape2"/>
    <use height="20.15" transform="matrix(1.1594, 0.0, 0.0, 1.1594, 5.8, 5.25)" width="28.2" xlink:href="#sprite0"/>
    <use height="44.0" transform="matrix(1.0, 0.0, 0.0, 1.0, 0.05, 0.0)" width="44.0" xlink:href="#shape3"/>
    <use height="8.6" transform="matrix(1.2125, 0.0, 0.0, 1.2125, 0.9075, 0.95)" width="35.05" xlink:href="#sprite1"/>
    <use height="17.95" transform="matrix(1.0, 0.0, 0.0, 1.0, 0.05, 26.05)" width="43.95" xlink:href="#shape5"/>
  </g>
  <defs>
    <g id="shape0" transform="matrix(1.0, 0.0, 0.0, 1.0, -1.8, -2.35)">
      <path d="M42.15 22.5 Q42.15 30.85 36.25 36.75 30.35 42.65 21.95 42.65 13.65 42.65 7.75 36.75 1.8 30.85 1.8 22.5 1.8 14.1 7.75 8.2 13.65 2.35 21.95 2.35 30.35 2.35 36.25 8.2 42.15 14.1 42.15 22.5" fill="url(#gradient0)" fill-rule="evenodd" stroke="none"/>
    </g>
    <linearGradient gradientTransform="matrix(0.0, -0.0188, -0.0188, 0.0, 21.95, 18.6)" gradientUnits="userSpaceOnUse" id="gradient0" spreadMethod="pad" x1="-819.2" x2="819.2">
      <stop offset="0.011764705882352941" stop-color="#f9cfb3"/>
      <stop offset="1.0" stop-color="#ff5b79"/>
    </linearGradient>
    <g id="sprite0" transform="matrix(1.0, 0.0, 0.0, 1.0, 0.0, 0.0)">
      <use height="20.15" transform="matrix(1.0, 0.0, 0.0, 1.0, 0.0, 0.0)" width="28.2" xlink:href="#shape1"/>
    </g>
    <g id="shape1" transform="matrix(1.0, 0.0, 0.0, 1.0, 0.0, 0.0)">
      <path d="M27.4 18.95 Q26.2 20.8 23.4 19.8 19.6 18.5 17.35 14.05 14.8 9.1 9.75 7.4 4.1 5.65 0.0 10.3 1.0 6.85 3.7 4.15 7.2 0.65 11.9 0.05 L14.8 0.05 18.4 0.65 Q21.55 1.65 24.05 4.15 28.2 8.3 28.2 14.25 28.2 16.45 27.65 18.45 L27.4 18.95" fill="#ffffff" fill-opacity="0.19607843" fill-rule="evenodd" stroke="none"/>
    </g>
    <g id="shape2" transform="matrix(1.0, 0.0, 0.0, 1.0, -3.1, -0.65)">
      <path d="M22.2 3.1 Q29.9 3.1 35.35 8.55 40.75 14.0 40.75 21.65 40.75 29.35 35.35 34.8 29.9 40.2 22.2 40.2 14.45 40.2 9.0 34.8 3.55 29.35 3.55 21.65 3.55 13.95 9.0 8.55 14.45 3.1 22.2 3.1" fill="url(#gradient1)" fill-rule="evenodd" stroke="none"/>
      <path d="M23.05 11.3 L20.85 11.25 18.0 12.1 Q15.75 12.85 13.95 15.35 11.8 18.15 11.8 21.55 11.8 25.75 14.8 28.8 L15.4 29.25 15.85 29.75 16.25 29.95 16.55 30.15 16.9 30.3 17.85 30.75 18.2 30.9 19.15 30.9 Q19.7 30.7 20.25 29.75 L20.45 29.3 Q20.65 28.8 21.3 28.5 22.1 28.25 22.65 28.5 L23.6 29.3 23.8 29.75 Q24.3 30.7 24.85 30.9 L25.75 30.9 26.2 30.75 27.2 30.3 27.4 30.15 27.7 29.95 28.2 29.6 28.75 29.1 29.2 28.8 Q32.1 25.75 32.1 21.55 32.1 18.15 30.15 15.35 28.15 12.8 26.4 12.1 L23.05 11.3 M41.05 13.0 L41.1 13.1 41.1 30.2 Q39.65 32.95 37.05 35.3 33.9 38.25 30.35 39.35 L30.2 39.35 29.8 39.45 Q29.0 39.45 28.75 38.8 L28.75 38.25 28.75 38.15 Q28.95 37.5 29.85 37.0 31.8 36.05 34.05 33.85 39.5 28.85 39.5 22.0 L39.5 21.15 Q39.5 15.55 35.85 11.1 L35.15 11.9 35.0 12.45 Q34.6 13.2 34.95 13.95 L35.0 14.05 35.0 14.1 35.05 14.25 Q36.2 16.2 36.65 18.45 L36.9 21.55 Q36.9 27.75 32.5 32.2 29.6 35.1 25.75 36.15 24.95 36.75 24.75 37.85 L24.45 40.3 19.75 40.3 19.3 37.85 Q19.0 36.75 18.2 36.15 14.45 35.1 11.45 32.2 7.0 27.75 7.0 21.55 7.0 19.95 7.45 18.45 7.75 16.2 9.0 14.25 L9.0 14.1 9.1 14.05 9.15 13.95 Q9.4 13.2 9.1 12.45 L8.75 11.9 8.1 11.1 Q4.55 15.55 4.55 21.15 L4.55 22.0 Q4.55 28.85 9.85 33.85 12.3 36.05 14.2 37.0 15.1 37.5 15.3 38.15 L15.3 38.25 15.3 38.8 Q15.0 39.45 14.2 39.45 L13.75 39.35 13.65 39.35 Q10.0 38.25 6.9 35.3 4.5 33.2 3.1 30.7 L3.1 12.65 Q4.5 10.35 6.25 8.6 L6.3 8.5 4.75 6.35 Q3.95 5.3 3.95 4.7 L4.1 4.25 4.15 4.2 4.15 4.1 4.55 4.1 4.8 4.1 Q5.35 4.1 6.25 4.9 L8.55 6.55 9.15 6.1 9.25 6.1 Q11.45 4.5 13.15 3.9 L14.1 3.85 14.45 3.85 15.1 4.2 15.15 4.25 15.3 4.5 15.3 4.95 Q15.1 5.55 14.1 6.15 L11.5 8.0 11.25 8.2 11.05 8.35 11.85 8.85 12.7 9.3 13.75 9.05 14.0 8.85 Q15.6 7.9 17.3 7.35 L17.9 7.0 18.05 7.0 Q18.95 6.35 19.3 5.45 L19.4 4.95 19.8 0.65 24.15 0.65 24.6 4.95 24.75 5.45 Q25.15 6.35 26.0 7.0 L26.65 7.35 Q28.5 7.9 30.05 8.85 L30.35 9.05 Q30.75 9.35 31.25 9.3 L32.1 8.85 32.95 8.35 32.8 8.2 32.5 8.0 Q31.25 6.9 29.85 6.15 28.95 5.55 28.75 4.95 L28.75 4.5 28.75 4.25 28.85 4.2 Q29.1 3.9 29.6 3.85 L29.95 3.85 30.75 3.9 Q32.65 4.5 34.75 6.1 L34.8 6.1 35.4 6.55 37.85 4.9 Q38.55 4.1 39.2 4.1 L39.4 4.1 39.75 4.1 39.95 4.25 40.0 4.7 39.35 6.35 37.75 8.5 37.75 8.6 Q39.75 10.5 41.05 13.0" fill="#664411" fill-rule="evenodd" stroke="none"/>
      <path d="M22.05 24.45 L22.1 24.45 22.15 24.45 22.75 24.75 22.4 23.25 21.85 23.25 21.5 24.75 22.05 24.45 M28.05 20.0 L27.3 21.85 28.05 22.1 28.15 22.15 28.15 22.3 28.15 23.4 28.15 23.45 28.1 23.55 27.25 24.05 27.15 24.05 27.05 24.05 26.15 23.9 Q27.1 24.85 27.3 25.9 L27.3 26.05 Q26.75 27.05 25.45 27.05 L25.0 27.05 24.9 27.05 24.4 26.65 Q23.7 26.05 23.55 26.15 23.35 26.2 23.4 26.7 L23.4 26.95 23.4 27.0 23.35 27.05 22.05 27.5 22.0 27.5 Q21.3 27.5 20.7 27.05 L20.65 27.0 20.6 26.95 20.6 26.15 Q20.25 25.9 19.15 27.05 L18.95 27.05 18.6 27.05 17.95 27.0 Q17.1 26.75 16.75 26.0 L16.7 25.9 Q16.9 24.85 17.9 23.9 L17.8 23.9 17.25 23.95 16.95 24.05 16.85 24.05 16.8 24.0 15.85 23.45 15.8 23.4 15.8 22.35 15.85 22.25 15.9 22.15 16.75 21.85 16.0 20.0 15.9 20.0 Q15.5 17.3 16.65 15.75 17.75 14.2 20.45 13.75 L22.0 13.65 Q25.45 13.7 27.0 15.3 28.55 16.9 28.05 20.0 M21.65 19.3 L21.6 19.15 21.55 19.15 21.25 18.05 20.85 17.55 Q20.5 17.4 20.3 17.55 19.75 17.65 19.0 18.2 L18.95 18.2 18.5 18.75 18.0 19.2 17.95 19.2 17.95 20.3 18.15 21.55 18.75 21.65 19.5 21.8 19.75 21.85 21.15 21.85 21.65 21.2 Q21.9 20.4 21.65 19.35 L21.65 19.3 M25.55 18.35 L25.4 18.2 Q24.65 17.65 24.2 17.55 23.9 17.4 23.6 17.55 23.3 17.65 22.8 19.15 L22.7 19.35 22.6 20.45 22.75 21.2 Q22.95 21.75 23.3 21.85 L23.65 21.85 24.5 21.85 24.95 21.8 25.55 21.7 26.3 21.6 26.45 20.3 26.45 19.2 26.4 19.15 26.3 19.0 25.55 18.35" fill="#664411" fill-rule="evenodd" stroke="none"/>
    </g>
    <linearGradient gradientTransform="matrix(0.0056, 0.0, 0.0, 0.0043, -24.4, 41.35)" gradientUnits="userSpaceOnUse" id="gradient1" spreadMethod="pad" x1="-819.2" x2="819.2">
      <stop offset="0.011764705882352941" stop-color="#c79829"/>
      <stop offset="1.0" stop-color="#be7d1e"/>
    </linearGradient>
    <g id="shape3" transform="matrix(1.0, 0.0, 0.0, 1.0, -0.05, 0.0)">
      <path d="M41.85 2.3 Q44.05 4.5 44.05 7.6 L44.05 36.4 Q44.05 39.6 41.85 41.8 39.65 44.0 36.45 44.0 L7.65 44.0 Q4.5 44.0 2.3 41.8 0.05 39.6 0.05 36.4 L0.05 7.6 Q0.05 4.5 2.3 2.3 4.5 0.0 7.65 0.0 L36.45 0.0 Q39.6 0.0 41.85 2.3 M40.9 22.05 Q40.9 14.1 35.3 8.6 29.8 3.05 21.9 3.05 13.95 3.05 8.45 8.6 2.9 14.1 2.9 22.05 2.9 29.95 8.45 35.45 13.95 41.1 21.9 41.1 29.8 41.1 35.3 35.45 40.9 29.95 40.9 22.05" fill="url(#gradient2)" fill-rule="evenodd" stroke="none"/>
      <path d="M40.9 22.05 Q40.9 29.95 35.3 35.45 29.8 41.1 21.9 41.1 13.95 41.1 8.45 35.45 2.9 29.95 2.9 22.05 2.9 14.1 8.45 8.6 13.95 3.05 21.9 3.05 29.8 3.05 35.3 8.6 40.9 14.1 40.9 22.05 M33.75 10.35 Q28.8 5.45 21.9 5.4 15.0 5.45 10.15 10.35 5.25 15.15 5.2 22.05 5.25 29.0 10.15 33.85 15.0 38.75 21.9 38.75 28.8 38.75 33.75 33.85 38.55 29.0 38.55 22.05 38.55 15.15 33.75 10.35" fill="url(#gradient3)" fill-rule="evenodd" stroke="none"/>
    </g>
    <linearGradient gradientTransform="matrix(0.0, -0.0258, -0.0551, 0.0, 21.9, 21.85)" gradientUnits="userSpaceOnUse" id="gradient2" spreadMethod="pad" x1="-819.2" x2="819.2">
      <stop offset="0.011764705882352941" stop-color="#dad67d"/>
      <stop offset="1.0" stop-color="#cfa451"/>
    </linearGradient>
    <linearGradient gradientTransform="matrix(0.0, 0.0059, -0.0232, 0.0, 21.9, 18.4)" gradientUnits="userSpaceOnUse" id="gradient3" spreadMethod="pad" x1="-819.2" x2="819.2">
      <stop offset="0.011764705882352941" stop-color="#8d5910"/>
      <stop offset="1.0" stop-color="#d9d597"/>
    </linearGradient>
    <g id="sprite1" transform="matrix(1.0, 0.0, 0.0, 1.0, 0.2, 0.0)">
      <use height="8.6" transform="matrix(1.0, 0.0, 0.0, 1.0, -0.2, 0.0)" width="35.05" xlink:href="#shape4"/>
    </g>
    <g id="shape4" transform="matrix(1.0, 0.0, 0.0, 1.0, 0.2, 0.0)">
      <path d="M34.4 4.4 Q34.85 5.8 34.85 7.65 L34.85 8.6 Q34.8 6.95 34.4 5.7 33.0 1.3 27.2 1.3 L7.45 1.3 Q0.05 1.3 -0.2 8.5 L-0.2 7.65 Q-0.2 0.0 7.45 0.0 L27.2 0.0 Q33.0 0.0 34.4 4.4" fill="#e7deda" fill-rule="evenodd" stroke="none"/>
    </g>
    <g id="shape5" transform="matrix(1.0, 0.0, 0.0, 1.0, -0.25, -26.05)">
      <path d="M39.9 29.15 L38.3 29.15 38.2 29.35 39.55 30.3 39.0 32.0 39.15 32.15 40.65 31.1 42.05 32.15 Q42.2 32.1 42.3 32.0 L41.75 30.3 43.05 29.35 42.9 29.15 41.35 29.15 40.75 27.6 40.5 27.6 39.9 29.15 M39.1 27.95 L39.55 26.8 39.95 26.3 40.65 26.05 41.3 26.3 41.75 26.85 42.15 27.95 43.3 27.95 Q43.75 27.95 44.0 28.2 L44.2 28.35 44.2 29.95 43.95 30.1 43.1 30.75 43.5 32.1 43.5 32.8 43.05 33.35 42.35 33.55 41.7 33.3 41.45 33.15 41.4 35.7 43.8 36.65 44.2 36.9 43.85 38.8 43.65 38.85 41.1 39.5 40.9 42.45 40.75 42.75 39.5 43.5 39.25 43.45 38.75 43.0 37.25 40.45 34.45 41.2 34.1 41.2 33.25 41.8 33.65 43.15 33.65 43.85 33.55 44.0 31.4 44.0 30.8 43.6 30.15 44.0 27.95 44.0 27.9 43.8 27.9 43.1 28.3 41.8 27.4 41.2 27.0 40.6 Q26.85 40.2 27.0 39.85 L27.4 39.25 28.1 39.05 29.25 39.05 29.7 37.9 30.1 37.35 30.8 37.15 31.45 37.35 31.9 37.95 32.3 39.05 33.45 39.05 35.1 37.05 33.8 34.85 33.65 34.15 33.95 33.45 Q34.15 33.2 34.5 33.15 L35.2 33.2 37.6 34.15 38.3 33.4 38.15 33.3 37.75 32.7 37.75 32.0 38.15 30.75 37.25 30.1 36.85 29.55 Q36.7 29.15 36.85 28.8 L37.25 28.2 Q37.55 27.95 37.95 27.95 L39.1 27.95 M37.95 35.5 L34.8 34.25 36.55 37.2 34.15 40.0 37.8 39.1 39.75 42.35 40.0 38.6 43.4 37.7 40.25 36.45 40.3 33.0 37.95 35.5 M30.9 38.7 L30.65 38.7 30.05 40.2 28.45 40.2 28.35 40.45 29.7 41.35 29.1 43.1 29.3 43.2 30.8 42.15 32.2 43.2 32.45 43.1 31.9 41.35 33.05 40.5 33.0 40.2 31.5 40.2 30.9 38.7" fill="#d1ae5a" fill-rule="evenodd" stroke="none"/>
      <path d="M38.8 29.75 L37.95 29.15 39.9 29.15 40.65 27.2 41.35 29.15 43.3 29.15 42.45 29.75 41.35 29.75 40.65 27.85 39.9 29.75 38.8 29.75 M41.75 30.3 L42.4 32.35 42.1 32.2 41.75 30.9 41.75 30.3 M39.15 32.2 L38.85 32.35 39.55 30.3 39.55 30.9 39.15 32.2 M40.25 36.45 L43.4 37.7 42.4 38.0 40.25 37.05 40.25 36.45 M34.8 39.85 L34.15 40.0 36.55 37.2 36.55 37.8 34.8 39.85 M35.25 35.1 L34.8 34.25 37.95 35.5 40.3 33.0 40.3 33.65 37.95 36.15 35.25 35.1 M32.6 40.85 L31.5 40.85 30.8 38.9 30.05 40.85 28.95 40.85 28.1 40.2 30.05 40.2 30.8 38.3 31.5 40.2 33.45 40.2 32.6 40.85 M29.7 41.35 L29.7 42.0 29.3 43.25 29.0 43.45 29.7 41.35 M32.25 43.25 L31.9 42.0 31.9 41.35 32.55 43.45 32.25 43.25" fill="#674512" fill-rule="evenodd" stroke="none"/>
      <path d="M42.45 29.75 L41.75 30.3 41.75 30.9 42.1 32.2 40.65 31.1 39.15 32.2 39.55 30.9 39.55 30.3 38.8 29.75 39.9 29.75 40.65 27.85 41.35 29.75 42.45 29.75 M40.25 36.45 L40.25 37.05 42.4 38.0 40.0 38.6 39.75 42.35 37.8 39.1 34.8 39.85 36.55 37.8 36.55 37.2 35.25 35.1 37.95 36.15 40.3 33.65 40.25 36.45 M28.95 40.85 L30.05 40.85 30.8 38.9 31.5 40.85 32.6 40.85 31.9 41.35 31.9 42.0 32.25 43.25 30.8 42.15 29.3 43.25 29.7 42.0 29.7 41.35 28.95 40.85" fill="#815815" fill-rule="evenodd" stroke="none"/>
      <path d="M10.5 33.45 L10.8 34.15 10.65 34.85 9.35 37.05 11.0 39.05 12.15 39.05 12.55 37.95 13.0 37.35 13.65 37.15 14.35 37.35 14.75 37.9 15.2 39.05 16.35 39.05 17.05 39.25 17.45 39.85 17.45 40.6 17.05 41.2 16.15 41.8 16.55 43.1 16.55 43.8 16.5 44.0 14.3 44.0 13.65 43.6 13.05 44.0 10.9 44.0 10.8 43.85 10.8 43.15 11.2 41.8 10.35 41.2 10.0 41.2 7.2 40.45 5.7 43.0 5.2 43.45 4.95 43.5 3.7 42.75 3.55 42.45 3.35 39.5 0.8 38.85 0.6 38.8 0.25 36.9 0.65 36.65 3.05 35.7 3.0 33.15 2.75 33.3 2.1 33.55 1.4 33.35 0.95 32.8 0.95 32.1 1.35 30.75 0.5 30.1 0.25 29.95 0.25 28.35 0.45 28.2 Q0.7 27.95 1.15 27.95 L2.3 27.95 2.7 26.85 Q2.8 26.45 3.15 26.3 L3.8 26.05 Q4.15 26.05 4.5 26.3 L4.9 26.8 5.35 27.95 6.5 27.95 7.2 28.2 7.6 28.8 7.6 29.55 7.2 30.1 6.3 30.75 6.7 32.0 6.7 32.7 6.3 33.3 6.15 33.4 6.85 34.15 9.25 33.2 9.95 33.15 10.5 33.45 M11.4 40.5 L12.55 41.35 12.0 43.1 12.25 43.2 13.65 42.15 15.15 43.2 15.35 43.1 14.75 41.35 16.1 40.45 16.0 40.2 14.4 40.2 13.8 38.7 13.55 38.7 12.95 40.2 11.45 40.2 11.4 40.5 M3.95 27.6 L3.7 27.6 3.1 29.15 1.55 29.15 1.4 29.35 2.7 30.3 2.15 32.0 2.4 32.15 3.8 31.1 5.3 32.15 5.45 32.0 4.9 30.3 6.25 29.35 6.15 29.15 4.55 29.15 3.95 27.6 M4.45 38.6 L4.7 42.35 6.65 39.1 10.3 40.0 7.9 37.2 9.65 34.25 6.5 35.5 4.15 33.0 4.2 36.45 1.05 37.7 4.45 38.6" fill="#d1ae5a" fill-rule="evenodd" stroke="none"/>
      <path d="M12.55 41.35 L11.85 40.85 12.95 40.85 13.65 38.9 14.4 40.85 15.5 40.85 14.75 41.35 14.75 42.0 15.15 43.25 13.65 42.15 12.2 43.25 12.55 42.0 12.55 41.35 M2.0 29.75 L3.1 29.75 3.8 27.85 4.55 29.75 5.65 29.75 4.9 30.3 4.9 30.9 5.3 32.2 3.8 31.1 2.35 32.2 2.7 30.9 2.7 30.3 2.0 29.75 M9.2 35.1 L7.9 37.2 7.9 37.8 9.65 39.85 6.65 39.1 4.7 42.35 4.45 38.6 2.05 38.0 4.2 37.05 4.2 36.45 4.15 33.65 6.5 36.15 9.2 35.1" fill="#815815" fill-rule="evenodd" stroke="none"/>
      <path d="M12.55 41.35 L12.55 42.0 12.2 43.25 11.9 43.45 12.55 41.35 M15.15 43.25 L14.75 42.0 14.75 41.35 15.45 43.45 15.15 43.25 M15.5 40.85 L14.4 40.85 13.65 38.9 12.95 40.85 11.85 40.85 11.0 40.2 12.95 40.2 13.65 38.3 14.4 40.2 16.35 40.2 15.5 40.85 M2.0 29.75 L1.15 29.15 3.1 29.15 3.8 27.2 4.55 29.15 6.5 29.15 5.65 29.75 4.55 29.75 3.8 27.85 3.1 29.75 2.0 29.75 M4.9 30.3 L5.6 32.35 5.3 32.2 4.9 30.9 4.9 30.3 M2.35 32.2 L2.05 32.35 2.7 30.3 2.7 30.9 2.35 32.2 M4.15 33.65 L4.15 33.0 6.5 35.5 9.65 34.25 9.2 35.1 6.5 36.15 4.15 33.65 M7.9 37.2 L10.3 40.0 9.65 39.85 7.9 37.8 7.9 37.2 M2.05 38.0 L1.05 37.7 4.2 36.45 4.2 37.05 2.05 38.0" fill="#674512" fill-rule="evenodd" stroke="none"/>
    </g>
  </defs>
</svg>
