<?xml version="1.0" encoding="UTF-8" standalone="no"?>
<svg xmlns:xlink="http://www.w3.org/1999/xlink" height="66.0px" width="66.0px" xmlns="http://www.w3.org/2000/svg">
  <g transform="matrix(1.5, 0.0, 0.0, 1.5, 0.0, -0.075)">
    <use height="44.0" transform="matrix(1.0, 0.0, 0.0, 1.0, 0.0, 0.05)" width="44.0" xlink:href="#shape0"/>
    <use height="0.0" transform="matrix(1.2125, 0.0, 0.0, 1.2125, 1.0, 1.0)" width="0.0" xlink:href="#sprite0"/>
    <use height="20.8" transform="matrix(1.0, 0.0, 0.0, 1.0, 0.7, 23.2)" width="42.45" xlink:href="#shape1"/>
    <use height="20.15" transform="matrix(1.1594, 0.0, 0.0, 1.1605, 5.8, 5.35)" width="28.2" xlink:href="#sprite1"/>
    <use height="8.6" transform="matrix(1.2077, 0.0, 0.0, 1.2065, 0.7085, 0.85)" width="35.05" xlink:href="#sprite2"/>
  </g>
  <defs>
    <g id="shape0" transform="matrix(1.0, 0.0, 0.0, 1.0, 0.0, -0.05)">
      <path d="M41.8 41.85 Q39.6 44.05 36.4 44.05 L7.6 44.05 Q4.45 44.05 2.25 41.85 0.0 39.65 0.0 36.45 L0.0 7.65 Q0.0 4.5 2.25 2.3 4.45 0.05 7.6 0.05 L36.4 0.05 Q39.55 0.05 41.8 2.3 44.0 4.5 44.0 7.65 L44.0 36.45 Q44.0 39.65 41.8 41.85" fill="url(#gradient0)" fill-rule="evenodd" stroke="none"/>
      <path d="M40.6 22.1 Q40.6 29.8 35.2 35.25 29.75 40.65 22.05 40.65 14.3 40.65 8.85 35.25 3.4 29.8 3.4 22.1 3.4 14.35 8.85 9.0 14.3 3.55 22.05 3.55 29.75 3.55 35.2 9.0 40.6 14.45 40.6 22.1" fill="url(#gradient1)" fill-rule="evenodd" stroke="none"/>
      <path d="M31.7 17.05 L31.35 17.75 30.55 19.05 Q31.2 20.8 31.15 22.8 L30.8 25.0 30.8 25.1 32.1 27.15 32.8 25.05 33.05 22.5 32.8 19.85 32.85 19.9 Q32.45 18.4 31.7 17.05 M30.45 13.85 L31.45 14.95 Q31.75 13.65 31.35 13.0 L31.35 12.95 29.35 12.85 30.45 13.85 M29.75 14.55 L28.2 13.25 27.05 13.8 26.2 14.2 Q27.6 14.9 28.7 16.1 L30.05 17.95 30.45 17.35 31.05 16.05 29.75 14.55 M23.6 8.9 L25.15 6.95 25.25 6.9 25.3 6.9 25.4 6.95 25.4 7.05 24.4 10.55 Q26.55 10.95 28.35 12.15 30.95 11.2 32.0 12.35 33.15 13.4 32.2 15.95 33.2 17.45 33.7 19.25 L35.9 17.2 35.95 17.2 36.05 17.2 36.1 17.25 36.1 17.35 35.05 20.6 37.2 19.3 37.25 19.3 37.35 19.3 37.4 19.4 37.35 19.45 35.75 22.7 37.25 22.7 37.35 22.7 37.4 22.75 37.4 22.85 37.35 22.9 35.75 24.1 37.2 25.2 37.25 25.3 37.25 25.35 37.2 25.4 37.1 25.45 33.8 25.3 Q33.45 26.9 32.7 28.3 L33.15 29.6 Q33.5 30.85 33.05 31.5 32.6 32.35 31.4 32.25 L29.5 31.95 Q27.45 33.7 24.95 34.35 L25.4 36.3 25.35 36.4 25.3 36.45 25.2 36.4 23.8 35.6 23.8 36.7 23.75 36.8 23.7 36.85 23.6 36.8 22.2 35.95 21.45 38.1 21.4 38.15 21.3 38.2 21.2 38.1 20.45 35.6 17.15 36.85 17.1 36.85 17.0 36.8 17.0 36.7 17.0 36.65 18.65 34.3 Q16.3 33.65 14.4 32.15 12.8 32.35 12.05 31.55 L12.05 31.5 Q11.15 30.7 11.55 29.05 10.4 27.2 9.95 25.1 L7.6 26.2 7.55 26.2 7.45 26.15 7.45 26.1 7.45 26.0 8.4 24.15 6.45 23.35 6.4 23.25 6.4 23.2 6.45 23.1 6.5 23.1 8.25 23.1 6.55 21.05 6.55 20.95 6.55 20.9 6.65 20.85 8.25 20.65 7.55 18.6 7.55 18.5 7.65 18.45 7.7 18.45 9.95 19.65 Q10.4 17.6 11.55 15.85 L11.45 15.55 11.2 14.05 Q11.2 13.4 11.6 12.85 L11.75 12.65 12.0 12.4 Q12.3 12.15 12.8 12.0 L13.4 11.9 15.25 12.2 Q16.9 11.1 18.85 10.65 L17.05 9.4 17.0 9.35 17.0 9.3 17.05 9.2 20.1 9.2 18.75 7.3 18.75 7.2 18.75 7.15 18.85 7.1 18.9 7.1 22.0 8.7 22.0 6.25 22.0 6.2 22.1 6.15 22.15 6.15 22.2 6.2 23.6 8.9 M25.35 14.5 L22.2 13.8 19.7 14.05 18.1 14.7 16.7 15.65 15.85 16.35 14.65 17.9 13.8 19.55 Q13.4 21.0 13.35 22.1 L13.45 23.85 13.75 25.1 14.0 25.75 Q14.55 27.1 15.6 28.3 L17.1 29.65 18.15 30.3 19.4 30.75 21.55 31.0 Q23.45 31.1 25.15 30.45 L25.95 30.1 26.45 29.8 27.75 28.75 Q29.35 27.25 30.1 25.35 L30.4 23.85 30.5 22.8 Q30.55 21.3 30.2 20.0 L29.6 18.6 28.2 16.6 Q26.9 15.2 25.35 14.5 M20.3 24.15 L20.25 24.3 20.8 25.25 19.9 24.7 19.65 24.9 20.6 26.25 19.1 25.4 18.9 25.6 19.8 26.95 18.25 26.0 18.0 26.1 19.0 27.5 17.5 26.4 16.75 26.65 19.65 23.3 19.4 22.6 19.0 22.55 18.65 23.7 18.45 22.6 18.15 22.55 17.75 24.15 17.35 22.55 17.1 22.45 16.75 24.0 16.4 22.3 16.15 22.1 15.8 23.85 15.6 21.95 14.95 21.65 14.95 22.25 Q14.95 25.15 16.9 27.15 18.95 29.2 21.8 29.2 24.75 29.2 26.75 27.25 L23.25 24.25 22.45 24.6 22.35 24.9 23.55 25.15 22.45 25.5 22.45 25.75 24.1 26.0 22.45 26.55 22.35 26.85 23.95 27.1 22.3 27.5 22.1 27.8 23.8 28.05 21.95 28.3 21.6 29.1 21.3 24.6 20.3 24.15 M17.25 17.6 L17.1 17.2 16.9 17.35 Q15.2 19.15 14.95 21.6 L19.4 21.45 19.7 20.65 19.4 20.35 18.4 20.9 19.0 20.0 18.75 19.75 17.4 20.75 18.25 19.25 18.05 19.0 16.75 19.9 17.65 18.35 17.6 18.1 16.15 19.15 17.25 17.6 M12.1 17.1 L12.05 17.0 Q11.25 18.45 10.9 20.1 L10.7 22.5 10.9 24.65 10.9 24.7 Q11.2 26.35 12.0 27.8 L12.8 26.15 13.2 25.5 Q12.55 23.95 12.65 22.05 12.7 20.5 13.3 19.05 L12.65 18.0 12.1 17.1 M14.15 13.0 L13.05 13.0 12.65 13.2 12.45 13.4 12.25 13.8 12.2 14.05 12.25 14.75 12.3 14.9 13.2 13.85 14.15 13.0 M17.25 14.05 L16.85 13.9 16.75 13.9 Q16.0 13.55 15.4 13.35 L13.9 14.55 12.7 16.0 12.8 16.2 13.45 17.55 13.45 17.5 13.8 18.0 14.85 16.45 15.6 15.6 16.1 15.2 17.0 14.55 17.5 14.25 17.25 14.05 M24.05 11.5 L21.85 11.25 19.65 11.5 Q17.95 11.8 16.5 12.65 L17.1 12.9 17.15 12.95 17.6 13.15 18.5 13.55 18.65 13.75 Q20.4 13.1 22.3 13.15 L25.15 13.65 Q25.8 13.2 26.55 12.9 L27.2 12.6 Q25.7 11.8 24.05 11.5 M32.15 29.8 L32.0 29.35 30.45 31.1 30.45 31.05 30.35 31.2 31.4 31.3 Q32.0 31.3 32.15 31.0 32.4 30.6 32.15 29.8 M31.55 28.2 L30.4 26.25 Q29.6 27.9 28.2 29.2 L27.25 30.05 29.25 30.85 29.75 30.35 31.55 28.2 M27.3 16.8 Q29.6 19.1 29.6 22.25 29.6 25.5 27.3 27.75 25.05 30.05 21.8 30.05 18.6 30.05 16.35 27.75 14.05 25.5 14.05 22.25 14.05 19.1 16.35 16.8 18.6 14.5 21.8 14.5 25.05 14.5 27.3 16.8 M12.8 30.85 L13.3 31.15 13.2 31.05 12.55 30.35 12.8 30.85 M13.6 26.7 L13.65 26.7 Q12.95 27.95 12.7 28.9 L13.9 30.35 14.7 31.1 Q15.6 30.9 16.9 30.3 L15.1 28.7 Q14.15 27.75 13.65 26.6 L13.6 26.7 M17.4 31.1 L15.65 31.85 Q17.3 32.95 19.25 33.45 L21.85 33.7 24.6 33.4 24.6 33.45 Q26.65 32.9 28.4 31.6 L26.25 30.6 Q24.15 31.75 21.55 31.65 19.65 31.6 17.9 30.8 L17.5 31.1 17.4 31.1 M28.8 22.55 L24.35 22.65 24.1 23.45 24.35 23.75 25.3 23.1 24.75 24.05 24.95 24.3 26.3 23.35 25.5 24.8 25.7 25.1 27.0 24.15 26.1 25.65 26.2 25.9 27.6 24.95 26.45 26.45 26.75 27.15 Q28.7 25.25 28.8 22.55 L28.8 22.25 Q28.8 19.5 26.9 17.5 L24.1 20.8 24.35 21.55 24.85 21.55 25.15 20.5 25.4 21.55 25.7 21.6 26.05 19.95 26.4 21.6 26.8 21.65 27.05 20.1 27.45 21.8 27.7 22.0 28.05 20.3 28.25 22.15 28.8 22.55 M26.8 17.4 L26.75 17.35 Q24.85 15.45 22.2 15.35 L22.45 19.6 23.3 19.95 23.5 19.7 22.9 18.75 23.8 19.35 Q24.0 19.1 24.1 19.15 L23.1 17.75 24.6 18.6 24.85 18.35 23.9 17.1 25.45 17.95 25.7 17.9 24.75 16.45 26.2 17.6 26.8 17.4 M21.85 15.35 L21.8 15.35 Q19.15 15.35 17.25 17.1 L20.55 19.85 20.5 19.95 Q20.85 19.7 21.35 19.6 L21.3 19.6 21.3 19.15 20.2 18.85 21.25 18.6 21.3 18.25 19.65 18.0 21.25 17.5 21.3 17.2 19.7 16.95 21.45 16.45 21.6 16.2 19.9 15.95 21.7 15.65 21.85 15.35" fill="#496125" fill-rule="evenodd" stroke="none"/>
      <path d="M33.7 10.35 Q28.75 5.5 21.85 5.45 14.95 5.5 10.1 10.35 5.2 15.2 5.15 22.1 5.2 29.05 10.1 33.9 14.95 38.8 21.85 38.8 28.75 38.8 33.7 33.9 38.5 29.05 38.5 22.1 38.5 15.2 33.7 10.35 M40.85 22.1 Q40.85 29.95 35.25 35.45 29.75 41.15 21.85 41.15 13.9 41.15 8.4 35.45 2.85 29.95 2.85 22.1 2.85 14.15 8.4 8.65 13.9 3.05 21.85 3.05 29.75 3.05 35.25 8.65 40.85 14.15 40.85 22.1" fill="url(#gradient2)" fill-rule="evenodd" stroke="none"/>
    </g>
    <linearGradient gradientTransform="matrix(0.0, -0.0283, -0.0551, 0.0, 22.6, 22.0)" gradientUnits="userSpaceOnUse" id="gradient0" spreadMethod="pad" x1="-819.2" x2="819.2">
      <stop offset="0.011764705882352941" stop-color="#9dae7c"/>
      <stop offset="1.0" stop-color="#7e8f45"/>
    </linearGradient>
    <linearGradient gradientTransform="matrix(0.0, -0.0173, -0.0173, 0.0, 22.0, 18.5)" gradientUnits="userSpaceOnUse" id="gradient1" spreadMethod="pad" x1="-819.2" x2="819.2">
      <stop offset="0.011764705882352941" stop-color="#d3d4b5"/>
      <stop offset="1.0" stop-color="#71a26f"/>
    </linearGradient>
    <linearGradient gradientTransform="matrix(1.0E-4, 0.0223, -0.0232, 1.0E-4, 21.9, 22.35)" gradientUnits="userSpaceOnUse" id="gradient2" spreadMethod="pad" x1="-819.2" x2="819.2">
      <stop offset="0.011764705882352941" stop-color="#516537"/>
      <stop offset="1.0" stop-color="#a8ce99"/>
    </linearGradient>
    <g id="shape1" transform="matrix(1.0, 0.0, 0.0, 1.0, -0.7, -23.2)">
      <path d="M0.8 32.9 Q1.1 30.55 2.4 29.35 L2.8 27.65 Q2.9 26.6 2.65 25.6 L2.4 24.55 1.75 23.2 2.8 24.3 3.6 25.5 3.95 26.9 Q4.0 27.8 3.3 29.6 2.65 31.2 2.5 33.4 L2.45 33.1 2.4 33.4 Q1.8 36.2 2.95 38.15 3.55 39.1 4.25 39.6 L3.95 39.15 4.0 39.2 4.3 39.65 Q4.85 40.4 5.75 40.6 6.85 40.75 7.9 39.9 9.1 38.9 8.2 37.6 L8.25 38.45 Q8.0 39.4 6.65 39.85 L5.7 40.0 5.7 39.95 5.55 38.75 Q5.5 37.0 6.95 36.05 8.45 35.15 9.95 36.7 L11.2 38.5 Q11.15 36.65 10.2 35.65 L10.4 35.85 Q11.05 36.6 11.35 37.5 L11.3 37.5 11.5 37.95 11.75 38.8 11.85 39.95 Q10.45 42.85 8.65 42.85 9.9 42.6 10.05 41.45 7.15 42.7 3.65 41.0 1.15 39.05 0.8 32.9" fill="#9ec087" fill-rule="evenodd" stroke="none"/>
      <path d="M11.85 39.95 Q11.7 41.05 11.05 42.15 10.1 43.95 6.95 44.0 L4.05 43.7 5.55 43.25 7.75 42.95 6.5 43.1 Q4.35 43.05 2.85 41.5 0.95 39.5 0.7 35.4 L0.8 32.9 Q1.15 39.05 3.65 41.0 7.15 42.7 10.05 41.45 9.9 42.6 8.65 42.85 10.45 42.85 11.85 39.95" fill="#648a4a" fill-rule="evenodd" stroke="none"/>
      <path d="M2.5 33.4 L2.55 34.7 Q2.9 36.4 3.75 37.6 L3.9 37.0 Q4.6 34.95 7.25 34.45 L9.15 34.9 Q9.75 35.2 10.2 35.65 11.15 36.65 11.2 38.5 L9.95 36.7 Q8.45 35.15 6.95 36.05 5.5 37.0 5.55 38.75 L5.7 39.95 5.7 40.0 6.65 39.85 Q8.0 39.4 8.25 38.45 L8.2 37.6 Q9.1 38.9 7.9 39.9 6.85 40.75 5.75 40.6 4.85 40.4 4.3 39.65 L4.0 39.2 3.95 39.15 4.25 39.6 Q3.55 39.1 2.95 38.15 1.8 36.2 2.4 33.4 L2.5 33.4 M3.95 39.15 L4.05 39.1 4.0 38.9 3.9 38.95 3.95 39.15" fill="#c0d6b1" fill-rule="evenodd" stroke="none"/>
      <path d="M2.5 33.4 L2.4 33.4 2.45 33.1 2.5 33.4" fill="#00632e" fill-rule="evenodd" stroke="none"/>
      <path d="M3.95 39.15 L3.9 38.95 4.0 38.9 4.05 39.1 3.95 39.15" fill="#ccbf38" fill-rule="evenodd" stroke="none"/>
      <path d="M11.35 37.5 L11.5 37.95 11.3 37.5 11.35 37.5" fill="url(#gradient3)" fill-rule="evenodd" stroke="none"/>
      <path d="M43.05 32.9 Q42.75 30.55 41.45 29.35 L41.05 27.65 Q40.95 26.6 41.2 25.6 L41.45 24.55 42.1 23.2 41.05 24.3 40.25 25.5 39.9 26.9 Q39.85 27.8 40.55 29.6 41.2 31.2 41.35 33.4 L41.4 33.1 41.45 33.4 Q42.05 36.2 40.9 38.15 L39.6 39.6 39.9 39.15 39.85 39.2 39.55 39.65 Q39.0 40.4 38.1 40.6 37.0 40.75 35.95 39.9 34.75 38.9 35.65 37.6 L35.6 38.45 Q35.85 39.4 37.2 39.85 L38.15 40.0 38.15 39.95 38.3 38.75 Q38.35 37.0 36.9 36.05 35.4 35.15 33.9 36.7 33.1 37.5 32.65 38.5 32.7 36.65 33.65 35.65 L33.45 35.85 Q32.8 36.6 32.5 37.5 L32.55 37.5 32.35 37.95 32.1 38.8 32.0 39.95 Q33.4 42.85 35.2 42.85 33.95 42.6 33.8 41.45 36.7 42.7 40.2 41.0 42.7 39.05 43.05 32.9" fill="#9ec087" fill-rule="evenodd" stroke="none"/>
      <path d="M32.0 39.95 Q32.15 41.05 32.8 42.15 33.75 43.95 36.9 44.0 L39.8 43.7 38.3 43.25 36.1 42.95 37.35 43.1 Q39.5 43.05 41.0 41.5 42.9 39.5 43.15 35.4 L43.05 32.9 Q42.7 39.05 40.2 41.0 36.7 42.7 33.8 41.45 33.95 42.6 35.2 42.85 33.4 42.85 32.0 39.95" fill="#648a4a" fill-rule="evenodd" stroke="none"/>
      <path d="M41.35 33.4 L41.3 34.7 Q40.95 36.4 40.1 37.6 L39.95 37.0 Q39.25 34.95 36.6 34.45 L34.7 34.9 33.65 35.65 Q32.7 36.65 32.65 38.5 33.1 37.5 33.9 36.7 35.4 35.15 36.9 36.05 38.35 37.0 38.3 38.75 L38.15 39.95 38.15 40.0 37.2 39.85 Q35.85 39.4 35.6 38.45 L35.65 37.6 Q34.75 38.9 35.95 39.9 37.0 40.75 38.1 40.6 39.0 40.4 39.55 39.65 L39.85 39.2 39.9 39.15 39.6 39.6 40.9 38.15 Q42.05 36.2 41.45 33.4 L41.35 33.4 M39.9 39.15 L39.8 39.1 39.85 38.9 39.95 38.95 39.9 39.15" fill="#c0d6b1" fill-rule="evenodd" stroke="none"/>
      <path d="M41.35 33.4 L41.45 33.4 41.4 33.1 41.35 33.4" fill="#00632e" fill-rule="evenodd" stroke="none"/>
      <path d="M39.9 39.15 L39.95 38.95 39.85 38.9 39.8 39.1 39.9 39.15" fill="#ccbf38" fill-rule="evenodd" stroke="none"/>
      <path d="M32.5 37.5 L32.35 37.95 32.55 37.5 32.5 37.5" fill="url(#gradient4)" fill-rule="evenodd" stroke="none"/>
    </g>
    <linearGradient gradientTransform="matrix(0.0, -0.0249, -0.0249, 0.0, 5.95, 31.35)" gradientUnits="userSpaceOnUse" id="gradient3" spreadMethod="pad" x1="-819.2" x2="819.2">
      <stop offset="0.011764705882352941" stop-color="#bed9a5"/>
      <stop offset="1.0" stop-color="#739416"/>
    </linearGradient>
    <linearGradient gradientTransform="matrix(0.0, -0.0249, 0.0249, 0.0, 37.85, 31.35)" gradientUnits="userSpaceOnUse" id="gradient4" spreadMethod="pad" x1="-819.2" x2="819.2">
      <stop offset="0.011764705882352941" stop-color="#bed9a5"/>
      <stop offset="1.0" stop-color="#739416"/>
    </linearGradient>
    <g id="sprite1" transform="matrix(1.0, 0.0, 0.0, 1.0, 0.0, 0.0)">
      <use height="20.15" transform="matrix(1.0, 0.0, 0.0, 1.0, 0.0, 0.0)" width="28.2" xlink:href="#shape2"/>
    </g>
    <g id="shape2" transform="matrix(1.0, 0.0, 0.0, 1.0, 0.0, 0.0)">
      <path d="M27.4 18.95 Q26.2 20.8 23.4 19.8 19.6 18.5 17.35 14.05 14.8 9.1 9.75 7.4 4.1 5.65 0.0 10.3 1.0 6.85 3.7 4.15 7.2 0.65 11.9 0.05 L14.8 0.05 18.4 0.65 Q21.55 1.65 24.05 4.15 28.2 8.3 28.2 14.25 28.2 16.45 27.65 18.45 L27.4 18.95" fill="#ffffff" fill-opacity="0.19607843" fill-rule="evenodd" stroke="none"/>
    </g>
    <g id="sprite2" transform="matrix(1.0, 0.0, 0.0, 1.0, 0.2, 0.0)">
      <use height="8.6" transform="matrix(1.0, 0.0, 0.0, 1.0, -0.2, 0.0)" width="35.05" xlink:href="#shape3"/>
    </g>
    <g id="shape3" transform="matrix(1.0, 0.0, 0.0, 1.0, 0.2, 0.0)">
      <path d="M34.4 4.4 Q34.85 5.8 34.85 7.65 L34.85 8.6 Q34.8 6.95 34.4 5.7 33.0 1.3 27.2 1.3 L7.45 1.3 Q0.05 1.3 -0.2 8.5 L-0.2 7.65 Q-0.2 0.0 7.45 0.0 L27.2 0.0 Q33.0 0.0 34.4 4.4" fill="#e7deda" fill-rule="evenodd" stroke="none"/>
    </g>
  </defs>
</svg>
