<?xml version="1.0" encoding="UTF-8" standalone="no"?>
<svg xmlns:xlink="http://www.w3.org/1999/xlink" height="66.0px" width="66.525px" xmlns="http://www.w3.org/2000/svg">
  <g transform="matrix(1.5, 0.0, 0.0, 1.5, 0.45, 0.0)">
    <use height="37.1" transform="matrix(1.0, 0.0, 0.0, 1.0, 3.4, 3.5)" width="37.2" xlink:href="#shape0"/>
    <use height="20.15" transform="matrix(1.1594, 0.0, 0.0, 1.1594, 5.8, 5.25)" width="28.2" xlink:href="#sprite0"/>
    <use height="44.0" transform="matrix(1.0, 0.0, 0.0, 1.0, -0.3, 0.0)" width="44.0" xlink:href="#shape2"/>
    <use height="8.6" transform="matrix(1.2124, 0.0, 0.0, 1.2124, 0.6575, 0.65)" width="35.05" xlink:href="#sprite1"/>
    <use height="40.45" transform="matrix(1.0, 0.0, 0.0, 1.0, -0.05, 3.5)" width="43.9" xlink:href="#shape4"/>
    <use height="20.15" transform="matrix(1.1594, 0.0, 0.0, 1.1594, 5.8, 5.25)" width="28.2" xlink:href="#sprite0"/>
    <use height="44.0" transform="matrix(1.0, 0.0, 0.0, 1.0, 0.05, 0.0)" width="44.0" xlink:href="#shape5"/>
    <use height="8.6" transform="matrix(1.2125, 0.0, 0.0, 1.2125, 0.9075, 0.95)" width="35.05" xlink:href="#sprite1"/>
    <use height="17.95" transform="matrix(1.0, 0.0, 0.0, 1.0, 0.05, 26.05)" width="43.95" xlink:href="#shape6"/>
  </g>
  <defs>
    <g id="shape0" transform="matrix(1.0, 0.0, 0.0, 1.0, -3.4, -3.5)">
      <path d="M3.4 22.05 Q3.4 14.35 8.85 8.95 14.3 3.5 22.05 3.5 29.75 3.5 35.2 8.95 40.6 14.4 40.6 22.05 40.6 29.75 35.2 35.2 29.75 40.6 22.05 40.6 14.3 40.6 8.85 35.2 3.4 29.75 3.4 22.05" fill="url(#gradient0)" fill-rule="evenodd" stroke="none"/>
      <path d="M21.9 11.45 L21.9 11.7 Q28.8 11.7 35.8 17.8 26.65 19.95 25.9 22.1 L31.85 22.1 Q27.05 24.9 25.95 27.4 L29.7 27.4 Q25.7 28.75 24.25 31.95 L26.75 31.95 Q23.25 33.15 21.9 35.8 L21.7 36.0 21.7 35.55 Q20.35 32.95 16.85 31.75 L19.35 31.75 Q17.9 28.6 13.9 27.25 L17.65 27.25 Q16.55 24.7 11.7 21.95 L17.7 21.95 Q16.95 19.75 7.8 17.6 14.85 11.4 21.9 11.45" fill="#664411" fill-rule="evenodd" stroke="none"/>
    </g>
    <linearGradient gradientTransform="matrix(0.0, -0.017, -0.0173, 0.0, 21.0, 26.95)" gradientUnits="userSpaceOnUse" id="gradient0" spreadMethod="pad" x1="-819.2" x2="819.2">
      <stop offset="0.011764705882352941" stop-color="#dad67d"/>
      <stop offset="1.0" stop-color="#cfa451"/>
    </linearGradient>
    <g id="sprite0" transform="matrix(1.0, 0.0, 0.0, 1.0, 0.0, 0.0)">
      <use height="20.15" transform="matrix(1.0, 0.0, 0.0, 1.0, 0.0, 0.0)" width="28.2" xlink:href="#shape1"/>
    </g>
    <g id="shape1" transform="matrix(1.0, 0.0, 0.0, 1.0, 0.0, 0.0)">
      <path d="M27.4 18.95 Q26.2 20.8 23.4 19.8 19.6 18.5 17.35 14.05 14.8 9.1 9.75 7.4 4.1 5.65 0.0 10.3 1.0 6.85 3.7 4.15 7.2 0.65 11.9 0.05 L14.8 0.05 18.4 0.65 Q21.55 1.65 24.05 4.15 28.2 8.3 28.2 14.25 28.2 16.45 27.65 18.45 L27.4 18.95" fill="#ffffff" fill-opacity="0.19607843" fill-rule="evenodd" stroke="none"/>
    </g>
    <g id="shape2" transform="matrix(1.0, 0.0, 0.0, 1.0, 0.3, 0.0)">
      <path d="M43.7 7.6 L43.7 36.4 Q43.7 39.6 41.5 41.8 39.3 44.0 36.15 44.0 L7.3 44.0 Q4.2 44.0 2.0 41.8 -0.3 39.6 -0.3 36.4 L-0.3 7.6 Q-0.3 4.45 2.0 2.25 4.2 0.0 7.3 0.0 L36.15 0.0 Q39.25 0.0 41.5 2.25 43.7 4.45 43.7 7.6 M40.6 22.05 Q40.6 14.1 34.95 8.6 29.45 3.0 21.6 3.0 13.65 3.0 8.15 8.6 2.55 14.1 2.55 22.05 2.55 29.9 8.15 35.45 13.65 41.1 21.6 41.1 29.45 41.1 34.95 35.45 40.6 29.9 40.6 22.05" fill="url(#gradient1)" fill-rule="evenodd" stroke="none"/>
      <path d="M40.6 22.05 Q40.6 29.9 34.95 35.45 29.45 41.1 21.6 41.1 13.65 41.1 8.15 35.45 2.55 29.9 2.55 22.05 2.55 14.1 8.15 8.6 13.65 3.0 21.6 3.0 29.45 3.0 34.95 8.6 40.6 14.1 40.6 22.05 M33.4 10.35 Q28.5 5.45 21.6 5.4 14.7 5.45 9.8 10.35 4.95 15.15 4.9 22.05 4.95 29.0 9.8 33.85 14.7 38.75 21.6 38.75 28.5 38.75 33.4 33.85 38.2 29.0 38.2 22.05 38.2 15.15 33.4 10.35" fill="url(#gradient2)" fill-rule="evenodd" stroke="none"/>
    </g>
    <linearGradient gradientTransform="matrix(0.0, -0.0257, -0.0551, 0.0, 21.55, 21.85)" gradientUnits="userSpaceOnUse" id="gradient1" spreadMethod="pad" x1="-819.2" x2="819.2">
      <stop offset="0.011764705882352941" stop-color="#c79829"/>
      <stop offset="1.0" stop-color="#be7d1e"/>
    </linearGradient>
    <linearGradient gradientTransform="matrix(1.0E-4, 0.0223, -0.0232, 1.0E-4, 21.6, 22.3)" gradientUnits="userSpaceOnUse" id="gradient2" spreadMethod="pad" x1="-819.2" x2="819.2">
      <stop offset="0.011764705882352941" stop-color="#8d5910"/>
      <stop offset="1.0" stop-color="#d9d597"/>
    </linearGradient>
    <g id="sprite1" transform="matrix(1.0, 0.0, 0.0, 1.0, 0.2, 0.0)">
      <use height="8.6" transform="matrix(1.0, 0.0, 0.0, 1.0, -0.2, 0.0)" width="35.05" xlink:href="#shape3"/>
    </g>
    <g id="shape3" transform="matrix(1.0, 0.0, 0.0, 1.0, 0.2, 0.0)">
      <path d="M34.4 4.4 Q34.85 5.8 34.85 7.65 L34.85 8.6 Q34.8 6.95 34.4 5.7 33.0 1.3 27.2 1.3 L7.45 1.3 Q0.05 1.3 -0.2 8.5 L-0.2 7.65 Q-0.2 0.0 7.45 0.0 L27.2 0.0 Q33.0 0.0 34.4 4.4" fill="#e7deda" fill-rule="evenodd" stroke="none"/>
    </g>
    <g id="shape4" transform="matrix(1.0, 0.0, 0.0, 1.0, 0.05, -3.5)">
      <path d="M38.75 27.9 L39.25 26.75 39.65 26.2 40.35 26.0 41.0 26.2 41.45 26.8 41.85 27.9 43.0 27.9 43.7 28.15 43.85 28.3 43.85 29.85 43.65 30.05 42.75 30.7 43.2 32.0 43.2 32.7 42.7 33.3 42.0 33.45 41.4 33.25 41.15 33.05 41.1 35.6 43.45 36.6 Q43.7 36.65 43.85 36.85 L43.55 38.75 43.35 38.8 40.8 39.45 40.55 42.4 40.45 42.7 39.2 43.45 38.95 43.4 38.4 42.9 36.9 40.35 34.15 41.1 33.8 41.1 32.9 41.75 33.3 43.1 33.3 43.8 33.2 43.95 31.05 43.95 30.5 43.55 29.85 43.95 27.65 43.95 27.6 43.7 Q27.45 43.4 27.6 43.05 L28.0 41.75 27.05 41.1 26.65 40.55 26.65 39.8 27.05 39.2 Q27.35 38.95 27.75 38.95 L28.9 38.95 29.4 37.8 29.8 37.3 30.5 37.05 Q30.85 37.05 31.1 37.3 L31.6 37.85 32.0 38.95 33.15 38.95 34.75 37.0 33.5 34.8 33.3 34.1 33.6 33.4 34.2 33.05 34.9 33.1 37.25 34.1 37.95 33.35 37.85 33.25 37.45 32.65 Q37.3 32.3 37.45 31.95 L37.85 30.7 36.9 30.05 36.5 29.45 36.5 28.7 36.9 28.15 Q37.2 27.9 37.6 27.9 L38.75 27.9 M30.6 38.6 L30.3 38.6 29.75 40.15 28.1 40.15 28.05 40.35 29.4 41.3 28.8 43.05 29.0 43.15 30.5 42.1 31.9 43.15 32.1 43.05 31.6 41.3 32.75 40.4 32.7 40.15 31.2 40.15 30.6 38.6 M37.6 35.45 L34.5 34.15 36.2 37.1 33.85 39.95 37.5 39.05 39.4 42.25 39.7 38.5 43.05 37.65 39.95 36.35 40.0 32.95 37.6 35.45 M39.6 29.05 L37.95 29.05 37.9 29.3 39.25 30.2 38.65 31.95 38.85 32.05 40.35 31.05 41.75 32.05 41.95 31.95 41.45 30.2 42.7 29.3 42.6 29.05 41.05 29.05 40.45 27.55 40.15 27.55 39.6 29.05" fill="url(#gradient3)" fill-rule="evenodd" stroke="none"/>
      <path d="M38.5 29.7 L37.6 29.05 39.6 29.05 40.35 27.15 41.05 29.05 43.0 29.05 42.15 29.7 41.05 29.7 40.35 27.8 39.6 29.7 38.5 29.7 M41.45 30.2 L42.1 32.3 41.8 32.15 41.45 30.85 41.45 30.2 M38.85 32.15 L38.55 32.3 39.25 30.2 39.25 30.85 38.85 32.15 M39.95 36.35 L43.05 37.65 42.1 37.95 39.95 37.0 39.95 36.35 M34.5 39.8 L33.85 39.95 36.2 37.1 36.2 37.75 34.5 39.8 M34.95 35.05 L34.5 34.15 37.6 35.45 40.0 32.95 40.0 33.6 37.6 36.05 34.95 35.05 M28.65 40.75 L27.75 40.15 29.75 40.15 30.5 38.2 31.2 40.15 33.15 40.15 32.3 40.75 31.2 40.75 30.5 38.85 29.75 40.75 28.65 40.75 M31.6 41.3 L32.2 43.4 31.95 43.2 31.6 41.95 31.6 41.3 M29.0 43.2 L28.7 43.4 29.4 41.3 29.4 41.95 29.0 43.2" fill="#674512" fill-rule="evenodd" stroke="none"/>
      <path d="M42.15 29.7 L41.45 30.2 41.45 30.85 41.8 32.15 40.35 31.05 38.85 32.15 39.25 30.85 39.25 30.2 38.5 29.7 39.6 29.7 40.35 27.8 41.05 29.7 42.15 29.7 M39.95 36.35 L39.95 37.0 42.1 37.95 39.7 38.5 39.4 42.25 37.5 39.05 34.5 39.8 36.2 37.75 36.2 37.1 34.95 35.05 37.6 36.05 40.0 33.6 39.95 36.35 M32.3 40.75 L31.6 41.3 31.6 41.95 31.95 43.2 30.5 42.1 29.0 43.2 29.4 41.95 29.4 41.3 28.65 40.75 29.75 40.75 30.5 38.85 31.2 40.75 32.3 40.75" fill="#815815" fill-rule="evenodd" stroke="none"/>
      <path d="M5.05 27.9 L4.55 26.75 4.15 26.2 3.45 26.0 2.8 26.2 2.35 26.8 1.95 27.9 0.8 27.9 Q0.4 27.9 0.1 28.15 L-0.05 28.3 -0.05 29.85 0.15 30.05 1.05 30.7 0.6 32.0 0.6 32.7 1.1 33.3 1.8 33.45 2.4 33.25 2.65 33.05 2.7 35.6 0.35 36.6 Q0.1 36.65 -0.05 36.85 L0.25 38.75 0.45 38.8 3.0 39.45 3.25 42.4 3.35 42.7 4.6 43.45 4.85 43.4 5.4 42.9 6.9 40.35 9.65 41.1 10.0 41.1 10.9 41.75 10.5 43.1 Q10.35 43.45 10.5 43.8 L10.6 43.95 12.75 43.95 13.3 43.55 13.95 43.95 16.15 43.95 16.2 43.7 16.2 43.05 15.8 41.75 16.75 41.1 17.15 40.55 17.15 39.8 16.75 39.2 16.05 38.95 14.9 38.95 14.4 37.8 14.0 37.3 Q13.65 37.05 13.3 37.05 12.95 37.05 12.7 37.3 L12.2 37.85 11.8 38.95 10.65 38.95 9.05 37.0 10.3 34.8 10.5 34.1 10.2 33.4 9.6 33.05 8.9 33.1 6.55 34.1 5.85 33.35 5.95 33.25 6.35 32.65 6.35 31.95 5.95 30.7 6.9 30.05 7.3 29.45 7.3 28.7 6.9 28.15 Q6.6 27.9 6.2 27.9 L5.05 27.9 M13.2 38.6 L13.5 38.6 14.05 40.15 15.7 40.15 15.75 40.35 14.4 41.3 15.0 43.05 14.8 43.15 13.3 42.1 11.9 43.15 11.7 43.05 12.2 41.3 11.05 40.4 11.1 40.15 12.6 40.15 13.2 38.6 M6.2 35.45 L9.3 34.15 7.6 37.1 9.95 39.95 6.3 39.05 4.4 42.25 4.1 38.5 0.75 37.65 3.85 36.35 3.8 32.95 6.2 35.45 M4.2 29.05 L5.85 29.05 5.9 29.3 4.55 30.2 5.15 31.95 4.95 32.05 3.45 31.05 2.05 32.05 1.85 31.95 2.35 30.2 1.1 29.3 1.2 29.05 2.75 29.05 3.35 27.55 3.65 27.55 4.2 29.05" fill="url(#gradient4)" fill-rule="evenodd" stroke="none"/>
      <path d="M5.3 29.7 L6.2 29.05 4.2 29.05 3.45 27.15 2.75 29.05 0.8 29.05 1.65 29.7 2.75 29.7 3.45 27.8 4.2 29.7 5.3 29.7 M2.35 30.2 L1.7 32.3 2.0 32.15 2.35 30.85 2.35 30.2 M4.95 32.15 L5.25 32.3 4.55 30.2 4.55 30.85 4.95 32.15 M3.85 36.35 L0.75 37.65 1.7 37.95 3.85 37.0 3.85 36.35 M9.3 39.8 L9.95 39.95 7.6 37.1 7.6 37.75 9.3 39.8 M8.85 35.05 L9.3 34.15 6.2 35.45 3.8 32.95 3.8 33.6 6.2 36.05 8.85 35.05 M12.2 41.3 L11.6 43.4 11.85 43.2 12.2 41.95 12.2 41.3 M14.8 43.2 L15.1 43.4 14.4 41.3 14.4 41.95 14.8 43.2 M15.15 40.75 L16.05 40.15 14.05 40.15 13.3 38.2 12.6 40.15 10.65 40.15 11.5 40.75 12.6 40.75 13.3 38.85 14.05 40.75 15.15 40.75" fill="#674512" fill-rule="evenodd" stroke="none"/>
      <path d="M1.65 29.7 L2.35 30.2 2.35 30.85 2.0 32.15 3.45 31.05 4.95 32.15 4.55 30.85 4.55 30.2 5.3 29.7 4.2 29.7 3.45 27.8 2.75 29.7 1.65 29.7 M3.85 36.35 L3.85 37.0 1.7 37.95 4.1 38.5 4.4 42.25 6.3 39.05 9.3 39.8 7.6 37.75 7.6 37.1 8.85 35.05 6.2 36.05 3.8 33.6 3.85 36.35 M11.5 40.75 L12.2 41.3 12.2 41.95 11.85 43.2 13.3 42.1 14.8 43.2 14.4 41.95 14.4 41.3 15.15 40.75 14.05 40.75 13.3 38.85 12.6 40.75 11.5 40.75" fill="#815815" fill-rule="evenodd" stroke="none"/>
      <path d="M3.4 22.05 Q3.4 14.35 8.85 8.95 14.3 3.5 22.05 3.5 29.75 3.5 35.2 8.95 40.6 14.4 40.6 22.05 40.6 29.75 35.2 35.2 29.75 40.6 22.05 40.6 14.3 40.6 8.85 35.2 3.4 29.75 3.4 22.05" fill="url(#gradient5)" fill-rule="evenodd" stroke="none"/>
      <path d="M23.15 9.05 L23.25 10.2 23.3 10.5 23.5 10.65 24.25 10.9 25.1 11.85 25.1 11.9 25.65 12.35 26.9 13.6 27.3 15.1 27.3 14.95 28.15 21.0 28.25 28.65 28.25 28.8 28.75 32.7 28.0 33.7 27.25 33.05 26.75 28.5 27.45 27.25 27.55 27.0 27.55 26.55 27.5 23.65 27.45 23.3 27.35 22.6 27.35 22.55 27.3 22.45 26.2 19.25 25.8 17.45 25.65 17.25 25.65 15.85 25.6 15.8 25.35 15.8 25.2 15.95 25.15 16.35 25.25 17.9 24.5 18.95 24.4 19.15 24.35 19.4 Q23.3 22.4 24.5 31.1 L24.55 31.3 25.9 35.7 26.15 38.7 Q25.3 39.8 23.65 39.55 L22.45 35.05 22.3 34.8 22.1 34.7 21.95 34.7 21.45 34.75 Q21.3 34.75 21.3 34.85 L21.15 35.05 20.05 39.55 Q18.35 39.8 17.5 38.7 L17.7 35.7 19.1 31.3 19.15 31.1 Q20.0 24.25 19.3 19.4 L19.25 19.15 19.2 18.95 18.4 17.85 18.5 16.35 18.45 15.95 18.25 15.8 18.05 15.8 18.0 15.85 18.0 17.3 17.85 17.5 17.5 19.25 17.5 19.2 16.15 23.2 16.1 23.75 16.05 26.75 16.15 27.05 16.25 27.4 16.9 28.5 16.45 33.1 15.6 33.7 14.95 32.75 15.35 28.8 15.35 28.65 15.5 21.0 16.65 13.65 18.0 12.3 18.55 11.9 18.65 11.85 19.45 10.9 20.2 10.65 20.35 10.5 20.4 10.15 20.45 9.05 20.45 8.8 20.45 8.75 Q20.5 7.75 20.9 7.0 L21.4 6.4 21.45 6.4 Q21.6 6.2 21.8 6.3 L22.25 6.4 22.7 7.0 23.15 8.8 23.15 9.05 M20.85 10.45 L21.25 10.45 20.65 9.55 Q20.55 10.1 20.85 10.45 M22.9 9.55 L22.4 10.45 22.8 10.45 22.9 9.55" fill="#6b4711" fill-rule="evenodd" stroke="none"/>
      <path d="M25.2 19.1 L25.5 19.1 26.25 21.4 25.8 21.4 24.65 21.4 25.2 19.1 M30.05 19.1 L31.3 21.4 28.65 21.4 28.55 19.1 30.05 19.1 M28.7 22.9 L31.85 22.9 33.35 25.75 28.9 25.75 28.75 23.25 28.7 22.9 M26.8 22.9 L26.75 25.75 26.65 25.75 25.05 25.75 24.85 22.9 26.8 22.9 M18.5 19.1 L19.05 21.4 17.8 21.4 17.35 21.4 18.1 19.1 18.5 19.1 M14.9 22.9 L14.85 23.25 14.7 25.75 10.25 25.75 11.75 22.9 14.9 22.9 M15.05 19.1 L14.95 21.4 12.3 21.4 13.55 19.1 15.05 19.1 M18.85 22.9 L18.7 25.75 16.95 25.75 16.85 25.75 16.8 22.9 18.85 22.9 M14.7 33.8 L15.2 34.75 8.9 34.75 6.65 32.55 7.0 31.9 14.15 31.9 14.2 32.05 14.15 32.3 Q14.15 32.55 14.7 33.8 M14.65 27.4 L14.6 28.4 14.6 30.0 14.65 30.25 7.85 30.25 9.4 27.4 14.65 27.4 M17.35 29.9 L17.55 27.85 17.6 27.4 18.6 27.4 18.4 30.25 17.35 30.25 17.35 29.9 M16.3 34.75 L17.2 31.9 17.9 31.9 17.05 34.75 16.3 34.75 M16.7 36.4 L16.4 38.45 12.65 38.45 10.55 36.4 16.7 36.4 M35.75 30.25 L28.95 30.25 29.0 30.0 29.0 28.4 28.95 27.4 34.2 27.4 35.75 30.25 M34.7 34.75 L28.4 34.75 28.9 33.8 29.45 32.3 29.4 32.05 29.45 31.9 36.6 31.9 36.95 32.55 34.7 34.75 M26.05 27.85 L26.25 29.9 26.25 30.25 25.3 30.25 25.15 27.4 26.0 27.4 26.05 27.85 M22.2 36.4 L22.65 38.45 21.3 38.45 21.75 36.4 22.2 36.4 M26.4 31.9 Q26.9 33.95 27.3 34.75 L26.65 34.75 25.8 31.9 26.4 31.9 M27.0 36.4 L33.05 36.4 30.95 38.45 27.3 38.45 27.0 36.4" fill="#6b4711" fill-rule="evenodd" stroke="none"/>
    </g>
    <linearGradient gradientTransform="matrix(0.0, -0.0257, -0.055, 0.0, 21.6, 21.6)" gradientUnits="userSpaceOnUse" id="gradient3" spreadMethod="pad" x1="-819.2" x2="819.2">
      <stop offset="0.011764705882352941" stop-color="#c79829"/>
      <stop offset="1.0" stop-color="#be7d1e"/>
    </linearGradient>
    <linearGradient gradientTransform="matrix(0.0, -0.0257, 0.055, 0.0, 22.15, 21.6)" gradientUnits="userSpaceOnUse" id="gradient4" spreadMethod="pad" x1="-819.2" x2="819.2">
      <stop offset="0.011764705882352941" stop-color="#c79829"/>
      <stop offset="1.0" stop-color="#be7d1e"/>
    </linearGradient>
    <linearGradient gradientTransform="matrix(0.0056, 0.0, 0.0, 0.0043, -24.55, 41.75)" gradientUnits="userSpaceOnUse" id="gradient5" spreadMethod="pad" x1="-819.2" x2="819.2">
      <stop offset="0.011764705882352941" stop-color="#c79829"/>
      <stop offset="1.0" stop-color="#be7d1e"/>
    </linearGradient>
    <g id="shape5" transform="matrix(1.0, 0.0, 0.0, 1.0, -0.05, 0.0)">
      <path d="M41.85 2.3 Q44.05 4.5 44.05 7.6 L44.05 36.4 Q44.05 39.6 41.85 41.8 39.65 44.0 36.45 44.0 L7.65 44.0 Q4.5 44.0 2.3 41.8 0.05 39.6 0.05 36.4 L0.05 7.6 Q0.05 4.5 2.3 2.3 4.5 0.0 7.65 0.0 L36.45 0.0 Q39.6 0.0 41.85 2.3 M40.9 22.05 Q40.9 14.1 35.3 8.6 29.8 3.05 21.9 3.05 13.95 3.05 8.45 8.6 2.9 14.1 2.9 22.05 2.9 29.95 8.45 35.45 13.95 41.1 21.9 41.1 29.8 41.1 35.3 35.45 40.9 29.95 40.9 22.05" fill="url(#gradient6)" fill-rule="evenodd" stroke="none"/>
      <path d="M40.9 22.05 Q40.9 29.95 35.3 35.45 29.8 41.1 21.9 41.1 13.95 41.1 8.45 35.45 2.9 29.95 2.9 22.05 2.9 14.1 8.45 8.6 13.95 3.05 21.9 3.05 29.8 3.05 35.3 8.6 40.9 14.1 40.9 22.05 M33.75 10.35 Q28.8 5.45 21.9 5.4 15.0 5.45 10.15 10.35 5.25 15.15 5.2 22.05 5.25 29.0 10.15 33.85 15.0 38.75 21.9 38.75 28.8 38.75 33.75 33.85 38.55 29.0 38.55 22.05 38.55 15.15 33.75 10.35" fill="url(#gradient7)" fill-rule="evenodd" stroke="none"/>
    </g>
    <linearGradient gradientTransform="matrix(0.0, -0.0258, -0.0551, 0.0, 21.9, 21.85)" gradientUnits="userSpaceOnUse" id="gradient6" spreadMethod="pad" x1="-819.2" x2="819.2">
      <stop offset="0.011764705882352941" stop-color="#dad67d"/>
      <stop offset="1.0" stop-color="#cfa451"/>
    </linearGradient>
    <linearGradient gradientTransform="matrix(0.0, 0.0059, -0.0232, 0.0, 21.9, 18.4)" gradientUnits="userSpaceOnUse" id="gradient7" spreadMethod="pad" x1="-819.2" x2="819.2">
      <stop offset="0.011764705882352941" stop-color="#8d5910"/>
      <stop offset="1.0" stop-color="#d9d597"/>
    </linearGradient>
    <g id="shape6" transform="matrix(1.0, 0.0, 0.0, 1.0, -0.25, -26.05)">
      <path d="M39.9 29.15 L38.3 29.15 38.2 29.35 39.55 30.3 39.0 32.0 39.15 32.15 40.65 31.1 42.05 32.15 Q42.2 32.1 42.3 32.0 L41.75 30.3 43.05 29.35 42.9 29.15 41.35 29.15 40.75 27.6 40.5 27.6 39.9 29.15 M39.1 27.95 L39.55 26.8 39.95 26.3 40.65 26.05 41.3 26.3 41.75 26.85 42.15 27.95 43.3 27.95 Q43.75 27.95 44.0 28.2 L44.2 28.35 44.2 29.95 43.95 30.1 43.1 30.75 43.5 32.1 43.5 32.8 43.05 33.35 42.35 33.55 41.7 33.3 41.45 33.15 41.4 35.7 43.8 36.65 44.2 36.9 43.85 38.8 43.65 38.85 41.1 39.5 40.9 42.45 40.75 42.75 39.5 43.5 39.25 43.45 38.75 43.0 37.25 40.45 34.45 41.2 34.1 41.2 33.25 41.8 33.65 43.15 33.65 43.85 33.55 44.0 31.4 44.0 30.8 43.6 30.15 44.0 27.95 44.0 27.9 43.8 27.9 43.1 28.3 41.8 27.4 41.2 27.0 40.6 Q26.85 40.2 27.0 39.85 L27.4 39.25 28.1 39.05 29.25 39.05 29.7 37.9 30.1 37.35 30.8 37.15 31.45 37.35 31.9 37.95 32.3 39.05 33.45 39.05 35.1 37.05 33.8 34.85 33.65 34.15 33.95 33.45 Q34.15 33.2 34.5 33.15 L35.2 33.2 37.6 34.15 38.3 33.4 38.15 33.3 37.75 32.7 37.75 32.0 38.15 30.75 37.25 30.1 36.85 29.55 Q36.7 29.15 36.85 28.8 L37.25 28.2 Q37.55 27.95 37.95 27.95 L39.1 27.95 M37.95 35.5 L34.8 34.25 36.55 37.2 34.15 40.0 37.8 39.1 39.75 42.35 40.0 38.6 43.4 37.7 40.25 36.45 40.3 33.0 37.95 35.5 M30.9 38.7 L30.65 38.7 30.05 40.2 28.45 40.2 28.35 40.45 29.7 41.35 29.1 43.1 29.3 43.2 30.8 42.15 32.2 43.2 32.45 43.1 31.9 41.35 33.05 40.5 33.0 40.2 31.5 40.2 30.9 38.7" fill="#d1ae5a" fill-rule="evenodd" stroke="none"/>
      <path d="M38.8 29.75 L37.95 29.15 39.9 29.15 40.65 27.2 41.35 29.15 43.3 29.15 42.45 29.75 41.35 29.75 40.65 27.85 39.9 29.75 38.8 29.75 M41.75 30.3 L42.4 32.35 42.1 32.2 41.75 30.9 41.75 30.3 M39.15 32.2 L38.85 32.35 39.55 30.3 39.55 30.9 39.15 32.2 M40.25 36.45 L43.4 37.7 42.4 38.0 40.25 37.05 40.25 36.45 M34.8 39.85 L34.15 40.0 36.55 37.2 36.55 37.8 34.8 39.85 M35.25 35.1 L34.8 34.25 37.95 35.5 40.3 33.0 40.3 33.65 37.95 36.15 35.25 35.1 M32.6 40.85 L31.5 40.85 30.8 38.9 30.05 40.85 28.95 40.85 28.1 40.2 30.05 40.2 30.8 38.3 31.5 40.2 33.45 40.2 32.6 40.85 M29.7 41.35 L29.7 42.0 29.3 43.25 29.0 43.45 29.7 41.35 M32.25 43.25 L31.9 42.0 31.9 41.35 32.55 43.45 32.25 43.25" fill="#674512" fill-rule="evenodd" stroke="none"/>
      <path d="M42.45 29.75 L41.75 30.3 41.75 30.9 42.1 32.2 40.65 31.1 39.15 32.2 39.55 30.9 39.55 30.3 38.8 29.75 39.9 29.75 40.65 27.85 41.35 29.75 42.45 29.75 M40.25 36.45 L40.25 37.05 42.4 38.0 40.0 38.6 39.75 42.35 37.8 39.1 34.8 39.85 36.55 37.8 36.55 37.2 35.25 35.1 37.95 36.15 40.3 33.65 40.25 36.45 M28.95 40.85 L30.05 40.85 30.8 38.9 31.5 40.85 32.6 40.85 31.9 41.35 31.9 42.0 32.25 43.25 30.8 42.15 29.3 43.25 29.7 42.0 29.7 41.35 28.95 40.85" fill="#815815" fill-rule="evenodd" stroke="none"/>
      <path d="M10.5 33.45 L10.8 34.15 10.65 34.85 9.35 37.05 11.0 39.05 12.15 39.05 12.55 37.95 13.0 37.35 13.65 37.15 14.35 37.35 14.75 37.9 15.2 39.05 16.35 39.05 17.05 39.25 17.45 39.85 17.45 40.6 17.05 41.2 16.15 41.8 16.55 43.1 16.55 43.8 16.5 44.0 14.3 44.0 13.65 43.6 13.05 44.0 10.9 44.0 10.8 43.85 10.8 43.15 11.2 41.8 10.35 41.2 10.0 41.2 7.2 40.45 5.7 43.0 5.2 43.45 4.95 43.5 3.7 42.75 3.55 42.45 3.35 39.5 0.8 38.85 0.6 38.8 0.25 36.9 0.65 36.65 3.05 35.7 3.0 33.15 2.75 33.3 2.1 33.55 1.4 33.35 0.95 32.8 0.95 32.1 1.35 30.75 0.5 30.1 0.25 29.95 0.25 28.35 0.45 28.2 Q0.7 27.95 1.15 27.95 L2.3 27.95 2.7 26.85 Q2.8 26.45 3.15 26.3 L3.8 26.05 Q4.15 26.05 4.5 26.3 L4.9 26.8 5.35 27.95 6.5 27.95 7.2 28.2 7.6 28.8 7.6 29.55 7.2 30.1 6.3 30.75 6.7 32.0 6.7 32.7 6.3 33.3 6.15 33.4 6.85 34.15 9.25 33.2 9.95 33.15 10.5 33.45 M11.4 40.5 L12.55 41.35 12.0 43.1 12.25 43.2 13.65 42.15 15.15 43.2 15.35 43.1 14.75 41.35 16.1 40.45 16.0 40.2 14.4 40.2 13.8 38.7 13.55 38.7 12.95 40.2 11.45 40.2 11.4 40.5 M3.95 27.6 L3.7 27.6 3.1 29.15 1.55 29.15 1.4 29.35 2.7 30.3 2.15 32.0 2.4 32.15 3.8 31.1 5.3 32.15 5.45 32.0 4.9 30.3 6.25 29.35 6.15 29.15 4.55 29.15 3.95 27.6 M4.45 38.6 L4.7 42.35 6.65 39.1 10.3 40.0 7.9 37.2 9.65 34.25 6.5 35.5 4.15 33.0 4.2 36.45 1.05 37.7 4.45 38.6" fill="#d1ae5a" fill-rule="evenodd" stroke="none"/>
      <path d="M12.55 41.35 L11.85 40.85 12.95 40.85 13.65 38.9 14.4 40.85 15.5 40.85 14.75 41.35 14.75 42.0 15.15 43.25 13.65 42.15 12.2 43.25 12.55 42.0 12.55 41.35 M2.0 29.75 L3.1 29.75 3.8 27.85 4.55 29.75 5.65 29.75 4.9 30.3 4.9 30.9 5.3 32.2 3.8 31.1 2.35 32.2 2.7 30.9 2.7 30.3 2.0 29.75 M9.2 35.1 L7.9 37.2 7.9 37.8 9.65 39.85 6.65 39.1 4.7 42.35 4.45 38.6 2.05 38.0 4.2 37.05 4.2 36.45 4.15 33.65 6.5 36.15 9.2 35.1" fill="#815815" fill-rule="evenodd" stroke="none"/>
      <path d="M12.55 41.35 L12.55 42.0 12.2 43.25 11.9 43.45 12.55 41.35 M15.15 43.25 L14.75 42.0 14.75 41.35 15.45 43.45 15.15 43.25 M15.5 40.85 L14.4 40.85 13.65 38.9 12.95 40.85 11.85 40.85 11.0 40.2 12.95 40.2 13.65 38.3 14.4 40.2 16.35 40.2 15.5 40.85 M2.0 29.75 L1.15 29.15 3.1 29.15 3.8 27.2 4.55 29.15 6.5 29.15 5.65 29.75 4.55 29.75 3.8 27.85 3.1 29.75 2.0 29.75 M4.9 30.3 L5.6 32.35 5.3 32.2 4.9 30.9 4.9 30.3 M2.35 32.2 L2.05 32.35 2.7 30.3 2.7 30.9 2.35 32.2 M4.15 33.65 L4.15 33.0 6.5 35.5 9.65 34.25 9.2 35.1 6.5 36.15 4.15 33.65 M7.9 37.2 L10.3 40.0 9.65 39.85 7.9 37.8 7.9 37.2 M2.05 38.0 L1.05 37.7 4.2 36.45 4.2 37.05 2.05 38.0" fill="#674512" fill-rule="evenodd" stroke="none"/>
    </g>
  </defs>
</svg>
