<?xml version="1.0" encoding="UTF-8" standalone="no"?>
<svg xmlns:xlink="http://www.w3.org/1999/xlink" height="66.0px" width="66.0px" xmlns="http://www.w3.org/2000/svg">
  <g transform="matrix(1.5, 0.0, 0.0, 1.5, 0.0, 0.15)">
    <use height="40.3" transform="matrix(1.0, 0.0, 0.0, 1.0, 1.6, 2.35)" width="40.35" xlink:href="#shape0"/>
    <use height="0.0" transform="matrix(1.1594, 0.0, 0.0, 1.1594, 5.8, 5.15)" width="0.0" xlink:href="#sprite0"/>
    <use height="44.0" transform="matrix(1.0, 0.0, 0.0, 1.0, 0.0, -0.1)" width="44.0" xlink:href="#shape1"/>
    <use height="0.0" transform="matrix(1.2125, 0.0, 0.0, 1.2125, 1.1, 0.85)" width="0.0" xlink:href="#sprite0"/>
    <use height="17.95" transform="matrix(1.0, 0.0, 0.0, 1.0, 0.0, 25.95)" width="43.95" xlink:href="#shape2"/>
    <use height="0.0" transform="matrix(1.1594, 0.0, 0.0, 1.1594, 5.8, 5.15)" width="0.0" xlink:href="#sprite0"/>
    <use height="44.0" transform="matrix(1.0, 0.0, 0.0, 1.0, 0.0, -0.1)" width="44.0" xlink:href="#shape3"/>
    <use height="0.0" transform="matrix(1.2125, 0.0, 0.0, 1.2125, 1.1, 0.85)" width="0.0" xlink:href="#sprite0"/>
    <use height="17.95" transform="matrix(1.0, 0.0, 0.0, 1.0, 0.0, 25.95)" width="43.95" xlink:href="#shape4"/>
  </g>
  <defs>
    <g id="shape0" transform="matrix(1.0, 0.0, 0.0, 1.0, -1.6, -2.35)">
      <path d="M21.75 2.35 Q30.15 2.35 36.05 8.2 41.95 14.1 41.95 22.5 41.95 30.85 36.05 36.75 30.15 42.65 21.75 42.65 13.45 42.65 7.55 36.75 1.6 30.85 1.6 22.5 1.6 14.1 7.55 8.2 13.45 2.35 21.75 2.35" fill="url(#gradient0)" fill-rule="evenodd" stroke="none"/>
      <path d="M26.8 7.65 Q28.35 8.0 29.1 14.0 35.05 16.0 34.8 17.55 34.55 19.35 29.55 21.7 29.45 27.75 27.9 28.2 26.5 28.6 22.3 24.45 L22.25 24.45 22.2 24.4 Q16.5 25.95 15.5 24.85 14.35 23.7 17.35 18.45 14.15 13.9 14.8 12.2 15.3 10.75 21.55 11.95 25.25 7.15 26.7 7.6 L26.75 7.65 26.8 7.65 M11.95 21.8 Q11.85 20.65 11.25 19.95 10.55 19.1 9.1 18.95 10.25 19.0 11.0 18.45 11.8 17.85 12.0 15.9 11.95 17.75 12.7 18.45 13.45 19.15 14.75 19.1 12.9 19.2 12.45 19.9 11.95 20.6 11.95 21.8 M19.9 30.0 Q21.1 29.05 21.4 26.15 21.3 28.9 22.5 30.0 23.55 31.0 25.55 30.95 22.8 31.1 22.1 32.2 21.3 33.2 21.3 35.0 21.2 33.25 20.3 32.25 19.1 30.9 17.0 30.7 18.7 30.85 19.9 30.0 M14.25 25.75 Q11.5 25.9 10.8 27.0 10.0 28.0 10.0 29.8 9.9 28.05 9.0 27.05 7.8 25.7 5.7 25.5 7.4 25.65 8.6 24.8 9.8 23.85 10.1 20.95 10.0 23.7 11.2 24.8 12.25 25.8 14.25 25.75 M17.05 35.05 Q16.35 34.2 14.9 34.05 16.05 34.1 16.8 33.55 17.6 32.95 17.8 31.0 17.75 32.85 18.5 33.55 19.25 34.25 20.55 34.2 18.7 34.3 18.25 35.0 17.75 35.7 17.75 36.9 17.65 35.75 17.05 35.05 M29.45 36.3 Q29.35 35.15 28.75 34.45 28.05 33.6 26.6 33.45 27.75 33.5 28.5 32.95 29.3 32.35 29.5 30.4 29.45 32.25 30.2 32.95 30.95 33.65 32.25 33.6 30.4 33.7 29.95 34.4 29.45 35.1 29.45 36.3" fill="#92300b" fill-rule="evenodd" stroke="none"/>
    </g>
    <linearGradient gradientTransform="matrix(0.0, -0.0188, -0.0188, 0.0, 21.75, 18.6)" gradientUnits="userSpaceOnUse" id="gradient0" spreadMethod="pad" x1="-819.2" x2="819.2">
      <stop offset="0.011764705882352941" stop-color="#f9cfb3"/>
      <stop offset="1.0" stop-color="#ff5b79"/>
    </linearGradient>
    <g id="shape1" transform="matrix(1.0, 0.0, 0.0, 1.0, 0.0, 0.1)">
      <path d="M41.8 2.2 Q44.0 4.4 44.0 7.5 L44.0 36.3 Q44.0 39.5 41.8 41.7 39.6 43.9 36.4 43.9 L7.6 43.9 Q4.45 43.9 2.25 41.7 0.0 39.5 0.0 36.3 L0.0 7.5 Q0.0 4.4 2.25 2.2 4.45 -0.1 7.6 -0.1 L36.4 -0.1 Q39.55 -0.1 41.8 2.2 M40.85 21.95 Q40.85 14.0 35.25 8.5 29.75 2.95 21.85 2.95 13.9 2.95 8.4 8.5 2.85 14.0 2.85 21.95 2.85 29.85 8.4 35.35 13.9 41.0 21.85 41.0 29.75 41.0 35.25 35.35 40.85 29.85 40.85 21.95" fill="url(#gradient1)" fill-rule="evenodd" stroke="none"/>
      <path d="M40.85 21.95 Q40.85 29.85 35.25 35.35 29.75 41.0 21.85 41.0 13.9 41.0 8.4 35.35 2.85 29.85 2.85 21.95 2.85 14.0 8.4 8.5 13.9 2.95 21.85 2.95 29.75 2.95 35.25 8.5 40.85 14.0 40.85 21.95 M33.7 10.25 Q28.75 5.35 21.85 5.3 14.95 5.35 10.1 10.25 5.2 15.05 5.15 21.95 5.2 28.9 10.1 33.75 14.95 38.65 21.85 38.65 28.75 38.65 33.7 33.75 38.5 28.9 38.5 21.95 38.5 15.05 33.7 10.25" fill="url(#gradient2)" fill-rule="evenodd" stroke="none"/>
    </g>
    <linearGradient gradientTransform="matrix(0.0, -0.0258, -0.0551, 0.0, 21.85, 21.75)" gradientUnits="userSpaceOnUse" id="gradient1" spreadMethod="pad" x1="-819.2" x2="819.2">
      <stop offset="0.011764705882352941" stop-color="#c79829"/>
      <stop offset="1.0" stop-color="#be7d1e"/>
    </linearGradient>
    <linearGradient gradientTransform="matrix(1.0E-4, 0.0223, -0.0232, 1.0E-4, 21.9, 22.2)" gradientUnits="userSpaceOnUse" id="gradient2" spreadMethod="pad" x1="-819.2" x2="819.2">
      <stop offset="0.011764705882352941" stop-color="#8d5910"/>
      <stop offset="1.0" stop-color="#d9d597"/>
    </linearGradient>
    <g id="shape2" transform="matrix(1.0, 0.0, 0.0, 1.0, 0.0, -25.95)">
      <path d="M38.85 27.85 L39.3 26.7 39.7 26.2 Q40.05 25.95 40.4 25.95 L41.05 26.2 41.5 26.75 41.9 27.85 43.05 27.85 43.75 28.1 43.95 28.25 43.95 29.85 43.7 30.0 42.85 30.65 43.25 32.0 43.25 32.7 42.8 33.25 42.1 33.45 41.45 33.2 41.2 33.05 41.15 35.6 43.55 36.55 Q43.75 36.6 43.95 36.8 L43.6 38.7 43.4 38.75 40.85 39.4 40.65 42.35 40.5 42.65 39.25 43.4 39.0 43.35 38.5 42.9 37.0 40.35 34.2 41.1 33.85 41.1 33.0 41.7 33.4 43.05 33.4 43.75 33.3 43.9 31.15 43.9 30.55 43.5 29.9 43.9 27.7 43.9 27.65 43.7 27.65 43.0 28.05 41.7 27.15 41.1 26.75 40.5 Q26.6 40.1 26.75 39.75 L27.15 39.15 27.85 38.95 29.0 38.95 29.45 37.8 Q29.6 37.45 29.85 37.25 L30.55 37.05 31.2 37.25 31.65 37.85 32.05 38.95 33.2 38.95 34.85 36.95 33.55 34.75 33.4 34.05 33.7 33.35 Q33.9 33.1 34.25 33.05 L34.95 33.1 37.35 34.05 38.05 33.3 37.9 33.2 37.5 32.6 37.5 31.9 37.9 30.65 37.0 30.0 36.6 29.45 Q36.45 29.05 36.6 28.7 L37.0 28.1 Q37.3 27.85 37.7 27.85 L38.85 27.85 M30.65 38.6 L30.4 38.6 29.8 40.1 28.2 40.1 28.1 40.35 29.45 41.25 28.85 43.0 29.05 43.1 30.55 42.05 31.95 43.1 32.2 43.0 31.65 41.25 32.8 40.4 32.75 40.1 31.25 40.1 30.65 38.6 M37.7 35.4 L34.55 34.15 36.3 37.1 33.9 39.9 37.55 39.0 39.5 42.25 39.75 38.5 43.15 37.6 40.0 36.35 40.05 32.9 37.7 35.4 M39.65 29.05 L38.05 29.05 37.95 29.25 39.3 30.2 38.75 31.9 38.9 32.05 40.4 31.0 41.8 32.05 42.05 31.9 41.5 30.2 42.8 29.25 42.65 29.05 41.1 29.05 40.5 27.5 40.25 27.5 39.65 29.05" fill="url(#gradient3)" fill-rule="evenodd" stroke="none"/>
      <path d="M42.2 29.65 L41.5 30.2 41.5 30.8 41.85 32.1 40.4 31.0 38.9 32.1 39.3 30.8 39.3 30.2 38.55 29.65 39.65 29.65 40.4 27.75 41.1 29.65 42.2 29.65 M40.0 36.35 L40.0 36.95 42.15 37.9 39.75 38.5 39.5 42.25 37.55 39.0 34.55 39.75 36.3 37.7 36.3 37.1 35.0 35.0 37.7 36.05 40.05 33.55 40.0 36.35 M32.35 40.75 L31.65 41.25 31.65 41.9 32.0 43.15 30.55 42.05 29.05 43.15 29.45 41.9 29.45 41.25 28.7 40.75 29.8 40.75 30.55 38.8 31.25 40.75 32.35 40.75" fill="#815815" fill-rule="evenodd" stroke="none"/>
      <path d="M38.55 29.65 L37.7 29.05 39.65 29.05 40.4 27.1 41.1 29.05 43.05 29.05 42.2 29.65 41.1 29.65 40.4 27.75 39.65 29.65 38.55 29.65 M41.5 30.2 L42.15 32.25 41.85 32.1 41.5 30.8 41.5 30.2 M38.9 32.1 L38.6 32.25 39.3 30.2 39.3 30.8 38.9 32.1 M40.0 36.35 L43.15 37.6 42.15 37.9 40.0 36.95 40.0 36.35 M34.55 39.75 L33.9 39.9 36.3 37.1 36.3 37.7 34.55 39.75 M35.0 35.0 L34.55 34.15 37.7 35.4 40.05 32.9 40.05 33.55 37.7 36.05 35.0 35.0 M28.7 40.75 L27.85 40.1 29.8 40.1 30.55 38.2 31.25 40.1 33.2 40.1 32.35 40.75 31.25 40.75 30.55 38.8 29.8 40.75 28.7 40.75 M31.65 41.25 L32.3 43.35 32.0 43.15 31.65 41.9 31.65 41.25 M29.05 43.15 L28.75 43.35 29.45 41.25 29.45 41.9 29.05 43.15" fill="#674512" fill-rule="evenodd" stroke="none"/>
      <path d="M5.1 27.85 L6.25 27.85 6.95 28.1 7.35 28.7 7.35 29.45 6.95 30.0 6.05 30.65 6.45 31.9 6.45 32.6 6.05 33.2 5.9 33.3 6.6 34.05 9.0 33.1 9.7 33.05 10.25 33.35 10.55 34.05 10.4 34.75 9.1 36.95 10.75 38.95 11.9 38.95 12.3 37.85 Q12.4 37.45 12.75 37.25 L13.4 37.05 14.1 37.25 14.5 37.8 14.95 38.95 16.1 38.95 16.8 39.15 17.2 39.75 17.2 40.5 16.8 41.1 15.9 41.7 16.3 43.0 16.3 43.7 16.25 43.9 14.05 43.9 13.4 43.5 12.8 43.9 10.65 43.9 10.55 43.75 10.55 43.05 10.95 41.7 10.1 41.1 9.75 41.1 6.95 40.35 5.45 42.9 4.95 43.35 4.7 43.4 3.45 42.65 3.3 42.35 3.1 39.4 0.55 38.75 0.35 38.7 0.0 36.8 0.4 36.55 2.8 35.6 2.75 33.05 2.5 33.2 1.85 33.45 Q1.45 33.45 1.15 33.25 L0.7 32.7 0.7 32.0 1.1 30.65 0.25 30.0 0.0 29.85 0.0 28.25 0.2 28.1 0.9 27.85 2.05 27.85 2.45 26.75 Q2.55 26.35 2.9 26.2 L3.55 25.95 Q3.9 25.95 4.25 26.2 L4.65 26.7 5.1 27.85 M4.3 29.05 L3.7 27.5 3.45 27.5 2.85 29.05 1.3 29.05 1.15 29.25 2.45 30.2 1.9 31.9 2.15 32.05 3.55 31.0 5.05 32.05 5.2 31.9 4.65 30.2 6.0 29.25 5.9 29.05 4.3 29.05 M6.25 35.4 L3.9 32.9 3.95 36.35 0.8 37.6 4.2 38.5 4.45 42.25 6.4 39.0 10.05 39.9 7.65 37.1 9.4 34.15 6.25 35.4 M13.3 38.6 L12.7 40.1 11.2 40.1 11.15 40.4 12.3 41.25 11.75 43.0 12.0 43.1 13.4 42.05 14.9 43.1 15.1 43.0 14.5 41.25 15.85 40.35 15.75 40.1 14.15 40.1 13.55 38.6 13.3 38.6" fill="url(#gradient4)" fill-rule="evenodd" stroke="none"/>
      <path d="M1.75 29.65 L0.9 29.05 2.85 29.05 3.55 27.1 4.3 29.05 6.25 29.05 5.4 29.65 4.3 29.65 3.55 27.75 2.85 29.65 1.75 29.65 M4.65 30.2 L5.35 32.25 5.05 32.1 4.65 30.8 4.65 30.2 M2.1 32.1 L1.8 32.25 2.45 30.2 2.45 30.8 2.1 32.1 M3.9 33.55 L3.9 32.9 6.25 35.4 9.4 34.15 8.95 35.0 6.25 36.05 3.9 33.55 M7.65 37.1 L10.05 39.9 9.4 39.75 7.65 37.7 7.65 37.1 M1.8 37.9 L0.8 37.6 3.95 36.35 3.95 36.95 1.8 37.9 M11.6 40.75 L10.75 40.1 12.7 40.1 13.4 38.2 14.15 40.1 16.1 40.1 15.25 40.75 14.15 40.75 13.4 38.8 12.7 40.75 11.6 40.75 M14.5 41.25 L15.2 43.35 14.9 43.15 14.5 41.9 14.5 41.25 M11.95 43.15 L11.65 43.35 12.3 41.25 12.3 41.9 11.95 43.15" fill="#674512" fill-rule="evenodd" stroke="none"/>
      <path d="M1.75 29.65 L2.85 29.65 3.55 27.75 4.3 29.65 5.4 29.65 4.65 30.2 4.65 30.8 5.05 32.1 3.55 31.0 2.1 32.1 2.45 30.8 2.45 30.2 1.75 29.65 M8.95 35.0 L7.65 37.1 7.65 37.7 9.4 39.75 6.4 39.0 4.45 42.25 4.2 38.5 1.8 37.9 3.95 36.95 3.95 36.35 3.9 33.55 6.25 36.05 8.95 35.0 M11.6 40.75 L12.7 40.75 13.4 38.8 14.15 40.75 15.25 40.75 14.5 41.25 14.5 41.9 14.9 43.15 13.4 42.05 11.95 43.15 12.3 41.9 12.3 41.25 11.6 40.75" fill="#815815" fill-rule="evenodd" stroke="none"/>
    </g>
    <linearGradient gradientTransform="matrix(0.0, -0.0258, -0.0551, 0.0, 21.85, 21.75)" gradientUnits="userSpaceOnUse" id="gradient3" spreadMethod="pad" x1="-819.2" x2="819.2">
      <stop offset="0.011764705882352941" stop-color="#c79829"/>
      <stop offset="1.0" stop-color="#be7d1e"/>
    </linearGradient>
    <linearGradient gradientTransform="matrix(0.0, -0.0258, 0.0551, 0.0, 22.05, 21.75)" gradientUnits="userSpaceOnUse" id="gradient4" spreadMethod="pad" x1="-819.2" x2="819.2">
      <stop offset="0.011764705882352941" stop-color="#c79829"/>
      <stop offset="1.0" stop-color="#be7d1e"/>
    </linearGradient>
    <g id="shape3" transform="matrix(1.0, 0.0, 0.0, 1.0, 0.0, 0.1)">
      <path d="M40.85 21.95 Q40.85 14.0 35.25 8.5 29.75 2.95 21.85 2.95 13.9 2.95 8.4 8.5 2.85 14.0 2.85 21.95 2.85 29.85 8.4 35.35 13.9 41.0 21.85 41.0 29.75 41.0 35.25 35.35 40.85 29.85 40.85 21.95 M41.8 2.2 Q44.0 4.4 44.0 7.5 L44.0 36.3 Q44.0 39.5 41.8 41.7 39.6 43.9 36.4 43.9 L7.6 43.9 Q4.45 43.9 2.25 41.7 0.0 39.5 0.0 36.3 L0.0 7.5 Q0.0 4.4 2.25 2.2 4.45 -0.1 7.6 -0.1 L36.4 -0.1 Q39.55 -0.1 41.8 2.2" fill="url(#gradient5)" fill-rule="evenodd" stroke="none"/>
      <path d="M33.7 10.25 Q28.75 5.35 21.85 5.3 14.95 5.35 10.1 10.25 5.2 15.05 5.15 21.95 5.2 28.9 10.1 33.75 14.95 38.65 21.85 38.65 28.75 38.65 33.7 33.75 38.5 28.9 38.5 21.95 38.5 15.05 33.7 10.25 M40.85 21.95 Q40.85 29.85 35.25 35.35 29.75 41.0 21.85 41.0 13.9 41.0 8.4 35.35 2.85 29.85 2.85 21.95 2.85 14.0 8.4 8.5 13.9 2.95 21.85 2.95 29.75 2.95 35.25 8.5 40.85 14.0 40.85 21.95" fill="url(#gradient6)" fill-rule="evenodd" stroke="none"/>
    </g>
    <linearGradient gradientTransform="matrix(0.0, -0.0258, -0.0551, 0.0, 21.85, 21.75)" gradientUnits="userSpaceOnUse" id="gradient5" spreadMethod="pad" x1="-819.2" x2="819.2">
      <stop offset="0.011764705882352941" stop-color="#dad67d"/>
      <stop offset="1.0" stop-color="#cfa451"/>
    </linearGradient>
    <linearGradient gradientTransform="matrix(0.0, 0.0059, -0.0232, 0.0, 21.85, 18.3)" gradientUnits="userSpaceOnUse" id="gradient6" spreadMethod="pad" x1="-819.2" x2="819.2">
      <stop offset="0.011764705882352941" stop-color="#8d5910"/>
      <stop offset="1.0" stop-color="#d9d597"/>
    </linearGradient>
    <g id="shape4" transform="matrix(1.0, 0.0, 0.0, 1.0, 0.0, -26.1)">
      <path d="M41.5 26.9 L41.9 28.0 43.05 28.0 43.75 28.25 43.95 28.4 43.95 30.0 43.7 30.15 42.85 30.8 43.25 32.15 43.25 32.85 42.8 33.4 42.1 33.6 41.45 33.35 41.2 33.2 41.15 35.75 43.55 36.7 Q43.75 36.75 43.95 36.95 L43.6 38.85 43.4 38.9 40.85 39.55 40.65 42.5 40.5 42.8 39.25 43.55 39.0 43.5 38.5 43.05 37.0 40.5 34.2 41.25 33.85 41.25 33.0 41.85 33.4 43.2 33.4 43.9 33.3 44.05 31.15 44.05 30.55 43.65 29.9 44.05 27.7 44.05 27.65 43.85 27.65 43.15 28.05 41.85 27.15 41.25 26.75 40.65 Q26.6 40.25 26.75 39.9 L27.15 39.3 27.85 39.1 29.0 39.1 29.45 37.95 Q29.6 37.6 29.85 37.4 L30.55 37.2 31.2 37.4 31.65 38.0 32.05 39.1 33.2 39.1 34.85 37.1 33.55 34.9 33.4 34.2 33.7 33.5 Q33.9 33.25 34.25 33.2 L34.95 33.25 37.35 34.2 38.05 33.45 37.9 33.35 37.5 32.75 37.5 32.05 37.9 30.8 37.0 30.15 36.6 29.6 Q36.45 29.2 36.6 28.85 L37.0 28.25 Q37.3 28.0 37.7 28.0 L38.85 28.0 39.3 26.85 39.7 26.35 Q40.05 26.1 40.4 26.1 L41.05 26.35 41.5 26.9 M28.2 40.25 L28.1 40.5 29.45 41.4 28.85 43.15 29.05 43.25 30.55 42.2 31.95 43.25 32.2 43.15 31.65 41.4 32.8 40.55 32.75 40.25 31.25 40.25 30.65 38.75 30.4 38.75 29.8 40.25 28.2 40.25 M40.0 36.5 L40.05 33.05 37.7 35.55 34.55 34.3 36.3 37.25 33.9 40.05 37.55 39.15 39.5 42.4 39.75 38.65 43.15 37.75 40.0 36.5 M41.5 30.35 L42.8 29.4 42.65 29.2 41.1 29.2 40.5 27.65 40.25 27.65 39.65 29.2 38.05 29.2 37.95 29.4 39.3 30.35 38.75 32.05 38.9 32.2 40.4 31.15 41.8 32.2 42.05 32.05 41.5 30.35" fill="#d1ae5a" fill-rule="evenodd" stroke="none"/>
      <path d="M42.2 29.8 L41.5 30.35 41.5 30.95 41.85 32.25 40.4 31.15 38.9 32.25 39.3 30.95 39.3 30.35 38.55 29.8 39.65 29.8 40.4 27.9 41.1 29.8 42.2 29.8 M40.0 36.5 L40.0 37.1 42.15 38.05 39.75 38.65 39.5 42.4 37.55 39.15 34.55 39.9 36.3 37.85 36.3 37.25 35.0 35.15 37.7 36.2 40.05 33.7 40.0 36.5 M32.35 40.9 L31.65 41.4 31.65 42.05 32.0 43.3 30.55 42.2 29.05 43.3 29.45 42.05 29.45 41.4 28.7 40.9 29.8 40.9 30.55 38.95 31.25 40.9 32.35 40.9" fill="#815815" fill-rule="evenodd" stroke="none"/>
      <path d="M38.55 29.8 L37.7 29.2 39.65 29.2 40.4 27.25 41.1 29.2 43.05 29.2 42.2 29.8 41.1 29.8 40.4 27.9 39.65 29.8 38.55 29.8 M41.5 30.35 L42.15 32.4 41.85 32.25 41.5 30.95 41.5 30.35 M38.9 32.25 L38.6 32.4 39.3 30.35 39.3 30.95 38.9 32.25 M40.0 36.5 L43.15 37.75 42.15 38.05 40.0 37.1 40.0 36.5 M34.55 39.9 L33.9 40.05 36.3 37.25 36.3 37.85 34.55 39.9 M35.0 35.15 L34.55 34.3 37.7 35.55 40.05 33.05 40.05 33.7 37.7 36.2 35.0 35.15 M28.7 40.9 L27.85 40.25 29.8 40.25 30.55 38.35 31.25 40.25 33.2 40.25 32.35 40.9 31.25 40.9 30.55 38.95 29.8 40.9 28.7 40.9 M31.65 41.4 L32.3 43.5 32.0 43.3 31.65 42.05 31.65 41.4 M29.05 43.3 L28.75 43.5 29.45 41.4 29.45 42.05 29.05 43.3" fill="#674512" fill-rule="evenodd" stroke="none"/>
      <path d="M10.55 34.2 L10.4 34.9 9.1 37.1 10.75 39.1 11.9 39.1 12.3 38.0 Q12.4 37.6 12.75 37.4 L13.4 37.2 14.1 37.4 14.5 37.95 14.95 39.1 16.1 39.1 16.8 39.3 17.2 39.9 17.2 40.65 16.8 41.25 15.9 41.85 16.3 43.15 16.3 43.85 16.25 44.05 14.05 44.05 13.4 43.65 12.8 44.05 10.65 44.05 10.55 43.9 10.55 43.2 10.95 41.85 10.1 41.25 9.75 41.25 6.95 40.5 5.45 43.05 4.95 43.5 4.7 43.55 3.45 42.8 3.3 42.5 3.1 39.55 0.55 38.9 0.35 38.85 0.0 36.95 0.4 36.7 2.8 35.75 2.75 33.2 2.5 33.35 1.85 33.6 Q1.45 33.6 1.15 33.4 L0.7 32.85 0.7 32.15 1.1 30.8 0.25 30.15 0.0 30.0 0.0 28.4 0.2 28.25 0.9 28.0 2.05 28.0 2.45 26.9 Q2.55 26.5 2.9 26.35 L3.55 26.1 Q3.9 26.1 4.25 26.35 L4.65 26.85 5.1 28.0 6.25 28.0 6.95 28.25 7.35 28.85 7.35 29.6 6.95 30.15 6.05 30.8 6.45 32.05 6.45 32.75 6.05 33.35 5.9 33.45 6.6 34.2 9.0 33.25 9.7 33.2 10.25 33.5 10.55 34.2 M5.9 29.2 L4.3 29.2 3.7 27.65 3.45 27.65 2.85 29.2 1.3 29.2 1.15 29.4 2.45 30.35 1.9 32.05 2.15 32.2 3.55 31.15 5.05 32.2 5.2 32.05 4.65 30.35 6.0 29.4 5.9 29.2 M3.95 36.5 L0.8 37.75 4.2 38.65 4.45 42.4 6.4 39.15 10.05 40.05 7.65 37.25 9.4 34.3 6.25 35.55 3.9 33.05 3.95 36.5 M15.75 40.25 L14.15 40.25 13.55 38.75 13.3 38.75 12.7 40.25 11.2 40.25 11.15 40.55 12.3 41.4 11.75 43.15 12.0 43.25 13.4 42.2 14.9 43.25 15.1 43.15 14.5 41.4 15.85 40.5 15.75 40.25" fill="#d1ae5a" fill-rule="evenodd" stroke="none"/>
      <path d="M1.75 29.8 L0.9 29.2 2.85 29.2 3.55 27.25 4.3 29.2 6.25 29.2 5.4 29.8 4.3 29.8 3.55 27.9 2.85 29.8 1.75 29.8 M4.65 30.35 L5.35 32.4 5.05 32.25 4.65 30.95 4.65 30.35 M2.1 32.25 L1.8 32.4 2.45 30.35 2.45 30.95 2.1 32.25 M3.9 33.7 L3.9 33.05 6.25 35.55 9.4 34.3 8.95 35.15 6.25 36.2 3.9 33.7 M7.65 37.25 L10.05 40.05 9.4 39.9 7.65 37.85 7.65 37.25 M1.8 38.05 L0.8 37.75 3.95 36.5 3.95 37.1 1.8 38.05 M11.6 40.9 L10.75 40.25 12.7 40.25 13.4 38.35 14.15 40.25 16.1 40.25 15.25 40.9 14.15 40.9 13.4 38.95 12.7 40.9 11.6 40.9 M14.5 41.4 L15.2 43.5 14.9 43.3 14.5 42.05 14.5 41.4 M11.95 43.3 L11.65 43.5 12.3 41.4 12.3 42.05 11.95 43.3" fill="#674512" fill-rule="evenodd" stroke="none"/>
      <path d="M1.75 29.8 L2.85 29.8 3.55 27.9 4.3 29.8 5.4 29.8 4.65 30.35 4.65 30.95 5.05 32.25 3.55 31.15 2.1 32.25 2.45 30.95 2.45 30.35 1.75 29.8 M3.95 36.5 L3.9 33.7 6.25 36.2 8.95 35.15 7.65 37.25 7.65 37.85 9.4 39.9 6.4 39.15 4.45 42.4 4.2 38.65 1.8 38.05 3.95 37.1 3.95 36.5 M11.6 40.9 L12.7 40.9 13.4 38.95 14.15 40.9 15.25 40.9 14.5 41.4 14.5 42.05 14.9 43.3 13.4 42.2 11.95 43.3 12.3 42.05 12.3 41.4 11.6 40.9" fill="#815815" fill-rule="evenodd" stroke="none"/>
    </g>
  </defs>
</svg>
