<?xml version="1.0" encoding="UTF-8" standalone="no"?>
<svg xmlns:xlink="http://www.w3.org/1999/xlink" height="66.0px" width="66.15px" xmlns="http://www.w3.org/2000/svg">
  <g transform="matrix(1.5, 0.0, 0.0, 1.5, -0.15, 0.0)">
    <use height="37.55" transform="matrix(1.0, 0.0, 0.0, 1.0, 3.6, 3.05)" width="37.2" xlink:href="#shape0"/>
    <use height="20.15" transform="matrix(1.1594, 0.0, 0.0, 1.1594, 6.0, 5.25)" width="28.2" xlink:href="#sprite0"/>
    <use height="44.0" transform="matrix(1.0, 0.0, 0.0, 1.0, 0.1, 0.0)" width="44.0" xlink:href="#shape2"/>
    <use height="8.6" transform="matrix(1.2125, 0.0, 0.0, 1.2125, 0.9575, 0.85)" width="35.05" xlink:href="#sprite1"/>
    <use height="44.0" transform="matrix(1.0, 0.0, 0.0, 1.0, 0.15, 0.0)" width="44.05" xlink:href="#shape4"/>
    <use height="8.6" transform="matrix(1.2125, 0.0, 0.0, 1.2125, 1.0575, 0.95)" width="35.05" xlink:href="#sprite1"/>
    <use height="17.95" transform="matrix(1.0, 0.0, 0.0, 1.0, 0.2, 26.05)" width="43.95" xlink:href="#shape5"/>
  </g>
  <defs>
    <g id="shape0" transform="matrix(1.0, 0.0, 0.0, 1.0, -3.6, -3.05)">
      <path d="M3.6 22.05 Q3.6 14.35 9.05 8.95 14.5 3.5 22.25 3.5 29.95 3.5 35.4 8.95 40.8 14.4 40.8 22.05 40.8 29.75 35.4 35.2 29.95 40.6 22.25 40.6 14.5 40.6 9.05 35.2 3.6 29.75 3.6 22.05" fill="url(#gradient0)" fill-rule="evenodd" stroke="none"/>
      <path d="M34.55 8.3 Q39.75 13.55 39.75 20.9 39.75 28.3 34.55 33.6 29.35 38.8 21.95 38.8 14.5 38.8 9.3 33.6 4.1 28.3 4.1 20.9 4.1 13.55 9.3 8.3 14.6 3.05 21.95 3.05 29.35 3.05 34.55 8.3" fill="url(#gradient1)" fill-rule="evenodd" stroke="none"/>
      <path d="M23.4 15.3 L23.3 24.3 24.65 27.0 23.55 27.05 25.6 30.4 24.25 30.4 26.35 35.05 22.4 32.3 18.45 34.9 20.55 30.45 19.2 30.45 21.3 27.0 20.1 27.05 21.4 24.25 21.45 15.35 19.25 16.0 22.4 7.8 25.4 16.0 23.4 15.3" fill="#4a3355" fill-rule="evenodd" stroke="none"/>
      <path d="M15.9 26.25 L8.8 29.7 13.65 24.85 Q15.8 23.55 15.9 26.25 M17.05 28.85 L17.05 29.6 12.35 33.3 14.75 28.6 15.45 28.15 16.35 28.2 17.05 28.85 M18.65 30.7 L18.85 31.45 18.8 31.7 17.1 33.15 17.85 31.2 18.65 30.7" fill="#4a3355" fill-rule="evenodd" stroke="none"/>
      <path d="M25.8 31.15 L26.05 30.4 26.8 30.9 27.55 32.85 25.85 31.4 25.8 31.15 M28.8 25.95 Q28.85 23.25 31.05 24.55 L35.85 29.4 28.8 25.95 M27.6 28.55 L28.35 27.9 29.2 27.85 29.95 28.3 32.3 33.0 27.6 29.3 27.6 28.55" fill="#4a3355" fill-rule="evenodd" stroke="none"/>
    </g>
    <linearGradient gradientTransform="matrix(0.0, -0.017, -0.0173, 0.0, 21.2, 26.95)" gradientUnits="userSpaceOnUse" id="gradient0" spreadMethod="pad" x1="-819.2" x2="819.2">
      <stop offset="0.011764705882352941" stop-color="#dad67d"/>
      <stop offset="1.0" stop-color="#cfa451"/>
    </linearGradient>
    <linearGradient gradientTransform="matrix(0.0, -0.0167, -0.0167, 0.0, 21.95, 17.55)" gradientUnits="userSpaceOnUse" id="gradient1" spreadMethod="pad" x1="-819.2" x2="819.2">
      <stop offset="0.011764705882352941" stop-color="#bcb9ae"/>
      <stop offset="1.0" stop-color="#9b5b79"/>
    </linearGradient>
    <g id="sprite0" transform="matrix(1.0, 0.0, 0.0, 1.0, 0.0, 0.0)">
      <use height="20.15" transform="matrix(1.0, 0.0, 0.0, 1.0, 0.0, 0.0)" width="28.2" xlink:href="#shape1"/>
    </g>
    <g id="shape1" transform="matrix(1.0, 0.0, 0.0, 1.0, 0.0, 0.0)">
      <path d="M27.65 18.45 L27.4 18.95 Q26.2 20.8 23.4 19.8 19.6 18.5 17.35 14.05 14.8 9.1 9.75 7.4 4.1 5.65 0.0 10.3 1.0 6.85 3.7 4.15 7.2 0.65 11.9 0.05 L14.8 0.05 18.4 0.65 Q21.55 1.65 24.05 4.15 28.2 8.3 28.2 14.25 28.2 16.45 27.65 18.45" fill="#ffffff" fill-opacity="0.19607843" fill-rule="evenodd" stroke="none"/>
    </g>
    <g id="shape2" transform="matrix(1.0, 0.0, 0.0, 1.0, -0.1, 0.0)">
      <path d="M36.45 8.75 Q42.4 13.15 42.4 19.4 42.4 25.25 37.2 29.45 L23.9 4.45 Q31.15 4.85 36.45 8.75 M1.65 19.4 Q1.65 13.15 7.6 8.75 13.0 4.8 20.45 4.45 L7.1 29.6 Q1.65 25.35 1.65 19.4" fill="#4a3355" fill-rule="evenodd" stroke="none"/>
      <path d="M44.1 7.6 L44.1 36.4 Q44.1 39.6 41.9 41.8 39.7 44.0 36.5 44.0 L7.7 44.0 Q4.55 44.0 2.35 41.8 0.1 39.6 0.1 36.4 L0.1 7.6 Q0.1 4.5 2.35 2.3 4.55 0.0 7.7 0.0 L36.5 0.0 Q39.65 0.0 41.9 2.3 44.1 4.5 44.1 7.6 M41.0 22.05 Q41.0 14.1 35.35 8.6 29.85 3.05 21.95 3.05 14.0 3.05 8.5 8.6 2.95 14.1 2.95 22.05 2.95 29.95 8.5 35.45 14.0 41.1 21.95 41.1 29.85 41.1 35.35 35.45 41.0 29.95 41.0 22.05" fill="url(#gradient2)" fill-rule="evenodd" stroke="none"/>
      <path d="M41.0 22.05 Q41.0 29.95 35.35 35.45 29.85 41.1 21.95 41.1 14.0 41.1 8.5 35.45 2.95 29.95 2.95 22.05 2.95 14.1 8.5 8.6 14.0 3.05 21.95 3.05 29.85 3.05 35.35 8.6 41.0 14.1 41.0 22.05 M33.8 10.35 Q28.85 5.45 21.95 5.4 15.05 5.45 10.2 10.35 5.35 15.15 5.25 22.05 5.35 29.0 10.2 33.85 15.05 38.75 21.95 38.75 28.85 38.75 33.8 33.85 38.6 29.0 38.6 22.05 38.6 15.15 33.8 10.35" fill="url(#gradient3)" fill-rule="evenodd" stroke="none"/>
    </g>
    <linearGradient gradientTransform="matrix(0.0, -0.0258, -0.0551, 0.0, 21.95, 21.85)" gradientUnits="userSpaceOnUse" id="gradient2" spreadMethod="pad" x1="-819.2" x2="819.2">
      <stop offset="0.011764705882352941" stop-color="#c79829"/>
      <stop offset="1.0" stop-color="#be7d1e"/>
    </linearGradient>
    <linearGradient gradientTransform="matrix(1.0E-4, 0.0223, -0.0232, 1.0E-4, 22.0, 22.3)" gradientUnits="userSpaceOnUse" id="gradient3" spreadMethod="pad" x1="-819.2" x2="819.2">
      <stop offset="0.011764705882352941" stop-color="#8d5910"/>
      <stop offset="1.0" stop-color="#d9d597"/>
    </linearGradient>
    <g id="sprite1" transform="matrix(1.0, 0.0, 0.0, 1.0, 0.2, 0.0)">
      <use height="8.6" transform="matrix(1.0, 0.0, 0.0, 1.0, -0.2, 0.0)" width="35.05" xlink:href="#shape3"/>
    </g>
    <g id="shape3" transform="matrix(1.0, 0.0, 0.0, 1.0, 0.2, 0.0)">
      <path d="M34.4 4.4 Q34.85 5.8 34.85 7.65 L34.85 8.6 Q34.8 6.95 34.4 5.7 33.0 1.3 27.2 1.3 L7.45 1.3 Q0.05 1.3 -0.2 8.5 L-0.2 7.65 Q-0.2 0.0 7.45 0.0 L27.2 0.0 Q33.0 0.0 34.4 4.4" fill="#e7deda" fill-rule="evenodd" stroke="none"/>
    </g>
    <g id="shape4" transform="matrix(1.0, 0.0, 0.0, 1.0, -0.15, 0.0)">
      <path d="M38.95 27.95 L39.45 26.8 39.85 26.25 40.55 26.05 41.15 26.25 41.65 26.85 42.05 27.95 43.2 27.95 43.9 28.2 44.05 28.35 44.05 29.9 43.85 30.1 42.95 30.75 43.35 32.05 43.35 32.75 42.9 33.35 42.2 33.5 41.6 33.3 41.35 33.1 41.3 35.65 43.65 36.65 44.05 36.85 43.7 38.8 43.55 38.85 41.0 39.5 40.75 42.45 40.65 42.75 39.35 43.5 39.15 43.4 Q38.8 43.25 38.6 42.95 L37.1 40.4 34.35 41.15 34.0 41.15 33.1 41.8 33.5 43.15 33.5 43.85 33.4 44.0 31.25 44.0 30.7 43.6 30.05 44.0 27.85 44.0 27.8 43.75 Q27.65 43.4 27.8 43.05 L28.2 41.8 27.25 41.15 26.85 40.6 26.85 39.85 27.25 39.25 Q27.55 39.0 27.95 39.0 L29.1 39.0 29.6 37.85 30.0 37.35 Q30.35 37.1 30.7 37.1 L31.3 37.35 31.8 37.9 32.2 39.0 33.35 39.0 34.95 37.05 33.7 34.85 33.5 34.15 33.8 33.45 Q34.05 33.15 34.4 33.1 L35.1 33.15 37.45 34.15 38.15 33.4 38.05 33.3 37.65 32.7 Q37.5 32.35 37.65 32.0 L38.05 30.75 37.1 30.1 36.7 29.5 36.7 28.75 37.1 28.2 37.8 27.95 38.95 27.95 M30.8 38.65 L30.5 38.65 29.95 40.2 28.3 40.2 28.25 40.4 29.6 41.35 29.0 43.05 29.15 43.2 30.7 42.15 32.05 43.2 32.3 43.05 31.8 41.35 32.95 40.45 32.9 40.2 31.35 40.2 30.8 38.65 M37.8 35.5 L34.7 34.2 36.4 37.15 34.05 40.0 37.7 39.05 39.6 42.3 39.9 38.55 43.25 37.7 40.15 36.4 40.2 33.0 37.8 35.5 M39.8 29.1 L38.15 29.1 38.1 29.35 39.45 30.25 38.85 32.0 39.05 32.1 40.55 31.05 41.95 32.1 42.15 32.0 41.65 30.25 42.9 29.35 42.8 29.1 41.25 29.1 40.65 27.6 40.35 27.6 39.8 29.1" fill="url(#gradient4)" fill-rule="evenodd" stroke="none"/>
      <path d="M38.7 29.75 L37.8 29.1 39.8 29.1 40.55 27.2 41.25 29.1 43.2 29.1 42.35 29.75 41.25 29.75 40.55 27.85 39.8 29.75 38.7 29.75 M41.65 30.25 L42.25 32.35 42.0 32.2 41.65 30.9 41.65 30.25 M39.05 32.2 L38.75 32.35 39.45 30.25 39.45 30.9 39.05 32.2 M40.15 36.4 L43.25 37.7 42.25 37.95 40.15 37.05 40.15 36.4 M34.7 39.85 L34.05 40.0 36.4 37.15 36.4 37.8 34.7 39.85 M35.15 35.05 L34.7 34.2 37.8 35.5 40.2 33.0 40.2 33.6 37.8 36.1 35.15 35.05 M32.15 43.25 L31.8 41.95 31.8 41.35 32.4 43.4 32.15 43.25 M32.5 40.8 L31.35 40.8 30.7 38.9 29.95 40.8 28.8 40.8 27.95 40.2 29.95 40.2 30.7 38.25 31.35 40.2 33.35 40.2 32.5 40.8 M29.6 41.35 L29.6 41.95 29.15 43.25 28.9 43.4 29.6 41.35" fill="#674512" fill-rule="evenodd" stroke="none"/>
      <path d="M42.35 29.75 L41.65 30.25 41.65 30.9 42.0 32.2 40.55 31.05 39.05 32.2 39.45 30.9 39.45 30.25 38.7 29.75 39.8 29.75 40.55 27.85 41.25 29.75 42.35 29.75 M40.15 36.4 L40.15 37.05 42.25 37.95 39.9 38.55 39.6 42.3 37.7 39.05 34.7 39.85 36.4 37.8 36.4 37.15 35.15 35.05 37.8 36.1 40.2 33.6 40.15 36.4 M31.8 41.35 L31.8 41.95 32.15 43.25 30.7 42.15 29.15 43.25 29.6 41.95 29.6 41.35 28.8 40.8 29.95 40.8 30.7 38.9 31.35 40.8 32.5 40.8 31.8 41.35" fill="#815815" fill-rule="evenodd" stroke="none"/>
      <path d="M5.25 27.95 L4.75 26.8 4.35 26.25 3.65 26.05 3.05 26.25 2.55 26.85 2.15 27.95 1.0 27.95 Q0.6 27.95 0.3 28.2 L0.15 28.35 0.15 29.9 0.35 30.1 1.25 30.75 0.85 32.05 Q0.7 32.4 0.85 32.75 L1.3 33.35 2.0 33.5 2.6 33.3 2.85 33.1 2.9 35.65 0.55 36.65 0.15 36.85 0.5 38.8 0.65 38.85 3.2 39.5 3.45 42.45 3.55 42.75 Q4.15 43.2 4.85 43.5 L5.05 43.4 5.6 42.95 7.1 40.4 9.85 41.15 10.2 41.15 11.1 41.8 10.7 43.15 Q10.55 43.5 10.7 43.85 L10.8 44.0 12.95 44.0 13.5 43.6 14.15 44.0 16.35 44.0 16.4 43.75 16.4 43.05 16.0 41.8 16.95 41.15 17.35 40.6 17.35 39.85 16.95 39.25 16.25 39.0 15.1 39.0 14.6 37.85 14.2 37.35 13.5 37.1 Q13.15 37.1 12.9 37.35 L12.4 37.9 12.0 39.0 10.85 39.0 9.25 37.05 10.5 34.85 10.7 34.15 10.4 33.45 9.8 33.1 9.1 33.15 6.75 34.15 6.05 33.4 6.15 33.3 6.55 32.7 6.55 32.0 6.15 30.75 7.1 30.1 7.5 29.5 7.5 28.75 7.1 28.2 6.4 27.95 5.25 27.95 M13.4 38.65 L13.7 38.65 14.25 40.2 15.9 40.2 15.95 40.4 14.6 41.35 15.2 43.05 15.05 43.2 13.5 42.15 12.15 43.2 11.9 43.05 12.4 41.35 11.25 40.45 11.3 40.2 12.85 40.2 13.4 38.65 M6.4 35.5 L9.5 34.2 7.8 37.15 10.15 40.0 6.5 39.05 4.6 42.3 4.3 38.55 0.95 37.7 4.05 36.4 4.0 33.0 6.4 35.5 M4.4 29.1 L6.05 29.1 6.1 29.35 4.75 30.25 5.35 32.0 5.15 32.1 3.65 31.05 2.25 32.1 2.05 32.0 2.55 30.25 1.3 29.35 1.4 29.1 2.95 29.1 3.55 27.6 3.85 27.6 4.4 29.1" fill="url(#gradient5)" fill-rule="evenodd" stroke="none"/>
      <path d="M5.5 29.75 L6.4 29.1 4.4 29.1 3.65 27.2 2.95 29.1 1.0 29.1 1.85 29.75 2.95 29.75 3.65 27.85 4.4 29.75 5.5 29.75 M2.55 30.25 L1.95 32.35 2.2 32.2 2.55 30.9 2.55 30.25 M5.15 32.2 L5.45 32.35 4.75 30.25 4.75 30.9 5.15 32.2 M4.05 36.4 L0.95 37.7 1.95 37.95 4.05 37.05 4.05 36.4 M9.5 39.85 L10.15 40.0 7.8 37.15 7.8 37.8 9.5 39.85 M9.05 35.05 L9.5 34.2 6.4 35.5 4.0 33.0 4.0 33.6 6.4 36.1 9.05 35.05 M15.4 40.8 L16.25 40.2 14.25 40.2 13.5 38.25 12.85 40.2 10.85 40.2 11.7 40.8 12.85 40.8 13.5 38.9 14.25 40.8 15.4 40.8 M12.4 41.35 L11.8 43.4 12.05 43.25 12.4 41.95 12.4 41.35 M15.05 43.25 L15.3 43.4 14.6 41.35 14.6 41.95 15.05 43.25" fill="#674512" fill-rule="evenodd" stroke="none"/>
      <path d="M1.85 29.75 L2.55 30.25 2.55 30.9 2.2 32.2 3.65 31.05 5.15 32.2 4.75 30.9 4.75 30.25 5.5 29.75 4.4 29.75 3.65 27.85 2.95 29.75 1.85 29.75 M4.05 36.4 L4.05 37.05 1.95 37.95 4.3 38.55 4.6 42.3 6.5 39.05 9.5 39.85 7.8 37.8 7.8 37.15 9.05 35.05 6.4 36.1 4.0 33.6 4.05 36.4 M11.7 40.8 L12.4 41.35 12.4 41.95 12.05 43.25 13.5 42.15 15.05 43.25 14.6 41.95 14.6 41.35 15.4 40.8 14.25 40.8 13.5 38.9 12.85 40.8 11.7 40.8" fill="#815815" fill-rule="evenodd" stroke="none"/>
      <path d="M42.0 2.3 Q44.2 4.5 44.2 7.6 L44.2 36.4 Q44.2 39.6 42.0 41.8 39.8 44.0 36.6 44.0 L7.8 44.0 Q4.65 44.0 2.45 41.8 0.2 39.6 0.2 36.4 L0.2 7.6 Q0.2 4.5 2.45 2.3 4.65 0.0 7.8 0.0 L36.6 0.0 Q39.75 0.0 42.0 2.3 M41.05 22.05 Q41.05 14.1 35.45 8.6 29.95 3.05 22.05 3.05 14.1 3.05 8.6 8.6 3.05 14.1 3.05 22.05 3.05 29.95 8.6 35.45 14.1 41.1 22.05 41.1 29.95 41.1 35.45 35.45 41.05 29.95 41.05 22.05" fill="url(#gradient6)" fill-rule="evenodd" stroke="none"/>
      <path d="M41.05 22.05 Q41.05 29.95 35.45 35.45 29.95 41.1 22.05 41.1 14.1 41.1 8.6 35.45 3.05 29.95 3.05 22.05 3.05 14.1 8.6 8.6 14.1 3.05 22.05 3.05 29.95 3.05 35.45 8.6 41.05 14.1 41.05 22.05 M33.9 10.35 Q28.95 5.45 22.05 5.4 15.15 5.45 10.3 10.35 5.4 15.15 5.35 22.05 5.4 29.0 10.3 33.85 15.15 38.75 22.05 38.75 28.95 38.75 33.9 33.85 38.7 29.0 38.7 22.05 38.7 15.15 33.9 10.35" fill="url(#gradient7)" fill-rule="evenodd" stroke="none"/>
    </g>
    <linearGradient gradientTransform="matrix(0.0, -0.0257, -0.0551, 0.0, 21.9, 21.75)" gradientUnits="userSpaceOnUse" id="gradient4" spreadMethod="pad" x1="-819.2" x2="819.2">
      <stop offset="0.011764705882352941" stop-color="#c79829"/>
      <stop offset="1.0" stop-color="#be7d1e"/>
    </linearGradient>
    <linearGradient gradientTransform="matrix(0.0, -0.0257, 0.0551, 0.0, 22.25, 21.75)" gradientUnits="userSpaceOnUse" id="gradient5" spreadMethod="pad" x1="-819.2" x2="819.2">
      <stop offset="0.011764705882352941" stop-color="#c79829"/>
      <stop offset="1.0" stop-color="#be7d1e"/>
    </linearGradient>
    <linearGradient gradientTransform="matrix(0.0, -0.0258, -0.0551, 0.0, 22.05, 21.85)" gradientUnits="userSpaceOnUse" id="gradient6" spreadMethod="pad" x1="-819.2" x2="819.2">
      <stop offset="0.011764705882352941" stop-color="#dad67d"/>
      <stop offset="1.0" stop-color="#cfa451"/>
    </linearGradient>
    <linearGradient gradientTransform="matrix(0.0, 0.0059, -0.0232, 0.0, 22.05, 18.4)" gradientUnits="userSpaceOnUse" id="gradient7" spreadMethod="pad" x1="-819.2" x2="819.2">
      <stop offset="0.011764705882352941" stop-color="#8d5910"/>
      <stop offset="1.0" stop-color="#d9d597"/>
    </linearGradient>
    <g id="shape5" transform="matrix(1.0, 0.0, 0.0, 1.0, 0.0, -26.05)">
      <path d="M39.65 29.15 L38.05 29.15 37.95 29.35 39.3 30.3 38.75 32.0 38.9 32.15 40.4 31.1 41.8 32.15 42.05 32.0 41.5 30.3 42.8 29.35 42.65 29.15 41.1 29.15 40.5 27.6 40.25 27.6 39.65 29.15 M38.85 27.95 L39.3 26.8 39.7 26.3 Q40.05 26.05 40.4 26.05 L41.05 26.3 41.5 26.85 41.9 27.95 43.05 27.95 43.75 28.2 43.95 28.35 43.95 29.95 43.7 30.1 42.85 30.75 43.25 32.1 43.25 32.8 42.8 33.35 42.1 33.55 41.45 33.3 41.2 33.15 41.15 35.7 43.55 36.65 Q43.75 36.7 43.95 36.9 L43.6 38.8 43.4 38.85 40.85 39.5 40.65 42.45 40.5 42.75 39.25 43.5 39.0 43.45 38.5 43.0 37.0 40.45 34.2 41.2 33.85 41.2 33.0 41.8 33.4 43.15 33.4 43.85 33.3 44.0 31.15 44.0 30.55 43.6 29.9 44.0 27.7 44.0 27.65 43.8 27.65 43.1 28.05 41.8 27.15 41.2 26.75 40.6 Q26.6 40.2 26.75 39.85 L27.15 39.25 27.85 39.05 29.0 39.05 29.45 37.9 Q29.6 37.55 29.85 37.35 L30.55 37.15 31.2 37.35 31.65 37.95 32.05 39.05 33.2 39.05 34.85 37.05 33.55 34.85 33.4 34.15 33.7 33.45 Q33.9 33.2 34.25 33.15 L34.95 33.2 37.35 34.15 38.05 33.4 37.9 33.3 37.5 32.7 37.5 32.0 37.9 30.75 37.0 30.1 36.6 29.55 Q36.45 29.15 36.6 28.8 L37.0 28.2 Q37.3 27.95 37.7 27.95 L38.85 27.95 M37.7 35.5 L34.55 34.25 36.3 37.2 33.9 40.0 37.55 39.1 39.5 42.35 39.75 38.6 43.15 37.7 40.0 36.45 40.05 33.0 37.7 35.5 M30.65 38.7 L30.4 38.7 29.8 40.2 28.2 40.2 28.1 40.45 29.45 41.35 28.85 43.1 29.05 43.2 30.55 42.15 31.95 43.2 32.2 43.1 31.65 41.35 32.8 40.5 32.75 40.2 31.25 40.2 30.65 38.7" fill="#d1ae5a" fill-rule="evenodd" stroke="none"/>
      <path d="M38.55 29.75 L37.7 29.15 39.65 29.15 40.4 27.2 41.1 29.15 43.05 29.15 42.2 29.75 41.1 29.75 40.4 27.85 39.65 29.75 38.55 29.75 M41.5 30.3 L42.15 32.35 41.85 32.2 41.5 30.9 41.5 30.3 M38.9 32.2 L38.6 32.35 39.3 30.3 39.3 30.9 38.9 32.2 M40.0 36.45 L43.15 37.7 42.15 38.0 40.0 37.05 40.0 36.45 M34.55 39.85 L33.9 40.0 36.3 37.2 36.3 37.8 34.55 39.85 M35.0 35.1 L34.55 34.25 37.7 35.5 40.05 33.0 40.05 33.65 37.7 36.15 35.0 35.1 M32.35 40.85 L31.25 40.85 30.55 38.9 29.8 40.85 28.7 40.85 27.85 40.2 29.8 40.2 30.55 38.3 31.25 40.2 33.2 40.2 32.35 40.85 M29.45 41.35 L29.45 42.0 29.05 43.25 28.75 43.45 29.45 41.35 M32.0 43.25 L31.65 42.0 31.65 41.35 32.3 43.45 32.0 43.25" fill="#674512" fill-rule="evenodd" stroke="none"/>
      <path d="M42.2 29.75 L41.5 30.3 41.5 30.9 41.85 32.2 40.4 31.1 38.9 32.2 39.3 30.9 39.3 30.3 38.55 29.75 39.65 29.75 40.4 27.85 41.1 29.75 42.2 29.75 M40.0 36.45 L40.0 37.05 42.15 38.0 39.75 38.6 39.5 42.35 37.55 39.1 34.55 39.85 36.3 37.8 36.3 37.2 35.0 35.1 37.7 36.15 40.05 33.65 40.0 36.45 M32.35 40.85 L31.65 41.35 31.65 42.0 32.0 43.25 30.55 42.15 29.05 43.25 29.45 42.0 29.45 41.35 28.7 40.85 29.8 40.85 30.55 38.9 31.25 40.85 32.35 40.85" fill="#815815" fill-rule="evenodd" stroke="none"/>
      <path d="M10.25 33.45 L10.55 34.15 10.4 34.85 9.1 37.05 10.75 39.05 11.9 39.05 12.3 37.95 Q12.4 37.55 12.75 37.35 L13.4 37.15 14.1 37.35 14.5 37.9 14.95 39.05 16.1 39.05 16.8 39.25 17.2 39.85 17.2 40.6 16.8 41.2 15.9 41.8 16.3 43.1 16.3 43.8 16.25 44.0 14.05 44.0 13.4 43.6 12.8 44.0 10.65 44.0 10.55 43.85 10.55 43.15 10.95 41.8 10.1 41.2 9.75 41.2 6.95 40.45 5.45 43.0 4.95 43.45 4.7 43.5 3.45 42.75 3.3 42.45 3.1 39.5 0.55 38.85 0.35 38.8 0.0 36.9 0.4 36.65 2.8 35.7 2.75 33.15 2.5 33.3 1.85 33.55 Q1.45 33.55 1.15 33.35 L0.7 32.8 0.7 32.1 1.1 30.75 0.25 30.1 0.0 29.95 0.0 28.35 0.2 28.2 0.9 27.95 2.05 27.95 2.45 26.85 Q2.55 26.45 2.9 26.3 L3.55 26.05 Q3.9 26.05 4.25 26.3 L4.65 26.8 5.1 27.95 6.25 27.95 6.95 28.2 7.35 28.8 7.35 29.55 6.95 30.1 6.05 30.75 6.45 32.0 6.45 32.7 6.05 33.3 5.9 33.4 6.6 34.15 9.0 33.2 9.7 33.15 10.25 33.45 M11.15 40.5 L12.3 41.35 11.75 43.1 12.0 43.2 13.4 42.15 14.9 43.2 15.1 43.1 14.5 41.35 15.85 40.45 15.75 40.2 14.15 40.2 13.55 38.7 13.3 38.7 12.7 40.2 11.2 40.2 11.15 40.5 M3.7 27.6 L3.45 27.6 2.85 29.15 1.3 29.15 1.15 29.35 2.45 30.3 1.9 32.0 2.15 32.15 3.55 31.1 5.05 32.15 5.2 32.0 4.65 30.3 6.0 29.35 5.9 29.15 4.3 29.15 3.7 27.6 M4.2 38.6 L4.45 42.35 6.4 39.1 10.05 40.0 7.65 37.2 9.4 34.25 6.25 35.5 3.9 33.0 3.95 36.45 0.8 37.7 4.2 38.6" fill="#d1ae5a" fill-rule="evenodd" stroke="none"/>
      <path d="M12.3 41.35 L11.6 40.85 12.7 40.85 13.4 38.9 14.15 40.85 15.25 40.85 14.5 41.35 14.5 42.0 14.9 43.25 13.4 42.15 11.95 43.25 12.3 42.0 12.3 41.35 M1.75 29.75 L2.85 29.75 3.55 27.85 4.3 29.75 5.4 29.75 4.65 30.3 4.65 30.9 5.05 32.2 3.55 31.1 2.1 32.2 2.45 30.9 2.45 30.3 1.75 29.75 M8.95 35.1 L7.65 37.2 7.65 37.8 9.4 39.85 6.4 39.1 4.45 42.35 4.2 38.6 1.8 38.0 3.95 37.05 3.95 36.45 3.9 33.65 6.25 36.15 8.95 35.1" fill="#815815" fill-rule="evenodd" stroke="none"/>
      <path d="M11.6 40.85 L10.75 40.2 12.7 40.2 13.4 38.3 14.15 40.2 16.1 40.2 15.25 40.85 14.15 40.85 13.4 38.9 12.7 40.85 11.6 40.85 M14.5 41.35 L15.2 43.45 14.9 43.25 14.5 42.0 14.5 41.35 M11.95 43.25 L11.65 43.45 12.3 41.35 12.3 42.0 11.95 43.25 M1.75 29.75 L0.9 29.15 2.85 29.15 3.55 27.2 4.3 29.15 6.25 29.15 5.4 29.75 4.3 29.75 3.55 27.85 2.85 29.75 1.75 29.75 M4.65 30.3 L5.35 32.35 5.05 32.2 4.65 30.9 4.65 30.3 M2.1 32.2 L1.8 32.35 2.45 30.3 2.45 30.9 2.1 32.2 M3.9 33.65 L3.9 33.0 6.25 35.5 9.4 34.25 8.95 35.1 6.25 36.15 3.9 33.65 M7.65 37.2 L10.05 40.0 9.4 39.85 7.65 37.8 7.65 37.2 M1.8 38.0 L0.8 37.7 3.95 36.45 3.95 37.05 1.8 38.0" fill="#674512" fill-rule="evenodd" stroke="none"/>
    </g>
  </defs>
</svg>
