<?xml version="1.0" encoding="UTF-8" standalone="no"?>
<svg xmlns:xlink="http://www.w3.org/1999/xlink" height="66.0px" width="66.0px" xmlns="http://www.w3.org/2000/svg">
  <g transform="matrix(1.5, 0.0, 0.0, 1.5, 0.0, 0.075)">
    <use height="44.0" transform="matrix(1.0, 0.0, 0.0, 1.0, 0.0, -0.05)" width="44.0" xlink:href="#shape0"/>
    <use height="20.15" transform="matrix(1.1548, 0.0, 0.0, 1.1548, 5.8, 5.4)" width="28.2" xlink:href="#sprite0"/>
    <use height="8.6" transform="matrix(1.2077, 0.0, 0.0, 1.2065, 0.9585, 0.85)" width="35.05" xlink:href="#sprite1"/>
  </g>
  <defs>
    <g id="shape0" transform="matrix(1.0, 0.0, 0.0, 1.0, 0.0, 0.05)">
      <path d="M7.6 -0.05 L36.4 -0.05 Q39.55 -0.05 41.8 2.2 44.0 4.4 44.0 7.55 L44.0 36.35 Q44.0 39.55 41.8 41.75 39.6 43.95 36.4 43.95 L7.6 43.95 Q4.45 43.95 2.25 41.75 0.0 39.55 0.0 36.35 L0.0 7.55 Q0.0 4.4 2.25 2.2 4.45 -0.05 7.6 -0.05" fill="url(#gradient0)" fill-rule="evenodd" stroke="none"/>
      <path d="M40.0 22.05 Q40.0 29.6 34.65 34.9 29.35 40.2 21.8 40.2 14.35 40.2 9.05 34.9 3.65 29.6 3.65 22.05 3.65 14.55 9.05 9.25 14.35 3.95 21.8 3.95 29.35 3.95 34.65 9.25 40.0 14.55 40.0 22.05" fill="url(#gradient1)" fill-rule="evenodd" stroke="none"/>
      <path d="M23.95 11.8 Q24.5 8.9 27.2 8.9 30.15 8.8 30.45 11.75 30.45 14.95 27.5 17.2 25.7 18.3 24.65 19.6 L23.95 21.05 23.1 19.35 20.55 17.2 Q17.45 14.95 17.6 11.75 17.9 8.8 20.7 8.9 23.55 8.9 23.95 11.8 M23.1 23.5 L26.95 22.65 31.9 18.75 30.45 17.75 30.4 17.65 36.85 15.6 33.25 21.4 32.6 19.75 27.85 23.65 26.35 27.0 25.45 25.9 24.5 28.5 23.6 27.9 22.2 30.1 22.4 27.1 19.5 26.6 21.5 25.45 21.05 24.8 23.75 24.4 23.1 23.5 M19.6 30.45 L19.9 30.65 20.0 31.05 19.8 31.35 Q16.6 33.65 14.1 36.35 L13.75 36.5 13.35 36.4 13.2 36.05 Q13.2 35.8 13.35 35.65 15.9 32.85 19.2 30.55 L19.6 30.45 M6.7 12.35 L6.55 12.0 Q6.55 11.8 6.7 11.65 L7.95 10.2 8.2 10.05 8.5 10.1 8.75 10.3 Q16.4 21.95 12.65 31.6 L11.05 34.45 10.75 34.65 10.4 34.6 10.2 34.3 10.2 33.95 10.25 33.85 Q15.15 22.65 6.7 12.35 M13.1 6.2 L13.35 6.3 13.5 6.5 Q19.85 20.05 15.3 30.65 16.45 29.5 17.75 28.5 L18.15 28.4 18.45 28.6 18.55 29.0 18.35 29.3 Q15.25 31.65 13.05 34.7 L13.0 34.7 12.7 34.9 12.35 34.8 12.1 34.5 12.2 34.15 13.8 31.45 Q18.05 17.3 10.55 8.3 L10.4 8.0 10.45 7.75 10.65 7.5 12.8 6.25 13.1 6.2" fill="#92300b" fill-rule="evenodd" stroke="none"/>
      <path d="M21.85 5.35 Q14.95 5.4 10.1 10.3 5.2 15.1 5.15 22.0 5.2 28.95 10.1 33.8 14.95 38.7 21.85 38.7 28.75 38.7 33.7 33.8 38.5 28.95 38.5 22.0 38.5 15.1 33.7 10.3 28.75 5.4 21.85 5.35 M40.85 22.0 Q40.85 29.85 35.25 35.4 29.75 41.05 21.85 41.05 13.9 41.05 8.4 35.4 2.85 29.85 2.85 22.0 2.85 14.05 8.4 8.55 13.9 2.95 21.85 2.95 29.75 2.95 35.25 8.55 40.85 14.05 40.85 22.0" fill="url(#gradient2)" fill-rule="evenodd" stroke="none"/>
      <path d="M0.7 36.0 L0.65 35.6 Q0.65 34.6 1.35 33.9 2.1 33.2 3.05 33.2 4.0 33.2 4.7 33.9 5.4 34.6 5.4 35.6 L5.4 35.9 Q2.9 33.05 0.7 36.0" fill="#494136" fill-rule="evenodd" stroke="none"/>
      <path d="M5.4 35.9 Q5.3 36.65 4.7 37.25 4.0 37.95 3.05 37.95 2.1 37.95 1.35 37.25 0.8 36.65 0.7 36.0 2.9 33.05 5.4 35.9" fill="#625748" fill-rule="evenodd" stroke="none"/>
      <path d="M5.8 37.9 L5.8 37.65 Q5.8 37.05 6.2 36.65 6.6 36.2 7.2 36.2 7.8 36.2 8.2 36.65 8.65 37.05 8.65 37.65 L8.65 37.85 5.8 37.9" fill="#494136" fill-rule="evenodd" stroke="none"/>
      <path d="M8.65 37.85 L8.2 38.65 Q7.8 39.05 7.2 39.05 6.6 39.05 6.2 38.65 5.85 38.3 5.8 37.9 L8.65 37.85" fill="#625748" fill-rule="evenodd" stroke="none"/>
      <path d="M2.75 40.8 L2.75 40.55 Q2.75 39.95 3.15 39.55 3.55 39.1 4.15 39.1 4.75 39.1 5.15 39.55 5.6 39.95 5.6 40.55 L5.6 40.75 2.75 40.8" fill="#494136" fill-rule="evenodd" stroke="none"/>
      <path d="M5.6 40.75 L5.15 41.55 Q4.75 41.95 4.15 41.95 3.55 41.95 3.15 41.55 L2.75 40.8 5.6 40.75" fill="#625748" fill-rule="evenodd" stroke="none"/>
      <path d="M7.45 41.4 L7.45 41.2 Q7.45 40.75 7.75 40.4 8.1 40.1 8.55 40.1 9.0 40.1 9.3 40.4 9.65 40.75 9.65 41.2 L9.65 41.35 7.45 41.4" fill="#494136" fill-rule="evenodd" stroke="none"/>
      <path d="M9.65 41.35 L9.3 41.95 8.55 42.3 Q8.1 42.3 7.75 41.95 L7.45 41.4 9.65 41.35" fill="#625748" fill-rule="evenodd" stroke="none"/>
      <path d="M42.4 36.0 L42.45 35.6 Q42.45 34.6 41.75 33.9 41.0 33.2 40.05 33.2 39.1 33.2 38.4 33.9 37.7 34.6 37.7 35.6 L37.7 35.9 Q40.2 33.05 42.4 36.0" fill="#494136" fill-rule="evenodd" stroke="none"/>
      <path d="M37.7 35.9 Q37.8 36.65 38.4 37.25 39.1 37.95 40.05 37.95 41.0 37.95 41.75 37.25 L42.4 36.0 Q40.2 33.05 37.7 35.9" fill="#625748" fill-rule="evenodd" stroke="none"/>
      <path d="M37.35 37.9 L37.35 37.65 Q37.35 37.05 36.95 36.65 36.55 36.2 35.95 36.2 35.35 36.2 34.95 36.65 34.5 37.05 34.5 37.65 L34.5 37.85 37.35 37.9" fill="#494136" fill-rule="evenodd" stroke="none"/>
      <path d="M34.5 37.85 L34.95 38.65 Q35.35 39.05 35.95 39.05 36.55 39.05 36.95 38.65 L37.35 37.9 34.5 37.85" fill="#625748" fill-rule="evenodd" stroke="none"/>
      <path d="M40.35 40.8 L40.35 40.55 Q40.35 39.95 39.95 39.55 39.55 39.1 38.95 39.1 38.35 39.1 37.95 39.55 37.5 39.95 37.5 40.55 L37.5 40.75 40.35 40.8" fill="#494136" fill-rule="evenodd" stroke="none"/>
      <path d="M37.5 40.75 L37.95 41.55 Q38.35 41.95 38.95 41.95 39.55 41.95 39.95 41.55 L40.35 40.8 37.5 40.75" fill="#625748" fill-rule="evenodd" stroke="none"/>
      <path d="M35.65 41.4 L35.65 41.2 35.35 40.4 Q35.0 40.1 34.55 40.1 34.1 40.1 33.8 40.4 33.45 40.75 33.45 41.2 L33.45 41.35 35.65 41.4" fill="#494136" fill-rule="evenodd" stroke="none"/>
      <path d="M33.45 41.35 L33.8 41.95 Q34.1 42.3 34.55 42.3 35.0 42.3 35.35 41.95 L35.65 41.4 33.45 41.35" fill="#625748" fill-rule="evenodd" stroke="none"/>
    </g>
    <linearGradient gradientTransform="matrix(0.0, -0.0551, -0.0551, 0.0, 22.05, 18.4)" gradientUnits="userSpaceOnUse" id="gradient0" spreadMethod="pad" x1="-819.2" x2="819.2">
      <stop offset="0.011764705882352941" stop-color="#bcb0a0"/>
      <stop offset="1.0" stop-color="#453e3a"/>
    </linearGradient>
    <linearGradient gradientTransform="matrix(0.0, -0.0169, -0.0169, 0.0, 21.8, 18.55)" gradientUnits="userSpaceOnUse" id="gradient1" spreadMethod="pad" x1="-819.2" x2="819.2">
      <stop offset="0.011764705882352941" stop-color="#f9cfb3"/>
      <stop offset="1.0" stop-color="#ff5b79"/>
    </linearGradient>
    <linearGradient gradientTransform="matrix(1.0E-4, 0.0223, -0.0232, 1.0E-4, 21.9, 22.25)" gradientUnits="userSpaceOnUse" id="gradient2" spreadMethod="pad" x1="-819.2" x2="819.2">
      <stop offset="0.011764705882352941" stop-color="#494136"/>
      <stop offset="1.0" stop-color="#dbccbd"/>
    </linearGradient>
    <g id="sprite0" transform="matrix(1.0, 0.0, 0.0, 1.0, 0.0, 0.0)">
      <use height="20.15" transform="matrix(1.0, 0.0, 0.0, 1.0, 0.0, 0.0)" width="28.2" xlink:href="#shape1"/>
    </g>
    <g id="shape1" transform="matrix(1.0, 0.0, 0.0, 1.0, 0.0, 0.0)">
      <path d="M27.65 18.45 L27.4 18.95 Q26.2 20.8 23.4 19.8 19.6 18.5 17.35 14.05 14.8 9.1 9.75 7.4 4.1 5.65 0.0 10.3 1.0 6.85 3.7 4.15 7.2 0.65 11.9 0.05 L14.8 0.05 18.4 0.65 Q21.55 1.65 24.05 4.15 28.2 8.3 28.2 14.25 28.2 16.45 27.65 18.45" fill="#ffffff" fill-opacity="0.19607843" fill-rule="evenodd" stroke="none"/>
    </g>
    <g id="sprite1" transform="matrix(1.0, 0.0, 0.0, 1.0, 0.2, 0.0)">
      <use height="8.6" transform="matrix(1.0, 0.0, 0.0, 1.0, -0.2, 0.0)" width="35.05" xlink:href="#shape2"/>
    </g>
    <g id="shape2" transform="matrix(1.0, 0.0, 0.0, 1.0, 0.2, 0.0)">
      <path d="M34.4 4.4 Q34.85 5.8 34.85 7.65 L34.85 8.6 Q34.8 6.95 34.4 5.7 33.0 1.3 27.2 1.3 L7.45 1.3 Q0.05 1.3 -0.2 8.5 L-0.2 7.65 Q-0.2 0.0 7.45 0.0 L27.2 0.0 Q33.0 0.0 34.4 4.4" fill="#e7deda" fill-rule="evenodd" stroke="none"/>
    </g>
  </defs>
</svg>
