<?xml version="1.0" encoding="UTF-8" standalone="no"?>
<svg xmlns:xlink="http://www.w3.org/1999/xlink" height="65.85px" width="66.0px" xmlns="http://www.w3.org/2000/svg">
  <g transform="matrix(1.5, 0.0, 0.0, 1.5, 0.0, 0.0)">
    <use height="37.1" transform="matrix(1.0, 0.0, 0.0, 1.0, 3.05, 3.7)" width="37.2" xlink:href="#shape0"/>
    <use height="0.0" transform="matrix(1.2125, 0.0, 0.0, 1.2125, 0.75, 1.1)" width="0.0" xlink:href="#sprite0"/>
    <use height="43.9" transform="matrix(1.0, 0.0, 0.0, 1.0, 0.0, 0.0)" width="44.0" xlink:href="#shape1"/>
    <use height="20.15" transform="matrix(1.1548, 0.0, 0.0, 1.1548, 5.65, 5.65)" width="28.2" xlink:href="#sprite1"/>
    <use height="39.75" transform="matrix(1.0, 0.0, 0.0, 1.0, 1.75, 4.1)" width="40.55" xlink:href="#shape3"/>
    <use height="0.0" transform="matrix(1.2077, 0.0, 0.0, 1.2065, 1.0, 0.45)" width="0.0" xlink:href="#sprite0"/>
    <use height="10.35" transform="matrix(1.0, 0.0, 0.0, 1.0, 0.95, 0.5)" width="42.0" xlink:href="#sprite2"/>
  </g>
  <defs>
    <g id="shape0" transform="matrix(1.0, 0.0, 0.0, 1.0, -3.05, -3.7)">
      <path d="M21.7 40.8 Q13.95 40.8 8.5 35.4 3.05 29.95 3.05 22.25 3.05 14.55 8.5 9.15 13.95 3.7 21.7 3.7 29.4 3.7 34.85 9.15 40.25 14.6 40.25 22.25 40.25 29.95 34.85 35.4 29.4 40.8 21.7 40.8" fill="url(#gradient0)" fill-rule="evenodd" stroke="none"/>
      <path d="M19.85 23.2 Q19.45 22.25 18.95 22.3 18.35 22.45 18.0 23.3 17.65 24.15 17.75 25.5 17.6 26.85 18.25 27.8 18.5 28.6 19.05 28.6 19.65 28.5 20.15 27.65 L20.45 25.45 Q20.35 24.0 19.85 23.2 M24.4 22.3 Q23.85 22.15 23.5 23.15 23.1 23.8 23.25 25.35 23.25 26.55 23.7 27.6 23.95 28.4 24.65 28.5 25.2 28.45 25.6 27.6 25.95 26.65 25.95 25.4 25.9 23.95 25.4 23.2 24.95 22.25 24.4 22.3 M26.65 15.95 Q27.75 15.95 28.55 16.5 29.5 17.15 29.5 18.05 L29.4 18.8 29.95 18.8 31.25 18.65 31.7 17.9 31.7 17.85 32.45 16.5 Q32.8 15.65 33.6 15.65 34.4 15.65 34.7 16.6 L35.25 19.8 35.25 21.15 Q35.1 21.85 34.55 22.3 L34.4 22.3 Q33.9 23.05 32.45 23.25 L32.55 23.35 Q33.4 23.8 33.5 24.6 L33.5 24.8 33.4 25.75 32.55 26.5 Q31.85 27.05 30.85 27.25 31.4 27.8 31.4 28.5 L31.4 28.8 31.25 29.35 30.65 30.2 28.9 30.9 28.9 31.8 Q28.9 32.7 28.15 33.25 27.3 33.9 26.25 33.9 25.1 33.9 24.45 33.25 23.5 32.7 23.5 31.8 L23.5 31.25 21.95 31.25 21.65 31.25 21.5 31.25 21.4 31.25 19.4 31.25 19.4 31.8 Q19.4 32.7 18.7 33.25 17.95 33.9 16.85 33.9 15.8 33.9 14.95 33.25 14.2 32.7 14.2 31.8 L14.2 30.9 Q13.2 30.65 12.55 30.2 L11.85 29.35 11.8 28.8 11.7 28.5 Q11.7 27.8 12.3 27.25 11.25 27.05 10.35 26.5 L9.8 25.75 9.6 24.8 9.6 24.6 Q9.65 23.8 10.35 23.35 L10.35 23.25 Q9.2 23.05 8.55 22.3 8.0 21.85 7.85 21.15 L7.85 19.8 8.3 16.6 8.35 16.6 Q8.6 15.65 9.5 15.65 10.35 15.65 10.65 16.5 L11.4 17.85 11.85 18.65 13.15 18.8 13.65 18.8 13.6 18.05 Q13.6 17.15 14.55 16.5 15.3 15.95 16.55 15.95 17.65 15.95 18.65 16.5 L18.7 16.6 Q18.85 15.95 19.4 15.35 20.35 14.8 21.4 14.6 L21.5 14.6 21.65 14.8 21.95 14.8 Q22.85 14.8 23.5 15.35 24.3 15.95 24.45 16.6 L24.55 16.5 Q25.4 15.95 26.65 15.95" fill="#664411" fill-rule="evenodd" stroke="none"/>
    </g>
    <linearGradient gradientTransform="matrix(0.0, -0.0173, -0.0173, 0.0, 21.7, 18.7)" gradientUnits="userSpaceOnUse" id="gradient0" spreadMethod="pad" x1="-819.2" x2="819.2">
      <stop offset="0.011764705882352941" stop-color="#f8e6cb"/>
      <stop offset="1.0" stop-color="#d5914d"/>
    </linearGradient>
    <g id="shape1" transform="matrix(1.0, 0.0, 0.0, 1.0, 0.0, 0.0)">
      <path d="M34.2 9.75 Q29.15 4.7 22.0 4.7 14.8 4.7 9.75 9.75 4.65 14.8 4.65 22.0 4.65 29.15 9.75 34.2 14.8 39.3 22.0 39.3 29.2 39.3 34.2 34.2 39.25 29.15 39.25 22.0 39.25 14.8 34.2 9.75 M2.15 2.25 Q4.45 0.0 7.55 0.0 L36.35 0.0 Q39.55 0.0 41.75 2.25 44.0 4.5 44.0 7.65 L44.0 36.35 Q44.0 39.45 41.75 41.7 39.55 43.9 36.35 43.9 L7.55 43.9 Q4.45 43.9 2.15 41.7 0.0 39.45 0.0 36.35 L0.0 7.65 Q0.0 4.5 2.15 2.25" fill="url(#gradient1)" fill-rule="evenodd" stroke="none"/>
      <path d="M21.9 5.55 Q15.0 5.6 10.2 10.45 5.3 15.3 5.3 22.15 5.3 29.1 10.2 34.0 15.0 38.8 21.9 38.8 28.75 38.8 33.65 34.0 38.55 29.1 38.55 22.15 38.55 15.3 33.65 10.45 28.8 5.6 21.9 5.55 M8.4 8.8 Q14.0 3.2 21.9 3.2 29.75 3.2 35.3 8.8 40.9 14.3 40.9 22.15 40.9 30.05 35.3 35.6 29.75 41.15 21.9 41.15 14.0 41.15 8.4 35.6 2.85 30.05 2.85 22.15 2.85 14.3 8.4 8.8" fill="url(#gradient2)" fill-rule="evenodd" stroke="none"/>
    </g>
    <linearGradient gradientTransform="matrix(0.0, -0.0275, -0.044, 0.0, 20.85, 22.15)" gradientUnits="userSpaceOnUse" id="gradient1" spreadMethod="pad" x1="-819.2" x2="819.2">
      <stop offset="0.0196078431372549" stop-color="#905a3d"/>
      <stop offset="0.9764705882352941" stop-color="#6a412d"/>
    </linearGradient>
    <linearGradient gradientTransform="matrix(0.0, -0.0168, -0.0168, 0.0, 21.9, 26.75)" gradientUnits="userSpaceOnUse" id="gradient2" spreadMethod="pad" x1="-819.2" x2="819.2">
      <stop offset="0.0196078431372549" stop-color="#a3704d"/>
      <stop offset="0.9803921568627451" stop-color="#492d20"/>
    </linearGradient>
    <g id="sprite1" transform="matrix(1.0, 0.0, 0.0, 1.0, 0.0, 0.0)">
      <use height="20.15" transform="matrix(1.0, 0.0, 0.0, 1.0, 0.0, 0.0)" width="28.2" xlink:href="#shape2"/>
    </g>
    <g id="shape2" transform="matrix(1.0, 0.0, 0.0, 1.0, 0.0, 0.0)">
      <path d="M27.4 18.95 Q26.2 20.8 23.4 19.8 19.6 18.5 17.35 14.05 14.8 9.1 9.75 7.4 4.1 5.65 0.0 10.3 1.0 6.85 3.7 4.15 7.2 0.65 11.9 0.05 L14.8 0.05 18.4 0.65 Q21.55 1.65 24.05 4.15 28.2 8.3 28.2 14.25 28.2 16.45 27.65 18.45 L27.4 18.95" fill="#ffffff" fill-opacity="0.19607843" fill-rule="evenodd" stroke="none"/>
    </g>
    <g id="shape3" transform="matrix(1.0, 0.0, 0.0, 1.0, -1.75, -4.1)">
      <path d="M16.25 40.4 Q12.8 39.4 9.55 37.75 10.85 34.5 13.2 34.0 13.95 37.65 16.25 40.4 M30.25 34.0 Q32.6 34.5 33.85 37.8 30.7 39.55 27.35 40.4 28.95 38.4 29.75 35.8 L30.25 34.0" fill="url(#gradient3)" fill-rule="evenodd" stroke="none"/>
      <path d="M13.2 34.0 Q14.7 37.0 17.9 38.45 L16.25 40.4 Q13.95 37.65 13.2 34.0 M27.35 40.4 L25.55 38.45 Q28.75 37.0 30.25 34.0 L29.75 35.8 Q28.95 38.4 27.35 40.4" fill="#6d4a34" fill-rule="evenodd" stroke="none"/>
      <path d="M32.2 14.15 Q31.7 9.75 29.1 7.05 L30.8 5.25 31.05 5.85 31.5 7.45 Q32.25 10.9 32.2 14.15 M11.75 14.15 Q11.6 9.9 13.15 5.25 L14.9 7.05 Q12.3 9.75 11.75 14.15" fill="#492d20" fill-rule="evenodd" stroke="none"/>
      <path d="M31.05 5.85 L30.45 4.1 Q33.85 5.85 36.75 8.8 L36.8 8.9 Q36.0 12.95 32.2 14.15 32.25 10.9 31.5 7.45 L31.05 5.85 M13.15 5.25 Q11.6 9.9 11.75 14.15 7.95 12.95 7.15 8.95 L7.35 8.8 Q10.15 5.9 13.45 4.3 L13.15 5.25" fill="url(#gradient4)" fill-rule="evenodd" stroke="none"/>
      <path d="M42.2 33.4 L42.2 36.15 Q42.2 37.1 41.6 37.75 41.1 38.4 40.25 38.4 39.4 38.4 38.8 37.75 38.2 37.1 38.2 36.15 L38.2 34.85 M1.85 33.4 L1.85 36.15 Q1.85 37.1 2.4 37.75 2.9 38.4 3.8 38.4 4.6 38.4 5.25 37.75 5.8 37.1 5.8 36.15 L5.8 34.85" fill="none" stroke="#6a402d" stroke-linecap="round" stroke-linejoin="round" stroke-width="0.25"/>
      <path d="M39.4 5.45 Q39.6 5.3 39.75 5.3 40.3 5.3 40.65 6.2 L40.9 8.25 40.65 10.35 Q40.3 11.2 39.75 11.2 L39.4 11.1 39.95 10.35 40.25 8.25 39.95 6.2 39.4 5.45 M4.55 11.1 L4.2 11.2 Q3.7 11.2 3.35 10.35 3.05 9.5 3.05 8.25 3.05 7.05 3.35 6.2 3.7 5.3 4.2 5.3 L4.55 5.45 4.0 6.2 Q3.75 7.05 3.75 8.25 3.75 9.5 4.0 10.35 L4.55 11.1" fill="#1a0d09" fill-rule="evenodd" stroke="none"/>
      <path d="M39.4 11.1 L38.95 10.35 Q38.6 9.5 38.6 8.25 38.6 7.05 38.95 6.2 L39.4 5.45 39.95 6.2 40.25 8.25 39.95 10.35 39.4 11.1 M4.55 11.1 L4.0 10.35 Q3.75 9.5 3.75 8.25 3.75 7.05 4.0 6.2 L4.55 5.45 5.0 6.2 Q5.35 7.05 5.35 8.25 5.35 9.5 5.0 10.35 L4.55 11.1" fill="#331d16" fill-rule="evenodd" stroke="none"/>
      <path d="M39.4 5.45 Q39.6 5.3 39.75 5.3 40.3 5.3 40.65 6.2 L40.9 8.25 40.65 10.35 Q40.3 11.2 39.75 11.2 L39.4 11.1 38.95 10.35 Q38.6 9.5 38.6 8.25 38.6 7.05 38.95 6.2 L39.4 5.45 M4.55 5.45 L4.2 5.3 Q3.7 5.3 3.35 6.2 3.05 7.05 3.05 8.25 3.05 9.5 3.35 10.35 3.7 11.2 4.2 11.2 L4.55 11.1 5.0 10.35 Q5.35 9.5 5.35 8.25 5.35 7.05 5.0 6.2 L4.55 5.45" fill="none" stroke="#6a402d" stroke-linecap="round" stroke-linejoin="round" stroke-width="0.05"/>
      <path d="M31.9 43.85 L12.1 43.85 Q12.85 43.5 14.45 43.1 L22.0 42.55 29.5 43.1 31.9 43.85" fill="#6c432e" fill-rule="evenodd" stroke="none"/>
    </g>
    <linearGradient gradientTransform="matrix(0.0, -0.0275, -0.044, 0.0, 20.85, 22.15)" gradientUnits="userSpaceOnUse" id="gradient3" spreadMethod="pad" x1="-819.2" x2="819.2">
      <stop offset="0.0196078431372549" stop-color="#905a3d"/>
      <stop offset="0.9764705882352941" stop-color="#6a412d"/>
    </linearGradient>
    <linearGradient gradientTransform="matrix(0.0, -0.0275, -0.044, 0.0, 20.85, 22.15)" gradientUnits="userSpaceOnUse" id="gradient4" spreadMethod="pad" x1="-819.2" x2="819.2">
      <stop offset="0.0196078431372549" stop-color="#905a3d"/>
      <stop offset="0.9764705882352941" stop-color="#6a412d"/>
    </linearGradient>
    <g id="sprite2" transform="matrix(1.0, 0.0, 0.0, 1.0, 0.2, 0.0)">
      <use height="10.35" transform="matrix(1.0, 0.0, 0.0, 1.0, -0.2, 0.0)" width="42.0" xlink:href="#shape4"/>
    </g>
    <g id="shape4" transform="matrix(1.0, 0.0, 0.0, 1.0, 0.2, 0.0)">
      <path d="M32.6 0.0 Q39.55 0.0 41.25 5.25 41.8 6.95 41.8 9.2 L41.8 10.35 Q41.75 8.35 41.25 6.85 39.55 1.55 32.6 1.55 L8.95 1.55 Q0.05 1.55 -0.2 10.2 L-0.2 9.2 Q-0.2 0.0 8.95 0.0 L32.6 0.0" fill="#e7deda" fill-opacity="0.5882353" fill-rule="evenodd" stroke="none"/>
    </g>
  </defs>
</svg>
