<?xml version="1.0" encoding="UTF-8" standalone="no"?>
<svg xmlns:xlink="http://www.w3.org/1999/xlink" height="66.0px" width="66.075px" xmlns="http://www.w3.org/2000/svg">
  <g transform="matrix(1.5, 0.0, 0.0, 1.5, 0.0, -0.75)">
    <use height="44.0" transform="matrix(1.0, 0.0, 0.0, 1.0, 0.0, 0.5)" width="44.0" xlink:href="#shape0"/>
    <use height="32.85" transform="matrix(1.1548, 0.0, 0.0, 1.1548, 0.1155, 6.5129)" width="38.05" xlink:href="#sprite0"/>
    <use height="0.0" transform="matrix(1.2077, 0.0, 0.0, 1.2077, 1.25, 1.55)" width="0.0" xlink:href="#sprite2"/>
    <use height="0.0" transform="matrix(1.2077, 0.0, 0.0, 1.2065, 1.25, 1.05)" width="0.0" xlink:href="#sprite2"/>
    <use height="20.15" transform="matrix(1.1594, 0.0, 0.0, 1.1605, 6.05, 5.85)" width="28.2" xlink:href="#sprite3"/>
    <use height="10.35" transform="matrix(1.0, 0.0, 0.0, 1.0, 1.0, 0.5)" width="42.05" xlink:href="#sprite4"/>
  </g>
  <defs>
    <g id="shape0" transform="matrix(1.0, 0.0, 0.0, 1.0, 0.0, -0.5)">
      <path d="M42.0 22.95 Q42.0 31.35 36.05 37.2 30.15 43.1 21.8 43.1 13.45 43.1 7.6 37.2 1.65 31.35 1.65 22.95 1.65 14.6 7.6 8.7 13.45 2.8 21.8 2.8 30.15 2.8 36.05 8.7 42.0 14.6 42.0 22.95" fill="url(#gradient0)" fill-rule="evenodd" stroke="none"/>
      <path d="M34.25 10.25 Q29.15 5.2 22.0 5.2 14.85 5.2 9.75 10.25 4.7 15.35 4.7 22.5 4.7 29.65 9.75 34.75 14.85 39.8 22.0 39.8 29.25 39.8 34.25 34.75 39.35 29.7 39.35 22.5 39.35 15.35 34.25 10.25 M36.4 0.5 Q39.55 0.5 41.75 2.75 44.0 4.95 44.0 8.1 L44.0 36.95 Q44.0 40.05 41.75 42.3 39.55 44.5 36.4 44.5 L7.65 44.5 Q4.45 44.5 2.25 42.3 0.0 40.05 0.0 36.95 L0.0 8.1 Q0.0 4.95 2.25 2.75 4.45 0.5 7.65 0.5 L36.4 0.5" fill="url(#gradient1)" fill-rule="evenodd" stroke="none"/>
      <path d="M23.05 7.25 L23.95 9.95 Q24.55 12.45 23.35 14.45 L22.1 11.9 Q22.35 9.45 23.05 7.25 M15.3 29.3 Q15.75 30.65 16.6 31.5 18.05 32.95 20.65 32.7 19.25 30.9 17.05 29.9 L15.3 29.3 M26.15 12.25 Q27.5 13.75 27.85 15.6 L27.85 17.4 Q26.15 16.2 26.0 14.3 L26.15 12.25 M11.8 29.3 Q11.6 25.9 12.9 23.05 12.7 21.75 13.35 20.6 L14.5 18.9 14.7 20.05 16.0 18.55 Q20.45 13.9 20.25 10.3 L21.95 13.75 Q22.55 15.3 22.75 17.6 L24.5 15.0 Q25.5 18.0 28.95 21.05 L29.0 20.25 Q29.4 18.95 30.15 17.4 32.5 20.3 32.5 23.1 L32.05 24.6 Q33.05 26.75 32.5 29.2 31.45 32.05 29.45 33.95 L29.2 34.45 27.9 36.0 26.3 37.3 25.85 36.35 24.3 37.4 23.55 37.15 22.35 37.85 20.65 37.15 20.15 37.45 18.1 36.3 17.7 37.25 Q15.55 35.55 14.5 33.8 13.2 32.35 12.3 30.5 L11.8 29.3 M28.55 29.3 Q25.8 30.0 24.0 31.85 L23.2 32.7 24.95 32.7 Q27.6 32.25 28.55 29.3" fill="#92300b" fill-rule="evenodd" stroke="none"/>
      <path d="M22.05 5.9 Q15.1 6.0 10.25 10.85 5.4 15.7 5.4 22.5 5.4 29.35 10.25 34.2 15.1 39.15 22.05 39.15 28.9 39.15 33.75 34.2 38.6 29.35 38.6 22.5 38.6 15.7 33.75 10.85 28.9 6.0 22.05 5.9 M8.6 9.1 Q14.15 3.5 22.05 3.5 29.9 3.5 35.45 9.1 41.0 14.7 41.0 22.5 41.0 30.4 35.45 35.9 29.9 41.5 22.05 41.5 14.15 41.5 8.6 35.9 3.05 30.4 3.05 22.5 3.05 14.7 8.6 9.1" fill="url(#gradient2)" fill-rule="evenodd" stroke="none"/>
    </g>
    <linearGradient gradientTransform="matrix(0.0, -0.0188, -0.0188, 0.0, 21.75, 19.05)" gradientUnits="userSpaceOnUse" id="gradient0" spreadMethod="pad" x1="-819.2" x2="819.2">
      <stop offset="0.011764705882352941" stop-color="#f9cfb3"/>
      <stop offset="1.0" stop-color="#ff5b79"/>
    </linearGradient>
    <linearGradient gradientTransform="matrix(0.0, -0.0173, -0.0173, 0.0, 22.0, 2.75)" gradientUnits="userSpaceOnUse" id="gradient1" spreadMethod="pad" x1="-819.2" x2="819.2">
      <stop offset="0.011764705882352941" stop-color="#d13800"/>
      <stop offset="0.9764705882352941" stop-color="#591600"/>
    </linearGradient>
    <linearGradient gradientTransform="matrix(0.0, -0.0168, -0.0168, 0.0, 22.0, 27.1)" gradientUnits="userSpaceOnUse" id="gradient2" spreadMethod="pad" x1="-819.2" x2="819.2">
      <stop offset="0.011764705882352941" stop-color="#ffa582"/>
      <stop offset="0.9764705882352941" stop-color="#591600"/>
    </linearGradient>
    <g id="sprite0" transform="matrix(1.0, 0.0, 0.0, 1.0, -0.1, 2.5)">
      <clipPath id="clipPath0" transform="matrix(1.0, 0.0, 0.0, 1.0, 0.0, 0.0)">
        <path d="M34.0 -2.5 L38.15 -1.6 38.15 30.35 0.5 30.35 0.5 -1.55 3.5 -2.1 6.95 6.9 5.35 20.95 5.55 20.85 7.3 22.85 Q12.1 27.7 18.95 27.7 25.75 27.7 30.55 22.85 L33.05 19.75 33.2 19.55 33.0 19.65 29.75 13.25 34.0 -2.5" fill="#ff0000" fill-rule="evenodd" stroke="none"/>
      </clipPath>
      <g clip-path="url(#clipPath0)">
        <use height="29.6" transform="matrix(1.0, 0.0, 0.0, 1.0, 20.3, 0.0)" width="17.8" xlink:href="#sprite1"/>
        <use height="28.95" transform="matrix(1.0, 0.0, 0.0, 1.0, 19.9, 1.15)" width="18.05" xlink:href="#shape3"/>
        <use height="29.6" transform="matrix(-1.0, 0.0, 0.0, 1.0, 17.9, 0.0)" width="17.8" xlink:href="#sprite1"/>
        <use height="28.95" transform="matrix(1.0, 0.0, 0.0, 1.0, 0.25, 1.15)" width="18.05" xlink:href="#shape4"/>
      </g>
    </g>
    <g id="sprite1" transform="matrix(1.0, 0.0, 0.0, 1.0, 0.0, 0.0)">
      <use height="29.6" transform="matrix(1.0, 0.0, 0.0, 1.0, 0.0, 0.0)" width="17.8" xlink:href="#shape2"/>
    </g>
    <g id="shape2" transform="matrix(1.0, 0.0, 0.0, 1.0, 0.0, 0.0)">
      <path d="M15.35 1.0 L15.95 0.0 Q15.7 0.8 15.6 1.8 L15.55 2.45 15.95 3.55 17.3 7.0 Q17.8 8.8 17.8 10.85 L17.55 13.15 17.65 13.3 Q17.3 14.6 15.75 14.85 16.6 16.5 16.85 19.4 17.65 25.05 15.2 28.0 13.2 30.3 6.95 29.3 2.15 28.55 0.0 27.4 L2.25 27.0 Q3.9 26.85 6.15 25.4 9.4 23.4 12.0 19.75 L11.95 21.55 Q11.7 23.55 10.65 24.8 10.2 25.3 10.3 25.65 L10.95 26.1 Q11.65 26.25 12.6 25.55 13.9 24.6 14.6 22.35 15.3 20.05 14.9 17.8 L14.15 16.45 13.7 15.05 Q13.3 13.85 13.3 12.65 13.3 10.2 15.35 10.1 L14.75 11.15 Q14.25 12.4 14.9 13.5 16.9 13.05 16.95 11.4 17.0 10.45 16.15 8.55 15.15 6.35 14.95 4.65 14.75 2.6 15.3 1.1 L15.35 1.05 15.35 1.0" fill="#261e00" fill-rule="evenodd" stroke="none"/>
    </g>
    <g id="shape3" transform="matrix(1.0, 0.0, 0.0, 1.0, -19.9, -1.15)">
      <path d="M34.85 5.3 Q34.6 3.25 34.9 2.0 L35.2 1.15 35.15 2.65 Q35.25 4.4 35.95 5.35 38.1 8.25 37.5 13.9 L37.05 14.75 Q36.35 15.55 35.15 15.55 L34.35 14.15 35.55 13.85 Q36.8 13.3 36.85 12.05 36.9 11.1 36.0 9.15 35.05 7.0 34.85 5.3" fill="url(#gradient3)" fill-rule="evenodd" stroke="none"/>
      <path d="M34.85 5.3 Q34.6 3.25 34.9 2.0 L35.2 1.15 35.15 2.65 Q35.25 4.4 35.95 5.35 38.1 8.25 37.5 13.9 L37.05 14.75 Q36.35 15.55 35.15 15.55 L34.35 14.15 35.55 13.85 Q36.8 13.3 36.85 12.05 36.9 11.1 36.0 9.15 35.05 7.0 34.85 5.3" fill="url(#gradient4)" fill-rule="evenodd" stroke="none"/>
      <path d="M37.3 9.0 Q36.8 6.6 35.95 5.35 35.3 4.4 35.2 2.65 L35.2 1.5 Q35.25 2.85 36.0 4.3 L37.55 7.85 Q38.15 9.9 37.9 12.0 L37.5 13.65 Q37.85 11.65 37.3 9.0" fill="#ffd6cc" fill-rule="evenodd" stroke="none"/>
      <path d="M31.8 22.15 Q31.55 24.15 30.5 25.45 29.9 26.15 30.3 26.6 30.65 27.0 31.5 26.85 33.8 26.4 34.45 23.3 35.15 20.15 34.85 18.75 L34.05 17.05 Q33.3 15.75 33.3 13.85 33.3 11.35 35.2 10.7 L34.55 11.9 Q34.05 13.35 35.05 14.55 36.25 16.0 36.6 19.3 37.0 22.55 36.35 25.75 36.2 26.75 35.55 27.75 34.2 29.8 31.6 29.85 L26.8 29.45 Q24.2 28.85 20.9 27.05 L24.6 26.2 Q28.9 24.55 31.85 20.4 L31.8 22.15" fill="url(#gradient5)" fill-rule="evenodd" stroke="none"/>
      <path d="M34.0 11.75 Q32.95 13.3 33.55 15.65 33.15 14.45 33.15 13.25 33.15 10.85 35.2 10.7 34.55 11.0 34.0 11.75" fill="#ebc7be" fill-rule="evenodd" stroke="none"/>
      <path d="M35.2 19.1 Q35.65 20.3 35.35 22.1 34.5 27.5 31.0 27.5 30.1 27.55 30.1 26.25 L30.65 26.65 Q31.4 26.95 32.5 26.15 33.8 25.2 34.5 22.9 35.15 20.55 34.75 18.25 L35.2 19.1" fill="#d68d7c" fill-rule="evenodd" stroke="none"/>
      <path d="M36.75 22.6 L36.5 18.3 36.9 22.1 Q36.95 26.35 35.05 28.6 33.1 30.9 26.85 29.65 22.65 28.8 19.9 27.5 L21.15 27.0 25.9 28.8 Q31.2 30.3 33.8 28.75 36.45 27.2 36.75 22.6" fill="#261e00" fill-rule="evenodd" stroke="none"/>
    </g>
    <linearGradient gradientTransform="matrix(-4.0E-4, 0.0071, -0.0071, -4.0E-4, 35.95, 11.45)" gradientUnits="userSpaceOnUse" id="gradient3" spreadMethod="pad" x1="-819.2" x2="819.2">
      <stop offset="0.011764705882352941" stop-color="#ff8266"/>
      <stop offset="0.9764705882352941" stop-color="#591600"/>
    </linearGradient>
    <linearGradient gradientTransform="matrix(-4.0E-4, 0.0071, -0.0071, -4.0E-4, 35.95, 11.45)" gradientUnits="userSpaceOnUse" id="gradient4" spreadMethod="pad" x1="-819.2" x2="819.2">
      <stop offset="0.011764705882352941" stop-color="#ff3800"/>
      <stop offset="0.9764705882352941" stop-color="#591600"/>
    </linearGradient>
    <linearGradient gradientTransform="matrix(-5.0E-4, 0.0095, -0.0095, -5.0E-4, 28.85, 24.2)" gradientUnits="userSpaceOnUse" id="gradient5" spreadMethod="pad" x1="-819.2" x2="819.2">
      <stop offset="0.011764705882352941" stop-color="#ff8266"/>
      <stop offset="0.9764705882352941" stop-color="#591600"/>
    </linearGradient>
    <g id="shape4" transform="matrix(1.0, 0.0, 0.0, 1.0, -0.25, -1.15)">
      <path d="M3.35 5.3 Q3.6 3.25 3.3 2.0 L3.0 1.15 3.05 2.65 Q2.95 4.4 2.25 5.35 0.1 8.25 0.7 13.9 L1.15 14.75 Q1.85 15.55 3.05 15.55 L3.85 14.15 2.65 13.85 Q1.4 13.3 1.35 12.05 1.3 11.1 2.2 9.15 3.15 7.0 3.35 5.3" fill="url(#gradient6)" fill-rule="evenodd" stroke="none"/>
      <path d="M3.35 5.3 Q3.6 3.25 3.3 2.0 L3.0 1.15 3.05 2.65 Q2.95 4.4 2.25 5.35 0.1 8.25 0.7 13.9 L1.15 14.75 Q1.85 15.55 3.05 15.55 L3.85 14.15 2.65 13.85 Q1.4 13.3 1.35 12.05 1.3 11.1 2.2 9.15 3.15 7.0 3.35 5.3" fill="url(#gradient7)" fill-rule="evenodd" stroke="none"/>
      <path d="M0.9 9.0 Q1.4 6.6 2.25 5.35 2.9 4.4 3.0 2.65 L3.0 1.5 Q2.95 2.85 2.2 4.3 1.0 6.6 0.65 7.85 0.05 9.9 0.3 12.0 L0.7 13.65 Q0.35 11.65 0.9 9.0" fill="#ffd6cc" fill-rule="evenodd" stroke="none"/>
      <path d="M6.4 22.15 Q6.65 24.15 7.7 25.45 8.3 26.15 7.9 26.6 7.55 27.0 6.7 26.85 4.4 26.4 3.75 23.3 3.05 20.15 3.35 18.75 L4.15 17.05 Q4.9 15.75 4.9 13.85 4.9 11.35 3.0 10.7 L3.65 11.9 Q4.15 13.35 3.15 14.55 1.95 16.0 1.6 19.3 1.2 22.55 1.85 25.75 2.0 26.75 2.65 27.75 4.0 29.8 6.6 29.85 L11.4 29.45 Q14.0 28.85 17.3 27.05 L13.6 26.2 Q9.3 24.55 6.35 20.4 L6.4 22.15" fill="url(#gradient8)" fill-rule="evenodd" stroke="none"/>
      <path d="M4.2 11.75 Q5.25 13.3 4.65 15.65 5.05 14.45 5.05 13.25 5.05 10.85 3.0 10.7 L4.2 11.75" fill="#ebc7be" fill-rule="evenodd" stroke="none"/>
      <path d="M3.0 19.1 Q2.55 20.3 2.85 22.1 3.7 27.5 7.2 27.5 8.1 27.55 8.1 26.25 L7.55 26.65 Q6.8 26.95 5.7 26.15 4.4 25.2 3.7 22.9 3.05 20.55 3.45 18.25 L3.0 19.1" fill="#d68d7c" fill-rule="evenodd" stroke="none"/>
      <path d="M1.45 22.6 L1.7 18.3 1.3 22.1 Q1.25 26.35 3.15 28.6 5.1 30.9 11.35 29.65 15.55 28.8 18.3 27.5 L17.05 27.0 12.3 28.8 Q7.0 30.3 4.4 28.75 1.75 27.2 1.45 22.6" fill="#261e00" fill-rule="evenodd" stroke="none"/>
    </g>
    <linearGradient gradientTransform="matrix(4.0E-4, 0.0071, 0.0071, -4.0E-4, 2.25, 11.45)" gradientUnits="userSpaceOnUse" id="gradient6" spreadMethod="pad" x1="-819.2" x2="819.2">
      <stop offset="0.011764705882352941" stop-color="#ff8266"/>
      <stop offset="0.9764705882352941" stop-color="#591600"/>
    </linearGradient>
    <linearGradient gradientTransform="matrix(4.0E-4, 0.0071, 0.0071, -4.0E-4, 2.25, 11.45)" gradientUnits="userSpaceOnUse" id="gradient7" spreadMethod="pad" x1="-819.2" x2="819.2">
      <stop offset="0.011764705882352941" stop-color="#ff3800"/>
      <stop offset="0.9764705882352941" stop-color="#591600"/>
    </linearGradient>
    <linearGradient gradientTransform="matrix(5.0E-4, 0.0095, 0.0095, -5.0E-4, 9.35, 24.2)" gradientUnits="userSpaceOnUse" id="gradient8" spreadMethod="pad" x1="-819.2" x2="819.2">
      <stop offset="0.011764705882352941" stop-color="#ff8266"/>
      <stop offset="0.9764705882352941" stop-color="#591600"/>
    </linearGradient>
    <g id="sprite3" transform="matrix(1.0, 0.0, 0.0, 1.0, 0.0, 0.0)">
      <use height="20.15" transform="matrix(1.0, 0.0, 0.0, 1.0, 0.0, 0.0)" width="28.2" xlink:href="#shape5"/>
    </g>
    <g id="shape5" transform="matrix(1.0, 0.0, 0.0, 1.0, 0.0, 0.0)">
      <path d="M27.4 18.95 Q26.2 20.8 23.4 19.8 19.6 18.5 17.35 14.05 14.8 9.1 9.75 7.4 4.1 5.65 0.0 10.3 1.0 6.85 3.7 4.15 7.2 0.65 11.9 0.05 L14.8 0.05 18.4 0.65 Q21.55 1.65 24.05 4.15 28.2 8.3 28.2 14.25 28.2 16.45 27.65 18.45 L27.4 18.95" fill="#ffffff" fill-opacity="0.19607843" fill-rule="evenodd" stroke="none"/>
    </g>
    <g id="sprite4" transform="matrix(1.0, 0.0, 0.0, 1.0, 0.15, 0.0)">
      <use height="10.35" transform="matrix(1.0, 0.0, 0.0, 1.0, -0.15, 0.0)" width="42.05" xlink:href="#shape6"/>
    </g>
    <g id="shape6" transform="matrix(1.0, 0.0, 0.0, 1.0, 0.15, 0.0)">
      <path d="M32.7 0.0 Q39.65 0.0 41.35 5.3 41.9 7.0 41.9 9.2 L41.9 10.35 Q41.85 8.4 41.35 6.9 39.65 1.55 32.7 1.55 L9.05 1.55 Q0.15 1.55 -0.15 10.2 L-0.15 9.2 Q-0.15 0.0 9.05 0.0 L32.7 0.0" fill="#e7deda" fill-opacity="0.5882353" fill-rule="evenodd" stroke="none"/>
    </g>
  </defs>
</svg>
