<?xml version="1.0" encoding="UTF-8" standalone="no"?>
<svg xmlns:xlink="http://www.w3.org/1999/xlink" height="66.0px" width="66.0px" xmlns="http://www.w3.org/2000/svg">
  <g transform="matrix(1.5, 0.0, 0.0, 1.5, 0.15, 0.0)">
    <use height="20.15" transform="matrix(1.1594, 0.0, 0.0, 1.1594, 5.7, 5.25)" width="28.2" xlink:href="#sprite0"/>
    <use height="44.0" transform="matrix(1.0, 0.0, 0.0, 1.0, -0.1, 0.0)" width="44.0" xlink:href="#shape1"/>
    <use height="0.0" transform="matrix(1.2125, 0.0, 0.0, 1.2125, 1.0, 0.95)" width="0.0" xlink:href="#sprite1"/>
    <use height="42.0" transform="matrix(1.0, 0.0, 0.0, 1.0, -0.1, 2.0)" width="43.95" xlink:href="#shape2"/>
    <use height="20.15" transform="matrix(1.1594, 0.0, 0.0, 1.1594, 5.7, 5.25)" width="28.2" xlink:href="#sprite0"/>
    <use height="44.0" transform="matrix(1.0, 0.0, 0.0, 1.0, -0.1, 0.0)" width="44.0" xlink:href="#shape3"/>
    <use height="0.0" transform="matrix(1.2125, 0.0, 0.0, 1.2125, 1.0, 0.95)" width="0.0" xlink:href="#sprite1"/>
    <use height="17.95" transform="matrix(1.0, 0.0, 0.0, 1.0, -0.1, 26.05)" width="43.95" xlink:href="#shape4"/>
    <use height="10.35" transform="matrix(1.0, 0.0, 0.0, 1.0, 1.0, 0.5)" width="42.05" xlink:href="#sprite2"/>
  </g>
  <defs>
    <g id="sprite0" transform="matrix(1.0, 0.0, 0.0, 1.0, 0.0, 0.0)">
      <use height="20.15" transform="matrix(1.0, 0.0, 0.0, 1.0, 0.0, 0.0)" width="28.2" xlink:href="#shape0"/>
    </g>
    <g id="shape0" transform="matrix(1.0, 0.0, 0.0, 1.0, 0.0, 0.0)">
      <path d="M27.4 18.95 Q26.2 20.8 23.4 19.8 19.6 18.5 17.35 14.05 14.8 9.1 9.75 7.4 4.1 5.65 0.0 10.3 1.0 6.85 3.7 4.15 7.2 0.65 11.9 0.05 L14.8 0.05 18.4 0.65 Q21.55 1.65 24.05 4.15 28.2 8.3 28.2 14.25 28.2 16.45 27.65 18.45 L27.4 18.95" fill="#ffffff" fill-opacity="0.19607843" fill-rule="evenodd" stroke="none"/>
    </g>
    <g id="shape1" transform="matrix(1.0, 0.0, 0.0, 1.0, 0.1, 0.0)">
      <path d="M41.7 2.3 Q43.9 4.5 43.9 7.6 L43.9 36.4 Q43.9 39.6 41.7 41.8 39.5 44.0 36.3 44.0 L7.5 44.0 Q4.35 44.0 2.15 41.8 -0.1 39.6 -0.1 36.4 L-0.1 7.6 Q-0.1 4.5 2.15 2.3 4.35 0.0 7.5 0.0 L36.3 0.0 Q39.45 0.0 41.7 2.3 M40.75 22.05 Q40.75 14.1 35.15 8.6 29.65 3.05 21.75 3.05 13.8 3.05 8.3 8.6 2.75 14.1 2.75 22.05 2.75 29.95 8.3 35.45 13.8 41.1 21.75 41.1 29.65 41.1 35.15 35.45 40.75 29.95 40.75 22.05" fill="url(#gradient0)" fill-rule="evenodd" stroke="none"/>
      <path d="M40.75 22.05 Q40.75 29.95 35.15 35.45 29.65 41.1 21.75 41.1 13.8 41.1 8.3 35.45 2.75 29.95 2.75 22.05 2.75 14.1 8.3 8.6 13.8 3.05 21.75 3.05 29.65 3.05 35.15 8.6 40.75 14.1 40.75 22.05 M33.6 10.35 Q28.65 5.45 21.75 5.4 14.85 5.45 10.0 10.35 5.1 15.15 5.05 22.05 5.1 29.0 10.0 33.85 14.85 38.75 21.75 38.75 28.65 38.75 33.6 33.85 38.4 29.0 38.4 22.05 38.4 15.15 33.6 10.35" fill="url(#gradient1)" fill-rule="evenodd" stroke="none"/>
    </g>
    <linearGradient gradientTransform="matrix(0.0, -0.0258, -0.0551, 0.0, 21.75, 21.85)" gradientUnits="userSpaceOnUse" id="gradient0" spreadMethod="pad" x1="-819.2" x2="819.2">
      <stop offset="0.011764705882352941" stop-color="#c79829"/>
      <stop offset="1.0" stop-color="#be7d1e"/>
    </linearGradient>
    <linearGradient gradientTransform="matrix(1.0E-4, 0.0223, -0.0232, 1.0E-4, 21.8, 22.3)" gradientUnits="userSpaceOnUse" id="gradient1" spreadMethod="pad" x1="-819.2" x2="819.2">
      <stop offset="0.011764705882352941" stop-color="#8d5910"/>
      <stop offset="1.0" stop-color="#d9d597"/>
    </linearGradient>
    <g id="shape2" transform="matrix(1.0, 0.0, 0.0, 1.0, 0.1, -2.0)">
      <path d="M38.75 27.95 L39.2 26.8 39.6 26.3 40.3 26.05 Q40.65 26.05 40.95 26.3 L41.4 26.85 41.8 27.95 42.95 27.95 43.65 28.2 43.85 28.35 43.85 29.95 43.6 30.1 42.75 30.75 43.15 32.1 43.15 32.8 42.7 33.35 42.0 33.55 41.35 33.3 41.1 33.15 41.05 35.7 43.45 36.65 Q43.65 36.7 43.85 36.9 L43.5 38.8 43.3 38.85 40.75 39.5 40.55 42.45 40.4 42.75 39.15 43.5 38.9 43.45 38.4 43.0 36.9 40.45 34.1 41.2 33.75 41.2 32.9 41.8 33.3 43.15 33.3 43.85 33.2 44.0 31.05 44.0 30.45 43.6 29.8 44.0 27.6 44.0 27.55 43.8 27.55 43.1 27.95 41.8 27.05 41.2 26.65 40.6 Q26.5 40.2 26.65 39.85 L27.05 39.25 27.75 39.05 28.9 39.05 29.35 37.9 29.75 37.35 30.45 37.15 31.1 37.35 31.55 37.95 31.95 39.05 33.1 39.05 34.75 37.05 33.45 34.85 33.3 34.15 33.6 33.45 Q33.8 33.2 34.15 33.15 L34.85 33.2 37.25 34.15 37.95 33.4 37.8 33.3 37.4 32.7 37.4 32.0 37.8 30.75 36.9 30.1 36.5 29.55 Q36.35 29.15 36.5 28.8 L36.9 28.2 Q37.2 27.95 37.6 27.95 L38.75 27.95 M30.55 38.7 L30.3 38.7 29.7 40.2 28.1 40.2 28.0 40.45 29.35 41.35 28.75 43.1 28.95 43.2 30.45 42.15 31.85 43.2 32.1 43.1 31.55 41.35 32.7 40.5 32.65 40.2 31.15 40.2 30.55 38.7 M37.6 35.5 L34.45 34.25 36.2 37.2 33.8 40.0 37.45 39.1 39.4 42.35 39.65 38.6 43.05 37.7 39.9 36.45 39.95 33.0 37.6 35.5 M39.55 29.15 L37.95 29.15 37.85 29.35 39.2 30.3 38.65 32.0 38.8 32.15 40.3 31.1 41.7 32.15 41.95 32.0 41.4 30.3 42.7 29.35 42.55 29.15 41.0 29.15 40.4 27.6 40.15 27.6 39.55 29.15" fill="url(#gradient2)" fill-rule="evenodd" stroke="none"/>
      <path d="M42.1 29.75 L41.4 30.3 41.4 30.9 41.75 32.2 40.3 31.1 38.8 32.2 39.2 30.9 39.2 30.3 38.45 29.75 39.55 29.75 40.3 27.85 41.0 29.75 42.1 29.75 M39.9 36.45 L39.9 37.05 42.05 38.0 39.65 38.6 39.4 42.35 37.45 39.1 34.45 39.85 36.2 37.8 36.2 37.2 34.9 35.1 37.6 36.15 39.95 33.65 39.9 36.45 M32.25 40.85 L31.55 41.35 31.55 42.0 31.9 43.25 30.45 42.15 28.95 43.25 29.35 42.0 29.35 41.35 28.6 40.85 29.7 40.85 30.45 38.9 31.15 40.85 32.25 40.85" fill="#815815" fill-rule="evenodd" stroke="none"/>
      <path d="M38.45 29.75 L37.6 29.15 39.55 29.15 40.3 27.2 41.0 29.15 42.95 29.15 42.1 29.75 41.0 29.75 40.3 27.85 39.55 29.75 38.45 29.75 M41.4 30.3 L42.05 32.35 41.75 32.2 41.4 30.9 41.4 30.3 M38.8 32.2 L38.5 32.35 39.2 30.3 39.2 30.9 38.8 32.2 M39.9 36.45 L43.05 37.7 42.05 38.0 39.9 37.05 39.9 36.45 M34.45 39.85 L33.8 40.0 36.2 37.2 36.2 37.8 34.45 39.85 M34.9 35.1 L34.45 34.25 37.6 35.5 39.95 33.0 39.95 33.65 37.6 36.15 34.9 35.1 M28.6 40.85 L27.75 40.2 29.7 40.2 30.45 38.3 31.15 40.2 33.1 40.2 32.25 40.85 31.15 40.85 30.45 38.9 29.7 40.85 28.6 40.85 M31.55 41.35 L32.2 43.45 31.9 43.25 31.55 42.0 31.55 41.35 M28.95 43.25 L28.65 43.45 29.35 41.35 29.35 42.0 28.95 43.25" fill="#674512" fill-rule="evenodd" stroke="none"/>
      <path d="M5.0 27.95 L6.15 27.95 6.85 28.2 7.25 28.8 7.25 29.55 6.85 30.1 5.95 30.75 6.35 32.0 6.35 32.7 5.95 33.3 5.8 33.4 6.5 34.15 8.9 33.2 9.6 33.15 10.15 33.45 10.45 34.15 10.3 34.85 9.0 37.05 10.65 39.05 11.8 39.05 12.2 37.95 12.65 37.35 13.3 37.15 14.0 37.35 14.4 37.9 14.85 39.05 16.0 39.05 16.7 39.25 17.1 39.85 17.1 40.6 16.7 41.2 15.8 41.8 16.2 43.1 16.2 43.8 16.15 44.0 13.95 44.0 13.3 43.6 12.7 44.0 10.55 44.0 10.45 43.85 10.45 43.15 10.85 41.8 10.0 41.2 9.65 41.2 6.85 40.45 5.35 43.0 4.85 43.45 4.6 43.5 Q3.9 43.2 3.35 42.75 L3.2 42.45 3.0 39.5 0.45 38.85 0.25 38.8 -0.1 36.9 Q0.1 36.7 0.3 36.65 L2.7 35.7 2.65 33.15 2.4 33.3 1.75 33.55 1.05 33.35 0.6 32.8 0.6 32.1 1.0 30.75 0.15 30.1 -0.1 29.95 -0.1 28.35 0.1 28.2 Q0.35 27.95 0.8 27.95 L1.95 27.95 2.35 26.85 2.8 26.3 Q3.1 26.05 3.45 26.05 L4.15 26.3 4.55 26.8 5.0 27.95 M4.2 29.15 L3.6 27.6 3.35 27.6 2.75 29.15 1.2 29.15 1.05 29.35 2.35 30.3 1.8 32.0 2.05 32.15 3.45 31.1 4.95 32.15 5.1 32.0 4.55 30.3 5.9 29.35 5.8 29.15 4.2 29.15 M6.15 35.5 L3.8 33.0 3.85 36.45 0.7 37.7 4.1 38.6 4.35 42.35 6.3 39.1 9.95 40.0 7.55 37.2 9.3 34.25 6.15 35.5 M13.2 38.7 L12.6 40.2 11.1 40.2 11.05 40.5 12.2 41.35 11.65 43.1 11.9 43.2 13.3 42.15 14.8 43.2 15.0 43.1 14.4 41.35 15.75 40.45 15.65 40.2 14.05 40.2 13.45 38.7 13.2 38.7" fill="url(#gradient3)" fill-rule="evenodd" stroke="none"/>
      <path d="M1.65 29.75 L0.8 29.15 2.75 29.15 3.45 27.2 4.2 29.15 6.15 29.15 5.3 29.75 4.2 29.75 3.45 27.85 2.75 29.75 1.65 29.75 M4.55 30.3 L5.25 32.35 4.95 32.2 4.55 30.9 4.55 30.3 M2.0 32.2 L1.7 32.35 2.35 30.3 2.35 30.9 2.0 32.2 M3.8 33.65 L3.8 33.0 6.15 35.5 9.3 34.25 8.85 35.1 6.15 36.15 3.8 33.65 M7.55 37.2 L9.95 40.0 9.3 39.85 7.55 37.8 7.55 37.2 M1.7 38.0 L0.7 37.7 3.85 36.45 3.85 37.05 1.7 38.0 M11.5 40.85 L10.65 40.2 12.6 40.2 13.3 38.3 14.05 40.2 16.0 40.2 15.15 40.85 14.05 40.85 13.3 38.9 12.6 40.85 11.5 40.85 M14.4 41.35 L15.1 43.45 14.8 43.25 14.4 42.0 14.4 41.35 M11.85 43.25 L11.55 43.45 12.2 41.35 12.2 42.0 11.85 43.25" fill="#674512" fill-rule="evenodd" stroke="none"/>
      <path d="M1.65 29.75 L2.75 29.75 3.45 27.85 4.2 29.75 5.3 29.75 4.55 30.3 4.55 30.9 4.95 32.2 3.45 31.1 2.0 32.2 2.35 30.9 2.35 30.3 1.65 29.75 M8.85 35.1 L7.55 37.2 7.55 37.8 9.3 39.85 6.3 39.1 4.35 42.35 4.1 38.6 1.7 38.0 3.85 37.05 3.85 36.45 3.8 33.65 6.15 36.15 8.85 35.1 M11.5 40.85 L12.6 40.85 13.3 38.9 14.05 40.85 15.15 40.85 14.4 41.35 14.4 42.0 14.8 43.25 13.3 42.15 11.85 43.25 12.2 42.0 12.2 41.35 11.5 40.85" fill="#815815" fill-rule="evenodd" stroke="none"/>
      <path d="M35.25 33.7 Q29.8 39.1 22.1 39.1 14.35 39.1 8.9 33.7 3.45 28.25 3.45 20.55 3.45 12.85 8.9 7.45 14.35 2.0 22.1 2.0 29.8 2.0 35.25 7.45 40.65 12.9 40.65 20.55 40.65 28.25 35.25 33.7" fill="url(#gradient4)" fill-rule="evenodd" stroke="none"/>
      <path d="M30.75 12.9 Q29.65 11.15 26.85 10.6 27.05 9.5 26.55 8.65 30.6 9.65 30.75 12.9 M27.3 12.25 Q29.0 12.55 29.85 13.95 32.15 14.3 32.75 15.7 30.95 14.8 28.85 15.15 28.55 13.6 27.3 12.25 M15.2 32.4 L18.65 32.7 17.4 34.35 18.9 36.2 15.65 34.8 16.65 33.45 15.2 32.4" fill="#664411" fill-rule="evenodd" stroke="none"/>
      <path d="M31.4 21.9 Q32.15 24.1 34.35 23.1 35.8 21.05 34.1 19.4 L31.4 21.9 M25.95 21.25 Q25.2 23.8 26.95 24.6 28.9 25.25 30.0 22.5 27.9 22.45 25.95 21.25 M22.45 13.55 Q22.9 14.75 22.8 16.5 L24.45 17.05 Q30.4 14.65 33.95 17.45 L35.15 16.9 35.6 15.0 Q39.1 17.2 36.9 20.35 39.6 22.6 38.2 24.95 39.95 28.6 36.25 31.0 35.0 34.4 31.75 34.1 L30.05 36.65 24.8 36.5 26.1 34.95 24.75 34.9 Q23.85 36.0 22.45 36.5 19.95 36.75 19.4 34.25 L20.7 32.8 Q19.05 31.9 19.9 30.7 16.85 29.05 18.6 25.95 17.0 23.4 19.95 21.25 18.4 17.45 22.45 13.55 M26.45 31.25 Q26.75 28.95 30.45 27.6 34.3 27.1 33.4 29.15 36.05 28.75 36.05 26.35 35.25 24.15 33.35 25.45 31.15 25.0 29.0 26.8 25.0 26.5 24.75 29.6 25.05 31.25 26.45 31.25" fill="#664411" fill-rule="evenodd" stroke="none"/>
      <path d="M14.75 28.95 L14.95 28.55 17.25 28.15 17.35 29.05 16.75 30.25 17.1 30.4 18.2 30.3 19.0 31.0 18.9 31.55 17.1 31.8 Q16.2 31.75 15.4 31.3 L14.85 31.05 15.05 30.65 14.95 30.7 14.7 31.1 13.65 31.8 13.6 31.85 13.5 31.85 Q10.6 32.75 9.25 30.05 L9.05 29.8 9.25 29.5 9.9 28.4 Q8.6 27.75 8.8 26.6 6.85 25.9 6.5 24.35 L6.5 23.9 6.4 23.5 6.6 22.15 6.35 21.8 Q4.75 19.6 6.9 17.1 4.8 13.55 8.2 8.85 L8.8 7.95 9.3 8.75 Q9.95 9.8 10.3 11.3 L10.8 11.3 11.15 11.45 11.5 11.45 14.15 10.05 20.95 9.85 21.45 9.45 21.55 6.85 22.5 7.25 Q26.8 8.8 25.5 12.4 L27.05 13.7 27.5 14.5 27.55 14.6 27.75 15.4 26.4 15.75 26.2 15.05 26.15 14.8 26.0 14.65 24.3 13.35 23.85 13.05 24.05 12.5 Q25.05 10.15 22.85 8.95 L22.8 10.2 22.4 10.4 Q21.75 10.7 21.5 11.0 L21.15 11.45 20.65 11.25 14.15 11.45 Q13.0 11.9 11.8 12.7 L11.6 12.85 11.3 12.8 11.0 12.8 10.8 12.65 10.55 12.7 9.65 12.6 9.1 12.65 9.05 12.15 8.6 10.55 Q6.55 14.05 8.35 16.65 L8.6 17.15 8.2 17.5 Q6.2 19.65 7.85 21.4 L8.05 21.65 8.1 21.7 7.95 22.05 7.75 23.4 7.7 23.65 7.8 23.85 Q8.2 25.05 9.85 25.5 L10.35 25.65 10.25 26.35 Q10.05 27.05 11.2 27.45 L11.95 27.75 11.4 28.45 10.6 29.6 Q11.5 31.05 13.2 30.6 L13.85 30.1 Q14.0 29.95 14.15 29.9 L14.25 29.7 14.75 28.95 M15.4 18.9 Q14.8 19.75 13.95 19.8 13.1 19.9 12.55 19.2 11.95 18.65 11.95 17.65 11.95 16.65 12.55 15.85 13.1 15.15 13.95 15.05 14.8 15.0 15.4 15.55 L15.8 16.15 Q15.85 15.65 16.15 15.3 16.55 14.8 17.15 14.75 17.75 14.65 18.15 15.1 18.55 15.5 18.55 16.2 18.55 16.9 18.15 17.4 17.75 17.9 17.15 18.0 16.55 18.05 16.15 17.6 L16.0 17.4 Q15.95 18.25 15.4 18.9 M12.55 25.85 Q11.2 25.8 10.85 24.15 11.15 21.05 15.15 21.4 16.95 19.9 18.9 20.0 L19.1 21.05 18.25 21.9 18.15 22.15 16.6 22.2 Q12.9 23.6 12.55 25.85" fill="#664411" fill-rule="evenodd" stroke="none"/>
    </g>
    <linearGradient gradientTransform="matrix(0.0, -0.0258, -0.0551, 0.0, 21.75, 21.85)" gradientUnits="userSpaceOnUse" id="gradient2" spreadMethod="pad" x1="-819.2" x2="819.2">
      <stop offset="0.011764705882352941" stop-color="#c79829"/>
      <stop offset="1.0" stop-color="#be7d1e"/>
    </linearGradient>
    <linearGradient gradientTransform="matrix(0.0, -0.0258, 0.0551, 0.0, 21.95, 21.85)" gradientUnits="userSpaceOnUse" id="gradient3" spreadMethod="pad" x1="-819.2" x2="819.2">
      <stop offset="0.011764705882352941" stop-color="#c79829"/>
      <stop offset="1.0" stop-color="#be7d1e"/>
    </linearGradient>
    <linearGradient gradientTransform="matrix(0.0056, 0.0, 0.0, 0.0043, -24.5, 40.25)" gradientUnits="userSpaceOnUse" id="gradient4" spreadMethod="pad" x1="-819.2" x2="819.2">
      <stop offset="0.011764705882352941" stop-color="#c79829"/>
      <stop offset="1.0" stop-color="#be7d1e"/>
    </linearGradient>
    <g id="shape3" transform="matrix(1.0, 0.0, 0.0, 1.0, 0.1, 0.0)">
      <path d="M41.7 2.3 Q43.9 4.5 43.9 7.6 L43.9 36.4 Q43.9 39.6 41.7 41.8 39.5 44.0 36.3 44.0 L7.5 44.0 Q4.35 44.0 2.15 41.8 -0.1 39.6 -0.1 36.4 L-0.1 7.6 Q-0.1 4.5 2.15 2.3 4.35 0.0 7.5 0.0 L36.3 0.0 Q39.45 0.0 41.7 2.3 M40.75 22.05 Q40.75 14.1 35.15 8.6 29.65 3.05 21.75 3.05 13.8 3.05 8.3 8.6 2.75 14.1 2.75 22.05 2.75 29.95 8.3 35.45 13.8 41.1 21.75 41.1 29.65 41.1 35.15 35.45 40.75 29.95 40.75 22.05" fill="url(#gradient5)" fill-rule="evenodd" stroke="none"/>
      <path d="M40.75 22.05 Q40.75 29.95 35.15 35.45 29.65 41.1 21.75 41.1 13.8 41.1 8.3 35.45 2.75 29.95 2.75 22.05 2.75 14.1 8.3 8.6 13.8 3.05 21.75 3.05 29.65 3.05 35.15 8.6 40.75 14.1 40.75 22.05 M33.6 10.35 Q28.65 5.45 21.75 5.4 14.85 5.45 10.0 10.35 5.1 15.15 5.05 22.05 5.1 29.0 10.0 33.85 14.85 38.75 21.75 38.75 28.65 38.75 33.6 33.85 38.4 29.0 38.4 22.05 38.4 15.15 33.6 10.35" fill="url(#gradient6)" fill-rule="evenodd" stroke="none"/>
    </g>
    <linearGradient gradientTransform="matrix(0.0, -0.0258, -0.0551, 0.0, 21.75, 21.85)" gradientUnits="userSpaceOnUse" id="gradient5" spreadMethod="pad" x1="-819.2" x2="819.2">
      <stop offset="0.011764705882352941" stop-color="#dad67d"/>
      <stop offset="1.0" stop-color="#cfa451"/>
    </linearGradient>
    <linearGradient gradientTransform="matrix(0.0, 0.0059, -0.0232, 0.0, 21.75, 18.4)" gradientUnits="userSpaceOnUse" id="gradient6" spreadMethod="pad" x1="-819.2" x2="819.2">
      <stop offset="0.011764705882352941" stop-color="#8d5910"/>
      <stop offset="1.0" stop-color="#d9d597"/>
    </linearGradient>
    <g id="shape4" transform="matrix(1.0, 0.0, 0.0, 1.0, 0.0, -26.1)">
      <path d="M41.5 26.9 L41.9 28.0 43.05 28.0 43.75 28.25 43.95 28.4 43.95 30.0 43.7 30.15 42.85 30.8 43.25 32.15 43.25 32.85 42.8 33.4 42.1 33.6 41.45 33.35 41.2 33.2 41.15 35.75 43.55 36.7 Q43.75 36.75 43.95 36.95 L43.6 38.85 43.4 38.9 40.85 39.55 40.65 42.5 40.5 42.8 39.25 43.55 39.0 43.5 38.5 43.05 37.0 40.5 34.2 41.25 33.85 41.25 33.0 41.85 33.4 43.2 33.4 43.9 33.3 44.05 31.15 44.05 30.55 43.65 29.9 44.05 27.7 44.05 27.65 43.85 27.65 43.15 28.05 41.85 27.15 41.25 26.75 40.65 Q26.6 40.25 26.75 39.9 L27.15 39.3 27.85 39.1 29.0 39.1 29.45 37.95 Q29.6 37.6 29.85 37.4 L30.55 37.2 31.2 37.4 31.65 38.0 32.05 39.1 33.2 39.1 34.85 37.1 33.55 34.9 33.4 34.2 33.7 33.5 Q33.9 33.25 34.25 33.2 L34.95 33.25 37.35 34.2 38.05 33.45 37.9 33.35 37.5 32.75 37.5 32.05 37.9 30.8 37.0 30.15 36.6 29.6 Q36.45 29.2 36.6 28.85 L37.0 28.25 Q37.3 28.0 37.7 28.0 L38.85 28.0 39.3 26.85 39.7 26.35 Q40.05 26.1 40.4 26.1 L41.05 26.35 41.5 26.9 M29.8 40.25 L28.2 40.25 28.1 40.5 29.45 41.4 28.85 43.15 29.05 43.25 30.55 42.2 31.95 43.25 32.2 43.15 31.65 41.4 32.8 40.55 32.75 40.25 31.25 40.25 30.65 38.75 30.4 38.75 29.8 40.25 M40.05 33.05 L37.7 35.55 34.55 34.3 36.3 37.25 33.9 40.05 37.55 39.15 39.5 42.4 39.75 38.65 43.15 37.75 40.0 36.5 40.05 33.05 M42.65 29.2 L41.1 29.2 40.5 27.65 40.25 27.65 39.65 29.2 38.05 29.2 37.95 29.4 39.3 30.35 38.75 32.05 38.9 32.2 40.4 31.15 41.8 32.2 42.05 32.05 41.5 30.35 42.8 29.4 42.65 29.2" fill="#d1ae5a" fill-rule="evenodd" stroke="none"/>
      <path d="M42.2 29.8 L41.5 30.35 41.5 30.95 41.85 32.25 40.4 31.15 38.9 32.25 39.3 30.95 39.3 30.35 38.55 29.8 39.65 29.8 40.4 27.9 41.1 29.8 42.2 29.8 M40.0 36.5 L40.0 37.1 42.15 38.05 39.75 38.65 39.5 42.4 37.55 39.15 34.55 39.9 36.3 37.85 36.3 37.25 35.0 35.15 37.7 36.2 40.05 33.7 40.0 36.5 M32.35 40.9 L31.65 41.4 31.65 42.05 32.0 43.3 30.55 42.2 29.05 43.3 29.45 42.05 29.45 41.4 28.7 40.9 29.8 40.9 30.55 38.95 31.25 40.9 32.35 40.9" fill="#815815" fill-rule="evenodd" stroke="none"/>
      <path d="M38.55 29.8 L37.7 29.2 39.65 29.2 40.4 27.25 41.1 29.2 43.05 29.2 42.2 29.8 41.1 29.8 40.4 27.9 39.65 29.8 38.55 29.8 M41.5 30.35 L42.15 32.4 41.85 32.25 41.5 30.95 41.5 30.35 M38.9 32.25 L38.6 32.4 39.3 30.35 39.3 30.95 38.9 32.25 M40.0 36.5 L43.15 37.75 42.15 38.05 40.0 37.1 40.0 36.5 M34.55 39.9 L33.9 40.05 36.3 37.25 36.3 37.85 34.55 39.9 M35.0 35.15 L34.55 34.3 37.7 35.55 40.05 33.05 40.05 33.7 37.7 36.2 35.0 35.15 M28.7 40.9 L27.85 40.25 29.8 40.25 30.55 38.35 31.25 40.25 33.2 40.25 32.35 40.9 31.25 40.9 30.55 38.95 29.8 40.9 28.7 40.9 M31.65 41.4 L32.3 43.5 32.0 43.3 31.65 42.05 31.65 41.4 M29.05 43.3 L28.75 43.5 29.45 41.4 29.45 42.05 29.05 43.3" fill="#674512" fill-rule="evenodd" stroke="none"/>
      <path d="M10.25 33.5 L10.55 34.2 10.4 34.9 9.1 37.1 10.75 39.1 11.9 39.1 12.3 38.0 Q12.4 37.6 12.75 37.4 L13.4 37.2 14.1 37.4 14.5 37.95 14.95 39.1 16.1 39.1 16.8 39.3 17.2 39.9 17.2 40.65 16.8 41.25 15.9 41.85 16.3 43.15 16.3 43.85 16.25 44.05 14.05 44.05 13.4 43.65 12.8 44.05 10.65 44.05 10.55 43.9 10.55 43.2 10.95 41.85 10.1 41.25 9.75 41.25 6.95 40.5 5.45 43.05 4.95 43.5 4.7 43.55 3.45 42.8 3.3 42.5 3.1 39.55 0.55 38.9 0.35 38.85 0.0 36.95 0.4 36.7 2.8 35.75 2.75 33.2 2.5 33.35 1.85 33.6 Q1.45 33.6 1.15 33.4 L0.7 32.85 0.7 32.15 1.1 30.8 0.25 30.15 0.0 30.0 0.0 28.4 0.2 28.25 0.9 28.0 2.05 28.0 2.45 26.9 Q2.55 26.5 2.9 26.35 L3.55 26.1 Q3.9 26.1 4.25 26.35 L4.65 26.85 5.1 28.0 6.25 28.0 6.95 28.25 7.35 28.85 7.35 29.6 6.95 30.15 6.05 30.8 6.45 32.05 6.45 32.75 6.05 33.35 5.9 33.45 6.6 34.2 9.0 33.25 9.7 33.2 10.25 33.5 M5.9 29.2 L4.3 29.2 3.7 27.65 3.45 27.65 2.85 29.2 1.3 29.2 1.15 29.4 2.45 30.35 1.9 32.05 2.15 32.2 3.55 31.15 5.05 32.2 5.2 32.05 4.65 30.35 6.0 29.4 5.9 29.2 M3.95 36.5 L0.8 37.75 4.2 38.65 4.45 42.4 6.4 39.15 10.05 40.05 7.65 37.25 9.4 34.3 6.25 35.55 3.9 33.05 3.95 36.5 M15.75 40.25 L14.15 40.25 13.55 38.75 13.3 38.75 12.7 40.25 11.2 40.25 11.15 40.55 12.3 41.4 11.75 43.15 12.0 43.25 13.4 42.2 14.9 43.25 15.1 43.15 14.5 41.4 15.85 40.5 15.75 40.25" fill="#d1ae5a" fill-rule="evenodd" stroke="none"/>
      <path d="M1.75 29.8 L0.9 29.2 2.85 29.2 3.55 27.25 4.3 29.2 6.25 29.2 5.4 29.8 4.3 29.8 3.55 27.9 2.85 29.8 1.75 29.8 M4.65 30.35 L5.35 32.4 5.05 32.25 4.65 30.95 4.65 30.35 M2.1 32.25 L1.8 32.4 2.45 30.35 2.45 30.95 2.1 32.25 M3.9 33.7 L3.9 33.05 6.25 35.55 9.4 34.3 8.95 35.15 6.25 36.2 3.9 33.7 M7.65 37.25 L10.05 40.05 9.4 39.9 7.65 37.85 7.65 37.25 M1.8 38.05 L0.8 37.75 3.95 36.5 3.95 37.1 1.8 38.05 M11.6 40.9 L10.75 40.25 12.7 40.25 13.4 38.35 14.15 40.25 16.1 40.25 15.25 40.9 14.15 40.9 13.4 38.95 12.7 40.9 11.6 40.9 M14.5 41.4 L15.2 43.5 14.9 43.3 14.5 42.05 14.5 41.4 M11.95 43.3 L11.65 43.5 12.3 41.4 12.3 42.05 11.95 43.3" fill="#674512" fill-rule="evenodd" stroke="none"/>
      <path d="M1.75 29.8 L2.85 29.8 3.55 27.9 4.3 29.8 5.4 29.8 4.65 30.35 4.65 30.95 5.05 32.25 3.55 31.15 2.1 32.25 2.45 30.95 2.45 30.35 1.75 29.8 M3.95 36.5 L3.9 33.7 6.25 36.2 8.95 35.15 7.65 37.25 7.65 37.85 9.4 39.9 6.4 39.15 4.45 42.4 4.2 38.65 1.8 38.05 3.95 37.1 3.95 36.5 M11.6 40.9 L12.7 40.9 13.4 38.95 14.15 40.9 15.25 40.9 14.5 41.4 14.5 42.05 14.9 43.3 13.4 42.2 11.95 43.3 12.3 42.05 12.3 41.4 11.6 40.9" fill="#815815" fill-rule="evenodd" stroke="none"/>
    </g>
    <g id="sprite2" transform="matrix(1.0, 0.0, 0.0, 1.0, 0.15, 0.0)">
      <use height="10.35" transform="matrix(1.0, 0.0, 0.0, 1.0, -0.15, 0.0)" width="42.05" xlink:href="#shape5"/>
    </g>
    <g id="shape5" transform="matrix(1.0, 0.0, 0.0, 1.0, 0.15, 0.0)">
      <path d="M32.7 0.0 Q39.65 0.0 41.35 5.3 41.9 7.0 41.9 9.2 L41.9 10.35 Q41.85 8.4 41.35 6.9 39.65 1.55 32.7 1.55 L9.05 1.55 Q0.15 1.55 -0.15 10.2 L-0.15 9.2 Q-0.15 0.0 9.05 0.0 L32.7 0.0" fill="#e7deda" fill-opacity="0.5882353" fill-rule="evenodd" stroke="none"/>
    </g>
  </defs>
</svg>
