<?xml version="1.0" encoding="UTF-8" standalone="no"?>
<svg xmlns:xlink="http://www.w3.org/1999/xlink" height="65.925px" width="66.075px" xmlns="http://www.w3.org/2000/svg">
  <g transform="matrix(1.5, 0.0, 0.0, 1.5, 0.0, 0.0)">
    <use height="43.95" transform="matrix(1.0, 0.0, 0.0, 1.0, 0.0, 0.0)" width="44.05" xlink:href="#shape0"/>
    <use height="8.6" transform="matrix(1.2077, 0.0, 0.0, 1.2077, 0.5085, 0.75)" width="35.05" xlink:href="#sprite0"/>
    <use height="20.7" transform="matrix(1.2077, 0.0, 0.0, 1.2077, 0.45, 18.9)" width="7.3" xlink:href="#sprite1"/>
    <use height="24.05" transform="matrix(1.0, 0.0, 0.0, 1.0, 1.15, 18.5)" width="8.5" xlink:href="#shape3"/>
    <use height="12.1" transform="matrix(1.2077, 0.0, 0.0, 1.2077, 1.9896, 27.4)" width="5.7" xlink:href="#sprite2"/>
    <use height="18.7" transform="matrix(1.1918, 0.0, 0.0, 1.1918, 1.0, 18.15)" width="5.7" xlink:href="#sprite3"/>
    <use height="7.0" transform="matrix(1.1918, 0.0, 0.0, 1.1918, 3.0, 32.2404)" width="3.35" xlink:href="#sprite4"/>
    <use height="22.75" transform="matrix(1.0, 0.0, 0.0, 1.0, 1.7, 18.9)" width="7.0" xlink:href="#shape7"/>
    <use height="11.6" transform="matrix(1.1918, 0.0, 0.0, 1.1918, 0.95, 29.5)" width="6.9" xlink:href="#sprite5"/>
    <use height="11.1" transform="matrix(1.1918, 0.0, 0.0, 1.1918, 1.2, 29.5)" width="6.45" xlink:href="#sprite6"/>
    <use height="11.8" transform="matrix(1.1918, 0.0, 0.0, 1.1918, 0.95, 28.25)" width="6.5" xlink:href="#sprite7"/>
    <use height="18.7" transform="matrix(1.1918, 0.0, 0.0, 1.1918, 35.35, 18.15)" width="5.7" xlink:href="#sprite8"/>
    <use height="7.0" transform="matrix(1.1918, 0.0, 0.0, 1.1918, 36.1, 32.2404)" width="3.35" xlink:href="#sprite9"/>
    <use height="22.75" transform="matrix(1.0, 0.0, 0.0, 1.0, 34.45, 18.9)" width="7.05" xlink:href="#shape13"/>
    <use height="11.6" transform="matrix(1.1918, 0.0, 0.0, 1.1918, 33.9904, 29.5)" width="6.9" xlink:href="#sprite10"/>
    <use height="11.1" transform="matrix(1.1918, 0.0, 0.0, 1.1918, 34.3096, 29.5)" width="6.35" xlink:href="#sprite11"/>
    <use height="11.8" transform="matrix(1.1918, 0.0, 0.0, 1.1918, 34.5096, 28.25)" width="6.45" xlink:href="#sprite12"/>
    <use height="25.1" transform="matrix(1.0, 0.0, 0.0, 1.0, 11.5, 10.5)" width="24.65" xlink:href="#shape17"/>
    <use height="20.15" transform="matrix(1.1548, 0.0, 0.0, 1.1548, 6.3, 5.65)" width="28.2" xlink:href="#sprite13"/>
  </g>
  <defs>
    <g id="shape0" transform="matrix(1.0, 0.0, 0.0, 1.0, 0.0, 0.0)">
      <path d="M7.55 8.15 Q13.45 2.25 21.8 2.25 30.15 2.25 36.05 8.15 42.0 14.1 42.0 22.4 42.0 30.75 36.05 36.65 30.15 42.6 21.8 42.6 13.45 42.6 7.55 36.65 1.65 30.75 1.65 22.4 1.65 14.1 7.55 8.15" fill="url(#gradient0)" fill-rule="evenodd" stroke="none"/>
      <path d="M22.05 4.65 Q14.85 4.65 9.8 9.75 4.7 14.8 4.7 22.0 4.7 29.15 9.8 34.25 14.85 39.3 22.05 39.3 29.25 39.3 34.25 34.25 39.3 29.15 39.3 22.0 39.3 14.8 34.25 9.75 29.15 4.65 22.05 4.65 M2.25 2.25 Q4.5 0.0 7.6 0.0 L36.4 0.0 Q39.55 0.0 41.8 2.25 44.05 4.5 44.05 7.6 L44.05 36.35 Q44.05 39.5 41.8 41.75 39.55 43.95 36.4 43.95 L7.6 43.95 Q4.5 43.95 2.25 41.75 0.0 39.5 0.0 36.35 L0.0 7.6 Q0.0 4.5 2.25 2.25" fill="url(#gradient1)" fill-rule="evenodd" stroke="none"/>
      <path d="M21.95 5.5 Q15.0 5.55 10.2 10.4 5.3 15.25 5.3 22.15 5.3 29.1 10.2 34.0 15.0 38.8 21.95 38.8 28.75 38.8 33.65 34.0 38.55 29.1 38.55 22.15 38.55 15.25 33.65 10.4 28.8 5.55 21.95 5.5 M35.35 8.75 Q40.95 14.3 40.95 22.15 40.95 30.05 35.35 35.6 29.8 41.15 21.95 41.15 14.05 41.15 8.45 35.6 2.9 30.05 2.9 22.15 2.9 14.3 8.45 8.75 14.05 3.15 21.95 3.15 29.8 3.15 35.35 8.75" fill="url(#gradient2)" fill-rule="evenodd" stroke="none"/>
    </g>
    <linearGradient gradientTransform="matrix(0.0, -0.0189, -0.0189, 0.0, 21.8, 18.6)" gradientUnits="userSpaceOnUse" id="gradient0" spreadMethod="pad" x1="-819.2" x2="819.2">
      <stop offset="0.011764705882352941" stop-color="#b3f9e4"/>
      <stop offset="1.0" stop-color="#5bbbff"/>
    </linearGradient>
    <linearGradient gradientTransform="matrix(0.0, -0.044, -0.044, 0.0, 22.0, -1.2)" gradientUnits="userSpaceOnUse" id="gradient1" spreadMethod="pad" x1="-819.2" x2="819.2">
      <stop offset="0.011764705882352941" stop-color="#90d1d1"/>
      <stop offset="0.9764705882352941" stop-color="#003459"/>
    </linearGradient>
    <linearGradient gradientTransform="matrix(0.0, -0.0168, -0.0168, 0.0, 21.95, 26.75)" gradientUnits="userSpaceOnUse" id="gradient2" spreadMethod="pad" x1="-819.2" x2="819.2">
      <stop offset="0.011764705882352941" stop-color="#dbf7ff"/>
      <stop offset="0.9764705882352941" stop-color="#384759"/>
    </linearGradient>
    <g id="sprite0" transform="matrix(1.0, 0.0, 0.0, 1.0, 0.2, 0.0)">
      <use height="8.6" transform="matrix(1.0, 0.0, 0.0, 1.0, -0.2, 0.0)" width="35.05" xlink:href="#shape1"/>
    </g>
    <g id="shape1" transform="matrix(1.0, 0.0, 0.0, 1.0, 0.2, 0.0)">
      <path d="M34.4 4.4 Q34.85 5.8 34.85 7.65 L34.85 8.6 Q34.8 6.95 34.4 5.7 33.0 1.3 27.2 1.3 L7.45 1.3 Q0.05 1.3 -0.2 8.5 L-0.2 7.65 Q-0.2 0.0 7.45 0.0 L27.2 0.0 Q33.0 0.0 34.4 4.4" fill="#e7deda" fill-rule="evenodd" stroke="none"/>
    </g>
    <g id="sprite1" transform="matrix(1.0, 0.0, 0.0, 1.0, 0.0, 0.0)">
      <use height="20.7" transform="matrix(1.0, 0.0, 0.0, 1.0, 0.0, 0.0)" width="7.3" xlink:href="#shape2"/>
    </g>
    <g id="shape2" transform="matrix(1.0, 0.0, 0.0, 1.0, 0.0, 0.0)">
      <path d="M1.5 3.3 Q1.25 4.9 1.35 6.95 1.55 10.95 3.35 13.0 L6.75 16.9 Q7.8 18.5 6.9 19.6 5.25 21.5 2.85 20.1 -0.1 18.35 0.0 11.65 0.1 5.2 1.1 1.95 1.6 0.35 2.05 0.0 L1.5 3.3" fill="#6c6a85" fill-rule="evenodd" stroke="none"/>
    </g>
    <g id="shape3" transform="matrix(1.0, 0.0, 0.0, 1.0, -1.15, -18.5)">
      <path d="M2.7 21.4 L2.65 25.75 Q3.1 30.65 5.15 33.2 L9.0 38.0 Q10.25 40.0 9.05 41.35 7.0 43.55 4.15 41.7 0.7 39.45 1.2 31.35 1.7 23.65 2.5 20.3 L3.15 18.5 2.7 21.4" fill="url(#gradient3)" fill-rule="evenodd" stroke="none"/>
    </g>
    <linearGradient gradientTransform="matrix(0.0, -0.0105, -0.0105, 0.0, 5.35, 33.3)" gradientUnits="userSpaceOnUse" id="gradient3" spreadMethod="pad" x1="-819.2" x2="819.2">
      <stop offset="0.011764705882352941" stop-color="#dbf7ff"/>
      <stop offset="0.9764705882352941" stop-color="#384759"/>
    </linearGradient>
    <g id="sprite2" transform="matrix(1.0, 0.0, 0.0, 1.0, 0.05, 0.0)">
      <use height="12.1" transform="matrix(1.0, 0.0, 0.0, 1.0, -0.05, 0.0)" width="5.7" xlink:href="#shape4"/>
    </g>
    <g id="shape4" transform="matrix(1.0, 0.0, 0.0, 1.0, 0.05, 0.0)">
      <path d="M1.45 10.9 Q3.25 11.3 3.25 9.75 3.25 8.85 2.15 7.35 L0.45 4.75 Q-0.3 2.9 0.1 0.0 0.15 0.9 0.5 2.05 1.15 4.35 2.45 5.8 L5.15 8.65 Q6.15 9.9 5.1 11.0 2.85 13.25 1.45 10.9" fill="#f2f2f2" fill-rule="evenodd" stroke="none"/>
    </g>
    <g id="sprite3" transform="matrix(1.0, 0.0, 0.0, 1.0, 0.0, 0.0)">
      <use height="18.7" transform="matrix(1.0, 0.0, 0.0, 1.0, 0.0, 0.0)" width="5.7" xlink:href="#shape5"/>
    </g>
    <g id="shape5" transform="matrix(1.0, 0.0, 0.0, 1.0, 0.0, 0.0)">
      <path d="M1.65 11.9 Q1.55 10.8 0.55 8.3 -0.4 5.85 0.25 2.65 0.6 1.1 1.1 0.0 L0.5 2.55 Q0.05 5.55 0.95 8.0 1.6 9.8 3.55 11.35 5.25 12.65 5.55 14.75 5.9 17.2 5.3 18.15 L4.6 18.55 Q3.45 19.2 2.4 16.85 1.55 14.9 1.55 13.5 L1.65 11.9" fill="#ffffff" fill-rule="evenodd" stroke="none"/>
    </g>
    <g id="sprite4" transform="matrix(1.0, 0.0, 0.0, 1.0, 0.0, 0.05)">
      <use height="7.0" transform="matrix(1.0, 0.0, 0.0, 1.0, 0.0, -0.05)" width="3.35" xlink:href="#shape6"/>
    </g>
    <g id="shape6" transform="matrix(1.0, 0.0, 0.0, 1.0, 0.0, 0.05)">
      <path d="M2.3 5.7 Q2.05 4.1 0.65 2.6 -0.4 1.45 0.2 0.4 0.8 -0.6 2.05 0.6 3.35 1.8 3.35 4.25 3.35 6.7 2.05 6.95 2.9 6.45 2.3 5.7" fill="#ffffff" fill-rule="evenodd" stroke="none"/>
    </g>
    <g id="shape7" transform="matrix(1.0, 0.0, 0.0, 1.0, -1.55, -18.8)">
      <path d="M3.65 34.3 L3.35 33.5 Q3.3 32.7 4.3 32.7 5.85 32.7 5.6 35.3 L4.8 33.95 Q3.9 32.85 3.65 34.3" fill="#ffffff" fill-rule="evenodd" stroke="none"/>
      <path d="M3.25 28.05 L5.15 30.4 Q6.75 32.0 7.4 33.15 9.0 35.9 8.4 39.25 L7.75 40.55 Q6.55 41.8 4.25 41.45 L6.0 41.1 Q7.7 40.15 7.55 36.95 7.35 34.35 4.9 31.6 2.3 28.75 1.85 26.4 1.35 23.3 1.65 20.75 L2.05 18.8 2.0 22.55 Q2.1 26.55 3.25 28.05" fill="#bbded6" fill-rule="evenodd" stroke="none"/>
    </g>
    <g id="sprite5" transform="matrix(1.0, 0.0, 0.0, 1.0, 0.0, 0.0)">
      <use height="11.6" transform="matrix(1.0, 0.0, 0.0, 1.0, 0.0, 0.0)" width="6.9" xlink:href="#shape8"/>
    </g>
    <g id="shape8" transform="matrix(1.0, 0.0, 0.0, 1.0, 0.0, 0.0)">
      <path d="M0.0 4.95 Q0.0 2.4 0.35 0.0 0.5 4.25 0.85 6.75 1.1 8.3 2.25 9.5 L3.35 10.4 Q5.95 10.25 6.3 7.5 6.45 6.1 6.1 4.75 7.75 7.6 6.05 10.0 4.4 12.4 2.0 11.15 0.05 10.1 0.0 4.95" fill="#bbded6" fill-rule="evenodd" stroke="none"/>
    </g>
    <g id="sprite6" transform="matrix(1.0, 0.0, 0.0, 1.0, 0.0, 0.0)">
      <use height="11.1" transform="matrix(1.0, 0.0, 0.0, 1.0, 0.0, 0.0)" width="6.45" xlink:href="#shape9"/>
    </g>
    <g id="shape9" transform="matrix(1.0, 0.0, 0.0, 1.0, 0.0, 0.0)">
      <path d="M0.45 5.0 Q1.15 10.05 3.15 10.4 L4.6 10.1 Q6.1 9.4 6.3 7.2 L6.3 6.25 Q6.6 7.3 6.35 8.45 5.85 10.7 3.3 11.1 2.3 11.25 1.35 9.9 -0.45 7.25 0.15 0.0 0.1 2.45 0.45 5.0" fill="#bbded6" fill-rule="evenodd" stroke="none"/>
    </g>
    <g id="sprite7" transform="matrix(1.0, 0.0, 0.0, 1.0, 0.0, 0.0)">
      <use height="11.8" transform="matrix(1.0, 0.0, 0.0, 1.0, 0.0, 0.0)" width="6.5" xlink:href="#shape10"/>
    </g>
    <g id="shape10" transform="matrix(1.0, 0.0, 0.0, 1.0, 0.0, 0.0)">
      <path d="M0.0 0.0 Q0.4 0.55 0.4 1.45 0.4 4.65 0.65 6.45 1.25 10.9 3.1 11.35 L4.2 11.4 Q5.4 11.25 6.1 10.2 L6.5 8.75 6.45 9.5 Q6.15 10.85 5.0 11.45 4.5 11.8 3.8 11.8 2.45 11.75 1.4 10.05 0.4 7.35 0.3 3.6 L0.25 0.8 0.0 0.0" fill="#306b5e" fill-rule="evenodd" stroke="none"/>
    </g>
    <g id="sprite8" transform="matrix(1.0, 0.0, 0.0, 1.0, 0.0, 0.0)">
      <use height="18.7" transform="matrix(1.0, 0.0, 0.0, 1.0, 0.0, 0.0)" width="5.7" xlink:href="#shape11"/>
    </g>
    <g id="shape11" transform="matrix(1.0, 0.0, 0.0, 1.0, 0.0, 0.0)">
      <path d="M4.05 11.9 L4.15 13.5 Q4.15 14.9 3.3 16.85 2.25 19.2 1.1 18.55 0.75 18.6 0.4 18.15 -0.2 17.2 0.15 14.75 0.45 12.65 2.15 11.35 4.1 9.8 4.75 8.0 5.65 5.55 5.2 2.55 5.0 1.05 4.6 0.0 L5.45 2.65 Q6.1 5.85 5.15 8.3 4.15 10.8 4.05 11.9" fill="#ffffff" fill-rule="evenodd" stroke="none"/>
    </g>
    <g id="sprite9" transform="matrix(1.0, 0.0, 0.0, 1.0, 0.0, 0.05)">
      <use height="7.0" transform="matrix(1.0, 0.0, 0.0, 1.0, 0.0, -0.05)" width="3.35" xlink:href="#shape12"/>
    </g>
    <g id="shape12" transform="matrix(1.0, 0.0, 0.0, 1.0, 0.0, 0.05)">
      <path d="M1.05 5.7 Q0.45 6.45 1.3 6.95 0.0 6.7 0.0 4.25 0.0 1.8 1.3 0.6 2.55 -0.6 3.15 0.4 3.75 1.45 2.7 2.6 1.3 4.1 1.05 5.7" fill="#ffffff" fill-rule="evenodd" stroke="none"/>
    </g>
    <g id="shape13" transform="matrix(1.0, 0.0, 0.0, 1.0, -34.5, -18.9)">
      <path d="M39.5 34.4 Q39.25 33.0 38.3 34.05 L37.45 35.4 Q37.4 34.75 37.5 34.1 37.8 32.8 38.85 32.8 40.4 32.8 39.5 34.4" fill="#ffffff" fill-rule="evenodd" stroke="none"/>
      <path d="M39.85 28.15 Q41.0 26.65 41.1 22.65 L41.05 18.9 41.45 20.9 Q41.75 23.45 41.2 26.55 40.8 28.85 38.2 31.75 35.75 34.45 35.55 37.1 35.4 40.25 37.1 41.2 37.8 41.6 38.55 41.6 36.45 41.85 35.3 40.65 L34.65 39.35 Q34.05 36.0 35.7 33.25 36.35 32.15 37.95 30.55 L39.85 28.15" fill="#bbded6" fill-rule="evenodd" stroke="none"/>
    </g>
    <g id="sprite10" transform="matrix(1.0, 0.0, 0.0, 1.0, 0.05, 0.0)">
      <use height="11.6" transform="matrix(1.0, 0.0, 0.0, 1.0, -0.05, 0.0)" width="6.9" xlink:href="#shape14"/>
    </g>
    <g id="shape14" transform="matrix(1.0, 0.0, 0.0, 1.0, 0.05, 0.0)">
      <path d="M0.8 10.0 Q-0.9 7.6 0.75 4.75 0.4 6.1 0.55 7.5 0.9 10.25 3.5 10.4 L4.6 9.5 Q5.75 8.3 6.0 6.75 6.35 4.25 6.5 0.0 6.9 2.4 6.85 4.95 6.8 10.1 4.85 11.15 2.45 12.4 0.8 10.0" fill="#bbded6" fill-rule="evenodd" stroke="none"/>
    </g>
    <g id="sprite11" transform="matrix(1.0, 0.0, 0.0, 1.0, -0.05, 0.0)">
      <use height="11.1" transform="matrix(1.0, 0.0, 0.0, 1.0, 0.05, 0.0)" width="6.35" xlink:href="#shape15"/>
    </g>
    <g id="shape15" transform="matrix(1.0, 0.0, 0.0, 1.0, -0.05, 0.0)">
      <path d="M5.95 5.0 Q6.3 2.45 6.25 0.0 6.85 7.25 5.05 9.9 4.15 11.25 3.1 11.1 0.55 10.7 0.05 8.45 L0.1 6.25 0.1 7.2 Q0.3 9.4 1.8 10.1 L3.25 10.4 Q5.25 10.05 5.95 5.0" fill="#bbded6" fill-rule="evenodd" stroke="none"/>
    </g>
    <g id="sprite12" transform="matrix(1.0, 0.0, 0.0, 1.0, -0.05, 0.0)">
      <use height="11.8" transform="matrix(1.0, 0.0, 0.0, 1.0, 0.05, 0.0)" width="6.45" xlink:href="#shape16"/>
    </g>
    <g id="shape16" transform="matrix(1.0, 0.0, 0.0, 1.0, -0.05, 0.0)">
      <path d="M6.5 0.0 L6.3 0.8 6.2 3.6 Q6.1 7.35 5.1 10.05 4.05 11.75 2.7 11.8 2.0 11.8 1.5 11.45 0.4 10.85 0.1 9.5 L0.05 8.95 0.4 10.2 Q1.1 11.25 2.3 11.4 L3.4 11.35 Q5.25 10.9 5.85 6.45 L6.1 1.45 Q6.1 0.55 6.5 0.0" fill="#306b5e" fill-rule="evenodd" stroke="none"/>
    </g>
    <g id="shape17" transform="matrix(1.0, 0.0, 0.0, 1.0, -11.5, -10.5)">
      <path d="M23.75 20.5 L23.8 20.5 27.0 23.2 Q28.9 23.9 28.9 25.55 L30.6 29.65 28.9 34.15 26.85 35.5 25.0 35.1 27.85 33.45 27.9 33.45 27.95 33.4 28.75 28.85 28.75 28.75 27.7 26.2 27.6 26.15 27.5 26.15 27.45 26.2 27.45 26.3 28.5 28.85 27.7 33.3 24.8 34.95 24.75 35.05 24.75 35.1 23.8 35.6 Q21.1 34.25 24.5 32.2 L24.5 29.55 Q23.95 28.4 23.5 28.15 23.05 27.9 22.6 27.8 22.1 27.7 21.15 28.25 L19.85 29.1 19.35 31.55 Q18.8 32.8 17.55 32.8 L16.2 32.45 Q15.35 32.05 15.35 31.45 16.7 29.25 16.2 28.6 L15.85 26.15 16.1 23.6 16.1 23.1 11.5 17.55 Q14.0 14.25 17.65 14.35 L21.05 18.2 23.75 20.5" fill="#2e5d6b" fill-rule="evenodd" stroke="none"/>
      <path d="M30.2 11.5 L30.5 12.45 31.4 12.85 31.05 14.05 30.15 13.7 28.8 15.2 30.25 15.6 31.45 15.0 32.1 15.95 31.35 16.45 31.65 17.35 30.45 17.7 30.2 16.85 28.45 16.35 28.95 18.2 30.05 18.85 29.7 19.9 28.75 19.6 27.95 20.3 27.1 19.7 27.75 18.75 27.2 16.6 25.7 18.3 26.05 19.45 24.85 19.7 24.55 18.4 23.5 18.45 23.45 17.45 24.85 17.25 26.4 15.8 24.6 15.45 23.65 16.2 22.85 15.45 23.5 14.6 23.2 13.4 24.35 13.35 24.6 14.1 26.55 14.65 26.05 12.75 24.95 12.4 25.2 11.1 26.3 11.45 27.1 10.5 28.05 11.4 27.35 12.3 27.9 14.35 29.15 12.7 28.95 11.65 30.2 11.5" fill="#2e5d6b" fill-rule="evenodd" stroke="none"/>
      <path d="M34.9 22.4 L35.05 23.0 35.65 23.25 35.45 24.05 34.85 23.8 34.0 24.75 34.9 25.0 35.7 24.65 36.15 25.25 35.65 25.55 35.85 26.15 35.05 26.35 34.9 25.8 33.8 25.5 34.1 26.7 34.8 27.1 34.55 27.8 33.95 27.6 33.45 28.05 32.9 27.65 33.35 27.05 32.95 25.7 32.0 26.75 32.2 27.5 31.45 27.65 31.25 26.85 30.6 26.85 30.55 26.2 31.45 26.1 32.45 25.15 31.3 24.95 30.7 25.4 30.15 24.95 30.6 24.4 30.4 23.6 31.1 23.55 31.3 24.05 32.55 24.4 32.2 23.2 31.5 22.95 31.65 22.15 32.4 22.35 32.9 21.75 33.55 22.3 33.05 22.9 33.4 24.25 34.2 23.15 34.1 22.5 34.9 22.4" fill="#2e5d6b" fill-rule="evenodd" stroke="none"/>
    </g>
    <g id="sprite13" transform="matrix(1.0, 0.0, 0.0, 1.0, 0.0, 0.0)">
      <use height="20.15" transform="matrix(1.0, 0.0, 0.0, 1.0, 0.0, 0.0)" width="28.2" xlink:href="#shape18"/>
    </g>
    <g id="shape18" transform="matrix(1.0, 0.0, 0.0, 1.0, 0.0, 0.0)">
      <path d="M27.65 18.45 L27.4 18.95 Q26.2 20.8 23.4 19.8 19.6 18.5 17.35 14.05 14.8 9.1 9.75 7.4 4.1 5.65 0.0 10.3 1.0 6.85 3.7 4.15 7.2 0.65 11.9 0.05 L14.8 0.05 18.4 0.65 Q21.55 1.65 24.05 4.15 28.2 8.3 28.2 14.25 28.2 16.45 27.65 18.45" fill="#ffffff" fill-opacity="0.19607843" fill-rule="evenodd" stroke="none"/>
    </g>
  </defs>
</svg>
