<?xml version="1.0" encoding="UTF-8" standalone="no"?>
<svg xmlns:xlink="http://www.w3.org/1999/xlink" height="66.0px" width="66.0px" xmlns="http://www.w3.org/2000/svg">
  <g transform="matrix(1.5, 0.0, 0.0, 1.5, 0.0, 0.0)">
    <use height="44.0" transform="matrix(1.0, 0.0, 0.0, 1.0, 0.0, 0.0)" width="44.0" xlink:href="#shape0"/>
    <use height="20.15" transform="matrix(1.1594, 0.0, 0.0, 1.1594, 5.85, 5.45)" width="28.2" xlink:href="#sprite0"/>
    <use height="8.6" transform="matrix(1.2125, 0.0, 0.0, 1.2125, 0.7075, 1.0)" width="35.05" xlink:href="#sprite1"/>
    <use height="20.8" transform="matrix(1.0, 0.0, 0.0, 1.0, 0.65, 23.2)" width="42.55" xlink:href="#shape3"/>
  </g>
  <defs>
    <g id="shape0" transform="matrix(1.0, 0.0, 0.0, 1.0, 0.0, 0.0)">
      <path d="M41.8 2.25 Q44.0 4.45 44.0 7.6 L44.0 36.4 Q44.0 39.6 41.8 41.8 39.6 44.0 36.4 44.0 L7.6 44.0 Q4.45 44.0 2.25 41.8 0.0 39.6 0.0 36.4 L0.0 7.6 Q0.0 4.45 2.25 2.25 4.45 0.0 7.6 0.0 L36.4 0.0 Q39.55 0.0 41.8 2.25" fill="url(#gradient0)" fill-rule="evenodd" stroke="none"/>
      <path d="M40.6 22.05 Q40.6 29.75 35.2 35.2 29.75 40.6 22.05 40.6 14.3 40.6 8.85 35.2 3.4 29.75 3.4 22.05 3.4 14.3 8.85 8.95 14.3 3.5 22.05 3.5 29.75 3.5 35.2 8.95 40.6 14.4 40.6 22.05" fill="url(#gradient1)" fill-rule="evenodd" stroke="none"/>
      <path d="M23.75 20.5 L23.8 20.5 27.0 23.2 Q28.9 23.9 28.9 25.55 L30.6 29.65 28.9 34.15 26.85 35.5 25.0 35.1 27.85 33.45 27.9 33.45 27.95 33.4 28.75 28.85 28.75 28.75 27.7 26.2 27.6 26.15 27.5 26.15 27.45 26.2 27.45 26.3 28.5 28.85 27.7 33.3 24.8 34.95 24.75 35.05 24.75 35.1 23.8 35.6 Q21.1 34.25 24.5 32.2 L24.5 29.55 Q23.95 28.4 23.5 28.15 23.05 27.9 22.6 27.8 22.1 27.7 21.15 28.25 L19.85 29.1 19.35 31.55 Q18.8 32.8 17.55 32.8 L16.2 32.45 Q15.35 32.05 15.35 31.45 16.7 29.25 16.2 28.6 L15.85 26.15 16.1 23.6 16.1 23.1 11.5 17.55 Q14.0 14.25 17.65 14.35 L21.05 18.2 23.75 20.5" fill="#496125" fill-rule="evenodd" stroke="none"/>
      <path d="M25.7 18.05 L25.6 17.95 25.65 18.1 25.7 18.05 Q28.85 20.85 30.35 20.75 32.8 20.6 33.45 18.8 33.85 16.45 31.6 16.5 30.1 16.8 30.35 19.55 27.7 17.0 29.4 14.95 31.05 12.9 33.35 14.35 37.55 16.9 34.6 20.35 32.4 22.25 29.3 21.6 26.0 19.65 25.65 18.1 23.45 18.4 21.8 16.9 20.15 14.1 20.6 12.9 21.75 16.05 22.8 16.65 L25.75 16.55 Q26.85 15.2 25.4 14.25 24.2 13.85 23.2 15.85 22.55 13.15 24.5 12.4 26.5 11.65 27.55 13.45 29.25 16.85 25.9 18.05 L25.7 18.05" fill="#496125" fill-rule="evenodd" stroke="none"/>
      <path d="M13.5 26.95 L13.4 27.1 Q11.45 29.2 9.55 26.95 8.55 25.65 9.7 24.4 L12.65 24.5 Q10.9 24.65 10.8 25.6 11.0 26.95 12.35 26.55 13.4 26.0 13.35 24.4 13.2 23.5 11.25 21.7 12.25 21.8 13.75 23.75 14.35 25.45 13.55 26.95 L13.45 26.85 13.5 26.95" fill="#496125" fill-rule="evenodd" stroke="none"/>
      <path d="M21.8 3.0 Q29.7 3.0 35.2 8.6 40.85 14.1 40.85 22.05 40.85 29.9 35.2 35.45 29.7 41.1 21.8 41.1 13.85 41.1 8.35 35.45 2.8 29.9 2.8 22.05 2.8 14.1 8.35 8.6 13.85 3.0 21.8 3.0 M10.05 10.35 Q5.2 15.15 5.1 22.05 5.2 29.0 10.05 33.85 14.9 38.75 21.8 38.75 28.7 38.75 33.65 33.85 38.45 29.0 38.45 22.05 38.45 15.15 33.65 10.35 28.7 5.45 21.8 5.4 14.9 5.45 10.05 10.35" fill="url(#gradient2)" fill-rule="evenodd" stroke="none"/>
    </g>
    <linearGradient gradientTransform="matrix(0.0, -0.0283, -0.0551, 0.0, 22.6, 21.95)" gradientUnits="userSpaceOnUse" id="gradient0" spreadMethod="pad" x1="-819.2" x2="819.2">
      <stop offset="0.011764705882352941" stop-color="#9dae7c"/>
      <stop offset="1.0" stop-color="#7e8f45"/>
    </linearGradient>
    <linearGradient gradientTransform="matrix(0.0, -0.0173, -0.0173, 0.0, 22.05, 18.5)" gradientUnits="userSpaceOnUse" id="gradient1" spreadMethod="pad" x1="-819.2" x2="819.2">
      <stop offset="0.011764705882352941" stop-color="#d3d4b5"/>
      <stop offset="1.0" stop-color="#71a26f"/>
    </linearGradient>
    <linearGradient gradientTransform="matrix(1.0E-4, 0.0223, -0.0232, 1.0E-4, 21.85, 22.3)" gradientUnits="userSpaceOnUse" id="gradient2" spreadMethod="pad" x1="-819.2" x2="819.2">
      <stop offset="0.011764705882352941" stop-color="#516537"/>
      <stop offset="1.0" stop-color="#a8ce99"/>
    </linearGradient>
    <g id="sprite0" transform="matrix(1.0, 0.0, 0.0, 1.0, 0.0, 0.0)">
      <use height="20.15" transform="matrix(1.0, 0.0, 0.0, 1.0, 0.0, 0.0)" width="28.2" xlink:href="#shape1"/>
    </g>
    <g id="shape1" transform="matrix(1.0, 0.0, 0.0, 1.0, 0.0, 0.0)">
      <path d="M27.65 18.45 L27.4 18.95 Q26.2 20.8 23.4 19.8 19.6 18.5 17.35 14.05 14.8 9.1 9.75 7.4 4.1 5.65 0.0 10.3 1.0 6.85 3.7 4.15 7.2 0.65 11.9 0.05 L14.8 0.05 18.4 0.65 Q21.55 1.65 24.05 4.15 28.2 8.3 28.2 14.25 28.2 16.45 27.65 18.45" fill="#ffffff" fill-opacity="0.19607843" fill-rule="evenodd" stroke="none"/>
    </g>
    <g id="sprite1" transform="matrix(1.0, 0.0, 0.0, 1.0, 0.2, 0.0)">
      <use height="8.6" transform="matrix(1.0, 0.0, 0.0, 1.0, -0.2, 0.0)" width="35.05" xlink:href="#shape2"/>
    </g>
    <g id="shape2" transform="matrix(1.0, 0.0, 0.0, 1.0, 0.2, 0.0)">
      <path d="M34.4 4.4 Q34.85 5.8 34.85 7.65 L34.85 8.6 Q34.8 6.95 34.4 5.7 33.0 1.3 27.2 1.3 L7.45 1.3 Q0.05 1.3 -0.2 8.5 L-0.2 7.65 Q-0.2 0.0 7.45 0.0 L27.2 0.0 Q33.0 0.0 34.4 4.4" fill="#e7deda" fill-rule="evenodd" stroke="none"/>
    </g>
    <g id="shape3" transform="matrix(1.0, 0.0, 0.0, 1.0, -0.65, -23.2)">
      <path d="M0.8 32.9 Q1.05 30.55 2.35 29.35 L2.75 27.65 2.65 25.6 2.35 24.55 1.7 23.2 2.75 24.3 3.55 25.55 3.9 26.9 Q3.95 27.8 3.25 29.6 2.65 31.2 2.45 33.4 L2.4 33.1 2.35 33.4 Q1.75 36.2 2.9 38.15 3.5 39.1 4.2 39.6 L3.9 39.15 3.95 39.2 4.25 39.65 Q4.85 40.4 5.7 40.6 6.8 40.75 7.85 39.9 9.05 38.9 8.15 37.6 L8.2 38.45 Q7.95 39.4 6.65 39.85 L5.65 40.0 5.65 39.95 5.55 38.75 Q5.5 37.0 6.9 36.1 8.45 35.15 9.95 36.7 L11.15 38.5 Q11.1 36.65 10.15 35.65 L10.35 35.85 Q11.05 36.6 11.35 37.55 L11.25 37.55 11.45 37.95 11.75 38.8 11.8 39.95 Q10.4 42.85 8.6 42.85 9.9 42.65 10.0 41.45 7.1 42.7 3.6 41.0 1.15 39.05 0.8 32.9" fill="#9ec087" fill-rule="evenodd" stroke="none"/>
      <path d="M2.35 33.4 L2.4 33.1 2.45 33.4 2.35 33.4" fill="#00632e" fill-rule="evenodd" stroke="none"/>
      <path d="M2.45 33.4 L2.5 34.7 Q2.85 36.4 3.75 37.6 L3.85 37.0 Q4.55 35.0 7.2 34.45 L9.15 34.9 10.15 35.65 Q11.1 36.65 11.15 38.5 L9.95 36.7 Q8.45 35.15 6.9 36.1 5.5 37.0 5.55 38.75 L5.65 39.95 5.65 40.0 6.65 39.85 Q7.95 39.4 8.2 38.45 L8.15 37.6 Q9.05 38.9 7.85 39.9 6.8 40.75 5.7 40.6 4.85 40.4 4.25 39.65 L3.95 39.2 3.9 39.15 4.2 39.6 Q3.5 39.1 2.9 38.15 1.75 36.2 2.35 33.4 L2.45 33.4 M3.9 39.15 L4.05 39.1 3.95 38.9 3.85 39.0 3.9 39.15" fill="#c0d6b1" fill-rule="evenodd" stroke="none"/>
      <path d="M11.8 39.95 Q11.7 41.05 11.05 42.15 10.05 43.95 6.9 44.0 L4.05 43.75 5.55 43.25 7.75 43.0 6.45 43.1 Q4.3 43.05 2.8 41.55 0.9 39.5 0.65 35.4 0.6 34.0 0.8 32.9 1.15 39.05 3.6 41.0 7.1 42.7 10.0 41.45 9.9 42.65 8.6 42.85 10.4 42.85 11.8 39.95" fill="#648a4a" fill-rule="evenodd" stroke="none"/>
      <path d="M3.9 39.15 L3.85 39.0 3.95 38.9 4.05 39.1 3.9 39.15" fill="#ccbf38" fill-rule="evenodd" stroke="none"/>
      <path d="M11.35 37.55 L11.45 37.95 11.25 37.55 11.35 37.55" fill="url(#gradient3)" fill-rule="evenodd" stroke="none"/>
      <path d="M41.4 33.4 Q41.2 31.2 40.6 29.6 39.9 27.8 39.95 26.9 40.0 26.2 40.3 25.55 L41.1 24.3 42.15 23.2 41.5 24.55 41.2 25.6 Q41.0 26.65 41.1 27.65 L41.5 29.35 Q42.8 30.55 43.05 32.9 42.7 39.05 40.25 41.0 36.75 42.7 33.85 41.45 33.95 42.65 35.25 42.85 33.45 42.85 32.05 39.95 32.0 39.4 32.1 38.8 L32.4 37.95 32.6 37.55 32.5 37.55 Q32.8 36.6 33.5 35.85 L33.7 35.65 Q32.75 36.65 32.7 38.5 33.15 37.55 33.9 36.7 35.4 35.15 36.95 36.1 38.35 37.0 38.3 38.75 L38.2 39.95 38.2 40.0 37.2 39.85 Q35.9 39.4 35.65 38.45 L35.7 37.6 Q34.8 38.9 36.0 39.9 37.05 40.75 38.15 40.6 L39.6 39.65 39.9 39.2 39.95 39.15 39.65 39.6 40.95 38.15 Q42.1 36.2 41.5 33.4 L41.45 33.1 41.4 33.4" fill="#9ec087" fill-rule="evenodd" stroke="none"/>
      <path d="M32.05 39.95 Q33.45 42.85 35.25 42.85 33.95 42.65 33.85 41.45 36.75 42.7 40.25 41.0 42.7 39.05 43.05 32.9 L43.2 35.4 Q42.95 39.5 41.05 41.55 39.55 43.05 37.4 43.1 L36.1 43.0 38.3 43.25 39.8 43.75 36.95 44.0 Q33.8 43.95 32.8 42.15 32.15 41.05 32.05 39.95" fill="#648a4a" fill-rule="evenodd" stroke="none"/>
      <path d="M41.5 33.4 Q42.1 36.2 40.95 38.15 L39.65 39.6 39.95 39.15 39.9 39.2 39.6 39.65 38.15 40.6 Q37.05 40.75 36.0 39.9 34.8 38.9 35.7 37.6 L35.65 38.45 Q35.9 39.4 37.2 39.85 L38.2 40.0 38.2 39.95 38.3 38.75 Q38.35 37.0 36.95 36.1 35.4 35.15 33.9 36.7 33.15 37.55 32.7 38.5 32.75 36.65 33.7 35.65 L34.7 34.9 36.65 34.45 Q39.3 35.0 40.0 37.0 L40.1 37.6 Q41.0 36.4 41.35 34.7 L41.4 33.4 41.5 33.4 M39.95 39.15 L40.0 39.0 39.9 38.9 39.8 39.1 39.95 39.15" fill="#c0d6b1" fill-rule="evenodd" stroke="none"/>
      <path d="M41.4 33.4 L41.45 33.1 41.5 33.4 41.4 33.4" fill="#00632e" fill-rule="evenodd" stroke="none"/>
      <path d="M39.95 39.15 L39.8 39.1 39.9 38.9 40.0 39.0 39.95 39.15" fill="#ccbf38" fill-rule="evenodd" stroke="none"/>
      <path d="M32.5 37.55 L32.6 37.55 32.4 37.95 32.5 37.55" fill="url(#gradient4)" fill-rule="evenodd" stroke="none"/>
    </g>
    <linearGradient gradientTransform="matrix(0.0, -0.0249, -0.0249, 0.0, 5.95, 31.4)" gradientUnits="userSpaceOnUse" id="gradient3" spreadMethod="pad" x1="-819.2" x2="819.2">
      <stop offset="0.011764705882352941" stop-color="#bed9a5"/>
      <stop offset="1.0" stop-color="#739416"/>
    </linearGradient>
    <linearGradient gradientTransform="matrix(0.0, -0.0249, 0.0249, 0.0, 37.85, 31.4)" gradientUnits="userSpaceOnUse" id="gradient4" spreadMethod="pad" x1="-819.2" x2="819.2">
      <stop offset="0.011764705882352941" stop-color="#bed9a5"/>
      <stop offset="1.0" stop-color="#739416"/>
    </linearGradient>
  </defs>
</svg>
