<?xml version="1.0" encoding="UTF-8" standalone="no"?>
<svg xmlns:xlink="http://www.w3.org/1999/xlink" height="66.0px" width="66.0px" xmlns="http://www.w3.org/2000/svg">
  <g transform="matrix(1.5, 0.0, 0.0, 1.5, 0.0, 0.0)">
    <use height="44.0" transform="matrix(1.0, 0.0, 0.0, 1.0, 0.0, 0.0)" width="44.0" xlink:href="#shape0"/>
    <use height="20.15" transform="matrix(1.1594, 0.0, 0.0, 1.1594, 5.85, 5.45)" width="28.2" xlink:href="#sprite0"/>
    <use height="8.6" transform="matrix(1.2125, 0.0, 0.0, 1.2125, 0.7075, 1.0)" width="35.05" xlink:href="#sprite1"/>
    <use height="20.8" transform="matrix(1.0, 0.0, 0.0, 1.0, 0.65, 23.2)" width="42.3" xlink:href="#shape3"/>
  </g>
  <defs>
    <g id="shape0" transform="matrix(1.0, 0.0, 0.0, 1.0, 0.0, 0.0)">
      <path d="M41.8 2.25 Q44.0 4.45 44.0 7.6 L44.0 36.4 Q44.0 39.6 41.8 41.8 39.6 44.0 36.4 44.0 L7.6 44.0 Q4.45 44.0 2.25 41.8 0.0 39.6 0.0 36.4 L0.0 7.6 Q0.0 4.45 2.25 2.25 4.45 0.0 7.6 0.0 L36.4 0.0 Q39.55 0.0 41.8 2.25" fill="url(#gradient0)" fill-rule="evenodd" stroke="none"/>
      <path d="M40.6 22.05 Q40.6 29.75 35.2 35.2 29.75 40.6 22.05 40.6 14.3 40.6 8.85 35.2 3.4 29.75 3.4 22.05 3.4 14.3 8.85 8.95 14.3 3.5 22.05 3.5 29.75 3.5 35.2 8.95 40.6 14.4 40.6 22.05" fill="url(#gradient1)" fill-rule="evenodd" stroke="none"/>
      <path d="M23.25 14.25 L23.15 14.35 23.15 14.45 21.8 16.3 20.55 17.55 18.9 18.85 16.0 20.6 14.3 21.3 13.25 21.6 Q11.05 22.15 10.05 21.3 L9.8 21.05 9.75 20.95 9.55 20.6 Q9.0 19.45 10.25 17.45 L10.95 16.5 11.45 15.9 13.25 14.05 13.6 13.75 14.55 12.95 Q17.45 10.9 20.1 10.3 22.75 9.65 23.7 10.85 24.1 11.45 23.95 12.35 L23.25 14.25 M25.1 12.75 Q25.85 13.9 24.45 16.3 23.5 17.9 21.8 19.4 L20.55 20.4 20.3 20.6 20.15 20.7 19.3 21.3 Q16.85 22.95 14.55 23.5 12.0 24.05 11.1 22.95 L10.6 22.25 13.35 22.1 15.8 21.3 17.2 20.6 19.15 19.3 20.55 18.2 21.8 17.05 23.6 14.75 23.6 14.7 23.65 14.65 23.7 14.55 24.5 12.45 24.45 12.4 24.45 12.0 25.1 12.75 M14.4 13.75 L14.3 13.85 14.25 14.3 14.7 15.2 12.6 16.65 12.2 17.1 12.2 17.5 12.5 17.7 13.0 17.45 15.1 16.0 15.15 16.1 13.8 19.8 13.8 20.2 14.15 20.3 14.65 20.05 14.95 19.6 15.8 17.45 16.05 17.5 16.55 17.3 16.9 16.95 16.95 16.5 16.5 15.55 16.65 15.55 17.0 16.3 17.3 16.5 17.8 16.3 18.15 15.9 18.2 15.6 19.1 15.55 19.6 15.45 19.95 15.0 20.0 14.6 Q19.9 14.45 19.7 14.45 L17.7 14.4 17.6 14.2 19.4 12.95 19.75 12.55 19.8 12.1 Q19.7 11.9 19.45 11.95 L19.0 12.15 17.2 13.4 16.7 12.4 Q16.65 12.2 16.4 12.25 L15.9 12.45 15.55 12.85 Q15.45 13.05 15.5 13.25 L16.0 14.25 15.9 14.35 15.45 13.45 Q15.4 13.3 15.15 13.3 14.95 13.3 14.7 13.45 L14.4 13.75" fill="#496125" fill-rule="evenodd" stroke="none"/>
      <path d="M29.8 16.4 L37.05 18.1 M17.15 28.7 L18.35 35.25" fill="none" stroke="#496125" stroke-linecap="round" stroke-linejoin="miter-clip" stroke-miterlimit="3.0" stroke-width="0.8500000000000001"/>
      <path d="M19.75 25.65 L24.0 37.65 M24.0 23.15 L33.95 34.25 M27.5 19.1 L37.2 26.15" fill="none" stroke="#496125" stroke-linecap="round" stroke-linejoin="miter-clip" stroke-miterlimit="3.0" stroke-width="1.3"/>
      <path d="M21.8 3.0 Q29.7 3.0 35.2 8.6 40.85 14.1 40.85 22.05 40.85 29.9 35.2 35.45 29.7 41.1 21.8 41.1 13.85 41.1 8.35 35.45 2.8 29.9 2.8 22.05 2.8 14.1 8.35 8.6 13.85 3.0 21.8 3.0 M10.05 10.35 Q5.2 15.15 5.1 22.05 5.2 29.0 10.05 33.85 14.9 38.75 21.8 38.75 28.7 38.75 33.65 33.85 38.45 29.0 38.45 22.05 38.45 15.15 33.65 10.35 28.7 5.45 21.8 5.4 14.9 5.45 10.05 10.35" fill="url(#gradient2)" fill-rule="evenodd" stroke="none"/>
    </g>
    <linearGradient gradientTransform="matrix(0.0, -0.0283, -0.0551, 0.0, 22.6, 21.95)" gradientUnits="userSpaceOnUse" id="gradient0" spreadMethod="pad" x1="-819.2" x2="819.2">
      <stop offset="0.011764705882352941" stop-color="#9dae7c"/>
      <stop offset="1.0" stop-color="#7e8f45"/>
    </linearGradient>
    <linearGradient gradientTransform="matrix(0.0, -0.0173, -0.0173, 0.0, 22.05, 18.5)" gradientUnits="userSpaceOnUse" id="gradient1" spreadMethod="pad" x1="-819.2" x2="819.2">
      <stop offset="0.011764705882352941" stop-color="#d3d4b5"/>
      <stop offset="1.0" stop-color="#71a26f"/>
    </linearGradient>
    <linearGradient gradientTransform="matrix(1.0E-4, 0.0223, -0.0232, 1.0E-4, 21.85, 22.3)" gradientUnits="userSpaceOnUse" id="gradient2" spreadMethod="pad" x1="-819.2" x2="819.2">
      <stop offset="0.011764705882352941" stop-color="#516537"/>
      <stop offset="1.0" stop-color="#a8ce99"/>
    </linearGradient>
    <g id="sprite0" transform="matrix(1.0, 0.0, 0.0, 1.0, 0.0, 0.0)">
      <use height="20.15" transform="matrix(1.0, 0.0, 0.0, 1.0, 0.0, 0.0)" width="28.2" xlink:href="#shape1"/>
    </g>
    <g id="shape1" transform="matrix(1.0, 0.0, 0.0, 1.0, 0.0, 0.0)">
      <path d="M27.65 18.45 L27.4 18.95 Q26.2 20.8 23.4 19.8 19.6 18.5 17.35 14.05 14.8 9.1 9.75 7.4 4.1 5.65 0.0 10.3 1.0 6.85 3.7 4.15 7.2 0.65 11.9 0.05 L14.8 0.05 18.4 0.65 Q21.55 1.65 24.05 4.15 28.2 8.3 28.2 14.25 28.2 16.45 27.65 18.45" fill="#ffffff" fill-opacity="0.19607843" fill-rule="evenodd" stroke="none"/>
    </g>
    <g id="sprite1" transform="matrix(1.0, 0.0, 0.0, 1.0, 0.2, 0.0)">
      <use height="8.6" transform="matrix(1.0, 0.0, 0.0, 1.0, -0.2, 0.0)" width="35.05" xlink:href="#shape2"/>
    </g>
    <g id="shape2" transform="matrix(1.0, 0.0, 0.0, 1.0, 0.2, 0.0)">
      <path d="M34.4 4.4 Q34.85 5.8 34.85 7.65 L34.85 8.6 Q34.8 6.95 34.4 5.7 33.0 1.3 27.2 1.3 L7.45 1.3 Q0.05 1.3 -0.2 8.5 L-0.2 7.65 Q-0.2 0.0 7.45 0.0 L27.2 0.0 Q33.0 0.0 34.4 4.4" fill="#e7deda" fill-rule="evenodd" stroke="none"/>
    </g>
    <g id="shape3" transform="matrix(1.0, 0.0, 0.0, 1.0, -0.65, -23.2)">
      <path d="M0.75 32.9 Q1.05 30.55 2.3 29.35 L2.7 27.65 Q2.85 26.6 2.6 25.6 L2.3 24.55 1.7 23.2 2.7 24.3 3.55 25.5 3.9 26.9 Q3.95 27.8 3.25 29.6 2.6 31.2 2.45 33.4 L2.35 33.1 2.3 33.4 Q1.75 36.2 2.9 38.15 L4.15 39.6 3.9 39.15 3.95 39.2 4.25 39.65 Q4.8 40.4 5.7 40.6 6.8 40.75 7.8 39.9 9.05 38.9 8.1 37.6 L8.15 38.45 Q7.95 39.35 6.6 39.85 L5.6 40.0 5.6 39.95 5.5 38.75 Q5.45 37.0 6.9 36.05 8.4 35.15 9.9 36.7 L11.15 38.5 Q11.05 36.8 10.3 35.85 11.0 36.6 11.3 37.5 L11.25 37.5 11.4 37.9 11.7 38.8 11.75 39.95 Q10.35 42.85 8.55 42.85 9.85 42.6 9.95 41.45 7.05 42.7 3.6 41.0 1.1 39.0 0.75 32.9" fill="#9ec087" fill-rule="evenodd" stroke="none"/>
      <path d="M2.45 33.4 L2.5 34.7 Q2.85 36.4 3.7 37.6 L3.8 37.0 Q4.5 34.95 7.2 34.45 L9.1 34.9 10.15 35.65 10.2 35.7 10.3 35.85 Q11.05 36.8 11.15 38.5 L9.9 36.7 Q8.4 35.15 6.9 36.05 5.45 37.0 5.5 38.75 L5.6 39.95 5.6 40.0 6.6 39.85 Q7.95 39.35 8.15 38.45 L8.1 37.6 Q9.05 38.9 7.8 39.9 6.8 40.75 5.7 40.6 4.8 40.4 4.25 39.65 L3.95 39.2 3.9 39.15 4.15 39.6 2.9 38.15 Q1.75 36.2 2.3 33.4 L2.45 33.4 M3.9 39.15 L4.0 39.1 3.95 38.9 3.8 38.95 3.9 39.15" fill="#c0d6b1" fill-rule="evenodd" stroke="none"/>
      <path d="M11.75 39.95 Q11.65 41.05 11.0 42.15 10.0 43.95 6.9 44.0 L4.0 43.7 5.5 43.25 7.7 42.95 6.45 43.1 Q4.3 43.0 2.8 41.5 0.85 39.5 0.65 35.35 L0.75 32.9 Q1.1 39.0 3.6 41.0 7.05 42.7 9.95 41.45 9.85 42.6 8.55 42.85 10.35 42.85 11.75 39.95" fill="#648a4a" fill-rule="evenodd" stroke="none"/>
      <path d="M2.3 33.4 L2.35 33.1 2.45 33.4 2.3 33.4" fill="#00632e" fill-rule="evenodd" stroke="none"/>
      <path d="M3.9 39.15 L3.8 38.95 3.95 38.9 4.0 39.1 3.9 39.15" fill="#ccbf38" fill-rule="evenodd" stroke="none"/>
      <path d="M11.3 37.5 L11.4 37.9 11.25 37.5 11.3 37.5" fill="url(#gradient3)" fill-rule="evenodd" stroke="none"/>
      <path d="M41.15 33.4 Q41.0 31.2 40.35 29.6 39.65 27.8 39.7 26.9 L40.05 25.5 40.9 24.3 41.9 23.2 41.3 24.55 41.0 25.6 Q40.75 26.6 40.9 27.65 L41.3 29.35 Q42.55 30.55 42.85 32.9 42.5 39.0 40.0 41.0 36.55 42.7 33.65 41.45 33.75 42.6 35.05 42.85 33.25 42.85 31.85 39.95 31.8 39.35 31.9 38.8 L32.2 37.9 32.35 37.5 32.3 37.5 Q32.6 36.6 33.3 35.85 32.55 36.8 32.45 38.5 32.95 37.5 33.7 36.7 35.2 35.15 36.7 36.05 38.15 37.0 38.1 38.75 L38.0 39.95 38.0 40.0 37.0 39.85 Q35.65 39.35 35.45 38.45 L35.5 37.6 Q34.55 38.9 35.8 39.9 36.8 40.75 37.9 40.6 38.8 40.4 39.35 39.65 L39.65 39.2 39.7 39.15 39.45 39.6 40.7 38.15 Q41.85 36.2 41.3 33.4 L41.25 33.1 41.15 33.4" fill="#9ec087" fill-rule="evenodd" stroke="none"/>
      <path d="M41.15 33.4 L41.25 33.1 41.3 33.4 41.15 33.4" fill="#00632e" fill-rule="evenodd" stroke="none"/>
      <path d="M31.85 39.95 Q33.25 42.85 35.05 42.85 33.75 42.6 33.65 41.45 36.55 42.7 40.0 41.0 42.5 39.0 42.85 32.9 L42.95 35.35 Q42.75 39.5 40.8 41.5 39.3 43.0 37.15 43.1 L35.9 42.95 38.1 43.25 39.6 43.7 36.7 44.0 Q33.6 43.95 32.6 42.15 31.95 41.05 31.85 39.95" fill="#648a4a" fill-rule="evenodd" stroke="none"/>
      <path d="M41.3 33.4 Q41.85 36.2 40.7 38.15 L39.45 39.6 39.7 39.15 39.65 39.2 39.35 39.65 Q38.8 40.4 37.9 40.6 36.8 40.75 35.8 39.9 34.55 38.9 35.5 37.6 L35.45 38.45 Q35.65 39.35 37.0 39.85 L38.0 40.0 38.0 39.95 38.1 38.75 Q38.15 37.0 36.7 36.05 35.2 35.15 33.7 36.7 32.95 37.5 32.45 38.5 32.55 36.8 33.3 35.85 L33.45 35.7 33.45 35.65 Q33.9 35.2 34.5 34.9 L36.4 34.45 Q39.1 34.95 39.8 37.0 L39.9 37.6 Q40.75 36.4 41.1 34.7 L41.15 33.4 41.3 33.4 M39.7 39.15 L39.8 38.95 39.65 38.9 39.6 39.1 39.7 39.15" fill="#c0d6b1" fill-rule="evenodd" stroke="none"/>
      <path d="M39.7 39.15 L39.6 39.1 39.65 38.9 39.8 38.95 39.7 39.15" fill="#ccbf38" fill-rule="evenodd" stroke="none"/>
      <path d="M32.3 37.5 L32.35 37.5 32.2 37.9 32.3 37.5" fill="url(#gradient4)" fill-rule="evenodd" stroke="none"/>
    </g>
    <linearGradient gradientTransform="matrix(0.0, -0.0249, -0.0249, 0.0, 5.85, 31.3)" gradientUnits="userSpaceOnUse" id="gradient3" spreadMethod="pad" x1="-819.2" x2="819.2">
      <stop offset="0.011764705882352941" stop-color="#bed9a5"/>
      <stop offset="1.0" stop-color="#739416"/>
    </linearGradient>
    <linearGradient gradientTransform="matrix(0.0, -0.0249, 0.0249, 0.0, 37.7, 31.3)" gradientUnits="userSpaceOnUse" id="gradient4" spreadMethod="pad" x1="-819.2" x2="819.2">
      <stop offset="0.011764705882352941" stop-color="#bed9a5"/>
      <stop offset="1.0" stop-color="#739416"/>
    </linearGradient>
  </defs>
</svg>
