<?xml version="1.0" encoding="UTF-8" standalone="no"?>
<svg xmlns:xlink="http://www.w3.org/1999/xlink" height="65.925px" width="66.075px" xmlns="http://www.w3.org/2000/svg">
  <g transform="matrix(1.5, 0.0, 0.0, 1.5, 0.0, 0.0)">
    <use height="43.95" transform="matrix(1.0, 0.0, 0.0, 1.0, 0.0, 0.0)" width="44.05" xlink:href="#shape0"/>
    <use height="0.0" transform="matrix(1.2077, 0.0, 0.0, 1.2077, 0.8, 0.75)" width="0.0" xlink:href="#sprite0"/>
    <use height="20.7" transform="matrix(1.2077, 0.0, 0.0, 1.2077, 0.35, 18.75)" width="7.3" xlink:href="#sprite1"/>
    <use height="24.05" transform="matrix(1.0, 0.0, 0.0, 1.0, 1.1, 18.45)" width="8.5" xlink:href="#shape2"/>
    <use height="12.1" transform="matrix(1.2077, 0.0, 0.0, 1.2077, 1.8396, 27.3)" width="5.7" xlink:href="#sprite2"/>
    <use height="18.7" transform="matrix(1.1918, 0.0, 0.0, 1.1918, 0.95, 18.05)" width="5.7" xlink:href="#sprite3"/>
    <use height="7.0" transform="matrix(1.1918, 0.0, 0.0, 1.1918, 3.0, 32.1404)" width="3.35" xlink:href="#sprite4"/>
    <use height="22.75" transform="matrix(1.0, 0.0, 0.0, 1.0, 1.65, 18.85)" width="7.05" xlink:href="#shape6"/>
    <use height="11.6" transform="matrix(1.1918, 0.0, 0.0, 1.1918, 0.85, 29.45)" width="6.9" xlink:href="#sprite5"/>
    <use height="11.1" transform="matrix(1.1918, 0.0, 0.0, 1.1918, 1.15, 29.45)" width="6.45" xlink:href="#sprite6"/>
    <use height="11.8" transform="matrix(1.1918, 0.0, 0.0, 1.1918, 0.85, 28.2)" width="6.5" xlink:href="#sprite7"/>
    <use height="18.7" transform="matrix(1.1918, 0.0, 0.0, 1.1918, 35.3, 18.05)" width="5.7" xlink:href="#sprite8"/>
    <use height="7.0" transform="matrix(1.1918, 0.0, 0.0, 1.1918, 36.05, 32.1404)" width="3.35" xlink:href="#sprite9"/>
    <use height="22.8" transform="matrix(1.0, 0.0, 0.0, 1.0, 34.45, 18.85)" width="7.05" xlink:href="#shape12"/>
    <use height="11.6" transform="matrix(1.1918, 0.0, 0.0, 1.1918, 33.8904, 29.45)" width="6.9" xlink:href="#sprite10"/>
    <use height="11.1" transform="matrix(1.1918, 0.0, 0.0, 1.1918, 34.2596, 29.45)" width="6.35" xlink:href="#sprite11"/>
    <use height="11.8" transform="matrix(1.1918, 0.0, 0.0, 1.1918, 34.4596, 28.2)" width="6.45" xlink:href="#sprite12"/>
    <use height="20.15" transform="matrix(1.1548, 0.0, 0.0, 1.1548, 6.15, 5.6)" width="28.2" xlink:href="#sprite13"/>
    <use height="8.6" transform="matrix(1.2077, 0.0, 0.0, 1.2065, 1.2085, 0.55)" width="35.05" xlink:href="#sprite14"/>
  </g>
  <defs>
    <g id="shape0" transform="matrix(1.0, 0.0, 0.0, 1.0, 0.0, 0.0)">
      <path d="M21.8 2.25 Q30.15 2.25 36.05 8.15 42.0 14.1 42.0 22.4 42.0 30.75 36.05 36.65 30.15 42.6 21.8 42.6 13.45 42.6 7.55 36.65 1.65 30.75 1.65 22.4 1.65 14.1 7.55 8.15 13.45 2.25 21.8 2.25" fill="url(#gradient0)" fill-rule="evenodd" stroke="none"/>
      <path d="M27.8 5.55 L28.95 6.0 29.4 8.2 29.45 8.4 29.55 8.95 28.3 8.65 27.7 8.6 27.7 8.4 27.75 8.05 27.8 6.0 27.8 5.9 27.8 5.55 M27.55 11.2 L28.3 11.5 29.65 12.15 29.65 12.45 29.6 14.05 29.6 14.3 29.5 14.25 28.15 13.5 26.95 12.65 27.05 12.45 27.25 12.0 27.5 11.5 27.55 11.2 M27.65 9.9 L27.65 9.85 27.7 9.45 29.35 9.6 29.6 9.6 29.6 9.85 29.65 10.4 29.65 11.2 28.7 10.8 27.6 10.4 27.65 9.9 M27.8 14.15 L29.55 15.25 29.45 15.6 29.35 15.85 28.9 16.25 Q27.95 16.95 27.9 17.7 L27.95 17.95 27.95 18.1 27.65 18.4 27.75 18.7 28.6 20.45 Q29.05 21.7 29.15 23.2 L29.2 23.85 30.55 23.7 32.85 23.4 35.55 22.65 36.0 22.5 37.6 22.15 Q37.15 23.6 36.0 25.0 L35.95 25.05 35.55 25.3 Q33.85 26.5 31.6 26.65 L31.55 26.7 31.5 26.7 30.95 26.75 31.5 27.7 Q32.85 29.8 35.4 30.8 L32.15 30.7 32.7 32.95 Q33.25 34.35 34.1 35.55 31.9 34.55 31.0 32.95 L30.8 32.6 30.75 32.45 30.7 32.95 Q30.3 34.25 29.2 35.05 L29.15 32.95 28.85 31.7 27.25 32.95 26.1 33.35 26.35 32.95 27.65 30.55 27.15 31.25 26.95 31.5 26.5 32.05 Q25.35 33.3 24.1 33.8 23.45 35.05 23.15 36.65 22.9 37.6 22.05 37.65 L21.8 37.6 21.55 37.5 Q21.1 37.35 20.9 36.65 L20.05 33.8 Q18.45 33.15 17.1 31.65 L18.2 33.4 18.4 33.85 Q17.75 33.8 17.25 33.4 16.35 33.05 15.65 32.2 L15.35 33.4 Q15.15 34.55 15.3 35.55 14.2 34.75 13.85 33.4 L13.7 32.95 13.7 33.05 13.5 33.4 Q12.6 35.0 10.4 36.0 11.3 34.85 11.8 33.4 L12.4 31.15 9.15 31.3 Q10.8 30.6 11.85 29.55 L12.5 28.85 13.05 28.2 13.7 26.95 13.75 26.9 12.5 26.7 12.45 26.65 Q9.95 26.45 8.15 25.05 L7.8 24.6 Q6.85 23.45 6.4 22.15 L10.55 22.9 Q13.4 23.35 14.85 23.9 L14.9 23.2 Q15.1 20.75 16.35 18.7 L16.5 18.4 16.1 18.1 16.1 17.95 16.2 17.7 Q16.1 16.95 15.15 16.25 L14.75 15.85 14.65 15.6 14.55 14.65 16.3 13.4 17.2 12.75 17.75 13.7 17.9 13.85 18.9 13.7 19.0 13.65 Q19.7 13.45 19.85 14.05 20.05 14.35 19.9 15.05 L19.85 15.55 20.1 15.4 21.8 15.15 21.95 15.15 22.05 15.15 22.65 15.15 24.15 15.5 24.2 15.55 24.15 15.05 24.15 14.85 24.15 14.4 24.15 14.35 24.2 14.05 Q24.4 13.45 25.05 13.65 L25.1 13.7 25.15 13.7 26.2 13.85 26.3 13.7 26.55 13.4 26.65 13.45 27.8 14.15 M30.0 17.25 L31.05 16.95 Q31.45 16.95 31.45 17.3 L31.2 17.85 Q30.15 17.7 30.45 18.5 30.75 19.3 31.65 19.5 32.55 19.65 33.15 19.05 31.9 18.25 32.0 17.3 32.1 16.3 33.4 16.2 34.75 16.05 34.6 17.15 L34.25 19.1 34.6 19.15 Q35.95 19.15 36.15 17.1 36.15 16.4 35.3 15.5 L34.4 14.65 Q34.4 13.85 35.6 15.0 36.75 16.1 36.75 17.15 36.75 17.8 36.35 18.6 35.75 19.75 34.55 19.75 L34.15 19.6 Q32.95 21.3 31.35 21.2 29.75 21.05 29.4 20.05 29.1 19.0 29.25 18.35 29.4 17.65 30.0 17.25 M22.1 24.0 Q22.1 22.55 21.45 21.45 L21.3 21.3 Q20.55 20.2 19.45 20.2 18.4 20.2 17.65 21.3 16.85 22.45 16.85 24.0 16.85 25.55 17.65 26.75 L18.85 27.7 19.45 27.85 Q20.55 27.85 21.3 26.75 22.1 25.55 22.1 24.0 M21.45 24.45 Q21.45 25.45 20.85 26.2 20.35 26.9 19.55 26.9 18.75 26.9 18.1 26.2 17.55 25.45 17.55 24.45 17.55 23.45 18.1 22.7 18.75 22.0 19.55 22.0 20.35 22.0 20.85 22.7 21.45 23.45 21.45 24.45 M33.75 17.65 Q33.75 17.15 33.1 17.15 32.45 17.1 32.75 17.7 L33.3 18.35 33.55 18.5 33.75 17.65 M16.25 5.55 L16.25 6.0 16.35 8.05 16.4 8.55 15.75 8.6 14.65 8.55 14.7 8.2 15.1 6.0 15.3 5.9 16.25 5.55 M14.45 10.4 L14.5 9.85 14.6 9.35 15.75 9.35 16.45 9.35 16.5 9.85 16.5 9.9 16.5 10.05 15.8 10.35 Q15.0 10.65 14.45 10.9 L14.45 10.4 M18.9 23.25 L18.7 23.75 18.9 24.25 19.4 24.45 Q19.7 24.45 19.9 24.25 L20.1 23.75 19.9 23.25 19.4 23.05 18.9 23.25 M9.85 18.05 L10.05 18.9 10.3 18.75 10.85 18.1 Q11.15 17.5 10.5 17.55 9.85 17.55 9.85 18.05 M8.0 15.4 Q9.2 14.25 9.2 15.05 L8.3 15.9 Q7.45 16.8 7.45 17.5 7.65 19.55 9.0 19.55 L9.35 19.5 Q9.1 18.65 9.0 17.55 8.85 16.45 10.2 16.6 11.5 16.7 11.6 17.7 11.7 18.65 10.45 19.45 11.05 20.05 11.95 19.9 12.85 19.7 13.15 18.9 13.45 18.1 12.4 18.25 L12.15 17.7 Q12.15 17.35 12.55 17.35 L13.6 17.65 Q14.2 18.05 14.35 18.75 L14.2 20.45 Q13.85 21.45 12.25 21.6 10.65 21.7 9.45 20.0 L9.05 20.15 Q7.85 20.15 7.25 19.0 L6.85 17.55 Q6.85 16.5 8.0 15.4 M14.4 11.9 L14.45 11.75 16.0 11.1 16.6 10.9 16.6 11.5 16.8 12.0 16.1 12.6 Q15.6 12.85 14.8 13.45 14.6 13.55 14.5 13.7 L14.45 12.45 14.4 11.9 M17.8 30.75 Q19.45 33.25 22.25 33.2 25.05 33.1 26.55 30.5 28.1 27.75 27.95 25.0 L27.95 25.3 Q27.6 27.45 26.3 29.2 24.55 31.65 22.05 31.65 19.5 31.65 17.75 29.2 16.5 27.45 16.15 25.3 16.15 28.25 17.8 30.75 M26.1 25.7 L25.8 24.85 Q25.4 24.55 24.9 24.55 24.45 24.55 24.1 24.85 23.75 25.25 23.75 25.7 23.75 26.25 24.1 26.55 24.45 26.9 24.9 26.9 L25.8 26.55 25.85 26.55 26.1 25.7 M25.15 25.5 L25.3 25.8 25.15 26.1 24.9 26.25 24.6 26.1 24.45 25.8 24.6 25.5 Q24.7 25.35 24.9 25.35 L25.15 25.5" fill="#2e5d6b" fill-rule="evenodd" stroke="none"/>
      <path d="M0.0 7.6 Q0.0 4.5 2.25 2.25 4.5 0.0 7.6 0.0 L36.4 0.0 Q39.55 0.0 41.8 2.25 44.05 4.5 44.05 7.6 L44.05 36.35 Q44.05 39.5 41.8 41.75 39.55 43.95 36.4 43.95 L7.6 43.95 Q4.5 43.95 2.25 41.75 0.0 39.5 0.0 36.35 L0.0 7.6 M22.05 4.65 Q14.85 4.65 9.8 9.75 4.7 14.8 4.7 22.0 4.7 29.15 9.8 34.25 14.85 39.3 22.05 39.3 29.25 39.3 34.25 34.25 39.3 29.15 39.3 22.0 39.3 14.8 34.25 9.75 29.15 4.65 22.05 4.65" fill="url(#gradient1)" fill-rule="evenodd" stroke="none"/>
      <path d="M5.35 22.2 Q5.35 29.1 10.25 34.0 15.05 38.8 22.0 38.8 28.8 38.8 33.7 34.0 38.6 29.1 38.6 22.2 38.6 15.3 33.7 10.45 28.85 5.6 22.0 5.55 15.05 5.6 10.25 10.45 5.35 15.3 5.35 22.2 M8.45 8.8 Q14.05 3.2 22.0 3.2 29.85 3.2 35.4 8.8 41.0 14.35 41.0 22.2 41.0 30.1 35.4 35.65 29.85 41.2 22.0 41.2 14.05 41.2 8.45 35.65 2.95 30.1 2.95 22.2 2.95 14.35 8.45 8.8" fill="url(#gradient2)" fill-rule="evenodd" stroke="none"/>
    </g>
    <linearGradient gradientTransform="matrix(0.0, -0.0189, -0.0189, 0.0, 21.8, 18.6)" gradientUnits="userSpaceOnUse" id="gradient0" spreadMethod="pad" x1="-819.2" x2="819.2">
      <stop offset="0.011764705882352941" stop-color="#b3f9e4"/>
      <stop offset="1.0" stop-color="#5bbbff"/>
    </linearGradient>
    <linearGradient gradientTransform="matrix(0.0, -0.044, -0.044, 0.0, 22.0, -1.2)" gradientUnits="userSpaceOnUse" id="gradient1" spreadMethod="pad" x1="-819.2" x2="819.2">
      <stop offset="0.011764705882352941" stop-color="#90d1d1"/>
      <stop offset="0.9764705882352941" stop-color="#003459"/>
    </linearGradient>
    <linearGradient gradientTransform="matrix(0.0, -0.0168, -0.0168, 0.0, 21.95, 26.8)" gradientUnits="userSpaceOnUse" id="gradient2" spreadMethod="pad" x1="-819.2" x2="819.2">
      <stop offset="0.011764705882352941" stop-color="#dbf7ff"/>
      <stop offset="0.9764705882352941" stop-color="#384759"/>
    </linearGradient>
    <g id="sprite1" transform="matrix(1.0, 0.0, 0.0, 1.0, 0.0, 0.0)">
      <use height="20.7" transform="matrix(1.0, 0.0, 0.0, 1.0, 0.0, 0.0)" width="7.3" xlink:href="#shape1"/>
    </g>
    <g id="shape1" transform="matrix(1.0, 0.0, 0.0, 1.0, 0.0, 0.0)">
      <path d="M1.5 3.3 Q1.25 4.9 1.35 6.95 1.55 10.95 3.35 13.0 L6.75 16.9 Q7.8 18.5 6.9 19.6 5.25 21.5 2.85 20.1 -0.1 18.35 0.0 11.65 0.1 5.2 1.1 1.95 1.6 0.35 2.05 0.0 L1.5 3.3" fill="#6c6a85" fill-rule="evenodd" stroke="none"/>
    </g>
    <g id="shape2" transform="matrix(1.0, 0.0, 0.0, 1.0, -1.1, -18.45)">
      <path d="M2.65 21.35 L2.6 25.7 Q3.0 30.6 5.05 33.15 L8.95 37.95 Q10.2 39.95 9.0 41.3 6.95 43.55 4.1 41.65 0.65 39.4 1.15 31.35 1.6 23.6 2.4 20.3 L3.05 18.45 2.65 21.35" fill="url(#gradient3)" fill-rule="evenodd" stroke="none"/>
    </g>
    <linearGradient gradientTransform="matrix(0.0, -0.0105, -0.0105, 0.0, 5.3, 33.25)" gradientUnits="userSpaceOnUse" id="gradient3" spreadMethod="pad" x1="-819.2" x2="819.2">
      <stop offset="0.011764705882352941" stop-color="#dbf7ff"/>
      <stop offset="0.9764705882352941" stop-color="#384759"/>
    </linearGradient>
    <g id="sprite2" transform="matrix(1.0, 0.0, 0.0, 1.0, 0.05, 0.0)">
      <use height="12.1" transform="matrix(1.0, 0.0, 0.0, 1.0, -0.05, 0.0)" width="5.7" xlink:href="#shape3"/>
    </g>
    <g id="shape3" transform="matrix(1.0, 0.0, 0.0, 1.0, 0.05, 0.0)">
      <path d="M1.45 10.9 Q3.25 11.3 3.25 9.75 3.25 8.85 2.15 7.35 L0.45 4.75 Q-0.3 2.9 0.1 0.0 0.15 0.9 0.5 2.05 1.15 4.35 2.45 5.8 L5.15 8.65 Q6.15 9.9 5.1 11.0 2.85 13.25 1.45 10.9" fill="#f2f2f2" fill-rule="evenodd" stroke="none"/>
    </g>
    <g id="sprite3" transform="matrix(1.0, 0.0, 0.0, 1.0, 0.0, 0.0)">
      <use height="18.7" transform="matrix(1.0, 0.0, 0.0, 1.0, 0.0, 0.0)" width="5.7" xlink:href="#shape4"/>
    </g>
    <g id="shape4" transform="matrix(1.0, 0.0, 0.0, 1.0, 0.0, 0.0)">
      <path d="M1.65 11.9 Q1.55 10.8 0.55 8.3 -0.4 5.85 0.25 2.65 0.6 1.1 1.1 0.0 L0.5 2.55 Q0.05 5.55 0.95 8.0 1.6 9.8 3.55 11.35 5.25 12.65 5.55 14.75 5.9 17.2 5.3 18.15 L4.6 18.55 Q3.45 19.2 2.4 16.85 1.55 14.9 1.55 13.5 L1.65 11.9" fill="#ffffff" fill-rule="evenodd" stroke="none"/>
    </g>
    <g id="sprite4" transform="matrix(1.0, 0.0, 0.0, 1.0, 0.0, 0.05)">
      <use height="7.0" transform="matrix(1.0, 0.0, 0.0, 1.0, 0.0, -0.05)" width="3.35" xlink:href="#shape5"/>
    </g>
    <g id="shape5" transform="matrix(1.0, 0.0, 0.0, 1.0, 0.0, 0.05)">
      <path d="M2.3 5.7 Q2.05 4.1 0.65 2.6 -0.4 1.45 0.2 0.4 0.8 -0.6 2.05 0.6 3.35 1.8 3.35 4.25 3.35 6.7 2.05 6.95 2.9 6.45 2.3 5.7" fill="#ffffff" fill-rule="evenodd" stroke="none"/>
    </g>
    <g id="shape6" transform="matrix(1.0, 0.0, 0.0, 1.0, -1.65, -18.85)">
      <path d="M3.8 34.35 L3.5 33.6 Q3.45 32.75 4.45 32.75 6.0 32.75 5.75 35.4 L4.9 34.0 Q4.05 32.95 3.8 34.35" fill="#ffffff" fill-rule="evenodd" stroke="none"/>
      <path d="M3.35 28.1 L5.3 30.5 Q6.9 32.1 7.55 33.25 9.15 36.0 8.55 39.3 8.45 40.05 7.9 40.6 6.7 41.9 4.4 41.5 L6.1 41.15 Q7.85 40.2 7.65 37.05 7.5 34.45 5.05 31.7 2.4 28.85 2.0 26.5 1.45 23.4 1.75 20.85 L2.2 18.85 2.1 22.65 Q2.25 26.6 3.35 28.1" fill="#bbded6" fill-rule="evenodd" stroke="none"/>
    </g>
    <g id="sprite5" transform="matrix(1.0, 0.0, 0.0, 1.0, 0.0, 0.0)">
      <use height="11.6" transform="matrix(1.0, 0.0, 0.0, 1.0, 0.0, 0.0)" width="6.9" xlink:href="#shape7"/>
    </g>
    <g id="shape7" transform="matrix(1.0, 0.0, 0.0, 1.0, 0.0, 0.0)">
      <path d="M0.0 4.95 Q0.0 2.4 0.35 0.0 0.5 4.25 0.85 6.75 1.1 8.3 2.25 9.5 L3.35 10.4 Q5.95 10.25 6.3 7.5 6.45 6.1 6.1 4.75 7.75 7.6 6.05 10.0 4.4 12.4 2.0 11.15 0.05 10.1 0.0 4.95" fill="#bbded6" fill-rule="evenodd" stroke="none"/>
    </g>
    <g id="sprite6" transform="matrix(1.0, 0.0, 0.0, 1.0, 0.0, 0.0)">
      <use height="11.1" transform="matrix(1.0, 0.0, 0.0, 1.0, 0.0, 0.0)" width="6.45" xlink:href="#shape8"/>
    </g>
    <g id="shape8" transform="matrix(1.0, 0.0, 0.0, 1.0, 0.0, 0.0)">
      <path d="M0.45 5.0 Q1.15 10.05 3.15 10.4 L4.6 10.1 Q6.1 9.4 6.3 7.2 L6.3 6.25 Q6.6 7.3 6.35 8.45 5.85 10.7 3.3 11.1 2.3 11.25 1.35 9.9 -0.45 7.25 0.15 0.0 0.1 2.45 0.45 5.0" fill="#bbded6" fill-rule="evenodd" stroke="none"/>
    </g>
    <g id="sprite7" transform="matrix(1.0, 0.0, 0.0, 1.0, 0.0, 0.0)">
      <use height="11.8" transform="matrix(1.0, 0.0, 0.0, 1.0, 0.0, 0.0)" width="6.5" xlink:href="#shape9"/>
    </g>
    <g id="shape9" transform="matrix(1.0, 0.0, 0.0, 1.0, 0.0, 0.0)">
      <path d="M0.0 0.0 Q0.4 0.55 0.4 1.45 0.4 4.65 0.65 6.45 1.25 10.9 3.1 11.35 L4.2 11.4 Q5.4 11.25 6.1 10.2 L6.5 8.75 6.45 9.5 Q6.15 10.85 5.0 11.45 4.5 11.8 3.8 11.8 2.45 11.75 1.4 10.05 0.4 7.35 0.3 3.6 L0.25 0.8 0.0 0.0" fill="#306b5e" fill-rule="evenodd" stroke="none"/>
    </g>
    <g id="sprite8" transform="matrix(1.0, 0.0, 0.0, 1.0, 0.0, 0.0)">
      <use height="18.7" transform="matrix(1.0, 0.0, 0.0, 1.0, 0.0, 0.0)" width="5.7" xlink:href="#shape10"/>
    </g>
    <g id="shape10" transform="matrix(1.0, 0.0, 0.0, 1.0, 0.0, 0.0)">
      <path d="M4.05 11.9 L4.15 13.5 Q4.15 14.9 3.3 16.85 2.25 19.2 1.1 18.55 0.75 18.6 0.4 18.15 -0.2 17.2 0.15 14.75 0.45 12.65 2.15 11.35 4.1 9.8 4.75 8.0 5.65 5.55 5.2 2.55 5.0 1.05 4.6 0.0 L5.45 2.65 Q6.1 5.85 5.15 8.3 4.15 10.8 4.05 11.9" fill="#ffffff" fill-rule="evenodd" stroke="none"/>
    </g>
    <g id="sprite9" transform="matrix(1.0, 0.0, 0.0, 1.0, 0.0, 0.05)">
      <use height="7.0" transform="matrix(1.0, 0.0, 0.0, 1.0, 0.0, -0.05)" width="3.35" xlink:href="#shape11"/>
    </g>
    <g id="shape11" transform="matrix(1.0, 0.0, 0.0, 1.0, 0.0, 0.05)">
      <path d="M1.05 5.7 Q0.45 6.45 1.3 6.95 0.0 6.7 0.0 4.25 0.0 1.8 1.3 0.6 2.55 -0.6 3.15 0.4 3.75 1.45 2.7 2.6 1.3 4.1 1.05 5.7" fill="#ffffff" fill-rule="evenodd" stroke="none"/>
    </g>
    <g id="shape12" transform="matrix(1.0, 0.0, 0.0, 1.0, -34.7, -18.95)">
      <path d="M39.65 34.45 Q39.4 33.05 38.45 34.1 L37.65 35.5 Q37.6 34.8 37.7 34.15 38.0 32.85 39.0 32.85 40.55 32.85 39.65 34.45" fill="#ffffff" fill-rule="evenodd" stroke="none"/>
      <path d="M40.0 28.2 Q41.15 26.7 41.25 22.75 L41.2 18.95 41.65 20.95 Q41.9 23.5 41.4 26.6 40.95 28.9 38.35 31.8 35.9 34.55 35.75 37.15 35.55 40.3 37.3 41.25 L38.7 41.7 Q36.65 41.9 35.5 40.7 L34.85 39.4 Q34.25 36.1 35.85 33.35 36.5 32.2 38.1 30.6 L40.0 28.2" fill="#bbded6" fill-rule="evenodd" stroke="none"/>
    </g>
    <g id="sprite10" transform="matrix(1.0, 0.0, 0.0, 1.0, 0.05, 0.0)">
      <use height="11.6" transform="matrix(1.0, 0.0, 0.0, 1.0, -0.05, 0.0)" width="6.9" xlink:href="#shape13"/>
    </g>
    <g id="shape13" transform="matrix(1.0, 0.0, 0.0, 1.0, 0.05, 0.0)">
      <path d="M0.8 10.0 Q-0.9 7.6 0.75 4.75 0.4 6.1 0.55 7.5 0.9 10.25 3.5 10.4 L4.6 9.5 Q5.75 8.3 6.0 6.75 6.35 4.25 6.5 0.0 6.9 2.4 6.85 4.95 6.8 10.1 4.85 11.15 2.45 12.4 0.8 10.0" fill="#bbded6" fill-rule="evenodd" stroke="none"/>
    </g>
    <g id="sprite11" transform="matrix(1.0, 0.0, 0.0, 1.0, -0.05, 0.0)">
      <use height="11.1" transform="matrix(1.0, 0.0, 0.0, 1.0, 0.05, 0.0)" width="6.35" xlink:href="#shape14"/>
    </g>
    <g id="shape14" transform="matrix(1.0, 0.0, 0.0, 1.0, -0.05, 0.0)">
      <path d="M5.95 5.0 Q6.3 2.45 6.25 0.0 6.85 7.25 5.05 9.9 4.15 11.25 3.1 11.1 0.55 10.7 0.05 8.45 L0.1 6.25 0.1 7.2 Q0.3 9.4 1.8 10.1 L3.25 10.4 Q5.25 10.05 5.95 5.0" fill="#bbded6" fill-rule="evenodd" stroke="none"/>
    </g>
    <g id="sprite12" transform="matrix(1.0, 0.0, 0.0, 1.0, -0.05, 0.0)">
      <use height="11.8" transform="matrix(1.0, 0.0, 0.0, 1.0, 0.05, 0.0)" width="6.45" xlink:href="#shape15"/>
    </g>
    <g id="shape15" transform="matrix(1.0, 0.0, 0.0, 1.0, -0.05, 0.0)">
      <path d="M6.5 0.0 L6.3 0.8 6.2 3.6 Q6.1 7.35 5.1 10.05 4.05 11.75 2.7 11.8 2.0 11.8 1.5 11.45 0.4 10.85 0.1 9.5 L0.05 8.95 0.4 10.2 Q1.1 11.25 2.3 11.4 L3.4 11.35 Q5.25 10.9 5.85 6.45 L6.1 1.45 Q6.1 0.55 6.5 0.0" fill="#306b5e" fill-rule="evenodd" stroke="none"/>
    </g>
    <g id="sprite13" transform="matrix(1.0, 0.0, 0.0, 1.0, 0.0, 0.0)">
      <use height="20.15" transform="matrix(1.0, 0.0, 0.0, 1.0, 0.0, 0.0)" width="28.2" xlink:href="#shape16"/>
    </g>
    <g id="shape16" transform="matrix(1.0, 0.0, 0.0, 1.0, 0.0, 0.0)">
      <path d="M27.65 18.45 L27.4 18.95 Q26.2 20.8 23.4 19.8 19.6 18.5 17.35 14.05 14.8 9.1 9.75 7.4 4.1 5.65 0.0 10.3 1.0 6.85 3.7 4.15 7.2 0.65 11.9 0.05 L14.8 0.05 18.4 0.65 Q21.55 1.65 24.05 4.15 28.2 8.3 28.2 14.25 28.2 16.45 27.65 18.45" fill="#ffffff" fill-opacity="0.19607843" fill-rule="evenodd" stroke="none"/>
    </g>
    <g id="sprite14" transform="matrix(1.0, 0.0, 0.0, 1.0, 0.2, 0.0)">
      <use height="8.6" transform="matrix(1.0, 0.0, 0.0, 1.0, -0.2, 0.0)" width="35.05" xlink:href="#shape17"/>
    </g>
    <g id="shape17" transform="matrix(1.0, 0.0, 0.0, 1.0, 0.2, 0.0)">
      <path d="M34.85 8.6 Q34.8 6.95 34.4 5.7 33.0 1.3 27.2 1.3 L7.45 1.3 Q0.05 1.3 -0.2 8.5 L-0.2 7.65 Q-0.2 0.0 7.45 0.0 L27.2 0.0 Q33.0 0.0 34.4 4.4 34.85 5.8 34.85 7.65 L34.85 8.6" fill="#e7deda" fill-rule="evenodd" stroke="none"/>
    </g>
  </defs>
</svg>
