<?xml version="1.0" encoding="UTF-8" standalone="no"?>
<svg xmlns:xlink="http://www.w3.org/1999/xlink" height="65.925px" width="66.075px" xmlns="http://www.w3.org/2000/svg">
  <g transform="matrix(1.5, 0.0, 0.0, 1.5, 0.0, 0.0)">
    <use height="43.95" transform="matrix(1.0, 0.0, 0.0, 1.0, 0.0, 0.0)" width="44.05" xlink:href="#shape0"/>
    <use height="0.0" transform="matrix(1.2077, 0.0, 0.0, 1.2077, 0.8, 0.75)" width="0.0" xlink:href="#sprite0"/>
    <use height="20.7" transform="matrix(1.2076, 0.0, 0.0, 1.2076, 0.2, 18.65)" width="7.3" xlink:href="#sprite1"/>
    <use height="24.05" transform="matrix(1.0, 0.0, 0.0, 1.0, 1.0, 18.4)" width="8.5" xlink:href="#shape2"/>
    <use height="12.1" transform="matrix(1.2076, 0.0, 0.0, 1.2076, 1.7396, 27.2)" width="5.7" xlink:href="#sprite2"/>
    <use height="18.7" transform="matrix(1.1918, 0.0, 0.0, 1.1918, 0.85, 17.95)" width="5.7" xlink:href="#sprite3"/>
    <use height="7.0" transform="matrix(1.1918, 0.0, 0.0, 1.1918, 2.9, 32.0404)" width="3.35" xlink:href="#sprite4"/>
    <use height="22.75" transform="matrix(1.0, 0.0, 0.0, 1.0, 1.6, 18.85)" width="7.05" xlink:href="#shape6"/>
    <use height="11.6" transform="matrix(1.1918, 0.0, 0.0, 1.1918, 0.75, 29.4)" width="6.9" xlink:href="#sprite5"/>
    <use height="11.1" transform="matrix(1.1918, 0.0, 0.0, 1.1918, 1.05, 29.4)" width="6.45" xlink:href="#sprite6"/>
    <use height="11.8" transform="matrix(1.1918, 0.0, 0.0, 1.1918, 0.75, 28.1)" width="6.5" xlink:href="#sprite7"/>
    <use height="18.7" transform="matrix(1.1918, 0.0, 0.0, 1.1918, 35.2, 17.95)" width="5.7" xlink:href="#sprite8"/>
    <use height="7.0" transform="matrix(1.1918, 0.0, 0.0, 1.1918, 35.95, 32.0404)" width="3.35" xlink:href="#sprite9"/>
    <use height="22.75" transform="matrix(1.0, 0.0, 0.0, 1.0, 34.4, 18.85)" width="7.0" xlink:href="#shape12"/>
    <use height="11.6" transform="matrix(1.1918, 0.0, 0.0, 1.1918, 33.7904, 29.4)" width="6.9" xlink:href="#sprite10"/>
    <use height="11.1" transform="matrix(1.1918, 0.0, 0.0, 1.1918, 34.1596, 29.4)" width="6.35" xlink:href="#sprite11"/>
    <use height="11.8" transform="matrix(1.1918, 0.0, 0.0, 1.1918, 34.3596, 28.1)" width="6.45" xlink:href="#sprite12"/>
    <use height="20.15" transform="matrix(1.1548, 0.0, 0.0, 1.1548, 6.15, 5.6)" width="28.2" xlink:href="#sprite13"/>
    <use height="8.6" transform="matrix(1.2077, 0.0, 0.0, 1.2065, 1.2085, 0.55)" width="35.05" xlink:href="#sprite14"/>
  </g>
  <defs>
    <g id="shape0" transform="matrix(1.0, 0.0, 0.0, 1.0, 0.0, 0.0)">
      <path d="M21.8 2.25 Q30.15 2.25 36.05 8.15 42.0 14.1 42.0 22.4 42.0 30.75 36.05 36.65 30.15 42.6 21.8 42.6 13.45 42.6 7.55 36.65 1.65 30.75 1.65 22.4 1.65 14.1 7.55 8.15 13.45 2.25 21.8 2.25" fill="url(#gradient0)" fill-rule="evenodd" stroke="none"/>
      <path d="M8.95 31.5 L16.35 26.8 25.55 29.8 29.0 27.65 34.2 30.8 29.1 30.25 25.0 32.7 15.9 29.8 8.95 31.5" fill="#2e5d6b" fill-rule="evenodd" stroke="none"/>
      <path d="M21.9 10.95 Q21.4 11.55 21.4 12.05 L21.4 12.9 Q21.45 13.4 21.85 13.95 L22.5 14.6 23.25 15.1 23.45 15.15 Q24.8 15.9 25.3 16.7 L25.8 17.75 25.85 17.95 Q26.65 19.55 27.25 18.95 27.75 18.25 29.75 16.95 28.6 18.65 28.4 19.3 28.3 19.9 28.55 21.0 L28.95 22.35 29.0 22.65 Q29.3 23.85 28.45 24.65 29.55 23.85 29.6 22.65 29.75 21.45 29.35 20.7 29.0 20.0 29.2 19.65 L30.15 19.0 30.25 18.95 Q32.1 17.9 30.95 16.5 33.15 17.2 32.3 19.0 32.05 19.5 32.65 19.9 L33.8 19.85 33.8 19.8 34.75 19.35 Q33.55 20.75 33.65 21.3 L34.45 22.6 34.8 23.15 Q35.25 23.85 35.15 24.5 L33.65 26.1 32.3 27.1 30.7 28.15 29.3 27.3 29.05 27.2 28.8 27.3 25.5 29.3 16.5 26.35 16.3 26.3 16.1 26.4 13.5 28.1 12.05 27.15 11.95 27.1 Q10.45 25.95 10.45 23.55 10.45 22.95 10.75 22.6 L11.6 21.3 Q11.7 20.75 10.5 19.35 L11.55 19.85 12.7 19.95 Q13.25 19.55 13.0 19.05 12.1 17.2 14.3 16.5 13.2 17.95 15.05 18.95 L15.15 19.0 16.25 20.0 Q14.9 20.8 15.35 22.6 L16.05 23.75 17.1 24.35 16.6 24.05 16.05 22.9 Q15.65 21.75 16.3 21.0 L16.6 20.7 17.65 18.95 Q17.9 18.0 15.9 15.7 L17.45 16.5 19.4 16.6 Q20.35 15.95 19.95 15.2 18.85 13.0 20.55 11.8 L21.9 10.95 M23.45 9.75 Q23.25 8.9 23.75 8.7 24.15 8.6 24.55 9.05 24.9 9.45 24.75 10.0 24.65 10.6 23.0 10.9 23.55 10.55 23.45 9.75 M29.25 14.55 L29.7 14.45 Q30.0 14.55 29.9 15.05 29.8 15.5 30.15 15.75 29.15 15.6 29.1 15.2 29.0 14.85 29.25 14.55 M20.2 12.9 L20.4 14.85 Q20.65 16.3 23.2 18.8 25.7 21.3 25.15 22.8 25.65 21.95 25.15 20.5 L24.7 19.9 23.95 19.05 22.85 18.1 21.2 16.4 Q20.2 15.25 20.2 12.9 M24.25 14.0 Q25.2 14.45 25.45 15.3 L24.65 15.2 24.25 14.0 M16.45 15.1 L16.2 14.85 15.75 14.45 Q14.75 13.3 16.2 12.65 17.7 12.8 17.3 13.6 17.1 13.15 16.45 13.3 15.6 13.9 16.45 15.1 M29.6 18.25 Q29.3 18.7 29.35 19.0 L28.95 19.1 Q29.05 18.65 29.6 18.25 M15.65 17.6 Q16.7 18.15 17.0 19.0 L16.15 18.95 Q16.2 18.4 15.65 17.6 M16.45 27.4 L24.5 30.05 22.1 30.15 Q18.1 30.15 14.85 28.75 L14.55 28.65 16.45 27.4 M31.75 26.0 L31.75 25.95 31.3 25.8 31.75 26.0 M29.65 28.7 L29.45 28.75 26.9 29.65 29.05 28.35 29.65 28.7" fill="#2e5d6b" fill-rule="evenodd" stroke="none"/>
      <path d="M22.05 4.65 Q14.85 4.65 9.8 9.75 4.7 14.8 4.7 22.0 4.7 29.15 9.8 34.25 14.85 39.3 22.05 39.3 29.25 39.3 34.25 34.25 39.3 29.15 39.3 22.0 39.3 14.8 34.25 9.75 29.15 4.65 22.05 4.65 M0.0 7.6 Q0.0 4.5 2.25 2.25 4.5 0.0 7.6 0.0 L36.4 0.0 Q39.55 0.0 41.8 2.25 44.05 4.5 44.05 7.6 L44.05 36.35 Q44.05 39.5 41.8 41.75 39.55 43.95 36.4 43.95 L7.6 43.95 Q4.5 43.95 2.25 41.75 0.0 39.5 0.0 36.35 L0.0 7.6" fill="url(#gradient1)" fill-rule="evenodd" stroke="none"/>
      <path d="M8.45 8.8 Q14.05 3.2 22.0 3.2 29.85 3.2 35.4 8.8 41.0 14.35 41.0 22.2 41.0 30.1 35.4 35.65 29.85 41.2 22.0 41.2 14.05 41.2 8.45 35.65 2.95 30.1 2.95 22.2 2.95 14.35 8.45 8.8 M5.35 22.2 Q5.35 29.1 10.25 34.0 15.05 38.8 22.0 38.8 28.8 38.8 33.7 34.0 38.6 29.1 38.6 22.2 38.6 15.3 33.7 10.45 28.85 5.6 22.0 5.55 15.05 5.6 10.25 10.45 5.35 15.3 5.35 22.2" fill="url(#gradient2)" fill-rule="evenodd" stroke="none"/>
    </g>
    <linearGradient gradientTransform="matrix(0.0, -0.0189, -0.0189, 0.0, 21.8, 18.6)" gradientUnits="userSpaceOnUse" id="gradient0" spreadMethod="pad" x1="-819.2" x2="819.2">
      <stop offset="0.011764705882352941" stop-color="#b3f9e4"/>
      <stop offset="1.0" stop-color="#5bbbff"/>
    </linearGradient>
    <linearGradient gradientTransform="matrix(0.0, -0.044, -0.044, 0.0, 22.0, -1.2)" gradientUnits="userSpaceOnUse" id="gradient1" spreadMethod="pad" x1="-819.2" x2="819.2">
      <stop offset="0.011764705882352941" stop-color="#90d1d1"/>
      <stop offset="0.9764705882352941" stop-color="#003459"/>
    </linearGradient>
    <linearGradient gradientTransform="matrix(0.0, -0.0168, -0.0168, 0.0, 21.95, 26.8)" gradientUnits="userSpaceOnUse" id="gradient2" spreadMethod="pad" x1="-819.2" x2="819.2">
      <stop offset="0.011764705882352941" stop-color="#dbf7ff"/>
      <stop offset="0.9764705882352941" stop-color="#384759"/>
    </linearGradient>
    <g id="sprite1" transform="matrix(1.0, 0.0, 0.0, 1.0, 0.0, 0.0)">
      <use height="20.7" transform="matrix(1.0, 0.0, 0.0, 1.0, 0.0, 0.0)" width="7.3" xlink:href="#shape1"/>
    </g>
    <g id="shape1" transform="matrix(1.0, 0.0, 0.0, 1.0, 0.0, 0.0)">
      <path d="M1.5 3.3 Q1.25 4.9 1.35 6.95 1.55 10.95 3.35 13.0 L6.75 16.9 Q7.8 18.5 6.9 19.6 5.25 21.5 2.85 20.1 -0.1 18.35 0.0 11.65 0.1 5.2 1.1 1.95 1.6 0.35 2.05 0.0 L1.5 3.3" fill="#6c6a85" fill-rule="evenodd" stroke="none"/>
    </g>
    <g id="shape2" transform="matrix(1.0, 0.0, 0.0, 1.0, -1.0, -18.4)">
      <path d="M2.55 21.3 L2.5 25.65 Q2.9 30.55 4.95 33.1 L8.85 37.9 Q10.1 39.9 8.9 41.25 6.85 43.45 4.0 41.6 0.55 39.35 1.05 31.25 1.5 23.55 2.3 20.2 L2.95 18.4 2.55 21.3" fill="url(#gradient3)" fill-rule="evenodd" stroke="none"/>
    </g>
    <linearGradient gradientTransform="matrix(0.0, -0.0105, -0.0105, 0.0, 5.2, 33.2)" gradientUnits="userSpaceOnUse" id="gradient3" spreadMethod="pad" x1="-819.2" x2="819.2">
      <stop offset="0.011764705882352941" stop-color="#dbf7ff"/>
      <stop offset="0.9764705882352941" stop-color="#384759"/>
    </linearGradient>
    <g id="sprite2" transform="matrix(1.0, 0.0, 0.0, 1.0, 0.05, 0.0)">
      <use height="12.1" transform="matrix(1.0, 0.0, 0.0, 1.0, -0.05, 0.0)" width="5.7" xlink:href="#shape3"/>
    </g>
    <g id="shape3" transform="matrix(1.0, 0.0, 0.0, 1.0, 0.05, 0.0)">
      <path d="M1.45 10.9 Q3.25 11.3 3.25 9.75 3.25 8.85 2.15 7.35 L0.45 4.75 Q-0.3 2.9 0.1 0.0 0.15 0.9 0.5 2.05 1.15 4.35 2.45 5.8 L5.15 8.65 Q6.15 9.9 5.1 11.0 2.85 13.25 1.45 10.9" fill="#f2f2f2" fill-rule="evenodd" stroke="none"/>
    </g>
    <g id="sprite3" transform="matrix(1.0, 0.0, 0.0, 1.0, 0.0, 0.0)">
      <use height="18.7" transform="matrix(1.0, 0.0, 0.0, 1.0, 0.0, 0.0)" width="5.7" xlink:href="#shape4"/>
    </g>
    <g id="shape4" transform="matrix(1.0, 0.0, 0.0, 1.0, 0.0, 0.0)">
      <path d="M1.65 11.9 Q1.55 10.8 0.55 8.3 -0.4 5.85 0.25 2.65 0.6 1.1 1.1 0.0 L0.5 2.55 Q0.05 5.55 0.95 8.0 1.6 9.8 3.55 11.35 5.25 12.65 5.55 14.75 5.9 17.2 5.3 18.15 L4.6 18.55 Q3.45 19.2 2.4 16.85 1.55 14.9 1.55 13.5 L1.65 11.9" fill="#ffffff" fill-rule="evenodd" stroke="none"/>
    </g>
    <g id="sprite4" transform="matrix(1.0, 0.0, 0.0, 1.0, 0.0, 0.05)">
      <use height="7.0" transform="matrix(1.0, 0.0, 0.0, 1.0, 0.0, -0.05)" width="3.35" xlink:href="#shape5"/>
    </g>
    <g id="shape5" transform="matrix(1.0, 0.0, 0.0, 1.0, 0.0, 0.05)">
      <path d="M2.3 5.7 Q2.05 4.1 0.65 2.6 -0.4 1.45 0.2 0.4 0.8 -0.6 2.05 0.6 3.35 1.8 3.35 4.25 3.35 6.7 2.05 6.95 2.9 6.45 2.3 5.7" fill="#ffffff" fill-rule="evenodd" stroke="none"/>
    </g>
    <g id="shape6" transform="matrix(1.0, 0.0, 0.0, 1.0, -1.6, -18.85)">
      <path d="M3.7 34.35 L3.4 33.55 Q3.35 32.7 4.4 32.7 5.95 32.7 5.7 35.35 L4.85 33.95 Q3.95 32.9 3.7 34.35" fill="#ffffff" fill-rule="evenodd" stroke="none"/>
      <path d="M3.3 28.05 L5.2 30.45 Q6.8 32.05 7.45 33.2 9.1 35.95 8.5 39.25 8.35 40.0 7.85 40.6 6.65 41.85 4.3 41.5 L6.05 41.1 Q7.75 40.15 7.6 37.0 7.4 34.4 4.95 31.65 2.35 28.8 1.95 26.45 1.4 23.35 1.7 20.8 L2.1 18.85 2.05 22.6 Q2.15 26.6 3.3 28.05" fill="#bbded6" fill-rule="evenodd" stroke="none"/>
    </g>
    <g id="sprite5" transform="matrix(1.0, 0.0, 0.0, 1.0, 0.0, 0.0)">
      <use height="11.6" transform="matrix(1.0, 0.0, 0.0, 1.0, 0.0, 0.0)" width="6.9" xlink:href="#shape7"/>
    </g>
    <g id="shape7" transform="matrix(1.0, 0.0, 0.0, 1.0, 0.0, 0.0)">
      <path d="M0.0 4.95 Q0.0 2.4 0.35 0.0 0.5 4.25 0.85 6.75 1.1 8.3 2.25 9.5 L3.35 10.4 Q5.95 10.25 6.3 7.5 6.45 6.1 6.1 4.75 7.75 7.6 6.05 10.0 4.4 12.4 2.0 11.15 0.05 10.1 0.0 4.95" fill="#bbded6" fill-rule="evenodd" stroke="none"/>
    </g>
    <g id="sprite6" transform="matrix(1.0, 0.0, 0.0, 1.0, 0.0, 0.0)">
      <use height="11.1" transform="matrix(1.0, 0.0, 0.0, 1.0, 0.0, 0.0)" width="6.45" xlink:href="#shape8"/>
    </g>
    <g id="shape8" transform="matrix(1.0, 0.0, 0.0, 1.0, 0.0, 0.0)">
      <path d="M0.45 5.0 Q1.15 10.05 3.15 10.4 L4.6 10.1 Q6.1 9.4 6.3 7.2 L6.3 6.25 Q6.6 7.3 6.35 8.45 5.85 10.7 3.3 11.1 2.3 11.25 1.35 9.9 -0.45 7.25 0.15 0.0 0.1 2.45 0.45 5.0" fill="#bbded6" fill-rule="evenodd" stroke="none"/>
    </g>
    <g id="sprite7" transform="matrix(1.0, 0.0, 0.0, 1.0, 0.0, 0.0)">
      <use height="11.8" transform="matrix(1.0, 0.0, 0.0, 1.0, 0.0, 0.0)" width="6.5" xlink:href="#shape9"/>
    </g>
    <g id="shape9" transform="matrix(1.0, 0.0, 0.0, 1.0, 0.0, 0.0)">
      <path d="M0.0 0.0 Q0.4 0.55 0.4 1.45 0.4 4.65 0.65 6.45 1.25 10.9 3.1 11.35 L4.2 11.4 Q5.4 11.25 6.1 10.2 L6.5 8.75 6.45 9.5 Q6.15 10.85 5.0 11.45 4.5 11.8 3.8 11.8 2.45 11.75 1.4 10.05 0.4 7.35 0.3 3.6 L0.25 0.8 0.0 0.0" fill="#306b5e" fill-rule="evenodd" stroke="none"/>
    </g>
    <g id="sprite8" transform="matrix(1.0, 0.0, 0.0, 1.0, 0.0, 0.0)">
      <use height="18.7" transform="matrix(1.0, 0.0, 0.0, 1.0, 0.0, 0.0)" width="5.7" xlink:href="#shape10"/>
    </g>
    <g id="shape10" transform="matrix(1.0, 0.0, 0.0, 1.0, 0.0, 0.0)">
      <path d="M4.05 11.9 L4.15 13.5 Q4.15 14.9 3.3 16.85 2.25 19.2 1.1 18.55 0.75 18.6 0.4 18.15 -0.2 17.2 0.15 14.75 0.45 12.65 2.15 11.35 4.1 9.8 4.75 8.0 5.65 5.55 5.2 2.55 5.0 1.05 4.6 0.0 L5.45 2.65 Q6.1 5.85 5.15 8.3 4.15 10.8 4.05 11.9" fill="#ffffff" fill-rule="evenodd" stroke="none"/>
    </g>
    <g id="sprite9" transform="matrix(1.0, 0.0, 0.0, 1.0, 0.0, 0.05)">
      <use height="7.0" transform="matrix(1.0, 0.0, 0.0, 1.0, 0.0, -0.05)" width="3.35" xlink:href="#shape11"/>
    </g>
    <g id="shape11" transform="matrix(1.0, 0.0, 0.0, 1.0, 0.0, 0.05)">
      <path d="M1.05 5.7 Q0.45 6.45 1.3 6.95 0.0 6.7 0.0 4.25 0.0 1.8 1.3 0.6 2.55 -0.6 3.15 0.4 3.75 1.45 2.7 2.6 1.3 4.1 1.05 5.7" fill="#ffffff" fill-rule="evenodd" stroke="none"/>
    </g>
    <g id="shape12" transform="matrix(1.0, 0.0, 0.0, 1.0, -34.4, -18.85)">
      <path d="M39.35 34.35 Q39.1 32.9 38.15 33.95 L37.35 35.35 Q37.25 34.7 37.4 34.05 37.7 32.7 38.7 32.7 40.25 32.7 39.35 34.35" fill="#ffffff" fill-rule="evenodd" stroke="none"/>
      <path d="M39.7 28.05 Q40.85 26.6 40.95 22.6 L40.9 18.85 41.3 20.8 Q41.6 23.35 41.1 26.45 40.65 28.8 38.05 31.65 35.6 34.4 35.4 37.0 35.25 40.15 36.95 41.1 L38.4 41.55 Q36.3 41.8 35.2 40.6 L34.55 39.25 Q33.95 35.95 35.55 33.2 36.2 32.05 37.8 30.45 L39.7 28.05" fill="#bbded6" fill-rule="evenodd" stroke="none"/>
    </g>
    <g id="sprite10" transform="matrix(1.0, 0.0, 0.0, 1.0, 0.05, 0.0)">
      <use height="11.6" transform="matrix(1.0, 0.0, 0.0, 1.0, -0.05, 0.0)" width="6.9" xlink:href="#shape13"/>
    </g>
    <g id="shape13" transform="matrix(1.0, 0.0, 0.0, 1.0, 0.05, 0.0)">
      <path d="M0.8 10.0 Q-0.9 7.6 0.75 4.75 0.4 6.1 0.55 7.5 0.9 10.25 3.5 10.4 L4.6 9.5 Q5.75 8.3 6.0 6.75 6.35 4.25 6.5 0.0 6.9 2.4 6.85 4.95 6.8 10.1 4.85 11.15 2.45 12.4 0.8 10.0" fill="#bbded6" fill-rule="evenodd" stroke="none"/>
    </g>
    <g id="sprite11" transform="matrix(1.0, 0.0, 0.0, 1.0, -0.05, 0.0)">
      <use height="11.1" transform="matrix(1.0, 0.0, 0.0, 1.0, 0.05, 0.0)" width="6.35" xlink:href="#shape14"/>
    </g>
    <g id="shape14" transform="matrix(1.0, 0.0, 0.0, 1.0, -0.05, 0.0)">
      <path d="M5.95 5.0 Q6.3 2.45 6.25 0.0 6.85 7.25 5.05 9.9 4.15 11.25 3.1 11.1 0.55 10.7 0.05 8.45 L0.1 6.25 0.1 7.2 Q0.3 9.4 1.8 10.1 L3.25 10.4 Q5.25 10.05 5.95 5.0" fill="#bbded6" fill-rule="evenodd" stroke="none"/>
    </g>
    <g id="sprite12" transform="matrix(1.0, 0.0, 0.0, 1.0, -0.05, 0.0)">
      <use height="11.8" transform="matrix(1.0, 0.0, 0.0, 1.0, 0.05, 0.0)" width="6.45" xlink:href="#shape15"/>
    </g>
    <g id="shape15" transform="matrix(1.0, 0.0, 0.0, 1.0, -0.05, 0.0)">
      <path d="M6.5 0.0 L6.3 0.8 6.2 3.6 Q6.1 7.35 5.1 10.05 4.05 11.75 2.7 11.8 2.0 11.8 1.5 11.45 0.4 10.85 0.1 9.5 L0.05 8.95 0.4 10.2 Q1.1 11.25 2.3 11.4 L3.4 11.35 Q5.25 10.9 5.85 6.45 L6.1 1.45 Q6.1 0.55 6.5 0.0" fill="#306b5e" fill-rule="evenodd" stroke="none"/>
    </g>
    <g id="sprite13" transform="matrix(1.0, 0.0, 0.0, 1.0, 0.0, 0.0)">
      <use height="20.15" transform="matrix(1.0, 0.0, 0.0, 1.0, 0.0, 0.0)" width="28.2" xlink:href="#shape16"/>
    </g>
    <g id="shape16" transform="matrix(1.0, 0.0, 0.0, 1.0, 0.0, 0.0)">
      <path d="M27.65 18.45 L27.4 18.95 Q26.2 20.8 23.4 19.8 19.6 18.5 17.35 14.05 14.8 9.1 9.75 7.4 4.1 5.65 0.0 10.3 1.0 6.85 3.7 4.15 7.2 0.65 11.9 0.05 L14.8 0.05 18.4 0.65 Q21.55 1.65 24.05 4.15 28.2 8.3 28.2 14.25 28.2 16.45 27.65 18.45" fill="#ffffff" fill-opacity="0.19607843" fill-rule="evenodd" stroke="none"/>
    </g>
    <g id="sprite14" transform="matrix(1.0, 0.0, 0.0, 1.0, 0.2, 0.0)">
      <use height="8.6" transform="matrix(1.0, 0.0, 0.0, 1.0, -0.2, 0.0)" width="35.05" xlink:href="#shape17"/>
    </g>
    <g id="shape17" transform="matrix(1.0, 0.0, 0.0, 1.0, 0.2, 0.0)">
      <path d="M34.4 4.4 Q34.85 5.8 34.85 7.65 L34.85 8.6 Q34.8 6.95 34.4 5.7 33.0 1.3 27.2 1.3 L7.45 1.3 Q0.05 1.3 -0.2 8.5 L-0.2 7.65 Q-0.2 0.0 7.45 0.0 L27.2 0.0 Q33.0 0.0 34.4 4.4" fill="#e7deda" fill-rule="evenodd" stroke="none"/>
    </g>
  </defs>
</svg>
