<?xml version="1.0" encoding="UTF-8" standalone="no"?>
<svg xmlns:xlink="http://www.w3.org/1999/xlink" height="66.0px" width="66.075px" xmlns="http://www.w3.org/2000/svg">
  <g transform="matrix(1.5, 0.0, 0.0, 1.5, 0.075, 0.0)">
    <use height="44.0" transform="matrix(1.0, 0.0, 0.0, 1.0, -0.05, 0.0)" width="44.0" xlink:href="#shape0"/>
    <use height="32.85" transform="matrix(1.1548, 0.0, 0.0, 1.1548, 0.0655, 6.0129)" width="38.05" xlink:href="#sprite0"/>
    <use height="0.0" transform="matrix(1.2077, 0.0, 0.0, 1.2077, 1.2, 1.05)" width="0.0" xlink:href="#sprite2"/>
    <use height="29.9" transform="matrix(1.0, 0.0, 0.0, 1.0, 6.7, 9.1)" width="31.8" xlink:href="#shape5"/>
    <use height="20.15" transform="matrix(1.1594, 0.0, 0.0, 1.1605, 5.8, 5.3)" width="28.2" xlink:href="#sprite3"/>
    <use height="8.6" transform="matrix(1.2077, 0.0, 0.0, 1.2065, 0.7585, 0.55)" width="35.05" xlink:href="#sprite4"/>
  </g>
  <defs>
    <g id="shape0" transform="matrix(1.0, 0.0, 0.0, 1.0, 0.05, 0.0)">
      <path d="M36.0 36.7 Q30.1 42.6 21.75 42.6 13.4 42.6 7.55 36.7 1.6 30.85 1.6 22.45 1.6 14.1 7.55 8.2 13.4 2.3 21.75 2.3 30.1 2.3 36.0 8.2 41.95 14.1 41.95 22.45 41.95 30.85 36.0 36.7" fill="url(#gradient0)" fill-rule="evenodd" stroke="none"/>
      <path d="M34.2 9.75 Q29.1 4.7 21.95 4.7 14.8 4.7 9.7 9.75 4.65 14.85 4.65 22.0 4.65 29.15 9.7 34.25 14.8 39.3 21.95 39.3 29.2 39.3 34.2 34.25 39.3 29.2 39.3 22.0 39.3 14.85 34.2 9.75 M36.35 0.0 Q39.5 0.0 41.7 2.25 43.95 4.45 43.95 7.6 L43.95 36.45 Q43.95 39.55 41.7 41.8 39.5 44.0 36.35 44.0 L7.6 44.0 Q4.4 44.0 2.2 41.8 -0.05 39.55 -0.05 36.45 L-0.05 7.6 Q-0.05 4.45 2.2 2.25 4.4 0.0 7.6 0.0 L36.35 0.0" fill="url(#gradient1)" fill-rule="evenodd" stroke="none"/>
      <path d="M22.0 5.4 Q15.05 5.5 10.2 10.35 5.35 15.2 5.35 22.0 5.35 28.85 10.2 33.7 15.05 38.65 22.0 38.65 28.85 38.65 33.7 33.7 38.55 28.85 38.55 22.0 38.55 15.2 33.7 10.35 28.85 5.5 22.0 5.4 M8.55 8.6 Q14.1 3.0 22.0 3.0 29.85 3.0 35.4 8.6 40.95 14.2 40.95 22.0 40.95 29.9 35.4 35.4 29.85 41.0 22.0 41.0 14.1 41.0 8.55 35.4 3.0 29.9 3.0 22.0 3.0 14.2 8.55 8.6" fill="url(#gradient2)" fill-rule="evenodd" stroke="none"/>
    </g>
    <linearGradient gradientTransform="matrix(0.0, -0.0188, -0.0188, 0.0, 21.7, 18.55)" gradientUnits="userSpaceOnUse" id="gradient0" spreadMethod="pad" x1="-819.2" x2="819.2">
      <stop offset="0.011764705882352941" stop-color="#f9cfb3"/>
      <stop offset="1.0" stop-color="#ff5b79"/>
    </linearGradient>
    <linearGradient gradientTransform="matrix(0.0, -0.0173, -0.0173, 0.0, 21.95, 2.25)" gradientUnits="userSpaceOnUse" id="gradient1" spreadMethod="pad" x1="-819.2" x2="819.2">
      <stop offset="0.011764705882352941" stop-color="#d13800"/>
      <stop offset="0.9764705882352941" stop-color="#591600"/>
    </linearGradient>
    <linearGradient gradientTransform="matrix(0.0, -0.0168, -0.0168, 0.0, 21.95, 26.6)" gradientUnits="userSpaceOnUse" id="gradient2" spreadMethod="pad" x1="-819.2" x2="819.2">
      <stop offset="0.011764705882352941" stop-color="#ffa582"/>
      <stop offset="0.9764705882352941" stop-color="#591600"/>
    </linearGradient>
    <g id="sprite0" transform="matrix(1.0, 0.0, 0.0, 1.0, -0.1, 2.5)">
      <clipPath id="clipPath0" transform="matrix(1.0, 0.0, 0.0, 1.0, 0.0, 0.0)">
        <path d="M34.0 -2.5 L38.15 -1.6 38.15 30.35 0.5 30.35 0.5 -1.55 3.5 -2.1 6.95 6.9 5.35 20.95 5.55 20.85 7.3 22.85 Q12.1 27.7 18.95 27.7 25.75 27.7 30.55 22.85 L33.05 19.75 33.2 19.55 33.0 19.65 29.75 13.25 34.0 -2.5" fill="#ff0000" fill-rule="evenodd" stroke="none"/>
      </clipPath>
      <g clip-path="url(#clipPath0)">
        <use height="29.6" transform="matrix(1.0, 0.0, 0.0, 1.0, 20.3, 0.0)" width="17.8" xlink:href="#sprite1"/>
        <use height="28.95" transform="matrix(1.0, 0.0, 0.0, 1.0, 19.9, 1.15)" width="18.05" xlink:href="#shape3"/>
        <use height="29.6" transform="matrix(-1.0, 0.0, 0.0, 1.0, 17.9, 0.0)" width="17.8" xlink:href="#sprite1"/>
        <use height="28.95" transform="matrix(1.0, 0.0, 0.0, 1.0, 0.25, 1.15)" width="18.05" xlink:href="#shape4"/>
      </g>
    </g>
    <g id="sprite1" transform="matrix(1.0, 0.0, 0.0, 1.0, 0.0, 0.0)">
      <use height="29.6" transform="matrix(1.0, 0.0, 0.0, 1.0, 0.0, 0.0)" width="17.8" xlink:href="#shape2"/>
    </g>
    <g id="shape2" transform="matrix(1.0, 0.0, 0.0, 1.0, 0.0, 0.0)">
      <path d="M15.35 1.0 L15.95 0.0 Q15.7 0.8 15.6 1.8 L15.55 2.45 15.95 3.55 17.3 7.0 Q17.8 8.8 17.8 10.85 L17.55 13.15 17.65 13.3 Q17.3 14.6 15.75 14.85 16.6 16.5 16.85 19.4 17.65 25.05 15.2 28.0 13.2 30.3 6.95 29.3 2.15 28.55 0.0 27.4 L2.25 27.0 Q3.9 26.85 6.15 25.4 9.4 23.4 12.0 19.75 L11.95 21.55 Q11.7 23.55 10.65 24.8 10.2 25.3 10.3 25.65 L10.95 26.1 Q11.65 26.25 12.6 25.55 13.9 24.6 14.6 22.35 15.3 20.05 14.9 17.8 L14.15 16.45 13.7 15.05 Q13.3 13.85 13.3 12.65 13.3 10.2 15.35 10.1 L14.75 11.15 Q14.25 12.4 14.9 13.5 16.9 13.05 16.95 11.4 17.0 10.45 16.15 8.55 15.15 6.35 14.95 4.65 14.75 2.6 15.3 1.1 L15.35 1.05 15.35 1.0" fill="#261e00" fill-rule="evenodd" stroke="none"/>
    </g>
    <g id="shape3" transform="matrix(1.0, 0.0, 0.0, 1.0, -19.9, -1.15)">
      <path d="M34.85 5.3 Q34.6 3.25 34.9 2.0 L35.2 1.15 35.15 2.65 Q35.25 4.4 35.95 5.35 38.1 8.25 37.5 13.9 L37.05 14.75 Q36.35 15.55 35.15 15.55 L34.35 14.15 35.55 13.85 Q36.8 13.3 36.85 12.05 36.9 11.1 36.0 9.15 35.05 7.0 34.85 5.3" fill="url(#gradient3)" fill-rule="evenodd" stroke="none"/>
      <path d="M34.85 5.3 Q34.6 3.25 34.9 2.0 L35.2 1.15 35.15 2.65 Q35.25 4.4 35.95 5.35 38.1 8.25 37.5 13.9 L37.05 14.75 Q36.35 15.55 35.15 15.55 L34.35 14.15 35.55 13.85 Q36.8 13.3 36.85 12.05 36.9 11.1 36.0 9.15 35.05 7.0 34.85 5.3" fill="url(#gradient4)" fill-rule="evenodd" stroke="none"/>
      <path d="M37.3 9.0 Q36.8 6.6 35.95 5.35 35.3 4.4 35.2 2.65 L35.2 1.5 Q35.25 2.85 36.0 4.3 L37.55 7.85 Q38.15 9.9 37.9 12.0 L37.5 13.65 Q37.85 11.65 37.3 9.0" fill="#ffd6cc" fill-rule="evenodd" stroke="none"/>
      <path d="M31.8 22.15 Q31.55 24.15 30.5 25.45 29.9 26.15 30.3 26.6 30.65 27.0 31.5 26.85 33.8 26.4 34.45 23.3 35.15 20.15 34.85 18.75 L34.05 17.05 Q33.3 15.75 33.3 13.85 33.3 11.35 35.2 10.7 L34.55 11.9 Q34.05 13.35 35.05 14.55 36.25 16.0 36.6 19.3 37.0 22.55 36.35 25.75 36.2 26.75 35.55 27.75 34.2 29.8 31.6 29.85 L26.8 29.45 Q24.2 28.85 20.9 27.05 L24.6 26.2 Q28.9 24.55 31.85 20.4 L31.8 22.15" fill="url(#gradient5)" fill-rule="evenodd" stroke="none"/>
      <path d="M34.0 11.75 Q32.95 13.3 33.55 15.65 33.15 14.45 33.15 13.25 33.15 10.85 35.2 10.7 34.55 11.0 34.0 11.75" fill="#ebc7be" fill-rule="evenodd" stroke="none"/>
      <path d="M35.2 19.1 Q35.65 20.3 35.35 22.1 34.5 27.5 31.0 27.5 30.1 27.55 30.1 26.25 L30.65 26.65 Q31.4 26.95 32.5 26.15 33.8 25.2 34.5 22.9 35.15 20.55 34.75 18.25 L35.2 19.1" fill="#d68d7c" fill-rule="evenodd" stroke="none"/>
      <path d="M36.75 22.6 L36.5 18.3 36.9 22.1 Q36.95 26.35 35.05 28.6 33.1 30.9 26.85 29.65 22.65 28.8 19.9 27.5 L21.15 27.0 25.9 28.8 Q31.2 30.3 33.8 28.75 36.45 27.2 36.75 22.6" fill="#261e00" fill-rule="evenodd" stroke="none"/>
    </g>
    <linearGradient gradientTransform="matrix(-4.0E-4, 0.0071, -0.0071, -4.0E-4, 35.95, 11.45)" gradientUnits="userSpaceOnUse" id="gradient3" spreadMethod="pad" x1="-819.2" x2="819.2">
      <stop offset="0.011764705882352941" stop-color="#ff8266"/>
      <stop offset="0.9764705882352941" stop-color="#591600"/>
    </linearGradient>
    <linearGradient gradientTransform="matrix(-4.0E-4, 0.0071, -0.0071, -4.0E-4, 35.95, 11.45)" gradientUnits="userSpaceOnUse" id="gradient4" spreadMethod="pad" x1="-819.2" x2="819.2">
      <stop offset="0.011764705882352941" stop-color="#ff3800"/>
      <stop offset="0.9764705882352941" stop-color="#591600"/>
    </linearGradient>
    <linearGradient gradientTransform="matrix(-5.0E-4, 0.0095, -0.0095, -5.0E-4, 28.85, 24.2)" gradientUnits="userSpaceOnUse" id="gradient5" spreadMethod="pad" x1="-819.2" x2="819.2">
      <stop offset="0.011764705882352941" stop-color="#ff8266"/>
      <stop offset="0.9764705882352941" stop-color="#591600"/>
    </linearGradient>
    <g id="shape4" transform="matrix(1.0, 0.0, 0.0, 1.0, -0.25, -1.15)">
      <path d="M3.35 5.3 Q3.6 3.25 3.3 2.0 L3.0 1.15 3.05 2.65 Q2.95 4.4 2.25 5.35 0.1 8.25 0.7 13.9 L1.15 14.75 Q1.85 15.55 3.05 15.55 L3.85 14.15 2.65 13.85 Q1.4 13.3 1.35 12.05 1.3 11.1 2.2 9.15 3.15 7.0 3.35 5.3" fill="url(#gradient6)" fill-rule="evenodd" stroke="none"/>
      <path d="M3.35 5.3 Q3.6 3.25 3.3 2.0 L3.0 1.15 3.05 2.65 Q2.95 4.4 2.25 5.35 0.1 8.25 0.7 13.9 L1.15 14.75 Q1.85 15.55 3.05 15.55 L3.85 14.15 2.65 13.85 Q1.4 13.3 1.35 12.05 1.3 11.1 2.2 9.15 3.15 7.0 3.35 5.3" fill="url(#gradient7)" fill-rule="evenodd" stroke="none"/>
      <path d="M0.9 9.0 Q1.4 6.6 2.25 5.35 2.9 4.4 3.0 2.65 L3.0 1.5 Q2.95 2.85 2.2 4.3 1.0 6.6 0.65 7.85 0.05 9.9 0.3 12.0 L0.7 13.65 Q0.35 11.65 0.9 9.0" fill="#ffd6cc" fill-rule="evenodd" stroke="none"/>
      <path d="M6.4 22.15 Q6.65 24.15 7.7 25.45 8.3 26.15 7.9 26.6 7.55 27.0 6.7 26.85 4.4 26.4 3.75 23.3 3.05 20.15 3.35 18.75 L4.15 17.05 Q4.9 15.75 4.9 13.85 4.9 11.35 3.0 10.7 L3.65 11.9 Q4.15 13.35 3.15 14.55 1.95 16.0 1.6 19.3 1.2 22.55 1.85 25.75 2.0 26.75 2.65 27.75 4.0 29.8 6.6 29.85 L11.4 29.45 Q14.0 28.85 17.3 27.05 L13.6 26.2 Q9.3 24.55 6.35 20.4 L6.4 22.15" fill="url(#gradient8)" fill-rule="evenodd" stroke="none"/>
      <path d="M4.2 11.75 Q5.25 13.3 4.65 15.65 5.05 14.45 5.05 13.25 5.05 10.85 3.0 10.7 L4.2 11.75" fill="#ebc7be" fill-rule="evenodd" stroke="none"/>
      <path d="M3.0 19.1 Q2.55 20.3 2.85 22.1 3.7 27.5 7.2 27.5 8.1 27.55 8.1 26.25 L7.55 26.65 Q6.8 26.95 5.7 26.15 4.4 25.2 3.7 22.9 3.05 20.55 3.45 18.25 L3.0 19.1" fill="#d68d7c" fill-rule="evenodd" stroke="none"/>
      <path d="M1.45 22.6 L1.7 18.3 1.3 22.1 Q1.25 26.35 3.15 28.6 5.1 30.9 11.35 29.65 15.55 28.8 18.3 27.5 L17.05 27.0 12.3 28.8 Q7.0 30.3 4.4 28.75 1.75 27.2 1.45 22.6" fill="#261e00" fill-rule="evenodd" stroke="none"/>
    </g>
    <linearGradient gradientTransform="matrix(4.0E-4, 0.0071, 0.0071, -4.0E-4, 2.25, 11.45)" gradientUnits="userSpaceOnUse" id="gradient6" spreadMethod="pad" x1="-819.2" x2="819.2">
      <stop offset="0.011764705882352941" stop-color="#ff8266"/>
      <stop offset="0.9764705882352941" stop-color="#591600"/>
    </linearGradient>
    <linearGradient gradientTransform="matrix(4.0E-4, 0.0071, 0.0071, -4.0E-4, 2.25, 11.45)" gradientUnits="userSpaceOnUse" id="gradient7" spreadMethod="pad" x1="-819.2" x2="819.2">
      <stop offset="0.011764705882352941" stop-color="#ff3800"/>
      <stop offset="0.9764705882352941" stop-color="#591600"/>
    </linearGradient>
    <linearGradient gradientTransform="matrix(5.0E-4, 0.0095, 0.0095, -5.0E-4, 9.35, 24.2)" gradientUnits="userSpaceOnUse" id="gradient8" spreadMethod="pad" x1="-819.2" x2="819.2">
      <stop offset="0.011764705882352941" stop-color="#ff8266"/>
      <stop offset="0.9764705882352941" stop-color="#591600"/>
    </linearGradient>
    <g id="shape5" transform="matrix(1.0, 0.0, 0.0, 1.0, -6.7, -9.1)">
      <path d="M24.5 10.4 L24.25 10.75 22.9 9.75 Q23.35 9.3 23.8 9.3 24.6 9.3 24.6 9.95 L24.5 10.4 M24.0 11.7 Q23.3 11.65 22.85 12.75 22.65 13.15 22.6 13.65 22.6 13.05 22.2 12.5 21.75 11.85 21.1 11.85 20.45 11.85 20.0 12.5 19.55 13.05 19.55 13.7 L19.75 14.6 20.2 15.45 20.1 15.5 Q19.3 15.9 19.3 16.4 L19.4 16.75 Q17.9 15.45 17.4 15.15 L15.0 14.75 14.7 14.8 Q15.9 12.4 16.65 11.2 18.0 9.1 20.1 9.1 21.2 9.1 22.4 9.85 L24.0 11.4 24.0 11.7 M22.75 18.55 Q23.35 17.1 25.55 14.9 27.05 13.25 29.4 13.25 30.55 13.25 32.35 14.35 34.25 15.5 34.25 16.4 L34.0 17.1 33.8 18.05 Q33.8 19.4 34.9 19.4 L35.6 19.2 Q36.2 19.2 36.6 20.75 L37.3 23.15 Q38.1 24.45 38.3 25.2 38.6 26.3 38.45 27.65 L37.85 29.05 37.8 29.0 Q37.0 27.4 34.2 25.35 33.35 24.65 31.5 24.05 L29.55 23.0 29.5 22.95 28.4 21.75 29.4 21.95 Q28.95 22.75 31.25 23.0 31.25 22.4 32.55 21.4 33.15 20.95 33.15 19.45 L33.05 18.65 32.15 17.3 Q31.3 16.3 30.5 16.3 29.1 16.3 28.35 18.3 L28.35 18.35 28.45 18.3 Q28.25 18.5 28.15 19.0 L27.85 19.3 Q27.4 19.9 27.0 19.95 L25.45 18.8 23.3 18.5 22.75 18.55 M23.75 15.6 Q23.2 15.6 23.2 14.15 23.2 12.4 24.25 12.4 25.4 12.4 25.5 14.35 25.05 14.25 24.45 14.95 L23.75 15.6 M22.1 14.35 L21.95 14.75 21.7 15.0 21.4 14.75 21.3 14.35 21.4 13.85 21.7 13.65 21.95 13.85 22.1 14.35 M20.85 19.55 L20.85 19.75 Q18.9 18.3 18.05 18.3 17.55 18.3 17.2 18.65 16.7 19.1 16.7 19.85 16.7 20.2 17.2 20.95 L18.2 22.35 16.8 27.8 15.25 30.2 Q14.35 31.4 14.35 32.8 14.35 34.35 15.8 37.7 12.5 36.45 10.4 33.95 7.1 31.8 6.8 25.6 L6.7 25.1 6.95 23.85 7.35 22.4 Q7.35 21.4 8.45 21.6 9.55 21.7 9.55 20.6 9.55 19.85 9.1 19.15 L8.65 18.45 Q8.65 17.8 9.8 17.2 L11.7 16.15 Q12.6 15.6 14.5 15.35 16.25 15.15 18.05 16.45 19.9 17.8 20.85 19.55 M21.75 15.85 L22.05 16.15 22.25 16.7 Q22.25 17.25 21.35 18.5 20.65 18.35 20.25 17.15 19.9 15.85 21.75 15.85 M33.9 25.8 Q36.95 27.85 37.25 29.75 29.75 42.05 17.35 38.0 L16.0 34.95 Q15.25 33.1 15.25 32.55 15.25 31.4 16.2 30.3 17.15 29.25 17.15 28.7 17.15 27.0 18.65 27.0 L19.4 27.1 19.75 25.05 19.45 23.8 Q19.05 23.15 18.75 23.2 L19.2 21.9 19.4 21.6 Q20.0 20.6 21.15 19.9 22.45 19.05 23.85 19.05 25.5 19.05 27.35 21.15 L29.55 23.55 Q32.0 24.55 33.9 25.8 M28.9 18.95 Q30.0 18.95 30.0 20.05 30.0 20.6 29.6 21.05 29.25 21.5 28.7 21.5 L28.0 21.2 Q27.7 20.95 27.4 21.05 27.2 20.5 27.75 19.7 28.3 18.95 28.9 18.95 M31.2 13.25 Q31.6 12.2 32.3 12.2 32.65 12.2 33.1 12.75 33.6 13.3 33.6 14.0 L33.45 14.55 31.2 13.25 M35.0 17.45 L35.3 17.65 35.4 18.25 35.3 18.8 35.0 19.0 34.75 18.8 34.6 18.25 Q34.6 17.9 34.75 17.65 34.85 17.45 35.0 17.45 M34.5 20.45 L35.25 21.0 35.4 20.7 35.3 19.9 34.5 20.45 M32.55 18.75 L32.65 19.4 32.55 20.0 32.25 20.25 32.0 20.0 31.85 19.4 Q31.85 19.0 32.0 18.75 L32.25 18.5 Q32.4 18.5 32.55 18.75 M35.9 23.45 Q35.55 23.55 35.55 23.95 35.55 24.45 35.95 24.45 36.15 24.45 36.15 24.15 L35.9 23.45 M10.95 16.0 L10.05 16.35 9.75 15.0 Q9.75 13.5 10.35 13.5 L11.1 14.25 11.85 15.6 10.95 16.0 M15.1 10.75 Q14.75 10.25 14.75 9.95 14.75 9.65 15.05 9.45 15.3 9.15 15.7 9.15 L16.35 9.4 16.95 9.85 16.25 10.85 15.65 11.25 15.1 10.75 M9.05 21.15 L8.75 21.4 8.5 21.15 8.4 20.55 8.5 19.9 8.75 19.65 9.05 19.9 9.15 20.55 9.05 21.15 M9.0 23.85 L9.85 23.2 Q9.8 22.6 9.2 22.4 L8.3 22.3 Q8.35 23.55 9.0 23.85 M12.6 21.9 L12.5 22.5 12.25 22.8 11.95 22.5 11.85 21.9 11.95 21.25 12.25 21.05 12.5 21.25 12.6 21.9 M11.65 19.65 Q11.05 20.6 11.05 21.8 11.05 22.35 12.05 24.05 13.1 25.8 13.5 25.8 15.3 25.8 15.3 22.85 15.3 21.1 14.55 20.15 13.8 19.15 12.35 19.15 12.2 19.15 11.85 19.45 L11.65 19.65 M18.8 19.2 L19.35 19.45 19.85 19.85 19.85 19.95 19.75 20.4 18.6 21.7 17.95 21.2 17.7 20.3 Q17.7 19.2 18.8 19.2 M19.05 25.75 L18.95 26.35 18.65 26.65 18.4 26.35 18.3 25.75 18.4 25.1 18.65 24.9 18.95 25.1 19.05 25.75 M18.85 29.0 L19.15 28.35 18.2 28.0 Q18.0 28.0 17.5 28.5 L17.85 29.25 18.6 29.65 18.85 29.0 M17.85 33.7 L17.9 34.2 18.25 34.2 18.3 33.8 18.2 33.4 17.9 33.2 17.85 33.7 M8.75 27.55 L8.55 27.05 8.1 26.6 Q8.0 27.1 8.5 28.25 L8.65 28.25 8.75 27.55 M22.35 26.5 L22.45 27.15 22.35 27.75 22.1 28.0 21.8 27.75 21.7 27.15 21.8 26.5 22.1 26.25 22.35 26.5 M21.05 25.2 Q20.25 26.6 20.25 27.4 20.25 28.45 20.75 28.65 21.6 29.0 21.9 29.5 L22.5 30.85 Q22.7 31.25 23.55 31.25 25.55 31.25 25.55 27.7 25.55 25.7 25.05 24.85 24.4 23.7 22.65 23.7 21.85 23.7 21.05 25.2" fill="#92300b" fill-rule="evenodd" stroke="none"/>
    </g>
    <g id="sprite3" transform="matrix(1.0, 0.0, 0.0, 1.0, 0.0, 0.0)">
      <use height="20.15" transform="matrix(1.0, 0.0, 0.0, 1.0, 0.0, 0.0)" width="28.2" xlink:href="#shape6"/>
    </g>
    <g id="shape6" transform="matrix(1.0, 0.0, 0.0, 1.0, 0.0, 0.0)">
      <path d="M27.65 18.45 L27.4 18.95 Q26.2 20.8 23.4 19.8 19.6 18.5 17.35 14.05 14.8 9.1 9.75 7.4 4.1 5.65 0.0 10.3 1.0 6.85 3.7 4.15 7.2 0.65 11.9 0.05 L14.8 0.05 18.4 0.65 Q21.55 1.65 24.05 4.15 28.2 8.3 28.2 14.25 28.2 16.45 27.65 18.45" fill="#ffffff" fill-opacity="0.19607843" fill-rule="evenodd" stroke="none"/>
    </g>
    <g id="sprite4" transform="matrix(1.0, 0.0, 0.0, 1.0, 0.2, 0.0)">
      <use height="8.6" transform="matrix(1.0, 0.0, 0.0, 1.0, -0.2, 0.0)" width="35.05" xlink:href="#shape7"/>
    </g>
    <g id="shape7" transform="matrix(1.0, 0.0, 0.0, 1.0, 0.2, 0.0)">
      <path d="M34.4 4.4 Q34.85 5.8 34.85 7.65 L34.85 8.6 Q34.8 6.95 34.4 5.7 33.0 1.3 27.2 1.3 L7.45 1.3 Q0.05 1.3 -0.2 8.5 L-0.2 7.65 Q-0.2 0.0 7.45 0.0 L27.2 0.0 Q33.0 0.0 34.4 4.4" fill="#e7deda" fill-rule="evenodd" stroke="none"/>
    </g>
  </defs>
</svg>
