<?xml version="1.0" encoding="UTF-8" standalone="no"?>
<svg xmlns:xlink="http://www.w3.org/1999/xlink" height="66.0px" width="66.225px" xmlns="http://www.w3.org/2000/svg">
  <g transform="matrix(1.5, 0.0, 0.0, 1.5, 0.15, 0.0)">
    <use height="37.1" transform="matrix(1.0, 0.0, 0.0, 1.0, 3.4, 4.0)" width="37.2" xlink:href="#shape0"/>
    <use height="20.15" transform="matrix(1.1594, 0.0, 0.0, 1.1594, 5.8, 5.75)" width="28.2" xlink:href="#sprite0"/>
    <use height="37.1" transform="matrix(1.0, 0.0, 0.0, 1.0, 3.4, 4.0)" width="37.2" xlink:href="#shape2"/>
    <use height="20.15" transform="matrix(1.1594, 0.0, 0.0, 1.1594, 5.8, 5.75)" width="28.2" xlink:href="#sprite0"/>
    <use height="37.1" transform="matrix(1.0, 0.0, 0.0, 1.0, 3.4, 3.5)" width="37.2" xlink:href="#shape3"/>
    <use height="20.15" transform="matrix(1.1594, 0.0, 0.0, 1.1594, 5.8, 5.25)" width="28.2" xlink:href="#sprite0"/>
    <use height="44.0" transform="matrix(1.0, 0.0, 0.0, 1.0, -0.1, 0.0)" width="44.0" xlink:href="#shape4"/>
    <use height="8.6" transform="matrix(1.2125, 0.0, 0.0, 1.2125, 0.7575, 0.85)" width="35.05" xlink:href="#sprite1"/>
    <use height="40.5" transform="matrix(1.0, 0.0, 0.0, 1.0, 0.0, 3.5)" width="43.9" xlink:href="#shape6"/>
    <use height="20.15" transform="matrix(1.1594, 0.0, 0.0, 1.1594, 5.8, 5.25)" width="28.2" xlink:href="#sprite0"/>
    <use height="44.0" transform="matrix(1.0, 0.0, 0.0, 1.0, 0.05, 0.0)" width="44.0" xlink:href="#shape7"/>
    <use height="0.0" transform="matrix(1.2125, 0.0, 0.0, 1.2125, 1.15, 0.9)" width="0.0" xlink:href="#sprite2"/>
    <use height="20.15" transform="matrix(1.1548, 0.0, 0.0, 1.1548, 5.7, 5.5)" width="28.2" xlink:href="#sprite0"/>
    <use height="8.6" transform="matrix(1.2077, 0.0, 0.0, 1.2065, 1.0085, 0.9)" width="35.05" xlink:href="#sprite1"/>
  </g>
  <defs>
    <g id="shape0" transform="matrix(1.0, 0.0, 0.0, 1.0, -3.4, -4.0)">
      <path d="M3.4 22.55 Q3.4 14.85 8.85 9.45 14.3 4.0 22.05 4.0 29.75 4.0 35.2 9.45 40.6 14.9 40.6 22.55 40.6 30.25 35.2 35.7 29.75 41.1 22.05 41.1 14.3 41.1 8.85 35.7 3.4 30.25 3.4 22.55" fill="url(#gradient0)" fill-rule="evenodd" stroke="none"/>
      <path d="M21.9 11.95 L21.9 12.2 Q28.8 12.2 35.8 18.3 26.65 20.45 25.9 22.6 L31.85 22.6 Q27.05 25.4 25.95 27.9 L29.7 27.9 Q25.7 29.25 24.25 32.45 L26.75 32.45 Q23.25 33.65 21.9 36.3 L21.7 36.5 21.7 36.05 Q20.35 33.45 16.85 32.25 L19.35 32.25 Q17.9 29.1 13.9 27.75 L17.65 27.75 Q16.55 25.2 11.7 22.45 L17.7 22.45 Q16.95 20.25 7.8 18.1 14.85 11.9 21.9 11.95" fill="#664411" fill-rule="evenodd" stroke="none"/>
    </g>
    <linearGradient gradientTransform="matrix(0.0, -0.017, -0.0173, 0.0, 21.0, 27.45)" gradientUnits="userSpaceOnUse" id="gradient0" spreadMethod="pad" x1="-819.2" x2="819.2">
      <stop offset="0.011764705882352941" stop-color="#dad67d"/>
      <stop offset="1.0" stop-color="#cfa451"/>
    </linearGradient>
    <g id="sprite0" transform="matrix(1.0, 0.0, 0.0, 1.0, 0.0, 0.0)">
      <use height="20.15" transform="matrix(1.0, 0.0, 0.0, 1.0, 0.0, 0.0)" width="28.2" xlink:href="#shape1"/>
    </g>
    <g id="shape1" transform="matrix(1.0, 0.0, 0.0, 1.0, 0.0, 0.0)">
      <path d="M27.65 18.45 L27.4 18.95 Q26.2 20.8 23.4 19.8 19.6 18.5 17.35 14.05 14.8 9.1 9.75 7.4 4.1 5.65 0.0 10.3 1.0 6.85 3.7 4.15 7.2 0.65 11.9 0.05 L14.8 0.05 18.4 0.65 Q21.55 1.65 24.05 4.15 28.2 8.3 28.2 14.25 28.2 16.45 27.65 18.45" fill="#ffffff" fill-opacity="0.19607843" fill-rule="evenodd" stroke="none"/>
    </g>
    <g id="shape2" transform="matrix(1.0, 0.0, 0.0, 1.0, -3.4, -4.0)">
      <path d="M3.4 22.55 Q3.4 14.85 8.85 9.45 14.3 4.0 22.05 4.0 29.75 4.0 35.2 9.45 40.6 14.9 40.6 22.55 40.6 30.25 35.2 35.7 29.75 41.1 22.05 41.1 14.3 41.1 8.85 35.7 3.4 30.25 3.4 22.55" fill="url(#gradient1)" fill-rule="evenodd" stroke="none"/>
      <path d="M38.8 19.3 Q39.3 20.95 39.3 22.7 39.3 24.5 38.8 26.1 L34.35 22.7 34.25 22.7 34.25 22.65 34.35 22.65 38.8 19.3 M34.2 10.4 Q35.45 11.6 36.3 13.1 L30.7 13.9 31.45 8.3 Q33.0 9.15 34.2 10.4 M30.5 22.8 Q30.5 24.9 29.75 26.65 29.55 28.45 32.85 28.85 30.3 30.15 27.95 29.2 L27.75 29.45 Q25.15 32.1 21.25 32.1 17.5 32.1 14.7 29.45 12.0 26.65 12.0 22.8 12.0 19.0 14.7 16.25 17.5 13.55 21.25 13.55 25.15 13.55 27.75 16.25 30.5 19.0 30.5 22.8 M31.4 37.15 L30.6 31.5 36.25 32.3 Q35.4 33.8 34.15 35.05 L31.4 37.15 M12.25 8.3 L13.0 13.9 7.35 13.1 Q8.2 11.6 9.5 10.4 10.7 9.15 12.25 8.3 M21.9 10.25 L21.85 10.25 21.85 10.15 18.5 5.7 21.9 5.2 25.3 5.7 21.9 10.15 21.9 10.25 M18.25 18.2 Q17.9 18.4 17.9 18.8 L17.9 20.35 Q17.9 20.7 18.25 21.0 18.45 21.3 18.85 21.3 L19.55 21.0 19.85 20.35 19.85 18.8 19.55 18.2 Q19.2 17.85 18.85 17.85 18.45 17.85 18.25 18.2 M14.45 18.1 Q14.1 18.1 13.75 18.4 13.5 18.65 13.5 19.05 L13.5 20.35 13.75 21.0 14.45 21.3 Q14.85 21.3 15.1 21.0 L15.4 20.35 15.4 19.05 Q15.4 18.65 15.1 18.4 14.85 18.1 14.45 18.1 M13.25 24.55 Q13.1 24.8 13.35 25.2 L13.9 25.7 14.6 25.65 Q16.75 24.65 20.25 25.7 L20.95 25.7 21.4 25.1 21.35 24.4 20.8 23.95 Q16.45 22.55 13.75 23.95 L13.25 24.55 M9.3 22.65 L9.35 22.65 9.35 22.7 9.3 22.7 4.85 26.1 Q4.35 24.5 4.35 22.7 4.35 20.95 4.85 19.3 L9.3 22.65 M13.05 31.5 L12.25 37.15 Q10.75 36.3 9.5 35.05 8.3 33.8 7.4 32.3 L13.05 31.5 M21.9 35.2 L25.3 39.65 21.9 40.15 18.5 39.65 21.85 35.2 21.85 35.15 21.9 35.15 21.9 35.2" fill="#664411" fill-rule="evenodd" stroke="none"/>
    </g>
    <linearGradient gradientTransform="matrix(0.0, -0.017, -0.0173, 0.0, 21.0, 27.45)" gradientUnits="userSpaceOnUse" id="gradient1" spreadMethod="pad" x1="-819.2" x2="819.2">
      <stop offset="0.011764705882352941" stop-color="#dad67d"/>
      <stop offset="1.0" stop-color="#cfa451"/>
    </linearGradient>
    <g id="shape3" transform="matrix(1.0, 0.0, 0.0, 1.0, -3.4, -3.5)">
      <path d="M3.4 22.05 Q3.4 14.35 8.85 8.95 14.3 3.5 22.05 3.5 29.75 3.5 35.2 8.95 40.6 14.4 40.6 22.05 40.6 29.75 35.2 35.2 29.75 40.6 22.05 40.6 14.3 40.6 8.85 35.2 3.4 29.75 3.4 22.05" fill="url(#gradient2)" fill-rule="evenodd" stroke="none"/>
      <path d="M21.9 11.45 L21.9 11.7 Q28.8 11.7 35.8 17.8 26.65 19.95 25.9 22.1 L31.85 22.1 Q27.05 24.9 25.95 27.4 L29.7 27.4 Q25.7 28.75 24.25 31.95 L26.75 31.95 Q23.25 33.15 21.9 35.8 L21.7 36.0 21.7 35.55 Q20.35 32.95 16.85 31.75 L19.35 31.75 Q17.9 28.6 13.9 27.25 L17.65 27.25 Q16.55 24.7 11.7 21.95 L17.7 21.95 Q16.95 19.75 7.8 17.6 14.85 11.4 21.9 11.45" fill="#664411" fill-rule="evenodd" stroke="none"/>
    </g>
    <linearGradient gradientTransform="matrix(0.0, -0.017, -0.0173, 0.0, 21.0, 26.95)" gradientUnits="userSpaceOnUse" id="gradient2" spreadMethod="pad" x1="-819.2" x2="819.2">
      <stop offset="0.011764705882352941" stop-color="#dad67d"/>
      <stop offset="1.0" stop-color="#cfa451"/>
    </linearGradient>
    <g id="shape4" transform="matrix(1.0, 0.0, 0.0, 1.0, 0.1, 0.0)">
      <path d="M43.9 7.6 L43.9 36.4 Q43.9 39.6 41.7 41.8 39.5 44.0 36.3 44.0 L7.5 44.0 Q4.35 44.0 2.15 41.8 -0.1 39.6 -0.1 36.4 L-0.1 7.6 Q-0.1 4.5 2.15 2.3 4.35 0.0 7.5 0.0 L36.3 0.0 Q39.45 0.0 41.7 2.3 43.9 4.5 43.9 7.6 M40.8 22.05 Q40.8 14.1 35.15 8.6 29.65 3.05 21.75 3.05 13.8 3.05 8.3 8.6 2.75 14.1 2.75 22.05 2.75 29.95 8.3 35.45 13.8 41.1 21.75 41.1 29.65 41.1 35.15 35.45 40.8 29.95 40.8 22.05" fill="url(#gradient3)" fill-rule="evenodd" stroke="none"/>
      <path d="M40.8 22.05 Q40.8 29.95 35.15 35.45 29.65 41.1 21.75 41.1 13.8 41.1 8.3 35.45 2.75 29.95 2.75 22.05 2.75 14.1 8.3 8.6 13.8 3.05 21.75 3.05 29.65 3.05 35.15 8.6 40.8 14.1 40.8 22.05 M33.6 10.35 Q28.65 5.45 21.75 5.4 14.85 5.45 10.0 10.35 5.15 15.15 5.05 22.05 5.15 29.0 10.0 33.85 14.85 38.75 21.75 38.75 28.65 38.75 33.6 33.85 38.4 29.0 38.4 22.05 38.4 15.15 33.6 10.35" fill="url(#gradient4)" fill-rule="evenodd" stroke="none"/>
    </g>
    <linearGradient gradientTransform="matrix(0.0, -0.0258, -0.0551, 0.0, 21.75, 21.85)" gradientUnits="userSpaceOnUse" id="gradient3" spreadMethod="pad" x1="-819.2" x2="819.2">
      <stop offset="0.011764705882352941" stop-color="#c79829"/>
      <stop offset="1.0" stop-color="#be7d1e"/>
    </linearGradient>
    <linearGradient gradientTransform="matrix(1.0E-4, 0.0223, -0.0232, 1.0E-4, 21.8, 22.3)" gradientUnits="userSpaceOnUse" id="gradient4" spreadMethod="pad" x1="-819.2" x2="819.2">
      <stop offset="0.011764705882352941" stop-color="#8d5910"/>
      <stop offset="1.0" stop-color="#d9d597"/>
    </linearGradient>
    <g id="sprite1" transform="matrix(1.0, 0.0, 0.0, 1.0, 0.2, 0.0)">
      <use height="8.6" transform="matrix(1.0, 0.0, 0.0, 1.0, -0.2, 0.0)" width="35.05" xlink:href="#shape5"/>
    </g>
    <g id="shape5" transform="matrix(1.0, 0.0, 0.0, 1.0, 0.2, 0.0)">
      <path d="M34.4 4.4 Q34.85 5.8 34.85 7.65 L34.85 8.6 Q34.8 6.95 34.4 5.7 33.0 1.3 27.2 1.3 L7.45 1.3 Q0.05 1.3 -0.2 8.5 L-0.2 7.65 Q-0.2 0.0 7.45 0.0 L27.2 0.0 Q33.0 0.0 34.4 4.4" fill="#e7deda" fill-rule="evenodd" stroke="none"/>
    </g>
    <g id="shape6" transform="matrix(1.0, 0.0, 0.0, 1.0, 0.0, -3.5)">
      <path d="M38.8 27.95 L39.3 26.8 Q39.45 26.45 39.7 26.25 L40.4 26.05 41.0 26.25 41.5 26.85 41.9 27.95 43.05 27.95 43.75 28.2 43.9 28.35 43.9 29.9 43.7 30.1 42.8 30.75 43.2 32.05 43.2 32.75 42.75 33.35 42.05 33.5 41.45 33.3 41.2 33.1 41.15 35.65 43.5 36.65 43.9 36.85 43.55 38.8 43.4 38.85 40.85 39.5 40.6 42.45 40.5 42.75 39.2 43.5 39.0 43.4 38.45 42.95 36.95 40.4 34.2 41.15 33.85 41.15 32.95 41.8 33.35 43.15 33.35 43.85 33.25 44.0 31.1 44.0 30.55 43.6 29.9 44.0 27.7 44.0 27.65 43.75 Q27.5 43.4 27.65 43.05 L28.05 41.8 27.1 41.15 26.7 40.6 26.7 39.85 27.1 39.25 Q27.4 39.0 27.8 39.0 L28.95 39.0 29.45 37.85 29.85 37.35 30.55 37.1 31.15 37.35 31.65 37.9 32.05 39.0 33.2 39.0 34.8 37.05 33.55 34.85 33.35 34.15 33.65 33.45 Q33.9 33.15 34.25 33.1 L34.95 33.15 37.3 34.15 38.0 33.4 37.9 33.3 37.5 32.7 Q37.35 32.35 37.5 32.0 L37.9 30.75 36.95 30.1 36.55 29.5 36.55 28.75 36.95 28.2 Q37.25 27.95 37.65 27.95 L38.8 27.95 M30.65 38.65 L30.35 38.65 29.8 40.2 28.15 40.2 28.1 40.4 29.45 41.35 28.85 43.05 29.0 43.2 30.55 42.15 31.9 43.2 32.15 43.05 31.65 41.35 32.8 40.45 32.75 40.2 31.2 40.2 30.65 38.65 M37.65 35.5 L34.55 34.2 36.25 37.15 33.9 40.0 37.55 39.05 39.45 42.3 39.75 38.55 43.1 37.7 40.0 36.4 40.05 33.0 37.65 35.5 M39.65 29.1 L38.0 29.1 37.95 29.35 39.3 30.25 38.7 32.0 38.9 32.1 40.4 31.05 41.8 32.1 42.0 32.0 41.5 30.25 42.75 29.35 42.65 29.1 41.1 29.1 40.5 27.6 40.2 27.6 39.65 29.1" fill="url(#gradient5)" fill-rule="evenodd" stroke="none"/>
      <path d="M38.55 29.75 L37.65 29.1 39.65 29.1 40.4 27.2 41.1 29.1 43.05 29.1 42.2 29.75 41.1 29.75 40.4 27.85 39.65 29.75 38.55 29.75 M41.5 30.25 L42.1 32.35 41.85 32.2 41.5 30.9 41.5 30.25 M38.9 32.2 L38.6 32.35 39.3 30.25 39.3 30.9 38.9 32.2 M40.0 36.4 L43.1 37.7 42.1 37.95 40.0 37.05 40.0 36.4 M34.55 39.85 L33.9 40.0 36.25 37.15 36.25 37.8 34.55 39.85 M35.0 35.05 L34.55 34.2 37.65 35.5 40.05 33.0 40.05 33.6 37.65 36.1 35.0 35.05 M28.65 40.8 L27.8 40.2 29.8 40.2 30.55 38.25 31.2 40.2 33.2 40.2 32.35 40.8 31.2 40.8 30.55 38.9 29.8 40.8 28.65 40.8 M31.65 41.35 L32.25 43.4 32.0 43.25 31.65 41.95 31.65 41.35 M29.0 43.25 L28.75 43.4 29.45 41.35 29.45 41.95 29.0 43.25" fill="#674512" fill-rule="evenodd" stroke="none"/>
      <path d="M42.2 29.75 L41.5 30.25 41.5 30.9 41.85 32.2 40.4 31.05 38.9 32.2 39.3 30.9 39.3 30.25 38.55 29.75 39.65 29.75 40.4 27.85 41.1 29.75 42.2 29.75 M40.0 36.4 L40.0 37.05 42.1 37.95 39.75 38.55 39.45 42.3 37.55 39.05 34.55 39.85 36.25 37.8 36.25 37.15 35.0 35.05 37.65 36.1 40.05 33.6 40.0 36.4 M32.35 40.8 L31.65 41.35 31.65 41.95 32.0 43.25 30.55 42.15 29.0 43.25 29.45 41.95 29.45 41.35 28.65 40.8 29.8 40.8 30.55 38.9 31.2 40.8 32.35 40.8" fill="#815815" fill-rule="evenodd" stroke="none"/>
      <path d="M5.1 27.95 L4.6 26.8 4.2 26.25 3.5 26.05 2.9 26.25 2.4 26.85 2.0 27.95 0.85 27.95 Q0.45 27.95 0.15 28.2 L0.0 28.35 0.0 29.9 0.2 30.1 1.1 30.75 0.7 32.05 Q0.55 32.4 0.7 32.75 L1.15 33.35 1.85 33.5 2.45 33.3 2.7 33.1 2.75 35.65 0.4 36.65 Q0.15 36.7 0.0 36.85 L0.35 38.8 0.5 38.85 3.05 39.5 3.3 42.45 3.4 42.75 4.7 43.5 4.9 43.4 5.45 42.95 6.95 40.4 9.7 41.15 10.05 41.15 10.95 41.8 10.55 43.15 Q10.4 43.5 10.55 43.85 L10.65 44.0 12.8 44.0 13.35 43.6 14.0 44.0 16.2 44.0 16.25 43.75 16.25 43.05 15.85 41.8 16.8 41.15 17.2 40.6 17.2 39.85 16.8 39.25 Q16.5 39.0 16.1 39.0 L14.95 39.0 14.45 37.85 14.05 37.35 Q13.7 37.1 13.35 37.1 13.0 37.1 12.75 37.35 L12.25 37.9 11.85 39.0 10.7 39.0 9.1 37.05 10.35 34.85 10.55 34.15 10.25 33.45 Q10.0 33.15 9.65 33.1 L8.95 33.15 6.6 34.15 5.9 33.4 6.0 33.3 6.4 32.7 6.4 32.0 6.0 30.75 6.95 30.1 7.35 29.5 7.35 28.75 6.95 28.2 6.25 27.95 5.1 27.95 M13.25 38.65 L13.55 38.65 14.1 40.2 15.75 40.2 15.8 40.4 14.45 41.35 15.05 43.05 14.9 43.2 13.35 42.15 12.0 43.2 11.75 43.05 12.25 41.35 11.1 40.45 11.15 40.2 12.7 40.2 13.25 38.65 M6.25 35.5 L9.35 34.2 7.65 37.15 10.0 40.0 6.35 39.05 4.45 42.3 4.15 38.55 0.8 37.7 3.9 36.4 3.85 33.0 6.25 35.5 M4.25 29.1 L5.9 29.1 5.95 29.35 4.6 30.25 5.2 32.0 5.0 32.1 3.5 31.05 2.1 32.1 1.9 32.0 2.4 30.25 1.15 29.35 1.25 29.1 2.8 29.1 3.4 27.6 3.7 27.6 4.25 29.1" fill="url(#gradient6)" fill-rule="evenodd" stroke="none"/>
      <path d="M5.35 29.75 L6.25 29.1 4.25 29.1 3.5 27.2 2.8 29.1 0.85 29.1 1.7 29.75 2.8 29.75 3.5 27.85 4.25 29.75 5.35 29.75 M2.4 30.25 L1.8 32.35 2.05 32.2 2.4 30.9 2.4 30.25 M5.0 32.2 L5.3 32.35 4.6 30.25 4.6 30.9 5.0 32.2 M3.9 36.4 L0.8 37.7 1.8 37.95 3.9 37.05 3.9 36.4 M9.35 39.85 L10.0 40.0 7.65 37.15 7.65 37.8 9.35 39.85 M8.9 35.05 L9.35 34.2 6.25 35.5 3.85 33.0 3.85 33.6 6.25 36.1 8.9 35.05 M11.9 43.25 L12.25 41.95 12.25 41.35 11.65 43.4 11.9 43.25 M11.55 40.8 L12.7 40.8 13.35 38.9 14.1 40.8 15.25 40.8 16.1 40.2 14.1 40.2 13.35 38.25 12.7 40.2 10.7 40.2 11.55 40.8 M14.45 41.35 L14.45 41.95 14.9 43.25 15.15 43.4 14.45 41.35" fill="#674512" fill-rule="evenodd" stroke="none"/>
      <path d="M1.7 29.75 L2.4 30.25 2.4 30.9 2.05 32.2 Q2.75 31.65 3.5 31.05 L5.0 32.2 4.6 30.9 4.6 30.25 5.35 29.75 4.25 29.75 3.5 27.85 2.8 29.75 1.7 29.75 M3.9 36.4 L3.9 37.05 1.8 37.95 4.15 38.55 4.45 42.3 6.35 39.05 9.35 39.85 7.65 37.8 7.65 37.15 8.9 35.05 6.25 36.1 3.85 33.6 3.9 36.4 M12.25 41.35 L12.25 41.95 11.9 43.25 13.35 42.15 14.9 43.25 14.45 41.95 14.45 41.35 15.25 40.8 14.1 40.8 13.35 38.9 12.7 40.8 11.55 40.8 12.25 41.35" fill="#815815" fill-rule="evenodd" stroke="none"/>
      <path d="M3.4 22.05 Q3.4 14.35 8.85 8.95 14.3 3.5 22.05 3.5 29.75 3.5 35.2 8.95 40.6 14.4 40.6 22.05 40.6 29.75 35.2 35.2 29.75 40.6 22.05 40.6 14.3 40.6 8.85 35.2 3.4 29.75 3.4 22.05" fill="url(#gradient7)" fill-rule="evenodd" stroke="none"/>
      <path d="M25.6 7.65 L24.9 10.9 25.95 10.9 23.95 14.3 25.6 14.4 23.05 19.5 22.75 28.5 25.15 27.6 25.2 27.6 21.55 36.75 18.6 27.75 21.0 28.45 21.25 19.55 19.0 15.15 20.8 14.9 19.0 11.65 20.45 11.2 19.35 7.75 22.4 10.5 25.6 7.65 M26.0 22.4 Q26.75 21.05 28.15 20.5 32.95 18.9 34.75 23.05 35.5 25.0 34.85 27.05 33.15 31.4 28.6 33.4 32.35 30.75 33.65 26.45 34.3 24.05 32.3 22.85 28.9 20.85 27.75 23.7 27.25 24.8 27.95 25.95 28.5 27.1 31.05 26.2 29.3 26.25 28.9 25.45 28.35 24.9 28.9 24.2 30.4 22.8 31.55 23.9 32.75 24.95 32.35 26.35 32.0 27.95 29.4 27.95 26.75 28.0 25.8 26.0 24.95 24.1 26.0 22.4 M17.5 22.4 Q18.55 24.1 17.7 26.0 16.75 28.0 14.1 27.95 11.5 27.95 11.15 26.35 10.75 24.95 11.95 23.9 13.1 22.8 14.6 24.2 15.15 24.9 14.6 25.45 14.2 26.25 12.45 26.2 15.0 27.1 15.55 25.95 16.25 24.8 15.75 23.7 14.6 20.85 11.2 22.85 9.2 24.05 9.85 26.45 11.15 30.75 14.9 33.4 10.35 31.4 8.65 27.05 8.0 25.0 8.75 23.05 10.55 18.9 15.35 20.5 16.75 21.05 17.5 22.4" fill="#664411" fill-rule="evenodd" stroke="none"/>
    </g>
    <linearGradient gradientTransform="matrix(0.0, -0.0257, -0.0551, 0.0, 21.75, 21.75)" gradientUnits="userSpaceOnUse" id="gradient5" spreadMethod="pad" x1="-819.2" x2="819.2">
      <stop offset="0.011764705882352941" stop-color="#c79829"/>
      <stop offset="1.0" stop-color="#be7d1e"/>
    </linearGradient>
    <linearGradient gradientTransform="matrix(0.0, -0.0257, 0.0551, 0.0, 22.1, 21.75)" gradientUnits="userSpaceOnUse" id="gradient6" spreadMethod="pad" x1="-819.2" x2="819.2">
      <stop offset="0.011764705882352941" stop-color="#c79829"/>
      <stop offset="1.0" stop-color="#be7d1e"/>
    </linearGradient>
    <linearGradient gradientTransform="matrix(0.0, -0.017, -0.0173, 0.0, 21.0, 26.95)" gradientUnits="userSpaceOnUse" id="gradient7" spreadMethod="pad" x1="-819.2" x2="819.2">
      <stop offset="0.011764705882352941" stop-color="#dad67d"/>
      <stop offset="1.0" stop-color="#cfa451"/>
    </linearGradient>
    <g id="shape7" transform="matrix(1.0, 0.0, 0.0, 1.0, -0.05, 0.0)">
      <path d="M7.65 0.0 L36.45 0.0 Q39.6 0.0 41.85 2.25 44.05 4.45 44.05 7.6 L44.05 36.4 Q44.05 39.6 41.85 41.8 39.65 44.0 36.45 44.0 L7.65 44.0 Q4.5 44.0 2.3 41.8 0.05 39.6 0.05 36.4 L0.05 7.6 Q0.05 4.45 2.3 2.25 4.5 0.0 7.65 0.0" fill="url(#gradient8)" fill-rule="evenodd" stroke="none"/>
      <path d="M34.95 8.8 Q40.15 14.05 40.15 21.4 40.15 28.8 34.95 34.1 29.75 39.3 22.35 39.3 14.9 39.3 9.7 34.1 4.5 28.8 4.5 21.4 4.5 14.05 9.7 8.8 15.0 3.55 22.35 3.55 29.75 3.55 34.95 8.8" fill="url(#gradient9)" fill-rule="evenodd" stroke="none"/>
      <path d="M40.9 22.05 Q40.9 29.9 35.3 35.45 29.8 41.1 21.9 41.1 13.95 41.1 8.45 35.45 2.9 29.9 2.9 22.05 2.9 14.1 8.45 8.6 13.95 3.0 21.9 3.0 29.8 3.0 35.3 8.6 40.9 14.1 40.9 22.05 M21.9 5.4 Q15.0 5.45 10.15 10.35 5.25 15.15 5.2 22.05 5.25 29.0 10.15 33.85 15.0 38.75 21.9 38.75 28.8 38.75 33.75 33.85 38.55 29.0 38.55 22.05 38.55 15.15 33.75 10.35 28.8 5.45 21.9 5.4" fill="url(#gradient10)" fill-rule="evenodd" stroke="none"/>
      <path d="M1.0 36.05 L0.95 35.65 Q0.95 34.7 1.65 34.0 2.35 33.3 3.35 33.3 4.3 33.3 5.0 34.0 5.7 34.7 5.7 35.65 L5.7 36.0 Q3.15 33.15 1.0 36.05" fill="#494136" fill-rule="evenodd" stroke="none"/>
      <path d="M5.7 36.0 Q5.6 36.75 5.0 37.3 4.3 38.05 3.35 38.05 2.35 38.05 1.65 37.3 1.1 36.75 1.0 36.05 3.15 33.15 5.7 36.0" fill="#625748" fill-rule="evenodd" stroke="none"/>
      <path d="M6.05 37.9 L6.0 37.65 Q6.0 37.1 6.4 36.65 6.85 36.25 7.45 36.25 L8.45 36.65 Q8.85 37.1 8.85 37.65 L8.85 37.85 6.05 37.9" fill="#494136" fill-rule="evenodd" stroke="none"/>
      <path d="M8.85 37.85 L8.45 38.65 Q8.0 39.1 7.45 39.1 6.85 39.1 6.4 38.65 L6.05 37.9 8.85 37.85" fill="#625748" fill-rule="evenodd" stroke="none"/>
      <path d="M3.05 40.75 L3.0 40.5 Q3.0 39.95 3.4 39.5 3.85 39.1 4.45 39.1 L5.45 39.5 Q5.85 39.95 5.85 40.5 L5.85 40.7 3.05 40.75" fill="#494136" fill-rule="evenodd" stroke="none"/>
      <path d="M5.85 40.7 L5.45 41.5 Q5.0 41.95 4.45 41.95 3.85 41.95 3.4 41.5 L3.05 40.75 5.85 40.7" fill="#625748" fill-rule="evenodd" stroke="none"/>
      <path d="M7.75 41.5 L7.7 41.35 Q7.7 40.9 8.05 40.55 8.35 40.25 8.8 40.25 9.25 40.25 9.6 40.55 L9.9 41.35 9.9 41.5 Q8.75 40.15 7.75 41.5" fill="#494136" fill-rule="evenodd" stroke="none"/>
      <path d="M9.9 41.5 L9.6 42.1 8.8 42.45 Q8.35 42.45 8.05 42.1 7.75 41.85 7.75 41.5 8.75 40.15 9.9 41.5" fill="#625748" fill-rule="evenodd" stroke="none"/>
      <path d="M26.1 10.0 L24.1 13.4 25.75 13.5 23.2 18.6 22.9 27.6 25.3 26.7 25.35 26.7 21.7 35.85 18.75 26.85 21.15 27.55 21.4 18.65 19.15 14.25 20.95 14.0 19.15 10.75 20.6 10.3 19.5 6.85 22.55 9.6 25.75 6.75 25.05 10.0 26.1 10.0 M26.15 21.5 Q26.9 20.15 28.3 19.6 33.1 18.0 34.9 22.15 35.65 24.1 35.0 26.15 33.3 30.5 28.75 32.5 32.5 29.85 33.8 25.55 34.45 23.15 32.45 21.95 29.05 19.95 27.9 22.8 27.4 23.9 28.1 25.05 28.65 26.2 31.2 25.3 29.45 25.35 29.05 24.55 28.5 24.0 29.05 23.3 30.55 21.9 31.7 23.0 32.9 24.05 32.5 25.45 32.15 27.05 29.55 27.05 26.9 27.1 25.95 25.1 25.1 23.2 26.15 21.5 M17.65 21.5 Q18.7 23.2 17.85 25.1 16.9 27.1 14.25 27.05 11.65 27.05 11.3 25.45 10.9 24.05 12.1 23.0 13.25 21.9 14.75 23.3 15.3 24.0 14.75 24.55 14.35 25.35 12.6 25.3 15.15 26.2 15.7 25.05 16.4 23.9 15.9 22.8 14.75 19.95 11.35 21.95 9.35 23.15 10.0 25.55 11.3 29.85 15.05 32.5 10.5 30.5 8.8 26.15 8.15 24.1 8.9 22.15 10.7 18.0 15.5 19.6 16.9 20.15 17.65 21.5" fill="#4a3355" fill-rule="evenodd" stroke="none"/>
      <path d="M42.4 36.05 L42.45 35.65 Q42.45 34.7 41.75 34.0 41.05 33.3 40.05 33.3 39.1 33.3 38.4 34.0 37.7 34.7 37.7 35.65 L37.7 36.0 Q40.25 33.15 42.4 36.05" fill="#494136" fill-rule="evenodd" stroke="none"/>
      <path d="M37.7 36.0 Q37.8 36.75 38.4 37.3 39.1 38.05 40.05 38.05 41.05 38.05 41.75 37.3 L42.4 36.05 Q40.25 33.15 37.7 36.0" fill="#625748" fill-rule="evenodd" stroke="none"/>
      <path d="M37.4 37.9 L37.45 37.65 Q37.45 37.1 37.05 36.65 36.6 36.25 36.0 36.25 35.45 36.25 35.0 36.65 34.6 37.1 34.6 37.65 L34.6 37.85 37.4 37.9" fill="#494136" fill-rule="evenodd" stroke="none"/>
      <path d="M34.6 37.85 Q34.65 38.35 35.0 38.65 35.45 39.1 36.0 39.1 L37.05 38.65 37.4 37.9 34.6 37.85" fill="#625748" fill-rule="evenodd" stroke="none"/>
      <path d="M40.4 40.75 L40.45 40.5 Q40.45 39.95 40.05 39.5 39.6 39.1 39.0 39.1 38.45 39.1 38.0 39.5 37.6 39.95 37.6 40.5 L37.6 40.7 40.4 40.75" fill="#494136" fill-rule="evenodd" stroke="none"/>
      <path d="M37.6 40.7 Q37.65 41.2 38.0 41.5 38.45 41.95 39.0 41.95 39.6 41.95 40.05 41.5 L40.4 40.75 37.6 40.7" fill="#625748" fill-rule="evenodd" stroke="none"/>
      <path d="M35.75 41.5 L35.8 41.35 Q35.8 40.9 35.45 40.55 35.15 40.25 34.7 40.25 34.25 40.25 33.9 40.55 33.6 40.9 33.6 41.35 L33.6 41.5 Q34.75 40.15 35.75 41.5" fill="#494136" fill-rule="evenodd" stroke="none"/>
      <path d="M33.6 41.5 L33.9 42.1 Q34.25 42.45 34.7 42.45 35.15 42.45 35.45 42.1 L35.75 41.5 Q34.75 40.15 33.6 41.5" fill="#625748" fill-rule="evenodd" stroke="none"/>
    </g>
    <linearGradient gradientTransform="matrix(0.0, -0.0551, -0.0551, 0.0, 22.1, 18.45)" gradientUnits="userSpaceOnUse" id="gradient8" spreadMethod="pad" x1="-819.2" x2="819.2">
      <stop offset="0.011764705882352941" stop-color="#bcb0a0"/>
      <stop offset="1.0" stop-color="#453e3a"/>
    </linearGradient>
    <linearGradient gradientTransform="matrix(0.0, -0.0167, -0.0167, 0.0, 22.35, 18.05)" gradientUnits="userSpaceOnUse" id="gradient9" spreadMethod="pad" x1="-819.2" x2="819.2">
      <stop offset="0.011764705882352941" stop-color="#bcb9ae"/>
      <stop offset="1.0" stop-color="#9b5b79"/>
    </linearGradient>
    <linearGradient gradientTransform="matrix(1.0E-4, 0.0223, -0.0232, 1.0E-4, 21.95, 22.3)" gradientUnits="userSpaceOnUse" id="gradient10" spreadMethod="pad" x1="-819.2" x2="819.2">
      <stop offset="0.011764705882352941" stop-color="#494136"/>
      <stop offset="1.0" stop-color="#dbccbd"/>
    </linearGradient>
  </defs>
</svg>
