<?xml version="1.0" encoding="UTF-8" standalone="no"?>
<svg xmlns:xlink="http://www.w3.org/1999/xlink" height="66.0px" width="66.525px" xmlns="http://www.w3.org/2000/svg">
  <g transform="matrix(1.5, 0.0, 0.0, 1.5, 0.45, 0.0)">
    <use height="37.1" transform="matrix(1.0, 0.0, 0.0, 1.0, 3.4, 4.0)" width="37.2" xlink:href="#shape0"/>
    <use height="20.15" transform="matrix(1.1594, 0.0, 0.0, 1.1594, 5.8, 5.75)" width="28.2" xlink:href="#sprite0"/>
    <use height="37.1" transform="matrix(1.0, 0.0, 0.0, 1.0, 3.4, 4.0)" width="37.2" xlink:href="#shape2"/>
    <use height="20.15" transform="matrix(1.1594, 0.0, 0.0, 1.1594, 5.8, 5.75)" width="28.2" xlink:href="#sprite0"/>
    <use height="37.1" transform="matrix(1.0, 0.0, 0.0, 1.0, 3.4, 3.5)" width="37.2" xlink:href="#shape3"/>
    <use height="20.15" transform="matrix(1.1594, 0.0, 0.0, 1.1594, 5.8, 5.25)" width="28.2" xlink:href="#sprite0"/>
    <use height="44.0" transform="matrix(1.0, 0.0, 0.0, 1.0, -0.3, 0.0)" width="44.0" xlink:href="#shape4"/>
    <use height="8.6" transform="matrix(1.2124, 0.0, 0.0, 1.2124, 0.6575, 0.65)" width="35.05" xlink:href="#sprite1"/>
    <use height="40.45" transform="matrix(1.0, 0.0, 0.0, 1.0, -0.05, 3.5)" width="43.9" xlink:href="#shape6"/>
    <use height="20.15" transform="matrix(1.1594, 0.0, 0.0, 1.1594, 5.8, 5.25)" width="28.2" xlink:href="#sprite0"/>
    <use height="44.0" transform="matrix(1.0, 0.0, 0.0, 1.0, 0.05, 0.0)" width="44.0" xlink:href="#shape7"/>
    <use height="0.0" transform="matrix(1.2125, 0.0, 0.0, 1.2125, 1.15, 0.9)" width="0.0" xlink:href="#sprite2"/>
    <use height="20.15" transform="matrix(1.1548, 0.0, 0.0, 1.1548, 5.7, 5.5)" width="28.2" xlink:href="#sprite0"/>
    <use height="8.6" transform="matrix(1.2077, 0.0, 0.0, 1.2065, 1.0085, 0.9)" width="35.05" xlink:href="#sprite1"/>
  </g>
  <defs>
    <g id="shape0" transform="matrix(1.0, 0.0, 0.0, 1.0, -3.4, -4.0)">
      <path d="M3.4 22.55 Q3.4 14.85 8.85 9.45 14.3 4.0 22.05 4.0 29.75 4.0 35.2 9.45 40.6 14.9 40.6 22.55 40.6 30.25 35.2 35.7 29.75 41.1 22.05 41.1 14.3 41.1 8.85 35.7 3.4 30.25 3.4 22.55" fill="url(#gradient0)" fill-rule="evenodd" stroke="none"/>
      <path d="M21.9 11.95 L21.9 12.2 Q28.8 12.2 35.8 18.3 26.65 20.45 25.9 22.6 L31.85 22.6 Q27.05 25.4 25.95 27.9 L29.7 27.9 Q25.7 29.25 24.25 32.45 L26.75 32.45 Q23.25 33.65 21.9 36.3 L21.7 36.5 21.7 36.05 Q20.35 33.45 16.85 32.25 L19.35 32.25 Q17.9 29.1 13.9 27.75 L17.65 27.75 Q16.55 25.2 11.7 22.45 L17.7 22.45 Q16.95 20.25 7.8 18.1 14.85 11.9 21.9 11.95" fill="#664411" fill-rule="evenodd" stroke="none"/>
    </g>
    <linearGradient gradientTransform="matrix(0.0, -0.017, -0.0173, 0.0, 21.0, 27.45)" gradientUnits="userSpaceOnUse" id="gradient0" spreadMethod="pad" x1="-819.2" x2="819.2">
      <stop offset="0.011764705882352941" stop-color="#dad67d"/>
      <stop offset="1.0" stop-color="#cfa451"/>
    </linearGradient>
    <g id="sprite0" transform="matrix(1.0, 0.0, 0.0, 1.0, 0.0, 0.0)">
      <use height="20.15" transform="matrix(1.0, 0.0, 0.0, 1.0, 0.0, 0.0)" width="28.2" xlink:href="#shape1"/>
    </g>
    <g id="shape1" transform="matrix(1.0, 0.0, 0.0, 1.0, 0.0, 0.0)">
      <path d="M27.65 18.45 L27.4 18.95 Q26.2 20.8 23.4 19.8 19.6 18.5 17.35 14.05 14.8 9.1 9.75 7.4 4.1 5.65 0.0 10.3 1.0 6.85 3.7 4.15 7.2 0.65 11.9 0.05 L14.8 0.05 18.4 0.65 Q21.55 1.65 24.05 4.15 28.2 8.3 28.2 14.25 28.2 16.45 27.65 18.45" fill="#ffffff" fill-opacity="0.19607843" fill-rule="evenodd" stroke="none"/>
    </g>
    <g id="shape2" transform="matrix(1.0, 0.0, 0.0, 1.0, -3.4, -4.0)">
      <path d="M3.4 22.55 Q3.4 14.85 8.85 9.45 14.3 4.0 22.05 4.0 29.75 4.0 35.2 9.45 40.6 14.9 40.6 22.55 40.6 30.25 35.2 35.7 29.75 41.1 22.05 41.1 14.3 41.1 8.85 35.7 3.4 30.25 3.4 22.55" fill="url(#gradient1)" fill-rule="evenodd" stroke="none"/>
      <path d="M38.8 19.3 Q39.3 20.95 39.3 22.7 39.3 24.5 38.8 26.1 L34.35 22.7 34.25 22.7 34.25 22.65 34.35 22.65 38.8 19.3 M34.2 10.4 Q35.45 11.6 36.3 13.1 L30.7 13.9 31.45 8.3 Q33.0 9.15 34.2 10.4 M30.5 22.8 Q30.5 24.9 29.75 26.65 29.55 28.45 32.85 28.85 30.3 30.15 27.95 29.2 L27.75 29.45 Q25.15 32.1 21.25 32.1 17.5 32.1 14.7 29.45 12.0 26.65 12.0 22.8 12.0 19.0 14.7 16.25 17.5 13.55 21.25 13.55 25.15 13.55 27.75 16.25 30.5 19.0 30.5 22.8 M31.4 37.15 L30.6 31.5 36.25 32.3 Q35.4 33.8 34.15 35.05 L31.4 37.15 M12.25 8.3 L13.0 13.9 7.35 13.1 Q8.2 11.6 9.5 10.4 10.7 9.15 12.25 8.3 M21.9 10.25 L21.85 10.25 21.85 10.15 18.5 5.7 21.9 5.2 25.3 5.7 21.9 10.15 21.9 10.25 M18.25 18.2 Q17.9 18.4 17.9 18.8 L17.9 20.35 Q17.9 20.7 18.25 21.0 18.45 21.3 18.85 21.3 L19.55 21.0 19.85 20.35 19.85 18.8 19.55 18.2 Q19.2 17.85 18.85 17.85 18.45 17.85 18.25 18.2 M14.45 18.1 Q14.1 18.1 13.75 18.4 13.5 18.65 13.5 19.05 L13.5 20.35 13.75 21.0 14.45 21.3 Q14.85 21.3 15.1 21.0 L15.4 20.35 15.4 19.05 Q15.4 18.65 15.1 18.4 14.85 18.1 14.45 18.1 M13.25 24.55 Q13.1 24.8 13.35 25.2 L13.9 25.7 14.6 25.65 Q16.75 24.65 20.25 25.7 L20.95 25.7 21.4 25.1 21.35 24.4 20.8 23.95 Q16.45 22.55 13.75 23.95 L13.25 24.55 M9.3 22.65 L9.35 22.65 9.35 22.7 9.3 22.7 4.85 26.1 Q4.35 24.5 4.35 22.7 4.35 20.95 4.85 19.3 L9.3 22.65 M13.05 31.5 L12.25 37.15 Q10.75 36.3 9.5 35.05 8.3 33.8 7.4 32.3 L13.05 31.5 M21.9 35.2 L25.3 39.65 21.9 40.15 18.5 39.65 21.85 35.2 21.85 35.15 21.9 35.15 21.9 35.2" fill="#664411" fill-rule="evenodd" stroke="none"/>
    </g>
    <linearGradient gradientTransform="matrix(0.0, -0.017, -0.0173, 0.0, 21.0, 27.45)" gradientUnits="userSpaceOnUse" id="gradient1" spreadMethod="pad" x1="-819.2" x2="819.2">
      <stop offset="0.011764705882352941" stop-color="#dad67d"/>
      <stop offset="1.0" stop-color="#cfa451"/>
    </linearGradient>
    <g id="shape3" transform="matrix(1.0, 0.0, 0.0, 1.0, -3.4, -3.5)">
      <path d="M3.4 22.05 Q3.4 14.35 8.85 8.95 14.3 3.5 22.05 3.5 29.75 3.5 35.2 8.95 40.6 14.4 40.6 22.05 40.6 29.75 35.2 35.2 29.75 40.6 22.05 40.6 14.3 40.6 8.85 35.2 3.4 29.75 3.4 22.05" fill="url(#gradient2)" fill-rule="evenodd" stroke="none"/>
      <path d="M21.9 11.45 L21.9 11.7 Q28.8 11.7 35.8 17.8 26.65 19.95 25.9 22.1 L31.85 22.1 Q27.05 24.9 25.95 27.4 L29.7 27.4 Q25.7 28.75 24.25 31.95 L26.75 31.95 Q23.25 33.15 21.9 35.8 L21.7 36.0 21.7 35.55 Q20.35 32.95 16.85 31.75 L19.35 31.75 Q17.9 28.6 13.9 27.25 L17.65 27.25 Q16.55 24.7 11.7 21.95 L17.7 21.95 Q16.95 19.75 7.8 17.6 14.85 11.4 21.9 11.45" fill="#664411" fill-rule="evenodd" stroke="none"/>
    </g>
    <linearGradient gradientTransform="matrix(0.0, -0.017, -0.0173, 0.0, 21.0, 26.95)" gradientUnits="userSpaceOnUse" id="gradient2" spreadMethod="pad" x1="-819.2" x2="819.2">
      <stop offset="0.011764705882352941" stop-color="#dad67d"/>
      <stop offset="1.0" stop-color="#cfa451"/>
    </linearGradient>
    <g id="shape4" transform="matrix(1.0, 0.0, 0.0, 1.0, 0.3, 0.0)">
      <path d="M43.7 7.6 L43.7 36.4 Q43.7 39.6 41.5 41.8 39.3 44.0 36.15 44.0 L7.3 44.0 Q4.2 44.0 2.0 41.8 -0.3 39.6 -0.3 36.4 L-0.3 7.6 Q-0.3 4.45 2.0 2.25 4.2 0.0 7.3 0.0 L36.15 0.0 Q39.25 0.0 41.5 2.25 43.7 4.45 43.7 7.6 M40.6 22.05 Q40.6 14.1 34.95 8.6 29.45 3.0 21.6 3.0 13.65 3.0 8.15 8.6 2.55 14.1 2.55 22.05 2.55 29.9 8.15 35.45 13.65 41.1 21.6 41.1 29.45 41.1 34.95 35.45 40.6 29.9 40.6 22.05" fill="url(#gradient3)" fill-rule="evenodd" stroke="none"/>
      <path d="M40.6 22.05 Q40.6 29.9 34.95 35.45 29.45 41.1 21.6 41.1 13.65 41.1 8.15 35.45 2.55 29.9 2.55 22.05 2.55 14.1 8.15 8.6 13.65 3.0 21.6 3.0 29.45 3.0 34.95 8.6 40.6 14.1 40.6 22.05 M33.4 10.35 Q28.5 5.45 21.6 5.4 14.7 5.45 9.8 10.35 4.95 15.15 4.9 22.05 4.95 29.0 9.8 33.85 14.7 38.75 21.6 38.75 28.5 38.75 33.4 33.85 38.2 29.0 38.2 22.05 38.2 15.15 33.4 10.35" fill="url(#gradient4)" fill-rule="evenodd" stroke="none"/>
    </g>
    <linearGradient gradientTransform="matrix(0.0, -0.0257, -0.0551, 0.0, 21.55, 21.85)" gradientUnits="userSpaceOnUse" id="gradient3" spreadMethod="pad" x1="-819.2" x2="819.2">
      <stop offset="0.011764705882352941" stop-color="#c79829"/>
      <stop offset="1.0" stop-color="#be7d1e"/>
    </linearGradient>
    <linearGradient gradientTransform="matrix(1.0E-4, 0.0223, -0.0232, 1.0E-4, 21.6, 22.3)" gradientUnits="userSpaceOnUse" id="gradient4" spreadMethod="pad" x1="-819.2" x2="819.2">
      <stop offset="0.011764705882352941" stop-color="#8d5910"/>
      <stop offset="1.0" stop-color="#d9d597"/>
    </linearGradient>
    <g id="sprite1" transform="matrix(1.0, 0.0, 0.0, 1.0, 0.2, 0.0)">
      <use height="8.6" transform="matrix(1.0, 0.0, 0.0, 1.0, -0.2, 0.0)" width="35.05" xlink:href="#shape5"/>
    </g>
    <g id="shape5" transform="matrix(1.0, 0.0, 0.0, 1.0, 0.2, 0.0)">
      <path d="M34.4 4.4 Q34.85 5.8 34.85 7.65 L34.85 8.6 Q34.8 6.95 34.4 5.7 33.0 1.3 27.2 1.3 L7.45 1.3 Q0.05 1.3 -0.2 8.5 L-0.2 7.65 Q-0.2 0.0 7.45 0.0 L27.2 0.0 Q33.0 0.0 34.4 4.4" fill="#e7deda" fill-rule="evenodd" stroke="none"/>
    </g>
    <g id="shape6" transform="matrix(1.0, 0.0, 0.0, 1.0, 0.05, -3.5)">
      <path d="M38.75 27.9 L39.25 26.75 39.65 26.2 40.35 26.0 41.0 26.2 41.45 26.8 41.85 27.9 43.0 27.9 43.7 28.15 43.85 28.3 43.85 29.85 43.65 30.05 42.75 30.7 43.2 32.0 43.2 32.7 42.7 33.3 42.0 33.45 41.4 33.25 41.15 33.05 41.1 35.6 43.45 36.6 Q43.7 36.65 43.85 36.85 L43.55 38.75 43.35 38.8 40.8 39.45 40.55 42.4 40.45 42.7 39.2 43.45 38.95 43.4 38.4 42.9 36.9 40.35 34.15 41.1 33.8 41.1 32.9 41.75 33.3 43.1 33.3 43.8 33.2 43.95 31.05 43.95 30.5 43.55 29.85 43.95 27.65 43.95 27.6 43.7 Q27.45 43.4 27.6 43.05 L28.0 41.75 27.05 41.1 26.65 40.55 26.65 39.8 27.05 39.2 Q27.35 38.95 27.75 38.95 L28.9 38.95 29.4 37.8 29.8 37.3 30.5 37.05 Q30.85 37.05 31.1 37.3 L31.6 37.85 32.0 38.95 33.15 38.95 34.75 37.0 33.5 34.8 33.3 34.1 33.6 33.4 34.2 33.05 34.9 33.1 37.25 34.1 37.95 33.35 37.85 33.25 37.45 32.65 Q37.3 32.3 37.45 31.95 L37.85 30.7 36.9 30.05 36.5 29.45 36.5 28.7 36.9 28.15 Q37.2 27.9 37.6 27.9 L38.75 27.9 M30.6 38.6 L30.3 38.6 29.75 40.15 28.1 40.15 28.05 40.35 29.4 41.3 28.8 43.05 29.0 43.15 30.5 42.1 31.9 43.15 32.1 43.05 31.6 41.3 32.75 40.4 32.7 40.15 31.2 40.15 30.6 38.6 M37.6 35.45 L34.5 34.15 36.2 37.1 33.85 39.95 37.5 39.05 39.4 42.25 39.7 38.5 43.05 37.65 39.95 36.35 40.0 32.95 37.6 35.45 M39.6 29.05 L37.95 29.05 37.9 29.3 39.25 30.2 38.65 31.95 38.85 32.05 40.35 31.05 41.75 32.05 41.95 31.95 41.45 30.2 42.7 29.3 42.6 29.05 41.05 29.05 40.45 27.55 40.15 27.55 39.6 29.05" fill="url(#gradient5)" fill-rule="evenodd" stroke="none"/>
      <path d="M38.5 29.7 L37.6 29.05 39.6 29.05 40.35 27.15 41.05 29.05 43.0 29.05 42.15 29.7 41.05 29.7 40.35 27.8 39.6 29.7 38.5 29.7 M41.45 30.2 L42.1 32.3 41.8 32.15 41.45 30.85 41.45 30.2 M38.85 32.15 L38.55 32.3 39.25 30.2 39.25 30.85 38.85 32.15 M39.95 36.35 L43.05 37.65 42.1 37.95 39.95 37.0 39.95 36.35 M34.5 39.8 L33.85 39.95 36.2 37.1 36.2 37.75 34.5 39.8 M34.95 35.05 L34.5 34.15 37.6 35.45 40.0 32.95 40.0 33.6 37.6 36.05 34.95 35.05 M31.6 41.3 L32.2 43.4 31.95 43.2 31.6 41.95 31.6 41.3 M29.0 43.2 L28.7 43.4 29.4 41.3 29.4 41.95 29.0 43.2 M28.65 40.75 L27.75 40.15 29.75 40.15 30.5 38.2 31.2 40.15 33.15 40.15 32.3 40.75 31.2 40.75 30.5 38.85 29.75 40.75 28.65 40.75" fill="#674512" fill-rule="evenodd" stroke="none"/>
      <path d="M42.15 29.7 L41.45 30.2 41.45 30.85 41.8 32.15 40.35 31.05 38.85 32.15 39.25 30.85 39.25 30.2 38.5 29.7 39.6 29.7 40.35 27.8 41.05 29.7 42.15 29.7 M39.95 36.35 L39.95 37.0 42.1 37.95 39.7 38.5 39.4 42.25 37.5 39.05 34.5 39.8 36.2 37.75 36.2 37.1 34.95 35.05 37.6 36.05 40.0 33.6 39.95 36.35 M32.3 40.75 L31.6 41.3 31.6 41.95 31.95 43.2 30.5 42.1 29.0 43.2 29.4 41.95 29.4 41.3 28.65 40.75 29.75 40.75 30.5 38.85 31.2 40.75 32.3 40.75" fill="#815815" fill-rule="evenodd" stroke="none"/>
      <path d="M5.05 27.9 L4.55 26.75 4.15 26.2 3.45 26.0 2.8 26.2 2.35 26.8 1.95 27.9 0.8 27.9 Q0.4 27.9 0.1 28.15 L-0.05 28.3 -0.05 29.85 0.15 30.05 1.05 30.7 0.6 32.0 0.6 32.7 1.1 33.3 1.8 33.45 2.4 33.25 2.65 33.05 2.7 35.6 0.35 36.6 Q0.1 36.65 -0.05 36.85 L0.25 38.75 0.45 38.8 3.0 39.45 3.25 42.4 3.35 42.7 4.6 43.45 4.85 43.4 5.4 42.9 6.9 40.35 9.65 41.1 10.0 41.1 10.9 41.75 10.5 43.1 Q10.35 43.45 10.5 43.8 L10.6 43.95 12.75 43.95 13.3 43.55 13.95 43.95 16.15 43.95 16.2 43.7 16.2 43.05 15.8 41.75 16.75 41.1 17.15 40.55 17.15 39.8 16.75 39.2 16.05 38.95 14.9 38.95 14.4 37.8 14.0 37.3 Q13.65 37.05 13.3 37.05 12.95 37.05 12.7 37.3 L12.2 37.85 11.8 38.95 10.65 38.95 9.05 37.0 10.3 34.8 10.5 34.1 10.2 33.4 9.6 33.05 8.9 33.1 6.55 34.1 5.85 33.35 5.95 33.25 6.35 32.65 6.35 31.95 5.95 30.7 6.9 30.05 7.3 29.45 7.3 28.7 6.9 28.15 Q6.6 27.9 6.2 27.9 L5.05 27.9 M13.2 38.6 L13.5 38.6 14.05 40.15 15.7 40.15 15.75 40.35 14.4 41.3 15.0 43.05 14.8 43.15 13.3 42.1 11.9 43.15 11.7 43.05 12.2 41.3 11.05 40.4 11.1 40.15 12.6 40.15 13.2 38.6 M6.2 35.45 L9.3 34.15 7.6 37.1 9.95 39.95 6.3 39.05 4.4 42.25 4.1 38.5 0.75 37.65 3.85 36.35 3.8 32.95 6.2 35.45 M4.2 29.05 L5.85 29.05 5.9 29.3 4.55 30.2 5.15 31.95 4.95 32.05 3.45 31.05 2.05 32.05 1.85 31.95 2.35 30.2 1.1 29.3 1.2 29.05 2.75 29.05 3.35 27.55 3.65 27.55 4.2 29.05" fill="url(#gradient6)" fill-rule="evenodd" stroke="none"/>
      <path d="M5.3 29.7 L6.2 29.05 4.2 29.05 3.45 27.15 2.75 29.05 0.8 29.05 1.65 29.7 2.75 29.7 3.45 27.8 4.2 29.7 5.3 29.7 M2.35 30.2 L1.7 32.3 2.0 32.15 2.35 30.85 2.35 30.2 M4.95 32.15 L5.25 32.3 4.55 30.2 4.55 30.85 4.95 32.15 M3.85 36.35 L0.75 37.65 1.7 37.95 3.85 37.0 3.85 36.35 M9.3 39.8 L9.95 39.95 7.6 37.1 7.6 37.75 9.3 39.8 M8.85 35.05 L9.3 34.15 6.2 35.45 3.8 32.95 3.8 33.6 6.2 36.05 8.85 35.05 M15.15 40.75 L16.05 40.15 14.05 40.15 13.3 38.2 12.6 40.15 10.65 40.15 11.5 40.75 12.6 40.75 13.3 38.85 14.05 40.75 15.15 40.75 M12.2 41.3 L11.6 43.4 11.85 43.2 12.2 41.95 12.2 41.3 M14.8 43.2 L15.1 43.4 14.4 41.3 14.4 41.95 14.8 43.2" fill="#674512" fill-rule="evenodd" stroke="none"/>
      <path d="M1.65 29.7 L2.35 30.2 2.35 30.85 2.0 32.15 3.45 31.05 4.95 32.15 4.55 30.85 4.55 30.2 5.3 29.7 4.2 29.7 3.45 27.8 2.75 29.7 1.65 29.7 M3.85 36.35 L3.85 37.0 1.7 37.95 4.1 38.5 4.4 42.25 6.3 39.05 9.3 39.8 7.6 37.75 7.6 37.1 8.85 35.05 6.2 36.05 3.8 33.6 3.85 36.35 M11.5 40.75 L12.2 41.3 12.2 41.95 11.85 43.2 13.3 42.1 14.8 43.2 14.4 41.95 14.4 41.3 15.15 40.75 14.05 40.75 13.3 38.85 12.6 40.75 11.5 40.75" fill="#815815" fill-rule="evenodd" stroke="none"/>
      <path d="M3.4 22.05 Q3.4 14.35 8.85 8.95 14.3 3.5 22.05 3.5 29.75 3.5 35.2 8.95 40.6 14.4 40.6 22.05 40.6 29.75 35.2 35.2 29.75 40.6 22.05 40.6 14.3 40.6 8.85 35.2 3.4 29.75 3.4 22.05" fill="url(#gradient7)" fill-rule="evenodd" stroke="none"/>
      <path d="M25.6 7.65 L24.9 10.9 25.95 10.9 23.95 14.3 25.6 14.4 23.05 19.5 22.75 28.5 25.15 27.6 25.2 27.6 21.55 36.75 18.6 27.75 21.0 28.45 21.25 19.55 19.0 15.15 20.8 14.9 19.0 11.65 20.45 11.2 19.35 7.75 22.4 10.5 25.6 7.65 M26.0 22.4 Q26.75 21.05 28.15 20.5 32.95 18.9 34.75 23.05 35.5 25.0 34.85 27.05 33.15 31.4 28.6 33.4 32.35 30.75 33.65 26.45 34.3 24.05 32.3 22.85 28.9 20.85 27.75 23.7 27.25 24.8 27.95 25.95 28.5 27.1 31.05 26.2 29.3 26.25 28.9 25.45 28.35 24.9 28.9 24.2 30.4 22.8 31.55 23.9 32.75 24.95 32.35 26.35 32.0 27.95 29.4 27.95 26.75 28.0 25.8 26.0 24.95 24.1 26.0 22.4 M17.5 22.4 Q18.55 24.1 17.7 26.0 16.75 28.0 14.1 27.95 11.5 27.95 11.15 26.35 10.75 24.95 11.95 23.9 13.1 22.8 14.6 24.2 15.15 24.9 14.6 25.45 14.2 26.25 12.45 26.2 15.0 27.1 15.55 25.95 16.25 24.8 15.75 23.7 14.6 20.85 11.2 22.85 9.2 24.05 9.85 26.45 11.15 30.75 14.9 33.4 10.35 31.4 8.65 27.05 8.0 25.0 8.75 23.05 10.55 18.9 15.35 20.5 16.75 21.05 17.5 22.4" fill="#664411" fill-rule="evenodd" stroke="none"/>
    </g>
    <linearGradient gradientTransform="matrix(0.0, -0.0257, -0.055, 0.0, 21.6, 21.6)" gradientUnits="userSpaceOnUse" id="gradient5" spreadMethod="pad" x1="-819.2" x2="819.2">
      <stop offset="0.011764705882352941" stop-color="#c79829"/>
      <stop offset="1.0" stop-color="#be7d1e"/>
    </linearGradient>
    <linearGradient gradientTransform="matrix(0.0, -0.0257, 0.055, 0.0, 22.15, 21.6)" gradientUnits="userSpaceOnUse" id="gradient6" spreadMethod="pad" x1="-819.2" x2="819.2">
      <stop offset="0.011764705882352941" stop-color="#c79829"/>
      <stop offset="1.0" stop-color="#be7d1e"/>
    </linearGradient>
    <linearGradient gradientTransform="matrix(0.0, -0.017, -0.0173, 0.0, 21.0, 26.95)" gradientUnits="userSpaceOnUse" id="gradient7" spreadMethod="pad" x1="-819.2" x2="819.2">
      <stop offset="0.011764705882352941" stop-color="#dad67d"/>
      <stop offset="1.0" stop-color="#cfa451"/>
    </linearGradient>
    <g id="shape7" transform="matrix(1.0, 0.0, 0.0, 1.0, -0.05, 0.0)">
      <path d="M7.65 0.0 L36.45 0.0 Q39.6 0.0 41.85 2.25 44.05 4.45 44.05 7.6 L44.05 36.4 Q44.05 39.6 41.85 41.8 39.65 44.0 36.45 44.0 L7.65 44.0 Q4.5 44.0 2.3 41.8 0.05 39.6 0.05 36.4 L0.05 7.6 Q0.05 4.45 2.3 2.25 4.5 0.0 7.65 0.0" fill="url(#gradient8)" fill-rule="evenodd" stroke="none"/>
      <path d="M34.95 8.8 Q40.15 14.05 40.15 21.4 40.15 28.8 34.95 34.1 29.75 39.3 22.35 39.3 14.9 39.3 9.7 34.1 4.5 28.8 4.5 21.4 4.5 14.05 9.7 8.8 15.0 3.55 22.35 3.55 29.75 3.55 34.95 8.8" fill="url(#gradient9)" fill-rule="evenodd" stroke="none"/>
      <path d="M40.9 22.05 Q40.9 29.9 35.3 35.45 29.8 41.1 21.9 41.1 13.95 41.1 8.45 35.45 2.9 29.9 2.9 22.05 2.9 14.1 8.45 8.6 13.95 3.0 21.9 3.0 29.8 3.0 35.3 8.6 40.9 14.1 40.9 22.05 M21.9 5.4 Q15.0 5.45 10.15 10.35 5.25 15.15 5.2 22.05 5.25 29.0 10.15 33.85 15.0 38.75 21.9 38.75 28.8 38.75 33.75 33.85 38.55 29.0 38.55 22.05 38.55 15.15 33.75 10.35 28.8 5.45 21.9 5.4" fill="url(#gradient10)" fill-rule="evenodd" stroke="none"/>
      <path d="M0.95 35.9 L0.9 35.5 Q0.9 34.5 1.6 33.8 2.35 33.1 3.3 33.1 4.25 33.1 4.95 33.8 5.65 34.5 5.65 35.5 L5.65 35.8 Q3.15 32.95 0.95 35.9" fill="#494136" fill-rule="evenodd" stroke="none"/>
      <path d="M5.65 35.8 Q5.55 36.55 4.95 37.15 4.25 37.85 3.3 37.85 2.35 37.85 1.6 37.15 1.05 36.55 0.95 35.9 3.15 32.95 5.65 35.8" fill="#625748" fill-rule="evenodd" stroke="none"/>
      <path d="M6.0 37.9 L6.0 37.65 Q6.0 37.05 6.4 36.65 6.8 36.2 7.4 36.2 8.0 36.2 8.4 36.65 8.85 37.05 8.85 37.65 L8.85 37.85 6.0 37.9" fill="#494136" fill-rule="evenodd" stroke="none"/>
      <path d="M8.85 37.85 L8.4 38.65 Q8.0 39.05 7.4 39.05 6.8 39.05 6.4 38.65 L6.0 37.9 8.85 37.85" fill="#625748" fill-rule="evenodd" stroke="none"/>
      <path d="M3.0 40.65 L3.0 40.4 Q3.0 39.8 3.4 39.4 3.8 38.95 4.4 38.95 5.0 38.95 5.4 39.4 5.85 39.8 5.85 40.4 L5.85 40.6 3.0 40.65" fill="#494136" fill-rule="evenodd" stroke="none"/>
      <path d="M5.85 40.6 L5.4 41.4 Q5.0 41.8 4.4 41.8 3.8 41.8 3.4 41.4 3.05 41.05 3.0 40.65 L5.85 40.6" fill="#625748" fill-rule="evenodd" stroke="none"/>
      <path d="M7.7 41.35 L7.7 41.15 Q7.7 40.7 8.0 40.35 8.35 40.05 8.8 40.05 9.25 40.05 9.55 40.35 L9.9 41.15 9.9 41.3 7.7 41.35" fill="#494136" fill-rule="evenodd" stroke="none"/>
      <path d="M9.9 41.3 L9.55 41.9 Q9.25 42.25 8.8 42.25 8.35 42.25 8.0 41.9 L7.7 41.35 9.9 41.3" fill="#625748" fill-rule="evenodd" stroke="none"/>
      <path d="M26.1 10.0 L24.1 13.4 25.75 13.5 23.2 18.6 22.9 27.6 25.3 26.7 25.35 26.7 21.7 35.85 18.75 26.85 21.15 27.55 21.4 18.65 19.15 14.25 20.95 14.0 19.15 10.75 20.6 10.3 19.5 6.85 22.55 9.6 25.75 6.75 25.05 10.0 26.1 10.0 M26.15 21.5 Q26.9 20.15 28.3 19.6 33.1 18.0 34.9 22.15 35.65 24.1 35.0 26.15 33.3 30.5 28.75 32.5 32.5 29.85 33.8 25.55 34.45 23.15 32.45 21.95 29.05 19.95 27.9 22.8 27.4 23.9 28.1 25.05 28.65 26.2 31.2 25.3 29.45 25.35 29.05 24.55 28.5 24.0 29.05 23.3 30.55 21.9 31.7 23.0 32.9 24.05 32.5 25.45 32.15 27.05 29.55 27.05 26.9 27.1 25.95 25.1 25.1 23.2 26.15 21.5 M17.65 21.5 Q18.7 23.2 17.85 25.1 16.9 27.1 14.25 27.05 11.65 27.05 11.3 25.45 10.9 24.05 12.1 23.0 13.25 21.9 14.75 23.3 15.3 24.0 14.75 24.55 14.35 25.35 12.6 25.3 15.15 26.2 15.7 25.05 16.4 23.9 15.9 22.8 14.75 19.95 11.35 21.95 9.35 23.15 10.0 25.55 11.3 29.85 15.05 32.5 10.5 30.5 8.8 26.15 8.15 24.1 8.9 22.15 10.7 18.0 15.5 19.6 16.9 20.15 17.65 21.5" fill="#4a3355" fill-rule="evenodd" stroke="none"/>
      <path d="M42.45 35.9 L42.5 35.5 Q42.5 34.5 41.8 33.8 41.05 33.1 40.1 33.1 39.15 33.1 38.45 33.8 37.75 34.5 37.75 35.5 L37.75 35.8 Q40.25 32.95 42.45 35.9" fill="#494136" fill-rule="evenodd" stroke="none"/>
      <path d="M37.75 35.8 Q37.85 36.55 38.45 37.15 39.15 37.85 40.1 37.85 41.05 37.85 41.8 37.15 L42.45 35.9 Q40.25 32.95 37.75 35.8" fill="#625748" fill-rule="evenodd" stroke="none"/>
      <path d="M37.55 37.9 L37.55 37.65 Q37.55 37.05 37.15 36.65 36.75 36.2 36.15 36.2 35.55 36.2 35.15 36.65 34.7 37.05 34.7 37.65 L34.7 37.85 37.55 37.9" fill="#494136" fill-rule="evenodd" stroke="none"/>
      <path d="M34.7 37.85 L35.15 38.65 Q35.55 39.05 36.15 39.05 36.75 39.05 37.15 38.65 L37.55 37.9 34.7 37.85" fill="#625748" fill-rule="evenodd" stroke="none"/>
      <path d="M40.6 40.65 L40.6 40.4 Q40.6 39.8 40.2 39.4 39.8 38.95 39.2 38.95 38.6 38.95 38.2 39.4 37.75 39.8 37.75 40.4 L37.75 40.6 40.6 40.65" fill="#494136" fill-rule="evenodd" stroke="none"/>
      <path d="M37.75 40.6 L38.2 41.4 Q38.6 41.8 39.2 41.8 39.8 41.8 40.2 41.4 L40.6 40.65 37.75 40.6" fill="#625748" fill-rule="evenodd" stroke="none"/>
      <path d="M35.9 41.35 L35.9 41.15 35.6 40.35 Q35.25 40.05 34.8 40.05 34.35 40.05 34.05 40.35 33.7 40.7 33.7 41.15 L33.7 41.3 35.9 41.35" fill="#494136" fill-rule="evenodd" stroke="none"/>
      <path d="M33.7 41.3 L34.05 41.9 Q34.35 42.25 34.8 42.25 35.25 42.25 35.6 41.9 L35.9 41.35 33.7 41.3" fill="#625748" fill-rule="evenodd" stroke="none"/>
    </g>
    <linearGradient gradientTransform="matrix(0.0, -0.0551, -0.0551, 0.0, 22.1, 18.45)" gradientUnits="userSpaceOnUse" id="gradient8" spreadMethod="pad" x1="-819.2" x2="819.2">
      <stop offset="0.011764705882352941" stop-color="#bcb0a0"/>
      <stop offset="1.0" stop-color="#453e3a"/>
    </linearGradient>
    <linearGradient gradientTransform="matrix(0.0, -0.0167, -0.0167, 0.0, 22.35, 18.05)" gradientUnits="userSpaceOnUse" id="gradient9" spreadMethod="pad" x1="-819.2" x2="819.2">
      <stop offset="0.011764705882352941" stop-color="#bcb9ae"/>
      <stop offset="1.0" stop-color="#9b5b79"/>
    </linearGradient>
    <linearGradient gradientTransform="matrix(1.0E-4, 0.0223, -0.0232, 1.0E-4, 21.95, 22.3)" gradientUnits="userSpaceOnUse" id="gradient10" spreadMethod="pad" x1="-819.2" x2="819.2">
      <stop offset="0.011764705882352941" stop-color="#494136"/>
      <stop offset="1.0" stop-color="#dbccbd"/>
    </linearGradient>
  </defs>
</svg>
