<?xml version="1.0" encoding="UTF-8" standalone="no"?>
<svg xmlns:xlink="http://www.w3.org/1999/xlink" height="66.0px" width="66.0px" xmlns="http://www.w3.org/2000/svg">
  <g transform="matrix(1.5, 0.0, 0.0, 1.5, 0.0, 0.0)">
    <use height="44.0" transform="matrix(1.0, 0.0, 0.0, 1.0, 0.0, 0.0)" width="44.0" xlink:href="#shape0"/>
    <use height="20.15" transform="matrix(1.1594, 0.0, 0.0, 1.1594, 5.85, 5.45)" width="28.2" xlink:href="#sprite0"/>
    <use height="8.6" transform="matrix(1.2125, 0.0, 0.0, 1.2125, 0.7575, 0.95)" width="35.05" xlink:href="#sprite1"/>
    <use height="20.8" transform="matrix(1.0, 0.0, 0.0, 1.0, 0.65, 23.15)" width="42.7" xlink:href="#shape3"/>
  </g>
  <defs>
    <g id="shape0" transform="matrix(1.0, 0.0, 0.0, 1.0, 0.0, 0.0)">
      <path d="M41.8 2.25 Q44.0 4.45 44.0 7.6 L44.0 36.4 Q44.0 39.6 41.8 41.8 39.6 44.0 36.4 44.0 L7.6 44.0 Q4.45 44.0 2.25 41.8 0.0 39.6 0.0 36.4 L0.0 7.6 Q0.0 4.45 2.25 2.25 4.45 0.0 7.6 0.0 L36.4 0.0 Q39.55 0.0 41.8 2.25" fill="url(#gradient0)" fill-rule="evenodd" stroke="none"/>
      <path d="M40.75 21.65 Q40.75 29.4 35.35 34.85 29.9 40.25 22.2 40.25 14.45 40.25 9.0 34.85 3.55 29.4 3.55 21.65 3.55 13.95 9.0 8.55 14.45 3.1 22.2 3.1 29.9 3.1 35.35 8.55 40.75 14.0 40.75 21.65" fill="url(#gradient1)" fill-rule="evenodd" stroke="none"/>
      <path d="M34.45 9.35 Q30.95 11.75 27.55 15.15 31.5 11.65 34.95 9.9 38.2 13.25 38.85 18.9 36.7 21.0 32.55 23.0 36.3 21.85 39.1 19.75 39.35 23.1 38.75 27.3 33.55 29.2 30.2 29.35 L27.05 25.8 27.7 25.25 26.6 25.25 24.1 22.1 23.75 23.8 Q22.85 27.25 20.9 26.3 19.45 25.15 21.4 22.05 L21.8 21.3 20.55 22.9 Q18.05 26.8 16.7 25.1 15.5 23.7 18.6 20.55 L21.4 18.35 20.8 17.5 20.3 17.65 Q19.9 17.65 19.6 17.35 L19.35 16.7 Q19.35 16.3 19.6 16.0 L19.8 15.9 18.65 14.1 18.9 12.55 18.15 13.25 17.3 11.85 Q18.55 7.6 22.2 4.6 L26.3 4.9 Q24.1 6.4 21.85 9.2 24.35 6.4 26.85 5.05 29.45 5.9 32.8 8.05 L34.45 9.35 M18.8 9.75 Q26.85 18.55 32.8 28.25 L34.4 27.85 Q28.2 17.55 19.5 8.25 L18.8 9.75 M17.0 20.5 Q14.9 22.5 14.3 21.2 13.8 20.15 16.4 19.05 18.2 18.35 20.25 18.4 18.45 19.3 17.0 20.5 M4.3 23.65 L4.3 21.2 6.35 21.2 Q6.9 21.0 6.9 20.8 6.9 20.2 7.3 19.75 7.75 19.35 8.35 19.35 8.95 19.35 9.35 19.75 L9.8 20.55 11.95 20.15 Q13.9 21.1 13.35 22.45 10.85 25.9 12.65 29.45 L12.7 29.4 14.5 29.15 16.25 29.65 Q17.0 30.15 17.0 30.8 17.0 31.4 16.4 31.75 18.1 31.6 19.4 30.05 21.9 28.9 21.85 33.05 21.8 37.2 19.55 39.1 15.65 38.9 9.7 36.15 7.4 32.75 5.95 29.15 L5.9 29.1 Q4.8 26.95 4.3 23.65 M17.7 26.6 L18.0 27.3 17.7 27.95 Q17.45 28.25 17.05 28.25 L16.35 27.95 16.1 27.3 Q16.1 26.9 16.35 26.6 16.65 26.35 17.05 26.35 17.45 26.35 17.7 26.6 M23.3 28.2 Q22.95 27.85 22.95 27.25 22.95 26.7 23.3 26.25 23.75 25.9 24.35 25.9 24.9 25.9 25.25 26.25 25.7 26.7 25.7 27.25 L25.25 28.2 Q24.9 28.65 24.35 28.65 23.75 28.65 23.3 28.2" fill="#496125" fill-rule="evenodd" stroke="none"/>
      <path d="M33.7 10.3 Q28.75 5.45 21.85 5.4 14.95 5.45 10.1 10.3 5.2 15.15 5.15 22.05 5.2 29.0 10.1 33.85 14.95 38.75 21.85 38.75 28.75 38.75 33.7 33.85 38.5 29.0 38.5 22.05 38.5 15.15 33.7 10.3 M40.85 22.05 Q40.85 29.9 35.25 35.4 29.75 41.1 21.85 41.1 13.9 41.1 8.4 35.4 2.85 29.9 2.85 22.05 2.85 14.1 8.4 8.6 13.9 3.0 21.85 3.0 29.75 3.0 35.25 8.6 40.85 14.1 40.85 22.05" fill="url(#gradient2)" fill-rule="evenodd" stroke="none"/>
    </g>
    <linearGradient gradientTransform="matrix(0.0, -0.0283, -0.0551, 0.0, 22.6, 21.95)" gradientUnits="userSpaceOnUse" id="gradient0" spreadMethod="pad" x1="-819.2" x2="819.2">
      <stop offset="0.011764705882352941" stop-color="#9dae7c"/>
      <stop offset="1.0" stop-color="#7e8f45"/>
    </linearGradient>
    <linearGradient gradientTransform="matrix(0.0, -0.0173, -0.0173, 0.0, 22.15, 18.1)" gradientUnits="userSpaceOnUse" id="gradient1" spreadMethod="pad" x1="-819.2" x2="819.2">
      <stop offset="0.011764705882352941" stop-color="#d3d4b5"/>
      <stop offset="1.0" stop-color="#71a26f"/>
    </linearGradient>
    <linearGradient gradientTransform="matrix(1.0E-4, 0.0223, -0.0232, 1.0E-4, 21.9, 22.3)" gradientUnits="userSpaceOnUse" id="gradient2" spreadMethod="pad" x1="-819.2" x2="819.2">
      <stop offset="0.011764705882352941" stop-color="#516537"/>
      <stop offset="1.0" stop-color="#a8ce99"/>
    </linearGradient>
    <g id="sprite0" transform="matrix(1.0, 0.0, 0.0, 1.0, 0.0, 0.0)">
      <use height="20.15" transform="matrix(1.0, 0.0, 0.0, 1.0, 0.0, 0.0)" width="28.2" xlink:href="#shape1"/>
    </g>
    <g id="shape1" transform="matrix(1.0, 0.0, 0.0, 1.0, 0.0, 0.0)">
      <path d="M27.65 18.45 L27.4 18.95 Q26.2 20.8 23.4 19.8 19.6 18.5 17.35 14.05 14.8 9.1 9.75 7.4 4.1 5.65 0.0 10.3 1.0 6.85 3.7 4.15 7.2 0.65 11.9 0.05 L14.8 0.05 18.4 0.65 Q21.55 1.65 24.05 4.15 28.2 8.3 28.2 14.25 28.2 16.45 27.65 18.45" fill="#ffffff" fill-opacity="0.19607843" fill-rule="evenodd" stroke="none"/>
    </g>
    <g id="sprite1" transform="matrix(1.0, 0.0, 0.0, 1.0, 0.2, 0.0)">
      <use height="8.6" transform="matrix(1.0, 0.0, 0.0, 1.0, -0.2, 0.0)" width="35.05" xlink:href="#shape2"/>
    </g>
    <g id="shape2" transform="matrix(1.0, 0.0, 0.0, 1.0, 0.2, 0.0)">
      <path d="M34.4 4.4 Q34.85 5.8 34.85 7.65 L34.85 8.6 Q34.8 6.95 34.4 5.7 33.0 1.3 27.2 1.3 L7.45 1.3 Q0.05 1.3 -0.2 8.5 L-0.2 7.65 Q-0.2 0.0 7.45 0.0 L27.2 0.0 Q33.0 0.0 34.4 4.4" fill="#e7deda" fill-rule="evenodd" stroke="none"/>
    </g>
    <g id="shape3" transform="matrix(1.0, 0.0, 0.0, 1.0, -0.65, -23.15)">
      <path d="M0.8 32.85 Q1.1 30.5 2.35 29.3 L2.75 27.65 Q2.9 26.6 2.65 25.55 L2.35 24.5 1.7 23.15 2.75 24.25 3.6 25.5 3.9 26.85 Q4.0 27.75 3.3 29.55 2.65 31.15 2.5 33.35 L2.4 33.05 2.35 33.35 Q1.8 36.15 2.95 38.1 L4.2 39.55 4.25 39.65 Q4.85 40.4 5.7 40.55 6.8 40.75 7.85 39.85 9.1 38.85 8.15 37.55 L8.2 38.4 Q8.0 39.35 6.65 39.8 L5.65 39.95 5.65 39.9 5.55 38.7 Q5.5 36.95 6.95 36.05 8.45 35.1 9.95 36.65 L11.15 38.45 Q11.1 36.6 10.2 35.65 L10.35 35.8 Q11.05 36.55 11.35 37.5 L11.3 37.5 11.45 37.9 11.75 38.75 11.8 39.9 Q10.4 42.8 8.6 42.8 9.9 42.6 10.0 41.4 7.1 42.65 3.65 40.95 1.15 39.0 0.8 32.85 M4.2 39.55 L3.9 39.1 4.0 39.15 4.2 39.55" fill="#9ec087" fill-rule="evenodd" stroke="none"/>
      <path d="M2.35 33.35 L2.4 33.05 2.5 33.35 2.35 33.35" fill="#00632e" fill-rule="evenodd" stroke="none"/>
      <path d="M2.5 33.35 L2.55 34.65 Q2.9 36.4 3.75 37.55 L3.85 36.95 Q4.55 34.95 7.25 34.4 L9.15 34.85 10.2 35.65 Q11.1 36.6 11.15 38.45 L9.95 36.65 Q8.45 35.1 6.95 36.05 5.5 36.95 5.55 38.7 L5.65 39.9 5.65 39.95 6.65 39.8 Q8.0 39.35 8.2 38.4 L8.15 37.55 Q9.1 38.85 7.85 39.85 6.8 40.75 5.7 40.55 4.85 40.4 4.25 39.65 L4.2 39.55 2.95 38.1 Q1.8 36.15 2.35 33.35 L2.5 33.35 M4.2 39.55 L4.0 39.15 3.9 39.1 4.2 39.55 M3.9 39.1 L4.05 39.05 4.0 38.85 3.85 38.95 3.9 39.1" fill="#c0d6b1" fill-rule="evenodd" stroke="none"/>
      <path d="M11.8 39.9 Q11.7 41.0 11.05 42.1 10.05 43.9 6.95 43.95 L4.05 43.7 5.55 43.2 7.75 42.95 6.5 43.05 Q4.35 43.0 2.8 41.5 0.9 39.45 0.7 35.35 0.6 33.95 0.8 32.85 1.15 39.0 3.65 40.95 7.1 42.65 10.0 41.4 9.9 42.6 8.6 42.8 10.4 42.8 11.8 39.9" fill="#648a4a" fill-rule="evenodd" stroke="none"/>
      <path d="M3.9 39.1 L3.85 38.95 4.0 38.85 4.05 39.05 3.9 39.1" fill="#ccbf38" fill-rule="evenodd" stroke="none"/>
      <path d="M11.35 37.5 L11.45 37.9 11.3 37.5 11.35 37.5" fill="url(#gradient3)" fill-rule="evenodd" stroke="none"/>
      <path d="M41.5 33.35 Q41.35 31.15 40.7 29.55 40.0 27.75 40.1 26.85 L40.4 25.5 41.25 24.25 42.3 23.15 41.65 24.5 41.35 25.55 Q41.1 26.6 41.25 27.65 L41.65 29.3 Q42.9 30.5 43.2 32.85 42.85 39.0 40.35 40.95 36.9 42.65 34.0 41.4 34.1 42.6 35.4 42.8 33.6 42.8 32.2 39.9 32.15 39.35 32.25 38.75 L32.55 37.9 32.7 37.5 32.65 37.5 Q32.95 36.55 33.65 35.8 L33.8 35.65 Q32.9 36.6 32.85 38.45 33.3 37.5 34.05 36.65 35.55 35.1 37.05 36.05 38.5 36.95 38.45 38.7 L38.35 39.9 38.35 39.95 37.35 39.8 Q36.0 39.35 35.8 38.4 L35.85 37.55 Q34.9 38.85 36.15 39.85 37.2 40.75 38.3 40.55 39.15 40.4 39.75 39.65 L39.85 39.55 41.05 38.1 Q42.2 36.15 41.65 33.35 L41.6 33.05 41.5 33.35 M40.1 39.1 L39.85 39.55 40.0 39.15 40.1 39.1" fill="#9ec087" fill-rule="evenodd" stroke="none"/>
      <path d="M41.65 33.35 Q42.2 36.15 41.05 38.1 L39.85 39.55 39.75 39.65 Q39.15 40.4 38.3 40.55 37.2 40.75 36.15 39.85 34.9 38.85 35.85 37.55 L35.8 38.4 Q36.0 39.35 37.35 39.8 L38.35 39.95 38.35 39.9 38.45 38.7 Q38.5 36.95 37.05 36.05 35.55 35.1 34.05 36.65 33.3 37.5 32.85 38.45 32.9 36.6 33.8 35.65 L34.85 34.85 36.75 34.4 Q39.45 34.95 40.15 36.95 L40.25 37.55 Q41.1 36.4 41.45 34.65 L41.5 33.35 41.65 33.35 M40.1 39.1 L40.15 38.95 40.0 38.85 39.95 39.05 40.1 39.1 40.0 39.15 39.85 39.55 40.1 39.1" fill="#c0d6b1" fill-rule="evenodd" stroke="none"/>
      <path d="M41.5 33.35 L41.6 33.05 41.65 33.35 41.5 33.35" fill="#00632e" fill-rule="evenodd" stroke="none"/>
      <path d="M32.2 39.9 Q33.6 42.8 35.4 42.8 34.1 42.6 34.0 41.4 36.9 42.65 40.35 40.95 42.85 39.0 43.2 32.85 L43.3 35.35 Q43.1 39.45 41.2 41.5 39.65 43.0 37.5 43.05 L36.25 42.95 38.45 43.2 39.95 43.7 37.05 43.95 Q33.95 43.9 32.95 42.1 32.3 41.0 32.2 39.9" fill="#648a4a" fill-rule="evenodd" stroke="none"/>
      <path d="M40.1 39.1 L39.95 39.05 40.0 38.85 40.15 38.95 40.1 39.1" fill="#ccbf38" fill-rule="evenodd" stroke="none"/>
      <path d="M32.65 37.5 L32.7 37.5 32.55 37.9 32.65 37.5" fill="url(#gradient4)" fill-rule="evenodd" stroke="none"/>
    </g>
    <linearGradient gradientTransform="matrix(0.0, -0.025, -0.025, 0.0, 6.05, 31.45)" gradientUnits="userSpaceOnUse" id="gradient3" spreadMethod="pad" x1="-819.2" x2="819.2">
      <stop offset="0.011764705882352941" stop-color="#bed9a5"/>
      <stop offset="1.0" stop-color="#739416"/>
    </linearGradient>
    <linearGradient gradientTransform="matrix(0.0, -0.025, 0.025, 0.0, 37.95, 31.45)" gradientUnits="userSpaceOnUse" id="gradient4" spreadMethod="pad" x1="-819.2" x2="819.2">
      <stop offset="0.011764705882352941" stop-color="#bed9a5"/>
      <stop offset="1.0" stop-color="#739416"/>
    </linearGradient>
  </defs>
</svg>
