<?xml version="1.0" encoding="UTF-8" standalone="no"?>
<svg xmlns:xlink="http://www.w3.org/1999/xlink" height="66.15px" width="66.0px" xmlns="http://www.w3.org/2000/svg">
  <g transform="matrix(1.5, 0.0, 0.0, 1.5, 0.0, 0.0)">
    <use height="44.05" transform="matrix(1.0, 0.0, 0.0, 1.0, 0.0, 0.0)" width="44.0" xlink:href="#shape0"/>
    <use height="8.6" transform="matrix(1.2088, 0.0, 0.0, 1.2099, 0.7582, 0.8)" width="35.05" xlink:href="#sprite0"/>
    <use height="37.05" transform="matrix(1.0, 0.0, 0.0, 1.0, 0.2, 7.05)" width="43.45" xlink:href="#shape2"/>
    <use height="20.15" transform="matrix(1.1548, 0.0, 0.0, 1.1559, 5.75, 5.4)" width="28.2" xlink:href="#sprite1"/>
  </g>
  <defs>
    <g id="shape0" transform="matrix(1.0, 0.0, 0.0, 1.0, 0.0, 0.0)">
      <path d="M7.55 8.25 Q13.4 2.3 21.8 2.3 30.1 2.3 36.05 8.25 41.9 14.15 41.9 22.5 41.9 30.85 36.05 36.8 30.1 42.7 21.8 42.7 13.4 42.7 7.55 36.8 1.6 30.85 1.6 22.5 1.6 14.15 7.55 8.25" fill="url(#gradient0)" fill-rule="evenodd" stroke="none"/>
      <path d="M22.0 4.7 Q14.8 4.7 9.7 9.8 4.65 14.95 4.65 22.05 4.65 29.25 9.7 34.35 14.75 39.45 22.0 39.45 29.15 39.45 34.2 34.35 39.3 29.25 39.3 22.05 39.3 14.85 34.2 9.8 29.15 4.7 22.0 4.7 M36.4 0.0 Q39.6 0.0 41.75 2.25 44.0 4.55 44.0 7.65 L44.0 36.45 Q44.0 39.6 41.75 41.85 39.6 44.05 36.4 44.05 L7.6 44.05 Q4.45 44.05 2.25 41.85 0.0 39.65 0.0 36.45 L0.0 7.65 Q0.0 4.55 2.25 2.25 4.45 0.0 7.6 0.0 L36.4 0.0" fill="url(#gradient1)" fill-rule="evenodd" stroke="none"/>
      <path d="M41.05 22.05 Q41.05 29.9 35.45 35.45 29.95 41.05 22.1 41.05 14.2 41.05 8.7 35.45 3.15 29.9 3.15 22.05 3.15 14.2 8.7 8.65 14.2 3.1 22.1 3.1 29.95 3.1 35.45 8.65 41.05 14.2 41.05 22.05 M33.85 10.4 Q28.9 5.5 22.1 5.45 15.2 5.5 10.35 10.4 5.5 15.15 5.45 22.05 5.5 29.0 10.35 33.85 15.2 38.7 22.1 38.7 28.9 38.7 33.85 33.85 38.65 29.0 38.65 22.05 38.65 15.15 33.85 10.4" fill="url(#gradient2)" fill-rule="evenodd" stroke="none"/>
    </g>
    <linearGradient gradientTransform="matrix(0.0, -0.0155, -0.0189, 0.0, 21.85, 25.5)" gradientUnits="userSpaceOnUse" id="gradient0" spreadMethod="pad" x1="-819.2" x2="819.2">
      <stop offset="0.011764705882352941" stop-color="#bb9a76"/>
      <stop offset="1.0" stop-color="#a87f53"/>
    </linearGradient>
    <linearGradient gradientTransform="matrix(0.0, -0.0344, -0.0552, 0.0, 22.4, 16.35)" gradientUnits="userSpaceOnUse" id="gradient1" spreadMethod="pad" x1="-819.2" x2="819.2">
      <stop offset="0.0196078431372549" stop-color="#9c6732"/>
      <stop offset="1.0" stop-color="#7d4e2b"/>
    </linearGradient>
    <linearGradient gradientTransform="matrix(1.0E-4, 0.0223, -0.0231, 1.0E-4, 22.15, 22.3)" gradientUnits="userSpaceOnUse" id="gradient2" spreadMethod="pad" x1="-819.2" x2="819.2">
      <stop offset="0.011764705882352941" stop-color="#59351e"/>
      <stop offset="1.0" stop-color="#cc955e"/>
    </linearGradient>
    <g id="sprite0" transform="matrix(1.0, 0.0, 0.0, 1.0, 0.2, 0.0)">
      <use height="8.6" transform="matrix(1.0, 0.0, 0.0, 1.0, -0.2, 0.0)" width="35.05" xlink:href="#shape1"/>
    </g>
    <g id="shape1" transform="matrix(1.0, 0.0, 0.0, 1.0, 0.2, 0.0)">
      <path d="M34.4 4.4 Q34.85 5.8 34.85 7.65 L34.85 8.6 Q34.8 6.95 34.4 5.7 33.0 1.3 27.2 1.3 L7.45 1.3 Q0.05 1.3 -0.2 8.5 L-0.2 7.65 Q-0.2 0.0 7.45 0.0 L27.2 0.0 Q33.0 0.0 34.4 4.4" fill="#e7deda" fill-rule="evenodd" stroke="none"/>
    </g>
    <g id="shape2" transform="matrix(1.0, 0.0, 0.0, 1.0, -0.2, -7.05)">
      <path d="M3.4 33.3 L0.9 32.8 1.9 31.85 Q0.1 29.85 0.2 25.1 0.35 22.65 0.8 20.65 0.55 24.85 0.8 26.5 1.15 29.5 3.1 30.95 L8.1 35.1 Q10.6 37.45 11.0 40.2 L14.55 42.5 10.7 42.9 Q9.95 44.4 7.2 44.05 3.2 43.5 2.4 40.25 1.7 37.65 3.6 36.65 L3.8 34.45 4.5 36.3 Q6.5 35.9 6.95 37.0 7.45 38.05 6.85 39.1 6.25 40.05 5.7 39.25 6.4 39.2 6.5 38.8 6.55 38.4 5.85 37.75 5.25 37.1 4.65 37.4 4.1 37.7 3.8 38.85 3.2 41.3 6.05 42.4 9.0 43.5 9.45 40.8 9.95 38.55 7.15 36.2 L3.4 33.3" fill="#7a5130" fill-rule="evenodd" stroke="none"/>
      <path d="M0.25 24.2 Q0.4 21.8 0.85 19.8 0.6 23.95 0.85 25.55 1.2 28.55 3.15 30.05 L8.2 34.2 Q10.65 36.55 11.05 39.25 L14.7 42.55 10.8 42.05 Q10.05 43.5 7.25 43.15 3.25 42.55 2.45 39.4 1.75 36.8 3.7 35.8 L3.8 34.35 4.55 35.45 Q6.55 35.05 7.0 36.85 7.25 38.35 6.7 39.05 L5.85 39.4 Q7.15 38.2 5.75 36.9 4.45 35.55 3.85 37.95 3.25 40.4 6.1 41.45 9.05 42.55 9.5 39.9 10.05 37.7 7.2 35.25 L3.4 32.4 3.45 32.45 0.85 32.85 1.95 30.95 Q0.15 28.9 0.25 24.2" fill="#ca935c" fill-rule="evenodd" stroke="none"/>
      <path d="M0.85 21.45 Q0.8 24.4 0.9 25.6 1.4 28.65 3.25 30.15 L8.25 34.25 Q10.7 36.6 11.2 39.25 L14.3 42.15 14.05 42.05 13.9 41.9 12.2 40.7 Q10.35 39.1 10.3 38.0 10.15 36.65 8.45 35.15 L5.2 32.65 Q2.0 30.2 1.15 27.45 0.55 25.85 0.55 22.05 L0.85 21.45 M4.7 35.5 Q6.6 35.1 7.1 36.9 7.3 37.95 7.1 38.65 L7.0 38.7 7.0 38.65 6.9 38.1 6.9 38.0 Q6.9 37.25 6.5 36.6 5.85 35.6 4.65 35.6 L4.45 35.7 4.35 35.6 4.2 35.6 4.2 34.75 4.7 35.5 M7.0 42.05 Q6.2 42.05 5.35 41.35 L4.25 40.3 4.1 39.7 Q4.55 40.9 6.2 41.5 L8.45 41.7 8.55 41.75 7.0 42.05" fill="#d7ad86" fill-rule="evenodd" stroke="none"/>
      <path d="M41.95 31.85 L42.95 32.8 40.45 33.3 36.7 36.2 Q33.9 38.55 34.4 40.8 34.85 43.5 37.8 42.4 40.65 41.3 40.05 38.85 39.75 37.7 39.2 37.4 38.6 37.1 38.0 37.75 37.3 38.4 37.35 38.8 37.45 39.2 38.15 39.25 37.6 40.05 37.0 39.1 36.4 38.05 36.9 37.0 37.35 35.9 39.35 36.3 L40.05 34.45 40.25 36.65 Q42.15 37.65 41.45 40.25 40.65 43.5 36.65 44.05 33.9 44.4 33.15 42.9 L29.3 42.5 32.85 40.2 Q33.25 37.45 35.75 35.1 L40.75 30.95 Q42.7 29.5 43.05 26.5 43.3 24.85 43.05 20.65 L43.65 25.1 Q43.75 29.85 41.95 31.85" fill="#7a5130" fill-rule="evenodd" stroke="none"/>
      <path d="M43.0 32.85 L40.4 32.45 40.45 32.4 36.65 35.25 Q33.8 37.7 34.35 39.9 34.8 42.55 37.75 41.45 40.6 40.4 40.0 37.95 39.4 35.55 38.1 36.9 36.7 38.2 38.0 39.4 L37.15 39.05 Q36.6 38.35 36.85 36.85 37.3 35.05 39.3 35.45 L40.05 34.35 40.15 35.8 Q42.1 36.8 41.4 39.4 40.6 42.55 36.6 43.15 33.8 43.5 33.05 42.05 L29.15 42.55 32.8 39.25 Q33.2 36.55 35.65 34.2 L40.7 30.05 Q42.65 28.55 43.0 25.55 43.25 23.95 43.0 19.8 L43.6 24.2 Q43.7 28.9 41.9 30.95 L43.0 32.85" fill="#ca935c" fill-rule="evenodd" stroke="none"/>
      <path d="M36.75 36.9 Q37.25 35.1 39.15 35.5 L39.65 34.75 39.65 35.6 39.5 35.6 39.4 35.7 39.2 35.6 Q38.0 35.6 37.35 36.6 36.95 37.25 36.95 38.0 L36.95 38.1 36.85 38.65 36.85 38.7 36.75 38.65 Q36.55 37.95 36.75 36.9 M42.95 25.6 L43.0 21.45 43.3 22.05 Q43.3 25.85 42.7 27.45 41.85 30.2 38.65 32.65 L35.4 35.15 Q33.7 36.65 33.55 38.0 33.5 39.1 31.65 40.7 L29.95 41.9 29.8 42.05 29.55 42.15 32.65 39.25 Q33.15 36.6 35.6 34.25 L40.6 30.15 Q42.45 28.65 42.95 25.6 M39.6 40.3 L38.5 41.35 Q37.65 42.05 36.85 42.05 L35.3 41.75 35.4 41.7 37.65 41.5 Q39.3 40.9 39.75 39.7 L39.6 40.3" fill="#d7ad86" fill-rule="evenodd" stroke="none"/>
      <path d="M21.45 7.8 L21.7 8.35 21.45 8.9 20.9 9.15 20.35 8.9 20.15 8.35 20.35 7.8 20.9 7.6 21.45 7.8 M22.95 14.6 Q23.95 14.9 24.75 15.55 25.8 16.7 25.9 18.15 L26.4 18.65 27.4 20.1 29.2 19.65 Q28.4 17.6 25.95 17.45 29.75 15.6 32.5 18.55 34.15 16.8 31.35 15.0 37.4 16.3 38.05 21.55 L38.1 21.85 38.05 22.2 Q37.4 27.5 31.35 28.8 34.15 27.05 32.5 25.2 29.75 28.2 25.95 26.35 28.4 26.2 29.2 24.1 L27.3 23.65 26.4 24.8 25.9 25.3 Q25.8 26.75 24.75 27.9 23.95 28.55 22.95 28.85 L22.3 29.9 21.7 30.25 Q22.15 30.8 22.15 31.5 22.15 32.45 21.45 33.1 20.8 33.7 19.9 33.7 L19.05 33.5 18.75 34.35 18.3 34.95 Q17.4 35.75 16.25 35.75 15.1 35.75 14.35 34.95 L13.8 34.35 Q13.5 33.8 13.5 33.1 13.5 31.95 14.35 31.15 L14.5 30.9 Q14.15 30.45 14.15 29.9 L14.35 29.05 13.7 28.7 Q13.05 28.0 13.05 27.1 13.05 26.5 13.35 26.0 L13.8 25.65 14.4 25.35 16.5 26.4 16.65 25.95 Q15.65 24.7 15.4 23.25 L15.25 23.25 13.85 23.35 12.75 23.55 11.55 23.9 13.2 25.75 11.6 25.45 12.35 27.95 10.65 26.2 10.65 34.3 Q5.05 29.35 4.6 22.05 L4.6 21.4 4.65 20.25 Q5.45 13.75 10.65 9.15 L10.65 17.25 12.35 15.5 11.6 18.0 12.75 17.8 12.75 18.15 11.55 19.5 13.85 20.05 15.25 20.2 15.45 20.2 Q15.65 18.4 16.7 17.5 L16.5 17.0 14.4 18.05 13.85 17.8 13.8 17.8 13.35 17.45 Q13.05 16.95 13.05 16.35 13.05 15.45 13.7 14.75 13.95 14.55 14.35 14.4 L14.15 13.55 Q14.15 13.0 14.5 12.55 L14.35 12.3 Q13.5 11.5 13.5 10.35 13.5 9.25 14.35 8.5 15.1 7.7 16.25 7.7 17.4 7.7 18.3 8.5 18.9 9.1 19.05 9.95 L19.9 9.75 Q20.8 9.75 21.45 10.35 22.15 11.05 22.15 11.95 L21.7 13.2 22.3 13.55 Q22.8 14.1 22.95 14.6 M25.05 11.55 L25.2 12.0 25.05 12.4 24.6 12.6 Q24.35 12.6 24.2 12.4 L24.0 12.0 24.2 11.55 Q24.35 11.4 24.6 11.4 L25.05 11.55 M23.35 13.1 L23.3 13.2 23.15 13.25 23.05 13.2 22.95 13.1 23.05 12.95 23.15 12.9 23.3 12.95 23.35 13.1 M12.2 7.05 Q12.65 7.05 12.95 7.3 L13.2 8.0 12.95 8.65 12.2 8.95 Q11.8 8.95 11.55 8.65 11.25 8.45 11.25 8.0 11.25 7.6 11.55 7.3 11.8 7.05 12.2 7.05 M13.4 12.65 L13.35 12.55 13.4 12.4 13.55 12.35 13.65 12.4 13.7 12.55 13.65 12.65 13.55 12.7 13.4 12.65 M11.2 15.8 L11.3 15.55 11.55 15.45 11.8 15.55 11.9 15.8 11.8 16.05 11.55 16.15 11.3 16.05 11.2 15.8 M12.95 17.45 L12.9 17.55 12.75 17.6 12.65 17.55 12.6 17.45 12.65 17.3 12.75 17.25 12.9 17.3 12.95 17.45" fill="#5f3921" fill-rule="evenodd" stroke="none"/>
    </g>
    <g id="sprite1" transform="matrix(1.0, 0.0, 0.0, 1.0, 0.0, 0.0)">
      <use height="20.15" transform="matrix(1.0, 0.0, 0.0, 1.0, 0.0, 0.0)" width="28.2" xlink:href="#shape3"/>
    </g>
    <g id="shape3" transform="matrix(1.0, 0.0, 0.0, 1.0, 0.0, 0.0)">
      <path d="M27.65 18.45 L27.4 18.95 Q26.2 20.8 23.4 19.8 19.6 18.5 17.35 14.05 14.8 9.1 9.75 7.4 4.1 5.65 0.0 10.3 1.0 6.85 3.7 4.15 7.2 0.65 11.9 0.05 L14.8 0.05 18.4 0.65 Q21.55 1.65 24.05 4.15 28.2 8.3 28.2 14.25 28.2 16.45 27.65 18.45" fill="#ffffff" fill-opacity="0.19607843" fill-rule="evenodd" stroke="none"/>
    </g>
  </defs>
</svg>
