<?xml version="1.0" encoding="UTF-8" standalone="no"?>
<svg xmlns:xlink="http://www.w3.org/1999/xlink" height="66.3px" width="66.075px" xmlns="http://www.w3.org/2000/svg">
  <g transform="matrix(1.5, 0.0, 0.0, 1.5, 0.0, 0.0)">
    <use height="44.15" transform="matrix(1.0, 0.0, 0.0, 1.0, 0.05, 0.05)" width="44.0" xlink:href="#shape0"/>
    <use height="0.0" transform="matrix(1.2125, 0.0, 0.0, 1.2137, 1.05, 1.05)" width="0.0" xlink:href="#sprite0"/>
    <use height="20.85" transform="matrix(1.0, 0.0, 0.0, 1.0, 0.75, 23.3)" width="42.65" xlink:href="#shape1"/>
    <use height="8.6" transform="matrix(1.2077, 0.0, 0.0, 1.2065, 0.8085, 0.8)" width="35.05" xlink:href="#sprite1"/>
    <use height="20.15" transform="matrix(1.1594, 0.0, 0.0, 1.1605, 5.55, 5.6)" width="28.2" xlink:href="#sprite2"/>
    <use height="44.0" transform="matrix(1.0, 0.0, 0.0, 1.0, 0.0, 0.0)" width="44.0" xlink:href="#shape4"/>
    <use height="0.0" transform="matrix(1.2125, 0.0, 0.0, 1.2125, 1.0, 0.95)" width="0.0" xlink:href="#sprite3"/>
    <use height="20.8" transform="matrix(1.0, 0.0, 0.0, 1.0, 0.7, 23.15)" width="42.65" xlink:href="#shape5"/>
    <use height="20.15" transform="matrix(1.1594, 0.0, 0.0, 1.1605, 5.8, 5.3)" width="28.2" xlink:href="#sprite2"/>
    <use height="8.6" transform="matrix(1.2077, 0.0, 0.0, 1.2065, 0.7085, 0.8)" width="35.05" xlink:href="#sprite1"/>
  </g>
  <defs>
    <g id="shape0" transform="matrix(1.0, 0.0, 0.0, 1.0, -0.05, -0.05)">
      <path d="M20.15 44.2 L16.4 44.2 16.4 43.15 Q18.05 44.15 20.15 44.2 M28.7 42.25 L33.1 42.25 33.1 44.2 28.7 44.2 28.7 42.25" fill="url(#gradient0)" fill-rule="evenodd" stroke="none"/>
      <path d="M16.4 43.15 L15.3 42.25 28.7 42.25 28.7 44.2 20.15 44.2 Q18.05 44.15 16.4 43.15" fill="url(#gradient1)" fill-rule="evenodd" stroke="none"/>
      <path d="M41.85 41.9 Q39.65 44.1 36.45 44.1 L7.65 44.1 Q4.5 44.1 2.3 41.9 0.05 39.7 0.05 36.5 L0.05 7.65 Q0.05 4.55 2.3 2.35 4.5 0.05 7.65 0.05 L36.45 0.05 Q39.6 0.05 41.85 2.35 44.05 4.55 44.05 7.65 L44.05 36.5 Q44.05 39.7 41.85 41.9" fill="url(#gradient2)" fill-rule="evenodd" stroke="none"/>
      <path d="M8.9 9.0 Q14.35 3.55 22.1 3.55 29.8 3.55 35.25 9.0 40.65 14.45 40.65 22.1 40.65 29.85 35.25 35.3 29.8 40.7 22.1 40.7 14.35 40.7 8.9 35.3 3.45 29.85 3.45 22.1 3.45 14.4 8.9 9.0" fill="url(#gradient3)" fill-rule="evenodd" stroke="none"/>
      <path d="M21.75 9.65 L20.75 9.85 22.15 6.1 23.55 9.95 23.45 9.95 22.5 9.6 22.5 11.1 22.55 11.1 Q26.45 11.2 29.4 14.05 L29.45 14.05 30.75 12.8 29.75 12.35 29.75 12.3 33.6 10.55 31.7 14.3 31.2 13.4 30.05 14.6 Q32.9 17.7 32.9 21.9 L32.9 22.1 33.7 22.1 33.45 21.1 37.3 22.75 33.4 23.95 33.4 23.9 33.7 22.9 32.9 22.9 Q32.55 26.55 29.9 29.3 L31.4 30.75 31.9 29.9 33.7 33.55 29.85 31.9 29.95 31.9 30.85 31.4 29.3 29.95 Q26.5 32.5 22.9 32.75 L22.85 32.75 22.85 34.45 23.75 34.2 22.35 38.0 21.0 34.15 21.05 34.15 22.05 34.5 22.05 32.75 Q17.85 32.75 14.8 29.95 L14.8 29.9 13.55 31.0 14.4 31.55 10.65 33.05 12.55 29.45 12.55 29.5 12.95 30.4 14.25 29.3 Q11.4 26.4 11.25 22.45 L11.25 22.4 10.35 22.35 10.65 23.3 6.8 21.7 10.7 20.5 10.7 20.55 10.35 21.55 11.25 21.6 Q11.35 17.7 13.95 14.85 L13.95 14.8 12.75 13.75 12.25 14.6 10.35 10.9 14.15 12.5 14.15 12.6 13.2 13.1 14.45 14.2 Q17.5 11.2 21.75 11.1 L21.75 9.65 M22.5 12.05 L21.75 12.05 Q17.95 12.2 15.2 14.9 L14.65 15.5 Q12.3 18.1 12.2 21.65 L12.2 22.45 Q12.4 26.0 14.95 28.7 L15.7 29.35 Q18.4 31.8 22.05 31.8 L22.85 31.8 Q26.15 31.55 29.2 28.65 31.6 26.15 31.95 22.85 L32.0 22.05 31.95 21.9 Q31.95 18.1 29.3 15.35 L29.3 15.4 28.75 14.7 Q26.1 12.2 22.5 12.05 M26.05 16.7 L25.25 17.7 Q26.6 20.8 24.5 23.5 L24.85 24.6 26.3 22.75 27.05 21.0 27.1 19.7 Q27.55 20.15 27.45 22.2 L27.05 23.05 25.1 25.35 25.4 26.55 24.9 26.4 24.55 25.8 23.35 26.4 Q22.9 26.3 23.85 25.3 L24.15 25.15 23.75 24.45 23.6 24.55 22.25 25.95 22.15 26.05 21.85 26.6 21.8 26.8 Q20.95 28.7 22.4 30.8 19.7 28.9 19.4 26.5 L19.35 26.4 19.35 25.85 19.35 25.7 Q19.4 23.9 20.75 21.75 L21.65 21.1 22.35 20.4 Q22.95 19.55 22.8 18.6 L22.75 18.2 Q22.2 16.4 20.45 16.9 L19.65 17.45 Q18.95 18.05 19.15 18.95 19.35 19.75 20.35 19.85 L20.9 19.65 Q21.35 19.35 21.35 18.6 21.05 17.65 20.1 18.1 L20.1 17.9 20.8 17.6 Q21.45 17.55 21.65 18.3 L21.7 19.2 21.7 19.3 21.2 20.25 20.55 20.6 Q19.9 20.9 19.3 20.6 L19.1 20.35 19.05 20.35 18.25 21.25 Q17.95 21.05 18.1 20.4 L18.7 19.75 18.6 19.6 18.55 19.55 Q17.8 18.0 19.1 16.65 L18.8 15.7 Q17.8 16.5 17.15 17.7 L16.6 18.95 16.4 19.65 Q16.05 19.0 16.65 17.1 17.4 15.7 18.55 14.9 L18.25 13.7 18.75 13.85 19.15 14.5 Q19.7 14.15 20.4 13.9 L23.9 13.75 Q24.2 13.95 22.6 14.3 21.75 14.3 20.55 14.75 20.05 14.9 19.6 15.2 L20.0 15.9 Q20.9 15.25 21.85 15.2 23.3 15.05 24.2 15.95 L24.7 16.55 25.55 15.7 25.95 15.2 Q26.45 15.5 26.15 16.4 L26.1 16.6 26.05 16.7" fill="#496125" fill-rule="evenodd" stroke="none"/>
      <path d="M40.9 22.1 Q40.9 30.0 35.3 35.55 29.8 41.2 21.9 41.2 13.95 41.2 8.45 35.55 2.9 30.0 2.9 22.1 2.9 14.15 8.45 8.65 13.95 3.1 21.9 3.1 29.8 3.1 35.3 8.65 40.9 14.15 40.9 22.1 M33.75 10.4 Q28.8 5.55 21.9 5.45 15.0 5.55 10.15 10.4 5.25 15.2 5.2 22.1 5.25 29.1 10.15 33.95 15.0 38.85 21.9 38.85 28.8 38.85 33.75 33.95 38.55 29.1 38.55 22.1 38.55 15.2 33.75 10.4" fill="url(#gradient4)" fill-rule="evenodd" stroke="none"/>
    </g>
    <linearGradient gradientTransform="matrix(0.0, -0.0555, -0.0554, 0.0, 22.5, 18.5)" gradientUnits="userSpaceOnUse" id="gradient0" spreadMethod="pad" x1="-819.2" x2="819.2">
      <stop offset="0.011764705882352941" stop-color="#e8e1b7"/>
      <stop offset="1.0" stop-color="#eed731"/>
    </linearGradient>
    <linearGradient gradientTransform="matrix(0.0, -0.0555, -0.0554, 0.0, 34.8, 18.5)" gradientUnits="userSpaceOnUse" id="gradient1" spreadMethod="pad" x1="-819.2" x2="819.2">
      <stop offset="0.011764705882352941" stop-color="#e8e1b7"/>
      <stop offset="1.0" stop-color="#eed731"/>
    </linearGradient>
    <linearGradient gradientTransform="matrix(0.0, -0.0283, -0.0551, 0.0, 22.65, 22.05)" gradientUnits="userSpaceOnUse" id="gradient2" spreadMethod="pad" x1="-819.2" x2="819.2">
      <stop offset="0.011764705882352941" stop-color="#9dae7c"/>
      <stop offset="1.0" stop-color="#7e8f45"/>
    </linearGradient>
    <linearGradient gradientTransform="matrix(0.0, -0.0173, -0.0173, 0.0, 22.1, 18.6)" gradientUnits="userSpaceOnUse" id="gradient3" spreadMethod="pad" x1="-819.2" x2="819.2">
      <stop offset="0.011764705882352941" stop-color="#d3d4b5"/>
      <stop offset="1.0" stop-color="#71a26f"/>
    </linearGradient>
    <linearGradient gradientTransform="matrix(1.0E-4, 0.0224, -0.0232, 1.0E-4, 21.95, 22.4)" gradientUnits="userSpaceOnUse" id="gradient4" spreadMethod="pad" x1="-819.2" x2="819.2">
      <stop offset="0.011764705882352941" stop-color="#516537"/>
      <stop offset="1.0" stop-color="#a8ce99"/>
    </linearGradient>
    <g id="shape1" transform="matrix(1.0, 0.0, 0.0, 1.0, -0.75, -23.3)">
      <path d="M0.9 33.0 Q1.2 30.65 2.45 29.45 L2.85 27.75 Q3.0 26.75 2.75 25.7 L2.45 24.65 1.8 23.3 2.85 24.4 3.7 25.6 4.0 27.0 Q4.1 27.9 3.4 29.7 2.75 31.3 2.6 33.5 L2.5 33.25 2.45 33.5 Q1.9 36.3 3.05 38.25 3.6 39.2 4.3 39.75 L4.0 39.25 4.1 39.3 4.35 39.8 Q4.95 40.55 5.8 40.7 6.9 40.9 7.95 40.0 9.2 39.05 8.25 37.7 L8.3 38.55 Q8.1 39.5 6.75 39.95 L5.75 40.15 5.75 40.05 5.65 38.85 Q5.6 37.1 7.05 36.2 8.55 35.25 10.05 36.8 L11.25 38.6 Q11.2 36.75 10.3 35.8 L10.45 35.95 Q11.15 36.7 11.45 37.65 L11.4 37.65 11.55 38.05 11.85 38.9 11.9 40.05 Q10.5 42.95 8.7 42.95 10.0 42.75 10.1 41.6 7.2 42.8 3.75 41.1 1.25 39.15 0.9 33.0" fill="#9ec087" fill-rule="evenodd" stroke="none"/>
      <path d="M2.45 33.5 L2.5 33.25 2.6 33.5 2.45 33.5" fill="#00632e" fill-rule="evenodd" stroke="none"/>
      <path d="M2.6 33.5 L2.65 34.8 Q3.0 36.55 3.85 37.7 L3.95 37.1 Q4.65 35.1 7.35 34.55 L9.25 35.0 10.3 35.8 Q11.2 36.75 11.25 38.6 L10.05 36.8 Q8.55 35.25 7.05 36.2 5.6 37.1 5.65 38.85 L5.75 40.05 5.75 40.15 6.75 39.95 Q8.1 39.5 8.3 38.55 L8.25 37.7 Q9.2 39.05 7.95 40.0 6.9 40.9 5.8 40.7 4.95 40.55 4.35 39.8 L4.1 39.3 4.0 39.25 4.3 39.75 Q3.6 39.2 3.05 38.25 1.9 36.3 2.45 33.5 L2.6 33.5 M4.0 39.25 L4.15 39.2 4.1 39.05 3.95 39.1 4.0 39.25" fill="#c0d6b1" fill-rule="evenodd" stroke="none"/>
      <path d="M11.9 40.05 Q11.8 41.2 11.15 42.3 10.15 44.1 7.05 44.15 L4.15 43.85 5.65 43.4 7.85 43.1 6.6 43.2 Q4.45 43.15 2.9 41.65 1.0 39.6 0.8 35.5 0.7 34.1 0.9 33.0 1.25 39.15 3.75 41.1 7.2 42.8 10.1 41.6 10.0 42.75 8.7 42.95 10.5 42.95 11.9 40.05" fill="#648a4a" fill-rule="evenodd" stroke="none"/>
      <path d="M4.0 39.25 L3.95 39.1 4.1 39.05 4.15 39.2 4.0 39.25" fill="#ccbf38" fill-rule="evenodd" stroke="none"/>
      <path d="M11.45 37.65 L11.55 38.05 11.4 37.65 11.45 37.65" fill="url(#gradient5)" fill-rule="evenodd" stroke="none"/>
      <path d="M41.55 33.5 Q41.4 31.3 40.75 29.7 40.05 27.9 40.15 27.0 L40.45 25.6 41.3 24.4 42.35 23.3 41.7 24.65 41.4 25.7 Q41.15 26.75 41.3 27.75 L41.7 29.45 Q42.95 30.65 43.25 33.0 42.9 39.15 40.4 41.1 36.95 42.8 34.05 41.6 34.15 42.75 35.45 42.95 33.65 42.95 32.25 40.05 32.2 39.5 32.3 38.9 L32.6 38.05 32.75 37.65 32.7 37.65 Q33.0 36.7 33.7 35.95 L33.85 35.8 Q32.95 36.75 32.9 38.6 33.35 37.65 34.1 36.8 35.6 35.25 37.1 36.2 38.55 37.1 38.5 38.85 L38.4 40.05 38.4 40.15 37.4 39.95 Q36.05 39.5 35.85 38.55 L35.9 37.7 Q34.95 39.05 36.2 40.0 37.25 40.9 38.35 40.7 39.2 40.55 39.8 39.8 L40.05 39.3 40.15 39.25 39.85 39.75 41.1 38.25 Q42.25 36.3 41.7 33.5 L41.65 33.25 41.55 33.5" fill="#9ec087" fill-rule="evenodd" stroke="none"/>
      <path d="M41.7 33.5 Q42.25 36.3 41.1 38.25 L39.85 39.75 40.15 39.25 40.05 39.3 39.8 39.8 Q39.2 40.55 38.35 40.7 37.25 40.9 36.2 40.0 34.95 39.05 35.9 37.7 L35.85 38.55 Q36.05 39.5 37.4 39.95 L38.4 40.15 38.4 40.05 38.5 38.85 Q38.55 37.1 37.1 36.2 35.6 35.25 34.1 36.8 33.35 37.65 32.9 38.6 32.95 36.75 33.85 35.8 L34.9 35.0 36.8 34.55 Q39.5 35.1 40.2 37.1 L40.3 37.7 Q41.15 36.55 41.5 34.8 L41.55 33.5 41.7 33.5 M40.15 39.25 L40.2 39.1 40.05 39.05 40.0 39.2 40.15 39.25" fill="#c0d6b1" fill-rule="evenodd" stroke="none"/>
      <path d="M41.55 33.5 L41.65 33.25 41.7 33.5 41.55 33.5" fill="#00632e" fill-rule="evenodd" stroke="none"/>
      <path d="M32.25 40.05 Q33.65 42.95 35.45 42.95 34.15 42.75 34.05 41.6 36.95 42.8 40.4 41.1 42.9 39.15 43.25 33.0 L43.35 35.5 Q43.15 39.6 41.25 41.65 39.7 43.15 37.55 43.2 L36.3 43.1 38.5 43.4 40.0 43.85 37.1 44.15 Q34.0 44.1 33.0 42.3 32.35 41.2 32.25 40.05" fill="#648a4a" fill-rule="evenodd" stroke="none"/>
      <path d="M40.15 39.25 L40.0 39.2 40.05 39.05 40.2 39.1 40.15 39.25" fill="#ccbf38" fill-rule="evenodd" stroke="none"/>
      <path d="M32.7 37.65 L32.75 37.65 32.6 38.05 32.7 37.65" fill="url(#gradient6)" fill-rule="evenodd" stroke="none"/>
    </g>
    <linearGradient gradientTransform="matrix(0.0, -0.025, -0.025, 0.0, 6.15, 31.6)" gradientUnits="userSpaceOnUse" id="gradient5" spreadMethod="pad" x1="-819.2" x2="819.2">
      <stop offset="0.011764705882352941" stop-color="#bed9a5"/>
      <stop offset="1.0" stop-color="#739416"/>
    </linearGradient>
    <linearGradient gradientTransform="matrix(0.0, -0.025, 0.025, 0.0, 38.0, 31.6)" gradientUnits="userSpaceOnUse" id="gradient6" spreadMethod="pad" x1="-819.2" x2="819.2">
      <stop offset="0.011764705882352941" stop-color="#bed9a5"/>
      <stop offset="1.0" stop-color="#739416"/>
    </linearGradient>
    <g id="sprite1" transform="matrix(1.0, 0.0, 0.0, 1.0, 0.2, 0.0)">
      <use height="8.6" transform="matrix(1.0, 0.0, 0.0, 1.0, -0.2, 0.0)" width="35.05" xlink:href="#shape2"/>
    </g>
    <g id="shape2" transform="matrix(1.0, 0.0, 0.0, 1.0, 0.2, 0.0)">
      <path d="M34.4 4.4 Q34.85 5.8 34.85 7.65 L34.85 8.6 Q34.8 6.95 34.4 5.7 33.0 1.3 27.2 1.3 L7.45 1.3 Q0.05 1.3 -0.2 8.5 L-0.2 7.65 Q-0.2 0.0 7.45 0.0 L27.2 0.0 Q33.0 0.0 34.4 4.4" fill="#e7deda" fill-rule="evenodd" stroke="none"/>
    </g>
    <g id="sprite2" transform="matrix(1.0, 0.0, 0.0, 1.0, 0.0, 0.0)">
      <use height="20.15" transform="matrix(1.0, 0.0, 0.0, 1.0, 0.0, 0.0)" width="28.2" xlink:href="#shape3"/>
    </g>
    <g id="shape3" transform="matrix(1.0, 0.0, 0.0, 1.0, 0.0, 0.0)">
      <path d="M27.65 18.45 L27.4 18.95 Q26.2 20.8 23.4 19.8 19.6 18.5 17.35 14.05 14.8 9.1 9.75 7.4 4.1 5.65 0.0 10.3 1.0 6.85 3.7 4.15 7.2 0.65 11.9 0.05 L14.8 0.05 18.4 0.65 Q21.55 1.65 24.05 4.15 28.2 8.3 28.2 14.25 28.2 16.45 27.65 18.45" fill="#ffffff" fill-opacity="0.19607843" fill-rule="evenodd" stroke="none"/>
    </g>
    <g id="shape4" transform="matrix(1.0, 0.0, 0.0, 1.0, 0.0, 0.0)">
      <path d="M41.8 41.8 Q39.6 44.0 36.4 44.0 L7.6 44.0 Q4.45 44.0 2.25 41.8 0.0 39.6 0.0 36.4 L0.0 7.6 Q0.0 4.45 2.25 2.25 4.45 0.0 7.6 0.0 L36.4 0.0 Q39.55 0.0 41.8 2.25 44.0 4.45 44.0 7.6 L44.0 36.4 Q44.0 39.6 41.8 41.8" fill="url(#gradient7)" fill-rule="evenodd" stroke="none"/>
      <path d="M8.85 8.95 Q14.3 3.5 22.05 3.5 29.75 3.5 35.2 8.95 40.6 14.4 40.6 22.05 40.6 29.75 35.2 35.2 29.75 40.6 22.05 40.6 14.3 40.6 8.85 35.2 3.4 29.75 3.4 22.05 3.4 14.3 8.85 8.95" fill="url(#gradient8)" fill-rule="evenodd" stroke="none"/>
      <path d="M22.5 12.05 L21.75 12.05 Q17.95 12.2 15.2 14.9 L14.65 15.5 Q12.3 18.1 12.2 21.65 L12.2 22.45 Q12.4 26.0 14.95 28.7 L15.7 29.35 Q18.4 31.8 22.05 31.8 L22.85 31.8 Q26.15 31.55 29.2 28.65 31.6 26.15 31.95 22.85 L32.0 22.05 31.95 21.9 Q31.95 18.1 29.3 15.35 L29.3 15.4 28.75 14.7 Q26.1 12.2 22.5 12.05 M21.75 9.65 L20.75 9.85 22.15 6.1 23.55 9.95 23.45 9.95 22.5 9.6 22.5 11.1 22.55 11.1 Q26.45 11.2 29.4 14.05 L29.45 14.05 30.75 12.8 29.75 12.35 29.75 12.3 33.6 10.55 31.7 14.3 31.2 13.4 30.05 14.6 Q32.9 17.7 32.9 21.9 L32.9 22.1 33.7 22.1 33.45 21.1 37.3 22.75 33.4 23.95 33.4 23.9 33.7 22.9 32.9 22.9 Q32.55 26.55 29.9 29.3 L31.4 30.75 31.9 29.9 33.7 33.55 29.85 31.9 29.95 31.9 30.85 31.4 29.3 29.95 Q26.5 32.5 22.9 32.75 L22.85 32.75 22.85 34.45 23.75 34.2 22.35 38.0 21.0 34.15 21.05 34.15 22.05 34.5 22.05 32.75 Q17.85 32.75 14.8 29.95 L14.8 29.9 13.55 31.0 14.4 31.55 10.65 33.05 12.55 29.45 12.55 29.5 12.95 30.4 14.25 29.3 Q11.4 26.4 11.25 22.45 L11.25 22.4 10.35 22.35 10.65 23.3 6.8 21.7 10.7 20.5 10.7 20.55 10.35 21.55 11.25 21.6 Q11.35 17.7 13.95 14.85 L13.95 14.8 12.75 13.75 12.25 14.6 10.35 10.9 14.15 12.5 14.15 12.6 13.2 13.1 14.45 14.2 Q17.5 11.2 21.75 11.1 L21.75 9.65 M26.05 16.7 L25.25 17.7 Q26.6 20.8 24.5 23.5 L24.85 24.6 26.3 22.75 27.05 21.0 27.1 19.7 Q27.55 20.15 27.45 22.2 L27.05 23.05 25.1 25.35 25.4 26.55 24.9 26.4 24.55 25.8 23.35 26.4 Q22.9 26.3 23.85 25.3 L24.15 25.15 23.75 24.45 23.6 24.55 22.25 25.95 22.15 26.05 21.85 26.6 21.8 26.8 Q20.95 28.7 22.4 30.8 19.7 28.9 19.4 26.5 L19.35 26.4 19.35 25.85 19.35 25.7 Q19.4 23.9 20.75 21.75 L21.65 21.1 22.35 20.4 Q22.95 19.55 22.8 18.6 L22.75 18.2 Q22.2 16.4 20.45 16.9 L19.65 17.45 Q18.95 18.05 19.15 18.95 19.35 19.75 20.35 19.85 L20.9 19.65 Q21.35 19.35 21.35 18.6 21.05 17.65 20.1 18.1 L20.1 17.9 20.8 17.6 Q21.45 17.55 21.65 18.3 L21.7 19.2 21.7 19.3 21.2 20.25 20.55 20.6 Q19.9 20.9 19.3 20.6 L19.1 20.35 19.05 20.35 18.25 21.25 Q17.95 21.05 18.1 20.4 L18.7 19.75 18.6 19.6 18.55 19.55 Q17.8 18.0 19.1 16.65 L18.8 15.7 Q17.8 16.5 17.15 17.7 L16.6 18.95 16.4 19.65 Q16.05 19.0 16.65 17.1 17.4 15.7 18.55 14.9 L18.25 13.7 18.75 13.85 19.15 14.5 Q19.7 14.15 20.4 13.9 L23.9 13.75 Q24.2 13.95 22.6 14.3 21.75 14.3 20.55 14.75 20.05 14.9 19.6 15.2 L20.0 15.9 Q20.9 15.25 21.85 15.2 23.3 15.05 24.2 15.95 L24.7 16.55 25.55 15.7 25.95 15.2 Q26.45 15.5 26.15 16.4 L26.1 16.6 26.05 16.7" fill="#496125" fill-rule="evenodd" stroke="none"/>
      <path d="M33.7 10.3 Q28.75 5.45 21.85 5.4 14.95 5.45 10.1 10.3 5.2 15.15 5.15 22.05 5.2 29.0 10.1 33.85 14.95 38.75 21.85 38.75 28.75 38.75 33.7 33.85 38.5 29.0 38.5 22.05 38.5 15.15 33.7 10.3 M40.85 22.05 Q40.85 29.9 35.25 35.4 29.75 41.1 21.85 41.1 13.9 41.1 8.4 35.4 2.85 29.9 2.85 22.05 2.85 14.1 8.4 8.6 13.9 3.0 21.85 3.0 29.75 3.0 35.25 8.6 40.85 14.1 40.85 22.05" fill="url(#gradient9)" fill-rule="evenodd" stroke="none"/>
    </g>
    <linearGradient gradientTransform="matrix(0.0, -0.0283, -0.0551, 0.0, 22.6, 21.95)" gradientUnits="userSpaceOnUse" id="gradient7" spreadMethod="pad" x1="-819.2" x2="819.2">
      <stop offset="0.011764705882352941" stop-color="#9dae7c"/>
      <stop offset="1.0" stop-color="#7e8f45"/>
    </linearGradient>
    <linearGradient gradientTransform="matrix(0.0, -0.0173, -0.0173, 0.0, 22.05, 18.5)" gradientUnits="userSpaceOnUse" id="gradient8" spreadMethod="pad" x1="-819.2" x2="819.2">
      <stop offset="0.011764705882352941" stop-color="#d3d4b5"/>
      <stop offset="1.0" stop-color="#71a26f"/>
    </linearGradient>
    <linearGradient gradientTransform="matrix(1.0E-4, 0.0223, -0.0232, 1.0E-4, 21.9, 22.3)" gradientUnits="userSpaceOnUse" id="gradient9" spreadMethod="pad" x1="-819.2" x2="819.2">
      <stop offset="0.011764705882352941" stop-color="#516537"/>
      <stop offset="1.0" stop-color="#a8ce99"/>
    </linearGradient>
    <g id="shape5" transform="matrix(1.0, 0.0, 0.0, 1.0, -0.7, -23.15)">
      <path d="M0.85 32.85 Q1.15 30.5 2.4 29.3 L2.8 27.65 Q2.95 26.6 2.7 25.55 L2.4 24.5 1.75 23.15 2.8 24.25 3.65 25.5 3.95 26.85 Q4.05 27.75 3.35 29.55 2.7 31.15 2.55 33.35 L2.45 33.05 2.4 33.35 Q1.85 36.15 3.0 38.1 3.55 39.05 4.25 39.55 L3.95 39.1 4.05 39.15 4.25 39.55 4.3 39.65 Q4.9 40.4 5.75 40.55 6.85 40.75 7.9 39.85 9.15 38.85 8.2 37.55 L8.25 38.4 Q8.05 39.35 6.7 39.8 L5.7 39.95 5.7 39.9 5.6 38.7 Q5.55 36.95 7.0 36.05 8.5 35.1 10.0 36.65 L11.2 38.45 Q11.15 36.6 10.25 35.65 L10.4 35.8 Q11.1 36.55 11.4 37.5 L11.35 37.5 11.5 37.9 11.8 38.75 11.85 39.9 Q10.45 42.8 8.65 42.8 9.95 42.6 10.05 41.4 7.15 42.65 3.7 40.95 1.2 39.0 0.85 32.85" fill="#9ec087" fill-rule="evenodd" stroke="none"/>
      <path d="M2.55 33.35 L2.6 34.65 Q2.95 36.4 3.8 37.55 L3.9 36.95 Q4.6 34.95 7.3 34.4 L9.2 34.85 10.25 35.65 Q11.15 36.6 11.2 38.45 L10.0 36.65 Q8.5 35.1 7.0 36.05 5.55 36.95 5.6 38.7 L5.7 39.9 5.7 39.95 6.7 39.8 Q8.05 39.35 8.25 38.4 L8.2 37.55 Q9.15 38.85 7.9 39.85 6.85 40.75 5.75 40.55 4.9 40.4 4.3 39.65 L4.25 39.55 4.05 39.15 3.95 39.1 4.1 39.05 4.05 38.85 3.9 38.95 3.95 39.1 4.25 39.55 Q3.55 39.05 3.0 38.1 1.85 36.15 2.4 33.35 L2.55 33.35" fill="#c0d6b1" fill-rule="evenodd" stroke="none"/>
      <path d="M2.4 33.35 L2.45 33.05 2.55 33.35 2.4 33.35" fill="#00632e" fill-rule="evenodd" stroke="none"/>
      <path d="M11.85 39.9 Q11.75 41.0 11.1 42.1 10.1 43.9 7.0 43.95 L4.1 43.7 5.6 43.2 7.8 42.95 6.55 43.05 Q4.4 43.0 2.85 41.5 0.95 39.45 0.75 35.35 0.65 33.95 0.85 32.85 1.2 39.0 3.7 40.95 7.15 42.65 10.05 41.4 9.95 42.6 8.65 42.8 10.45 42.8 11.85 39.9" fill="#648a4a" fill-rule="evenodd" stroke="none"/>
      <path d="M3.95 39.1 L3.9 38.95 4.05 38.85 4.1 39.05 3.95 39.1" fill="#ccbf38" fill-rule="evenodd" stroke="none"/>
      <path d="M11.4 37.5 L11.5 37.9 11.35 37.5 11.4 37.5" fill="url(#gradient10)" fill-rule="evenodd" stroke="none"/>
      <path d="M41.5 33.35 Q41.35 31.15 40.7 29.55 40.0 27.75 40.1 26.85 L40.4 25.5 41.25 24.25 42.3 23.15 41.65 24.5 41.35 25.55 Q41.1 26.6 41.25 27.65 L41.65 29.3 Q42.9 30.5 43.2 32.85 42.85 39.0 40.35 40.95 36.9 42.65 34.0 41.4 34.1 42.6 35.4 42.8 33.6 42.8 32.2 39.9 32.15 39.35 32.25 38.75 L32.55 37.9 32.7 37.5 32.65 37.5 Q32.95 36.55 33.65 35.8 L33.8 35.65 Q32.9 36.6 32.85 38.45 33.3 37.5 34.05 36.65 35.55 35.1 37.05 36.05 38.5 36.95 38.45 38.7 L38.35 39.9 38.35 39.95 37.35 39.8 Q36.0 39.35 35.8 38.4 L35.85 37.55 Q34.9 38.85 36.15 39.85 37.2 40.75 38.3 40.55 39.15 40.4 39.75 39.65 L39.85 39.55 41.05 38.1 Q42.2 36.15 41.65 33.35 L41.6 33.05 41.5 33.35 M39.85 39.55 L40.0 39.15 40.1 39.1 39.85 39.55" fill="#9ec087" fill-rule="evenodd" stroke="none"/>
      <path d="M41.65 33.35 Q42.2 36.15 41.05 38.1 L39.85 39.55 39.75 39.65 Q39.15 40.4 38.3 40.55 37.2 40.75 36.15 39.85 34.9 38.85 35.85 37.55 L35.8 38.4 Q36.0 39.35 37.35 39.8 L38.35 39.95 38.35 39.9 38.45 38.7 Q38.5 36.95 37.05 36.05 35.55 35.1 34.05 36.65 33.3 37.5 32.85 38.45 32.9 36.6 33.8 35.65 L34.85 34.85 36.75 34.4 Q39.45 34.95 40.15 36.95 L40.25 37.55 Q41.1 36.4 41.45 34.65 L41.5 33.35 41.65 33.35 M39.85 39.55 L40.1 39.1 40.0 39.15 39.85 39.55 M40.1 39.1 L40.15 38.95 40.0 38.85 39.95 39.05 40.1 39.1" fill="#c0d6b1" fill-rule="evenodd" stroke="none"/>
      <path d="M41.5 33.35 L41.6 33.05 41.65 33.35 41.5 33.35" fill="#00632e" fill-rule="evenodd" stroke="none"/>
      <path d="M32.2 39.9 Q33.6 42.8 35.4 42.8 34.1 42.6 34.0 41.4 36.9 42.65 40.35 40.95 42.85 39.0 43.2 32.85 L43.3 35.35 Q43.1 39.45 41.2 41.5 39.65 43.0 37.5 43.05 L36.25 42.95 38.45 43.2 39.95 43.7 37.05 43.95 Q33.95 43.9 32.95 42.1 32.3 41.0 32.2 39.9" fill="#648a4a" fill-rule="evenodd" stroke="none"/>
      <path d="M40.1 39.1 L39.95 39.05 40.0 38.85 40.15 38.95 40.1 39.1" fill="#ccbf38" fill-rule="evenodd" stroke="none"/>
      <path d="M32.65 37.5 L32.7 37.5 32.55 37.9 32.65 37.5" fill="url(#gradient11)" fill-rule="evenodd" stroke="none"/>
    </g>
    <linearGradient gradientTransform="matrix(0.0, -0.025, -0.025, 0.0, 6.1, 31.45)" gradientUnits="userSpaceOnUse" id="gradient10" spreadMethod="pad" x1="-819.2" x2="819.2">
      <stop offset="0.011764705882352941" stop-color="#bed9a5"/>
      <stop offset="1.0" stop-color="#739416"/>
    </linearGradient>
    <linearGradient gradientTransform="matrix(0.0, -0.025, 0.025, 0.0, 37.9, 31.45)" gradientUnits="userSpaceOnUse" id="gradient11" spreadMethod="pad" x1="-819.2" x2="819.2">
      <stop offset="0.011764705882352941" stop-color="#bed9a5"/>
      <stop offset="1.0" stop-color="#739416"/>
    </linearGradient>
  </defs>
</svg>
