<?xml version="1.0" encoding="UTF-8" standalone="no"?>
<svg xmlns:xlink="http://www.w3.org/1999/xlink" height="66.0px" width="66.075px" xmlns="http://www.w3.org/2000/svg">
  <g transform="matrix(1.5, 0.0, 0.0, 1.5, 0.0, 0.0)">
    <use height="43.95" transform="matrix(1.0, 0.0, 0.0, 1.0, 0.0, 0.0)" width="44.05" xlink:href="#shape0"/>
    <use height="0.0" transform="matrix(1.2077, 0.0, 0.0, 1.2077, 0.8, 0.75)" width="0.0" xlink:href="#sprite0"/>
    <use height="20.7" transform="matrix(1.2077, 0.0, 0.0, 1.2077, 0.6, 19.0)" width="7.3" xlink:href="#sprite1"/>
    <use height="24.05" transform="matrix(1.0, 0.0, 0.0, 1.0, 1.2, 18.55)" width="8.5" xlink:href="#shape2"/>
    <use height="12.1" transform="matrix(1.2077, 0.0, 0.0, 1.2077, 2.0896, 27.5)" width="5.7" xlink:href="#sprite2"/>
    <use height="18.7" transform="matrix(1.1919, 0.0, 0.0, 1.1919, 1.15, 18.25)" width="5.7" xlink:href="#sprite3"/>
    <use height="7.0" transform="matrix(1.1919, 0.0, 0.0, 1.1919, 3.1, 32.3404)" width="3.35" xlink:href="#sprite4"/>
    <use height="22.75" transform="matrix(1.0, 0.0, 0.0, 1.0, 1.85, 18.95)" width="7.0" xlink:href="#shape6"/>
    <use height="11.6" transform="matrix(1.1919, 0.0, 0.0, 1.1919, 1.05, 29.65)" width="6.9" xlink:href="#sprite5"/>
    <use height="11.1" transform="matrix(1.1919, 0.0, 0.0, 1.1919, 1.3, 29.65)" width="6.45" xlink:href="#sprite6"/>
    <use height="11.8" transform="matrix(1.1919, 0.0, 0.0, 1.1919, 1.05, 28.35)" width="6.5" xlink:href="#sprite7"/>
    <use height="18.7" transform="matrix(1.1919, 0.0, 0.0, 1.1919, 35.45, 18.25)" width="5.7" xlink:href="#sprite8"/>
    <use height="7.0" transform="matrix(1.1919, 0.0, 0.0, 1.1919, 36.25, 32.3404)" width="3.35" xlink:href="#sprite9"/>
    <use height="22.8" transform="matrix(1.0, 0.0, 0.0, 1.0, 34.6, 18.95)" width="7.05" xlink:href="#shape12"/>
    <use height="11.6" transform="matrix(1.1919, 0.0, 0.0, 1.1919, 34.0404, 29.65)" width="6.9" xlink:href="#sprite10"/>
    <use height="11.1" transform="matrix(1.1919, 0.0, 0.0, 1.1919, 34.4596, 29.65)" width="6.35" xlink:href="#sprite11"/>
    <use height="11.8" transform="matrix(1.1919, 0.0, 0.0, 1.1919, 34.6096, 28.35)" width="6.45" xlink:href="#sprite12"/>
    <use height="8.6" transform="matrix(1.2077, 0.0, 0.0, 1.2065, 0.8085, 0.55)" width="35.05" xlink:href="#sprite13"/>
    <use height="20.15" transform="matrix(1.1594, 0.0, 0.0, 1.1605, 5.8, 5.6)" width="28.2" xlink:href="#sprite14"/>
  </g>
  <defs>
    <g id="shape0" transform="matrix(1.0, 0.0, 0.0, 1.0, 0.0, 0.0)">
      <path d="M16.75 29.75 L18.9 31.65 19.0 31.7 Q19.3 25.75 18.85 19.85 L18.1 20.95 17.1 21.6 16.0 21.2 16.65 20.05 16.9 19.1 17.55 18.1 16.4 18.35 15.5 19.0 13.95 18.0 15.1 17.55 16.15 16.9 14.4 15.75 13.3 14.95 15.0 14.5 16.25 14.75 18.55 15.3 19.75 17.05 20.85 16.9 21.35 16.85 21.45 15.1 21.45 13.1 Q21.65 11.15 21.45 9.75 21.55 7.5 21.1 6.75 L21.45 6.4 22.45 6.25 23.55 7.25 23.05 8.45 22.75 11.75 22.95 12.85 22.85 15.1 22.85 16.8 Q23.15 17.25 23.7 16.95 L24.5 16.3 25.0 15.2 26.6 14.65 29.1 14.4 30.75 15.05 27.45 17.0 28.3 17.5 30.2 19.25 26.45 18.3 27.05 19.5 28.6 20.95 26.65 20.5 25.6 19.9 Q25.0 26.05 25.35 31.9 L25.75 31.6 28.65 29.05 28.2 31.55 32.1 30.35 29.35 33.05 34.5 33.05 Q29.55 38.65 22.25 39.1 L21.6 39.1 20.45 39.05 Q13.95 38.25 9.35 33.05 L15.35 33.05 12.6 30.35 16.5 31.55 16.2 29.75 16.75 29.75 M34.2 19.25 L32.95 21.7 32.8 22.1 32.4 22.25 32.05 22.1 31.85 21.7 32.15 21.25 33.95 18.9 Q35.45 16.9 34.2 19.25 M12.6 20.75 L12.2 20.95 11.75 20.75 10.9 18.6 Q10.2 16.6 10.65 17.1 L11.75 18.65 12.6 19.9 12.8 20.35 12.6 20.75 M14.4 26.3 L13.7 25.25 Q12.95 24.25 13.55 24.85 L14.45 25.85 14.75 26.3 14.7 26.4 14.6 26.5 14.45 26.4 14.4 26.3 M12.45 26.2 L14.05 27.75 14.3 28.3 14.05 28.85 13.5 29.05 12.95 28.85 12.35 27.8 11.5 25.9 Q11.05 24.85 12.45 26.2 M9.55 27.05 L9.2 27.35 8.75 27.25 7.35 25.45 Q6.2 23.65 6.7 24.05 L8.2 25.25 8.95 26.2 Q8.7 26.3 9.2 26.6 L9.55 27.05 M36.7 25.8 L35.1 27.55 34.9 27.85 34.5 27.9 34.25 27.7 34.2 27.3 34.55 27.0 36.55 25.45 Q38.25 24.1 36.7 25.8 M32.1 25.5 L34.45 22.7 Q35.5 21.5 33.8 25.0 L31.8 28.75 31.15 29.05 Q30.75 29.05 30.45 28.75 L30.2 28.1 Q30.2 27.65 30.45 27.35 L32.1 25.5" fill="#2e5d6b" fill-rule="evenodd" stroke="none"/>
      <path d="M21.8 2.25 Q30.15 2.25 36.05 8.15 42.0 14.1 42.0 22.4 42.0 30.75 36.05 36.65 30.15 42.6 21.8 42.6 13.45 42.6 7.55 36.65 1.65 30.75 1.65 22.4 1.65 14.1 7.55 8.15 13.45 2.25 21.8 2.25" fill="url(#gradient0)" fill-rule="evenodd" stroke="none"/>
      <path d="M21.4 17.75 L22.35 22.25 18.35 23.35 18.35 23.45 Q18.55 25.05 17.85 26.05 L17.0 27.05 16.95 27.05 16.6 27.2 Q15.45 27.8 14.35 28.0 L13.55 28.0 13.35 28.0 Q13.15 29.55 13.2 31.7 9.55 32.15 7.8 28.8 9.3 26.35 10.05 23.65 12.2 22.25 12.4 20.25 L15.5 19.4 16.45 23.9 15.6 24.1 15.9 24.8 16.15 25.05 16.2 25.4 Q15.35 25.5 14.75 24.6 14.05 25.3 13.75 26.5 L14.05 26.5 16.35 25.8 16.4 25.7 16.65 25.5 Q17.35 24.7 17.2 23.65 L16.9 23.75 15.95 19.25 21.4 17.75 M21.3 6.4 L21.25 6.45 Q21.85 10.0 19.9 12.85 17.9 15.85 14.35 16.45 10.8 17.2 7.8 15.1 7.05 14.6 6.45 13.9 6.2 13.7 6.3 13.4 6.25 13.05 6.5 12.85 L7.0 12.65 Q7.35 12.7 7.6 12.9 L8.65 13.85 Q11.1 15.55 14.1 15.05 16.95 14.5 18.65 11.95 20.25 9.6 19.85 6.7 L19.5 5.55 19.3 5.1 20.9 5.1 21.05 5.55 21.3 6.4 M40.85 26.25 L40.85 27.65 Q40.4 27.3 39.8 27.1 38.15 26.4 36.45 27.1 34.5 27.85 33.85 29.5 L33.65 30.35 33.55 31.2 Q33.65 32.95 35.1 34.3 L35.8 34.8 34.0 34.8 Q32.85 33.55 32.5 32.2 L32.4 31.85 32.35 31.7 Q32.2 30.9 32.4 30.05 32.5 29.3 32.9 28.6 L33.2 28.3 Q34.0 26.8 36.0 26.0 38.15 25.1 40.25 25.95 L40.85 26.25 M40.85 20.95 L40.85 22.75 Q37.85 21.9 34.95 23.05 31.5 24.5 30.15 27.9 29.85 28.55 29.7 29.3 L29.7 29.35 29.55 31.4 Q29.65 34.2 31.25 36.35 L31.25 37.95 30.2 37.95 Q27.85 35.15 27.7 31.5 L27.8 29.8 27.8 29.6 27.85 29.3 27.85 29.05 27.95 29.0 Q28.1 28.15 28.4 27.25 30.05 23.2 34.15 21.45 37.45 20.1 40.85 20.95 M21.75 17.6 L32.25 14.7 32.8 17.35 22.35 20.25 21.75 17.6 M37.9 28.5 L38.45 28.55 38.45 30.95 37.25 30.95 37.25 32.25 35.6 32.25 35.35 31.25 Q35.35 30.15 36.1 29.35 36.8 28.5 37.9 28.5 M12.5 35.7 Q13.6 33.05 16.3 31.9 18.95 30.8 21.7 31.9 24.3 32.95 25.45 35.55 L25.5 35.6 Q26.15 37.35 25.95 39.15 L25.75 39.55 25.2 39.65 24.85 39.4 24.7 38.95 Q24.95 37.5 24.35 36.1 23.45 33.8 21.3 32.95 19.0 32.05 16.8 32.95 14.55 33.9 13.65 36.15 L13.25 37.45 13.05 37.8 12.6 37.95 12.2 37.65 12.1 37.25 12.5 35.7 M15.35 36.95 Q15.85 35.55 17.5 34.9 L20.3 34.85 Q21.75 35.4 22.35 36.85 L22.35 36.9 Q22.9 38.4 22.35 39.75 L22.1 39.9 21.85 40.0 21.6 39.7 Q21.55 39.6 21.65 39.45 22.05 38.35 21.65 37.2 L21.6 37.15 Q21.15 36.05 20.0 35.6 18.9 35.15 17.8 35.6 16.5 36.1 16.1 37.2 15.8 37.95 15.9 38.6 L15.8 38.85 15.55 39.0 15.2 38.95 15.1 38.65 Q14.95 37.8 15.35 36.95 M9.15 20.85 L9.5 20.35 11.65 21.1 Q11.6 22.05 10.6 22.7 L9.15 20.85 M16.15 5.1 L16.5 5.55 17.15 7.2 Q17.5 9.15 16.45 10.75 15.35 12.25 13.5 12.55 11.45 13.05 9.85 11.95 8.95 11.35 8.5 10.4 L8.45 10.0 8.65 9.75 9.1 9.65 9.4 9.9 Q9.65 10.65 10.45 11.1 11.6 11.95 13.3 11.65 14.75 11.4 15.55 10.15 16.45 8.9 16.25 7.45 L16.2 7.35 Q15.9 6.25 15.25 5.55 L14.7 5.1 16.15 5.1 M35.75 16.9 Q35.9 17.35 35.65 17.8 L35.05 18.3 34.3 18.15 33.85 17.4 33.35 14.75 Q33.15 14.3 33.4 13.8 33.6 13.45 34.05 13.35 L34.75 13.4 35.2 14.2 35.75 16.9" fill="#2e5d6b" fill-rule="evenodd" stroke="none"/>
      <path d="M17.3 38.95 Q17.0 38.3 17.3 37.65 17.55 36.95 18.25 36.7 18.9 36.45 19.55 36.7 20.25 37.0 20.55 37.65 20.8 38.25 20.55 38.95 L19.6 39.9 Q18.95 40.2 18.25 39.9 17.6 39.65 17.3 38.95" fill="#2e5d6b" fill-rule="evenodd" stroke="none"/>
      <path d="M13.3 10.15 Q12.45 10.35 11.75 9.85 11.0 9.35 10.8 8.45 10.65 7.6 11.15 6.85 11.7 6.1 12.55 5.95 13.45 5.8 14.2 6.3 14.9 6.8 15.05 7.65 15.25 8.5 14.7 9.25 14.2 10.0 13.3 10.15" fill="#2e5d6b" fill-rule="evenodd" stroke="none"/>
      <path d="M22.05 4.65 Q14.85 4.65 9.8 9.75 4.7 14.8 4.7 22.0 4.7 29.15 9.8 34.25 14.85 39.3 22.05 39.3 29.25 39.3 34.25 34.25 39.3 29.15 39.3 22.0 39.3 14.8 34.25 9.75 29.15 4.65 22.05 4.65 M0.0 7.6 Q0.0 4.5 2.25 2.25 4.5 0.0 7.6 0.0 L36.4 0.0 Q39.55 0.0 41.8 2.25 44.05 4.5 44.05 7.6 L44.05 36.35 Q44.05 39.5 41.8 41.75 39.55 43.95 36.4 43.95 L7.6 43.95 Q4.5 43.95 2.25 41.75 0.0 39.5 0.0 36.35 L0.0 7.6" fill="url(#gradient1)" fill-rule="evenodd" stroke="none"/>
      <path d="M8.45 8.8 Q14.05 3.2 22.0 3.2 29.85 3.2 35.4 8.8 41.0 14.35 41.0 22.2 41.0 30.1 35.4 35.65 29.85 41.2 22.0 41.2 14.05 41.2 8.45 35.65 2.95 30.1 2.95 22.2 2.95 14.35 8.45 8.8 M5.35 22.2 Q5.35 29.1 10.25 34.0 15.05 38.8 22.0 38.8 28.8 38.8 33.7 34.0 38.6 29.1 38.6 22.2 38.6 15.3 33.7 10.45 28.85 5.6 22.0 5.55 15.05 5.6 10.25 10.45 5.35 15.3 5.35 22.2" fill="url(#gradient2)" fill-rule="evenodd" stroke="none"/>
    </g>
    <linearGradient gradientTransform="matrix(0.0, -0.0189, -0.0189, 0.0, 21.8, 18.6)" gradientUnits="userSpaceOnUse" id="gradient0" spreadMethod="pad" x1="-819.2" x2="819.2">
      <stop offset="0.011764705882352941" stop-color="#b3f9e4"/>
      <stop offset="1.0" stop-color="#5bbbff"/>
    </linearGradient>
    <linearGradient gradientTransform="matrix(0.0, -0.044, -0.044, 0.0, 22.0, -1.2)" gradientUnits="userSpaceOnUse" id="gradient1" spreadMethod="pad" x1="-819.2" x2="819.2">
      <stop offset="0.011764705882352941" stop-color="#90d1d1"/>
      <stop offset="0.9764705882352941" stop-color="#003459"/>
    </linearGradient>
    <linearGradient gradientTransform="matrix(0.0, -0.0168, -0.0168, 0.0, 21.95, 26.8)" gradientUnits="userSpaceOnUse" id="gradient2" spreadMethod="pad" x1="-819.2" x2="819.2">
      <stop offset="0.011764705882352941" stop-color="#dbf7ff"/>
      <stop offset="0.9764705882352941" stop-color="#384759"/>
    </linearGradient>
    <g id="sprite1" transform="matrix(1.0, 0.0, 0.0, 1.0, 0.0, 0.0)">
      <use height="20.7" transform="matrix(1.0, 0.0, 0.0, 1.0, 0.0, 0.0)" width="7.3" xlink:href="#shape1"/>
    </g>
    <g id="shape1" transform="matrix(1.0, 0.0, 0.0, 1.0, 0.0, 0.0)">
      <path d="M1.5 3.3 Q1.25 4.9 1.35 6.95 1.55 10.95 3.35 13.0 L6.75 16.9 Q7.8 18.5 6.9 19.6 5.25 21.5 2.85 20.1 -0.1 18.35 0.0 11.65 0.1 5.2 1.1 1.95 1.6 0.35 2.05 0.0 L1.5 3.3" fill="#6c6a85" fill-rule="evenodd" stroke="none"/>
    </g>
    <g id="shape2" transform="matrix(1.0, 0.0, 0.0, 1.0, -1.2, -18.55)">
      <path d="M2.8 21.45 L2.7 25.8 Q3.15 30.7 5.2 33.2 L9.05 38.05 Q10.35 40.05 9.1 41.35 7.05 43.6 4.25 41.75 0.8 39.5 1.25 31.4 1.75 23.7 2.55 20.35 L3.2 18.55 2.8 21.45" fill="url(#gradient3)" fill-rule="evenodd" stroke="none"/>
    </g>
    <linearGradient gradientTransform="matrix(0.0, -0.0105, -0.0105, 0.0, 5.4, 33.3)" gradientUnits="userSpaceOnUse" id="gradient3" spreadMethod="pad" x1="-819.2" x2="819.2">
      <stop offset="0.011764705882352941" stop-color="#dbf7ff"/>
      <stop offset="0.9764705882352941" stop-color="#384759"/>
    </linearGradient>
    <g id="sprite2" transform="matrix(1.0, 0.0, 0.0, 1.0, 0.05, 0.0)">
      <use height="12.1" transform="matrix(1.0, 0.0, 0.0, 1.0, -0.05, 0.0)" width="5.7" xlink:href="#shape3"/>
    </g>
    <g id="shape3" transform="matrix(1.0, 0.0, 0.0, 1.0, 0.05, 0.0)">
      <path d="M1.45 10.9 Q3.25 11.3 3.25 9.75 3.25 8.85 2.15 7.35 L0.45 4.75 Q-0.3 2.9 0.1 0.0 0.15 0.9 0.5 2.05 1.15 4.35 2.45 5.8 L5.15 8.65 Q6.15 9.9 5.1 11.0 2.85 13.25 1.45 10.9" fill="#f2f2f2" fill-rule="evenodd" stroke="none"/>
    </g>
    <g id="sprite3" transform="matrix(1.0, 0.0, 0.0, 1.0, 0.0, 0.0)">
      <use height="18.7" transform="matrix(1.0, 0.0, 0.0, 1.0, 0.0, 0.0)" width="5.7" xlink:href="#shape4"/>
    </g>
    <g id="shape4" transform="matrix(1.0, 0.0, 0.0, 1.0, 0.0, 0.0)">
      <path d="M1.65 11.9 Q1.55 10.8 0.55 8.3 -0.4 5.85 0.25 2.65 0.6 1.1 1.1 0.0 L0.5 2.55 Q0.05 5.55 0.95 8.0 1.6 9.8 3.55 11.35 5.25 12.65 5.55 14.75 5.9 17.2 5.3 18.15 L4.6 18.55 Q3.45 19.2 2.4 16.85 1.55 14.9 1.55 13.5 L1.65 11.9" fill="#ffffff" fill-rule="evenodd" stroke="none"/>
    </g>
    <g id="sprite4" transform="matrix(1.0, 0.0, 0.0, 1.0, 0.0, 0.05)">
      <use height="7.0" transform="matrix(1.0, 0.0, 0.0, 1.0, 0.0, -0.05)" width="3.35" xlink:href="#shape5"/>
    </g>
    <g id="shape5" transform="matrix(1.0, 0.0, 0.0, 1.0, 0.0, 0.05)">
      <path d="M2.3 5.7 Q2.05 4.1 0.65 2.6 -0.4 1.45 0.2 0.4 0.8 -0.6 2.05 0.6 3.35 1.8 3.35 4.25 3.35 6.7 2.05 6.95 2.9 6.45 2.3 5.7" fill="#ffffff" fill-rule="evenodd" stroke="none"/>
    </g>
    <g id="shape6" transform="matrix(1.0, 0.0, 0.0, 1.0, -1.8, -18.95)">
      <path d="M3.9 34.45 L3.6 33.7 Q3.55 32.85 4.55 32.85 6.1 32.85 5.85 35.5 L5.05 34.1 Q4.15 33.05 3.9 34.45" fill="#ffffff" fill-rule="evenodd" stroke="none"/>
      <path d="M3.5 28.2 L5.4 30.6 Q7.0 32.2 7.65 33.35 9.25 36.1 8.65 39.4 8.55 40.15 8.0 40.7 6.85 41.95 4.5 41.6 L6.25 41.25 Q7.95 40.3 7.8 37.15 7.6 34.55 5.15 31.8 2.55 28.9 2.1 26.6 1.6 23.5 1.9 20.95 L2.3 18.95 2.25 22.75 Q2.35 26.7 3.5 28.2" fill="#bbded6" fill-rule="evenodd" stroke="none"/>
    </g>
    <g id="sprite5" transform="matrix(1.0, 0.0, 0.0, 1.0, 0.0, 0.0)">
      <use height="11.6" transform="matrix(1.0, 0.0, 0.0, 1.0, 0.0, 0.0)" width="6.9" xlink:href="#shape7"/>
    </g>
    <g id="shape7" transform="matrix(1.0, 0.0, 0.0, 1.0, 0.0, 0.0)">
      <path d="M0.0 4.95 Q0.0 2.4 0.35 0.0 0.5 4.25 0.85 6.75 1.1 8.3 2.25 9.5 L3.35 10.4 Q5.95 10.25 6.3 7.5 6.45 6.1 6.1 4.75 7.75 7.6 6.05 10.0 4.4 12.4 2.0 11.15 0.05 10.1 0.0 4.95" fill="#bbded6" fill-rule="evenodd" stroke="none"/>
    </g>
    <g id="sprite6" transform="matrix(1.0, 0.0, 0.0, 1.0, 0.0, 0.0)">
      <use height="11.1" transform="matrix(1.0, 0.0, 0.0, 1.0, 0.0, 0.0)" width="6.45" xlink:href="#shape8"/>
    </g>
    <g id="shape8" transform="matrix(1.0, 0.0, 0.0, 1.0, 0.0, 0.0)">
      <path d="M0.45 5.0 Q1.15 10.05 3.15 10.4 L4.6 10.1 Q6.1 9.4 6.3 7.2 L6.3 6.25 Q6.6 7.3 6.35 8.45 5.85 10.7 3.3 11.1 2.3 11.25 1.35 9.9 -0.45 7.25 0.15 0.0 0.1 2.45 0.45 5.0" fill="#bbded6" fill-rule="evenodd" stroke="none"/>
    </g>
    <g id="sprite7" transform="matrix(1.0, 0.0, 0.0, 1.0, 0.0, 0.0)">
      <use height="11.8" transform="matrix(1.0, 0.0, 0.0, 1.0, 0.0, 0.0)" width="6.5" xlink:href="#shape9"/>
    </g>
    <g id="shape9" transform="matrix(1.0, 0.0, 0.0, 1.0, 0.0, 0.0)">
      <path d="M0.0 0.0 Q0.4 0.55 0.4 1.45 0.4 4.65 0.65 6.45 1.25 10.9 3.1 11.35 L4.2 11.4 Q5.4 11.25 6.1 10.2 L6.5 8.75 6.45 9.5 Q6.15 10.85 5.0 11.45 4.5 11.8 3.8 11.8 2.45 11.75 1.4 10.05 0.4 7.35 0.3 3.6 L0.25 0.8 0.0 0.0" fill="#306b5e" fill-rule="evenodd" stroke="none"/>
    </g>
    <g id="sprite8" transform="matrix(1.0, 0.0, 0.0, 1.0, 0.0, 0.0)">
      <use height="18.7" transform="matrix(1.0, 0.0, 0.0, 1.0, 0.0, 0.0)" width="5.7" xlink:href="#shape10"/>
    </g>
    <g id="shape10" transform="matrix(1.0, 0.0, 0.0, 1.0, 0.0, 0.0)">
      <path d="M4.05 11.9 L4.15 13.5 Q4.15 14.9 3.3 16.85 2.25 19.2 1.1 18.55 0.75 18.6 0.4 18.15 -0.2 17.2 0.15 14.75 0.45 12.65 2.15 11.35 4.1 9.8 4.75 8.0 5.65 5.55 5.2 2.55 5.0 1.05 4.6 0.0 L5.45 2.65 Q6.1 5.85 5.15 8.3 4.15 10.8 4.05 11.9" fill="#ffffff" fill-rule="evenodd" stroke="none"/>
    </g>
    <g id="sprite9" transform="matrix(1.0, 0.0, 0.0, 1.0, 0.0, 0.05)">
      <use height="7.0" transform="matrix(1.0, 0.0, 0.0, 1.0, 0.0, -0.05)" width="3.35" xlink:href="#shape11"/>
    </g>
    <g id="shape11" transform="matrix(1.0, 0.0, 0.0, 1.0, 0.0, 0.05)">
      <path d="M1.05 5.7 Q0.45 6.45 1.3 6.95 0.0 6.7 0.0 4.25 0.0 1.8 1.3 0.6 2.55 -0.6 3.15 0.4 3.75 1.45 2.7 2.6 1.3 4.1 1.05 5.7" fill="#ffffff" fill-rule="evenodd" stroke="none"/>
    </g>
    <g id="shape12" transform="matrix(1.0, 0.0, 0.0, 1.0, -34.55, -18.95)">
      <path d="M39.55 34.45 Q39.3 33.05 38.35 34.1 L37.5 35.5 37.6 34.15 Q37.85 32.85 38.9 32.85 40.45 32.85 39.55 34.45" fill="#ffffff" fill-rule="evenodd" stroke="none"/>
      <path d="M39.9 28.2 Q41.05 26.7 41.15 22.75 L41.1 18.95 41.5 20.95 Q41.8 23.5 41.25 26.6 40.85 28.9 38.25 31.8 35.8 34.55 35.6 37.15 35.45 40.3 37.15 41.25 37.85 41.7 38.6 41.7 36.5 41.9 35.35 40.7 L34.7 39.4 Q34.1 36.1 35.75 33.35 36.4 32.2 38.0 30.6 L39.9 28.2" fill="#bbded6" fill-rule="evenodd" stroke="none"/>
    </g>
    <g id="sprite10" transform="matrix(1.0, 0.0, 0.0, 1.0, 0.05, 0.0)">
      <use height="11.6" transform="matrix(1.0, 0.0, 0.0, 1.0, -0.05, 0.0)" width="6.9" xlink:href="#shape13"/>
    </g>
    <g id="shape13" transform="matrix(1.0, 0.0, 0.0, 1.0, 0.05, 0.0)">
      <path d="M0.8 10.0 Q-0.9 7.6 0.75 4.75 0.4 6.1 0.55 7.5 0.9 10.25 3.5 10.4 L4.6 9.5 Q5.75 8.3 6.0 6.75 6.35 4.25 6.5 0.0 6.9 2.4 6.85 4.95 6.8 10.1 4.85 11.15 2.45 12.4 0.8 10.0" fill="#bbded6" fill-rule="evenodd" stroke="none"/>
    </g>
    <g id="sprite11" transform="matrix(1.0, 0.0, 0.0, 1.0, -0.05, 0.0)">
      <use height="11.1" transform="matrix(1.0, 0.0, 0.0, 1.0, 0.05, 0.0)" width="6.35" xlink:href="#shape14"/>
    </g>
    <g id="shape14" transform="matrix(1.0, 0.0, 0.0, 1.0, -0.05, 0.0)">
      <path d="M5.95 5.0 Q6.3 2.45 6.25 0.0 6.85 7.25 5.05 9.9 4.15 11.25 3.1 11.1 0.55 10.7 0.05 8.45 L0.1 6.25 0.1 7.2 Q0.3 9.4 1.8 10.1 L3.25 10.4 Q5.25 10.05 5.95 5.0" fill="#bbded6" fill-rule="evenodd" stroke="none"/>
    </g>
    <g id="sprite12" transform="matrix(1.0, 0.0, 0.0, 1.0, -0.05, 0.0)">
      <use height="11.8" transform="matrix(1.0, 0.0, 0.0, 1.0, 0.05, 0.0)" width="6.45" xlink:href="#shape15"/>
    </g>
    <g id="shape15" transform="matrix(1.0, 0.0, 0.0, 1.0, -0.05, 0.0)">
      <path d="M6.5 0.0 L6.3 0.8 6.2 3.6 Q6.1 7.35 5.1 10.05 4.05 11.75 2.7 11.8 2.0 11.8 1.5 11.45 0.4 10.85 0.1 9.5 L0.05 8.95 0.4 10.2 Q1.1 11.25 2.3 11.4 L3.4 11.35 Q5.25 10.9 5.85 6.45 L6.1 1.45 Q6.1 0.55 6.5 0.0" fill="#306b5e" fill-rule="evenodd" stroke="none"/>
    </g>
    <g id="sprite13" transform="matrix(1.0, 0.0, 0.0, 1.0, 0.2, 0.0)">
      <use height="8.6" transform="matrix(1.0, 0.0, 0.0, 1.0, -0.2, 0.0)" width="35.05" xlink:href="#shape16"/>
    </g>
    <g id="shape16" transform="matrix(1.0, 0.0, 0.0, 1.0, 0.2, 0.0)">
      <path d="M34.4 4.4 Q34.85 5.8 34.85 7.65 L34.85 8.6 Q34.8 6.95 34.4 5.7 33.0 1.3 27.2 1.3 L7.45 1.3 Q0.05 1.3 -0.2 8.5 L-0.2 7.65 Q-0.2 0.0 7.45 0.0 L27.2 0.0 Q33.0 0.0 34.4 4.4" fill="#e7deda" fill-rule="evenodd" stroke="none"/>
    </g>
    <g id="sprite14" transform="matrix(1.0, 0.0, 0.0, 1.0, 0.0, 0.0)">
      <use height="20.15" transform="matrix(1.0, 0.0, 0.0, 1.0, 0.0, 0.0)" width="28.2" xlink:href="#shape17"/>
    </g>
    <g id="shape17" transform="matrix(1.0, 0.0, 0.0, 1.0, 0.0, 0.0)">
      <path d="M27.65 18.45 L27.4 18.95 Q26.2 20.8 23.4 19.8 19.6 18.5 17.35 14.05 14.8 9.1 9.75 7.4 4.1 5.65 0.0 10.3 1.0 6.85 3.7 4.15 7.2 0.65 11.9 0.05 L14.8 0.05 18.4 0.65 Q21.55 1.65 24.05 4.15 28.2 8.3 28.2 14.25 28.2 16.45 27.65 18.45" fill="#ffffff" fill-opacity="0.19607843" fill-rule="evenodd" stroke="none"/>
    </g>
  </defs>
</svg>
