<?xml version="1.0" encoding="UTF-8" standalone="no"?>
<svg xmlns:xlink="http://www.w3.org/1999/xlink" height="66.15px" width="66.075px" xmlns="http://www.w3.org/2000/svg">
  <g transform="matrix(1.5, 0.0, 0.0, 1.5, 0.0, 0.0)">
    <use height="43.95" transform="matrix(1.0, 0.0, 0.0, 1.0, 0.0, 0.0)" width="44.05" xlink:href="#shape0"/>
    <use height="20.7" transform="matrix(1.2077, 0.0, 0.0, 1.2077, 0.6, 19.0)" width="7.3" xlink:href="#sprite0"/>
    <use height="24.05" transform="matrix(1.0, 0.0, 0.0, 1.0, 1.2, 18.55)" width="8.5" xlink:href="#shape2"/>
    <use height="12.1" transform="matrix(1.2077, 0.0, 0.0, 1.2077, 2.0896, 27.5)" width="5.7" xlink:href="#sprite1"/>
    <use height="18.7" transform="matrix(1.1919, 0.0, 0.0, 1.1919, 1.15, 18.25)" width="5.7" xlink:href="#sprite2"/>
    <use height="7.0" transform="matrix(1.1919, 0.0, 0.0, 1.1919, 3.1, 32.3404)" width="3.35" xlink:href="#sprite3"/>
    <use height="22.75" transform="matrix(1.0, 0.0, 0.0, 1.0, 1.85, 18.95)" width="7.0" xlink:href="#shape6"/>
    <use height="11.6" transform="matrix(1.1919, 0.0, 0.0, 1.1919, 1.05, 29.65)" width="6.9" xlink:href="#sprite4"/>
    <use height="11.1" transform="matrix(1.1919, 0.0, 0.0, 1.1919, 1.3, 29.65)" width="6.45" xlink:href="#sprite5"/>
    <use height="11.8" transform="matrix(1.1919, 0.0, 0.0, 1.1919, 1.05, 28.35)" width="6.5" xlink:href="#sprite6"/>
    <use height="18.7" transform="matrix(1.1919, 0.0, 0.0, 1.1919, 35.45, 18.25)" width="5.7" xlink:href="#sprite7"/>
    <use height="7.0" transform="matrix(1.1919, 0.0, 0.0, 1.1919, 36.25, 32.3404)" width="3.35" xlink:href="#sprite8"/>
    <use height="22.8" transform="matrix(1.0, 0.0, 0.0, 1.0, 34.6, 18.95)" width="7.05" xlink:href="#shape12"/>
    <use height="11.6" transform="matrix(1.1919, 0.0, 0.0, 1.1919, 34.0404, 29.65)" width="6.9" xlink:href="#sprite9"/>
    <use height="11.1" transform="matrix(1.1919, 0.0, 0.0, 1.1919, 34.4596, 29.65)" width="6.35" xlink:href="#sprite10"/>
    <use height="11.8" transform="matrix(1.1919, 0.0, 0.0, 1.1919, 34.6096, 28.35)" width="6.45" xlink:href="#sprite11"/>
    <use height="8.6" transform="matrix(1.2077, 0.0, 0.0, 1.2065, 0.8085, 0.75)" width="35.05" xlink:href="#sprite12"/>
    <use height="20.15" transform="matrix(1.1594, 0.0, 0.0, 1.1605, 6.0, 5.6)" width="28.2" xlink:href="#sprite13"/>
    <use height="44.05" transform="matrix(1.0, 0.0, 0.0, 1.0, 0.0, 0.0)" width="44.0" xlink:href="#shape18"/>
    <use height="0.0" transform="matrix(1.2088, 0.0, 0.0, 1.2099, 0.95, 0.75)" width="0.0" xlink:href="#sprite14"/>
    <use height="24.3" transform="matrix(1.0, 0.0, 0.0, 1.0, 0.2, 19.8)" width="43.45" xlink:href="#shape19"/>
    <use height="20.15" transform="matrix(1.1594, 0.0, 0.0, 1.1605, 6.05, 5.3)" width="28.2" xlink:href="#sprite13"/>
    <use height="8.6" transform="matrix(1.2077, 0.0, 0.0, 1.2065, 0.7585, 0.55)" width="35.05" xlink:href="#sprite12"/>
  </g>
  <defs>
    <g id="shape0" transform="matrix(1.0, 0.0, 0.0, 1.0, 0.0, 0.0)">
      <path d="M22.05 2.25 Q30.4 2.25 36.3 8.15 42.25 14.1 42.25 22.4 42.25 30.75 36.3 36.65 30.4 42.6 22.05 42.6 13.7 42.6 7.8 36.65 1.9 30.75 1.9 22.4 1.9 14.1 7.8 8.15 13.7 2.25 22.05 2.25" fill="url(#gradient0)" fill-rule="evenodd" stroke="none"/>
      <path d="M43.9 18.15 Q43.2 23.15 39.85 29.0 36.55 34.7 32.5 37.95 28.6 40.8 26.45 39.6 24.65 38.5 24.7 35.2 L24.75 34.4 24.85 33.45 25.2 31.45 25.45 30.65 Q26.45 26.8 28.85 22.65 30.7 19.25 32.9 16.85 L33.45 16.25 35.9 14.0 36.2 13.7 36.55 13.45 Q40.15 10.8 42.35 12.0 44.5 13.35 43.9 18.15 M23.55 7.85 L23.75 9.0 23.75 9.3 24.45 9.8 24.9 10.05 23.85 10.15 Q22.8 10.35 22.9 11.1 L22.8 11.1 Q23.0 10.7 22.6 9.9 22.15 9.05 21.9 8.95 22.7 9.25 23.2 8.55 L23.55 7.85 M29.55 13.25 L29.85 13.05 Q32.8 10.85 34.6 11.85 35.3 12.25 35.65 13.15 34.25 14.15 32.95 15.55 L32.5 15.3 29.9 15.4 Q29.6 15.55 29.3 15.8 28.95 15.95 28.55 16.25 L27.5 17.15 26.9 17.85 Q25.85 19.0 24.85 20.55 L24.4 21.3 24.35 21.45 Q23.1 23.6 22.55 25.55 L22.35 26.4 22.2 27.35 22.1 28.5 22.15 29.2 Q22.3 30.7 23.35 31.25 23.75 31.55 24.25 31.55 L23.95 33.35 23.85 34.75 21.5 34.65 Q19.85 33.65 20.05 30.4 L20.15 29.75 20.15 29.55 20.6 27.35 20.8 26.7 Q21.5 24.15 23.05 21.45 L23.45 20.6 23.8 20.05 Q25.2 17.55 26.9 15.75 L27.4 15.25 29.35 13.45 29.55 13.25 M26.6 14.35 Q25.45 13.65 23.4 15.1 22.1 16.1 21.0 17.75 L20.95 17.9 Q20.45 18.45 20.1 19.15 L19.65 20.0 Q18.55 22.1 18.3 23.95 18.0 26.45 19.25 27.1 L19.85 27.35 Q19.55 28.4 19.4 29.45 L19.4 30.0 17.75 29.85 Q16.25 28.95 16.7 25.8 16.85 24.5 17.3 23.15 17.7 21.8 18.4 20.35 L18.9 19.4 19.35 18.65 20.2 17.25 20.25 17.15 20.65 16.6 Q22.3 14.2 24.2 12.7 26.75 10.8 28.3 11.6 28.85 11.95 29.1 12.7 L27.0 14.6 26.6 14.35 M29.1 16.8 Q28.45 19.6 26.65 22.85 24.9 25.8 22.85 27.8 L22.9 27.4 23.3 25.6 Q24.6 24.35 25.7 22.4 26.9 20.3 27.35 18.4 28.15 17.5 29.05 16.85 L29.0 16.85 29.1 16.8 M23.0 19.65 L23.15 19.75 22.8 20.3 22.3 21.3 Q21.05 21.0 20.1 20.35 L20.6 19.45 21.35 18.25 21.9 18.7 23.0 19.65 M35.5 18.0 L35.75 17.85 Q35.05 21.6 32.6 25.9 30.5 29.5 28.05 31.9 L28.15 30.85 28.45 29.3 Q30.05 27.7 31.45 25.35 33.1 22.4 33.55 19.85 L35.6 18.0 35.5 18.0 M35.9 16.75 Q35.5 17.0 35.05 17.35 L33.75 18.45 32.95 19.3 Q31.35 21.05 30.0 23.45 28.25 26.4 27.55 29.2 L27.35 30.3 27.25 30.75 27.25 32.7 27.35 33.55 Q27.65 34.95 28.7 35.5 30.45 36.65 33.5 34.4 36.2 32.2 38.5 28.35 40.75 24.35 41.15 20.9 41.7 17.15 39.85 16.15 L36.7 16.3 35.9 16.75 M18.9 9.25 Q18.35 10.45 18.55 10.85 L18.35 10.85 Q18.55 9.8 17.15 9.6 L15.55 9.35 16.25 8.9 17.25 8.25 17.25 7.85 17.5 6.3 Q17.45 6.65 18.05 7.15 18.8 8.2 19.95 7.75 19.45 7.95 18.9 9.25 M9.5 8.7 L11.3 10.6 18.05 13.7 20.3 16.1 Q20.0 16.4 19.8 16.85 L19.65 16.7 19.75 16.85 18.85 18.35 Q17.4 20.8 16.7 23.1 L16.5 22.9 Q16.05 22.55 16.1 22.0 16.1 21.45 16.35 21.05 L16.6 20.55 16.4 19.85 16.35 19.8 16.35 19.85 15.8 19.8 14.5 20.0 Q13.9 20.0 13.9 19.25 13.9 18.2 15.2 18.2 L16.15 18.3 16.1 18.0 Q15.2 17.55 14.75 16.95 L13.8 16.35 Q13.35 16.2 12.75 16.7 12.2 17.15 12.4 17.85 12.65 18.6 12.55 19.6 12.55 20.55 11.6 20.55 11.25 20.55 9.95 18.15 10.05 16.3 9.45 13.85 L5.75 11.85 9.5 8.7 M6.9 17.0 Q7.35 17.15 7.55 16.8 L7.7 16.55 7.85 17.05 7.85 17.15 8.15 17.4 8.4 17.55 7.85 17.6 Q7.35 17.65 7.4 18.05 L7.35 18.05 7.3 17.45 6.9 17.0 M11.7 22.95 L12.05 22.8 12.3 22.55 12.4 22.25 12.55 21.6 12.8 22.05 Q13.1 22.45 13.6 22.3 L13.2 22.9 13.0 23.6 12.95 23.6 12.35 23.0 11.7 22.95" fill="#2e5d6b" fill-rule="evenodd" stroke="none"/>
      <path d="M39.3 22.0 Q39.3 14.8 34.25 9.75 29.15 4.65 22.05 4.65 14.85 4.65 9.8 9.75 4.7 14.8 4.7 22.0 4.7 29.15 9.8 34.25 14.85 39.3 22.05 39.3 29.25 39.3 34.25 34.25 39.3 29.15 39.3 22.0 M41.8 2.25 Q44.05 4.5 44.05 7.6 L44.05 36.35 Q44.05 39.5 41.8 41.75 39.55 43.95 36.4 43.95 L7.6 43.95 Q4.5 43.95 2.25 41.75 0.0 39.5 0.0 36.35 L0.0 7.6 Q0.0 4.5 2.25 2.25 4.5 0.0 7.6 0.0 L36.4 0.0 Q39.55 0.0 41.8 2.25" fill="url(#gradient1)" fill-rule="evenodd" stroke="none"/>
      <path d="M5.35 22.2 Q5.35 29.1 10.25 34.0 15.05 38.8 22.0 38.8 28.8 38.8 33.7 34.0 38.6 29.1 38.6 22.2 38.6 15.3 33.7 10.45 28.85 5.6 22.0 5.55 15.05 5.6 10.25 10.45 5.35 15.3 5.35 22.2 M8.45 8.8 Q14.05 3.2 22.0 3.2 29.85 3.2 35.4 8.8 41.0 14.35 41.0 22.2 41.0 30.1 35.4 35.65 29.85 41.2 22.0 41.2 14.05 41.2 8.45 35.65 2.95 30.1 2.95 22.2 2.95 14.35 8.45 8.8" fill="url(#gradient2)" fill-rule="evenodd" stroke="none"/>
    </g>
    <linearGradient gradientTransform="matrix(0.0, -0.0189, -0.0189, 0.0, 22.05, 18.6)" gradientUnits="userSpaceOnUse" id="gradient0" spreadMethod="pad" x1="-819.2" x2="819.2">
      <stop offset="0.011764705882352941" stop-color="#b3f9e4"/>
      <stop offset="1.0" stop-color="#5bbbff"/>
    </linearGradient>
    <linearGradient gradientTransform="matrix(0.0, -0.044, -0.044, 0.0, 22.05, -1.2)" gradientUnits="userSpaceOnUse" id="gradient1" spreadMethod="pad" x1="-819.2" x2="819.2">
      <stop offset="0.011764705882352941" stop-color="#90d1d1"/>
      <stop offset="0.9764705882352941" stop-color="#003459"/>
    </linearGradient>
    <linearGradient gradientTransform="matrix(0.0, -0.0168, -0.0168, 0.0, 21.95, 26.8)" gradientUnits="userSpaceOnUse" id="gradient2" spreadMethod="pad" x1="-819.2" x2="819.2">
      <stop offset="0.011764705882352941" stop-color="#dbf7ff"/>
      <stop offset="0.9764705882352941" stop-color="#384759"/>
    </linearGradient>
    <g id="sprite0" transform="matrix(1.0, 0.0, 0.0, 1.0, 0.0, 0.0)">
      <use height="20.7" transform="matrix(1.0, 0.0, 0.0, 1.0, 0.0, 0.0)" width="7.3" xlink:href="#shape1"/>
    </g>
    <g id="shape1" transform="matrix(1.0, 0.0, 0.0, 1.0, 0.0, 0.0)">
      <path d="M1.5 3.3 Q1.25 4.9 1.35 6.95 1.55 10.95 3.35 13.0 L6.75 16.9 Q7.8 18.5 6.9 19.6 5.25 21.5 2.85 20.1 -0.1 18.35 0.0 11.65 0.1 5.2 1.1 1.95 1.6 0.35 2.05 0.0 L1.5 3.3" fill="#6c6a85" fill-rule="evenodd" stroke="none"/>
    </g>
    <g id="shape2" transform="matrix(1.0, 0.0, 0.0, 1.0, -1.2, -18.55)">
      <path d="M2.8 21.45 L2.7 25.8 Q3.15 30.7 5.2 33.2 L9.05 38.05 Q10.35 40.05 9.1 41.35 7.05 43.6 4.25 41.75 0.8 39.5 1.25 31.4 1.75 23.7 2.55 20.35 L3.2 18.55 2.8 21.45" fill="url(#gradient3)" fill-rule="evenodd" stroke="none"/>
    </g>
    <linearGradient gradientTransform="matrix(0.0, -0.0105, -0.0105, 0.0, 5.4, 33.3)" gradientUnits="userSpaceOnUse" id="gradient3" spreadMethod="pad" x1="-819.2" x2="819.2">
      <stop offset="0.011764705882352941" stop-color="#dbf7ff"/>
      <stop offset="0.9764705882352941" stop-color="#384759"/>
    </linearGradient>
    <g id="sprite1" transform="matrix(1.0, 0.0, 0.0, 1.0, 0.05, 0.0)">
      <use height="12.1" transform="matrix(1.0, 0.0, 0.0, 1.0, -0.05, 0.0)" width="5.7" xlink:href="#shape3"/>
    </g>
    <g id="shape3" transform="matrix(1.0, 0.0, 0.0, 1.0, 0.05, 0.0)">
      <path d="M1.45 10.9 Q3.25 11.3 3.25 9.75 3.25 8.85 2.15 7.35 L0.45 4.75 Q-0.3 2.9 0.1 0.0 0.15 0.9 0.5 2.05 1.15 4.35 2.45 5.8 L5.15 8.65 Q6.15 9.9 5.1 11.0 2.85 13.25 1.45 10.9" fill="#f2f2f2" fill-rule="evenodd" stroke="none"/>
    </g>
    <g id="sprite2" transform="matrix(1.0, 0.0, 0.0, 1.0, 0.0, 0.0)">
      <use height="18.7" transform="matrix(1.0, 0.0, 0.0, 1.0, 0.0, 0.0)" width="5.7" xlink:href="#shape4"/>
    </g>
    <g id="shape4" transform="matrix(1.0, 0.0, 0.0, 1.0, 0.0, 0.0)">
      <path d="M1.65 11.9 Q1.55 10.8 0.55 8.3 -0.4 5.85 0.25 2.65 0.6 1.1 1.1 0.0 L0.5 2.55 Q0.05 5.55 0.95 8.0 1.6 9.8 3.55 11.35 5.25 12.65 5.55 14.75 5.9 17.2 5.3 18.15 L4.6 18.55 Q3.45 19.2 2.4 16.85 1.55 14.9 1.55 13.5 L1.65 11.9" fill="#ffffff" fill-rule="evenodd" stroke="none"/>
    </g>
    <g id="sprite3" transform="matrix(1.0, 0.0, 0.0, 1.0, 0.0, 0.05)">
      <use height="7.0" transform="matrix(1.0, 0.0, 0.0, 1.0, 0.0, -0.05)" width="3.35" xlink:href="#shape5"/>
    </g>
    <g id="shape5" transform="matrix(1.0, 0.0, 0.0, 1.0, 0.0, 0.05)">
      <path d="M2.3 5.7 Q2.05 4.1 0.65 2.6 -0.4 1.45 0.2 0.4 0.8 -0.6 2.05 0.6 3.35 1.8 3.35 4.25 3.35 6.7 2.05 6.95 2.9 6.45 2.3 5.7" fill="#ffffff" fill-rule="evenodd" stroke="none"/>
    </g>
    <g id="shape6" transform="matrix(1.0, 0.0, 0.0, 1.0, -1.8, -18.95)">
      <path d="M3.9 34.45 L3.6 33.7 Q3.55 32.85 4.55 32.85 6.1 32.85 5.85 35.5 L5.05 34.1 Q4.15 33.05 3.9 34.45" fill="#ffffff" fill-rule="evenodd" stroke="none"/>
      <path d="M3.5 28.2 L5.4 30.6 Q7.0 32.2 7.65 33.35 9.25 36.1 8.65 39.4 8.55 40.15 8.0 40.7 6.85 41.95 4.5 41.6 L6.25 41.25 Q7.95 40.3 7.8 37.15 7.6 34.55 5.15 31.8 2.55 28.9 2.1 26.6 1.6 23.5 1.9 20.95 L2.3 18.95 2.25 22.75 Q2.35 26.7 3.5 28.2" fill="#bbded6" fill-rule="evenodd" stroke="none"/>
    </g>
    <g id="sprite4" transform="matrix(1.0, 0.0, 0.0, 1.0, 0.0, 0.0)">
      <use height="11.6" transform="matrix(1.0, 0.0, 0.0, 1.0, 0.0, 0.0)" width="6.9" xlink:href="#shape7"/>
    </g>
    <g id="shape7" transform="matrix(1.0, 0.0, 0.0, 1.0, 0.0, 0.0)">
      <path d="M0.0 4.95 Q0.0 2.4 0.35 0.0 0.5 4.25 0.85 6.75 1.1 8.3 2.25 9.5 L3.35 10.4 Q5.95 10.25 6.3 7.5 6.45 6.1 6.1 4.75 7.75 7.6 6.05 10.0 4.4 12.4 2.0 11.15 0.05 10.1 0.0 4.95" fill="#bbded6" fill-rule="evenodd" stroke="none"/>
    </g>
    <g id="sprite5" transform="matrix(1.0, 0.0, 0.0, 1.0, 0.0, 0.0)">
      <use height="11.1" transform="matrix(1.0, 0.0, 0.0, 1.0, 0.0, 0.0)" width="6.45" xlink:href="#shape8"/>
    </g>
    <g id="shape8" transform="matrix(1.0, 0.0, 0.0, 1.0, 0.0, 0.0)">
      <path d="M0.45 5.0 Q1.15 10.05 3.15 10.4 L4.6 10.1 Q6.1 9.4 6.3 7.2 L6.3 6.25 Q6.6 7.3 6.35 8.45 5.85 10.7 3.3 11.1 2.3 11.25 1.35 9.9 -0.45 7.25 0.15 0.0 0.1 2.45 0.45 5.0" fill="#bbded6" fill-rule="evenodd" stroke="none"/>
    </g>
    <g id="sprite6" transform="matrix(1.0, 0.0, 0.0, 1.0, 0.0, 0.0)">
      <use height="11.8" transform="matrix(1.0, 0.0, 0.0, 1.0, 0.0, 0.0)" width="6.5" xlink:href="#shape9"/>
    </g>
    <g id="shape9" transform="matrix(1.0, 0.0, 0.0, 1.0, 0.0, 0.0)">
      <path d="M0.0 0.0 Q0.4 0.55 0.4 1.45 0.4 4.65 0.65 6.45 1.25 10.9 3.1 11.35 L4.2 11.4 Q5.4 11.25 6.1 10.2 L6.5 8.75 6.45 9.5 Q6.15 10.85 5.0 11.45 4.5 11.8 3.8 11.8 2.45 11.75 1.4 10.05 0.4 7.35 0.3 3.6 L0.25 0.8 0.0 0.0" fill="#306b5e" fill-rule="evenodd" stroke="none"/>
    </g>
    <g id="sprite7" transform="matrix(1.0, 0.0, 0.0, 1.0, 0.0, 0.0)">
      <use height="18.7" transform="matrix(1.0, 0.0, 0.0, 1.0, 0.0, 0.0)" width="5.7" xlink:href="#shape10"/>
    </g>
    <g id="shape10" transform="matrix(1.0, 0.0, 0.0, 1.0, 0.0, 0.0)">
      <path d="M4.05 11.9 L4.15 13.5 Q4.15 14.9 3.3 16.85 2.25 19.2 1.1 18.55 0.75 18.6 0.4 18.15 -0.2 17.2 0.15 14.75 0.45 12.65 2.15 11.35 4.1 9.8 4.75 8.0 5.65 5.55 5.2 2.55 5.0 1.05 4.6 0.0 L5.45 2.65 Q6.1 5.85 5.15 8.3 4.15 10.8 4.05 11.9" fill="#ffffff" fill-rule="evenodd" stroke="none"/>
    </g>
    <g id="sprite8" transform="matrix(1.0, 0.0, 0.0, 1.0, 0.0, 0.05)">
      <use height="7.0" transform="matrix(1.0, 0.0, 0.0, 1.0, 0.0, -0.05)" width="3.35" xlink:href="#shape11"/>
    </g>
    <g id="shape11" transform="matrix(1.0, 0.0, 0.0, 1.0, 0.0, 0.05)">
      <path d="M1.05 5.7 Q0.45 6.45 1.3 6.95 0.0 6.7 0.0 4.25 0.0 1.8 1.3 0.6 2.55 -0.6 3.15 0.4 3.75 1.45 2.7 2.6 1.3 4.1 1.05 5.7" fill="#ffffff" fill-rule="evenodd" stroke="none"/>
    </g>
    <g id="shape12" transform="matrix(1.0, 0.0, 0.0, 1.0, -34.55, -18.95)">
      <path d="M39.55 34.45 Q39.3 33.05 38.35 34.1 L37.5 35.5 37.6 34.15 Q37.85 32.85 38.9 32.85 40.45 32.85 39.55 34.45" fill="#ffffff" fill-rule="evenodd" stroke="none"/>
      <path d="M39.9 28.2 Q41.05 26.7 41.15 22.75 L41.1 18.95 41.5 20.95 Q41.8 23.5 41.25 26.6 40.85 28.9 38.25 31.8 35.8 34.55 35.6 37.15 35.45 40.3 37.15 41.25 37.85 41.7 38.6 41.7 36.5 41.9 35.35 40.7 L34.7 39.4 Q34.1 36.1 35.75 33.35 36.4 32.2 38.0 30.6 L39.9 28.2" fill="#bbded6" fill-rule="evenodd" stroke="none"/>
    </g>
    <g id="sprite9" transform="matrix(1.0, 0.0, 0.0, 1.0, 0.05, 0.0)">
      <use height="11.6" transform="matrix(1.0, 0.0, 0.0, 1.0, -0.05, 0.0)" width="6.9" xlink:href="#shape13"/>
    </g>
    <g id="shape13" transform="matrix(1.0, 0.0, 0.0, 1.0, 0.05, 0.0)">
      <path d="M0.8 10.0 Q-0.9 7.6 0.75 4.75 0.4 6.1 0.55 7.5 0.9 10.25 3.5 10.4 L4.6 9.5 Q5.75 8.3 6.0 6.75 6.35 4.25 6.5 0.0 6.9 2.4 6.85 4.95 6.8 10.1 4.85 11.15 2.45 12.4 0.8 10.0" fill="#bbded6" fill-rule="evenodd" stroke="none"/>
    </g>
    <g id="sprite10" transform="matrix(1.0, 0.0, 0.0, 1.0, -0.05, 0.0)">
      <use height="11.1" transform="matrix(1.0, 0.0, 0.0, 1.0, 0.05, 0.0)" width="6.35" xlink:href="#shape14"/>
    </g>
    <g id="shape14" transform="matrix(1.0, 0.0, 0.0, 1.0, -0.05, 0.0)">
      <path d="M5.95 5.0 Q6.3 2.45 6.25 0.0 6.85 7.25 5.05 9.9 4.15 11.25 3.1 11.1 0.55 10.7 0.05 8.45 L0.1 6.25 0.1 7.2 Q0.3 9.4 1.8 10.1 L3.25 10.4 Q5.25 10.05 5.95 5.0" fill="#bbded6" fill-rule="evenodd" stroke="none"/>
    </g>
    <g id="sprite11" transform="matrix(1.0, 0.0, 0.0, 1.0, -0.05, 0.0)">
      <use height="11.8" transform="matrix(1.0, 0.0, 0.0, 1.0, 0.05, 0.0)" width="6.45" xlink:href="#shape15"/>
    </g>
    <g id="shape15" transform="matrix(1.0, 0.0, 0.0, 1.0, -0.05, 0.0)">
      <path d="M6.5 0.0 L6.3 0.8 6.2 3.6 Q6.1 7.35 5.1 10.05 4.05 11.75 2.7 11.8 2.0 11.8 1.5 11.45 0.4 10.85 0.1 9.5 L0.05 8.95 0.4 10.2 Q1.1 11.25 2.3 11.4 L3.4 11.35 Q5.25 10.9 5.85 6.45 L6.1 1.45 Q6.1 0.55 6.5 0.0" fill="#306b5e" fill-rule="evenodd" stroke="none"/>
    </g>
    <g id="sprite12" transform="matrix(1.0, 0.0, 0.0, 1.0, 0.2, 0.0)">
      <use height="8.6" transform="matrix(1.0, 0.0, 0.0, 1.0, -0.2, 0.0)" width="35.05" xlink:href="#shape16"/>
    </g>
    <g id="shape16" transform="matrix(1.0, 0.0, 0.0, 1.0, 0.2, 0.0)">
      <path d="M34.4 4.4 Q34.85 5.8 34.85 7.65 L34.85 8.6 Q34.8 6.95 34.4 5.7 33.0 1.3 27.2 1.3 L7.45 1.3 Q0.05 1.3 -0.2 8.5 L-0.2 7.65 Q-0.2 0.0 7.45 0.0 L27.2 0.0 Q33.0 0.0 34.4 4.4" fill="#e7deda" fill-rule="evenodd" stroke="none"/>
    </g>
    <g id="sprite13" transform="matrix(1.0, 0.0, 0.0, 1.0, 0.0, 0.0)">
      <use height="20.15" transform="matrix(1.0, 0.0, 0.0, 1.0, 0.0, 0.0)" width="28.2" xlink:href="#shape17"/>
    </g>
    <g id="shape17" transform="matrix(1.0, 0.0, 0.0, 1.0, 0.0, 0.0)">
      <path d="M27.65 18.45 L27.4 18.95 Q26.2 20.8 23.4 19.8 19.6 18.5 17.35 14.05 14.8 9.1 9.75 7.4 4.1 5.65 0.0 10.3 1.0 6.85 3.7 4.15 7.2 0.65 11.9 0.05 L14.8 0.05 18.4 0.65 Q21.55 1.65 24.05 4.15 28.2 8.3 28.2 14.25 28.2 16.45 27.65 18.45" fill="#ffffff" fill-opacity="0.19607843" fill-rule="evenodd" stroke="none"/>
    </g>
    <g id="shape18" transform="matrix(1.0, 0.0, 0.0, 1.0, 0.0, 0.0)">
      <path d="M7.65 8.2 Q13.5 2.25 21.9 2.25 30.25 2.25 36.15 8.2 42.0 14.1 42.0 22.45 42.0 30.8 36.15 36.75 30.25 42.65 21.9 42.65 13.5 42.65 7.65 36.75 1.7 30.8 1.7 22.45 1.7 14.1 7.65 8.2" fill="url(#gradient4)" fill-rule="evenodd" stroke="none"/>
      <path d="M24.75 9.2 L25.1 8.5 25.3 9.65 25.3 9.95 26.0 10.45 26.45 10.7 25.4 10.8 Q24.35 11.0 24.45 11.75 L24.35 11.75 Q24.55 11.35 24.15 10.55 L23.45 9.6 Q24.25 9.9 24.75 9.2 M15.5 28.8 L15.45 28.8 Q14.0 28.7 13.5 27.5 12.9 26.15 14.7 24.5 L17.0 19.9 Q18.5 16.75 20.0 14.55 21.5 12.35 26.0 13.6 30.45 14.8 30.8 17.6 31.15 20.35 28.35 17.85 25.55 15.3 26.4 17.95 L27.0 21.0 Q26.1 20.4 24.3 20.15 22.45 19.85 20.8 21.15 25.4 21.15 27.55 22.85 29.65 24.55 30.1 26.25 30.5 27.9 28.8 28.15 L27.75 28.2 Q26.6 28.05 25.45 27.25 23.8 26.05 21.85 26.05 19.9 26.0 18.45 27.35 16.75 28.9 15.5 28.8 L15.3 28.05 15.5 28.8 M27.5 32.25 L27.8 32.7 27.45 32.85 27.3 32.85 25.8 31.45 Q24.65 30.2 26.95 31.65 L27.5 32.25 M26.3 34.95 L26.45 35.55 Q26.55 35.7 26.15 35.7 L25.85 35.6 Q25.3 35.2 24.6 33.55 L24.6 33.3 Q25.3 33.25 25.9 34.15 L26.3 34.95 M17.75 35.9 L17.7 35.85 17.65 35.75 17.6 35.55 18.3 33.85 19.1 32.25 19.4 32.6 18.95 34.0 18.45 35.75 Q18.25 35.75 18.0 36.0 L17.75 35.9 M15.75 32.85 L15.65 32.9 Q15.3 32.8 15.3 32.45 L15.55 32.1 15.75 31.9 Q16.5 31.3 17.45 31.25 L17.25 31.45 16.55 32.2 15.75 32.85 M18.05 8.95 Q18.8 10.0 19.95 9.55 19.45 9.75 18.9 11.05 18.35 12.25 18.55 12.65 L18.35 12.65 Q18.55 11.6 17.15 11.4 L15.55 11.15 16.25 10.7 17.25 10.05 17.25 9.65 17.5 8.1 Q17.45 8.45 18.05 8.95 M10.05 23.9 L10.3 23.65 10.4 23.35 10.55 22.7 10.8 23.15 Q11.1 23.55 11.6 23.4 L11.2 24.0 11.0 24.7 10.95 24.7 10.35 24.1 9.7 24.05 10.05 23.9 M13.1 13.7 L13.55 15.3 13.55 15.65 14.55 16.5 Q15.05 16.65 15.4 17.0 L13.55 17.15 Q11.85 17.3 12.05 18.65 L11.85 18.65 Q12.2 18.0 11.7 16.65 10.85 15.3 10.35 15.15 11.85 15.65 12.55 14.45 L13.1 13.7 M27.75 28.2 Q27.85 27.1 27.6 26.4 27.85 27.1 27.75 28.2 M22.2 32.7 L22.25 33.85 22.05 37.2 21.75 37.35 Q21.45 37.05 21.45 36.0 21.45 32.85 22.2 32.7" fill="#5f3921" fill-rule="evenodd" stroke="none"/>
      <path d="M27.75 28.2 Q28.35 29.65 27.5 32.25 M27.3 32.85 L27.05 33.5 26.3 34.95 M25.85 35.6 Q24.65 37.15 22.95 37.35 20.25 37.7 18.7 36.65 L17.75 35.9 M17.65 35.75 Q16.7 34.8 16.05 33.45 L15.75 32.85 M15.55 32.1 Q15.15 30.55 15.5 28.8 L15.3 28.05 M19.1 28.7 L18.9 29.65 Q18.9 30.75 19.55 31.3 20.2 31.8 21.7 31.8 23.2 31.8 23.85 31.15 24.45 30.5 24.45 29.25 24.45 26.9 21.75 26.9 L20.8 26.95 19.9 27.45 Q19.35 27.85 19.35 28.1 L19.1 28.7 M27.6 26.4 Q27.85 27.1 27.75 28.2 Z" fill="none" stroke="#5f3921" stroke-linecap="round" stroke-linejoin="round" stroke-width="1.0"/>
      <path d="M22.0 4.7 Q14.8 4.7 9.7 9.8 4.65 14.95 4.65 22.05 4.65 29.25 9.7 34.35 14.75 39.45 22.0 39.45 29.15 39.45 34.2 34.35 39.3 29.25 39.3 22.05 39.3 14.85 34.2 9.8 29.15 4.7 22.0 4.7 M36.4 0.0 Q39.6 0.0 41.75 2.25 44.0 4.55 44.0 7.65 L44.0 36.45 Q44.0 39.6 41.75 41.85 39.6 44.05 36.4 44.05 L7.6 44.05 Q4.45 44.05 2.25 41.85 0.0 39.65 0.0 36.45 L0.0 7.65 Q0.0 4.55 2.25 2.25 4.45 0.0 7.6 0.0 L36.4 0.0" fill="url(#gradient5)" fill-rule="evenodd" stroke="none"/>
      <path d="M41.05 22.0 Q41.05 29.85 35.45 35.4 29.95 41.0 22.1 41.0 14.2 41.0 8.7 35.4 3.15 29.85 3.15 22.0 3.15 14.15 8.7 8.6 14.2 3.05 22.1 3.05 29.95 3.05 35.45 8.6 41.05 14.15 41.05 22.0 M33.85 10.35 Q28.9 5.45 22.1 5.4 15.2 5.45 10.35 10.35 5.5 15.1 5.45 22.0 5.5 28.95 10.35 33.8 15.2 38.65 22.1 38.65 28.9 38.65 33.85 33.8 38.65 28.95 38.65 22.0 38.65 15.1 33.85 10.35" fill="url(#gradient6)" fill-rule="evenodd" stroke="none"/>
    </g>
    <linearGradient gradientTransform="matrix(0.0, -0.0155, -0.0189, 0.0, 21.95, 25.45)" gradientUnits="userSpaceOnUse" id="gradient4" spreadMethod="pad" x1="-819.2" x2="819.2">
      <stop offset="0.011764705882352941" stop-color="#bb9a76"/>
      <stop offset="1.0" stop-color="#a87f53"/>
    </linearGradient>
    <linearGradient gradientTransform="matrix(0.0, -0.0344, -0.0552, 0.0, 22.4, 16.35)" gradientUnits="userSpaceOnUse" id="gradient5" spreadMethod="pad" x1="-819.2" x2="819.2">
      <stop offset="0.0196078431372549" stop-color="#9c6732"/>
      <stop offset="1.0" stop-color="#7d4e2b"/>
    </linearGradient>
    <linearGradient gradientTransform="matrix(1.0E-4, 0.0223, -0.0231, 1.0E-4, 22.15, 22.25)" gradientUnits="userSpaceOnUse" id="gradient6" spreadMethod="pad" x1="-819.2" x2="819.2">
      <stop offset="0.011764705882352941" stop-color="#59351e"/>
      <stop offset="1.0" stop-color="#cc955e"/>
    </linearGradient>
    <g id="shape19" transform="matrix(1.0, 0.0, 0.0, 1.0, -0.2, -19.8)">
      <path d="M0.2 25.1 Q0.35 22.65 0.8 20.65 0.55 24.85 0.8 26.5 1.15 29.5 3.1 30.95 L8.1 35.1 Q10.6 37.45 11.0 40.2 L14.55 42.5 10.7 42.9 Q9.95 44.4 7.2 44.05 3.2 43.5 2.4 40.25 1.7 37.65 3.6 36.65 L3.8 34.45 4.5 36.3 Q6.5 35.9 6.95 37.0 7.45 38.05 6.85 39.1 6.25 40.05 5.7 39.25 6.4 39.2 6.5 38.8 6.55 38.4 5.85 37.75 5.25 37.1 4.65 37.4 4.1 37.7 3.8 38.85 3.2 41.3 6.05 42.4 9.0 43.5 9.45 40.8 9.95 38.55 7.15 36.2 L3.4 33.3 0.9 32.8 1.9 31.85 Q0.1 29.85 0.2 25.1" fill="#7a5130" fill-rule="evenodd" stroke="none"/>
      <path d="M0.25 24.2 Q0.4 21.8 0.85 19.8 0.6 23.95 0.85 25.55 1.2 28.55 3.15 30.05 L8.2 34.2 Q10.65 36.55 11.05 39.25 L14.7 42.55 10.8 42.05 Q10.05 43.5 7.25 43.15 3.25 42.55 2.45 39.4 1.75 36.8 3.7 35.8 L3.8 34.35 4.55 35.45 Q6.55 35.05 7.0 36.85 7.25 38.35 6.7 39.05 L5.85 39.4 Q7.15 38.2 5.75 36.9 4.45 35.55 3.85 37.95 3.25 40.4 6.1 41.45 9.05 42.55 9.5 39.9 10.05 37.7 7.2 35.25 L3.4 32.4 3.45 32.45 0.85 32.85 1.95 30.95 Q0.15 28.9 0.25 24.2" fill="#ca935c" fill-rule="evenodd" stroke="none"/>
      <path d="M0.85 21.45 Q0.8 24.4 0.9 25.6 1.4 28.65 3.25 30.15 L8.25 34.25 Q10.7 36.6 11.2 39.25 L14.3 42.15 14.05 42.05 13.9 41.9 12.2 40.7 Q10.35 39.1 10.3 38.0 10.15 36.65 8.45 35.15 L5.2 32.65 Q2.0 30.2 1.15 27.45 0.55 25.85 0.55 22.05 L0.85 21.45 M6.5 36.6 Q5.85 35.6 4.65 35.6 L4.45 35.7 4.35 35.6 4.2 35.6 4.2 34.75 4.7 35.5 Q6.6 35.1 7.1 36.9 7.3 37.95 7.1 38.65 L7.0 38.7 7.0 38.65 6.9 38.1 6.9 38.0 Q6.9 37.25 6.5 36.6 M4.25 40.3 L4.1 39.7 Q4.55 40.9 6.2 41.5 L8.45 41.7 8.55 41.75 7.0 42.05 Q6.2 42.05 5.35 41.35 L4.25 40.3" fill="#d7ad86" fill-rule="evenodd" stroke="none"/>
      <path d="M43.65 25.1 Q43.75 29.85 41.95 31.85 L42.95 32.8 40.45 33.3 36.7 36.2 Q33.9 38.55 34.4 40.8 34.85 43.5 37.8 42.4 40.65 41.3 40.05 38.85 39.75 37.7 39.2 37.4 38.6 37.1 38.0 37.75 37.3 38.4 37.35 38.8 37.45 39.2 38.15 39.25 37.6 40.05 37.0 39.1 36.4 38.05 36.9 37.0 37.35 35.9 39.35 36.3 L40.05 34.45 40.25 36.65 Q42.15 37.65 41.45 40.25 40.65 43.5 36.65 44.05 33.9 44.4 33.15 42.9 L29.3 42.5 32.85 40.2 Q33.25 37.45 35.75 35.1 L40.75 30.95 Q42.7 29.5 43.05 26.5 43.3 24.85 43.05 20.65 L43.65 25.1" fill="#7a5130" fill-rule="evenodd" stroke="none"/>
      <path d="M43.6 24.2 Q43.7 28.9 41.9 30.95 L43.0 32.85 40.4 32.45 40.45 32.4 36.65 35.25 Q33.8 37.7 34.35 39.9 34.8 42.55 37.75 41.45 40.6 40.4 40.0 37.95 39.4 35.55 38.1 36.9 36.7 38.2 38.0 39.4 L37.15 39.05 Q36.6 38.35 36.85 36.85 37.3 35.05 39.3 35.45 L40.05 34.35 40.15 35.8 Q42.1 36.8 41.4 39.4 40.6 42.55 36.6 43.15 33.8 43.5 33.05 42.05 L29.15 42.55 32.8 39.25 Q33.2 36.55 35.65 34.2 L40.7 30.05 Q42.65 28.55 43.0 25.55 43.25 23.95 43.0 19.8 L43.6 24.2" fill="#ca935c" fill-rule="evenodd" stroke="none"/>
      <path d="M37.35 36.6 Q36.95 37.25 36.95 38.0 L36.95 38.1 36.85 38.65 36.85 38.7 36.75 38.65 Q36.55 37.95 36.75 36.9 37.25 35.1 39.15 35.5 L39.65 34.75 39.65 35.6 39.5 35.6 39.4 35.7 39.2 35.6 Q38.0 35.6 37.35 36.6 M43.0 21.45 L43.3 22.05 Q43.3 25.85 42.7 27.45 41.85 30.2 38.65 32.65 L35.4 35.15 Q33.7 36.65 33.55 38.0 33.5 39.1 31.65 40.7 L29.95 41.9 29.8 42.05 29.55 42.15 32.65 39.25 Q33.15 36.6 35.6 34.25 L40.6 30.15 Q42.45 28.65 42.95 25.6 L43.0 21.45 M39.6 40.3 L38.5 41.35 Q37.65 42.05 36.85 42.05 L35.3 41.75 35.4 41.7 37.65 41.5 Q39.3 40.9 39.75 39.7 L39.6 40.3" fill="#d7ad86" fill-rule="evenodd" stroke="none"/>
    </g>
  </defs>
</svg>
