<?xml version="1.0" encoding="UTF-8" standalone="no"?>
<svg xmlns:xlink="http://www.w3.org/1999/xlink" height="66.15px" width="66.075px" xmlns="http://www.w3.org/2000/svg">
  <g transform="matrix(1.5, 0.0, 0.0, 1.5, 0.075, 0.0)">
    <use height="44.05" transform="matrix(1.0, 0.0, 0.0, 1.0, 0.0, 0.0)" width="44.0" xlink:href="#shape0"/>
    <use height="0.0" transform="matrix(1.2088, 0.0, 0.0, 1.2099, 0.95, 0.75)" width="0.0" xlink:href="#sprite0"/>
    <use height="24.3" transform="matrix(1.0, 0.0, 0.0, 1.0, 0.2, 19.8)" width="43.45" xlink:href="#shape1"/>
    <use height="20.15" transform="matrix(1.1594, 0.0, 0.0, 1.1605, 6.05, 5.3)" width="28.2" xlink:href="#sprite1"/>
    <use height="8.6" transform="matrix(1.2077, 0.0, 0.0, 1.2065, 0.7585, 0.55)" width="35.05" xlink:href="#sprite2"/>
    <use height="44.0" transform="matrix(1.0, 0.0, 0.0, 1.0, -0.05, 0.0)" width="44.0" xlink:href="#shape4"/>
    <use height="32.85" transform="matrix(1.1548, 0.0, 0.0, 1.1548, 0.0655, 6.0129)" width="38.05" xlink:href="#sprite3"/>
    <use height="0.0" transform="matrix(1.2077, 0.0, 0.0, 1.2077, 1.2, 1.05)" width="0.0" xlink:href="#sprite0"/>
    <use height="8.6" transform="matrix(1.2077, 0.0, 0.0, 1.2065, 0.9585, 0.5)" width="35.05" xlink:href="#sprite2"/>
    <use height="29.45" transform="matrix(1.0, 0.0, 0.0, 1.0, 8.9, 7.0)" width="24.95" xlink:href="#shape9"/>
    <use height="20.15" transform="matrix(1.1594, 0.0, 0.0, 1.1605, 5.75, 5.55)" width="28.2" xlink:href="#sprite1"/>
  </g>
  <defs>
    <g id="shape0" transform="matrix(1.0, 0.0, 0.0, 1.0, 0.0, 0.0)">
      <path d="M7.85 8.35 Q13.75 2.5 22.05 2.5 30.45 2.5 36.35 8.35 42.25 14.25 42.25 22.65 42.25 31.0 36.35 36.9 30.45 42.8 22.05 42.8 13.75 42.8 7.85 36.9 1.9 31.0 1.9 22.65 1.9 14.25 7.85 8.35" fill="url(#gradient0)" fill-rule="evenodd" stroke="none"/>
      <path d="M22.85 8.65 L22.55 8.9 22.5 8.95 22.4 8.95 Q21.3 8.85 20.4 9.5 21.0 10.4 20.95 11.6 20.65 10.5 19.8 10.05 19.1 9.55 18.2 9.45 16.55 9.3 15.4 10.25 14.15 11.2 13.95 12.7 L14.0 13.1 Q14.2 14.1 15.25 14.5 14.0 14.55 13.75 13.8 L13.7 14.0 Q13.6 14.85 14.2 15.55 L14.8 16.05 15.75 16.35 16.05 16.35 16.15 16.4 Q17.95 16.25 19.1 15.65 18.7 16.4 17.45 16.7 L17.6 17.0 18.2 17.45 19.15 17.75 19.45 17.8 19.95 17.75 19.55 18.95 18.8 18.95 18.4 18.9 17.3 18.55 16.55 17.9 16.3 17.6 14.7 17.2 14.3 17.15 13.15 16.75 12.45 16.15 Q11.7 15.25 11.8 14.2 11.9 13.55 12.15 13.05 L12.15 12.55 Q12.4 10.6 13.9 9.4 15.35 8.15 17.3 8.35 18.4 8.45 19.3 9.0 L19.85 8.5 Q20.95 7.55 22.4 7.7 L22.5 7.7 22.55 7.65 Q22.7 7.35 23.0 7.2 23.85 6.45 24.95 6.6 26.05 6.7 26.75 7.5 L26.85 7.55 27.0 7.85 28.15 7.8 Q30.1 8.0 31.3 9.45 32.4 10.8 32.35 12.5 L32.6 12.7 32.7 12.8 Q33.3 13.65 33.2 14.85 L33.2 14.9 Q33.1 15.95 32.25 16.65 31.4 17.4 30.35 17.3 L29.5 18.25 Q28.35 19.15 26.95 19.05 L25.4 18.55 24.5 19.65 Q23.4 20.5 22.4 19.85 L22.95 18.7 Q23.35 18.95 24.2 18.35 L25.0 17.5 26.2 17.85 Q27.35 17.95 28.3 17.25 27.8 17.3 27.45 16.85 27.0 16.35 26.7 15.35 L27.95 16.25 29.05 16.5 Q29.85 16.55 30.6 16.0 31.25 15.45 31.35 14.65 L31.35 14.6 Q31.45 13.7 30.95 13.0 L30.85 12.95 30.7 12.75 Q30.65 11.45 29.8 10.35 28.8 9.2 27.2 9.05 L26.2 9.1 Q25.15 9.6 24.8 10.55 24.65 9.35 25.55 8.5 25.1 8.2 24.55 8.15 23.6 8.05 22.85 8.65 M25.95 14.3 L27.5 14.7 28.4 14.6 Q26.9 15.5 25.65 14.9 25.2 15.55 24.1 15.65 22.35 15.9 21.35 14.15 21.1 13.4 21.35 12.3 22.1 15.05 24.85 14.35 23.95 13.25 24.6 11.55 24.6 13.3 25.7 14.1 L25.95 14.3 M19.85 33.35 Q19.15 33.55 19.15 33.85 19.15 34.15 19.85 34.3 L21.55 34.55 23.2 34.3 Q23.95 34.15 23.95 33.85 23.95 33.55 23.2 33.35 L22.3 33.2 23.7 33.4 Q24.65 33.7 24.65 34.05 L23.7 34.7 21.55 34.95 19.3 34.7 18.45 34.05 Q18.45 33.7 19.3 33.4 L20.75 33.2 19.85 33.35 M12.65 34.55 L15.0 34.2 15.05 34.2 15.35 34.0 Q15.45 33.85 15.65 33.8 L15.15 33.35 16.2 33.55 16.3 33.5 16.75 33.35 19.9 32.85 19.9 32.9 17.95 33.2 16.85 33.7 Q16.7 33.75 16.6 33.9 L16.4 34.25 Q16.4 34.85 17.65 35.25 L17.95 35.35 21.7 35.8 25.35 35.35 Q26.95 34.95 26.95 34.25 26.95 33.7 25.35 33.2 L23.4 32.9 23.4 32.85 25.45 33.15 26.5 33.35 27.05 33.55 28.65 33.5 28.05 34.0 28.35 34.25 28.45 34.3 31.1 34.75 28.4 35.2 28.05 35.5 27.55 35.8 28.2 36.5 26.2 36.25 25.65 36.35 24.7 36.55 24.65 36.55 24.65 37.15 23.9 36.6 23.5 36.65 22.7 36.7 22.55 36.7 21.95 37.55 21.3 36.7 21.05 36.7 19.6 36.65 19.35 36.6 18.5 37.2 18.5 36.5 17.35 36.3 16.75 36.15 14.7 36.4 15.75 35.75 14.95 35.2 14.85 34.95 12.65 34.55 M21.4 15.0 Q22.15 16.2 23.8 16.15 L21.45 20.65 25.6 20.25 23.75 24.75 26.95 24.5 21.1 33.8 23.05 27.1 19.95 27.65 21.75 22.8 18.35 23.2 21.4 15.0" fill="#92300b" fill-rule="evenodd" stroke="none"/>
      <path d="M22.0 4.7 Q14.8 4.7 9.7 9.8 4.65 14.95 4.65 22.05 4.65 29.25 9.7 34.35 14.75 39.45 22.0 39.45 29.15 39.45 34.2 34.35 39.3 29.25 39.3 22.05 39.3 14.85 34.2 9.8 29.15 4.7 22.0 4.7 M36.4 0.0 Q39.6 0.0 41.75 2.25 44.0 4.55 44.0 7.65 L44.0 36.45 Q44.0 39.6 41.75 41.85 39.6 44.05 36.4 44.05 L7.6 44.05 Q4.45 44.05 2.25 41.85 0.0 39.65 0.0 36.45 L0.0 7.65 Q0.0 4.55 2.25 2.25 4.45 0.0 7.6 0.0 L36.4 0.0" fill="url(#gradient1)" fill-rule="evenodd" stroke="none"/>
      <path d="M33.85 10.35 Q28.9 5.45 22.1 5.4 15.2 5.45 10.35 10.35 5.5 15.1 5.45 22.0 5.5 28.95 10.35 33.8 15.2 38.65 22.1 38.65 28.9 38.65 33.85 33.8 38.65 28.95 38.65 22.0 38.65 15.1 33.85 10.35 M41.05 22.0 Q41.05 29.85 35.45 35.4 29.95 41.0 22.1 41.0 14.2 41.0 8.7 35.4 3.15 29.85 3.15 22.0 3.15 14.15 8.7 8.6 14.2 3.05 22.1 3.05 29.95 3.05 35.45 8.6 41.05 14.15 41.05 22.0" fill="url(#gradient2)" fill-rule="evenodd" stroke="none"/>
    </g>
    <linearGradient gradientTransform="matrix(0.0, -0.0188, -0.0188, 0.0, 22.05, 18.75)" gradientUnits="userSpaceOnUse" id="gradient0" spreadMethod="pad" x1="-819.2" x2="819.2">
      <stop offset="0.011764705882352941" stop-color="#f9cfb3"/>
      <stop offset="1.0" stop-color="#ff5b79"/>
    </linearGradient>
    <linearGradient gradientTransform="matrix(0.0, -0.0344, -0.0552, 0.0, 22.4, 16.35)" gradientUnits="userSpaceOnUse" id="gradient1" spreadMethod="pad" x1="-819.2" x2="819.2">
      <stop offset="0.0196078431372549" stop-color="#9c6732"/>
      <stop offset="1.0" stop-color="#7d4e2b"/>
    </linearGradient>
    <linearGradient gradientTransform="matrix(1.0E-4, 0.0223, -0.0231, 1.0E-4, 22.15, 22.25)" gradientUnits="userSpaceOnUse" id="gradient2" spreadMethod="pad" x1="-819.2" x2="819.2">
      <stop offset="0.011764705882352941" stop-color="#59351e"/>
      <stop offset="1.0" stop-color="#cc955e"/>
    </linearGradient>
    <g id="shape1" transform="matrix(1.0, 0.0, 0.0, 1.0, -0.2, -19.8)">
      <path d="M0.2 25.1 Q0.35 22.65 0.8 20.65 0.55 24.85 0.8 26.5 1.15 29.5 3.1 30.95 L8.1 35.1 Q10.6 37.45 11.0 40.2 L14.55 42.5 10.7 42.9 Q9.95 44.4 7.2 44.05 3.2 43.5 2.4 40.25 1.7 37.65 3.6 36.65 L3.8 34.45 4.5 36.3 Q6.5 35.9 6.95 37.0 7.45 38.05 6.85 39.1 6.25 40.05 5.7 39.25 6.4 39.2 6.5 38.8 6.55 38.4 5.85 37.75 5.25 37.1 4.65 37.4 4.1 37.7 3.8 38.85 3.2 41.3 6.05 42.4 9.0 43.5 9.45 40.8 9.95 38.55 7.15 36.2 L3.4 33.3 0.9 32.8 1.9 31.85 Q0.1 29.85 0.2 25.1" fill="#7a5130" fill-rule="evenodd" stroke="none"/>
      <path d="M0.25 24.2 Q0.4 21.8 0.85 19.8 0.6 23.95 0.85 25.55 1.2 28.55 3.15 30.05 L8.2 34.2 Q10.65 36.55 11.05 39.25 L14.7 42.55 10.8 42.05 Q10.05 43.5 7.25 43.15 3.25 42.55 2.45 39.4 1.75 36.8 3.7 35.8 L3.8 34.35 4.55 35.45 Q6.55 35.05 7.0 36.85 7.25 38.35 6.7 39.05 L5.85 39.4 Q7.15 38.2 5.75 36.9 4.45 35.55 3.85 37.95 3.25 40.4 6.1 41.45 9.05 42.55 9.5 39.9 10.05 37.7 7.2 35.25 L3.4 32.4 3.45 32.45 0.85 32.85 1.95 30.95 Q0.15 28.9 0.25 24.2" fill="#ca935c" fill-rule="evenodd" stroke="none"/>
      <path d="M0.85 21.45 Q0.8 24.4 0.9 25.6 1.4 28.65 3.25 30.15 L8.25 34.25 Q10.7 36.6 11.2 39.25 L14.3 42.15 14.05 42.05 13.9 41.9 12.2 40.7 Q10.35 39.1 10.3 38.0 10.15 36.65 8.45 35.15 L5.2 32.65 Q2.0 30.2 1.15 27.45 0.55 25.85 0.55 22.05 L0.85 21.45 M6.5 36.6 Q5.85 35.6 4.65 35.6 L4.45 35.7 4.35 35.6 4.2 35.6 4.2 34.75 4.7 35.5 Q6.6 35.1 7.1 36.9 7.3 37.95 7.1 38.65 L7.0 38.7 7.0 38.65 6.9 38.1 6.9 38.0 Q6.9 37.25 6.5 36.6 M4.25 40.3 L4.1 39.7 Q4.55 40.9 6.2 41.5 L8.45 41.7 8.55 41.75 7.0 42.05 Q6.2 42.05 5.35 41.35 L4.25 40.3" fill="#d7ad86" fill-rule="evenodd" stroke="none"/>
      <path d="M43.65 25.1 Q43.75 29.85 41.95 31.85 L42.95 32.8 40.45 33.3 36.7 36.2 Q33.9 38.55 34.4 40.8 34.85 43.5 37.8 42.4 40.65 41.3 40.05 38.85 39.75 37.7 39.2 37.4 38.6 37.1 38.0 37.75 37.3 38.4 37.35 38.8 37.45 39.2 38.15 39.25 37.6 40.05 37.0 39.1 36.4 38.05 36.9 37.0 37.35 35.9 39.35 36.3 L40.05 34.45 40.25 36.65 Q42.15 37.65 41.45 40.25 40.65 43.5 36.65 44.05 33.9 44.4 33.15 42.9 L29.3 42.5 32.85 40.2 Q33.25 37.45 35.75 35.1 L40.75 30.95 Q42.7 29.5 43.05 26.5 43.3 24.85 43.05 20.65 L43.65 25.1" fill="#7a5130" fill-rule="evenodd" stroke="none"/>
      <path d="M43.6 24.2 Q43.7 28.9 41.9 30.95 L43.0 32.85 40.4 32.45 40.45 32.4 36.65 35.25 Q33.8 37.7 34.35 39.9 34.8 42.55 37.75 41.45 40.6 40.4 40.0 37.95 39.4 35.55 38.1 36.9 36.7 38.2 38.0 39.4 L37.15 39.05 Q36.6 38.35 36.85 36.85 37.3 35.05 39.3 35.45 L40.05 34.35 40.15 35.8 Q42.1 36.8 41.4 39.4 40.6 42.55 36.6 43.15 33.8 43.5 33.05 42.05 L29.15 42.55 32.8 39.25 Q33.2 36.55 35.65 34.2 L40.7 30.05 Q42.65 28.55 43.0 25.55 43.25 23.95 43.0 19.8 L43.6 24.2" fill="#ca935c" fill-rule="evenodd" stroke="none"/>
      <path d="M37.35 36.6 Q36.95 37.25 36.95 38.0 L36.95 38.1 36.85 38.65 36.85 38.7 36.75 38.65 Q36.55 37.95 36.75 36.9 37.25 35.1 39.15 35.5 L39.65 34.75 39.65 35.6 39.5 35.6 39.4 35.7 39.2 35.6 Q38.0 35.6 37.35 36.6 M43.0 21.45 L43.3 22.05 Q43.3 25.85 42.7 27.45 41.85 30.2 38.65 32.65 L35.4 35.15 Q33.7 36.65 33.55 38.0 33.5 39.1 31.65 40.7 L29.95 41.9 29.8 42.05 29.55 42.15 32.65 39.25 Q33.15 36.6 35.6 34.25 L40.6 30.15 Q42.45 28.65 42.95 25.6 L43.0 21.45 M39.6 40.3 L38.5 41.35 Q37.65 42.05 36.85 42.05 L35.3 41.75 35.4 41.7 37.65 41.5 Q39.3 40.9 39.75 39.7 L39.6 40.3" fill="#d7ad86" fill-rule="evenodd" stroke="none"/>
    </g>
    <g id="sprite1" transform="matrix(1.0, 0.0, 0.0, 1.0, 0.0, 0.0)">
      <use height="20.15" transform="matrix(1.0, 0.0, 0.0, 1.0, 0.0, 0.0)" width="28.2" xlink:href="#shape2"/>
    </g>
    <g id="shape2" transform="matrix(1.0, 0.0, 0.0, 1.0, 0.0, 0.0)">
      <path d="M27.65 18.45 L27.4 18.95 Q26.2 20.8 23.4 19.8 19.6 18.5 17.35 14.05 14.8 9.1 9.75 7.4 4.1 5.65 0.0 10.3 1.0 6.85 3.7 4.15 7.2 0.65 11.9 0.05 L14.8 0.05 18.4 0.65 Q21.55 1.65 24.05 4.15 28.2 8.3 28.2 14.25 28.2 16.45 27.65 18.45" fill="#ffffff" fill-opacity="0.19607843" fill-rule="evenodd" stroke="none"/>
    </g>
    <g id="sprite2" transform="matrix(1.0, 0.0, 0.0, 1.0, 0.2, 0.0)">
      <use height="8.6" transform="matrix(1.0, 0.0, 0.0, 1.0, -0.2, 0.0)" width="35.05" xlink:href="#shape3"/>
    </g>
    <g id="shape3" transform="matrix(1.0, 0.0, 0.0, 1.0, 0.2, 0.0)">
      <path d="M34.85 8.6 Q34.8 6.95 34.4 5.7 33.0 1.3 27.2 1.3 L7.45 1.3 Q0.05 1.3 -0.2 8.5 L-0.2 7.65 Q-0.2 0.0 7.45 0.0 L27.2 0.0 Q33.0 0.0 34.4 4.4 34.85 5.8 34.85 7.65 L34.85 8.6" fill="#e7deda" fill-rule="evenodd" stroke="none"/>
    </g>
    <g id="shape4" transform="matrix(1.0, 0.0, 0.0, 1.0, 0.05, 0.0)">
      <path d="M36.0 36.7 Q30.1 42.6 21.75 42.6 13.4 42.6 7.55 36.7 1.6 30.85 1.6 22.45 1.6 14.1 7.55 8.2 13.4 2.3 21.75 2.3 30.1 2.3 36.0 8.2 41.95 14.1 41.95 22.45 41.95 30.85 36.0 36.7" fill="url(#gradient3)" fill-rule="evenodd" stroke="none"/>
      <path d="M34.2 9.75 Q29.1 4.7 21.95 4.7 14.8 4.7 9.7 9.75 4.65 14.85 4.65 22.0 4.65 29.15 9.7 34.25 14.8 39.3 21.95 39.3 29.2 39.3 34.2 34.25 39.3 29.2 39.3 22.0 39.3 14.85 34.2 9.75 M36.35 0.0 Q39.5 0.0 41.7 2.25 43.95 4.45 43.95 7.6 L43.95 36.45 Q43.95 39.55 41.7 41.8 39.5 44.0 36.35 44.0 L7.6 44.0 Q4.4 44.0 2.2 41.8 -0.05 39.55 -0.05 36.45 L-0.05 7.6 Q-0.05 4.45 2.2 2.25 4.4 0.0 7.6 0.0 L36.35 0.0" fill="url(#gradient4)" fill-rule="evenodd" stroke="none"/>
      <path d="M22.0 5.4 Q15.05 5.5 10.2 10.35 5.35 15.2 5.35 22.0 5.35 28.85 10.2 33.7 15.05 38.65 22.0 38.65 28.85 38.65 33.7 33.7 38.55 28.85 38.55 22.0 38.55 15.2 33.7 10.35 28.85 5.5 22.0 5.4 M8.55 8.6 Q14.1 3.0 22.0 3.0 29.85 3.0 35.4 8.6 40.95 14.2 40.95 22.0 40.95 29.9 35.4 35.4 29.85 41.0 22.0 41.0 14.1 41.0 8.55 35.4 3.0 29.9 3.0 22.0 3.0 14.2 8.55 8.6" fill="url(#gradient5)" fill-rule="evenodd" stroke="none"/>
    </g>
    <linearGradient gradientTransform="matrix(0.0, -0.0188, -0.0188, 0.0, 21.7, 18.55)" gradientUnits="userSpaceOnUse" id="gradient3" spreadMethod="pad" x1="-819.2" x2="819.2">
      <stop offset="0.011764705882352941" stop-color="#f9cfb3"/>
      <stop offset="1.0" stop-color="#ff5b79"/>
    </linearGradient>
    <linearGradient gradientTransform="matrix(0.0, -0.0173, -0.0173, 0.0, 21.95, 2.25)" gradientUnits="userSpaceOnUse" id="gradient4" spreadMethod="pad" x1="-819.2" x2="819.2">
      <stop offset="0.011764705882352941" stop-color="#d13800"/>
      <stop offset="0.9764705882352941" stop-color="#591600"/>
    </linearGradient>
    <linearGradient gradientTransform="matrix(0.0, -0.0168, -0.0168, 0.0, 21.95, 26.6)" gradientUnits="userSpaceOnUse" id="gradient5" spreadMethod="pad" x1="-819.2" x2="819.2">
      <stop offset="0.011764705882352941" stop-color="#ffa582"/>
      <stop offset="0.9764705882352941" stop-color="#591600"/>
    </linearGradient>
    <g id="sprite3" transform="matrix(1.0, 0.0, 0.0, 1.0, -0.1, 2.5)">
      <clipPath id="clipPath0" transform="matrix(1.0, 0.0, 0.0, 1.0, 0.0, 0.0)">
        <path d="M34.0 -2.5 L38.15 -1.6 38.15 30.35 0.5 30.35 0.5 -1.55 3.5 -2.1 6.95 6.9 5.35 20.95 5.55 20.85 7.3 22.85 Q12.1 27.7 18.95 27.7 25.75 27.7 30.55 22.85 L33.05 19.75 33.2 19.55 33.0 19.65 29.75 13.25 34.0 -2.5" fill="#ff0000" fill-rule="evenodd" stroke="none"/>
      </clipPath>
      <g clip-path="url(#clipPath0)">
        <use height="29.6" transform="matrix(1.0, 0.0, 0.0, 1.0, 20.3, 0.0)" width="17.8" xlink:href="#sprite4"/>
        <use height="28.95" transform="matrix(1.0, 0.0, 0.0, 1.0, 19.9, 1.15)" width="18.05" xlink:href="#shape7"/>
        <use height="29.6" transform="matrix(-1.0, 0.0, 0.0, 1.0, 17.9, 0.0)" width="17.8" xlink:href="#sprite4"/>
        <use height="28.95" transform="matrix(1.0, 0.0, 0.0, 1.0, 0.25, 1.15)" width="18.05" xlink:href="#shape8"/>
      </g>
    </g>
    <g id="sprite4" transform="matrix(1.0, 0.0, 0.0, 1.0, 0.0, 0.0)">
      <use height="29.6" transform="matrix(1.0, 0.0, 0.0, 1.0, 0.0, 0.0)" width="17.8" xlink:href="#shape6"/>
    </g>
    <g id="shape6" transform="matrix(1.0, 0.0, 0.0, 1.0, 0.0, 0.0)">
      <path d="M15.35 1.0 L15.95 0.0 Q15.7 0.8 15.6 1.8 L15.55 2.45 15.95 3.55 17.3 7.0 Q17.8 8.8 17.8 10.85 L17.55 13.15 17.65 13.3 Q17.3 14.6 15.75 14.85 16.6 16.5 16.85 19.4 17.65 25.05 15.2 28.0 13.2 30.3 6.95 29.3 2.15 28.55 0.0 27.4 L2.25 27.0 Q3.9 26.85 6.15 25.4 9.4 23.4 12.0 19.75 L11.95 21.55 Q11.7 23.55 10.65 24.8 10.2 25.3 10.3 25.65 L10.95 26.1 Q11.65 26.25 12.6 25.55 13.9 24.6 14.6 22.35 15.3 20.05 14.9 17.8 L14.15 16.45 13.7 15.05 Q13.3 13.85 13.3 12.65 13.3 10.2 15.35 10.1 L14.75 11.15 Q14.25 12.4 14.9 13.5 16.9 13.05 16.95 11.4 17.0 10.45 16.15 8.55 15.15 6.35 14.95 4.65 14.75 2.6 15.3 1.1 L15.35 1.05 15.35 1.0" fill="#261e00" fill-rule="evenodd" stroke="none"/>
    </g>
    <g id="shape7" transform="matrix(1.0, 0.0, 0.0, 1.0, -19.9, -1.15)">
      <path d="M34.85 5.3 Q34.6 3.25 34.9 2.0 L35.2 1.15 35.15 2.65 Q35.25 4.4 35.95 5.35 38.1 8.25 37.5 13.9 L37.05 14.75 Q36.35 15.55 35.15 15.55 L34.35 14.15 35.55 13.85 Q36.8 13.3 36.85 12.05 36.9 11.1 36.0 9.15 35.05 7.0 34.85 5.3" fill="url(#gradient6)" fill-rule="evenodd" stroke="none"/>
      <path d="M34.85 5.3 Q34.6 3.25 34.9 2.0 L35.2 1.15 35.15 2.65 Q35.25 4.4 35.95 5.35 38.1 8.25 37.5 13.9 L37.05 14.75 Q36.35 15.55 35.15 15.55 L34.35 14.15 35.55 13.85 Q36.8 13.3 36.85 12.05 36.9 11.1 36.0 9.15 35.05 7.0 34.85 5.3" fill="url(#gradient7)" fill-rule="evenodd" stroke="none"/>
      <path d="M37.3 9.0 Q36.8 6.6 35.95 5.35 35.3 4.4 35.2 2.65 L35.2 1.5 Q35.25 2.85 36.0 4.3 L37.55 7.85 Q38.15 9.9 37.9 12.0 L37.5 13.65 Q37.85 11.65 37.3 9.0" fill="#ffd6cc" fill-rule="evenodd" stroke="none"/>
      <path d="M31.8 22.15 Q31.55 24.15 30.5 25.45 29.9 26.15 30.3 26.6 30.65 27.0 31.5 26.85 33.8 26.4 34.45 23.3 35.15 20.15 34.85 18.75 L34.05 17.05 Q33.3 15.75 33.3 13.85 33.3 11.35 35.2 10.7 L34.55 11.9 Q34.05 13.35 35.05 14.55 36.25 16.0 36.6 19.3 37.0 22.55 36.35 25.75 36.2 26.75 35.55 27.75 34.2 29.8 31.6 29.85 L26.8 29.45 Q24.2 28.85 20.9 27.05 L24.6 26.2 Q28.9 24.55 31.85 20.4 L31.8 22.15" fill="url(#gradient8)" fill-rule="evenodd" stroke="none"/>
      <path d="M34.0 11.75 Q32.95 13.3 33.55 15.65 33.15 14.45 33.15 13.25 33.15 10.85 35.2 10.7 34.55 11.0 34.0 11.75" fill="#ebc7be" fill-rule="evenodd" stroke="none"/>
      <path d="M35.2 19.1 Q35.65 20.3 35.35 22.1 34.5 27.5 31.0 27.5 30.1 27.55 30.1 26.25 L30.65 26.65 Q31.4 26.95 32.5 26.15 33.8 25.2 34.5 22.9 35.15 20.55 34.75 18.25 L35.2 19.1" fill="#d68d7c" fill-rule="evenodd" stroke="none"/>
      <path d="M36.75 22.6 L36.5 18.3 36.9 22.1 Q36.95 26.35 35.05 28.6 33.1 30.9 26.85 29.65 22.65 28.8 19.9 27.5 L21.15 27.0 25.9 28.8 Q31.2 30.3 33.8 28.75 36.45 27.2 36.75 22.6" fill="#261e00" fill-rule="evenodd" stroke="none"/>
    </g>
    <linearGradient gradientTransform="matrix(-4.0E-4, 0.0071, -0.0071, -4.0E-4, 35.95, 11.45)" gradientUnits="userSpaceOnUse" id="gradient6" spreadMethod="pad" x1="-819.2" x2="819.2">
      <stop offset="0.011764705882352941" stop-color="#ff8266"/>
      <stop offset="0.9764705882352941" stop-color="#591600"/>
    </linearGradient>
    <linearGradient gradientTransform="matrix(-4.0E-4, 0.0071, -0.0071, -4.0E-4, 35.95, 11.45)" gradientUnits="userSpaceOnUse" id="gradient7" spreadMethod="pad" x1="-819.2" x2="819.2">
      <stop offset="0.011764705882352941" stop-color="#ff3800"/>
      <stop offset="0.9764705882352941" stop-color="#591600"/>
    </linearGradient>
    <linearGradient gradientTransform="matrix(-5.0E-4, 0.0095, -0.0095, -5.0E-4, 28.85, 24.2)" gradientUnits="userSpaceOnUse" id="gradient8" spreadMethod="pad" x1="-819.2" x2="819.2">
      <stop offset="0.011764705882352941" stop-color="#ff8266"/>
      <stop offset="0.9764705882352941" stop-color="#591600"/>
    </linearGradient>
    <g id="shape8" transform="matrix(1.0, 0.0, 0.0, 1.0, -0.25, -1.15)">
      <path d="M3.35 5.3 Q3.6 3.25 3.3 2.0 L3.0 1.15 3.05 2.65 Q2.95 4.4 2.25 5.35 0.1 8.25 0.7 13.9 L1.15 14.75 Q1.85 15.55 3.05 15.55 L3.85 14.15 2.65 13.85 Q1.4 13.3 1.35 12.05 1.3 11.1 2.2 9.15 3.15 7.0 3.35 5.3" fill="url(#gradient9)" fill-rule="evenodd" stroke="none"/>
      <path d="M3.35 5.3 Q3.6 3.25 3.3 2.0 L3.0 1.15 3.05 2.65 Q2.95 4.4 2.25 5.35 0.1 8.25 0.7 13.9 L1.15 14.75 Q1.85 15.55 3.05 15.55 L3.85 14.15 2.65 13.85 Q1.4 13.3 1.35 12.05 1.3 11.1 2.2 9.15 3.15 7.0 3.35 5.3" fill="url(#gradient10)" fill-rule="evenodd" stroke="none"/>
      <path d="M0.9 9.0 Q1.4 6.6 2.25 5.35 2.9 4.4 3.0 2.65 L3.0 1.5 Q2.95 2.85 2.2 4.3 1.0 6.6 0.65 7.85 0.05 9.9 0.3 12.0 L0.7 13.65 Q0.35 11.65 0.9 9.0" fill="#ffd6cc" fill-rule="evenodd" stroke="none"/>
      <path d="M6.4 22.15 Q6.65 24.15 7.7 25.45 8.3 26.15 7.9 26.6 7.55 27.0 6.7 26.85 4.4 26.4 3.75 23.3 3.05 20.15 3.35 18.75 L4.15 17.05 Q4.9 15.75 4.9 13.85 4.9 11.35 3.0 10.7 L3.65 11.9 Q4.15 13.35 3.15 14.55 1.95 16.0 1.6 19.3 1.2 22.55 1.85 25.75 2.0 26.75 2.65 27.75 4.0 29.8 6.6 29.85 L11.4 29.45 Q14.0 28.85 17.3 27.05 L13.6 26.2 Q9.3 24.55 6.35 20.4 L6.4 22.15" fill="url(#gradient11)" fill-rule="evenodd" stroke="none"/>
      <path d="M4.2 11.75 Q5.25 13.3 4.65 15.65 5.05 14.45 5.05 13.25 5.05 10.85 3.0 10.7 L4.2 11.75" fill="#ebc7be" fill-rule="evenodd" stroke="none"/>
      <path d="M3.0 19.1 Q2.55 20.3 2.85 22.1 3.7 27.5 7.2 27.5 8.1 27.55 8.1 26.25 L7.55 26.65 Q6.8 26.95 5.7 26.15 4.4 25.2 3.7 22.9 3.05 20.55 3.45 18.25 L3.0 19.1" fill="#d68d7c" fill-rule="evenodd" stroke="none"/>
      <path d="M1.45 22.6 L1.7 18.3 1.3 22.1 Q1.25 26.35 3.15 28.6 5.1 30.9 11.35 29.65 15.55 28.8 18.3 27.5 L17.05 27.0 12.3 28.8 Q7.0 30.3 4.4 28.75 1.75 27.2 1.45 22.6" fill="#261e00" fill-rule="evenodd" stroke="none"/>
    </g>
    <linearGradient gradientTransform="matrix(4.0E-4, 0.0071, 0.0071, -4.0E-4, 2.25, 11.45)" gradientUnits="userSpaceOnUse" id="gradient9" spreadMethod="pad" x1="-819.2" x2="819.2">
      <stop offset="0.011764705882352941" stop-color="#ff8266"/>
      <stop offset="0.9764705882352941" stop-color="#591600"/>
    </linearGradient>
    <linearGradient gradientTransform="matrix(4.0E-4, 0.0071, 0.0071, -4.0E-4, 2.25, 11.45)" gradientUnits="userSpaceOnUse" id="gradient10" spreadMethod="pad" x1="-819.2" x2="819.2">
      <stop offset="0.011764705882352941" stop-color="#ff3800"/>
      <stop offset="0.9764705882352941" stop-color="#591600"/>
    </linearGradient>
    <linearGradient gradientTransform="matrix(5.0E-4, 0.0095, 0.0095, -5.0E-4, 9.35, 24.2)" gradientUnits="userSpaceOnUse" id="gradient11" spreadMethod="pad" x1="-819.2" x2="819.2">
      <stop offset="0.011764705882352941" stop-color="#ff8266"/>
      <stop offset="0.9764705882352941" stop-color="#591600"/>
    </linearGradient>
    <g id="shape9" transform="matrix(1.0, 0.0, 0.0, 1.0, -8.9, -7.0)">
      <path d="M29.05 13.05 Q29.45 13.7 29.45 14.7 29.45 16.4 28.1 18.3 27.0 19.9 25.4 20.55 26.4 22.2 26.4 23.85 L26.25 25.1 Q27.8 25.7 28.45 26.75 28.95 27.55 28.95 29.1 28.95 31.2 28.2 31.2 26.75 30.7 26.9 28.95 27.0 27.2 25.6 27.05 24.9 27.7 22.5 28.4 18.6 29.6 18.6 31.75 18.6 32.35 19.35 33.2 20.35 34.35 21.85 34.35 23.65 34.35 24.1 33.7 24.55 33.0 25.0 33.0 25.65 33.0 25.65 33.9 25.65 36.45 22.05 36.45 18.9 36.45 17.75 34.35 16.25 31.65 17.05 30.05 17.85 28.4 19.75 26.65 L20.15 26.3 19.45 26.35 17.8 26.75 Q16.8 27.1 16.05 27.75 L15.15 28.35 Q14.55 28.35 14.55 27.75 14.55 25.6 18.15 24.95 L21.15 25.05 21.6 23.6 Q21.6 22.45 20.9 21.45 L19.3 21.2 Q16.35 21.0 15.1 19.25 L13.6 16.8 Q13.05 15.7 14.5 15.2 15.95 14.7 15.85 15.9 15.7 17.05 16.5 18.2 16.9 19.55 19.75 19.7 17.85 17.45 17.85 14.45 17.85 10.95 21.15 10.2 24.45 9.4 24.45 12.4 24.45 13.35 23.5 15.25 L22.55 17.1 24.45 19.25 Q24.75 19.05 25.3 18.8 26.7 17.8 27.3 15.95 L27.6 14.2 27.65 13.25 Q28.65 12.35 29.05 13.05 M31.3 26.15 L31.35 26.15 31.5 26.5 31.85 26.65 31.85 26.7 Q31.65 26.7 31.5 26.85 31.35 27.0 31.35 27.2 L31.3 27.2 31.15 26.85 Q31.0 26.7 30.8 26.7 L30.8 26.65 31.15 26.5 31.3 26.15 M10.95 21.8 Q10.95 22.45 11.4 22.9 11.85 23.35 12.5 23.35 11.85 23.35 11.4 23.8 10.95 24.25 10.95 24.9 L10.9 24.9 Q10.9 24.25 10.45 23.8 10.0 23.35 9.4 23.35 10.0 23.35 10.45 22.9 10.9 22.45 10.9 21.8 L10.95 21.8 M18.2 8.75 L18.2 8.85 Q17.65 8.85 17.25 9.2 16.9 9.6 16.9 10.15 16.9 9.6 16.5 9.2 16.15 8.85 15.6 8.85 L15.6 8.75 Q16.15 8.75 16.5 8.35 16.9 8.0 16.9 7.5 16.9 8.0 17.25 8.35 17.65 8.75 18.2 8.75 M29.65 33.7 L29.75 34.0 30.1 34.15 30.1 34.2 29.75 34.3 29.65 34.65 29.45 34.65 29.3 34.3 29.0 34.2 29.0 34.15 29.3 34.0 29.45 33.7 29.65 33.7" fill="#92300b" fill-rule="evenodd" stroke="none"/>
      <path d="M32.9 19.7 L32.75 20.15 32.6 20.15 32.4 19.7 Q32.25 19.55 32.0 19.55 L32.4 19.35 32.6 18.95 32.75 18.95 Q32.75 19.2 32.9 19.35 L33.35 19.55 32.9 19.7" fill="#496125" fill-rule="evenodd" stroke="none"/>
      <path d="M32.9 19.7 L33.35 19.55 32.9 19.35 Q32.75 19.2 32.75 18.95 L32.6 18.95 32.4 19.35 32.0 19.55 Q32.25 19.55 32.4 19.7 L32.6 20.15 32.75 20.15 32.9 19.7 M18.2 8.75 Q17.65 8.75 17.25 8.35 16.9 8.0 16.9 7.5 16.9 8.0 16.5 8.35 16.15 8.75 15.6 8.75 L15.6 8.85 Q16.15 8.85 16.5 9.2 16.9 9.6 16.9 10.15 16.9 9.6 17.25 9.2 17.65 8.85 18.2 8.85 L18.2 8.75 M10.95 21.8 L10.9 21.8 Q10.9 22.45 10.45 22.9 10.0 23.35 9.4 23.35 10.0 23.35 10.45 23.8 10.9 24.25 10.9 24.9 L10.95 24.9 Q10.95 24.25 11.4 23.8 11.85 23.35 12.5 23.35 11.85 23.35 11.4 22.9 10.95 22.45 10.95 21.8 M31.3 26.15 L31.15 26.5 30.8 26.65 30.8 26.7 Q31.0 26.7 31.15 26.85 L31.3 27.2 31.35 27.2 Q31.35 27.0 31.5 26.85 31.65 26.7 31.85 26.7 L31.85 26.65 31.5 26.5 31.35 26.15 31.3 26.15" fill="none" stroke="#92300b" stroke-linecap="round" stroke-linejoin="round" stroke-width="1.0"/>
      <path d="M29.65 33.7 L29.45 33.7 29.3 34.0 29.0 34.15 29.0 34.2 29.3 34.3 29.45 34.65 29.65 34.65 29.75 34.3 30.1 34.2 30.1 34.15 29.75 34.0 29.65 33.7" fill="none" stroke="#92300b" stroke-linecap="round" stroke-linejoin="round" stroke-width="0.9"/>
    </g>
  </defs>
</svg>
