<?xml version="1.0" encoding="UTF-8" standalone="no"?>
<svg xmlns:xlink="http://www.w3.org/1999/xlink" height="66.0px" width="66.0px" xmlns="http://www.w3.org/2000/svg">
  <g transform="matrix(1.5, 0.0, 0.0, 1.5, 0.0, 0.0)">
    <use height="44.0" transform="matrix(1.0, 0.0, 0.0, 1.0, 0.0, 0.0)" width="44.0" xlink:href="#shape0"/>
    <use height="20.15" transform="matrix(1.1594, 0.0, 0.0, 1.1594, 5.85, 5.45)" width="28.2" xlink:href="#sprite0"/>
    <use height="8.6" transform="matrix(1.2125, 0.0, 0.0, 1.2125, 0.7075, 1.0)" width="35.05" xlink:href="#sprite1"/>
    <use height="20.8" transform="matrix(1.0, 0.0, 0.0, 1.0, 0.6, 23.2)" width="42.2" xlink:href="#shape3"/>
  </g>
  <defs>
    <g id="shape0" transform="matrix(1.0, 0.0, 0.0, 1.0, 0.0, 0.0)">
      <path d="M41.8 2.25 Q44.0 4.45 44.0 7.6 L44.0 36.4 Q44.0 39.6 41.8 41.8 39.6 44.0 36.4 44.0 L7.6 44.0 Q4.45 44.0 2.25 41.8 0.0 39.6 0.0 36.4 L0.0 7.6 Q0.0 4.45 2.25 2.25 4.45 0.0 7.6 0.0 L36.4 0.0 Q39.55 0.0 41.8 2.25" fill="url(#gradient0)" fill-rule="evenodd" stroke="none"/>
      <path d="M40.6 22.05 Q40.6 29.75 35.2 35.2 29.75 40.6 22.05 40.6 14.3 40.6 8.85 35.2 3.4 29.75 3.4 22.05 3.4 14.3 8.85 8.95 14.3 3.5 22.05 3.5 29.75 3.5 35.2 8.95 40.6 14.4 40.6 22.05" fill="url(#gradient1)" fill-rule="evenodd" stroke="none"/>
      <path d="M30.8 30.65 L28.3 30.55 Q27.0 30.0 26.8 28.6 L26.85 28.6 Q26.5 27.5 27.1 26.4 L27.5 26.1 28.0 26.15 28.25 26.55 28.2 27.0 Q27.85 27.65 28.05 28.35 L28.05 28.4 Q28.2 29.1 28.85 29.4 L30.45 29.45 30.35 29.55 Q31.2 29.15 31.55 28.4 31.85 27.65 31.55 26.85 L31.55 26.8 31.4 26.45 31.3 26.3 29.45 23.25 29.4 23.1 29.35 23.1 27.5 20.0 Q27.15 19.6 27.1 19.05 26.65 17.85 27.2 16.75 27.7 15.5 28.95 15.0 L29.0 14.9 31.5 15.1 31.5 15.05 Q32.8 15.6 33.0 16.9 33.25 18.2 32.7 19.15 L32.35 19.4 31.85 19.35 31.6 18.95 Q31.45 18.8 31.65 18.55 31.9 17.95 31.75 17.15 31.7 16.45 31.05 16.2 L31.0 16.2 29.45 16.1 Q28.7 16.5 28.25 17.25 27.95 18.0 28.25 18.75 L28.35 18.85 28.5 19.3 28.6 19.3 30.15 21.9 32.7 20.35 33.4 19.9 33.5 19.85 Q34.85 19.5 36.0 20.1 37.2 20.7 37.7 21.8 L37.8 21.8 Q38.2 23.15 37.6 24.4 37.05 25.7 35.75 25.9 L33.6 25.65 33.3 25.2 Q33.15 25.05 33.3 24.8 33.4 24.55 33.65 24.45 L34.1 24.5 35.5 24.65 36.5 23.85 Q36.85 23.15 36.6 22.2 L36.6 22.25 Q36.2 21.5 35.45 21.2 L33.9 21.1 33.4 21.4 30.8 23.05 32.25 25.45 32.4 25.65 32.8 26.35 32.75 26.35 Q33.25 27.65 32.7 28.9 32.15 30.15 30.8 30.65 M9.65 32.8 L8.9 32.05 8.8 31.95 11.5 31.95 11.45 31.9 15.35 31.9 15.35 31.85 17.15 31.85 17.2 31.75 Q17.25 31.05 17.75 30.5 18.45 29.9 19.35 29.9 L20.25 29.9 20.25 19.65 19.6 19.65 19.6 25.0 19.1 25.0 17.65 25.0 17.65 17.9 17.65 16.2 20.25 15.65 20.25 15.3 19.25 14.6 19.15 14.45 19.1 14.45 Q18.1 13.5 18.1 12.05 18.1 10.7 19.1 9.7 L19.15 9.7 Q20.2 8.7 21.5 8.7 L21.75 8.7 22.0 8.7 Q23.45 8.7 24.4 9.7 L24.45 9.7 Q25.45 10.7 25.45 12.05 25.45 13.5 24.45 14.45 L24.4 14.45 23.5 15.2 23.4 15.3 23.4 15.65 25.95 16.2 25.95 17.9 25.95 25.0 24.5 25.0 23.9 25.0 23.9 19.65 23.4 19.65 23.4 29.9 24.4 29.9 Q25.35 29.9 26.0 30.5 26.5 31.05 26.65 31.75 L26.7 31.9 35.1 31.9 35.1 31.95 35.05 31.95 35.0 32.05 34.25 32.8 Q29.1 37.95 21.9 37.95 14.7 37.95 9.65 32.8 M28.95 17.35 Q29.15 16.9 29.55 16.75 L30.4 16.8 30.95 17.4 Q31.15 17.85 30.95 18.2 L30.35 18.8 29.45 18.75 28.9 18.1 Q28.75 17.75 28.95 17.35 M34.65 23.95 L34.15 23.35 34.15 22.6 Q34.35 22.15 34.8 21.95 35.15 21.75 35.6 21.95 36.05 22.15 36.15 22.6 36.35 23.0 36.1 23.4 L35.5 23.95 Q35.1 24.15 34.65 23.95 M12.9 30.65 Q11.55 30.15 11.0 28.9 10.45 27.65 10.95 26.35 L10.9 26.35 11.3 25.65 11.45 25.45 12.9 23.05 10.3 21.4 9.8 21.1 8.25 21.2 Q7.5 21.5 7.1 22.25 L7.1 22.2 Q6.85 23.15 7.2 23.85 7.55 24.5 8.2 24.65 L9.6 24.5 10.05 24.45 10.4 24.8 10.4 25.2 10.1 25.65 7.95 25.9 Q6.65 25.7 6.1 24.4 5.5 23.15 5.9 21.8 L6.0 21.8 Q6.5 20.7 7.7 20.1 8.85 19.5 10.2 19.85 L10.3 19.9 11.0 20.35 13.55 21.9 15.1 19.3 15.2 19.3 15.35 18.85 15.45 18.75 Q15.75 18.0 15.45 17.25 15.0 16.5 14.25 16.1 L12.7 16.2 12.65 16.2 Q12.0 16.45 11.95 17.15 11.8 17.95 12.05 18.55 12.25 18.8 12.1 18.95 L11.85 19.35 11.35 19.4 11.0 19.15 Q10.45 18.2 10.7 16.9 10.9 15.6 12.2 15.05 L12.2 15.1 14.7 14.9 14.75 15.0 Q16.0 15.5 16.5 16.75 17.05 17.85 16.6 19.05 L16.2 20.0 14.35 23.1 14.3 23.1 14.25 23.25 12.4 26.3 12.3 26.45 12.15 26.8 12.15 26.85 Q11.85 27.65 12.15 28.4 12.5 29.15 13.35 29.55 L13.25 29.45 14.85 29.4 Q15.5 29.1 15.65 28.4 L15.65 28.35 Q15.85 27.65 15.5 27.0 L15.45 26.55 15.7 26.15 16.2 26.1 16.6 26.4 Q17.2 27.5 16.85 28.6 L16.9 28.6 Q16.7 30.0 15.4 30.55 L12.9 30.65 M13.35 26.85 L14.2 26.8 14.75 27.35 Q14.95 27.75 14.75 28.15 L14.2 28.8 13.4 28.85 12.75 28.3 Q12.6 27.85 12.75 27.4 12.95 27.05 13.35 26.85 M14.75 17.35 Q14.95 17.75 14.8 18.1 L14.25 18.75 13.35 18.8 12.75 18.2 Q12.55 17.85 12.75 17.4 12.95 16.95 13.3 16.8 L14.15 16.75 14.75 17.35 M9.05 23.95 Q8.6 24.15 8.2 23.95 L7.6 23.4 Q7.35 23.0 7.55 22.6 7.65 22.15 8.1 21.95 8.55 21.75 8.9 21.95 L9.55 22.6 9.55 23.35 9.05 23.95 M30.35 26.85 L30.95 27.4 30.95 28.3 30.3 28.85 29.5 28.8 28.95 28.15 Q28.75 27.75 28.95 27.35 29.1 26.9 29.5 26.8 L30.35 26.85" fill="#496125" fill-rule="evenodd" stroke="none"/>
      <path d="M10.05 10.35 Q5.2 15.15 5.1 22.05 5.2 29.0 10.05 33.85 14.9 38.75 21.8 38.75 28.7 38.75 33.65 33.85 38.45 29.0 38.45 22.05 38.45 15.15 33.65 10.35 28.7 5.45 21.8 5.4 14.9 5.45 10.05 10.35 M21.8 3.0 Q29.7 3.0 35.2 8.6 40.85 14.1 40.85 22.05 40.85 29.9 35.2 35.45 29.7 41.1 21.8 41.1 13.85 41.1 8.35 35.45 2.8 29.9 2.8 22.05 2.8 14.1 8.35 8.6 13.85 3.0 21.8 3.0" fill="url(#gradient2)" fill-rule="evenodd" stroke="none"/>
    </g>
    <linearGradient gradientTransform="matrix(0.0, -0.0283, -0.0551, 0.0, 22.6, 21.95)" gradientUnits="userSpaceOnUse" id="gradient0" spreadMethod="pad" x1="-819.2" x2="819.2">
      <stop offset="0.011764705882352941" stop-color="#9dae7c"/>
      <stop offset="1.0" stop-color="#7e8f45"/>
    </linearGradient>
    <linearGradient gradientTransform="matrix(0.0, -0.0173, -0.0173, 0.0, 22.05, 18.5)" gradientUnits="userSpaceOnUse" id="gradient1" spreadMethod="pad" x1="-819.2" x2="819.2">
      <stop offset="0.011764705882352941" stop-color="#d3d4b5"/>
      <stop offset="1.0" stop-color="#71a26f"/>
    </linearGradient>
    <linearGradient gradientTransform="matrix(1.0E-4, 0.0223, -0.0232, 1.0E-4, 21.85, 22.3)" gradientUnits="userSpaceOnUse" id="gradient2" spreadMethod="pad" x1="-819.2" x2="819.2">
      <stop offset="0.011764705882352941" stop-color="#516537"/>
      <stop offset="1.0" stop-color="#a8ce99"/>
    </linearGradient>
    <g id="sprite0" transform="matrix(1.0, 0.0, 0.0, 1.0, 0.0, 0.0)">
      <use height="20.15" transform="matrix(1.0, 0.0, 0.0, 1.0, 0.0, 0.0)" width="28.2" xlink:href="#shape1"/>
    </g>
    <g id="shape1" transform="matrix(1.0, 0.0, 0.0, 1.0, 0.0, 0.0)">
      <path d="M27.65 18.45 L27.4 18.95 Q26.2 20.8 23.4 19.8 19.6 18.5 17.35 14.05 14.8 9.1 9.75 7.4 4.1 5.65 0.0 10.3 1.0 6.85 3.7 4.15 7.2 0.65 11.9 0.05 L14.8 0.05 18.4 0.65 Q21.55 1.65 24.05 4.15 28.2 8.3 28.2 14.25 28.2 16.45 27.65 18.45" fill="#ffffff" fill-opacity="0.19607843" fill-rule="evenodd" stroke="none"/>
    </g>
    <g id="sprite1" transform="matrix(1.0, 0.0, 0.0, 1.0, 0.2, 0.0)">
      <use height="8.6" transform="matrix(1.0, 0.0, 0.0, 1.0, -0.2, 0.0)" width="35.05" xlink:href="#shape2"/>
    </g>
    <g id="shape2" transform="matrix(1.0, 0.0, 0.0, 1.0, 0.2, 0.0)">
      <path d="M34.4 4.4 Q34.85 5.8 34.85 7.65 L34.85 8.6 Q34.8 6.95 34.4 5.7 33.0 1.3 27.2 1.3 L7.45 1.3 Q0.05 1.3 -0.2 8.5 L-0.2 7.65 Q-0.2 0.0 7.45 0.0 L27.2 0.0 Q33.0 0.0 34.4 4.4" fill="#e7deda" fill-rule="evenodd" stroke="none"/>
    </g>
    <g id="shape3" transform="matrix(1.0, 0.0, 0.0, 1.0, -0.6, -23.2)">
      <path d="M0.7 32.85 Q1.0 30.55 2.3 29.35 L2.7 27.65 2.55 25.55 2.3 24.5 1.65 23.2 2.7 24.3 3.5 25.5 3.85 26.9 Q3.9 27.75 3.2 29.55 2.55 31.2 2.4 33.4 L2.35 33.1 2.3 33.4 Q1.7 36.2 2.85 38.15 3.45 39.05 4.15 39.6 L3.85 39.15 3.9 39.2 4.2 39.65 Q4.8 40.4 5.65 40.6 6.75 40.75 7.8 39.9 9.0 38.9 8.1 37.55 L8.15 38.45 Q7.9 39.35 6.55 39.85 L5.6 40.0 5.6 39.95 5.45 38.75 Q5.4 37.0 6.85 36.05 8.35 35.15 9.9 36.7 L11.1 38.5 Q11.05 36.65 10.1 35.65 L10.3 35.85 Q11.0 36.6 11.25 37.5 L11.2 37.5 11.4 37.9 11.65 38.8 11.75 39.95 Q10.35 42.85 8.55 42.85 9.8 42.6 9.95 41.45 7.05 42.65 3.55 41.0 1.05 39.0 0.7 32.85" fill="#9ec087" fill-rule="evenodd" stroke="none"/>
      <path d="M2.4 33.4 L2.45 34.65 Q2.8 36.4 3.7 37.55 L3.8 37.0 Q4.5 34.95 7.15 34.45 L9.05 34.9 Q9.65 35.2 10.1 35.65 11.05 36.65 11.1 38.5 L9.9 36.7 Q8.35 35.15 6.85 36.05 5.4 37.0 5.45 38.75 L5.6 39.95 5.6 40.0 6.55 39.85 Q7.9 39.35 8.15 38.45 L8.1 37.55 Q9.0 38.9 7.8 39.9 6.75 40.75 5.65 40.6 4.8 40.4 4.2 39.65 L3.9 39.2 3.85 39.15 4.15 39.6 Q3.45 39.05 2.85 38.15 1.7 36.2 2.3 33.4 L2.4 33.4 M3.85 39.15 L3.95 39.05 3.9 38.9 3.8 38.95 3.85 39.15" fill="#c0d6b1" fill-rule="evenodd" stroke="none"/>
      <path d="M11.75 39.95 L11.0 42.15 Q10.0 43.95 6.85 44.0 L3.95 43.7 5.45 43.25 7.7 42.95 6.4 43.05 Q4.25 43.0 2.75 41.5 0.85 39.5 0.6 35.35 L0.7 32.85 Q1.05 39.0 3.55 41.0 7.05 42.65 9.95 41.45 9.8 42.6 8.55 42.85 10.35 42.85 11.75 39.95" fill="#648a4a" fill-rule="evenodd" stroke="none"/>
      <path d="M2.4 33.4 L2.3 33.4 2.35 33.1 2.4 33.4" fill="#00632e" fill-rule="evenodd" stroke="none"/>
      <path d="M3.85 39.15 L3.8 38.95 3.9 38.9 3.95 39.05 3.85 39.15" fill="#ccbf38" fill-rule="evenodd" stroke="none"/>
      <path d="M11.25 37.5 L11.4 37.9 11.2 37.5 11.25 37.5" fill="url(#gradient3)" fill-rule="evenodd" stroke="none"/>
      <path d="M41.0 33.4 Q40.85 31.2 40.2 29.55 39.5 27.75 39.55 26.9 L39.9 25.5 40.7 24.3 41.75 23.2 41.1 24.5 40.85 25.55 Q40.6 26.6 40.7 27.65 L41.1 29.35 Q42.4 30.55 42.7 32.85 42.35 39.0 39.85 41.0 36.35 42.65 33.45 41.45 33.6 42.6 34.85 42.85 33.05 42.85 31.65 39.95 L31.75 38.8 32.0 37.9 32.2 37.5 32.15 37.5 Q32.4 36.6 33.1 35.85 L33.3 35.65 Q32.35 36.65 32.3 38.5 32.75 37.5 33.5 36.7 35.05 35.15 36.55 36.05 38.0 37.0 37.95 38.75 L37.8 39.95 37.8 40.0 36.85 39.85 Q35.5 39.35 35.25 38.45 L35.3 37.55 Q34.4 38.9 35.6 39.9 36.65 40.75 37.75 40.6 L39.2 39.65 39.5 39.2 39.55 39.15 39.25 39.6 40.55 38.15 Q41.7 36.2 41.1 33.4 L41.05 33.1 41.0 33.4" fill="#9ec087" fill-rule="evenodd" stroke="none"/>
      <path d="M41.1 33.4 Q41.7 36.2 40.55 38.15 L39.25 39.6 39.55 39.15 39.5 39.2 39.2 39.65 37.75 40.6 Q36.65 40.75 35.6 39.9 34.4 38.9 35.3 37.55 L35.25 38.45 Q35.5 39.35 36.85 39.85 L37.8 40.0 37.8 39.95 37.95 38.75 Q38.0 37.0 36.55 36.05 35.05 35.15 33.5 36.7 32.75 37.5 32.3 38.5 32.35 36.65 33.3 35.65 L34.35 34.9 36.25 34.45 Q38.9 34.95 39.6 37.0 L39.7 37.55 Q40.6 36.4 40.95 34.65 L41.0 33.4 41.1 33.4 M39.55 39.15 L39.6 38.95 39.5 38.9 39.45 39.05 39.55 39.15" fill="#c0d6b1" fill-rule="evenodd" stroke="none"/>
      <path d="M41.0 33.4 L41.05 33.1 41.1 33.4 41.0 33.4" fill="#00632e" fill-rule="evenodd" stroke="none"/>
      <path d="M31.65 39.95 Q33.05 42.85 34.85 42.85 33.6 42.6 33.45 41.45 36.35 42.65 39.85 41.0 42.35 39.0 42.7 32.85 L42.8 35.35 Q42.55 39.5 40.65 41.5 39.15 43.0 37.0 43.05 L35.7 42.95 37.95 43.25 39.45 43.7 36.55 44.0 Q33.4 43.95 32.4 42.15 31.8 41.05 31.65 39.95" fill="#648a4a" fill-rule="evenodd" stroke="none"/>
      <path d="M39.55 39.15 L39.45 39.05 39.5 38.9 39.6 38.95 39.55 39.15" fill="#ccbf38" fill-rule="evenodd" stroke="none"/>
      <path d="M32.15 37.5 L32.2 37.5 32.0 37.9 32.15 37.5" fill="url(#gradient4)" fill-rule="evenodd" stroke="none"/>
    </g>
    <linearGradient gradientTransform="matrix(0.0, -0.0249, -0.0249, 0.0, 5.7, 31.15)" gradientUnits="userSpaceOnUse" id="gradient3" spreadMethod="pad" x1="-819.2" x2="819.2">
      <stop offset="0.011764705882352941" stop-color="#bed9a5"/>
      <stop offset="1.0" stop-color="#739416"/>
    </linearGradient>
    <linearGradient gradientTransform="matrix(0.0, -0.0249, 0.0249, 0.0, 37.65, 31.15)" gradientUnits="userSpaceOnUse" id="gradient4" spreadMethod="pad" x1="-819.2" x2="819.2">
      <stop offset="0.011764705882352941" stop-color="#bed9a5"/>
      <stop offset="1.0" stop-color="#739416"/>
    </linearGradient>
  </defs>
</svg>
