<?xml version="1.0" encoding="UTF-8" standalone="no"?>
<svg xmlns:xlink="http://www.w3.org/1999/xlink" height="66.0px" width="66.0px" xmlns="http://www.w3.org/2000/svg">
  <g transform="matrix(1.5, 0.0, 0.0, 1.5, -0.075, 0.0)">
    <use height="44.0" transform="matrix(1.0, 0.0, 0.0, 1.0, 0.05, 0.0)" width="44.0" xlink:href="#shape0"/>
    <use height="0.0" transform="matrix(1.2125, 0.0, 0.0, 1.2125, 1.15, 0.9)" width="0.0" xlink:href="#sprite0"/>
    <use height="20.15" transform="matrix(1.1548, 0.0, 0.0, 1.1548, 5.7, 5.5)" width="28.2" xlink:href="#sprite1"/>
    <use height="8.6" transform="matrix(1.2077, 0.0, 0.0, 1.2065, 1.0085, 0.9)" width="35.05" xlink:href="#sprite2"/>
  </g>
  <defs>
    <g id="shape0" transform="matrix(1.0, 0.0, 0.0, 1.0, -0.05, 0.0)">
      <path d="M7.65 0.0 L36.45 0.0 Q39.6 0.0 41.85 2.25 44.05 4.45 44.05 7.6 L44.05 36.4 Q44.05 39.6 41.85 41.8 39.65 44.0 36.45 44.0 L7.65 44.0 Q4.5 44.0 2.3 41.8 0.05 39.6 0.05 36.4 L0.05 7.6 Q0.05 4.45 2.3 2.25 4.5 0.0 7.65 0.0" fill="url(#gradient0)" fill-rule="evenodd" stroke="none"/>
      <path d="M22.25 40.75 Q14.5 40.75 9.05 35.35 3.6 29.9 3.6 22.2 3.6 14.5 9.05 9.1 14.5 3.65 22.25 3.65 29.95 3.65 35.4 9.1 40.8 14.55 40.8 22.2 40.8 29.9 35.4 35.35 29.95 40.75 22.25 40.75" fill="url(#gradient1)" fill-rule="evenodd" stroke="none"/>
      <path d="M21.55 11.7 L22.2 14.3 19.6 12.8 17.05 14.55 17.65 11.85 15.8 9.6 18.2 9.6 19.6 7.0 20.8 9.75 23.35 9.75 21.55 11.7 M28.4 13.8 L28.8 15.25 27.35 14.4 25.95 15.4 26.25 13.9 25.15 12.7 26.55 12.7 27.35 11.15 28.0 12.7 29.4 12.7 28.4 13.8 M21.35 18.35 L21.6 17.2 20.8 16.25 21.8 16.25 22.45 15.15 22.95 16.3 24.0 16.3 23.25 17.15 23.55 18.25 22.45 17.6 21.35 18.35 M17.95 33.25 L19.2 34.5 21.7 32.0 24.25 34.5 25.5 33.25 23.05 30.65 25.45 28.25 24.25 26.95 21.75 29.45 19.2 26.9 17.95 28.25 20.4 30.75 17.95 33.25 M24.15 19.55 Q24.65 20.65 24.15 21.75 L23.05 21.75 Q23.3 24.4 24.9 25.1 26.05 25.6 26.4 26.65 L26.85 28.95 26.5 35.55 Q26.85 35.75 26.85 36.4 26.85 37.05 26.5 37.35 L25.95 37.35 25.85 36.85 25.75 37.35 22.9 37.35 22.75 36.85 22.6 37.35 19.85 37.35 19.7 36.85 19.6 37.35 17.0 37.35 16.8 36.4 17.0 35.55 16.75 28.95 Q16.9 27.3 17.2 26.65 17.55 25.6 18.7 25.1 20.25 24.4 20.5 21.75 L19.4 21.75 Q18.7 20.4 19.4 19.55 L24.15 19.55" fill="#372d2d" fill-rule="evenodd" stroke="none"/>
      <path d="M28.2 9.35 Q33.3 14.15 28.2 19.25 25.0 22.7 28.2 26.1 L27.15 26.1 Q23.95 22.65 27.15 19.2 32.2 14.15 27.2 9.35 L28.2 9.35 M29.75 8.95 L30.75 8.95 Q35.8 13.8 30.75 18.9 27.5 22.35 30.75 25.75 L29.65 25.7 Q26.4 22.3 29.65 18.8 34.7 13.8 29.75 8.95 M12.2 17.25 L13.2 17.25 Q18.25 22.05 13.2 27.2 9.95 30.65 13.2 34.05 L12.1 34.0 Q8.9 30.55 12.1 27.1 17.15 22.05 12.2 17.25 M15.65 16.9 Q20.8 21.7 15.65 26.8 12.45 30.25 15.65 33.7 L14.6 33.65 Q11.4 30.2 14.6 26.75 19.65 21.7 14.7 16.9 L15.65 16.9" fill="#372d2d" fill-rule="evenodd" stroke="none"/>
      <path d="M40.9 22.05 Q40.9 29.9 35.3 35.45 29.8 41.1 21.9 41.1 13.95 41.1 8.45 35.45 2.9 29.9 2.9 22.05 2.9 14.1 8.45 8.6 13.95 3.0 21.9 3.0 29.8 3.0 35.3 8.6 40.9 14.1 40.9 22.05 M21.9 5.4 Q15.0 5.45 10.15 10.35 5.25 15.15 5.2 22.05 5.25 29.0 10.15 33.85 15.0 38.75 21.9 38.75 28.8 38.75 33.75 33.85 38.55 29.0 38.55 22.05 38.55 15.15 33.75 10.35 28.8 5.45 21.9 5.4" fill="url(#gradient2)" fill-rule="evenodd" stroke="none"/>
      <path d="M1.0 36.15 L0.95 35.75 Q0.95 34.75 1.65 34.05 2.4 33.35 3.35 33.35 4.3 33.35 5.0 34.05 5.7 34.75 5.7 35.75 L5.7 36.05 Q3.2 33.2 1.0 36.15" fill="#494136" fill-rule="evenodd" stroke="none"/>
      <path d="M5.7 36.05 Q5.6 36.8 5.0 37.4 4.3 38.1 3.35 38.1 2.4 38.1 1.65 37.4 L1.0 36.15 Q3.2 33.2 5.7 36.05" fill="#625748" fill-rule="evenodd" stroke="none"/>
      <path d="M6.05 38.0 L6.0 37.75 Q6.0 37.15 6.45 36.7 6.85 36.3 7.45 36.3 8.05 36.3 8.45 36.7 8.9 37.15 8.9 37.75 L8.9 37.95 6.05 38.0" fill="#494136" fill-rule="evenodd" stroke="none"/>
      <path d="M8.9 37.95 L8.45 38.75 Q8.05 39.15 7.45 39.15 6.85 39.15 6.45 38.75 6.1 38.4 6.05 38.0 L8.9 37.95" fill="#625748" fill-rule="evenodd" stroke="none"/>
      <path d="M3.05 40.9 L3.0 40.65 Q3.0 40.05 3.45 39.6 3.85 39.2 4.45 39.2 5.05 39.2 5.45 39.6 5.9 40.05 5.9 40.65 L5.9 40.85 3.05 40.9" fill="#494136" fill-rule="evenodd" stroke="none"/>
      <path d="M5.9 40.85 L5.45 41.65 Q5.05 42.05 4.45 42.05 3.85 42.05 3.45 41.65 L3.05 40.9 5.9 40.85" fill="#625748" fill-rule="evenodd" stroke="none"/>
      <path d="M7.75 41.55 L7.75 41.4 Q7.75 40.95 8.05 40.6 8.4 40.3 8.85 40.3 9.25 40.3 9.6 40.6 9.95 40.95 9.95 41.4 L9.95 41.55 Q8.75 40.2 7.75 41.55" fill="#494136" fill-rule="evenodd" stroke="none"/>
      <path d="M9.95 41.55 L9.6 42.15 8.85 42.5 Q8.4 42.5 8.05 42.15 L7.75 41.55 Q8.75 40.2 9.95 41.55" fill="#625748" fill-rule="evenodd" stroke="none"/>
      <path d="M37.7 36.05 Q40.2 33.2 42.4 36.15 L41.75 37.4 Q41.0 38.1 40.05 38.1 39.1 38.1 38.4 37.4 37.8 36.8 37.7 36.05" fill="#625748" fill-rule="evenodd" stroke="none"/>
      <path d="M37.7 36.05 L37.7 35.75 Q37.7 34.75 38.4 34.05 39.1 33.35 40.05 33.35 41.0 33.35 41.75 34.05 42.45 34.75 42.45 35.75 L42.4 36.15 Q40.2 33.2 37.7 36.05" fill="#494136" fill-rule="evenodd" stroke="none"/>
      <path d="M34.5 37.95 L34.5 37.75 Q34.5 37.15 34.95 36.7 35.35 36.3 35.95 36.3 36.55 36.3 36.95 36.7 37.4 37.15 37.4 37.75 L37.35 38.0 34.5 37.95" fill="#494136" fill-rule="evenodd" stroke="none"/>
      <path d="M34.5 37.95 L37.35 38.0 36.95 38.75 Q36.55 39.15 35.95 39.15 35.35 39.15 34.95 38.75 L34.5 37.95" fill="#625748" fill-rule="evenodd" stroke="none"/>
      <path d="M37.5 40.85 L37.5 40.65 Q37.5 40.05 37.95 39.6 38.35 39.2 38.95 39.2 39.55 39.2 39.95 39.6 40.4 40.05 40.4 40.65 L40.35 40.9 37.5 40.85" fill="#494136" fill-rule="evenodd" stroke="none"/>
      <path d="M37.5 40.85 L40.35 40.9 39.95 41.65 Q39.55 42.05 38.95 42.05 38.35 42.05 37.95 41.65 L37.5 40.85" fill="#625748" fill-rule="evenodd" stroke="none"/>
      <path d="M33.45 41.55 L33.45 41.4 Q33.45 40.95 33.8 40.6 L34.55 40.3 Q35.0 40.3 35.35 40.6 L35.65 41.4 35.65 41.55 Q34.65 40.2 33.45 41.55" fill="#494136" fill-rule="evenodd" stroke="none"/>
      <path d="M33.45 41.55 Q34.65 40.2 35.65 41.55 L35.35 42.15 Q35.0 42.5 34.55 42.5 34.15 42.5 33.8 42.15 L33.45 41.55" fill="#625748" fill-rule="evenodd" stroke="none"/>
    </g>
    <linearGradient gradientTransform="matrix(0.0, -0.0551, -0.0551, 0.0, 22.1, 18.45)" gradientUnits="userSpaceOnUse" id="gradient0" spreadMethod="pad" x1="-819.2" x2="819.2">
      <stop offset="0.011764705882352941" stop-color="#bcb0a0"/>
      <stop offset="1.0" stop-color="#453e3a"/>
    </linearGradient>
    <linearGradient gradientTransform="matrix(0.0, -0.0173, -0.0173, 0.0, 22.25, 18.65)" gradientUnits="userSpaceOnUse" id="gradient1" spreadMethod="pad" x1="-819.2" x2="819.2">
      <stop offset="0.011764705882352941" stop-color="#c4bebb"/>
      <stop offset="1.0" stop-color="#9f8a82"/>
    </linearGradient>
    <linearGradient gradientTransform="matrix(1.0E-4, 0.0223, -0.0232, 1.0E-4, 21.95, 22.3)" gradientUnits="userSpaceOnUse" id="gradient2" spreadMethod="pad" x1="-819.2" x2="819.2">
      <stop offset="0.011764705882352941" stop-color="#494136"/>
      <stop offset="1.0" stop-color="#dbccbd"/>
    </linearGradient>
    <g id="sprite1" transform="matrix(1.0, 0.0, 0.0, 1.0, 0.0, 0.0)">
      <use height="20.15" transform="matrix(1.0, 0.0, 0.0, 1.0, 0.0, 0.0)" width="28.2" xlink:href="#shape1"/>
    </g>
    <g id="shape1" transform="matrix(1.0, 0.0, 0.0, 1.0, 0.0, 0.0)">
      <path d="M27.65 18.45 L27.4 18.95 Q26.2 20.8 23.4 19.8 19.6 18.5 17.35 14.05 14.8 9.1 9.75 7.4 4.1 5.65 0.0 10.3 1.0 6.85 3.7 4.15 7.2 0.65 11.9 0.05 L14.8 0.05 18.4 0.65 Q21.55 1.65 24.05 4.15 28.2 8.3 28.2 14.25 28.2 16.45 27.65 18.45" fill="#ffffff" fill-opacity="0.19607843" fill-rule="evenodd" stroke="none"/>
    </g>
    <g id="sprite2" transform="matrix(1.0, 0.0, 0.0, 1.0, 0.2, 0.0)">
      <use height="8.6" transform="matrix(1.0, 0.0, 0.0, 1.0, -0.2, 0.0)" width="35.05" xlink:href="#shape2"/>
    </g>
    <g id="shape2" transform="matrix(1.0, 0.0, 0.0, 1.0, 0.2, 0.0)">
      <path d="M34.4 4.4 Q34.85 5.8 34.85 7.65 L34.85 8.6 Q34.8 6.95 34.4 5.7 33.0 1.3 27.2 1.3 L7.45 1.3 Q0.05 1.3 -0.2 8.5 L-0.2 7.65 Q-0.2 0.0 7.45 0.0 L27.2 0.0 Q33.0 0.0 34.4 4.4" fill="#e7deda" fill-rule="evenodd" stroke="none"/>
    </g>
  </defs>
</svg>
