<?xml version="1.0" encoding="UTF-8" standalone="no"?>
<svg xmlns:xlink="http://www.w3.org/1999/xlink" height="66.0px" width="66.0px" xmlns="http://www.w3.org/2000/svg">
  <g transform="matrix(1.5, 0.0, 0.0, 1.5, -0.15, -0.15)">
    <use height="44.0" transform="matrix(1.0, 0.0, 0.0, 1.0, 0.1, 0.1)" width="44.0" xlink:href="#shape0"/>
    <use height="20.15" transform="matrix(1.1548, 0.0, 0.0, 1.1548, 6.0, 5.55)" width="28.2" xlink:href="#sprite0"/>
    <use height="8.6" transform="matrix(1.2077, 0.0, 0.0, 1.2065, 1.0585, 1.0)" width="35.05" xlink:href="#sprite1"/>
  </g>
  <defs>
    <g id="shape0" transform="matrix(1.0, 0.0, 0.0, 1.0, -0.1, -0.1)">
      <path d="M41.9 2.35 Q44.1 4.55 44.1 7.7 L44.1 36.5 Q44.1 39.7 41.9 41.9 39.7 44.1 36.5 44.1 L7.7 44.1 Q4.55 44.1 2.35 41.9 0.1 39.7 0.1 36.5 L0.1 7.7 Q0.1 4.55 2.35 2.35 4.55 0.1 7.7 0.1 L36.5 0.1 Q39.65 0.1 41.9 2.35" fill="url(#gradient0)" fill-rule="evenodd" stroke="none"/>
      <path d="M9.35 9.65 Q14.65 4.4 22.0 4.4 29.4 4.4 34.6 9.65 39.8 14.9 39.8 22.25 39.8 29.65 34.6 34.95 29.4 40.15 22.0 40.15 14.55 40.15 9.35 34.95 4.15 29.65 4.15 22.25 4.15 14.9 9.35 9.65" fill="url(#gradient1)" fill-rule="evenodd" stroke="none"/>
      <path d="M25.15 4.05 Q28.95 4.6 31.95 6.55 L29.6 10.25 Q27.35 8.75 24.4 8.25 L25.15 4.05 M40.1 18.35 L35.95 19.35 Q35.3 16.65 33.6 14.2 L37.15 11.65 Q39.35 14.85 40.1 18.35 M6.1 12.15 L9.75 14.5 Q8.35 16.8 7.8 19.75 L3.4 19.0 Q4.2 15.2 6.1 12.15 M18.05 4.1 L18.85 8.25 Q16.1 8.85 13.65 10.5 L11.3 6.95 Q14.5 4.65 18.05 4.1 M18.6 40.65 L18.45 40.65 Q14.7 39.9 11.75 37.95 L14.1 34.35 Q16.25 35.7 19.25 36.35 L19.35 36.35 18.6 40.65 M33.9 30.0 Q35.4 27.75 35.95 24.9 L40.2 25.6 Q39.55 29.45 37.55 32.35 L33.9 30.0 M25.85 40.5 L24.95 36.35 Q27.55 35.7 30.0 34.0 L32.5 37.6 Q29.25 39.75 25.85 40.5 M10.0 30.4 L6.45 32.9 Q4.35 29.7 3.55 26.2 L7.85 25.35 Q8.35 28.0 10.0 30.4" fill="#4a3355" fill-rule="evenodd" stroke="none"/>
      <path d="M18.95 14.2 L18.95 14.55 Q19.0 16.8 21.45 16.45 L24.9 16.6 Q28.55 17.85 28.45 20.15 L28.45 20.5 28.45 20.55 28.4 20.7 28.4 20.75 28.35 20.9 Q28.1 21.7 26.55 22.55 24.65 23.35 22.75 22.95 L22.5 22.85 Q17.9 21.7 15.0 23.0 13.75 21.7 14.75 20.5 15.7 19.05 18.5 19.7 L20.15 19.9 23.15 20.2 Q20.55 20.05 18.75 18.7 15.95 16.6 18.95 14.2" fill="#4a3355" fill-rule="evenodd" stroke="none"/>
      <path d="M24.95 9.8 Q24.45 10.1 24.5 10.45 24.5 10.8 24.95 11.15 25.65 11.65 24.95 12.4 24.4 12.8 24.65 13.3 L24.95 13.75 M22.25 9.8 Q21.8 10.1 21.85 10.45 21.85 10.8 22.25 11.15 22.9 11.65 22.25 12.4 21.75 12.8 21.95 13.3 L22.25 13.75 M19.4 9.8 Q18.95 10.1 18.95 10.45 18.95 10.8 19.4 11.15 20.1 11.65 19.4 12.4 18.9 12.8 19.15 13.3 L19.4 13.75" fill="none" stroke="#4a3355" stroke-linecap="round" stroke-linejoin="round" stroke-width="1.0"/>
      <path d="M29.0 26.35 Q33.15 28.8 29.85 32.2 23.05 35.0 15.8 32.2 13.9 31.3 12.35 33.8 10.85 31.45 12.45 30.2 L14.3 28.9 Q15.7 28.15 17.55 28.05 L19.1 28.0 22.25 28.5 22.2 28.5 25.45 28.7 26.3 28.5 Q27.5 28.05 28.45 26.95 L29.0 26.35" fill="#4a3355" fill-rule="evenodd" stroke="none"/>
      <path d="M27.7 21.9 Q31.1 23.9 28.4 26.7 22.8 29.0 16.85 26.7 15.3 25.9 14.0 28.0 12.75 26.1 14.1 25.05 L15.6 24.0 Q16.75 23.35 18.3 23.3 L19.55 23.25 22.15 23.65 22.1 23.65 24.8 23.8 25.5 23.65 Q26.45 23.3 27.25 22.35 L27.7 21.9" fill="#4a3355" fill-rule="evenodd" stroke="none"/>
      <path d="M33.8 10.45 Q28.85 5.55 21.95 5.5 15.05 5.55 10.2 10.45 5.3 15.25 5.25 22.15 5.3 29.1 10.2 33.95 15.05 38.85 21.95 38.85 28.85 38.85 33.8 33.95 38.6 29.1 38.6 22.15 38.6 15.25 33.8 10.45 M35.35 8.7 Q40.95 14.2 40.95 22.15 40.95 30.0 35.35 35.55 29.85 41.2 21.95 41.2 14.0 41.2 8.5 35.55 2.95 30.0 2.95 22.15 2.95 14.2 8.5 8.7 14.0 3.1 21.95 3.1 29.85 3.1 35.35 8.7" fill="url(#gradient2)" fill-rule="evenodd" stroke="none"/>
      <path d="M1.0 36.15 L0.95 35.75 Q0.95 34.8 1.65 34.05 2.35 33.4 3.3 33.4 4.3 33.4 4.95 34.05 5.7 34.8 5.7 35.75 L5.7 36.1 Q3.15 33.2 1.0 36.15" fill="#494136" fill-rule="evenodd" stroke="none"/>
      <path d="M5.7 36.1 Q5.55 36.85 4.95 37.4 4.3 38.15 3.3 38.15 2.35 38.15 1.65 37.4 1.05 36.85 1.0 36.15 3.15 33.2 5.7 36.1" fill="#625748" fill-rule="evenodd" stroke="none"/>
      <path d="M6.0 38.0 L6.0 37.75 Q6.0 37.2 6.4 36.75 6.85 36.35 7.4 36.35 8.0 36.35 8.4 36.75 8.85 37.2 8.85 37.75 L8.85 37.95 6.0 38.0" fill="#494136" fill-rule="evenodd" stroke="none"/>
      <path d="M8.85 37.95 L8.4 38.75 Q8.0 39.2 7.4 39.2 6.85 39.2 6.4 38.75 L6.0 38.0 8.85 37.95" fill="#625748" fill-rule="evenodd" stroke="none"/>
      <path d="M3.0 40.9 L3.0 40.65 Q3.0 40.1 3.4 39.65 3.85 39.25 4.4 39.25 5.0 39.25 5.4 39.65 5.85 40.1 5.85 40.65 L5.85 40.85 3.0 40.9" fill="#494136" fill-rule="evenodd" stroke="none"/>
      <path d="M5.85 40.85 L5.4 41.65 Q5.0 42.1 4.4 42.1 3.85 42.1 3.4 41.65 3.05 41.3 3.0 40.9 L5.85 40.85" fill="#625748" fill-rule="evenodd" stroke="none"/>
      <path d="M7.7 41.6 L7.7 41.4 Q7.7 40.95 8.0 40.65 8.35 40.3 8.8 40.3 9.25 40.3 9.55 40.65 9.9 40.95 9.9 41.4 L9.9 41.55 7.7 41.6" fill="#494136" fill-rule="evenodd" stroke="none"/>
      <path d="M9.9 41.55 L9.55 42.2 Q9.25 42.5 8.8 42.5 L8.0 42.2 7.7 41.6 9.9 41.55" fill="#625748" fill-rule="evenodd" stroke="none"/>
      <path d="M37.8 36.1 Q40.35 33.2 42.5 36.15 42.45 36.85 41.85 37.4 41.15 38.15 40.2 38.15 39.2 38.15 38.55 37.4 37.95 36.85 37.8 36.1" fill="#625748" fill-rule="evenodd" stroke="none"/>
      <path d="M37.8 36.1 L37.8 35.75 Q37.8 34.8 38.55 34.05 39.2 33.4 40.2 33.4 41.15 33.4 41.85 34.05 42.55 34.8 42.55 35.75 L42.5 36.15 Q40.35 33.2 37.8 36.1" fill="#494136" fill-rule="evenodd" stroke="none"/>
      <path d="M34.8 37.95 L34.8 37.75 Q34.8 37.2 35.25 36.75 35.65 36.35 36.25 36.35 36.8 36.35 37.25 36.75 37.65 37.2 37.65 37.75 L37.65 38.0 34.8 37.95" fill="#494136" fill-rule="evenodd" stroke="none"/>
      <path d="M34.8 37.95 L37.65 38.0 37.25 38.75 Q36.8 39.2 36.25 39.2 35.65 39.2 35.25 38.75 L34.8 37.95" fill="#625748" fill-rule="evenodd" stroke="none"/>
      <path d="M37.7 40.85 L37.7 40.65 Q37.7 40.1 38.15 39.65 38.55 39.25 39.15 39.25 39.7 39.25 40.15 39.65 40.55 40.1 40.55 40.65 L40.55 40.9 37.7 40.85" fill="#494136" fill-rule="evenodd" stroke="none"/>
      <path d="M37.7 40.85 L40.55 40.9 40.15 41.65 Q39.7 42.1 39.15 42.1 38.55 42.1 38.15 41.65 L37.7 40.85" fill="#625748" fill-rule="evenodd" stroke="none"/>
      <path d="M35.8 41.6 L35.5 42.2 34.7 42.5 Q34.25 42.5 33.95 42.2 L33.6 41.55 35.8 41.6" fill="#625748" fill-rule="evenodd" stroke="none"/>
      <path d="M35.8 41.6 L33.6 41.55 33.6 41.4 Q33.6 40.95 33.95 40.65 34.25 40.3 34.7 40.3 35.15 40.3 35.5 40.65 L35.8 41.4 35.8 41.6" fill="#494136" fill-rule="evenodd" stroke="none"/>
    </g>
    <linearGradient gradientTransform="matrix(0.0, -0.0551, -0.0551, 0.0, 22.15, 18.55)" gradientUnits="userSpaceOnUse" id="gradient0" spreadMethod="pad" x1="-819.2" x2="819.2">
      <stop offset="0.011764705882352941" stop-color="#bcb0a0"/>
      <stop offset="1.0" stop-color="#453e3a"/>
    </linearGradient>
    <linearGradient gradientTransform="matrix(0.0, -0.0167, -0.0167, 0.0, 22.0, 18.9)" gradientUnits="userSpaceOnUse" id="gradient1" spreadMethod="pad" x1="-819.2" x2="819.2">
      <stop offset="0.011764705882352941" stop-color="#bcb9ae"/>
      <stop offset="1.0" stop-color="#9b5b79"/>
    </linearGradient>
    <linearGradient gradientTransform="matrix(1.0E-4, 0.0223, -0.0232, 1.0E-4, 22.0, 22.4)" gradientUnits="userSpaceOnUse" id="gradient2" spreadMethod="pad" x1="-819.2" x2="819.2">
      <stop offset="0.011764705882352941" stop-color="#494136"/>
      <stop offset="1.0" stop-color="#dbccbd"/>
    </linearGradient>
    <g id="sprite0" transform="matrix(1.0, 0.0, 0.0, 1.0, 0.0, 0.0)">
      <use height="20.15" transform="matrix(1.0, 0.0, 0.0, 1.0, 0.0, 0.0)" width="28.2" xlink:href="#shape1"/>
    </g>
    <g id="shape1" transform="matrix(1.0, 0.0, 0.0, 1.0, 0.0, 0.0)">
      <path d="M27.65 18.45 L27.4 18.95 Q26.2 20.8 23.4 19.8 19.6 18.5 17.35 14.05 14.8 9.1 9.75 7.4 4.1 5.65 0.0 10.3 1.0 6.85 3.7 4.15 7.2 0.65 11.9 0.05 L14.8 0.05 18.4 0.65 Q21.55 1.65 24.05 4.15 28.2 8.3 28.2 14.25 28.2 16.45 27.65 18.45" fill="#ffffff" fill-opacity="0.19607843" fill-rule="evenodd" stroke="none"/>
    </g>
    <g id="sprite1" transform="matrix(1.0, 0.0, 0.0, 1.0, 0.2, 0.0)">
      <use height="8.6" transform="matrix(1.0, 0.0, 0.0, 1.0, -0.2, 0.0)" width="35.05" xlink:href="#shape2"/>
    </g>
    <g id="shape2" transform="matrix(1.0, 0.0, 0.0, 1.0, 0.2, 0.0)">
      <path d="M34.4 4.4 Q34.85 5.8 34.85 7.65 L34.85 8.6 Q34.8 6.95 34.4 5.7 33.0 1.3 27.2 1.3 L7.45 1.3 Q0.05 1.3 -0.2 8.5 L-0.2 7.65 Q-0.2 0.0 7.45 0.0 L27.2 0.0 Q33.0 0.0 34.4 4.4" fill="#e7deda" fill-rule="evenodd" stroke="none"/>
    </g>
  </defs>
</svg>
