<?xml version="1.0" encoding="UTF-8" standalone="no"?>
<svg xmlns:xlink="http://www.w3.org/1999/xlink" height="66.15px" width="66.0px" xmlns="http://www.w3.org/2000/svg">
  <g transform="matrix(1.5, 0.0, 0.0, 1.5, 0.0, 0.0)">
    <use height="44.05" transform="matrix(1.0, 0.0, 0.0, 1.0, 0.0, 0.0)" width="44.0" xlink:href="#shape0"/>
    <use height="8.6" transform="matrix(1.2077, 0.0, 0.0, 1.2065, 1.0085, 0.65)" width="35.05" xlink:href="#sprite0"/>
    <use height="37.95" transform="matrix(1.0, 0.0, 0.0, 1.0, 3.15, 3.05)" width="37.9" xlink:href="#shape2"/>
    <use height="0.0" transform="matrix(1.2088, 0.0, 0.0, 1.2099, 0.95, 0.75)" width="0.0" xlink:href="#sprite1"/>
    <use height="35.0" transform="matrix(1.0, 0.0, 0.0, 1.0, 0.15, 9.1)" width="43.55" xlink:href="#shape3"/>
    <use height="20.15" transform="matrix(1.1594, 0.0, 0.0, 1.1605, 6.05, 5.4)" width="28.2" xlink:href="#sprite2"/>
  </g>
  <defs>
    <g id="shape0" transform="matrix(1.0, 0.0, 0.0, 1.0, 0.0, 0.0)">
      <path d="M36.05 36.75 Q30.1 42.65 21.8 42.65 13.4 42.65 7.55 36.75 1.6 30.8 1.6 22.45 1.6 14.1 7.55 8.2 13.4 2.25 21.8 2.25 30.1 2.25 36.05 8.2 41.9 14.1 41.9 22.45 41.9 30.8 36.05 36.75" fill="url(#gradient0)" fill-rule="evenodd" stroke="none"/>
      <path d="M34.2 9.8 Q29.15 4.7 22.0 4.7 14.8 4.7 9.7 9.8 4.65 14.95 4.65 22.05 4.65 29.25 9.7 34.35 14.75 39.45 22.0 39.45 29.15 39.45 34.2 34.35 39.3 29.25 39.3 22.05 39.3 14.85 34.2 9.8 M41.75 2.25 Q44.0 4.55 44.0 7.65 L44.0 36.45 Q44.0 39.6 41.75 41.85 39.6 44.05 36.4 44.05 L7.6 44.05 Q4.45 44.05 2.25 41.85 0.0 39.65 0.0 36.45 L0.0 7.65 Q0.0 4.55 2.25 2.25 4.45 0.0 7.6 0.0 L36.4 0.0 Q39.6 0.0 41.75 2.25" fill="url(#gradient1)" fill-rule="evenodd" stroke="none"/>
    </g>
    <linearGradient gradientTransform="matrix(0.0, -0.0155, -0.0189, 0.0, 21.85, 25.45)" gradientUnits="userSpaceOnUse" id="gradient0" spreadMethod="pad" x1="-819.2" x2="819.2">
      <stop offset="0.011764705882352941" stop-color="#bb9a76"/>
      <stop offset="1.0" stop-color="#a87f53"/>
    </linearGradient>
    <linearGradient gradientTransform="matrix(0.0, -0.0344, -0.0552, 0.0, 22.45, 16.35)" gradientUnits="userSpaceOnUse" id="gradient1" spreadMethod="pad" x1="-819.2" x2="819.2">
      <stop offset="0.0196078431372549" stop-color="#9c6732"/>
      <stop offset="1.0" stop-color="#7d4e2b"/>
    </linearGradient>
    <g id="sprite0" transform="matrix(1.0, 0.0, 0.0, 1.0, 0.2, 0.0)">
      <use height="8.6" transform="matrix(1.0, 0.0, 0.0, 1.0, -0.2, 0.0)" width="35.05" xlink:href="#shape1"/>
    </g>
    <g id="shape1" transform="matrix(1.0, 0.0, 0.0, 1.0, 0.2, 0.0)">
      <path d="M34.4 4.4 Q34.85 5.8 34.85 7.65 L34.85 8.6 Q34.8 6.95 34.4 5.7 33.0 1.3 27.2 1.3 L7.45 1.3 Q0.05 1.3 -0.2 8.5 L-0.2 7.65 Q-0.2 0.0 7.45 0.0 L27.2 0.0 Q33.0 0.0 34.4 4.4" fill="#e7deda" fill-rule="evenodd" stroke="none"/>
    </g>
    <g id="shape2" transform="matrix(1.0, 0.0, 0.0, 1.0, -3.15, -3.05)">
      <path d="M33.85 10.35 Q28.9 5.45 22.1 5.4 15.2 5.45 10.35 10.35 5.5 15.1 5.45 22.0 5.5 28.95 10.35 33.8 15.2 38.65 22.1 38.65 28.9 38.65 33.85 33.8 38.65 28.95 38.65 22.0 38.65 15.1 33.85 10.35 M41.05 22.0 Q41.05 29.85 35.45 35.4 29.95 41.0 22.1 41.0 14.2 41.0 8.7 35.4 3.15 29.85 3.15 22.0 3.15 14.15 8.7 8.6 14.2 3.05 22.1 3.05 29.95 3.05 35.45 8.6 41.05 14.15 41.05 22.0" fill="url(#gradient2)" fill-rule="evenodd" stroke="none"/>
    </g>
    <linearGradient gradientTransform="matrix(1.0E-4, 0.0223, -0.0231, 1.0E-4, 22.15, 22.25)" gradientUnits="userSpaceOnUse" id="gradient2" spreadMethod="pad" x1="-819.2" x2="819.2">
      <stop offset="0.011764705882352941" stop-color="#59351e"/>
      <stop offset="1.0" stop-color="#cc955e"/>
    </linearGradient>
    <g id="shape3" transform="matrix(1.0, 0.0, 0.0, 1.0, -0.15, -9.1)">
      <path d="M0.15 25.1 Q0.3 22.65 0.75 20.65 0.5 24.85 0.75 26.5 1.1 29.5 3.05 30.95 L8.1 35.1 Q10.55 37.45 10.95 40.2 L14.5 42.5 10.65 42.9 Q9.9 44.4 7.15 44.05 3.15 43.45 2.35 40.25 1.65 37.65 3.55 36.65 L3.75 34.45 4.45 36.3 Q6.45 35.9 6.9 37.0 7.4 38.05 6.8 39.1 6.25 40.05 5.65 39.25 L6.45 38.8 Q6.5 38.4 5.85 37.75 5.2 37.1 4.6 37.4 4.05 37.7 3.75 38.85 3.15 41.25 6.0 42.35 8.95 43.45 9.4 40.8 9.9 38.55 7.1 36.2 4.85 34.55 3.35 33.3 L0.85 32.8 1.85 31.85 Q0.05 29.85 0.15 25.1" fill="#7a5130" fill-rule="evenodd" stroke="none"/>
      <path d="M0.25 24.15 Q0.35 21.8 0.8 19.8 0.55 23.95 0.8 25.55 1.15 28.55 3.1 30.05 L8.15 34.15 Q10.6 36.55 11.0 39.25 L14.65 42.55 10.75 42.0 Q10.0 43.45 7.2 43.1 3.25 42.55 2.4 39.35 1.75 36.75 3.65 35.8 L3.75 34.35 4.5 35.45 Q6.5 35.05 7.0 36.8 7.2 38.35 6.65 39.0 L5.85 39.35 Q7.1 38.2 5.7 36.9 4.4 35.55 3.8 37.9 3.25 40.4 6.05 41.45 9.0 42.55 9.45 39.9 10.0 37.7 7.15 35.25 L3.35 32.35 3.4 32.45 0.8 32.85 1.9 30.95 Q0.1 28.9 0.25 24.15" fill="#ca935c" fill-rule="evenodd" stroke="none"/>
      <path d="M0.8 21.45 Q0.75 24.4 0.85 25.6 1.4 28.6 3.25 30.1 4.65 31.35 8.2 34.2 10.65 36.6 11.15 39.25 L14.25 42.15 14.0 42.0 13.85 41.9 12.2 40.7 Q10.35 39.1 10.25 38.0 10.1 36.65 8.4 35.15 L5.15 32.65 Q1.95 30.2 1.1 27.45 0.5 25.85 0.5 22.05 L0.8 21.45 M6.45 36.6 Q5.85 35.6 4.6 35.6 L4.4 35.65 4.3 35.6 4.15 35.6 4.15 34.75 4.65 35.5 Q6.6 35.1 7.05 36.9 7.25 37.9 7.05 38.6 L7.0 38.65 7.0 38.6 6.85 38.1 6.85 38.0 Q6.85 37.25 6.45 36.6 M4.2 40.3 L4.05 39.7 Q4.5 40.85 6.15 41.5 L8.4 41.7 8.5 41.75 7.0 42.0 Q6.15 42.0 5.3 41.35 L4.2 40.3" fill="#d7ad86" fill-rule="evenodd" stroke="none"/>
      <path d="M43.7 25.1 Q43.8 29.85 42.0 31.85 L43.0 32.8 40.5 33.3 36.75 36.2 Q33.95 38.55 34.45 40.8 34.9 43.45 37.85 42.35 40.7 41.25 40.1 38.85 39.8 37.7 39.25 37.4 38.65 37.1 38.0 37.75 37.35 38.4 37.4 38.8 37.5 39.2 38.2 39.25 37.6 40.05 37.05 39.1 36.45 38.05 36.95 37.0 37.4 35.9 39.4 36.3 L40.1 34.45 40.3 36.65 Q42.2 37.65 41.5 40.25 40.7 43.45 36.7 44.05 33.95 44.4 33.2 42.9 L29.35 42.5 32.9 40.2 Q33.3 37.45 35.75 35.1 L40.8 30.95 Q42.75 29.5 43.1 26.5 43.35 24.85 43.1 20.65 L43.7 25.1" fill="#7a5130" fill-rule="evenodd" stroke="none"/>
      <path d="M43.6 24.15 Q43.75 28.9 41.95 30.95 L43.05 32.85 40.45 32.45 40.5 32.35 36.7 35.25 Q33.85 37.7 34.4 39.9 34.85 42.55 37.8 41.45 40.6 40.4 40.05 37.9 39.45 35.55 38.15 36.9 36.75 38.2 38.0 39.35 37.55 39.25 37.2 39.0 36.65 38.35 36.85 36.8 37.35 35.05 39.35 35.45 L40.1 34.35 40.2 35.8 Q42.1 36.75 41.45 39.35 40.6 42.55 36.65 43.1 33.85 43.45 33.1 42.0 L29.2 42.55 32.85 39.25 Q33.25 36.55 35.7 34.15 L40.75 30.05 Q42.7 28.55 43.05 25.55 43.3 23.95 43.05 19.8 43.5 21.8 43.6 24.15" fill="#ca935c" fill-rule="evenodd" stroke="none"/>
      <path d="M37.4 36.6 Q37.0 37.25 37.0 38.0 L37.0 38.1 36.85 38.6 36.85 38.65 36.8 38.6 Q36.6 37.9 36.8 36.9 37.25 35.1 39.2 35.5 L39.7 34.75 39.7 35.6 39.55 35.6 39.45 35.65 39.25 35.6 Q38.0 35.6 37.4 36.6 M43.05 21.45 L43.35 22.05 Q43.35 25.85 42.75 27.45 41.9 30.2 38.7 32.65 L35.45 35.15 Q33.75 36.65 33.6 38.0 33.5 39.1 31.65 40.7 L30.0 41.9 29.85 42.0 29.6 42.15 32.7 39.25 Q33.2 36.6 35.65 34.2 L40.6 30.1 Q42.45 28.6 43.0 25.6 L43.05 21.45 M39.65 40.3 L38.55 41.35 Q37.7 42.0 36.85 42.0 L35.35 41.75 35.45 41.7 37.7 41.5 Q39.35 40.85 39.8 39.7 L39.65 40.3" fill="#d7ad86" fill-rule="evenodd" stroke="none"/>
      <path d="M28.55 11.85 Q29.55 13.45 29.55 15.65 29.55 17.85 28.55 19.45 27.65 21.0 26.3 21.0 24.9 21.0 23.9 19.45 23.0 17.85 23.0 15.65 23.0 13.45 23.9 11.85 24.9 10.25 26.3 10.25 27.65 10.25 28.55 11.85 M20.55 19.25 Q19.55 21.0 18.05 21.0 16.5 21.0 15.4 19.25 14.4 17.5 14.4 15.05 14.4 12.6 15.4 10.85 16.5 9.1 18.05 9.1 19.55 9.1 20.55 10.85 21.65 12.6 21.65 15.05 21.65 17.5 20.55 19.25 M32.75 17.1 Q33.95 17.1 34.75 18.55 35.65 19.95 35.65 21.9 35.65 23.9 34.75 25.3 33.95 26.7 32.75 26.7 31.5 26.7 30.6 25.3 29.8 23.9 29.8 21.9 29.8 19.95 30.6 18.55 31.5 17.1 32.75 17.1 M8.7 17.95 Q9.6 16.5 10.85 16.5 12.05 16.5 12.85 17.95 13.75 19.35 13.75 21.3 13.75 23.3 12.85 24.7 12.05 26.1 10.85 26.1 9.6 26.1 8.7 24.7 7.9 23.3 7.9 21.3 7.9 19.35 8.7 17.95 M12.65 32.0 Q13.2 28.35 15.2 25.55 18.0 21.6 22.0 21.6 26.0 21.6 28.8 25.55 30.8 28.35 31.4 32.0 31.6 34.05 28.8 35.0 26.0 35.9 21.8 33.9 18.0 35.9 15.2 35.0 12.4 34.05 12.65 32.0" fill="#5f3921" fill-rule="evenodd" stroke="none"/>
    </g>
    <g id="sprite2" transform="matrix(1.0, 0.0, 0.0, 1.0, 0.0, 0.0)">
      <use height="20.15" transform="matrix(1.0, 0.0, 0.0, 1.0, 0.0, 0.0)" width="28.2" xlink:href="#shape4"/>
    </g>
    <g id="shape4" transform="matrix(1.0, 0.0, 0.0, 1.0, 0.0, 0.0)">
      <path d="M27.65 18.45 L27.4 18.95 Q26.2 20.8 23.4 19.8 19.6 18.5 17.35 14.05 14.8 9.1 9.75 7.4 4.1 5.65 0.0 10.3 1.0 6.85 3.7 4.15 7.2 0.65 11.9 0.05 L14.8 0.05 18.4 0.65 Q21.55 1.65 24.05 4.15 28.2 8.3 28.2 14.25 28.2 16.45 27.65 18.45" fill="#ffffff" fill-opacity="0.19607843" fill-rule="evenodd" stroke="none"/>
    </g>
  </defs>
</svg>
