<?xml version="1.0" encoding="UTF-8" standalone="no"?>
<svg xmlns:xlink="http://www.w3.org/1999/xlink" height="65.55px" width="65.775px" xmlns="http://www.w3.org/2000/svg">
  <g transform="matrix(1.5, 0.0, 0.0, 1.5, 0.3, 0.0)">
    <use height="43.6" transform="matrix(1.0, 0.0, 0.0, 1.0, 0.0, 0.0)" width="43.65" xlink:href="#shape0"/>
    <use height="20.15" transform="matrix(1.1594, 0.0, 0.0, 1.1605, 6.05, 5.0)" width="28.2" xlink:href="#sprite0"/>
    <use height="38.05" transform="matrix(1.0, 0.0, 0.0, 1.0, 2.95, 3.35)" width="37.95" xlink:href="#shape2"/>
    <use height="8.6" transform="matrix(1.2077, 0.0, 0.0, 1.2065, 0.6585, 1.1)" width="35.05" xlink:href="#sprite1"/>
    <use height="40.35" transform="matrix(1.0, 0.0, 0.0, 1.0, -0.2, 3.35)" width="43.85" xlink:href="#shape4"/>
  </g>
  <defs>
    <g id="shape0" transform="matrix(1.0, 0.0, 0.0, 1.0, 0.0, 0.0)">
      <path d="M36.1 0.0 Q39.25 0.0 41.45 2.2 43.65 4.4 43.65 7.5 L43.65 36.1 Q43.65 39.2 41.45 41.4 39.25 43.6 36.1 43.6 L7.55 43.6 Q4.4 43.6 2.2 41.4 0.0 39.2 0.0 36.1 L0.0 7.5 Q0.0 4.4 2.2 2.2 4.4 0.0 7.55 0.0 L36.1 0.0" fill="url(#gradient0)" fill-rule="evenodd" stroke="none"/>
      <path d="M39.7 21.9 Q39.7 29.3 34.5 34.6 29.3 39.8 21.9 39.8 14.45 39.8 9.25 34.6 4.05 29.3 4.05 21.9 4.05 14.55 9.25 9.3 14.55 4.05 21.9 4.05 29.3 4.05 34.5 9.3 39.7 14.55 39.7 21.9" fill="url(#gradient1)" fill-rule="evenodd" stroke="none"/>
      <path d="M32.9 9.75 L31.7 12.2 30.7 12.25 27.75 12.45 Q27.5 12.4 27.3 12.6 27.1 12.7 27.0 12.95 L25.25 16.55 Q25.15 16.8 25.2 17.1 L25.5 17.55 25.7 17.7 23.55 17.8 23.1 18.0 22.85 18.35 19.45 25.35 Q19.35 25.6 19.4 25.85 L19.75 26.4 20.25 26.6 26.4 26.35 26.4 26.4 22.2 26.65 Q21.95 26.65 21.8 26.8 L21.55 27.2 20.25 29.9 20.15 30.4 20.5 30.9 21.0 31.05 22.7 31.0 21.6 33.3 35.5 33.3 34.85 34.45 Q29.95 38.7 22.7 39.25 14.15 39.05 9.05 35.05 L7.95 33.3 7.6 33.3 10.05 19.75 18.05 19.75 17.3 18.3 20.8 17.5 20.45 15.05 23.25 14.9 24.6 10.6 25.55 13.45 28.65 9.0 28.75 12.3 32.9 9.75 M27.6 16.9 L26.0 16.95 27.75 13.35 40.1 13.1 40.1 16.55 27.8 16.85 27.6 16.9 M23.6 18.7 L40.1 18.3 40.1 25.25 20.2 25.7 23.6 18.7 M15.95 6.45 L17.9 15.25 17.4 16.8 14.95 18.3 9.9 18.2 8.25 15.35 8.6 12.4 8.6 11.7 9.1 6.75 10.5 5.35 10.55 5.35 12.75 11.25 13.95 11.25 15.35 6.6 15.95 6.45 M12.45 13.65 L12.5 16.0 13.3 16.25 13.85 15.75 13.7 13.65 12.85 13.35 12.45 13.65 M15.75 16.0 L16.2 15.6 16.05 13.9 15.35 13.65 15.05 13.9 15.1 15.8 15.75 16.0 M13.9 23.25 L17.1 23.25 16.75 22.8 18.65 21.65 14.5 21.65 13.9 23.25 M17.4 25.8 L13.9 25.8 15.9 33.3 20.15 33.3 19.8 30.95 17.15 33.0 18.7 27.75 15.9 28.8 18.4 25.0 17.45 23.75 17.45 25.8 17.4 25.8 M13.4 33.3 L11.55 28.4 10.85 33.3 13.4 33.3 M23.7 30.9 L24.75 30.85 24.75 31.45 23.7 30.9 M40.1 26.75 L40.1 29.55 21.0 30.25 22.3 27.55 40.1 26.75" fill="#4a3355" fill-rule="evenodd" stroke="none"/>
    </g>
    <linearGradient gradientTransform="matrix(0.0, -0.0546, -0.0546, 0.0, 21.8, 18.15)" gradientUnits="userSpaceOnUse" id="gradient0" spreadMethod="pad" x1="-819.2" x2="819.2">
      <stop offset="0.011764705882352941" stop-color="#bf809f"/>
      <stop offset="1.0" stop-color="#543c7c"/>
    </linearGradient>
    <linearGradient gradientTransform="matrix(0.0, -0.0167, -0.0167, 0.0, 21.9, 18.55)" gradientUnits="userSpaceOnUse" id="gradient1" spreadMethod="pad" x1="-819.2" x2="819.2">
      <stop offset="0.011764705882352941" stop-color="#bcb9ae"/>
      <stop offset="1.0" stop-color="#9b5b79"/>
    </linearGradient>
    <g id="sprite0" transform="matrix(1.0, 0.0, 0.0, 1.0, 0.0, 0.0)">
      <use height="20.15" transform="matrix(1.0, 0.0, 0.0, 1.0, 0.0, 0.0)" width="28.2" xlink:href="#shape1"/>
    </g>
    <g id="shape1" transform="matrix(1.0, 0.0, 0.0, 1.0, 0.0, 0.0)">
      <path d="M27.65 18.45 L27.4 18.95 Q26.2 20.8 23.4 19.8 19.6 18.5 17.35 14.05 14.8 9.1 9.75 7.4 4.1 5.65 0.0 10.3 1.0 6.85 3.7 4.15 7.2 0.65 11.9 0.05 L14.8 0.05 18.4 0.65 Q21.55 1.65 24.05 4.15 28.2 8.3 28.2 14.25 28.2 16.45 27.65 18.45" fill="#ffffff" fill-opacity="0.19607843" fill-rule="evenodd" stroke="none"/>
    </g>
    <g id="shape2" transform="matrix(1.0, 0.0, 0.0, 1.0, -2.95, -3.35)">
      <path d="M35.3 8.9 Q40.9 14.4 40.9 22.35 40.9 30.2 35.3 35.7 29.8 41.4 21.9 41.4 14.0 41.4 8.5 35.7 2.95 30.2 2.95 22.35 2.95 14.4 8.5 8.9 14.0 3.35 21.9 3.35 29.8 3.35 35.3 8.9 M33.75 10.65 Q28.8 5.8 21.9 5.75 15.05 5.8 10.15 10.65 5.3 15.45 5.25 22.35 5.3 29.3 10.15 34.15 15.05 39.0 21.9 39.0 28.8 39.0 33.75 34.15 38.55 29.3 38.55 22.35 38.55 15.45 33.75 10.65" fill="url(#gradient2)" fill-rule="evenodd" stroke="none"/>
    </g>
    <linearGradient gradientTransform="matrix(0.0, 0.0226, -0.0232, 0.0, 21.9, 22.6)" gradientUnits="userSpaceOnUse" id="gradient2" spreadMethod="pad" x1="-819.2" x2="819.2">
      <stop offset="0.0" stop-color="#3d2945"/>
      <stop offset="1.0" stop-color="#cabad6"/>
    </linearGradient>
    <g id="sprite1" transform="matrix(1.0, 0.0, 0.0, 1.0, 0.2, 0.0)">
      <use height="8.6" transform="matrix(1.0, 0.0, 0.0, 1.0, -0.2, 0.0)" width="35.05" xlink:href="#shape3"/>
    </g>
    <g id="shape3" transform="matrix(1.0, 0.0, 0.0, 1.0, 0.2, 0.0)">
      <path d="M34.4 4.4 Q34.85 5.8 34.85 7.65 L34.85 8.6 Q34.8 6.95 34.4 5.7 33.0 1.3 27.2 1.3 L7.45 1.3 Q0.05 1.3 -0.2 8.5 L-0.2 7.65 Q-0.2 0.0 7.45 0.0 L27.2 0.0 Q33.0 0.0 34.4 4.4" fill="#e7deda" fill-rule="evenodd" stroke="none"/>
    </g>
    <g id="shape4" transform="matrix(1.0, 0.0, 0.0, 1.0, 0.2, -3.35)">
      <path d="M41.15 13.2 L41.2 13.2 41.75 14.15 Q43.05 16.35 42.95 18.35 L42.9 18.35 Q42.65 16.5 41.3 14.55 L41.25 14.45 41.2 14.4 41.2 13.9 41.2 13.7 41.15 13.2 M41.25 16.95 L41.2 18.05 40.55 16.6 40.55 15.6 40.6 15.6 41.2 16.9 41.25 16.95 M40.55 15.25 Q40.25 13.55 38.75 11.6 L37.6 10.2 37.55 10.0 37.55 9.95 37.5 9.7 37.4 9.4 37.35 8.8 37.6 9.15 38.3 9.9 39.35 11.25 Q40.75 13.4 40.6 15.25 L40.55 15.25 M37.95 11.65 L38.05 11.75 38.05 12.9 37.95 12.8 36.55 11.4 36.5 10.95 Q36.2 9.05 34.0 7.45 L33.95 7.15 33.9 7.1 33.35 6.1 33.1 5.75 33.55 6.0 Q36.2 7.7 36.5 9.8 L36.55 10.25 37.55 11.3 37.95 11.65 M33.75 8.0 L33.9 8.25 34.05 8.85 Q33.75 9.65 31.75 8.45 L31.65 8.35 31.6 8.3 30.0 7.35 28.95 6.8 28.95 6.75 Q30.2 6.35 31.5 7.15 L31.85 7.3 Q33.3 8.15 33.75 8.0 M37.2 15.35 L37.4 15.8 38.1 18.2 38.25 19.4 38.45 20.85 38.45 21.75 38.45 21.8 38.45 22.0 38.45 23.15 38.35 23.7 38.35 23.85 38.3 24.0 38.25 24.8 38.2 25.05 38.15 25.25 38.25 25.0 38.3 24.85 38.3 24.8 38.4 23.7 38.45 23.7 38.45 24.2 38.4 24.85 38.25 26.15 38.1 26.55 37.3 29.4 36.8 30.5 36.35 31.35 35.6 32.5 34.7 33.6 33.7 34.7 33.65 34.8 30.2 37.4 30.0 37.45 28.9 38.0 28.05 38.4 25.2 39.25 25.15 39.3 21.9 41.85 20.3 43.7 19.25 43.7 19.25 43.65 19.6 43.3 19.75 43.1 20.05 42.8 20.25 42.6 20.3 42.55 20.45 42.35 20.55 42.3 20.65 42.2 21.2 41.55 18.25 39.3 18.2 39.25 15.4 38.4 14.5 38.0 13.4 37.45 13.2 37.4 12.15 36.7 11.2 36.0 9.8 34.8 9.75 34.7 8.75 33.6 7.85 32.5 7.1 31.35 6.65 30.5 6.2 29.4 5.35 26.55 5.2 26.15 5.15 25.45 5.1 25.05 5.1 25.0 5.05 24.85 5.05 24.8 5.0 24.2 5.0 23.7 5.05 23.7 5.05 23.75 5.15 24.2 5.2 24.8 5.2 25.0 5.3 25.25 5.25 25.05 5.2 24.8 5.2 24.55 5.35 25.4 5.35 25.45 Q5.65 26.9 6.25 28.25 L6.2 28.25 6.2 28.3 6.45 28.75 6.5 28.9 6.55 29.0 6.6 29.05 6.65 29.35 6.65 29.4 7.1 30.2 7.85 31.35 7.9 31.4 7.15 30.25 6.7 29.35 6.65 29.15 Q7.5 30.85 8.8 32.45 L9.8 33.55 8.95 32.75 9.75 33.55 9.8 33.65 9.85 33.65 9.85 33.6 9.9 33.65 11.1 34.75 11.1 34.8 11.15 34.8 12.9 36.1 12.95 36.15 13.05 36.2 Q15.5 37.7 18.4 38.25 L19.55 39.15 21.25 40.45 21.3 40.5 21.6 40.7 21.65 40.75 21.75 40.9 21.85 40.75 21.9 40.7 22.2 40.5 22.25 40.45 23.85 39.15 25.05 38.25 Q27.8 37.7 30.2 36.25 L30.45 36.1 31.55 35.35 31.6 35.35 Q32.55 34.6 33.5 33.65 35.95 31.2 37.2 28.3 L37.25 28.3 37.2 28.55 37.3 28.25 37.95 26.1 37.25 28.25 37.2 28.25 Q38.4 25.3 38.4 21.85 38.4 18.35 37.15 15.4 L37.2 15.35 M32.95 42.0 L31.6 41.45 Q31.0 40.65 30.2 40.2 L30.2 39.1 30.25 39.1 31.0 39.7 31.05 39.75 31.6 40.3 Q32.5 41.0 34.6 40.9 L34.55 40.95 32.95 42.0 M38.1 38.2 L35.45 38.1 34.45 37.95 34.45 36.8 34.5 36.8 35.45 36.9 35.6 36.95 36.95 37.05 39.6 37.05 39.55 37.1 38.1 38.2 M42.25 32.8 Q40.2 33.4 38.25 34.6 L38.25 33.5 38.25 33.45 39.5 32.75 39.7 32.7 Q40.5 32.25 41.3 31.95 L42.9 31.45 42.7 32.0 42.25 32.8 M43.65 27.0 Q42.15 28.4 41.2 29.85 L41.2 28.7 41.25 28.65 41.85 27.75 42.05 27.5 42.1 27.5 42.7 26.8 42.95 26.6 43.65 25.85 43.65 27.0 M43.65 20.2 Q42.55 22.1 42.25 24.15 L42.1 22.0 42.15 22.0 42.25 23.0 42.45 21.95 42.75 20.95 42.8 20.9 43.25 19.85 43.25 19.8 43.3 19.7 43.35 19.6 43.65 19.05 43.65 20.2 M10.35 5.75 L10.1 6.1 9.5 7.1 9.5 7.15 9.4 7.45 Q7.25 9.05 6.95 10.95 L6.9 11.4 5.55 12.8 5.45 12.9 5.45 11.75 5.55 11.65 5.95 11.3 6.9 10.25 6.95 9.8 Q7.25 7.7 9.9 6.0 L10.35 5.75 M11.6 7.3 L11.9 7.15 Q13.15 6.35 14.4 6.8 L14.45 6.8 13.25 7.4 11.85 8.3 11.85 8.35 11.7 8.45 Q9.7 9.65 9.35 8.85 L9.5 8.25 9.7 8.0 Q10.15 8.15 11.6 7.3 M6.15 8.8 L6.1 9.4 6.1 9.55 5.9 10.2 4.7 11.6 Q3.15 13.55 2.85 15.25 L2.8 15.25 Q2.65 13.4 4.05 11.25 L5.15 9.9 5.9 9.15 6.15 8.8 M2.2 16.9 L2.8 15.6 2.85 15.6 2.85 16.6 2.2 18.05 2.15 16.95 2.2 16.9 M2.2 13.2 L2.25 13.2 2.2 13.7 2.2 13.9 2.2 14.4 2.15 14.45 2.1 14.55 Q0.8 16.5 0.55 18.35 L0.5 18.35 Q0.4 16.35 1.65 14.15 L2.2 13.2 M1.25 22.0 L1.3 22.0 1.15 24.15 Q0.9 22.1 -0.2 20.2 L-0.2 19.05 0.4 20.25 0.65 20.8 0.7 20.9 0.7 20.95 0.75 21.0 0.85 21.55 1.15 23.0 1.25 22.0 M2.15 28.65 L2.2 28.7 2.2 29.85 -0.2 27.0 -0.2 25.85 0.5 26.6 0.75 26.8 1.35 27.5 1.55 27.75 2.15 28.65 M5.2 33.5 L5.2 34.6 Q3.2 33.4 1.15 32.8 L0.75 32.0 0.55 31.45 2.1 31.95 3.75 32.7 3.85 32.75 3.9 32.75 5.2 33.45 5.2 33.5 M8.9 36.8 L8.95 36.8 8.95 37.95 8.0 38.1 5.4 38.2 3.85 37.1 3.8 37.05 6.5 37.05 7.85 36.95 8.0 36.9 8.9 36.8 M13.2 39.1 L13.2 40.2 Q12.4 40.65 11.85 41.45 L10.5 42.0 8.85 40.95 8.8 40.9 Q10.95 41.0 11.85 40.3 L12.35 39.75 12.4 39.7 13.15 39.1 13.2 39.1 M33.65 33.65 L33.7 33.55 34.45 32.75 33.65 33.55 33.6 33.65 33.6 33.7 33.65 33.65 M36.8 29.35 L37.0 28.9 36.75 29.35 36.3 30.25 35.55 31.4 35.6 31.35 36.35 30.2 36.8 29.35 M23.65 43.1 L23.8 43.3 24.15 43.65 24.15 43.7 23.15 43.7 23.05 43.6 23.65 43.1" fill="#4f2945" fill-rule="evenodd" stroke="none"/>
      <path d="M41.2 13.2 L41.15 13.2 41.15 13.15 41.2 13.2 M42.9 18.35 L42.95 18.35 42.9 18.5 42.9 18.35 M41.25 16.45 L41.25 16.95 41.2 16.9 41.2 16.2 41.25 16.45 M38.45 23.15 L38.45 23.7 38.4 23.7 38.45 23.15 M30.2 39.1 L30.2 39.05 30.25 39.1 30.2 39.1 M40.6 15.25 L40.55 15.4 40.55 15.25 40.6 15.25 M40.55 15.6 L40.55 15.5 40.6 15.6 40.55 15.6 M28.95 6.8 L28.9 6.75 28.95 6.75 28.95 6.8 M5.05 23.7 L5.0 23.7 5.0 23.15 5.05 23.7 M19.25 43.65 L19.25 43.7 19.2 43.7 19.25 43.65 M2.8 15.25 L2.85 15.25 2.85 15.4 2.8 15.25 M2.15 16.45 L2.2 16.2 2.2 16.9 2.15 16.95 2.15 16.45 M2.8 15.6 L2.85 15.5 2.85 15.6 2.8 15.6 M2.2 13.2 L2.25 13.15 2.25 13.2 2.2 13.2 M13.15 39.1 L13.2 39.05 13.2 39.1 13.15 39.1 M0.5 18.35 L0.55 18.35 0.55 18.5 0.5 18.35 M24.15 43.7 L24.15 43.65 24.2 43.7 24.15 43.7" fill="#2c2c29" fill-rule="evenodd" stroke="none"/>
      <path d="M42.95 18.35 Q43.05 16.35 41.75 14.15 L41.65 11.6 Q44.7 16.3 42.7 20.1 L42.75 20.9 42.75 20.95 42.45 21.95 42.25 23.0 42.15 22.0 42.05 20.9 Q42.8 19.65 42.9 18.35 L42.9 18.5 42.95 18.35 M41.25 14.55 L41.25 16.45 41.2 16.2 41.2 16.9 40.6 15.6 40.55 15.5 40.5 15.5 40.5 15.4 40.55 15.4 40.6 15.25 Q40.75 13.4 39.35 11.25 L38.3 9.9 Q37.95 8.45 37.75 6.8 39.9 9.2 40.7 11.25 L41.1 13.2 41.0 14.15 41.2 14.45 41.2 14.5 41.25 14.55 M37.6 10.25 Q37.7 10.95 37.95 11.65 L37.55 11.3 36.55 10.25 36.5 9.8 Q36.2 7.7 33.55 6.0 L34.05 5.7 34.25 5.5 34.25 5.15 34.15 5.0 34.15 4.95 33.3 3.4 Q36.55 5.45 36.9 7.9 L36.95 8.4 37.35 8.8 37.4 9.4 37.5 9.7 37.55 9.95 37.55 10.0 37.6 10.25 M33.95 7.45 L34.0 7.75 33.75 8.0 Q33.3 8.15 31.85 7.3 32.8 7.65 32.55 7.0 31.85 5.15 26.25 3.35 29.5 4.05 32.3 5.9 L32.8 6.0 33.25 6.1 33.3 6.1 33.9 7.15 33.95 7.45 M38.25 33.45 L39.05 32.45 39.2 32.35 Q42.25 30.5 43.65 27.85 L43.65 28.85 Q42.2 31.05 39.65 32.65 L39.6 32.65 39.5 32.75 38.25 33.45 M41.25 28.65 L41.9 26.5 42.95 24.95 43.65 23.3 43.65 24.35 43.55 24.55 43.35 24.95 42.45 26.2 42.05 27.45 42.05 27.5 41.85 27.75 41.25 28.65 M9.5 7.15 L10.15 6.1 10.2 6.1 10.65 6.0 11.15 5.9 Q13.9 4.05 17.2 3.35 11.6 5.15 10.9 7.0 10.65 7.65 11.6 7.3 10.15 8.15 9.7 8.0 L9.4 7.75 9.45 7.45 9.5 7.15 M6.15 8.8 L6.5 8.4 6.55 7.9 Q6.9 5.45 10.15 3.4 9.5 4.2 9.25 4.95 L9.25 5.0 9.15 5.15 9.15 5.5 9.35 5.7 9.9 6.0 Q7.25 7.7 6.95 9.8 L6.9 10.25 5.95 11.3 5.55 11.65 5.95 10.25 6.1 9.55 6.1 9.4 6.15 8.8 M5.15 9.9 L4.05 11.25 Q2.65 13.4 2.8 15.25 L2.85 15.4 2.9 15.4 2.9 15.5 2.85 15.5 2.8 15.6 2.2 16.9 2.2 16.2 2.15 16.45 2.15 14.55 2.2 14.5 2.25 14.45 2.4 14.15 2.35 13.2 Q2.35 12.25 2.7 11.25 3.5 9.2 5.75 6.8 L5.15 9.9 M0.55 18.35 Q0.65 19.65 1.35 20.9 L1.25 22.0 1.15 23.0 0.85 21.55 0.75 21.0 0.7 20.95 0.7 20.9 0.75 20.1 Q-1.25 16.3 1.75 11.6 L1.65 14.15 Q0.4 16.35 0.5 18.35 L0.55 18.5 0.55 18.35 M-0.2 23.3 L0.5 24.95 1.5 26.5 2.15 28.65 1.55 27.75 1.35 27.5 1.35 27.45 0.95 26.2 0.1 24.95 -0.1 24.55 -0.2 24.35 -0.2 23.3 M-0.2 27.85 Q1.15 30.5 4.25 32.35 L4.3 32.35 4.4 32.45 5.2 33.45 3.9 32.75 3.85 32.75 3.8 32.65 3.75 32.6 3.75 32.65 Q1.2 31.05 -0.2 28.85 L-0.2 27.85" fill="#bf89b1" fill-rule="evenodd" stroke="none"/>
      <path d="M41.3 14.55 Q42.65 16.5 42.9 18.35 42.8 19.65 42.05 20.9 L42.15 22.0 42.1 22.0 42.25 24.15 Q42.55 22.1 43.65 20.2 L43.65 23.3 42.95 24.95 41.9 26.5 41.25 28.65 41.2 28.7 41.2 29.85 Q42.15 28.4 43.65 27.0 L43.65 27.85 Q42.25 30.5 39.2 32.35 L39.05 32.45 38.25 33.45 38.2 33.5 38.25 33.5 38.25 34.6 Q40.2 33.4 42.25 32.8 40.4 36.0 35.55 36.0 L35.45 36.1 34.5 36.8 34.45 36.8 34.45 37.95 35.45 38.1 38.1 38.2 38.1 38.25 Q36.85 39.0 35.45 39.15 33.55 39.4 31.3 38.5 L30.25 39.1 30.2 39.05 30.2 39.1 30.2 40.2 Q31.0 40.65 31.6 41.45 L32.95 42.0 33.0 42.05 32.95 42.05 29.9 42.35 Q29.05 42.1 28.2 41.45 27.45 40.95 27.1 40.05 24.75 41.05 23.0 42.4 L22.4 42.8 21.75 43.35 21.7 43.4 21.35 43.7 20.3 43.7 21.9 41.85 25.15 39.3 25.2 39.25 28.05 38.4 28.9 38.0 30.0 37.45 30.2 37.4 33.65 34.8 33.7 34.7 34.7 33.6 35.6 32.5 36.35 31.35 36.8 30.5 37.3 29.4 38.1 26.55 38.25 26.15 38.4 24.85 38.45 24.2 38.45 23.7 38.45 23.15 38.45 22.0 38.45 21.8 38.45 21.75 38.45 20.85 38.25 19.4 38.1 18.2 37.4 15.8 37.2 15.35 36.65 14.25 36.55 14.0 36.0 13.15 34.8 11.45 34.0 10.55 33.65 10.2 33.55 10.1 33.5 10.05 32.45 9.1 32.05 8.75 31.75 8.45 Q33.75 9.65 34.05 8.85 L33.9 8.25 33.75 8.0 34.0 7.75 33.95 7.45 34.0 7.45 Q36.2 9.05 36.5 10.95 L36.55 11.4 37.95 12.8 38.05 12.9 38.05 11.75 37.95 11.65 Q37.7 10.95 37.6 10.25 L37.6 10.2 38.75 11.6 Q40.25 13.55 40.55 15.25 L40.5 15.4 40.5 15.5 40.55 15.6 40.55 16.6 41.2 18.05 41.25 16.95 41.25 16.45 41.25 14.55 41.3 14.55 M5.0 23.7 L5.0 24.2 5.05 24.8 5.05 24.85 5.1 25.0 5.1 25.05 5.15 25.45 5.2 26.15 5.35 26.55 6.2 29.4 6.65 30.5 7.1 31.35 7.85 32.5 8.75 33.6 9.75 34.7 9.8 34.8 11.2 36.0 12.15 36.7 13.2 37.4 13.4 37.45 14.5 38.0 15.4 38.4 18.2 39.25 18.25 39.3 21.2 41.55 20.65 42.2 20.55 42.3 20.45 42.35 Q18.65 41.05 16.35 40.05 16.0 40.95 15.25 41.45 14.35 42.1 13.5 42.35 L10.5 42.05 10.5 42.0 11.85 41.45 Q12.4 40.65 13.2 40.2 L13.2 39.1 13.2 39.05 13.15 39.1 12.1 38.5 Q9.9 39.4 8.0 39.15 6.65 39.0 5.4 38.25 L5.4 38.2 8.0 38.1 8.95 37.95 8.95 36.8 8.9 36.8 8.0 36.1 7.9 36.0 Q3.0 36.0 1.15 32.8 3.2 33.4 5.2 34.6 L5.2 33.5 5.25 33.5 5.2 33.45 4.4 32.45 4.3 32.35 4.25 32.3 4.25 32.35 Q1.15 30.5 -0.2 27.85 L-0.2 27.0 2.2 29.85 2.2 28.7 2.15 28.65 1.5 26.5 0.5 24.95 -0.2 23.3 -0.2 20.2 Q0.9 22.1 1.15 24.15 L1.3 22.0 1.25 22.0 1.35 20.9 Q0.65 19.65 0.55 18.35 0.8 16.5 2.1 14.55 L2.15 14.55 2.15 16.45 2.15 16.95 2.2 18.05 2.85 16.6 2.85 15.6 2.9 15.5 2.9 15.4 2.85 15.25 Q3.15 13.55 4.7 11.6 L5.9 10.2 5.95 10.25 5.55 11.65 5.45 11.75 5.45 12.9 5.55 12.8 6.9 11.4 6.95 10.95 Q7.25 9.05 9.4 7.45 L9.45 7.45 9.4 7.75 9.7 8.0 9.5 8.25 9.35 8.85 Q9.7 9.65 11.7 8.45 L11.75 8.45 9.9 10.05 9.55 10.4 9.4 10.55 8.9 11.15 8.65 11.45 7.45 13.15 7.0 13.9 6.9 14.0 6.85 14.2 6.8 14.25 6.1 15.8 5.7 17.0 5.6 17.3 5.35 18.2 5.2 19.4 5.05 20.5 5.0 20.85 5.0 21.55 5.0 21.85 5.0 22.0 5.0 22.65 5.0 23.15 5.0 23.7" fill="#7d5689" fill-rule="evenodd" stroke="none"/>
      <path d="M41.25 14.45 L41.3 14.55 41.25 14.55 41.25 14.45 M37.6 10.2 L37.6 10.25 37.55 10.0 37.6 10.2 M34.0 7.45 L33.95 7.45 33.9 7.15 33.3 6.1 33.0 5.7 33.1 5.75 33.35 6.1 33.9 7.1 33.95 7.15 34.0 7.45 M33.0 42.05 L32.95 42.0 34.55 40.95 34.6 40.95 34.6 41.0 33.0 42.05 M38.1 38.25 L38.1 38.2 39.55 37.1 39.6 37.1 39.6 37.15 38.6 37.9 38.1 38.25 M31.75 8.45 L31.6 8.35 31.2 8.1 30.0 7.35 31.6 8.3 31.65 8.35 31.75 8.45 M37.25 28.25 L37.95 26.1 37.3 28.25 37.2 28.55 37.25 28.3 37.25 28.25 M30.45 36.1 L30.2 36.25 30.15 36.25 30.45 36.1 M25.05 38.25 L23.85 39.15 24.95 38.25 25.1 38.15 25.15 38.1 25.7 38.0 25.2 38.1 25.15 38.15 25.05 38.25 M38.4 23.7 L38.3 24.8 38.3 24.85 38.25 25.0 38.15 25.25 38.2 25.05 38.25 24.8 38.3 24.0 38.35 23.85 38.35 23.7 38.45 23.15 38.4 23.7 M36.8 29.35 L36.35 30.2 35.6 31.35 35.55 31.4 36.3 30.25 36.75 29.35 37.0 28.9 36.8 29.35 M33.65 33.65 L33.6 33.7 33.6 33.65 33.65 33.55 34.45 32.75 33.7 33.55 33.65 33.65" fill="url(#gradient3)" fill-rule="evenodd" stroke="none"/>
      <path d="M40.55 15.6 L40.5 15.5 40.55 15.5 40.55 15.6 M40.5 15.4 L40.55 15.25 40.55 15.4 40.5 15.4 M38.25 33.5 L38.2 33.5 38.25 33.45 38.25 33.5" fill="url(#gradient4)" fill-rule="evenodd" stroke="none"/>
      <path d="M21.35 43.7 L21.7 43.4 21.75 43.35 22.4 42.8 23.0 42.4 Q24.75 41.05 27.1 40.05 27.45 40.95 28.2 41.45 29.05 42.1 29.9 42.35 L32.95 42.05 33.0 42.05 34.85 42.1 32.2 43.65 32.0 43.7 30.3 43.7 30.1 43.65 Q29.2 43.4 28.3 42.65 27.55 42.1 27.15 41.15 25.25 42.0 23.65 43.1 L23.05 43.6 22.95 43.65 22.9 43.7 21.35 43.7 M30.25 39.1 L31.3 38.5 Q33.55 39.4 35.45 39.15 36.85 39.0 38.1 38.25 L38.6 37.9 40.1 37.85 Q38.15 39.85 35.85 40.15 33.85 40.4 31.5 39.45 L31.0 39.7 30.25 39.1 M34.5 36.8 L35.45 36.1 35.55 36.0 Q40.4 36.0 42.25 32.8 L42.7 32.0 43.5 31.7 Q41.8 36.65 35.95 36.65 L35.85 36.8 35.6 36.95 35.45 36.9 34.5 36.8 M20.45 42.35 L20.3 42.55 20.25 42.6 20.05 42.8 19.75 43.1 Q18.15 42.0 16.3 41.15 15.9 42.1 15.15 42.65 L13.3 43.65 13.1 43.7 11.45 43.7 11.25 43.65 Q9.9 43.3 8.6 42.1 L10.45 42.05 10.5 42.05 13.5 42.35 Q14.35 42.1 15.25 41.45 16.0 40.95 16.35 40.05 18.65 41.05 20.45 42.35 M1.15 32.8 Q3.0 36.0 7.9 36.0 L8.0 36.1 8.9 36.8 8.0 36.9 7.85 36.95 7.6 36.8 7.5 36.65 Q1.6 36.65 -0.05 31.7 L0.75 32.0 1.15 32.8 M5.4 38.25 Q6.65 39.0 8.0 39.15 9.9 39.4 12.1 38.5 L13.15 39.1 12.4 39.7 11.9 39.45 Q9.6 40.4 7.6 40.15 5.3 39.85 3.3 37.85 L4.85 37.9 5.4 38.25" fill="#c995bb" fill-rule="evenodd" stroke="none"/>
      <path d="M19.55 39.15 L18.4 38.25 18.45 38.25 19.55 39.15 M13.05 36.2 L12.95 36.15 13.25 36.25 13.2 36.25 13.05 36.2 M9.85 33.6 L9.85 33.65 9.8 33.65 9.75 33.55 8.95 32.75 9.8 33.55 9.85 33.6 M6.65 29.15 L6.7 29.35 7.15 30.25 7.9 31.4 7.85 31.35 7.1 30.2 6.65 29.4 6.65 29.35 6.6 29.05 6.65 29.15 M6.45 28.75 L6.2 28.3 6.2 28.25 6.25 28.25 6.45 28.75 M5.2 24.55 L5.2 24.8 5.25 25.05 5.3 25.25 5.2 25.0 5.2 24.8 5.15 24.2 5.05 23.75 5.05 23.7 5.0 23.15 5.05 23.3 5.1 23.7 5.1 23.9 5.15 24.0 5.2 24.55 M10.35 5.75 L10.45 5.7 10.2 6.1 10.15 6.1 9.5 7.15 9.5 7.1 10.1 6.1 10.35 5.75 M13.25 7.4 L11.9 8.35 11.85 8.35 11.75 8.45 11.7 8.45 11.85 8.35 11.85 8.3 13.25 7.4 M6.1 9.55 L5.95 10.25 5.9 10.2 6.1 9.55 M9.4 7.45 L9.5 7.15 9.45 7.45 9.4 7.45 M2.15 14.45 L2.15 14.55 2.1 14.55 2.15 14.45 M5.4 38.2 L5.4 38.25 4.85 37.9 3.85 37.15 3.8 37.1 3.85 37.1 5.4 38.2 M10.5 42.0 L10.5 42.05 8.85 41.0 8.8 40.95 8.85 40.95 10.5 42.0 M23.05 43.6 L23.15 43.7 22.9 43.7 22.95 43.65 23.05 43.6" fill="url(#gradient5)" fill-rule="evenodd" stroke="none"/>
      <path d="M2.85 15.5 L2.9 15.5 2.85 15.6 2.85 15.5 M2.9 15.4 L2.85 15.4 2.85 15.25 2.9 15.4 M4.25 32.35 L4.25 32.3 4.3 32.35 4.25 32.35 M5.2 33.45 L5.25 33.5 5.2 33.5 5.2 33.45" fill="url(#gradient6)" fill-rule="evenodd" stroke="none"/>
      <path d="M5.0 22.65 L5.05 23.3 5.0 23.15 5.0 22.65" fill="#89320e" fill-rule="evenodd" stroke="none"/>
    </g>
    <linearGradient gradientTransform="matrix(0.0156, 0.0, 0.0, 0.024, 31.85, 25.35)" gradientUnits="userSpaceOnUse" id="gradient3" spreadMethod="pad" x1="-819.2" x2="819.2">
      <stop offset="0.01568627450980392" stop-color="#4e4e4a"/>
      <stop offset="1.0" stop-color="#545451"/>
    </linearGradient>
    <linearGradient gradientTransform="matrix(0.0062, -0.0205, -0.0127, -0.0038, 34.05, 25.5)" gradientUnits="userSpaceOnUse" id="gradient4" spreadMethod="pad" x1="-819.2" x2="819.2">
      <stop offset="0.0" stop-color="#65645e"/>
      <stop offset="1.0" stop-color="#7d7b73"/>
    </linearGradient>
    <linearGradient gradientTransform="matrix(-0.0156, 0.0, 0.0, 0.024, 11.6, 25.35)" gradientUnits="userSpaceOnUse" id="gradient5" spreadMethod="pad" x1="-819.2" x2="819.2">
      <stop offset="0.01568627450980392" stop-color="#4e4e4a"/>
      <stop offset="1.0" stop-color="#545451"/>
    </linearGradient>
    <linearGradient gradientTransform="matrix(-0.0062, -0.0205, 0.0127, -0.0038, 9.35, 25.5)" gradientUnits="userSpaceOnUse" id="gradient6" spreadMethod="pad" x1="-819.2" x2="819.2">
      <stop offset="0.0" stop-color="#65645e"/>
      <stop offset="1.0" stop-color="#7d7b73"/>
    </linearGradient>
  </defs>
</svg>
