<?xml version="1.0" encoding="UTF-8" standalone="no"?>
<svg xmlns:xlink="http://www.w3.org/1999/xlink" height="66.0px" width="66.0px" xmlns="http://www.w3.org/2000/svg">
  <g transform="matrix(1.5, 0.0, 0.0, 1.5, 0.6, -0.6)">
    <use height="40.35" transform="matrix(1.0, 0.0, 0.0, 1.0, 1.65, 2.25)" width="40.35" xlink:href="#shape0"/>
    <use height="0.0" transform="matrix(1.2125, 0.0, 0.0, 1.2125, 1.1, 0.9)" width="0.0" xlink:href="#sprite0"/>
    <use height="44.0" transform="matrix(1.0, 0.0, 0.0, 1.0, -0.4, 0.4)" width="44.0" xlink:href="#shape1"/>
    <use height="8.6" transform="matrix(1.2077, 0.0, 0.0, 1.2093, 0.1085, 1.15)" width="35.05" xlink:href="#sprite1"/>
    <use height="20.15" transform="matrix(1.1548, 0.0, 0.0, 1.1564, 5.9, 6.05)" width="28.2" xlink:href="#sprite2"/>
    <use height="39.85" transform="matrix(1.0, 0.0, 0.0, 1.0, 1.35, 4.5)" width="40.55" xlink:href="#shape4"/>
  </g>
  <defs>
    <g id="shape0" transform="matrix(1.0, 0.0, 0.0, 1.0, -1.65, -2.25)">
      <path d="M22.05 40.6 Q14.3 40.6 8.85 35.2 3.4 29.75 3.4 22.05 3.4 14.35 8.85 8.95 14.3 3.5 22.05 3.5 29.75 3.5 35.2 8.95 40.6 14.4 40.6 22.05 40.6 29.75 35.2 35.2 29.75 40.6 22.05 40.6" fill="url(#gradient0)" fill-rule="evenodd" stroke="none"/>
      <path d="M21.8 2.25 Q30.15 2.25 36.05 8.15 42.0 14.1 42.0 22.4 42.0 30.75 36.05 36.65 30.15 42.6 21.8 42.6 13.45 42.6 7.55 36.65 1.65 30.75 1.65 22.4 1.65 14.1 7.55 8.15 13.45 2.25 21.8 2.25" fill="url(#gradient1)" fill-rule="evenodd" stroke="none"/>
      <path d="M25.2 13.7 Q25.2 14.5 24.7 15.0 24.2 15.6 23.45 15.6 22.7 15.6 22.2 15.0 21.7 14.5 21.7 13.7 21.7 12.9 22.2 12.3 22.7 11.7 23.45 11.7 24.2 11.7 24.7 12.3 25.2 12.9 25.2 13.7 M26.25 13.7 Q26.25 12.45 25.45 11.5 24.65 10.6 23.45 10.6 22.3 10.6 21.5 11.5 20.65 12.45 20.65 13.7 20.65 14.95 21.5 15.8 22.3 16.75 23.45 16.75 24.65 16.75 25.45 15.8 26.25 14.95 26.25 13.7 M16.3 10.25 Q18.25 8.05 21.1 8.05 23.95 8.05 25.95 10.25 L26.95 11.65 27.75 12.35 27.85 12.35 27.9 12.35 Q29.75 13.35 31.2 15.8 32.7 18.15 32.7 19.9 32.6 21.0 32.25 21.3 L32.15 21.3 31.0 21.55 31.2 22.55 Q31.2 24.95 30.1 24.95 29.75 24.95 29.4 24.6 L29.15 24.45 28.85 25.4 Q28.3 26.5 27.85 26.5 27.2 26.5 26.55 25.55 L26.4 25.35 25.2 27.55 22.0 31.7 Q22.0 32.65 23.8 33.55 25.65 34.4 25.65 35.75 25.65 37.05 23.25 37.05 21.1 37.05 20.25 36.3 19.45 35.6 19.0 33.45 L18.9 33.25 18.35 33.45 16.8 34.1 16.0 34.35 Q13.7 35.15 13.55 33.7 13.35 32.3 14.45 31.5 15.55 30.6 16.5 30.7 L18.85 30.95 20.4 30.8 Q21.05 30.45 21.05 28.9 21.05 25.55 17.75 22.05 L15.9 20.35 14.8 18.4 14.8 18.3 Q15.55 17.95 16.7 18.3 L18.7 18.1 Q19.3 17.5 19.35 16.55 19.35 15.15 18.05 14.2 16.8 13.4 15.25 13.4 L14.6 13.45 14.8 12.65 Q15.25 11.35 16.3 10.25 M29.75 14.4 Q30.8 15.95 30.8 18.15 L30.7 18.9 30.1 19.1 Q29.45 19.1 29.1 18.75 L29.7 21.15 29.75 22.05 Q29.75 22.55 29.3 22.55 L28.6 22.35 28.15 21.95 28.0 21.9 Q28.5 23.55 27.35 24.15 L26.8 24.4 26.6 24.9 26.8 25.35 Q27.35 26.05 27.85 26.15 L28.5 25.25 28.85 24.0 28.85 23.85 29.0 23.85 29.15 23.85 29.3 23.95 29.4 24.1 29.6 24.3 30.1 24.6 Q30.8 24.55 30.85 22.6 L30.65 21.45 30.65 21.3 30.7 21.25 30.8 21.25 32.0 21.0 32.3 19.9 Q32.25 18.3 30.9 16.05 30.2 14.7 29.3 13.85 L29.75 14.4 M21.7 21.0 Q21.65 23.0 22.5 24.0 23.1 24.75 23.65 24.75 L23.9 24.75 Q25.05 24.6 25.7 23.3 L25.8 23.3 26.25 21.25 Q26.25 18.45 23.25 18.45 22.85 18.4 22.35 18.9 L22.3 18.9 Q22.0 19.2 21.85 19.6 L21.75 19.75 21.7 21.0 M22.8 23.8 Q22.05 22.85 22.05 21.0 L22.15 20.2 22.15 20.15 22.2 19.75 22.6 19.2 Q23.0 18.8 23.25 18.8 25.8 18.8 25.85 21.25 25.8 21.65 25.0 21.45 25.65 22.6 25.45 23.15 L23.95 23.2 Q24.2 24.4 23.65 24.4 23.25 24.3 22.8 23.8 M15.1 15.4 Q13.55 15.0 12.6 16.85 L12.6 17.0 12.7 17.05 12.85 17.15 12.9 17.0 Q13.7 15.45 15.05 15.75 16.35 15.95 17.3 16.6 L17.45 16.7 17.55 16.6 17.6 16.45 17.55 16.35 Q16.5 15.65 15.1 15.4 M16.8 17.95 L14.65 18.0 14.4 18.15 Q13.45 18.65 12.9 18.75 12.4 18.65 12.1 17.85 11.8 17.2 11.8 16.45 11.8 14.85 13.05 14.35 L13.05 14.3 Q13.8 13.9 14.6 13.85 L15.25 13.75 Q16.65 13.7 17.8 14.5 18.9 15.3 19.0 16.55 19.0 17.35 18.5 17.8 L16.8 17.95" fill="#2e5d6b" fill-rule="evenodd" stroke="none"/>
    </g>
    <linearGradient gradientTransform="matrix(0.0, -0.0173, -0.0173, 0.0, 22.0, 18.5)" gradientUnits="userSpaceOnUse" id="gradient0" spreadMethod="pad" x1="-819.2" x2="819.2">
      <stop offset="0.011764705882352941" stop-color="#c4bebb"/>
      <stop offset="1.0" stop-color="#9f8a82"/>
    </linearGradient>
    <linearGradient gradientTransform="matrix(0.0, -0.0189, -0.0189, 0.0, 21.8, 18.6)" gradientUnits="userSpaceOnUse" id="gradient1" spreadMethod="pad" x1="-819.2" x2="819.2">
      <stop offset="0.011764705882352941" stop-color="#b3f9e4"/>
      <stop offset="1.0" stop-color="#5bbbff"/>
    </linearGradient>
    <g id="shape1" transform="matrix(1.0, 0.0, 0.0, 1.0, 0.4, -0.4)">
      <path d="M33.8 10.2 Q28.75 5.1 21.6 5.1 14.4 5.1 9.35 10.2 4.25 15.2 4.25 22.45 4.25 29.6 9.35 34.7 14.4 39.8 21.6 39.8 28.8 39.8 33.8 34.7 38.85 29.6 38.85 22.45 38.85 15.2 33.8 10.2 M1.75 2.65 Q4.05 0.4 7.15 0.4 L35.95 0.4 Q39.15 0.4 41.35 2.65 43.6 4.95 43.6 8.05 L43.6 36.85 Q43.6 39.95 41.35 42.2 39.15 44.4 35.95 44.4 L7.15 44.4 Q4.05 44.4 1.75 42.2 -0.4 39.95 -0.4 36.85 L-0.4 8.05 Q-0.4 4.95 1.75 2.65" fill="url(#gradient2)" fill-rule="evenodd" stroke="none"/>
      <path d="M21.5 5.95 Q14.6 6.0 9.8 10.9 4.9 15.75 4.9 22.6 4.9 29.55 9.8 34.45 14.6 39.25 21.5 39.25 28.35 39.25 33.25 34.45 38.15 29.55 38.15 22.6 38.15 15.75 33.25 10.9 28.4 6.0 21.5 5.95 M8.0 9.2 Q13.6 3.6 21.5 3.6 29.35 3.6 34.9 9.2 40.5 14.75 40.5 22.6 40.5 30.55 34.9 36.1 29.35 41.65 21.5 41.65 13.6 41.65 8.0 36.1 2.45 30.55 2.45 22.6 2.45 14.75 8.0 9.2" fill="url(#gradient3)" fill-rule="evenodd" stroke="none"/>
    </g>
    <linearGradient gradientTransform="matrix(0.0, -0.0275, -0.044, 0.0, 20.45, 22.6)" gradientUnits="userSpaceOnUse" id="gradient2" spreadMethod="pad" x1="-819.2" x2="819.2">
      <stop offset="0.0196078431372549" stop-color="#905a3d"/>
      <stop offset="0.9764705882352941" stop-color="#6a412d"/>
    </linearGradient>
    <linearGradient gradientTransform="matrix(0.0, -0.0168, -0.0168, 0.0, 21.5, 27.2)" gradientUnits="userSpaceOnUse" id="gradient3" spreadMethod="pad" x1="-819.2" x2="819.2">
      <stop offset="0.0196078431372549" stop-color="#a3704d"/>
      <stop offset="0.9803921568627451" stop-color="#492d20"/>
    </linearGradient>
    <g id="sprite1" transform="matrix(1.0, 0.0, 0.0, 1.0, 0.2, 0.0)">
      <use height="8.6" transform="matrix(1.0, 0.0, 0.0, 1.0, -0.2, 0.0)" width="35.05" xlink:href="#shape2"/>
    </g>
    <g id="shape2" transform="matrix(1.0, 0.0, 0.0, 1.0, 0.2, 0.0)">
      <path d="M34.85 8.6 Q34.8 6.95 34.4 5.7 33.0 1.3 27.2 1.3 L7.45 1.3 Q0.05 1.3 -0.2 8.5 L-0.2 7.65 Q-0.2 0.0 7.45 0.0 L27.2 0.0 Q33.0 0.0 34.4 4.4 34.85 5.8 34.85 7.65 L34.85 8.6" fill="#e7deda" fill-rule="evenodd" stroke="none"/>
    </g>
    <g id="sprite2" transform="matrix(1.0, 0.0, 0.0, 1.0, 0.0, 0.0)">
      <use height="20.15" transform="matrix(1.0, 0.0, 0.0, 1.0, 0.0, 0.0)" width="28.2" xlink:href="#shape3"/>
    </g>
    <g id="shape3" transform="matrix(1.0, 0.0, 0.0, 1.0, 0.0, 0.0)">
      <path d="M27.65 18.45 L27.4 18.95 Q26.2 20.8 23.4 19.8 19.6 18.5 17.35 14.05 14.8 9.1 9.75 7.4 4.1 5.65 0.0 10.3 1.0 6.85 3.7 4.15 7.2 0.65 11.9 0.05 L14.8 0.05 18.4 0.65 Q21.55 1.65 24.05 4.15 28.2 8.3 28.2 14.25 28.2 16.45 27.65 18.45" fill="#ffffff" fill-opacity="0.19607843" fill-rule="evenodd" stroke="none"/>
    </g>
    <g id="shape4" transform="matrix(1.0, 0.0, 0.0, 1.0, -1.35, -4.5)">
      <path d="M15.85 40.9 Q12.4 39.9 9.15 38.25 10.45 35.0 12.8 34.45 13.55 38.1 15.85 40.9 M29.85 34.45 Q32.2 35.0 33.45 38.3 30.3 40.0 26.95 40.9 28.55 38.85 29.35 36.25 L29.85 34.45" fill="url(#gradient4)" fill-rule="evenodd" stroke="none"/>
      <path d="M12.8 34.45 Q14.3 37.5 17.5 38.9 L15.85 40.9 Q13.55 38.1 12.8 34.45 M26.95 40.9 L25.15 38.9 Q28.35 37.5 29.85 34.45 L29.35 36.25 Q28.55 38.85 26.95 40.9" fill="#6d4a34" fill-rule="evenodd" stroke="none"/>
      <path d="M31.8 14.6 Q31.3 10.2 28.7 7.45 L30.4 5.7 30.65 6.2 31.1 7.85 Q31.85 11.35 31.8 14.6 M11.35 14.6 Q11.2 10.3 12.75 5.7 L14.5 7.45 Q11.9 10.2 11.35 14.6" fill="#492d20" fill-rule="evenodd" stroke="none"/>
      <path d="M30.65 6.2 L30.05 4.5 Q33.45 6.25 36.35 9.2 L36.4 9.3 Q35.6 13.35 31.8 14.6 31.85 11.35 31.1 7.85 L30.65 6.2 M11.35 14.6 Q7.55 13.35 6.75 9.4 L6.95 9.2 Q9.75 6.3 13.05 4.7 L12.75 5.7 Q11.2 10.3 11.35 14.6" fill="url(#gradient5)" fill-rule="evenodd" stroke="none"/>
      <path d="M41.8 33.9 L41.8 36.6 Q41.8 37.6 41.2 38.25 40.7 38.85 39.85 38.85 39.0 38.85 38.4 38.25 37.8 37.6 37.8 36.6 L37.8 35.35 M1.45 33.9 L1.45 36.6 Q1.45 37.6 2.0 38.25 2.5 38.85 3.4 38.85 4.2 38.85 4.85 38.25 5.4 37.6 5.4 36.6 L5.4 35.35" fill="none" stroke="#6a402d" stroke-linecap="round" stroke-linejoin="round" stroke-width="0.25"/>
      <path d="M39.0 5.85 L39.35 5.75 Q39.9 5.75 40.25 6.6 L40.5 8.7 40.25 10.75 Q39.9 11.65 39.35 11.65 L39.0 11.5 39.55 10.75 39.85 8.7 39.55 6.6 39.0 5.85 M4.15 11.5 L3.8 11.65 Q3.3 11.65 2.95 10.75 2.65 9.9 2.65 8.7 2.65 7.45 2.95 6.6 3.3 5.75 3.8 5.75 L4.15 5.85 3.6 6.6 Q3.35 7.45 3.35 8.7 3.35 9.9 3.6 10.75 L4.15 11.5" fill="#1a0d09" fill-rule="evenodd" stroke="none"/>
      <path d="M39.0 11.5 L38.55 10.75 Q38.2 9.9 38.2 8.7 38.2 7.45 38.55 6.6 L39.0 5.85 39.55 6.6 39.85 8.7 39.55 10.75 39.0 11.5 M4.15 11.5 L3.6 10.75 Q3.35 9.9 3.35 8.7 3.35 7.45 3.6 6.6 L4.15 5.85 Q4.45 6.0 4.6 6.6 4.95 7.45 4.95 8.7 4.95 9.9 4.6 10.75 L4.15 11.5" fill="#331d16" fill-rule="evenodd" stroke="none"/>
      <path d="M39.0 5.85 L39.35 5.75 Q39.9 5.75 40.25 6.6 L40.5 8.7 40.25 10.75 Q39.9 11.65 39.35 11.65 L39.0 11.5 38.55 10.75 Q38.2 9.9 38.2 8.7 38.2 7.45 38.55 6.6 L39.0 5.85 M4.15 5.85 L3.8 5.75 Q3.3 5.75 2.95 6.6 2.65 7.45 2.65 8.7 2.65 9.9 2.95 10.75 3.3 11.65 3.8 11.65 L4.15 11.5 4.6 10.75 Q4.95 9.9 4.95 8.7 4.95 7.45 4.6 6.6 4.45 6.0 4.15 5.85" fill="none" stroke="#6a402d" stroke-linecap="round" stroke-linejoin="round" stroke-width="0.05"/>
      <path d="M31.5 44.35 L11.7 44.35 Q12.45 44.0 14.05 43.6 L21.6 43.05 29.1 43.6 31.5 44.35" fill="#6c432e" fill-rule="evenodd" stroke="none"/>
    </g>
    <linearGradient gradientTransform="matrix(0.0, -0.0275, -0.044, 0.0, 20.45, 22.6)" gradientUnits="userSpaceOnUse" id="gradient4" spreadMethod="pad" x1="-819.2" x2="819.2">
      <stop offset="0.0196078431372549" stop-color="#905a3d"/>
      <stop offset="0.9764705882352941" stop-color="#6a412d"/>
    </linearGradient>
    <linearGradient gradientTransform="matrix(0.0, -0.0275, -0.044, 0.0, 20.45, 22.6)" gradientUnits="userSpaceOnUse" id="gradient5" spreadMethod="pad" x1="-819.2" x2="819.2">
      <stop offset="0.0196078431372549" stop-color="#905a3d"/>
      <stop offset="0.9764705882352941" stop-color="#6a412d"/>
    </linearGradient>
  </defs>
</svg>
