<?xml version="1.0" encoding="UTF-8" standalone="no"?>
<svg xmlns:xlink="http://www.w3.org/1999/xlink" height="66.0px" width="66.0px" xmlns="http://www.w3.org/2000/svg">
  <g transform="matrix(1.5, 0.0, 0.0, 1.5, 0.6, -0.6)">
    <use height="40.3" transform="matrix(1.0, 0.0, 0.0, 1.0, 2.1, 2.6)" width="40.35" xlink:href="#shape0"/>
    <use height="0.0" transform="matrix(1.2125, 0.0, 0.0, 1.2125, 1.1, 0.9)" width="0.0" xlink:href="#sprite0"/>
    <use height="44.0" transform="matrix(1.0, 0.0, 0.0, 1.0, -0.4, 0.4)" width="44.0" xlink:href="#shape1"/>
    <use height="8.6" transform="matrix(1.2077, 0.0, 0.0, 1.2093, 0.1085, 1.15)" width="35.05" xlink:href="#sprite1"/>
    <use height="20.15" transform="matrix(1.1548, 0.0, 0.0, 1.1564, 5.9, 6.05)" width="28.2" xlink:href="#sprite2"/>
    <use height="39.85" transform="matrix(1.0, 0.0, 0.0, 1.0, 1.35, 4.5)" width="40.55" xlink:href="#shape4"/>
  </g>
  <defs>
    <g id="shape0" transform="matrix(1.0, 0.0, 0.0, 1.0, -2.1, -2.6)">
      <path d="M42.45 22.75 Q42.45 31.15 36.5 37.0 30.6 42.9 22.25 42.9 13.9 42.9 8.05 37.0 2.1 31.15 2.1 22.75 2.1 14.4 8.05 8.5 13.9 2.6 22.25 2.6 30.6 2.6 36.5 8.5 42.45 14.4 42.45 22.75" fill="url(#gradient0)" fill-rule="evenodd" stroke="none"/>
      <path d="M11.95 15.0 L13.4 16.8 Q13.95 14.25 15.25 12.9 16.75 11.2 19.0 10.5 L23.45 10.2 Q25.0 10.55 26.4 11.35 27.95 12.3 28.7 15.2 L30.7 12.5 Q31.05 17.75 29.65 20.45 28.2 23.15 27.15 23.8 L25.6 25.3 26.9 27.85 25.25 29.5 24.4 28.8 24.4 29.8 23.35 30.75 22.25 30.75 21.05 27.85 19.6 30.95 18.45 30.95 16.15 27.85 16.9 25.85 15.1 24.05 Q13.55 22.65 12.55 20.6 11.55 18.55 11.95 15.0 M15.05 17.45 L16.6 20.0 15.8 16.8 18.7 16.8 20.95 19.0 23.05 16.25 27.05 15.0 27.05 17.75 28.0 15.75 28.15 15.65 Q27.45 12.85 26.05 12.0 24.75 11.15 23.35 10.85 L19.2 11.15 Q17.15 11.85 15.7 13.5 14.5 14.75 14.05 17.0 L15.05 17.45 M21.4 12.7 L21.45 15.75 25.35 14.25 21.4 12.7 M21.35 16.0 L21.3 16.0 21.25 15.9 21.25 15.85 21.2 12.6 21.2 12.55 21.2 12.5 21.25 12.5 21.3 12.5 21.35 12.5 21.4 12.55 25.65 14.15 25.7 14.15 25.8 14.2 25.8 14.25 25.7 14.35 21.35 16.0 M24.05 23.2 L23.8 23.25 23.85 23.4 23.7 24.25 23.45 24.4 23.35 24.5 23.2 24.55 23.15 24.6 23.0 24.7 Q22.75 24.75 22.5 24.45 L22.25 24.15 22.2 23.75 22.2 23.5 21.7 23.6 Q21.65 25.05 22.9 25.05 24.4 24.8 24.05 23.2 M17.7 23.2 Q17.35 24.8 18.85 25.05 20.1 25.05 20.05 23.6 L19.6 23.5 19.6 23.75 19.5 24.15 19.25 24.45 Q19.0 24.75 18.75 24.7 L18.65 24.6 18.45 24.5 18.3 24.4 18.1 24.25 17.9 23.4 17.95 23.25 17.7 23.2 M20.0 15.9 L19.8 12.9 16.45 14.25 20.0 15.9 M19.95 12.75 L20.2 16.0 20.2 16.05 20.15 16.15 20.05 16.15 16.1 14.35 16.05 14.25 16.05 14.2 16.1 14.15 16.15 14.15 19.8 12.65 19.9 12.65 19.95 12.65 19.95 12.75" fill="#92300b" fill-rule="evenodd" stroke="none"/>
      <path d="M26.25 25.3 L31.05 23.95 32.4 24.9 27.65 27.1 Q26.9 27.15 26.25 25.3" fill="#92300b" fill-rule="evenodd" stroke="none"/>
      <path d="M32.55 25.05 Q31.45 28.2 29.55 31.35 L28.9 31.8 Q30.5 28.65 31.05 25.05 L32.55 25.05" fill="#92300b" fill-rule="evenodd" stroke="none"/>
      <path d="M32.65 24.65 L32.3 25.4 31.5 25.75 Q31.05 25.75 30.7 25.4 30.35 25.1 30.35 24.65 30.35 24.15 30.7 23.8 31.05 23.5 31.5 23.5 32.0 23.5 32.3 23.8 32.65 24.15 32.65 24.65" fill="#92300b" fill-rule="evenodd" stroke="none"/>
      <path d="M16.45 25.85 Q16.2 27.1 15.05 27.05 L10.3 25.45 11.65 24.5 16.45 25.85" fill="#92300b" fill-rule="evenodd" stroke="none"/>
      <path d="M9.95 25.6 Q11.05 28.75 12.95 31.9 L13.6 32.35 Q12.0 29.2 11.45 25.6 L9.95 25.6" fill="#92300b" fill-rule="evenodd" stroke="none"/>
      <path d="M9.85 25.3 Q9.85 25.75 10.2 26.05 10.5 26.4 11.0 26.4 11.45 26.4 11.8 26.05 L12.15 25.3 Q12.15 24.8 11.8 24.45 L11.0 24.15 Q10.5 24.15 10.2 24.45 9.85 24.8 9.85 25.3" fill="#92300b" fill-rule="evenodd" stroke="none"/>
      <path d="M26.1 29.05 L28.6 33.35 28.05 34.9 24.75 30.15 26.1 29.05" fill="#92300b" fill-rule="evenodd" stroke="none"/>
      <path d="M28.0 35.05 L21.15 33.85 20.5 33.3 27.6 33.6 28.0 35.05" fill="#92300b" fill-rule="evenodd" stroke="none"/>
      <path d="M28.35 35.0 L27.5 34.85 26.95 34.2 Q26.85 33.75 27.1 33.3 L27.75 32.8 28.65 32.9 29.15 33.6 Q29.3 34.05 29.05 34.45 L28.35 35.0" fill="#92300b" fill-rule="evenodd" stroke="none"/>
      <path d="M16.8 28.4 L14.25 30.9 14.4 32.05 17.5 29.4 16.8 28.4" fill="#92300b" fill-rule="evenodd" stroke="none"/>
      <path d="M14.4 32.2 L19.35 32.6 19.9 32.35 Q17.35 32.2 14.9 31.25 L14.4 32.2" fill="#92300b" fill-rule="evenodd" stroke="none"/>
      <path d="M14.15 32.0 L14.7 32.1 15.25 31.75 15.3 31.05 14.95 30.6 14.3 30.45 13.8 30.9 13.7 31.5 14.15 32.0" fill="#92300b" fill-rule="evenodd" stroke="none"/>
    </g>
    <linearGradient gradientTransform="matrix(0.0, -0.0188, -0.0188, 0.0, 22.2, 18.85)" gradientUnits="userSpaceOnUse" id="gradient0" spreadMethod="pad" x1="-819.2" x2="819.2">
      <stop offset="0.011764705882352941" stop-color="#f9cfb3"/>
      <stop offset="1.0" stop-color="#ff5b79"/>
    </linearGradient>
    <g id="shape1" transform="matrix(1.0, 0.0, 0.0, 1.0, 0.4, -0.4)">
      <path d="M33.8 10.2 Q28.75 5.1 21.6 5.1 14.4 5.1 9.35 10.2 4.25 15.2 4.25 22.45 4.25 29.6 9.35 34.7 14.4 39.8 21.6 39.8 28.8 39.8 33.8 34.7 38.85 29.6 38.85 22.45 38.85 15.2 33.8 10.2 M1.75 2.65 Q4.05 0.4 7.15 0.4 L35.95 0.4 Q39.15 0.4 41.35 2.65 43.6 4.95 43.6 8.05 L43.6 36.85 Q43.6 39.95 41.35 42.2 39.15 44.4 35.95 44.4 L7.15 44.4 Q4.05 44.4 1.75 42.2 -0.4 39.95 -0.4 36.85 L-0.4 8.05 Q-0.4 4.95 1.75 2.65" fill="url(#gradient1)" fill-rule="evenodd" stroke="none"/>
      <path d="M21.5 5.95 Q14.6 6.0 9.8 10.9 4.9 15.75 4.9 22.6 4.9 29.55 9.8 34.45 14.6 39.25 21.5 39.25 28.35 39.25 33.25 34.45 38.15 29.55 38.15 22.6 38.15 15.75 33.25 10.9 28.4 6.0 21.5 5.95 M8.0 9.2 Q13.6 3.6 21.5 3.6 29.35 3.6 34.9 9.2 40.5 14.75 40.5 22.6 40.5 30.55 34.9 36.1 29.35 41.65 21.5 41.65 13.6 41.65 8.0 36.1 2.45 30.55 2.45 22.6 2.45 14.75 8.0 9.2" fill="url(#gradient2)" fill-rule="evenodd" stroke="none"/>
    </g>
    <linearGradient gradientTransform="matrix(0.0, -0.0275, -0.044, 0.0, 20.45, 22.6)" gradientUnits="userSpaceOnUse" id="gradient1" spreadMethod="pad" x1="-819.2" x2="819.2">
      <stop offset="0.0196078431372549" stop-color="#905a3d"/>
      <stop offset="0.9764705882352941" stop-color="#6a412d"/>
    </linearGradient>
    <linearGradient gradientTransform="matrix(0.0, -0.0168, -0.0168, 0.0, 21.5, 27.2)" gradientUnits="userSpaceOnUse" id="gradient2" spreadMethod="pad" x1="-819.2" x2="819.2">
      <stop offset="0.0196078431372549" stop-color="#a3704d"/>
      <stop offset="0.9803921568627451" stop-color="#492d20"/>
    </linearGradient>
    <g id="sprite1" transform="matrix(1.0, 0.0, 0.0, 1.0, 0.2, 0.0)">
      <use height="8.6" transform="matrix(1.0, 0.0, 0.0, 1.0, -0.2, 0.0)" width="35.05" xlink:href="#shape2"/>
    </g>
    <g id="shape2" transform="matrix(1.0, 0.0, 0.0, 1.0, 0.2, 0.0)">
      <path d="M34.4 4.4 Q34.85 5.8 34.85 7.65 L34.85 8.6 Q34.8 6.95 34.4 5.7 33.0 1.3 27.2 1.3 L7.45 1.3 Q0.05 1.3 -0.2 8.5 L-0.2 7.65 Q-0.2 0.0 7.45 0.0 L27.2 0.0 Q33.0 0.0 34.4 4.4" fill="#e7deda" fill-rule="evenodd" stroke="none"/>
    </g>
    <g id="sprite2" transform="matrix(1.0, 0.0, 0.0, 1.0, 0.0, 0.0)">
      <use height="20.15" transform="matrix(1.0, 0.0, 0.0, 1.0, 0.0, 0.0)" width="28.2" xlink:href="#shape3"/>
    </g>
    <g id="shape3" transform="matrix(1.0, 0.0, 0.0, 1.0, 0.0, 0.0)">
      <path d="M27.65 18.45 L27.4 18.95 Q26.2 20.8 23.4 19.8 19.6 18.5 17.35 14.05 14.8 9.1 9.75 7.4 4.1 5.65 0.0 10.3 1.0 6.85 3.7 4.15 7.2 0.65 11.9 0.05 L14.8 0.05 18.4 0.65 Q21.55 1.65 24.05 4.15 28.2 8.3 28.2 14.25 28.2 16.45 27.65 18.45" fill="#ffffff" fill-opacity="0.19607843" fill-rule="evenodd" stroke="none"/>
    </g>
    <g id="shape4" transform="matrix(1.0, 0.0, 0.0, 1.0, -1.35, -4.5)">
      <path d="M15.85 40.9 Q12.4 39.9 9.15 38.25 10.45 35.0 12.8 34.45 13.55 38.1 15.85 40.9 M29.85 34.45 Q32.2 35.0 33.45 38.3 30.3 40.0 26.95 40.9 28.55 38.85 29.35 36.25 L29.85 34.45" fill="url(#gradient3)" fill-rule="evenodd" stroke="none"/>
      <path d="M12.8 34.45 Q14.3 37.5 17.5 38.9 L15.85 40.9 Q13.55 38.1 12.8 34.45 M26.95 40.9 L25.15 38.9 Q28.35 37.5 29.85 34.45 L29.35 36.25 Q28.55 38.85 26.95 40.9" fill="#6d4a34" fill-rule="evenodd" stroke="none"/>
      <path d="M31.8 14.6 Q31.3 10.2 28.7 7.45 L30.4 5.7 30.65 6.2 31.1 7.85 Q31.85 11.35 31.8 14.6 M11.35 14.6 Q11.2 10.3 12.75 5.7 L14.5 7.45 Q11.9 10.2 11.35 14.6" fill="#492d20" fill-rule="evenodd" stroke="none"/>
      <path d="M30.65 6.2 L30.05 4.5 Q33.45 6.25 36.35 9.2 L36.4 9.3 Q35.6 13.35 31.8 14.6 31.85 11.35 31.1 7.85 L30.65 6.2 M11.35 14.6 Q7.55 13.35 6.75 9.4 L6.95 9.2 Q9.75 6.3 13.05 4.7 L12.75 5.7 Q11.2 10.3 11.35 14.6" fill="url(#gradient4)" fill-rule="evenodd" stroke="none"/>
      <path d="M41.8 33.9 L41.8 36.6 Q41.8 37.6 41.2 38.25 40.7 38.85 39.85 38.85 39.0 38.85 38.4 38.25 37.8 37.6 37.8 36.6 L37.8 35.35 M1.45 33.9 L1.45 36.6 Q1.45 37.6 2.0 38.25 2.5 38.85 3.4 38.85 4.2 38.85 4.85 38.25 5.4 37.6 5.4 36.6 L5.4 35.35" fill="none" stroke="#6a402d" stroke-linecap="round" stroke-linejoin="round" stroke-width="0.25"/>
      <path d="M39.0 5.85 L39.35 5.75 Q39.9 5.75 40.25 6.6 L40.5 8.7 40.25 10.75 Q39.9 11.65 39.35 11.65 L39.0 11.5 39.55 10.75 39.85 8.7 39.55 6.6 39.0 5.85 M4.15 11.5 L3.8 11.65 Q3.3 11.65 2.95 10.75 2.65 9.9 2.65 8.7 2.65 7.45 2.95 6.6 3.3 5.75 3.8 5.75 L4.15 5.85 3.6 6.6 Q3.35 7.45 3.35 8.7 3.35 9.9 3.6 10.75 L4.15 11.5" fill="#1a0d09" fill-rule="evenodd" stroke="none"/>
      <path d="M39.0 11.5 L38.55 10.75 Q38.2 9.9 38.2 8.7 38.2 7.45 38.55 6.6 L39.0 5.85 39.55 6.6 39.85 8.7 39.55 10.75 39.0 11.5 M4.15 11.5 L3.6 10.75 Q3.35 9.9 3.35 8.7 3.35 7.45 3.6 6.6 L4.15 5.85 Q4.45 6.0 4.6 6.6 4.95 7.45 4.95 8.7 4.95 9.9 4.6 10.75 L4.15 11.5" fill="#331d16" fill-rule="evenodd" stroke="none"/>
      <path d="M39.0 5.85 L39.35 5.75 Q39.9 5.75 40.25 6.6 L40.5 8.7 40.25 10.75 Q39.9 11.65 39.35 11.65 L39.0 11.5 38.55 10.75 Q38.2 9.9 38.2 8.7 38.2 7.45 38.55 6.6 L39.0 5.85 M4.15 5.85 L3.8 5.75 Q3.3 5.75 2.95 6.6 2.65 7.45 2.65 8.7 2.65 9.9 2.95 10.75 3.3 11.65 3.8 11.65 L4.15 11.5 4.6 10.75 Q4.95 9.9 4.95 8.7 4.95 7.45 4.6 6.6 4.45 6.0 4.15 5.85" fill="none" stroke="#6a402d" stroke-linecap="round" stroke-linejoin="round" stroke-width="0.05"/>
      <path d="M31.5 44.35 L11.7 44.35 Q12.45 44.0 14.05 43.6 L21.6 43.05 29.1 43.6 31.5 44.35" fill="#6c432e" fill-rule="evenodd" stroke="none"/>
    </g>
    <linearGradient gradientTransform="matrix(0.0, -0.0275, -0.044, 0.0, 20.45, 22.6)" gradientUnits="userSpaceOnUse" id="gradient3" spreadMethod="pad" x1="-819.2" x2="819.2">
      <stop offset="0.0196078431372549" stop-color="#905a3d"/>
      <stop offset="0.9764705882352941" stop-color="#6a412d"/>
    </linearGradient>
    <linearGradient gradientTransform="matrix(0.0, -0.0275, -0.044, 0.0, 20.45, 22.6)" gradientUnits="userSpaceOnUse" id="gradient4" spreadMethod="pad" x1="-819.2" x2="819.2">
      <stop offset="0.0196078431372549" stop-color="#905a3d"/>
      <stop offset="0.9764705882352941" stop-color="#6a412d"/>
    </linearGradient>
  </defs>
</svg>
