<?xml version="1.0" encoding="UTF-8" standalone="no"?>
<svg xmlns:xlink="http://www.w3.org/1999/xlink" height="66.0px" width="66.0px" xmlns="http://www.w3.org/2000/svg">
  <g transform="matrix(1.5, 0.0, 0.0, 1.5, 0.6, -0.6)">
    <use height="37.8" transform="matrix(1.0, 0.0, 0.0, 1.0, 3.4, 3.5)" width="37.2" xlink:href="#shape0"/>
    <use height="0.0" transform="matrix(1.2125, 0.0, 0.0, 1.2125, 1.1, 0.9)" width="0.0" xlink:href="#sprite0"/>
    <use height="44.0" transform="matrix(1.0, 0.0, 0.0, 1.0, -0.4, 0.4)" width="44.0" xlink:href="#shape1"/>
    <use height="8.6" transform="matrix(1.2077, 0.0, 0.0, 1.2093, 0.1085, 1.15)" width="35.05" xlink:href="#sprite1"/>
    <use height="20.15" transform="matrix(1.1548, 0.0, 0.0, 1.1564, 5.9, 6.05)" width="28.2" xlink:href="#sprite2"/>
    <use height="39.85" transform="matrix(1.0, 0.0, 0.0, 1.0, 1.35, 4.5)" width="40.55" xlink:href="#shape4"/>
  </g>
  <defs>
    <g id="shape0" transform="matrix(1.0, 0.0, 0.0, 1.0, -3.4, -3.5)">
      <path d="M8.85 8.95 Q14.3 3.5 22.05 3.5 29.75 3.5 35.2 8.95 40.6 14.4 40.6 22.05 40.6 29.8 35.2 35.25 29.75 40.65 22.05 40.65 14.3 40.65 8.85 35.25 3.4 29.8 3.4 22.05 3.4 14.35 8.85 8.95" fill="url(#gradient0)" fill-rule="evenodd" stroke="none"/>
      <path d="M34.85 24.35 Q33.55 26.6 29.6 24.75 34.3 27.95 30.4 29.7 26.45 31.4 26.15 27.05 25.4 25.4 24.55 26.55 27.9 30.95 25.65 33.8 23.05 37.05 24.15 36.4 L28.2 32.0 Q28.7 33.85 27.95 35.85 29.85 32.25 33.25 30.3 32.95 35.65 28.4 39.7 L26.6 40.95 23.3 41.3 20.4 41.05 Q19.3 40.8 17.85 40.0 L15.45 38.6 14.7 38.05 12.9 33.5 Q14.55 34.3 15.05 35.2 14.8 34.15 14.85 33.3 L15.0 31.15 Q18.6 34.6 19.05 35.8 19.05 34.1 21.05 33.1 23.05 32.05 23.25 30.15 23.4 28.6 21.85 28.3 L21.35 28.3 21.3 28.3 21.0 28.3 Q19.5 28.3 19.15 27.0 L15.6 28.9 Q13.85 29.5 10.7 28.3 12.6 27.45 13.35 25.6 9.8 25.9 7.3 22.2 9.0 19.65 12.05 20.25 9.5 19.55 8.7 16.9 13.75 14.5 15.35 15.25 L12.25 12.65 Q18.85 9.0 23.0 14.3 22.55 15.7 23.45 17.25 24.3 18.75 25.6 18.4 L28.05 18.35 29.55 18.45 29.55 19.65 Q32.55 19.1 34.0 20.4 36.05 22.25 34.85 24.35 M24.5 22.55 Q26.15 22.6 27.9 23.15 L27.85 21.15 Q27.75 19.65 26.15 19.95 L25.0 19.5 Q23.9 19.0 24.45 21.0 23.5 22.4 24.5 22.55 M15.15 21.15 Q15.3 22.2 16.05 23.2 17.2 24.6 18.6 24.75 20.7 25.05 22.25 22.95 23.1 21.95 23.15 20.8 23.3 19.65 22.6 18.45 22.05 17.25 21.25 16.85 L19.35 16.55 Q18.25 16.6 17.35 17.2 16.45 17.8 15.75 18.85 15.0 20.0 15.15 21.15" fill="#496125" fill-rule="evenodd" stroke="none"/>
      <path d="M16.9 20.9 L16.5 20.65 16.4 20.3 16.4 19.95 16.95 19.05 Q17.15 18.85 17.5 18.75 L17.9 18.85 18.15 19.3 18.05 19.7 17.75 20.25 17.4 20.6 16.9 20.9 M17.4 19.95 L17.5 19.95 17.5 19.9 17.55 19.85 17.55 19.75 17.55 19.55 17.5 19.5 17.5 19.45 17.4 19.4 17.15 19.45 17.15 19.55 17.0 19.6 17.0 19.7 16.95 19.7 16.95 20.05 17.0 20.05 17.05 20.1 17.15 20.15 17.2 20.2 17.3 20.1 17.4 20.1 17.4 19.95" fill="#496125" fill-rule="evenodd" stroke="none"/>
      <path d="M27.85 14.1 L28.1 14.5 28.0 14.9 27.7 15.2 27.6 15.25 27.45 15.25 27.1 15.1 27.0 14.9 26.95 14.65 26.95 14.4 27.05 14.05 27.3 13.95 27.35 13.9 27.7 13.95 27.85 14.1 M27.6 14.75 L27.65 14.7 27.65 14.65 27.7 14.65 27.75 14.5 27.65 14.45 27.6 14.4 27.5 14.35 27.4 14.4 27.35 14.5 27.35 14.6 27.4 14.65 27.4 14.7 27.55 14.85 27.6 14.8 27.6 14.75" fill="#496125" fill-rule="evenodd" stroke="none"/>
      <path d="M23.45 12.9 Q24.4 11.8 25.65 11.35 L28.3 11.45 Q30.35 12.45 30.55 15.8 30.65 17.35 30.1 18.35 L28.75 19.8 Q28.25 20.2 27.9 20.05 29.4 19.1 30.0 17.35 30.55 15.55 29.9 13.9 29.1 11.85 27.25 11.6 26.0 11.45 24.75 12.35 L22.9 14.3 Q22.75 13.75 23.45 12.9" fill="#496125" fill-rule="evenodd" stroke="none"/>
      <path d="M22.8 15.05 Q22.7 15.5 22.25 15.4 21.8 15.3 22.05 13.4 22.15 12.5 19.25 10.75 22.25 11.25 22.9 11.75 L23.4 11.85 25.25 11.1 Q26.65 10.45 28.5 11.4 30.3 12.35 30.8 13.4 31.3 14.4 31.0 16.05 30.7 17.7 29.25 19.2 20.8 19.15 25.05 17.05 29.25 14.95 29.45 13.7 29.65 12.45 28.3 11.9 L25.95 11.7 Q25.0 12.0 24.05 12.9 23.05 13.8 22.8 15.05" fill="#496125" fill-rule="evenodd" stroke="none"/>
      <path d="M29.55 18.45 L29.8 18.1 30.05 17.95 29.55 18.45" fill="#496125" fill-rule="evenodd" stroke="none"/>
      <path d="M25.0 21.1 L24.95 21.0 24.95 20.85 25.05 20.7 25.25 20.7 25.65 20.9 25.75 21.0 25.8 21.2 25.75 21.4 25.55 21.5 25.5 21.5 25.35 21.45 25.3 21.4 25.1 21.3 25.0 21.2 25.0 21.1" fill="#496125" fill-rule="evenodd" stroke="none"/>
    </g>
    <linearGradient gradientTransform="matrix(0.0, -0.0173, -0.0173, 0.0, 22.05, 18.55)" gradientUnits="userSpaceOnUse" id="gradient0" spreadMethod="pad" x1="-819.2" x2="819.2">
      <stop offset="0.011764705882352941" stop-color="#d3d4b5"/>
      <stop offset="1.0" stop-color="#71a26f"/>
    </linearGradient>
    <g id="shape1" transform="matrix(1.0, 0.0, 0.0, 1.0, 0.4, -0.4)">
      <path d="M33.8 10.2 Q28.75 5.1 21.6 5.1 14.4 5.1 9.35 10.2 4.25 15.2 4.25 22.45 4.25 29.6 9.35 34.7 14.4 39.8 21.6 39.8 28.8 39.8 33.8 34.7 38.85 29.6 38.85 22.45 38.85 15.2 33.8 10.2 M1.75 2.65 Q4.05 0.4 7.15 0.4 L35.95 0.4 Q39.15 0.4 41.35 2.65 43.6 4.95 43.6 8.05 L43.6 36.85 Q43.6 39.95 41.35 42.2 39.15 44.4 35.95 44.4 L7.15 44.4 Q4.05 44.4 1.75 42.2 -0.4 39.95 -0.4 36.85 L-0.4 8.05 Q-0.4 4.95 1.75 2.65" fill="url(#gradient1)" fill-rule="evenodd" stroke="none"/>
      <path d="M21.5 5.95 Q14.6 6.0 9.8 10.9 4.9 15.75 4.9 22.6 4.9 29.55 9.8 34.45 14.6 39.25 21.5 39.25 28.35 39.25 33.25 34.45 38.15 29.55 38.15 22.6 38.15 15.75 33.25 10.9 28.4 6.0 21.5 5.95 M8.0 9.2 Q13.6 3.6 21.5 3.6 29.35 3.6 34.9 9.2 40.5 14.75 40.5 22.6 40.5 30.55 34.9 36.1 29.35 41.65 21.5 41.65 13.6 41.65 8.0 36.1 2.45 30.55 2.45 22.6 2.45 14.75 8.0 9.2" fill="url(#gradient2)" fill-rule="evenodd" stroke="none"/>
    </g>
    <linearGradient gradientTransform="matrix(0.0, -0.0275, -0.044, 0.0, 20.45, 22.6)" gradientUnits="userSpaceOnUse" id="gradient1" spreadMethod="pad" x1="-819.2" x2="819.2">
      <stop offset="0.0196078431372549" stop-color="#905a3d"/>
      <stop offset="0.9764705882352941" stop-color="#6a412d"/>
    </linearGradient>
    <linearGradient gradientTransform="matrix(0.0, -0.0168, -0.0168, 0.0, 21.5, 27.2)" gradientUnits="userSpaceOnUse" id="gradient2" spreadMethod="pad" x1="-819.2" x2="819.2">
      <stop offset="0.0196078431372549" stop-color="#a3704d"/>
      <stop offset="0.9803921568627451" stop-color="#492d20"/>
    </linearGradient>
    <g id="sprite1" transform="matrix(1.0, 0.0, 0.0, 1.0, 0.2, 0.0)">
      <use height="8.6" transform="matrix(1.0, 0.0, 0.0, 1.0, -0.2, 0.0)" width="35.05" xlink:href="#shape2"/>
    </g>
    <g id="shape2" transform="matrix(1.0, 0.0, 0.0, 1.0, 0.2, 0.0)">
      <path d="M34.4 4.4 Q34.85 5.8 34.85 7.65 L34.85 8.6 Q34.8 6.95 34.4 5.7 33.0 1.3 27.2 1.3 L7.45 1.3 Q0.05 1.3 -0.2 8.5 L-0.2 7.65 Q-0.2 0.0 7.45 0.0 L27.2 0.0 Q33.0 0.0 34.4 4.4" fill="#e7deda" fill-rule="evenodd" stroke="none"/>
    </g>
    <g id="sprite2" transform="matrix(1.0, 0.0, 0.0, 1.0, 0.0, 0.0)">
      <use height="20.15" transform="matrix(1.0, 0.0, 0.0, 1.0, 0.0, 0.0)" width="28.2" xlink:href="#shape3"/>
    </g>
    <g id="shape3" transform="matrix(1.0, 0.0, 0.0, 1.0, 0.0, 0.0)">
      <path d="M27.65 18.45 L27.4 18.95 Q26.2 20.8 23.4 19.8 19.6 18.5 17.35 14.05 14.8 9.1 9.75 7.4 4.1 5.65 0.0 10.3 1.0 6.85 3.7 4.15 7.2 0.65 11.9 0.05 L14.8 0.05 18.4 0.65 Q21.55 1.65 24.05 4.15 28.2 8.3 28.2 14.25 28.2 16.45 27.65 18.45" fill="#ffffff" fill-opacity="0.19607843" fill-rule="evenodd" stroke="none"/>
    </g>
    <g id="shape4" transform="matrix(1.0, 0.0, 0.0, 1.0, -1.35, -4.5)">
      <path d="M15.85 40.9 Q12.4 39.9 9.15 38.25 10.45 35.0 12.8 34.45 13.55 38.1 15.85 40.9 M29.85 34.45 Q32.2 35.0 33.45 38.3 30.3 40.0 26.95 40.9 28.55 38.85 29.35 36.25 L29.85 34.45" fill="url(#gradient3)" fill-rule="evenodd" stroke="none"/>
      <path d="M12.8 34.45 Q14.3 37.5 17.5 38.9 L15.85 40.9 Q13.55 38.1 12.8 34.45 M26.95 40.9 L25.15 38.9 Q28.35 37.5 29.85 34.45 L29.35 36.25 Q28.55 38.85 26.95 40.9" fill="#6d4a34" fill-rule="evenodd" stroke="none"/>
      <path d="M31.8 14.6 Q31.3 10.2 28.7 7.45 L30.4 5.7 30.65 6.2 31.1 7.85 Q31.85 11.35 31.8 14.6 M11.35 14.6 Q11.2 10.3 12.75 5.7 L14.5 7.45 Q11.9 10.2 11.35 14.6" fill="#492d20" fill-rule="evenodd" stroke="none"/>
      <path d="M30.65 6.2 L30.05 4.5 Q33.45 6.25 36.35 9.2 L36.4 9.3 Q35.6 13.35 31.8 14.6 31.85 11.35 31.1 7.85 L30.65 6.2 M11.35 14.6 Q7.55 13.35 6.75 9.4 L6.95 9.2 Q9.75 6.3 13.05 4.7 L12.75 5.7 Q11.2 10.3 11.35 14.6" fill="url(#gradient4)" fill-rule="evenodd" stroke="none"/>
      <path d="M41.8 33.9 L41.8 36.6 Q41.8 37.6 41.2 38.25 40.7 38.85 39.85 38.85 39.0 38.85 38.4 38.25 37.8 37.6 37.8 36.6 L37.8 35.35 M1.45 33.9 L1.45 36.6 Q1.45 37.6 2.0 38.25 2.5 38.85 3.4 38.85 4.2 38.85 4.85 38.25 5.4 37.6 5.4 36.6 L5.4 35.35" fill="none" stroke="#6a402d" stroke-linecap="round" stroke-linejoin="round" stroke-width="0.25"/>
      <path d="M39.0 5.85 L39.35 5.75 Q39.9 5.75 40.25 6.6 L40.5 8.7 40.25 10.75 Q39.9 11.65 39.35 11.65 L39.0 11.5 39.55 10.75 39.85 8.7 39.55 6.6 39.0 5.85 M4.15 11.5 L3.8 11.65 Q3.3 11.65 2.95 10.75 2.65 9.9 2.65 8.7 2.65 7.45 2.95 6.6 3.3 5.75 3.8 5.75 L4.15 5.85 3.6 6.6 Q3.35 7.45 3.35 8.7 3.35 9.9 3.6 10.75 L4.15 11.5" fill="#1a0d09" fill-rule="evenodd" stroke="none"/>
      <path d="M39.0 11.5 L38.55 10.75 Q38.2 9.9 38.2 8.7 38.2 7.45 38.55 6.6 L39.0 5.85 39.55 6.6 39.85 8.7 39.55 10.75 39.0 11.5 M4.15 11.5 L3.6 10.75 Q3.35 9.9 3.35 8.7 3.35 7.45 3.6 6.6 L4.15 5.85 Q4.45 6.0 4.6 6.6 4.95 7.45 4.95 8.7 4.95 9.9 4.6 10.75 L4.15 11.5" fill="#331d16" fill-rule="evenodd" stroke="none"/>
      <path d="M39.0 5.85 L39.35 5.75 Q39.9 5.75 40.25 6.6 L40.5 8.7 40.25 10.75 Q39.9 11.65 39.35 11.65 L39.0 11.5 38.55 10.75 Q38.2 9.9 38.2 8.7 38.2 7.45 38.55 6.6 L39.0 5.85 M4.15 5.85 L3.8 5.75 Q3.3 5.75 2.95 6.6 2.65 7.45 2.65 8.7 2.65 9.9 2.95 10.75 3.3 11.65 3.8 11.65 L4.15 11.5 4.6 10.75 Q4.95 9.9 4.95 8.7 4.95 7.45 4.6 6.6 4.45 6.0 4.15 5.85" fill="none" stroke="#6a402d" stroke-linecap="round" stroke-linejoin="round" stroke-width="0.05"/>
      <path d="M31.5 44.35 L11.7 44.35 Q12.45 44.0 14.05 43.6 L21.6 43.05 29.1 43.6 31.5 44.35" fill="#6c432e" fill-rule="evenodd" stroke="none"/>
    </g>
    <linearGradient gradientTransform="matrix(0.0, -0.0275, -0.044, 0.0, 20.45, 22.6)" gradientUnits="userSpaceOnUse" id="gradient3" spreadMethod="pad" x1="-819.2" x2="819.2">
      <stop offset="0.0196078431372549" stop-color="#905a3d"/>
      <stop offset="0.9764705882352941" stop-color="#6a412d"/>
    </linearGradient>
    <linearGradient gradientTransform="matrix(0.0, -0.0275, -0.044, 0.0, 20.45, 22.6)" gradientUnits="userSpaceOnUse" id="gradient4" spreadMethod="pad" x1="-819.2" x2="819.2">
      <stop offset="0.0196078431372549" stop-color="#905a3d"/>
      <stop offset="0.9764705882352941" stop-color="#6a412d"/>
    </linearGradient>
  </defs>
</svg>
