<?xml version="1.0" encoding="UTF-8" standalone="no"?>
<svg xmlns:xlink="http://www.w3.org/1999/xlink" height="66.0px" width="66.0px" xmlns="http://www.w3.org/2000/svg">
  <g transform="matrix(1.5, 0.0, 0.0, 1.5, 0.6, -0.6)">
    <use height="35.75" transform="matrix(1.0, 0.0, 0.0, 1.0, 3.9, 4.25)" width="35.65" xlink:href="#shape0"/>
    <use height="0.0" transform="matrix(1.2125, 0.0, 0.0, 1.2125, 1.1, 0.9)" width="0.0" xlink:href="#sprite0"/>
    <use height="44.0" transform="matrix(1.0, 0.0, 0.0, 1.0, -0.4, 0.4)" width="44.0" xlink:href="#shape1"/>
    <use height="8.6" transform="matrix(1.2077, 0.0, 0.0, 1.2093, 0.1085, 1.15)" width="35.05" xlink:href="#sprite1"/>
    <use height="20.15" transform="matrix(1.1548, 0.0, 0.0, 1.1564, 5.9, 6.05)" width="28.2" xlink:href="#sprite2"/>
    <use height="39.85" transform="matrix(1.0, 0.0, 0.0, 1.0, 1.35, 4.5)" width="40.55" xlink:href="#shape4"/>
  </g>
  <defs>
    <g id="shape0" transform="matrix(1.0, 0.0, 0.0, 1.0, -3.9, -4.25)">
      <path d="M34.35 9.5 Q39.55 14.75 39.55 22.1 39.55 29.5 34.35 34.8 29.15 40.0 21.75 40.0 14.3 40.0 9.1 34.8 3.9 29.5 3.9 22.1 3.9 14.75 9.1 9.5 14.4 4.25 21.75 4.25 29.15 4.25 34.35 9.5" fill="url(#gradient0)" fill-rule="evenodd" stroke="none"/>
      <path d="M12.45 12.8 Q14.4 13.0 16.0 14.8 L16.0 13.3 17.75 14.45 Q17.45 12.7 18.3 11.05 19.35 9.35 19.05 7.75 22.25 8.05 25.8 11.95 25.55 11.3 25.75 10.25 L28.4 12.25 Q29.75 13.6 31.3 16.2 31.6 15.8 34.45 15.3 35.3 19.25 32.35 22.9 L34.6 20.7 Q34.0 24.15 31.95 25.45 32.7 27.95 31.75 32.15 L28.4 30.1 Q29.5 33.0 25.0 36.35 25.0 34.9 23.3 32.05 L22.95 35.65 Q18.3 32.8 17.5 29.6 11.85 29.65 10.7 27.65 L12.85 26.9 Q11.1 26.8 7.95 23.0 9.1 21.75 11.0 21.05 10.8 18.45 11.9 16.5 13.05 13.8 12.45 12.8 M21.7 23.3 L21.45 23.75 21.4 23.75 14.7 22.0 15.4 20.65 16.95 19.45 Q18.05 18.8 20.15 20.05 18.1 18.75 18.7 18.95 L19.85 19.25 Q20.7 19.65 21.1 20.6 L21.5 21.55 Q21.8 22.4 21.7 23.3 M14.75 20.75 L14.2 22.05 Q14.15 23.45 14.5 24.55 L15.0 25.55 15.8 26.65 16.6 27.15 18.4 27.3 19.6 26.95 20.95 25.8 21.35 25.3 Q22.05 24.15 22.05 22.85 L21.9 21.75 Q21.7 20.6 21.3 20.0 L20.6 19.25 20.35 19.05 Q18.85 18.2 18.05 18.15 16.55 18.05 15.6 19.2 L15.25 19.7 14.75 20.75 M27.1 15.45 Q25.9 15.05 25.0 15.45 27.25 15.0 29.4 17.45 28.65 16.15 27.1 15.45 M24.1 22.8 L24.2 23.0 24.8 23.95 25.35 24.5 26.0 24.95 27.35 25.3 27.55 25.4 27.75 25.35 28.05 25.2 28.7 24.7 Q30.15 23.1 30.0 21.0 L29.6 19.3 29.25 18.5 28.4 17.65 27.85 17.25 26.2 17.0 26.05 17.05 Q25.45 17.15 24.95 17.55 L24.45 18.3 23.9 19.4 23.75 19.95 23.65 21.5 23.7 21.6 Q23.75 22.15 24.1 22.8 M22.55 25.2 L22.55 25.75 22.7 26.1 23.05 26.25 23.25 26.25 23.6 26.1 23.75 25.75 23.75 25.2 23.6 24.85 Q23.45 24.7 23.25 24.7 L23.05 24.7 Q22.85 24.7 22.7 24.85 L22.55 25.2 M29.2 19.3 Q27.2 21.4 24.7 22.95 L24.4 22.25 Q23.4 19.75 25.8 17.65 L25.5 18.7 Q26.2 17.3 27.15 17.4 28.05 17.45 29.2 19.3 M24.1 25.25 L24.3 25.65 24.6 25.9 25.0 25.85 25.25 25.55 25.2 25.2 25.0 24.8 24.7 24.55 24.35 24.55 24.1 24.85 24.1 25.25 M12.8 21.4 Q12.35 23.45 13.8 25.3 11.75 21.15 16.0 17.4 13.25 19.35 12.8 21.4 M20.5 29.95 L21.4 29.75 21.45 29.7 21.5 29.7 Q21.95 29.35 22.45 29.15 L22.5 29.15 22.55 29.1 Q24.15 28.3 26.05 28.2 L26.1 28.2 27.75 28.25 29.1 28.0 29.95 27.5 29.0 27.45 28.35 27.35 Q28.1 27.3 27.95 27.05 L27.5 26.45 27.0 25.85 26.55 25.8 Q26.35 25.85 26.25 26.0 26.1 26.1 26.1 26.3 L25.7 27.25 Q24.05 27.35 22.6 28.0 22.2 27.05 21.85 26.85 L21.5 26.75 Q21.3 26.8 21.2 26.95 L20.7 28.35 20.55 29.1 20.5 29.1 20.3 29.45 19.45 29.8 Q18.65 29.95 19.25 30.0 L20.5 29.95 20.5 29.6 20.5 29.95" fill="#4a3355" fill-rule="evenodd" stroke="none"/>
      <path d="M18.4 22.85 L18.95 22.45 19.25 22.4 Q19.8 24.3 18.65 26.0 17.85 24.5 18.4 22.85" fill="#4a3355" fill-rule="evenodd" stroke="none"/>
      <path d="M25.7 22.0 Q26.75 20.65 26.65 21.95 L26.1 23.95 Q25.6 23.15 25.7 22.0" fill="#4a3355" fill-rule="evenodd" stroke="none"/>
    </g>
    <linearGradient gradientTransform="matrix(0.0, -0.0167, -0.0167, 0.0, 21.75, 18.75)" gradientUnits="userSpaceOnUse" id="gradient0" spreadMethod="pad" x1="-819.2" x2="819.2">
      <stop offset="0.011764705882352941" stop-color="#bcb9ae"/>
      <stop offset="1.0" stop-color="#9b5b79"/>
    </linearGradient>
    <g id="shape1" transform="matrix(1.0, 0.0, 0.0, 1.0, 0.4, -0.4)">
      <path d="M33.8 10.2 Q28.75 5.1 21.6 5.1 14.4 5.1 9.35 10.2 4.25 15.2 4.25 22.45 4.25 29.6 9.35 34.7 14.4 39.8 21.6 39.8 28.8 39.8 33.8 34.7 38.85 29.6 38.85 22.45 38.85 15.2 33.8 10.2 M1.75 2.65 Q4.05 0.4 7.15 0.4 L35.95 0.4 Q39.15 0.4 41.35 2.65 43.6 4.95 43.6 8.05 L43.6 36.85 Q43.6 39.95 41.35 42.2 39.15 44.4 35.95 44.4 L7.15 44.4 Q4.05 44.4 1.75 42.2 -0.4 39.95 -0.4 36.85 L-0.4 8.05 Q-0.4 4.95 1.75 2.65" fill="url(#gradient1)" fill-rule="evenodd" stroke="none"/>
      <path d="M21.5 5.95 Q14.6 6.0 9.8 10.9 4.9 15.75 4.9 22.6 4.9 29.55 9.8 34.45 14.6 39.25 21.5 39.25 28.35 39.25 33.25 34.45 38.15 29.55 38.15 22.6 38.15 15.75 33.25 10.9 28.4 6.0 21.5 5.95 M8.0 9.2 Q13.6 3.6 21.5 3.6 29.35 3.6 34.9 9.2 40.5 14.75 40.5 22.6 40.5 30.55 34.9 36.1 29.35 41.65 21.5 41.65 13.6 41.65 8.0 36.1 2.45 30.55 2.45 22.6 2.45 14.75 8.0 9.2" fill="url(#gradient2)" fill-rule="evenodd" stroke="none"/>
    </g>
    <linearGradient gradientTransform="matrix(0.0, -0.0275, -0.044, 0.0, 20.45, 22.6)" gradientUnits="userSpaceOnUse" id="gradient1" spreadMethod="pad" x1="-819.2" x2="819.2">
      <stop offset="0.0196078431372549" stop-color="#905a3d"/>
      <stop offset="0.9764705882352941" stop-color="#6a412d"/>
    </linearGradient>
    <linearGradient gradientTransform="matrix(0.0, -0.0168, -0.0168, 0.0, 21.5, 27.2)" gradientUnits="userSpaceOnUse" id="gradient2" spreadMethod="pad" x1="-819.2" x2="819.2">
      <stop offset="0.0196078431372549" stop-color="#a3704d"/>
      <stop offset="0.9803921568627451" stop-color="#492d20"/>
    </linearGradient>
    <g id="sprite1" transform="matrix(1.0, 0.0, 0.0, 1.0, 0.2, 0.0)">
      <use height="8.6" transform="matrix(1.0, 0.0, 0.0, 1.0, -0.2, 0.0)" width="35.05" xlink:href="#shape2"/>
    </g>
    <g id="shape2" transform="matrix(1.0, 0.0, 0.0, 1.0, 0.2, 0.0)">
      <path d="M34.4 4.4 Q34.85 5.8 34.85 7.65 L34.85 8.6 Q34.8 6.95 34.4 5.7 33.0 1.3 27.2 1.3 L7.45 1.3 Q0.05 1.3 -0.2 8.5 L-0.2 7.65 Q-0.2 0.0 7.45 0.0 L27.2 0.0 Q33.0 0.0 34.4 4.4" fill="#e7deda" fill-rule="evenodd" stroke="none"/>
    </g>
    <g id="sprite2" transform="matrix(1.0, 0.0, 0.0, 1.0, 0.0, 0.0)">
      <use height="20.15" transform="matrix(1.0, 0.0, 0.0, 1.0, 0.0, 0.0)" width="28.2" xlink:href="#shape3"/>
    </g>
    <g id="shape3" transform="matrix(1.0, 0.0, 0.0, 1.0, 0.0, 0.0)">
      <path d="M27.65 18.45 L27.4 18.95 Q26.2 20.8 23.4 19.8 19.6 18.5 17.35 14.05 14.8 9.1 9.75 7.4 4.1 5.65 0.0 10.3 1.0 6.85 3.7 4.15 7.2 0.65 11.9 0.05 L14.8 0.05 18.4 0.65 Q21.55 1.65 24.05 4.15 28.2 8.3 28.2 14.25 28.2 16.45 27.65 18.45" fill="#ffffff" fill-opacity="0.19607843" fill-rule="evenodd" stroke="none"/>
    </g>
    <g id="shape4" transform="matrix(1.0, 0.0, 0.0, 1.0, -1.35, -4.5)">
      <path d="M15.85 40.9 Q12.4 39.9 9.15 38.25 10.45 35.0 12.8 34.45 13.55 38.1 15.85 40.9 M29.85 34.45 Q32.2 35.0 33.45 38.3 30.3 40.0 26.95 40.9 28.55 38.85 29.35 36.25 L29.85 34.45" fill="url(#gradient3)" fill-rule="evenodd" stroke="none"/>
      <path d="M12.8 34.45 Q14.3 37.5 17.5 38.9 L15.85 40.9 Q13.55 38.1 12.8 34.45 M26.95 40.9 L25.15 38.9 Q28.35 37.5 29.85 34.45 L29.35 36.25 Q28.55 38.85 26.95 40.9" fill="#6d4a34" fill-rule="evenodd" stroke="none"/>
      <path d="M31.8 14.6 Q31.3 10.2 28.7 7.45 L30.4 5.7 30.65 6.2 31.1 7.85 Q31.85 11.35 31.8 14.6 M11.35 14.6 Q11.2 10.3 12.75 5.7 L14.5 7.45 Q11.9 10.2 11.35 14.6" fill="#492d20" fill-rule="evenodd" stroke="none"/>
      <path d="M30.65 6.2 L30.05 4.5 Q33.45 6.25 36.35 9.2 L36.4 9.3 Q35.6 13.35 31.8 14.6 31.85 11.35 31.1 7.85 L30.65 6.2 M11.35 14.6 Q7.55 13.35 6.75 9.4 L6.95 9.2 Q9.75 6.3 13.05 4.7 L12.75 5.7 Q11.2 10.3 11.35 14.6" fill="url(#gradient4)" fill-rule="evenodd" stroke="none"/>
      <path d="M41.8 33.9 L41.8 36.6 Q41.8 37.6 41.2 38.25 40.7 38.85 39.85 38.85 39.0 38.85 38.4 38.25 37.8 37.6 37.8 36.6 L37.8 35.35 M1.45 33.9 L1.45 36.6 Q1.45 37.6 2.0 38.25 2.5 38.85 3.4 38.85 4.2 38.85 4.85 38.25 5.4 37.6 5.4 36.6 L5.4 35.35" fill="none" stroke="#6a402d" stroke-linecap="round" stroke-linejoin="round" stroke-width="0.25"/>
      <path d="M39.0 5.85 L39.35 5.75 Q39.9 5.75 40.25 6.6 L40.5 8.7 40.25 10.75 Q39.9 11.65 39.35 11.65 L39.0 11.5 39.55 10.75 39.85 8.7 39.55 6.6 39.0 5.85 M4.15 11.5 L3.8 11.65 Q3.3 11.65 2.95 10.75 2.65 9.9 2.65 8.7 2.65 7.45 2.95 6.6 3.3 5.75 3.8 5.75 L4.15 5.85 3.6 6.6 Q3.35 7.45 3.35 8.7 3.35 9.9 3.6 10.75 L4.15 11.5" fill="#1a0d09" fill-rule="evenodd" stroke="none"/>
      <path d="M39.0 11.5 L38.55 10.75 Q38.2 9.9 38.2 8.7 38.2 7.45 38.55 6.6 L39.0 5.85 39.55 6.6 39.85 8.7 39.55 10.75 39.0 11.5 M4.15 11.5 L3.6 10.75 Q3.35 9.9 3.35 8.7 3.35 7.45 3.6 6.6 L4.15 5.85 Q4.45 6.0 4.6 6.6 4.95 7.45 4.95 8.7 4.95 9.9 4.6 10.75 L4.15 11.5" fill="#331d16" fill-rule="evenodd" stroke="none"/>
      <path d="M39.0 5.85 L39.35 5.75 Q39.9 5.75 40.25 6.6 L40.5 8.7 40.25 10.75 Q39.9 11.65 39.35 11.65 L39.0 11.5 38.55 10.75 Q38.2 9.9 38.2 8.7 38.2 7.45 38.55 6.6 L39.0 5.85 M4.15 5.85 L3.8 5.75 Q3.3 5.75 2.95 6.6 2.65 7.45 2.65 8.7 2.65 9.9 2.95 10.75 3.3 11.65 3.8 11.65 L4.15 11.5 4.6 10.75 Q4.95 9.9 4.95 8.7 4.95 7.45 4.6 6.6 4.45 6.0 4.15 5.85" fill="none" stroke="#6a402d" stroke-linecap="round" stroke-linejoin="round" stroke-width="0.05"/>
      <path d="M31.5 44.35 L11.7 44.35 Q12.45 44.0 14.05 43.6 L21.6 43.05 29.1 43.6 31.5 44.35" fill="#6c432e" fill-rule="evenodd" stroke="none"/>
    </g>
    <linearGradient gradientTransform="matrix(0.0, -0.0275, -0.044, 0.0, 20.45, 22.6)" gradientUnits="userSpaceOnUse" id="gradient3" spreadMethod="pad" x1="-819.2" x2="819.2">
      <stop offset="0.0196078431372549" stop-color="#905a3d"/>
      <stop offset="0.9764705882352941" stop-color="#6a412d"/>
    </linearGradient>
    <linearGradient gradientTransform="matrix(0.0, -0.0275, -0.044, 0.0, 20.45, 22.6)" gradientUnits="userSpaceOnUse" id="gradient4" spreadMethod="pad" x1="-819.2" x2="819.2">
      <stop offset="0.0196078431372549" stop-color="#905a3d"/>
      <stop offset="0.9764705882352941" stop-color="#6a412d"/>
    </linearGradient>
  </defs>
</svg>
