<?xml version="1.0" encoding="UTF-8" standalone="no"?>
<svg xmlns:xlink="http://www.w3.org/1999/xlink" height="66.0px" width="66.0px" xmlns="http://www.w3.org/2000/svg">
  <g transform="matrix(1.5, 0.0, 0.0, 1.5, 0.6, -0.6)">
    <use height="39.3" transform="matrix(1.0, 0.0, 0.0, 1.0, 3.4, 3.5)" width="37.2" xlink:href="#shape0"/>
    <use height="0.0" transform="matrix(1.2125, 0.0, 0.0, 1.2125, 1.1, 0.9)" width="0.0" xlink:href="#sprite0"/>
    <use height="44.0" transform="matrix(1.0, 0.0, 0.0, 1.0, -0.4, 0.4)" width="44.0" xlink:href="#shape1"/>
    <use height="8.6" transform="matrix(1.2077, 0.0, 0.0, 1.2093, 0.1085, 1.15)" width="35.05" xlink:href="#sprite1"/>
    <use height="20.15" transform="matrix(1.1548, 0.0, 0.0, 1.1564, 5.9, 6.05)" width="28.2" xlink:href="#sprite2"/>
    <use height="39.85" transform="matrix(1.0, 0.0, 0.0, 1.0, 1.35, 4.5)" width="40.55" xlink:href="#shape4"/>
  </g>
  <defs>
    <g id="shape0" transform="matrix(1.0, 0.0, 0.0, 1.0, -3.4, -3.5)">
      <path d="M22.05 40.6 Q14.3 40.6 8.85 35.2 3.4 29.75 3.4 22.05 3.4 14.35 8.85 8.95 14.3 3.5 22.05 3.5 29.75 3.5 35.2 8.95 40.6 14.4 40.6 22.05 40.6 29.75 35.2 35.2 29.75 40.6 22.05 40.6" fill="url(#gradient0)" fill-rule="evenodd" stroke="none"/>
      <path d="M34.25 23.35 Q32.05 28.9 29.05 29.8 25.9 30.55 23.0 29.45 17.65 32.75 13.5 32.65 8.75 31.9 8.25 30.8 13.95 29.25 16.15 27.25 13.85 28.8 11.45 27.75 L13.85 26.15 Q12.9 25.9 12.05 25.35 L12.95 23.95 13.0 23.65 12.95 23.35 12.2 22.0 14.3 20.6 14.55 20.25 14.55 19.85 14.05 18.35 16.05 19.1 Q17.15 20.7 17.2 22.8 17.6 20.7 16.45 19.0 17.8 17.4 19.1 18.4 L19.15 18.4 19.25 19.0 19.35 19.4 19.35 21.9 Q19.8 20.75 19.75 19.6 L19.4 17.95 Q20.1 16.85 21.45 15.65 23.15 14.2 25.45 14.55 27.7 14.85 28.75 15.8 29.8 16.7 34.6 14.25 33.55 16.65 33.05 18.4 34.15 18.2 35.15 17.4 34.0 23.7 31.15 24.55 32.4 24.6 34.25 23.35 M28.5 22.4 L28.55 21.7 21.45 21.95 Q21.35 24.55 24.35 25.35 L24.45 25.5 24.8 26.3 Q25.0 26.85 25.15 26.7 L25.25 26.4 25.4 25.4 Q26.25 25.3 27.05 24.7 28.3 23.9 28.5 22.4 M22.7 19.0 L21.1 20.4 28.45 20.9 27.8 19.75 Q26.85 18.6 25.4 18.35 L25.25 18.35 24.65 15.55 24.05 18.4 Q23.3 18.55 22.7 19.0 M24.7 17.2 L24.75 17.1 24.75 17.2 24.7 17.2 M24.35 27.2 Q22.85 26.75 21.65 25.85 L22.2 26.65 Q22.75 27.2 24.1 27.65 L26.55 27.75 Q27.8 27.5 28.5 26.8 25.75 27.6 24.35 27.2" fill="#372d2d" fill-rule="evenodd" stroke="none"/>
      <path d="M10.35 20.45 L10.2 20.05 Q10.05 19.85 9.75 20.15 L9.65 20.25 9.45 20.85 9.4 21.7 9.45 21.9 9.55 22.3 Q9.6 22.7 10.0 22.75 L10.15 22.75 10.25 22.45 10.35 20.45 M10.4 16.85 L12.95 17.9 Q12.8 18.15 12.9 18.35 L13.4 19.85 11.2 21.25 11.05 21.55 10.95 21.85 11.05 22.15 11.9 23.7 11.2 24.8 10.7 24.4 Q7.05 21.7 10.4 16.85" fill="#372d2d" fill-opacity="0.6784314" fill-rule="evenodd" stroke="none"/>
      <path d="M24.6 29.7 L30.9 26.05 Q30.65 24.2 38.3 30.85 35.5 42.5 27.6 41.6 23.95 34.45 24.6 29.7" fill="#372d2d" fill-rule="evenodd" stroke="none"/>
      <path d="M16.05 37.95 L17.45 34.1 19.4 34.25 Q22.8 33.3 25.5 30.1 25.5 35.25 21.5 39.45 L21.5 42.8 18.6 40.4 16.05 42.4 16.05 37.95" fill="#372d2d" fill-rule="evenodd" stroke="none"/>
      <path d="M11.25 39.45 Q13.15 35.35 17.25 34.65" fill="none" stroke="#372d2d" stroke-linecap="round" stroke-linejoin="round" stroke-width="1.0"/>
    </g>
    <linearGradient gradientTransform="matrix(0.0, -0.0173, -0.0173, 0.0, 22.0, 18.5)" gradientUnits="userSpaceOnUse" id="gradient0" spreadMethod="pad" x1="-819.2" x2="819.2">
      <stop offset="0.011764705882352941" stop-color="#c4bebb"/>
      <stop offset="1.0" stop-color="#9f8a82"/>
    </linearGradient>
    <g id="shape1" transform="matrix(1.0, 0.0, 0.0, 1.0, 0.4, -0.4)">
      <path d="M33.8 10.2 Q28.75 5.1 21.6 5.1 14.4 5.1 9.35 10.2 4.25 15.2 4.25 22.45 4.25 29.6 9.35 34.7 14.4 39.8 21.6 39.8 28.8 39.8 33.8 34.7 38.85 29.6 38.85 22.45 38.85 15.2 33.8 10.2 M1.75 2.65 Q4.05 0.4 7.15 0.4 L35.95 0.4 Q39.15 0.4 41.35 2.65 43.6 4.95 43.6 8.05 L43.6 36.85 Q43.6 39.95 41.35 42.2 39.15 44.4 35.95 44.4 L7.15 44.4 Q4.05 44.4 1.75 42.2 -0.4 39.95 -0.4 36.85 L-0.4 8.05 Q-0.4 4.95 1.75 2.65" fill="url(#gradient1)" fill-rule="evenodd" stroke="none"/>
      <path d="M21.5 5.95 Q14.6 6.0 9.8 10.9 4.9 15.75 4.9 22.6 4.9 29.55 9.8 34.45 14.6 39.25 21.5 39.25 28.35 39.25 33.25 34.45 38.15 29.55 38.15 22.6 38.15 15.75 33.25 10.9 28.4 6.0 21.5 5.95 M8.0 9.2 Q13.6 3.6 21.5 3.6 29.35 3.6 34.9 9.2 40.5 14.75 40.5 22.6 40.5 30.55 34.9 36.1 29.35 41.65 21.5 41.65 13.6 41.65 8.0 36.1 2.45 30.55 2.45 22.6 2.45 14.75 8.0 9.2" fill="url(#gradient2)" fill-rule="evenodd" stroke="none"/>
    </g>
    <linearGradient gradientTransform="matrix(0.0, -0.0275, -0.044, 0.0, 20.45, 22.6)" gradientUnits="userSpaceOnUse" id="gradient1" spreadMethod="pad" x1="-819.2" x2="819.2">
      <stop offset="0.0196078431372549" stop-color="#905a3d"/>
      <stop offset="0.9764705882352941" stop-color="#6a412d"/>
    </linearGradient>
    <linearGradient gradientTransform="matrix(0.0, -0.0168, -0.0168, 0.0, 21.5, 27.2)" gradientUnits="userSpaceOnUse" id="gradient2" spreadMethod="pad" x1="-819.2" x2="819.2">
      <stop offset="0.0196078431372549" stop-color="#a3704d"/>
      <stop offset="0.9803921568627451" stop-color="#492d20"/>
    </linearGradient>
    <g id="sprite1" transform="matrix(1.0, 0.0, 0.0, 1.0, 0.2, 0.0)">
      <use height="8.6" transform="matrix(1.0, 0.0, 0.0, 1.0, -0.2, 0.0)" width="35.05" xlink:href="#shape2"/>
    </g>
    <g id="shape2" transform="matrix(1.0, 0.0, 0.0, 1.0, 0.2, 0.0)">
      <path d="M34.85 8.6 Q34.8 6.95 34.4 5.7 33.0 1.3 27.2 1.3 L7.45 1.3 Q0.05 1.3 -0.2 8.5 L-0.2 7.65 Q-0.2 0.0 7.45 0.0 L27.2 0.0 Q33.0 0.0 34.4 4.4 34.85 5.8 34.85 7.65 L34.85 8.6" fill="#e7deda" fill-rule="evenodd" stroke="none"/>
    </g>
    <g id="sprite2" transform="matrix(1.0, 0.0, 0.0, 1.0, 0.0, 0.0)">
      <use height="20.15" transform="matrix(1.0, 0.0, 0.0, 1.0, 0.0, 0.0)" width="28.2" xlink:href="#shape3"/>
    </g>
    <g id="shape3" transform="matrix(1.0, 0.0, 0.0, 1.0, 0.0, 0.0)">
      <path d="M27.65 18.45 L27.4 18.95 Q26.2 20.8 23.4 19.8 19.6 18.5 17.35 14.05 14.8 9.1 9.75 7.4 4.1 5.65 0.0 10.3 1.0 6.85 3.7 4.15 7.2 0.65 11.9 0.05 L14.8 0.05 18.4 0.65 Q21.55 1.65 24.05 4.15 28.2 8.3 28.2 14.25 28.2 16.45 27.65 18.45" fill="#ffffff" fill-opacity="0.19607843" fill-rule="evenodd" stroke="none"/>
    </g>
    <g id="shape4" transform="matrix(1.0, 0.0, 0.0, 1.0, -1.35, -4.5)">
      <path d="M15.85 40.9 Q12.4 39.9 9.15 38.25 10.45 35.0 12.8 34.45 13.55 38.1 15.85 40.9 M29.85 34.45 Q32.2 35.0 33.45 38.3 30.3 40.0 26.95 40.9 28.55 38.85 29.35 36.25 L29.85 34.45" fill="url(#gradient3)" fill-rule="evenodd" stroke="none"/>
      <path d="M12.8 34.45 Q14.3 37.5 17.5 38.9 L15.85 40.9 Q13.55 38.1 12.8 34.45 M26.95 40.9 L25.15 38.9 Q28.35 37.5 29.85 34.45 L29.35 36.25 Q28.55 38.85 26.95 40.9" fill="#6d4a34" fill-rule="evenodd" stroke="none"/>
      <path d="M31.8 14.6 Q31.3 10.2 28.7 7.45 L30.4 5.7 30.65 6.2 31.1 7.85 Q31.85 11.35 31.8 14.6 M11.35 14.6 Q11.2 10.3 12.75 5.7 L14.5 7.45 Q11.9 10.2 11.35 14.6" fill="#492d20" fill-rule="evenodd" stroke="none"/>
      <path d="M30.65 6.2 L30.05 4.5 Q33.45 6.25 36.35 9.2 L36.4 9.3 Q35.6 13.35 31.8 14.6 31.85 11.35 31.1 7.85 L30.65 6.2 M11.35 14.6 Q7.55 13.35 6.75 9.4 L6.95 9.2 Q9.75 6.3 13.05 4.7 L12.75 5.7 Q11.2 10.3 11.35 14.6" fill="url(#gradient4)" fill-rule="evenodd" stroke="none"/>
      <path d="M41.8 33.9 L41.8 36.6 Q41.8 37.6 41.2 38.25 40.7 38.85 39.85 38.85 39.0 38.85 38.4 38.25 37.8 37.6 37.8 36.6 L37.8 35.35 M1.45 33.9 L1.45 36.6 Q1.45 37.6 2.0 38.25 2.5 38.85 3.4 38.85 4.2 38.85 4.85 38.25 5.4 37.6 5.4 36.6 L5.4 35.35" fill="none" stroke="#6a402d" stroke-linecap="round" stroke-linejoin="round" stroke-width="0.25"/>
      <path d="M39.0 5.85 L39.35 5.75 Q39.9 5.75 40.25 6.6 L40.5 8.7 40.25 10.75 Q39.9 11.65 39.35 11.65 L39.0 11.5 39.55 10.75 39.85 8.7 39.55 6.6 39.0 5.85 M4.15 11.5 L3.8 11.65 Q3.3 11.65 2.95 10.75 2.65 9.9 2.65 8.7 2.65 7.45 2.95 6.6 3.3 5.75 3.8 5.75 L4.15 5.85 3.6 6.6 Q3.35 7.45 3.35 8.7 3.35 9.9 3.6 10.75 L4.15 11.5" fill="#1a0d09" fill-rule="evenodd" stroke="none"/>
      <path d="M39.0 11.5 L38.55 10.75 Q38.2 9.9 38.2 8.7 38.2 7.45 38.55 6.6 L39.0 5.85 39.55 6.6 39.85 8.7 39.55 10.75 39.0 11.5 M4.15 11.5 L3.6 10.75 Q3.35 9.9 3.35 8.7 3.35 7.45 3.6 6.6 L4.15 5.85 Q4.45 6.0 4.6 6.6 4.95 7.45 4.95 8.7 4.95 9.9 4.6 10.75 L4.15 11.5" fill="#331d16" fill-rule="evenodd" stroke="none"/>
      <path d="M39.0 5.85 L39.35 5.75 Q39.9 5.75 40.25 6.6 L40.5 8.7 40.25 10.75 Q39.9 11.65 39.35 11.65 L39.0 11.5 38.55 10.75 Q38.2 9.9 38.2 8.7 38.2 7.45 38.55 6.6 L39.0 5.85 M4.15 5.85 L3.8 5.75 Q3.3 5.75 2.95 6.6 2.65 7.45 2.65 8.7 2.65 9.9 2.95 10.75 3.3 11.65 3.8 11.65 L4.15 11.5 4.6 10.75 Q4.95 9.9 4.95 8.7 4.95 7.45 4.6 6.6 4.45 6.0 4.15 5.85" fill="none" stroke="#6a402d" stroke-linecap="round" stroke-linejoin="round" stroke-width="0.05"/>
      <path d="M31.5 44.35 L11.7 44.35 Q12.45 44.0 14.05 43.6 L21.6 43.05 29.1 43.6 31.5 44.35" fill="#6c432e" fill-rule="evenodd" stroke="none"/>
    </g>
    <linearGradient gradientTransform="matrix(0.0, -0.0275, -0.044, 0.0, 20.45, 22.6)" gradientUnits="userSpaceOnUse" id="gradient3" spreadMethod="pad" x1="-819.2" x2="819.2">
      <stop offset="0.0196078431372549" stop-color="#905a3d"/>
      <stop offset="0.9764705882352941" stop-color="#6a412d"/>
    </linearGradient>
    <linearGradient gradientTransform="matrix(0.0, -0.0275, -0.044, 0.0, 20.45, 22.6)" gradientUnits="userSpaceOnUse" id="gradient4" spreadMethod="pad" x1="-819.2" x2="819.2">
      <stop offset="0.0196078431372549" stop-color="#905a3d"/>
      <stop offset="0.9764705882352941" stop-color="#6a412d"/>
    </linearGradient>
  </defs>
</svg>
