<?xml version="1.0" encoding="UTF-8" standalone="no"?>
<svg xmlns:xlink="http://www.w3.org/1999/xlink" height="66.0px" width="66.0px" xmlns="http://www.w3.org/2000/svg">
  <g transform="matrix(1.5, 0.0, 0.0, 1.5, -0.15, 1.125)">
    <use height="35.1" transform="matrix(1.0, 0.0, 0.0, 1.0, 4.55, 4.55)" width="35.15" xlink:href="#shape0"/>
    <use height="20.15" transform="matrix(1.1594, 0.0, 0.0, 1.1605, 5.55, 5.6)" width="28.2" xlink:href="#sprite0"/>
    <use height="44.0" transform="matrix(1.0, 0.0, 0.0, 1.0, 0.1, -0.75)" width="44.0" xlink:href="#shape2"/>
    <use height="8.6" transform="matrix(1.2077, 0.0, 0.0, 1.2093, 0.6085, 0.0)" width="35.05" xlink:href="#sprite1"/>
    <use height="39.85" transform="matrix(1.0, 0.0, 0.0, 1.0, 1.85, 3.35)" width="40.55" xlink:href="#shape4"/>
  </g>
  <defs>
    <g id="shape0" transform="matrix(1.0, 0.0, 0.0, 1.0, -4.55, -4.55)">
      <path d="M22.1 4.55 Q29.4 4.55 34.55 9.65 39.7 14.8 39.7 22.1 39.7 29.4 34.55 34.5 29.4 39.65 22.1 39.65 14.85 39.65 9.75 34.5 4.55 29.4 4.55 22.1 4.55 14.8 9.75 9.65 14.85 4.55 22.1 4.55" fill="url(#gradient0)" fill-rule="evenodd" stroke="none"/>
      <path d="M24.5 22.75 Q26.5 22.8 29.55 21.05 30.35 20.35 30.15 18.9 L23.0 21.55 Q23.45 22.65 24.5 22.75 M22.95 23.5 L20.55 23.6 21.4 24.65 21.4 26.5 15.85 26.5 Q14.45 26.45 14.3 25.0 14.35 23.2 15.25 22.6 14.1 23.3 14.0 25.25 14.2 26.9 15.65 26.95 L28.25 26.95 Q29.7 26.9 29.9 25.25 29.8 23.3 28.65 22.6 29.5 23.2 29.6 25.0 29.4 26.45 28.0 26.5 L21.9 26.5 21.9 24.7 22.95 23.65 22.95 23.5 M24.95 12.95 Q27.0 9.7 28.95 9.95 29.85 11.45 29.95 14.4 28.45 13.1 24.95 12.95 M14.3 21.05 Q17.35 22.8 19.4 22.75 20.45 22.65 20.9 21.55 L13.7 18.9 Q13.55 20.35 14.3 21.05 M18.9 12.95 Q15.45 13.1 13.95 14.4 14.0 11.45 14.95 9.95 16.9 9.7 18.9 12.95 M34.25 16.6 Q36.8 15.8 37.9 17.0 35.95 17.85 36.15 19.75 36.6 31.55 25.8 31.55 L26.05 30.55 25.3 31.55 Q24.1 32.65 21.95 32.75 19.8 32.65 18.6 31.55 L17.85 30.55 18.0 31.6 Q7.25 31.5 7.75 19.75 7.9 17.85 6.0 17.0 7.1 15.8 9.6 16.6 8.6 15.25 8.8 13.7 10.45 16.0 12.8 16.2 15.4 13.35 22.1 13.45 28.5 13.35 31.1 16.2 33.4 16.0 35.05 13.7 35.3 15.25 34.25 16.6" fill="#92300b" fill-rule="evenodd" stroke="none"/>
    </g>
    <linearGradient gradientTransform="matrix(0.0, -0.0164, -0.0164, 0.0, 22.1, 18.7)" gradientUnits="userSpaceOnUse" id="gradient0" spreadMethod="pad" x1="-819.2" x2="819.2">
      <stop offset="0.011764705882352941" stop-color="#f9cfb3"/>
      <stop offset="1.0" stop-color="#ff5b79"/>
    </linearGradient>
    <g id="sprite0" transform="matrix(1.0, 0.0, 0.0, 1.0, 0.0, 0.0)">
      <use height="20.15" transform="matrix(1.0, 0.0, 0.0, 1.0, 0.0, 0.0)" width="28.2" xlink:href="#shape1"/>
    </g>
    <g id="shape1" transform="matrix(1.0, 0.0, 0.0, 1.0, 0.0, 0.0)">
      <path d="M27.65 18.45 L27.4 18.95 Q26.2 20.8 23.4 19.8 19.6 18.5 17.35 14.05 14.8 9.1 9.75 7.4 4.1 5.65 0.0 10.3 1.0 6.85 3.7 4.15 7.2 0.65 11.9 0.05 L14.8 0.05 18.4 0.65 Q21.55 1.65 24.05 4.15 28.2 8.3 28.2 14.25 28.2 16.45 27.65 18.45" fill="#ffffff" fill-opacity="0.19607843" fill-rule="evenodd" stroke="none"/>
    </g>
    <g id="shape2" transform="matrix(1.0, 0.0, 0.0, 1.0, -0.1, 0.75)">
      <path d="M34.3 9.05 Q29.25 3.95 22.1 3.95 14.9 3.95 9.85 9.05 4.75 14.05 4.75 21.3 4.75 28.45 9.85 33.55 14.9 38.65 22.1 38.65 29.3 38.65 34.3 33.55 39.35 28.45 39.35 21.3 39.35 14.05 34.3 9.05 M2.25 1.5 Q4.55 -0.75 7.65 -0.75 L36.45 -0.75 Q39.65 -0.75 41.85 1.5 44.1 3.8 44.1 6.9 L44.1 35.7 Q44.1 38.8 41.85 41.05 39.65 43.25 36.45 43.25 L7.65 43.25 Q4.55 43.25 2.25 41.05 0.1 38.8 0.1 35.7 L0.1 6.9 Q0.1 3.8 2.25 1.5" fill="url(#gradient1)" fill-rule="evenodd" stroke="none"/>
      <path d="M22.0 4.8 Q15.1 4.85 10.3 9.75 5.4 14.6 5.4 21.45 5.4 28.4 10.3 33.3 15.1 38.1 22.0 38.1 28.85 38.1 33.75 33.3 38.65 28.4 38.65 21.45 38.65 14.6 33.75 9.75 28.9 4.85 22.0 4.8 M8.5 8.05 Q14.1 2.45 22.0 2.45 29.85 2.45 35.4 8.05 41.0 13.6 41.0 21.45 41.0 29.4 35.4 34.95 29.85 40.5 22.0 40.5 14.1 40.5 8.5 34.95 2.95 29.4 2.95 21.45 2.95 13.6 8.5 8.05" fill="url(#gradient2)" fill-rule="evenodd" stroke="none"/>
    </g>
    <linearGradient gradientTransform="matrix(0.0, -0.0275, -0.044, 0.0, 20.95, 21.45)" gradientUnits="userSpaceOnUse" id="gradient1" spreadMethod="pad" x1="-819.2" x2="819.2">
      <stop offset="0.0196078431372549" stop-color="#905a3d"/>
      <stop offset="0.9764705882352941" stop-color="#6a412d"/>
    </linearGradient>
    <linearGradient gradientTransform="matrix(0.0, -0.0168, -0.0168, 0.0, 22.0, 26.05)" gradientUnits="userSpaceOnUse" id="gradient2" spreadMethod="pad" x1="-819.2" x2="819.2">
      <stop offset="0.0196078431372549" stop-color="#a3704d"/>
      <stop offset="0.9803921568627451" stop-color="#492d20"/>
    </linearGradient>
    <g id="sprite1" transform="matrix(1.0, 0.0, 0.0, 1.0, 0.2, 0.0)">
      <use height="8.6" transform="matrix(1.0, 0.0, 0.0, 1.0, -0.2, 0.0)" width="35.05" xlink:href="#shape3"/>
    </g>
    <g id="shape3" transform="matrix(1.0, 0.0, 0.0, 1.0, 0.2, 0.0)">
      <path d="M34.4 4.4 Q34.85 5.8 34.85 7.65 L34.85 8.6 Q34.8 6.95 34.4 5.7 33.0 1.3 27.2 1.3 L7.45 1.3 Q0.05 1.3 -0.2 8.5 L-0.2 7.65 Q-0.2 0.0 7.45 0.0 L27.2 0.0 Q33.0 0.0 34.4 4.4" fill="#e7deda" fill-rule="evenodd" stroke="none"/>
    </g>
    <g id="shape4" transform="matrix(1.0, 0.0, 0.0, 1.0, -1.85, -3.35)">
      <path d="M16.35 39.75 Q12.9 38.75 9.65 37.1 10.95 33.85 13.3 33.3 14.05 36.95 16.35 39.75 M27.45 39.75 Q29.05 37.7 29.85 35.1 L30.35 33.3 Q32.7 33.85 33.95 37.15 30.8 38.85 27.45 39.75" fill="url(#gradient3)" fill-rule="evenodd" stroke="none"/>
      <path d="M13.3 33.3 Q14.8 36.35 18.0 37.75 L16.35 39.75 Q14.05 36.95 13.3 33.3 M30.35 33.3 L29.85 35.1 Q29.05 37.7 27.45 39.75 L25.65 37.75 Q28.85 36.35 30.35 33.3" fill="#6d4a34" fill-rule="evenodd" stroke="none"/>
      <path d="M32.3 13.45 Q31.8 9.05 29.2 6.3 L30.9 4.55 31.15 5.05 31.6 6.7 Q32.35 10.2 32.3 13.45 M11.85 13.45 Q11.7 9.15 13.25 4.55 L15.0 6.3 Q12.4 9.05 11.85 13.45" fill="#492d20" fill-rule="evenodd" stroke="none"/>
      <path d="M31.15 5.05 L30.55 3.35 Q33.95 5.1 36.85 8.05 L36.9 8.15 Q36.1 12.2 32.3 13.45 32.35 10.2 31.6 6.7 L31.15 5.05 M13.25 4.55 Q11.7 9.15 11.85 13.45 8.05 12.2 7.25 8.25 L7.45 8.05 Q10.25 5.15 13.55 3.55 L13.25 4.55" fill="url(#gradient4)" fill-rule="evenodd" stroke="none"/>
      <path d="M42.3 32.75 L42.3 35.45 Q42.3 36.45 41.7 37.1 41.2 37.7 40.35 37.7 39.5 37.7 38.9 37.1 38.3 36.45 38.3 35.45 L38.3 34.2 M1.95 32.75 L1.95 35.45 Q1.95 36.45 2.5 37.1 3.0 37.7 3.9 37.7 4.7 37.7 5.35 37.1 5.9 36.45 5.9 35.45 L5.9 34.2" fill="none" stroke="#6a402d" stroke-linecap="round" stroke-linejoin="round" stroke-width="0.25"/>
      <path d="M39.5 4.7 L39.85 4.6 Q40.4 4.6 40.75 5.45 L41.0 7.55 40.75 9.6 Q40.4 10.5 39.85 10.5 L39.5 10.35 40.05 9.6 40.35 7.55 40.05 5.45 39.5 4.7 M4.65 4.7 Q4.35 4.85 4.1 5.45 3.85 6.3 3.85 7.55 3.85 8.75 4.1 9.6 L4.65 10.35 4.3 10.5 Q3.8 10.5 3.45 9.6 3.15 8.75 3.15 7.55 3.15 6.3 3.45 5.45 3.8 4.6 4.3 4.6 L4.65 4.7" fill="#1a0d09" fill-rule="evenodd" stroke="none"/>
      <path d="M39.5 4.7 L40.05 5.45 40.35 7.55 40.05 9.6 39.5 10.35 39.05 9.6 Q38.7 8.75 38.7 7.55 38.7 6.3 39.05 5.45 39.25 4.85 39.5 4.7 M4.65 10.35 L4.1 9.6 Q3.85 8.75 3.85 7.55 3.85 6.3 4.1 5.45 4.35 4.85 4.65 4.7 L5.1 5.45 Q5.45 6.3 5.45 7.55 5.45 8.75 5.1 9.6 L4.65 10.35" fill="#331d16" fill-rule="evenodd" stroke="none"/>
      <path d="M39.5 10.35 L39.85 10.5 Q40.4 10.5 40.75 9.6 L41.0 7.55 40.75 5.45 Q40.4 4.6 39.85 4.6 L39.5 4.7 Q39.25 4.85 39.05 5.45 38.7 6.3 38.7 7.55 38.7 8.75 39.05 9.6 L39.5 10.35 M4.65 4.7 L4.3 4.6 Q3.8 4.6 3.45 5.45 3.15 6.3 3.15 7.55 3.15 8.75 3.45 9.6 3.8 10.5 4.3 10.5 L4.65 10.35 5.1 9.6 Q5.45 8.75 5.45 7.55 5.45 6.3 5.1 5.45 L4.65 4.7" fill="none" stroke="#6a402d" stroke-linecap="round" stroke-linejoin="round" stroke-width="0.05"/>
      <path d="M29.6 42.45 L32.0 43.2 12.2 43.2 Q12.95 42.85 14.55 42.45 L22.1 41.9 29.6 42.45" fill="#6c432e" fill-rule="evenodd" stroke="none"/>
    </g>
    <linearGradient gradientTransform="matrix(0.0, -0.0275, -0.044, 0.0, 21.0, 21.45)" gradientUnits="userSpaceOnUse" id="gradient3" spreadMethod="pad" x1="-819.2" x2="819.2">
      <stop offset="0.0196078431372549" stop-color="#905a3d"/>
      <stop offset="0.9764705882352941" stop-color="#6a412d"/>
    </linearGradient>
    <linearGradient gradientTransform="matrix(0.0, -0.0275, -0.044, 0.0, 21.0, 21.45)" gradientUnits="userSpaceOnUse" id="gradient4" spreadMethod="pad" x1="-819.2" x2="819.2">
      <stop offset="0.0196078431372549" stop-color="#905a3d"/>
      <stop offset="0.9764705882352941" stop-color="#6a412d"/>
    </linearGradient>
  </defs>
</svg>
