<?xml version="1.0" encoding="UTF-8" standalone="no"?>
<svg xmlns:xlink="http://www.w3.org/1999/xlink" height="66.0px" width="66.0px" xmlns="http://www.w3.org/2000/svg">
  <g transform="matrix(1.5, 0.0, 0.0, 1.5, 0.0, 0.0)">
    <use height="44.0" transform="matrix(1.0, 0.0, 0.0, 1.0, 0.0, 0.0)" width="44.0" xlink:href="#shape0"/>
    <use height="20.15" transform="matrix(1.1594, 0.0, 0.0, 1.1605, 5.8, 5.3)" width="28.2" xlink:href="#sprite0"/>
    <use height="41.0" transform="matrix(1.0, 0.0, 0.0, 1.0, 0.3, 3.0)" width="43.3" xlink:href="#shape2"/>
    <use height="0.0" transform="matrix(1.2125, 0.0, 0.0, 1.2125, 1.0, 0.95)" width="0.0" xlink:href="#sprite1"/>
    <use height="8.6" transform="matrix(1.2077, 0.0, 0.0, 1.2065, 0.7085, 0.5)" width="35.05" xlink:href="#sprite2"/>
  </g>
  <defs>
    <g id="shape0" transform="matrix(1.0, 0.0, 0.0, 1.0, 0.0, 0.0)">
      <path d="M41.8 2.25 Q44.0 4.45 44.0 7.6 L44.0 36.4 Q44.0 39.6 41.8 41.8 39.6 44.0 36.4 44.0 L7.6 44.0 Q4.45 44.0 2.25 41.8 0.0 39.6 0.0 36.4 L0.0 7.6 Q0.0 4.45 2.25 2.25 4.45 0.0 7.6 0.0 L36.4 0.0 Q39.55 0.0 41.8 2.25" fill="url(#gradient0)" fill-rule="evenodd" stroke="none"/>
      <path d="M40.6 22.05 Q40.6 29.75 35.2 35.2 29.75 40.6 22.05 40.6 14.3 40.6 8.85 35.2 3.4 29.75 3.4 22.05 3.4 14.3 8.85 8.95 14.3 3.5 22.05 3.5 29.75 3.5 35.2 8.95 40.6 14.4 40.6 22.05" fill="url(#gradient1)" fill-rule="evenodd" stroke="none"/>
      <path d="M33.1 22.0 Q33.1 26.75 29.85 30.0 26.6 33.3 21.85 33.3 17.1 33.3 13.8 30.0 10.55 26.75 10.55 22.0 10.55 17.25 13.8 14.0 17.1 10.7 21.85 10.7 26.6 10.7 29.85 14.0 33.1 17.25 33.1 22.0 Z" fill="none" stroke="#234e74" stroke-linecap="round" stroke-linejoin="round" stroke-width="1.0"/>
      <path d="M37.4 22.05 Q37.4 28.6 32.9 33.1 28.4 37.65 21.85 37.65 15.3 37.65 10.8 33.1 6.3 28.6 6.3 22.05 6.3 15.5 10.8 11.0 15.3 6.5 21.85 6.5 28.4 6.5 32.9 11.0 37.4 15.5 37.4 22.05 Z" fill="none" stroke="#234e74" stroke-linecap="round" stroke-linejoin="round" stroke-width="1.0"/>
      <path d="M21.75 31.1 L21.75 39.7" fill="none" stroke="#234e74" stroke-linecap="round" stroke-linejoin="round" stroke-width="1.5"/>
      <path d="M24.35 35.6 L19.1 35.6" fill="none" stroke="#234e74" stroke-linecap="round" stroke-linejoin="round" stroke-width="1.5"/>
      <path d="M24.35 30.95 L19.1 30.95" fill="none" stroke="#234e74" stroke-linecap="round" stroke-linejoin="round" stroke-width="1.5"/>
      <path d="M31.1 22.15 L38.9 22.15" fill="none" stroke="#234e74" stroke-linecap="round" stroke-linejoin="round" stroke-width="1.5"/>
      <path d="M35.5 19.55 L35.5 24.8" fill="none" stroke="#234e74" stroke-linecap="round" stroke-linejoin="round" stroke-width="1.5"/>
      <path d="M30.85 19.55 L30.85 24.8" fill="none" stroke="#234e74" stroke-linecap="round" stroke-linejoin="round" stroke-width="1.5"/>
      <path d="M21.95 12.55 L21.95 4.5" fill="none" stroke="#234e74" stroke-linecap="round" stroke-linejoin="round" stroke-width="1.5"/>
      <path d="M19.35 8.1 L24.6 8.1" fill="none" stroke="#234e74" stroke-linecap="round" stroke-linejoin="round" stroke-width="1.5"/>
      <path d="M19.35 12.75 L24.6 12.75" fill="none" stroke="#234e74" stroke-linecap="round" stroke-linejoin="round" stroke-width="1.5"/>
      <path d="M12.5 21.9 L4.35 21.9" fill="none" stroke="#234e74" stroke-linecap="round" stroke-linejoin="round" stroke-width="1.5"/>
      <path d="M8.05 24.5 L8.05 19.25" fill="none" stroke="#234e74" stroke-linecap="round" stroke-linejoin="round" stroke-width="1.5"/>
      <path d="M12.7 24.5 L12.7 19.25" fill="none" stroke="#234e74" stroke-linecap="round" stroke-linejoin="round" stroke-width="1.5"/>
      <path d="M23.4 20.1 L26.6 20.1 26.6 23.4 23.4 23.4 23.4 26.8 20.05 26.8 20.05 23.4 16.8 23.4 16.8 20.1 20.05 20.1 20.05 17.0 23.4 17.0 23.4 20.1" fill="#234e74" fill-rule="evenodd" stroke="none"/>
    </g>
    <linearGradient gradientTransform="matrix(0.0, -0.0283, -0.0551, 0.0, 22.6, 21.95)" gradientUnits="userSpaceOnUse" id="gradient0" spreadMethod="pad" x1="-819.2" x2="819.2">
      <stop offset="0.023529411764705882" stop-color="#74a9d7"/>
      <stop offset="1.0" stop-color="#194a72"/>
    </linearGradient>
    <linearGradient gradientTransform="matrix(0.0, -0.0173, -0.0173, 0.0, 22.0, 18.45)" gradientUnits="userSpaceOnUse" id="gradient1" spreadMethod="pad" x1="-819.2" x2="819.2">
      <stop offset="0.011764705882352941" stop-color="#81b8e7"/>
      <stop offset="1.0" stop-color="#3d6e98"/>
    </linearGradient>
    <g id="sprite0" transform="matrix(1.0, 0.0, 0.0, 1.0, 0.0, 0.0)">
      <use height="20.15" transform="matrix(1.0, 0.0, 0.0, 1.0, 0.0, 0.0)" width="28.2" xlink:href="#shape1"/>
    </g>
    <g id="shape1" transform="matrix(1.0, 0.0, 0.0, 1.0, 0.0, 0.0)">
      <path d="M27.65 18.45 L27.4 18.95 Q26.2 20.8 23.4 19.8 19.6 18.5 17.35 14.05 14.8 9.1 9.75 7.4 4.1 5.65 0.0 10.3 1.0 6.85 3.7 4.15 7.2 0.65 11.9 0.05 L14.8 0.05 18.4 0.65 Q21.55 1.65 24.05 4.15 28.2 8.3 28.2 14.25 28.2 16.45 27.65 18.45" fill="#ffffff" fill-opacity="0.19607843" fill-rule="evenodd" stroke="none"/>
    </g>
    <g id="shape2" transform="matrix(1.0, 0.0, 0.0, 1.0, -0.3, -3.0)">
      <path d="M40.85 22.05 Q40.85 29.9 35.25 35.4 29.75 41.1 21.85 41.1 13.9 41.1 8.4 35.4 2.85 29.9 2.85 22.05 2.85 14.1 8.4 8.6 13.9 3.0 21.85 3.0 29.75 3.0 35.25 8.6 40.85 14.1 40.85 22.05 M33.7 10.3 Q28.75 5.45 21.85 5.4 14.95 5.45 10.1 10.3 5.2 15.15 5.15 22.05 5.2 29.0 10.1 33.85 14.95 38.75 21.85 38.75 28.75 38.75 33.7 33.85 38.5 29.0 38.5 22.05 38.5 15.15 33.7 10.3" fill="url(#gradient2)" fill-rule="evenodd" stroke="none"/>
      <path d="M0.7 30.75 L0.5 30.65 Q0.75 30.0 1.25 29.45 L1.8 30.0 1.85 29.9 2.4 29.5 2.6 29.4 2.25 28.7 3.7 28.4 3.7 29.2 3.75 29.2 4.65 29.3 4.9 28.6 5.9 29.2 6.1 29.35 5.55 29.9 5.65 29.9 5.8 30.15 6.15 30.75 6.9 30.45 7.15 31.8 6.4 31.8 6.2 32.85 6.95 33.15 6.7 33.6 6.15 34.25 6.15 34.3 5.55 33.75 4.7 34.3 4.9 34.7 5.05 35.0 4.85 35.1 3.75 35.3 3.7 35.3 3.7 34.95 3.7 34.45 2.75 34.25 2.45 35.0 1.5 34.45 1.3 34.25 1.25 34.2 1.65 33.85 1.85 33.65 1.65 33.35 1.3 32.85 0.55 33.2 0.3 32.3 0.3 31.8 1.1 31.8 1.1 31.35 1.25 30.9 0.7 30.75 M2.4 31.8 L2.5 32.35 2.6 32.45 2.75 32.7 2.8 32.75 3.2 33.05 3.7 33.15 3.75 33.15 4.2 33.1 4.65 32.85 4.7 32.75 5.0 32.35 5.15 31.8 5.0 31.25 4.7 30.8 4.7 30.75 4.4 30.6 4.2 30.5 3.75 30.4 3.7 30.4 Q3.35 30.45 3.1 30.6 L2.8 30.8 2.7 30.9 2.5 31.4 2.4 31.8" fill="#68a4d6" fill-rule="evenodd" stroke="none"/>
      <path d="M0.7 30.75 L1.25 30.9 1.1 31.35 0.5 31.15 0.7 30.75 M0.3 32.3 L0.55 33.2 1.3 32.85 1.65 33.35 1.85 33.65 1.65 33.85 1.3 33.35 0.55 33.7 0.3 32.3 M1.5 34.45 L2.45 35.0 2.75 34.25 3.7 34.45 3.7 34.95 2.75 34.75 2.45 35.5 1.3 34.75 1.25 34.7 1.5 34.45 M3.7 35.3 L3.75 35.3 4.85 35.1 5.05 35.5 3.75 35.8 3.7 35.8 3.7 35.3 M4.9 34.7 L4.7 34.3 5.55 33.75 6.15 34.3 6.15 34.25 6.7 33.6 6.95 33.65 6.15 34.75 6.15 34.8 5.55 34.25 4.9 34.7" fill="#346999" fill-rule="evenodd" stroke="none"/>
      <path d="M2.4 31.8 L2.5 31.4 2.7 30.9 2.8 30.8 3.1 30.6 Q3.35 30.45 3.7 30.4 L3.75 30.4 4.2 30.5 4.4 30.6 4.7 30.75 4.7 30.8 5.0 31.25 5.15 31.8 5.0 32.35 4.7 32.75 4.65 32.85 4.2 33.1 3.75 33.15 3.7 33.15 3.2 33.05 2.8 32.75 2.75 32.7 2.6 32.45 2.5 32.35 2.4 31.8" fill="#346a99" fill-rule="evenodd" stroke="none"/>
      <path d="M5.2 34.4 L5.1 34.15 Q6.05 33.7 7.2 33.7 L7.2 34.85 7.3 34.85 8.3 34.95 8.65 35.05 9.05 34.0 10.5 34.85 10.8 35.1 10.45 35.5 10.0 35.9 10.05 35.95 10.1 35.95 10.9 37.2 12.0 36.75 Q12.4 37.7 12.4 38.8 L11.8 38.8 11.25 38.8 11.2 39.3 10.95 40.35 12.05 40.75 Q11.7 41.7 10.9 42.45 L10.85 42.5 10.8 42.45 10.0 41.65 8.8 42.5 8.75 42.5 8.8 42.65 9.25 43.55 8.55 43.8 7.3 43.95 7.2 43.95 7.2 42.75 5.8 42.45 5.55 43.05 5.35 43.55 5.05 43.45 Q4.3 43.1 3.65 42.45 L3.55 42.35 4.45 41.5 4.15 41.1 3.65 40.4 3.65 40.35 2.55 40.85 2.15 39.3 2.15 38.8 2.8 38.8 3.35 38.8 3.55 37.45 2.45 37.05 3.1 35.85 3.6 35.25 4.4 36.1 4.4 36.05 4.5 35.95 4.95 35.6 5.55 35.2 5.2 34.4 M5.3 38.75 L5.3 38.8 5.45 39.55 5.55 39.7 5.8 40.1 5.9 40.15 6.5 40.6 7.2 40.75 7.3 40.75 7.95 40.7 8.3 40.55 8.65 40.3 8.75 40.15 9.15 39.6 9.35 38.8 9.35 38.75 9.15 37.95 8.75 37.3 8.7 37.2 8.3 36.95 7.95 36.8 7.3 36.7 7.2 36.7 Q6.7 36.75 6.35 37.0 6.1 37.1 5.9 37.3 L5.75 37.45 5.65 37.6 5.4 38.2 5.3 38.75" fill="#93badb" fill-rule="evenodd" stroke="none"/>
      <path d="M5.2 34.4 L5.55 35.2 4.95 35.6 4.55 34.65 5.2 34.4 M3.1 35.85 L2.45 37.05 3.55 37.45 3.35 38.8 2.8 38.8 3.0 37.95 1.9 37.55 Q2.25 36.55 3.05 35.75 L3.1 35.85 M2.15 39.3 L2.55 40.85 3.65 40.35 3.65 40.4 4.15 41.1 4.45 41.5 3.55 42.35 3.65 42.45 Q4.3 43.1 5.05 43.45 L5.0 43.6 3.2 42.65 3.9 42.0 3.6 41.6 3.1 40.9 3.1 40.85 2.0 41.35 Q1.6 40.4 1.6 39.3 L2.15 39.3 M5.55 43.05 L5.8 42.45 7.2 42.75 7.2 43.95 7.3 43.95 8.55 43.8 8.65 44.0 7.6 44.0 6.65 43.95 6.65 43.25 5.55 43.05 M8.8 42.65 L8.75 42.5 8.8 42.5 10.0 41.65 10.8 42.45 10.35 42.95 10.3 43.0 9.45 42.15 8.8 42.65 M11.2 39.3 L11.25 38.8 11.8 38.8 11.85 39.3 11.2 39.3" fill="#315e87" fill-rule="evenodd" stroke="none"/>
      <path d="M5.3 38.75 L5.4 38.2 5.65 37.6 5.75 37.45 5.9 37.3 Q6.1 37.1 6.35 37.0 6.7 36.75 7.2 36.7 L7.3 36.7 7.95 36.8 8.3 36.95 8.7 37.2 8.75 37.3 9.15 37.95 9.35 38.75 9.35 38.8 9.15 39.6 8.75 40.15 8.65 40.3 8.3 40.55 7.95 40.7 7.3 40.75 7.2 40.75 6.5 40.6 5.9 40.15 5.8 40.1 5.55 39.7 5.45 39.55 5.3 38.8 5.3 38.75" fill="#255073" fill-rule="evenodd" stroke="none"/>
      <path d="M41.5 31.6 L41.4 31.2 41.2 30.7 41.1 30.6 40.8 30.4 40.2 30.2 40.15 30.2 39.7 30.3 39.5 30.4 39.2 30.55 39.2 30.6 38.9 31.05 Q38.75 31.3 38.75 31.6 38.75 31.95 38.9 32.15 L39.2 32.55 39.25 32.65 39.7 32.9 40.15 32.95 40.2 32.95 40.7 32.85 41.1 32.55 41.15 32.5 41.3 32.25 41.4 32.15 41.5 31.6 M37.2 33.4 L36.95 32.95 37.7 32.65 37.5 31.6 36.75 31.6 37.0 30.25 37.75 30.55 Q37.85 30.2 38.1 29.95 L38.25 29.7 38.35 29.7 37.8 29.15 38.0 29.0 39.0 28.4 39.25 29.1 40.15 29.0 40.2 29.0 40.2 28.2 Q41.0 28.2 41.65 28.5 L41.3 29.2 41.5 29.3 42.05 29.7 42.1 29.8 42.65 29.25 43.4 30.45 43.2 30.55 42.65 30.7 42.8 31.15 42.8 31.6 43.6 31.6 43.6 32.1 43.35 33.0 42.6 32.65 42.25 33.15 42.05 33.45 42.25 33.65 42.65 34.0 42.6 34.05 42.4 34.25 41.45 34.8 41.15 34.05 40.2 34.25 40.2 34.75 40.2 35.1 40.15 35.1 39.05 34.9 38.85 34.8 39.0 34.5 39.2 34.1 38.35 33.55 37.75 34.1 37.75 34.05 37.2 33.4" fill="#68a4d6" fill-rule="evenodd" stroke="none"/>
      <path d="M41.5 31.6 L41.4 32.15 41.3 32.25 41.15 32.5 41.1 32.55 40.7 32.85 40.2 32.95 40.15 32.95 39.7 32.9 39.25 32.65 39.2 32.55 38.9 32.15 Q38.75 31.95 38.75 31.6 38.75 31.3 38.9 31.05 L39.2 30.6 39.2 30.55 39.5 30.4 39.7 30.3 40.15 30.2 40.2 30.2 40.8 30.4 41.1 30.6 41.2 30.7 41.4 31.2 41.5 31.6" fill="#346a99" fill-rule="evenodd" stroke="none"/>
      <path d="M43.2 30.55 L43.4 30.95 42.8 31.15 42.65 30.7 43.2 30.55 M43.6 32.1 L43.35 33.5 42.6 33.15 42.25 33.65 42.05 33.45 42.25 33.15 42.6 32.65 43.35 33.0 43.6 32.1 M42.4 34.25 L42.65 34.5 42.6 34.55 41.45 35.3 41.15 34.55 40.2 34.75 40.2 34.25 41.15 34.05 41.45 34.8 42.4 34.25 M40.2 35.1 L40.2 35.6 40.15 35.6 38.85 35.3 39.05 34.9 40.15 35.1 40.2 35.1 M39.0 34.5 L38.35 34.05 37.75 34.6 37.75 34.55 36.95 33.45 37.2 33.4 37.75 34.05 37.75 34.1 38.35 33.55 39.2 34.1 39.0 34.5" fill="#346999" fill-rule="evenodd" stroke="none"/>
      <path d="M41.2 38.8 L40.65 38.8 40.45 37.45 41.55 37.05 40.9 35.85 40.95 35.75 42.1 37.55 41.0 37.95 41.2 38.8 M39.05 35.6 L38.45 35.2 38.8 34.4 39.45 34.65 39.05 35.6 M32.2 38.8 L32.75 38.8 32.8 39.3 32.15 39.3 32.2 38.8 M33.2 42.45 L34.0 41.65 35.2 42.5 35.25 42.5 35.2 42.65 34.55 42.15 33.7 43.0 33.65 42.95 33.2 42.45 M35.45 43.8 L36.7 43.95 36.8 43.95 36.8 42.75 38.2 42.45 38.45 43.05 37.35 43.25 37.35 43.95 36.4 44.0 35.35 44.0 35.45 43.8 M38.95 43.45 L40.35 42.45 40.45 42.35 39.55 41.5 39.85 41.1 40.35 40.4 40.35 40.35 41.45 40.85 41.85 39.3 42.4 39.3 Q42.4 40.4 42.0 41.35 L40.9 40.85 40.9 40.9 40.4 41.6 40.1 42.0 40.8 42.65 39.0 43.6 38.95 43.45" fill="#315e87" fill-rule="evenodd" stroke="none"/>
      <path d="M40.9 35.85 L41.55 37.05 40.45 37.45 40.65 38.8 41.2 38.8 41.85 38.8 41.85 39.3 41.45 40.85 40.35 40.35 40.35 40.4 39.85 41.1 39.55 41.5 40.45 42.35 40.35 42.45 38.95 43.45 38.65 43.55 38.45 43.05 38.2 42.45 36.8 42.75 36.8 43.95 36.7 43.95 35.45 43.8 34.75 43.55 35.2 42.65 35.25 42.5 35.2 42.5 34.0 41.65 33.2 42.45 33.15 42.5 33.1 42.45 Q32.3 41.7 31.95 40.75 L33.05 40.35 32.8 39.3 32.75 38.8 32.2 38.8 31.6 38.8 Q31.6 37.7 32.0 36.75 L33.1 37.2 Q33.35 36.5 33.9 35.95 L33.95 35.95 34.0 35.9 33.55 35.5 33.2 35.1 33.5 34.85 Q34.15 34.3 34.95 34.0 L35.35 35.05 35.7 34.95 36.7 34.85 36.8 34.85 36.8 33.7 Q37.95 33.7 38.9 34.15 L38.8 34.4 38.45 35.2 39.05 35.6 39.5 35.95 39.6 36.05 39.6 36.1 40.4 35.25 40.9 35.85 M38.7 38.75 L38.6 38.2 38.35 37.6 38.25 37.45 38.1 37.3 37.65 37.0 36.8 36.7 36.7 36.7 36.05 36.8 35.7 36.95 35.3 37.2 35.25 37.3 34.85 37.95 34.65 38.75 34.65 38.8 34.85 39.6 35.25 40.15 35.35 40.3 35.7 40.55 36.05 40.7 36.7 40.75 36.8 40.75 37.5 40.6 38.1 40.15 38.2 40.1 38.45 39.7 38.55 39.55 38.7 38.8 38.7 38.75" fill="#93badb" fill-rule="evenodd" stroke="none"/>
      <path d="M38.7 38.75 L38.7 38.8 38.55 39.55 38.45 39.7 38.2 40.1 38.1 40.15 37.5 40.6 36.8 40.75 36.7 40.75 36.05 40.7 35.7 40.55 35.35 40.3 35.25 40.15 34.85 39.6 34.65 38.8 34.65 38.75 34.85 37.95 35.25 37.3 35.3 37.2 35.7 36.95 36.05 36.8 36.7 36.7 36.8 36.7 37.65 37.0 38.1 37.3 38.25 37.45 38.35 37.6 38.6 38.2 38.7 38.75" fill="#255073" fill-rule="evenodd" stroke="none"/>
    </g>
    <linearGradient gradientTransform="matrix(0.0, 0.0247, -0.0232, 0.0, 22.1, 22.15)" gradientUnits="userSpaceOnUse" id="gradient2" spreadMethod="pad" x1="-819.2" x2="819.2">
      <stop offset="0.00784313725490196" stop-color="#0f2c46"/>
      <stop offset="0.984313725490196" stop-color="#376e9f"/>
      <stop offset="1.0" stop-color="#4a8ac2"/>
    </linearGradient>
    <g id="sprite2" transform="matrix(1.0, 0.0, 0.0, 1.0, 0.2, 0.0)">
      <use height="8.6" transform="matrix(1.0, 0.0, 0.0, 1.0, -0.2, 0.0)" width="35.05" xlink:href="#shape3"/>
    </g>
    <g id="shape3" transform="matrix(1.0, 0.0, 0.0, 1.0, 0.2, 0.0)">
      <path d="M34.85 8.6 Q34.8 6.95 34.4 5.7 33.0 1.3 27.2 1.3 L7.45 1.3 Q0.05 1.3 -0.2 8.5 L-0.2 7.65 Q-0.2 0.0 7.45 0.0 L27.2 0.0 Q33.0 0.0 34.4 4.4 34.85 5.8 34.85 7.65 L34.85 8.6" fill="#e7deda" fill-rule="evenodd" stroke="none"/>
    </g>
  </defs>
</svg>
