<?xml version="1.0" encoding="UTF-8" standalone="no"?>
<svg xmlns:xlink="http://www.w3.org/1999/xlink" height="66.0px" width="66.0px" xmlns="http://www.w3.org/2000/svg">
  <g transform="matrix(1.5, 0.0, 0.0, 1.5, 0.0, 0.0)">
    <use height="37.1" transform="matrix(1.0, 0.0, 0.0, 1.0, 3.4, 3.5)" width="37.2" xlink:href="#shape0"/>
    <use height="0.0" transform="matrix(1.1594, 0.0, 0.0, 1.1594, 5.8, 5.25)" width="0.0" xlink:href="#sprite0"/>
    <use height="44.0" transform="matrix(1.0, 0.0, 0.0, 1.0, 0.0, 0.0)" width="44.0" xlink:href="#shape1"/>
    <use height="8.6" transform="matrix(1.2125, 0.0, 0.0, 1.2125, 0.8575, 0.95)" width="35.05" xlink:href="#sprite1"/>
    <use height="40.9" transform="matrix(1.0, 0.0, 0.0, 1.0, 0.0, 3.1)" width="43.95" xlink:href="#shape3"/>
    <use height="0.0" transform="matrix(1.1594, 0.0, 0.0, 1.1594, 5.8, 5.25)" width="0.0" xlink:href="#sprite0"/>
    <use height="44.0" transform="matrix(1.0, 0.0, 0.0, 1.0, 0.0, 0.0)" width="44.0" xlink:href="#shape4"/>
    <use height="8.6" transform="matrix(1.2125, 0.0, 0.0, 1.2125, 0.8575, 0.95)" width="35.05" xlink:href="#sprite1"/>
    <use height="17.95" transform="matrix(1.0, 0.0, 0.0, 1.0, 0.0, 26.05)" width="43.95" xlink:href="#shape5"/>
    <use height="20.15" transform="matrix(1.1594, 0.0, 0.0, 1.1594, 5.8, 5.25)" width="28.2" xlink:href="#sprite2"/>
  </g>
  <defs>
    <g id="shape0" transform="matrix(1.0, 0.0, 0.0, 1.0, -3.4, -3.5)">
      <path d="M3.4 22.05 Q3.4 14.35 8.85 8.95 14.3 3.5 22.05 3.5 29.75 3.5 35.2 8.95 40.6 14.4 40.6 22.05 40.6 29.75 35.2 35.2 29.75 40.6 22.05 40.6 14.3 40.6 8.85 35.2 3.4 29.75 3.4 22.05" fill="url(#gradient0)" fill-rule="evenodd" stroke="none"/>
    </g>
    <linearGradient gradientTransform="matrix(0.0, -0.017, -0.0173, 0.0, 21.0, 26.95)" gradientUnits="userSpaceOnUse" id="gradient0" spreadMethod="pad" x1="-819.2" x2="819.2">
      <stop offset="0.011764705882352941" stop-color="#dad67d"/>
      <stop offset="1.0" stop-color="#cfa451"/>
    </linearGradient>
    <g id="shape1" transform="matrix(1.0, 0.0, 0.0, 1.0, 0.0, 0.0)">
      <path d="M41.8 2.3 Q44.0 4.5 44.0 7.6 L44.0 36.4 Q44.0 39.6 41.8 41.8 39.6 44.0 36.4 44.0 L7.6 44.0 Q4.45 44.0 2.25 41.8 0.0 39.6 0.0 36.4 L0.0 7.6 Q0.0 4.5 2.25 2.3 4.45 0.0 7.6 0.0 L36.4 0.0 Q39.55 0.0 41.8 2.3 M40.85 22.05 Q40.85 14.1 35.25 8.6 29.75 3.05 21.85 3.05 13.9 3.05 8.4 8.6 2.85 14.1 2.85 22.05 2.85 29.95 8.4 35.45 13.9 41.1 21.85 41.1 29.75 41.1 35.25 35.45 40.85 29.95 40.85 22.05" fill="url(#gradient1)" fill-rule="evenodd" stroke="none"/>
      <path d="M40.85 22.05 Q40.85 29.95 35.25 35.45 29.75 41.1 21.85 41.1 13.9 41.1 8.4 35.45 2.85 29.95 2.85 22.05 2.85 14.1 8.4 8.6 13.9 3.05 21.85 3.05 29.75 3.05 35.25 8.6 40.85 14.1 40.85 22.05 M33.7 10.35 Q28.75 5.45 21.85 5.4 14.95 5.45 10.1 10.35 5.2 15.15 5.15 22.05 5.2 29.0 10.1 33.85 14.95 38.75 21.85 38.75 28.75 38.75 33.7 33.85 38.5 29.0 38.5 22.05 38.5 15.15 33.7 10.35" fill="url(#gradient2)" fill-rule="evenodd" stroke="none"/>
    </g>
    <linearGradient gradientTransform="matrix(0.0, -0.0258, -0.0551, 0.0, 21.85, 21.85)" gradientUnits="userSpaceOnUse" id="gradient1" spreadMethod="pad" x1="-819.2" x2="819.2">
      <stop offset="0.011764705882352941" stop-color="#c79829"/>
      <stop offset="1.0" stop-color="#be7d1e"/>
    </linearGradient>
    <linearGradient gradientTransform="matrix(1.0E-4, 0.0223, -0.0232, 1.0E-4, 21.9, 22.3)" gradientUnits="userSpaceOnUse" id="gradient2" spreadMethod="pad" x1="-819.2" x2="819.2">
      <stop offset="0.011764705882352941" stop-color="#8d5910"/>
      <stop offset="1.0" stop-color="#d9d597"/>
    </linearGradient>
    <g id="sprite1" transform="matrix(1.0, 0.0, 0.0, 1.0, 0.2, 0.0)">
      <use height="8.6" transform="matrix(1.0, 0.0, 0.0, 1.0, -0.2, 0.0)" width="35.05" xlink:href="#shape2"/>
    </g>
    <g id="shape2" transform="matrix(1.0, 0.0, 0.0, 1.0, 0.2, 0.0)">
      <path d="M34.85 8.6 Q34.8 6.95 34.4 5.7 33.0 1.3 27.2 1.3 L7.45 1.3 Q0.05 1.3 -0.2 8.5 L-0.2 7.65 Q-0.2 0.0 7.45 0.0 L27.2 0.0 Q33.0 0.0 34.4 4.4 34.85 5.8 34.85 7.65 L34.85 8.6" fill="#e7deda" fill-rule="evenodd" stroke="none"/>
    </g>
    <g id="shape3" transform="matrix(1.0, 0.0, 0.0, 1.0, 0.0, -3.1)">
      <path d="M38.85 27.95 L39.3 26.8 39.7 26.3 Q40.05 26.05 40.4 26.05 L41.05 26.3 41.5 26.85 41.9 27.95 43.05 27.95 43.75 28.2 43.95 28.35 43.95 29.95 43.7 30.1 42.85 30.75 43.25 32.1 43.25 32.8 42.8 33.35 42.1 33.55 41.45 33.3 41.2 33.15 41.15 35.7 43.55 36.65 Q43.75 36.7 43.95 36.9 L43.6 38.8 43.4 38.85 40.85 39.5 40.65 42.45 40.5 42.75 39.25 43.5 39.0 43.45 38.5 43.0 37.0 40.45 34.2 41.2 33.85 41.2 33.0 41.8 33.4 43.15 33.4 43.85 33.3 44.0 31.15 44.0 30.55 43.6 29.9 44.0 27.7 44.0 27.65 43.8 27.65 43.1 28.05 41.8 27.15 41.2 26.75 40.6 Q26.6 40.2 26.75 39.85 L27.15 39.25 27.85 39.05 29.0 39.05 29.45 37.9 Q29.6 37.55 29.85 37.35 L30.55 37.15 31.2 37.35 31.65 37.95 32.05 39.05 33.2 39.05 34.85 37.05 33.55 34.85 33.4 34.15 33.7 33.45 Q33.9 33.2 34.25 33.15 L34.95 33.2 37.35 34.15 38.05 33.4 37.9 33.3 37.5 32.7 37.5 32.0 37.9 30.75 37.0 30.1 36.6 29.55 Q36.45 29.15 36.6 28.8 L37.0 28.2 Q37.3 27.95 37.7 27.95 L38.85 27.95 M30.65 38.7 L30.4 38.7 29.8 40.2 28.2 40.2 28.1 40.45 29.45 41.35 28.85 43.1 29.05 43.2 30.55 42.15 31.95 43.2 32.2 43.1 31.65 41.35 32.8 40.5 32.75 40.2 31.25 40.2 30.65 38.7 M37.7 35.5 L34.55 34.25 36.3 37.2 33.9 40.0 37.55 39.1 39.5 42.35 39.75 38.6 43.15 37.7 40.0 36.45 40.05 33.0 37.7 35.5 M39.65 29.15 L38.05 29.15 37.95 29.35 39.3 30.3 38.75 32.0 38.9 32.15 40.4 31.1 41.8 32.15 42.05 32.0 41.5 30.3 42.8 29.35 42.65 29.15 41.1 29.15 40.5 27.6 40.25 27.6 39.65 29.15" fill="url(#gradient3)" fill-rule="evenodd" stroke="none"/>
      <path d="M42.2 29.75 L41.5 30.3 41.5 30.9 41.85 32.2 40.4 31.1 38.9 32.2 39.3 30.9 39.3 30.3 38.55 29.75 39.65 29.75 40.4 27.85 41.1 29.75 42.2 29.75 M40.0 36.45 L40.0 37.05 42.15 38.0 39.75 38.6 39.5 42.35 37.55 39.1 34.55 39.85 36.3 37.8 36.3 37.2 35.0 35.1 37.7 36.15 40.05 33.65 40.0 36.45 M32.35 40.85 L31.65 41.35 31.65 42.0 32.0 43.25 30.55 42.15 29.05 43.25 29.45 42.0 29.45 41.35 28.7 40.85 29.8 40.85 30.55 38.9 31.25 40.85 32.35 40.85" fill="#815815" fill-rule="evenodd" stroke="none"/>
      <path d="M38.55 29.75 L37.7 29.15 39.65 29.15 40.4 27.2 41.1 29.15 43.05 29.15 42.2 29.75 41.1 29.75 40.4 27.85 39.65 29.75 38.55 29.75 M41.5 30.3 L42.15 32.35 41.85 32.2 41.5 30.9 41.5 30.3 M38.9 32.2 L38.6 32.35 39.3 30.3 39.3 30.9 38.9 32.2 M40.0 36.45 L43.15 37.7 42.15 38.0 40.0 37.05 40.0 36.45 M34.55 39.85 L33.9 40.0 36.3 37.2 36.3 37.8 34.55 39.85 M35.0 35.1 L34.55 34.25 37.7 35.5 40.05 33.0 40.05 33.65 37.7 36.15 35.0 35.1 M28.7 40.85 L27.85 40.2 29.8 40.2 30.55 38.3 31.25 40.2 33.2 40.2 32.35 40.85 31.25 40.85 30.55 38.9 29.8 40.85 28.7 40.85 M31.65 41.35 L32.3 43.45 32.0 43.25 31.65 42.0 31.65 41.35 M29.05 43.25 L28.75 43.45 29.45 41.35 29.45 42.0 29.05 43.25" fill="#674512" fill-rule="evenodd" stroke="none"/>
      <path d="M5.1 27.95 L6.25 27.95 6.95 28.2 7.35 28.8 7.35 29.55 6.95 30.1 6.05 30.75 6.45 32.0 6.45 32.7 6.05 33.3 5.9 33.4 6.6 34.15 9.0 33.2 9.7 33.15 10.25 33.45 10.55 34.15 10.4 34.85 9.1 37.05 10.75 39.05 11.9 39.05 12.3 37.95 Q12.4 37.55 12.75 37.35 L13.4 37.15 14.1 37.35 14.5 37.9 14.95 39.05 16.1 39.05 16.8 39.25 17.2 39.85 17.2 40.6 16.8 41.2 15.9 41.8 16.3 43.1 16.3 43.8 16.25 44.0 14.05 44.0 13.4 43.6 12.8 44.0 10.65 44.0 10.55 43.85 10.55 43.15 10.95 41.8 10.1 41.2 9.75 41.2 6.95 40.45 5.45 43.0 4.95 43.45 4.7 43.5 3.45 42.75 3.3 42.45 3.1 39.5 0.55 38.85 0.35 38.8 0.0 36.9 0.4 36.65 2.8 35.7 2.75 33.15 2.5 33.3 1.85 33.55 Q1.45 33.55 1.15 33.35 L0.7 32.8 0.7 32.1 1.1 30.75 0.25 30.1 0.0 29.95 0.0 28.35 0.2 28.2 0.9 27.95 2.05 27.95 2.45 26.85 Q2.55 26.45 2.9 26.3 L3.55 26.05 Q3.9 26.05 4.25 26.3 L4.65 26.8 5.1 27.95 M4.3 29.15 L3.7 27.6 3.45 27.6 2.85 29.15 1.3 29.15 1.15 29.35 2.45 30.3 1.9 32.0 2.15 32.15 3.55 31.1 5.05 32.15 5.2 32.0 4.65 30.3 6.0 29.35 5.9 29.15 4.3 29.15 M6.25 35.5 L3.9 33.0 3.95 36.45 0.8 37.7 4.2 38.6 4.45 42.35 6.4 39.1 10.05 40.0 7.65 37.2 9.4 34.25 6.25 35.5 M13.3 38.7 L12.7 40.2 11.2 40.2 11.15 40.5 12.3 41.35 11.75 43.1 12.0 43.2 13.4 42.15 14.9 43.2 15.1 43.1 14.5 41.35 15.85 40.45 15.75 40.2 14.15 40.2 13.55 38.7 13.3 38.7" fill="url(#gradient4)" fill-rule="evenodd" stroke="none"/>
      <path d="M1.75 29.75 L0.9 29.15 2.85 29.15 3.55 27.2 4.3 29.15 6.25 29.15 5.4 29.75 4.3 29.75 3.55 27.85 2.85 29.75 1.75 29.75 M4.65 30.3 L5.35 32.35 5.05 32.2 4.65 30.9 4.65 30.3 M2.1 32.2 L1.8 32.35 2.45 30.3 2.45 30.9 2.1 32.2 M3.9 33.65 L3.9 33.0 6.25 35.5 9.4 34.25 8.95 35.1 6.25 36.15 3.9 33.65 M7.65 37.2 L10.05 40.0 9.4 39.85 7.65 37.8 7.65 37.2 M1.8 38.0 L0.8 37.7 3.95 36.45 3.95 37.05 1.8 38.0 M11.6 40.85 L10.75 40.2 12.7 40.2 13.4 38.3 14.15 40.2 16.1 40.2 15.25 40.85 14.15 40.85 13.4 38.9 12.7 40.85 11.6 40.85 M14.5 41.35 L15.2 43.45 14.9 43.25 14.5 42.0 14.5 41.35 M11.95 43.25 L11.65 43.45 12.3 41.35 12.3 42.0 11.95 43.25" fill="#674512" fill-rule="evenodd" stroke="none"/>
      <path d="M1.75 29.75 L2.85 29.75 3.55 27.85 4.3 29.75 5.4 29.75 4.65 30.3 4.65 30.9 5.05 32.2 3.55 31.1 2.1 32.2 2.45 30.9 2.45 30.3 1.75 29.75 M8.95 35.1 L7.65 37.2 7.65 37.8 9.4 39.85 6.4 39.1 4.45 42.35 4.2 38.6 1.8 38.0 3.95 37.05 3.95 36.45 3.9 33.65 6.25 36.15 8.95 35.1 M11.6 40.85 L12.7 40.85 13.4 38.9 14.15 40.85 15.25 40.85 14.5 41.35 14.5 42.0 14.9 43.25 13.4 42.15 11.95 43.25 12.3 42.0 12.3 41.35 11.6 40.85" fill="#815815" fill-rule="evenodd" stroke="none"/>
      <path d="M35.35 8.55 Q40.75 14.0 40.75 21.65 40.75 29.35 35.35 34.8 29.9 40.2 22.2 40.2 14.45 40.2 9.0 34.8 3.55 29.35 3.55 21.65 3.55 13.95 9.0 8.55 14.45 3.1 22.2 3.1 29.9 3.1 35.35 8.55" fill="url(#gradient5)" fill-rule="evenodd" stroke="none"/>
    </g>
    <linearGradient gradientTransform="matrix(0.0, -0.0258, -0.0551, 0.0, 21.85, 21.85)" gradientUnits="userSpaceOnUse" id="gradient3" spreadMethod="pad" x1="-819.2" x2="819.2">
      <stop offset="0.011764705882352941" stop-color="#c79829"/>
      <stop offset="1.0" stop-color="#be7d1e"/>
    </linearGradient>
    <linearGradient gradientTransform="matrix(0.0, -0.0258, 0.0551, 0.0, 22.05, 21.85)" gradientUnits="userSpaceOnUse" id="gradient4" spreadMethod="pad" x1="-819.2" x2="819.2">
      <stop offset="0.011764705882352941" stop-color="#c79829"/>
      <stop offset="1.0" stop-color="#be7d1e"/>
    </linearGradient>
    <linearGradient gradientTransform="matrix(0.0056, 0.0, 0.0, 0.0043, -24.4, 41.35)" gradientUnits="userSpaceOnUse" id="gradient5" spreadMethod="pad" x1="-819.2" x2="819.2">
      <stop offset="0.011764705882352941" stop-color="#c79829"/>
      <stop offset="1.0" stop-color="#be7d1e"/>
    </linearGradient>
    <g id="shape4" transform="matrix(1.0, 0.0, 0.0, 1.0, 0.0, 0.0)">
      <path d="M14.55 28.95 Q14.65 31.55 12.95 32.55 L9.75 29.25 Q11.85 26.95 13.45 27.95 L16.0 25.45 16.05 25.55 16.05 25.45 20.05 26.15 21.75 19.05 24.35 20.55 25.65 17.7 25.25 17.35 26.2 16.4 26.25 16.3 26.3 16.35 26.75 15.85 23.85 13.45 Q29.25 9.95 32.55 12.45 33.9 15.8 31.05 20.65 L28.55 17.65 27.05 19.1 26.6 18.65 24.9 22.6 22.35 21.15 20.85 27.7 16.2 27.25 14.55 28.95 M25.9 13.6 Q28.45 11.95 31.5 12.6 27.6 11.1 25.9 13.6 M20.95 17.75 Q20.95 19.45 19.7 20.65 18.5 21.9 16.8 21.9 15.1 21.9 13.85 20.65 12.65 19.45 12.65 17.75 12.65 16.05 13.85 14.8 15.1 13.6 16.8 13.6 18.5 13.6 19.7 14.8 20.95 16.05 20.95 17.75 M19.4 17.8 Q19.4 16.75 18.65 15.95 17.9 15.2 16.8 15.2 15.75 15.2 14.95 15.95 14.2 16.75 14.2 17.8 14.2 18.85 14.95 19.6 15.75 20.4 16.8 20.4 17.9 20.4 18.65 19.6 19.4 18.85 19.4 17.8 M13.05 29.15 Q12.5 28.6 11.5 29.4 L12.75 30.75 Q13.7 29.6 13.05 29.15 M30.15 29.95 Q30.15 31.65 28.9 32.85 27.7 34.1 26.0 34.1 24.3 34.1 23.05 32.85 21.85 31.65 21.85 29.95 21.85 28.25 23.05 27.0 24.3 25.8 26.0 25.8 27.7 25.8 28.9 27.0 30.15 28.25 30.15 29.95 M28.6 30.0 Q28.6 28.95 27.85 28.15 27.1 27.4 26.0 27.4 24.95 27.4 24.15 28.15 23.4 28.95 23.4 30.0 23.4 31.05 24.15 31.8 24.95 32.6 26.0 32.6 27.1 32.6 27.85 31.8 28.6 31.05 28.6 30.0" fill="#664411" fill-rule="evenodd" stroke="none"/>
      <path d="M26.3 14.8 L26.3 13.95 26.35 13.9 26.55 13.65 26.55 14.8 32.3 14.8 32.3 13.25 Q32.65 14.7 32.3 16.45 L32.3 15.05 26.55 15.05 26.25 14.8 26.3 14.8 M32.55 8.8 L34.95 8.8 34.95 9.05 32.55 9.05 32.55 11.85 32.3 11.65 32.3 9.05 26.55 9.05 26.55 11.5 26.3 11.6 26.3 9.05 20.55 9.05 20.55 14.8 24.7 14.8 25.0 15.05 20.55 15.05 20.3 14.7 20.3 9.05 14.55 9.05 14.55 13.7 Q14.4 13.75 14.3 13.85 L14.3 9.05 10.85 9.05 10.75 9.0 10.75 8.9 10.75 8.8 10.85 8.8 14.3 8.8 14.3 5.85 14.55 5.85 14.55 8.8 20.3 8.8 20.3 4.9 20.3 4.8 20.4 4.8 20.5 4.8 20.55 4.9 20.55 8.8 26.3 8.8 26.3 4.9 26.3 4.8 26.4 4.8 26.5 4.8 26.55 4.9 26.55 8.8 32.3 8.8 32.3 6.8 32.55 6.8 32.55 8.8 M26.5 16.85 L26.55 16.8 26.55 18.15 26.35 18.25 26.3 18.3 26.3 17.05 26.5 16.85 M20.45 17.75 L20.3 18.9 20.3 16.65 20.45 17.75 M24.65 21.0 L24.8 20.8 25.15 20.8 25.05 21.05 24.55 21.05 24.65 21.0 M24.1 21.0 L24.2 21.05 23.15 21.05 22.7 20.8 23.75 20.8 24.1 21.0 M22.05 20.8 L21.9 21.05 21.8 21.05 21.85 20.8 22.05 20.8 M14.3 21.65 L14.55 21.8 14.55 26.2 14.3 26.45 14.3 21.65 M14.55 20.6 L14.3 20.4 14.3 19.6 14.55 19.9 14.55 20.6 M14.55 15.05 L14.55 15.65 14.3 16.0 14.3 15.1 14.65 14.8 16.1 14.8 Q15.7 14.85 15.4 15.05 L14.55 15.05 M18.95 14.8 L19.25 15.05 18.25 15.05 Q17.9 14.85 17.55 14.8 L18.95 14.8 M4.4 21.05 L4.3 21.0 4.3 20.9 4.3 20.8 4.4 20.8 8.3 20.8 8.3 15.05 5.25 15.05 5.25 14.8 8.3 14.8 8.3 11.25 8.3 11.15 8.4 11.15 8.5 11.15 8.55 11.25 8.55 14.8 13.2 14.8 13.0 15.05 8.55 15.05 8.55 20.8 13.3 20.8 13.5 21.0 13.55 21.05 8.55 21.05 8.55 26.8 13.95 26.8 13.7 27.05 8.55 27.05 8.55 32.8 12.5 32.8 12.6 32.9 12.8 33.05 8.55 33.05 8.55 35.75 8.45 35.65 8.3 35.5 8.3 33.05 7.1 33.05 7.1 32.8 8.3 32.8 8.3 27.05 4.4 27.05 4.3 27.0 4.3 26.9 4.3 26.8 4.4 26.8 8.3 26.8 8.3 21.05 4.4 21.05 M38.3 21.05 L32.55 21.05 32.55 26.8 38.3 26.8 38.3 21.05 M38.3 20.8 L38.3 15.55 38.55 15.55 38.55 20.8 39.7 20.8 39.7 21.05 38.55 21.05 38.55 26.8 39.5 26.8 39.5 27.05 38.55 27.05 38.55 30.7 38.3 30.7 38.3 27.05 32.55 27.05 32.55 32.8 36.4 32.8 36.4 33.05 32.55 33.05 32.55 36.7 32.3 36.7 32.3 33.05 29.45 33.05 29.65 32.8 32.3 32.8 32.3 27.05 29.6 27.05 29.4 26.8 32.3 26.8 32.3 21.05 31.4 21.05 31.5 20.9 31.55 20.8 32.3 20.8 32.3 19.45 32.55 18.9 32.55 20.8 38.3 20.8 M33.5 15.05 L33.5 14.8 37.95 14.8 37.95 15.05 33.5 15.05 M26.3 20.8 L26.3 20.65 26.55 20.1 26.55 20.8 30.55 20.8 30.65 20.95 30.75 21.05 26.55 21.05 26.55 25.35 26.3 25.3 26.3 21.05 26.15 21.05 26.25 20.8 26.3 20.8 M16.8 20.9 L17.7 20.8 18.8 20.8 18.4 21.05 15.2 21.05 14.8 20.8 15.95 20.8 16.8 20.9 M16.05 26.8 L15.85 26.9 15.75 27.05 15.1 27.05 15.35 26.8 16.05 26.8 M26.55 33.6 L26.3 33.6 26.3 33.1 26.55 33.05 26.55 33.6 M28.25 32.8 L27.95 33.05 26.7 33.05 27.4 32.8 28.25 32.8 M24.05 33.05 L23.7 32.8 24.65 32.8 25.35 33.05 24.05 33.05 M26.55 26.8 L27.8 26.8 28.2 27.05 26.9 27.05 26.0 26.9 25.1 27.05 23.8 27.05 24.15 26.8 26.3 26.8 26.3 26.3 26.55 26.35 26.55 26.8 M14.3 32.8 L14.3 32.05 14.55 31.65 14.55 32.8 20.3 32.8 20.3 28.15 20.55 28.2 20.55 32.8 22.35 32.8 22.55 33.05 20.55 33.05 20.55 38.8 26.3 38.8 26.3 34.6 26.55 34.6 26.55 38.8 29.85 38.8 29.85 39.05 26.55 39.05 26.55 39.95 26.3 39.95 26.3 39.05 20.55 39.05 20.55 40.55 20.3 40.55 20.3 39.05 15.15 39.05 15.15 38.8 20.3 38.8 20.3 33.05 14.55 33.05 14.55 38.2 14.3 38.2 14.3 33.05 13.1 33.05 13.2 33.0 13.55 32.8 14.3 32.8 M14.55 28.3 L14.3 28.55 14.3 27.85 14.55 27.6 14.55 28.3 M20.55 26.8 L20.5 27.15 20.3 27.15 20.3 27.05 19.2 27.05 16.55 26.8 20.3 26.8 20.3 26.6 20.35 26.6 20.55 26.3 20.55 26.8" fill="#664411" fill-rule="evenodd" stroke="none"/>
      <path d="M41.8 2.3 Q44.0 4.5 44.0 7.6 L44.0 36.4 Q44.0 39.6 41.8 41.8 39.6 44.0 36.4 44.0 L7.6 44.0 Q4.45 44.0 2.25 41.8 0.0 39.6 0.0 36.4 L0.0 7.6 Q0.0 4.5 2.25 2.3 4.45 0.0 7.6 0.0 L36.4 0.0 Q39.55 0.0 41.8 2.3 M40.85 22.05 Q40.85 14.1 35.25 8.6 29.75 3.05 21.85 3.05 13.9 3.05 8.4 8.6 2.85 14.1 2.85 22.05 2.85 29.95 8.4 35.45 13.9 41.1 21.85 41.1 29.75 41.1 35.25 35.45 40.85 29.95 40.85 22.05" fill="url(#gradient6)" fill-rule="evenodd" stroke="none"/>
      <path d="M40.85 22.05 Q40.85 29.95 35.25 35.45 29.75 41.1 21.85 41.1 13.9 41.1 8.4 35.45 2.85 29.95 2.85 22.05 2.85 14.1 8.4 8.6 13.9 3.05 21.85 3.05 29.75 3.05 35.25 8.6 40.85 14.1 40.85 22.05 M33.7 10.35 Q28.75 5.45 21.85 5.4 14.95 5.45 10.1 10.35 5.2 15.15 5.15 22.05 5.2 29.0 10.1 33.85 14.95 38.75 21.85 38.75 28.75 38.75 33.7 33.85 38.5 29.0 38.5 22.05 38.5 15.15 33.7 10.35" fill="url(#gradient7)" fill-rule="evenodd" stroke="none"/>
    </g>
    <linearGradient gradientTransform="matrix(0.0, -0.0258, -0.0551, 0.0, 21.85, 21.85)" gradientUnits="userSpaceOnUse" id="gradient6" spreadMethod="pad" x1="-819.2" x2="819.2">
      <stop offset="0.011764705882352941" stop-color="#dad67d"/>
      <stop offset="1.0" stop-color="#cfa451"/>
    </linearGradient>
    <linearGradient gradientTransform="matrix(0.0, 0.0059, -0.0232, 0.0, 21.85, 18.4)" gradientUnits="userSpaceOnUse" id="gradient7" spreadMethod="pad" x1="-819.2" x2="819.2">
      <stop offset="0.011764705882352941" stop-color="#8d5910"/>
      <stop offset="1.0" stop-color="#d9d597"/>
    </linearGradient>
    <g id="shape5" transform="matrix(1.0, 0.0, 0.0, 1.0, 0.0, -26.05)">
      <path d="M38.85 27.95 L39.3 26.8 39.7 26.3 Q40.05 26.05 40.4 26.05 L41.05 26.3 41.5 26.85 41.9 27.95 43.05 27.95 43.75 28.2 43.95 28.35 43.95 29.95 43.7 30.1 42.85 30.75 43.25 32.1 43.25 32.8 42.8 33.35 42.1 33.55 41.45 33.3 41.2 33.15 41.15 35.7 43.55 36.65 Q43.75 36.7 43.95 36.9 L43.6 38.8 43.4 38.85 40.85 39.5 40.65 42.45 40.5 42.75 39.25 43.5 39.0 43.45 38.5 43.0 37.0 40.45 34.2 41.2 33.85 41.2 33.0 41.8 33.4 43.15 33.4 43.85 33.3 44.0 31.15 44.0 30.55 43.6 29.9 44.0 27.7 44.0 27.65 43.8 27.65 43.1 28.05 41.8 27.15 41.2 26.75 40.6 Q26.6 40.2 26.75 39.85 L27.15 39.25 27.85 39.05 29.0 39.05 29.45 37.9 Q29.6 37.55 29.85 37.35 L30.55 37.15 31.2 37.35 31.65 37.95 32.05 39.05 33.2 39.05 34.85 37.05 33.55 34.85 33.4 34.15 33.7 33.45 Q33.9 33.2 34.25 33.15 L34.95 33.2 37.35 34.15 38.05 33.4 37.9 33.3 37.5 32.7 37.5 32.0 37.9 30.75 37.0 30.1 36.6 29.55 Q36.45 29.15 36.6 28.8 L37.0 28.2 Q37.3 27.95 37.7 27.95 L38.85 27.95 M30.65 38.7 L30.4 38.7 29.8 40.2 28.2 40.2 28.1 40.45 29.45 41.35 28.85 43.1 29.05 43.2 30.55 42.15 31.95 43.2 32.2 43.1 31.65 41.35 32.8 40.5 32.75 40.2 31.25 40.2 30.65 38.7 M37.7 35.5 L34.55 34.25 36.3 37.2 33.9 40.0 37.55 39.1 39.5 42.35 39.75 38.6 43.15 37.7 40.0 36.45 40.05 33.0 37.7 35.5 M39.65 29.15 L38.05 29.15 37.95 29.35 39.3 30.3 38.75 32.0 38.9 32.15 40.4 31.1 41.8 32.15 42.05 32.0 41.5 30.3 42.8 29.35 42.65 29.15 41.1 29.15 40.5 27.6 40.25 27.6 39.65 29.15" fill="#d1ae5a" fill-rule="evenodd" stroke="none"/>
      <path d="M42.2 29.75 L41.5 30.3 41.5 30.9 41.85 32.2 40.4 31.1 38.9 32.2 39.3 30.9 39.3 30.3 38.55 29.75 39.65 29.75 40.4 27.85 41.1 29.75 42.2 29.75 M40.0 36.45 L40.0 37.05 42.15 38.0 39.75 38.6 39.5 42.35 37.55 39.1 34.55 39.85 36.3 37.8 36.3 37.2 35.0 35.1 37.7 36.15 40.05 33.65 40.0 36.45 M32.35 40.85 L31.65 41.35 31.65 42.0 32.0 43.25 30.55 42.15 29.05 43.25 29.45 42.0 29.45 41.35 28.7 40.85 29.8 40.85 30.55 38.9 31.25 40.85 32.35 40.85" fill="#815815" fill-rule="evenodd" stroke="none"/>
      <path d="M38.55 29.75 L37.7 29.15 39.65 29.15 40.4 27.2 41.1 29.15 43.05 29.15 42.2 29.75 41.1 29.75 40.4 27.85 39.65 29.75 38.55 29.75 M41.5 30.3 L42.15 32.35 41.85 32.2 41.5 30.9 41.5 30.3 M38.9 32.2 L38.6 32.35 39.3 30.3 39.3 30.9 38.9 32.2 M40.0 36.45 L43.15 37.7 42.15 38.0 40.0 37.05 40.0 36.45 M34.55 39.85 L33.9 40.0 36.3 37.2 36.3 37.8 34.55 39.85 M35.0 35.1 L34.55 34.25 37.7 35.5 40.05 33.0 40.05 33.65 37.7 36.15 35.0 35.1 M28.7 40.85 L27.85 40.2 29.8 40.2 30.55 38.3 31.25 40.2 33.2 40.2 32.35 40.85 31.25 40.85 30.55 38.9 29.8 40.85 28.7 40.85 M31.65 41.35 L32.3 43.45 32.0 43.25 31.65 42.0 31.65 41.35 M29.05 43.25 L28.75 43.45 29.45 41.35 29.45 42.0 29.05 43.25" fill="#674512" fill-rule="evenodd" stroke="none"/>
      <path d="M10.25 33.45 L10.55 34.15 10.4 34.85 9.1 37.05 10.75 39.05 11.9 39.05 12.3 37.95 Q12.4 37.55 12.75 37.35 L13.4 37.15 14.1 37.35 14.5 37.9 14.95 39.05 16.1 39.05 16.8 39.25 17.2 39.85 17.2 40.6 16.8 41.2 15.9 41.8 16.3 43.1 16.3 43.8 16.25 44.0 14.05 44.0 13.4 43.6 12.8 44.0 10.65 44.0 10.55 43.85 10.55 43.15 10.95 41.8 10.1 41.2 9.75 41.2 6.95 40.45 5.45 43.0 4.95 43.45 4.7 43.5 3.45 42.75 3.3 42.45 3.1 39.5 0.55 38.85 0.35 38.8 0.0 36.9 0.4 36.65 2.8 35.7 2.75 33.15 2.5 33.3 1.85 33.55 Q1.45 33.55 1.15 33.35 L0.7 32.8 0.7 32.1 1.1 30.75 0.25 30.1 0.0 29.95 0.0 28.35 0.2 28.2 0.9 27.95 2.05 27.95 2.45 26.85 Q2.55 26.45 2.9 26.3 L3.55 26.05 Q3.9 26.05 4.25 26.3 L4.65 26.8 5.1 27.95 6.25 27.95 6.95 28.2 7.35 28.8 7.35 29.55 6.95 30.1 6.05 30.75 6.45 32.0 6.45 32.7 6.05 33.3 5.9 33.4 6.6 34.15 9.0 33.2 9.7 33.15 10.25 33.45 M3.7 27.6 L3.45 27.6 2.85 29.15 1.3 29.15 1.15 29.35 2.45 30.3 1.9 32.0 2.15 32.15 3.55 31.1 5.05 32.15 5.2 32.0 4.65 30.3 6.0 29.35 5.9 29.15 4.3 29.15 3.7 27.6 M4.2 38.6 L4.45 42.35 6.4 39.1 10.05 40.0 7.65 37.2 9.4 34.25 6.25 35.5 3.9 33.0 3.95 36.45 0.8 37.7 4.2 38.6 M11.15 40.5 L12.3 41.35 11.75 43.1 12.0 43.2 13.4 42.15 14.9 43.2 15.1 43.1 14.5 41.35 15.85 40.45 15.75 40.2 14.15 40.2 13.55 38.7 13.3 38.7 12.7 40.2 11.2 40.2 11.15 40.5" fill="#d1ae5a" fill-rule="evenodd" stroke="none"/>
      <path d="M1.75 29.75 L0.9 29.15 2.85 29.15 3.55 27.2 4.3 29.15 6.25 29.15 5.4 29.75 4.3 29.75 3.55 27.85 2.85 29.75 1.75 29.75 M4.65 30.3 L5.35 32.35 5.05 32.2 4.65 30.9 4.65 30.3 M2.1 32.2 L1.8 32.35 2.45 30.3 2.45 30.9 2.1 32.2 M3.9 33.65 L3.9 33.0 6.25 35.5 9.4 34.25 8.95 35.1 6.25 36.15 3.9 33.65 M7.65 37.2 L10.05 40.0 9.4 39.85 7.65 37.8 7.65 37.2 M1.8 38.0 L0.8 37.7 3.95 36.45 3.95 37.05 1.8 38.0 M11.6 40.85 L10.75 40.2 12.7 40.2 13.4 38.3 14.15 40.2 16.1 40.2 15.25 40.85 14.15 40.85 13.4 38.9 12.7 40.85 11.6 40.85 M14.5 41.35 L15.2 43.45 14.9 43.25 14.5 42.0 14.5 41.35 M11.95 43.25 L11.65 43.45 12.3 41.35 12.3 42.0 11.95 43.25" fill="#674512" fill-rule="evenodd" stroke="none"/>
      <path d="M1.75 29.75 L2.85 29.75 3.55 27.85 4.3 29.75 5.4 29.75 4.65 30.3 4.65 30.9 5.05 32.2 3.55 31.1 2.1 32.2 2.45 30.9 2.45 30.3 1.75 29.75 M3.95 36.45 L3.9 33.65 6.25 36.15 8.95 35.1 7.65 37.2 7.65 37.8 9.4 39.85 6.4 39.1 4.45 42.35 4.2 38.6 1.8 38.0 3.95 37.05 3.95 36.45 M11.6 40.85 L12.7 40.85 13.4 38.9 14.15 40.85 15.25 40.85 14.5 41.35 14.5 42.0 14.9 43.25 13.4 42.15 11.95 43.25 12.3 42.0 12.3 41.35 11.6 40.85" fill="#815815" fill-rule="evenodd" stroke="none"/>
    </g>
    <g id="sprite2" transform="matrix(1.0, 0.0, 0.0, 1.0, 0.0, 0.0)">
      <use height="20.15" transform="matrix(1.0, 0.0, 0.0, 1.0, 0.0, 0.0)" width="28.2" xlink:href="#shape6"/>
    </g>
    <g id="shape6" transform="matrix(1.0, 0.0, 0.0, 1.0, 0.0, 0.0)">
      <path d="M27.65 18.45 L27.4 18.95 Q26.2 20.8 23.4 19.8 19.6 18.5 17.35 14.05 14.8 9.1 9.75 7.4 4.1 5.65 0.0 10.3 1.0 6.85 3.7 4.15 7.2 0.65 11.9 0.05 L14.8 0.05 18.4 0.65 Q21.55 1.65 24.05 4.15 28.2 8.3 28.2 14.25 28.2 16.45 27.65 18.45" fill="#ffffff" fill-opacity="0.19607843" fill-rule="evenodd" stroke="none"/>
    </g>
  </defs>
</svg>
