<?xml version="1.0" encoding="UTF-8" standalone="no"?>
<svg xmlns:xlink="http://www.w3.org/1999/xlink" height="44.15px" width="44.0px" xmlns="http://www.w3.org/2000/svg">
  <g transform="matrix(1.0, 0.0, 0.0, 1.0, 0.0, 0.0)">
    <use height="44.15" transform="matrix(1.0, 0.0, 0.0, 1.0, 0.0, 0.0)" width="44.0" xlink:href="#shape0"/>
    <use height="20.15" transform="matrix(1.1594, 0.0, 0.0, 1.1605, 5.85, 5.45)" width="28.2" xlink:href="#sprite0"/>
    <use height="20.85" transform="matrix(1.0, 0.0, 0.0, 1.0, 0.7, 23.2)" width="42.65" xlink:href="#shape2"/>
    <use height="8.6" transform="matrix(1.2077, 0.0, 0.0, 1.2065, 1.0085, 0.75)" width="35.05" xlink:href="#sprite1"/>
  </g>
  <defs>
    <g id="shape0" transform="matrix(1.0, 0.0, 0.0, 1.0, 0.0, 0.0)">
      <path d="M20.05 44.15 L16.35 44.15 16.35 43.1 Q17.95 44.05 20.05 44.15 M28.65 42.2 L33.05 42.2 33.05 44.15 28.65 44.15 28.65 42.2" fill="url(#gradient0)" fill-rule="evenodd" stroke="none"/>
      <path d="M16.35 43.1 L15.25 42.2 28.65 42.2 28.65 44.15 20.05 44.15 Q17.95 44.05 16.35 43.1" fill="url(#gradient1)" fill-rule="evenodd" stroke="none"/>
      <path d="M41.8 2.3 Q44.0 4.5 44.0 7.6 L44.0 36.45 Q44.0 39.65 41.8 41.85 39.6 44.05 36.4 44.05 L7.6 44.05 Q4.45 44.05 2.25 41.85 0.0 39.65 0.0 36.45 L0.0 7.6 Q0.0 4.5 2.25 2.3 4.45 0.0 7.6 0.0 L36.4 0.0 Q39.55 0.0 41.8 2.3" fill="url(#gradient2)" fill-rule="evenodd" stroke="none"/>
      <path d="M40.6 22.05 Q40.6 29.8 35.2 35.25 29.75 40.65 22.05 40.65 14.3 40.65 8.85 35.25 3.4 29.8 3.4 22.05 3.4 14.35 8.85 8.95 14.3 3.5 22.05 3.5 29.75 3.5 35.2 8.95 40.6 14.4 40.6 22.05" fill="url(#gradient3)" fill-rule="evenodd" stroke="none"/>
      <path d="M32.1 23.1 Q28.8 28.25 23.9 31.4 L25.6 33.85 Q23.85 33.2 22.3 32.35 L18.95 33.85 20.7 31.4 Q15.75 28.25 12.5 23.1 11.6 16.1 14.75 9.25 14.25 18.35 18.75 23.05 18.5 20.7 20.45 18.65 20.35 23.85 22.3 28.35 24.2 23.85 24.1 18.65 26.05 20.7 25.85 23.05 30.3 18.35 29.8 9.25 32.95 16.1 32.1 23.1 M11.7 28.4 Q12.55 28.7 14.75 30.35 17.35 32.35 17.35 33.3 17.35 34.25 16.6 34.7 L16.2 34.9 15.3 35.1 14.65 35.2 12.1 35.2 12.1 35.1 Q13.0 34.8 13.65 33.9 14.25 33.1 14.25 32.4 14.25 31.8 13.4 30.65 L11.6 28.5 11.7 28.4 M32.05 28.5 L30.25 30.65 Q29.35 31.8 29.35 32.4 29.35 33.1 30.0 33.9 30.65 34.8 31.55 35.1 L31.55 35.2 29.0 35.2 28.3 35.1 27.45 34.9 27.05 34.7 Q26.25 34.25 26.25 33.3 26.25 32.35 28.85 30.35 31.1 28.7 31.9 28.4 L32.05 28.5" fill="#496125" fill-rule="evenodd" stroke="none"/>
      <path d="M11.7 28.4 L11.6 28.5 11.55 28.4 11.7 28.4 M31.9 28.4 L32.1 28.4 32.05 28.5 31.9 28.4" fill="#2e5d6b" fill-rule="evenodd" stroke="none"/>
      <path d="M40.85 22.05 Q40.85 29.95 35.25 35.5 29.75 41.15 21.85 41.15 13.9 41.15 8.4 35.5 2.85 29.95 2.85 22.05 2.85 14.1 8.4 8.6 13.9 3.05 21.85 3.05 29.75 3.05 35.25 8.6 40.85 14.1 40.85 22.05 M33.7 10.35 Q28.75 5.5 21.85 5.4 14.95 5.5 10.1 10.35 5.2 15.15 5.15 22.05 5.2 29.05 10.1 33.9 14.95 38.8 21.85 38.8 28.75 38.8 33.7 33.9 38.5 29.05 38.5 22.05 38.5 15.15 33.7 10.35" fill="url(#gradient4)" fill-rule="evenodd" stroke="none"/>
    </g>
    <linearGradient gradientTransform="matrix(0.0, -0.0555, -0.0554, 0.0, 22.45, 18.4)" gradientUnits="userSpaceOnUse" id="gradient0" spreadMethod="pad" x1="-819.2" x2="819.2">
      <stop offset="0.011764705882352941" stop-color="#e8e1b7"/>
      <stop offset="1.0" stop-color="#eed731"/>
    </linearGradient>
    <linearGradient gradientTransform="matrix(0.0, -0.0555, -0.0554, 0.0, 34.7, 18.4)" gradientUnits="userSpaceOnUse" id="gradient1" spreadMethod="pad" x1="-819.2" x2="819.2">
      <stop offset="0.011764705882352941" stop-color="#e8e1b7"/>
      <stop offset="1.0" stop-color="#eed731"/>
    </linearGradient>
    <linearGradient gradientTransform="matrix(0.0, -0.0283, -0.0551, 0.0, 22.6, 22.0)" gradientUnits="userSpaceOnUse" id="gradient2" spreadMethod="pad" x1="-819.2" x2="819.2">
      <stop offset="0.011764705882352941" stop-color="#9dae7c"/>
      <stop offset="1.0" stop-color="#7e8f45"/>
    </linearGradient>
    <linearGradient gradientTransform="matrix(0.0, -0.0173, -0.0173, 0.0, 22.0, 18.5)" gradientUnits="userSpaceOnUse" id="gradient3" spreadMethod="pad" x1="-819.2" x2="819.2">
      <stop offset="0.011764705882352941" stop-color="#d3d4b5"/>
      <stop offset="1.0" stop-color="#71a26f"/>
    </linearGradient>
    <linearGradient gradientTransform="matrix(1.0E-4, 0.0224, -0.0232, 1.0E-4, 21.9, 22.35)" gradientUnits="userSpaceOnUse" id="gradient4" spreadMethod="pad" x1="-819.2" x2="819.2">
      <stop offset="0.011764705882352941" stop-color="#516537"/>
      <stop offset="1.0" stop-color="#a8ce99"/>
    </linearGradient>
    <g id="sprite0" transform="matrix(1.0, 0.0, 0.0, 1.0, 0.0, 0.0)">
      <use height="20.15" transform="matrix(1.0, 0.0, 0.0, 1.0, 0.0, 0.0)" width="28.2" xlink:href="#shape1"/>
    </g>
    <g id="shape1" transform="matrix(1.0, 0.0, 0.0, 1.0, 0.0, 0.0)">
      <path d="M27.65 18.45 L27.4 18.95 Q26.2 20.8 23.4 19.8 19.6 18.5 17.35 14.05 14.8 9.1 9.75 7.4 4.1 5.65 0.0 10.3 1.0 6.85 3.7 4.15 7.2 0.65 11.9 0.05 L14.8 0.05 18.4 0.65 Q21.55 1.65 24.05 4.15 28.2 8.3 28.2 14.25 28.2 16.45 27.65 18.45" fill="#ffffff" fill-opacity="0.19607843" fill-rule="evenodd" stroke="none"/>
    </g>
    <g id="shape2" transform="matrix(1.0, 0.0, 0.0, 1.0, -0.7, -23.2)">
      <path d="M0.85 32.9 Q1.15 30.55 2.4 29.35 L2.8 27.65 Q2.95 26.65 2.7 25.6 L2.4 24.55 1.75 23.2 2.8 24.3 3.65 25.5 3.95 26.9 Q4.05 27.8 3.35 29.6 2.7 31.2 2.55 33.4 L2.45 33.15 2.4 33.4 Q1.85 36.2 3.0 38.15 3.55 39.1 4.25 39.65 L3.95 39.15 4.05 39.2 4.3 39.7 Q4.9 40.45 5.75 40.6 6.85 40.8 7.9 39.9 9.15 38.95 8.2 37.6 L8.25 38.45 Q8.05 39.4 6.7 39.85 L5.7 40.05 5.7 39.95 5.6 38.75 Q5.55 37.0 7.0 36.1 8.5 35.15 10.0 36.7 L11.2 38.5 Q11.15 36.65 10.25 35.7 L10.4 35.85 Q11.1 36.6 11.4 37.55 L11.35 37.55 11.5 37.95 11.8 38.8 11.85 39.95 Q10.45 42.85 8.65 42.85 9.95 42.65 10.05 41.5 7.15 42.7 3.7 41.0 1.2 39.05 0.85 32.9" fill="#9ec087" fill-rule="evenodd" stroke="none"/>
      <path d="M11.85 39.95 Q11.75 41.1 11.1 42.2 10.1 44.0 7.0 44.05 L4.1 43.75 5.6 43.3 7.8 43.0 6.55 43.1 Q4.4 43.05 2.85 41.55 0.95 39.5 0.75 35.4 0.65 34.0 0.85 32.9 1.2 39.05 3.7 41.0 7.15 42.7 10.05 41.5 9.95 42.65 8.65 42.85 10.45 42.85 11.85 39.95" fill="#648a4a" fill-rule="evenodd" stroke="none"/>
      <path d="M2.55 33.4 L2.6 34.7 Q2.95 36.45 3.8 37.6 L3.9 37.0 Q4.6 35.0 7.3 34.45 L9.2 34.9 10.25 35.7 Q11.15 36.65 11.2 38.5 L10.0 36.7 Q8.5 35.15 7.0 36.1 5.55 37.0 5.6 38.75 L5.7 39.95 5.7 40.05 6.7 39.85 Q8.05 39.4 8.25 38.45 L8.2 37.6 Q9.15 38.95 7.9 39.9 6.85 40.8 5.75 40.6 4.9 40.45 4.3 39.7 L4.05 39.2 3.95 39.15 4.25 39.65 Q3.55 39.1 3.0 38.15 1.85 36.2 2.4 33.4 L2.55 33.4 M3.95 39.15 L4.1 39.1 4.05 38.95 3.9 39.0 3.95 39.15" fill="#c0d6b1" fill-rule="evenodd" stroke="none"/>
      <path d="M2.4 33.4 L2.45 33.15 2.55 33.4 2.4 33.4" fill="#00632e" fill-rule="evenodd" stroke="none"/>
      <path d="M3.95 39.15 L3.9 39.0 4.05 38.95 4.1 39.1 3.95 39.15" fill="#ccbf38" fill-rule="evenodd" stroke="none"/>
      <path d="M11.4 37.55 L11.5 37.95 11.35 37.55 11.4 37.55" fill="url(#gradient5)" fill-rule="evenodd" stroke="none"/>
      <path d="M41.5 33.4 Q41.35 31.2 40.7 29.6 40.0 27.8 40.1 26.9 L40.4 25.5 41.25 24.3 42.3 23.2 41.65 24.55 41.35 25.6 Q41.1 26.65 41.25 27.65 L41.65 29.35 Q42.9 30.55 43.2 32.9 42.85 39.05 40.35 41.0 36.9 42.7 34.0 41.5 34.1 42.65 35.4 42.85 33.6 42.85 32.2 39.95 32.15 39.4 32.25 38.8 L32.55 37.95 32.7 37.55 32.65 37.55 Q32.95 36.6 33.65 35.85 L33.8 35.7 Q32.9 36.65 32.85 38.5 33.3 37.55 34.05 36.7 35.55 35.15 37.05 36.1 38.5 37.0 38.45 38.75 L38.35 39.95 38.35 40.05 37.35 39.85 Q36.0 39.4 35.8 38.45 L35.85 37.6 Q34.9 38.95 36.15 39.9 37.2 40.8 38.3 40.6 39.15 40.45 39.75 39.7 L40.0 39.2 40.1 39.15 39.8 39.65 41.05 38.15 Q42.2 36.2 41.65 33.4 L41.6 33.15 41.5 33.4" fill="#9ec087" fill-rule="evenodd" stroke="none"/>
      <path d="M32.2 39.95 Q33.6 42.85 35.4 42.85 34.1 42.65 34.0 41.5 36.9 42.7 40.35 41.0 42.85 39.05 43.2 32.9 L43.3 35.4 Q43.1 39.5 41.2 41.55 39.65 43.05 37.5 43.1 L36.25 43.0 38.45 43.3 39.95 43.75 37.05 44.05 Q33.95 44.0 32.95 42.2 32.3 41.1 32.2 39.95" fill="#648a4a" fill-rule="evenodd" stroke="none"/>
      <path d="M41.5 33.4 L41.6 33.15 41.65 33.4 41.5 33.4" fill="#00632e" fill-rule="evenodd" stroke="none"/>
      <path d="M41.65 33.4 Q42.2 36.2 41.05 38.15 L39.8 39.65 40.1 39.15 40.0 39.2 39.75 39.7 Q39.15 40.45 38.3 40.6 37.2 40.8 36.15 39.9 34.9 38.95 35.85 37.6 L35.8 38.45 Q36.0 39.4 37.35 39.85 L38.35 40.05 38.35 39.95 38.45 38.75 Q38.5 37.0 37.05 36.1 35.55 35.15 34.05 36.7 33.3 37.55 32.85 38.5 32.9 36.65 33.8 35.7 L34.85 34.9 36.75 34.45 Q39.45 35.0 40.15 37.0 L40.25 37.6 Q41.1 36.45 41.45 34.7 L41.5 33.4 41.65 33.4 M40.1 39.15 L40.15 39.0 40.0 38.95 39.95 39.1 40.1 39.15" fill="#c0d6b1" fill-rule="evenodd" stroke="none"/>
      <path d="M40.1 39.15 L39.95 39.1 40.0 38.95 40.15 39.0 40.1 39.15" fill="#ccbf38" fill-rule="evenodd" stroke="none"/>
      <path d="M32.65 37.55 L32.7 37.55 32.55 37.95 32.65 37.55" fill="url(#gradient6)" fill-rule="evenodd" stroke="none"/>
    </g>
    <linearGradient gradientTransform="matrix(0.0, -0.025, -0.025, 0.0, 6.1, 31.5)" gradientUnits="userSpaceOnUse" id="gradient5" spreadMethod="pad" x1="-819.2" x2="819.2">
      <stop offset="0.011764705882352941" stop-color="#bed9a5"/>
      <stop offset="1.0" stop-color="#739416"/>
    </linearGradient>
    <linearGradient gradientTransform="matrix(0.0, -0.025, 0.025, 0.0, 37.9, 31.5)" gradientUnits="userSpaceOnUse" id="gradient6" spreadMethod="pad" x1="-819.2" x2="819.2">
      <stop offset="0.011764705882352941" stop-color="#bed9a5"/>
      <stop offset="1.0" stop-color="#739416"/>
    </linearGradient>
    <g id="sprite1" transform="matrix(1.0, 0.0, 0.0, 1.0, 0.2, 0.0)">
      <use height="8.6" transform="matrix(1.0, 0.0, 0.0, 1.0, -0.2, 0.0)" width="35.05" xlink:href="#shape3"/>
    </g>
    <g id="shape3" transform="matrix(1.0, 0.0, 0.0, 1.0, 0.2, 0.0)">
      <path d="M34.85 8.6 Q34.8 6.95 34.4 5.7 33.0 1.3 27.2 1.3 L7.45 1.3 Q0.05 1.3 -0.2 8.5 L-0.2 7.65 Q-0.2 0.0 7.45 0.0 L27.2 0.0 Q33.0 0.0 34.4 4.4 34.85 5.8 34.85 7.65 L34.85 8.6" fill="#e7deda" fill-rule="evenodd" stroke="none"/>
    </g>
  </defs>
</svg>
