<?xml version="1.0" encoding="UTF-8" standalone="no"?>
<svg xmlns:xlink="http://www.w3.org/1999/xlink" height="66.075px" width="66.0px" xmlns="http://www.w3.org/2000/svg">
  <g transform="matrix(1.5, 0.0, 0.0, 1.5, 0.0, 0.075)">
    <use height="37.1" transform="matrix(1.0, 0.0, 0.0, 1.0, 3.4, 3.45)" width="37.2" xlink:href="#shape0"/>
    <use height="20.15" transform="matrix(1.1594, 0.0, 0.0, 1.1594, 5.8, 5.2)" width="28.2" xlink:href="#sprite0"/>
    <use height="44.0" transform="matrix(1.0, 0.0, 0.0, 1.0, 0.0, -0.05)" width="44.0" xlink:href="#shape2"/>
    <use height="8.6" transform="matrix(1.2125, 0.0, 0.0, 1.2125, 0.8575, 0.9)" width="35.05" xlink:href="#sprite1"/>
    <use height="40.5" transform="matrix(1.0, 0.0, 0.0, 1.0, 0.0, 3.45)" width="43.95" xlink:href="#shape4"/>
    <use height="20.15" transform="matrix(1.1594, 0.0, 0.0, 1.1594, 5.8, 5.2)" width="28.2" xlink:href="#sprite0"/>
    <use height="44.0" transform="matrix(1.0, 0.0, 0.0, 1.0, 0.0, 0.0)" width="44.0" xlink:href="#shape5"/>
    <use height="8.6" transform="matrix(1.2125, 0.0, 0.0, 1.2125, 0.8575, 0.95)" width="35.05" xlink:href="#sprite1"/>
    <use height="17.95" transform="matrix(1.0, 0.0, 0.0, 1.0, 0.0, 26.05)" width="43.95" xlink:href="#shape6"/>
  </g>
  <defs>
    <g id="shape0" transform="matrix(1.0, 0.0, 0.0, 1.0, -3.4, -3.45)">
      <path d="M3.4 22.0 Q3.4 14.3 8.85 8.9 14.3 3.45 22.05 3.45 29.75 3.45 35.2 8.9 40.6 14.35 40.6 22.0 40.6 29.7 35.2 35.15 29.75 40.55 22.05 40.55 14.3 40.55 8.85 35.15 3.4 29.7 3.4 22.0" fill="url(#gradient0)" fill-rule="evenodd" stroke="none"/>
      <path d="M21.9 11.4 L21.9 11.65 Q28.8 11.65 35.8 17.75 26.65 19.9 25.9 22.05 L31.85 22.05 Q27.05 24.85 25.95 27.35 L29.7 27.35 Q25.7 28.7 24.25 31.9 L26.75 31.9 Q23.25 33.1 21.9 35.75 L21.7 35.95 21.7 35.5 Q20.35 32.9 16.85 31.7 L19.35 31.7 Q17.9 28.55 13.9 27.2 L17.65 27.2 Q16.55 24.65 11.7 21.9 L17.7 21.9 Q16.95 19.7 7.8 17.55 14.85 11.35 21.9 11.4" fill="#664411" fill-rule="evenodd" stroke="none"/>
    </g>
    <linearGradient gradientTransform="matrix(0.0, -0.017, -0.0173, 0.0, 21.0, 26.9)" gradientUnits="userSpaceOnUse" id="gradient0" spreadMethod="pad" x1="-819.2" x2="819.2">
      <stop offset="0.011764705882352941" stop-color="#dad67d"/>
      <stop offset="1.0" stop-color="#cfa451"/>
    </linearGradient>
    <g id="sprite0" transform="matrix(1.0, 0.0, 0.0, 1.0, 0.0, 0.0)">
      <use height="20.15" transform="matrix(1.0, 0.0, 0.0, 1.0, 0.0, 0.0)" width="28.2" xlink:href="#shape1"/>
    </g>
    <g id="shape1" transform="matrix(1.0, 0.0, 0.0, 1.0, 0.0, 0.0)">
      <path d="M27.65 18.45 L27.4 18.95 Q26.2 20.8 23.4 19.8 19.6 18.5 17.35 14.05 14.8 9.1 9.75 7.4 4.1 5.65 0.0 10.3 1.0 6.85 3.7 4.15 7.2 0.65 11.9 0.05 L14.8 0.05 18.4 0.65 Q21.55 1.65 24.05 4.15 28.2 8.3 28.2 14.25 28.2 16.45 27.65 18.45" fill="#ffffff" fill-opacity="0.19607843" fill-rule="evenodd" stroke="none"/>
    </g>
    <g id="shape2" transform="matrix(1.0, 0.0, 0.0, 1.0, 0.0, 0.05)">
      <path d="M44.0 7.55 L44.0 36.35 Q44.0 39.55 41.8 41.75 39.6 43.95 36.4 43.95 L7.6 43.95 Q4.45 43.95 2.25 41.75 0.0 39.55 0.0 36.35 L0.0 7.55 Q0.0 4.45 2.25 2.25 4.45 -0.05 7.6 -0.05 L36.4 -0.05 Q39.55 -0.05 41.8 2.25 44.0 4.45 44.0 7.55 M40.85 22.0 Q40.85 14.05 35.25 8.55 29.75 3.0 21.85 3.0 13.9 3.0 8.4 8.55 2.85 14.05 2.85 22.0 2.85 29.9 8.4 35.4 13.9 41.05 21.85 41.05 29.75 41.05 35.25 35.4 40.85 29.9 40.85 22.0" fill="url(#gradient1)" fill-rule="evenodd" stroke="none"/>
      <path d="M40.85 22.0 Q40.85 29.9 35.25 35.4 29.75 41.05 21.85 41.05 13.9 41.05 8.4 35.4 2.85 29.9 2.85 22.0 2.85 14.05 8.4 8.55 13.9 3.0 21.85 3.0 29.75 3.0 35.25 8.55 40.85 14.05 40.85 22.0 M33.7 10.3 Q28.75 5.4 21.85 5.35 14.95 5.4 10.1 10.3 5.2 15.1 5.15 22.0 5.2 28.95 10.1 33.8 14.95 38.7 21.85 38.7 28.75 38.7 33.7 33.8 38.5 28.95 38.5 22.0 38.5 15.1 33.7 10.3" fill="url(#gradient2)" fill-rule="evenodd" stroke="none"/>
    </g>
    <linearGradient gradientTransform="matrix(0.0, -0.0258, -0.0551, 0.0, 21.85, 21.8)" gradientUnits="userSpaceOnUse" id="gradient1" spreadMethod="pad" x1="-819.2" x2="819.2">
      <stop offset="0.011764705882352941" stop-color="#c79829"/>
      <stop offset="1.0" stop-color="#be7d1e"/>
    </linearGradient>
    <linearGradient gradientTransform="matrix(1.0E-4, 0.0223, -0.0232, 1.0E-4, 21.9, 22.25)" gradientUnits="userSpaceOnUse" id="gradient2" spreadMethod="pad" x1="-819.2" x2="819.2">
      <stop offset="0.011764705882352941" stop-color="#8d5910"/>
      <stop offset="1.0" stop-color="#d9d597"/>
    </linearGradient>
    <g id="sprite1" transform="matrix(1.0, 0.0, 0.0, 1.0, 0.2, 0.0)">
      <use height="8.6" transform="matrix(1.0, 0.0, 0.0, 1.0, -0.2, 0.0)" width="35.05" xlink:href="#shape3"/>
    </g>
    <g id="shape3" transform="matrix(1.0, 0.0, 0.0, 1.0, 0.2, 0.0)">
      <path d="M34.4 4.4 Q34.85 5.8 34.85 7.65 L34.85 8.6 Q34.8 6.95 34.4 5.7 33.0 1.3 27.2 1.3 L7.45 1.3 Q0.05 1.3 -0.2 8.5 L-0.2 7.65 Q-0.2 0.0 7.45 0.0 L27.2 0.0 Q33.0 0.0 34.4 4.4" fill="#e7deda" fill-rule="evenodd" stroke="none"/>
    </g>
    <g id="shape4" transform="matrix(1.0, 0.0, 0.0, 1.0, 0.0, -3.45)">
      <path d="M38.85 27.9 L39.3 26.75 39.7 26.25 Q40.05 26.0 40.4 26.0 L41.05 26.25 41.5 26.8 41.9 27.9 43.05 27.9 43.75 28.15 43.95 28.3 43.95 29.9 43.7 30.05 42.85 30.7 43.25 32.05 43.25 32.75 42.8 33.3 42.1 33.5 41.45 33.25 41.2 33.1 41.15 35.65 43.55 36.6 Q43.75 36.65 43.95 36.85 L43.6 38.75 43.4 38.8 40.85 39.45 40.65 42.4 40.5 42.7 39.25 43.45 39.0 43.4 38.5 42.95 37.0 40.4 34.2 41.15 33.85 41.15 33.0 41.75 33.4 43.1 33.4 43.8 33.3 43.95 31.15 43.95 30.55 43.55 29.9 43.95 27.7 43.95 27.65 43.75 27.65 43.05 28.05 41.75 27.15 41.15 26.75 40.55 Q26.6 40.15 26.75 39.8 L27.15 39.2 27.85 39.0 29.0 39.0 29.45 37.85 Q29.6 37.5 29.85 37.3 L30.55 37.1 31.2 37.3 31.65 37.9 32.05 39.0 33.2 39.0 34.85 37.0 33.55 34.8 33.4 34.1 33.7 33.4 Q33.9 33.15 34.25 33.1 L34.95 33.15 37.35 34.1 38.05 33.35 37.9 33.25 37.5 32.65 37.5 31.95 37.9 30.7 37.0 30.05 36.6 29.5 Q36.45 29.1 36.6 28.75 L37.0 28.15 Q37.3 27.9 37.7 27.9 L38.85 27.9 M30.65 38.65 L30.4 38.65 29.8 40.15 28.2 40.15 28.1 40.4 29.45 41.3 28.85 43.05 29.05 43.15 30.55 42.1 31.95 43.15 32.2 43.05 31.65 41.3 32.8 40.45 32.75 40.15 31.25 40.15 30.65 38.65 M37.7 35.45 L34.55 34.2 36.3 37.15 33.9 39.95 37.55 39.05 39.5 42.3 39.75 38.55 43.15 37.65 40.0 36.4 40.05 32.95 37.7 35.45 M39.65 29.1 L38.05 29.1 37.95 29.3 39.3 30.25 38.75 31.95 38.9 32.1 40.4 31.05 41.8 32.1 42.05 31.95 41.5 30.25 42.8 29.3 42.65 29.1 41.1 29.1 40.5 27.55 40.25 27.55 39.65 29.1" fill="url(#gradient3)" fill-rule="evenodd" stroke="none"/>
      <path d="M42.2 29.7 L41.5 30.25 41.5 30.85 41.85 32.15 40.4 31.05 38.9 32.15 39.3 30.85 39.3 30.25 38.55 29.7 39.65 29.7 40.4 27.8 41.1 29.7 42.2 29.7 M40.0 36.4 L40.0 37.0 42.15 37.95 39.75 38.55 39.5 42.3 37.55 39.05 34.55 39.8 36.3 37.75 36.3 37.15 35.0 35.05 37.7 36.1 40.05 33.6 40.0 36.4 M32.35 40.8 L31.65 41.3 31.65 41.95 32.0 43.2 30.55 42.1 29.05 43.2 29.45 41.95 29.45 41.3 28.7 40.8 29.8 40.8 30.55 38.85 31.25 40.8 32.35 40.8" fill="#815815" fill-rule="evenodd" stroke="none"/>
      <path d="M38.55 29.7 L37.7 29.1 39.65 29.1 40.4 27.15 41.1 29.1 43.05 29.1 42.2 29.7 41.1 29.7 40.4 27.8 39.65 29.7 38.55 29.7 M41.5 30.25 L42.15 32.3 41.85 32.15 41.5 30.85 41.5 30.25 M38.9 32.15 L38.6 32.3 39.3 30.25 39.3 30.85 38.9 32.15 M40.0 36.4 L43.15 37.65 42.15 37.95 40.0 37.0 40.0 36.4 M34.55 39.8 L33.9 39.95 36.3 37.15 36.3 37.75 34.55 39.8 M35.0 35.05 L34.55 34.2 37.7 35.45 40.05 32.95 40.05 33.6 37.7 36.1 35.0 35.05 M28.7 40.8 L27.85 40.15 29.8 40.15 30.55 38.25 31.25 40.15 33.2 40.15 32.35 40.8 31.25 40.8 30.55 38.85 29.8 40.8 28.7 40.8 M31.65 41.3 L32.3 43.4 32.0 43.2 31.65 41.95 31.65 41.3 M29.05 43.2 L28.75 43.4 29.45 41.3 29.45 41.95 29.05 43.2" fill="#674512" fill-rule="evenodd" stroke="none"/>
      <path d="M5.1 27.9 L6.25 27.9 6.95 28.15 7.35 28.75 7.35 29.5 6.95 30.05 6.05 30.7 6.45 31.95 6.45 32.65 6.05 33.25 5.9 33.35 6.6 34.1 9.0 33.15 9.7 33.1 10.25 33.4 10.55 34.1 10.4 34.8 9.1 37.0 10.75 39.0 11.9 39.0 12.3 37.9 Q12.4 37.5 12.75 37.3 L13.4 37.1 14.1 37.3 14.5 37.85 14.95 39.0 16.1 39.0 16.8 39.2 17.2 39.8 17.2 40.55 16.8 41.15 15.9 41.75 16.3 43.05 16.3 43.75 16.25 43.95 14.05 43.95 13.4 43.55 12.8 43.95 10.65 43.95 10.55 43.8 10.55 43.1 10.95 41.75 10.1 41.15 9.75 41.15 6.95 40.4 5.45 42.95 4.95 43.4 4.7 43.45 3.45 42.7 3.3 42.4 3.1 39.45 0.55 38.8 0.35 38.75 0.0 36.85 0.4 36.6 2.8 35.65 2.75 33.1 2.5 33.25 1.85 33.5 Q1.45 33.5 1.15 33.3 L0.7 32.75 0.7 32.05 1.1 30.7 0.25 30.05 0.0 29.9 0.0 28.3 0.2 28.15 0.9 27.9 2.05 27.9 2.45 26.8 Q2.55 26.4 2.9 26.25 L3.55 26.0 Q3.9 26.0 4.25 26.25 L4.65 26.75 5.1 27.9 M4.3 29.1 L3.7 27.55 3.45 27.55 2.85 29.1 1.3 29.1 1.15 29.3 2.45 30.25 1.9 31.95 2.15 32.1 3.55 31.05 5.05 32.1 5.2 31.95 4.65 30.25 6.0 29.3 5.9 29.1 4.3 29.1 M6.25 35.45 L3.9 32.95 3.95 36.4 0.8 37.65 4.2 38.55 4.45 42.3 6.4 39.05 10.05 39.95 7.65 37.15 9.4 34.2 6.25 35.45 M13.3 38.65 L12.7 40.15 11.2 40.15 11.15 40.45 12.3 41.3 11.75 43.05 12.0 43.15 13.4 42.1 14.9 43.15 15.1 43.05 14.5 41.3 15.85 40.4 15.75 40.15 14.15 40.15 13.55 38.65 13.3 38.65" fill="url(#gradient4)" fill-rule="evenodd" stroke="none"/>
      <path d="M1.75 29.7 L0.9 29.1 2.85 29.1 3.55 27.15 4.3 29.1 6.25 29.1 5.4 29.7 4.3 29.7 3.55 27.8 2.85 29.7 1.75 29.7 M4.65 30.25 L5.35 32.3 5.05 32.15 4.65 30.85 4.65 30.25 M2.1 32.15 L1.8 32.3 2.45 30.25 2.45 30.85 2.1 32.15 M3.9 33.6 L3.9 32.95 6.25 35.45 9.4 34.2 8.95 35.05 6.25 36.1 3.9 33.6 M7.65 37.15 L10.05 39.95 9.4 39.8 7.65 37.75 7.65 37.15 M1.8 37.95 L0.8 37.65 3.95 36.4 3.95 37.0 1.8 37.95 M11.6 40.8 L10.75 40.15 12.7 40.15 13.4 38.25 14.15 40.15 16.1 40.15 15.25 40.8 14.15 40.8 13.4 38.85 12.7 40.8 11.6 40.8 M14.5 41.3 L15.2 43.4 14.9 43.2 14.5 41.95 14.5 41.3 M11.95 43.2 L11.65 43.4 12.3 41.3 12.3 41.95 11.95 43.2" fill="#674512" fill-rule="evenodd" stroke="none"/>
      <path d="M1.75 29.7 L2.85 29.7 3.55 27.8 4.3 29.7 5.4 29.7 4.65 30.25 4.65 30.85 5.05 32.15 3.55 31.05 2.1 32.15 2.45 30.85 2.45 30.25 1.75 29.7 M8.95 35.05 L7.65 37.15 7.65 37.75 9.4 39.8 6.4 39.05 4.45 42.3 4.2 38.55 1.8 37.95 3.95 37.0 3.95 36.4 3.9 33.6 6.25 36.1 8.95 35.05 M11.6 40.8 L12.7 40.8 13.4 38.85 14.15 40.8 15.25 40.8 14.5 41.3 14.5 41.95 14.9 43.2 13.4 42.1 11.95 43.2 12.3 41.95 12.3 41.3 11.6 40.8" fill="#815815" fill-rule="evenodd" stroke="none"/>
      <path d="M40.6 22.0 Q40.6 29.7 35.2 35.15 29.75 40.55 22.05 40.55 14.3 40.55 8.85 35.15 3.4 29.7 3.4 22.0 3.4 14.3 8.85 8.9 14.3 3.45 22.05 3.45 29.75 3.45 35.2 8.9 40.6 14.35 40.6 22.0" fill="url(#gradient5)" fill-rule="evenodd" stroke="none"/>
      <path d="M27.7 17.1 L27.45 17.05 Q26.6 16.75 25.9 16.0 24.8 14.95 24.8 13.45 24.8 11.9 25.9 10.75 27.0 9.7 28.5 9.7 30.0 9.7 31.1 10.75 32.2 11.9 32.2 13.45 32.2 14.95 31.1 16.0 L29.75 16.9 29.55 17.05 29.55 17.8 35.85 17.8 35.85 20.1 29.55 20.1 29.55 25.95 30.1 25.95 30.1 26.0 33.75 26.0 33.85 26.55 33.85 31.65 31.7 31.65 31.7 27.1 25.25 27.1 25.25 31.65 23.15 31.65 23.1 31.4 23.1 26.55 23.2 26.0 26.85 26.0 26.85 25.95 27.4 25.95 27.4 20.1 23.1 20.1 21.15 20.1 16.8 20.1 16.8 25.95 17.35 25.95 17.35 26.0 21.0 26.0 21.1 26.55 21.1 31.65 18.95 31.65 18.95 27.1 12.5 27.1 12.5 31.65 10.4 31.65 10.35 31.4 10.35 26.55 10.45 26.0 14.1 26.0 14.1 25.95 14.65 25.95 14.65 20.1 8.4 20.1 8.4 17.8 14.65 17.8 14.65 17.05 14.95 17.1 14.7 17.05 13.15 16.0 Q12.05 14.95 12.05 13.45 12.05 11.9 13.15 10.75 14.25 9.7 15.75 9.7 17.25 9.7 18.35 10.75 19.45 11.9 19.45 13.45 19.45 14.95 18.35 16.0 L17.0 16.9 16.8 17.05 16.8 17.8 21.15 17.8 23.1 17.8 27.4 17.8 27.4 17.05 27.7 17.1 28.4 17.15 28.5 17.15 29.55 17.05 28.5 17.15 28.4 17.15 27.7 17.1 M14.95 17.1 L15.65 17.15 15.75 17.15 16.8 17.05 15.75 17.15 15.65 17.15 14.95 17.1" fill="#664411" fill-rule="evenodd" stroke="none"/>
      <path d="M27.7 17.1 L27.45 17.05 Q26.6 16.75 25.9 16.0 24.8 14.95 24.8 13.45 24.8 11.9 25.9 10.75 27.0 9.7 28.5 9.7 30.0 9.7 31.1 10.75 32.2 11.9 32.2 13.45 32.2 14.95 31.1 16.0 L29.75 16.9 29.55 17.05 28.5 17.15 28.4 17.15 27.7 17.1 M14.95 17.1 L14.7 17.05 13.15 16.0 Q12.05 14.95 12.05 13.45 12.05 11.9 13.15 10.75 14.25 9.7 15.75 9.7 17.25 9.7 18.35 10.75 19.45 11.9 19.45 13.45 19.45 14.95 18.35 16.0 L17.0 16.9 16.8 17.05 15.75 17.15 15.65 17.15 14.95 17.1" fill="none" stroke="#664411" stroke-linecap="round" stroke-linejoin="round" stroke-width="1.0"/>
    </g>
    <linearGradient gradientTransform="matrix(0.0, -0.0258, -0.0551, 0.0, 21.85, 21.8)" gradientUnits="userSpaceOnUse" id="gradient3" spreadMethod="pad" x1="-819.2" x2="819.2">
      <stop offset="0.011764705882352941" stop-color="#c79829"/>
      <stop offset="1.0" stop-color="#be7d1e"/>
    </linearGradient>
    <linearGradient gradientTransform="matrix(0.0, -0.0258, 0.0551, 0.0, 22.05, 21.8)" gradientUnits="userSpaceOnUse" id="gradient4" spreadMethod="pad" x1="-819.2" x2="819.2">
      <stop offset="0.011764705882352941" stop-color="#c79829"/>
      <stop offset="1.0" stop-color="#be7d1e"/>
    </linearGradient>
    <linearGradient gradientTransform="matrix(0.0056, 0.0, 0.0, 0.0043, -24.55, 41.7)" gradientUnits="userSpaceOnUse" id="gradient5" spreadMethod="pad" x1="-819.2" x2="819.2">
      <stop offset="0.011764705882352941" stop-color="#c79829"/>
      <stop offset="1.0" stop-color="#be7d1e"/>
    </linearGradient>
    <g id="shape5" transform="matrix(1.0, 0.0, 0.0, 1.0, 0.0, 0.0)">
      <path d="M41.8 2.3 Q44.0 4.5 44.0 7.6 L44.0 36.4 Q44.0 39.6 41.8 41.8 39.6 44.0 36.4 44.0 L7.6 44.0 Q4.45 44.0 2.25 41.8 0.0 39.6 0.0 36.4 L0.0 7.6 Q0.0 4.5 2.25 2.3 4.45 0.0 7.6 0.0 L36.4 0.0 Q39.55 0.0 41.8 2.3 M40.85 22.05 Q40.85 14.1 35.25 8.6 29.75 3.05 21.85 3.05 13.9 3.05 8.4 8.6 2.85 14.1 2.85 22.05 2.85 29.95 8.4 35.45 13.9 41.1 21.85 41.1 29.75 41.1 35.25 35.45 40.85 29.95 40.85 22.05" fill="url(#gradient6)" fill-rule="evenodd" stroke="none"/>
      <path d="M40.85 22.05 Q40.85 29.95 35.25 35.45 29.75 41.1 21.85 41.1 13.9 41.1 8.4 35.45 2.85 29.95 2.85 22.05 2.85 14.1 8.4 8.6 13.9 3.05 21.85 3.05 29.75 3.05 35.25 8.6 40.85 14.1 40.85 22.05 M33.7 10.35 Q28.75 5.45 21.85 5.4 14.95 5.45 10.1 10.35 5.2 15.15 5.15 22.05 5.2 29.0 10.1 33.85 14.95 38.75 21.85 38.75 28.75 38.75 33.7 33.85 38.5 29.0 38.5 22.05 38.5 15.15 33.7 10.35" fill="url(#gradient7)" fill-rule="evenodd" stroke="none"/>
    </g>
    <linearGradient gradientTransform="matrix(0.0, -0.0258, -0.0551, 0.0, 21.85, 21.85)" gradientUnits="userSpaceOnUse" id="gradient6" spreadMethod="pad" x1="-819.2" x2="819.2">
      <stop offset="0.011764705882352941" stop-color="#dad67d"/>
      <stop offset="1.0" stop-color="#cfa451"/>
    </linearGradient>
    <linearGradient gradientTransform="matrix(0.0, 0.0059, -0.0232, 0.0, 21.85, 18.4)" gradientUnits="userSpaceOnUse" id="gradient7" spreadMethod="pad" x1="-819.2" x2="819.2">
      <stop offset="0.011764705882352941" stop-color="#8d5910"/>
      <stop offset="1.0" stop-color="#d9d597"/>
    </linearGradient>
    <g id="shape6" transform="matrix(1.0, 0.0, 0.0, 1.0, 0.0, -26.1)">
      <path d="M41.5 26.9 L41.9 28.0 43.05 28.0 43.75 28.25 43.95 28.4 43.95 30.0 43.7 30.15 42.85 30.8 43.25 32.15 43.25 32.85 42.8 33.4 42.1 33.6 41.45 33.35 41.2 33.2 41.15 35.75 43.55 36.7 Q43.75 36.75 43.95 36.95 L43.6 38.85 43.4 38.9 40.85 39.55 40.65 42.5 40.5 42.8 39.25 43.55 39.0 43.5 38.5 43.05 37.0 40.5 34.2 41.25 33.85 41.25 33.0 41.85 33.4 43.2 33.4 43.9 33.3 44.05 31.15 44.05 30.55 43.65 29.9 44.05 27.7 44.05 27.65 43.85 27.65 43.15 28.05 41.85 27.15 41.25 26.75 40.65 Q26.6 40.25 26.75 39.9 L27.15 39.3 27.85 39.1 29.0 39.1 29.45 37.95 Q29.6 37.6 29.85 37.4 L30.55 37.2 31.2 37.4 31.65 38.0 32.05 39.1 33.2 39.1 34.85 37.1 33.55 34.9 33.4 34.2 33.7 33.5 Q33.9 33.25 34.25 33.2 L34.95 33.25 37.35 34.2 38.05 33.45 37.9 33.35 37.5 32.75 37.5 32.05 37.9 30.8 37.0 30.15 36.6 29.6 Q36.45 29.2 36.6 28.85 L37.0 28.25 Q37.3 28.0 37.7 28.0 L38.85 28.0 39.3 26.85 39.7 26.35 Q40.05 26.1 40.4 26.1 L41.05 26.35 41.5 26.9 M29.8 40.25 L28.2 40.25 28.1 40.5 29.45 41.4 28.85 43.15 29.05 43.25 30.55 42.2 31.95 43.25 32.2 43.15 31.65 41.4 32.8 40.55 32.75 40.25 31.25 40.25 30.65 38.75 30.4 38.75 29.8 40.25 M40.05 33.05 L37.7 35.55 34.55 34.3 36.3 37.25 33.9 40.05 37.55 39.15 39.5 42.4 39.75 38.65 43.15 37.75 40.0 36.5 40.05 33.05 M42.65 29.2 L41.1 29.2 40.5 27.65 40.25 27.65 39.65 29.2 38.05 29.2 37.95 29.4 39.3 30.35 38.75 32.05 38.9 32.2 40.4 31.15 41.8 32.2 42.05 32.05 41.5 30.35 42.8 29.4 42.65 29.2" fill="#d1ae5a" fill-rule="evenodd" stroke="none"/>
      <path d="M42.2 29.8 L41.5 30.35 41.5 30.95 41.85 32.25 40.4 31.15 38.9 32.25 39.3 30.95 39.3 30.35 38.55 29.8 39.65 29.8 40.4 27.9 41.1 29.8 42.2 29.8 M40.0 36.5 L40.0 37.1 42.15 38.05 39.75 38.65 39.5 42.4 37.55 39.15 34.55 39.9 36.3 37.85 36.3 37.25 35.0 35.15 37.7 36.2 40.05 33.7 40.0 36.5 M32.35 40.9 L31.65 41.4 31.65 42.05 32.0 43.3 30.55 42.2 29.05 43.3 29.45 42.05 29.45 41.4 28.7 40.9 29.8 40.9 30.55 38.95 31.25 40.9 32.35 40.9" fill="#815815" fill-rule="evenodd" stroke="none"/>
      <path d="M38.55 29.8 L37.7 29.2 39.65 29.2 40.4 27.25 41.1 29.2 43.05 29.2 42.2 29.8 41.1 29.8 40.4 27.9 39.65 29.8 38.55 29.8 M41.5 30.35 L42.15 32.4 41.85 32.25 41.5 30.95 41.5 30.35 M38.9 32.25 L38.6 32.4 39.3 30.35 39.3 30.95 38.9 32.25 M40.0 36.5 L43.15 37.75 42.15 38.05 40.0 37.1 40.0 36.5 M34.55 39.9 L33.9 40.05 36.3 37.25 36.3 37.85 34.55 39.9 M35.0 35.15 L34.55 34.3 37.7 35.55 40.05 33.05 40.05 33.7 37.7 36.2 35.0 35.15 M28.7 40.9 L27.85 40.25 29.8 40.25 30.55 38.35 31.25 40.25 33.2 40.25 32.35 40.9 31.25 40.9 30.55 38.95 29.8 40.9 28.7 40.9 M31.65 41.4 L32.3 43.5 32.0 43.3 31.65 42.05 31.65 41.4 M29.05 43.3 L28.75 43.5 29.45 41.4 29.45 42.05 29.05 43.3" fill="#674512" fill-rule="evenodd" stroke="none"/>
      <path d="M10.25 33.5 L10.55 34.2 10.4 34.9 9.1 37.1 10.75 39.1 11.9 39.1 12.3 38.0 Q12.4 37.6 12.75 37.4 L13.4 37.2 14.1 37.4 14.5 37.95 14.95 39.1 16.1 39.1 16.8 39.3 17.2 39.9 17.2 40.65 16.8 41.25 15.9 41.85 16.3 43.15 16.3 43.85 16.25 44.05 14.05 44.05 13.4 43.65 12.8 44.05 10.65 44.05 10.55 43.9 10.55 43.2 10.95 41.85 10.1 41.25 9.75 41.25 6.95 40.5 5.45 43.05 4.95 43.5 4.7 43.55 3.45 42.8 3.3 42.5 3.1 39.55 0.55 38.9 0.35 38.85 0.0 36.95 0.4 36.7 2.8 35.75 2.75 33.2 2.5 33.35 1.85 33.6 Q1.45 33.6 1.15 33.4 L0.7 32.85 0.7 32.15 1.1 30.8 0.25 30.15 0.0 30.0 0.0 28.4 0.2 28.25 0.9 28.0 2.05 28.0 2.45 26.9 Q2.55 26.5 2.9 26.35 L3.55 26.1 Q3.9 26.1 4.25 26.35 L4.65 26.85 5.1 28.0 6.25 28.0 6.95 28.25 7.35 28.85 7.35 29.6 6.95 30.15 6.05 30.8 6.45 32.05 6.45 32.75 6.05 33.35 5.9 33.45 6.6 34.2 9.0 33.25 9.7 33.2 10.25 33.5 M5.9 29.2 L4.3 29.2 3.7 27.65 3.45 27.65 2.85 29.2 1.3 29.2 1.15 29.4 2.45 30.35 1.9 32.05 2.15 32.2 3.55 31.15 5.05 32.2 5.2 32.05 4.65 30.35 6.0 29.4 5.9 29.2 M3.95 36.5 L0.8 37.75 4.2 38.65 4.45 42.4 6.4 39.15 10.05 40.05 7.65 37.25 9.4 34.3 6.25 35.55 3.9 33.05 3.95 36.5 M15.75 40.25 L14.15 40.25 13.55 38.75 13.3 38.75 12.7 40.25 11.2 40.25 11.15 40.55 12.3 41.4 11.75 43.15 12.0 43.25 13.4 42.2 14.9 43.25 15.1 43.15 14.5 41.4 15.85 40.5 15.75 40.25" fill="#d1ae5a" fill-rule="evenodd" stroke="none"/>
      <path d="M1.75 29.8 L0.9 29.2 2.85 29.2 3.55 27.25 4.3 29.2 6.25 29.2 5.4 29.8 4.3 29.8 3.55 27.9 2.85 29.8 1.75 29.8 M4.65 30.35 L5.35 32.4 5.05 32.25 4.65 30.95 4.65 30.35 M2.1 32.25 L1.8 32.4 2.45 30.35 2.45 30.95 2.1 32.25 M3.9 33.7 L3.9 33.05 6.25 35.55 9.4 34.3 8.95 35.15 6.25 36.2 3.9 33.7 M7.65 37.25 L10.05 40.05 9.4 39.9 7.65 37.85 7.65 37.25 M1.8 38.05 L0.8 37.75 3.95 36.5 3.95 37.1 1.8 38.05 M11.6 40.9 L10.75 40.25 12.7 40.25 13.4 38.35 14.15 40.25 16.1 40.25 15.25 40.9 14.15 40.9 13.4 38.95 12.7 40.9 11.6 40.9 M14.5 41.4 L15.2 43.5 14.9 43.3 14.5 42.05 14.5 41.4 M11.95 43.3 L11.65 43.5 12.3 41.4 12.3 42.05 11.95 43.3" fill="#674512" fill-rule="evenodd" stroke="none"/>
      <path d="M1.75 29.8 L2.85 29.8 3.55 27.9 4.3 29.8 5.4 29.8 4.65 30.35 4.65 30.95 5.05 32.25 3.55 31.15 2.1 32.25 2.45 30.95 2.45 30.35 1.75 29.8 M3.95 36.5 L3.9 33.7 6.25 36.2 8.95 35.15 7.65 37.25 7.65 37.85 9.4 39.9 6.4 39.15 4.45 42.4 4.2 38.65 1.8 38.05 3.95 37.1 3.95 36.5 M11.6 40.9 L12.7 40.9 13.4 38.95 14.15 40.9 15.25 40.9 14.5 41.4 14.5 42.05 14.9 43.3 13.4 42.2 11.95 43.3 12.3 42.05 12.3 41.4 11.6 40.9" fill="#815815" fill-rule="evenodd" stroke="none"/>
    </g>
  </defs>
</svg>
