<?xml version="1.0" encoding="UTF-8" standalone="no"?>
<svg xmlns:xlink="http://www.w3.org/1999/xlink" height="66.0px" width="66.0px" xmlns="http://www.w3.org/2000/svg">
  <g transform="matrix(1.5, 0.0, 0.0, 1.5, 0.0, 0.0)">
    <use height="38.1" transform="matrix(1.0, 0.0, 0.0, 1.0, 2.55, 3.4)" width="38.0" xlink:href="#shape0"/>
    <use height="0.0" transform="matrix(1.2125, 0.0, 0.0, 1.2125, 0.8, 1.3)" width="0.0" xlink:href="#sprite0"/>
    <use height="44.0" transform="matrix(1.0, 0.0, 0.0, 1.0, 0.0, 0.0)" width="44.0" xlink:href="#shape1"/>
    <use height="8.6" transform="matrix(1.2077, 0.0, 0.0, 1.2093, 0.5085, 0.75)" width="35.05" xlink:href="#sprite1"/>
    <use height="20.15" transform="matrix(1.1548, 0.0, 0.0, 1.1564, 5.85, 5.8)" width="28.2" xlink:href="#sprite2"/>
    <use height="39.85" transform="matrix(1.0, 0.0, 0.0, 1.0, 1.75, 4.1)" width="40.55" xlink:href="#shape4"/>
  </g>
  <defs>
    <g id="shape0" transform="matrix(1.0, 0.0, 0.0, 1.0, -2.55, -3.4)">
      <path d="M8.55 35.6 Q3.1 30.15 3.1 22.45 3.1 14.75 8.55 9.35 14.0 3.9 21.75 3.9 29.45 3.9 34.9 9.35 40.3 14.8 40.3 22.45 40.3 30.15 34.9 35.6 29.45 41.0 21.75 41.0 14.0 41.0 8.55 35.6" fill="url(#gradient0)" fill-rule="evenodd" stroke="none"/>
      <path d="M34.95 9.0 Q40.55 14.5 40.55 22.45 40.55 30.3 34.95 35.85 29.45 41.5 21.55 41.5 13.6 41.5 8.1 35.85 2.55 30.3 2.55 22.45 2.55 14.5 8.1 9.0 13.6 3.4 21.55 3.4 29.45 3.4 34.95 9.0 M33.4 34.25 Q38.2 29.4 38.2 22.45 38.2 15.55 33.4 10.75 28.45 5.85 21.55 5.8 14.65 5.85 9.8 10.75 4.9 15.55 4.85 22.45 4.9 29.4 9.8 34.25 14.65 39.15 21.55 39.15 28.45 39.15 33.4 34.25" fill="url(#gradient1)" fill-rule="evenodd" stroke="none"/>
    </g>
    <linearGradient gradientTransform="matrix(0.0, -0.0173, -0.0173, 0.0, 21.75, 18.9)" gradientUnits="userSpaceOnUse" id="gradient0" spreadMethod="pad" x1="-819.2" x2="819.2">
      <stop offset="0.011764705882352941" stop-color="#c4bebb"/>
      <stop offset="1.0" stop-color="#9f8a82"/>
    </linearGradient>
    <linearGradient gradientTransform="matrix(1.0E-4, 0.0223, -0.0232, 1.0E-4, 21.6, 22.7)" gradientUnits="userSpaceOnUse" id="gradient1" spreadMethod="pad" x1="-819.2" x2="819.2">
      <stop offset="0.011764705882352941" stop-color="#494136"/>
      <stop offset="1.0" stop-color="#dbccbd"/>
    </linearGradient>
    <g id="shape1" transform="matrix(1.0, 0.0, 0.0, 1.0, 0.0, 0.0)">
      <path d="M31.95 12.65 Q34.3 14.1 35.45 17.0 L35.3 18.9 35.2 19.35 34.4 19.8 Q33.6 20.0 33.0 19.55 L33.0 18.75 Q33.1 16.7 31.95 15.15 L31.15 14.3 29.25 12.95 Q26.4 11.35 23.0 11.3 L20.9 11.15 Q25.65 10.15 30.15 11.75 L31.95 12.65 M31.05 19.85 L31.05 19.5 Q31.1 18.5 30.2 17.5 L29.25 16.65 Q27.85 15.65 26.2 15.15 L25.25 14.85 Q27.55 15.05 29.65 16.25 31.15 17.15 31.95 18.5 L32.2 19.15 32.15 19.9 32.1 20.0 31.95 20.1 31.7 20.15 Q31.35 20.1 31.05 19.85 M17.3 14.75 L17.15 14.75 24.3 23.4 24.9 22.9 26.9 25.45 30.55 21.8 Q34.6 29.7 30.75 33.9 26.05 35.35 19.75 30.75 L24.15 27.65 22.1 25.1 22.75 24.65 15.85 16.15 Q12.3 16.05 11.1 13.45 L16.05 9.45 Q18.7 12.6 17.3 14.75 M15.6 11.9 L13.55 13.5 Q14.9 15.0 15.75 14.1 16.6 13.4 15.6 11.9 M28.5 28.3 L28.7 28.65 29.15 28.75 29.45 28.55 29.6 28.15 Q29.4 27.1 29.75 26.7 L30.9 26.75 31.35 26.7 31.6 26.4 31.55 26.0 31.25 25.75 Q29.65 25.2 28.95 25.95 28.25 26.55 28.5 28.3 M24.85 31.65 Q24.85 30.55 25.35 30.15 L26.9 30.05 27.25 30.0 27.55 29.7 27.5 29.25 27.15 29.05 Q25.45 28.55 24.65 29.3 23.75 29.9 23.75 31.65 L23.9 32.05 24.3 32.2 24.7 32.05 24.85 31.65 M30.25 35.25 Q25.95 36.95 22.55 36.8 12.1 36.4 7.75 19.85 13.15 35.0 23.15 36.05 26.4 36.4 30.25 35.25" fill="#372d2d" fill-rule="evenodd" stroke="none"/>
      <path d="M34.2 9.8 Q29.15 4.7 22.0 4.7 14.8 4.7 9.75 9.8 4.65 14.8 4.65 22.05 4.65 29.2 9.75 34.3 14.8 39.4 22.0 39.4 29.2 39.4 34.2 34.3 39.25 29.2 39.25 22.05 39.25 14.8 34.2 9.8 M7.55 0.0 L36.35 0.0 Q39.55 0.0 41.75 2.25 44.0 4.55 44.0 7.65 L44.0 36.45 Q44.0 39.55 41.75 41.8 39.55 44.0 36.35 44.0 L7.55 44.0 Q4.45 44.0 2.2 41.8 0.0 39.55 0.0 36.45 L0.0 7.65 Q0.0 4.55 2.2 2.25 4.45 0.0 7.55 0.0" fill="url(#gradient2)" fill-rule="evenodd" stroke="none"/>
      <path d="M21.9 5.55 Q15.0 5.6 10.2 10.5 5.3 15.35 5.3 22.2 5.3 29.15 10.2 34.05 15.0 38.85 21.9 38.85 28.75 38.85 33.65 34.05 38.55 29.15 38.55 22.2 38.55 15.35 33.65 10.5 28.8 5.6 21.9 5.55 M8.4 8.8 Q14.0 3.2 21.9 3.2 29.75 3.2 35.3 8.8 40.9 14.35 40.9 22.2 40.9 30.15 35.3 35.7 29.75 41.25 21.9 41.25 14.0 41.25 8.4 35.7 2.85 30.15 2.85 22.2 2.85 14.35 8.4 8.8" fill="url(#gradient3)" fill-rule="evenodd" stroke="none"/>
    </g>
    <linearGradient gradientTransform="matrix(0.0, -0.0275, -0.044, 0.0, 20.9, 22.2)" gradientUnits="userSpaceOnUse" id="gradient2" spreadMethod="pad" x1="-819.2" x2="819.2">
      <stop offset="0.0196078431372549" stop-color="#905a3d"/>
      <stop offset="0.9764705882352941" stop-color="#6a412d"/>
    </linearGradient>
    <linearGradient gradientTransform="matrix(0.0, -0.0168, -0.0168, 0.0, 21.9, 26.8)" gradientUnits="userSpaceOnUse" id="gradient3" spreadMethod="pad" x1="-819.2" x2="819.2">
      <stop offset="0.0196078431372549" stop-color="#a3704d"/>
      <stop offset="0.9803921568627451" stop-color="#492d20"/>
    </linearGradient>
    <g id="sprite1" transform="matrix(1.0, 0.0, 0.0, 1.0, 0.2, 0.0)">
      <use height="10.4" transform="matrix(0.8345, 0.0, 0.0, 0.8269, -0.1838, 0.0087)" width="42.0" xlink:href="#shape2"/>
    </g>
    <g id="shape2" transform="matrix(1.0, 0.0, 0.0, 1.0, 0.4, 0.05)">
      <path d="M32.4 -0.05 Q39.35 -0.05 41.05 5.25 41.6 6.95 41.6 9.2 L41.6 10.35 Q41.55 8.35 41.05 6.85 39.35 1.5 32.4 1.5 L8.75 1.5 Q-0.1 1.5 -0.4 10.2 L-0.4 9.2 Q-0.4 -0.05 8.75 -0.05 L32.4 -0.05" fill="#e7deda" fill-rule="evenodd" stroke="none"/>
    </g>
    <g id="sprite2" transform="matrix(1.0, 0.0, 0.0, 1.0, 0.0, 0.0)">
      <use height="20.15" transform="matrix(1.0, 0.0, 0.0, 1.0, 0.0, 0.0)" width="28.2" xlink:href="#shape3"/>
    </g>
    <g id="shape3" transform="matrix(1.0, 0.0, 0.0, 1.0, 0.0, 0.0)">
      <path d="M27.4 18.95 Q26.2 20.8 23.4 19.8 19.6 18.5 17.35 14.05 14.8 9.1 9.75 7.4 4.1 5.65 0.0 10.3 1.0 6.85 3.7 4.15 7.2 0.65 11.9 0.05 L14.8 0.05 18.4 0.65 Q21.55 1.65 24.05 4.15 28.2 8.3 28.2 14.25 28.2 16.45 27.65 18.45 L27.4 18.95" fill="#ffffff" fill-opacity="0.19607843" fill-rule="evenodd" stroke="none"/>
    </g>
    <g id="shape4" transform="matrix(1.0, 0.0, 0.0, 1.0, -1.75, -4.1)">
      <path d="M16.25 40.5 Q12.8 39.5 9.55 37.85 10.85 34.6 13.2 34.05 13.95 37.7 16.25 40.5 M27.35 40.5 Q28.95 38.45 29.75 35.85 L30.25 34.05 Q32.6 34.6 33.85 37.9 30.7 39.6 27.35 40.5" fill="url(#gradient4)" fill-rule="evenodd" stroke="none"/>
      <path d="M13.2 34.05 Q14.7 37.1 17.9 38.5 L16.25 40.5 Q13.95 37.7 13.2 34.05 M30.25 34.05 L29.75 35.85 Q28.95 38.45 27.35 40.5 L25.55 38.5 Q28.75 37.1 30.25 34.05" fill="#6d4a34" fill-rule="evenodd" stroke="none"/>
      <path d="M31.05 5.8 L30.45 4.1 Q33.85 5.85 36.75 8.8 L36.8 8.9 Q36.0 12.95 32.2 14.2 32.25 10.95 31.5 7.45 L31.05 5.8 M11.75 14.2 Q7.95 12.95 7.15 9.0 L7.35 8.8 Q10.15 5.9 13.45 4.3 L13.15 5.3 Q11.6 9.9 11.75 14.2" fill="url(#gradient5)" fill-rule="evenodd" stroke="none"/>
      <path d="M31.05 5.8 L31.5 7.45 Q32.25 10.95 32.2 14.2 31.7 9.8 29.1 7.05 L30.8 5.3 31.05 5.8 M11.75 14.2 Q11.6 9.9 13.15 5.3 L14.9 7.05 Q12.3 9.8 11.75 14.2" fill="#492d20" fill-rule="evenodd" stroke="none"/>
      <path d="M42.2 33.5 L42.2 36.2 Q42.2 37.2 41.6 37.85 41.1 38.45 40.25 38.45 39.4 38.45 38.8 37.85 38.2 37.2 38.2 36.2 L38.2 34.95 M1.85 33.5 L1.85 36.2 Q1.85 37.2 2.4 37.85 2.9 38.45 3.8 38.45 4.6 38.45 5.25 37.85 5.8 37.2 5.8 36.2 L5.8 34.95" fill="none" stroke="#6a402d" stroke-linecap="round" stroke-linejoin="round" stroke-width="0.25"/>
      <path d="M39.4 5.45 L39.75 5.35 Q40.3 5.35 40.65 6.2 L40.9 8.3 40.65 10.35 Q40.3 11.25 39.75 11.25 L39.4 11.1 39.95 10.35 40.25 8.3 39.95 6.2 39.4 5.45 M4.55 11.1 L4.2 11.25 Q3.7 11.25 3.35 10.35 3.05 9.5 3.05 8.3 3.05 7.05 3.35 6.2 3.7 5.35 4.2 5.35 L4.55 5.45 4.0 6.2 Q3.75 7.05 3.75 8.3 3.75 9.5 4.0 10.35 L4.55 11.1" fill="#1a0d09" fill-rule="evenodd" stroke="none"/>
      <path d="M39.4 5.45 L39.95 6.2 40.25 8.3 39.95 10.35 39.4 11.1 38.95 10.35 Q38.6 9.5 38.6 8.3 38.6 7.05 38.95 6.2 L39.4 5.45 M4.55 11.1 L4.0 10.35 Q3.75 9.5 3.75 8.3 3.75 7.05 4.0 6.2 L4.55 5.45 5.0 6.2 Q5.35 7.05 5.35 8.3 5.35 9.5 5.0 10.35 L4.55 11.1" fill="#331d16" fill-rule="evenodd" stroke="none"/>
      <path d="M39.4 11.1 L39.75 11.25 Q40.3 11.25 40.65 10.35 L40.9 8.3 40.65 6.2 Q40.3 5.35 39.75 5.35 L39.4 5.45 38.95 6.2 Q38.6 7.05 38.6 8.3 38.6 9.5 38.95 10.35 L39.4 11.1 M4.55 5.45 L4.2 5.35 Q3.7 5.35 3.35 6.2 3.05 7.05 3.05 8.3 3.05 9.5 3.35 10.35 3.7 11.25 4.2 11.25 L4.55 11.1 5.0 10.35 Q5.35 9.5 5.35 8.3 5.35 7.05 5.0 6.2 L4.55 5.45" fill="none" stroke="#6a402d" stroke-linecap="round" stroke-linejoin="round" stroke-width="0.05"/>
      <path d="M31.9 43.95 L12.1 43.95 Q12.85 43.6 14.45 43.2 L22.0 42.65 29.5 43.2 31.9 43.95" fill="#6c432e" fill-rule="evenodd" stroke="none"/>
    </g>
    <linearGradient gradientTransform="matrix(0.0, -0.0275, -0.044, 0.0, 20.85, 22.2)" gradientUnits="userSpaceOnUse" id="gradient4" spreadMethod="pad" x1="-819.2" x2="819.2">
      <stop offset="0.0196078431372549" stop-color="#905a3d"/>
      <stop offset="0.9764705882352941" stop-color="#6a412d"/>
    </linearGradient>
    <linearGradient gradientTransform="matrix(0.0, -0.0275, -0.044, 0.0, 20.85, 22.2)" gradientUnits="userSpaceOnUse" id="gradient5" spreadMethod="pad" x1="-819.2" x2="819.2">
      <stop offset="0.0196078431372549" stop-color="#905a3d"/>
      <stop offset="0.9764705882352941" stop-color="#6a412d"/>
    </linearGradient>
  </defs>
</svg>
