<?xml version="1.0" encoding="UTF-8" standalone="no"?>
<svg xmlns:xlink="http://www.w3.org/1999/xlink" height="66.0px" width="66.0px" xmlns="http://www.w3.org/2000/svg">
  <g transform="matrix(1.5, 0.0, 0.0, 1.5, 0.0, 0.0)">
    <use height="37.1" transform="matrix(1.0, 0.0, 0.0, 1.0, 3.55, 5.5)" width="37.2" xlink:href="#shape0"/>
    <use height="0.0" transform="matrix(1.2125, 0.0, 0.0, 1.2125, 1.25, 2.9)" width="0.0" xlink:href="#sprite0"/>
    <use height="44.0" transform="matrix(1.0, 0.0, 0.0, 1.0, 0.0, 0.0)" width="44.0" xlink:href="#shape1"/>
    <use height="8.6" transform="matrix(1.2077, 0.0, 0.0, 1.2093, 0.5085, 0.75)" width="35.05" xlink:href="#sprite1"/>
    <use height="20.15" transform="matrix(1.1548, 0.0, 0.0, 1.1564, 6.3, 5.65)" width="28.2" xlink:href="#sprite2"/>
    <use height="39.85" transform="matrix(1.0, 0.0, 0.0, 1.0, 1.75, 4.1)" width="40.55" xlink:href="#shape4"/>
  </g>
  <defs>
    <g id="shape0" transform="matrix(1.0, 0.0, 0.0, 1.0, -3.55, -5.5)">
      <path d="M22.2 42.6 Q14.45 42.6 9.0 37.2 3.55 31.75 3.55 24.05 3.55 16.35 9.0 10.95 14.45 5.5 22.2 5.5 29.9 5.5 35.35 10.95 40.75 16.4 40.75 24.05 40.75 31.75 35.35 37.2 29.9 42.6 22.2 42.6" fill="url(#gradient0)" fill-rule="evenodd" stroke="none"/>
      <path d="M32.3 17.0 L31.05 15.8 31.9 14.95 33.1 16.2 32.3 17.0 M14.95 22.5 L28.9 22.5 28.9 31.0 27.9 31.8 36.8 31.8 36.8 35.65 Q23.25 46.25 7.0 35.8 L7.0 31.8 14.9 31.8 14.25 31.25 14.25 27.05 13.7 27.05 13.7 24.75 14.25 24.75 14.25 23.25 14.95 22.5" fill="#372d2d" fill-rule="evenodd" stroke="none"/>
      <path d="M27.05 27.35 L22.9 22.55 31.3 15.35 Q34.1 17.9 34.4 21.45 33.2 27.15 27.05 27.35" fill="#372d2d" fill-rule="evenodd" stroke="none"/>
      <path d="M17.95 19.65 Q18.35 20.05 19.0 20.0 18.05 20.05 17.8 20.45 17.5 20.8 17.5 21.45 17.5 20.85 17.15 20.45 16.7 20.0 15.9 19.9 L17.0 19.65 Q17.45 19.3 17.55 18.25 17.5 19.25 17.95 19.65" fill="#372d2d" fill-rule="evenodd" stroke="none"/>
      <path d="M22.85 19.65 Q23.25 20.05 23.9 20.0 22.95 20.05 22.7 20.45 22.4 20.8 22.4 21.45 22.4 20.85 22.05 20.45 21.6 20.0 20.8 19.9 L21.9 19.65 Q22.35 19.3 22.45 18.25 22.4 19.25 22.85 19.65" fill="#372d2d" fill-rule="evenodd" stroke="none"/>
      <path d="M20.8 17.0 Q21.2 17.4 21.85 17.35 20.9 17.4 20.65 17.8 20.35 18.15 20.35 18.8 20.35 18.2 20.0 17.8 19.55 17.35 18.75 17.25 L19.85 17.0 Q20.3 16.65 20.4 15.6 20.35 16.6 20.8 17.0" fill="#372d2d" fill-rule="evenodd" stroke="none"/>
      <path d="M20.35 9.3 Q20.75 9.7 21.4 9.65 20.45 9.7 20.2 10.1 19.9 10.45 19.9 11.1 19.9 10.5 19.55 10.1 19.1 9.65 18.3 9.55 L19.4 9.3 Q19.85 8.95 19.95 7.9 19.9 8.9 20.35 9.3" fill="#372d2d" fill-rule="evenodd" stroke="none"/>
      <path d="M16.0 15.5 Q16.4 15.9 17.05 15.85 16.1 15.9 15.85 16.3 15.55 16.65 15.55 17.3 15.55 16.7 15.2 16.3 14.75 15.85 13.95 15.75 14.6 15.8 15.05 15.5 15.5 15.15 15.6 14.1 15.55 15.1 16.0 15.5" fill="#372d2d" fill-rule="evenodd" stroke="none"/>
      <path d="M24.2 14.15 Q24.6 14.55 25.25 14.5 24.3 14.55 24.05 14.95 23.75 15.3 23.75 15.95 23.75 15.35 23.4 14.95 22.95 14.5 22.15 14.4 L23.25 14.15 Q23.7 13.8 23.8 12.75 23.75 13.75 24.2 14.15" fill="#372d2d" fill-rule="evenodd" stroke="none"/>
    </g>
    <linearGradient gradientTransform="matrix(0.0, -0.0173, -0.0173, 0.0, 22.2, 20.5)" gradientUnits="userSpaceOnUse" id="gradient0" spreadMethod="pad" x1="-819.2" x2="819.2">
      <stop offset="0.011764705882352941" stop-color="#c4bebb"/>
      <stop offset="1.0" stop-color="#9f8a82"/>
    </linearGradient>
    <g id="shape1" transform="matrix(1.0, 0.0, 0.0, 1.0, 0.0, 0.0)">
      <path d="M34.2 9.8 Q29.15 4.7 22.0 4.7 14.8 4.7 9.75 9.8 4.65 14.8 4.65 22.05 4.65 29.2 9.75 34.3 14.8 39.4 22.0 39.4 29.2 39.4 34.2 34.3 39.25 29.2 39.25 22.05 39.25 14.8 34.2 9.8 M2.15 2.25 Q4.45 0.0 7.55 0.0 L36.35 0.0 Q39.55 0.0 41.75 2.25 44.0 4.55 44.0 7.65 L44.0 36.45 Q44.0 39.55 41.75 41.8 39.55 44.0 36.35 44.0 L7.55 44.0 Q4.45 44.0 2.15 41.8 0.0 39.55 0.0 36.45 L0.0 7.65 Q0.0 4.55 2.15 2.25" fill="url(#gradient1)" fill-rule="evenodd" stroke="none"/>
      <path d="M21.9 5.55 Q15.0 5.6 10.2 10.5 5.3 15.35 5.3 22.2 5.3 29.15 10.2 34.05 15.0 38.85 21.9 38.85 28.75 38.85 33.65 34.05 38.55 29.15 38.55 22.2 38.55 15.35 33.65 10.5 28.8 5.6 21.9 5.55 M8.4 8.8 Q14.0 3.2 21.9 3.2 29.75 3.2 35.3 8.8 40.9 14.35 40.9 22.2 40.9 30.15 35.3 35.7 29.75 41.25 21.9 41.25 14.0 41.25 8.4 35.7 2.85 30.15 2.85 22.2 2.85 14.35 8.4 8.8" fill="url(#gradient2)" fill-rule="evenodd" stroke="none"/>
    </g>
    <linearGradient gradientTransform="matrix(0.0, -0.0275, -0.044, 0.0, 20.85, 22.2)" gradientUnits="userSpaceOnUse" id="gradient1" spreadMethod="pad" x1="-819.2" x2="819.2">
      <stop offset="0.0196078431372549" stop-color="#905a3d"/>
      <stop offset="0.9764705882352941" stop-color="#6a412d"/>
    </linearGradient>
    <linearGradient gradientTransform="matrix(0.0, -0.0168, -0.0168, 0.0, 21.9, 26.8)" gradientUnits="userSpaceOnUse" id="gradient2" spreadMethod="pad" x1="-819.2" x2="819.2">
      <stop offset="0.0196078431372549" stop-color="#a3704d"/>
      <stop offset="0.9803921568627451" stop-color="#492d20"/>
    </linearGradient>
    <g id="sprite1" transform="matrix(1.0, 0.0, 0.0, 1.0, 0.2, 0.0)">
      <use height="8.6" transform="matrix(1.0, 0.0, 0.0, 1.0, -0.2, 0.0)" width="35.05" xlink:href="#shape2"/>
    </g>
    <g id="shape2" transform="matrix(1.0, 0.0, 0.0, 1.0, 0.2, 0.0)">
      <path d="M34.4 4.4 Q34.85 5.8 34.85 7.65 L34.85 8.6 Q34.8 6.95 34.4 5.7 33.0 1.3 27.2 1.3 L7.45 1.3 Q0.05 1.3 -0.2 8.5 L-0.2 7.65 Q-0.2 0.0 7.45 0.0 L27.2 0.0 Q33.0 0.0 34.4 4.4" fill="#e7deda" fill-rule="evenodd" stroke="none"/>
    </g>
    <g id="sprite2" transform="matrix(1.0, 0.0, 0.0, 1.0, 0.0, 0.0)">
      <use height="20.15" transform="matrix(1.0, 0.0, 0.0, 1.0, 0.0, 0.0)" width="28.2" xlink:href="#shape3"/>
    </g>
    <g id="shape3" transform="matrix(1.0, 0.0, 0.0, 1.0, 0.0, 0.0)">
      <path d="M27.4 18.95 Q26.2 20.8 23.4 19.8 19.6 18.5 17.35 14.05 14.8 9.1 9.75 7.4 4.1 5.65 0.0 10.3 1.0 6.85 3.7 4.15 7.2 0.65 11.9 0.05 L14.8 0.05 18.4 0.65 Q21.55 1.65 24.05 4.15 28.2 8.3 28.2 14.25 28.2 16.45 27.65 18.45 L27.4 18.95" fill="#ffffff" fill-opacity="0.19607843" fill-rule="evenodd" stroke="none"/>
    </g>
    <g id="shape4" transform="matrix(1.0, 0.0, 0.0, 1.0, -1.75, -4.1)">
      <path d="M16.25 40.5 Q12.8 39.5 9.55 37.85 10.85 34.6 13.2 34.05 13.95 37.7 16.25 40.5 M30.25 34.05 Q32.6 34.6 33.85 37.9 30.7 39.6 27.35 40.5 28.95 38.45 29.75 35.85 L30.25 34.05" fill="url(#gradient3)" fill-rule="evenodd" stroke="none"/>
      <path d="M13.2 34.05 Q14.7 37.1 17.9 38.5 L16.25 40.5 Q13.95 37.7 13.2 34.05 M30.25 34.05 L29.75 35.85 Q28.95 38.45 27.35 40.5 L25.55 38.5 Q28.75 37.1 30.25 34.05" fill="#6d4a34" fill-rule="evenodd" stroke="none"/>
      <path d="M31.05 5.8 L30.45 4.1 Q33.85 5.85 36.75 8.8 L36.8 8.9 Q36.0 12.95 32.2 14.2 32.25 10.95 31.5 7.45 L31.05 5.8 M11.75 14.2 Q7.95 12.95 7.15 9.0 L7.35 8.8 Q10.15 5.9 13.45 4.3 L13.15 5.3 Q11.6 9.9 11.75 14.2" fill="url(#gradient4)" fill-rule="evenodd" stroke="none"/>
      <path d="M31.05 5.8 L31.5 7.45 Q32.25 10.95 32.2 14.2 31.7 9.8 29.1 7.05 L30.8 5.3 31.05 5.8 M11.75 14.2 Q11.6 9.9 13.15 5.3 L14.9 7.05 Q12.3 9.8 11.75 14.2" fill="#492d20" fill-rule="evenodd" stroke="none"/>
      <path d="M42.2 33.5 L42.2 36.2 Q42.2 37.2 41.6 37.85 41.1 38.45 40.25 38.45 39.4 38.45 38.8 37.85 38.2 37.2 38.2 36.2 L38.2 34.95 M1.85 33.5 L1.85 36.2 Q1.85 37.2 2.4 37.85 2.9 38.45 3.8 38.45 4.6 38.45 5.25 37.85 5.8 37.2 5.8 36.2 L5.8 34.95" fill="none" stroke="#6a402d" stroke-linecap="round" stroke-linejoin="round" stroke-width="0.25"/>
      <path d="M39.4 5.45 L39.75 5.35 Q40.3 5.35 40.65 6.2 L40.9 8.3 40.65 10.35 Q40.3 11.25 39.75 11.25 L39.4 11.1 39.95 10.35 40.25 8.3 39.95 6.2 39.4 5.45 M4.55 11.1 L4.2 11.25 Q3.7 11.25 3.35 10.35 3.05 9.5 3.05 8.3 3.05 7.05 3.35 6.2 3.7 5.35 4.2 5.35 L4.55 5.45 4.0 6.2 Q3.75 7.05 3.75 8.3 3.75 9.5 4.0 10.35 L4.55 11.1" fill="#1a0d09" fill-rule="evenodd" stroke="none"/>
      <path d="M39.4 5.45 L39.95 6.2 40.25 8.3 39.95 10.35 39.4 11.1 38.95 10.35 Q38.6 9.5 38.6 8.3 38.6 7.05 38.95 6.2 L39.4 5.45 M4.55 11.1 L4.0 10.35 Q3.75 9.5 3.75 8.3 3.75 7.05 4.0 6.2 L4.55 5.45 5.0 6.2 Q5.35 7.05 5.35 8.3 5.35 9.5 5.0 10.35 L4.55 11.1" fill="#331d16" fill-rule="evenodd" stroke="none"/>
      <path d="M39.4 11.1 L39.75 11.25 Q40.3 11.25 40.65 10.35 L40.9 8.3 40.65 6.2 Q40.3 5.35 39.75 5.35 L39.4 5.45 38.95 6.2 Q38.6 7.05 38.6 8.3 38.6 9.5 38.95 10.35 L39.4 11.1 M4.55 5.45 L4.2 5.35 Q3.7 5.35 3.35 6.2 3.05 7.05 3.05 8.3 3.05 9.5 3.35 10.35 3.7 11.25 4.2 11.25 L4.55 11.1 5.0 10.35 Q5.35 9.5 5.35 8.3 5.35 7.05 5.0 6.2 L4.55 5.45" fill="none" stroke="#6a402d" stroke-linecap="round" stroke-linejoin="round" stroke-width="0.05"/>
      <path d="M31.9 43.95 L12.1 43.95 Q12.85 43.6 14.45 43.2 L22.0 42.65 29.5 43.2 31.9 43.95" fill="#6c432e" fill-rule="evenodd" stroke="none"/>
    </g>
    <linearGradient gradientTransform="matrix(0.0, -0.0275, -0.044, 0.0, 20.85, 22.2)" gradientUnits="userSpaceOnUse" id="gradient3" spreadMethod="pad" x1="-819.2" x2="819.2">
      <stop offset="0.0196078431372549" stop-color="#905a3d"/>
      <stop offset="0.9764705882352941" stop-color="#6a412d"/>
    </linearGradient>
    <linearGradient gradientTransform="matrix(0.0, -0.0275, -0.044, 0.0, 20.85, 22.2)" gradientUnits="userSpaceOnUse" id="gradient4" spreadMethod="pad" x1="-819.2" x2="819.2">
      <stop offset="0.0196078431372549" stop-color="#905a3d"/>
      <stop offset="0.9764705882352941" stop-color="#6a412d"/>
    </linearGradient>
  </defs>
</svg>
