<?xml version="1.0" encoding="UTF-8" standalone="no"?>
<svg xmlns:xlink="http://www.w3.org/1999/xlink" height="66.225px" width="66.0px" xmlns="http://www.w3.org/2000/svg">
  <g transform="matrix(1.5, 0.0, 0.0, 1.5, 0.0, -0.075)">
    <use height="44.15" transform="matrix(1.0, 0.0, 0.0, 1.0, 0.0, 0.05)" width="44.0" xlink:href="#shape0"/>
    <use height="0.0" transform="matrix(1.2125, 0.0, 0.0, 1.2137, 1.0, 1.05)" width="0.0" xlink:href="#sprite0"/>
    <use height="20.85" transform="matrix(1.0, 0.0, 0.0, 1.0, 0.7, 23.3)" width="42.65" xlink:href="#shape1"/>
    <use height="8.6" transform="matrix(1.2077, 0.0, 0.0, 1.2065, 0.9585, 0.6)" width="35.05" xlink:href="#sprite1"/>
    <use height="26.5" transform="matrix(1.0, 0.0, 0.0, 1.0, 10.25, 9.4)" width="24.4" xlink:href="#shape3"/>
    <use height="20.15" transform="matrix(1.1594, 0.0, 0.0, 1.1605, 5.8, 5.35)" width="28.2" xlink:href="#sprite2"/>
  </g>
  <defs>
    <g id="shape0" transform="matrix(1.0, 0.0, 0.0, 1.0, 0.0, -0.05)">
      <path d="M20.05 44.2 L16.35 44.2 16.35 43.15 Q18.0 44.1 20.05 44.2 M28.65 42.25 L33.05 42.25 33.05 44.2 28.65 44.2 28.65 42.25" fill="url(#gradient0)" fill-rule="evenodd" stroke="none"/>
      <path d="M20.05 44.2 Q18.0 44.1 16.35 43.15 L15.25 42.25 28.65 42.25 28.65 44.2 20.05 44.2" fill="url(#gradient1)" fill-rule="evenodd" stroke="none"/>
      <path d="M41.8 41.9 Q39.6 44.1 36.4 44.1 L7.6 44.1 Q4.45 44.1 2.25 41.9 0.0 39.7 0.0 36.5 L0.0 7.65 Q0.0 4.55 2.25 2.35 4.45 0.05 7.6 0.05 L36.4 0.05 Q39.55 0.05 41.8 2.35 44.0 4.55 44.0 7.65 L44.0 36.5 Q44.0 39.7 41.8 41.9" fill="url(#gradient2)" fill-rule="evenodd" stroke="none"/>
      <path d="M8.85 9.0 Q14.3 3.55 22.05 3.55 29.75 3.55 35.2 9.0 40.6 14.45 40.6 22.1 40.6 29.85 35.2 35.3 29.75 40.7 22.05 40.7 14.3 40.7 8.85 35.3 3.4 29.85 3.4 22.1 3.4 14.4 8.85 9.0" fill="url(#gradient3)" fill-rule="evenodd" stroke="none"/>
      <path d="M40.85 22.1 Q40.85 30.0 35.25 35.55 29.75 41.2 21.85 41.2 13.9 41.2 8.4 35.55 2.85 30.0 2.85 22.1 2.85 14.15 8.4 8.65 13.9 3.1 21.85 3.1 29.75 3.1 35.25 8.65 40.85 14.15 40.85 22.1 M33.7 10.4 Q28.75 5.55 21.85 5.45 14.95 5.55 10.1 10.4 5.2 15.2 5.15 22.1 5.2 29.1 10.1 33.95 14.95 38.85 21.85 38.85 28.75 38.85 33.7 33.95 38.5 29.1 38.5 22.1 38.5 15.2 33.7 10.4" fill="url(#gradient4)" fill-rule="evenodd" stroke="none"/>
    </g>
    <linearGradient gradientTransform="matrix(0.0, -0.0555, -0.0554, 0.0, 22.45, 18.5)" gradientUnits="userSpaceOnUse" id="gradient0" spreadMethod="pad" x1="-819.2" x2="819.2">
      <stop offset="0.011764705882352941" stop-color="#e8e1b7"/>
      <stop offset="1.0" stop-color="#eed731"/>
    </linearGradient>
    <linearGradient gradientTransform="matrix(0.0, -0.0555, -0.0554, 0.0, 34.75, 18.5)" gradientUnits="userSpaceOnUse" id="gradient1" spreadMethod="pad" x1="-819.2" x2="819.2">
      <stop offset="0.011764705882352941" stop-color="#e8e1b7"/>
      <stop offset="1.0" stop-color="#eed731"/>
    </linearGradient>
    <linearGradient gradientTransform="matrix(0.0, -0.0283, -0.0551, 0.0, 22.6, 22.05)" gradientUnits="userSpaceOnUse" id="gradient2" spreadMethod="pad" x1="-819.2" x2="819.2">
      <stop offset="0.011764705882352941" stop-color="#9dae7c"/>
      <stop offset="1.0" stop-color="#7e8f45"/>
    </linearGradient>
    <linearGradient gradientTransform="matrix(0.0, -0.0173, -0.0173, 0.0, 22.05, 18.6)" gradientUnits="userSpaceOnUse" id="gradient3" spreadMethod="pad" x1="-819.2" x2="819.2">
      <stop offset="0.011764705882352941" stop-color="#d3d4b5"/>
      <stop offset="1.0" stop-color="#71a26f"/>
    </linearGradient>
    <linearGradient gradientTransform="matrix(1.0E-4, 0.0224, -0.0232, 1.0E-4, 21.9, 22.4)" gradientUnits="userSpaceOnUse" id="gradient4" spreadMethod="pad" x1="-819.2" x2="819.2">
      <stop offset="0.011764705882352941" stop-color="#516537"/>
      <stop offset="1.0" stop-color="#a8ce99"/>
    </linearGradient>
    <g id="shape1" transform="matrix(1.0, 0.0, 0.0, 1.0, -0.7, -23.3)">
      <path d="M0.85 33.0 Q1.15 30.65 2.4 29.45 L2.8 27.75 Q2.95 26.75 2.7 25.7 L2.4 24.65 1.75 23.3 2.8 24.4 3.65 25.6 3.95 27.0 Q4.05 27.9 3.35 29.7 2.7 31.3 2.55 33.5 L2.45 33.25 2.4 33.5 Q1.85 36.3 3.0 38.25 3.55 39.2 4.25 39.75 L3.95 39.25 4.05 39.3 4.3 39.8 Q4.9 40.55 5.75 40.7 6.85 40.9 7.9 40.0 9.15 39.05 8.2 37.7 L8.25 38.55 Q8.05 39.5 6.7 39.95 L5.7 40.15 5.7 40.05 5.6 38.85 Q5.55 37.1 7.0 36.2 8.5 35.25 10.0 36.8 L11.2 38.6 Q11.15 36.75 10.25 35.8 L10.4 35.95 Q11.1 36.7 11.4 37.65 L11.35 37.65 11.5 38.05 11.8 38.9 11.85 40.05 Q10.45 42.95 8.65 42.95 9.95 42.75 10.05 41.6 7.15 42.8 3.7 41.1 1.2 39.15 0.85 33.0" fill="#9ec087" fill-rule="evenodd" stroke="none"/>
      <path d="M11.85 40.05 Q11.75 41.2 11.1 42.3 10.1 44.1 7.0 44.15 L4.1 43.85 5.6 43.4 7.8 43.1 6.55 43.2 Q4.4 43.15 2.85 41.65 0.95 39.6 0.75 35.5 0.65 34.1 0.85 33.0 1.2 39.15 3.7 41.1 7.15 42.8 10.05 41.6 9.95 42.75 8.65 42.95 10.45 42.95 11.85 40.05" fill="#648a4a" fill-rule="evenodd" stroke="none"/>
      <path d="M2.55 33.5 L2.4 33.5 2.45 33.25 2.55 33.5" fill="#00632e" fill-rule="evenodd" stroke="none"/>
      <path d="M2.55 33.5 L2.6 34.8 Q2.95 36.55 3.8 37.7 L3.9 37.1 Q4.6 35.1 7.3 34.55 L9.2 35.0 10.25 35.8 Q11.15 36.75 11.2 38.6 L10.0 36.8 Q8.5 35.25 7.0 36.2 5.55 37.1 5.6 38.85 L5.7 40.05 5.7 40.15 6.7 39.95 Q8.05 39.5 8.25 38.55 L8.2 37.7 Q9.15 39.05 7.9 40.0 6.85 40.9 5.75 40.7 4.9 40.55 4.3 39.8 L4.05 39.3 3.95 39.25 4.25 39.75 Q3.55 39.2 3.0 38.25 1.85 36.3 2.4 33.5 L2.55 33.5 M3.95 39.25 L4.1 39.2 4.05 39.05 3.9 39.1 3.95 39.25" fill="#c0d6b1" fill-rule="evenodd" stroke="none"/>
      <path d="M3.95 39.25 L3.9 39.1 4.05 39.05 4.1 39.2 3.95 39.25" fill="#ccbf38" fill-rule="evenodd" stroke="none"/>
      <path d="M11.4 37.65 L11.5 38.05 11.35 37.65 11.4 37.65" fill="url(#gradient5)" fill-rule="evenodd" stroke="none"/>
      <path d="M41.5 33.5 Q41.35 31.3 40.7 29.7 40.0 27.9 40.1 27.0 L40.4 25.6 41.25 24.4 42.3 23.3 41.65 24.65 41.35 25.7 Q41.1 26.75 41.25 27.75 L41.65 29.45 Q42.9 30.65 43.2 33.0 42.85 39.15 40.35 41.1 36.9 42.8 34.0 41.6 34.1 42.75 35.4 42.95 33.6 42.95 32.2 40.05 32.15 39.5 32.25 38.9 L32.55 38.05 32.7 37.65 32.65 37.65 Q32.95 36.7 33.65 35.95 L33.8 35.8 Q32.9 36.75 32.85 38.6 33.3 37.65 34.05 36.8 35.55 35.25 37.05 36.2 38.5 37.1 38.45 38.85 L38.35 40.05 38.35 40.15 37.35 39.95 Q36.0 39.5 35.8 38.55 L35.85 37.7 Q34.9 39.05 36.15 40.0 37.2 40.9 38.3 40.7 39.15 40.55 39.75 39.8 L40.0 39.3 40.1 39.25 39.8 39.75 41.05 38.25 Q42.2 36.3 41.65 33.5 L41.6 33.25 41.5 33.5" fill="#9ec087" fill-rule="evenodd" stroke="none"/>
      <path d="M32.2 40.05 Q33.6 42.95 35.4 42.95 34.1 42.75 34.0 41.6 36.9 42.8 40.35 41.1 42.85 39.15 43.2 33.0 L43.3 35.5 Q43.1 39.6 41.2 41.65 39.65 43.15 37.5 43.2 L36.25 43.1 38.45 43.4 39.95 43.85 37.05 44.15 Q33.95 44.1 32.95 42.3 32.3 41.2 32.2 40.05" fill="#648a4a" fill-rule="evenodd" stroke="none"/>
      <path d="M41.5 33.5 L41.6 33.25 41.65 33.5 41.5 33.5" fill="#00632e" fill-rule="evenodd" stroke="none"/>
      <path d="M41.65 33.5 Q42.2 36.3 41.05 38.25 L39.8 39.75 40.1 39.25 40.0 39.3 39.75 39.8 Q39.15 40.55 38.3 40.7 37.2 40.9 36.15 40.0 34.9 39.05 35.85 37.7 L35.8 38.55 Q36.0 39.5 37.35 39.95 L38.35 40.15 38.35 40.05 38.45 38.85 Q38.5 37.1 37.05 36.2 35.55 35.25 34.05 36.8 33.3 37.65 32.85 38.6 32.9 36.75 33.8 35.8 L34.85 35.0 36.75 34.55 Q39.45 35.1 40.15 37.1 L40.25 37.7 Q41.1 36.55 41.45 34.8 L41.5 33.5 41.65 33.5 M40.1 39.25 L40.15 39.1 40.0 39.05 39.95 39.2 40.1 39.25" fill="#c0d6b1" fill-rule="evenodd" stroke="none"/>
      <path d="M40.1 39.25 L39.95 39.2 40.0 39.05 40.15 39.1 40.1 39.25" fill="#ccbf38" fill-rule="evenodd" stroke="none"/>
      <path d="M32.65 37.65 L32.7 37.65 32.55 38.05 32.65 37.65" fill="url(#gradient6)" fill-rule="evenodd" stroke="none"/>
    </g>
    <linearGradient gradientTransform="matrix(0.0, -0.025, -0.025, 0.0, 6.1, 31.6)" gradientUnits="userSpaceOnUse" id="gradient5" spreadMethod="pad" x1="-819.2" x2="819.2">
      <stop offset="0.011764705882352941" stop-color="#bed9a5"/>
      <stop offset="1.0" stop-color="#739416"/>
    </linearGradient>
    <linearGradient gradientTransform="matrix(0.0, -0.025, 0.025, 0.0, 37.9, 31.6)" gradientUnits="userSpaceOnUse" id="gradient6" spreadMethod="pad" x1="-819.2" x2="819.2">
      <stop offset="0.011764705882352941" stop-color="#bed9a5"/>
      <stop offset="1.0" stop-color="#739416"/>
    </linearGradient>
    <g id="sprite1" transform="matrix(1.0, 0.0, 0.0, 1.0, 0.2, 0.0)">
      <use height="8.6" transform="matrix(1.0, 0.0, 0.0, 1.0, -0.2, 0.0)" width="35.05" xlink:href="#shape2"/>
    </g>
    <g id="shape2" transform="matrix(1.0, 0.0, 0.0, 1.0, 0.2, 0.0)">
      <path d="M34.4 4.4 Q34.85 5.8 34.85 7.65 L34.85 8.6 Q34.8 6.95 34.4 5.7 33.0 1.3 27.2 1.3 L7.45 1.3 Q0.05 1.3 -0.2 8.5 L-0.2 7.65 Q-0.2 0.0 7.45 0.0 L27.2 0.0 Q33.0 0.0 34.4 4.4" fill="#e7deda" fill-rule="evenodd" stroke="none"/>
    </g>
    <g id="shape3" transform="matrix(1.0, 0.0, 0.0, 1.0, -10.25, -9.4)">
      <path d="M34.55 29.3 L34.4 29.85 33.4 31.2 33.3 31.3 33.05 31.55 32.75 31.75 Q28.2 35.75 23.7 35.9 L22.2 35.85 Q19.0 35.45 15.75 33.2 11.7 30.5 10.85 25.0 9.4 16.0 11.45 10.7 13.45 13.65 17.6 9.4 17.9 11.45 19.2 12.05 20.45 12.65 24.05 10.45 23.75 13.6 24.7 14.5 26.15 15.8 29.4 14.45 24.65 18.45 24.15 20.45 23.7 22.5 23.55 24.7 23.45 26.9 24.9 29.3 26.4 31.7 28.15 31.6 L32.8 30.8 34.05 29.85 34.55 29.3 M32.2 21.4 Q34.15 21.2 34.6 26.2 L34.65 27.1 Q33.8 28.85 32.6 29.2 L30.9 29.75 31.85 28.85 Q32.5 27.85 32.8 26.55 33.3 22.95 31.85 22.8 31.25 22.75 30.3 23.3 28.05 25.45 30.7 27.3 28.7 27.0 28.35 24.85 28.85 21.5 31.85 21.4 L32.2 21.4 M16.4 24.7 L15.9 24.7 15.3 26.35 14.55 25.2 Q13.95 25.75 14.1 27.0 15.75 30.5 17.65 30.05 19.15 29.6 19.35 27.7 L18.7 26.0 17.85 26.75 17.6 25.0 16.4 24.7 M18.35 22.5 Q20.8 22.5 21.4 19.05 19.65 21.1 16.4 20.3 16.5 22.4 18.35 22.5 M15.2 20.3 Q12.75 19.75 12.1 17.45 11.3 20.3 13.8 21.75 15.05 21.65 15.2 20.3 M22.05 35.4 L21.95 35.4 21.95 35.45 22.05 35.4" fill="#496125" fill-rule="evenodd" stroke="none"/>
    </g>
    <g id="sprite2" transform="matrix(1.0, 0.0, 0.0, 1.0, 0.0, 0.0)">
      <use height="20.15" transform="matrix(1.0, 0.0, 0.0, 1.0, 0.0, 0.0)" width="28.2" xlink:href="#shape4"/>
    </g>
    <g id="shape4" transform="matrix(1.0, 0.0, 0.0, 1.0, 0.0, 0.0)">
      <path d="M27.65 18.45 L27.4 18.95 Q26.2 20.8 23.4 19.8 19.6 18.5 17.35 14.05 14.8 9.1 9.75 7.4 4.1 5.65 0.0 10.3 1.0 6.85 3.7 4.15 7.2 0.65 11.9 0.05 L14.8 0.05 18.4 0.65 Q21.55 1.65 24.05 4.15 28.2 8.3 28.2 14.25 28.2 16.45 27.65 18.45" fill="#ffffff" fill-opacity="0.19607843" fill-rule="evenodd" stroke="none"/>
    </g>
  </defs>
</svg>
