<?xml version="1.0" encoding="UTF-8" standalone="no"?>
<svg xmlns:xlink="http://www.w3.org/1999/xlink" height="66.15px" width="66.0px" xmlns="http://www.w3.org/2000/svg">
  <g transform="matrix(1.5, 0.0, 0.0, 1.5, 0.0, 0.0)">
    <use height="44.05" transform="matrix(1.0, 0.0, 0.0, 1.0, 0.0, 0.0)" width="44.0" xlink:href="#shape0"/>
    <use height="0.0" transform="matrix(1.2088, 0.0, 0.0, 1.2099, 0.95, 0.75)" width="0.0" xlink:href="#sprite0"/>
    <use height="24.3" transform="matrix(1.0, 0.0, 0.0, 1.0, 0.2, 19.8)" width="43.45" xlink:href="#shape1"/>
    <use height="8.6" transform="matrix(1.2077, 0.0, 0.0, 1.2065, 1.0585, 0.55)" width="35.05" xlink:href="#sprite1"/>
    <use height="20.15" transform="matrix(1.1594, 0.0, 0.0, 1.1605, 6.1, 5.45)" width="28.2" xlink:href="#sprite2"/>
  </g>
  <defs>
    <g id="shape0" transform="matrix(1.0, 0.0, 0.0, 1.0, 0.0, 0.0)">
      <path d="M7.55 8.2 Q13.4 2.25 21.8 2.25 30.15 2.25 36.05 8.2 41.9 14.1 41.9 22.45 41.9 30.8 36.05 36.75 30.15 42.65 21.8 42.65 13.4 42.65 7.55 36.75 1.6 30.8 1.6 22.45 1.6 14.1 7.55 8.2" fill="url(#gradient0)" fill-rule="evenodd" stroke="none"/>
      <path d="M34.2 9.8 Q29.15 4.7 22.0 4.7 14.8 4.7 9.7 9.8 4.65 14.95 4.65 22.05 4.65 29.25 9.7 34.35 14.75 39.45 22.0 39.45 29.15 39.45 34.2 34.35 39.3 29.25 39.3 22.05 39.3 14.85 34.2 9.8 M41.75 2.25 Q44.0 4.55 44.0 7.65 L44.0 36.45 Q44.0 39.6 41.75 41.85 39.6 44.05 36.4 44.05 L7.6 44.05 Q4.45 44.05 2.25 41.85 0.0 39.65 0.0 36.45 L0.0 7.65 Q0.0 4.55 2.25 2.25 4.45 0.0 7.6 0.0 L36.4 0.0 Q39.6 0.0 41.75 2.25" fill="url(#gradient1)" fill-rule="evenodd" stroke="none"/>
      <path d="M22.25 12.25 Q21.8 11.6 21.15 11.6 20.5 11.6 20.05 12.25 19.6 12.8 19.6 13.45 L19.8 14.35 20.25 15.2 20.15 15.25 Q19.35 15.65 19.35 16.15 L19.45 16.5 17.45 14.9 15.05 14.5 14.75 14.55 16.7 10.95 Q18.05 8.85 20.15 8.85 21.25 8.85 22.45 9.6 L24.05 11.15 24.05 11.45 Q23.35 11.4 22.9 12.5 22.7 12.9 22.65 13.4 22.65 12.8 22.25 12.25 M22.95 9.5 Q23.4 9.05 23.85 9.05 24.65 9.05 24.65 9.7 L24.55 10.15 24.3 10.5 22.95 9.5 M28.4 18.1 L28.5 18.05 Q28.3 18.25 28.2 18.75 L27.9 19.05 27.05 19.7 Q26.25 18.8 25.5 18.55 L23.35 18.25 22.8 18.3 Q23.4 16.85 25.6 14.65 27.1 13.0 29.45 13.0 30.6 13.0 32.4 14.1 34.3 15.25 34.3 16.15 L34.05 16.85 33.85 17.8 Q33.85 19.15 34.95 19.15 L35.65 18.95 Q36.25 18.95 36.65 20.5 L37.35 22.9 38.35 24.95 Q38.65 26.05 38.5 27.4 L37.9 28.8 37.85 28.75 Q37.05 27.15 34.25 25.1 33.4 24.4 31.55 23.8 30.05 23.3 29.6 22.75 L29.55 22.7 28.45 21.5 29.45 21.7 Q29.0 22.5 31.3 22.75 31.3 22.15 32.6 21.15 33.2 20.7 33.2 19.2 L33.1 18.4 32.2 17.05 Q31.35 16.05 30.55 16.05 29.15 16.05 28.4 18.05 L28.4 18.1 M24.5 14.7 L23.8 15.35 Q23.25 15.35 23.25 13.9 23.25 12.15 24.3 12.15 25.45 12.15 25.55 14.1 25.1 14.0 24.5 14.7 M22.0 14.5 L21.75 14.75 21.45 14.5 21.35 14.1 21.45 13.6 21.75 13.4 22.0 13.6 22.15 14.1 22.0 14.5 M22.1 15.9 L22.3 16.45 Q22.3 17.0 21.4 18.25 20.7 18.1 20.3 16.9 19.95 15.6 21.8 15.6 L22.1 15.9 M29.6 23.3 L33.95 25.55 Q37.0 27.6 37.3 29.5 29.8 41.8 17.4 37.75 L16.05 34.7 Q15.3 32.85 15.3 32.3 15.3 31.15 16.25 30.05 17.2 29.0 17.2 28.45 17.2 26.75 18.7 26.75 L19.45 26.85 19.8 24.8 19.5 23.55 Q19.1 22.9 18.8 22.95 L19.25 21.65 19.45 21.35 Q20.05 20.35 21.2 19.65 22.5 18.8 23.9 18.8 25.55 18.8 27.4 20.9 L29.6 23.3 M8.7 18.2 Q8.7 17.55 9.85 16.95 L11.75 15.9 Q12.65 15.35 14.55 15.1 16.3 14.9 18.1 16.2 19.95 17.55 20.9 19.3 L20.9 19.5 Q18.95 18.05 18.1 18.05 17.6 18.05 17.25 18.4 16.75 18.85 16.75 19.6 16.75 19.95 17.25 20.7 L18.25 22.1 16.85 27.55 15.3 29.95 Q14.4 31.15 14.4 32.55 14.4 34.1 15.85 37.45 12.55 36.2 10.45 33.7 7.15 31.55 6.85 25.35 L6.75 24.85 7.0 23.6 7.4 22.15 Q7.4 21.15 8.5 21.35 9.6 21.45 9.6 20.35 L9.15 18.9 8.7 18.2 M22.7 23.45 Q21.9 23.45 21.1 24.95 20.3 26.35 20.3 27.15 20.3 28.2 20.8 28.4 21.65 28.75 21.95 29.25 L22.55 30.6 Q22.75 31.0 23.6 31.0 25.6 31.0 25.6 27.45 25.6 25.45 25.1 24.6 24.45 23.45 22.7 23.45 M30.05 19.8 Q30.05 20.35 29.65 20.8 29.3 21.25 28.75 21.25 L28.05 20.95 Q27.75 20.7 27.45 20.8 27.25 20.25 27.8 19.45 28.35 18.7 28.95 18.7 30.05 18.7 30.05 19.8 M32.35 11.95 L33.15 12.5 Q33.65 13.05 33.65 13.75 L33.5 14.3 31.25 13.0 Q31.65 11.95 32.35 11.95 M32.3 18.25 L32.6 18.5 32.7 19.15 32.6 19.75 32.3 20.0 32.05 19.75 Q31.9 19.5 31.9 19.15 31.9 18.75 32.05 18.5 L32.3 18.25 M35.05 17.2 Q35.2 17.2 35.35 17.4 L35.45 18.0 35.35 18.55 35.05 18.75 34.8 18.55 34.65 18.0 Q34.65 17.65 34.8 17.4 34.9 17.2 35.05 17.2 M34.55 20.2 Q34.55 20.4 35.3 20.75 L35.45 20.45 35.35 19.65 34.55 20.2 M35.6 23.7 Q35.6 24.2 36.0 24.2 L36.2 23.9 35.95 23.2 Q35.6 23.3 35.6 23.7 M10.1 16.1 L9.8 14.75 Q9.8 13.25 10.4 13.25 L11.15 14.0 Q11.8 14.8 11.9 15.35 L11.0 15.75 10.1 16.1 M15.75 8.9 L16.4 9.15 17.0 9.6 16.3 10.6 Q16.1 11.0 15.7 11.0 L15.15 10.5 Q14.8 10.0 14.8 9.7 14.8 9.4 15.1 9.2 15.35 8.9 15.75 8.9 M9.1 19.65 L9.2 20.3 9.1 20.9 8.8 21.15 8.55 20.9 8.45 20.3 8.55 19.65 8.8 19.4 9.1 19.65 M9.25 22.15 L8.35 22.05 Q8.4 23.3 9.05 23.6 9.6 23.05 9.9 22.95 9.85 22.35 9.25 22.15 M11.9 19.2 L11.7 19.4 Q11.1 20.35 11.1 21.55 11.1 22.1 12.1 23.8 13.15 25.55 13.55 25.55 15.35 25.55 15.35 22.6 15.35 20.85 14.6 19.9 13.85 18.9 12.4 18.9 L11.9 19.2 M12.65 21.65 L12.55 22.25 12.3 22.55 12.0 22.25 11.9 21.65 12.0 21.0 Q12.1 20.8 12.3 20.8 L12.55 21.0 12.65 21.65 M17.75 20.05 Q17.75 18.95 18.85 18.95 L19.4 19.2 Q19.9 19.4 19.9 19.6 L19.9 19.7 19.8 20.15 18.65 21.45 18.0 20.95 17.75 20.05 M18.45 26.1 L18.35 25.5 18.45 24.85 18.7 24.65 19.0 24.85 19.1 25.5 19.0 26.1 18.7 26.4 18.45 26.1 M18.25 27.75 L17.55 28.25 17.9 29.0 18.65 29.4 Q18.7 29.1 18.9 28.75 L19.2 28.1 18.25 27.75 M17.95 33.95 L18.3 33.95 18.35 33.55 18.25 33.15 Q18.05 32.9 17.95 32.95 L17.9 33.45 17.95 33.95 M8.15 26.35 Q8.05 26.85 8.55 28.0 L8.7 28.0 8.8 27.3 8.6 26.8 8.15 26.35 M22.5 26.9 L22.4 27.5 22.15 27.75 21.85 27.5 21.75 26.9 21.85 26.25 22.15 26.0 22.4 26.25 22.5 26.9" fill="#5f3921" fill-rule="evenodd" stroke="none"/>
      <path d="M41.05 22.0 Q41.05 29.85 35.45 35.4 29.95 41.0 22.1 41.0 14.2 41.0 8.7 35.4 3.15 29.85 3.15 22.0 3.15 14.15 8.7 8.6 14.2 3.05 22.1 3.05 29.95 3.05 35.45 8.6 41.05 14.15 41.05 22.0 M33.85 10.35 Q28.9 5.45 22.1 5.4 15.2 5.45 10.35 10.35 5.5 15.1 5.45 22.0 5.5 28.95 10.35 33.8 15.2 38.65 22.1 38.65 28.9 38.65 33.85 33.8 38.65 28.95 38.65 22.0 38.65 15.1 33.85 10.35" fill="url(#gradient2)" fill-rule="evenodd" stroke="none"/>
    </g>
    <linearGradient gradientTransform="matrix(0.0, -0.0155, -0.0189, 0.0, 21.85, 25.45)" gradientUnits="userSpaceOnUse" id="gradient0" spreadMethod="pad" x1="-819.2" x2="819.2">
      <stop offset="0.011764705882352941" stop-color="#bb9a76"/>
      <stop offset="1.0" stop-color="#a87f53"/>
    </linearGradient>
    <linearGradient gradientTransform="matrix(0.0, -0.0344, -0.0552, 0.0, 22.45, 16.35)" gradientUnits="userSpaceOnUse" id="gradient1" spreadMethod="pad" x1="-819.2" x2="819.2">
      <stop offset="0.0196078431372549" stop-color="#9c6732"/>
      <stop offset="1.0" stop-color="#7d4e2b"/>
    </linearGradient>
    <linearGradient gradientTransform="matrix(1.0E-4, 0.0223, -0.0231, 1.0E-4, 22.15, 22.25)" gradientUnits="userSpaceOnUse" id="gradient2" spreadMethod="pad" x1="-819.2" x2="819.2">
      <stop offset="0.011764705882352941" stop-color="#59351e"/>
      <stop offset="1.0" stop-color="#cc955e"/>
    </linearGradient>
    <g id="shape1" transform="matrix(1.0, 0.0, 0.0, 1.0, -0.2, -19.8)">
      <path d="M0.2 25.1 Q0.35 22.65 0.8 20.65 0.55 24.85 0.8 26.5 1.15 29.5 3.1 30.95 L8.1 35.1 Q10.6 37.45 11.0 40.2 L14.55 42.5 10.7 42.9 Q9.95 44.4 7.2 44.05 3.2 43.5 2.4 40.25 1.7 37.65 3.6 36.65 L3.8 34.45 4.5 36.3 Q6.5 35.9 6.95 37.0 7.45 38.05 6.85 39.1 6.25 40.05 5.7 39.25 6.4 39.2 6.5 38.8 6.55 38.4 5.85 37.75 5.25 37.1 4.65 37.4 4.1 37.7 3.8 38.85 3.2 41.3 6.05 42.4 9.0 43.5 9.45 40.8 9.95 38.55 7.15 36.2 L3.4 33.3 0.9 32.8 1.9 31.85 Q0.1 29.85 0.2 25.1" fill="#7a5130" fill-rule="evenodd" stroke="none"/>
      <path d="M0.25 24.2 Q0.4 21.8 0.85 19.8 0.6 23.95 0.85 25.55 1.2 28.55 3.15 30.05 L8.2 34.2 Q10.65 36.55 11.05 39.25 L14.7 42.55 10.8 42.05 Q10.05 43.5 7.25 43.15 3.25 42.55 2.45 39.4 1.75 36.8 3.7 35.8 L3.8 34.35 4.55 35.45 Q6.55 35.05 7.0 36.85 7.25 38.35 6.7 39.05 L5.85 39.4 Q7.15 38.2 5.75 36.9 4.45 35.55 3.85 37.95 3.25 40.4 6.1 41.45 9.05 42.55 9.5 39.9 10.05 37.7 7.2 35.25 L3.4 32.4 3.45 32.45 0.85 32.85 1.95 30.95 Q0.15 28.9 0.25 24.2" fill="#ca935c" fill-rule="evenodd" stroke="none"/>
      <path d="M0.85 21.45 Q0.8 24.4 0.9 25.6 1.4 28.65 3.25 30.15 L8.25 34.25 Q10.7 36.6 11.2 39.25 L14.3 42.15 14.05 42.05 13.9 41.9 12.2 40.7 Q10.35 39.1 10.3 38.0 10.15 36.65 8.45 35.15 L5.2 32.65 Q2.0 30.2 1.15 27.45 0.55 25.85 0.55 22.05 L0.85 21.45 M6.5 36.6 Q5.85 35.6 4.65 35.6 L4.45 35.7 4.35 35.6 4.2 35.6 4.2 34.75 4.7 35.5 Q6.6 35.1 7.1 36.9 7.3 37.95 7.1 38.65 L7.0 38.7 7.0 38.65 6.9 38.1 6.9 38.0 Q6.9 37.25 6.5 36.6 M4.25 40.3 L4.1 39.7 Q4.55 40.9 6.2 41.5 L8.45 41.7 8.55 41.75 7.0 42.05 Q6.2 42.05 5.35 41.35 L4.25 40.3" fill="#d7ad86" fill-rule="evenodd" stroke="none"/>
      <path d="M43.65 25.1 Q43.75 29.85 41.95 31.85 L42.95 32.8 40.45 33.3 36.7 36.2 Q33.9 38.55 34.4 40.8 34.85 43.5 37.8 42.4 40.65 41.3 40.05 38.85 39.75 37.7 39.2 37.4 38.6 37.1 38.0 37.75 37.3 38.4 37.35 38.8 37.45 39.2 38.15 39.25 37.6 40.05 37.0 39.1 36.4 38.05 36.9 37.0 37.35 35.9 39.35 36.3 L40.05 34.45 40.25 36.65 Q42.15 37.65 41.45 40.25 40.65 43.5 36.65 44.05 33.9 44.4 33.15 42.9 L29.3 42.5 32.85 40.2 Q33.25 37.45 35.75 35.1 L40.75 30.95 Q42.7 29.5 43.05 26.5 43.3 24.85 43.05 20.65 L43.65 25.1" fill="#7a5130" fill-rule="evenodd" stroke="none"/>
      <path d="M43.6 24.2 Q43.7 28.9 41.9 30.95 L43.0 32.85 40.4 32.45 40.45 32.4 36.65 35.25 Q33.8 37.7 34.35 39.9 34.8 42.55 37.75 41.45 40.6 40.4 40.0 37.95 39.4 35.55 38.1 36.9 36.7 38.2 38.0 39.4 L37.15 39.05 Q36.6 38.35 36.85 36.85 37.3 35.05 39.3 35.45 L40.05 34.35 40.15 35.8 Q42.1 36.8 41.4 39.4 40.6 42.55 36.6 43.15 33.8 43.5 33.05 42.05 L29.15 42.55 32.8 39.25 Q33.2 36.55 35.65 34.2 L40.7 30.05 Q42.65 28.55 43.0 25.55 43.25 23.95 43.0 19.8 L43.6 24.2" fill="#ca935c" fill-rule="evenodd" stroke="none"/>
      <path d="M37.35 36.6 Q36.95 37.25 36.95 38.0 L36.95 38.1 36.85 38.65 36.85 38.7 36.75 38.65 Q36.55 37.95 36.75 36.9 37.25 35.1 39.15 35.5 L39.65 34.75 39.65 35.6 39.5 35.6 39.4 35.7 39.2 35.6 Q38.0 35.6 37.35 36.6 M43.0 21.45 L43.3 22.05 Q43.3 25.85 42.7 27.45 41.85 30.2 38.65 32.65 L35.4 35.15 Q33.7 36.65 33.55 38.0 33.5 39.1 31.65 40.7 L29.95 41.9 29.8 42.05 29.55 42.15 32.65 39.25 Q33.15 36.6 35.6 34.25 L40.6 30.15 Q42.45 28.65 42.95 25.6 L43.0 21.45 M39.6 40.3 L38.5 41.35 Q37.65 42.05 36.85 42.05 L35.3 41.75 35.4 41.7 37.65 41.5 Q39.3 40.9 39.75 39.7 L39.6 40.3" fill="#d7ad86" fill-rule="evenodd" stroke="none"/>
    </g>
    <g id="sprite1" transform="matrix(1.0, 0.0, 0.0, 1.0, 0.2, 0.0)">
      <use height="8.6" transform="matrix(1.0, 0.0, 0.0, 1.0, -0.2, 0.0)" width="35.05" xlink:href="#shape2"/>
    </g>
    <g id="shape2" transform="matrix(1.0, 0.0, 0.0, 1.0, 0.2, 0.0)">
      <path d="M34.4 4.4 Q34.85 5.8 34.85 7.65 L34.85 8.6 Q34.8 6.95 34.4 5.7 33.0 1.3 27.2 1.3 L7.45 1.3 Q0.05 1.3 -0.2 8.5 L-0.2 7.65 Q-0.2 0.0 7.45 0.0 L27.2 0.0 Q33.0 0.0 34.4 4.4" fill="#e7deda" fill-rule="evenodd" stroke="none"/>
    </g>
    <g id="sprite2" transform="matrix(1.0, 0.0, 0.0, 1.0, 0.0, 0.0)">
      <use height="20.15" transform="matrix(1.0, 0.0, 0.0, 1.0, 0.0, 0.0)" width="28.2" xlink:href="#shape3"/>
    </g>
    <g id="shape3" transform="matrix(1.0, 0.0, 0.0, 1.0, 0.0, 0.0)">
      <path d="M27.65 18.45 L27.4 18.95 Q26.2 20.8 23.4 19.8 19.6 18.5 17.35 14.05 14.8 9.1 9.75 7.4 4.1 5.65 0.0 10.3 1.0 6.85 3.7 4.15 7.2 0.65 11.9 0.05 L14.8 0.05 18.4 0.65 Q21.55 1.65 24.05 4.15 28.2 8.3 28.2 14.25 28.2 16.45 27.65 18.45" fill="#ffffff" fill-opacity="0.19607843" fill-rule="evenodd" stroke="none"/>
    </g>
  </defs>
</svg>
