<?xml version="1.0" encoding="UTF-8" standalone="no"?>
<svg xmlns:xlink="http://www.w3.org/1999/xlink" height="66.15px" width="66.0px" xmlns="http://www.w3.org/2000/svg">
  <g transform="matrix(1.5, 0.0, 0.0, 1.5, 0.0, -0.075)">
    <use height="44.05" transform="matrix(1.0, 0.0, 0.0, 1.0, 0.0, 0.05)" width="44.0" xlink:href="#shape0"/>
    <use height="0.0" transform="matrix(1.2088, 0.0, 0.0, 1.2099, 0.95, 0.8)" width="0.0" xlink:href="#sprite0"/>
    <use height="24.3" transform="matrix(1.0, 0.0, 0.0, 1.0, 0.2, 19.85)" width="43.45" xlink:href="#shape1"/>
    <use height="20.15" transform="matrix(1.1594, 0.0, 0.0, 1.1605, 6.15, 5.6)" width="28.2" xlink:href="#sprite1"/>
    <use height="8.6" transform="matrix(1.2077, 0.0, 0.0, 1.2065, 0.7085, 0.6)" width="35.05" xlink:href="#sprite2"/>
    <use height="0.0" transform="matrix(1.2125, 0.0, 0.0, 1.2125, 1.1, 1.0)" width="0.0" xlink:href="#sprite0"/>
  </g>
  <defs>
    <g id="shape0" transform="matrix(1.0, 0.0, 0.0, 1.0, 0.0, -0.05)">
      <path d="M36.05 36.8 Q30.1 42.7 21.8 42.7 13.4 42.7 7.55 36.8 1.6 30.85 1.6 22.5 1.6 14.15 7.55 8.25 13.4 2.3 21.8 2.3 30.1 2.3 36.05 8.25 41.9 14.15 41.9 22.5 41.9 30.85 36.05 36.8" fill="url(#gradient0)" fill-rule="evenodd" stroke="none"/>
      <path d="M9.75 34.7 L15.9 25.5 Q16.1 20.85 19.55 18.85 24.05 16.55 26.1 22.6 26.35 27.25 20.9 26.5 L13.2 37.5 11.2 36.35 9.75 34.7" fill="#5f3921" fill-rule="evenodd" stroke="none"/>
      <path d="M12.8 23.95 L12.65 22.65 Q12.65 18.95 15.3 16.3 17.95 13.65 21.65 13.65 25.35 13.65 27.95 16.3 30.65 18.95 30.65 22.65 30.65 26.35 27.95 29.0 25.35 31.65 21.65 31.65 M12.9 15.0 Q13.7 13.45 15.05 12.1 18.65 8.55 23.55 8.55 28.55 8.55 32.05 12.1 35.55 15.65 35.55 20.55 35.55 25.55 32.05 29.05 30.75 30.35 29.25 31.2" fill="none" stroke="#5f3921" stroke-linecap="round" stroke-linejoin="round" stroke-width="1.5"/>
      <path d="M13.2 37.5 L20.9 26.5 Q26.35 27.25 26.1 22.6 24.05 16.55 19.55 18.85 16.1 20.85 15.9 25.5 L9.75 34.7" fill="none" stroke="#5f3921" stroke-linecap="round" stroke-linejoin="round" stroke-width="1.0"/>
      <path d="M22.0 4.75 Q14.8 4.75 9.7 9.85 4.65 15.0 4.65 22.1 4.65 29.3 9.7 34.4 14.75 39.5 22.0 39.5 29.15 39.5 34.2 34.4 39.3 29.3 39.3 22.1 39.3 14.9 34.2 9.85 29.15 4.75 22.0 4.75 M36.4 0.05 Q39.6 0.05 41.75 2.3 44.0 4.6 44.0 7.7 L44.0 36.5 Q44.0 39.65 41.75 41.9 39.6 44.1 36.4 44.1 L7.6 44.1 Q4.45 44.1 2.25 41.9 0.0 39.7 0.0 36.5 L0.0 7.7 Q0.0 4.6 2.25 2.3 4.45 0.05 7.6 0.05 L36.4 0.05" fill="url(#gradient1)" fill-rule="evenodd" stroke="none"/>
      <path d="M41.05 22.05 Q41.05 29.9 35.45 35.45 29.95 41.05 22.1 41.05 14.2 41.05 8.7 35.45 3.15 29.9 3.15 22.05 3.15 14.2 8.7 8.65 14.2 3.1 22.1 3.1 29.95 3.1 35.45 8.65 41.05 14.2 41.05 22.05 M33.85 10.4 Q28.9 5.5 22.1 5.45 15.2 5.5 10.35 10.4 5.5 15.15 5.45 22.05 5.5 29.0 10.35 33.85 15.2 38.7 22.1 38.7 28.9 38.7 33.85 33.85 38.65 29.0 38.65 22.05 38.65 15.15 33.85 10.4" fill="url(#gradient2)" fill-rule="evenodd" stroke="none"/>
    </g>
    <linearGradient gradientTransform="matrix(0.0, -0.0155, -0.0189, 0.0, 21.85, 25.5)" gradientUnits="userSpaceOnUse" id="gradient0" spreadMethod="pad" x1="-819.2" x2="819.2">
      <stop offset="0.011764705882352941" stop-color="#bb9a76"/>
      <stop offset="1.0" stop-color="#a87f53"/>
    </linearGradient>
    <linearGradient gradientTransform="matrix(0.0, -0.0344, -0.0552, 0.0, 22.4, 16.4)" gradientUnits="userSpaceOnUse" id="gradient1" spreadMethod="pad" x1="-819.2" x2="819.2">
      <stop offset="0.0196078431372549" stop-color="#9c6732"/>
      <stop offset="1.0" stop-color="#7d4e2b"/>
    </linearGradient>
    <linearGradient gradientTransform="matrix(1.0E-4, 0.0223, -0.0231, 1.0E-4, 22.15, 22.3)" gradientUnits="userSpaceOnUse" id="gradient2" spreadMethod="pad" x1="-819.2" x2="819.2">
      <stop offset="0.011764705882352941" stop-color="#59351e"/>
      <stop offset="1.0" stop-color="#cc955e"/>
    </linearGradient>
    <g id="shape1" transform="matrix(1.0, 0.0, 0.0, 1.0, -0.2, -19.85)">
      <path d="M0.2 25.15 Q0.35 22.7 0.8 20.7 0.55 24.9 0.8 26.55 1.15 29.55 3.1 31.0 L8.1 35.15 Q10.6 37.5 11.0 40.25 L14.55 42.55 10.7 42.95 Q9.95 44.45 7.2 44.1 3.2 43.55 2.4 40.3 1.7 37.7 3.6 36.7 L3.8 34.5 4.5 36.35 Q6.5 35.95 6.95 37.05 7.45 38.1 6.85 39.15 6.25 40.1 5.7 39.3 6.4 39.25 6.5 38.85 6.55 38.45 5.85 37.8 5.25 37.15 4.65 37.45 4.1 37.75 3.8 38.9 3.2 41.35 6.05 42.45 9.0 43.55 9.45 40.85 9.95 38.6 7.15 36.25 L3.4 33.35 0.9 32.85 1.9 31.9 Q0.1 29.9 0.2 25.15" fill="#7a5130" fill-rule="evenodd" stroke="none"/>
      <path d="M0.25 24.25 Q0.4 21.85 0.85 19.85 0.6 24.0 0.85 25.6 1.2 28.6 3.15 30.1 L8.2 34.25 Q10.65 36.6 11.05 39.3 L14.7 42.6 10.8 42.1 Q10.05 43.55 7.25 43.2 3.25 42.6 2.45 39.45 1.75 36.85 3.7 35.85 L3.8 34.4 4.55 35.5 Q6.55 35.1 7.0 36.9 7.25 38.4 6.7 39.1 L5.85 39.45 Q7.15 38.25 5.75 36.95 4.45 35.6 3.85 38.0 3.25 40.45 6.1 41.5 9.05 42.6 9.5 39.95 10.05 37.75 7.2 35.3 L3.4 32.45 3.45 32.5 0.85 32.9 1.95 31.0 Q0.15 28.95 0.25 24.25" fill="#ca935c" fill-rule="evenodd" stroke="none"/>
      <path d="M0.85 21.5 Q0.8 24.45 0.9 25.65 1.4 28.7 3.25 30.2 L8.25 34.3 Q10.7 36.65 11.2 39.3 L14.3 42.2 14.05 42.1 13.9 41.95 12.2 40.75 Q10.35 39.15 10.3 38.05 10.15 36.7 8.45 35.2 L5.2 32.7 Q2.0 30.25 1.15 27.5 0.55 25.9 0.55 22.1 L0.85 21.5 M6.5 36.65 Q5.85 35.65 4.65 35.65 L4.45 35.75 4.35 35.65 4.2 35.65 4.2 34.8 4.7 35.55 Q6.6 35.15 7.1 36.95 7.3 38.0 7.1 38.7 L7.0 38.75 7.0 38.7 6.9 38.15 6.9 38.05 Q6.9 37.3 6.5 36.65 M4.25 40.35 L4.1 39.75 Q4.55 40.95 6.2 41.55 L8.45 41.75 8.55 41.8 7.0 42.1 Q6.2 42.1 5.35 41.4 L4.25 40.35" fill="#d7ad86" fill-rule="evenodd" stroke="none"/>
      <path d="M43.65 25.15 Q43.75 29.9 41.95 31.9 L42.95 32.85 40.45 33.35 36.7 36.25 Q33.9 38.6 34.4 40.85 34.85 43.55 37.8 42.45 40.65 41.35 40.05 38.9 39.75 37.75 39.2 37.45 38.6 37.15 38.0 37.8 37.3 38.45 37.35 38.85 37.45 39.25 38.15 39.3 37.6 40.1 37.0 39.15 36.4 38.1 36.9 37.05 37.35 35.95 39.35 36.35 L40.05 34.5 40.25 36.7 Q42.15 37.7 41.45 40.3 40.65 43.55 36.65 44.1 33.9 44.45 33.15 42.95 L29.3 42.55 32.85 40.25 Q33.25 37.5 35.75 35.15 L40.75 31.0 Q42.7 29.55 43.05 26.55 43.3 24.9 43.05 20.7 L43.65 25.15" fill="#7a5130" fill-rule="evenodd" stroke="none"/>
      <path d="M43.6 24.25 Q43.7 28.95 41.9 31.0 L43.0 32.9 40.4 32.5 40.45 32.45 36.65 35.3 Q33.8 37.75 34.35 39.95 34.8 42.6 37.75 41.5 40.6 40.45 40.0 38.0 39.4 35.6 38.1 36.95 36.7 38.25 38.0 39.45 L37.15 39.1 Q36.6 38.4 36.85 36.9 37.3 35.1 39.3 35.5 L40.05 34.4 40.15 35.85 Q42.1 36.85 41.4 39.45 40.6 42.6 36.6 43.2 33.8 43.55 33.05 42.1 L29.15 42.6 32.8 39.3 Q33.2 36.6 35.65 34.25 L40.7 30.1 Q42.65 28.6 43.0 25.6 43.25 24.0 43.0 19.85 L43.6 24.25" fill="#ca935c" fill-rule="evenodd" stroke="none"/>
      <path d="M37.35 36.65 Q36.95 37.3 36.95 38.05 L36.95 38.15 36.85 38.7 36.85 38.75 36.75 38.7 Q36.55 38.0 36.75 36.95 37.25 35.15 39.15 35.55 L39.65 34.8 39.65 35.65 39.5 35.65 39.4 35.75 39.2 35.65 Q38.0 35.65 37.35 36.65 M43.0 21.5 L43.3 22.1 Q43.3 25.9 42.7 27.5 41.85 30.25 38.65 32.7 L35.4 35.2 Q33.7 36.7 33.55 38.05 33.5 39.15 31.65 40.75 L29.95 41.95 29.8 42.1 29.55 42.2 32.65 39.3 Q33.15 36.65 35.6 34.3 L40.6 30.2 Q42.45 28.7 42.95 25.65 L43.0 21.5 M39.6 40.35 L38.5 41.4 Q37.65 42.1 36.85 42.1 L35.3 41.8 35.4 41.75 37.65 41.55 Q39.3 40.95 39.75 39.75 L39.6 40.35" fill="#d7ad86" fill-rule="evenodd" stroke="none"/>
    </g>
    <g id="sprite1" transform="matrix(1.0, 0.0, 0.0, 1.0, 0.0, 0.0)">
      <use height="20.15" transform="matrix(1.0, 0.0, 0.0, 1.0, 0.0, 0.0)" width="28.2" xlink:href="#shape2"/>
    </g>
    <g id="shape2" transform="matrix(1.0, 0.0, 0.0, 1.0, 0.0, 0.0)">
      <path d="M27.65 18.45 L27.4 18.95 Q26.2 20.8 23.4 19.8 19.6 18.5 17.35 14.05 14.8 9.1 9.75 7.4 4.1 5.65 0.0 10.3 1.0 6.85 3.7 4.15 7.2 0.65 11.9 0.05 L14.8 0.05 18.4 0.65 Q21.55 1.65 24.05 4.15 28.2 8.3 28.2 14.25 28.2 16.45 27.65 18.45" fill="#ffffff" fill-opacity="0.19607843" fill-rule="evenodd" stroke="none"/>
    </g>
    <g id="sprite2" transform="matrix(1.0, 0.0, 0.0, 1.0, 0.2, 0.0)">
      <use height="8.6" transform="matrix(1.0, 0.0, 0.0, 1.0, -0.2, 0.0)" width="35.05" xlink:href="#shape3"/>
    </g>
    <g id="shape3" transform="matrix(1.0, 0.0, 0.0, 1.0, 0.2, 0.0)">
      <path d="M34.4 4.4 Q34.85 5.8 34.85 7.65 L34.85 8.6 Q34.8 6.95 34.4 5.7 33.0 1.3 27.2 1.3 L7.45 1.3 Q0.05 1.3 -0.2 8.5 L-0.2 7.65 Q-0.2 0.0 7.45 0.0 L27.2 0.0 Q33.0 0.0 34.4 4.4" fill="#e7deda" fill-rule="evenodd" stroke="none"/>
    </g>
  </defs>
</svg>
