<?xml version="1.0" encoding="UTF-8" standalone="no"?>
<svg xmlns:xlink="http://www.w3.org/1999/xlink" height="66.0px" width="66.0px" xmlns="http://www.w3.org/2000/svg">
  <g transform="matrix(1.5, 0.0, 0.0, 1.5, -0.075, -0.075)">
    <use height="44.0" transform="matrix(1.0, 0.0, 0.0, 1.0, 0.05, 0.05)" width="44.0" xlink:href="#shape0"/>
    <use height="8.6" transform="matrix(1.2077, 0.0, 0.0, 1.2065, 0.9585, 0.5)" width="35.05" xlink:href="#sprite0"/>
    <use height="20.15" transform="matrix(1.1594, 0.0, 0.0, 1.1605, 5.85, 5.45)" width="28.2" xlink:href="#sprite1"/>
  </g>
  <defs>
    <g id="shape0" transform="matrix(1.0, 0.0, 0.0, 1.0, -0.05, -0.05)">
      <path d="M41.85 41.85 Q39.65 44.05 36.45 44.05 L7.65 44.05 Q4.5 44.05 2.3 41.85 0.05 39.65 0.05 36.45 L0.05 7.65 Q0.05 4.5 2.3 2.3 4.5 0.05 7.65 0.05 L36.45 0.05 Q39.6 0.05 41.85 2.3 44.05 4.5 44.05 7.65 L44.05 36.45 Q44.05 39.65 41.85 41.85" fill="url(#gradient0)" fill-rule="evenodd" stroke="none"/>
      <path d="M9.4 9.2 Q14.7 3.95 22.05 3.95 29.45 3.95 34.65 9.2 39.85 14.45 39.85 21.8 39.85 29.2 34.65 34.5 29.45 39.7 22.05 39.7 14.6 39.7 9.4 34.5 4.2 29.2 4.2 21.8 4.2 14.45 9.4 9.2" fill="url(#gradient1)" fill-rule="evenodd" stroke="none"/>
      <path d="M23.0 11.4 Q23.5 10.45 24.45 11.4 L26.8 20.85 28.4 22.7 29.0 25.35 29.75 25.35 30.2 23.4 39.85 23.4 Q39.3 29.6 34.8 34.1 L32.6 36.1 29.1 37.95 29.2 31.3 Q27.15 32.75 24.45 31.8 L23.0 31.3 Q21.7 31.4 23.0 22.8 L23.75 19.45 23.35 14.35 23.0 13.25 23.0 11.4 M7.3 20.6 L13.05 20.0 18.8 20.6 Q21.15 21.35 21.15 22.35 21.15 23.4 18.8 24.05 16.4 24.8 13.05 24.8 9.7 24.8 7.3 24.05 5.1 23.45 4.95 22.55 L4.95 22.35 4.95 22.3 Q5.1 21.3 7.3 20.6 M5.45 17.5 Q6.1 14.8 7.5 12.6 L12.25 13.3 Q14.6 14.05 14.6 15.05 14.6 16.05 12.25 16.75 9.85 17.5 6.5 17.5 L5.45 17.5 M13.65 28.15 Q13.65 29.15 11.25 29.85 L7.25 30.55 Q6.0 28.25 5.4 25.7 L5.5 25.7 Q8.9 25.7 11.25 26.4 13.65 27.15 13.65 28.15 M17.0 33.75 L13.5 34.2 10.0 33.75 9.55 33.65 8.65 32.5 Q8.9 32.1 10.0 31.7 L13.5 31.3 17.0 31.7 Q18.4 32.15 18.4 32.8 18.4 33.3 17.0 33.75" fill="#4a3355" fill-rule="evenodd" stroke="none"/>
      <path d="M21.9 5.45 Q15.0 5.5 10.15 10.4 5.25 15.2 5.2 22.1 5.25 29.05 10.15 33.9 15.0 38.8 21.9 38.8 28.8 38.8 33.75 33.9 38.55 29.05 38.55 22.1 38.55 15.2 33.75 10.4 28.8 5.5 21.9 5.45 M21.9 41.15 Q13.95 41.15 8.45 35.5 2.9 29.95 2.9 22.1 2.9 14.15 8.45 8.65 13.95 3.05 21.9 3.05 29.8 3.05 35.3 8.65 40.9 14.15 40.9 22.1 40.9 29.95 35.3 35.5 29.8 41.15 21.9 41.15" fill="url(#gradient2)" fill-rule="evenodd" stroke="none"/>
      <path d="M1.0 36.15 L0.95 35.75 Q0.95 34.8 1.65 34.05 2.35 33.4 3.3 33.4 4.3 33.4 4.95 34.05 5.7 34.8 5.7 35.75 L5.7 36.1 Q3.15 33.2 1.0 36.15" fill="#494136" fill-rule="evenodd" stroke="none"/>
      <path d="M5.7 36.1 Q5.55 36.85 4.95 37.4 4.3 38.15 3.3 38.15 2.35 38.15 1.65 37.4 1.05 36.85 1.0 36.15 3.15 33.2 5.7 36.1" fill="#625748" fill-rule="evenodd" stroke="none"/>
      <path d="M6.0 38.0 L6.0 37.75 Q6.0 37.15 6.4 36.75 6.85 36.35 7.4 36.35 8.0 36.35 8.4 36.75 8.85 37.15 8.85 37.75 L8.85 37.95 6.0 38.0" fill="#494136" fill-rule="evenodd" stroke="none"/>
      <path d="M8.85 37.95 L8.4 38.75 Q8.0 39.2 7.4 39.2 6.85 39.2 6.4 38.75 L6.0 38.0 8.85 37.95" fill="#625748" fill-rule="evenodd" stroke="none"/>
      <path d="M3.0 40.9 L3.0 40.65 Q3.0 40.05 3.4 39.65 3.85 39.25 4.4 39.25 5.0 39.25 5.4 39.65 5.85 40.05 5.85 40.65 L5.85 40.85 3.0 40.9" fill="#494136" fill-rule="evenodd" stroke="none"/>
      <path d="M5.85 40.85 L5.4 41.65 Q5.0 42.1 4.4 42.1 3.85 42.1 3.4 41.65 3.05 41.3 3.0 40.9 L5.85 40.85" fill="#625748" fill-rule="evenodd" stroke="none"/>
      <path d="M7.75 41.6 L7.7 41.4 Q7.7 40.95 8.0 40.65 8.35 40.3 8.8 40.3 9.25 40.3 9.55 40.65 9.9 40.95 9.9 41.4 L9.9 41.55 7.75 41.6" fill="#494136" fill-rule="evenodd" stroke="none"/>
      <path d="M9.9 41.55 L9.55 42.2 Q9.25 42.5 8.8 42.5 L8.0 42.2 7.75 41.6 9.9 41.55" fill="#625748" fill-rule="evenodd" stroke="none"/>
      <path d="M42.4 36.15 L42.45 35.75 Q42.45 34.8 41.75 34.05 41.05 33.4 40.1 33.4 39.1 33.4 38.45 34.05 37.7 34.8 37.7 35.75 L37.7 36.1 Q40.25 33.2 42.4 36.15" fill="#494136" fill-rule="evenodd" stroke="none"/>
      <path d="M37.7 36.1 Q37.85 36.85 38.45 37.4 39.1 38.15 40.1 38.15 41.05 38.15 41.75 37.4 42.35 36.85 42.4 36.15 40.25 33.2 37.7 36.1" fill="#625748" fill-rule="evenodd" stroke="none"/>
      <path d="M37.5 38.0 L37.5 37.75 Q37.5 37.15 37.1 36.75 36.65 36.35 36.1 36.35 35.5 36.35 35.1 36.75 34.65 37.15 34.65 37.75 L34.65 37.95 37.5 38.0" fill="#494136" fill-rule="evenodd" stroke="none"/>
      <path d="M34.65 37.95 L35.1 38.75 Q35.5 39.2 36.1 39.2 L37.1 38.75 37.5 38.0 34.65 37.95" fill="#625748" fill-rule="evenodd" stroke="none"/>
      <path d="M40.55 40.9 L40.55 40.65 Q40.55 40.05 40.15 39.65 39.7 39.25 39.15 39.25 38.55 39.25 38.15 39.65 37.7 40.05 37.7 40.65 L37.7 40.85 40.55 40.9" fill="#494136" fill-rule="evenodd" stroke="none"/>
      <path d="M37.7 40.85 L38.15 41.65 Q38.55 42.1 39.15 42.1 39.7 42.1 40.15 41.65 L40.55 40.9 37.7 40.85" fill="#625748" fill-rule="evenodd" stroke="none"/>
      <path d="M35.8 41.6 L35.85 41.4 35.55 40.65 Q35.2 40.3 34.75 40.3 34.3 40.3 34.0 40.65 33.65 40.95 33.65 41.4 L33.65 41.55 35.8 41.6" fill="#494136" fill-rule="evenodd" stroke="none"/>
      <path d="M33.65 41.55 L34.0 42.2 Q34.3 42.5 34.75 42.5 L35.55 42.2 35.8 41.6 33.65 41.55" fill="#625748" fill-rule="evenodd" stroke="none"/>
    </g>
    <linearGradient gradientTransform="matrix(0.0, -0.0551, -0.0551, 0.0, 22.1, 18.5)" gradientUnits="userSpaceOnUse" id="gradient0" spreadMethod="pad" x1="-819.2" x2="819.2">
      <stop offset="0.011764705882352941" stop-color="#bcb0a0"/>
      <stop offset="1.0" stop-color="#453e3a"/>
    </linearGradient>
    <linearGradient gradientTransform="matrix(0.0, -0.0167, -0.0167, 0.0, 22.05, 18.45)" gradientUnits="userSpaceOnUse" id="gradient1" spreadMethod="pad" x1="-819.2" x2="819.2">
      <stop offset="0.011764705882352941" stop-color="#bcb9ae"/>
      <stop offset="1.0" stop-color="#9b5b79"/>
    </linearGradient>
    <linearGradient gradientTransform="matrix(1.0E-4, 0.0223, -0.0232, 1.0E-4, 21.95, 22.35)" gradientUnits="userSpaceOnUse" id="gradient2" spreadMethod="pad" x1="-819.2" x2="819.2">
      <stop offset="0.011764705882352941" stop-color="#494136"/>
      <stop offset="1.0" stop-color="#dbccbd"/>
    </linearGradient>
    <g id="sprite0" transform="matrix(1.0, 0.0, 0.0, 1.0, 0.2, 0.0)">
      <use height="8.6" transform="matrix(1.0, 0.0, 0.0, 1.0, -0.2, 0.0)" width="35.05" xlink:href="#shape1"/>
    </g>
    <g id="shape1" transform="matrix(1.0, 0.0, 0.0, 1.0, 0.2, 0.0)">
      <path d="M34.85 8.6 Q34.8 6.95 34.4 5.7 33.0 1.3 27.2 1.3 L7.45 1.3 Q0.05 1.3 -0.2 8.5 L-0.2 7.65 Q-0.2 0.0 7.45 0.0 L27.2 0.0 Q33.0 0.0 34.4 4.4 34.85 5.8 34.85 7.65 L34.85 8.6" fill="#e7deda" fill-rule="evenodd" stroke="none"/>
    </g>
    <g id="sprite1" transform="matrix(1.0, 0.0, 0.0, 1.0, 0.0, 0.0)">
      <use height="20.15" transform="matrix(1.0, 0.0, 0.0, 1.0, 0.0, 0.0)" width="28.2" xlink:href="#shape2"/>
    </g>
    <g id="shape2" transform="matrix(1.0, 0.0, 0.0, 1.0, 0.0, 0.0)">
      <path d="M27.65 18.45 L27.4 18.95 Q26.2 20.8 23.4 19.8 19.6 18.5 17.35 14.05 14.8 9.1 9.75 7.4 4.1 5.65 0.0 10.3 1.0 6.85 3.7 4.15 7.2 0.65 11.9 0.05 L14.8 0.05 18.4 0.65 Q21.55 1.65 24.05 4.15 28.2 8.3 28.2 14.25 28.2 16.45 27.65 18.45" fill="#ffffff" fill-opacity="0.19607843" fill-rule="evenodd" stroke="none"/>
    </g>
  </defs>
</svg>
