<?xml version="1.0" encoding="UTF-8" standalone="no"?>
<svg xmlns:xlink="http://www.w3.org/1999/xlink" height="66.225px" width="66.0px" xmlns="http://www.w3.org/2000/svg">
  <g transform="matrix(1.5, 0.0, 0.0, 1.5, 0.0, 0.0)">
    <use height="44.15" transform="matrix(1.0, 0.0, 0.0, 1.0, 0.0, 0.0)" width="44.0" xlink:href="#shape0"/>
    <use height="20.15" transform="matrix(1.1594, 0.0, 0.0, 1.1605, 5.75, 5.35)" width="28.2" xlink:href="#sprite0"/>
    <use height="8.6" transform="matrix(1.2077, 0.0, 0.0, 1.2065, 0.9585, 0.55)" width="35.05" xlink:href="#sprite1"/>
  </g>
  <defs>
    <g id="shape0" transform="matrix(1.0, 0.0, 0.0, 1.0, 0.0, 0.0)">
      <path d="M20.1 44.15 L16.35 44.15 16.35 43.1 Q18.0 44.1 20.1 44.15 M28.65 42.25 L33.05 42.25 33.05 44.15 28.65 44.15 28.65 42.25" fill="url(#gradient0)" fill-rule="evenodd" stroke="none"/>
      <path d="M16.35 43.1 L15.25 42.25 28.65 42.25 28.65 44.15 20.1 44.15 Q18.0 44.1 16.35 43.1" fill="url(#gradient1)" fill-rule="evenodd" stroke="none"/>
      <path d="M41.8 2.3 Q44.0 4.5 44.0 7.6 L44.0 36.45 Q44.0 39.65 41.8 41.85 39.6 44.05 36.4 44.05 L7.6 44.05 Q4.45 44.05 2.25 41.85 0.0 39.65 0.0 36.45 L0.0 7.6 Q0.0 4.5 2.25 2.3 4.45 0.0 7.6 0.0 L36.4 0.0 Q39.55 0.0 41.8 2.3" fill="url(#gradient2)" fill-rule="evenodd" stroke="none"/>
      <path d="M8.85 8.95 Q14.3 3.5 22.05 3.5 29.75 3.5 35.2 8.95 40.6 14.4 40.6 22.05 40.6 29.8 35.2 35.25 29.75 40.65 22.05 40.65 14.3 40.65 8.85 35.25 3.4 29.8 3.4 22.05 3.4 14.35 8.85 8.95" fill="url(#gradient3)" fill-rule="evenodd" stroke="none"/>
      <path d="M31.05 20.9 L24.9 20.9 24.9 21.35 24.9 33.2 36.0 33.2 34.55 34.75 21.75 34.75 9.0 34.75 7.55 33.2 18.6 33.2 18.6 21.35 18.6 20.9 12.5 20.9 12.5 18.1 31.05 18.1 31.05 20.9 M22.3 33.2 L22.3 26.3 21.2 26.3 21.2 33.2 22.3 33.2 M24.45 10.1 Q25.75 11.4 25.75 13.2 25.75 15.05 24.45 16.3 23.15 17.55 21.35 17.55 L21.2 17.55 Q19.4 17.55 18.1 16.3 16.8 15.05 16.8 13.2 16.8 11.4 18.1 10.1 19.4 8.8 21.2 8.8 L21.35 8.8 Q23.15 8.8 24.45 10.1 M27.25 31.3 L27.25 22.85 34.0 31.3 27.25 31.3 M9.5 31.3 L16.25 22.85 16.25 31.3 9.5 31.3" fill="#496125" fill-rule="evenodd" stroke="none"/>
      <path d="M33.7 10.35 Q28.75 5.5 21.85 5.4 14.95 5.5 10.1 10.35 5.2 15.15 5.15 22.05 5.2 29.05 10.1 33.9 14.95 38.8 21.85 38.8 28.75 38.8 33.7 33.9 38.5 29.05 38.5 22.05 38.5 15.15 33.7 10.35 M40.85 22.05 Q40.85 29.95 35.25 35.5 29.75 41.15 21.85 41.15 13.9 41.15 8.4 35.5 2.85 29.95 2.85 22.05 2.85 14.1 8.4 8.6 13.9 3.05 21.85 3.05 29.75 3.05 35.25 8.6 40.85 14.1 40.85 22.05" fill="url(#gradient4)" fill-rule="evenodd" stroke="none"/>
      <path d="M0.8 32.95 Q1.1 30.6 2.4 29.4 L2.8 27.7 Q2.9 26.65 2.65 25.65 L2.4 24.6 1.75 23.25 2.8 24.35 3.6 25.55 3.95 26.95 Q4.0 27.85 3.3 29.65 2.65 31.25 2.5 33.45 L2.45 33.15 2.4 33.45 Q1.8 36.25 2.95 38.2 3.55 39.15 4.25 39.65 L3.95 39.2 4.0 39.25 4.3 39.75 Q4.85 40.5 5.75 40.65 6.85 40.85 7.9 39.95 9.1 38.95 8.2 37.65 L8.25 38.5 Q8.0 39.45 6.65 39.9 L5.7 40.05 5.7 40.0 5.55 38.8 Q5.5 37.05 6.95 36.15 8.45 35.2 9.95 36.75 L11.2 38.55 Q11.15 36.7 10.2 35.7 L10.4 35.9 Q11.05 36.65 11.35 37.6 L11.3 37.6 11.5 38.0 11.75 38.85 11.85 40.0 Q10.45 42.9 8.65 42.9 9.9 42.7 10.05 41.55 7.15 42.75 3.65 41.05 1.15 39.1 0.8 32.95" fill="#9ec087" fill-rule="evenodd" stroke="none"/>
      <path d="M2.5 33.45 L2.55 34.75 Q2.9 36.5 3.75 37.65 L3.9 37.05 Q4.6 35.05 7.25 34.5 L9.15 34.95 Q9.75 35.25 10.2 35.7 11.15 36.7 11.2 38.55 L9.95 36.75 Q8.45 35.2 6.95 36.15 5.5 37.05 5.55 38.8 L5.7 40.0 5.7 40.05 6.65 39.9 Q8.0 39.45 8.25 38.5 L8.2 37.65 Q9.1 38.95 7.9 39.95 6.85 40.85 5.75 40.65 4.85 40.5 4.3 39.75 L4.0 39.25 3.95 39.2 4.25 39.65 Q3.55 39.15 2.95 38.2 1.8 36.25 2.4 33.45 L2.5 33.45 M3.95 39.2 L4.05 39.15 4.0 38.95 3.9 39.05 3.95 39.2" fill="#c0d6b1" fill-rule="evenodd" stroke="none"/>
      <path d="M11.85 40.0 Q11.7 41.1 11.05 42.2 10.1 44.0 6.95 44.1 L4.05 43.8 5.55 43.3 7.75 43.05 6.5 43.15 Q4.35 43.1 2.85 41.6 0.95 39.55 0.7 35.45 L0.8 32.95 Q1.15 39.1 3.65 41.05 7.15 42.75 10.05 41.55 9.9 42.7 8.65 42.9 10.45 42.9 11.85 40.0" fill="#648a4a" fill-rule="evenodd" stroke="none"/>
      <path d="M2.4 33.45 L2.45 33.15 2.5 33.45 2.4 33.45" fill="#00632e" fill-rule="evenodd" stroke="none"/>
      <path d="M3.95 39.2 L3.9 39.05 4.0 38.95 4.05 39.15 3.95 39.2" fill="#ccbf38" fill-rule="evenodd" stroke="none"/>
      <path d="M11.35 37.6 L11.5 38.0 11.3 37.6 11.35 37.6" fill="url(#gradient5)" fill-rule="evenodd" stroke="none"/>
      <path d="M43.05 32.95 Q42.75 30.6 41.45 29.4 L41.05 27.7 Q40.95 26.65 41.2 25.65 L41.45 24.6 42.1 23.25 41.05 24.35 40.25 25.55 39.9 26.95 Q39.85 27.85 40.55 29.65 41.2 31.25 41.35 33.45 L41.4 33.15 41.45 33.45 Q42.05 36.25 40.9 38.2 L39.6 39.65 39.9 39.2 39.85 39.25 39.55 39.75 Q39.0 40.5 38.1 40.65 37.0 40.85 35.95 39.95 34.75 38.95 35.65 37.65 L35.6 38.5 Q35.85 39.45 37.2 39.9 L38.15 40.05 38.15 40.0 38.3 38.8 Q38.35 37.05 36.9 36.15 35.4 35.2 33.9 36.75 33.1 37.6 32.65 38.55 32.7 36.7 33.65 35.7 L33.45 35.9 Q32.8 36.65 32.5 37.6 L32.55 37.6 32.35 38.0 32.1 38.85 32.0 40.0 Q33.4 42.9 35.2 42.9 33.95 42.7 33.8 41.55 36.7 42.75 40.2 41.05 42.7 39.1 43.05 32.95" fill="#9ec087" fill-rule="evenodd" stroke="none"/>
      <path d="M41.35 33.45 L41.3 34.75 Q40.95 36.5 40.1 37.65 L39.95 37.05 Q39.25 35.05 36.6 34.5 L34.7 34.95 33.65 35.7 Q32.7 36.7 32.65 38.55 33.1 37.6 33.9 36.75 35.4 35.2 36.9 36.15 38.35 37.05 38.3 38.8 L38.15 40.0 38.15 40.05 37.2 39.9 Q35.85 39.45 35.6 38.5 L35.65 37.65 Q34.75 38.95 35.95 39.95 37.0 40.85 38.1 40.65 39.0 40.5 39.55 39.75 L39.85 39.25 39.9 39.2 39.6 39.65 40.9 38.2 Q42.05 36.25 41.45 33.45 L41.35 33.45 M39.9 39.2 L39.8 39.15 39.85 38.95 39.95 39.05 39.9 39.2" fill="#c0d6b1" fill-rule="evenodd" stroke="none"/>
      <path d="M32.0 40.0 Q32.15 41.1 32.8 42.2 33.75 44.0 36.9 44.1 L39.8 43.8 38.3 43.3 36.1 43.05 37.35 43.15 Q39.5 43.1 41.0 41.6 42.9 39.55 43.15 35.45 L43.05 32.95 Q42.7 39.1 40.2 41.05 36.7 42.75 33.8 41.55 33.95 42.7 35.2 42.9 33.4 42.9 32.0 40.0" fill="#648a4a" fill-rule="evenodd" stroke="none"/>
      <path d="M41.45 33.45 L41.4 33.15 41.35 33.45 41.45 33.45" fill="#00632e" fill-rule="evenodd" stroke="none"/>
      <path d="M39.9 39.2 L39.95 39.05 39.85 38.95 39.8 39.15 39.9 39.2" fill="#ccbf38" fill-rule="evenodd" stroke="none"/>
      <path d="M32.5 37.6 L32.35 38.0 32.55 37.6 32.5 37.6" fill="url(#gradient6)" fill-rule="evenodd" stroke="none"/>
    </g>
    <linearGradient gradientTransform="matrix(0.0, -0.0555, -0.0554, 0.0, 22.45, 18.45)" gradientUnits="userSpaceOnUse" id="gradient0" spreadMethod="pad" x1="-819.2" x2="819.2">
      <stop offset="0.011764705882352941" stop-color="#e8e1b7"/>
      <stop offset="1.0" stop-color="#eed731"/>
    </linearGradient>
    <linearGradient gradientTransform="matrix(0.0, -0.0555, -0.0554, 0.0, 34.75, 18.45)" gradientUnits="userSpaceOnUse" id="gradient1" spreadMethod="pad" x1="-819.2" x2="819.2">
      <stop offset="0.011764705882352941" stop-color="#e8e1b7"/>
      <stop offset="1.0" stop-color="#eed731"/>
    </linearGradient>
    <linearGradient gradientTransform="matrix(0.0, -0.0283, -0.0551, 0.0, 22.6, 22.0)" gradientUnits="userSpaceOnUse" id="gradient2" spreadMethod="pad" x1="-819.2" x2="819.2">
      <stop offset="0.011764705882352941" stop-color="#9dae7c"/>
      <stop offset="1.0" stop-color="#7e8f45"/>
    </linearGradient>
    <linearGradient gradientTransform="matrix(0.0, -0.0173, -0.0173, 0.0, 22.05, 18.55)" gradientUnits="userSpaceOnUse" id="gradient3" spreadMethod="pad" x1="-819.2" x2="819.2">
      <stop offset="0.011764705882352941" stop-color="#d3d4b5"/>
      <stop offset="1.0" stop-color="#71a26f"/>
    </linearGradient>
    <linearGradient gradientTransform="matrix(1.0E-4, 0.0224, -0.0232, 1.0E-4, 21.9, 22.35)" gradientUnits="userSpaceOnUse" id="gradient4" spreadMethod="pad" x1="-819.2" x2="819.2">
      <stop offset="0.011764705882352941" stop-color="#516537"/>
      <stop offset="1.0" stop-color="#a8ce99"/>
    </linearGradient>
    <linearGradient gradientTransform="matrix(0.0, -0.025, -0.0249, 0.0, 5.95, 31.4)" gradientUnits="userSpaceOnUse" id="gradient5" spreadMethod="pad" x1="-819.2" x2="819.2">
      <stop offset="0.011764705882352941" stop-color="#bed9a5"/>
      <stop offset="1.0" stop-color="#739416"/>
    </linearGradient>
    <linearGradient gradientTransform="matrix(0.0, -0.025, 0.0249, 0.0, 37.85, 31.4)" gradientUnits="userSpaceOnUse" id="gradient6" spreadMethod="pad" x1="-819.2" x2="819.2">
      <stop offset="0.011764705882352941" stop-color="#bed9a5"/>
      <stop offset="1.0" stop-color="#739416"/>
    </linearGradient>
    <g id="sprite0" transform="matrix(1.0, 0.0, 0.0, 1.0, 0.0, 0.0)">
      <use height="20.15" transform="matrix(1.0, 0.0, 0.0, 1.0, 0.0, 0.0)" width="28.2" xlink:href="#shape1"/>
    </g>
    <g id="shape1" transform="matrix(1.0, 0.0, 0.0, 1.0, 0.0, 0.0)">
      <path d="M27.65 18.45 L27.4 18.95 Q26.2 20.8 23.4 19.8 19.6 18.5 17.35 14.05 14.8 9.1 9.75 7.4 4.1 5.65 0.0 10.3 1.0 6.85 3.7 4.15 7.2 0.65 11.9 0.05 L14.8 0.05 18.4 0.65 Q21.55 1.65 24.05 4.15 28.2 8.3 28.2 14.25 28.2 16.45 27.65 18.45" fill="#ffffff" fill-opacity="0.19607843" fill-rule="evenodd" stroke="none"/>
    </g>
    <g id="sprite1" transform="matrix(1.0, 0.0, 0.0, 1.0, 0.2, 0.0)">
      <use height="8.6" transform="matrix(1.0, 0.0, 0.0, 1.0, -0.2, 0.0)" width="35.05" xlink:href="#shape2"/>
    </g>
    <g id="shape2" transform="matrix(1.0, 0.0, 0.0, 1.0, 0.2, 0.0)">
      <path d="M34.85 8.6 Q34.8 6.95 34.4 5.7 33.0 1.3 27.2 1.3 L7.45 1.3 Q0.05 1.3 -0.2 8.5 L-0.2 7.65 Q-0.2 0.0 7.45 0.0 L27.2 0.0 Q33.0 0.0 34.4 4.4 34.85 5.8 34.85 7.65 L34.85 8.6" fill="#e7deda" fill-rule="evenodd" stroke="none"/>
    </g>
  </defs>
</svg>
