<?xml version="1.0" encoding="UTF-8" standalone="no"?>
<svg xmlns:xlink="http://www.w3.org/1999/xlink" height="66.0px" width="66.0px" xmlns="http://www.w3.org/2000/svg">
  <g transform="matrix(1.5, 0.0, 0.0, 1.5, 0.0, 0.0)">
    <use height="44.0" transform="matrix(1.0, 0.0, 0.0, 1.0, 0.0, 0.0)" width="44.0" xlink:href="#shape0"/>
    <use height="0.0" transform="matrix(1.2125, 0.0, 0.0, 1.2125, 1.1, 0.9)" width="0.0" xlink:href="#sprite0"/>
    <use height="20.15" transform="matrix(1.1594, 0.0, 0.0, 1.1605, 5.75, 5.35)" width="28.2" xlink:href="#sprite1"/>
    <use height="8.6" transform="matrix(1.2077, 0.0, 0.0, 1.2065, 0.9585, 0.55)" width="35.05" xlink:href="#sprite2"/>
  </g>
  <defs>
    <g id="shape0" transform="matrix(1.0, 0.0, 0.0, 1.0, 0.0, 0.0)">
      <path d="M41.8 2.25 Q44.0 4.45 44.0 7.6 L44.0 36.4 Q44.0 39.6 41.8 41.8 39.6 44.0 36.4 44.0 L7.6 44.0 Q4.45 44.0 2.25 41.8 0.0 39.6 0.0 36.4 L0.0 7.6 Q0.0 4.45 2.25 2.25 4.45 0.0 7.6 0.0 L36.4 0.0 Q39.55 0.0 41.8 2.25" fill="url(#gradient0)" fill-rule="evenodd" stroke="none"/>
      <path d="M9.2 9.6 Q14.5 4.35 21.85 4.35 29.25 4.35 34.45 9.6 39.65 14.85 39.65 22.2 39.65 29.6 34.45 34.9 29.25 40.1 21.85 40.1 14.4 40.1 9.2 34.9 4.0 29.6 4.0 22.2 4.0 14.85 9.2 9.6" fill="url(#gradient1)" fill-rule="evenodd" stroke="none"/>
      <path d="M22.4 13.5 Q22.1 11.5 19.8 10.65 L18.4 10.25 22.25 10.65 Q25.35 11.45 25.7 13.9 26.2 17.5 24.1 19.05 22.0 20.6 20.8 22.3 19.5 23.95 20.0 27.05 20.4 30.15 24.7 32.25 17.95 30.35 17.2 26.8 16.45 23.2 18.0 21.15 19.55 19.0 21.2 17.5 22.75 15.95 22.4 13.5 M30.2 19.75 Q31.4 18.65 31.1 16.65 30.8 14.75 28.05 14.1 33.3 14.15 33.7 17.0 34.05 19.8 32.45 21.0 30.8 22.25 29.9 23.45 28.9 24.8 29.25 27.15 29.55 29.6 32.9 31.25 27.7 29.7 27.1 27.0 26.45 24.2 27.7 22.6 28.9 20.9 30.2 19.75 M12.55 16.65 Q12.25 14.75 9.5 14.1 14.75 14.15 15.15 17.0 15.5 19.8 13.9 21.0 12.25 22.25 11.35 23.45 10.35 24.8 10.7 27.15 11.0 29.6 14.35 31.25 9.15 29.7 8.55 27.0 7.9 24.2 9.15 22.6 10.35 20.9 11.65 19.75 12.85 18.65 12.55 16.65" fill="#4a3355" fill-rule="evenodd" stroke="none"/>
      <path d="M21.85 5.4 Q14.95 5.45 10.1 10.35 5.2 15.15 5.15 22.05 5.2 29.0 10.1 33.85 14.95 38.75 21.85 38.75 28.75 38.75 33.7 33.85 38.5 29.0 38.5 22.05 38.5 15.15 33.7 10.35 28.75 5.45 21.85 5.4 M21.85 41.1 Q13.9 41.1 8.4 35.45 2.85 29.9 2.85 22.05 2.85 14.1 8.4 8.6 13.9 3.0 21.85 3.0 29.75 3.0 35.25 8.6 40.85 14.1 40.85 22.05 40.85 29.9 35.25 35.45 29.75 41.1 21.85 41.1" fill="url(#gradient2)" fill-rule="evenodd" stroke="none"/>
      <path d="M0.8 35.95 L0.75 35.55 Q0.75 34.6 1.45 33.85 2.15 33.2 3.1 33.2 4.1 33.2 4.75 33.85 5.5 34.6 5.5 35.55 L5.5 35.9 Q2.95 33.0 0.8 35.95" fill="#494136" fill-rule="evenodd" stroke="none"/>
      <path d="M5.5 35.9 L4.75 37.2 Q4.1 37.95 3.1 37.95 2.15 37.95 1.45 37.2 0.85 36.65 0.8 35.95 2.95 33.0 5.5 35.9" fill="#625748" fill-rule="evenodd" stroke="none"/>
      <path d="M5.85 37.9 L5.85 37.65 Q5.85 37.05 6.25 36.65 6.7 36.25 7.25 36.25 7.85 36.25 8.25 36.65 L8.7 37.65 8.7 37.85 5.85 37.9" fill="#494136" fill-rule="evenodd" stroke="none"/>
      <path d="M8.7 37.85 L8.25 38.65 Q7.85 39.1 7.25 39.1 6.7 39.1 6.25 38.65 L5.85 37.9 8.7 37.85" fill="#625748" fill-rule="evenodd" stroke="none"/>
      <path d="M2.85 40.7 L2.85 40.45 Q2.85 39.85 3.25 39.45 3.7 39.05 4.25 39.05 4.85 39.05 5.25 39.45 5.7 39.85 5.7 40.45 L5.7 40.65 2.85 40.7" fill="#494136" fill-rule="evenodd" stroke="none"/>
      <path d="M5.7 40.65 L5.25 41.45 Q4.85 41.9 4.25 41.9 L3.25 41.45 2.85 40.7 5.7 40.65" fill="#625748" fill-rule="evenodd" stroke="none"/>
      <path d="M7.55 41.45 L7.5 41.25 Q7.5 40.8 7.8 40.5 8.15 40.15 8.6 40.15 9.05 40.15 9.35 40.5 9.7 40.8 9.7 41.25 L9.7 41.4 7.55 41.45" fill="#494136" fill-rule="evenodd" stroke="none"/>
      <path d="M9.7 41.4 L9.35 42.05 8.6 42.35 Q8.15 42.35 7.8 42.05 L7.55 41.45 9.7 41.4" fill="#625748" fill-rule="evenodd" stroke="none"/>
      <path d="M42.35 35.95 L42.4 35.55 Q42.4 34.6 41.7 33.85 41.0 33.2 40.05 33.2 39.05 33.2 38.4 33.85 37.65 34.6 37.65 35.55 L37.65 35.9 Q40.2 33.0 42.35 35.95" fill="#494136" fill-rule="evenodd" stroke="none"/>
      <path d="M37.65 35.9 Q37.8 36.65 38.4 37.2 39.05 37.95 40.05 37.95 41.0 37.95 41.7 37.2 42.3 36.65 42.35 35.95 40.2 33.0 37.65 35.9" fill="#625748" fill-rule="evenodd" stroke="none"/>
      <path d="M37.35 37.9 L37.35 37.65 Q37.35 37.05 36.95 36.65 L35.95 36.25 Q35.35 36.25 34.95 36.65 34.5 37.05 34.5 37.65 L34.5 37.85 37.35 37.9" fill="#494136" fill-rule="evenodd" stroke="none"/>
      <path d="M34.5 37.85 L34.95 38.65 Q35.35 39.1 35.95 39.1 L36.95 38.65 37.35 37.9 34.5 37.85" fill="#625748" fill-rule="evenodd" stroke="none"/>
      <path d="M40.35 40.7 L40.35 40.45 Q40.35 39.85 39.95 39.45 L38.95 39.05 Q38.35 39.05 37.95 39.45 37.5 39.85 37.5 40.45 L37.5 40.65 40.35 40.7" fill="#494136" fill-rule="evenodd" stroke="none"/>
      <path d="M37.5 40.65 L37.95 41.45 Q38.35 41.9 38.95 41.9 39.5 41.9 39.95 41.45 L40.35 40.7 37.5 40.65" fill="#625748" fill-rule="evenodd" stroke="none"/>
      <path d="M35.6 41.45 L35.65 41.25 35.35 40.5 Q35.0 40.15 34.55 40.15 34.1 40.15 33.8 40.5 33.45 40.8 33.45 41.25 L33.45 41.4 35.6 41.45" fill="#494136" fill-rule="evenodd" stroke="none"/>
      <path d="M33.45 41.4 L33.8 42.05 34.55 42.35 35.35 42.05 35.6 41.45 33.45 41.4" fill="#625748" fill-rule="evenodd" stroke="none"/>
    </g>
    <linearGradient gradientTransform="matrix(0.0, -0.0551, -0.0551, 0.0, 22.0, 18.4)" gradientUnits="userSpaceOnUse" id="gradient0" spreadMethod="pad" x1="-819.2" x2="819.2">
      <stop offset="0.011764705882352941" stop-color="#bcb0a0"/>
      <stop offset="1.0" stop-color="#453e3a"/>
    </linearGradient>
    <linearGradient gradientTransform="matrix(0.0, -0.0167, -0.0167, 0.0, 21.85, 18.85)" gradientUnits="userSpaceOnUse" id="gradient1" spreadMethod="pad" x1="-819.2" x2="819.2">
      <stop offset="0.011764705882352941" stop-color="#bcb9ae"/>
      <stop offset="1.0" stop-color="#9b5b79"/>
    </linearGradient>
    <linearGradient gradientTransform="matrix(1.0E-4, 0.0223, -0.0232, 1.0E-4, 21.9, 22.3)" gradientUnits="userSpaceOnUse" id="gradient2" spreadMethod="pad" x1="-819.2" x2="819.2">
      <stop offset="0.011764705882352941" stop-color="#494136"/>
      <stop offset="1.0" stop-color="#dbccbd"/>
    </linearGradient>
    <g id="sprite1" transform="matrix(1.0, 0.0, 0.0, 1.0, 0.0, 0.0)">
      <use height="20.15" transform="matrix(1.0, 0.0, 0.0, 1.0, 0.0, 0.0)" width="28.2" xlink:href="#shape1"/>
    </g>
    <g id="shape1" transform="matrix(1.0, 0.0, 0.0, 1.0, 0.0, 0.0)">
      <path d="M27.65 18.45 L27.4 18.95 Q26.2 20.8 23.4 19.8 19.6 18.5 17.35 14.05 14.8 9.1 9.75 7.4 4.1 5.65 0.0 10.3 1.0 6.85 3.7 4.15 7.2 0.65 11.9 0.05 L14.8 0.05 18.4 0.65 Q21.55 1.65 24.05 4.15 28.2 8.3 28.2 14.25 28.2 16.45 27.65 18.45" fill="#ffffff" fill-opacity="0.19607843" fill-rule="evenodd" stroke="none"/>
    </g>
    <g id="sprite2" transform="matrix(1.0, 0.0, 0.0, 1.0, 0.2, 0.0)">
      <use height="8.6" transform="matrix(1.0, 0.0, 0.0, 1.0, -0.2, 0.0)" width="35.05" xlink:href="#shape2"/>
    </g>
    <g id="shape2" transform="matrix(1.0, 0.0, 0.0, 1.0, 0.2, 0.0)">
      <path d="M34.85 8.6 Q34.8 6.95 34.4 5.7 33.0 1.3 27.2 1.3 L7.45 1.3 Q0.05 1.3 -0.2 8.5 L-0.2 7.65 Q-0.2 0.0 7.45 0.0 L27.2 0.0 Q33.0 0.0 34.4 4.4 34.85 5.8 34.85 7.65 L34.85 8.6" fill="#e7deda" fill-rule="evenodd" stroke="none"/>
    </g>
  </defs>
</svg>
